<?xml version="1.0" encoding="utf-8" standalone="no"?>
<!DOCTYPE svg PUBLIC "-//W3C//DTD SVG 1.1//EN"
  "http://www.w3.org/Graphics/SVG/1.1/DTD/svg11.dtd">
<svg xmlns:xlink="http://www.w3.org/1999/xlink" width="568.8pt" height="583.918125pt" viewBox="0 0 568.8 583.918125" xmlns="http://www.w3.org/2000/svg" version="1.1">
 <metadata>
  <rdf:RDF xmlns:dc="http://purl.org/dc/elements/1.1/" xmlns:cc="http://creativecommons.org/ns#" xmlns:rdf="http://www.w3.org/1999/02/22-rdf-syntax-ns#">
   <cc:Work>
    <dc:type rdf:resource="http://purl.org/dc/dcmitype/StillImage"/>
    <dc:date>2022-12-23T18:52:48.081658</dc:date>
    <dc:format>image/svg+xml</dc:format>
    <dc:creator>
     <cc:Agent>
      <dc:title>Matplotlib v3.5.2, https://matplotlib.org/</dc:title>
     </cc:Agent>
    </dc:creator>
   </cc:Work>
  </rdf:RDF>
 </metadata>
 <defs>
  <style type="text/css">*{stroke-linejoin: round; stroke-linecap: butt}</style>
 </defs>
 <g id="figure_1">
  <g id="patch_1">
   <path d="M 0 583.918125 
L 568.8 583.918125 
L 568.8 0 
L 0 0 
z
" style="fill: #ffffff"/>
  </g>
  <g id="axes_1">
   <g id="LineCollection_1">
    <path d="M 464.4 257.025891 
L 265.396901 257.025891 
" clip-path="url(#p70aad0915b)" style="fill: none; stroke: #000000; stroke-opacity: 0.3; stroke-width: 13.655153"/>
    <path d="M 265.396901 257.025891 
L 104.4 119.518125 
" clip-path="url(#p70aad0915b)" style="fill: none; stroke: #000000; stroke-opacity: 0.3; stroke-width: 13.767355"/>
    <path d="M 265.396901 257.025891 
L 104.400012 394.533671 
" clip-path="url(#p70aad0915b)" style="fill: none; stroke: #000000; stroke-opacity: 0.3; stroke-width: 16"/>
    <path d="M 265.396901 257.025891 
L 326.892262 479.518125 
" clip-path="url(#p70aad0915b)" style="fill: none; stroke: #000000; stroke-opacity: 0.3; stroke-width: 12.305367"/>
   </g>
   <g id="PathCollection_1">
    <path d="M 464.4 283.483404 
C 471.416614 283.483404 478.146791 280.695674 483.108287 275.734178 
C 488.069783 270.772682 490.857513 264.042506 490.857513 257.025891 
C 490.857513 250.009277 488.069783 243.2791 483.108287 238.317604 
C 478.146791 233.356108 471.416614 230.568378 464.4 230.568378 
C 457.383386 230.568378 450.653209 233.356108 445.691713 238.317604 
C 440.730217 243.2791 437.942487 250.009277 437.942487 257.025891 
C 437.942487 264.042506 440.730217 270.772682 445.691713 275.734178 
C 450.653209 280.695674 457.383386 283.483404 464.4 283.483404 
z
" clip-path="url(#p70aad0915b)" style="fill: #c70039; fill-opacity: 0.99; stroke: #c70039; stroke-opacity: 0.99"/>
    <path d="M 265.396901 280.45594 
C 271.610623 280.45594 277.570683 277.987202 281.964448 273.593437 
C 286.358212 269.199673 288.82695 263.239613 288.82695 257.025891 
C 288.82695 250.812169 286.358212 244.852109 281.964448 240.458345 
C 277.570683 236.06458 271.610623 233.595842 265.396901 233.595842 
C 259.18318 233.595842 253.22312 236.06458 248.829355 240.458345 
C 244.43559 244.852109 241.966852 250.812169 241.966852 257.025891 
C 241.966852 263.239613 244.43559 269.199673 248.829355 273.593437 
C 253.22312 277.987202 259.18318 280.45594 265.396901 280.45594 
z
" clip-path="url(#p70aad0915b)" style="fill: #c70039; fill-opacity: 0.99; stroke: #c70039; stroke-opacity: 0.99"/>
    <path d="M 104.4 142.179056 
C 110.409749 142.179056 116.174164 139.791358 120.423698 135.541823 
C 124.673233 131.292289 127.060931 125.527874 127.060931 119.518125 
C 127.060931 113.508376 124.673233 107.743961 120.423698 103.494427 
C 116.174164 99.244892 110.409749 96.857194 104.4 96.857194 
C 98.390251 96.857194 92.625836 99.244892 88.376302 103.494427 
C 84.126767 107.743961 81.739069 113.508376 81.739069 119.518125 
C 81.739069 125.527874 84.126767 131.292289 88.376302 135.541823 
C 92.625836 139.791358 98.390251 142.179056 104.4 142.179056 
z
" clip-path="url(#p70aad0915b)" style="fill: #c70039; fill-opacity: 0.99; stroke: #c70039; stroke-opacity: 0.99"/>
    <path d="M 104.400012 415.945963 
C 110.078618 415.945963 115.525408 413.689829 119.540789 409.674448 
C 123.55617 405.659067 125.812304 400.212277 125.812304 394.533671 
C 125.812304 388.855065 123.55617 383.408275 119.540789 379.392894 
C 115.525408 375.377513 110.078618 373.121379 104.400012 373.121379 
C 98.721406 373.121379 93.274616 375.377513 89.259235 379.392894 
C 85.243854 383.408275 82.98772 388.855065 82.98772 394.533671 
C 82.98772 400.212277 85.243854 405.659067 89.259235 409.674448 
C 93.274616 413.689829 98.721406 415.945963 104.400012 415.945963 
z
" clip-path="url(#p70aad0915b)" style="fill: #c70039; fill-opacity: 0.99; stroke: #c70039; stroke-opacity: 0.99"/>
    <path d="M 326.892262 498.226412 
C 331.853758 498.226412 336.612711 496.255189 340.121018 492.746882 
C 343.629326 489.238574 345.600549 484.479621 345.600549 479.518125 
C 345.600549 474.556629 343.629326 469.797676 340.121018 466.289368 
C 336.612711 462.781061 331.853758 460.809838 326.892262 460.809838 
C 321.930766 460.809838 317.171813 462.781061 313.663505 466.289368 
C 310.155198 469.797676 308.183975 474.556629 308.183975 479.518125 
C 308.183975 484.479621 310.155198 489.238574 313.663505 492.746882 
C 317.171813 496.255189 321.930766 498.226412 326.892262 498.226412 
z
" clip-path="url(#p70aad0915b)" style="fill: #c70039; fill-opacity: 0.99; stroke: #c70039; stroke-opacity: 0.99"/>
   </g>
   <g id="text_1">
    <g id="patch_2">
     <path d="M 441.871875 265.341047 
L 486.928125 265.341047 
L 486.928125 248.710735 
L 441.871875 248.710735 
z
" clip-path="url(#p70aad0915b)" style="fill: #ffffff; opacity: 0.7; stroke: #000000; stroke-linejoin: miter"/>
    </g>
    <g clip-path="url(#p70aad0915b)">
     <!-- Comedy -->
     <g transform="translate(445.831875 259.509329)scale(0.09 -0.09)">
      <defs>
       <path id="DejaVuSans-43" d="M 4122 4306 
L 4122 3641 
Q 3803 3938 3442 4084 
Q 3081 4231 2675 4231 
Q 1875 4231 1450 3742 
Q 1025 3253 1025 2328 
Q 1025 1406 1450 917 
Q 1875 428 2675 428 
Q 3081 428 3442 575 
Q 3803 722 4122 1019 
L 4122 359 
Q 3791 134 3420 21 
Q 3050 -91 2638 -91 
Q 1578 -91 968 557 
Q 359 1206 359 2328 
Q 359 3453 968 4101 
Q 1578 4750 2638 4750 
Q 3056 4750 3426 4639 
Q 3797 4528 4122 4306 
z
" transform="scale(0.015625)"/>
       <path id="DejaVuSans-6f" d="M 1959 3097 
Q 1497 3097 1228 2736 
Q 959 2375 959 1747 
Q 959 1119 1226 758 
Q 1494 397 1959 397 
Q 2419 397 2687 759 
Q 2956 1122 2956 1747 
Q 2956 2369 2687 2733 
Q 2419 3097 1959 3097 
z
M 1959 3584 
Q 2709 3584 3137 3096 
Q 3566 2609 3566 1747 
Q 3566 888 3137 398 
Q 2709 -91 1959 -91 
Q 1206 -91 779 398 
Q 353 888 353 1747 
Q 353 2609 779 3096 
Q 1206 3584 1959 3584 
z
" transform="scale(0.015625)"/>
       <path id="DejaVuSans-6d" d="M 3328 2828 
Q 3544 3216 3844 3400 
Q 4144 3584 4550 3584 
Q 5097 3584 5394 3201 
Q 5691 2819 5691 2113 
L 5691 0 
L 5113 0 
L 5113 2094 
Q 5113 2597 4934 2840 
Q 4756 3084 4391 3084 
Q 3944 3084 3684 2787 
Q 3425 2491 3425 1978 
L 3425 0 
L 2847 0 
L 2847 2094 
Q 2847 2600 2669 2842 
Q 2491 3084 2119 3084 
Q 1678 3084 1418 2786 
Q 1159 2488 1159 1978 
L 1159 0 
L 581 0 
L 581 3500 
L 1159 3500 
L 1159 2956 
Q 1356 3278 1631 3431 
Q 1906 3584 2284 3584 
Q 2666 3584 2933 3390 
Q 3200 3197 3328 2828 
z
" transform="scale(0.015625)"/>
       <path id="DejaVuSans-65" d="M 3597 1894 
L 3597 1613 
L 953 1613 
Q 991 1019 1311 708 
Q 1631 397 2203 397 
Q 2534 397 2845 478 
Q 3156 559 3463 722 
L 3463 178 
Q 3153 47 2828 -22 
Q 2503 -91 2169 -91 
Q 1331 -91 842 396 
Q 353 884 353 1716 
Q 353 2575 817 3079 
Q 1281 3584 2069 3584 
Q 2775 3584 3186 3129 
Q 3597 2675 3597 1894 
z
M 3022 2063 
Q 3016 2534 2758 2815 
Q 2500 3097 2075 3097 
Q 1594 3097 1305 2825 
Q 1016 2553 972 2059 
L 3022 2063 
z
" transform="scale(0.015625)"/>
       <path id="DejaVuSans-64" d="M 2906 2969 
L 2906 4863 
L 3481 4863 
L 3481 0 
L 2906 0 
L 2906 525 
Q 2725 213 2448 61 
Q 2172 -91 1784 -91 
Q 1150 -91 751 415 
Q 353 922 353 1747 
Q 353 2572 751 3078 
Q 1150 3584 1784 3584 
Q 2172 3584 2448 3432 
Q 2725 3281 2906 2969 
z
M 947 1747 
Q 947 1113 1208 752 
Q 1469 391 1925 391 
Q 2381 391 2643 752 
Q 2906 1113 2906 1747 
Q 2906 2381 2643 2742 
Q 2381 3103 1925 3103 
Q 1469 3103 1208 2742 
Q 947 2381 947 1747 
z
" transform="scale(0.015625)"/>
       <path id="DejaVuSans-79" d="M 2059 -325 
Q 1816 -950 1584 -1140 
Q 1353 -1331 966 -1331 
L 506 -1331 
L 506 -850 
L 844 -850 
Q 1081 -850 1212 -737 
Q 1344 -625 1503 -206 
L 1606 56 
L 191 3500 
L 800 3500 
L 1894 763 
L 2988 3500 
L 3597 3500 
L 2059 -325 
z
" transform="scale(0.015625)"/>
      </defs>
      <use xlink:href="#DejaVuSans-43"/>
      <use xlink:href="#DejaVuSans-6f" x="69.824219"/>
      <use xlink:href="#DejaVuSans-6d" x="131.005859"/>
      <use xlink:href="#DejaVuSans-65" x="228.417969"/>
      <use xlink:href="#DejaVuSans-64" x="289.941406"/>
      <use xlink:href="#DejaVuSans-79" x="353.417969"/>
     </g>
    </g>
   </g>
   <g id="text_2">
    <g id="patch_3">
     <path d="M 247.343464 265.341047 
L 283.450339 265.341047 
L 283.450339 248.710735 
L 247.343464 248.710735 
z
" clip-path="url(#p70aad0915b)" style="fill: #ffffff; opacity: 0.7; stroke: #000000; stroke-linejoin: miter"/>
    </g>
    <g clip-path="url(#p70aad0915b)">
     <!-- Action -->
     <g transform="translate(251.303464 259.509329)scale(0.09 -0.09)">
      <defs>
       <path id="DejaVuSans-41" d="M 2188 4044 
L 1331 1722 
L 3047 1722 
L 2188 4044 
z
M 1831 4666 
L 2547 4666 
L 4325 0 
L 3669 0 
L 3244 1197 
L 1141 1197 
L 716 0 
L 50 0 
L 1831 4666 
z
" transform="scale(0.015625)"/>
       <path id="DejaVuSans-63" d="M 3122 3366 
L 3122 2828 
Q 2878 2963 2633 3030 
Q 2388 3097 2138 3097 
Q 1578 3097 1268 2742 
Q 959 2388 959 1747 
Q 959 1106 1268 751 
Q 1578 397 2138 397 
Q 2388 397 2633 464 
Q 2878 531 3122 666 
L 3122 134 
Q 2881 22 2623 -34 
Q 2366 -91 2075 -91 
Q 1284 -91 818 406 
Q 353 903 353 1747 
Q 353 2603 823 3093 
Q 1294 3584 2113 3584 
Q 2378 3584 2631 3529 
Q 2884 3475 3122 3366 
z
" transform="scale(0.015625)"/>
       <path id="DejaVuSans-74" d="M 1172 4494 
L 1172 3500 
L 2356 3500 
L 2356 3053 
L 1172 3053 
L 1172 1153 
Q 1172 725 1289 603 
Q 1406 481 1766 481 
L 2356 481 
L 2356 0 
L 1766 0 
Q 1100 0 847 248 
Q 594 497 594 1153 
L 594 3053 
L 172 3053 
L 172 3500 
L 594 3500 
L 594 4494 
L 1172 4494 
z
" transform="scale(0.015625)"/>
       <path id="DejaVuSans-69" d="M 603 3500 
L 1178 3500 
L 1178 0 
L 603 0 
L 603 3500 
z
M 603 4863 
L 1178 4863 
L 1178 4134 
L 603 4134 
L 603 4863 
z
" transform="scale(0.015625)"/>
       <path id="DejaVuSans-6e" d="M 3513 2113 
L 3513 0 
L 2938 0 
L 2938 2094 
Q 2938 2591 2744 2837 
Q 2550 3084 2163 3084 
Q 1697 3084 1428 2787 
Q 1159 2491 1159 1978 
L 1159 0 
L 581 0 
L 581 3500 
L 1159 3500 
L 1159 2956 
Q 1366 3272 1645 3428 
Q 1925 3584 2291 3584 
Q 2894 3584 3203 3211 
Q 3513 2838 3513 2113 
z
" transform="scale(0.015625)"/>
      </defs>
      <use xlink:href="#DejaVuSans-41"/>
      <use xlink:href="#DejaVuSans-63" x="66.658203"/>
      <use xlink:href="#DejaVuSans-74" x="121.638672"/>
      <use xlink:href="#DejaVuSans-69" x="160.847656"/>
      <use xlink:href="#DejaVuSans-6f" x="188.630859"/>
      <use xlink:href="#DejaVuSans-6e" x="249.8125"/>
     </g>
    </g>
   </g>
   <g id="text_3">
    <g id="patch_4">
     <path d="M 84.620391 127.833281 
L 124.179609 127.833281 
L 124.179609 111.202969 
L 84.620391 111.202969 
z
" clip-path="url(#p70aad0915b)" style="fill: #ffffff; opacity: 0.7; stroke: #000000; stroke-linejoin: miter"/>
    </g>
    <g clip-path="url(#p70aad0915b)">
     <!-- Thriller -->
     <g transform="translate(88.580391 122.001562)scale(0.09 -0.09)">
      <defs>
       <path id="DejaVuSans-54" d="M -19 4666 
L 3928 4666 
L 3928 4134 
L 2272 4134 
L 2272 0 
L 1638 0 
L 1638 4134 
L -19 4134 
L -19 4666 
z
" transform="scale(0.015625)"/>
       <path id="DejaVuSans-68" d="M 3513 2113 
L 3513 0 
L 2938 0 
L 2938 2094 
Q 2938 2591 2744 2837 
Q 2550 3084 2163 3084 
Q 1697 3084 1428 2787 
Q 1159 2491 1159 1978 
L 1159 0 
L 581 0 
L 581 4863 
L 1159 4863 
L 1159 2956 
Q 1366 3272 1645 3428 
Q 1925 3584 2291 3584 
Q 2894 3584 3203 3211 
Q 3513 2838 3513 2113 
z
" transform="scale(0.015625)"/>
       <path id="DejaVuSans-72" d="M 2631 2963 
Q 2534 3019 2420 3045 
Q 2306 3072 2169 3072 
Q 1681 3072 1420 2755 
Q 1159 2438 1159 1844 
L 1159 0 
L 581 0 
L 581 3500 
L 1159 3500 
L 1159 2956 
Q 1341 3275 1631 3429 
Q 1922 3584 2338 3584 
Q 2397 3584 2469 3576 
Q 2541 3569 2628 3553 
L 2631 2963 
z
" transform="scale(0.015625)"/>
       <path id="DejaVuSans-6c" d="M 603 4863 
L 1178 4863 
L 1178 0 
L 603 0 
L 603 4863 
z
" transform="scale(0.015625)"/>
      </defs>
      <use xlink:href="#DejaVuSans-54"/>
      <use xlink:href="#DejaVuSans-68" x="61.083984"/>
      <use xlink:href="#DejaVuSans-72" x="124.462891"/>
      <use xlink:href="#DejaVuSans-69" x="165.576172"/>
      <use xlink:href="#DejaVuSans-6c" x="193.359375"/>
      <use xlink:href="#DejaVuSans-6c" x="221.142578"/>
      <use xlink:href="#DejaVuSans-65" x="248.925781"/>
      <use xlink:href="#DejaVuSans-72" x="310.449219"/>
     </g>
    </g>
   </g>
   <g id="text_4">
    <g id="patch_5">
     <path d="M 61.556496 402.848827 
L 147.243527 402.848827 
L 147.243527 386.218515 
L 61.556496 386.218515 
z
" clip-path="url(#p70aad0915b)" style="fill: #ffffff; opacity: 0.7; stroke: #000000; stroke-linejoin: miter"/>
    </g>
    <g clip-path="url(#p70aad0915b)">
     <!-- Action/Adventure -->
     <g transform="translate(65.516496 397.017109)scale(0.09 -0.09)">
      <defs>
       <path id="DejaVuSans-2f" d="M 1625 4666 
L 2156 4666 
L 531 -594 
L 0 -594 
L 1625 4666 
z
" transform="scale(0.015625)"/>
       <path id="DejaVuSans-76" d="M 191 3500 
L 800 3500 
L 1894 563 
L 2988 3500 
L 3597 3500 
L 2284 0 
L 1503 0 
L 191 3500 
z
" transform="scale(0.015625)"/>
       <path id="DejaVuSans-75" d="M 544 1381 
L 544 3500 
L 1119 3500 
L 1119 1403 
Q 1119 906 1312 657 
Q 1506 409 1894 409 
Q 2359 409 2629 706 
Q 2900 1003 2900 1516 
L 2900 3500 
L 3475 3500 
L 3475 0 
L 2900 0 
L 2900 538 
Q 2691 219 2414 64 
Q 2138 -91 1772 -91 
Q 1169 -91 856 284 
Q 544 659 544 1381 
z
M 1991 3584 
L 1991 3584 
z
" transform="scale(0.015625)"/>
      </defs>
      <use xlink:href="#DejaVuSans-41"/>
      <use xlink:href="#DejaVuSans-63" x="66.658203"/>
      <use xlink:href="#DejaVuSans-74" x="121.638672"/>
      <use xlink:href="#DejaVuSans-69" x="160.847656"/>
      <use xlink:href="#DejaVuSans-6f" x="188.630859"/>
      <use xlink:href="#DejaVuSans-6e" x="249.8125"/>
      <use xlink:href="#DejaVuSans-2f" x="313.191406"/>
      <use xlink:href="#DejaVuSans-41" x="346.882812"/>
      <use xlink:href="#DejaVuSans-64" x="413.541016"/>
      <use xlink:href="#DejaVuSans-76" x="477.017578"/>
      <use xlink:href="#DejaVuSans-65" x="536.197266"/>
      <use xlink:href="#DejaVuSans-6e" x="597.720703"/>
      <use xlink:href="#DejaVuSans-74" x="661.099609"/>
      <use xlink:href="#DejaVuSans-75" x="700.308594"/>
      <use xlink:href="#DejaVuSans-72" x="763.6875"/>
      <use xlink:href="#DejaVuSans-65" x="802.550781"/>
     </g>
    </g>
   </g>
   <g id="text_5">
    <g id="patch_6">
     <path d="M 293.501559 487.833281 
L 360.282965 487.833281 
L 360.282965 471.202969 
L 293.501559 471.202969 
z
" clip-path="url(#p70aad0915b)" style="fill: #ffffff; opacity: 0.7; stroke: #000000; stroke-linejoin: miter"/>
    </g>
    <g clip-path="url(#p70aad0915b)">
     <!-- Crime Fiction -->
     <g transform="translate(297.461559 482.001562)scale(0.09 -0.09)">
      <defs>
       <path id="DejaVuSans-20" transform="scale(0.015625)"/>
       <path id="DejaVuSans-46" d="M 628 4666 
L 3309 4666 
L 3309 4134 
L 1259 4134 
L 1259 2759 
L 3109 2759 
L 3109 2228 
L 1259 2228 
L 1259 0 
L 628 0 
L 628 4666 
z
" transform="scale(0.015625)"/>
      </defs>
      <use xlink:href="#DejaVuSans-43"/>
      <use xlink:href="#DejaVuSans-72" x="69.824219"/>
      <use xlink:href="#DejaVuSans-69" x="110.9375"/>
      <use xlink:href="#DejaVuSans-6d" x="138.720703"/>
      <use xlink:href="#DejaVuSans-65" x="236.132812"/>
      <use xlink:href="#DejaVuSans-20" x="297.65625"/>
      <use xlink:href="#DejaVuSans-46" x="329.443359"/>
      <use xlink:href="#DejaVuSans-69" x="379.712891"/>
      <use xlink:href="#DejaVuSans-63" x="407.496094"/>
      <use xlink:href="#DejaVuSans-74" x="462.476562"/>
      <use xlink:href="#DejaVuSans-69" x="501.685547"/>
      <use xlink:href="#DejaVuSans-6f" x="529.46875"/>
      <use xlink:href="#DejaVuSans-6e" x="590.650391"/>
     </g>
    </g>
   </g>
   <g id="text_6">
    <!-- Impactful genre combination for Action genre - Importance rank: 1 -->
    <g transform="translate(84.139687 16.318125)scale(0.12 -0.12)">
     <defs>
      <path id="DejaVuSans-49" d="M 628 4666 
L 1259 4666 
L 1259 0 
L 628 0 
L 628 4666 
z
" transform="scale(0.015625)"/>
      <path id="DejaVuSans-70" d="M 1159 525 
L 1159 -1331 
L 581 -1331 
L 581 3500 
L 1159 3500 
L 1159 2969 
Q 1341 3281 1617 3432 
Q 1894 3584 2278 3584 
Q 2916 3584 3314 3078 
Q 3713 2572 3713 1747 
Q 3713 922 3314 415 
Q 2916 -91 2278 -91 
Q 1894 -91 1617 61 
Q 1341 213 1159 525 
z
M 3116 1747 
Q 3116 2381 2855 2742 
Q 2594 3103 2138 3103 
Q 1681 3103 1420 2742 
Q 1159 2381 1159 1747 
Q 1159 1113 1420 752 
Q 1681 391 2138 391 
Q 2594 391 2855 752 
Q 3116 1113 3116 1747 
z
" transform="scale(0.015625)"/>
      <path id="DejaVuSans-61" d="M 2194 1759 
Q 1497 1759 1228 1600 
Q 959 1441 959 1056 
Q 959 750 1161 570 
Q 1363 391 1709 391 
Q 2188 391 2477 730 
Q 2766 1069 2766 1631 
L 2766 1759 
L 2194 1759 
z
M 3341 1997 
L 3341 0 
L 2766 0 
L 2766 531 
Q 2569 213 2275 61 
Q 1981 -91 1556 -91 
Q 1019 -91 701 211 
Q 384 513 384 1019 
Q 384 1609 779 1909 
Q 1175 2209 1959 2209 
L 2766 2209 
L 2766 2266 
Q 2766 2663 2505 2880 
Q 2244 3097 1772 3097 
Q 1472 3097 1187 3025 
Q 903 2953 641 2809 
L 641 3341 
Q 956 3463 1253 3523 
Q 1550 3584 1831 3584 
Q 2591 3584 2966 3190 
Q 3341 2797 3341 1997 
z
" transform="scale(0.015625)"/>
      <path id="DejaVuSans-66" d="M 2375 4863 
L 2375 4384 
L 1825 4384 
Q 1516 4384 1395 4259 
Q 1275 4134 1275 3809 
L 1275 3500 
L 2222 3500 
L 2222 3053 
L 1275 3053 
L 1275 0 
L 697 0 
L 697 3053 
L 147 3053 
L 147 3500 
L 697 3500 
L 697 3744 
Q 697 4328 969 4595 
Q 1241 4863 1831 4863 
L 2375 4863 
z
" transform="scale(0.015625)"/>
      <path id="DejaVuSans-67" d="M 2906 1791 
Q 2906 2416 2648 2759 
Q 2391 3103 1925 3103 
Q 1463 3103 1205 2759 
Q 947 2416 947 1791 
Q 947 1169 1205 825 
Q 1463 481 1925 481 
Q 2391 481 2648 825 
Q 2906 1169 2906 1791 
z
M 3481 434 
Q 3481 -459 3084 -895 
Q 2688 -1331 1869 -1331 
Q 1566 -1331 1297 -1286 
Q 1028 -1241 775 -1147 
L 775 -588 
Q 1028 -725 1275 -790 
Q 1522 -856 1778 -856 
Q 2344 -856 2625 -561 
Q 2906 -266 2906 331 
L 2906 616 
Q 2728 306 2450 153 
Q 2172 0 1784 0 
Q 1141 0 747 490 
Q 353 981 353 1791 
Q 353 2603 747 3093 
Q 1141 3584 1784 3584 
Q 2172 3584 2450 3431 
Q 2728 3278 2906 2969 
L 2906 3500 
L 3481 3500 
L 3481 434 
z
" transform="scale(0.015625)"/>
      <path id="DejaVuSans-62" d="M 3116 1747 
Q 3116 2381 2855 2742 
Q 2594 3103 2138 3103 
Q 1681 3103 1420 2742 
Q 1159 2381 1159 1747 
Q 1159 1113 1420 752 
Q 1681 391 2138 391 
Q 2594 391 2855 752 
Q 3116 1113 3116 1747 
z
M 1159 2969 
Q 1341 3281 1617 3432 
Q 1894 3584 2278 3584 
Q 2916 3584 3314 3078 
Q 3713 2572 3713 1747 
Q 3713 922 3314 415 
Q 2916 -91 2278 -91 
Q 1894 -91 1617 61 
Q 1341 213 1159 525 
L 1159 0 
L 581 0 
L 581 4863 
L 1159 4863 
L 1159 2969 
z
" transform="scale(0.015625)"/>
      <path id="DejaVuSans-2d" d="M 313 2009 
L 1997 2009 
L 1997 1497 
L 313 1497 
L 313 2009 
z
" transform="scale(0.015625)"/>
      <path id="DejaVuSans-6b" d="M 581 4863 
L 1159 4863 
L 1159 1991 
L 2875 3500 
L 3609 3500 
L 1753 1863 
L 3688 0 
L 2938 0 
L 1159 1709 
L 1159 0 
L 581 0 
L 581 4863 
z
" transform="scale(0.015625)"/>
      <path id="DejaVuSans-3a" d="M 750 794 
L 1409 794 
L 1409 0 
L 750 0 
L 750 794 
z
M 750 3309 
L 1409 3309 
L 1409 2516 
L 750 2516 
L 750 3309 
z
" transform="scale(0.015625)"/>
      <path id="DejaVuSans-31" d="M 794 531 
L 1825 531 
L 1825 4091 
L 703 3866 
L 703 4441 
L 1819 4666 
L 2450 4666 
L 2450 531 
L 3481 531 
L 3481 0 
L 794 0 
L 794 531 
z
" transform="scale(0.015625)"/>
     </defs>
     <use xlink:href="#DejaVuSans-49"/>
     <use xlink:href="#DejaVuSans-6d" x="29.492188"/>
     <use xlink:href="#DejaVuSans-70" x="126.904297"/>
     <use xlink:href="#DejaVuSans-61" x="190.380859"/>
     <use xlink:href="#DejaVuSans-63" x="251.660156"/>
     <use xlink:href="#DejaVuSans-74" x="306.640625"/>
     <use xlink:href="#DejaVuSans-66" x="345.849609"/>
     <use xlink:href="#DejaVuSans-75" x="381.054688"/>
     <use xlink:href="#DejaVuSans-6c" x="444.433594"/>
     <use xlink:href="#DejaVuSans-20" x="472.216797"/>
     <use xlink:href="#DejaVuSans-67" x="504.003906"/>
     <use xlink:href="#DejaVuSans-65" x="567.480469"/>
     <use xlink:href="#DejaVuSans-6e" x="629.003906"/>
     <use xlink:href="#DejaVuSans-72" x="692.382812"/>
     <use xlink:href="#DejaVuSans-65" x="731.246094"/>
     <use xlink:href="#DejaVuSans-20" x="792.769531"/>
     <use xlink:href="#DejaVuSans-63" x="824.556641"/>
     <use xlink:href="#DejaVuSans-6f" x="879.537109"/>
     <use xlink:href="#DejaVuSans-6d" x="940.71875"/>
     <use xlink:href="#DejaVuSans-62" x="1038.130859"/>
     <use xlink:href="#DejaVuSans-69" x="1101.607422"/>
     <use xlink:href="#DejaVuSans-6e" x="1129.390625"/>
     <use xlink:href="#DejaVuSans-61" x="1192.769531"/>
     <use xlink:href="#DejaVuSans-74" x="1254.048828"/>
     <use xlink:href="#DejaVuSans-69" x="1293.257812"/>
     <use xlink:href="#DejaVuSans-6f" x="1321.041016"/>
     <use xlink:href="#DejaVuSans-6e" x="1382.222656"/>
     <use xlink:href="#DejaVuSans-20" x="1445.601562"/>
     <use xlink:href="#DejaVuSans-66" x="1477.388672"/>
     <use xlink:href="#DejaVuSans-6f" x="1512.59375"/>
     <use xlink:href="#DejaVuSans-72" x="1573.775391"/>
     <use xlink:href="#DejaVuSans-20" x="1614.888672"/>
     <use xlink:href="#DejaVuSans-41" x="1646.675781"/>
     <use xlink:href="#DejaVuSans-63" x="1713.333984"/>
     <use xlink:href="#DejaVuSans-74" x="1768.314453"/>
     <use xlink:href="#DejaVuSans-69" x="1807.523438"/>
     <use xlink:href="#DejaVuSans-6f" x="1835.306641"/>
     <use xlink:href="#DejaVuSans-6e" x="1896.488281"/>
     <use xlink:href="#DejaVuSans-20" x="1959.867188"/>
     <use xlink:href="#DejaVuSans-67" x="1991.654297"/>
     <use xlink:href="#DejaVuSans-65" x="2055.130859"/>
     <use xlink:href="#DejaVuSans-6e" x="2116.654297"/>
     <use xlink:href="#DejaVuSans-72" x="2180.033203"/>
     <use xlink:href="#DejaVuSans-65" x="2218.896484"/>
     <use xlink:href="#DejaVuSans-20" x="2280.419922"/>
     <use xlink:href="#DejaVuSans-2d" x="2312.207031"/>
     <use xlink:href="#DejaVuSans-20" x="2348.291016"/>
     <use xlink:href="#DejaVuSans-49" x="2380.078125"/>
     <use xlink:href="#DejaVuSans-6d" x="2409.570312"/>
     <use xlink:href="#DejaVuSans-70" x="2506.982422"/>
     <use xlink:href="#DejaVuSans-6f" x="2570.458984"/>
     <use xlink:href="#DejaVuSans-72" x="2631.640625"/>
     <use xlink:href="#DejaVuSans-74" x="2672.753906"/>
     <use xlink:href="#DejaVuSans-61" x="2711.962891"/>
     <use xlink:href="#DejaVuSans-6e" x="2773.242188"/>
     <use xlink:href="#DejaVuSans-63" x="2836.621094"/>
     <use xlink:href="#DejaVuSans-65" x="2891.601562"/>
     <use xlink:href="#DejaVuSans-20" x="2953.125"/>
     <use xlink:href="#DejaVuSans-72" x="2984.912109"/>
     <use xlink:href="#DejaVuSans-61" x="3026.025391"/>
     <use xlink:href="#DejaVuSans-6e" x="3087.304688"/>
     <use xlink:href="#DejaVuSans-6b" x="3150.683594"/>
     <use xlink:href="#DejaVuSans-3a" x="3208.59375"/>
     <use xlink:href="#DejaVuSans-20" x="3242.285156"/>
     <use xlink:href="#DejaVuSans-31" x="3274.072266"/>
    </g>
   </g>
  </g>
 </g>
 <defs>
  <clipPath id="p70aad0915b">
   <rect x="7.2" y="22.318125" width="554.4" height="554.4"/>
  </clipPath>
 </defs>
</svg>
