<?xml version="1.0" encoding="utf-8" standalone="no"?>
<!DOCTYPE svg PUBLIC "-//W3C//DTD SVG 1.1//EN"
  "http://www.w3.org/Graphics/SVG/1.1/DTD/svg11.dtd">
<svg xmlns:xlink="http://www.w3.org/1999/xlink" width="568.8pt" height="583.918125pt" viewBox="0 0 568.8 583.918125" xmlns="http://www.w3.org/2000/svg" version="1.1">
 <metadata>
  <rdf:RDF xmlns:dc="http://purl.org/dc/elements/1.1/" xmlns:cc="http://creativecommons.org/ns#" xmlns:rdf="http://www.w3.org/1999/02/22-rdf-syntax-ns#">
   <cc:Work>
    <dc:type rdf:resource="http://purl.org/dc/dcmitype/StillImage"/>
    <dc:date>2022-12-23T17:29:23.899109</dc:date>
    <dc:format>image/svg+xml</dc:format>
    <dc:creator>
     <cc:Agent>
      <dc:title>Matplotlib v3.5.2, https://matplotlib.org/</dc:title>
     </cc:Agent>
    </dc:creator>
   </cc:Work>
  </rdf:RDF>
 </metadata>
 <defs>
  <style type="text/css">*{stroke-linejoin: round; stroke-linecap: butt}</style>
 </defs>
 <g id="figure_1">
  <g id="patch_1">
   <path d="M 0 583.918125 
L 568.8 583.918125 
L 568.8 0 
L 0 0 
z
" style="fill: #ffffff"/>
  </g>
  <g id="axes_1">
   <g id="LineCollection_1">
    <path d="M 464.4 299.518119 
L 284.399997 299.518124 
" clip-path="url(#pd27a8a581a)" style="fill: none; stroke: #000000; stroke-opacity: 0.3; stroke-width: 15.636065"/>
    <path d="M 284.399997 299.518124 
L 194.399989 119.518125 
" clip-path="url(#pd27a8a581a)" style="fill: none; stroke: #000000; stroke-opacity: 0.3; stroke-width: 16"/>
    <path d="M 284.399997 299.518124 
L 104.4 299.518137 
" clip-path="url(#pd27a8a581a)" style="fill: none; stroke: #000000; stroke-opacity: 0.3; stroke-width: 15.844542"/>
    <path d="M 284.399997 299.518124 
L 194.400016 479.518125 
" clip-path="url(#pd27a8a581a)" style="fill: none; stroke: #000000; stroke-opacity: 0.3; stroke-width: 15.257337"/>
    <path d="M 284.399997 299.518124 
L 374.399984 479.518125 
" clip-path="url(#pd27a8a581a)" style="fill: none; stroke: #000000; stroke-opacity: 0.3; stroke-width: 15.949691"/>
   </g>
   <g id="PathCollection_1">
    <path d="M 464.4 325.975632 
C 471.416614 325.975632 478.146791 323.187901 483.108287 318.226406 
C 488.069783 313.26491 490.857513 306.534733 490.857513 299.518119 
C 490.857513 292.501504 488.069783 285.771328 483.108287 280.809832 
C 478.146791 275.848336 471.416614 273.060606 464.4 273.060606 
C 457.383386 273.060606 450.653209 275.848336 445.691713 280.809832 
C 440.730217 285.771328 437.942487 292.501504 437.942487 299.518119 
C 437.942487 306.534733 440.730217 313.26491 445.691713 318.226406 
C 450.653209 323.187901 457.383386 325.975632 464.4 325.975632 
z
" clip-path="url(#pd27a8a581a)" style="fill: #c70039; fill-opacity: 0.99; stroke: #c70039; stroke-opacity: 0.99"/>
    <path d="M 284.399997 324.111466 
C 290.922228 324.111466 297.178203 321.520156 301.790116 316.908243 
C 306.40203 312.296329 308.99334 306.040354 308.99334 299.518124 
C 308.99334 292.995893 306.40203 286.739918 301.790116 282.128005 
C 297.178203 277.516091 290.922228 274.924782 284.399997 274.924782 
C 277.877767 274.924782 271.621792 277.516091 267.009878 282.128005 
C 262.397965 286.739918 259.806655 292.995893 259.806655 299.518124 
C 259.806655 306.040354 262.397965 312.296329 267.009878 316.908243 
C 271.621792 321.520156 277.877767 324.111466 284.399997 324.111466 
z
" clip-path="url(#pd27a8a581a)" style="fill: #c70039; fill-opacity: 0.99; stroke: #c70039; stroke-opacity: 0.99"/>
    <path d="M 194.399989 143.062299 
C 200.643977 143.062299 206.633068 140.581536 211.048234 136.16637 
C 215.4634 131.751204 217.944163 125.762113 217.944163 119.518125 
C 217.944163 113.274137 215.4634 107.285046 211.048234 102.86988 
C 206.633068 98.454714 200.643977 95.973951 194.399989 95.973951 
C 188.156001 95.973951 182.16691 98.454714 177.751744 102.86988 
C 173.336578 107.285046 170.855815 113.274137 170.855815 119.518125 
C 170.855815 125.762113 173.336578 131.751204 177.751744 136.16637 
C 182.16691 140.581536 188.156001 143.062299 194.399989 143.062299 
z
" clip-path="url(#pd27a8a581a)" style="fill: #c70039; fill-opacity: 0.99; stroke: #c70039; stroke-opacity: 0.99"/>
    <path d="M 104.4 322.861429 
C 110.590713 322.861429 116.528705 320.401833 120.9062 316.024337 
C 125.283696 311.646842 127.743292 305.70885 127.743292 299.518137 
C 127.743292 293.327424 125.283696 287.389432 120.9062 283.011937 
C 116.528705 278.634441 110.590713 276.174845 104.4 276.174845 
C 98.209287 276.174845 92.271295 278.634441 87.8938 283.011937 
C 83.516304 287.389432 81.056708 293.327424 81.056708 299.518137 
C 81.056708 305.70885 83.516304 311.646842 87.8938 316.024337 
C 92.271295 320.401833 98.209287 322.861429 104.4 322.861429 
z
" clip-path="url(#pd27a8a581a)" style="fill: #c70039; fill-opacity: 0.99; stroke: #c70039; stroke-opacity: 0.99"/>
    <path d="M 194.400016 500.600869 
C 199.991225 500.600869 205.354185 498.379458 209.307767 494.425876 
C 213.261349 490.472294 215.48276 485.109334 215.48276 479.518125 
C 215.48276 473.926916 213.261349 468.563956 209.307767 464.610374 
C 205.354185 460.656792 199.991225 458.435381 194.400016 458.435381 
C 188.808807 458.435381 183.445847 460.656792 179.492265 464.610374 
C 175.538683 468.563956 173.317273 473.926916 173.317273 479.518125 
C 173.317273 485.109334 175.538683 490.472294 179.492265 494.425876 
C 183.445847 498.379458 188.808807 500.600869 194.400016 500.600869 
z
" clip-path="url(#pd27a8a581a)" style="fill: #c70039; fill-opacity: 0.99; stroke: #c70039; stroke-opacity: 0.99"/>
    <path d="M 374.399984 498.226412 
C 379.36148 498.226412 384.120433 496.255189 387.62874 492.746882 
C 391.137048 489.238574 393.108271 484.479621 393.108271 479.518125 
C 393.108271 474.556629 391.137048 469.797676 387.62874 466.289368 
C 384.120433 462.781061 379.36148 460.809838 374.399984 460.809838 
C 369.438488 460.809838 364.679535 462.781061 361.171227 466.289368 
C 357.66292 469.797676 355.691697 474.556629 355.691697 479.518125 
C 355.691697 484.479621 357.66292 489.238574 361.171227 492.746882 
C 364.679535 496.255189 369.438488 498.226412 374.399984 498.226412 
z
" clip-path="url(#pd27a8a581a)" style="fill: #c70039; fill-opacity: 0.99; stroke: #c70039; stroke-opacity: 0.99"/>
   </g>
   <g id="text_1">
    <g id="patch_2">
     <path d="M 445.226484 307.833275 
L 483.573516 307.833275 
L 483.573516 291.202963 
L 445.226484 291.202963 
z
" clip-path="url(#pd27a8a581a)" style="fill: #ffffff; opacity: 0.7; stroke: #000000; stroke-linejoin: miter"/>
    </g>
    <g clip-path="url(#pd27a8a581a)">
     <!-- Drama -->
     <g transform="translate(449.186484 302.001556)scale(0.09 -0.09)">
      <defs>
       <path id="DejaVuSans-44" d="M 1259 4147 
L 1259 519 
L 2022 519 
Q 2988 519 3436 956 
Q 3884 1394 3884 2338 
Q 3884 3275 3436 3711 
Q 2988 4147 2022 4147 
L 1259 4147 
z
M 628 4666 
L 1925 4666 
Q 3281 4666 3915 4102 
Q 4550 3538 4550 2338 
Q 4550 1131 3912 565 
Q 3275 0 1925 0 
L 628 0 
L 628 4666 
z
" transform="scale(0.015625)"/>
       <path id="DejaVuSans-72" d="M 2631 2963 
Q 2534 3019 2420 3045 
Q 2306 3072 2169 3072 
Q 1681 3072 1420 2755 
Q 1159 2438 1159 1844 
L 1159 0 
L 581 0 
L 581 3500 
L 1159 3500 
L 1159 2956 
Q 1341 3275 1631 3429 
Q 1922 3584 2338 3584 
Q 2397 3584 2469 3576 
Q 2541 3569 2628 3553 
L 2631 2963 
z
" transform="scale(0.015625)"/>
       <path id="DejaVuSans-61" d="M 2194 1759 
Q 1497 1759 1228 1600 
Q 959 1441 959 1056 
Q 959 750 1161 570 
Q 1363 391 1709 391 
Q 2188 391 2477 730 
Q 2766 1069 2766 1631 
L 2766 1759 
L 2194 1759 
z
M 3341 1997 
L 3341 0 
L 2766 0 
L 2766 531 
Q 2569 213 2275 61 
Q 1981 -91 1556 -91 
Q 1019 -91 701 211 
Q 384 513 384 1019 
Q 384 1609 779 1909 
Q 1175 2209 1959 2209 
L 2766 2209 
L 2766 2266 
Q 2766 2663 2505 2880 
Q 2244 3097 1772 3097 
Q 1472 3097 1187 3025 
Q 903 2953 641 2809 
L 641 3341 
Q 956 3463 1253 3523 
Q 1550 3584 1831 3584 
Q 2591 3584 2966 3190 
Q 3341 2797 3341 1997 
z
" transform="scale(0.015625)"/>
       <path id="DejaVuSans-6d" d="M 3328 2828 
Q 3544 3216 3844 3400 
Q 4144 3584 4550 3584 
Q 5097 3584 5394 3201 
Q 5691 2819 5691 2113 
L 5691 0 
L 5113 0 
L 5113 2094 
Q 5113 2597 4934 2840 
Q 4756 3084 4391 3084 
Q 3944 3084 3684 2787 
Q 3425 2491 3425 1978 
L 3425 0 
L 2847 0 
L 2847 2094 
Q 2847 2600 2669 2842 
Q 2491 3084 2119 3084 
Q 1678 3084 1418 2786 
Q 1159 2488 1159 1978 
L 1159 0 
L 581 0 
L 581 3500 
L 1159 3500 
L 1159 2956 
Q 1356 3278 1631 3431 
Q 1906 3584 2284 3584 
Q 2666 3584 2933 3390 
Q 3200 3197 3328 2828 
z
" transform="scale(0.015625)"/>
      </defs>
      <use xlink:href="#DejaVuSans-44"/>
      <use xlink:href="#DejaVuSans-72" x="77.001953"/>
      <use xlink:href="#DejaVuSans-61" x="118.115234"/>
      <use xlink:href="#DejaVuSans-6d" x="179.394531"/>
      <use xlink:href="#DejaVuSans-61" x="276.806641"/>
     </g>
    </g>
   </g>
   <g id="text_2">
    <g id="patch_3">
     <path d="M 244.236091 307.83328 
L 324.563904 307.83328 
L 324.563904 291.202968 
L 244.236091 291.202968 
z
" clip-path="url(#pd27a8a581a)" style="fill: #ffffff; opacity: 0.7; stroke: #000000; stroke-linejoin: miter"/>
    </g>
    <g clip-path="url(#pd27a8a581a)">
     <!-- Black-and-white -->
     <g transform="translate(248.196091 302.001561)scale(0.09 -0.09)">
      <defs>
       <path id="DejaVuSans-42" d="M 1259 2228 
L 1259 519 
L 2272 519 
Q 2781 519 3026 730 
Q 3272 941 3272 1375 
Q 3272 1813 3026 2020 
Q 2781 2228 2272 2228 
L 1259 2228 
z
M 1259 4147 
L 1259 2741 
L 2194 2741 
Q 2656 2741 2882 2914 
Q 3109 3088 3109 3444 
Q 3109 3797 2882 3972 
Q 2656 4147 2194 4147 
L 1259 4147 
z
M 628 4666 
L 2241 4666 
Q 2963 4666 3353 4366 
Q 3744 4066 3744 3513 
Q 3744 3084 3544 2831 
Q 3344 2578 2956 2516 
Q 3422 2416 3680 2098 
Q 3938 1781 3938 1306 
Q 3938 681 3513 340 
Q 3088 0 2303 0 
L 628 0 
L 628 4666 
z
" transform="scale(0.015625)"/>
       <path id="DejaVuSans-6c" d="M 603 4863 
L 1178 4863 
L 1178 0 
L 603 0 
L 603 4863 
z
" transform="scale(0.015625)"/>
       <path id="DejaVuSans-63" d="M 3122 3366 
L 3122 2828 
Q 2878 2963 2633 3030 
Q 2388 3097 2138 3097 
Q 1578 3097 1268 2742 
Q 959 2388 959 1747 
Q 959 1106 1268 751 
Q 1578 397 2138 397 
Q 2388 397 2633 464 
Q 2878 531 3122 666 
L 3122 134 
Q 2881 22 2623 -34 
Q 2366 -91 2075 -91 
Q 1284 -91 818 406 
Q 353 903 353 1747 
Q 353 2603 823 3093 
Q 1294 3584 2113 3584 
Q 2378 3584 2631 3529 
Q 2884 3475 3122 3366 
z
" transform="scale(0.015625)"/>
       <path id="DejaVuSans-6b" d="M 581 4863 
L 1159 4863 
L 1159 1991 
L 2875 3500 
L 3609 3500 
L 1753 1863 
L 3688 0 
L 2938 0 
L 1159 1709 
L 1159 0 
L 581 0 
L 581 4863 
z
" transform="scale(0.015625)"/>
       <path id="DejaVuSans-2d" d="M 313 2009 
L 1997 2009 
L 1997 1497 
L 313 1497 
L 313 2009 
z
" transform="scale(0.015625)"/>
       <path id="DejaVuSans-6e" d="M 3513 2113 
L 3513 0 
L 2938 0 
L 2938 2094 
Q 2938 2591 2744 2837 
Q 2550 3084 2163 3084 
Q 1697 3084 1428 2787 
Q 1159 2491 1159 1978 
L 1159 0 
L 581 0 
L 581 3500 
L 1159 3500 
L 1159 2956 
Q 1366 3272 1645 3428 
Q 1925 3584 2291 3584 
Q 2894 3584 3203 3211 
Q 3513 2838 3513 2113 
z
" transform="scale(0.015625)"/>
       <path id="DejaVuSans-64" d="M 2906 2969 
L 2906 4863 
L 3481 4863 
L 3481 0 
L 2906 0 
L 2906 525 
Q 2725 213 2448 61 
Q 2172 -91 1784 -91 
Q 1150 -91 751 415 
Q 353 922 353 1747 
Q 353 2572 751 3078 
Q 1150 3584 1784 3584 
Q 2172 3584 2448 3432 
Q 2725 3281 2906 2969 
z
M 947 1747 
Q 947 1113 1208 752 
Q 1469 391 1925 391 
Q 2381 391 2643 752 
Q 2906 1113 2906 1747 
Q 2906 2381 2643 2742 
Q 2381 3103 1925 3103 
Q 1469 3103 1208 2742 
Q 947 2381 947 1747 
z
" transform="scale(0.015625)"/>
       <path id="DejaVuSans-77" d="M 269 3500 
L 844 3500 
L 1563 769 
L 2278 3500 
L 2956 3500 
L 3675 769 
L 4391 3500 
L 4966 3500 
L 4050 0 
L 3372 0 
L 2619 2869 
L 1863 0 
L 1184 0 
L 269 3500 
z
" transform="scale(0.015625)"/>
       <path id="DejaVuSans-68" d="M 3513 2113 
L 3513 0 
L 2938 0 
L 2938 2094 
Q 2938 2591 2744 2837 
Q 2550 3084 2163 3084 
Q 1697 3084 1428 2787 
Q 1159 2491 1159 1978 
L 1159 0 
L 581 0 
L 581 4863 
L 1159 4863 
L 1159 2956 
Q 1366 3272 1645 3428 
Q 1925 3584 2291 3584 
Q 2894 3584 3203 3211 
Q 3513 2838 3513 2113 
z
" transform="scale(0.015625)"/>
       <path id="DejaVuSans-69" d="M 603 3500 
L 1178 3500 
L 1178 0 
L 603 0 
L 603 3500 
z
M 603 4863 
L 1178 4863 
L 1178 4134 
L 603 4134 
L 603 4863 
z
" transform="scale(0.015625)"/>
       <path id="DejaVuSans-74" d="M 1172 4494 
L 1172 3500 
L 2356 3500 
L 2356 3053 
L 1172 3053 
L 1172 1153 
Q 1172 725 1289 603 
Q 1406 481 1766 481 
L 2356 481 
L 2356 0 
L 1766 0 
Q 1100 0 847 248 
Q 594 497 594 1153 
L 594 3053 
L 172 3053 
L 172 3500 
L 594 3500 
L 594 4494 
L 1172 4494 
z
" transform="scale(0.015625)"/>
       <path id="DejaVuSans-65" d="M 3597 1894 
L 3597 1613 
L 953 1613 
Q 991 1019 1311 708 
Q 1631 397 2203 397 
Q 2534 397 2845 478 
Q 3156 559 3463 722 
L 3463 178 
Q 3153 47 2828 -22 
Q 2503 -91 2169 -91 
Q 1331 -91 842 396 
Q 353 884 353 1716 
Q 353 2575 817 3079 
Q 1281 3584 2069 3584 
Q 2775 3584 3186 3129 
Q 3597 2675 3597 1894 
z
M 3022 2063 
Q 3016 2534 2758 2815 
Q 2500 3097 2075 3097 
Q 1594 3097 1305 2825 
Q 1016 2553 972 2059 
L 3022 2063 
z
" transform="scale(0.015625)"/>
      </defs>
      <use xlink:href="#DejaVuSans-42"/>
      <use xlink:href="#DejaVuSans-6c" x="68.603516"/>
      <use xlink:href="#DejaVuSans-61" x="96.386719"/>
      <use xlink:href="#DejaVuSans-63" x="157.666016"/>
      <use xlink:href="#DejaVuSans-6b" x="212.646484"/>
      <use xlink:href="#DejaVuSans-2d" x="270.556641"/>
      <use xlink:href="#DejaVuSans-61" x="306.640625"/>
      <use xlink:href="#DejaVuSans-6e" x="367.919922"/>
      <use xlink:href="#DejaVuSans-64" x="431.298828"/>
      <use xlink:href="#DejaVuSans-2d" x="494.775391"/>
      <use xlink:href="#DejaVuSans-77" x="530.859375"/>
      <use xlink:href="#DejaVuSans-68" x="612.646484"/>
      <use xlink:href="#DejaVuSans-69" x="676.025391"/>
      <use xlink:href="#DejaVuSans-74" x="703.808594"/>
      <use xlink:href="#DejaVuSans-65" x="743.017578"/>
     </g>
    </g>
   </g>
   <g id="text_3">
    <g id="patch_4">
     <path d="M 171.871864 127.833281 
L 216.928114 127.833281 
L 216.928114 111.202969 
L 171.871864 111.202969 
z
" clip-path="url(#pd27a8a581a)" style="fill: #ffffff; opacity: 0.7; stroke: #000000; stroke-linejoin: miter"/>
    </g>
    <g clip-path="url(#pd27a8a581a)">
     <!-- Comedy -->
     <g transform="translate(175.831864 122.001562)scale(0.09 -0.09)">
      <defs>
       <path id="DejaVuSans-43" d="M 4122 4306 
L 4122 3641 
Q 3803 3938 3442 4084 
Q 3081 4231 2675 4231 
Q 1875 4231 1450 3742 
Q 1025 3253 1025 2328 
Q 1025 1406 1450 917 
Q 1875 428 2675 428 
Q 3081 428 3442 575 
Q 3803 722 4122 1019 
L 4122 359 
Q 3791 134 3420 21 
Q 3050 -91 2638 -91 
Q 1578 -91 968 557 
Q 359 1206 359 2328 
Q 359 3453 968 4101 
Q 1578 4750 2638 4750 
Q 3056 4750 3426 4639 
Q 3797 4528 4122 4306 
z
" transform="scale(0.015625)"/>
       <path id="DejaVuSans-6f" d="M 1959 3097 
Q 1497 3097 1228 2736 
Q 959 2375 959 1747 
Q 959 1119 1226 758 
Q 1494 397 1959 397 
Q 2419 397 2687 759 
Q 2956 1122 2956 1747 
Q 2956 2369 2687 2733 
Q 2419 3097 1959 3097 
z
M 1959 3584 
Q 2709 3584 3137 3096 
Q 3566 2609 3566 1747 
Q 3566 888 3137 398 
Q 2709 -91 1959 -91 
Q 1206 -91 779 398 
Q 353 888 353 1747 
Q 353 2609 779 3096 
Q 1206 3584 1959 3584 
z
" transform="scale(0.015625)"/>
       <path id="DejaVuSans-79" d="M 2059 -325 
Q 1816 -950 1584 -1140 
Q 1353 -1331 966 -1331 
L 506 -1331 
L 506 -850 
L 844 -850 
Q 1081 -850 1212 -737 
Q 1344 -625 1503 -206 
L 1606 56 
L 191 3500 
L 800 3500 
L 1894 763 
L 2988 3500 
L 3597 3500 
L 2059 -325 
z
" transform="scale(0.015625)"/>
      </defs>
      <use xlink:href="#DejaVuSans-43"/>
      <use xlink:href="#DejaVuSans-6f" x="69.824219"/>
      <use xlink:href="#DejaVuSans-6d" x="131.005859"/>
      <use xlink:href="#DejaVuSans-65" x="228.417969"/>
      <use xlink:href="#DejaVuSans-64" x="289.941406"/>
      <use xlink:href="#DejaVuSans-79" x="353.417969"/>
     </g>
    </g>
   </g>
   <g id="text_4">
    <g id="patch_5">
     <path d="M 68.950547 307.833293 
L 139.849453 307.833293 
L 139.849453 291.202981 
L 68.950547 291.202981 
z
" clip-path="url(#pd27a8a581a)" style="fill: #ffffff; opacity: 0.7; stroke: #000000; stroke-linejoin: miter"/>
    </g>
    <g clip-path="url(#pd27a8a581a)">
     <!-- Romance Film -->
     <g transform="translate(72.910547 302.001574)scale(0.09 -0.09)">
      <defs>
       <path id="DejaVuSans-52" d="M 2841 2188 
Q 3044 2119 3236 1894 
Q 3428 1669 3622 1275 
L 4263 0 
L 3584 0 
L 2988 1197 
Q 2756 1666 2539 1819 
Q 2322 1972 1947 1972 
L 1259 1972 
L 1259 0 
L 628 0 
L 628 4666 
L 2053 4666 
Q 2853 4666 3247 4331 
Q 3641 3997 3641 3322 
Q 3641 2881 3436 2590 
Q 3231 2300 2841 2188 
z
M 1259 4147 
L 1259 2491 
L 2053 2491 
Q 2509 2491 2742 2702 
Q 2975 2913 2975 3322 
Q 2975 3731 2742 3939 
Q 2509 4147 2053 4147 
L 1259 4147 
z
" transform="scale(0.015625)"/>
       <path id="DejaVuSans-20" transform="scale(0.015625)"/>
       <path id="DejaVuSans-46" d="M 628 4666 
L 3309 4666 
L 3309 4134 
L 1259 4134 
L 1259 2759 
L 3109 2759 
L 3109 2228 
L 1259 2228 
L 1259 0 
L 628 0 
L 628 4666 
z
" transform="scale(0.015625)"/>
      </defs>
      <use xlink:href="#DejaVuSans-52"/>
      <use xlink:href="#DejaVuSans-6f" x="64.982422"/>
      <use xlink:href="#DejaVuSans-6d" x="126.164062"/>
      <use xlink:href="#DejaVuSans-61" x="223.576172"/>
      <use xlink:href="#DejaVuSans-6e" x="284.855469"/>
      <use xlink:href="#DejaVuSans-63" x="348.234375"/>
      <use xlink:href="#DejaVuSans-65" x="403.214844"/>
      <use xlink:href="#DejaVuSans-20" x="464.738281"/>
      <use xlink:href="#DejaVuSans-46" x="496.525391"/>
      <use xlink:href="#DejaVuSans-69" x="546.794922"/>
      <use xlink:href="#DejaVuSans-6c" x="574.578125"/>
      <use xlink:href="#DejaVuSans-6d" x="602.361328"/>
     </g>
    </g>
   </g>
   <g id="text_5">
    <g id="patch_6">
     <path d="M 174.620407 487.833281 
L 214.179625 487.833281 
L 214.179625 471.202969 
L 174.620407 471.202969 
z
" clip-path="url(#pd27a8a581a)" style="fill: #ffffff; opacity: 0.7; stroke: #000000; stroke-linejoin: miter"/>
    </g>
    <g clip-path="url(#pd27a8a581a)">
     <!-- Thriller -->
     <g transform="translate(178.580407 482.001562)scale(0.09 -0.09)">
      <defs>
       <path id="DejaVuSans-54" d="M -19 4666 
L 3928 4666 
L 3928 4134 
L 2272 4134 
L 2272 0 
L 1638 0 
L 1638 4134 
L -19 4134 
L -19 4666 
z
" transform="scale(0.015625)"/>
      </defs>
      <use xlink:href="#DejaVuSans-54"/>
      <use xlink:href="#DejaVuSans-68" x="61.083984"/>
      <use xlink:href="#DejaVuSans-72" x="124.462891"/>
      <use xlink:href="#DejaVuSans-69" x="165.576172"/>
      <use xlink:href="#DejaVuSans-6c" x="193.359375"/>
      <use xlink:href="#DejaVuSans-6c" x="221.142578"/>
      <use xlink:href="#DejaVuSans-65" x="248.925781"/>
      <use xlink:href="#DejaVuSans-72" x="310.449219"/>
     </g>
    </g>
   </g>
   <g id="text_6">
    <g id="patch_7">
     <path d="M 335.493968 487.833281 
L 413.306 487.833281 
L 413.306 471.202969 
L 335.493968 471.202969 
z
" clip-path="url(#pd27a8a581a)" style="fill: #ffffff; opacity: 0.7; stroke: #000000; stroke-linejoin: miter"/>
    </g>
    <g clip-path="url(#pd27a8a581a)">
     <!-- Film adaptation -->
     <g transform="translate(339.453968 482.001562)scale(0.09 -0.09)">
      <defs>
       <path id="DejaVuSans-70" d="M 1159 525 
L 1159 -1331 
L 581 -1331 
L 581 3500 
L 1159 3500 
L 1159 2969 
Q 1341 3281 1617 3432 
Q 1894 3584 2278 3584 
Q 2916 3584 3314 3078 
Q 3713 2572 3713 1747 
Q 3713 922 3314 415 
Q 2916 -91 2278 -91 
Q 1894 -91 1617 61 
Q 1341 213 1159 525 
z
M 3116 1747 
Q 3116 2381 2855 2742 
Q 2594 3103 2138 3103 
Q 1681 3103 1420 2742 
Q 1159 2381 1159 1747 
Q 1159 1113 1420 752 
Q 1681 391 2138 391 
Q 2594 391 2855 752 
Q 3116 1113 3116 1747 
z
" transform="scale(0.015625)"/>
      </defs>
      <use xlink:href="#DejaVuSans-46"/>
      <use xlink:href="#DejaVuSans-69" x="50.269531"/>
      <use xlink:href="#DejaVuSans-6c" x="78.052734"/>
      <use xlink:href="#DejaVuSans-6d" x="105.835938"/>
      <use xlink:href="#DejaVuSans-20" x="203.248047"/>
      <use xlink:href="#DejaVuSans-61" x="235.035156"/>
      <use xlink:href="#DejaVuSans-64" x="296.314453"/>
      <use xlink:href="#DejaVuSans-61" x="359.791016"/>
      <use xlink:href="#DejaVuSans-70" x="421.070312"/>
      <use xlink:href="#DejaVuSans-74" x="484.546875"/>
      <use xlink:href="#DejaVuSans-61" x="523.755859"/>
      <use xlink:href="#DejaVuSans-74" x="585.035156"/>
      <use xlink:href="#DejaVuSans-69" x="624.244141"/>
      <use xlink:href="#DejaVuSans-6f" x="652.027344"/>
      <use xlink:href="#DejaVuSans-6e" x="713.208984"/>
     </g>
    </g>
   </g>
   <g id="text_7">
    <!-- Impactful genre combination for Black-and-white genre - Importance rank: 3 -->
    <g transform="translate(54.659062 16.318125)scale(0.12 -0.12)">
     <defs>
      <path id="DejaVuSans-49" d="M 628 4666 
L 1259 4666 
L 1259 0 
L 628 0 
L 628 4666 
z
" transform="scale(0.015625)"/>
      <path id="DejaVuSans-66" d="M 2375 4863 
L 2375 4384 
L 1825 4384 
Q 1516 4384 1395 4259 
Q 1275 4134 1275 3809 
L 1275 3500 
L 2222 3500 
L 2222 3053 
L 1275 3053 
L 1275 0 
L 697 0 
L 697 3053 
L 147 3053 
L 147 3500 
L 697 3500 
L 697 3744 
Q 697 4328 969 4595 
Q 1241 4863 1831 4863 
L 2375 4863 
z
" transform="scale(0.015625)"/>
      <path id="DejaVuSans-75" d="M 544 1381 
L 544 3500 
L 1119 3500 
L 1119 1403 
Q 1119 906 1312 657 
Q 1506 409 1894 409 
Q 2359 409 2629 706 
Q 2900 1003 2900 1516 
L 2900 3500 
L 3475 3500 
L 3475 0 
L 2900 0 
L 2900 538 
Q 2691 219 2414 64 
Q 2138 -91 1772 -91 
Q 1169 -91 856 284 
Q 544 659 544 1381 
z
M 1991 3584 
L 1991 3584 
z
" transform="scale(0.015625)"/>
      <path id="DejaVuSans-67" d="M 2906 1791 
Q 2906 2416 2648 2759 
Q 2391 3103 1925 3103 
Q 1463 3103 1205 2759 
Q 947 2416 947 1791 
Q 947 1169 1205 825 
Q 1463 481 1925 481 
Q 2391 481 2648 825 
Q 2906 1169 2906 1791 
z
M 3481 434 
Q 3481 -459 3084 -895 
Q 2688 -1331 1869 -1331 
Q 1566 -1331 1297 -1286 
Q 1028 -1241 775 -1147 
L 775 -588 
Q 1028 -725 1275 -790 
Q 1522 -856 1778 -856 
Q 2344 -856 2625 -561 
Q 2906 -266 2906 331 
L 2906 616 
Q 2728 306 2450 153 
Q 2172 0 1784 0 
Q 1141 0 747 490 
Q 353 981 353 1791 
Q 353 2603 747 3093 
Q 1141 3584 1784 3584 
Q 2172 3584 2450 3431 
Q 2728 3278 2906 2969 
L 2906 3500 
L 3481 3500 
L 3481 434 
z
" transform="scale(0.015625)"/>
      <path id="DejaVuSans-62" d="M 3116 1747 
Q 3116 2381 2855 2742 
Q 2594 3103 2138 3103 
Q 1681 3103 1420 2742 
Q 1159 2381 1159 1747 
Q 1159 1113 1420 752 
Q 1681 391 2138 391 
Q 2594 391 2855 752 
Q 3116 1113 3116 1747 
z
M 1159 2969 
Q 1341 3281 1617 3432 
Q 1894 3584 2278 3584 
Q 2916 3584 3314 3078 
Q 3713 2572 3713 1747 
Q 3713 922 3314 415 
Q 2916 -91 2278 -91 
Q 1894 -91 1617 61 
Q 1341 213 1159 525 
L 1159 0 
L 581 0 
L 581 4863 
L 1159 4863 
L 1159 2969 
z
" transform="scale(0.015625)"/>
      <path id="DejaVuSans-3a" d="M 750 794 
L 1409 794 
L 1409 0 
L 750 0 
L 750 794 
z
M 750 3309 
L 1409 3309 
L 1409 2516 
L 750 2516 
L 750 3309 
z
" transform="scale(0.015625)"/>
      <path id="DejaVuSans-33" d="M 2597 2516 
Q 3050 2419 3304 2112 
Q 3559 1806 3559 1356 
Q 3559 666 3084 287 
Q 2609 -91 1734 -91 
Q 1441 -91 1130 -33 
Q 819 25 488 141 
L 488 750 
Q 750 597 1062 519 
Q 1375 441 1716 441 
Q 2309 441 2620 675 
Q 2931 909 2931 1356 
Q 2931 1769 2642 2001 
Q 2353 2234 1838 2234 
L 1294 2234 
L 1294 2753 
L 1863 2753 
Q 2328 2753 2575 2939 
Q 2822 3125 2822 3475 
Q 2822 3834 2567 4026 
Q 2313 4219 1838 4219 
Q 1578 4219 1281 4162 
Q 984 4106 628 3988 
L 628 4550 
Q 988 4650 1302 4700 
Q 1616 4750 1894 4750 
Q 2613 4750 3031 4423 
Q 3450 4097 3450 3541 
Q 3450 3153 3228 2886 
Q 3006 2619 2597 2516 
z
" transform="scale(0.015625)"/>
     </defs>
     <use xlink:href="#DejaVuSans-49"/>
     <use xlink:href="#DejaVuSans-6d" x="29.492188"/>
     <use xlink:href="#DejaVuSans-70" x="126.904297"/>
     <use xlink:href="#DejaVuSans-61" x="190.380859"/>
     <use xlink:href="#DejaVuSans-63" x="251.660156"/>
     <use xlink:href="#DejaVuSans-74" x="306.640625"/>
     <use xlink:href="#DejaVuSans-66" x="345.849609"/>
     <use xlink:href="#DejaVuSans-75" x="381.054688"/>
     <use xlink:href="#DejaVuSans-6c" x="444.433594"/>
     <use xlink:href="#DejaVuSans-20" x="472.216797"/>
     <use xlink:href="#DejaVuSans-67" x="504.003906"/>
     <use xlink:href="#DejaVuSans-65" x="567.480469"/>
     <use xlink:href="#DejaVuSans-6e" x="629.003906"/>
     <use xlink:href="#DejaVuSans-72" x="692.382812"/>
     <use xlink:href="#DejaVuSans-65" x="731.246094"/>
     <use xlink:href="#DejaVuSans-20" x="792.769531"/>
     <use xlink:href="#DejaVuSans-63" x="824.556641"/>
     <use xlink:href="#DejaVuSans-6f" x="879.537109"/>
     <use xlink:href="#DejaVuSans-6d" x="940.71875"/>
     <use xlink:href="#DejaVuSans-62" x="1038.130859"/>
     <use xlink:href="#DejaVuSans-69" x="1101.607422"/>
     <use xlink:href="#DejaVuSans-6e" x="1129.390625"/>
     <use xlink:href="#DejaVuSans-61" x="1192.769531"/>
     <use xlink:href="#DejaVuSans-74" x="1254.048828"/>
     <use xlink:href="#DejaVuSans-69" x="1293.257812"/>
     <use xlink:href="#DejaVuSans-6f" x="1321.041016"/>
     <use xlink:href="#DejaVuSans-6e" x="1382.222656"/>
     <use xlink:href="#DejaVuSans-20" x="1445.601562"/>
     <use xlink:href="#DejaVuSans-66" x="1477.388672"/>
     <use xlink:href="#DejaVuSans-6f" x="1512.59375"/>
     <use xlink:href="#DejaVuSans-72" x="1573.775391"/>
     <use xlink:href="#DejaVuSans-20" x="1614.888672"/>
     <use xlink:href="#DejaVuSans-42" x="1646.675781"/>
     <use xlink:href="#DejaVuSans-6c" x="1715.279297"/>
     <use xlink:href="#DejaVuSans-61" x="1743.0625"/>
     <use xlink:href="#DejaVuSans-63" x="1804.341797"/>
     <use xlink:href="#DejaVuSans-6b" x="1859.322266"/>
     <use xlink:href="#DejaVuSans-2d" x="1917.232422"/>
     <use xlink:href="#DejaVuSans-61" x="1953.316406"/>
     <use xlink:href="#DejaVuSans-6e" x="2014.595703"/>
     <use xlink:href="#DejaVuSans-64" x="2077.974609"/>
     <use xlink:href="#DejaVuSans-2d" x="2141.451172"/>
     <use xlink:href="#DejaVuSans-77" x="2177.535156"/>
     <use xlink:href="#DejaVuSans-68" x="2259.322266"/>
     <use xlink:href="#DejaVuSans-69" x="2322.701172"/>
     <use xlink:href="#DejaVuSans-74" x="2350.484375"/>
     <use xlink:href="#DejaVuSans-65" x="2389.693359"/>
     <use xlink:href="#DejaVuSans-20" x="2451.216797"/>
     <use xlink:href="#DejaVuSans-67" x="2483.003906"/>
     <use xlink:href="#DejaVuSans-65" x="2546.480469"/>
     <use xlink:href="#DejaVuSans-6e" x="2608.003906"/>
     <use xlink:href="#DejaVuSans-72" x="2671.382812"/>
     <use xlink:href="#DejaVuSans-65" x="2710.246094"/>
     <use xlink:href="#DejaVuSans-20" x="2771.769531"/>
     <use xlink:href="#DejaVuSans-2d" x="2803.556641"/>
     <use xlink:href="#DejaVuSans-20" x="2839.640625"/>
     <use xlink:href="#DejaVuSans-49" x="2871.427734"/>
     <use xlink:href="#DejaVuSans-6d" x="2900.919922"/>
     <use xlink:href="#DejaVuSans-70" x="2998.332031"/>
     <use xlink:href="#DejaVuSans-6f" x="3061.808594"/>
     <use xlink:href="#DejaVuSans-72" x="3122.990234"/>
     <use xlink:href="#DejaVuSans-74" x="3164.103516"/>
     <use xlink:href="#DejaVuSans-61" x="3203.3125"/>
     <use xlink:href="#DejaVuSans-6e" x="3264.591797"/>
     <use xlink:href="#DejaVuSans-63" x="3327.970703"/>
     <use xlink:href="#DejaVuSans-65" x="3382.951172"/>
     <use xlink:href="#DejaVuSans-20" x="3444.474609"/>
     <use xlink:href="#DejaVuSans-72" x="3476.261719"/>
     <use xlink:href="#DejaVuSans-61" x="3517.375"/>
     <use xlink:href="#DejaVuSans-6e" x="3578.654297"/>
     <use xlink:href="#DejaVuSans-6b" x="3642.033203"/>
     <use xlink:href="#DejaVuSans-3a" x="3699.943359"/>
     <use xlink:href="#DejaVuSans-20" x="3733.634766"/>
     <use xlink:href="#DejaVuSans-33" x="3765.421875"/>
    </g>
   </g>
  </g>
 </g>
 <defs>
  <clipPath id="pd27a8a581a">
   <rect x="7.2" y="22.318125" width="554.4" height="554.4"/>
  </clipPath>
 </defs>
</svg>
