<?xml version="1.0" encoding="utf-8" standalone="no"?>
<!DOCTYPE svg PUBLIC "-//W3C//DTD SVG 1.1//EN"
  "http://www.w3.org/Graphics/SVG/1.1/DTD/svg11.dtd">
<svg xmlns:xlink="http://www.w3.org/1999/xlink" width="568.8pt" height="583.918125pt" viewBox="0 0 568.8 583.918125" xmlns="http://www.w3.org/2000/svg" version="1.1">
 <metadata>
  <rdf:RDF xmlns:dc="http://purl.org/dc/elements/1.1/" xmlns:cc="http://creativecommons.org/ns#" xmlns:rdf="http://www.w3.org/1999/02/22-rdf-syntax-ns#">
   <cc:Work>
    <dc:type rdf:resource="http://purl.org/dc/dcmitype/StillImage"/>
    <dc:date>2022-12-23T17:30:02.207157</dc:date>
    <dc:format>image/svg+xml</dc:format>
    <dc:creator>
     <cc:Agent>
      <dc:title>Matplotlib v3.5.2, https://matplotlib.org/</dc:title>
     </cc:Agent>
    </dc:creator>
   </cc:Work>
  </rdf:RDF>
 </metadata>
 <defs>
  <style type="text/css">*{stroke-linejoin: round; stroke-linecap: butt}</style>
 </defs>
 <g id="figure_1">
  <g id="patch_1">
   <path d="M 0 583.918125 
L 568.8 583.918125 
L 568.8 0 
L 0 0 
z
" style="fill: #ffffff"/>
  </g>
  <g id="axes_1">
   <g id="LineCollection_1">
    <path d="M 464.4 299.518119 
L 284.399997 299.518124 
" clip-path="url(#p482a73fd78)" style="fill: none; stroke: #000000; stroke-opacity: 0.3; stroke-width: 8"/>
    <path d="M 284.399997 299.518124 
L 194.399989 119.518125 
" clip-path="url(#p482a73fd78)" style="fill: none; stroke: #000000; stroke-opacity: 0.3; stroke-width: 15.102992"/>
    <path d="M 284.399997 299.518124 
L 104.4 299.518137 
" clip-path="url(#p482a73fd78)" style="fill: none; stroke: #000000; stroke-opacity: 0.3; stroke-width: 8.842356"/>
    <path d="M 284.399997 299.518124 
L 194.400016 479.518125 
" clip-path="url(#p482a73fd78)" style="fill: none; stroke: #000000; stroke-opacity: 0.3; stroke-width: 10.61742"/>
    <path d="M 284.399997 299.518124 
L 374.399984 479.518125 
" clip-path="url(#p482a73fd78)" style="fill: none; stroke: #000000; stroke-opacity: 0.3; stroke-width: 14.213615"/>
   </g>
   <g id="PathCollection_1">
    <path d="M 464.4 325.975632 
C 471.416614 325.975632 478.146791 323.187901 483.108287 318.226406 
C 488.069783 313.26491 490.857513 306.534733 490.857513 299.518119 
C 490.857513 292.501504 488.069783 285.771328 483.108287 280.809832 
C 478.146791 275.848336 471.416614 273.060606 464.4 273.060606 
C 457.383386 273.060606 450.653209 275.848336 445.691713 280.809832 
C 440.730217 285.771328 437.942487 292.501504 437.942487 299.518119 
C 437.942487 306.534733 440.730217 313.26491 445.691713 318.226406 
C 450.653209 323.187901 457.383386 325.975632 464.4 325.975632 
z
" clip-path="url(#p482a73fd78)" style="fill: #c70039; fill-opacity: 0.99; stroke: #c70039; stroke-opacity: 0.99"/>
    <path d="M 284.399997 325.511687 
C 291.293571 325.511687 297.905729 322.772841 302.780222 317.898348 
C 307.654714 313.023856 310.39356 306.411697 310.39356 299.518124 
C 310.39356 292.624551 307.654714 286.012392 302.780222 281.137899 
C 297.905729 276.263407 291.293571 273.524561 284.399997 273.524561 
C 277.506424 273.524561 270.894265 276.263407 266.019773 281.137899 
C 261.14528 286.012392 258.406435 292.624551 258.406435 299.518124 
C 258.406435 306.411697 261.14528 313.023856 266.019773 317.898348 
C 270.894265 322.772841 277.506424 325.511687 284.399997 325.511687 
z
" clip-path="url(#p482a73fd78)" style="fill: #c70039; fill-opacity: 0.99; stroke: #c70039; stroke-opacity: 0.99"/>
    <path d="M 194.399989 144.853518 
C 201.119014 144.853518 207.563749 142.184021 212.314817 137.432953 
C 217.065885 132.681885 219.735382 126.23715 219.735382 119.518125 
C 219.735382 112.7991 217.065885 106.354365 212.314817 101.603297 
C 207.563749 96.852229 201.119014 94.182732 194.399989 94.182732 
C 187.680965 94.182732 181.236229 96.852229 176.485161 101.603297 
C 171.734093 106.354365 169.064596 112.7991 169.064596 119.518125 
C 169.064596 126.23715 171.734093 132.681885 176.485161 137.432953 
C 181.236229 142.184021 187.680965 144.853518 194.399989 144.853518 
z
" clip-path="url(#p482a73fd78)" style="fill: #c70039; fill-opacity: 0.99; stroke: #c70039; stroke-opacity: 0.99"/>
    <path d="M 104.4 323.657138 
C 110.801738 323.657138 116.942139 321.113701 121.468851 316.586988 
C 125.995564 312.060276 128.539001 305.919875 128.539001 299.518137 
C 128.539001 293.116399 125.995564 286.975998 121.468851 282.449286 
C 116.942139 277.922573 110.801738 275.379136 104.4 275.379136 
C 97.998262 275.379136 91.857861 277.922573 87.331149 282.449286 
C 82.804436 286.975998 80.260999 293.116399 80.260999 299.518137 
C 80.260999 305.919875 82.804436 312.060276 87.331149 316.586988 
C 91.857861 321.113701 97.998262 323.657138 104.4 323.657138 
z
" clip-path="url(#p482a73fd78)" style="fill: #c70039; fill-opacity: 0.99; stroke: #c70039; stroke-opacity: 0.99"/>
    <path d="M 194.400016 500.609582 
C 199.993536 500.609582 205.358713 498.387253 209.313928 494.432037 
C 213.269144 490.476821 215.491473 485.111645 215.491473 479.518125 
C 215.491473 473.924605 213.269144 468.559429 209.313928 464.604213 
C 205.358713 460.648997 199.993536 458.426668 194.400016 458.426668 
C 188.806496 458.426668 183.44132 460.648997 179.486104 464.604213 
C 175.530888 468.559429 173.308559 473.924605 173.308559 479.518125 
C 173.308559 485.111645 175.530888 490.476821 179.486104 494.432037 
C 183.44132 498.387253 188.806496 500.609582 194.400016 500.609582 
z
" clip-path="url(#p482a73fd78)" style="fill: #c70039; fill-opacity: 0.99; stroke: #c70039; stroke-opacity: 0.99"/>
    <path d="M 374.399984 498.226412 
C 379.36148 498.226412 384.120433 496.255189 387.62874 492.746882 
C 391.137048 489.238574 393.108271 484.479621 393.108271 479.518125 
C 393.108271 474.556629 391.137048 469.797676 387.62874 466.289368 
C 384.120433 462.781061 379.36148 460.809838 374.399984 460.809838 
C 369.438488 460.809838 364.679535 462.781061 361.171227 466.289368 
C 357.66292 469.797676 355.691697 474.556629 355.691697 479.518125 
C 355.691697 484.479621 357.66292 489.238574 361.171227 492.746882 
C 364.679535 496.255189 369.438488 498.226412 374.399984 498.226412 
z
" clip-path="url(#p482a73fd78)" style="fill: #c70039; fill-opacity: 0.99; stroke: #c70039; stroke-opacity: 0.99"/>
   </g>
   <g id="text_1">
    <g id="patch_2">
     <path d="M 446.346562 307.833275 
L 482.453437 307.833275 
L 482.453437 291.202963 
L 446.346562 291.202963 
z
" clip-path="url(#p482a73fd78)" style="fill: #ffffff; opacity: 0.7; stroke: #000000; stroke-linejoin: miter"/>
    </g>
    <g clip-path="url(#p482a73fd78)">
     <!-- Action -->
     <g transform="translate(450.306562 302.001556)scale(0.09 -0.09)">
      <defs>
       <path id="DejaVuSans-41" d="M 2188 4044 
L 1331 1722 
L 3047 1722 
L 2188 4044 
z
M 1831 4666 
L 2547 4666 
L 4325 0 
L 3669 0 
L 3244 1197 
L 1141 1197 
L 716 0 
L 50 0 
L 1831 4666 
z
" transform="scale(0.015625)"/>
       <path id="DejaVuSans-63" d="M 3122 3366 
L 3122 2828 
Q 2878 2963 2633 3030 
Q 2388 3097 2138 3097 
Q 1578 3097 1268 2742 
Q 959 2388 959 1747 
Q 959 1106 1268 751 
Q 1578 397 2138 397 
Q 2388 397 2633 464 
Q 2878 531 3122 666 
L 3122 134 
Q 2881 22 2623 -34 
Q 2366 -91 2075 -91 
Q 1284 -91 818 406 
Q 353 903 353 1747 
Q 353 2603 823 3093 
Q 1294 3584 2113 3584 
Q 2378 3584 2631 3529 
Q 2884 3475 3122 3366 
z
" transform="scale(0.015625)"/>
       <path id="DejaVuSans-74" d="M 1172 4494 
L 1172 3500 
L 2356 3500 
L 2356 3053 
L 1172 3053 
L 1172 1153 
Q 1172 725 1289 603 
Q 1406 481 1766 481 
L 2356 481 
L 2356 0 
L 1766 0 
Q 1100 0 847 248 
Q 594 497 594 1153 
L 594 3053 
L 172 3053 
L 172 3500 
L 594 3500 
L 594 4494 
L 1172 4494 
z
" transform="scale(0.015625)"/>
       <path id="DejaVuSans-69" d="M 603 3500 
L 1178 3500 
L 1178 0 
L 603 0 
L 603 3500 
z
M 603 4863 
L 1178 4863 
L 1178 4134 
L 603 4134 
L 603 4863 
z
" transform="scale(0.015625)"/>
       <path id="DejaVuSans-6f" d="M 1959 3097 
Q 1497 3097 1228 2736 
Q 959 2375 959 1747 
Q 959 1119 1226 758 
Q 1494 397 1959 397 
Q 2419 397 2687 759 
Q 2956 1122 2956 1747 
Q 2956 2369 2687 2733 
Q 2419 3097 1959 3097 
z
M 1959 3584 
Q 2709 3584 3137 3096 
Q 3566 2609 3566 1747 
Q 3566 888 3137 398 
Q 2709 -91 1959 -91 
Q 1206 -91 779 398 
Q 353 888 353 1747 
Q 353 2609 779 3096 
Q 1206 3584 1959 3584 
z
" transform="scale(0.015625)"/>
       <path id="DejaVuSans-6e" d="M 3513 2113 
L 3513 0 
L 2938 0 
L 2938 2094 
Q 2938 2591 2744 2837 
Q 2550 3084 2163 3084 
Q 1697 3084 1428 2787 
Q 1159 2491 1159 1978 
L 1159 0 
L 581 0 
L 581 3500 
L 1159 3500 
L 1159 2956 
Q 1366 3272 1645 3428 
Q 1925 3584 2291 3584 
Q 2894 3584 3203 3211 
Q 3513 2838 3513 2113 
z
" transform="scale(0.015625)"/>
      </defs>
      <use xlink:href="#DejaVuSans-41"/>
      <use xlink:href="#DejaVuSans-63" x="66.658203"/>
      <use xlink:href="#DejaVuSans-74" x="121.638672"/>
      <use xlink:href="#DejaVuSans-69" x="160.847656"/>
      <use xlink:href="#DejaVuSans-6f" x="188.630859"/>
      <use xlink:href="#DejaVuSans-6e" x="249.8125"/>
     </g>
    </g>
   </g>
   <g id="text_2">
    <g id="patch_3">
     <path d="M 266.179216 307.83328 
L 302.620779 307.83328 
L 302.620779 291.202968 
L 266.179216 291.202968 
z
" clip-path="url(#p482a73fd78)" style="fill: #ffffff; opacity: 0.7; stroke: #000000; stroke-linejoin: miter"/>
    </g>
    <g clip-path="url(#p482a73fd78)">
     <!-- Horror -->
     <g transform="translate(270.139216 302.001561)scale(0.09 -0.09)">
      <defs>
       <path id="DejaVuSans-48" d="M 628 4666 
L 1259 4666 
L 1259 2753 
L 3553 2753 
L 3553 4666 
L 4184 4666 
L 4184 0 
L 3553 0 
L 3553 2222 
L 1259 2222 
L 1259 0 
L 628 0 
L 628 4666 
z
" transform="scale(0.015625)"/>
       <path id="DejaVuSans-72" d="M 2631 2963 
Q 2534 3019 2420 3045 
Q 2306 3072 2169 3072 
Q 1681 3072 1420 2755 
Q 1159 2438 1159 1844 
L 1159 0 
L 581 0 
L 581 3500 
L 1159 3500 
L 1159 2956 
Q 1341 3275 1631 3429 
Q 1922 3584 2338 3584 
Q 2397 3584 2469 3576 
Q 2541 3569 2628 3553 
L 2631 2963 
z
" transform="scale(0.015625)"/>
      </defs>
      <use xlink:href="#DejaVuSans-48"/>
      <use xlink:href="#DejaVuSans-6f" x="75.195312"/>
      <use xlink:href="#DejaVuSans-72" x="136.376953"/>
      <use xlink:href="#DejaVuSans-72" x="175.740234"/>
      <use xlink:href="#DejaVuSans-6f" x="214.603516"/>
      <use xlink:href="#DejaVuSans-72" x="275.785156"/>
     </g>
    </g>
   </g>
   <g id="text_3">
    <g id="patch_4">
     <path d="M 151.556474 127.833281 
L 237.243505 127.833281 
L 237.243505 111.202969 
L 151.556474 111.202969 
z
" clip-path="url(#p482a73fd78)" style="fill: #ffffff; opacity: 0.7; stroke: #000000; stroke-linejoin: miter"/>
    </g>
    <g clip-path="url(#p482a73fd78)">
     <!-- Action/Adventure -->
     <g transform="translate(155.516474 122.001562)scale(0.09 -0.09)">
      <defs>
       <path id="DejaVuSans-2f" d="M 1625 4666 
L 2156 4666 
L 531 -594 
L 0 -594 
L 1625 4666 
z
" transform="scale(0.015625)"/>
       <path id="DejaVuSans-64" d="M 2906 2969 
L 2906 4863 
L 3481 4863 
L 3481 0 
L 2906 0 
L 2906 525 
Q 2725 213 2448 61 
Q 2172 -91 1784 -91 
Q 1150 -91 751 415 
Q 353 922 353 1747 
Q 353 2572 751 3078 
Q 1150 3584 1784 3584 
Q 2172 3584 2448 3432 
Q 2725 3281 2906 2969 
z
M 947 1747 
Q 947 1113 1208 752 
Q 1469 391 1925 391 
Q 2381 391 2643 752 
Q 2906 1113 2906 1747 
Q 2906 2381 2643 2742 
Q 2381 3103 1925 3103 
Q 1469 3103 1208 2742 
Q 947 2381 947 1747 
z
" transform="scale(0.015625)"/>
       <path id="DejaVuSans-76" d="M 191 3500 
L 800 3500 
L 1894 563 
L 2988 3500 
L 3597 3500 
L 2284 0 
L 1503 0 
L 191 3500 
z
" transform="scale(0.015625)"/>
       <path id="DejaVuSans-65" d="M 3597 1894 
L 3597 1613 
L 953 1613 
Q 991 1019 1311 708 
Q 1631 397 2203 397 
Q 2534 397 2845 478 
Q 3156 559 3463 722 
L 3463 178 
Q 3153 47 2828 -22 
Q 2503 -91 2169 -91 
Q 1331 -91 842 396 
Q 353 884 353 1716 
Q 353 2575 817 3079 
Q 1281 3584 2069 3584 
Q 2775 3584 3186 3129 
Q 3597 2675 3597 1894 
z
M 3022 2063 
Q 3016 2534 2758 2815 
Q 2500 3097 2075 3097 
Q 1594 3097 1305 2825 
Q 1016 2553 972 2059 
L 3022 2063 
z
" transform="scale(0.015625)"/>
       <path id="DejaVuSans-75" d="M 544 1381 
L 544 3500 
L 1119 3500 
L 1119 1403 
Q 1119 906 1312 657 
Q 1506 409 1894 409 
Q 2359 409 2629 706 
Q 2900 1003 2900 1516 
L 2900 3500 
L 3475 3500 
L 3475 0 
L 2900 0 
L 2900 538 
Q 2691 219 2414 64 
Q 2138 -91 1772 -91 
Q 1169 -91 856 284 
Q 544 659 544 1381 
z
M 1991 3584 
L 1991 3584 
z
" transform="scale(0.015625)"/>
      </defs>
      <use xlink:href="#DejaVuSans-41"/>
      <use xlink:href="#DejaVuSans-63" x="66.658203"/>
      <use xlink:href="#DejaVuSans-74" x="121.638672"/>
      <use xlink:href="#DejaVuSans-69" x="160.847656"/>
      <use xlink:href="#DejaVuSans-6f" x="188.630859"/>
      <use xlink:href="#DejaVuSans-6e" x="249.8125"/>
      <use xlink:href="#DejaVuSans-2f" x="313.191406"/>
      <use xlink:href="#DejaVuSans-41" x="346.882812"/>
      <use xlink:href="#DejaVuSans-64" x="413.541016"/>
      <use xlink:href="#DejaVuSans-76" x="477.017578"/>
      <use xlink:href="#DejaVuSans-65" x="536.197266"/>
      <use xlink:href="#DejaVuSans-6e" x="597.720703"/>
      <use xlink:href="#DejaVuSans-74" x="661.099609"/>
      <use xlink:href="#DejaVuSans-75" x="700.308594"/>
      <use xlink:href="#DejaVuSans-72" x="763.6875"/>
      <use xlink:href="#DejaVuSans-65" x="802.550781"/>
     </g>
    </g>
   </g>
   <g id="text_4">
    <g id="patch_5">
     <path d="M 84.620391 307.833293 
L 124.179609 307.833293 
L 124.179609 291.202981 
L 84.620391 291.202981 
z
" clip-path="url(#p482a73fd78)" style="fill: #ffffff; opacity: 0.7; stroke: #000000; stroke-linejoin: miter"/>
    </g>
    <g clip-path="url(#p482a73fd78)">
     <!-- Thriller -->
     <g transform="translate(88.580391 302.001574)scale(0.09 -0.09)">
      <defs>
       <path id="DejaVuSans-54" d="M -19 4666 
L 3928 4666 
L 3928 4134 
L 2272 4134 
L 2272 0 
L 1638 0 
L 1638 4134 
L -19 4134 
L -19 4666 
z
" transform="scale(0.015625)"/>
       <path id="DejaVuSans-68" d="M 3513 2113 
L 3513 0 
L 2938 0 
L 2938 2094 
Q 2938 2591 2744 2837 
Q 2550 3084 2163 3084 
Q 1697 3084 1428 2787 
Q 1159 2491 1159 1978 
L 1159 0 
L 581 0 
L 581 4863 
L 1159 4863 
L 1159 2956 
Q 1366 3272 1645 3428 
Q 1925 3584 2291 3584 
Q 2894 3584 3203 3211 
Q 3513 2838 3513 2113 
z
" transform="scale(0.015625)"/>
       <path id="DejaVuSans-6c" d="M 603 4863 
L 1178 4863 
L 1178 0 
L 603 0 
L 603 4863 
z
" transform="scale(0.015625)"/>
      </defs>
      <use xlink:href="#DejaVuSans-54"/>
      <use xlink:href="#DejaVuSans-68" x="61.083984"/>
      <use xlink:href="#DejaVuSans-72" x="124.462891"/>
      <use xlink:href="#DejaVuSans-69" x="165.576172"/>
      <use xlink:href="#DejaVuSans-6c" x="193.359375"/>
      <use xlink:href="#DejaVuSans-6c" x="221.142578"/>
      <use xlink:href="#DejaVuSans-65" x="248.925781"/>
      <use xlink:href="#DejaVuSans-72" x="310.449219"/>
     </g>
    </g>
   </g>
   <g id="text_5">
    <g id="patch_6">
     <path d="M 155.494 487.833281 
L 233.306032 487.833281 
L 233.306032 471.202969 
L 155.494 471.202969 
z
" clip-path="url(#p482a73fd78)" style="fill: #ffffff; opacity: 0.7; stroke: #000000; stroke-linejoin: miter"/>
    </g>
    <g clip-path="url(#p482a73fd78)">
     <!-- Film adaptation -->
     <g transform="translate(159.454 482.001562)scale(0.09 -0.09)">
      <defs>
       <path id="DejaVuSans-46" d="M 628 4666 
L 3309 4666 
L 3309 4134 
L 1259 4134 
L 1259 2759 
L 3109 2759 
L 3109 2228 
L 1259 2228 
L 1259 0 
L 628 0 
L 628 4666 
z
" transform="scale(0.015625)"/>
       <path id="DejaVuSans-6d" d="M 3328 2828 
Q 3544 3216 3844 3400 
Q 4144 3584 4550 3584 
Q 5097 3584 5394 3201 
Q 5691 2819 5691 2113 
L 5691 0 
L 5113 0 
L 5113 2094 
Q 5113 2597 4934 2840 
Q 4756 3084 4391 3084 
Q 3944 3084 3684 2787 
Q 3425 2491 3425 1978 
L 3425 0 
L 2847 0 
L 2847 2094 
Q 2847 2600 2669 2842 
Q 2491 3084 2119 3084 
Q 1678 3084 1418 2786 
Q 1159 2488 1159 1978 
L 1159 0 
L 581 0 
L 581 3500 
L 1159 3500 
L 1159 2956 
Q 1356 3278 1631 3431 
Q 1906 3584 2284 3584 
Q 2666 3584 2933 3390 
Q 3200 3197 3328 2828 
z
" transform="scale(0.015625)"/>
       <path id="DejaVuSans-20" transform="scale(0.015625)"/>
       <path id="DejaVuSans-61" d="M 2194 1759 
Q 1497 1759 1228 1600 
Q 959 1441 959 1056 
Q 959 750 1161 570 
Q 1363 391 1709 391 
Q 2188 391 2477 730 
Q 2766 1069 2766 1631 
L 2766 1759 
L 2194 1759 
z
M 3341 1997 
L 3341 0 
L 2766 0 
L 2766 531 
Q 2569 213 2275 61 
Q 1981 -91 1556 -91 
Q 1019 -91 701 211 
Q 384 513 384 1019 
Q 384 1609 779 1909 
Q 1175 2209 1959 2209 
L 2766 2209 
L 2766 2266 
Q 2766 2663 2505 2880 
Q 2244 3097 1772 3097 
Q 1472 3097 1187 3025 
Q 903 2953 641 2809 
L 641 3341 
Q 956 3463 1253 3523 
Q 1550 3584 1831 3584 
Q 2591 3584 2966 3190 
Q 3341 2797 3341 1997 
z
" transform="scale(0.015625)"/>
       <path id="DejaVuSans-70" d="M 1159 525 
L 1159 -1331 
L 581 -1331 
L 581 3500 
L 1159 3500 
L 1159 2969 
Q 1341 3281 1617 3432 
Q 1894 3584 2278 3584 
Q 2916 3584 3314 3078 
Q 3713 2572 3713 1747 
Q 3713 922 3314 415 
Q 2916 -91 2278 -91 
Q 1894 -91 1617 61 
Q 1341 213 1159 525 
z
M 3116 1747 
Q 3116 2381 2855 2742 
Q 2594 3103 2138 3103 
Q 1681 3103 1420 2742 
Q 1159 2381 1159 1747 
Q 1159 1113 1420 752 
Q 1681 391 2138 391 
Q 2594 391 2855 752 
Q 3116 1113 3116 1747 
z
" transform="scale(0.015625)"/>
      </defs>
      <use xlink:href="#DejaVuSans-46"/>
      <use xlink:href="#DejaVuSans-69" x="50.269531"/>
      <use xlink:href="#DejaVuSans-6c" x="78.052734"/>
      <use xlink:href="#DejaVuSans-6d" x="105.835938"/>
      <use xlink:href="#DejaVuSans-20" x="203.248047"/>
      <use xlink:href="#DejaVuSans-61" x="235.035156"/>
      <use xlink:href="#DejaVuSans-64" x="296.314453"/>
      <use xlink:href="#DejaVuSans-61" x="359.791016"/>
      <use xlink:href="#DejaVuSans-70" x="421.070312"/>
      <use xlink:href="#DejaVuSans-74" x="484.546875"/>
      <use xlink:href="#DejaVuSans-61" x="523.755859"/>
      <use xlink:href="#DejaVuSans-74" x="585.035156"/>
      <use xlink:href="#DejaVuSans-69" x="624.244141"/>
      <use xlink:href="#DejaVuSans-6f" x="652.027344"/>
      <use xlink:href="#DejaVuSans-6e" x="713.208984"/>
     </g>
    </g>
   </g>
   <g id="text_6">
    <g id="patch_7">
     <path d="M 357.293656 487.833281 
L 391.506312 487.833281 
L 391.506312 471.202969 
L 357.293656 471.202969 
z
" clip-path="url(#p482a73fd78)" style="fill: #ffffff; opacity: 0.7; stroke: #000000; stroke-linejoin: miter"/>
    </g>
    <g clip-path="url(#p482a73fd78)">
     <!-- Satire -->
     <g transform="translate(361.253656 482.001562)scale(0.09 -0.09)">
      <defs>
       <path id="DejaVuSans-53" d="M 3425 4513 
L 3425 3897 
Q 3066 4069 2747 4153 
Q 2428 4238 2131 4238 
Q 1616 4238 1336 4038 
Q 1056 3838 1056 3469 
Q 1056 3159 1242 3001 
Q 1428 2844 1947 2747 
L 2328 2669 
Q 3034 2534 3370 2195 
Q 3706 1856 3706 1288 
Q 3706 609 3251 259 
Q 2797 -91 1919 -91 
Q 1588 -91 1214 -16 
Q 841 59 441 206 
L 441 856 
Q 825 641 1194 531 
Q 1563 422 1919 422 
Q 2459 422 2753 634 
Q 3047 847 3047 1241 
Q 3047 1584 2836 1778 
Q 2625 1972 2144 2069 
L 1759 2144 
Q 1053 2284 737 2584 
Q 422 2884 422 3419 
Q 422 4038 858 4394 
Q 1294 4750 2059 4750 
Q 2388 4750 2728 4690 
Q 3069 4631 3425 4513 
z
" transform="scale(0.015625)"/>
      </defs>
      <use xlink:href="#DejaVuSans-53"/>
      <use xlink:href="#DejaVuSans-61" x="63.476562"/>
      <use xlink:href="#DejaVuSans-74" x="124.755859"/>
      <use xlink:href="#DejaVuSans-69" x="163.964844"/>
      <use xlink:href="#DejaVuSans-72" x="191.748047"/>
      <use xlink:href="#DejaVuSans-65" x="230.611328"/>
     </g>
    </g>
   </g>
   <g id="text_7">
    <!-- Impactful genre combination for Horror genre - Importance rank: 3 -->
    <g transform="translate(83.916562 16.318125)scale(0.12 -0.12)">
     <defs>
      <path id="DejaVuSans-49" d="M 628 4666 
L 1259 4666 
L 1259 0 
L 628 0 
L 628 4666 
z
" transform="scale(0.015625)"/>
      <path id="DejaVuSans-66" d="M 2375 4863 
L 2375 4384 
L 1825 4384 
Q 1516 4384 1395 4259 
Q 1275 4134 1275 3809 
L 1275 3500 
L 2222 3500 
L 2222 3053 
L 1275 3053 
L 1275 0 
L 697 0 
L 697 3053 
L 147 3053 
L 147 3500 
L 697 3500 
L 697 3744 
Q 697 4328 969 4595 
Q 1241 4863 1831 4863 
L 2375 4863 
z
" transform="scale(0.015625)"/>
      <path id="DejaVuSans-67" d="M 2906 1791 
Q 2906 2416 2648 2759 
Q 2391 3103 1925 3103 
Q 1463 3103 1205 2759 
Q 947 2416 947 1791 
Q 947 1169 1205 825 
Q 1463 481 1925 481 
Q 2391 481 2648 825 
Q 2906 1169 2906 1791 
z
M 3481 434 
Q 3481 -459 3084 -895 
Q 2688 -1331 1869 -1331 
Q 1566 -1331 1297 -1286 
Q 1028 -1241 775 -1147 
L 775 -588 
Q 1028 -725 1275 -790 
Q 1522 -856 1778 -856 
Q 2344 -856 2625 -561 
Q 2906 -266 2906 331 
L 2906 616 
Q 2728 306 2450 153 
Q 2172 0 1784 0 
Q 1141 0 747 490 
Q 353 981 353 1791 
Q 353 2603 747 3093 
Q 1141 3584 1784 3584 
Q 2172 3584 2450 3431 
Q 2728 3278 2906 2969 
L 2906 3500 
L 3481 3500 
L 3481 434 
z
" transform="scale(0.015625)"/>
      <path id="DejaVuSans-62" d="M 3116 1747 
Q 3116 2381 2855 2742 
Q 2594 3103 2138 3103 
Q 1681 3103 1420 2742 
Q 1159 2381 1159 1747 
Q 1159 1113 1420 752 
Q 1681 391 2138 391 
Q 2594 391 2855 752 
Q 3116 1113 3116 1747 
z
M 1159 2969 
Q 1341 3281 1617 3432 
Q 1894 3584 2278 3584 
Q 2916 3584 3314 3078 
Q 3713 2572 3713 1747 
Q 3713 922 3314 415 
Q 2916 -91 2278 -91 
Q 1894 -91 1617 61 
Q 1341 213 1159 525 
L 1159 0 
L 581 0 
L 581 4863 
L 1159 4863 
L 1159 2969 
z
" transform="scale(0.015625)"/>
      <path id="DejaVuSans-2d" d="M 313 2009 
L 1997 2009 
L 1997 1497 
L 313 1497 
L 313 2009 
z
" transform="scale(0.015625)"/>
      <path id="DejaVuSans-6b" d="M 581 4863 
L 1159 4863 
L 1159 1991 
L 2875 3500 
L 3609 3500 
L 1753 1863 
L 3688 0 
L 2938 0 
L 1159 1709 
L 1159 0 
L 581 0 
L 581 4863 
z
" transform="scale(0.015625)"/>
      <path id="DejaVuSans-3a" d="M 750 794 
L 1409 794 
L 1409 0 
L 750 0 
L 750 794 
z
M 750 3309 
L 1409 3309 
L 1409 2516 
L 750 2516 
L 750 3309 
z
" transform="scale(0.015625)"/>
      <path id="DejaVuSans-33" d="M 2597 2516 
Q 3050 2419 3304 2112 
Q 3559 1806 3559 1356 
Q 3559 666 3084 287 
Q 2609 -91 1734 -91 
Q 1441 -91 1130 -33 
Q 819 25 488 141 
L 488 750 
Q 750 597 1062 519 
Q 1375 441 1716 441 
Q 2309 441 2620 675 
Q 2931 909 2931 1356 
Q 2931 1769 2642 2001 
Q 2353 2234 1838 2234 
L 1294 2234 
L 1294 2753 
L 1863 2753 
Q 2328 2753 2575 2939 
Q 2822 3125 2822 3475 
Q 2822 3834 2567 4026 
Q 2313 4219 1838 4219 
Q 1578 4219 1281 4162 
Q 984 4106 628 3988 
L 628 4550 
Q 988 4650 1302 4700 
Q 1616 4750 1894 4750 
Q 2613 4750 3031 4423 
Q 3450 4097 3450 3541 
Q 3450 3153 3228 2886 
Q 3006 2619 2597 2516 
z
" transform="scale(0.015625)"/>
     </defs>
     <use xlink:href="#DejaVuSans-49"/>
     <use xlink:href="#DejaVuSans-6d" x="29.492188"/>
     <use xlink:href="#DejaVuSans-70" x="126.904297"/>
     <use xlink:href="#DejaVuSans-61" x="190.380859"/>
     <use xlink:href="#DejaVuSans-63" x="251.660156"/>
     <use xlink:href="#DejaVuSans-74" x="306.640625"/>
     <use xlink:href="#DejaVuSans-66" x="345.849609"/>
     <use xlink:href="#DejaVuSans-75" x="381.054688"/>
     <use xlink:href="#DejaVuSans-6c" x="444.433594"/>
     <use xlink:href="#DejaVuSans-20" x="472.216797"/>
     <use xlink:href="#DejaVuSans-67" x="504.003906"/>
     <use xlink:href="#DejaVuSans-65" x="567.480469"/>
     <use xlink:href="#DejaVuSans-6e" x="629.003906"/>
     <use xlink:href="#DejaVuSans-72" x="692.382812"/>
     <use xlink:href="#DejaVuSans-65" x="731.246094"/>
     <use xlink:href="#DejaVuSans-20" x="792.769531"/>
     <use xlink:href="#DejaVuSans-63" x="824.556641"/>
     <use xlink:href="#DejaVuSans-6f" x="879.537109"/>
     <use xlink:href="#DejaVuSans-6d" x="940.71875"/>
     <use xlink:href="#DejaVuSans-62" x="1038.130859"/>
     <use xlink:href="#DejaVuSans-69" x="1101.607422"/>
     <use xlink:href="#DejaVuSans-6e" x="1129.390625"/>
     <use xlink:href="#DejaVuSans-61" x="1192.769531"/>
     <use xlink:href="#DejaVuSans-74" x="1254.048828"/>
     <use xlink:href="#DejaVuSans-69" x="1293.257812"/>
     <use xlink:href="#DejaVuSans-6f" x="1321.041016"/>
     <use xlink:href="#DejaVuSans-6e" x="1382.222656"/>
     <use xlink:href="#DejaVuSans-20" x="1445.601562"/>
     <use xlink:href="#DejaVuSans-66" x="1477.388672"/>
     <use xlink:href="#DejaVuSans-6f" x="1512.59375"/>
     <use xlink:href="#DejaVuSans-72" x="1573.775391"/>
     <use xlink:href="#DejaVuSans-20" x="1614.888672"/>
     <use xlink:href="#DejaVuSans-48" x="1646.675781"/>
     <use xlink:href="#DejaVuSans-6f" x="1721.871094"/>
     <use xlink:href="#DejaVuSans-72" x="1783.052734"/>
     <use xlink:href="#DejaVuSans-72" x="1822.416016"/>
     <use xlink:href="#DejaVuSans-6f" x="1861.279297"/>
     <use xlink:href="#DejaVuSans-72" x="1922.460938"/>
     <use xlink:href="#DejaVuSans-20" x="1963.574219"/>
     <use xlink:href="#DejaVuSans-67" x="1995.361328"/>
     <use xlink:href="#DejaVuSans-65" x="2058.837891"/>
     <use xlink:href="#DejaVuSans-6e" x="2120.361328"/>
     <use xlink:href="#DejaVuSans-72" x="2183.740234"/>
     <use xlink:href="#DejaVuSans-65" x="2222.603516"/>
     <use xlink:href="#DejaVuSans-20" x="2284.126953"/>
     <use xlink:href="#DejaVuSans-2d" x="2315.914062"/>
     <use xlink:href="#DejaVuSans-20" x="2351.998047"/>
     <use xlink:href="#DejaVuSans-49" x="2383.785156"/>
     <use xlink:href="#DejaVuSans-6d" x="2413.277344"/>
     <use xlink:href="#DejaVuSans-70" x="2510.689453"/>
     <use xlink:href="#DejaVuSans-6f" x="2574.166016"/>
     <use xlink:href="#DejaVuSans-72" x="2635.347656"/>
     <use xlink:href="#DejaVuSans-74" x="2676.460938"/>
     <use xlink:href="#DejaVuSans-61" x="2715.669922"/>
     <use xlink:href="#DejaVuSans-6e" x="2776.949219"/>
     <use xlink:href="#DejaVuSans-63" x="2840.328125"/>
     <use xlink:href="#DejaVuSans-65" x="2895.308594"/>
     <use xlink:href="#DejaVuSans-20" x="2956.832031"/>
     <use xlink:href="#DejaVuSans-72" x="2988.619141"/>
     <use xlink:href="#DejaVuSans-61" x="3029.732422"/>
     <use xlink:href="#DejaVuSans-6e" x="3091.011719"/>
     <use xlink:href="#DejaVuSans-6b" x="3154.390625"/>
     <use xlink:href="#DejaVuSans-3a" x="3212.300781"/>
     <use xlink:href="#DejaVuSans-20" x="3245.992188"/>
     <use xlink:href="#DejaVuSans-33" x="3277.779297"/>
    </g>
   </g>
  </g>
 </g>
 <defs>
  <clipPath id="p482a73fd78">
   <rect x="7.2" y="22.318125" width="554.4" height="554.4"/>
  </clipPath>
 </defs>
</svg>
