<?xml version="1.0" encoding="utf-8" standalone="no"?>
<!DOCTYPE svg PUBLIC "-//W3C//DTD SVG 1.1//EN"
  "http://www.w3.org/Graphics/SVG/1.1/DTD/svg11.dtd">
<svg xmlns:xlink="http://www.w3.org/1999/xlink" width="576pt" height="576pt" viewBox="0 0 576 576" xmlns="http://www.w3.org/2000/svg" version="1.1">
 <metadata>
  <rdf:RDF xmlns:dc="http://purl.org/dc/elements/1.1/" xmlns:cc="http://creativecommons.org/ns#" xmlns:rdf="http://www.w3.org/1999/02/22-rdf-syntax-ns#">
   <cc:Work>
    <dc:type rdf:resource="http://purl.org/dc/dcmitype/StillImage"/>
    <dc:date>2022-12-22T16:12:36.058939</dc:date>
    <dc:format>image/svg+xml</dc:format>
    <dc:creator>
     <cc:Agent>
      <dc:title>Matplotlib v3.5.2, https://matplotlib.org/</dc:title>
     </cc:Agent>
    </dc:creator>
   </cc:Work>
  </rdf:RDF>
 </metadata>
 <defs>
  <style type="text/css">*{stroke-linejoin: round; stroke-linecap: butt}</style>
 </defs>
 <g id="figure_1">
  <g id="patch_1">
   <path d="M 0 576 
L 576 576 
L 576 0 
L 0 0 
z
" style="fill: #ffffff"/>
  </g>
  <g id="axes_1">
   <g id="LineCollection_1">
    <path d="M 468 287.999994 
L 287.999997 287.999999 
" clip-path="url(#p140caca214)" style="fill: none; stroke: #000000; stroke-opacity: 0.3; stroke-width: 11.603477"/>
    <path d="M 287.999997 287.999999 
L 197.999989 108 
" clip-path="url(#p140caca214)" style="fill: none; stroke: #000000; stroke-opacity: 0.3; stroke-width: 8"/>
    <path d="M 287.999997 287.999999 
L 108 288.000012 
" clip-path="url(#p140caca214)" style="fill: none; stroke: #000000; stroke-opacity: 0.3; stroke-width: 15.792757"/>
    <path d="M 287.999997 287.999999 
L 198.000016 468 
" clip-path="url(#p140caca214)" style="fill: none; stroke: #000000; stroke-opacity: 0.3; stroke-width: 15.557098"/>
    <path d="M 287.999997 287.999999 
L 377.999984 468 
" clip-path="url(#p140caca214)" style="fill: none; stroke: #000000; stroke-opacity: 0.3; stroke-width: 14.839262"/>
   </g>
   <g id="PathCollection_1">
    <path d="M 468 314.457507 
C 475.016614 314.457507 481.746791 311.669776 486.708287 306.708281 
C 491.669783 301.746785 494.457513 295.016608 494.457513 287.999994 
C 494.457513 280.983379 491.669783 274.253203 486.708287 269.291707 
C 481.746791 264.330211 475.016614 261.542481 468 261.542481 
C 460.983386 261.542481 454.253209 264.330211 449.291713 269.291707 
C 444.330217 274.253203 441.542487 280.983379 441.542487 287.999994 
C 441.542487 295.016608 444.330217 301.746785 449.291713 306.708281 
C 454.253209 311.669776 460.983386 314.457507 468 314.457507 
z
" clip-path="url(#p140caca214)" style="fill: #d62728; fill-opacity: 0.99; stroke: #d62728; stroke-opacity: 0.99"/>
    <path d="M 287.999997 312.771517 
C 294.569481 312.771517 300.87078 310.161434 305.516106 305.516108 
C 310.161432 300.870781 312.771516 294.569482 312.771516 287.999999 
C 312.771516 281.430515 310.161432 275.129216 305.516106 270.48389 
C 300.87078 265.838564 294.569481 263.22848 287.999997 263.22848 
C 281.430514 263.22848 275.129215 265.838564 270.483889 270.48389 
C 265.838562 275.129216 263.228479 281.430515 263.228479 287.999999 
C 263.228479 294.569482 265.838562 300.870781 270.483889 305.516108 
C 275.129215 310.161434 281.430514 312.771517 287.999997 312.771517 
z
" clip-path="url(#p140caca214)" style="fill: #d62728; fill-opacity: 0.99; stroke: #d62728; stroke-opacity: 0.99"/>
    <path d="M 197.999989 132.5118 
C 204.500595 132.5118 210.735827 129.929082 215.332449 125.33246 
C 219.929071 120.735838 222.511789 114.500605 222.511789 108 
C 222.511789 101.499395 219.929071 95.264162 215.332449 90.66754 
C 210.735827 86.070918 204.500595 83.4882 197.999989 83.4882 
C 191.499384 83.4882 185.264152 86.070918 180.667529 90.66754 
C 176.070907 95.264162 173.48819 101.499395 173.48819 108 
C 173.48819 114.500605 176.070907 120.735838 180.667529 125.33246 
C 185.264152 129.929082 191.499384 132.5118 197.999989 132.5118 
z
" clip-path="url(#p140caca214)" style="fill: #d62728; fill-opacity: 0.99; stroke: #d62728; stroke-opacity: 0.99"/>
    <path d="M 108 311.546344 
C 114.24456 311.546344 120.2342 309.065354 124.649771 304.649783 
C 129.065342 300.234212 131.546332 294.244572 131.546332 288.000012 
C 131.546332 281.755452 129.065342 275.765812 124.649771 271.350241 
C 120.2342 266.93467 114.24456 264.45368 108 264.45368 
C 101.75544 264.45368 95.7658 266.93467 91.350229 271.350241 
C 86.934658 275.765812 84.453668 281.755452 84.453668 288.000012 
C 84.453668 294.244572 86.934658 300.234212 91.350229 304.649783 
C 95.7658 309.065354 101.75544 311.546344 108 311.546344 
z
" clip-path="url(#p140caca214)" style="fill: #d62728; fill-opacity: 0.99; stroke: #d62728; stroke-opacity: 0.99"/>
    <path d="M 198.000016 488.700431 
C 203.489835 488.700431 208.755543 486.519303 212.637431 482.637415 
C 216.519319 478.755527 218.700447 473.489819 218.700447 468 
C 218.700447 462.510181 216.519319 457.244473 212.637431 453.362585 
C 208.755543 449.480697 203.489835 447.299569 198.000016 447.299569 
C 192.510198 447.299569 187.244489 449.480697 183.362601 453.362585 
C 179.480713 457.244473 177.299585 462.510181 177.299585 468 
C 177.299585 473.489819 179.480713 478.755527 183.362601 482.637415 
C 187.244489 486.519303 192.510198 488.700431 198.000016 488.700431 
z
" clip-path="url(#p140caca214)" style="fill: #d62728; fill-opacity: 0.99; stroke: #d62728; stroke-opacity: 0.99"/>
    <path d="M 377.999984 486.708287 
C 382.96148 486.708287 387.720433 484.737064 391.22874 481.228757 
C 394.737048 477.720449 396.708271 472.961496 396.708271 468 
C 396.708271 463.038504 394.737048 458.279551 391.22874 454.771243 
C 387.720433 451.262936 382.96148 449.291713 377.999984 449.291713 
C 373.038488 449.291713 368.279535 451.262936 364.771227 454.771243 
C 361.26292 458.279551 359.291697 463.038504 359.291697 468 
C 359.291697 472.961496 361.26292 477.720449 364.771227 481.228757 
C 368.279535 484.737064 373.038488 486.708287 377.999984 486.708287 
z
" clip-path="url(#p140caca214)" style="fill: #d62728; fill-opacity: 0.99; stroke: #d62728; stroke-opacity: 0.99"/>
   </g>
   <g id="text_1">
    <g id="patch_2">
     <path d="M 423.550547 296.31515 
L 512.449453 296.31515 
L 512.449453 279.684838 
L 423.550547 279.684838 
z
" clip-path="url(#p140caca214)" style="fill: #ffffff; opacity: 0.7; stroke: #000000; stroke-linejoin: miter"/>
    </g>
    <g clip-path="url(#p140caca214)">
     <!-- Romantic comedy -->
     <g transform="translate(427.510547 290.483431)scale(0.09 -0.09)">
      <defs>
       <path id="DejaVuSans-52" d="M 2841 2188 
Q 3044 2119 3236 1894 
Q 3428 1669 3622 1275 
L 4263 0 
L 3584 0 
L 2988 1197 
Q 2756 1666 2539 1819 
Q 2322 1972 1947 1972 
L 1259 1972 
L 1259 0 
L 628 0 
L 628 4666 
L 2053 4666 
Q 2853 4666 3247 4331 
Q 3641 3997 3641 3322 
Q 3641 2881 3436 2590 
Q 3231 2300 2841 2188 
z
M 1259 4147 
L 1259 2491 
L 2053 2491 
Q 2509 2491 2742 2702 
Q 2975 2913 2975 3322 
Q 2975 3731 2742 3939 
Q 2509 4147 2053 4147 
L 1259 4147 
z
" transform="scale(0.015625)"/>
       <path id="DejaVuSans-6f" d="M 1959 3097 
Q 1497 3097 1228 2736 
Q 959 2375 959 1747 
Q 959 1119 1226 758 
Q 1494 397 1959 397 
Q 2419 397 2687 759 
Q 2956 1122 2956 1747 
Q 2956 2369 2687 2733 
Q 2419 3097 1959 3097 
z
M 1959 3584 
Q 2709 3584 3137 3096 
Q 3566 2609 3566 1747 
Q 3566 888 3137 398 
Q 2709 -91 1959 -91 
Q 1206 -91 779 398 
Q 353 888 353 1747 
Q 353 2609 779 3096 
Q 1206 3584 1959 3584 
z
" transform="scale(0.015625)"/>
       <path id="DejaVuSans-6d" d="M 3328 2828 
Q 3544 3216 3844 3400 
Q 4144 3584 4550 3584 
Q 5097 3584 5394 3201 
Q 5691 2819 5691 2113 
L 5691 0 
L 5113 0 
L 5113 2094 
Q 5113 2597 4934 2840 
Q 4756 3084 4391 3084 
Q 3944 3084 3684 2787 
Q 3425 2491 3425 1978 
L 3425 0 
L 2847 0 
L 2847 2094 
Q 2847 2600 2669 2842 
Q 2491 3084 2119 3084 
Q 1678 3084 1418 2786 
Q 1159 2488 1159 1978 
L 1159 0 
L 581 0 
L 581 3500 
L 1159 3500 
L 1159 2956 
Q 1356 3278 1631 3431 
Q 1906 3584 2284 3584 
Q 2666 3584 2933 3390 
Q 3200 3197 3328 2828 
z
" transform="scale(0.015625)"/>
       <path id="DejaVuSans-61" d="M 2194 1759 
Q 1497 1759 1228 1600 
Q 959 1441 959 1056 
Q 959 750 1161 570 
Q 1363 391 1709 391 
Q 2188 391 2477 730 
Q 2766 1069 2766 1631 
L 2766 1759 
L 2194 1759 
z
M 3341 1997 
L 3341 0 
L 2766 0 
L 2766 531 
Q 2569 213 2275 61 
Q 1981 -91 1556 -91 
Q 1019 -91 701 211 
Q 384 513 384 1019 
Q 384 1609 779 1909 
Q 1175 2209 1959 2209 
L 2766 2209 
L 2766 2266 
Q 2766 2663 2505 2880 
Q 2244 3097 1772 3097 
Q 1472 3097 1187 3025 
Q 903 2953 641 2809 
L 641 3341 
Q 956 3463 1253 3523 
Q 1550 3584 1831 3584 
Q 2591 3584 2966 3190 
Q 3341 2797 3341 1997 
z
" transform="scale(0.015625)"/>
       <path id="DejaVuSans-6e" d="M 3513 2113 
L 3513 0 
L 2938 0 
L 2938 2094 
Q 2938 2591 2744 2837 
Q 2550 3084 2163 3084 
Q 1697 3084 1428 2787 
Q 1159 2491 1159 1978 
L 1159 0 
L 581 0 
L 581 3500 
L 1159 3500 
L 1159 2956 
Q 1366 3272 1645 3428 
Q 1925 3584 2291 3584 
Q 2894 3584 3203 3211 
Q 3513 2838 3513 2113 
z
" transform="scale(0.015625)"/>
       <path id="DejaVuSans-74" d="M 1172 4494 
L 1172 3500 
L 2356 3500 
L 2356 3053 
L 1172 3053 
L 1172 1153 
Q 1172 725 1289 603 
Q 1406 481 1766 481 
L 2356 481 
L 2356 0 
L 1766 0 
Q 1100 0 847 248 
Q 594 497 594 1153 
L 594 3053 
L 172 3053 
L 172 3500 
L 594 3500 
L 594 4494 
L 1172 4494 
z
" transform="scale(0.015625)"/>
       <path id="DejaVuSans-69" d="M 603 3500 
L 1178 3500 
L 1178 0 
L 603 0 
L 603 3500 
z
M 603 4863 
L 1178 4863 
L 1178 4134 
L 603 4134 
L 603 4863 
z
" transform="scale(0.015625)"/>
       <path id="DejaVuSans-63" d="M 3122 3366 
L 3122 2828 
Q 2878 2963 2633 3030 
Q 2388 3097 2138 3097 
Q 1578 3097 1268 2742 
Q 959 2388 959 1747 
Q 959 1106 1268 751 
Q 1578 397 2138 397 
Q 2388 397 2633 464 
Q 2878 531 3122 666 
L 3122 134 
Q 2881 22 2623 -34 
Q 2366 -91 2075 -91 
Q 1284 -91 818 406 
Q 353 903 353 1747 
Q 353 2603 823 3093 
Q 1294 3584 2113 3584 
Q 2378 3584 2631 3529 
Q 2884 3475 3122 3366 
z
" transform="scale(0.015625)"/>
       <path id="DejaVuSans-20" transform="scale(0.015625)"/>
       <path id="DejaVuSans-65" d="M 3597 1894 
L 3597 1613 
L 953 1613 
Q 991 1019 1311 708 
Q 1631 397 2203 397 
Q 2534 397 2845 478 
Q 3156 559 3463 722 
L 3463 178 
Q 3153 47 2828 -22 
Q 2503 -91 2169 -91 
Q 1331 -91 842 396 
Q 353 884 353 1716 
Q 353 2575 817 3079 
Q 1281 3584 2069 3584 
Q 2775 3584 3186 3129 
Q 3597 2675 3597 1894 
z
M 3022 2063 
Q 3016 2534 2758 2815 
Q 2500 3097 2075 3097 
Q 1594 3097 1305 2825 
Q 1016 2553 972 2059 
L 3022 2063 
z
" transform="scale(0.015625)"/>
       <path id="DejaVuSans-64" d="M 2906 2969 
L 2906 4863 
L 3481 4863 
L 3481 0 
L 2906 0 
L 2906 525 
Q 2725 213 2448 61 
Q 2172 -91 1784 -91 
Q 1150 -91 751 415 
Q 353 922 353 1747 
Q 353 2572 751 3078 
Q 1150 3584 1784 3584 
Q 2172 3584 2448 3432 
Q 2725 3281 2906 2969 
z
M 947 1747 
Q 947 1113 1208 752 
Q 1469 391 1925 391 
Q 2381 391 2643 752 
Q 2906 1113 2906 1747 
Q 2906 2381 2643 2742 
Q 2381 3103 1925 3103 
Q 1469 3103 1208 2742 
Q 947 2381 947 1747 
z
" transform="scale(0.015625)"/>
       <path id="DejaVuSans-79" d="M 2059 -325 
Q 1816 -950 1584 -1140 
Q 1353 -1331 966 -1331 
L 506 -1331 
L 506 -850 
L 844 -850 
Q 1081 -850 1212 -737 
Q 1344 -625 1503 -206 
L 1606 56 
L 191 3500 
L 800 3500 
L 1894 763 
L 2988 3500 
L 3597 3500 
L 2059 -325 
z
" transform="scale(0.015625)"/>
      </defs>
      <use xlink:href="#DejaVuSans-52"/>
      <use xlink:href="#DejaVuSans-6f" x="64.982422"/>
      <use xlink:href="#DejaVuSans-6d" x="126.164062"/>
      <use xlink:href="#DejaVuSans-61" x="223.576172"/>
      <use xlink:href="#DejaVuSans-6e" x="284.855469"/>
      <use xlink:href="#DejaVuSans-74" x="348.234375"/>
      <use xlink:href="#DejaVuSans-69" x="387.443359"/>
      <use xlink:href="#DejaVuSans-63" x="415.226562"/>
      <use xlink:href="#DejaVuSans-20" x="470.207031"/>
      <use xlink:href="#DejaVuSans-63" x="501.994141"/>
      <use xlink:href="#DejaVuSans-6f" x="556.974609"/>
      <use xlink:href="#DejaVuSans-6d" x="618.15625"/>
      <use xlink:href="#DejaVuSans-65" x="715.568359"/>
      <use xlink:href="#DejaVuSans-64" x="777.091797"/>
      <use xlink:href="#DejaVuSans-79" x="840.568359"/>
     </g>
    </g>
   </g>
   <g id="text_2">
    <g id="patch_3">
     <path d="M 252.550544 296.315155 
L 323.44945 296.315155 
L 323.44945 279.684843 
L 252.550544 279.684843 
z
" clip-path="url(#p140caca214)" style="fill: #ffffff; opacity: 0.7; stroke: #000000; stroke-linejoin: miter"/>
    </g>
    <g clip-path="url(#p140caca214)">
     <!-- Romance Film -->
     <g transform="translate(256.510544 290.483436)scale(0.09 -0.09)">
      <defs>
       <path id="DejaVuSans-46" d="M 628 4666 
L 3309 4666 
L 3309 4134 
L 1259 4134 
L 1259 2759 
L 3109 2759 
L 3109 2228 
L 1259 2228 
L 1259 0 
L 628 0 
L 628 4666 
z
" transform="scale(0.015625)"/>
       <path id="DejaVuSans-6c" d="M 603 4863 
L 1178 4863 
L 1178 0 
L 603 0 
L 603 4863 
z
" transform="scale(0.015625)"/>
      </defs>
      <use xlink:href="#DejaVuSans-52"/>
      <use xlink:href="#DejaVuSans-6f" x="64.982422"/>
      <use xlink:href="#DejaVuSans-6d" x="126.164062"/>
      <use xlink:href="#DejaVuSans-61" x="223.576172"/>
      <use xlink:href="#DejaVuSans-6e" x="284.855469"/>
      <use xlink:href="#DejaVuSans-63" x="348.234375"/>
      <use xlink:href="#DejaVuSans-65" x="403.214844"/>
      <use xlink:href="#DejaVuSans-20" x="464.738281"/>
      <use xlink:href="#DejaVuSans-46" x="496.525391"/>
      <use xlink:href="#DejaVuSans-69" x="546.794922"/>
      <use xlink:href="#DejaVuSans-6c" x="574.578125"/>
      <use xlink:href="#DejaVuSans-6d" x="602.361328"/>
     </g>
    </g>
   </g>
   <g id="text_3">
    <g id="patch_4">
     <path d="M 157.996396 116.315156 
L 238.003583 116.315156 
L 238.003583 99.684844 
L 157.996396 99.684844 
z
" clip-path="url(#p140caca214)" style="fill: #ffffff; opacity: 0.7; stroke: #000000; stroke-linejoin: miter"/>
    </g>
    <g clip-path="url(#p140caca214)">
     <!-- Costume drama -->
     <g transform="translate(161.956396 110.483438)scale(0.09 -0.09)">
      <defs>
       <path id="DejaVuSans-43" d="M 4122 4306 
L 4122 3641 
Q 3803 3938 3442 4084 
Q 3081 4231 2675 4231 
Q 1875 4231 1450 3742 
Q 1025 3253 1025 2328 
Q 1025 1406 1450 917 
Q 1875 428 2675 428 
Q 3081 428 3442 575 
Q 3803 722 4122 1019 
L 4122 359 
Q 3791 134 3420 21 
Q 3050 -91 2638 -91 
Q 1578 -91 968 557 
Q 359 1206 359 2328 
Q 359 3453 968 4101 
Q 1578 4750 2638 4750 
Q 3056 4750 3426 4639 
Q 3797 4528 4122 4306 
z
" transform="scale(0.015625)"/>
       <path id="DejaVuSans-73" d="M 2834 3397 
L 2834 2853 
Q 2591 2978 2328 3040 
Q 2066 3103 1784 3103 
Q 1356 3103 1142 2972 
Q 928 2841 928 2578 
Q 928 2378 1081 2264 
Q 1234 2150 1697 2047 
L 1894 2003 
Q 2506 1872 2764 1633 
Q 3022 1394 3022 966 
Q 3022 478 2636 193 
Q 2250 -91 1575 -91 
Q 1294 -91 989 -36 
Q 684 19 347 128 
L 347 722 
Q 666 556 975 473 
Q 1284 391 1588 391 
Q 1994 391 2212 530 
Q 2431 669 2431 922 
Q 2431 1156 2273 1281 
Q 2116 1406 1581 1522 
L 1381 1569 
Q 847 1681 609 1914 
Q 372 2147 372 2553 
Q 372 3047 722 3315 
Q 1072 3584 1716 3584 
Q 2034 3584 2315 3537 
Q 2597 3491 2834 3397 
z
" transform="scale(0.015625)"/>
       <path id="DejaVuSans-75" d="M 544 1381 
L 544 3500 
L 1119 3500 
L 1119 1403 
Q 1119 906 1312 657 
Q 1506 409 1894 409 
Q 2359 409 2629 706 
Q 2900 1003 2900 1516 
L 2900 3500 
L 3475 3500 
L 3475 0 
L 2900 0 
L 2900 538 
Q 2691 219 2414 64 
Q 2138 -91 1772 -91 
Q 1169 -91 856 284 
Q 544 659 544 1381 
z
M 1991 3584 
L 1991 3584 
z
" transform="scale(0.015625)"/>
       <path id="DejaVuSans-72" d="M 2631 2963 
Q 2534 3019 2420 3045 
Q 2306 3072 2169 3072 
Q 1681 3072 1420 2755 
Q 1159 2438 1159 1844 
L 1159 0 
L 581 0 
L 581 3500 
L 1159 3500 
L 1159 2956 
Q 1341 3275 1631 3429 
Q 1922 3584 2338 3584 
Q 2397 3584 2469 3576 
Q 2541 3569 2628 3553 
L 2631 2963 
z
" transform="scale(0.015625)"/>
      </defs>
      <use xlink:href="#DejaVuSans-43"/>
      <use xlink:href="#DejaVuSans-6f" x="69.824219"/>
      <use xlink:href="#DejaVuSans-73" x="131.005859"/>
      <use xlink:href="#DejaVuSans-74" x="183.105469"/>
      <use xlink:href="#DejaVuSans-75" x="222.314453"/>
      <use xlink:href="#DejaVuSans-6d" x="285.693359"/>
      <use xlink:href="#DejaVuSans-65" x="383.105469"/>
      <use xlink:href="#DejaVuSans-20" x="444.628906"/>
      <use xlink:href="#DejaVuSans-64" x="476.416016"/>
      <use xlink:href="#DejaVuSans-72" x="539.892578"/>
      <use xlink:href="#DejaVuSans-61" x="581.005859"/>
      <use xlink:href="#DejaVuSans-6d" x="642.285156"/>
      <use xlink:href="#DejaVuSans-61" x="739.697266"/>
     </g>
    </g>
   </g>
   <g id="text_4">
    <g id="patch_5">
     <path d="M 85.471875 296.315168 
L 130.528125 296.315168 
L 130.528125 279.684856 
L 85.471875 279.684856 
z
" clip-path="url(#p140caca214)" style="fill: #ffffff; opacity: 0.7; stroke: #000000; stroke-linejoin: miter"/>
    </g>
    <g clip-path="url(#p140caca214)">
     <!-- Comedy -->
     <g transform="translate(89.431875 290.483449)scale(0.09 -0.09)">
      <use xlink:href="#DejaVuSans-43"/>
      <use xlink:href="#DejaVuSans-6f" x="69.824219"/>
      <use xlink:href="#DejaVuSans-6d" x="131.005859"/>
      <use xlink:href="#DejaVuSans-65" x="228.417969"/>
      <use xlink:href="#DejaVuSans-64" x="289.941406"/>
      <use xlink:href="#DejaVuSans-79" x="353.417969"/>
     </g>
    </g>
   </g>
   <g id="text_5">
    <g id="patch_6">
     <path d="M 159.094 476.315156 
L 236.906032 476.315156 
L 236.906032 459.684844 
L 159.094 459.684844 
z
" clip-path="url(#p140caca214)" style="fill: #ffffff; opacity: 0.7; stroke: #000000; stroke-linejoin: miter"/>
    </g>
    <g clip-path="url(#p140caca214)">
     <!-- Film adaptation -->
     <g transform="translate(163.054 470.483437)scale(0.09 -0.09)">
      <defs>
       <path id="DejaVuSans-70" d="M 1159 525 
L 1159 -1331 
L 581 -1331 
L 581 3500 
L 1159 3500 
L 1159 2969 
Q 1341 3281 1617 3432 
Q 1894 3584 2278 3584 
Q 2916 3584 3314 3078 
Q 3713 2572 3713 1747 
Q 3713 922 3314 415 
Q 2916 -91 2278 -91 
Q 1894 -91 1617 61 
Q 1341 213 1159 525 
z
M 3116 1747 
Q 3116 2381 2855 2742 
Q 2594 3103 2138 3103 
Q 1681 3103 1420 2742 
Q 1159 2381 1159 1747 
Q 1159 1113 1420 752 
Q 1681 391 2138 391 
Q 2594 391 2855 752 
Q 3116 1113 3116 1747 
z
" transform="scale(0.015625)"/>
      </defs>
      <use xlink:href="#DejaVuSans-46"/>
      <use xlink:href="#DejaVuSans-69" x="50.269531"/>
      <use xlink:href="#DejaVuSans-6c" x="78.052734"/>
      <use xlink:href="#DejaVuSans-6d" x="105.835938"/>
      <use xlink:href="#DejaVuSans-20" x="203.248047"/>
      <use xlink:href="#DejaVuSans-61" x="235.035156"/>
      <use xlink:href="#DejaVuSans-64" x="296.314453"/>
      <use xlink:href="#DejaVuSans-61" x="359.791016"/>
      <use xlink:href="#DejaVuSans-70" x="421.070312"/>
      <use xlink:href="#DejaVuSans-74" x="484.546875"/>
      <use xlink:href="#DejaVuSans-61" x="523.755859"/>
      <use xlink:href="#DejaVuSans-74" x="585.035156"/>
      <use xlink:href="#DejaVuSans-69" x="624.244141"/>
      <use xlink:href="#DejaVuSans-6f" x="652.027344"/>
      <use xlink:href="#DejaVuSans-6e" x="713.208984"/>
     </g>
    </g>
   </g>
   <g id="text_6">
    <g id="patch_7">
     <path d="M 346.461312 476.315156 
L 409.538656 476.315156 
L 409.538656 459.684844 
L 346.461312 459.684844 
z
" clip-path="url(#p140caca214)" style="fill: #ffffff; opacity: 0.7; stroke: #000000; stroke-linejoin: miter"/>
    </g>
    <g clip-path="url(#p140caca214)">
     <!-- Period piece -->
     <g transform="translate(350.421312 470.483437)scale(0.09 -0.09)">
      <defs>
       <path id="DejaVuSans-50" d="M 1259 4147 
L 1259 2394 
L 2053 2394 
Q 2494 2394 2734 2622 
Q 2975 2850 2975 3272 
Q 2975 3691 2734 3919 
Q 2494 4147 2053 4147 
L 1259 4147 
z
M 628 4666 
L 2053 4666 
Q 2838 4666 3239 4311 
Q 3641 3956 3641 3272 
Q 3641 2581 3239 2228 
Q 2838 1875 2053 1875 
L 1259 1875 
L 1259 0 
L 628 0 
L 628 4666 
z
" transform="scale(0.015625)"/>
      </defs>
      <use xlink:href="#DejaVuSans-50"/>
      <use xlink:href="#DejaVuSans-65" x="56.677734"/>
      <use xlink:href="#DejaVuSans-72" x="118.201172"/>
      <use xlink:href="#DejaVuSans-69" x="159.314453"/>
      <use xlink:href="#DejaVuSans-6f" x="187.097656"/>
      <use xlink:href="#DejaVuSans-64" x="248.279297"/>
      <use xlink:href="#DejaVuSans-20" x="311.755859"/>
      <use xlink:href="#DejaVuSans-70" x="343.542969"/>
      <use xlink:href="#DejaVuSans-69" x="407.019531"/>
      <use xlink:href="#DejaVuSans-65" x="434.802734"/>
      <use xlink:href="#DejaVuSans-63" x="496.326172"/>
      <use xlink:href="#DejaVuSans-65" x="551.306641"/>
     </g>
    </g>
   </g>
   <g id="text_7">
    <!-- Impactful genre combination for Romance Film genre  -->
    <g transform="translate(126.073125 4.8)scale(0.12 -0.12)">
     <defs>
      <path id="DejaVuSans-49" d="M 628 4666 
L 1259 4666 
L 1259 0 
L 628 0 
L 628 4666 
z
" transform="scale(0.015625)"/>
      <path id="DejaVuSans-66" d="M 2375 4863 
L 2375 4384 
L 1825 4384 
Q 1516 4384 1395 4259 
Q 1275 4134 1275 3809 
L 1275 3500 
L 2222 3500 
L 2222 3053 
L 1275 3053 
L 1275 0 
L 697 0 
L 697 3053 
L 147 3053 
L 147 3500 
L 697 3500 
L 697 3744 
Q 697 4328 969 4595 
Q 1241 4863 1831 4863 
L 2375 4863 
z
" transform="scale(0.015625)"/>
      <path id="DejaVuSans-67" d="M 2906 1791 
Q 2906 2416 2648 2759 
Q 2391 3103 1925 3103 
Q 1463 3103 1205 2759 
Q 947 2416 947 1791 
Q 947 1169 1205 825 
Q 1463 481 1925 481 
Q 2391 481 2648 825 
Q 2906 1169 2906 1791 
z
M 3481 434 
Q 3481 -459 3084 -895 
Q 2688 -1331 1869 -1331 
Q 1566 -1331 1297 -1286 
Q 1028 -1241 775 -1147 
L 775 -588 
Q 1028 -725 1275 -790 
Q 1522 -856 1778 -856 
Q 2344 -856 2625 -561 
Q 2906 -266 2906 331 
L 2906 616 
Q 2728 306 2450 153 
Q 2172 0 1784 0 
Q 1141 0 747 490 
Q 353 981 353 1791 
Q 353 2603 747 3093 
Q 1141 3584 1784 3584 
Q 2172 3584 2450 3431 
Q 2728 3278 2906 2969 
L 2906 3500 
L 3481 3500 
L 3481 434 
z
" transform="scale(0.015625)"/>
      <path id="DejaVuSans-62" d="M 3116 1747 
Q 3116 2381 2855 2742 
Q 2594 3103 2138 3103 
Q 1681 3103 1420 2742 
Q 1159 2381 1159 1747 
Q 1159 1113 1420 752 
Q 1681 391 2138 391 
Q 2594 391 2855 752 
Q 3116 1113 3116 1747 
z
M 1159 2969 
Q 1341 3281 1617 3432 
Q 1894 3584 2278 3584 
Q 2916 3584 3314 3078 
Q 3713 2572 3713 1747 
Q 3713 922 3314 415 
Q 2916 -91 2278 -91 
Q 1894 -91 1617 61 
Q 1341 213 1159 525 
L 1159 0 
L 581 0 
L 581 4863 
L 1159 4863 
L 1159 2969 
z
" transform="scale(0.015625)"/>
     </defs>
     <use xlink:href="#DejaVuSans-49"/>
     <use xlink:href="#DejaVuSans-6d" x="29.492188"/>
     <use xlink:href="#DejaVuSans-70" x="126.904297"/>
     <use xlink:href="#DejaVuSans-61" x="190.380859"/>
     <use xlink:href="#DejaVuSans-63" x="251.660156"/>
     <use xlink:href="#DejaVuSans-74" x="306.640625"/>
     <use xlink:href="#DejaVuSans-66" x="345.849609"/>
     <use xlink:href="#DejaVuSans-75" x="381.054688"/>
     <use xlink:href="#DejaVuSans-6c" x="444.433594"/>
     <use xlink:href="#DejaVuSans-20" x="472.216797"/>
     <use xlink:href="#DejaVuSans-67" x="504.003906"/>
     <use xlink:href="#DejaVuSans-65" x="567.480469"/>
     <use xlink:href="#DejaVuSans-6e" x="629.003906"/>
     <use xlink:href="#DejaVuSans-72" x="692.382812"/>
     <use xlink:href="#DejaVuSans-65" x="731.246094"/>
     <use xlink:href="#DejaVuSans-20" x="792.769531"/>
     <use xlink:href="#DejaVuSans-63" x="824.556641"/>
     <use xlink:href="#DejaVuSans-6f" x="879.537109"/>
     <use xlink:href="#DejaVuSans-6d" x="940.71875"/>
     <use xlink:href="#DejaVuSans-62" x="1038.130859"/>
     <use xlink:href="#DejaVuSans-69" x="1101.607422"/>
     <use xlink:href="#DejaVuSans-6e" x="1129.390625"/>
     <use xlink:href="#DejaVuSans-61" x="1192.769531"/>
     <use xlink:href="#DejaVuSans-74" x="1254.048828"/>
     <use xlink:href="#DejaVuSans-69" x="1293.257812"/>
     <use xlink:href="#DejaVuSans-6f" x="1321.041016"/>
     <use xlink:href="#DejaVuSans-6e" x="1382.222656"/>
     <use xlink:href="#DejaVuSans-20" x="1445.601562"/>
     <use xlink:href="#DejaVuSans-66" x="1477.388672"/>
     <use xlink:href="#DejaVuSans-6f" x="1512.59375"/>
     <use xlink:href="#DejaVuSans-72" x="1573.775391"/>
     <use xlink:href="#DejaVuSans-20" x="1614.888672"/>
     <use xlink:href="#DejaVuSans-52" x="1646.675781"/>
     <use xlink:href="#DejaVuSans-6f" x="1711.658203"/>
     <use xlink:href="#DejaVuSans-6d" x="1772.839844"/>
     <use xlink:href="#DejaVuSans-61" x="1870.251953"/>
     <use xlink:href="#DejaVuSans-6e" x="1931.53125"/>
     <use xlink:href="#DejaVuSans-63" x="1994.910156"/>
     <use xlink:href="#DejaVuSans-65" x="2049.890625"/>
     <use xlink:href="#DejaVuSans-20" x="2111.414062"/>
     <use xlink:href="#DejaVuSans-46" x="2143.201172"/>
     <use xlink:href="#DejaVuSans-69" x="2193.470703"/>
     <use xlink:href="#DejaVuSans-6c" x="2221.253906"/>
     <use xlink:href="#DejaVuSans-6d" x="2249.037109"/>
     <use xlink:href="#DejaVuSans-20" x="2346.449219"/>
     <use xlink:href="#DejaVuSans-67" x="2378.236328"/>
     <use xlink:href="#DejaVuSans-65" x="2441.712891"/>
     <use xlink:href="#DejaVuSans-6e" x="2503.236328"/>
     <use xlink:href="#DejaVuSans-72" x="2566.615234"/>
     <use xlink:href="#DejaVuSans-65" x="2605.478516"/>
     <use xlink:href="#DejaVuSans-20" x="2667.001953"/>
    </g>
   </g>
  </g>
 </g>
 <defs>
  <clipPath id="p140caca214">
   <rect x="10.8" y="10.8" width="554.4" height="554.4"/>
  </clipPath>
 </defs>
</svg>
