<?xml version="1.0" encoding="utf-8" standalone="no"?>
<!DOCTYPE svg PUBLIC "-//W3C//DTD SVG 1.1//EN"
  "http://www.w3.org/Graphics/SVG/1.1/DTD/svg11.dtd">
<svg xmlns:xlink="http://www.w3.org/1999/xlink" width="692.846562pt" height="400.781463pt" viewBox="0 0 692.846562 400.781463" xmlns="http://www.w3.org/2000/svg" version="1.1">
 <metadata>
  <rdf:RDF xmlns:dc="http://purl.org/dc/elements/1.1/" xmlns:cc="http://creativecommons.org/ns#" xmlns:rdf="http://www.w3.org/1999/02/22-rdf-syntax-ns#">
   <cc:Work>
    <dc:type rdf:resource="http://purl.org/dc/dcmitype/StillImage"/>
    <dc:date>2022-12-23T19:50:41.304648</dc:date>
    <dc:format>image/svg+xml</dc:format>
    <dc:creator>
     <cc:Agent>
      <dc:title>Matplotlib v3.5.3, https://matplotlib.org/</dc:title>
     </cc:Agent>
    </dc:creator>
   </cc:Work>
  </rdf:RDF>
 </metadata>
 <defs>
  <style type="text/css">*{stroke-linejoin: round; stroke-linecap: butt}</style>
 </defs>
 <g id="figure_1">
  <g id="patch_1">
   <path d="M 0 400.781463 
L 692.846562 400.781463 
L 692.846562 -0 
L 0 -0 
z
" style="fill: #ffffff"/>
  </g>
  <g id="axes_1">
   <g id="patch_2">
    <path d="M 67.423281 325.037812 
L 625.423281 325.037812 
L 625.423281 47.837812 
L 67.423281 47.837812 
z
" style="fill: #ffffff"/>
   </g>
   <g id="patch_3">
    <path d="M 72.073281 325.037812 
L 109.273281 325.037812 
L 109.273281 318.925473 
L 72.073281 318.925473 
z
" clip-path="url(#p27b316886b)" style="fill: #ae1944"/>
   </g>
   <g id="patch_4">
    <path d="M 118.573281 325.037812 
L 155.773281 325.037812 
L 155.773281 313.775319 
L 118.573281 313.775319 
z
" clip-path="url(#p27b316886b)" style="fill: #ae1944"/>
   </g>
   <g id="patch_5">
    <path d="M 165.073281 325.037812 
L 202.273281 325.037812 
L 202.273281 275.620999 
L 165.073281 275.620999 
z
" clip-path="url(#p27b316886b)" style="fill: #ae1944"/>
   </g>
   <g id="patch_6">
    <path d="M 211.573281 325.037812 
L 248.773281 325.037812 
L 248.773281 308.208101 
L 211.573281 308.208101 
z
" clip-path="url(#p27b316886b)" style="fill: #ae1944"/>
   </g>
   <g id="patch_7">
    <path d="M 258.073281 325.037812 
L 295.273281 325.037812 
L 295.273281 307.785609 
L 258.073281 307.785609 
z
" clip-path="url(#p27b316886b)" style="fill: #ae1944"/>
   </g>
   <g id="patch_8">
    <path d="M 304.573281 325.037812 
L 341.773281 325.037812 
L 341.773281 309.718877 
L 304.573281 309.718877 
z
" clip-path="url(#p27b316886b)" style="fill: #ae1944"/>
   </g>
   <g id="patch_9">
    <path d="M 351.073281 325.037812 
L 388.273281 325.037812 
L 388.273281 313.779247 
L 351.073281 313.779247 
z
" clip-path="url(#p27b316886b)" style="fill: #ae1944"/>
   </g>
   <g id="patch_10">
    <path d="M 397.573281 325.037812 
L 434.773281 325.037812 
L 434.773281 318.406616 
L 397.573281 318.406616 
z
" clip-path="url(#p27b316886b)" style="fill: #ae1944"/>
   </g>
   <g id="patch_11">
    <path d="M 444.073281 325.037812 
L 481.273281 325.037812 
L 481.273281 315.554936 
L 444.073281 315.554936 
z
" clip-path="url(#p27b316886b)" style="fill: #ae1944"/>
   </g>
   <g id="patch_12">
    <path d="M 490.573281 325.037812 
L 527.773281 325.037812 
L 527.773281 306.0464 
L 490.573281 306.0464 
z
" clip-path="url(#p27b316886b)" style="fill: #ae1944"/>
   </g>
   <g id="patch_13">
    <path d="M 537.073281 325.037812 
L 574.273281 325.037812 
L 574.273281 264.840056 
L 537.073281 264.840056 
z
" clip-path="url(#p27b316886b)" style="fill: #ae1944"/>
   </g>
   <g id="patch_14">
    <path d="M 583.573281 325.037812 
L 620.773281 325.037812 
L 620.773281 215.51805 
L 583.573281 215.51805 
z
" clip-path="url(#p27b316886b)" style="fill: #ae1944"/>
   </g>
   <g id="matplotlib.axis_1">
    <g id="xtick_1">
     <g id="line2d_1">
      <defs>
       <path id="m80d1607ec0" d="M 0 0 
L 0 3.5 
" style="stroke: #000000; stroke-width: 0.8"/>
      </defs>
      <g>
       <use xlink:href="#m80d1607ec0" x="90.673281" y="325.037812" style="stroke: #000000; stroke-width: 0.8"/>
      </g>
     </g>
     <g id="text_1">
      <!-- January -->
      <g transform="translate(79.220914 364.2178)rotate(-45)scale(0.1 -0.1)">
       <defs>
        <path id="DejaVuSans-4a" d="M 628 4666 
L 1259 4666 
L 1259 325 
Q 1259 -519 939 -900 
Q 619 -1281 -91 -1281 
L -331 -1281 
L -331 -750 
L -134 -750 
Q 284 -750 456 -515 
Q 628 -281 628 325 
L 628 4666 
z
" transform="scale(0.015625)"/>
        <path id="DejaVuSans-61" d="M 2194 1759 
Q 1497 1759 1228 1600 
Q 959 1441 959 1056 
Q 959 750 1161 570 
Q 1363 391 1709 391 
Q 2188 391 2477 730 
Q 2766 1069 2766 1631 
L 2766 1759 
L 2194 1759 
z
M 3341 1997 
L 3341 0 
L 2766 0 
L 2766 531 
Q 2569 213 2275 61 
Q 1981 -91 1556 -91 
Q 1019 -91 701 211 
Q 384 513 384 1019 
Q 384 1609 779 1909 
Q 1175 2209 1959 2209 
L 2766 2209 
L 2766 2266 
Q 2766 2663 2505 2880 
Q 2244 3097 1772 3097 
Q 1472 3097 1187 3025 
Q 903 2953 641 2809 
L 641 3341 
Q 956 3463 1253 3523 
Q 1550 3584 1831 3584 
Q 2591 3584 2966 3190 
Q 3341 2797 3341 1997 
z
" transform="scale(0.015625)"/>
        <path id="DejaVuSans-6e" d="M 3513 2113 
L 3513 0 
L 2938 0 
L 2938 2094 
Q 2938 2591 2744 2837 
Q 2550 3084 2163 3084 
Q 1697 3084 1428 2787 
Q 1159 2491 1159 1978 
L 1159 0 
L 581 0 
L 581 3500 
L 1159 3500 
L 1159 2956 
Q 1366 3272 1645 3428 
Q 1925 3584 2291 3584 
Q 2894 3584 3203 3211 
Q 3513 2838 3513 2113 
z
" transform="scale(0.015625)"/>
        <path id="DejaVuSans-75" d="M 544 1381 
L 544 3500 
L 1119 3500 
L 1119 1403 
Q 1119 906 1312 657 
Q 1506 409 1894 409 
Q 2359 409 2629 706 
Q 2900 1003 2900 1516 
L 2900 3500 
L 3475 3500 
L 3475 0 
L 2900 0 
L 2900 538 
Q 2691 219 2414 64 
Q 2138 -91 1772 -91 
Q 1169 -91 856 284 
Q 544 659 544 1381 
z
M 1991 3584 
L 1991 3584 
z
" transform="scale(0.015625)"/>
        <path id="DejaVuSans-72" d="M 2631 2963 
Q 2534 3019 2420 3045 
Q 2306 3072 2169 3072 
Q 1681 3072 1420 2755 
Q 1159 2438 1159 1844 
L 1159 0 
L 581 0 
L 581 3500 
L 1159 3500 
L 1159 2956 
Q 1341 3275 1631 3429 
Q 1922 3584 2338 3584 
Q 2397 3584 2469 3576 
Q 2541 3569 2628 3553 
L 2631 2963 
z
" transform="scale(0.015625)"/>
        <path id="DejaVuSans-79" d="M 2059 -325 
Q 1816 -950 1584 -1140 
Q 1353 -1331 966 -1331 
L 506 -1331 
L 506 -850 
L 844 -850 
Q 1081 -850 1212 -737 
Q 1344 -625 1503 -206 
L 1606 56 
L 191 3500 
L 800 3500 
L 1894 763 
L 2988 3500 
L 3597 3500 
L 2059 -325 
z
" transform="scale(0.015625)"/>
       </defs>
       <use xlink:href="#DejaVuSans-4a"/>
       <use xlink:href="#DejaVuSans-61" x="29.492188"/>
       <use xlink:href="#DejaVuSans-6e" x="90.771484"/>
       <use xlink:href="#DejaVuSans-75" x="154.150391"/>
       <use xlink:href="#DejaVuSans-61" x="217.529297"/>
       <use xlink:href="#DejaVuSans-72" x="278.808594"/>
       <use xlink:href="#DejaVuSans-79" x="319.921875"/>
      </g>
     </g>
    </g>
    <g id="xtick_2">
     <g id="line2d_2">
      <g>
       <use xlink:href="#m80d1607ec0" x="137.173281" y="325.037812" style="stroke: #000000; stroke-width: 0.8"/>
      </g>
     </g>
     <g id="text_2">
      <!-- February -->
      <g transform="translate(123.458724 368.742179)rotate(-45)scale(0.1 -0.1)">
       <defs>
        <path id="DejaVuSans-46" d="M 628 4666 
L 3309 4666 
L 3309 4134 
L 1259 4134 
L 1259 2759 
L 3109 2759 
L 3109 2228 
L 1259 2228 
L 1259 0 
L 628 0 
L 628 4666 
z
" transform="scale(0.015625)"/>
        <path id="DejaVuSans-65" d="M 3597 1894 
L 3597 1613 
L 953 1613 
Q 991 1019 1311 708 
Q 1631 397 2203 397 
Q 2534 397 2845 478 
Q 3156 559 3463 722 
L 3463 178 
Q 3153 47 2828 -22 
Q 2503 -91 2169 -91 
Q 1331 -91 842 396 
Q 353 884 353 1716 
Q 353 2575 817 3079 
Q 1281 3584 2069 3584 
Q 2775 3584 3186 3129 
Q 3597 2675 3597 1894 
z
M 3022 2063 
Q 3016 2534 2758 2815 
Q 2500 3097 2075 3097 
Q 1594 3097 1305 2825 
Q 1016 2553 972 2059 
L 3022 2063 
z
" transform="scale(0.015625)"/>
        <path id="DejaVuSans-62" d="M 3116 1747 
Q 3116 2381 2855 2742 
Q 2594 3103 2138 3103 
Q 1681 3103 1420 2742 
Q 1159 2381 1159 1747 
Q 1159 1113 1420 752 
Q 1681 391 2138 391 
Q 2594 391 2855 752 
Q 3116 1113 3116 1747 
z
M 1159 2969 
Q 1341 3281 1617 3432 
Q 1894 3584 2278 3584 
Q 2916 3584 3314 3078 
Q 3713 2572 3713 1747 
Q 3713 922 3314 415 
Q 2916 -91 2278 -91 
Q 1894 -91 1617 61 
Q 1341 213 1159 525 
L 1159 0 
L 581 0 
L 581 4863 
L 1159 4863 
L 1159 2969 
z
" transform="scale(0.015625)"/>
       </defs>
       <use xlink:href="#DejaVuSans-46"/>
       <use xlink:href="#DejaVuSans-65" x="52.019531"/>
       <use xlink:href="#DejaVuSans-62" x="113.542969"/>
       <use xlink:href="#DejaVuSans-72" x="177.019531"/>
       <use xlink:href="#DejaVuSans-75" x="218.132812"/>
       <use xlink:href="#DejaVuSans-61" x="281.511719"/>
       <use xlink:href="#DejaVuSans-72" x="342.791016"/>
       <use xlink:href="#DejaVuSans-79" x="383.904297"/>
      </g>
     </g>
    </g>
    <g id="xtick_3">
     <g id="line2d_3">
      <g>
       <use xlink:href="#m80d1607ec0" x="183.673281" y="325.037812" style="stroke: #000000; stroke-width: 0.8"/>
      </g>
     </g>
     <g id="text_3">
      <!-- March -->
      <g transform="translate(174.84881 358.962008)rotate(-45)scale(0.1 -0.1)">
       <defs>
        <path id="DejaVuSans-4d" d="M 628 4666 
L 1569 4666 
L 2759 1491 
L 3956 4666 
L 4897 4666 
L 4897 0 
L 4281 0 
L 4281 4097 
L 3078 897 
L 2444 897 
L 1241 4097 
L 1241 0 
L 628 0 
L 628 4666 
z
" transform="scale(0.015625)"/>
        <path id="DejaVuSans-63" d="M 3122 3366 
L 3122 2828 
Q 2878 2963 2633 3030 
Q 2388 3097 2138 3097 
Q 1578 3097 1268 2742 
Q 959 2388 959 1747 
Q 959 1106 1268 751 
Q 1578 397 2138 397 
Q 2388 397 2633 464 
Q 2878 531 3122 666 
L 3122 134 
Q 2881 22 2623 -34 
Q 2366 -91 2075 -91 
Q 1284 -91 818 406 
Q 353 903 353 1747 
Q 353 2603 823 3093 
Q 1294 3584 2113 3584 
Q 2378 3584 2631 3529 
Q 2884 3475 3122 3366 
z
" transform="scale(0.015625)"/>
        <path id="DejaVuSans-68" d="M 3513 2113 
L 3513 0 
L 2938 0 
L 2938 2094 
Q 2938 2591 2744 2837 
Q 2550 3084 2163 3084 
Q 1697 3084 1428 2787 
Q 1159 2491 1159 1978 
L 1159 0 
L 581 0 
L 581 4863 
L 1159 4863 
L 1159 2956 
Q 1366 3272 1645 3428 
Q 1925 3584 2291 3584 
Q 2894 3584 3203 3211 
Q 3513 2838 3513 2113 
z
" transform="scale(0.015625)"/>
       </defs>
       <use xlink:href="#DejaVuSans-4d"/>
       <use xlink:href="#DejaVuSans-61" x="86.279297"/>
       <use xlink:href="#DejaVuSans-72" x="147.558594"/>
       <use xlink:href="#DejaVuSans-63" x="186.421875"/>
       <use xlink:href="#DejaVuSans-68" x="241.402344"/>
      </g>
     </g>
    </g>
    <g id="xtick_4">
     <g id="line2d_4">
      <g>
       <use xlink:href="#m80d1607ec0" x="230.173281" y="325.037812" style="stroke: #000000; stroke-width: 0.8"/>
      </g>
     </g>
     <g id="text_4">
      <!-- April -->
      <g transform="translate(224.043549 353.572529)rotate(-45)scale(0.1 -0.1)">
       <defs>
        <path id="DejaVuSans-41" d="M 2188 4044 
L 1331 1722 
L 3047 1722 
L 2188 4044 
z
M 1831 4666 
L 2547 4666 
L 4325 0 
L 3669 0 
L 3244 1197 
L 1141 1197 
L 716 0 
L 50 0 
L 1831 4666 
z
" transform="scale(0.015625)"/>
        <path id="DejaVuSans-70" d="M 1159 525 
L 1159 -1331 
L 581 -1331 
L 581 3500 
L 1159 3500 
L 1159 2969 
Q 1341 3281 1617 3432 
Q 1894 3584 2278 3584 
Q 2916 3584 3314 3078 
Q 3713 2572 3713 1747 
Q 3713 922 3314 415 
Q 2916 -91 2278 -91 
Q 1894 -91 1617 61 
Q 1341 213 1159 525 
z
M 3116 1747 
Q 3116 2381 2855 2742 
Q 2594 3103 2138 3103 
Q 1681 3103 1420 2742 
Q 1159 2381 1159 1747 
Q 1159 1113 1420 752 
Q 1681 391 2138 391 
Q 2594 391 2855 752 
Q 3116 1113 3116 1747 
z
" transform="scale(0.015625)"/>
        <path id="DejaVuSans-69" d="M 603 3500 
L 1178 3500 
L 1178 0 
L 603 0 
L 603 3500 
z
M 603 4863 
L 1178 4863 
L 1178 4134 
L 603 4134 
L 603 4863 
z
" transform="scale(0.015625)"/>
        <path id="DejaVuSans-6c" d="M 603 4863 
L 1178 4863 
L 1178 0 
L 603 0 
L 603 4863 
z
" transform="scale(0.015625)"/>
       </defs>
       <use xlink:href="#DejaVuSans-41"/>
       <use xlink:href="#DejaVuSans-70" x="68.408203"/>
       <use xlink:href="#DejaVuSans-72" x="131.884766"/>
       <use xlink:href="#DejaVuSans-69" x="172.998047"/>
       <use xlink:href="#DejaVuSans-6c" x="200.78125"/>
      </g>
     </g>
    </g>
    <g id="xtick_5">
     <g id="line2d_5">
      <g>
       <use xlink:href="#m80d1607ec0" x="276.673281" y="325.037812" style="stroke: #000000; stroke-width: 0.8"/>
      </g>
     </g>
     <g id="text_5">
      <!-- May -->
      <g transform="translate(271.314738 352.030152)rotate(-45)scale(0.1 -0.1)">
       <use xlink:href="#DejaVuSans-4d"/>
       <use xlink:href="#DejaVuSans-61" x="86.279297"/>
       <use xlink:href="#DejaVuSans-79" x="147.558594"/>
      </g>
     </g>
    </g>
    <g id="xtick_6">
     <g id="line2d_6">
      <g>
       <use xlink:href="#m80d1607ec0" x="323.173281" y="325.037812" style="stroke: #000000; stroke-width: 0.8"/>
      </g>
     </g>
     <g id="text_6">
      <!-- June -->
      <g transform="translate(317.424724 352.810179)rotate(-45)scale(0.1 -0.1)">
       <use xlink:href="#DejaVuSans-4a"/>
       <use xlink:href="#DejaVuSans-75" x="29.492188"/>
       <use xlink:href="#DejaVuSans-6e" x="92.871094"/>
       <use xlink:href="#DejaVuSans-65" x="156.25"/>
      </g>
     </g>
    </g>
    <g id="xtick_7">
     <g id="line2d_7">
      <g>
       <use xlink:href="#m80d1607ec0" x="369.673281" y="325.037812" style="stroke: #000000; stroke-width: 0.8"/>
      </g>
     </g>
     <g id="text_7">
      <!-- July -->
      <g transform="translate(365.266017 350.127593)rotate(-45)scale(0.1 -0.1)">
       <use xlink:href="#DejaVuSans-4a"/>
       <use xlink:href="#DejaVuSans-75" x="29.492188"/>
       <use xlink:href="#DejaVuSans-6c" x="92.871094"/>
       <use xlink:href="#DejaVuSans-79" x="120.654297"/>
      </g>
     </g>
    </g>
    <g id="xtick_8">
     <g id="line2d_8">
      <g>
       <use xlink:href="#m80d1607ec0" x="416.173281" y="325.037812" style="stroke: #000000; stroke-width: 0.8"/>
      </g>
     </g>
     <g id="text_8">
      <!-- August -->
      <g transform="translate(405.752295 362.155037)rotate(-45)scale(0.1 -0.1)">
       <defs>
        <path id="DejaVuSans-67" d="M 2906 1791 
Q 2906 2416 2648 2759 
Q 2391 3103 1925 3103 
Q 1463 3103 1205 2759 
Q 947 2416 947 1791 
Q 947 1169 1205 825 
Q 1463 481 1925 481 
Q 2391 481 2648 825 
Q 2906 1169 2906 1791 
z
M 3481 434 
Q 3481 -459 3084 -895 
Q 2688 -1331 1869 -1331 
Q 1566 -1331 1297 -1286 
Q 1028 -1241 775 -1147 
L 775 -588 
Q 1028 -725 1275 -790 
Q 1522 -856 1778 -856 
Q 2344 -856 2625 -561 
Q 2906 -266 2906 331 
L 2906 616 
Q 2728 306 2450 153 
Q 2172 0 1784 0 
Q 1141 0 747 490 
Q 353 981 353 1791 
Q 353 2603 747 3093 
Q 1141 3584 1784 3584 
Q 2172 3584 2450 3431 
Q 2728 3278 2906 2969 
L 2906 3500 
L 3481 3500 
L 3481 434 
z
" transform="scale(0.015625)"/>
        <path id="DejaVuSans-73" d="M 2834 3397 
L 2834 2853 
Q 2591 2978 2328 3040 
Q 2066 3103 1784 3103 
Q 1356 3103 1142 2972 
Q 928 2841 928 2578 
Q 928 2378 1081 2264 
Q 1234 2150 1697 2047 
L 1894 2003 
Q 2506 1872 2764 1633 
Q 3022 1394 3022 966 
Q 3022 478 2636 193 
Q 2250 -91 1575 -91 
Q 1294 -91 989 -36 
Q 684 19 347 128 
L 347 722 
Q 666 556 975 473 
Q 1284 391 1588 391 
Q 1994 391 2212 530 
Q 2431 669 2431 922 
Q 2431 1156 2273 1281 
Q 2116 1406 1581 1522 
L 1381 1569 
Q 847 1681 609 1914 
Q 372 2147 372 2553 
Q 372 3047 722 3315 
Q 1072 3584 1716 3584 
Q 2034 3584 2315 3537 
Q 2597 3491 2834 3397 
z
" transform="scale(0.015625)"/>
        <path id="DejaVuSans-74" d="M 1172 4494 
L 1172 3500 
L 2356 3500 
L 2356 3053 
L 1172 3053 
L 1172 1153 
Q 1172 725 1289 603 
Q 1406 481 1766 481 
L 2356 481 
L 2356 0 
L 1766 0 
Q 1100 0 847 248 
Q 594 497 594 1153 
L 594 3053 
L 172 3053 
L 172 3500 
L 594 3500 
L 594 4494 
L 1172 4494 
z
" transform="scale(0.015625)"/>
       </defs>
       <use xlink:href="#DejaVuSans-41"/>
       <use xlink:href="#DejaVuSans-75" x="68.408203"/>
       <use xlink:href="#DejaVuSans-67" x="131.787109"/>
       <use xlink:href="#DejaVuSans-75" x="195.263672"/>
       <use xlink:href="#DejaVuSans-73" x="258.642578"/>
       <use xlink:href="#DejaVuSans-74" x="310.742188"/>
      </g>
     </g>
    </g>
    <g id="xtick_9">
     <g id="line2d_9">
      <g>
       <use xlink:href="#m80d1607ec0" x="462.673281" y="325.037812" style="stroke: #000000; stroke-width: 0.8"/>
      </g>
     </g>
     <g id="text_9">
      <!-- September -->
      <g transform="translate(445.081238 376.497151)rotate(-45)scale(0.1 -0.1)">
       <defs>
        <path id="DejaVuSans-53" d="M 3425 4513 
L 3425 3897 
Q 3066 4069 2747 4153 
Q 2428 4238 2131 4238 
Q 1616 4238 1336 4038 
Q 1056 3838 1056 3469 
Q 1056 3159 1242 3001 
Q 1428 2844 1947 2747 
L 2328 2669 
Q 3034 2534 3370 2195 
Q 3706 1856 3706 1288 
Q 3706 609 3251 259 
Q 2797 -91 1919 -91 
Q 1588 -91 1214 -16 
Q 841 59 441 206 
L 441 856 
Q 825 641 1194 531 
Q 1563 422 1919 422 
Q 2459 422 2753 634 
Q 3047 847 3047 1241 
Q 3047 1584 2836 1778 
Q 2625 1972 2144 2069 
L 1759 2144 
Q 1053 2284 737 2584 
Q 422 2884 422 3419 
Q 422 4038 858 4394 
Q 1294 4750 2059 4750 
Q 2388 4750 2728 4690 
Q 3069 4631 3425 4513 
z
" transform="scale(0.015625)"/>
        <path id="DejaVuSans-6d" d="M 3328 2828 
Q 3544 3216 3844 3400 
Q 4144 3584 4550 3584 
Q 5097 3584 5394 3201 
Q 5691 2819 5691 2113 
L 5691 0 
L 5113 0 
L 5113 2094 
Q 5113 2597 4934 2840 
Q 4756 3084 4391 3084 
Q 3944 3084 3684 2787 
Q 3425 2491 3425 1978 
L 3425 0 
L 2847 0 
L 2847 2094 
Q 2847 2600 2669 2842 
Q 2491 3084 2119 3084 
Q 1678 3084 1418 2786 
Q 1159 2488 1159 1978 
L 1159 0 
L 581 0 
L 581 3500 
L 1159 3500 
L 1159 2956 
Q 1356 3278 1631 3431 
Q 1906 3584 2284 3584 
Q 2666 3584 2933 3390 
Q 3200 3197 3328 2828 
z
" transform="scale(0.015625)"/>
       </defs>
       <use xlink:href="#DejaVuSans-53"/>
       <use xlink:href="#DejaVuSans-65" x="63.476562"/>
       <use xlink:href="#DejaVuSans-70" x="125"/>
       <use xlink:href="#DejaVuSans-74" x="188.476562"/>
       <use xlink:href="#DejaVuSans-65" x="227.685547"/>
       <use xlink:href="#DejaVuSans-6d" x="289.208984"/>
       <use xlink:href="#DejaVuSans-62" x="386.621094"/>
       <use xlink:href="#DejaVuSans-65" x="450.097656"/>
       <use xlink:href="#DejaVuSans-72" x="511.621094"/>
      </g>
     </g>
    </g>
    <g id="xtick_10">
     <g id="line2d_10">
      <g>
       <use xlink:href="#m80d1607ec0" x="509.173281" y="325.037812" style="stroke: #000000; stroke-width: 0.8"/>
      </g>
     </g>
     <g id="text_10">
      <!-- October -->
      <g transform="translate(496.974584 365.710458)rotate(-45)scale(0.1 -0.1)">
       <defs>
        <path id="DejaVuSans-4f" d="M 2522 4238 
Q 1834 4238 1429 3725 
Q 1025 3213 1025 2328 
Q 1025 1447 1429 934 
Q 1834 422 2522 422 
Q 3209 422 3611 934 
Q 4013 1447 4013 2328 
Q 4013 3213 3611 3725 
Q 3209 4238 2522 4238 
z
M 2522 4750 
Q 3503 4750 4090 4092 
Q 4678 3434 4678 2328 
Q 4678 1225 4090 567 
Q 3503 -91 2522 -91 
Q 1538 -91 948 565 
Q 359 1222 359 2328 
Q 359 3434 948 4092 
Q 1538 4750 2522 4750 
z
" transform="scale(0.015625)"/>
        <path id="DejaVuSans-6f" d="M 1959 3097 
Q 1497 3097 1228 2736 
Q 959 2375 959 1747 
Q 959 1119 1226 758 
Q 1494 397 1959 397 
Q 2419 397 2687 759 
Q 2956 1122 2956 1747 
Q 2956 2369 2687 2733 
Q 2419 3097 1959 3097 
z
M 1959 3584 
Q 2709 3584 3137 3096 
Q 3566 2609 3566 1747 
Q 3566 888 3137 398 
Q 2709 -91 1959 -91 
Q 1206 -91 779 398 
Q 353 888 353 1747 
Q 353 2609 779 3096 
Q 1206 3584 1959 3584 
z
" transform="scale(0.015625)"/>
       </defs>
       <use xlink:href="#DejaVuSans-4f"/>
       <use xlink:href="#DejaVuSans-63" x="78.710938"/>
       <use xlink:href="#DejaVuSans-74" x="133.691406"/>
       <use xlink:href="#DejaVuSans-6f" x="172.900391"/>
       <use xlink:href="#DejaVuSans-62" x="234.082031"/>
       <use xlink:href="#DejaVuSans-65" x="297.558594"/>
       <use xlink:href="#DejaVuSans-72" x="359.082031"/>
      </g>
     </g>
    </g>
    <g id="xtick_11">
     <g id="line2d_11">
      <g>
       <use xlink:href="#m80d1607ec0" x="555.673281" y="325.037812" style="stroke: #000000; stroke-width: 0.8"/>
      </g>
     </g>
     <g id="text_11">
      <!-- November -->
      <g transform="translate(539.230839 374.197949)rotate(-45)scale(0.1 -0.1)">
       <defs>
        <path id="DejaVuSans-4e" d="M 628 4666 
L 1478 4666 
L 3547 763 
L 3547 4666 
L 4159 4666 
L 4159 0 
L 3309 0 
L 1241 3903 
L 1241 0 
L 628 0 
L 628 4666 
z
" transform="scale(0.015625)"/>
        <path id="DejaVuSans-76" d="M 191 3500 
L 800 3500 
L 1894 563 
L 2988 3500 
L 3597 3500 
L 2284 0 
L 1503 0 
L 191 3500 
z
" transform="scale(0.015625)"/>
       </defs>
       <use xlink:href="#DejaVuSans-4e"/>
       <use xlink:href="#DejaVuSans-6f" x="74.804688"/>
       <use xlink:href="#DejaVuSans-76" x="135.986328"/>
       <use xlink:href="#DejaVuSans-65" x="195.166016"/>
       <use xlink:href="#DejaVuSans-6d" x="256.689453"/>
       <use xlink:href="#DejaVuSans-62" x="354.101562"/>
       <use xlink:href="#DejaVuSans-65" x="417.578125"/>
       <use xlink:href="#DejaVuSans-72" x="479.101562"/>
      </g>
     </g>
    </g>
    <g id="xtick_12">
     <g id="line2d_12">
      <g>
       <use xlink:href="#m80d1607ec0" x="602.173281" y="325.037812" style="stroke: #000000; stroke-width: 0.8"/>
      </g>
     </g>
     <g id="text_12">
      <!-- December -->
      <g transform="translate(585.789949 374.07973)rotate(-45)scale(0.1 -0.1)">
       <defs>
        <path id="DejaVuSans-44" d="M 1259 4147 
L 1259 519 
L 2022 519 
Q 2988 519 3436 956 
Q 3884 1394 3884 2338 
Q 3884 3275 3436 3711 
Q 2988 4147 2022 4147 
L 1259 4147 
z
M 628 4666 
L 1925 4666 
Q 3281 4666 3915 4102 
Q 4550 3538 4550 2338 
Q 4550 1131 3912 565 
Q 3275 0 1925 0 
L 628 0 
L 628 4666 
z
" transform="scale(0.015625)"/>
       </defs>
       <use xlink:href="#DejaVuSans-44"/>
       <use xlink:href="#DejaVuSans-65" x="77.001953"/>
       <use xlink:href="#DejaVuSans-63" x="138.525391"/>
       <use xlink:href="#DejaVuSans-65" x="193.505859"/>
       <use xlink:href="#DejaVuSans-6d" x="255.029297"/>
       <use xlink:href="#DejaVuSans-62" x="352.441406"/>
       <use xlink:href="#DejaVuSans-65" x="415.917969"/>
       <use xlink:href="#DejaVuSans-72" x="477.441406"/>
      </g>
     </g>
    </g>
    <g id="text_13">
     <!-- Month -->
     <g transform="translate(327.617969 391.085838)scale(0.12 -0.12)">
      <use xlink:href="#DejaVuSans-4d"/>
      <use xlink:href="#DejaVuSans-6f" x="86.279297"/>
      <use xlink:href="#DejaVuSans-6e" x="147.460938"/>
      <use xlink:href="#DejaVuSans-74" x="210.839844"/>
      <use xlink:href="#DejaVuSans-68" x="250.048828"/>
     </g>
    </g>
   </g>
   <g id="matplotlib.axis_2">
    <g id="ytick_1">
     <g id="line2d_13">
      <defs>
       <path id="md5714b53dd" d="M 0 0 
L -3.5 0 
" style="stroke: #000000; stroke-width: 0.8"/>
      </defs>
      <g>
       <use xlink:href="#md5714b53dd" x="67.423281" y="325.037812" style="stroke: #000000; stroke-width: 0.8"/>
      </g>
     </g>
     <g id="text_14">
      <!-- 0 -->
      <g transform="translate(54.060781 328.837031)scale(0.1 -0.1)">
       <defs>
        <path id="DejaVuSans-30" d="M 2034 4250 
Q 1547 4250 1301 3770 
Q 1056 3291 1056 2328 
Q 1056 1369 1301 889 
Q 1547 409 2034 409 
Q 2525 409 2770 889 
Q 3016 1369 3016 2328 
Q 3016 3291 2770 3770 
Q 2525 4250 2034 4250 
z
M 2034 4750 
Q 2819 4750 3233 4129 
Q 3647 3509 3647 2328 
Q 3647 1150 3233 529 
Q 2819 -91 2034 -91 
Q 1250 -91 836 529 
Q 422 1150 422 2328 
Q 422 3509 836 4129 
Q 1250 4750 2034 4750 
z
" transform="scale(0.015625)"/>
       </defs>
       <use xlink:href="#DejaVuSans-30"/>
      </g>
     </g>
    </g>
    <g id="ytick_2">
     <g id="line2d_14">
      <g>
       <use xlink:href="#md5714b53dd" x="67.423281" y="291.600312" style="stroke: #000000; stroke-width: 0.8"/>
      </g>
     </g>
     <g id="text_15">
      <!-- 1 -->
      <g transform="translate(54.060781 295.399531)scale(0.1 -0.1)">
       <defs>
        <path id="DejaVuSans-31" d="M 794 531 
L 1825 531 
L 1825 4091 
L 703 3866 
L 703 4441 
L 1819 4666 
L 2450 4666 
L 2450 531 
L 3481 531 
L 3481 0 
L 794 0 
L 794 531 
z
" transform="scale(0.015625)"/>
       </defs>
       <use xlink:href="#DejaVuSans-31"/>
      </g>
     </g>
    </g>
    <g id="ytick_3">
     <g id="line2d_15">
      <g>
       <use xlink:href="#md5714b53dd" x="67.423281" y="258.162811" style="stroke: #000000; stroke-width: 0.8"/>
      </g>
     </g>
     <g id="text_16">
      <!-- 2 -->
      <g transform="translate(54.060781 261.96203)scale(0.1 -0.1)">
       <defs>
        <path id="DejaVuSans-32" d="M 1228 531 
L 3431 531 
L 3431 0 
L 469 0 
L 469 531 
Q 828 903 1448 1529 
Q 2069 2156 2228 2338 
Q 2531 2678 2651 2914 
Q 2772 3150 2772 3378 
Q 2772 3750 2511 3984 
Q 2250 4219 1831 4219 
Q 1534 4219 1204 4116 
Q 875 4013 500 3803 
L 500 4441 
Q 881 4594 1212 4672 
Q 1544 4750 1819 4750 
Q 2544 4750 2975 4387 
Q 3406 4025 3406 3419 
Q 3406 3131 3298 2873 
Q 3191 2616 2906 2266 
Q 2828 2175 2409 1742 
Q 1991 1309 1228 531 
z
" transform="scale(0.015625)"/>
       </defs>
       <use xlink:href="#DejaVuSans-32"/>
      </g>
     </g>
    </g>
    <g id="ytick_4">
     <g id="line2d_16">
      <g>
       <use xlink:href="#md5714b53dd" x="67.423281" y="224.725311" style="stroke: #000000; stroke-width: 0.8"/>
      </g>
     </g>
     <g id="text_17">
      <!-- 3 -->
      <g transform="translate(54.060781 228.524529)scale(0.1 -0.1)">
       <defs>
        <path id="DejaVuSans-33" d="M 2597 2516 
Q 3050 2419 3304 2112 
Q 3559 1806 3559 1356 
Q 3559 666 3084 287 
Q 2609 -91 1734 -91 
Q 1441 -91 1130 -33 
Q 819 25 488 141 
L 488 750 
Q 750 597 1062 519 
Q 1375 441 1716 441 
Q 2309 441 2620 675 
Q 2931 909 2931 1356 
Q 2931 1769 2642 2001 
Q 2353 2234 1838 2234 
L 1294 2234 
L 1294 2753 
L 1863 2753 
Q 2328 2753 2575 2939 
Q 2822 3125 2822 3475 
Q 2822 3834 2567 4026 
Q 2313 4219 1838 4219 
Q 1578 4219 1281 4162 
Q 984 4106 628 3988 
L 628 4550 
Q 988 4650 1302 4700 
Q 1616 4750 1894 4750 
Q 2613 4750 3031 4423 
Q 3450 4097 3450 3541 
Q 3450 3153 3228 2886 
Q 3006 2619 2597 2516 
z
" transform="scale(0.015625)"/>
       </defs>
       <use xlink:href="#DejaVuSans-33"/>
      </g>
     </g>
    </g>
    <g id="ytick_5">
     <g id="line2d_17">
      <g>
       <use xlink:href="#md5714b53dd" x="67.423281" y="191.28781" style="stroke: #000000; stroke-width: 0.8"/>
      </g>
     </g>
     <g id="text_18">
      <!-- 4 -->
      <g transform="translate(54.060781 195.087029)scale(0.1 -0.1)">
       <defs>
        <path id="DejaVuSans-34" d="M 2419 4116 
L 825 1625 
L 2419 1625 
L 2419 4116 
z
M 2253 4666 
L 3047 4666 
L 3047 1625 
L 3713 1625 
L 3713 1100 
L 3047 1100 
L 3047 0 
L 2419 0 
L 2419 1100 
L 313 1100 
L 313 1709 
L 2253 4666 
z
" transform="scale(0.015625)"/>
       </defs>
       <use xlink:href="#DejaVuSans-34"/>
      </g>
     </g>
    </g>
    <g id="ytick_6">
     <g id="line2d_18">
      <g>
       <use xlink:href="#md5714b53dd" x="67.423281" y="157.850309" style="stroke: #000000; stroke-width: 0.8"/>
      </g>
     </g>
     <g id="text_19">
      <!-- 5 -->
      <g transform="translate(54.060781 161.649528)scale(0.1 -0.1)">
       <defs>
        <path id="DejaVuSans-35" d="M 691 4666 
L 3169 4666 
L 3169 4134 
L 1269 4134 
L 1269 2991 
Q 1406 3038 1543 3061 
Q 1681 3084 1819 3084 
Q 2600 3084 3056 2656 
Q 3513 2228 3513 1497 
Q 3513 744 3044 326 
Q 2575 -91 1722 -91 
Q 1428 -91 1123 -41 
Q 819 9 494 109 
L 494 744 
Q 775 591 1075 516 
Q 1375 441 1709 441 
Q 2250 441 2565 725 
Q 2881 1009 2881 1497 
Q 2881 1984 2565 2268 
Q 2250 2553 1709 2553 
Q 1456 2553 1204 2497 
Q 953 2441 691 2322 
L 691 4666 
z
" transform="scale(0.015625)"/>
       </defs>
       <use xlink:href="#DejaVuSans-35"/>
      </g>
     </g>
    </g>
    <g id="ytick_7">
     <g id="line2d_19">
      <g>
       <use xlink:href="#md5714b53dd" x="67.423281" y="124.412809" style="stroke: #000000; stroke-width: 0.8"/>
      </g>
     </g>
     <g id="text_20">
      <!-- 6 -->
      <g transform="translate(54.060781 128.212028)scale(0.1 -0.1)">
       <defs>
        <path id="DejaVuSans-36" d="M 2113 2584 
Q 1688 2584 1439 2293 
Q 1191 2003 1191 1497 
Q 1191 994 1439 701 
Q 1688 409 2113 409 
Q 2538 409 2786 701 
Q 3034 994 3034 1497 
Q 3034 2003 2786 2293 
Q 2538 2584 2113 2584 
z
M 3366 4563 
L 3366 3988 
Q 3128 4100 2886 4159 
Q 2644 4219 2406 4219 
Q 1781 4219 1451 3797 
Q 1122 3375 1075 2522 
Q 1259 2794 1537 2939 
Q 1816 3084 2150 3084 
Q 2853 3084 3261 2657 
Q 3669 2231 3669 1497 
Q 3669 778 3244 343 
Q 2819 -91 2113 -91 
Q 1303 -91 875 529 
Q 447 1150 447 2328 
Q 447 3434 972 4092 
Q 1497 4750 2381 4750 
Q 2619 4750 2861 4703 
Q 3103 4656 3366 4563 
z
" transform="scale(0.015625)"/>
       </defs>
       <use xlink:href="#DejaVuSans-36"/>
      </g>
     </g>
    </g>
    <g id="ytick_8">
     <g id="line2d_20">
      <g>
       <use xlink:href="#md5714b53dd" x="67.423281" y="90.975308" style="stroke: #000000; stroke-width: 0.8"/>
      </g>
     </g>
     <g id="text_21">
      <!-- 7 -->
      <g transform="translate(54.060781 94.774527)scale(0.1 -0.1)">
       <defs>
        <path id="DejaVuSans-37" d="M 525 4666 
L 3525 4666 
L 3525 4397 
L 1831 0 
L 1172 0 
L 2766 4134 
L 525 4134 
L 525 4666 
z
" transform="scale(0.015625)"/>
       </defs>
       <use xlink:href="#DejaVuSans-37"/>
      </g>
     </g>
    </g>
    <g id="ytick_9">
     <g id="line2d_21">
      <g>
       <use xlink:href="#md5714b53dd" x="67.423281" y="57.537808" style="stroke: #000000; stroke-width: 0.8"/>
      </g>
     </g>
     <g id="text_22">
      <!-- 8 -->
      <g transform="translate(54.060781 61.337026)scale(0.1 -0.1)">
       <defs>
        <path id="DejaVuSans-38" d="M 2034 2216 
Q 1584 2216 1326 1975 
Q 1069 1734 1069 1313 
Q 1069 891 1326 650 
Q 1584 409 2034 409 
Q 2484 409 2743 651 
Q 3003 894 3003 1313 
Q 3003 1734 2745 1975 
Q 2488 2216 2034 2216 
z
M 1403 2484 
Q 997 2584 770 2862 
Q 544 3141 544 3541 
Q 544 4100 942 4425 
Q 1341 4750 2034 4750 
Q 2731 4750 3128 4425 
Q 3525 4100 3525 3541 
Q 3525 3141 3298 2862 
Q 3072 2584 2669 2484 
Q 3125 2378 3379 2068 
Q 3634 1759 3634 1313 
Q 3634 634 3220 271 
Q 2806 -91 2034 -91 
Q 1263 -91 848 271 
Q 434 634 434 1313 
Q 434 1759 690 2068 
Q 947 2378 1403 2484 
z
M 1172 3481 
Q 1172 3119 1398 2916 
Q 1625 2713 2034 2713 
Q 2441 2713 2670 2916 
Q 2900 3119 2900 3481 
Q 2900 3844 2670 4047 
Q 2441 4250 2034 4250 
Q 1625 4250 1398 4047 
Q 1172 3844 1172 3481 
z
" transform="scale(0.015625)"/>
       </defs>
       <use xlink:href="#DejaVuSans-38"/>
      </g>
     </g>
    </g>
    <g id="text_23">
     <!-- Gross revenue [$] -->
     <g transform="translate(47.565156 240.2175)rotate(-90)scale(0.12 -0.12)">
      <defs>
       <path id="DejaVuSans-47" d="M 3809 666 
L 3809 1919 
L 2778 1919 
L 2778 2438 
L 4434 2438 
L 4434 434 
Q 4069 175 3628 42 
Q 3188 -91 2688 -91 
Q 1594 -91 976 548 
Q 359 1188 359 2328 
Q 359 3472 976 4111 
Q 1594 4750 2688 4750 
Q 3144 4750 3555 4637 
Q 3966 4525 4313 4306 
L 4313 3634 
Q 3963 3931 3569 4081 
Q 3175 4231 2741 4231 
Q 1884 4231 1454 3753 
Q 1025 3275 1025 2328 
Q 1025 1384 1454 906 
Q 1884 428 2741 428 
Q 3075 428 3337 486 
Q 3600 544 3809 666 
z
" transform="scale(0.015625)"/>
       <path id="DejaVuSans-20" transform="scale(0.015625)"/>
       <path id="DejaVuSans-5b" d="M 550 4863 
L 1875 4863 
L 1875 4416 
L 1125 4416 
L 1125 -397 
L 1875 -397 
L 1875 -844 
L 550 -844 
L 550 4863 
z
" transform="scale(0.015625)"/>
       <path id="DejaVuSans-24" d="M 2163 -941 
L 1850 -941 
L 1847 0 
Q 1519 6 1191 76 
Q 863 147 531 288 
L 531 850 
Q 850 650 1176 548 
Q 1503 447 1850 444 
L 1850 1869 
Q 1159 1981 845 2250 
Q 531 2519 531 2988 
Q 531 3497 872 3790 
Q 1213 4084 1850 4128 
L 1850 4863 
L 2163 4863 
L 2163 4138 
Q 2453 4125 2725 4076 
Q 2997 4028 3256 3944 
L 3256 3397 
Q 2997 3528 2723 3600 
Q 2450 3672 2163 3684 
L 2163 2350 
Q 2872 2241 3206 1959 
Q 3541 1678 3541 1191 
Q 3541 663 3186 358 
Q 2831 53 2163 6 
L 2163 -941 
z
M 1850 2406 
L 1850 3688 
Q 1488 3647 1297 3481 
Q 1106 3316 1106 3041 
Q 1106 2772 1282 2622 
Q 1459 2472 1850 2406 
z
M 2163 1806 
L 2163 453 
Q 2559 506 2761 678 
Q 2963 850 2963 1131 
Q 2963 1406 2770 1568 
Q 2578 1731 2163 1806 
z
" transform="scale(0.015625)"/>
       <path id="DejaVuSans-5d" d="M 1947 4863 
L 1947 -844 
L 622 -844 
L 622 -397 
L 1369 -397 
L 1369 4416 
L 622 4416 
L 622 4863 
L 1947 4863 
z
" transform="scale(0.015625)"/>
      </defs>
      <use xlink:href="#DejaVuSans-47"/>
      <use xlink:href="#DejaVuSans-72" x="77.490234"/>
      <use xlink:href="#DejaVuSans-6f" x="116.353516"/>
      <use xlink:href="#DejaVuSans-73" x="177.535156"/>
      <use xlink:href="#DejaVuSans-73" x="229.634766"/>
      <use xlink:href="#DejaVuSans-20" x="281.734375"/>
      <use xlink:href="#DejaVuSans-72" x="313.521484"/>
      <use xlink:href="#DejaVuSans-65" x="352.384766"/>
      <use xlink:href="#DejaVuSans-76" x="413.908203"/>
      <use xlink:href="#DejaVuSans-65" x="473.087891"/>
      <use xlink:href="#DejaVuSans-6e" x="534.611328"/>
      <use xlink:href="#DejaVuSans-75" x="597.990234"/>
      <use xlink:href="#DejaVuSans-65" x="661.369141"/>
      <use xlink:href="#DejaVuSans-20" x="722.892578"/>
      <use xlink:href="#DejaVuSans-5b" x="754.679688"/>
      <use xlink:href="#DejaVuSans-24" x="793.693359"/>
      <use xlink:href="#DejaVuSans-5d" x="857.316406"/>
     </g>
    </g>
    <g id="text_24">
     <!-- 1e7 -->
     <g transform="translate(67.423281 44.837812)scale(0.1 -0.1)">
      <use xlink:href="#DejaVuSans-31"/>
      <use xlink:href="#DejaVuSans-65" x="63.623047"/>
      <use xlink:href="#DejaVuSans-37" x="125.146484"/>
     </g>
    </g>
   </g>
   <g id="line2d_22">
    <path d="M 90.673281 321.394129 
L 90.673281 316.342317 
" clip-path="url(#p27b316886b)" style="fill: none; stroke: #424242; stroke-width: 2.7; stroke-linecap: square"/>
   </g>
   <g id="line2d_23">
    <path d="M 137.173281 318.875937 
L 137.173281 305.531668 
" clip-path="url(#p27b316886b)" style="fill: none; stroke: #424242; stroke-width: 2.7; stroke-linecap: square"/>
   </g>
   <g id="line2d_24">
    <path d="M 183.673281 317.067361 
L 183.673281 205.319601 
" clip-path="url(#p27b316886b)" style="fill: none; stroke: #424242; stroke-width: 2.7; stroke-linecap: square"/>
   </g>
   <g id="line2d_25">
    <path d="M 230.173281 321.623761 
L 230.173281 279.365756 
" clip-path="url(#p27b316886b)" style="fill: none; stroke: #424242; stroke-width: 2.7; stroke-linecap: square"/>
   </g>
   <g id="line2d_26">
    <path d="M 276.673281 319.274221 
L 276.673281 292.699348 
" clip-path="url(#p27b316886b)" style="fill: none; stroke: #424242; stroke-width: 2.7; stroke-linecap: square"/>
   </g>
   <g id="line2d_27">
    <path d="M 323.173281 317.363867 
L 323.173281 298.780985 
" clip-path="url(#p27b316886b)" style="fill: none; stroke: #424242; stroke-width: 2.7; stroke-linecap: square"/>
   </g>
   <g id="line2d_28">
    <path d="M 369.673281 319.981112 
L 369.673281 306.697559 
" clip-path="url(#p27b316886b)" style="fill: none; stroke: #424242; stroke-width: 2.7; stroke-linecap: square"/>
   </g>
   <g id="line2d_29">
    <path d="M 416.173281 320.097321 
L 416.173281 316.52273 
" clip-path="url(#p27b316886b)" style="fill: none; stroke: #424242; stroke-width: 2.7; stroke-linecap: square"/>
   </g>
   <g id="line2d_30">
    <path d="M 462.673281 319.041996 
L 462.673281 311.212449 
" clip-path="url(#p27b316886b)" style="fill: none; stroke: #424242; stroke-width: 2.7; stroke-linecap: square"/>
   </g>
   <g id="line2d_31">
    <path d="M 509.173281 318.408386 
L 509.173281 287.729404 
" clip-path="url(#p27b316886b)" style="fill: none; stroke: #424242; stroke-width: 2.7; stroke-linecap: square"/>
   </g>
   <g id="line2d_32">
    <path d="M 555.673281 317.105021 
L 555.673281 170.702877 
" clip-path="url(#p27b316886b)" style="fill: none; stroke: #424242; stroke-width: 2.7; stroke-linecap: square"/>
   </g>
   <g id="line2d_33">
    <path d="M 602.173281 309.162555 
L 602.173281 61.037812 
" clip-path="url(#p27b316886b)" style="fill: none; stroke: #424242; stroke-width: 2.7; stroke-linecap: square"/>
   </g>
   <g id="patch_15">
    <path d="M 67.423281 325.037812 
L 67.423281 47.837812 
" style="fill: none; stroke: #000000; stroke-width: 0.8; stroke-linejoin: miter; stroke-linecap: square"/>
   </g>
   <g id="patch_16">
    <path d="M 625.423281 325.037812 
L 625.423281 47.837812 
" style="fill: none; stroke: #000000; stroke-width: 0.8; stroke-linejoin: miter; stroke-linecap: square"/>
   </g>
   <g id="patch_17">
    <path d="M 67.423281 325.037812 
L 625.423281 325.037812 
" style="fill: none; stroke: #000000; stroke-width: 0.8; stroke-linejoin: miter; stroke-linecap: square"/>
   </g>
   <g id="patch_18">
    <path d="M 67.423281 47.837812 
L 625.423281 47.837812 
" style="fill: none; stroke: #000000; stroke-width: 0.8; stroke-linejoin: miter; stroke-linecap: square"/>
   </g>
   <g id="text_25">
    <!-- Impact of release month on movie gross revenue for Black-and-white genre - Importance rank: 4 -->
    <g transform="translate(7.2 17.837812)scale(0.14 -0.14)">
     <defs>
      <path id="DejaVuSans-49" d="M 628 4666 
L 1259 4666 
L 1259 0 
L 628 0 
L 628 4666 
z
" transform="scale(0.015625)"/>
      <path id="DejaVuSans-66" d="M 2375 4863 
L 2375 4384 
L 1825 4384 
Q 1516 4384 1395 4259 
Q 1275 4134 1275 3809 
L 1275 3500 
L 2222 3500 
L 2222 3053 
L 1275 3053 
L 1275 0 
L 697 0 
L 697 3053 
L 147 3053 
L 147 3500 
L 697 3500 
L 697 3744 
Q 697 4328 969 4595 
Q 1241 4863 1831 4863 
L 2375 4863 
z
" transform="scale(0.015625)"/>
      <path id="DejaVuSans-42" d="M 1259 2228 
L 1259 519 
L 2272 519 
Q 2781 519 3026 730 
Q 3272 941 3272 1375 
Q 3272 1813 3026 2020 
Q 2781 2228 2272 2228 
L 1259 2228 
z
M 1259 4147 
L 1259 2741 
L 2194 2741 
Q 2656 2741 2882 2914 
Q 3109 3088 3109 3444 
Q 3109 3797 2882 3972 
Q 2656 4147 2194 4147 
L 1259 4147 
z
M 628 4666 
L 2241 4666 
Q 2963 4666 3353 4366 
Q 3744 4066 3744 3513 
Q 3744 3084 3544 2831 
Q 3344 2578 2956 2516 
Q 3422 2416 3680 2098 
Q 3938 1781 3938 1306 
Q 3938 681 3513 340 
Q 3088 0 2303 0 
L 628 0 
L 628 4666 
z
" transform="scale(0.015625)"/>
      <path id="DejaVuSans-6b" d="M 581 4863 
L 1159 4863 
L 1159 1991 
L 2875 3500 
L 3609 3500 
L 1753 1863 
L 3688 0 
L 2938 0 
L 1159 1709 
L 1159 0 
L 581 0 
L 581 4863 
z
" transform="scale(0.015625)"/>
      <path id="DejaVuSans-2d" d="M 313 2009 
L 1997 2009 
L 1997 1497 
L 313 1497 
L 313 2009 
z
" transform="scale(0.015625)"/>
      <path id="DejaVuSans-64" d="M 2906 2969 
L 2906 4863 
L 3481 4863 
L 3481 0 
L 2906 0 
L 2906 525 
Q 2725 213 2448 61 
Q 2172 -91 1784 -91 
Q 1150 -91 751 415 
Q 353 922 353 1747 
Q 353 2572 751 3078 
Q 1150 3584 1784 3584 
Q 2172 3584 2448 3432 
Q 2725 3281 2906 2969 
z
M 947 1747 
Q 947 1113 1208 752 
Q 1469 391 1925 391 
Q 2381 391 2643 752 
Q 2906 1113 2906 1747 
Q 2906 2381 2643 2742 
Q 2381 3103 1925 3103 
Q 1469 3103 1208 2742 
Q 947 2381 947 1747 
z
" transform="scale(0.015625)"/>
      <path id="DejaVuSans-77" d="M 269 3500 
L 844 3500 
L 1563 769 
L 2278 3500 
L 2956 3500 
L 3675 769 
L 4391 3500 
L 4966 3500 
L 4050 0 
L 3372 0 
L 2619 2869 
L 1863 0 
L 1184 0 
L 269 3500 
z
" transform="scale(0.015625)"/>
      <path id="DejaVuSans-3a" d="M 750 794 
L 1409 794 
L 1409 0 
L 750 0 
L 750 794 
z
M 750 3309 
L 1409 3309 
L 1409 2516 
L 750 2516 
L 750 3309 
z
" transform="scale(0.015625)"/>
     </defs>
     <use xlink:href="#DejaVuSans-49"/>
     <use xlink:href="#DejaVuSans-6d" x="29.492188"/>
     <use xlink:href="#DejaVuSans-70" x="126.904297"/>
     <use xlink:href="#DejaVuSans-61" x="190.380859"/>
     <use xlink:href="#DejaVuSans-63" x="251.660156"/>
     <use xlink:href="#DejaVuSans-74" x="306.640625"/>
     <use xlink:href="#DejaVuSans-20" x="345.849609"/>
     <use xlink:href="#DejaVuSans-6f" x="377.636719"/>
     <use xlink:href="#DejaVuSans-66" x="438.818359"/>
     <use xlink:href="#DejaVuSans-20" x="474.023438"/>
     <use xlink:href="#DejaVuSans-72" x="505.810547"/>
     <use xlink:href="#DejaVuSans-65" x="544.673828"/>
     <use xlink:href="#DejaVuSans-6c" x="606.197266"/>
     <use xlink:href="#DejaVuSans-65" x="633.980469"/>
     <use xlink:href="#DejaVuSans-61" x="695.503906"/>
     <use xlink:href="#DejaVuSans-73" x="756.783203"/>
     <use xlink:href="#DejaVuSans-65" x="808.882812"/>
     <use xlink:href="#DejaVuSans-20" x="870.40625"/>
     <use xlink:href="#DejaVuSans-6d" x="902.193359"/>
     <use xlink:href="#DejaVuSans-6f" x="999.605469"/>
     <use xlink:href="#DejaVuSans-6e" x="1060.787109"/>
     <use xlink:href="#DejaVuSans-74" x="1124.166016"/>
     <use xlink:href="#DejaVuSans-68" x="1163.375"/>
     <use xlink:href="#DejaVuSans-20" x="1226.753906"/>
     <use xlink:href="#DejaVuSans-6f" x="1258.541016"/>
     <use xlink:href="#DejaVuSans-6e" x="1319.722656"/>
     <use xlink:href="#DejaVuSans-20" x="1383.101562"/>
     <use xlink:href="#DejaVuSans-6d" x="1414.888672"/>
     <use xlink:href="#DejaVuSans-6f" x="1512.300781"/>
     <use xlink:href="#DejaVuSans-76" x="1573.482422"/>
     <use xlink:href="#DejaVuSans-69" x="1632.662109"/>
     <use xlink:href="#DejaVuSans-65" x="1660.445312"/>
     <use xlink:href="#DejaVuSans-20" x="1721.96875"/>
     <use xlink:href="#DejaVuSans-67" x="1753.755859"/>
     <use xlink:href="#DejaVuSans-72" x="1817.232422"/>
     <use xlink:href="#DejaVuSans-6f" x="1856.095703"/>
     <use xlink:href="#DejaVuSans-73" x="1917.277344"/>
     <use xlink:href="#DejaVuSans-73" x="1969.376953"/>
     <use xlink:href="#DejaVuSans-20" x="2021.476562"/>
     <use xlink:href="#DejaVuSans-72" x="2053.263672"/>
     <use xlink:href="#DejaVuSans-65" x="2092.126953"/>
     <use xlink:href="#DejaVuSans-76" x="2153.650391"/>
     <use xlink:href="#DejaVuSans-65" x="2212.830078"/>
     <use xlink:href="#DejaVuSans-6e" x="2274.353516"/>
     <use xlink:href="#DejaVuSans-75" x="2337.732422"/>
     <use xlink:href="#DejaVuSans-65" x="2401.111328"/>
     <use xlink:href="#DejaVuSans-20" x="2462.634766"/>
     <use xlink:href="#DejaVuSans-66" x="2494.421875"/>
     <use xlink:href="#DejaVuSans-6f" x="2529.626953"/>
     <use xlink:href="#DejaVuSans-72" x="2590.808594"/>
     <use xlink:href="#DejaVuSans-20" x="2631.921875"/>
     <use xlink:href="#DejaVuSans-42" x="2663.708984"/>
     <use xlink:href="#DejaVuSans-6c" x="2732.3125"/>
     <use xlink:href="#DejaVuSans-61" x="2760.095703"/>
     <use xlink:href="#DejaVuSans-63" x="2821.375"/>
     <use xlink:href="#DejaVuSans-6b" x="2876.355469"/>
     <use xlink:href="#DejaVuSans-2d" x="2934.265625"/>
     <use xlink:href="#DejaVuSans-61" x="2970.349609"/>
     <use xlink:href="#DejaVuSans-6e" x="3031.628906"/>
     <use xlink:href="#DejaVuSans-64" x="3095.007812"/>
     <use xlink:href="#DejaVuSans-2d" x="3158.484375"/>
     <use xlink:href="#DejaVuSans-77" x="3194.568359"/>
     <use xlink:href="#DejaVuSans-68" x="3276.355469"/>
     <use xlink:href="#DejaVuSans-69" x="3339.734375"/>
     <use xlink:href="#DejaVuSans-74" x="3367.517578"/>
     <use xlink:href="#DejaVuSans-65" x="3406.726562"/>
     <use xlink:href="#DejaVuSans-20" x="3468.25"/>
     <use xlink:href="#DejaVuSans-67" x="3500.037109"/>
     <use xlink:href="#DejaVuSans-65" x="3563.513672"/>
     <use xlink:href="#DejaVuSans-6e" x="3625.037109"/>
     <use xlink:href="#DejaVuSans-72" x="3688.416016"/>
     <use xlink:href="#DejaVuSans-65" x="3727.279297"/>
     <use xlink:href="#DejaVuSans-20" x="3788.802734"/>
     <use xlink:href="#DejaVuSans-2d" x="3820.589844"/>
     <use xlink:href="#DejaVuSans-20" x="3856.673828"/>
     <use xlink:href="#DejaVuSans-49" x="3888.460938"/>
     <use xlink:href="#DejaVuSans-6d" x="3917.953125"/>
     <use xlink:href="#DejaVuSans-70" x="4015.365234"/>
     <use xlink:href="#DejaVuSans-6f" x="4078.841797"/>
     <use xlink:href="#DejaVuSans-72" x="4140.023438"/>
     <use xlink:href="#DejaVuSans-74" x="4181.136719"/>
     <use xlink:href="#DejaVuSans-61" x="4220.345703"/>
     <use xlink:href="#DejaVuSans-6e" x="4281.625"/>
     <use xlink:href="#DejaVuSans-63" x="4345.003906"/>
     <use xlink:href="#DejaVuSans-65" x="4399.984375"/>
     <use xlink:href="#DejaVuSans-20" x="4461.507812"/>
     <use xlink:href="#DejaVuSans-72" x="4493.294922"/>
     <use xlink:href="#DejaVuSans-61" x="4534.408203"/>
     <use xlink:href="#DejaVuSans-6e" x="4595.6875"/>
     <use xlink:href="#DejaVuSans-6b" x="4659.066406"/>
     <use xlink:href="#DejaVuSans-3a" x="4716.976562"/>
     <use xlink:href="#DejaVuSans-20" x="4750.667969"/>
     <use xlink:href="#DejaVuSans-34" x="4782.455078"/>
    </g>
   </g>
  </g>
 </g>
 <defs>
  <clipPath id="p27b316886b">
   <rect x="67.423281" y="47.837812" width="558" height="277.2"/>
  </clipPath>
 </defs>
</svg>
