<?xml version="1.0" encoding="utf-8" standalone="no"?>
<!DOCTYPE svg PUBLIC "-//W3C//DTD SVG 1.1//EN"
  "http://www.w3.org/Graphics/SVG/1.1/DTD/svg11.dtd">
<svg xmlns:xlink="http://www.w3.org/1999/xlink" width="568.8pt" height="583.918125pt" viewBox="0 0 568.8 583.918125" xmlns="http://www.w3.org/2000/svg" version="1.1">
 <metadata>
  <rdf:RDF xmlns:dc="http://purl.org/dc/elements/1.1/" xmlns:cc="http://creativecommons.org/ns#" xmlns:rdf="http://www.w3.org/1999/02/22-rdf-syntax-ns#">
   <cc:Work>
    <dc:type rdf:resource="http://purl.org/dc/dcmitype/StillImage"/>
    <dc:date>2022-12-23T20:56:40.284497</dc:date>
    <dc:format>image/svg+xml</dc:format>
    <dc:creator>
     <cc:Agent>
      <dc:title>Matplotlib v3.5.3, https://matplotlib.org/</dc:title>
     </cc:Agent>
    </dc:creator>
   </cc:Work>
  </rdf:RDF>
 </metadata>
 <defs>
  <style type="text/css">*{stroke-linejoin: round; stroke-linecap: butt}</style>
 </defs>
 <g id="figure_1">
  <g id="patch_1">
   <path d="M 0 583.918125 
L 568.8 583.918125 
L 568.8 0 
L 0 0 
z
" style="fill: #ffffff"/>
  </g>
  <g id="axes_1">
   <g id="LineCollection_1">
    <path d="M 490.3103 299.955412 
L 471.991819 212.927761 
" clip-path="url(#pbc1cecb32c)" style="fill: none; stroke: #000000; stroke-opacity: 0.3; stroke-width: 10"/>
    <path d="M 420.203819 140.947971 
L 343.900922 96.462025 
" clip-path="url(#pbc1cecb32c)" style="fill: none; stroke: #000000; stroke-opacity: 0.3; stroke-width: 5"/>
   </g>
   <g id="PathCollection_1">
    <path d="M 490.3103 327.34154 
C 497.573186 327.34154 504.539581 324.455965 509.675217 319.320329 
C 514.810853 314.184693 517.696428 307.218298 517.696428 299.955412 
C 517.696428 292.692526 514.810853 285.726131 509.675217 280.590495 
C 504.539581 275.454859 497.573186 272.569284 490.3103 272.569284 
C 483.047414 272.569284 476.08102 275.454859 470.945384 280.590495 
C 465.809748 285.726131 462.924172 292.692526 462.924172 299.955412 
C 462.924172 307.218298 465.809748 314.184693 470.945384 319.320329 
C 476.08102 324.455965 483.047414 327.34154 490.3103 327.34154 
z
" clip-path="url(#pbc1cecb32c)" style="fill: #c70039; fill-opacity: 0.99; stroke: #c70039; stroke-opacity: 0.99"/>
    <path d="M 471.991819 239.927097 
C 479.152126 239.927097 486.02013 237.082276 491.083232 232.019174 
C 496.146334 226.956072 498.991154 220.088068 498.991154 212.927761 
C 498.991154 205.767453 496.146334 198.899449 491.083232 193.836347 
C 486.02013 188.773245 479.152126 185.928425 471.991819 185.928425 
C 464.831511 185.928425 457.963507 188.773245 452.900405 193.836347 
C 447.837303 198.899449 444.992483 205.767453 444.992483 212.927761 
C 444.992483 220.088068 447.837303 226.956072 452.900405 232.019174 
C 457.963507 237.082276 464.831511 239.927097 471.991819 239.927097 
z
" clip-path="url(#pbc1cecb32c)" style="fill: #c70039; fill-opacity: 0.99; stroke: #c70039; stroke-opacity: 0.99"/>
    <path d="M 420.203819 165.630785 
C 426.749778 165.630785 433.028512 163.030048 437.657204 158.401356 
C 442.285896 153.772664 444.886632 147.49393 444.886632 140.947971 
C 444.886632 134.402013 442.285896 128.123278 437.657204 123.494586 
C 433.028512 118.865895 426.749778 116.265158 420.203819 116.265158 
C 413.65786 116.265158 407.379126 118.865895 402.750434 123.494586 
C 398.121743 128.123278 395.521006 134.402013 395.521006 140.947971 
C 395.521006 147.49393 398.121743 153.772664 402.750434 158.401356 
C 407.379126 163.030048 413.65786 165.630785 420.203819 165.630785 
z
" clip-path="url(#pbc1cecb32c)" style="fill: #c70039; fill-opacity: 0.99; stroke: #c70039; stroke-opacity: 0.99"/>
    <path d="M 343.900922 120.801622 
C 350.355858 120.801622 356.547286 118.237048 361.111615 113.672719 
C 365.675945 109.10839 368.240518 102.916962 368.240518 96.462025 
C 368.240518 90.007089 365.675945 83.815661 361.111615 79.251331 
C 356.547286 74.687002 350.355858 72.122428 343.900922 72.122428 
C 337.445985 72.122428 331.254557 74.687002 326.690228 79.251331 
C 322.125898 83.815661 319.561325 90.007089 319.561325 96.462025 
C 319.561325 102.916962 322.125898 109.10839 326.690228 113.672719 
C 331.254557 118.237048 337.445985 120.801622 343.900922 120.801622 
z
" clip-path="url(#pbc1cecb32c)" style="fill: #c70039; fill-opacity: 0.99; stroke: #c70039; stroke-opacity: 0.99"/>
    <path d="M 256.276574 110.429821 
C 262.447291 110.429821 268.366102 107.978169 272.729457 103.614813 
C 277.092813 99.251457 279.544465 93.332647 279.544465 87.16193 
C 279.544465 80.991213 277.092813 75.072402 272.729457 70.709046 
C 268.366102 66.345691 262.447291 63.894039 256.276574 63.894039 
C 250.105857 63.894039 244.187046 66.345691 239.82369 70.709046 
C 235.460335 75.072402 233.008683 80.991213 233.008683 87.16193 
C 233.008683 93.332647 235.460335 99.251457 239.82369 103.614813 
C 244.187046 107.978169 250.105857 110.429821 256.276574 110.429821 
z
" clip-path="url(#pbc1cecb32c)" style="fill: #c70039; fill-opacity: 0.99; stroke: #c70039; stroke-opacity: 0.99"/>
    <path d="M 172.481832 137.511945 
C 178.543362 137.511945 184.357442 135.103674 188.643591 130.817525 
C 192.929739 126.531377 195.33801 120.717296 195.33801 114.655767 
C 195.33801 108.594238 192.929739 102.780157 188.643591 98.494008 
C 184.357442 94.20786 178.543362 91.799589 172.481832 91.799589 
C 166.420303 91.799589 160.606222 94.20786 156.320074 98.494008 
C 152.033925 102.780157 149.625654 108.594238 149.625654 114.655767 
C 149.625654 120.717296 152.033925 126.531377 156.320074 130.817525 
C 160.606222 135.103674 166.420303 137.511945 172.481832 137.511945 
z
" clip-path="url(#pbc1cecb32c)" style="fill: #c70039; fill-opacity: 0.99; stroke: #c70039; stroke-opacity: 0.99"/>
    <path d="M 107.005581 196.17906 
C 112.837257 196.17906 118.430868 193.86211 122.554486 189.738492 
C 126.678104 185.614875 128.995053 180.021264 128.995053 174.189587 
C 128.995053 168.357911 126.678104 162.7643 122.554486 158.640682 
C 118.430868 154.517064 112.837257 152.200115 107.005581 152.200115 
C 101.173904 152.200115 95.580293 154.517064 91.456675 158.640682 
C 87.333058 162.7643 85.016108 168.357911 85.016108 174.189587 
C 85.016108 180.021264 87.333058 185.614875 91.456675 189.738492 
C 95.580293 193.86211 101.173904 196.17906 107.005581 196.17906 
z
" clip-path="url(#pbc1cecb32c)" style="fill: #c70039; fill-opacity: 0.99; stroke: #c70039; stroke-opacity: 0.99"/>
    <path d="M 71.169231 277.062233 
C 76.895696 277.062233 82.388391 274.787084 86.437614 270.737862 
C 90.486836 266.688639 92.761985 261.195944 92.761985 255.469479 
C 92.761985 249.743013 90.486836 244.250318 86.437614 240.201096 
C 82.388391 236.151873 76.895696 233.876725 71.169231 233.876725 
C 65.442765 233.876725 59.95007 236.151873 55.900848 240.201096 
C 51.851625 244.250318 49.576477 249.743013 49.576477 255.469479 
C 49.576477 261.195944 51.851625 266.688639 55.900848 270.737862 
C 59.95007 274.787084 65.442765 277.062233 71.169231 277.062233 
z
" clip-path="url(#pbc1cecb32c)" style="fill: #c70039; fill-opacity: 0.99; stroke: #c70039; stroke-opacity: 0.99"/>
    <path d="M 71.169243 365.368129 
C 76.719081 365.368129 82.042359 363.163155 85.966687 359.238827 
C 89.891015 355.314499 92.095989 349.991221 92.095989 344.441384 
C 92.095989 338.891546 89.891015 333.568268 85.966687 329.64394 
C 82.042359 325.719612 76.719081 323.514638 71.169243 323.514638 
C 65.619406 323.514638 60.296128 325.719612 56.3718 329.64394 
C 52.447472 333.568268 50.242498 338.891546 50.242498 344.441384 
C 50.242498 349.991221 52.447472 355.314499 56.3718 359.238827 
C 60.296128 363.163155 65.619406 365.368129 71.169243 365.368129 
z
" clip-path="url(#pbc1cecb32c)" style="fill: #c70039; fill-opacity: 0.99; stroke: #c70039; stroke-opacity: 0.99"/>
    <path d="M 107.005593 446.286828 
C 112.459648 446.286828 117.691054 444.119909 121.547653 440.263309 
C 125.404252 436.40671 127.571171 431.175304 127.571171 425.721249 
C 127.571171 420.267194 125.404252 415.035789 121.547653 411.17919 
C 117.691054 407.32259 112.459648 405.155671 107.005593 405.155671 
C 101.551538 405.155671 96.320133 407.32259 92.463533 411.17919 
C 88.606934 415.035789 86.440015 420.267194 86.440015 425.721249 
C 86.440015 431.175304 88.606934 436.40671 92.463533 440.263309 
C 96.320133 444.119909 101.551538 446.286828 107.005593 446.286828 
z
" clip-path="url(#pbc1cecb32c)" style="fill: #c70039; fill-opacity: 0.99; stroke: #c70039; stroke-opacity: 0.99"/>
    <path d="M 172.481864 505.643735 
C 177.889001 505.643735 183.075404 503.495456 186.898827 499.672033 
C 190.722251 495.84861 192.870529 490.662207 192.870529 485.25507 
C 192.870529 479.847933 190.722251 474.66153 186.898827 470.838107 
C 183.075404 467.014683 177.889001 464.866405 172.481864 464.866405 
C 167.074727 464.866405 161.888324 467.014683 158.064901 470.838107 
C 154.241477 474.66153 152.093199 479.847933 152.093199 485.25507 
C 152.093199 490.662207 154.241477 495.84861 158.064901 499.672033 
C 161.888324 503.495456 167.074727 505.643735 172.481864 505.643735 
z
" clip-path="url(#pbc1cecb32c)" style="fill: #c70039; fill-opacity: 0.99; stroke: #c70039; stroke-opacity: 0.99"/>
    <path d="M 256.276612 532.726606 
C 261.574763 532.726606 266.656629 530.621629 270.402987 526.87527 
C 274.149346 523.128911 276.254324 518.047045 276.254324 512.748894 
C 276.254324 507.450743 274.149346 502.368877 270.402987 498.622518 
C 266.656629 494.87616 261.574763 492.771182 256.276612 492.771182 
C 250.97846 492.771182 245.896594 494.87616 242.150236 498.622518 
C 238.403877 502.368877 236.298899 507.450743 236.298899 512.748894 
C 236.298899 518.047045 238.403877 523.128911 242.150236 526.87527 
C 245.896594 530.621629 250.97846 532.726606 256.276612 532.726606 
z
" clip-path="url(#pbc1cecb32c)" style="fill: #c70039; fill-opacity: 0.99; stroke: #c70039; stroke-opacity: 0.99"/>
    <path d="M 343.900953 523.318824 
C 349.170549 523.318824 354.225025 521.225192 357.951192 517.499025 
C 361.677359 513.772858 363.770991 508.718382 363.770991 503.448786 
C 363.770991 498.17919 361.677359 493.124714 357.951192 489.398547 
C 354.225025 485.67238 349.170549 483.578748 343.900953 483.578748 
C 338.631357 483.578748 333.576881 485.67238 329.850714 489.398547 
C 326.124547 493.124714 324.030915 498.17919 324.030915 503.448786 
C 324.030915 508.718382 326.124547 513.772858 329.850714 517.499025 
C 333.576881 521.225192 338.631357 523.318824 343.900953 523.318824 
z
" clip-path="url(#pbc1cecb32c)" style="fill: #c70039; fill-opacity: 0.99; stroke: #c70039; stroke-opacity: 0.99"/>
    <path d="M 420.203857 478.610344 
C 425.414443 478.610344 430.412318 476.540156 434.096758 472.855716 
C 437.781199 469.171275 439.851386 464.1734 439.851386 458.962815 
C 439.851386 453.752229 437.781199 448.754354 434.096758 445.069913 
C 430.412318 441.385473 425.414443 439.315285 420.203857 439.315285 
C 414.993271 439.315285 409.995396 441.385473 406.310956 445.069913 
C 402.626515 448.754354 400.556328 453.752229 400.556328 458.962815 
C 400.556328 464.1734 402.626515 469.171275 406.310956 472.855716 
C 409.995396 476.540156 414.993271 478.610344 420.203857 478.610344 
z
" clip-path="url(#pbc1cecb32c)" style="fill: #c70039; fill-opacity: 0.99; stroke: #c70039; stroke-opacity: 0.99"/>
    <path d="M 471.991844 406.347948 
C 477.12748 406.347948 482.053465 404.307538 485.684908 400.676095 
C 489.316351 397.044652 491.356761 392.118667 491.356761 386.983031 
C 491.356761 381.847395 489.316351 376.92141 485.684908 373.289967 
C 482.053465 369.658524 477.12748 367.618115 471.991844 367.618115 
C 466.856208 367.618115 461.930223 369.658524 458.29878 373.289967 
C 454.667337 376.92141 452.626927 381.847395 452.626927 386.983031 
C 452.626927 392.118667 454.667337 397.044652 458.29878 400.676095 
C 461.930223 404.307538 466.856208 406.347948 471.991844 406.347948 
z
" clip-path="url(#pbc1cecb32c)" style="fill: #c70039; fill-opacity: 0.99; stroke: #c70039; stroke-opacity: 0.99"/>
   </g>
   <g id="text_1">
    <g id="patch_2">
     <path d="M 453.827253 308.270568 
L 526.793347 308.270568 
L 526.793347 291.640256 
L 453.827253 291.640256 
z
" clip-path="url(#pbc1cecb32c)" style="fill: #ffffff; opacity: 0.7; stroke: #000000; stroke-linejoin: miter"/>
    </g>
    <g clip-path="url(#pbc1cecb32c)">
     <!-- William Hanna -->
     <g transform="translate(457.787253 302.438849)scale(0.09 -0.09)">
      <defs>
       <path id="DejaVuSans-57" d="M 213 4666 
L 850 4666 
L 1831 722 
L 2809 4666 
L 3519 4666 
L 4500 722 
L 5478 4666 
L 6119 4666 
L 4947 0 
L 4153 0 
L 3169 4050 
L 2175 0 
L 1381 0 
L 213 4666 
z
" transform="scale(0.015625)"/>
       <path id="DejaVuSans-69" d="M 603 3500 
L 1178 3500 
L 1178 0 
L 603 0 
L 603 3500 
z
M 603 4863 
L 1178 4863 
L 1178 4134 
L 603 4134 
L 603 4863 
z
" transform="scale(0.015625)"/>
       <path id="DejaVuSans-6c" d="M 603 4863 
L 1178 4863 
L 1178 0 
L 603 0 
L 603 4863 
z
" transform="scale(0.015625)"/>
       <path id="DejaVuSans-61" d="M 2194 1759 
Q 1497 1759 1228 1600 
Q 959 1441 959 1056 
Q 959 750 1161 570 
Q 1363 391 1709 391 
Q 2188 391 2477 730 
Q 2766 1069 2766 1631 
L 2766 1759 
L 2194 1759 
z
M 3341 1997 
L 3341 0 
L 2766 0 
L 2766 531 
Q 2569 213 2275 61 
Q 1981 -91 1556 -91 
Q 1019 -91 701 211 
Q 384 513 384 1019 
Q 384 1609 779 1909 
Q 1175 2209 1959 2209 
L 2766 2209 
L 2766 2266 
Q 2766 2663 2505 2880 
Q 2244 3097 1772 3097 
Q 1472 3097 1187 3025 
Q 903 2953 641 2809 
L 641 3341 
Q 956 3463 1253 3523 
Q 1550 3584 1831 3584 
Q 2591 3584 2966 3190 
Q 3341 2797 3341 1997 
z
" transform="scale(0.015625)"/>
       <path id="DejaVuSans-6d" d="M 3328 2828 
Q 3544 3216 3844 3400 
Q 4144 3584 4550 3584 
Q 5097 3584 5394 3201 
Q 5691 2819 5691 2113 
L 5691 0 
L 5113 0 
L 5113 2094 
Q 5113 2597 4934 2840 
Q 4756 3084 4391 3084 
Q 3944 3084 3684 2787 
Q 3425 2491 3425 1978 
L 3425 0 
L 2847 0 
L 2847 2094 
Q 2847 2600 2669 2842 
Q 2491 3084 2119 3084 
Q 1678 3084 1418 2786 
Q 1159 2488 1159 1978 
L 1159 0 
L 581 0 
L 581 3500 
L 1159 3500 
L 1159 2956 
Q 1356 3278 1631 3431 
Q 1906 3584 2284 3584 
Q 2666 3584 2933 3390 
Q 3200 3197 3328 2828 
z
" transform="scale(0.015625)"/>
       <path id="DejaVuSans-20" transform="scale(0.015625)"/>
       <path id="DejaVuSans-48" d="M 628 4666 
L 1259 4666 
L 1259 2753 
L 3553 2753 
L 3553 4666 
L 4184 4666 
L 4184 0 
L 3553 0 
L 3553 2222 
L 1259 2222 
L 1259 0 
L 628 0 
L 628 4666 
z
" transform="scale(0.015625)"/>
       <path id="DejaVuSans-6e" d="M 3513 2113 
L 3513 0 
L 2938 0 
L 2938 2094 
Q 2938 2591 2744 2837 
Q 2550 3084 2163 3084 
Q 1697 3084 1428 2787 
Q 1159 2491 1159 1978 
L 1159 0 
L 581 0 
L 581 3500 
L 1159 3500 
L 1159 2956 
Q 1366 3272 1645 3428 
Q 1925 3584 2291 3584 
Q 2894 3584 3203 3211 
Q 3513 2838 3513 2113 
z
" transform="scale(0.015625)"/>
      </defs>
      <use xlink:href="#DejaVuSans-57"/>
      <use xlink:href="#DejaVuSans-69" x="96.626953"/>
      <use xlink:href="#DejaVuSans-6c" x="124.410156"/>
      <use xlink:href="#DejaVuSans-6c" x="152.193359"/>
      <use xlink:href="#DejaVuSans-69" x="179.976562"/>
      <use xlink:href="#DejaVuSans-61" x="207.759766"/>
      <use xlink:href="#DejaVuSans-6d" x="269.039062"/>
      <use xlink:href="#DejaVuSans-20" x="366.451172"/>
      <use xlink:href="#DejaVuSans-48" x="398.238281"/>
      <use xlink:href="#DejaVuSans-61" x="473.433594"/>
      <use xlink:href="#DejaVuSans-6e" x="534.712891"/>
      <use xlink:href="#DejaVuSans-6e" x="598.091797"/>
      <use xlink:href="#DejaVuSans-61" x="661.470703"/>
     </g>
    </g>
   </g>
   <g id="text_2">
    <g id="patch_3">
     <path d="M 433.770647 221.242917 
L 510.21299 221.242917 
L 510.21299 204.612604 
L 433.770647 204.612604 
z
" clip-path="url(#pbc1cecb32c)" style="fill: #ffffff; opacity: 0.7; stroke: #000000; stroke-linejoin: miter"/>
    </g>
    <g clip-path="url(#pbc1cecb32c)">
     <!-- Joseph Barbera -->
     <g transform="translate(437.730647 215.411198)scale(0.09 -0.09)">
      <defs>
       <path id="DejaVuSans-4a" d="M 628 4666 
L 1259 4666 
L 1259 325 
Q 1259 -519 939 -900 
Q 619 -1281 -91 -1281 
L -331 -1281 
L -331 -750 
L -134 -750 
Q 284 -750 456 -515 
Q 628 -281 628 325 
L 628 4666 
z
" transform="scale(0.015625)"/>
       <path id="DejaVuSans-6f" d="M 1959 3097 
Q 1497 3097 1228 2736 
Q 959 2375 959 1747 
Q 959 1119 1226 758 
Q 1494 397 1959 397 
Q 2419 397 2687 759 
Q 2956 1122 2956 1747 
Q 2956 2369 2687 2733 
Q 2419 3097 1959 3097 
z
M 1959 3584 
Q 2709 3584 3137 3096 
Q 3566 2609 3566 1747 
Q 3566 888 3137 398 
Q 2709 -91 1959 -91 
Q 1206 -91 779 398 
Q 353 888 353 1747 
Q 353 2609 779 3096 
Q 1206 3584 1959 3584 
z
" transform="scale(0.015625)"/>
       <path id="DejaVuSans-73" d="M 2834 3397 
L 2834 2853 
Q 2591 2978 2328 3040 
Q 2066 3103 1784 3103 
Q 1356 3103 1142 2972 
Q 928 2841 928 2578 
Q 928 2378 1081 2264 
Q 1234 2150 1697 2047 
L 1894 2003 
Q 2506 1872 2764 1633 
Q 3022 1394 3022 966 
Q 3022 478 2636 193 
Q 2250 -91 1575 -91 
Q 1294 -91 989 -36 
Q 684 19 347 128 
L 347 722 
Q 666 556 975 473 
Q 1284 391 1588 391 
Q 1994 391 2212 530 
Q 2431 669 2431 922 
Q 2431 1156 2273 1281 
Q 2116 1406 1581 1522 
L 1381 1569 
Q 847 1681 609 1914 
Q 372 2147 372 2553 
Q 372 3047 722 3315 
Q 1072 3584 1716 3584 
Q 2034 3584 2315 3537 
Q 2597 3491 2834 3397 
z
" transform="scale(0.015625)"/>
       <path id="DejaVuSans-65" d="M 3597 1894 
L 3597 1613 
L 953 1613 
Q 991 1019 1311 708 
Q 1631 397 2203 397 
Q 2534 397 2845 478 
Q 3156 559 3463 722 
L 3463 178 
Q 3153 47 2828 -22 
Q 2503 -91 2169 -91 
Q 1331 -91 842 396 
Q 353 884 353 1716 
Q 353 2575 817 3079 
Q 1281 3584 2069 3584 
Q 2775 3584 3186 3129 
Q 3597 2675 3597 1894 
z
M 3022 2063 
Q 3016 2534 2758 2815 
Q 2500 3097 2075 3097 
Q 1594 3097 1305 2825 
Q 1016 2553 972 2059 
L 3022 2063 
z
" transform="scale(0.015625)"/>
       <path id="DejaVuSans-70" d="M 1159 525 
L 1159 -1331 
L 581 -1331 
L 581 3500 
L 1159 3500 
L 1159 2969 
Q 1341 3281 1617 3432 
Q 1894 3584 2278 3584 
Q 2916 3584 3314 3078 
Q 3713 2572 3713 1747 
Q 3713 922 3314 415 
Q 2916 -91 2278 -91 
Q 1894 -91 1617 61 
Q 1341 213 1159 525 
z
M 3116 1747 
Q 3116 2381 2855 2742 
Q 2594 3103 2138 3103 
Q 1681 3103 1420 2742 
Q 1159 2381 1159 1747 
Q 1159 1113 1420 752 
Q 1681 391 2138 391 
Q 2594 391 2855 752 
Q 3116 1113 3116 1747 
z
" transform="scale(0.015625)"/>
       <path id="DejaVuSans-68" d="M 3513 2113 
L 3513 0 
L 2938 0 
L 2938 2094 
Q 2938 2591 2744 2837 
Q 2550 3084 2163 3084 
Q 1697 3084 1428 2787 
Q 1159 2491 1159 1978 
L 1159 0 
L 581 0 
L 581 4863 
L 1159 4863 
L 1159 2956 
Q 1366 3272 1645 3428 
Q 1925 3584 2291 3584 
Q 2894 3584 3203 3211 
Q 3513 2838 3513 2113 
z
" transform="scale(0.015625)"/>
       <path id="DejaVuSans-42" d="M 1259 2228 
L 1259 519 
L 2272 519 
Q 2781 519 3026 730 
Q 3272 941 3272 1375 
Q 3272 1813 3026 2020 
Q 2781 2228 2272 2228 
L 1259 2228 
z
M 1259 4147 
L 1259 2741 
L 2194 2741 
Q 2656 2741 2882 2914 
Q 3109 3088 3109 3444 
Q 3109 3797 2882 3972 
Q 2656 4147 2194 4147 
L 1259 4147 
z
M 628 4666 
L 2241 4666 
Q 2963 4666 3353 4366 
Q 3744 4066 3744 3513 
Q 3744 3084 3544 2831 
Q 3344 2578 2956 2516 
Q 3422 2416 3680 2098 
Q 3938 1781 3938 1306 
Q 3938 681 3513 340 
Q 3088 0 2303 0 
L 628 0 
L 628 4666 
z
" transform="scale(0.015625)"/>
       <path id="DejaVuSans-72" d="M 2631 2963 
Q 2534 3019 2420 3045 
Q 2306 3072 2169 3072 
Q 1681 3072 1420 2755 
Q 1159 2438 1159 1844 
L 1159 0 
L 581 0 
L 581 3500 
L 1159 3500 
L 1159 2956 
Q 1341 3275 1631 3429 
Q 1922 3584 2338 3584 
Q 2397 3584 2469 3576 
Q 2541 3569 2628 3553 
L 2631 2963 
z
" transform="scale(0.015625)"/>
       <path id="DejaVuSans-62" d="M 3116 1747 
Q 3116 2381 2855 2742 
Q 2594 3103 2138 3103 
Q 1681 3103 1420 2742 
Q 1159 2381 1159 1747 
Q 1159 1113 1420 752 
Q 1681 391 2138 391 
Q 2594 391 2855 752 
Q 3116 1113 3116 1747 
z
M 1159 2969 
Q 1341 3281 1617 3432 
Q 1894 3584 2278 3584 
Q 2916 3584 3314 3078 
Q 3713 2572 3713 1747 
Q 3713 922 3314 415 
Q 2916 -91 2278 -91 
Q 1894 -91 1617 61 
Q 1341 213 1159 525 
L 1159 0 
L 581 0 
L 581 4863 
L 1159 4863 
L 1159 2969 
z
" transform="scale(0.015625)"/>
      </defs>
      <use xlink:href="#DejaVuSans-4a"/>
      <use xlink:href="#DejaVuSans-6f" x="29.492188"/>
      <use xlink:href="#DejaVuSans-73" x="90.673828"/>
      <use xlink:href="#DejaVuSans-65" x="142.773438"/>
      <use xlink:href="#DejaVuSans-70" x="204.296875"/>
      <use xlink:href="#DejaVuSans-68" x="267.773438"/>
      <use xlink:href="#DejaVuSans-20" x="331.152344"/>
      <use xlink:href="#DejaVuSans-42" x="362.939453"/>
      <use xlink:href="#DejaVuSans-61" x="431.542969"/>
      <use xlink:href="#DejaVuSans-72" x="492.822266"/>
      <use xlink:href="#DejaVuSans-62" x="533.935547"/>
      <use xlink:href="#DejaVuSans-65" x="597.412109"/>
      <use xlink:href="#DejaVuSans-72" x="658.935547"/>
      <use xlink:href="#DejaVuSans-61" x="700.048828"/>
     </g>
    </g>
   </g>
   <g id="text_3">
    <g id="patch_4">
     <path d="M 388.841632 149.263127 
L 451.566007 149.263127 
L 451.566007 132.632815 
L 388.841632 132.632815 
z
" clip-path="url(#pbc1cecb32c)" style="fill: #ffffff; opacity: 0.7; stroke: #000000; stroke-linejoin: miter"/>
    </g>
    <g clip-path="url(#pbc1cecb32c)">
     <!-- Chuck Jones -->
     <g transform="translate(392.801632 143.431409)scale(0.09 -0.09)">
      <defs>
       <path id="DejaVuSans-43" d="M 4122 4306 
L 4122 3641 
Q 3803 3938 3442 4084 
Q 3081 4231 2675 4231 
Q 1875 4231 1450 3742 
Q 1025 3253 1025 2328 
Q 1025 1406 1450 917 
Q 1875 428 2675 428 
Q 3081 428 3442 575 
Q 3803 722 4122 1019 
L 4122 359 
Q 3791 134 3420 21 
Q 3050 -91 2638 -91 
Q 1578 -91 968 557 
Q 359 1206 359 2328 
Q 359 3453 968 4101 
Q 1578 4750 2638 4750 
Q 3056 4750 3426 4639 
Q 3797 4528 4122 4306 
z
" transform="scale(0.015625)"/>
       <path id="DejaVuSans-75" d="M 544 1381 
L 544 3500 
L 1119 3500 
L 1119 1403 
Q 1119 906 1312 657 
Q 1506 409 1894 409 
Q 2359 409 2629 706 
Q 2900 1003 2900 1516 
L 2900 3500 
L 3475 3500 
L 3475 0 
L 2900 0 
L 2900 538 
Q 2691 219 2414 64 
Q 2138 -91 1772 -91 
Q 1169 -91 856 284 
Q 544 659 544 1381 
z
M 1991 3584 
L 1991 3584 
z
" transform="scale(0.015625)"/>
       <path id="DejaVuSans-63" d="M 3122 3366 
L 3122 2828 
Q 2878 2963 2633 3030 
Q 2388 3097 2138 3097 
Q 1578 3097 1268 2742 
Q 959 2388 959 1747 
Q 959 1106 1268 751 
Q 1578 397 2138 397 
Q 2388 397 2633 464 
Q 2878 531 3122 666 
L 3122 134 
Q 2881 22 2623 -34 
Q 2366 -91 2075 -91 
Q 1284 -91 818 406 
Q 353 903 353 1747 
Q 353 2603 823 3093 
Q 1294 3584 2113 3584 
Q 2378 3584 2631 3529 
Q 2884 3475 3122 3366 
z
" transform="scale(0.015625)"/>
       <path id="DejaVuSans-6b" d="M 581 4863 
L 1159 4863 
L 1159 1991 
L 2875 3500 
L 3609 3500 
L 1753 1863 
L 3688 0 
L 2938 0 
L 1159 1709 
L 1159 0 
L 581 0 
L 581 4863 
z
" transform="scale(0.015625)"/>
      </defs>
      <use xlink:href="#DejaVuSans-43"/>
      <use xlink:href="#DejaVuSans-68" x="69.824219"/>
      <use xlink:href="#DejaVuSans-75" x="133.203125"/>
      <use xlink:href="#DejaVuSans-63" x="196.582031"/>
      <use xlink:href="#DejaVuSans-6b" x="251.5625"/>
      <use xlink:href="#DejaVuSans-20" x="309.472656"/>
      <use xlink:href="#DejaVuSans-4a" x="341.259766"/>
      <use xlink:href="#DejaVuSans-6f" x="370.751953"/>
      <use xlink:href="#DejaVuSans-6e" x="431.933594"/>
      <use xlink:href="#DejaVuSans-65" x="495.3125"/>
      <use xlink:href="#DejaVuSans-73" x="556.835938"/>
     </g>
    </g>
   </g>
   <g id="text_4">
    <g id="patch_5">
     <path d="M 314.279672 104.777181 
L 373.522172 104.777181 
L 373.522172 88.146869 
L 314.279672 88.146869 
z
" clip-path="url(#pbc1cecb32c)" style="fill: #ffffff; opacity: 0.7; stroke: #000000; stroke-linejoin: miter"/>
    </g>
    <g clip-path="url(#pbc1cecb32c)">
     <!-- Friz Freleng -->
     <g transform="translate(318.239672 98.945463)scale(0.09 -0.09)">
      <defs>
       <path id="DejaVuSans-46" d="M 628 4666 
L 3309 4666 
L 3309 4134 
L 1259 4134 
L 1259 2759 
L 3109 2759 
L 3109 2228 
L 1259 2228 
L 1259 0 
L 628 0 
L 628 4666 
z
" transform="scale(0.015625)"/>
       <path id="DejaVuSans-7a" d="M 353 3500 
L 3084 3500 
L 3084 2975 
L 922 459 
L 3084 459 
L 3084 0 
L 275 0 
L 275 525 
L 2438 3041 
L 353 3041 
L 353 3500 
z
" transform="scale(0.015625)"/>
       <path id="DejaVuSans-67" d="M 2906 1791 
Q 2906 2416 2648 2759 
Q 2391 3103 1925 3103 
Q 1463 3103 1205 2759 
Q 947 2416 947 1791 
Q 947 1169 1205 825 
Q 1463 481 1925 481 
Q 2391 481 2648 825 
Q 2906 1169 2906 1791 
z
M 3481 434 
Q 3481 -459 3084 -895 
Q 2688 -1331 1869 -1331 
Q 1566 -1331 1297 -1286 
Q 1028 -1241 775 -1147 
L 775 -588 
Q 1028 -725 1275 -790 
Q 1522 -856 1778 -856 
Q 2344 -856 2625 -561 
Q 2906 -266 2906 331 
L 2906 616 
Q 2728 306 2450 153 
Q 2172 0 1784 0 
Q 1141 0 747 490 
Q 353 981 353 1791 
Q 353 2603 747 3093 
Q 1141 3584 1784 3584 
Q 2172 3584 2450 3431 
Q 2728 3278 2906 2969 
L 2906 3500 
L 3481 3500 
L 3481 434 
z
" transform="scale(0.015625)"/>
      </defs>
      <use xlink:href="#DejaVuSans-46"/>
      <use xlink:href="#DejaVuSans-72" x="50.269531"/>
      <use xlink:href="#DejaVuSans-69" x="91.382812"/>
      <use xlink:href="#DejaVuSans-7a" x="119.166016"/>
      <use xlink:href="#DejaVuSans-20" x="171.65625"/>
      <use xlink:href="#DejaVuSans-46" x="203.443359"/>
      <use xlink:href="#DejaVuSans-72" x="253.712891"/>
      <use xlink:href="#DejaVuSans-65" x="292.576172"/>
      <use xlink:href="#DejaVuSans-6c" x="354.099609"/>
      <use xlink:href="#DejaVuSans-65" x="381.882812"/>
      <use xlink:href="#DejaVuSans-6e" x="443.40625"/>
      <use xlink:href="#DejaVuSans-67" x="506.785156"/>
     </g>
    </g>
   </g>
   <g id="text_5">
    <g id="patch_6">
     <path d="M 226.768527 95.477086 
L 285.784621 95.477086 
L 285.784621 78.846773 
L 226.768527 78.846773 
z
" clip-path="url(#pbc1cecb32c)" style="fill: #ffffff; opacity: 0.7; stroke: #000000; stroke-linejoin: miter"/>
    </g>
    <g clip-path="url(#pbc1cecb32c)">
     <!-- Alan Parker -->
     <g transform="translate(230.728527 89.645367)scale(0.09 -0.09)">
      <defs>
       <path id="DejaVuSans-41" d="M 2188 4044 
L 1331 1722 
L 3047 1722 
L 2188 4044 
z
M 1831 4666 
L 2547 4666 
L 4325 0 
L 3669 0 
L 3244 1197 
L 1141 1197 
L 716 0 
L 50 0 
L 1831 4666 
z
" transform="scale(0.015625)"/>
       <path id="DejaVuSans-50" d="M 1259 4147 
L 1259 2394 
L 2053 2394 
Q 2494 2394 2734 2622 
Q 2975 2850 2975 3272 
Q 2975 3691 2734 3919 
Q 2494 4147 2053 4147 
L 1259 4147 
z
M 628 4666 
L 2053 4666 
Q 2838 4666 3239 4311 
Q 3641 3956 3641 3272 
Q 3641 2581 3239 2228 
Q 2838 1875 2053 1875 
L 1259 1875 
L 1259 0 
L 628 0 
L 628 4666 
z
" transform="scale(0.015625)"/>
      </defs>
      <use xlink:href="#DejaVuSans-41"/>
      <use xlink:href="#DejaVuSans-6c" x="68.408203"/>
      <use xlink:href="#DejaVuSans-61" x="96.191406"/>
      <use xlink:href="#DejaVuSans-6e" x="157.470703"/>
      <use xlink:href="#DejaVuSans-20" x="220.849609"/>
      <use xlink:href="#DejaVuSans-50" x="252.636719"/>
      <use xlink:href="#DejaVuSans-61" x="308.439453"/>
      <use xlink:href="#DejaVuSans-72" x="369.71875"/>
      <use xlink:href="#DejaVuSans-6b" x="410.832031"/>
      <use xlink:href="#DejaVuSans-65" x="465.117188"/>
      <use xlink:href="#DejaVuSans-72" x="526.640625"/>
     </g>
    </g>
   </g>
   <g id="text_6">
    <g id="patch_7">
     <path d="M 138.612301 122.970923 
L 206.351364 122.970923 
L 206.351364 106.340611 
L 138.612301 106.340611 
z
" clip-path="url(#pbc1cecb32c)" style="fill: #ffffff; opacity: 0.7; stroke: #000000; stroke-linejoin: miter"/>
    </g>
    <g clip-path="url(#pbc1cecb32c)">
     <!-- John Badham -->
     <g transform="translate(142.572301 117.139204)scale(0.09 -0.09)">
      <defs>
       <path id="DejaVuSans-64" d="M 2906 2969 
L 2906 4863 
L 3481 4863 
L 3481 0 
L 2906 0 
L 2906 525 
Q 2725 213 2448 61 
Q 2172 -91 1784 -91 
Q 1150 -91 751 415 
Q 353 922 353 1747 
Q 353 2572 751 3078 
Q 1150 3584 1784 3584 
Q 2172 3584 2448 3432 
Q 2725 3281 2906 2969 
z
M 947 1747 
Q 947 1113 1208 752 
Q 1469 391 1925 391 
Q 2381 391 2643 752 
Q 2906 1113 2906 1747 
Q 2906 2381 2643 2742 
Q 2381 3103 1925 3103 
Q 1469 3103 1208 2742 
Q 947 2381 947 1747 
z
" transform="scale(0.015625)"/>
      </defs>
      <use xlink:href="#DejaVuSans-4a"/>
      <use xlink:href="#DejaVuSans-6f" x="29.492188"/>
      <use xlink:href="#DejaVuSans-68" x="90.673828"/>
      <use xlink:href="#DejaVuSans-6e" x="154.052734"/>
      <use xlink:href="#DejaVuSans-20" x="217.431641"/>
      <use xlink:href="#DejaVuSans-42" x="249.21875"/>
      <use xlink:href="#DejaVuSans-61" x="317.822266"/>
      <use xlink:href="#DejaVuSans-64" x="379.101562"/>
      <use xlink:href="#DejaVuSans-68" x="442.578125"/>
      <use xlink:href="#DejaVuSans-61" x="505.957031"/>
      <use xlink:href="#DejaVuSans-6d" x="567.236328"/>
     </g>
    </g>
   </g>
   <g id="text_7">
    <g id="patch_8">
     <path d="M 67.098315 182.504744 
L 146.912846 182.504744 
L 146.912846 165.874431 
L 67.098315 165.874431 
z
" clip-path="url(#pbc1cecb32c)" style="fill: #ffffff; opacity: 0.7; stroke: #000000; stroke-linejoin: miter"/>
    </g>
    <g clip-path="url(#pbc1cecb32c)">
     <!-- Martin Scorsese -->
     <g transform="translate(71.058315 176.673025)scale(0.09 -0.09)">
      <defs>
       <path id="DejaVuSans-4d" d="M 628 4666 
L 1569 4666 
L 2759 1491 
L 3956 4666 
L 4897 4666 
L 4897 0 
L 4281 0 
L 4281 4097 
L 3078 897 
L 2444 897 
L 1241 4097 
L 1241 0 
L 628 0 
L 628 4666 
z
" transform="scale(0.015625)"/>
       <path id="DejaVuSans-74" d="M 1172 4494 
L 1172 3500 
L 2356 3500 
L 2356 3053 
L 1172 3053 
L 1172 1153 
Q 1172 725 1289 603 
Q 1406 481 1766 481 
L 2356 481 
L 2356 0 
L 1766 0 
Q 1100 0 847 248 
Q 594 497 594 1153 
L 594 3053 
L 172 3053 
L 172 3500 
L 594 3500 
L 594 4494 
L 1172 4494 
z
" transform="scale(0.015625)"/>
       <path id="DejaVuSans-53" d="M 3425 4513 
L 3425 3897 
Q 3066 4069 2747 4153 
Q 2428 4238 2131 4238 
Q 1616 4238 1336 4038 
Q 1056 3838 1056 3469 
Q 1056 3159 1242 3001 
Q 1428 2844 1947 2747 
L 2328 2669 
Q 3034 2534 3370 2195 
Q 3706 1856 3706 1288 
Q 3706 609 3251 259 
Q 2797 -91 1919 -91 
Q 1588 -91 1214 -16 
Q 841 59 441 206 
L 441 856 
Q 825 641 1194 531 
Q 1563 422 1919 422 
Q 2459 422 2753 634 
Q 3047 847 3047 1241 
Q 3047 1584 2836 1778 
Q 2625 1972 2144 2069 
L 1759 2144 
Q 1053 2284 737 2584 
Q 422 2884 422 3419 
Q 422 4038 858 4394 
Q 1294 4750 2059 4750 
Q 2388 4750 2728 4690 
Q 3069 4631 3425 4513 
z
" transform="scale(0.015625)"/>
      </defs>
      <use xlink:href="#DejaVuSans-4d"/>
      <use xlink:href="#DejaVuSans-61" x="86.279297"/>
      <use xlink:href="#DejaVuSans-72" x="147.558594"/>
      <use xlink:href="#DejaVuSans-74" x="188.671875"/>
      <use xlink:href="#DejaVuSans-69" x="227.880859"/>
      <use xlink:href="#DejaVuSans-6e" x="255.664062"/>
      <use xlink:href="#DejaVuSans-20" x="319.042969"/>
      <use xlink:href="#DejaVuSans-53" x="350.830078"/>
      <use xlink:href="#DejaVuSans-63" x="414.306641"/>
      <use xlink:href="#DejaVuSans-6f" x="469.287109"/>
      <use xlink:href="#DejaVuSans-72" x="530.46875"/>
      <use xlink:href="#DejaVuSans-73" x="571.582031"/>
      <use xlink:href="#DejaVuSans-65" x="623.681641"/>
      <use xlink:href="#DejaVuSans-73" x="685.205078"/>
      <use xlink:href="#DejaVuSans-65" x="737.304688"/>
     </g>
    </g>
   </g>
   <g id="text_8">
    <g id="patch_9">
     <path d="M 43.913996 263.784635 
L 98.424465 263.784635 
L 98.424465 247.154322 
L 43.913996 247.154322 
z
" clip-path="url(#pbc1cecb32c)" style="fill: #ffffff; opacity: 0.7; stroke: #000000; stroke-linejoin: miter"/>
    </g>
    <g clip-path="url(#pbc1cecb32c)">
     <!-- Tony Scott -->
     <g transform="translate(47.873996 257.952916)scale(0.09 -0.09)">
      <defs>
       <path id="DejaVuSans-54" d="M -19 4666 
L 3928 4666 
L 3928 4134 
L 2272 4134 
L 2272 0 
L 1638 0 
L 1638 4134 
L -19 4134 
L -19 4666 
z
" transform="scale(0.015625)"/>
       <path id="DejaVuSans-79" d="M 2059 -325 
Q 1816 -950 1584 -1140 
Q 1353 -1331 966 -1331 
L 506 -1331 
L 506 -850 
L 844 -850 
Q 1081 -850 1212 -737 
Q 1344 -625 1503 -206 
L 1606 56 
L 191 3500 
L 800 3500 
L 1894 763 
L 2988 3500 
L 3597 3500 
L 2059 -325 
z
" transform="scale(0.015625)"/>
      </defs>
      <use xlink:href="#DejaVuSans-54"/>
      <use xlink:href="#DejaVuSans-6f" x="44.083984"/>
      <use xlink:href="#DejaVuSans-6e" x="105.265625"/>
      <use xlink:href="#DejaVuSans-79" x="168.644531"/>
      <use xlink:href="#DejaVuSans-20" x="227.824219"/>
      <use xlink:href="#DejaVuSans-53" x="259.611328"/>
      <use xlink:href="#DejaVuSans-63" x="323.087891"/>
      <use xlink:href="#DejaVuSans-6f" x="378.068359"/>
      <use xlink:href="#DejaVuSans-74" x="439.25"/>
      <use xlink:href="#DejaVuSans-74" x="478.458984"/>
     </g>
    </g>
   </g>
   <g id="text_9">
    <g id="patch_10">
     <path d="M 20.381822 352.75654 
L 121.956665 352.75654 
L 121.956665 336.126227 
L 20.381822 336.126227 
z
" clip-path="url(#pbc1cecb32c)" style="fill: #ffffff; opacity: 0.7; stroke: #000000; stroke-linejoin: miter"/>
    </g>
    <g clip-path="url(#pbc1cecb32c)">
     <!-- Francis Ford Coppola -->
     <g transform="translate(24.341822 346.924821)scale(0.09 -0.09)">
      <use xlink:href="#DejaVuSans-46"/>
      <use xlink:href="#DejaVuSans-72" x="50.269531"/>
      <use xlink:href="#DejaVuSans-61" x="91.382812"/>
      <use xlink:href="#DejaVuSans-6e" x="152.662109"/>
      <use xlink:href="#DejaVuSans-63" x="216.041016"/>
      <use xlink:href="#DejaVuSans-69" x="271.021484"/>
      <use xlink:href="#DejaVuSans-73" x="298.804688"/>
      <use xlink:href="#DejaVuSans-20" x="350.904297"/>
      <use xlink:href="#DejaVuSans-46" x="382.691406"/>
      <use xlink:href="#DejaVuSans-6f" x="436.585938"/>
      <use xlink:href="#DejaVuSans-72" x="497.767578"/>
      <use xlink:href="#DejaVuSans-64" x="537.130859"/>
      <use xlink:href="#DejaVuSans-20" x="600.607422"/>
      <use xlink:href="#DejaVuSans-43" x="632.394531"/>
      <use xlink:href="#DejaVuSans-6f" x="702.21875"/>
      <use xlink:href="#DejaVuSans-70" x="763.400391"/>
      <use xlink:href="#DejaVuSans-70" x="826.876953"/>
      <use xlink:href="#DejaVuSans-6f" x="890.353516"/>
      <use xlink:href="#DejaVuSans-6c" x="951.535156"/>
      <use xlink:href="#DejaVuSans-61" x="979.318359"/>
     </g>
    </g>
   </g>
   <g id="text_10">
    <g id="patch_11">
     <path d="M 71.054812 434.036406 
L 142.956374 434.036406 
L 142.956374 417.406093 
L 71.054812 417.406093 
z
" clip-path="url(#pbc1cecb32c)" style="fill: #ffffff; opacity: 0.7; stroke: #000000; stroke-linejoin: miter"/>
    </g>
    <g clip-path="url(#pbc1cecb32c)">
     <!-- Michael Apted -->
     <g transform="translate(75.014812 428.204687)scale(0.09 -0.09)">
      <use xlink:href="#DejaVuSans-4d"/>
      <use xlink:href="#DejaVuSans-69" x="86.279297"/>
      <use xlink:href="#DejaVuSans-63" x="114.0625"/>
      <use xlink:href="#DejaVuSans-68" x="169.042969"/>
      <use xlink:href="#DejaVuSans-61" x="232.421875"/>
      <use xlink:href="#DejaVuSans-65" x="293.701172"/>
      <use xlink:href="#DejaVuSans-6c" x="355.224609"/>
      <use xlink:href="#DejaVuSans-20" x="383.007812"/>
      <use xlink:href="#DejaVuSans-41" x="414.794922"/>
      <use xlink:href="#DejaVuSans-70" x="483.203125"/>
      <use xlink:href="#DejaVuSans-74" x="546.679688"/>
      <use xlink:href="#DejaVuSans-65" x="585.888672"/>
      <use xlink:href="#DejaVuSans-64" x="647.412109"/>
     </g>
    </g>
   </g>
   <g id="text_11">
    <g id="patch_12">
     <path d="M 143.464598 493.570226 
L 201.49913 493.570226 
L 201.49913 476.939914 
L 143.464598 476.939914 
z
" clip-path="url(#pbc1cecb32c)" style="fill: #ffffff; opacity: 0.7; stroke: #000000; stroke-linejoin: miter"/>
    </g>
    <g clip-path="url(#pbc1cecb32c)">
     <!-- Jules White -->
     <g transform="translate(147.424598 487.738507)scale(0.09 -0.09)">
      <use xlink:href="#DejaVuSans-4a"/>
      <use xlink:href="#DejaVuSans-75" x="29.492188"/>
      <use xlink:href="#DejaVuSans-6c" x="92.871094"/>
      <use xlink:href="#DejaVuSans-65" x="120.654297"/>
      <use xlink:href="#DejaVuSans-73" x="182.177734"/>
      <use xlink:href="#DejaVuSans-20" x="234.277344"/>
      <use xlink:href="#DejaVuSans-57" x="266.064453"/>
      <use xlink:href="#DejaVuSans-68" x="364.941406"/>
      <use xlink:href="#DejaVuSans-69" x="428.320312"/>
      <use xlink:href="#DejaVuSans-74" x="456.103516"/>
      <use xlink:href="#DejaVuSans-65" x="495.3125"/>
     </g>
    </g>
   </g>
   <g id="text_12">
    <g id="patch_13">
     <path d="M 217.765752 521.06405 
L 294.787471 521.06405 
L 294.787471 504.433738 
L 217.765752 504.433738 
z
" clip-path="url(#pbc1cecb32c)" style="fill: #ffffff; opacity: 0.7; stroke: #000000; stroke-linejoin: miter"/>
    </g>
    <g clip-path="url(#pbc1cecb32c)">
     <!-- Brian De Palma -->
     <g transform="translate(221.725752 515.232332)scale(0.09 -0.09)">
      <defs>
       <path id="DejaVuSans-44" d="M 1259 4147 
L 1259 519 
L 2022 519 
Q 2988 519 3436 956 
Q 3884 1394 3884 2338 
Q 3884 3275 3436 3711 
Q 2988 4147 2022 4147 
L 1259 4147 
z
M 628 4666 
L 1925 4666 
Q 3281 4666 3915 4102 
Q 4550 3538 4550 2338 
Q 4550 1131 3912 565 
Q 3275 0 1925 0 
L 628 0 
L 628 4666 
z
" transform="scale(0.015625)"/>
      </defs>
      <use xlink:href="#DejaVuSans-42"/>
      <use xlink:href="#DejaVuSans-72" x="68.603516"/>
      <use xlink:href="#DejaVuSans-69" x="109.716797"/>
      <use xlink:href="#DejaVuSans-61" x="137.5"/>
      <use xlink:href="#DejaVuSans-6e" x="198.779297"/>
      <use xlink:href="#DejaVuSans-20" x="262.158203"/>
      <use xlink:href="#DejaVuSans-44" x="293.945312"/>
      <use xlink:href="#DejaVuSans-65" x="370.947266"/>
      <use xlink:href="#DejaVuSans-20" x="432.470703"/>
      <use xlink:href="#DejaVuSans-50" x="464.257812"/>
      <use xlink:href="#DejaVuSans-61" x="520.060547"/>
      <use xlink:href="#DejaVuSans-6c" x="581.339844"/>
      <use xlink:href="#DejaVuSans-6d" x="609.123047"/>
      <use xlink:href="#DejaVuSans-61" x="706.535156"/>
     </g>
    </g>
   </g>
   <g id="text_13">
    <g id="patch_14">
     <path d="M 312.099312 511.763942 
L 375.702594 511.763942 
L 375.702594 495.13363 
L 312.099312 495.13363 
z
" clip-path="url(#pbc1cecb32c)" style="fill: #ffffff; opacity: 0.7; stroke: #000000; stroke-linejoin: miter"/>
    </g>
    <g clip-path="url(#pbc1cecb32c)">
     <!-- Woody Allen -->
     <g transform="translate(316.059312 505.932224)scale(0.09 -0.09)">
      <use xlink:href="#DejaVuSans-57"/>
      <use xlink:href="#DejaVuSans-6f" x="93.001953"/>
      <use xlink:href="#DejaVuSans-6f" x="154.183594"/>
      <use xlink:href="#DejaVuSans-64" x="215.365234"/>
      <use xlink:href="#DejaVuSans-79" x="278.841797"/>
      <use xlink:href="#DejaVuSans-20" x="338.021484"/>
      <use xlink:href="#DejaVuSans-41" x="369.808594"/>
      <use xlink:href="#DejaVuSans-6c" x="438.216797"/>
      <use xlink:href="#DejaVuSans-6c" x="466"/>
      <use xlink:href="#DejaVuSans-65" x="493.783203"/>
      <use xlink:href="#DejaVuSans-6e" x="555.306641"/>
     </g>
    </g>
   </g>
   <g id="text_14">
    <g id="patch_15">
     <path d="M 378.592919 467.277971 
L 461.814794 467.277971 
L 461.814794 450.647658 
L 378.592919 450.647658 
z
" clip-path="url(#pbc1cecb32c)" style="fill: #ffffff; opacity: 0.7; stroke: #000000; stroke-linejoin: miter"/>
    </g>
    <g clip-path="url(#pbc1cecb32c)">
     <!-- Joel Schumacher -->
     <g transform="translate(382.552919 461.446252)scale(0.09 -0.09)">
      <use xlink:href="#DejaVuSans-4a"/>
      <use xlink:href="#DejaVuSans-6f" x="29.492188"/>
      <use xlink:href="#DejaVuSans-65" x="90.673828"/>
      <use xlink:href="#DejaVuSans-6c" x="152.197266"/>
      <use xlink:href="#DejaVuSans-20" x="179.980469"/>
      <use xlink:href="#DejaVuSans-53" x="211.767578"/>
      <use xlink:href="#DejaVuSans-63" x="275.244141"/>
      <use xlink:href="#DejaVuSans-68" x="330.224609"/>
      <use xlink:href="#DejaVuSans-75" x="393.603516"/>
      <use xlink:href="#DejaVuSans-6d" x="456.982422"/>
      <use xlink:href="#DejaVuSans-61" x="554.394531"/>
      <use xlink:href="#DejaVuSans-63" x="615.673828"/>
      <use xlink:href="#DejaVuSans-68" x="670.654297"/>
      <use xlink:href="#DejaVuSans-65" x="734.033203"/>
      <use xlink:href="#DejaVuSans-72" x="795.556641"/>
     </g>
    </g>
   </g>
   <g id="text_15">
    <g id="patch_16">
     <path d="M 439.366844 395.298188 
L 504.616844 395.298188 
L 504.616844 378.667875 
L 439.366844 378.667875 
z
" clip-path="url(#pbc1cecb32c)" style="fill: #ffffff; opacity: 0.7; stroke: #000000; stroke-linejoin: miter"/>
    </g>
    <g clip-path="url(#pbc1cecb32c)">
     <!-- Peter Hyams -->
     <g transform="translate(443.326844 389.466469)scale(0.09 -0.09)">
      <use xlink:href="#DejaVuSans-50"/>
      <use xlink:href="#DejaVuSans-65" x="56.677734"/>
      <use xlink:href="#DejaVuSans-74" x="118.201172"/>
      <use xlink:href="#DejaVuSans-65" x="157.410156"/>
      <use xlink:href="#DejaVuSans-72" x="218.933594"/>
      <use xlink:href="#DejaVuSans-20" x="260.046875"/>
      <use xlink:href="#DejaVuSans-48" x="291.833984"/>
      <use xlink:href="#DejaVuSans-79" x="367.029297"/>
      <use xlink:href="#DejaVuSans-61" x="426.208984"/>
      <use xlink:href="#DejaVuSans-6d" x="487.488281"/>
      <use xlink:href="#DejaVuSans-73" x="584.900391"/>
     </g>
    </g>
   </g>
   <g id="text_16">
    <!-- Impactful directors for Action genre - Importance rank: 1 -->
    <g transform="translate(114.222187 16.318125)scale(0.12 -0.12)">
     <defs>
      <path id="DejaVuSans-49" d="M 628 4666 
L 1259 4666 
L 1259 0 
L 628 0 
L 628 4666 
z
" transform="scale(0.015625)"/>
      <path id="DejaVuSans-66" d="M 2375 4863 
L 2375 4384 
L 1825 4384 
Q 1516 4384 1395 4259 
Q 1275 4134 1275 3809 
L 1275 3500 
L 2222 3500 
L 2222 3053 
L 1275 3053 
L 1275 0 
L 697 0 
L 697 3053 
L 147 3053 
L 147 3500 
L 697 3500 
L 697 3744 
Q 697 4328 969 4595 
Q 1241 4863 1831 4863 
L 2375 4863 
z
" transform="scale(0.015625)"/>
      <path id="DejaVuSans-2d" d="M 313 2009 
L 1997 2009 
L 1997 1497 
L 313 1497 
L 313 2009 
z
" transform="scale(0.015625)"/>
      <path id="DejaVuSans-3a" d="M 750 794 
L 1409 794 
L 1409 0 
L 750 0 
L 750 794 
z
M 750 3309 
L 1409 3309 
L 1409 2516 
L 750 2516 
L 750 3309 
z
" transform="scale(0.015625)"/>
      <path id="DejaVuSans-31" d="M 794 531 
L 1825 531 
L 1825 4091 
L 703 3866 
L 703 4441 
L 1819 4666 
L 2450 4666 
L 2450 531 
L 3481 531 
L 3481 0 
L 794 0 
L 794 531 
z
" transform="scale(0.015625)"/>
     </defs>
     <use xlink:href="#DejaVuSans-49"/>
     <use xlink:href="#DejaVuSans-6d" x="29.492188"/>
     <use xlink:href="#DejaVuSans-70" x="126.904297"/>
     <use xlink:href="#DejaVuSans-61" x="190.380859"/>
     <use xlink:href="#DejaVuSans-63" x="251.660156"/>
     <use xlink:href="#DejaVuSans-74" x="306.640625"/>
     <use xlink:href="#DejaVuSans-66" x="345.849609"/>
     <use xlink:href="#DejaVuSans-75" x="381.054688"/>
     <use xlink:href="#DejaVuSans-6c" x="444.433594"/>
     <use xlink:href="#DejaVuSans-20" x="472.216797"/>
     <use xlink:href="#DejaVuSans-64" x="504.003906"/>
     <use xlink:href="#DejaVuSans-69" x="567.480469"/>
     <use xlink:href="#DejaVuSans-72" x="595.263672"/>
     <use xlink:href="#DejaVuSans-65" x="634.126953"/>
     <use xlink:href="#DejaVuSans-63" x="695.650391"/>
     <use xlink:href="#DejaVuSans-74" x="750.630859"/>
     <use xlink:href="#DejaVuSans-6f" x="789.839844"/>
     <use xlink:href="#DejaVuSans-72" x="851.021484"/>
     <use xlink:href="#DejaVuSans-73" x="892.134766"/>
     <use xlink:href="#DejaVuSans-20" x="944.234375"/>
     <use xlink:href="#DejaVuSans-66" x="976.021484"/>
     <use xlink:href="#DejaVuSans-6f" x="1011.226562"/>
     <use xlink:href="#DejaVuSans-72" x="1072.408203"/>
     <use xlink:href="#DejaVuSans-20" x="1113.521484"/>
     <use xlink:href="#DejaVuSans-41" x="1145.308594"/>
     <use xlink:href="#DejaVuSans-63" x="1211.966797"/>
     <use xlink:href="#DejaVuSans-74" x="1266.947266"/>
     <use xlink:href="#DejaVuSans-69" x="1306.15625"/>
     <use xlink:href="#DejaVuSans-6f" x="1333.939453"/>
     <use xlink:href="#DejaVuSans-6e" x="1395.121094"/>
     <use xlink:href="#DejaVuSans-20" x="1458.5"/>
     <use xlink:href="#DejaVuSans-67" x="1490.287109"/>
     <use xlink:href="#DejaVuSans-65" x="1553.763672"/>
     <use xlink:href="#DejaVuSans-6e" x="1615.287109"/>
     <use xlink:href="#DejaVuSans-72" x="1678.666016"/>
     <use xlink:href="#DejaVuSans-65" x="1717.529297"/>
     <use xlink:href="#DejaVuSans-20" x="1779.052734"/>
     <use xlink:href="#DejaVuSans-2d" x="1810.839844"/>
     <use xlink:href="#DejaVuSans-20" x="1846.923828"/>
     <use xlink:href="#DejaVuSans-49" x="1878.710938"/>
     <use xlink:href="#DejaVuSans-6d" x="1908.203125"/>
     <use xlink:href="#DejaVuSans-70" x="2005.615234"/>
     <use xlink:href="#DejaVuSans-6f" x="2069.091797"/>
     <use xlink:href="#DejaVuSans-72" x="2130.273438"/>
     <use xlink:href="#DejaVuSans-74" x="2171.386719"/>
     <use xlink:href="#DejaVuSans-61" x="2210.595703"/>
     <use xlink:href="#DejaVuSans-6e" x="2271.875"/>
     <use xlink:href="#DejaVuSans-63" x="2335.253906"/>
     <use xlink:href="#DejaVuSans-65" x="2390.234375"/>
     <use xlink:href="#DejaVuSans-20" x="2451.757812"/>
     <use xlink:href="#DejaVuSans-72" x="2483.544922"/>
     <use xlink:href="#DejaVuSans-61" x="2524.658203"/>
     <use xlink:href="#DejaVuSans-6e" x="2585.9375"/>
     <use xlink:href="#DejaVuSans-6b" x="2649.316406"/>
     <use xlink:href="#DejaVuSans-3a" x="2707.226562"/>
     <use xlink:href="#DejaVuSans-20" x="2740.917969"/>
     <use xlink:href="#DejaVuSans-31" x="2772.705078"/>
    </g>
   </g>
  </g>
 </g>
 <defs>
  <clipPath id="pbc1cecb32c">
   <rect x="7.2" y="22.318125" width="554.4" height="554.4"/>
  </clipPath>
 </defs>
</svg>
