<?xml version="1.0" encoding="utf-8" standalone="no"?>
<!DOCTYPE svg PUBLIC "-//W3C//DTD SVG 1.1//EN"
  "http://www.w3.org/Graphics/SVG/1.1/DTD/svg11.dtd">
<svg xmlns:xlink="http://www.w3.org/1999/xlink" width="576pt" height="576pt" viewBox="0 0 576 576" xmlns="http://www.w3.org/2000/svg" version="1.1">
 <metadata>
  <rdf:RDF xmlns:dc="http://purl.org/dc/elements/1.1/" xmlns:cc="http://creativecommons.org/ns#" xmlns:rdf="http://www.w3.org/1999/02/22-rdf-syntax-ns#">
   <cc:Work>
    <dc:type rdf:resource="http://purl.org/dc/dcmitype/StillImage"/>
    <dc:date>2022-12-23T17:30:10.403194</dc:date>
    <dc:format>image/svg+xml</dc:format>
    <dc:creator>
     <cc:Agent>
      <dc:title>Matplotlib v3.5.2, https://matplotlib.org/</dc:title>
     </cc:Agent>
    </dc:creator>
   </cc:Work>
  </rdf:RDF>
 </metadata>
 <defs>
  <style type="text/css">*{stroke-linejoin: round; stroke-linecap: butt}</style>
 </defs>
 <g id="figure_1">
  <g id="patch_1">
   <path d="M 0 576 
L 576 576 
L 576 0 
L 0 0 
z
" style="fill: #ffffff"/>
  </g>
  <g id="axes_1">
   <g id="LineCollection_1">
    <path d="M 177.85133 471.175535 
L 263.109587 498.552861 
" clip-path="url(#p729060e44e)" style="fill: none; stroke: #000000; stroke-opacity: 0.3; stroke-width: 5"/>
    <path d="M 177.85133 471.175535 
L 429.899888 444.994688 
" clip-path="url(#p729060e44e)" style="fill: none; stroke: #000000; stroke-opacity: 0.3; stroke-width: 5.614834"/>
    <path d="M 263.109587 498.552861 
L 429.899888 444.994688 
" clip-path="url(#p729060e44e)" style="fill: none; stroke: #000000; stroke-opacity: 0.3; stroke-width: 7.321052"/>
   </g>
   <g id="PathCollection_1">
    <path d="M 501.230769 314.047174 
C 508.493655 314.047174 515.46005 311.161598 520.595686 306.025962 
C 525.731322 300.890326 528.616897 293.923932 528.616897 286.661046 
C 528.616897 279.39816 525.731322 272.431765 520.595686 267.296129 
C 515.46005 262.160493 508.493655 259.274918 501.230769 259.274918 
C 493.967883 259.274918 487.001488 262.160493 481.865852 267.296129 
C 476.730217 272.431765 473.844641 279.39816 473.844641 286.661046 
C 473.844641 293.923932 476.730217 300.890326 481.865852 306.025962 
C 487.001488 311.161598 493.967883 314.047174 501.230769 314.047174 
z
" clip-path="url(#p729060e44e)" style="fill: #c70039; fill-opacity: 0.99; stroke: #c70039; stroke-opacity: 0.99"/>
    <path d="M 482.592348 224.895701 
C 489.194193 224.895701 495.526533 222.27276 500.194743 217.604551 
C 504.862952 212.936341 507.485894 206.604001 507.485894 200.002156 
C 507.485894 193.40031 504.862952 187.06797 500.194743 182.399761 
C 495.526533 177.731551 489.194193 175.10861 482.592348 175.10861 
C 475.990502 175.10861 469.658163 177.731551 464.989953 182.399761 
C 460.321743 187.06797 457.698802 193.40031 457.698802 200.002156 
C 457.698802 206.604001 460.321743 212.936341 464.989953 217.604551 
C 469.658163 222.27276 475.990502 224.895701 482.592348 224.895701 
z
" clip-path="url(#p729060e44e)" style="fill: #c70039; fill-opacity: 0.99; stroke: #c70039; stroke-opacity: 0.99"/>
    <path d="M 429.89985 150.379981 
C 435.748272 150.379981 441.357945 148.056379 445.493404 143.92092 
C 449.628863 139.785461 451.952466 134.175787 451.952466 128.327365 
C 451.952466 122.478943 449.628863 116.86927 445.493404 112.733811 
C 441.357945 108.598352 435.748272 106.274749 429.89985 106.274749 
C 424.051428 106.274749 418.441754 108.598352 414.306295 112.733811 
C 410.170836 116.86927 407.847234 122.478943 407.847234 128.327365 
C 407.847234 134.175787 410.170836 139.785461 414.306295 143.92092 
C 418.441754 148.056379 424.051428 150.379981 429.89985 150.379981 
z
" clip-path="url(#p729060e44e)" style="fill: #c70039; fill-opacity: 0.99; stroke: #c70039; stroke-opacity: 0.99"/>
    <path d="M 352.264291 105.69403 
C 358.009681 105.69403 363.520527 103.411363 367.583131 99.348759 
C 371.645735 95.286155 373.928403 89.775308 373.928403 84.029919 
C 373.928403 78.284529 371.645735 72.773683 367.583131 68.711079 
C 363.520527 64.648475 358.009681 62.365808 352.264291 62.365808 
C 346.518902 62.365808 341.008055 64.648475 336.945451 68.711079 
C 332.882847 72.773683 330.60018 78.284529 330.60018 84.029919 
C 330.60018 89.775308 332.882847 95.286155 336.945451 99.348759 
C 341.008055 103.411363 346.518902 105.69403 352.264291 105.69403 
z
" clip-path="url(#p729060e44e)" style="fill: #c70039; fill-opacity: 0.99; stroke: #c70039; stroke-opacity: 0.99"/>
    <path d="M 263.109549 96.155585 
C 268.781276 96.155585 274.221468 93.902183 278.231984 89.891667 
C 282.242501 85.88115 284.495902 80.440958 284.495902 74.769231 
C 284.495902 69.097503 282.242501 63.657312 278.231984 59.646795 
C 274.221468 55.636278 268.781276 53.382877 263.109549 53.382877 
C 257.437821 53.382877 251.99763 55.636278 247.987113 59.646795 
C 243.976596 63.657312 241.723195 69.097503 241.723195 74.769231 
C 241.723195 80.440958 243.976596 85.88115 247.987113 89.891667 
C 251.99763 93.902183 257.437821 96.155585 263.109549 96.155585 
z
" clip-path="url(#p729060e44e)" style="fill: #c70039; fill-opacity: 0.99; stroke: #c70039; stroke-opacity: 0.99"/>
    <path d="M 177.851298 123.094257 
C 183.40669 123.094257 188.735295 120.887077 192.663551 116.958821 
C 196.591806 113.030566 198.798987 107.701961 198.798987 102.146569 
C 198.798987 96.591177 196.591806 91.262571 192.663551 87.334316 
C 188.735295 83.406061 183.40669 81.19888 177.851298 81.19888 
C 172.295906 81.19888 166.967301 83.406061 163.039045 87.334316 
C 159.11079 91.262571 156.90361 96.591177 156.90361 102.146569 
C 156.90361 107.701961 159.11079 113.030566 163.039045 116.958821 
C 166.967301 120.887077 172.295906 123.094257 177.851298 123.094257 
z
" clip-path="url(#p729060e44e)" style="fill: #c70039; fill-opacity: 0.99; stroke: #c70039; stroke-opacity: 0.99"/>
    <path d="M 111.231477 182.26538 
C 116.757581 182.26538 122.058094 180.069836 125.96564 176.16229 
C 129.873186 172.254745 132.06873 166.954231 132.06873 161.428127 
C 132.06873 155.902023 129.873186 150.60151 125.96564 146.693964 
C 122.058094 142.786418 116.757581 140.590874 111.231477 140.590874 
C 105.705373 140.590874 100.40486 142.786418 96.497314 146.693964 
C 92.589768 150.60151 90.394224 155.902023 90.394224 161.428127 
C 90.394224 166.954231 92.589768 172.254745 96.497314 176.16229 
C 100.40486 180.069836 105.705373 182.26538 111.231477 182.26538 
z
" clip-path="url(#p729060e44e)" style="fill: #c70039; fill-opacity: 0.99; stroke: #c70039; stroke-opacity: 0.99"/>
    <path d="M 74.769231 262.863234 
C 80.205794 262.863234 85.420422 260.703265 89.264653 256.859034 
C 93.108884 253.014803 95.268853 247.800176 95.268853 242.363612 
C 95.268853 236.927049 93.108884 231.712421 89.264653 227.86819 
C 85.420422 224.023959 80.205794 221.86399 74.769231 221.86399 
C 69.332667 221.86399 64.11804 224.023959 60.273809 227.86819 
C 56.429578 231.712421 54.269608 236.927049 54.269608 242.363612 
C 54.269608 247.800176 56.429578 253.014803 60.273809 256.859034 
C 64.11804 260.703265 69.332667 262.863234 74.769231 262.863234 
z
" clip-path="url(#p729060e44e)" style="fill: #c70039; fill-opacity: 0.99; stroke: #c70039; stroke-opacity: 0.99"/>
    <path d="M 74.769244 351.336494 
C 80.173546 351.336494 85.35723 349.189342 89.178649 345.367923 
C 93.000068 341.546504 95.147221 336.36282 95.147221 330.958517 
C 95.147221 325.554215 93.000068 320.370531 89.178649 316.549112 
C 85.35723 312.727693 80.173546 310.58054 74.769244 310.58054 
C 69.364941 310.58054 64.181257 312.727693 60.359838 316.549112 
C 56.538419 320.370531 54.391267 325.554215 54.391267 330.958517 
C 54.391267 336.36282 56.538419 341.546504 60.359838 345.367923 
C 64.181257 349.189342 69.364941 351.336494 74.769244 351.336494 
z
" clip-path="url(#p729060e44e)" style="fill: #c70039; fill-opacity: 0.99; stroke: #c70039; stroke-opacity: 0.99"/>
    <path d="M 111.23149 432.143319 
C 116.601678 432.143319 121.75264 430.009721 125.549937 426.212424 
C 129.347234 422.415128 131.480832 417.264165 131.480832 411.893977 
C 131.480832 406.523789 129.347234 401.372826 125.549937 397.57553 
C 121.75264 393.778233 116.601678 391.644635 111.23149 391.644635 
C 105.861302 391.644635 100.710339 393.778233 96.913043 397.57553 
C 93.115746 401.372826 90.982148 406.523789 90.982148 411.893977 
C 90.982148 417.264165 93.115746 422.415128 96.913043 426.212424 
C 100.710339 430.009721 105.861302 432.143319 111.23149 432.143319 
z
" clip-path="url(#p729060e44e)" style="fill: #c70039; fill-opacity: 0.99; stroke: #c70039; stroke-opacity: 0.99"/>
    <path d="M 177.85133 491.068904 
C 183.127113 491.068904 188.187524 488.972814 191.918066 485.242272 
C 195.648608 481.51173 197.744699 476.451319 197.744699 471.175535 
C 197.744699 465.899752 195.648608 460.839341 191.918066 457.108799 
C 188.187524 453.378257 183.127113 451.282167 177.85133 451.282167 
C 172.575547 451.282167 167.515136 453.378257 163.784594 457.108799 
C 160.054052 460.839341 157.957961 465.899752 157.957961 471.175535 
C 157.957961 476.451319 160.054052 481.51173 163.784594 485.242272 
C 167.515136 488.972814 172.575547 491.068904 177.85133 491.068904 
z
" clip-path="url(#p729060e44e)" style="fill: #c70039; fill-opacity: 0.99; stroke: #c70039; stroke-opacity: 0.99"/>
    <path d="M 263.109587 518.433025 
C 268.381868 518.433025 273.438921 516.338326 277.166986 512.61026 
C 280.895052 508.882194 282.989752 503.825142 282.989752 498.552861 
C 282.989752 493.280579 280.895052 488.223527 277.166986 484.495461 
C 273.438921 480.767396 268.381868 478.672696 263.109587 478.672696 
C 257.837306 478.672696 252.780254 480.767396 249.052188 484.495461 
C 245.324122 488.223527 243.229423 493.280579 243.229423 498.552861 
C 243.229423 503.825142 245.324122 508.882194 249.052188 512.61026 
C 252.780254 516.338326 257.837306 518.433025 263.109587 518.433025 
z
" clip-path="url(#p729060e44e)" style="fill: #c70039; fill-opacity: 0.99; stroke: #c70039; stroke-opacity: 0.99"/>
    <path d="M 352.264323 509.132533 
C 357.526052 509.132533 362.572982 507.042026 366.293586 503.321422 
C 370.01419 499.600818 372.104696 494.553888 372.104696 489.29216 
C 372.104696 484.030431 370.01419 478.983501 366.293586 475.262897 
C 362.572982 471.542293 357.526052 469.451787 352.264323 469.451787 
C 347.002595 469.451787 341.955665 471.542293 338.235061 475.262897 
C 334.514457 478.983501 332.42395 484.030431 332.42395 489.29216 
C 332.42395 494.553888 334.514457 499.600818 338.235061 503.321422 
C 341.955665 507.042026 347.002595 509.132533 352.264323 509.132533 
z
" clip-path="url(#p729060e44e)" style="fill: #c70039; fill-opacity: 0.99; stroke: #c70039; stroke-opacity: 0.99"/>
    <path d="M 429.899888 464.82164 
C 435.158058 464.82164 440.201574 462.732547 443.919661 459.01446 
C 447.637748 455.296373 449.726841 450.252857 449.726841 444.994688 
C 449.726841 439.736519 447.637748 434.693003 443.919661 430.974916 
C 440.201574 427.256829 435.158058 425.167736 429.899888 425.167736 
C 424.641719 425.167736 419.598203 427.256829 415.880116 430.974916 
C 412.162029 434.693003 410.072936 439.736519 410.072936 444.994688 
C 410.072936 450.252857 412.162029 455.296373 415.880116 459.01446 
C 419.598203 462.732547 424.641719 464.82164 429.899888 464.82164 
z
" clip-path="url(#p729060e44e)" style="fill: #c70039; fill-opacity: 0.99; stroke: #c70039; stroke-opacity: 0.99"/>
    <path d="M 482.592374 392.684821 
C 487.728009 392.684821 492.653994 390.644411 496.285437 387.012968 
C 499.91688 383.381525 501.95729 378.45554 501.95729 373.319904 
C 501.95729 368.184268 499.91688 363.258283 496.285437 359.62684 
C 492.653994 355.995397 487.728009 353.954987 482.592374 353.954987 
C 477.456738 353.954987 472.530753 355.995397 468.89931 359.62684 
C 465.267867 363.258283 463.227457 368.184268 463.227457 373.319904 
C 463.227457 378.45554 465.267867 383.381525 468.89931 387.012968 
C 472.530753 390.644411 477.456738 392.684821 482.592374 392.684821 
z
" clip-path="url(#p729060e44e)" style="fill: #c70039; fill-opacity: 0.99; stroke: #c70039; stroke-opacity: 0.99"/>
   </g>
   <g id="text_1">
    <g id="patch_2">
     <path d="M 458.930066 294.976202 
L 543.531472 294.976202 
L 543.531472 278.345889 
L 458.930066 278.345889 
z
" clip-path="url(#p729060e44e)" style="fill: #ffffff; opacity: 0.7; stroke: #000000; stroke-linejoin: miter"/>
    </g>
    <g clip-path="url(#p729060e44e)">
     <!-- Steven Spielberg -->
     <g transform="translate(462.890066 289.144483)scale(0.09 -0.09)">
      <defs>
       <path id="DejaVuSans-53" d="M 3425 4513 
L 3425 3897 
Q 3066 4069 2747 4153 
Q 2428 4238 2131 4238 
Q 1616 4238 1336 4038 
Q 1056 3838 1056 3469 
Q 1056 3159 1242 3001 
Q 1428 2844 1947 2747 
L 2328 2669 
Q 3034 2534 3370 2195 
Q 3706 1856 3706 1288 
Q 3706 609 3251 259 
Q 2797 -91 1919 -91 
Q 1588 -91 1214 -16 
Q 841 59 441 206 
L 441 856 
Q 825 641 1194 531 
Q 1563 422 1919 422 
Q 2459 422 2753 634 
Q 3047 847 3047 1241 
Q 3047 1584 2836 1778 
Q 2625 1972 2144 2069 
L 1759 2144 
Q 1053 2284 737 2584 
Q 422 2884 422 3419 
Q 422 4038 858 4394 
Q 1294 4750 2059 4750 
Q 2388 4750 2728 4690 
Q 3069 4631 3425 4513 
z
" transform="scale(0.015625)"/>
       <path id="DejaVuSans-74" d="M 1172 4494 
L 1172 3500 
L 2356 3500 
L 2356 3053 
L 1172 3053 
L 1172 1153 
Q 1172 725 1289 603 
Q 1406 481 1766 481 
L 2356 481 
L 2356 0 
L 1766 0 
Q 1100 0 847 248 
Q 594 497 594 1153 
L 594 3053 
L 172 3053 
L 172 3500 
L 594 3500 
L 594 4494 
L 1172 4494 
z
" transform="scale(0.015625)"/>
       <path id="DejaVuSans-65" d="M 3597 1894 
L 3597 1613 
L 953 1613 
Q 991 1019 1311 708 
Q 1631 397 2203 397 
Q 2534 397 2845 478 
Q 3156 559 3463 722 
L 3463 178 
Q 3153 47 2828 -22 
Q 2503 -91 2169 -91 
Q 1331 -91 842 396 
Q 353 884 353 1716 
Q 353 2575 817 3079 
Q 1281 3584 2069 3584 
Q 2775 3584 3186 3129 
Q 3597 2675 3597 1894 
z
M 3022 2063 
Q 3016 2534 2758 2815 
Q 2500 3097 2075 3097 
Q 1594 3097 1305 2825 
Q 1016 2553 972 2059 
L 3022 2063 
z
" transform="scale(0.015625)"/>
       <path id="DejaVuSans-76" d="M 191 3500 
L 800 3500 
L 1894 563 
L 2988 3500 
L 3597 3500 
L 2284 0 
L 1503 0 
L 191 3500 
z
" transform="scale(0.015625)"/>
       <path id="DejaVuSans-6e" d="M 3513 2113 
L 3513 0 
L 2938 0 
L 2938 2094 
Q 2938 2591 2744 2837 
Q 2550 3084 2163 3084 
Q 1697 3084 1428 2787 
Q 1159 2491 1159 1978 
L 1159 0 
L 581 0 
L 581 3500 
L 1159 3500 
L 1159 2956 
Q 1366 3272 1645 3428 
Q 1925 3584 2291 3584 
Q 2894 3584 3203 3211 
Q 3513 2838 3513 2113 
z
" transform="scale(0.015625)"/>
       <path id="DejaVuSans-20" transform="scale(0.015625)"/>
       <path id="DejaVuSans-70" d="M 1159 525 
L 1159 -1331 
L 581 -1331 
L 581 3500 
L 1159 3500 
L 1159 2969 
Q 1341 3281 1617 3432 
Q 1894 3584 2278 3584 
Q 2916 3584 3314 3078 
Q 3713 2572 3713 1747 
Q 3713 922 3314 415 
Q 2916 -91 2278 -91 
Q 1894 -91 1617 61 
Q 1341 213 1159 525 
z
M 3116 1747 
Q 3116 2381 2855 2742 
Q 2594 3103 2138 3103 
Q 1681 3103 1420 2742 
Q 1159 2381 1159 1747 
Q 1159 1113 1420 752 
Q 1681 391 2138 391 
Q 2594 391 2855 752 
Q 3116 1113 3116 1747 
z
" transform="scale(0.015625)"/>
       <path id="DejaVuSans-69" d="M 603 3500 
L 1178 3500 
L 1178 0 
L 603 0 
L 603 3500 
z
M 603 4863 
L 1178 4863 
L 1178 4134 
L 603 4134 
L 603 4863 
z
" transform="scale(0.015625)"/>
       <path id="DejaVuSans-6c" d="M 603 4863 
L 1178 4863 
L 1178 0 
L 603 0 
L 603 4863 
z
" transform="scale(0.015625)"/>
       <path id="DejaVuSans-62" d="M 3116 1747 
Q 3116 2381 2855 2742 
Q 2594 3103 2138 3103 
Q 1681 3103 1420 2742 
Q 1159 2381 1159 1747 
Q 1159 1113 1420 752 
Q 1681 391 2138 391 
Q 2594 391 2855 752 
Q 3116 1113 3116 1747 
z
M 1159 2969 
Q 1341 3281 1617 3432 
Q 1894 3584 2278 3584 
Q 2916 3584 3314 3078 
Q 3713 2572 3713 1747 
Q 3713 922 3314 415 
Q 2916 -91 2278 -91 
Q 1894 -91 1617 61 
Q 1341 213 1159 525 
L 1159 0 
L 581 0 
L 581 4863 
L 1159 4863 
L 1159 2969 
z
" transform="scale(0.015625)"/>
       <path id="DejaVuSans-72" d="M 2631 2963 
Q 2534 3019 2420 3045 
Q 2306 3072 2169 3072 
Q 1681 3072 1420 2755 
Q 1159 2438 1159 1844 
L 1159 0 
L 581 0 
L 581 3500 
L 1159 3500 
L 1159 2956 
Q 1341 3275 1631 3429 
Q 1922 3584 2338 3584 
Q 2397 3584 2469 3576 
Q 2541 3569 2628 3553 
L 2631 2963 
z
" transform="scale(0.015625)"/>
       <path id="DejaVuSans-67" d="M 2906 1791 
Q 2906 2416 2648 2759 
Q 2391 3103 1925 3103 
Q 1463 3103 1205 2759 
Q 947 2416 947 1791 
Q 947 1169 1205 825 
Q 1463 481 1925 481 
Q 2391 481 2648 825 
Q 2906 1169 2906 1791 
z
M 3481 434 
Q 3481 -459 3084 -895 
Q 2688 -1331 1869 -1331 
Q 1566 -1331 1297 -1286 
Q 1028 -1241 775 -1147 
L 775 -588 
Q 1028 -725 1275 -790 
Q 1522 -856 1778 -856 
Q 2344 -856 2625 -561 
Q 2906 -266 2906 331 
L 2906 616 
Q 2728 306 2450 153 
Q 2172 0 1784 0 
Q 1141 0 747 490 
Q 353 981 353 1791 
Q 353 2603 747 3093 
Q 1141 3584 1784 3584 
Q 2172 3584 2450 3431 
Q 2728 3278 2906 2969 
L 2906 3500 
L 3481 3500 
L 3481 434 
z
" transform="scale(0.015625)"/>
      </defs>
      <use xlink:href="#DejaVuSans-53"/>
      <use xlink:href="#DejaVuSans-74" x="63.476562"/>
      <use xlink:href="#DejaVuSans-65" x="102.685547"/>
      <use xlink:href="#DejaVuSans-76" x="164.208984"/>
      <use xlink:href="#DejaVuSans-65" x="223.388672"/>
      <use xlink:href="#DejaVuSans-6e" x="284.912109"/>
      <use xlink:href="#DejaVuSans-20" x="348.291016"/>
      <use xlink:href="#DejaVuSans-53" x="380.078125"/>
      <use xlink:href="#DejaVuSans-70" x="443.554688"/>
      <use xlink:href="#DejaVuSans-69" x="507.03125"/>
      <use xlink:href="#DejaVuSans-65" x="534.814453"/>
      <use xlink:href="#DejaVuSans-6c" x="596.337891"/>
      <use xlink:href="#DejaVuSans-62" x="624.121094"/>
      <use xlink:href="#DejaVuSans-65" x="687.597656"/>
      <use xlink:href="#DejaVuSans-72" x="749.121094"/>
      <use xlink:href="#DejaVuSans-67" x="788.484375"/>
     </g>
    </g>
   </g>
   <g id="text_2">
    <g id="patch_3">
     <path d="M 441.882817 208.317312 
L 523.301879 208.317312 
L 523.301879 191.686999 
L 441.882817 191.686999 
z
" clip-path="url(#p729060e44e)" style="fill: #ffffff; opacity: 0.7; stroke: #000000; stroke-linejoin: miter"/>
    </g>
    <g clip-path="url(#p729060e44e)">
     <!-- Alfred Hitchcock -->
     <g transform="translate(445.842817 202.485593)scale(0.09 -0.09)">
      <defs>
       <path id="DejaVuSans-41" d="M 2188 4044 
L 1331 1722 
L 3047 1722 
L 2188 4044 
z
M 1831 4666 
L 2547 4666 
L 4325 0 
L 3669 0 
L 3244 1197 
L 1141 1197 
L 716 0 
L 50 0 
L 1831 4666 
z
" transform="scale(0.015625)"/>
       <path id="DejaVuSans-66" d="M 2375 4863 
L 2375 4384 
L 1825 4384 
Q 1516 4384 1395 4259 
Q 1275 4134 1275 3809 
L 1275 3500 
L 2222 3500 
L 2222 3053 
L 1275 3053 
L 1275 0 
L 697 0 
L 697 3053 
L 147 3053 
L 147 3500 
L 697 3500 
L 697 3744 
Q 697 4328 969 4595 
Q 1241 4863 1831 4863 
L 2375 4863 
z
" transform="scale(0.015625)"/>
       <path id="DejaVuSans-64" d="M 2906 2969 
L 2906 4863 
L 3481 4863 
L 3481 0 
L 2906 0 
L 2906 525 
Q 2725 213 2448 61 
Q 2172 -91 1784 -91 
Q 1150 -91 751 415 
Q 353 922 353 1747 
Q 353 2572 751 3078 
Q 1150 3584 1784 3584 
Q 2172 3584 2448 3432 
Q 2725 3281 2906 2969 
z
M 947 1747 
Q 947 1113 1208 752 
Q 1469 391 1925 391 
Q 2381 391 2643 752 
Q 2906 1113 2906 1747 
Q 2906 2381 2643 2742 
Q 2381 3103 1925 3103 
Q 1469 3103 1208 2742 
Q 947 2381 947 1747 
z
" transform="scale(0.015625)"/>
       <path id="DejaVuSans-48" d="M 628 4666 
L 1259 4666 
L 1259 2753 
L 3553 2753 
L 3553 4666 
L 4184 4666 
L 4184 0 
L 3553 0 
L 3553 2222 
L 1259 2222 
L 1259 0 
L 628 0 
L 628 4666 
z
" transform="scale(0.015625)"/>
       <path id="DejaVuSans-63" d="M 3122 3366 
L 3122 2828 
Q 2878 2963 2633 3030 
Q 2388 3097 2138 3097 
Q 1578 3097 1268 2742 
Q 959 2388 959 1747 
Q 959 1106 1268 751 
Q 1578 397 2138 397 
Q 2388 397 2633 464 
Q 2878 531 3122 666 
L 3122 134 
Q 2881 22 2623 -34 
Q 2366 -91 2075 -91 
Q 1284 -91 818 406 
Q 353 903 353 1747 
Q 353 2603 823 3093 
Q 1294 3584 2113 3584 
Q 2378 3584 2631 3529 
Q 2884 3475 3122 3366 
z
" transform="scale(0.015625)"/>
       <path id="DejaVuSans-68" d="M 3513 2113 
L 3513 0 
L 2938 0 
L 2938 2094 
Q 2938 2591 2744 2837 
Q 2550 3084 2163 3084 
Q 1697 3084 1428 2787 
Q 1159 2491 1159 1978 
L 1159 0 
L 581 0 
L 581 4863 
L 1159 4863 
L 1159 2956 
Q 1366 3272 1645 3428 
Q 1925 3584 2291 3584 
Q 2894 3584 3203 3211 
Q 3513 2838 3513 2113 
z
" transform="scale(0.015625)"/>
       <path id="DejaVuSans-6f" d="M 1959 3097 
Q 1497 3097 1228 2736 
Q 959 2375 959 1747 
Q 959 1119 1226 758 
Q 1494 397 1959 397 
Q 2419 397 2687 759 
Q 2956 1122 2956 1747 
Q 2956 2369 2687 2733 
Q 2419 3097 1959 3097 
z
M 1959 3584 
Q 2709 3584 3137 3096 
Q 3566 2609 3566 1747 
Q 3566 888 3137 398 
Q 2709 -91 1959 -91 
Q 1206 -91 779 398 
Q 353 888 353 1747 
Q 353 2609 779 3096 
Q 1206 3584 1959 3584 
z
" transform="scale(0.015625)"/>
       <path id="DejaVuSans-6b" d="M 581 4863 
L 1159 4863 
L 1159 1991 
L 2875 3500 
L 3609 3500 
L 1753 1863 
L 3688 0 
L 2938 0 
L 1159 1709 
L 1159 0 
L 581 0 
L 581 4863 
z
" transform="scale(0.015625)"/>
      </defs>
      <use xlink:href="#DejaVuSans-41"/>
      <use xlink:href="#DejaVuSans-6c" x="68.408203"/>
      <use xlink:href="#DejaVuSans-66" x="96.191406"/>
      <use xlink:href="#DejaVuSans-72" x="131.396484"/>
      <use xlink:href="#DejaVuSans-65" x="170.259766"/>
      <use xlink:href="#DejaVuSans-64" x="231.783203"/>
      <use xlink:href="#DejaVuSans-20" x="295.259766"/>
      <use xlink:href="#DejaVuSans-48" x="327.046875"/>
      <use xlink:href="#DejaVuSans-69" x="402.242188"/>
      <use xlink:href="#DejaVuSans-74" x="430.025391"/>
      <use xlink:href="#DejaVuSans-63" x="469.234375"/>
      <use xlink:href="#DejaVuSans-68" x="524.214844"/>
      <use xlink:href="#DejaVuSans-63" x="587.59375"/>
      <use xlink:href="#DejaVuSans-6f" x="642.574219"/>
      <use xlink:href="#DejaVuSans-63" x="703.755859"/>
      <use xlink:href="#DejaVuSans-6b" x="758.736328"/>
     </g>
    </g>
   </g>
   <g id="text_3">
    <g id="patch_4">
     <path d="M 398.765475 136.642522 
L 461.034225 136.642522 
L 461.034225 120.012209 
L 398.765475 120.012209 
z
" clip-path="url(#p729060e44e)" style="fill: #ffffff; opacity: 0.7; stroke: #000000; stroke-linejoin: miter"/>
    </g>
    <g clip-path="url(#p729060e44e)">
     <!-- Michael Bay -->
     <g transform="translate(402.725475 130.810803)scale(0.09 -0.09)">
      <defs>
       <path id="DejaVuSans-4d" d="M 628 4666 
L 1569 4666 
L 2759 1491 
L 3956 4666 
L 4897 4666 
L 4897 0 
L 4281 0 
L 4281 4097 
L 3078 897 
L 2444 897 
L 1241 4097 
L 1241 0 
L 628 0 
L 628 4666 
z
" transform="scale(0.015625)"/>
       <path id="DejaVuSans-61" d="M 2194 1759 
Q 1497 1759 1228 1600 
Q 959 1441 959 1056 
Q 959 750 1161 570 
Q 1363 391 1709 391 
Q 2188 391 2477 730 
Q 2766 1069 2766 1631 
L 2766 1759 
L 2194 1759 
z
M 3341 1997 
L 3341 0 
L 2766 0 
L 2766 531 
Q 2569 213 2275 61 
Q 1981 -91 1556 -91 
Q 1019 -91 701 211 
Q 384 513 384 1019 
Q 384 1609 779 1909 
Q 1175 2209 1959 2209 
L 2766 2209 
L 2766 2266 
Q 2766 2663 2505 2880 
Q 2244 3097 1772 3097 
Q 1472 3097 1187 3025 
Q 903 2953 641 2809 
L 641 3341 
Q 956 3463 1253 3523 
Q 1550 3584 1831 3584 
Q 2591 3584 2966 3190 
Q 3341 2797 3341 1997 
z
" transform="scale(0.015625)"/>
       <path id="DejaVuSans-42" d="M 1259 2228 
L 1259 519 
L 2272 519 
Q 2781 519 3026 730 
Q 3272 941 3272 1375 
Q 3272 1813 3026 2020 
Q 2781 2228 2272 2228 
L 1259 2228 
z
M 1259 4147 
L 1259 2741 
L 2194 2741 
Q 2656 2741 2882 2914 
Q 3109 3088 3109 3444 
Q 3109 3797 2882 3972 
Q 2656 4147 2194 4147 
L 1259 4147 
z
M 628 4666 
L 2241 4666 
Q 2963 4666 3353 4366 
Q 3744 4066 3744 3513 
Q 3744 3084 3544 2831 
Q 3344 2578 2956 2516 
Q 3422 2416 3680 2098 
Q 3938 1781 3938 1306 
Q 3938 681 3513 340 
Q 3088 0 2303 0 
L 628 0 
L 628 4666 
z
" transform="scale(0.015625)"/>
       <path id="DejaVuSans-79" d="M 2059 -325 
Q 1816 -950 1584 -1140 
Q 1353 -1331 966 -1331 
L 506 -1331 
L 506 -850 
L 844 -850 
Q 1081 -850 1212 -737 
Q 1344 -625 1503 -206 
L 1606 56 
L 191 3500 
L 800 3500 
L 1894 763 
L 2988 3500 
L 3597 3500 
L 2059 -325 
z
" transform="scale(0.015625)"/>
      </defs>
      <use xlink:href="#DejaVuSans-4d"/>
      <use xlink:href="#DejaVuSans-69" x="86.279297"/>
      <use xlink:href="#DejaVuSans-63" x="114.0625"/>
      <use xlink:href="#DejaVuSans-68" x="169.042969"/>
      <use xlink:href="#DejaVuSans-61" x="232.421875"/>
      <use xlink:href="#DejaVuSans-65" x="293.701172"/>
      <use xlink:href="#DejaVuSans-6c" x="355.224609"/>
      <use xlink:href="#DejaVuSans-20" x="383.007812"/>
      <use xlink:href="#DejaVuSans-42" x="414.794922"/>
      <use xlink:href="#DejaVuSans-61" x="483.398438"/>
      <use xlink:href="#DejaVuSans-79" x="544.677734"/>
     </g>
    </g>
   </g>
   <g id="text_4">
    <g id="patch_5">
     <path d="M 318.05726 92.345075 
L 386.471322 92.345075 
L 386.471322 75.714763 
L 318.05726 75.714763 
z
" clip-path="url(#p729060e44e)" style="fill: #ffffff; opacity: 0.7; stroke: #000000; stroke-linejoin: miter"/>
    </g>
    <g clip-path="url(#p729060e44e)">
     <!-- Peter Jackson -->
     <g transform="translate(322.01726 86.513356)scale(0.09 -0.09)">
      <defs>
       <path id="DejaVuSans-50" d="M 1259 4147 
L 1259 2394 
L 2053 2394 
Q 2494 2394 2734 2622 
Q 2975 2850 2975 3272 
Q 2975 3691 2734 3919 
Q 2494 4147 2053 4147 
L 1259 4147 
z
M 628 4666 
L 2053 4666 
Q 2838 4666 3239 4311 
Q 3641 3956 3641 3272 
Q 3641 2581 3239 2228 
Q 2838 1875 2053 1875 
L 1259 1875 
L 1259 0 
L 628 0 
L 628 4666 
z
" transform="scale(0.015625)"/>
       <path id="DejaVuSans-4a" d="M 628 4666 
L 1259 4666 
L 1259 325 
Q 1259 -519 939 -900 
Q 619 -1281 -91 -1281 
L -331 -1281 
L -331 -750 
L -134 -750 
Q 284 -750 456 -515 
Q 628 -281 628 325 
L 628 4666 
z
" transform="scale(0.015625)"/>
       <path id="DejaVuSans-73" d="M 2834 3397 
L 2834 2853 
Q 2591 2978 2328 3040 
Q 2066 3103 1784 3103 
Q 1356 3103 1142 2972 
Q 928 2841 928 2578 
Q 928 2378 1081 2264 
Q 1234 2150 1697 2047 
L 1894 2003 
Q 2506 1872 2764 1633 
Q 3022 1394 3022 966 
Q 3022 478 2636 193 
Q 2250 -91 1575 -91 
Q 1294 -91 989 -36 
Q 684 19 347 128 
L 347 722 
Q 666 556 975 473 
Q 1284 391 1588 391 
Q 1994 391 2212 530 
Q 2431 669 2431 922 
Q 2431 1156 2273 1281 
Q 2116 1406 1581 1522 
L 1381 1569 
Q 847 1681 609 1914 
Q 372 2147 372 2553 
Q 372 3047 722 3315 
Q 1072 3584 1716 3584 
Q 2034 3584 2315 3537 
Q 2597 3491 2834 3397 
z
" transform="scale(0.015625)"/>
      </defs>
      <use xlink:href="#DejaVuSans-50"/>
      <use xlink:href="#DejaVuSans-65" x="56.677734"/>
      <use xlink:href="#DejaVuSans-74" x="118.201172"/>
      <use xlink:href="#DejaVuSans-65" x="157.410156"/>
      <use xlink:href="#DejaVuSans-72" x="218.933594"/>
      <use xlink:href="#DejaVuSans-20" x="260.046875"/>
      <use xlink:href="#DejaVuSans-4a" x="291.833984"/>
      <use xlink:href="#DejaVuSans-61" x="321.326172"/>
      <use xlink:href="#DejaVuSans-63" x="382.605469"/>
      <use xlink:href="#DejaVuSans-6b" x="437.585938"/>
      <use xlink:href="#DejaVuSans-73" x="495.496094"/>
      <use xlink:href="#DejaVuSans-6f" x="547.595703"/>
      <use xlink:href="#DejaVuSans-6e" x="608.777344"/>
     </g>
    </g>
   </g>
   <g id="text_5">
    <g id="patch_6">
     <path d="M 215.914392 83.084387 
L 310.304705 83.084387 
L 310.304705 66.454075 
L 215.914392 66.454075 
z
" clip-path="url(#p729060e44e)" style="fill: #ffffff; opacity: 0.7; stroke: #000000; stroke-linejoin: miter"/>
    </g>
    <g clip-path="url(#p729060e44e)">
     <!-- Paul W.S. Anderson -->
     <g transform="translate(219.874392 77.252668)scale(0.09 -0.09)">
      <defs>
       <path id="DejaVuSans-75" d="M 544 1381 
L 544 3500 
L 1119 3500 
L 1119 1403 
Q 1119 906 1312 657 
Q 1506 409 1894 409 
Q 2359 409 2629 706 
Q 2900 1003 2900 1516 
L 2900 3500 
L 3475 3500 
L 3475 0 
L 2900 0 
L 2900 538 
Q 2691 219 2414 64 
Q 2138 -91 1772 -91 
Q 1169 -91 856 284 
Q 544 659 544 1381 
z
M 1991 3584 
L 1991 3584 
z
" transform="scale(0.015625)"/>
       <path id="DejaVuSans-57" d="M 213 4666 
L 850 4666 
L 1831 722 
L 2809 4666 
L 3519 4666 
L 4500 722 
L 5478 4666 
L 6119 4666 
L 4947 0 
L 4153 0 
L 3169 4050 
L 2175 0 
L 1381 0 
L 213 4666 
z
" transform="scale(0.015625)"/>
       <path id="DejaVuSans-2e" d="M 684 794 
L 1344 794 
L 1344 0 
L 684 0 
L 684 794 
z
" transform="scale(0.015625)"/>
      </defs>
      <use xlink:href="#DejaVuSans-50"/>
      <use xlink:href="#DejaVuSans-61" x="55.802734"/>
      <use xlink:href="#DejaVuSans-75" x="117.082031"/>
      <use xlink:href="#DejaVuSans-6c" x="180.460938"/>
      <use xlink:href="#DejaVuSans-20" x="208.244141"/>
      <use xlink:href="#DejaVuSans-57" x="240.03125"/>
      <use xlink:href="#DejaVuSans-2e" x="327.408203"/>
      <use xlink:href="#DejaVuSans-53" x="359.195312"/>
      <use xlink:href="#DejaVuSans-2e" x="422.671875"/>
      <use xlink:href="#DejaVuSans-20" x="454.458984"/>
      <use xlink:href="#DejaVuSans-41" x="486.246094"/>
      <use xlink:href="#DejaVuSans-6e" x="554.654297"/>
      <use xlink:href="#DejaVuSans-64" x="618.033203"/>
      <use xlink:href="#DejaVuSans-65" x="681.509766"/>
      <use xlink:href="#DejaVuSans-72" x="743.033203"/>
      <use xlink:href="#DejaVuSans-73" x="784.146484"/>
      <use xlink:href="#DejaVuSans-6f" x="836.246094"/>
      <use xlink:href="#DejaVuSans-6e" x="897.427734"/>
     </g>
    </g>
   </g>
   <g id="text_6">
    <g id="patch_7">
     <path d="M 137.944032 110.461725 
L 217.758564 110.461725 
L 217.758564 93.831412 
L 137.944032 93.831412 
z
" clip-path="url(#p729060e44e)" style="fill: #ffffff; opacity: 0.7; stroke: #000000; stroke-linejoin: miter"/>
    </g>
    <g clip-path="url(#p729060e44e)">
     <!-- Martin Scorsese -->
     <g transform="translate(141.904032 104.630006)scale(0.09 -0.09)">
      <use xlink:href="#DejaVuSans-4d"/>
      <use xlink:href="#DejaVuSans-61" x="86.279297"/>
      <use xlink:href="#DejaVuSans-72" x="147.558594"/>
      <use xlink:href="#DejaVuSans-74" x="188.671875"/>
      <use xlink:href="#DejaVuSans-69" x="227.880859"/>
      <use xlink:href="#DejaVuSans-6e" x="255.664062"/>
      <use xlink:href="#DejaVuSans-20" x="319.042969"/>
      <use xlink:href="#DejaVuSans-53" x="350.830078"/>
      <use xlink:href="#DejaVuSans-63" x="414.306641"/>
      <use xlink:href="#DejaVuSans-6f" x="469.287109"/>
      <use xlink:href="#DejaVuSans-72" x="530.46875"/>
      <use xlink:href="#DejaVuSans-73" x="571.582031"/>
      <use xlink:href="#DejaVuSans-65" x="623.681641"/>
      <use xlink:href="#DejaVuSans-73" x="685.205078"/>
      <use xlink:href="#DejaVuSans-65" x="737.304688"/>
     </g>
    </g>
   </g>
   <g id="text_7">
    <g id="patch_8">
     <path d="M 79.429836 169.743283 
L 143.033118 169.743283 
L 143.033118 153.112971 
L 79.429836 153.112971 
z
" clip-path="url(#p729060e44e)" style="fill: #ffffff; opacity: 0.7; stroke: #000000; stroke-linejoin: miter"/>
    </g>
    <g clip-path="url(#p729060e44e)">
     <!-- Woody Allen -->
     <g transform="translate(83.389836 163.911565)scale(0.09 -0.09)">
      <use xlink:href="#DejaVuSans-57"/>
      <use xlink:href="#DejaVuSans-6f" x="93.001953"/>
      <use xlink:href="#DejaVuSans-6f" x="154.183594"/>
      <use xlink:href="#DejaVuSans-64" x="215.365234"/>
      <use xlink:href="#DejaVuSans-79" x="278.841797"/>
      <use xlink:href="#DejaVuSans-20" x="338.021484"/>
      <use xlink:href="#DejaVuSans-41" x="369.808594"/>
      <use xlink:href="#DejaVuSans-6c" x="438.216797"/>
      <use xlink:href="#DejaVuSans-6c" x="466"/>
      <use xlink:href="#DejaVuSans-65" x="493.783203"/>
      <use xlink:href="#DejaVuSans-6e" x="555.306641"/>
     </g>
    </g>
   </g>
   <g id="text_8">
    <g id="patch_9">
     <path d="M 34.34095 250.678768 
L 115.197512 250.678768 
L 115.197512 234.048456 
L 34.34095 234.048456 
z
" clip-path="url(#p729060e44e)" style="fill: #ffffff; opacity: 0.7; stroke: #000000; stroke-linejoin: miter"/>
    </g>
    <g clip-path="url(#p729060e44e)">
     <!-- Carlos Saldanha -->
     <g transform="translate(38.30095 244.84705)scale(0.09 -0.09)">
      <defs>
       <path id="DejaVuSans-43" d="M 4122 4306 
L 4122 3641 
Q 3803 3938 3442 4084 
Q 3081 4231 2675 4231 
Q 1875 4231 1450 3742 
Q 1025 3253 1025 2328 
Q 1025 1406 1450 917 
Q 1875 428 2675 428 
Q 3081 428 3442 575 
Q 3803 722 4122 1019 
L 4122 359 
Q 3791 134 3420 21 
Q 3050 -91 2638 -91 
Q 1578 -91 968 557 
Q 359 1206 359 2328 
Q 359 3453 968 4101 
Q 1578 4750 2638 4750 
Q 3056 4750 3426 4639 
Q 3797 4528 4122 4306 
z
" transform="scale(0.015625)"/>
      </defs>
      <use xlink:href="#DejaVuSans-43"/>
      <use xlink:href="#DejaVuSans-61" x="69.824219"/>
      <use xlink:href="#DejaVuSans-72" x="131.103516"/>
      <use xlink:href="#DejaVuSans-6c" x="172.216797"/>
      <use xlink:href="#DejaVuSans-6f" x="200"/>
      <use xlink:href="#DejaVuSans-73" x="261.181641"/>
      <use xlink:href="#DejaVuSans-20" x="313.28125"/>
      <use xlink:href="#DejaVuSans-53" x="345.068359"/>
      <use xlink:href="#DejaVuSans-61" x="408.544922"/>
      <use xlink:href="#DejaVuSans-6c" x="469.824219"/>
      <use xlink:href="#DejaVuSans-64" x="497.607422"/>
      <use xlink:href="#DejaVuSans-61" x="561.083984"/>
      <use xlink:href="#DejaVuSans-6e" x="622.363281"/>
      <use xlink:href="#DejaVuSans-68" x="685.742188"/>
      <use xlink:href="#DejaVuSans-61" x="749.121094"/>
     </g>
    </g>
   </g>
   <g id="text_9">
    <g id="patch_10">
     <path d="M 32.78354 339.273674 
L 116.754947 339.273674 
L 116.754947 322.643361 
L 32.78354 322.643361 
z
" clip-path="url(#p729060e44e)" style="fill: #ffffff; opacity: 0.7; stroke: #000000; stroke-linejoin: miter"/>
    </g>
    <g clip-path="url(#p729060e44e)">
     <!-- Robert Zemeckis -->
     <g transform="translate(36.74354 333.441955)scale(0.09 -0.09)">
      <defs>
       <path id="DejaVuSans-52" d="M 2841 2188 
Q 3044 2119 3236 1894 
Q 3428 1669 3622 1275 
L 4263 0 
L 3584 0 
L 2988 1197 
Q 2756 1666 2539 1819 
Q 2322 1972 1947 1972 
L 1259 1972 
L 1259 0 
L 628 0 
L 628 4666 
L 2053 4666 
Q 2853 4666 3247 4331 
Q 3641 3997 3641 3322 
Q 3641 2881 3436 2590 
Q 3231 2300 2841 2188 
z
M 1259 4147 
L 1259 2491 
L 2053 2491 
Q 2509 2491 2742 2702 
Q 2975 2913 2975 3322 
Q 2975 3731 2742 3939 
Q 2509 4147 2053 4147 
L 1259 4147 
z
" transform="scale(0.015625)"/>
       <path id="DejaVuSans-5a" d="M 359 4666 
L 4025 4666 
L 4025 4184 
L 1075 531 
L 4097 531 
L 4097 0 
L 288 0 
L 288 481 
L 3238 4134 
L 359 4134 
L 359 4666 
z
" transform="scale(0.015625)"/>
       <path id="DejaVuSans-6d" d="M 3328 2828 
Q 3544 3216 3844 3400 
Q 4144 3584 4550 3584 
Q 5097 3584 5394 3201 
Q 5691 2819 5691 2113 
L 5691 0 
L 5113 0 
L 5113 2094 
Q 5113 2597 4934 2840 
Q 4756 3084 4391 3084 
Q 3944 3084 3684 2787 
Q 3425 2491 3425 1978 
L 3425 0 
L 2847 0 
L 2847 2094 
Q 2847 2600 2669 2842 
Q 2491 3084 2119 3084 
Q 1678 3084 1418 2786 
Q 1159 2488 1159 1978 
L 1159 0 
L 581 0 
L 581 3500 
L 1159 3500 
L 1159 2956 
Q 1356 3278 1631 3431 
Q 1906 3584 2284 3584 
Q 2666 3584 2933 3390 
Q 3200 3197 3328 2828 
z
" transform="scale(0.015625)"/>
      </defs>
      <use xlink:href="#DejaVuSans-52"/>
      <use xlink:href="#DejaVuSans-6f" x="64.982422"/>
      <use xlink:href="#DejaVuSans-62" x="126.164062"/>
      <use xlink:href="#DejaVuSans-65" x="189.640625"/>
      <use xlink:href="#DejaVuSans-72" x="251.164062"/>
      <use xlink:href="#DejaVuSans-74" x="292.277344"/>
      <use xlink:href="#DejaVuSans-20" x="331.486328"/>
      <use xlink:href="#DejaVuSans-5a" x="363.273438"/>
      <use xlink:href="#DejaVuSans-65" x="431.779297"/>
      <use xlink:href="#DejaVuSans-6d" x="493.302734"/>
      <use xlink:href="#DejaVuSans-65" x="590.714844"/>
      <use xlink:href="#DejaVuSans-63" x="652.238281"/>
      <use xlink:href="#DejaVuSans-6b" x="707.21875"/>
      <use xlink:href="#DejaVuSans-69" x="765.128906"/>
      <use xlink:href="#DejaVuSans-73" x="792.912109"/>
     </g>
    </g>
   </g>
   <g id="text_10">
    <g id="patch_11">
     <path d="M 82.441334 420.209133 
L 140.021646 420.209133 
L 140.021646 403.578821 
L 82.441334 403.578821 
z
" clip-path="url(#p729060e44e)" style="fill: #ffffff; opacity: 0.7; stroke: #000000; stroke-linejoin: miter"/>
    </g>
    <g clip-path="url(#p729060e44e)">
     <!-- Tim Burton -->
     <g transform="translate(86.401334 414.377414)scale(0.09 -0.09)">
      <defs>
       <path id="DejaVuSans-54" d="M -19 4666 
L 3928 4666 
L 3928 4134 
L 2272 4134 
L 2272 0 
L 1638 0 
L 1638 4134 
L -19 4134 
L -19 4666 
z
" transform="scale(0.015625)"/>
      </defs>
      <use xlink:href="#DejaVuSans-54"/>
      <use xlink:href="#DejaVuSans-69" x="57.958984"/>
      <use xlink:href="#DejaVuSans-6d" x="85.742188"/>
      <use xlink:href="#DejaVuSans-20" x="183.154297"/>
      <use xlink:href="#DejaVuSans-42" x="214.941406"/>
      <use xlink:href="#DejaVuSans-75" x="283.544922"/>
      <use xlink:href="#DejaVuSans-72" x="346.923828"/>
      <use xlink:href="#DejaVuSans-74" x="388.037109"/>
      <use xlink:href="#DejaVuSans-6f" x="427.246094"/>
      <use xlink:href="#DejaVuSans-6e" x="488.427734"/>
     </g>
    </g>
   </g>
   <g id="text_11">
    <g id="patch_12">
     <path d="M 139.23008 479.490692 
L 216.47258 479.490692 
L 216.47258 462.860379 
L 139.23008 462.860379 
z
" clip-path="url(#p729060e44e)" style="fill: #ffffff; opacity: 0.7; stroke: #000000; stroke-linejoin: miter"/>
    </g>
    <g clip-path="url(#p729060e44e)">
     <!-- Hamilton Luske -->
     <g transform="translate(143.19008 473.658973)scale(0.09 -0.09)">
      <defs>
       <path id="DejaVuSans-4c" d="M 628 4666 
L 1259 4666 
L 1259 531 
L 3531 531 
L 3531 0 
L 628 0 
L 628 4666 
z
" transform="scale(0.015625)"/>
      </defs>
      <use xlink:href="#DejaVuSans-48"/>
      <use xlink:href="#DejaVuSans-61" x="75.195312"/>
      <use xlink:href="#DejaVuSans-6d" x="136.474609"/>
      <use xlink:href="#DejaVuSans-69" x="233.886719"/>
      <use xlink:href="#DejaVuSans-6c" x="261.669922"/>
      <use xlink:href="#DejaVuSans-74" x="289.453125"/>
      <use xlink:href="#DejaVuSans-6f" x="328.662109"/>
      <use xlink:href="#DejaVuSans-6e" x="389.84375"/>
      <use xlink:href="#DejaVuSans-20" x="453.222656"/>
      <use xlink:href="#DejaVuSans-4c" x="485.009766"/>
      <use xlink:href="#DejaVuSans-75" x="538.972656"/>
      <use xlink:href="#DejaVuSans-73" x="602.351562"/>
      <use xlink:href="#DejaVuSans-6b" x="654.451172"/>
      <use xlink:href="#DejaVuSans-65" x="708.736328"/>
     </g>
    </g>
   </g>
   <g id="text_12">
    <g id="patch_13">
     <path d="M 224.544587 506.868017 
L 301.674587 506.868017 
L 301.674587 490.237704 
L 224.544587 490.237704 
z
" clip-path="url(#p729060e44e)" style="fill: #ffffff; opacity: 0.7; stroke: #000000; stroke-linejoin: miter"/>
    </g>
    <g clip-path="url(#p729060e44e)">
     <!-- Clyde Geronimi -->
     <g transform="translate(228.504587 501.036298)scale(0.09 -0.09)">
      <defs>
       <path id="DejaVuSans-47" d="M 3809 666 
L 3809 1919 
L 2778 1919 
L 2778 2438 
L 4434 2438 
L 4434 434 
Q 4069 175 3628 42 
Q 3188 -91 2688 -91 
Q 1594 -91 976 548 
Q 359 1188 359 2328 
Q 359 3472 976 4111 
Q 1594 4750 2688 4750 
Q 3144 4750 3555 4637 
Q 3966 4525 4313 4306 
L 4313 3634 
Q 3963 3931 3569 4081 
Q 3175 4231 2741 4231 
Q 1884 4231 1454 3753 
Q 1025 3275 1025 2328 
Q 1025 1384 1454 906 
Q 1884 428 2741 428 
Q 3075 428 3337 486 
Q 3600 544 3809 666 
z
" transform="scale(0.015625)"/>
      </defs>
      <use xlink:href="#DejaVuSans-43"/>
      <use xlink:href="#DejaVuSans-6c" x="69.824219"/>
      <use xlink:href="#DejaVuSans-79" x="97.607422"/>
      <use xlink:href="#DejaVuSans-64" x="156.787109"/>
      <use xlink:href="#DejaVuSans-65" x="220.263672"/>
      <use xlink:href="#DejaVuSans-20" x="281.787109"/>
      <use xlink:href="#DejaVuSans-47" x="313.574219"/>
      <use xlink:href="#DejaVuSans-65" x="391.064453"/>
      <use xlink:href="#DejaVuSans-72" x="452.587891"/>
      <use xlink:href="#DejaVuSans-6f" x="491.451172"/>
      <use xlink:href="#DejaVuSans-6e" x="552.632812"/>
      <use xlink:href="#DejaVuSans-69" x="616.011719"/>
      <use xlink:href="#DejaVuSans-6d" x="643.794922"/>
      <use xlink:href="#DejaVuSans-69" x="741.207031"/>
     </g>
    </g>
   </g>
   <g id="text_13">
    <g id="patch_14">
     <path d="M 323.925573 497.607316 
L 380.603073 497.607316 
L 380.603073 480.977003 
L 323.925573 480.977003 
z
" clip-path="url(#p729060e44e)" style="fill: #ffffff; opacity: 0.7; stroke: #000000; stroke-linejoin: miter"/>
    </g>
    <g clip-path="url(#p729060e44e)">
     <!-- Rob Reiner -->
     <g transform="translate(327.885573 491.775597)scale(0.09 -0.09)">
      <use xlink:href="#DejaVuSans-52"/>
      <use xlink:href="#DejaVuSans-6f" x="64.982422"/>
      <use xlink:href="#DejaVuSans-62" x="126.164062"/>
      <use xlink:href="#DejaVuSans-20" x="189.640625"/>
      <use xlink:href="#DejaVuSans-52" x="221.427734"/>
      <use xlink:href="#DejaVuSans-65" x="286.410156"/>
      <use xlink:href="#DejaVuSans-69" x="347.933594"/>
      <use xlink:href="#DejaVuSans-6e" x="375.716797"/>
      <use xlink:href="#DejaVuSans-65" x="439.095703"/>
      <use xlink:href="#DejaVuSans-72" x="500.619141"/>
     </g>
    </g>
   </g>
   <g id="text_14">
    <g id="patch_15">
     <path d="M 377.321607 453.309844 
L 482.47817 453.309844 
L 482.47817 436.679532 
L 377.321607 436.679532 
z
" clip-path="url(#p729060e44e)" style="fill: #ffffff; opacity: 0.7; stroke: #000000; stroke-linejoin: miter"/>
    </g>
    <g clip-path="url(#p729060e44e)">
     <!-- Wolfgang Reitherman -->
     <g transform="translate(381.281607 447.478126)scale(0.09 -0.09)">
      <use xlink:href="#DejaVuSans-57"/>
      <use xlink:href="#DejaVuSans-6f" x="93.001953"/>
      <use xlink:href="#DejaVuSans-6c" x="154.183594"/>
      <use xlink:href="#DejaVuSans-66" x="181.966797"/>
      <use xlink:href="#DejaVuSans-67" x="217.171875"/>
      <use xlink:href="#DejaVuSans-61" x="280.648438"/>
      <use xlink:href="#DejaVuSans-6e" x="341.927734"/>
      <use xlink:href="#DejaVuSans-67" x="405.306641"/>
      <use xlink:href="#DejaVuSans-20" x="468.783203"/>
      <use xlink:href="#DejaVuSans-52" x="500.570312"/>
      <use xlink:href="#DejaVuSans-65" x="565.552734"/>
      <use xlink:href="#DejaVuSans-69" x="627.076172"/>
      <use xlink:href="#DejaVuSans-74" x="654.859375"/>
      <use xlink:href="#DejaVuSans-68" x="694.068359"/>
      <use xlink:href="#DejaVuSans-65" x="757.447266"/>
      <use xlink:href="#DejaVuSans-72" x="818.970703"/>
      <use xlink:href="#DejaVuSans-6d" x="858.333984"/>
      <use xlink:href="#DejaVuSans-61" x="955.746094"/>
      <use xlink:href="#DejaVuSans-6e" x="1017.025391"/>
     </g>
    </g>
   </g>
   <g id="text_15">
    <g id="patch_16">
     <path d="M 439.677842 381.63506 
L 525.506905 381.63506 
L 525.506905 365.004748 
L 439.677842 365.004748 
z
" clip-path="url(#p729060e44e)" style="fill: #ffffff; opacity: 0.7; stroke: #000000; stroke-linejoin: miter"/>
    </g>
    <g clip-path="url(#p729060e44e)">
     <!-- Barry Sonnenfeld -->
     <g transform="translate(443.637842 375.803341)scale(0.09 -0.09)">
      <use xlink:href="#DejaVuSans-42"/>
      <use xlink:href="#DejaVuSans-61" x="68.603516"/>
      <use xlink:href="#DejaVuSans-72" x="129.882812"/>
      <use xlink:href="#DejaVuSans-72" x="169.246094"/>
      <use xlink:href="#DejaVuSans-79" x="210.359375"/>
      <use xlink:href="#DejaVuSans-20" x="269.539062"/>
      <use xlink:href="#DejaVuSans-53" x="301.326172"/>
      <use xlink:href="#DejaVuSans-6f" x="364.802734"/>
      <use xlink:href="#DejaVuSans-6e" x="425.984375"/>
      <use xlink:href="#DejaVuSans-6e" x="489.363281"/>
      <use xlink:href="#DejaVuSans-65" x="552.742188"/>
      <use xlink:href="#DejaVuSans-6e" x="614.265625"/>
      <use xlink:href="#DejaVuSans-66" x="677.644531"/>
      <use xlink:href="#DejaVuSans-65" x="712.849609"/>
      <use xlink:href="#DejaVuSans-6c" x="774.373047"/>
      <use xlink:href="#DejaVuSans-64" x="802.15625"/>
     </g>
    </g>
   </g>
   <g id="text_16">
    <!-- Impactful directors for Adventure genre - Importance rank: 7 -->
    <g transform="translate(105.58125 4.8)scale(0.12 -0.12)">
     <defs>
      <path id="DejaVuSans-49" d="M 628 4666 
L 1259 4666 
L 1259 0 
L 628 0 
L 628 4666 
z
" transform="scale(0.015625)"/>
      <path id="DejaVuSans-2d" d="M 313 2009 
L 1997 2009 
L 1997 1497 
L 313 1497 
L 313 2009 
z
" transform="scale(0.015625)"/>
      <path id="DejaVuSans-3a" d="M 750 794 
L 1409 794 
L 1409 0 
L 750 0 
L 750 794 
z
M 750 3309 
L 1409 3309 
L 1409 2516 
L 750 2516 
L 750 3309 
z
" transform="scale(0.015625)"/>
      <path id="DejaVuSans-37" d="M 525 4666 
L 3525 4666 
L 3525 4397 
L 1831 0 
L 1172 0 
L 2766 4134 
L 525 4134 
L 525 4666 
z
" transform="scale(0.015625)"/>
     </defs>
     <use xlink:href="#DejaVuSans-49"/>
     <use xlink:href="#DejaVuSans-6d" x="29.492188"/>
     <use xlink:href="#DejaVuSans-70" x="126.904297"/>
     <use xlink:href="#DejaVuSans-61" x="190.380859"/>
     <use xlink:href="#DejaVuSans-63" x="251.660156"/>
     <use xlink:href="#DejaVuSans-74" x="306.640625"/>
     <use xlink:href="#DejaVuSans-66" x="345.849609"/>
     <use xlink:href="#DejaVuSans-75" x="381.054688"/>
     <use xlink:href="#DejaVuSans-6c" x="444.433594"/>
     <use xlink:href="#DejaVuSans-20" x="472.216797"/>
     <use xlink:href="#DejaVuSans-64" x="504.003906"/>
     <use xlink:href="#DejaVuSans-69" x="567.480469"/>
     <use xlink:href="#DejaVuSans-72" x="595.263672"/>
     <use xlink:href="#DejaVuSans-65" x="634.126953"/>
     <use xlink:href="#DejaVuSans-63" x="695.650391"/>
     <use xlink:href="#DejaVuSans-74" x="750.630859"/>
     <use xlink:href="#DejaVuSans-6f" x="789.839844"/>
     <use xlink:href="#DejaVuSans-72" x="851.021484"/>
     <use xlink:href="#DejaVuSans-73" x="892.134766"/>
     <use xlink:href="#DejaVuSans-20" x="944.234375"/>
     <use xlink:href="#DejaVuSans-66" x="976.021484"/>
     <use xlink:href="#DejaVuSans-6f" x="1011.226562"/>
     <use xlink:href="#DejaVuSans-72" x="1072.408203"/>
     <use xlink:href="#DejaVuSans-20" x="1113.521484"/>
     <use xlink:href="#DejaVuSans-41" x="1145.308594"/>
     <use xlink:href="#DejaVuSans-64" x="1211.966797"/>
     <use xlink:href="#DejaVuSans-76" x="1275.443359"/>
     <use xlink:href="#DejaVuSans-65" x="1334.623047"/>
     <use xlink:href="#DejaVuSans-6e" x="1396.146484"/>
     <use xlink:href="#DejaVuSans-74" x="1459.525391"/>
     <use xlink:href="#DejaVuSans-75" x="1498.734375"/>
     <use xlink:href="#DejaVuSans-72" x="1562.113281"/>
     <use xlink:href="#DejaVuSans-65" x="1600.976562"/>
     <use xlink:href="#DejaVuSans-20" x="1662.5"/>
     <use xlink:href="#DejaVuSans-67" x="1694.287109"/>
     <use xlink:href="#DejaVuSans-65" x="1757.763672"/>
     <use xlink:href="#DejaVuSans-6e" x="1819.287109"/>
     <use xlink:href="#DejaVuSans-72" x="1882.666016"/>
     <use xlink:href="#DejaVuSans-65" x="1921.529297"/>
     <use xlink:href="#DejaVuSans-20" x="1983.052734"/>
     <use xlink:href="#DejaVuSans-2d" x="2014.839844"/>
     <use xlink:href="#DejaVuSans-20" x="2050.923828"/>
     <use xlink:href="#DejaVuSans-49" x="2082.710938"/>
     <use xlink:href="#DejaVuSans-6d" x="2112.203125"/>
     <use xlink:href="#DejaVuSans-70" x="2209.615234"/>
     <use xlink:href="#DejaVuSans-6f" x="2273.091797"/>
     <use xlink:href="#DejaVuSans-72" x="2334.273438"/>
     <use xlink:href="#DejaVuSans-74" x="2375.386719"/>
     <use xlink:href="#DejaVuSans-61" x="2414.595703"/>
     <use xlink:href="#DejaVuSans-6e" x="2475.875"/>
     <use xlink:href="#DejaVuSans-63" x="2539.253906"/>
     <use xlink:href="#DejaVuSans-65" x="2594.234375"/>
     <use xlink:href="#DejaVuSans-20" x="2655.757812"/>
     <use xlink:href="#DejaVuSans-72" x="2687.544922"/>
     <use xlink:href="#DejaVuSans-61" x="2728.658203"/>
     <use xlink:href="#DejaVuSans-6e" x="2789.9375"/>
     <use xlink:href="#DejaVuSans-6b" x="2853.316406"/>
     <use xlink:href="#DejaVuSans-3a" x="2911.226562"/>
     <use xlink:href="#DejaVuSans-20" x="2944.917969"/>
     <use xlink:href="#DejaVuSans-37" x="2976.705078"/>
    </g>
   </g>
  </g>
 </g>
 <defs>
  <clipPath id="p729060e44e">
   <rect x="10.8" y="10.8" width="554.4" height="554.4"/>
  </clipPath>
 </defs>
</svg>
