<?xml version="1.0" encoding="utf-8" standalone="no"?>
<!DOCTYPE svg PUBLIC "-//W3C//DTD SVG 1.1//EN"
  "http://www.w3.org/Graphics/SVG/1.1/DTD/svg11.dtd">
<svg xmlns:xlink="http://www.w3.org/1999/xlink" width="568.8pt" height="583.918125pt" viewBox="0 0 568.8 583.918125" xmlns="http://www.w3.org/2000/svg" version="1.1">
 <metadata>
  <rdf:RDF xmlns:dc="http://purl.org/dc/elements/1.1/" xmlns:cc="http://creativecommons.org/ns#" xmlns:rdf="http://www.w3.org/1999/02/22-rdf-syntax-ns#">
   <cc:Work>
    <dc:type rdf:resource="http://purl.org/dc/dcmitype/StillImage"/>
    <dc:date>2022-12-23T20:57:09.405325</dc:date>
    <dc:format>image/svg+xml</dc:format>
    <dc:creator>
     <cc:Agent>
      <dc:title>Matplotlib v3.5.3, https://matplotlib.org/</dc:title>
     </cc:Agent>
    </dc:creator>
   </cc:Work>
  </rdf:RDF>
 </metadata>
 <defs>
  <style type="text/css">*{stroke-linejoin: round; stroke-linecap: butt}</style>
 </defs>
 <g id="figure_1">
  <g id="patch_1">
   <path d="M 0 583.918125 
L 568.8 583.918125 
L 568.8 0 
L 0 0 
z
" style="fill: #ffffff"/>
  </g>
  <g id="axes_1">
   <g id="LineCollection_1">
    <path d="M 490.3103 299.955412 
L 471.991819 212.927761 
" clip-path="url(#pae5da216ac)" style="fill: none; stroke: #000000; stroke-opacity: 0.3; stroke-width: 5"/>
    <path d="M 420.203819 140.947971 
L 343.900922 96.462025 
" clip-path="url(#pae5da216ac)" style="fill: none; stroke: #000000; stroke-opacity: 0.3; stroke-width: 10"/>
   </g>
   <g id="PathCollection_1">
    <path d="M 490.3103 327.34154 
C 497.573186 327.34154 504.539581 324.455965 509.675217 319.320329 
C 514.810853 314.184693 517.696428 307.218298 517.696428 299.955412 
C 517.696428 292.692526 514.810853 285.726131 509.675217 280.590495 
C 504.539581 275.454859 497.573186 272.569284 490.3103 272.569284 
C 483.047414 272.569284 476.08102 275.454859 470.945384 280.590495 
C 465.809748 285.726131 462.924172 292.692526 462.924172 299.955412 
C 462.924172 307.218298 465.809748 314.184693 470.945384 319.320329 
C 476.08102 324.455965 483.047414 327.34154 490.3103 327.34154 
z
" clip-path="url(#pae5da216ac)" style="fill: #c70039; fill-opacity: 0.99; stroke: #c70039; stroke-opacity: 0.99"/>
    <path d="M 471.991819 237.65984 
C 478.550843 237.65984 484.842109 235.053913 489.48004 230.415982 
C 494.11797 225.778052 496.723898 219.486785 496.723898 212.927761 
C 496.723898 206.368737 494.11797 200.07747 489.48004 195.439539 
C 484.842109 190.801609 478.550843 188.195681 471.991819 188.195681 
C 465.432794 188.195681 459.141528 190.801609 454.503597 195.439539 
C 449.865667 200.07747 447.259739 206.368737 447.259739 212.927761 
C 447.259739 219.486785 449.865667 225.778052 454.503597 230.415982 
C 459.141528 235.053913 465.432794 237.65984 471.991819 237.65984 
z
" clip-path="url(#pae5da216ac)" style="fill: #c70039; fill-opacity: 0.99; stroke: #c70039; stroke-opacity: 0.99"/>
    <path d="M 420.203819 165.680051 
C 426.762843 165.680051 433.05411 163.074123 437.69204 158.436192 
C 442.329971 153.798262 444.935899 147.506995 444.935899 140.947971 
C 444.935899 134.388947 442.329971 128.09768 437.69204 123.45975 
C 433.05411 118.821819 426.762843 116.215891 420.203819 116.215891 
C 413.644795 116.215891 407.353528 118.821819 402.715598 123.45975 
C 398.077667 128.09768 395.471739 134.388947 395.471739 140.947971 
C 395.471739 147.506995 398.077667 153.798262 402.715598 158.436192 
C 407.353528 163.074123 413.644795 165.680051 420.203819 165.680051 
z
" clip-path="url(#pae5da216ac)" style="fill: #c70039; fill-opacity: 0.99; stroke: #c70039; stroke-opacity: 0.99"/>
    <path d="M 343.900922 120.571737 
C 350.294892 120.571737 356.427843 118.031386 360.949063 113.510166 
C 365.470282 108.988946 368.010634 102.855996 368.010634 96.462025 
C 368.010634 90.068055 365.470282 83.935104 360.949063 79.413884 
C 356.427843 74.892664 350.294892 72.352313 343.900922 72.352313 
C 337.506951 72.352313 331.374 74.892664 326.85278 79.413884 
C 322.331561 83.935104 319.791209 90.068055 319.791209 96.462025 
C 319.791209 102.855996 322.331561 108.988946 326.85278 113.510166 
C 331.374 118.031386 337.506951 120.571737 343.900922 120.571737 
z
" clip-path="url(#pae5da216ac)" style="fill: #c70039; fill-opacity: 0.99; stroke: #c70039; stroke-opacity: 0.99"/>
    <path d="M 256.276574 111.162224 
C 262.641526 111.162224 268.746643 108.633401 273.247344 104.1327 
C 277.748045 99.631999 280.276868 93.526882 280.276868 87.16193 
C 280.276868 80.796977 277.748045 74.69186 273.247344 70.191159 
C 268.746643 65.690458 262.641526 63.161636 256.276574 63.161636 
C 249.911621 63.161636 243.806504 65.690458 239.305803 70.191159 
C 234.805102 74.69186 232.27628 80.796977 232.27628 87.16193 
C 232.27628 93.526882 234.805102 99.631999 239.305803 104.1327 
C 243.806504 108.633401 249.911621 111.162224 256.276574 111.162224 
z
" clip-path="url(#pae5da216ac)" style="fill: #c70039; fill-opacity: 0.99; stroke: #c70039; stroke-opacity: 0.99"/>
    <path d="M 172.481832 137.001084 
C 178.40788 137.001084 184.092009 134.64664 188.282357 130.456292 
C 192.472706 126.265944 194.827149 120.581814 194.827149 114.655767 
C 194.827149 108.72972 192.472706 103.04559 188.282357 98.855242 
C 184.092009 94.664894 178.40788 92.31045 172.481832 92.31045 
C 166.555785 92.31045 160.871656 94.664894 156.681307 98.855242 
C 152.490959 103.04559 150.136516 108.72972 150.136516 114.655767 
C 150.136516 120.581814 152.490959 126.265944 156.681307 130.456292 
C 160.871656 134.64664 166.555785 137.001084 172.481832 137.001084 
z
" clip-path="url(#pae5da216ac)" style="fill: #c70039; fill-opacity: 0.99; stroke: #c70039; stroke-opacity: 0.99"/>
    <path d="M 107.005581 196.4376 
C 112.905822 196.4376 118.5652 194.093409 122.737301 189.921308 
C 126.909402 185.749207 129.253593 180.089829 129.253593 174.189587 
C 129.253593 168.289345 126.909402 162.629968 122.737301 158.457867 
C 118.5652 154.285766 112.905822 151.941575 107.005581 151.941575 
C 101.105339 151.941575 95.445961 154.285766 91.27386 158.457867 
C 87.101759 162.629968 84.757568 168.289345 84.757568 174.189587 
C 84.757568 180.089829 87.101759 185.749207 91.27386 189.921308 
C 95.445961 194.093409 101.105339 196.4376 107.005581 196.4376 
z
" clip-path="url(#pae5da216ac)" style="fill: #c70039; fill-opacity: 0.99; stroke: #c70039; stroke-opacity: 0.99"/>
    <path d="M 71.169231 276.985262 
C 76.875283 276.985262 82.348399 274.718223 86.383187 270.683435 
C 90.417976 266.648647 92.685014 261.175531 92.685014 255.469479 
C 92.685014 249.763426 90.417976 244.290311 86.383187 240.255522 
C 82.348399 236.220734 76.875283 233.953695 71.169231 233.953695 
C 65.463178 233.953695 59.990063 236.220734 55.955274 240.255522 
C 51.920486 244.290311 49.653447 249.763426 49.653447 255.469479 
C 49.653447 261.175531 51.920486 266.648647 55.955274 270.683435 
C 59.990063 274.718223 65.463178 276.985262 71.169231 276.985262 
z
" clip-path="url(#pae5da216ac)" style="fill: #c70039; fill-opacity: 0.99; stroke: #c70039; stroke-opacity: 0.99"/>
    <path d="M 71.169243 365.241906 
C 76.685606 365.241906 81.976776 363.050232 85.877434 359.149574 
C 89.778091 355.248916 91.969766 349.957747 91.969766 344.441384 
C 91.969766 338.925021 89.778091 333.633851 85.877434 329.733193 
C 81.976776 325.832535 76.685606 323.640861 71.169243 323.640861 
C 65.65288 323.640861 60.361711 325.832535 56.461053 329.733193 
C 52.560395 333.633851 50.368721 338.925021 50.368721 344.441384 
C 50.368721 349.957747 52.560395 355.248916 56.461053 359.149574 
C 60.361711 363.050232 65.65288 365.241906 71.169243 365.241906 
z
" clip-path="url(#pae5da216ac)" style="fill: #c70039; fill-opacity: 0.99; stroke: #c70039; stroke-opacity: 0.99"/>
    <path d="M 107.005593 446.378335 
C 112.483916 446.378335 117.738599 444.201774 121.612359 440.328015 
C 125.486118 436.454255 127.662679 431.199573 127.662679 425.721249 
C 127.662679 420.242926 125.486118 414.988243 121.612359 411.114484 
C 117.738599 407.240724 112.483916 405.064164 107.005593 405.064164 
C 101.52727 405.064164 96.272587 407.240724 92.398828 411.114484 
C 88.525068 414.988243 86.348507 420.242926 86.348507 425.721249 
C 86.348507 431.199573 88.525068 436.454255 92.398828 440.328015 
C 96.272587 444.201774 101.52727 446.378335 107.005593 446.378335 
z
" clip-path="url(#pae5da216ac)" style="fill: #c70039; fill-opacity: 0.99; stroke: #c70039; stroke-opacity: 0.99"/>
    <path d="M 172.481864 505.886093 
C 177.953275 505.886093 183.201329 503.712279 187.070201 499.843407 
C 190.939073 495.974534 193.112888 490.726481 193.112888 485.25507 
C 193.112888 479.783658 190.939073 474.535605 187.070201 470.666733 
C 183.201329 466.797861 177.953275 464.624046 172.481864 464.624046 
C 167.010453 464.624046 161.762399 466.797861 157.893527 470.666733 
C 154.024655 474.535605 151.85084 479.783658 151.85084 485.25507 
C 151.85084 490.726481 154.024655 495.974534 157.893527 499.843407 
C 161.762399 503.712279 167.010453 505.886093 172.481864 505.886093 
z
" clip-path="url(#pae5da216ac)" style="fill: #c70039; fill-opacity: 0.99; stroke: #c70039; stroke-opacity: 0.99"/>
    <path d="M 256.276612 532.810601 
C 261.597038 532.810601 266.70027 530.696773 270.46238 526.934663 
C 274.22449 523.172553 276.338318 518.069321 276.338318 512.748894 
C 276.338318 507.428468 274.22449 502.325235 270.46238 498.563126 
C 266.70027 494.801016 261.597038 492.687188 256.276612 492.687188 
C 250.956185 492.687188 245.852953 494.801016 242.090843 498.563126 
C 238.328733 502.325235 236.214905 507.428468 236.214905 512.748894 
C 236.214905 518.069321 238.328733 523.172553 242.090843 526.934663 
C 245.852953 530.696773 250.956185 532.810601 256.276612 532.810601 
z
" clip-path="url(#pae5da216ac)" style="fill: #c70039; fill-opacity: 0.99; stroke: #c70039; stroke-opacity: 0.99"/>
    <path d="M 343.900953 523.453487 
C 349.206262 523.453487 354.294993 521.345666 358.046413 517.594246 
C 361.797833 513.842826 363.905654 508.754095 363.905654 503.448786 
C 363.905654 498.143477 361.797833 493.054746 358.046413 489.303326 
C 354.294993 485.551906 349.206262 483.444085 343.900953 483.444085 
C 338.595644 483.444085 333.506913 485.551906 329.755493 489.303326 
C 326.004074 493.054746 323.896252 498.143477 323.896252 503.448786 
C 323.896252 508.754095 326.004074 513.842826 329.755493 517.594246 
C 333.506913 521.345666 338.595644 523.453487 343.900953 523.453487 
z
" clip-path="url(#pae5da216ac)" style="fill: #c70039; fill-opacity: 0.99; stroke: #c70039; stroke-opacity: 0.99"/>
    <path d="M 420.203857 478.59546 
C 425.410495 478.59546 430.404584 476.52684 434.086233 472.845191 
C 437.767883 469.163542 439.836502 464.169453 439.836502 458.962815 
C 439.836502 453.756176 437.767883 448.762087 434.086233 445.080438 
C 430.404584 441.398789 425.410495 439.330169 420.203857 439.330169 
C 414.997219 439.330169 410.00313 441.398789 406.321481 445.080438 
C 402.639831 448.762087 400.571212 453.756176 400.571212 458.962815 
C 400.571212 464.169453 402.639831 469.163542 406.321481 472.845191 
C 410.00313 476.52684 414.997219 478.59546 420.203857 478.59546 
z
" clip-path="url(#pae5da216ac)" style="fill: #c70039; fill-opacity: 0.99; stroke: #c70039; stroke-opacity: 0.99"/>
    <path d="M 471.991844 406.347948 
C 477.12748 406.347948 482.053465 404.307538 485.684908 400.676095 
C 489.316351 397.044652 491.356761 392.118667 491.356761 386.983031 
C 491.356761 381.847395 489.316351 376.92141 485.684908 373.289967 
C 482.053465 369.658524 477.12748 367.618115 471.991844 367.618115 
C 466.856208 367.618115 461.930223 369.658524 458.29878 373.289967 
C 454.667337 376.92141 452.626927 381.847395 452.626927 386.983031 
C 452.626927 392.118667 454.667337 397.044652 458.29878 400.676095 
C 461.930223 404.307538 466.856208 406.347948 471.991844 406.347948 
z
" clip-path="url(#pae5da216ac)" style="fill: #c70039; fill-opacity: 0.99; stroke: #c70039; stroke-opacity: 0.99"/>
   </g>
   <g id="text_1">
    <g id="patch_2">
     <path d="M 458.948113 308.270568 
L 521.672488 308.270568 
L 521.672488 291.640256 
L 458.948113 291.640256 
z
" clip-path="url(#pae5da216ac)" style="fill: #ffffff; opacity: 0.7; stroke: #000000; stroke-linejoin: miter"/>
    </g>
    <g clip-path="url(#pae5da216ac)">
     <!-- Chuck Jones -->
     <g transform="translate(462.908113 302.438849)scale(0.09 -0.09)">
      <defs>
       <path id="DejaVuSans-43" d="M 4122 4306 
L 4122 3641 
Q 3803 3938 3442 4084 
Q 3081 4231 2675 4231 
Q 1875 4231 1450 3742 
Q 1025 3253 1025 2328 
Q 1025 1406 1450 917 
Q 1875 428 2675 428 
Q 3081 428 3442 575 
Q 3803 722 4122 1019 
L 4122 359 
Q 3791 134 3420 21 
Q 3050 -91 2638 -91 
Q 1578 -91 968 557 
Q 359 1206 359 2328 
Q 359 3453 968 4101 
Q 1578 4750 2638 4750 
Q 3056 4750 3426 4639 
Q 3797 4528 4122 4306 
z
" transform="scale(0.015625)"/>
       <path id="DejaVuSans-68" d="M 3513 2113 
L 3513 0 
L 2938 0 
L 2938 2094 
Q 2938 2591 2744 2837 
Q 2550 3084 2163 3084 
Q 1697 3084 1428 2787 
Q 1159 2491 1159 1978 
L 1159 0 
L 581 0 
L 581 4863 
L 1159 4863 
L 1159 2956 
Q 1366 3272 1645 3428 
Q 1925 3584 2291 3584 
Q 2894 3584 3203 3211 
Q 3513 2838 3513 2113 
z
" transform="scale(0.015625)"/>
       <path id="DejaVuSans-75" d="M 544 1381 
L 544 3500 
L 1119 3500 
L 1119 1403 
Q 1119 906 1312 657 
Q 1506 409 1894 409 
Q 2359 409 2629 706 
Q 2900 1003 2900 1516 
L 2900 3500 
L 3475 3500 
L 3475 0 
L 2900 0 
L 2900 538 
Q 2691 219 2414 64 
Q 2138 -91 1772 -91 
Q 1169 -91 856 284 
Q 544 659 544 1381 
z
M 1991 3584 
L 1991 3584 
z
" transform="scale(0.015625)"/>
       <path id="DejaVuSans-63" d="M 3122 3366 
L 3122 2828 
Q 2878 2963 2633 3030 
Q 2388 3097 2138 3097 
Q 1578 3097 1268 2742 
Q 959 2388 959 1747 
Q 959 1106 1268 751 
Q 1578 397 2138 397 
Q 2388 397 2633 464 
Q 2878 531 3122 666 
L 3122 134 
Q 2881 22 2623 -34 
Q 2366 -91 2075 -91 
Q 1284 -91 818 406 
Q 353 903 353 1747 
Q 353 2603 823 3093 
Q 1294 3584 2113 3584 
Q 2378 3584 2631 3529 
Q 2884 3475 3122 3366 
z
" transform="scale(0.015625)"/>
       <path id="DejaVuSans-6b" d="M 581 4863 
L 1159 4863 
L 1159 1991 
L 2875 3500 
L 3609 3500 
L 1753 1863 
L 3688 0 
L 2938 0 
L 1159 1709 
L 1159 0 
L 581 0 
L 581 4863 
z
" transform="scale(0.015625)"/>
       <path id="DejaVuSans-20" transform="scale(0.015625)"/>
       <path id="DejaVuSans-4a" d="M 628 4666 
L 1259 4666 
L 1259 325 
Q 1259 -519 939 -900 
Q 619 -1281 -91 -1281 
L -331 -1281 
L -331 -750 
L -134 -750 
Q 284 -750 456 -515 
Q 628 -281 628 325 
L 628 4666 
z
" transform="scale(0.015625)"/>
       <path id="DejaVuSans-6f" d="M 1959 3097 
Q 1497 3097 1228 2736 
Q 959 2375 959 1747 
Q 959 1119 1226 758 
Q 1494 397 1959 397 
Q 2419 397 2687 759 
Q 2956 1122 2956 1747 
Q 2956 2369 2687 2733 
Q 2419 3097 1959 3097 
z
M 1959 3584 
Q 2709 3584 3137 3096 
Q 3566 2609 3566 1747 
Q 3566 888 3137 398 
Q 2709 -91 1959 -91 
Q 1206 -91 779 398 
Q 353 888 353 1747 
Q 353 2609 779 3096 
Q 1206 3584 1959 3584 
z
" transform="scale(0.015625)"/>
       <path id="DejaVuSans-6e" d="M 3513 2113 
L 3513 0 
L 2938 0 
L 2938 2094 
Q 2938 2591 2744 2837 
Q 2550 3084 2163 3084 
Q 1697 3084 1428 2787 
Q 1159 2491 1159 1978 
L 1159 0 
L 581 0 
L 581 3500 
L 1159 3500 
L 1159 2956 
Q 1366 3272 1645 3428 
Q 1925 3584 2291 3584 
Q 2894 3584 3203 3211 
Q 3513 2838 3513 2113 
z
" transform="scale(0.015625)"/>
       <path id="DejaVuSans-65" d="M 3597 1894 
L 3597 1613 
L 953 1613 
Q 991 1019 1311 708 
Q 1631 397 2203 397 
Q 2534 397 2845 478 
Q 3156 559 3463 722 
L 3463 178 
Q 3153 47 2828 -22 
Q 2503 -91 2169 -91 
Q 1331 -91 842 396 
Q 353 884 353 1716 
Q 353 2575 817 3079 
Q 1281 3584 2069 3584 
Q 2775 3584 3186 3129 
Q 3597 2675 3597 1894 
z
M 3022 2063 
Q 3016 2534 2758 2815 
Q 2500 3097 2075 3097 
Q 1594 3097 1305 2825 
Q 1016 2553 972 2059 
L 3022 2063 
z
" transform="scale(0.015625)"/>
       <path id="DejaVuSans-73" d="M 2834 3397 
L 2834 2853 
Q 2591 2978 2328 3040 
Q 2066 3103 1784 3103 
Q 1356 3103 1142 2972 
Q 928 2841 928 2578 
Q 928 2378 1081 2264 
Q 1234 2150 1697 2047 
L 1894 2003 
Q 2506 1872 2764 1633 
Q 3022 1394 3022 966 
Q 3022 478 2636 193 
Q 2250 -91 1575 -91 
Q 1294 -91 989 -36 
Q 684 19 347 128 
L 347 722 
Q 666 556 975 473 
Q 1284 391 1588 391 
Q 1994 391 2212 530 
Q 2431 669 2431 922 
Q 2431 1156 2273 1281 
Q 2116 1406 1581 1522 
L 1381 1569 
Q 847 1681 609 1914 
Q 372 2147 372 2553 
Q 372 3047 722 3315 
Q 1072 3584 1716 3584 
Q 2034 3584 2315 3537 
Q 2597 3491 2834 3397 
z
" transform="scale(0.015625)"/>
      </defs>
      <use xlink:href="#DejaVuSans-43"/>
      <use xlink:href="#DejaVuSans-68" x="69.824219"/>
      <use xlink:href="#DejaVuSans-75" x="133.203125"/>
      <use xlink:href="#DejaVuSans-63" x="196.582031"/>
      <use xlink:href="#DejaVuSans-6b" x="251.5625"/>
      <use xlink:href="#DejaVuSans-20" x="309.472656"/>
      <use xlink:href="#DejaVuSans-4a" x="341.259766"/>
      <use xlink:href="#DejaVuSans-6f" x="370.751953"/>
      <use xlink:href="#DejaVuSans-6e" x="431.933594"/>
      <use xlink:href="#DejaVuSans-65" x="495.3125"/>
      <use xlink:href="#DejaVuSans-73" x="556.835938"/>
     </g>
    </g>
   </g>
   <g id="text_2">
    <g id="patch_3">
     <path d="M 442.370569 221.242917 
L 501.613069 221.242917 
L 501.613069 204.612604 
L 442.370569 204.612604 
z
" clip-path="url(#pae5da216ac)" style="fill: #ffffff; opacity: 0.7; stroke: #000000; stroke-linejoin: miter"/>
    </g>
    <g clip-path="url(#pae5da216ac)">
     <!-- Friz Freleng -->
     <g transform="translate(446.330569 215.411198)scale(0.09 -0.09)">
      <defs>
       <path id="DejaVuSans-46" d="M 628 4666 
L 3309 4666 
L 3309 4134 
L 1259 4134 
L 1259 2759 
L 3109 2759 
L 3109 2228 
L 1259 2228 
L 1259 0 
L 628 0 
L 628 4666 
z
" transform="scale(0.015625)"/>
       <path id="DejaVuSans-72" d="M 2631 2963 
Q 2534 3019 2420 3045 
Q 2306 3072 2169 3072 
Q 1681 3072 1420 2755 
Q 1159 2438 1159 1844 
L 1159 0 
L 581 0 
L 581 3500 
L 1159 3500 
L 1159 2956 
Q 1341 3275 1631 3429 
Q 1922 3584 2338 3584 
Q 2397 3584 2469 3576 
Q 2541 3569 2628 3553 
L 2631 2963 
z
" transform="scale(0.015625)"/>
       <path id="DejaVuSans-69" d="M 603 3500 
L 1178 3500 
L 1178 0 
L 603 0 
L 603 3500 
z
M 603 4863 
L 1178 4863 
L 1178 4134 
L 603 4134 
L 603 4863 
z
" transform="scale(0.015625)"/>
       <path id="DejaVuSans-7a" d="M 353 3500 
L 3084 3500 
L 3084 2975 
L 922 459 
L 3084 459 
L 3084 0 
L 275 0 
L 275 525 
L 2438 3041 
L 353 3041 
L 353 3500 
z
" transform="scale(0.015625)"/>
       <path id="DejaVuSans-6c" d="M 603 4863 
L 1178 4863 
L 1178 0 
L 603 0 
L 603 4863 
z
" transform="scale(0.015625)"/>
       <path id="DejaVuSans-67" d="M 2906 1791 
Q 2906 2416 2648 2759 
Q 2391 3103 1925 3103 
Q 1463 3103 1205 2759 
Q 947 2416 947 1791 
Q 947 1169 1205 825 
Q 1463 481 1925 481 
Q 2391 481 2648 825 
Q 2906 1169 2906 1791 
z
M 3481 434 
Q 3481 -459 3084 -895 
Q 2688 -1331 1869 -1331 
Q 1566 -1331 1297 -1286 
Q 1028 -1241 775 -1147 
L 775 -588 
Q 1028 -725 1275 -790 
Q 1522 -856 1778 -856 
Q 2344 -856 2625 -561 
Q 2906 -266 2906 331 
L 2906 616 
Q 2728 306 2450 153 
Q 2172 0 1784 0 
Q 1141 0 747 490 
Q 353 981 353 1791 
Q 353 2603 747 3093 
Q 1141 3584 1784 3584 
Q 2172 3584 2450 3431 
Q 2728 3278 2906 2969 
L 2906 3500 
L 3481 3500 
L 3481 434 
z
" transform="scale(0.015625)"/>
      </defs>
      <use xlink:href="#DejaVuSans-46"/>
      <use xlink:href="#DejaVuSans-72" x="50.269531"/>
      <use xlink:href="#DejaVuSans-69" x="91.382812"/>
      <use xlink:href="#DejaVuSans-7a" x="119.166016"/>
      <use xlink:href="#DejaVuSans-20" x="171.65625"/>
      <use xlink:href="#DejaVuSans-46" x="203.443359"/>
      <use xlink:href="#DejaVuSans-72" x="253.712891"/>
      <use xlink:href="#DejaVuSans-65" x="292.576172"/>
      <use xlink:href="#DejaVuSans-6c" x="354.099609"/>
      <use xlink:href="#DejaVuSans-65" x="381.882812"/>
      <use xlink:href="#DejaVuSans-6e" x="443.40625"/>
      <use xlink:href="#DejaVuSans-67" x="506.785156"/>
     </g>
    </g>
   </g>
   <g id="text_3">
    <g id="patch_4">
     <path d="M 383.720772 149.263127 
L 456.686866 149.263127 
L 456.686866 132.632815 
L 383.720772 132.632815 
z
" clip-path="url(#pae5da216ac)" style="fill: #ffffff; opacity: 0.7; stroke: #000000; stroke-linejoin: miter"/>
    </g>
    <g clip-path="url(#pae5da216ac)">
     <!-- William Hanna -->
     <g transform="translate(387.680772 143.431409)scale(0.09 -0.09)">
      <defs>
       <path id="DejaVuSans-57" d="M 213 4666 
L 850 4666 
L 1831 722 
L 2809 4666 
L 3519 4666 
L 4500 722 
L 5478 4666 
L 6119 4666 
L 4947 0 
L 4153 0 
L 3169 4050 
L 2175 0 
L 1381 0 
L 213 4666 
z
" transform="scale(0.015625)"/>
       <path id="DejaVuSans-61" d="M 2194 1759 
Q 1497 1759 1228 1600 
Q 959 1441 959 1056 
Q 959 750 1161 570 
Q 1363 391 1709 391 
Q 2188 391 2477 730 
Q 2766 1069 2766 1631 
L 2766 1759 
L 2194 1759 
z
M 3341 1997 
L 3341 0 
L 2766 0 
L 2766 531 
Q 2569 213 2275 61 
Q 1981 -91 1556 -91 
Q 1019 -91 701 211 
Q 384 513 384 1019 
Q 384 1609 779 1909 
Q 1175 2209 1959 2209 
L 2766 2209 
L 2766 2266 
Q 2766 2663 2505 2880 
Q 2244 3097 1772 3097 
Q 1472 3097 1187 3025 
Q 903 2953 641 2809 
L 641 3341 
Q 956 3463 1253 3523 
Q 1550 3584 1831 3584 
Q 2591 3584 2966 3190 
Q 3341 2797 3341 1997 
z
" transform="scale(0.015625)"/>
       <path id="DejaVuSans-6d" d="M 3328 2828 
Q 3544 3216 3844 3400 
Q 4144 3584 4550 3584 
Q 5097 3584 5394 3201 
Q 5691 2819 5691 2113 
L 5691 0 
L 5113 0 
L 5113 2094 
Q 5113 2597 4934 2840 
Q 4756 3084 4391 3084 
Q 3944 3084 3684 2787 
Q 3425 2491 3425 1978 
L 3425 0 
L 2847 0 
L 2847 2094 
Q 2847 2600 2669 2842 
Q 2491 3084 2119 3084 
Q 1678 3084 1418 2786 
Q 1159 2488 1159 1978 
L 1159 0 
L 581 0 
L 581 3500 
L 1159 3500 
L 1159 2956 
Q 1356 3278 1631 3431 
Q 1906 3584 2284 3584 
Q 2666 3584 2933 3390 
Q 3200 3197 3328 2828 
z
" transform="scale(0.015625)"/>
       <path id="DejaVuSans-48" d="M 628 4666 
L 1259 4666 
L 1259 2753 
L 3553 2753 
L 3553 4666 
L 4184 4666 
L 4184 0 
L 3553 0 
L 3553 2222 
L 1259 2222 
L 1259 0 
L 628 0 
L 628 4666 
z
" transform="scale(0.015625)"/>
      </defs>
      <use xlink:href="#DejaVuSans-57"/>
      <use xlink:href="#DejaVuSans-69" x="96.626953"/>
      <use xlink:href="#DejaVuSans-6c" x="124.410156"/>
      <use xlink:href="#DejaVuSans-6c" x="152.193359"/>
      <use xlink:href="#DejaVuSans-69" x="179.976562"/>
      <use xlink:href="#DejaVuSans-61" x="207.759766"/>
      <use xlink:href="#DejaVuSans-6d" x="269.039062"/>
      <use xlink:href="#DejaVuSans-20" x="366.451172"/>
      <use xlink:href="#DejaVuSans-48" x="398.238281"/>
      <use xlink:href="#DejaVuSans-61" x="473.433594"/>
      <use xlink:href="#DejaVuSans-6e" x="534.712891"/>
      <use xlink:href="#DejaVuSans-6e" x="598.091797"/>
      <use xlink:href="#DejaVuSans-61" x="661.470703"/>
     </g>
    </g>
   </g>
   <g id="text_4">
    <g id="patch_5">
     <path d="M 305.67975 104.777181 
L 382.122093 104.777181 
L 382.122093 88.146869 
L 305.67975 88.146869 
z
" clip-path="url(#pae5da216ac)" style="fill: #ffffff; opacity: 0.7; stroke: #000000; stroke-linejoin: miter"/>
    </g>
    <g clip-path="url(#pae5da216ac)">
     <!-- Joseph Barbera -->
     <g transform="translate(309.63975 98.945463)scale(0.09 -0.09)">
      <defs>
       <path id="DejaVuSans-70" d="M 1159 525 
L 1159 -1331 
L 581 -1331 
L 581 3500 
L 1159 3500 
L 1159 2969 
Q 1341 3281 1617 3432 
Q 1894 3584 2278 3584 
Q 2916 3584 3314 3078 
Q 3713 2572 3713 1747 
Q 3713 922 3314 415 
Q 2916 -91 2278 -91 
Q 1894 -91 1617 61 
Q 1341 213 1159 525 
z
M 3116 1747 
Q 3116 2381 2855 2742 
Q 2594 3103 2138 3103 
Q 1681 3103 1420 2742 
Q 1159 2381 1159 1747 
Q 1159 1113 1420 752 
Q 1681 391 2138 391 
Q 2594 391 2855 752 
Q 3116 1113 3116 1747 
z
" transform="scale(0.015625)"/>
       <path id="DejaVuSans-42" d="M 1259 2228 
L 1259 519 
L 2272 519 
Q 2781 519 3026 730 
Q 3272 941 3272 1375 
Q 3272 1813 3026 2020 
Q 2781 2228 2272 2228 
L 1259 2228 
z
M 1259 4147 
L 1259 2741 
L 2194 2741 
Q 2656 2741 2882 2914 
Q 3109 3088 3109 3444 
Q 3109 3797 2882 3972 
Q 2656 4147 2194 4147 
L 1259 4147 
z
M 628 4666 
L 2241 4666 
Q 2963 4666 3353 4366 
Q 3744 4066 3744 3513 
Q 3744 3084 3544 2831 
Q 3344 2578 2956 2516 
Q 3422 2416 3680 2098 
Q 3938 1781 3938 1306 
Q 3938 681 3513 340 
Q 3088 0 2303 0 
L 628 0 
L 628 4666 
z
" transform="scale(0.015625)"/>
       <path id="DejaVuSans-62" d="M 3116 1747 
Q 3116 2381 2855 2742 
Q 2594 3103 2138 3103 
Q 1681 3103 1420 2742 
Q 1159 2381 1159 1747 
Q 1159 1113 1420 752 
Q 1681 391 2138 391 
Q 2594 391 2855 752 
Q 3116 1113 3116 1747 
z
M 1159 2969 
Q 1341 3281 1617 3432 
Q 1894 3584 2278 3584 
Q 2916 3584 3314 3078 
Q 3713 2572 3713 1747 
Q 3713 922 3314 415 
Q 2916 -91 2278 -91 
Q 1894 -91 1617 61 
Q 1341 213 1159 525 
L 1159 0 
L 581 0 
L 581 4863 
L 1159 4863 
L 1159 2969 
z
" transform="scale(0.015625)"/>
      </defs>
      <use xlink:href="#DejaVuSans-4a"/>
      <use xlink:href="#DejaVuSans-6f" x="29.492188"/>
      <use xlink:href="#DejaVuSans-73" x="90.673828"/>
      <use xlink:href="#DejaVuSans-65" x="142.773438"/>
      <use xlink:href="#DejaVuSans-70" x="204.296875"/>
      <use xlink:href="#DejaVuSans-68" x="267.773438"/>
      <use xlink:href="#DejaVuSans-20" x="331.152344"/>
      <use xlink:href="#DejaVuSans-42" x="362.939453"/>
      <use xlink:href="#DejaVuSans-61" x="431.542969"/>
      <use xlink:href="#DejaVuSans-72" x="492.822266"/>
      <use xlink:href="#DejaVuSans-62" x="533.935547"/>
      <use xlink:href="#DejaVuSans-65" x="597.412109"/>
      <use xlink:href="#DejaVuSans-72" x="658.935547"/>
      <use xlink:href="#DejaVuSans-61" x="700.048828"/>
     </g>
    </g>
   </g>
   <g id="text_5">
    <g id="patch_6">
     <path d="M 229.021339 95.477086 
L 283.531808 95.477086 
L 283.531808 78.846773 
L 229.021339 78.846773 
z
" clip-path="url(#pae5da216ac)" style="fill: #ffffff; opacity: 0.7; stroke: #000000; stroke-linejoin: miter"/>
    </g>
    <g clip-path="url(#pae5da216ac)">
     <!-- Tony Scott -->
     <g transform="translate(232.981339 89.645367)scale(0.09 -0.09)">
      <defs>
       <path id="DejaVuSans-54" d="M -19 4666 
L 3928 4666 
L 3928 4134 
L 2272 4134 
L 2272 0 
L 1638 0 
L 1638 4134 
L -19 4134 
L -19 4666 
z
" transform="scale(0.015625)"/>
       <path id="DejaVuSans-79" d="M 2059 -325 
Q 1816 -950 1584 -1140 
Q 1353 -1331 966 -1331 
L 506 -1331 
L 506 -850 
L 844 -850 
Q 1081 -850 1212 -737 
Q 1344 -625 1503 -206 
L 1606 56 
L 191 3500 
L 800 3500 
L 1894 763 
L 2988 3500 
L 3597 3500 
L 2059 -325 
z
" transform="scale(0.015625)"/>
       <path id="DejaVuSans-53" d="M 3425 4513 
L 3425 3897 
Q 3066 4069 2747 4153 
Q 2428 4238 2131 4238 
Q 1616 4238 1336 4038 
Q 1056 3838 1056 3469 
Q 1056 3159 1242 3001 
Q 1428 2844 1947 2747 
L 2328 2669 
Q 3034 2534 3370 2195 
Q 3706 1856 3706 1288 
Q 3706 609 3251 259 
Q 2797 -91 1919 -91 
Q 1588 -91 1214 -16 
Q 841 59 441 206 
L 441 856 
Q 825 641 1194 531 
Q 1563 422 1919 422 
Q 2459 422 2753 634 
Q 3047 847 3047 1241 
Q 3047 1584 2836 1778 
Q 2625 1972 2144 2069 
L 1759 2144 
Q 1053 2284 737 2584 
Q 422 2884 422 3419 
Q 422 4038 858 4394 
Q 1294 4750 2059 4750 
Q 2388 4750 2728 4690 
Q 3069 4631 3425 4513 
z
" transform="scale(0.015625)"/>
       <path id="DejaVuSans-74" d="M 1172 4494 
L 1172 3500 
L 2356 3500 
L 2356 3053 
L 1172 3053 
L 1172 1153 
Q 1172 725 1289 603 
Q 1406 481 1766 481 
L 2356 481 
L 2356 0 
L 1766 0 
Q 1100 0 847 248 
Q 594 497 594 1153 
L 594 3053 
L 172 3053 
L 172 3500 
L 594 3500 
L 594 4494 
L 1172 4494 
z
" transform="scale(0.015625)"/>
      </defs>
      <use xlink:href="#DejaVuSans-54"/>
      <use xlink:href="#DejaVuSans-6f" x="44.083984"/>
      <use xlink:href="#DejaVuSans-6e" x="105.265625"/>
      <use xlink:href="#DejaVuSans-79" x="168.644531"/>
      <use xlink:href="#DejaVuSans-20" x="227.824219"/>
      <use xlink:href="#DejaVuSans-53" x="259.611328"/>
      <use xlink:href="#DejaVuSans-63" x="323.087891"/>
      <use xlink:href="#DejaVuSans-6f" x="378.068359"/>
      <use xlink:href="#DejaVuSans-74" x="439.25"/>
      <use xlink:href="#DejaVuSans-74" x="478.458984"/>
     </g>
    </g>
   </g>
   <g id="text_6">
    <g id="patch_7">
     <path d="M 136.531051 122.970923 
L 208.432614 122.970923 
L 208.432614 106.340611 
L 136.531051 106.340611 
z
" clip-path="url(#pae5da216ac)" style="fill: #ffffff; opacity: 0.7; stroke: #000000; stroke-linejoin: miter"/>
    </g>
    <g clip-path="url(#pae5da216ac)">
     <!-- Michael Apted -->
     <g transform="translate(140.491051 117.139204)scale(0.09 -0.09)">
      <defs>
       <path id="DejaVuSans-4d" d="M 628 4666 
L 1569 4666 
L 2759 1491 
L 3956 4666 
L 4897 4666 
L 4897 0 
L 4281 0 
L 4281 4097 
L 3078 897 
L 2444 897 
L 1241 4097 
L 1241 0 
L 628 0 
L 628 4666 
z
" transform="scale(0.015625)"/>
       <path id="DejaVuSans-41" d="M 2188 4044 
L 1331 1722 
L 3047 1722 
L 2188 4044 
z
M 1831 4666 
L 2547 4666 
L 4325 0 
L 3669 0 
L 3244 1197 
L 1141 1197 
L 716 0 
L 50 0 
L 1831 4666 
z
" transform="scale(0.015625)"/>
       <path id="DejaVuSans-64" d="M 2906 2969 
L 2906 4863 
L 3481 4863 
L 3481 0 
L 2906 0 
L 2906 525 
Q 2725 213 2448 61 
Q 2172 -91 1784 -91 
Q 1150 -91 751 415 
Q 353 922 353 1747 
Q 353 2572 751 3078 
Q 1150 3584 1784 3584 
Q 2172 3584 2448 3432 
Q 2725 3281 2906 2969 
z
M 947 1747 
Q 947 1113 1208 752 
Q 1469 391 1925 391 
Q 2381 391 2643 752 
Q 2906 1113 2906 1747 
Q 2906 2381 2643 2742 
Q 2381 3103 1925 3103 
Q 1469 3103 1208 2742 
Q 947 2381 947 1747 
z
" transform="scale(0.015625)"/>
      </defs>
      <use xlink:href="#DejaVuSans-4d"/>
      <use xlink:href="#DejaVuSans-69" x="86.279297"/>
      <use xlink:href="#DejaVuSans-63" x="114.0625"/>
      <use xlink:href="#DejaVuSans-68" x="169.042969"/>
      <use xlink:href="#DejaVuSans-61" x="232.421875"/>
      <use xlink:href="#DejaVuSans-65" x="293.701172"/>
      <use xlink:href="#DejaVuSans-6c" x="355.224609"/>
      <use xlink:href="#DejaVuSans-20" x="383.007812"/>
      <use xlink:href="#DejaVuSans-41" x="414.794922"/>
      <use xlink:href="#DejaVuSans-70" x="483.203125"/>
      <use xlink:href="#DejaVuSans-74" x="546.679688"/>
      <use xlink:href="#DejaVuSans-65" x="585.888672"/>
      <use xlink:href="#DejaVuSans-64" x="647.412109"/>
     </g>
    </g>
   </g>
   <g id="text_7">
    <g id="patch_8">
     <path d="M 64.704877 182.504744 
L 149.306284 182.504744 
L 149.306284 165.874431 
L 64.704877 165.874431 
z
" clip-path="url(#pae5da216ac)" style="fill: #ffffff; opacity: 0.7; stroke: #000000; stroke-linejoin: miter"/>
    </g>
    <g clip-path="url(#pae5da216ac)">
     <!-- Steven Spielberg -->
     <g transform="translate(68.664877 176.673025)scale(0.09 -0.09)">
      <defs>
       <path id="DejaVuSans-76" d="M 191 3500 
L 800 3500 
L 1894 563 
L 2988 3500 
L 3597 3500 
L 2284 0 
L 1503 0 
L 191 3500 
z
" transform="scale(0.015625)"/>
      </defs>
      <use xlink:href="#DejaVuSans-53"/>
      <use xlink:href="#DejaVuSans-74" x="63.476562"/>
      <use xlink:href="#DejaVuSans-65" x="102.685547"/>
      <use xlink:href="#DejaVuSans-76" x="164.208984"/>
      <use xlink:href="#DejaVuSans-65" x="223.388672"/>
      <use xlink:href="#DejaVuSans-6e" x="284.912109"/>
      <use xlink:href="#DejaVuSans-20" x="348.291016"/>
      <use xlink:href="#DejaVuSans-53" x="380.078125"/>
      <use xlink:href="#DejaVuSans-70" x="443.554688"/>
      <use xlink:href="#DejaVuSans-69" x="507.03125"/>
      <use xlink:href="#DejaVuSans-65" x="534.814453"/>
      <use xlink:href="#DejaVuSans-6c" x="596.337891"/>
      <use xlink:href="#DejaVuSans-62" x="624.121094"/>
      <use xlink:href="#DejaVuSans-65" x="687.597656"/>
      <use xlink:href="#DejaVuSans-72" x="749.121094"/>
      <use xlink:href="#DejaVuSans-67" x="788.484375"/>
     </g>
    </g>
   </g>
   <g id="text_8">
    <g id="patch_9">
     <path d="M 34.62009 263.784635 
L 107.718371 263.784635 
L 107.718371 247.154322 
L 34.62009 247.154322 
z
" clip-path="url(#pae5da216ac)" style="fill: #ffffff; opacity: 0.7; stroke: #000000; stroke-linejoin: miter"/>
    </g>
    <g clip-path="url(#pae5da216ac)">
     <!-- Anthony Mann -->
     <g transform="translate(38.58009 257.952916)scale(0.09 -0.09)">
      <use xlink:href="#DejaVuSans-41"/>
      <use xlink:href="#DejaVuSans-6e" x="68.408203"/>
      <use xlink:href="#DejaVuSans-74" x="131.787109"/>
      <use xlink:href="#DejaVuSans-68" x="170.996094"/>
      <use xlink:href="#DejaVuSans-6f" x="234.375"/>
      <use xlink:href="#DejaVuSans-6e" x="295.556641"/>
      <use xlink:href="#DejaVuSans-79" x="358.935547"/>
      <use xlink:href="#DejaVuSans-20" x="418.115234"/>
      <use xlink:href="#DejaVuSans-4d" x="449.902344"/>
      <use xlink:href="#DejaVuSans-61" x="536.181641"/>
      <use xlink:href="#DejaVuSans-6e" x="597.460938"/>
      <use xlink:href="#DejaVuSans-6e" x="660.839844"/>
     </g>
    </g>
   </g>
   <g id="text_9">
    <g id="patch_10">
     <path d="M 31.791431 352.75654 
L 110.547056 352.75654 
L 110.547056 336.126227 
L 31.791431 336.126227 
z
" clip-path="url(#pae5da216ac)" style="fill: #ffffff; opacity: 0.7; stroke: #000000; stroke-linejoin: miter"/>
    </g>
    <g clip-path="url(#pae5da216ac)">
     <!-- James Cameron -->
     <g transform="translate(35.751431 346.924821)scale(0.09 -0.09)">
      <use xlink:href="#DejaVuSans-4a"/>
      <use xlink:href="#DejaVuSans-61" x="29.492188"/>
      <use xlink:href="#DejaVuSans-6d" x="90.771484"/>
      <use xlink:href="#DejaVuSans-65" x="188.183594"/>
      <use xlink:href="#DejaVuSans-73" x="249.707031"/>
      <use xlink:href="#DejaVuSans-20" x="301.806641"/>
      <use xlink:href="#DejaVuSans-43" x="333.59375"/>
      <use xlink:href="#DejaVuSans-61" x="403.417969"/>
      <use xlink:href="#DejaVuSans-6d" x="464.697266"/>
      <use xlink:href="#DejaVuSans-65" x="562.109375"/>
      <use xlink:href="#DejaVuSans-72" x="623.632812"/>
      <use xlink:href="#DejaVuSans-6f" x="662.496094"/>
      <use xlink:href="#DejaVuSans-6e" x="723.677734"/>
     </g>
    </g>
   </g>
   <g id="text_10">
    <g id="patch_11">
     <path d="M 76.248796 434.036406 
L 137.76239 434.036406 
L 137.76239 417.406093 
L 76.248796 417.406093 
z
" clip-path="url(#pae5da216ac)" style="fill: #ffffff; opacity: 0.7; stroke: #000000; stroke-linejoin: miter"/>
    </g>
    <g clip-path="url(#pae5da216ac)">
     <!-- Kevin Smith -->
     <g transform="translate(80.208796 428.204687)scale(0.09 -0.09)">
      <defs>
       <path id="DejaVuSans-4b" d="M 628 4666 
L 1259 4666 
L 1259 2694 
L 3353 4666 
L 4166 4666 
L 1850 2491 
L 4331 0 
L 3500 0 
L 1259 2247 
L 1259 0 
L 628 0 
L 628 4666 
z
" transform="scale(0.015625)"/>
      </defs>
      <use xlink:href="#DejaVuSans-4b"/>
      <use xlink:href="#DejaVuSans-65" x="60.576172"/>
      <use xlink:href="#DejaVuSans-76" x="122.099609"/>
      <use xlink:href="#DejaVuSans-69" x="181.279297"/>
      <use xlink:href="#DejaVuSans-6e" x="209.0625"/>
      <use xlink:href="#DejaVuSans-20" x="272.441406"/>
      <use xlink:href="#DejaVuSans-53" x="304.228516"/>
      <use xlink:href="#DejaVuSans-6d" x="367.705078"/>
      <use xlink:href="#DejaVuSans-69" x="465.117188"/>
      <use xlink:href="#DejaVuSans-74" x="492.900391"/>
      <use xlink:href="#DejaVuSans-68" x="532.109375"/>
     </g>
    </g>
   </g>
   <g id="text_11">
    <g id="patch_12">
     <path d="M 131.772333 493.570226 
L 213.191395 493.570226 
L 213.191395 476.939914 
L 131.772333 476.939914 
z
" clip-path="url(#pae5da216ac)" style="fill: #ffffff; opacity: 0.7; stroke: #000000; stroke-linejoin: miter"/>
    </g>
    <g clip-path="url(#pae5da216ac)">
     <!-- Alfred Hitchcock -->
     <g transform="translate(135.732333 487.738507)scale(0.09 -0.09)">
      <defs>
       <path id="DejaVuSans-66" d="M 2375 4863 
L 2375 4384 
L 1825 4384 
Q 1516 4384 1395 4259 
Q 1275 4134 1275 3809 
L 1275 3500 
L 2222 3500 
L 2222 3053 
L 1275 3053 
L 1275 0 
L 697 0 
L 697 3053 
L 147 3053 
L 147 3500 
L 697 3500 
L 697 3744 
Q 697 4328 969 4595 
Q 1241 4863 1831 4863 
L 2375 4863 
z
" transform="scale(0.015625)"/>
      </defs>
      <use xlink:href="#DejaVuSans-41"/>
      <use xlink:href="#DejaVuSans-6c" x="68.408203"/>
      <use xlink:href="#DejaVuSans-66" x="96.191406"/>
      <use xlink:href="#DejaVuSans-72" x="131.396484"/>
      <use xlink:href="#DejaVuSans-65" x="170.259766"/>
      <use xlink:href="#DejaVuSans-64" x="231.783203"/>
      <use xlink:href="#DejaVuSans-20" x="295.259766"/>
      <use xlink:href="#DejaVuSans-48" x="327.046875"/>
      <use xlink:href="#DejaVuSans-69" x="402.242188"/>
      <use xlink:href="#DejaVuSans-74" x="430.025391"/>
      <use xlink:href="#DejaVuSans-63" x="469.234375"/>
      <use xlink:href="#DejaVuSans-68" x="524.214844"/>
      <use xlink:href="#DejaVuSans-63" x="587.59375"/>
      <use xlink:href="#DejaVuSans-6f" x="642.574219"/>
      <use xlink:href="#DejaVuSans-63" x="703.755859"/>
      <use xlink:href="#DejaVuSans-6b" x="758.736328"/>
     </g>
    </g>
   </g>
   <g id="text_12">
    <g id="patch_13">
     <path d="M 225.93958 521.06405 
L 286.613643 521.06405 
L 286.613643 504.433738 
L 225.93958 504.433738 
z
" clip-path="url(#pae5da216ac)" style="fill: #ffffff; opacity: 0.7; stroke: #000000; stroke-linejoin: miter"/>
    </g>
    <g clip-path="url(#pae5da216ac)">
     <!-- Adrian Lyne -->
     <g transform="translate(229.89958 515.232332)scale(0.09 -0.09)">
      <defs>
       <path id="DejaVuSans-4c" d="M 628 4666 
L 1259 4666 
L 1259 531 
L 3531 531 
L 3531 0 
L 628 0 
L 628 4666 
z
" transform="scale(0.015625)"/>
      </defs>
      <use xlink:href="#DejaVuSans-41"/>
      <use xlink:href="#DejaVuSans-64" x="66.658203"/>
      <use xlink:href="#DejaVuSans-72" x="130.134766"/>
      <use xlink:href="#DejaVuSans-69" x="171.248047"/>
      <use xlink:href="#DejaVuSans-61" x="199.03125"/>
      <use xlink:href="#DejaVuSans-6e" x="260.310547"/>
      <use xlink:href="#DejaVuSans-20" x="323.689453"/>
      <use xlink:href="#DejaVuSans-4c" x="355.476562"/>
      <use xlink:href="#DejaVuSans-79" x="402.064453"/>
      <use xlink:href="#DejaVuSans-6e" x="461.244141"/>
      <use xlink:href="#DejaVuSans-65" x="524.623047"/>
     </g>
    </g>
   </g>
   <g id="text_13">
    <g id="patch_14">
     <path d="M 296.645328 511.763942 
L 391.156578 511.763942 
L 391.156578 495.13363 
L 296.645328 495.13363 
z
" clip-path="url(#pae5da216ac)" style="fill: #ffffff; opacity: 0.7; stroke: #000000; stroke-linejoin: miter"/>
    </g>
    <g clip-path="url(#pae5da216ac)">
     <!-- Steven Soderbergh -->
     <g transform="translate(300.605328 505.932224)scale(0.09 -0.09)">
      <use xlink:href="#DejaVuSans-53"/>
      <use xlink:href="#DejaVuSans-74" x="63.476562"/>
      <use xlink:href="#DejaVuSans-65" x="102.685547"/>
      <use xlink:href="#DejaVuSans-76" x="164.208984"/>
      <use xlink:href="#DejaVuSans-65" x="223.388672"/>
      <use xlink:href="#DejaVuSans-6e" x="284.912109"/>
      <use xlink:href="#DejaVuSans-20" x="348.291016"/>
      <use xlink:href="#DejaVuSans-53" x="380.078125"/>
      <use xlink:href="#DejaVuSans-6f" x="443.554688"/>
      <use xlink:href="#DejaVuSans-64" x="504.736328"/>
      <use xlink:href="#DejaVuSans-65" x="568.212891"/>
      <use xlink:href="#DejaVuSans-72" x="629.736328"/>
      <use xlink:href="#DejaVuSans-62" x="670.849609"/>
      <use xlink:href="#DejaVuSans-65" x="734.326172"/>
      <use xlink:href="#DejaVuSans-72" x="795.849609"/>
      <use xlink:href="#DejaVuSans-67" x="835.212891"/>
      <use xlink:href="#DejaVuSans-68" x="898.689453"/>
     </g>
    </g>
   </g>
   <g id="text_14">
    <g id="patch_15">
     <path d="M 383.396669 467.277971 
L 457.011044 467.277971 
L 457.011044 450.647658 
L 383.396669 450.647658 
z
" clip-path="url(#pae5da216ac)" style="fill: #ffffff; opacity: 0.7; stroke: #000000; stroke-linejoin: miter"/>
    </g>
    <g clip-path="url(#pae5da216ac)">
     <!-- Blake Edwards -->
     <g transform="translate(387.356669 461.446252)scale(0.09 -0.09)">
      <defs>
       <path id="DejaVuSans-45" d="M 628 4666 
L 3578 4666 
L 3578 4134 
L 1259 4134 
L 1259 2753 
L 3481 2753 
L 3481 2222 
L 1259 2222 
L 1259 531 
L 3634 531 
L 3634 0 
L 628 0 
L 628 4666 
z
" transform="scale(0.015625)"/>
       <path id="DejaVuSans-77" d="M 269 3500 
L 844 3500 
L 1563 769 
L 2278 3500 
L 2956 3500 
L 3675 769 
L 4391 3500 
L 4966 3500 
L 4050 0 
L 3372 0 
L 2619 2869 
L 1863 0 
L 1184 0 
L 269 3500 
z
" transform="scale(0.015625)"/>
      </defs>
      <use xlink:href="#DejaVuSans-42"/>
      <use xlink:href="#DejaVuSans-6c" x="68.603516"/>
      <use xlink:href="#DejaVuSans-61" x="96.386719"/>
      <use xlink:href="#DejaVuSans-6b" x="157.666016"/>
      <use xlink:href="#DejaVuSans-65" x="211.951172"/>
      <use xlink:href="#DejaVuSans-20" x="273.474609"/>
      <use xlink:href="#DejaVuSans-45" x="305.261719"/>
      <use xlink:href="#DejaVuSans-64" x="368.445312"/>
      <use xlink:href="#DejaVuSans-77" x="431.921875"/>
      <use xlink:href="#DejaVuSans-61" x="513.708984"/>
      <use xlink:href="#DejaVuSans-72" x="574.988281"/>
      <use xlink:href="#DejaVuSans-64" x="614.351562"/>
      <use xlink:href="#DejaVuSans-73" x="677.828125"/>
     </g>
    </g>
   </g>
   <g id="text_15">
    <g id="patch_16">
     <path d="M 425.830281 395.298188 
L 518.153406 395.298188 
L 518.153406 378.667875 
L 425.830281 378.667875 
z
" clip-path="url(#pae5da216ac)" style="fill: #ffffff; opacity: 0.7; stroke: #000000; stroke-linejoin: miter"/>
    </g>
    <g clip-path="url(#pae5da216ac)">
     <!-- Rajkumar Santoshi -->
     <g transform="translate(429.790281 389.466469)scale(0.09 -0.09)">
      <defs>
       <path id="DejaVuSans-52" d="M 2841 2188 
Q 3044 2119 3236 1894 
Q 3428 1669 3622 1275 
L 4263 0 
L 3584 0 
L 2988 1197 
Q 2756 1666 2539 1819 
Q 2322 1972 1947 1972 
L 1259 1972 
L 1259 0 
L 628 0 
L 628 4666 
L 2053 4666 
Q 2853 4666 3247 4331 
Q 3641 3997 3641 3322 
Q 3641 2881 3436 2590 
Q 3231 2300 2841 2188 
z
M 1259 4147 
L 1259 2491 
L 2053 2491 
Q 2509 2491 2742 2702 
Q 2975 2913 2975 3322 
Q 2975 3731 2742 3939 
Q 2509 4147 2053 4147 
L 1259 4147 
z
" transform="scale(0.015625)"/>
       <path id="DejaVuSans-6a" d="M 603 3500 
L 1178 3500 
L 1178 -63 
Q 1178 -731 923 -1031 
Q 669 -1331 103 -1331 
L -116 -1331 
L -116 -844 
L 38 -844 
Q 366 -844 484 -692 
Q 603 -541 603 -63 
L 603 3500 
z
M 603 4863 
L 1178 4863 
L 1178 4134 
L 603 4134 
L 603 4863 
z
" transform="scale(0.015625)"/>
      </defs>
      <use xlink:href="#DejaVuSans-52"/>
      <use xlink:href="#DejaVuSans-61" x="67.232422"/>
      <use xlink:href="#DejaVuSans-6a" x="128.511719"/>
      <use xlink:href="#DejaVuSans-6b" x="156.294922"/>
      <use xlink:href="#DejaVuSans-75" x="211.080078"/>
      <use xlink:href="#DejaVuSans-6d" x="274.458984"/>
      <use xlink:href="#DejaVuSans-61" x="371.871094"/>
      <use xlink:href="#DejaVuSans-72" x="433.150391"/>
      <use xlink:href="#DejaVuSans-20" x="474.263672"/>
      <use xlink:href="#DejaVuSans-53" x="506.050781"/>
      <use xlink:href="#DejaVuSans-61" x="569.527344"/>
      <use xlink:href="#DejaVuSans-6e" x="630.806641"/>
      <use xlink:href="#DejaVuSans-74" x="694.185547"/>
      <use xlink:href="#DejaVuSans-6f" x="733.394531"/>
      <use xlink:href="#DejaVuSans-73" x="794.576172"/>
      <use xlink:href="#DejaVuSans-68" x="846.675781"/>
      <use xlink:href="#DejaVuSans-69" x="910.054688"/>
     </g>
    </g>
   </g>
   <g id="text_16">
    <!-- Impactful directors for Adventure genre - Importance rank: 2 -->
    <g transform="translate(101.98125 16.318125)scale(0.12 -0.12)">
     <defs>
      <path id="DejaVuSans-49" d="M 628 4666 
L 1259 4666 
L 1259 0 
L 628 0 
L 628 4666 
z
" transform="scale(0.015625)"/>
      <path id="DejaVuSans-2d" d="M 313 2009 
L 1997 2009 
L 1997 1497 
L 313 1497 
L 313 2009 
z
" transform="scale(0.015625)"/>
      <path id="DejaVuSans-3a" d="M 750 794 
L 1409 794 
L 1409 0 
L 750 0 
L 750 794 
z
M 750 3309 
L 1409 3309 
L 1409 2516 
L 750 2516 
L 750 3309 
z
" transform="scale(0.015625)"/>
      <path id="DejaVuSans-32" d="M 1228 531 
L 3431 531 
L 3431 0 
L 469 0 
L 469 531 
Q 828 903 1448 1529 
Q 2069 2156 2228 2338 
Q 2531 2678 2651 2914 
Q 2772 3150 2772 3378 
Q 2772 3750 2511 3984 
Q 2250 4219 1831 4219 
Q 1534 4219 1204 4116 
Q 875 4013 500 3803 
L 500 4441 
Q 881 4594 1212 4672 
Q 1544 4750 1819 4750 
Q 2544 4750 2975 4387 
Q 3406 4025 3406 3419 
Q 3406 3131 3298 2873 
Q 3191 2616 2906 2266 
Q 2828 2175 2409 1742 
Q 1991 1309 1228 531 
z
" transform="scale(0.015625)"/>
     </defs>
     <use xlink:href="#DejaVuSans-49"/>
     <use xlink:href="#DejaVuSans-6d" x="29.492188"/>
     <use xlink:href="#DejaVuSans-70" x="126.904297"/>
     <use xlink:href="#DejaVuSans-61" x="190.380859"/>
     <use xlink:href="#DejaVuSans-63" x="251.660156"/>
     <use xlink:href="#DejaVuSans-74" x="306.640625"/>
     <use xlink:href="#DejaVuSans-66" x="345.849609"/>
     <use xlink:href="#DejaVuSans-75" x="381.054688"/>
     <use xlink:href="#DejaVuSans-6c" x="444.433594"/>
     <use xlink:href="#DejaVuSans-20" x="472.216797"/>
     <use xlink:href="#DejaVuSans-64" x="504.003906"/>
     <use xlink:href="#DejaVuSans-69" x="567.480469"/>
     <use xlink:href="#DejaVuSans-72" x="595.263672"/>
     <use xlink:href="#DejaVuSans-65" x="634.126953"/>
     <use xlink:href="#DejaVuSans-63" x="695.650391"/>
     <use xlink:href="#DejaVuSans-74" x="750.630859"/>
     <use xlink:href="#DejaVuSans-6f" x="789.839844"/>
     <use xlink:href="#DejaVuSans-72" x="851.021484"/>
     <use xlink:href="#DejaVuSans-73" x="892.134766"/>
     <use xlink:href="#DejaVuSans-20" x="944.234375"/>
     <use xlink:href="#DejaVuSans-66" x="976.021484"/>
     <use xlink:href="#DejaVuSans-6f" x="1011.226562"/>
     <use xlink:href="#DejaVuSans-72" x="1072.408203"/>
     <use xlink:href="#DejaVuSans-20" x="1113.521484"/>
     <use xlink:href="#DejaVuSans-41" x="1145.308594"/>
     <use xlink:href="#DejaVuSans-64" x="1211.966797"/>
     <use xlink:href="#DejaVuSans-76" x="1275.443359"/>
     <use xlink:href="#DejaVuSans-65" x="1334.623047"/>
     <use xlink:href="#DejaVuSans-6e" x="1396.146484"/>
     <use xlink:href="#DejaVuSans-74" x="1459.525391"/>
     <use xlink:href="#DejaVuSans-75" x="1498.734375"/>
     <use xlink:href="#DejaVuSans-72" x="1562.113281"/>
     <use xlink:href="#DejaVuSans-65" x="1600.976562"/>
     <use xlink:href="#DejaVuSans-20" x="1662.5"/>
     <use xlink:href="#DejaVuSans-67" x="1694.287109"/>
     <use xlink:href="#DejaVuSans-65" x="1757.763672"/>
     <use xlink:href="#DejaVuSans-6e" x="1819.287109"/>
     <use xlink:href="#DejaVuSans-72" x="1882.666016"/>
     <use xlink:href="#DejaVuSans-65" x="1921.529297"/>
     <use xlink:href="#DejaVuSans-20" x="1983.052734"/>
     <use xlink:href="#DejaVuSans-2d" x="2014.839844"/>
     <use xlink:href="#DejaVuSans-20" x="2050.923828"/>
     <use xlink:href="#DejaVuSans-49" x="2082.710938"/>
     <use xlink:href="#DejaVuSans-6d" x="2112.203125"/>
     <use xlink:href="#DejaVuSans-70" x="2209.615234"/>
     <use xlink:href="#DejaVuSans-6f" x="2273.091797"/>
     <use xlink:href="#DejaVuSans-72" x="2334.273438"/>
     <use xlink:href="#DejaVuSans-74" x="2375.386719"/>
     <use xlink:href="#DejaVuSans-61" x="2414.595703"/>
     <use xlink:href="#DejaVuSans-6e" x="2475.875"/>
     <use xlink:href="#DejaVuSans-63" x="2539.253906"/>
     <use xlink:href="#DejaVuSans-65" x="2594.234375"/>
     <use xlink:href="#DejaVuSans-20" x="2655.757812"/>
     <use xlink:href="#DejaVuSans-72" x="2687.544922"/>
     <use xlink:href="#DejaVuSans-61" x="2728.658203"/>
     <use xlink:href="#DejaVuSans-6e" x="2789.9375"/>
     <use xlink:href="#DejaVuSans-6b" x="2853.316406"/>
     <use xlink:href="#DejaVuSans-3a" x="2911.226562"/>
     <use xlink:href="#DejaVuSans-20" x="2944.917969"/>
     <use xlink:href="#DejaVuSans-32" x="2976.705078"/>
    </g>
   </g>
  </g>
 </g>
 <defs>
  <clipPath id="pae5da216ac">
   <rect x="7.2" y="22.318125" width="554.4" height="554.4"/>
  </clipPath>
 </defs>
</svg>
