<?xml version="1.0" encoding="utf-8" standalone="no"?>
<!DOCTYPE svg PUBLIC "-//W3C//DTD SVG 1.1//EN"
  "http://www.w3.org/Graphics/SVG/1.1/DTD/svg11.dtd">
<svg xmlns:xlink="http://www.w3.org/1999/xlink" width="576pt" height="576pt" viewBox="0 0 576 576" xmlns="http://www.w3.org/2000/svg" version="1.1">
 <metadata>
  <rdf:RDF xmlns:dc="http://purl.org/dc/elements/1.1/" xmlns:cc="http://creativecommons.org/ns#" xmlns:rdf="http://www.w3.org/1999/02/22-rdf-syntax-ns#">
   <cc:Work>
    <dc:type rdf:resource="http://purl.org/dc/dcmitype/StillImage"/>
    <dc:date>2022-12-22T16:12:50.899722</dc:date>
    <dc:format>image/svg+xml</dc:format>
    <dc:creator>
     <cc:Agent>
      <dc:title>Matplotlib v3.5.2, https://matplotlib.org/</dc:title>
     </cc:Agent>
    </dc:creator>
   </cc:Work>
  </rdf:RDF>
 </metadata>
 <defs>
  <style type="text/css">*{stroke-linejoin: round; stroke-linecap: butt}</style>
 </defs>
 <g id="figure_1">
  <g id="patch_1">
   <path d="M 0 576 
L 576 576 
L 576 0 
L 0 0 
z
" style="fill: #ffffff"/>
  </g>
  <g id="axes_1">
   <g id="PathCollection_1">
    <path d="M 501.230769 315.386128 
C 508.493655 315.386128 515.46005 312.500553 520.595686 307.364917 
C 525.731322 302.229281 528.616897 295.262886 528.616897 288 
C 528.616897 280.737114 525.731322 273.770719 520.595686 268.635083 
C 515.46005 263.499447 508.493655 260.613872 501.230769 260.613872 
C 493.967883 260.613872 487.001488 263.499447 481.865852 268.635083 
C 476.730217 273.770719 473.844641 280.737114 473.844641 288 
C 473.844641 295.262886 476.730217 302.229281 481.865852 307.364917 
C 487.001488 312.500553 493.967883 315.386128 501.230769 315.386128 
z
" clip-path="url(#p1b438d3af7)" style="fill: #d62728; fill-opacity: 0.99; stroke: #d62728; stroke-opacity: 0.99"/>
    <path d="M 482.592348 226.860449 
C 489.505381 226.860449 496.136205 224.113871 501.024458 219.225619 
C 505.912711 214.337366 508.659288 207.706542 508.659288 200.793508 
C 508.659288 193.880475 505.912711 187.249651 501.024458 182.361398 
C 496.136205 177.473146 489.505381 174.726568 482.592348 174.726568 
C 475.679315 174.726568 469.04849 177.473146 464.160238 182.361398 
C 459.271985 187.249651 456.525408 193.880475 456.525408 200.793508 
C 456.525408 207.706542 459.271985 214.337366 464.160238 219.225619 
C 469.04849 224.113871 475.679315 226.860449 482.592348 226.860449 
z
" clip-path="url(#p1b438d3af7)" style="fill: #d62728; fill-opacity: 0.99; stroke: #d62728; stroke-opacity: 0.99"/>
    <path d="M 429.89985 154.521461 
C 436.756851 154.521461 443.33393 151.797146 448.182562 146.948514 
C 453.031194 142.099882 455.755509 135.522803 455.755509 128.665802 
C 455.755509 121.808801 453.031194 115.231721 448.182562 110.383089 
C 443.33393 105.534457 436.756851 102.810142 429.89985 102.810142 
C 423.042849 102.810142 416.46577 105.534457 411.617138 110.383089 
C 406.768506 115.231721 404.04419 121.808801 404.04419 128.665802 
C 404.04419 135.522803 406.768506 142.099882 411.617138 146.948514 
C 416.46577 151.797146 423.042849 154.521461 429.89985 154.521461 
z
" clip-path="url(#p1b438d3af7)" style="fill: #d62728; fill-opacity: 0.99; stroke: #d62728; stroke-opacity: 0.99"/>
    <path d="M 352.264291 107.430002 
C 358.454546 107.430002 364.392098 104.970587 368.769269 100.593416 
C 373.146441 96.216245 375.605855 90.278693 375.605855 84.088438 
C 375.605855 77.898183 373.146441 71.960631 368.769269 67.58346 
C 364.392098 63.206288 358.454546 60.746874 352.264291 60.746874 
C 346.074036 60.746874 340.136484 63.206288 335.759313 67.58346 
C 331.382142 71.960631 328.922727 77.898183 328.922727 84.088438 
C 328.922727 90.278693 331.382142 96.216245 335.759313 100.593416 
C 340.136484 104.970587 346.074036 107.430002 352.264291 107.430002 
z
" clip-path="url(#p1b438d3af7)" style="fill: #d62728; fill-opacity: 0.99; stroke: #d62728; stroke-opacity: 0.99"/>
    <path d="M 263.109549 97.825895 
C 269.224247 97.825895 275.089327 95.396499 279.413072 91.072754 
C 283.736817 86.749009 286.166213 80.88393 286.166213 74.769231 
C 286.166213 68.654532 283.736817 62.789452 279.413072 58.465707 
C 275.089327 54.141962 269.224247 51.712567 263.109549 51.712567 
C 256.99485 51.712567 251.12977 54.141962 246.806025 58.465707 
C 242.48228 62.789452 240.052884 68.654532 240.052884 74.769231 
C 240.052884 80.88393 242.48228 86.749009 246.806025 91.072754 
C 251.12977 95.396499 256.99485 97.825895 263.109549 97.825895 
z
" clip-path="url(#p1b438d3af7)" style="fill: #d62728; fill-opacity: 0.99; stroke: #d62728; stroke-opacity: 0.99"/>
    <path d="M 177.851298 124.225815 
C 183.660903 124.225815 189.233344 121.917635 193.341355 117.809624 
C 197.449366 113.701613 199.757546 108.129172 199.757546 102.319567 
C 199.757546 96.509962 197.449366 90.937522 193.341355 86.829511 
C 189.233344 82.7215 183.660903 80.413319 177.851298 80.413319 
C 172.041693 80.413319 166.469252 82.7215 162.361241 86.829511 
C 158.25323 90.937522 155.94505 96.509962 155.94505 102.319567 
C 155.94505 108.129172 158.25323 113.701613 162.361241 117.809624 
C 166.469252 121.917635 172.041693 124.225815 177.851298 124.225815 
z
" clip-path="url(#p1b438d3af7)" style="fill: #d62728; fill-opacity: 0.99; stroke: #d62728; stroke-opacity: 0.99"/>
    <path d="M 111.231477 183.736713 
C 117.002557 183.736713 122.538046 181.443838 126.618816 177.363068 
C 130.699586 173.282298 132.992461 167.746809 132.992461 161.975729 
C 132.992461 156.204648 130.699586 150.66916 126.618816 146.588389 
C 122.538046 142.507619 117.002557 140.214745 111.231477 140.214745 
C 105.460397 140.214745 99.924908 142.507619 95.844138 146.588389 
C 91.763368 150.66916 89.470493 156.204648 89.470493 161.975729 
C 89.470493 167.746809 91.763368 173.282298 95.844138 177.363068 
C 99.924908 181.443838 105.460397 183.736713 111.231477 183.736713 
z
" clip-path="url(#p1b438d3af7)" style="fill: #d62728; fill-opacity: 0.99; stroke: #d62728; stroke-opacity: 0.99"/>
    <path d="M 74.769231 265.166568 
C 80.535785 265.166568 86.066933 262.875491 90.144503 258.797921 
C 94.222073 254.720351 96.513149 249.189204 96.513149 243.422649 
C 96.513149 237.656094 94.222073 232.124946 90.144503 228.047377 
C 86.066933 223.969807 80.535785 221.67873 74.769231 221.67873 
C 69.002676 221.67873 63.471528 223.969807 59.393958 228.047377 
C 55.316389 232.124946 53.025312 237.656094 53.025312 243.422649 
C 53.025312 249.189204 55.316389 254.720351 59.393958 258.797921 
C 63.471528 262.875491 69.002676 265.166568 74.769231 265.166568 
z
" clip-path="url(#p1b438d3af7)" style="fill: #d62728; fill-opacity: 0.99; stroke: #d62728; stroke-opacity: 0.99"/>
    <path d="M 74.769244 353.133589 
C 80.220811 353.133589 85.449831 350.967658 89.304672 347.112818 
C 93.159512 343.257977 95.325443 338.028957 95.325443 332.577389 
C 95.325443 327.125822 93.159512 321.896802 89.304672 318.041961 
C 85.449831 314.187121 80.220811 312.02119 74.769244 312.02119 
C 69.317676 312.02119 64.088656 314.187121 60.233815 318.041961 
C 56.378975 321.896802 54.213044 327.125822 54.213044 332.577389 
C 54.213044 338.028957 56.378975 343.257977 60.233815 347.112818 
C 64.088656 350.967658 69.317676 353.133589 74.769244 353.133589 
z
" clip-path="url(#p1b438d3af7)" style="fill: #d62728; fill-opacity: 0.99; stroke: #d62728; stroke-opacity: 0.99"/>
    <path d="M 111.23149 434.555843 
C 116.676523 434.555843 121.899274 432.392508 125.749494 428.542288 
C 129.599714 424.692069 131.763048 419.469317 131.763048 414.024284 
C 131.763048 408.579251 129.599714 403.3565 125.749494 399.50628 
C 121.899274 395.65606 116.676523 393.492725 111.23149 393.492725 
C 105.786457 393.492725 100.563705 395.65606 96.713486 399.50628 
C 92.863266 403.3565 90.699931 408.579251 90.699931 414.024284 
C 90.699931 419.469317 92.863266 424.692069 96.713486 428.542288 
C 100.563705 432.392508 105.786457 434.555843 111.23149 434.555843 
z
" clip-path="url(#p1b438d3af7)" style="fill: #d62728; fill-opacity: 0.99; stroke: #d62728; stroke-opacity: 0.99"/>
    <path d="M 177.85133 493.430075 
C 183.088993 493.430075 188.11284 491.34913 191.816427 487.645543 
C 195.520014 483.941956 197.60096 478.918109 197.60096 473.680446 
C 197.60096 468.442782 195.520014 463.418935 191.816427 459.715348 
C 188.11284 456.011761 183.088993 453.930816 177.85133 453.930816 
C 172.613667 453.930816 167.58982 456.011761 163.886233 459.715348 
C 160.182646 463.418935 158.1017 468.442782 158.1017 473.680446 
C 158.1017 478.918109 160.182646 483.941956 163.886233 487.645543 
C 167.58982 491.34913 172.613667 493.430075 177.85133 493.430075 
z
" clip-path="url(#p1b438d3af7)" style="fill: #d62728; fill-opacity: 0.99; stroke: #d62728; stroke-opacity: 0.99"/>
    <path d="M 263.109587 520.802033 
C 268.299947 520.802033 273.278422 518.739881 276.948561 515.069743 
C 280.618699 511.399604 282.680851 506.421129 282.680851 501.230769 
C 282.680851 496.040409 280.618699 491.061934 276.948561 487.391796 
C 273.278422 483.721657 268.299947 481.659505 263.109587 481.659505 
C 257.919227 481.659505 252.940752 483.721657 249.270614 487.391796 
C 245.600475 491.061934 243.538323 496.040409 243.538323 501.230769 
C 243.538323 506.421129 245.600475 511.399604 249.270614 515.069743 
C 252.940752 518.739881 257.919227 520.802033 263.109587 520.802033 
z
" clip-path="url(#p1b438d3af7)" style="fill: #d62728; fill-opacity: 0.99; stroke: #d62728; stroke-opacity: 0.99"/>
    <path d="M 352.264323 511.432435 
C 357.441323 511.432435 362.406982 509.375591 366.067674 505.7149 
C 369.728365 502.054209 371.785209 497.088549 371.785209 491.91155 
C 371.785209 486.73455 369.728365 481.76889 366.067674 478.108199 
C 362.406982 474.447508 357.441323 472.390664 352.264323 472.390664 
C 347.087324 472.390664 342.121664 474.447508 338.460973 478.108199 
C 334.800282 481.76889 332.743438 486.73455 332.743438 491.91155 
C 332.743438 497.088549 334.800282 502.054209 338.460973 505.7149 
C 342.121664 509.375591 347.087324 511.432435 352.264323 511.432435 
z
" clip-path="url(#p1b438d3af7)" style="fill: #d62728; fill-opacity: 0.99; stroke: #d62728; stroke-opacity: 0.99"/>
    <path d="M 429.899888 466.775042 
C 435.05567 466.775042 440.000979 464.726628 443.646668 461.080939 
C 447.292356 457.435251 449.34077 452.489942 449.34077 447.33416 
C 449.34077 442.178378 447.292356 437.233069 443.646668 433.587381 
C 440.000979 429.941692 435.05567 427.893279 429.899888 427.893279 
C 424.744106 427.893279 419.798798 429.941692 416.153109 433.587381 
C 412.507421 437.233069 410.459007 442.178378 410.459007 447.33416 
C 410.459007 452.489942 412.507421 457.435251 416.153109 461.080939 
C 419.798798 464.726628 424.744106 466.775042 429.899888 466.775042 
z
" clip-path="url(#p1b438d3af7)" style="fill: #d62728; fill-opacity: 0.99; stroke: #d62728; stroke-opacity: 0.99"/>
    <path d="M 482.592374 394.571376 
C 487.728009 394.571376 492.653994 392.530967 496.285437 388.899524 
C 499.91688 385.268081 501.95729 380.342096 501.95729 375.20646 
C 501.95729 370.070824 499.91688 365.144839 496.285437 361.513396 
C 492.653994 357.881953 487.728009 355.841543 482.592374 355.841543 
C 477.456738 355.841543 472.530753 357.881953 468.89931 361.513396 
C 465.267867 365.144839 463.227457 370.070824 463.227457 375.20646 
C 463.227457 380.342096 465.267867 385.268081 468.89931 388.899524 
C 472.530753 392.530967 477.456738 394.571376 482.592374 394.571376 
z
" clip-path="url(#p1b438d3af7)" style="fill: #d62728; fill-opacity: 0.99; stroke: #d62728; stroke-opacity: 0.99"/>
   </g>
   <g id="text_1">
    <g id="patch_2">
     <path d="M 478.54655 296.315156 
L 523.914988 296.315156 
L 523.914988 279.684844 
L 478.54655 279.684844 
z
" clip-path="url(#p1b438d3af7)" style="fill: #ffffff; opacity: 0.7; stroke: #000000; stroke-linejoin: miter"/>
    </g>
    <g clip-path="url(#p1b438d3af7)">
     <!-- Del Lord -->
     <g transform="translate(482.50655 290.483437)scale(0.09 -0.09)">
      <defs>
       <path id="DejaVuSans-44" d="M 1259 4147 
L 1259 519 
L 2022 519 
Q 2988 519 3436 956 
Q 3884 1394 3884 2338 
Q 3884 3275 3436 3711 
Q 2988 4147 2022 4147 
L 1259 4147 
z
M 628 4666 
L 1925 4666 
Q 3281 4666 3915 4102 
Q 4550 3538 4550 2338 
Q 4550 1131 3912 565 
Q 3275 0 1925 0 
L 628 0 
L 628 4666 
z
" transform="scale(0.015625)"/>
       <path id="DejaVuSans-65" d="M 3597 1894 
L 3597 1613 
L 953 1613 
Q 991 1019 1311 708 
Q 1631 397 2203 397 
Q 2534 397 2845 478 
Q 3156 559 3463 722 
L 3463 178 
Q 3153 47 2828 -22 
Q 2503 -91 2169 -91 
Q 1331 -91 842 396 
Q 353 884 353 1716 
Q 353 2575 817 3079 
Q 1281 3584 2069 3584 
Q 2775 3584 3186 3129 
Q 3597 2675 3597 1894 
z
M 3022 2063 
Q 3016 2534 2758 2815 
Q 2500 3097 2075 3097 
Q 1594 3097 1305 2825 
Q 1016 2553 972 2059 
L 3022 2063 
z
" transform="scale(0.015625)"/>
       <path id="DejaVuSans-6c" d="M 603 4863 
L 1178 4863 
L 1178 0 
L 603 0 
L 603 4863 
z
" transform="scale(0.015625)"/>
       <path id="DejaVuSans-20" transform="scale(0.015625)"/>
       <path id="DejaVuSans-4c" d="M 628 4666 
L 1259 4666 
L 1259 531 
L 3531 531 
L 3531 0 
L 628 0 
L 628 4666 
z
" transform="scale(0.015625)"/>
       <path id="DejaVuSans-6f" d="M 1959 3097 
Q 1497 3097 1228 2736 
Q 959 2375 959 1747 
Q 959 1119 1226 758 
Q 1494 397 1959 397 
Q 2419 397 2687 759 
Q 2956 1122 2956 1747 
Q 2956 2369 2687 2733 
Q 2419 3097 1959 3097 
z
M 1959 3584 
Q 2709 3584 3137 3096 
Q 3566 2609 3566 1747 
Q 3566 888 3137 398 
Q 2709 -91 1959 -91 
Q 1206 -91 779 398 
Q 353 888 353 1747 
Q 353 2609 779 3096 
Q 1206 3584 1959 3584 
z
" transform="scale(0.015625)"/>
       <path id="DejaVuSans-72" d="M 2631 2963 
Q 2534 3019 2420 3045 
Q 2306 3072 2169 3072 
Q 1681 3072 1420 2755 
Q 1159 2438 1159 1844 
L 1159 0 
L 581 0 
L 581 3500 
L 1159 3500 
L 1159 2956 
Q 1341 3275 1631 3429 
Q 1922 3584 2338 3584 
Q 2397 3584 2469 3576 
Q 2541 3569 2628 3553 
L 2631 2963 
z
" transform="scale(0.015625)"/>
       <path id="DejaVuSans-64" d="M 2906 2969 
L 2906 4863 
L 3481 4863 
L 3481 0 
L 2906 0 
L 2906 525 
Q 2725 213 2448 61 
Q 2172 -91 1784 -91 
Q 1150 -91 751 415 
Q 353 922 353 1747 
Q 353 2572 751 3078 
Q 1150 3584 1784 3584 
Q 2172 3584 2448 3432 
Q 2725 3281 2906 2969 
z
M 947 1747 
Q 947 1113 1208 752 
Q 1469 391 1925 391 
Q 2381 391 2643 752 
Q 2906 1113 2906 1747 
Q 2906 2381 2643 2742 
Q 2381 3103 1925 3103 
Q 1469 3103 1208 2742 
Q 947 2381 947 1747 
z
" transform="scale(0.015625)"/>
      </defs>
      <use xlink:href="#DejaVuSans-44"/>
      <use xlink:href="#DejaVuSans-65" x="77.001953"/>
      <use xlink:href="#DejaVuSans-6c" x="138.525391"/>
      <use xlink:href="#DejaVuSans-20" x="166.308594"/>
      <use xlink:href="#DejaVuSans-4c" x="198.095703"/>
      <use xlink:href="#DejaVuSans-6f" x="252.058594"/>
      <use xlink:href="#DejaVuSans-72" x="313.240234"/>
      <use xlink:href="#DejaVuSans-64" x="352.603516"/>
     </g>
    </g>
   </g>
   <g id="text_2">
    <g id="patch_3">
     <path d="M 453.376801 209.108665 
L 511.807895 209.108665 
L 511.807895 192.478352 
L 453.376801 192.478352 
z
" clip-path="url(#p1b438d3af7)" style="fill: #ffffff; opacity: 0.7; stroke: #000000; stroke-linejoin: miter"/>
    </g>
    <g clip-path="url(#p1b438d3af7)">
     <!-- Billy Wilder -->
     <g transform="translate(457.336801 203.276946)scale(0.09 -0.09)">
      <defs>
       <path id="DejaVuSans-42" d="M 1259 2228 
L 1259 519 
L 2272 519 
Q 2781 519 3026 730 
Q 3272 941 3272 1375 
Q 3272 1813 3026 2020 
Q 2781 2228 2272 2228 
L 1259 2228 
z
M 1259 4147 
L 1259 2741 
L 2194 2741 
Q 2656 2741 2882 2914 
Q 3109 3088 3109 3444 
Q 3109 3797 2882 3972 
Q 2656 4147 2194 4147 
L 1259 4147 
z
M 628 4666 
L 2241 4666 
Q 2963 4666 3353 4366 
Q 3744 4066 3744 3513 
Q 3744 3084 3544 2831 
Q 3344 2578 2956 2516 
Q 3422 2416 3680 2098 
Q 3938 1781 3938 1306 
Q 3938 681 3513 340 
Q 3088 0 2303 0 
L 628 0 
L 628 4666 
z
" transform="scale(0.015625)"/>
       <path id="DejaVuSans-69" d="M 603 3500 
L 1178 3500 
L 1178 0 
L 603 0 
L 603 3500 
z
M 603 4863 
L 1178 4863 
L 1178 4134 
L 603 4134 
L 603 4863 
z
" transform="scale(0.015625)"/>
       <path id="DejaVuSans-79" d="M 2059 -325 
Q 1816 -950 1584 -1140 
Q 1353 -1331 966 -1331 
L 506 -1331 
L 506 -850 
L 844 -850 
Q 1081 -850 1212 -737 
Q 1344 -625 1503 -206 
L 1606 56 
L 191 3500 
L 800 3500 
L 1894 763 
L 2988 3500 
L 3597 3500 
L 2059 -325 
z
" transform="scale(0.015625)"/>
       <path id="DejaVuSans-57" d="M 213 4666 
L 850 4666 
L 1831 722 
L 2809 4666 
L 3519 4666 
L 4500 722 
L 5478 4666 
L 6119 4666 
L 4947 0 
L 4153 0 
L 3169 4050 
L 2175 0 
L 1381 0 
L 213 4666 
z
" transform="scale(0.015625)"/>
      </defs>
      <use xlink:href="#DejaVuSans-42"/>
      <use xlink:href="#DejaVuSans-69" x="68.603516"/>
      <use xlink:href="#DejaVuSans-6c" x="96.386719"/>
      <use xlink:href="#DejaVuSans-6c" x="124.169922"/>
      <use xlink:href="#DejaVuSans-79" x="151.953125"/>
      <use xlink:href="#DejaVuSans-20" x="211.132812"/>
      <use xlink:href="#DejaVuSans-57" x="242.919922"/>
      <use xlink:href="#DejaVuSans-69" x="339.546875"/>
      <use xlink:href="#DejaVuSans-6c" x="367.330078"/>
      <use xlink:href="#DejaVuSans-64" x="395.113281"/>
      <use xlink:href="#DejaVuSans-65" x="458.589844"/>
      <use xlink:href="#DejaVuSans-72" x="520.113281"/>
     </g>
    </g>
   </g>
   <g id="text_3">
    <g id="patch_4">
     <path d="M 400.882584 136.980958 
L 458.917115 136.980958 
L 458.917115 120.350645 
L 400.882584 120.350645 
z
" clip-path="url(#p1b438d3af7)" style="fill: #ffffff; opacity: 0.7; stroke: #000000; stroke-linejoin: miter"/>
    </g>
    <g clip-path="url(#p1b438d3af7)">
     <!-- Jules White -->
     <g transform="translate(404.842584 131.149239)scale(0.09 -0.09)">
      <defs>
       <path id="DejaVuSans-4a" d="M 628 4666 
L 1259 4666 
L 1259 325 
Q 1259 -519 939 -900 
Q 619 -1281 -91 -1281 
L -331 -1281 
L -331 -750 
L -134 -750 
Q 284 -750 456 -515 
Q 628 -281 628 325 
L 628 4666 
z
" transform="scale(0.015625)"/>
       <path id="DejaVuSans-75" d="M 544 1381 
L 544 3500 
L 1119 3500 
L 1119 1403 
Q 1119 906 1312 657 
Q 1506 409 1894 409 
Q 2359 409 2629 706 
Q 2900 1003 2900 1516 
L 2900 3500 
L 3475 3500 
L 3475 0 
L 2900 0 
L 2900 538 
Q 2691 219 2414 64 
Q 2138 -91 1772 -91 
Q 1169 -91 856 284 
Q 544 659 544 1381 
z
M 1991 3584 
L 1991 3584 
z
" transform="scale(0.015625)"/>
       <path id="DejaVuSans-73" d="M 2834 3397 
L 2834 2853 
Q 2591 2978 2328 3040 
Q 2066 3103 1784 3103 
Q 1356 3103 1142 2972 
Q 928 2841 928 2578 
Q 928 2378 1081 2264 
Q 1234 2150 1697 2047 
L 1894 2003 
Q 2506 1872 2764 1633 
Q 3022 1394 3022 966 
Q 3022 478 2636 193 
Q 2250 -91 1575 -91 
Q 1294 -91 989 -36 
Q 684 19 347 128 
L 347 722 
Q 666 556 975 473 
Q 1284 391 1588 391 
Q 1994 391 2212 530 
Q 2431 669 2431 922 
Q 2431 1156 2273 1281 
Q 2116 1406 1581 1522 
L 1381 1569 
Q 847 1681 609 1914 
Q 372 2147 372 2553 
Q 372 3047 722 3315 
Q 1072 3584 1716 3584 
Q 2034 3584 2315 3537 
Q 2597 3491 2834 3397 
z
" transform="scale(0.015625)"/>
       <path id="DejaVuSans-68" d="M 3513 2113 
L 3513 0 
L 2938 0 
L 2938 2094 
Q 2938 2591 2744 2837 
Q 2550 3084 2163 3084 
Q 1697 3084 1428 2787 
Q 1159 2491 1159 1978 
L 1159 0 
L 581 0 
L 581 4863 
L 1159 4863 
L 1159 2956 
Q 1366 3272 1645 3428 
Q 1925 3584 2291 3584 
Q 2894 3584 3203 3211 
Q 3513 2838 3513 2113 
z
" transform="scale(0.015625)"/>
       <path id="DejaVuSans-74" d="M 1172 4494 
L 1172 3500 
L 2356 3500 
L 2356 3053 
L 1172 3053 
L 1172 1153 
Q 1172 725 1289 603 
Q 1406 481 1766 481 
L 2356 481 
L 2356 0 
L 1766 0 
Q 1100 0 847 248 
Q 594 497 594 1153 
L 594 3053 
L 172 3053 
L 172 3500 
L 594 3500 
L 594 4494 
L 1172 4494 
z
" transform="scale(0.015625)"/>
      </defs>
      <use xlink:href="#DejaVuSans-4a"/>
      <use xlink:href="#DejaVuSans-75" x="29.492188"/>
      <use xlink:href="#DejaVuSans-6c" x="92.871094"/>
      <use xlink:href="#DejaVuSans-65" x="120.654297"/>
      <use xlink:href="#DejaVuSans-73" x="182.177734"/>
      <use xlink:href="#DejaVuSans-20" x="234.277344"/>
      <use xlink:href="#DejaVuSans-57" x="266.064453"/>
      <use xlink:href="#DejaVuSans-68" x="364.941406"/>
      <use xlink:href="#DejaVuSans-69" x="428.320312"/>
      <use xlink:href="#DejaVuSans-74" x="456.103516"/>
      <use xlink:href="#DejaVuSans-65" x="495.3125"/>
     </g>
    </g>
   </g>
   <g id="text_4">
    <g id="patch_5">
     <path d="M 314.427729 92.403594 
L 390.100854 92.403594 
L 390.100854 75.773281 
L 314.427729 75.773281 
z
" clip-path="url(#p1b438d3af7)" style="fill: #ffffff; opacity: 0.7; stroke: #000000; stroke-linejoin: miter"/>
    </g>
    <g clip-path="url(#p1b438d3af7)">
     <!-- Edward Bernds -->
     <g transform="translate(318.387729 86.571875)scale(0.09 -0.09)">
      <defs>
       <path id="DejaVuSans-45" d="M 628 4666 
L 3578 4666 
L 3578 4134 
L 1259 4134 
L 1259 2753 
L 3481 2753 
L 3481 2222 
L 1259 2222 
L 1259 531 
L 3634 531 
L 3634 0 
L 628 0 
L 628 4666 
z
" transform="scale(0.015625)"/>
       <path id="DejaVuSans-77" d="M 269 3500 
L 844 3500 
L 1563 769 
L 2278 3500 
L 2956 3500 
L 3675 769 
L 4391 3500 
L 4966 3500 
L 4050 0 
L 3372 0 
L 2619 2869 
L 1863 0 
L 1184 0 
L 269 3500 
z
" transform="scale(0.015625)"/>
       <path id="DejaVuSans-61" d="M 2194 1759 
Q 1497 1759 1228 1600 
Q 959 1441 959 1056 
Q 959 750 1161 570 
Q 1363 391 1709 391 
Q 2188 391 2477 730 
Q 2766 1069 2766 1631 
L 2766 1759 
L 2194 1759 
z
M 3341 1997 
L 3341 0 
L 2766 0 
L 2766 531 
Q 2569 213 2275 61 
Q 1981 -91 1556 -91 
Q 1019 -91 701 211 
Q 384 513 384 1019 
Q 384 1609 779 1909 
Q 1175 2209 1959 2209 
L 2766 2209 
L 2766 2266 
Q 2766 2663 2505 2880 
Q 2244 3097 1772 3097 
Q 1472 3097 1187 3025 
Q 903 2953 641 2809 
L 641 3341 
Q 956 3463 1253 3523 
Q 1550 3584 1831 3584 
Q 2591 3584 2966 3190 
Q 3341 2797 3341 1997 
z
" transform="scale(0.015625)"/>
       <path id="DejaVuSans-6e" d="M 3513 2113 
L 3513 0 
L 2938 0 
L 2938 2094 
Q 2938 2591 2744 2837 
Q 2550 3084 2163 3084 
Q 1697 3084 1428 2787 
Q 1159 2491 1159 1978 
L 1159 0 
L 581 0 
L 581 3500 
L 1159 3500 
L 1159 2956 
Q 1366 3272 1645 3428 
Q 1925 3584 2291 3584 
Q 2894 3584 3203 3211 
Q 3513 2838 3513 2113 
z
" transform="scale(0.015625)"/>
      </defs>
      <use xlink:href="#DejaVuSans-45"/>
      <use xlink:href="#DejaVuSans-64" x="63.183594"/>
      <use xlink:href="#DejaVuSans-77" x="126.660156"/>
      <use xlink:href="#DejaVuSans-61" x="208.447266"/>
      <use xlink:href="#DejaVuSans-72" x="269.726562"/>
      <use xlink:href="#DejaVuSans-64" x="309.089844"/>
      <use xlink:href="#DejaVuSans-20" x="372.566406"/>
      <use xlink:href="#DejaVuSans-42" x="404.353516"/>
      <use xlink:href="#DejaVuSans-65" x="472.957031"/>
      <use xlink:href="#DejaVuSans-72" x="534.480469"/>
      <use xlink:href="#DejaVuSans-6e" x="573.84375"/>
      <use xlink:href="#DejaVuSans-64" x="637.222656"/>
      <use xlink:href="#DejaVuSans-73" x="700.699219"/>
     </g>
    </g>
   </g>
   <g id="text_5">
    <g id="patch_6">
     <path d="M 228.326658 83.084387 
L 297.892439 83.084387 
L 297.892439 66.454075 
L 228.326658 66.454075 
z
" clip-path="url(#p1b438d3af7)" style="fill: #ffffff; opacity: 0.7; stroke: #000000; stroke-linejoin: miter"/>
    </g>
    <g clip-path="url(#p1b438d3af7)">
     <!-- William Wyler -->
     <g transform="translate(232.286658 77.252668)scale(0.09 -0.09)">
      <defs>
       <path id="DejaVuSans-6d" d="M 3328 2828 
Q 3544 3216 3844 3400 
Q 4144 3584 4550 3584 
Q 5097 3584 5394 3201 
Q 5691 2819 5691 2113 
L 5691 0 
L 5113 0 
L 5113 2094 
Q 5113 2597 4934 2840 
Q 4756 3084 4391 3084 
Q 3944 3084 3684 2787 
Q 3425 2491 3425 1978 
L 3425 0 
L 2847 0 
L 2847 2094 
Q 2847 2600 2669 2842 
Q 2491 3084 2119 3084 
Q 1678 3084 1418 2786 
Q 1159 2488 1159 1978 
L 1159 0 
L 581 0 
L 581 3500 
L 1159 3500 
L 1159 2956 
Q 1356 3278 1631 3431 
Q 1906 3584 2284 3584 
Q 2666 3584 2933 3390 
Q 3200 3197 3328 2828 
z
" transform="scale(0.015625)"/>
      </defs>
      <use xlink:href="#DejaVuSans-57"/>
      <use xlink:href="#DejaVuSans-69" x="96.626953"/>
      <use xlink:href="#DejaVuSans-6c" x="124.410156"/>
      <use xlink:href="#DejaVuSans-6c" x="152.193359"/>
      <use xlink:href="#DejaVuSans-69" x="179.976562"/>
      <use xlink:href="#DejaVuSans-61" x="207.759766"/>
      <use xlink:href="#DejaVuSans-6d" x="269.039062"/>
      <use xlink:href="#DejaVuSans-20" x="366.451172"/>
      <use xlink:href="#DejaVuSans-57" x="398.238281"/>
      <use xlink:href="#DejaVuSans-79" x="495.365234"/>
      <use xlink:href="#DejaVuSans-6c" x="554.544922"/>
      <use xlink:href="#DejaVuSans-65" x="582.328125"/>
      <use xlink:href="#DejaVuSans-72" x="643.851562"/>
     </g>
    </g>
   </g>
   <g id="text_6">
    <g id="patch_7">
     <path d="M 130.933876 110.634724 
L 224.76872 110.634724 
L 224.76872 94.004411 
L 130.933876 94.004411 
z
" clip-path="url(#p1b438d3af7)" style="fill: #ffffff; opacity: 0.7; stroke: #000000; stroke-linejoin: miter"/>
    </g>
    <g clip-path="url(#p1b438d3af7)">
     <!-- Robert F. McGowan -->
     <g transform="translate(134.893876 104.803005)scale(0.09 -0.09)">
      <defs>
       <path id="DejaVuSans-52" d="M 2841 2188 
Q 3044 2119 3236 1894 
Q 3428 1669 3622 1275 
L 4263 0 
L 3584 0 
L 2988 1197 
Q 2756 1666 2539 1819 
Q 2322 1972 1947 1972 
L 1259 1972 
L 1259 0 
L 628 0 
L 628 4666 
L 2053 4666 
Q 2853 4666 3247 4331 
Q 3641 3997 3641 3322 
Q 3641 2881 3436 2590 
Q 3231 2300 2841 2188 
z
M 1259 4147 
L 1259 2491 
L 2053 2491 
Q 2509 2491 2742 2702 
Q 2975 2913 2975 3322 
Q 2975 3731 2742 3939 
Q 2509 4147 2053 4147 
L 1259 4147 
z
" transform="scale(0.015625)"/>
       <path id="DejaVuSans-62" d="M 3116 1747 
Q 3116 2381 2855 2742 
Q 2594 3103 2138 3103 
Q 1681 3103 1420 2742 
Q 1159 2381 1159 1747 
Q 1159 1113 1420 752 
Q 1681 391 2138 391 
Q 2594 391 2855 752 
Q 3116 1113 3116 1747 
z
M 1159 2969 
Q 1341 3281 1617 3432 
Q 1894 3584 2278 3584 
Q 2916 3584 3314 3078 
Q 3713 2572 3713 1747 
Q 3713 922 3314 415 
Q 2916 -91 2278 -91 
Q 1894 -91 1617 61 
Q 1341 213 1159 525 
L 1159 0 
L 581 0 
L 581 4863 
L 1159 4863 
L 1159 2969 
z
" transform="scale(0.015625)"/>
       <path id="DejaVuSans-46" d="M 628 4666 
L 3309 4666 
L 3309 4134 
L 1259 4134 
L 1259 2759 
L 3109 2759 
L 3109 2228 
L 1259 2228 
L 1259 0 
L 628 0 
L 628 4666 
z
" transform="scale(0.015625)"/>
       <path id="DejaVuSans-2e" d="M 684 794 
L 1344 794 
L 1344 0 
L 684 0 
L 684 794 
z
" transform="scale(0.015625)"/>
       <path id="DejaVuSans-4d" d="M 628 4666 
L 1569 4666 
L 2759 1491 
L 3956 4666 
L 4897 4666 
L 4897 0 
L 4281 0 
L 4281 4097 
L 3078 897 
L 2444 897 
L 1241 4097 
L 1241 0 
L 628 0 
L 628 4666 
z
" transform="scale(0.015625)"/>
       <path id="DejaVuSans-63" d="M 3122 3366 
L 3122 2828 
Q 2878 2963 2633 3030 
Q 2388 3097 2138 3097 
Q 1578 3097 1268 2742 
Q 959 2388 959 1747 
Q 959 1106 1268 751 
Q 1578 397 2138 397 
Q 2388 397 2633 464 
Q 2878 531 3122 666 
L 3122 134 
Q 2881 22 2623 -34 
Q 2366 -91 2075 -91 
Q 1284 -91 818 406 
Q 353 903 353 1747 
Q 353 2603 823 3093 
Q 1294 3584 2113 3584 
Q 2378 3584 2631 3529 
Q 2884 3475 3122 3366 
z
" transform="scale(0.015625)"/>
       <path id="DejaVuSans-47" d="M 3809 666 
L 3809 1919 
L 2778 1919 
L 2778 2438 
L 4434 2438 
L 4434 434 
Q 4069 175 3628 42 
Q 3188 -91 2688 -91 
Q 1594 -91 976 548 
Q 359 1188 359 2328 
Q 359 3472 976 4111 
Q 1594 4750 2688 4750 
Q 3144 4750 3555 4637 
Q 3966 4525 4313 4306 
L 4313 3634 
Q 3963 3931 3569 4081 
Q 3175 4231 2741 4231 
Q 1884 4231 1454 3753 
Q 1025 3275 1025 2328 
Q 1025 1384 1454 906 
Q 1884 428 2741 428 
Q 3075 428 3337 486 
Q 3600 544 3809 666 
z
" transform="scale(0.015625)"/>
      </defs>
      <use xlink:href="#DejaVuSans-52"/>
      <use xlink:href="#DejaVuSans-6f" x="64.982422"/>
      <use xlink:href="#DejaVuSans-62" x="126.164062"/>
      <use xlink:href="#DejaVuSans-65" x="189.640625"/>
      <use xlink:href="#DejaVuSans-72" x="251.164062"/>
      <use xlink:href="#DejaVuSans-74" x="292.277344"/>
      <use xlink:href="#DejaVuSans-20" x="331.486328"/>
      <use xlink:href="#DejaVuSans-46" x="363.273438"/>
      <use xlink:href="#DejaVuSans-2e" x="404.667969"/>
      <use xlink:href="#DejaVuSans-20" x="436.455078"/>
      <use xlink:href="#DejaVuSans-4d" x="468.242188"/>
      <use xlink:href="#DejaVuSans-63" x="554.521484"/>
      <use xlink:href="#DejaVuSans-47" x="609.501953"/>
      <use xlink:href="#DejaVuSans-6f" x="686.992188"/>
      <use xlink:href="#DejaVuSans-77" x="748.173828"/>
      <use xlink:href="#DejaVuSans-61" x="829.960938"/>
      <use xlink:href="#DejaVuSans-6e" x="891.240234"/>
     </g>
    </g>
   </g>
   <g id="text_7">
    <g id="patch_8">
     <path d="M 71.972493 170.290885 
L 150.490461 170.290885 
L 150.490461 153.660572 
L 71.972493 153.660572 
z
" clip-path="url(#p1b438d3af7)" style="fill: #ffffff; opacity: 0.7; stroke: #000000; stroke-linejoin: miter"/>
    </g>
    <g clip-path="url(#p1b438d3af7)">
     <!-- Robert Mulligan -->
     <g transform="translate(75.932493 164.459166)scale(0.09 -0.09)">
      <defs>
       <path id="DejaVuSans-67" d="M 2906 1791 
Q 2906 2416 2648 2759 
Q 2391 3103 1925 3103 
Q 1463 3103 1205 2759 
Q 947 2416 947 1791 
Q 947 1169 1205 825 
Q 1463 481 1925 481 
Q 2391 481 2648 825 
Q 2906 1169 2906 1791 
z
M 3481 434 
Q 3481 -459 3084 -895 
Q 2688 -1331 1869 -1331 
Q 1566 -1331 1297 -1286 
Q 1028 -1241 775 -1147 
L 775 -588 
Q 1028 -725 1275 -790 
Q 1522 -856 1778 -856 
Q 2344 -856 2625 -561 
Q 2906 -266 2906 331 
L 2906 616 
Q 2728 306 2450 153 
Q 2172 0 1784 0 
Q 1141 0 747 490 
Q 353 981 353 1791 
Q 353 2603 747 3093 
Q 1141 3584 1784 3584 
Q 2172 3584 2450 3431 
Q 2728 3278 2906 2969 
L 2906 3500 
L 3481 3500 
L 3481 434 
z
" transform="scale(0.015625)"/>
      </defs>
      <use xlink:href="#DejaVuSans-52"/>
      <use xlink:href="#DejaVuSans-6f" x="64.982422"/>
      <use xlink:href="#DejaVuSans-62" x="126.164062"/>
      <use xlink:href="#DejaVuSans-65" x="189.640625"/>
      <use xlink:href="#DejaVuSans-72" x="251.164062"/>
      <use xlink:href="#DejaVuSans-74" x="292.277344"/>
      <use xlink:href="#DejaVuSans-20" x="331.486328"/>
      <use xlink:href="#DejaVuSans-4d" x="363.273438"/>
      <use xlink:href="#DejaVuSans-75" x="449.552734"/>
      <use xlink:href="#DejaVuSans-6c" x="512.931641"/>
      <use xlink:href="#DejaVuSans-6c" x="540.714844"/>
      <use xlink:href="#DejaVuSans-69" x="568.498047"/>
      <use xlink:href="#DejaVuSans-67" x="596.28125"/>
      <use xlink:href="#DejaVuSans-61" x="659.757812"/>
      <use xlink:href="#DejaVuSans-6e" x="721.037109"/>
     </g>
    </g>
   </g>
   <g id="text_8">
    <g id="patch_9">
     <path d="M 39.090559 251.737805 
L 110.447903 251.737805 
L 110.447903 235.107493 
L 39.090559 235.107493 
z
" clip-path="url(#p1b438d3af7)" style="fill: #ffffff; opacity: 0.7; stroke: #000000; stroke-linejoin: miter"/>
    </g>
    <g clip-path="url(#p1b438d3af7)">
     <!-- Buster Keaton -->
     <g transform="translate(43.050559 245.906086)scale(0.09 -0.09)">
      <defs>
       <path id="DejaVuSans-4b" d="M 628 4666 
L 1259 4666 
L 1259 2694 
L 3353 4666 
L 4166 4666 
L 1850 2491 
L 4331 0 
L 3500 0 
L 1259 2247 
L 1259 0 
L 628 0 
L 628 4666 
z
" transform="scale(0.015625)"/>
      </defs>
      <use xlink:href="#DejaVuSans-42"/>
      <use xlink:href="#DejaVuSans-75" x="68.603516"/>
      <use xlink:href="#DejaVuSans-73" x="131.982422"/>
      <use xlink:href="#DejaVuSans-74" x="184.082031"/>
      <use xlink:href="#DejaVuSans-65" x="223.291016"/>
      <use xlink:href="#DejaVuSans-72" x="284.814453"/>
      <use xlink:href="#DejaVuSans-20" x="325.927734"/>
      <use xlink:href="#DejaVuSans-4b" x="357.714844"/>
      <use xlink:href="#DejaVuSans-65" x="418.291016"/>
      <use xlink:href="#DejaVuSans-61" x="479.814453"/>
      <use xlink:href="#DejaVuSans-74" x="541.09375"/>
      <use xlink:href="#DejaVuSans-6f" x="580.302734"/>
      <use xlink:href="#DejaVuSans-6e" x="641.484375"/>
     </g>
    </g>
   </g>
   <g id="text_9">
    <g id="patch_10">
     <path d="M 38.98229 340.892546 
L 110.556197 340.892546 
L 110.556197 324.262233 
L 38.98229 324.262233 
z
" clip-path="url(#p1b438d3af7)" style="fill: #ffffff; opacity: 0.7; stroke: #000000; stroke-linejoin: miter"/>
    </g>
    <g clip-path="url(#p1b438d3af7)">
     <!-- Ernst Lubitsch -->
     <g transform="translate(42.94229 335.060827)scale(0.09 -0.09)">
      <use xlink:href="#DejaVuSans-45"/>
      <use xlink:href="#DejaVuSans-72" x="63.183594"/>
      <use xlink:href="#DejaVuSans-6e" x="102.546875"/>
      <use xlink:href="#DejaVuSans-73" x="165.925781"/>
      <use xlink:href="#DejaVuSans-74" x="218.025391"/>
      <use xlink:href="#DejaVuSans-20" x="257.234375"/>
      <use xlink:href="#DejaVuSans-4c" x="289.021484"/>
      <use xlink:href="#DejaVuSans-75" x="342.984375"/>
      <use xlink:href="#DejaVuSans-62" x="406.363281"/>
      <use xlink:href="#DejaVuSans-69" x="469.839844"/>
      <use xlink:href="#DejaVuSans-74" x="497.623047"/>
      <use xlink:href="#DejaVuSans-73" x="536.832031"/>
      <use xlink:href="#DejaVuSans-63" x="588.931641"/>
      <use xlink:href="#DejaVuSans-68" x="643.912109"/>
     </g>
    </g>
   </g>
   <g id="text_10">
    <g id="patch_11">
     <path d="M 80.106959 422.33944 
L 142.356021 422.33944 
L 142.356021 405.709128 
L 80.106959 405.709128 
z
" clip-path="url(#p1b438d3af7)" style="fill: #ffffff; opacity: 0.7; stroke: #000000; stroke-linejoin: miter"/>
    </g>
    <g clip-path="url(#p1b438d3af7)">
     <!-- John Huston -->
     <g transform="translate(84.066959 416.507722)scale(0.09 -0.09)">
      <defs>
       <path id="DejaVuSans-48" d="M 628 4666 
L 1259 4666 
L 1259 2753 
L 3553 2753 
L 3553 4666 
L 4184 4666 
L 4184 0 
L 3553 0 
L 3553 2222 
L 1259 2222 
L 1259 0 
L 628 0 
L 628 4666 
z
" transform="scale(0.015625)"/>
      </defs>
      <use xlink:href="#DejaVuSans-4a"/>
      <use xlink:href="#DejaVuSans-6f" x="29.492188"/>
      <use xlink:href="#DejaVuSans-68" x="90.673828"/>
      <use xlink:href="#DejaVuSans-6e" x="154.052734"/>
      <use xlink:href="#DejaVuSans-20" x="217.431641"/>
      <use xlink:href="#DejaVuSans-48" x="249.21875"/>
      <use xlink:href="#DejaVuSans-75" x="324.414062"/>
      <use xlink:href="#DejaVuSans-73" x="387.792969"/>
      <use xlink:href="#DejaVuSans-74" x="439.892578"/>
      <use xlink:href="#DejaVuSans-6f" x="479.101562"/>
      <use xlink:href="#DejaVuSans-6e" x="540.283203"/>
     </g>
    </g>
   </g>
   <g id="text_11">
    <g id="patch_12">
     <path d="M 131.601877 481.995602 
L 224.100783 481.995602 
L 224.100783 465.365289 
L 131.601877 465.365289 
z
" clip-path="url(#p1b438d3af7)" style="fill: #ffffff; opacity: 0.7; stroke: #000000; stroke-linejoin: miter"/>
    </g>
    <g clip-path="url(#p1b438d3af7)">
     <!-- Peter Bogdanovich -->
     <g transform="translate(135.561877 476.163883)scale(0.09 -0.09)">
      <defs>
       <path id="DejaVuSans-50" d="M 1259 4147 
L 1259 2394 
L 2053 2394 
Q 2494 2394 2734 2622 
Q 2975 2850 2975 3272 
Q 2975 3691 2734 3919 
Q 2494 4147 2053 4147 
L 1259 4147 
z
M 628 4666 
L 2053 4666 
Q 2838 4666 3239 4311 
Q 3641 3956 3641 3272 
Q 3641 2581 3239 2228 
Q 2838 1875 2053 1875 
L 1259 1875 
L 1259 0 
L 628 0 
L 628 4666 
z
" transform="scale(0.015625)"/>
       <path id="DejaVuSans-76" d="M 191 3500 
L 800 3500 
L 1894 563 
L 2988 3500 
L 3597 3500 
L 2284 0 
L 1503 0 
L 191 3500 
z
" transform="scale(0.015625)"/>
      </defs>
      <use xlink:href="#DejaVuSans-50"/>
      <use xlink:href="#DejaVuSans-65" x="56.677734"/>
      <use xlink:href="#DejaVuSans-74" x="118.201172"/>
      <use xlink:href="#DejaVuSans-65" x="157.410156"/>
      <use xlink:href="#DejaVuSans-72" x="218.933594"/>
      <use xlink:href="#DejaVuSans-20" x="260.046875"/>
      <use xlink:href="#DejaVuSans-42" x="291.833984"/>
      <use xlink:href="#DejaVuSans-6f" x="360.4375"/>
      <use xlink:href="#DejaVuSans-67" x="421.619141"/>
      <use xlink:href="#DejaVuSans-64" x="485.095703"/>
      <use xlink:href="#DejaVuSans-61" x="548.572266"/>
      <use xlink:href="#DejaVuSans-6e" x="609.851562"/>
      <use xlink:href="#DejaVuSans-6f" x="673.230469"/>
      <use xlink:href="#DejaVuSans-76" x="734.412109"/>
      <use xlink:href="#DejaVuSans-69" x="793.591797"/>
      <use xlink:href="#DejaVuSans-63" x="821.375"/>
      <use xlink:href="#DejaVuSans-68" x="876.355469"/>
     </g>
    </g>
   </g>
   <g id="text_12">
    <g id="patch_13">
     <path d="M 224.796306 509.545925 
L 301.422868 509.545925 
L 301.422868 492.915613 
L 224.796306 492.915613 
z
" clip-path="url(#p1b438d3af7)" style="fill: #ffffff; opacity: 0.7; stroke: #000000; stroke-linejoin: miter"/>
    </g>
    <g clip-path="url(#p1b438d3af7)">
     <!-- Victor Sjöström -->
     <g transform="translate(228.756306 503.714207)scale(0.09 -0.09)">
      <defs>
       <path id="DejaVuSans-56" d="M 1831 0 
L 50 4666 
L 709 4666 
L 2188 738 
L 3669 4666 
L 4325 4666 
L 2547 0 
L 1831 0 
z
" transform="scale(0.015625)"/>
       <path id="DejaVuSans-53" d="M 3425 4513 
L 3425 3897 
Q 3066 4069 2747 4153 
Q 2428 4238 2131 4238 
Q 1616 4238 1336 4038 
Q 1056 3838 1056 3469 
Q 1056 3159 1242 3001 
Q 1428 2844 1947 2747 
L 2328 2669 
Q 3034 2534 3370 2195 
Q 3706 1856 3706 1288 
Q 3706 609 3251 259 
Q 2797 -91 1919 -91 
Q 1588 -91 1214 -16 
Q 841 59 441 206 
L 441 856 
Q 825 641 1194 531 
Q 1563 422 1919 422 
Q 2459 422 2753 634 
Q 3047 847 3047 1241 
Q 3047 1584 2836 1778 
Q 2625 1972 2144 2069 
L 1759 2144 
Q 1053 2284 737 2584 
Q 422 2884 422 3419 
Q 422 4038 858 4394 
Q 1294 4750 2059 4750 
Q 2388 4750 2728 4690 
Q 3069 4631 3425 4513 
z
" transform="scale(0.015625)"/>
       <path id="DejaVuSans-6a" d="M 603 3500 
L 1178 3500 
L 1178 -63 
Q 1178 -731 923 -1031 
Q 669 -1331 103 -1331 
L -116 -1331 
L -116 -844 
L 38 -844 
Q 366 -844 484 -692 
Q 603 -541 603 -63 
L 603 3500 
z
M 603 4863 
L 1178 4863 
L 1178 4134 
L 603 4134 
L 603 4863 
z
" transform="scale(0.015625)"/>
       <path id="DejaVuSans-f6" d="M 1959 3097 
Q 1497 3097 1228 2736 
Q 959 2375 959 1747 
Q 959 1119 1226 758 
Q 1494 397 1959 397 
Q 2419 397 2687 759 
Q 2956 1122 2956 1747 
Q 2956 2369 2687 2733 
Q 2419 3097 1959 3097 
z
M 1959 3584 
Q 2709 3584 3137 3096 
Q 3566 2609 3566 1747 
Q 3566 888 3137 398 
Q 2709 -91 1959 -91 
Q 1206 -91 779 398 
Q 353 888 353 1747 
Q 353 2609 779 3096 
Q 1206 3584 1959 3584 
z
M 2253 4850 
L 2888 4850 
L 2888 4219 
L 2253 4219 
L 2253 4850 
z
M 1031 4850 
L 1666 4850 
L 1666 4219 
L 1031 4219 
L 1031 4850 
z
" transform="scale(0.015625)"/>
      </defs>
      <use xlink:href="#DejaVuSans-56"/>
      <use xlink:href="#DejaVuSans-69" x="66.158203"/>
      <use xlink:href="#DejaVuSans-63" x="93.941406"/>
      <use xlink:href="#DejaVuSans-74" x="148.921875"/>
      <use xlink:href="#DejaVuSans-6f" x="188.130859"/>
      <use xlink:href="#DejaVuSans-72" x="249.3125"/>
      <use xlink:href="#DejaVuSans-20" x="290.425781"/>
      <use xlink:href="#DejaVuSans-53" x="322.212891"/>
      <use xlink:href="#DejaVuSans-6a" x="385.689453"/>
      <use xlink:href="#DejaVuSans-f6" x="413.472656"/>
      <use xlink:href="#DejaVuSans-73" x="474.654297"/>
      <use xlink:href="#DejaVuSans-74" x="526.753906"/>
      <use xlink:href="#DejaVuSans-72" x="565.962891"/>
      <use xlink:href="#DejaVuSans-f6" x="604.826172"/>
      <use xlink:href="#DejaVuSans-6d" x="666.007812"/>
     </g>
    </g>
   </g>
   <g id="text_13">
    <g id="patch_14">
     <path d="M 326.412526 500.226706 
L 378.11612 500.226706 
L 378.11612 483.596393 
L 326.412526 483.596393 
z
" clip-path="url(#p1b438d3af7)" style="fill: #ffffff; opacity: 0.7; stroke: #000000; stroke-linejoin: miter"/>
    </g>
    <g clip-path="url(#p1b438d3af7)">
     <!-- Fritz Lang -->
     <g transform="translate(330.372526 494.394987)scale(0.09 -0.09)">
      <defs>
       <path id="DejaVuSans-7a" d="M 353 3500 
L 3084 3500 
L 3084 2975 
L 922 459 
L 3084 459 
L 3084 0 
L 275 0 
L 275 525 
L 2438 3041 
L 353 3041 
L 353 3500 
z
" transform="scale(0.015625)"/>
      </defs>
      <use xlink:href="#DejaVuSans-46"/>
      <use xlink:href="#DejaVuSans-72" x="50.269531"/>
      <use xlink:href="#DejaVuSans-69" x="91.382812"/>
      <use xlink:href="#DejaVuSans-74" x="119.166016"/>
      <use xlink:href="#DejaVuSans-7a" x="158.375"/>
      <use xlink:href="#DejaVuSans-20" x="210.865234"/>
      <use xlink:href="#DejaVuSans-4c" x="242.652344"/>
      <use xlink:href="#DejaVuSans-61" x="298.365234"/>
      <use xlink:href="#DejaVuSans-6e" x="359.644531"/>
      <use xlink:href="#DejaVuSans-67" x="423.023438"/>
     </g>
    </g>
   </g>
   <g id="text_14">
    <g id="patch_15">
     <path d="M 398.098248 455.649316 
L 461.701529 455.649316 
L 461.701529 439.019004 
L 398.098248 439.019004 
z
" clip-path="url(#p1b438d3af7)" style="fill: #ffffff; opacity: 0.7; stroke: #000000; stroke-linejoin: miter"/>
    </g>
    <g clip-path="url(#p1b438d3af7)">
     <!-- Woody Allen -->
     <g transform="translate(402.058248 449.817598)scale(0.09 -0.09)">
      <defs>
       <path id="DejaVuSans-41" d="M 2188 4044 
L 1331 1722 
L 3047 1722 
L 2188 4044 
z
M 1831 4666 
L 2547 4666 
L 4325 0 
L 3669 0 
L 3244 1197 
L 1141 1197 
L 716 0 
L 50 0 
L 1831 4666 
z
" transform="scale(0.015625)"/>
      </defs>
      <use xlink:href="#DejaVuSans-57"/>
      <use xlink:href="#DejaVuSans-6f" x="93.001953"/>
      <use xlink:href="#DejaVuSans-6f" x="154.183594"/>
      <use xlink:href="#DejaVuSans-64" x="215.365234"/>
      <use xlink:href="#DejaVuSans-79" x="278.841797"/>
      <use xlink:href="#DejaVuSans-20" x="338.021484"/>
      <use xlink:href="#DejaVuSans-41" x="369.808594"/>
      <use xlink:href="#DejaVuSans-6c" x="438.216797"/>
      <use xlink:href="#DejaVuSans-6c" x="466"/>
      <use xlink:href="#DejaVuSans-65" x="493.783203"/>
      <use xlink:href="#DejaVuSans-6e" x="555.306641"/>
     </g>
    </g>
   </g>
   <g id="text_15">
    <g id="patch_16">
     <path d="M 455.421514 383.521616 
L 509.763233 383.521616 
L 509.763233 366.891303 
L 455.421514 366.891303 
z
" clip-path="url(#p1b438d3af7)" style="fill: #ffffff; opacity: 0.7; stroke: #000000; stroke-linejoin: miter"/>
    </g>
    <g clip-path="url(#p1b438d3af7)">
     <!-- Gus Meins -->
     <g transform="translate(459.381514 377.689897)scale(0.09 -0.09)">
      <use xlink:href="#DejaVuSans-47"/>
      <use xlink:href="#DejaVuSans-75" x="77.490234"/>
      <use xlink:href="#DejaVuSans-73" x="140.869141"/>
      <use xlink:href="#DejaVuSans-20" x="192.96875"/>
      <use xlink:href="#DejaVuSans-4d" x="224.755859"/>
      <use xlink:href="#DejaVuSans-65" x="311.035156"/>
      <use xlink:href="#DejaVuSans-69" x="372.558594"/>
      <use xlink:href="#DejaVuSans-6e" x="400.341797"/>
      <use xlink:href="#DejaVuSans-73" x="463.720703"/>
     </g>
    </g>
   </g>
   <g id="text_16">
    <!-- Impactful directors for Black-and-white genre -->
    <g transform="translate(151.776563 4.8)scale(0.12 -0.12)">
     <defs>
      <path id="DejaVuSans-49" d="M 628 4666 
L 1259 4666 
L 1259 0 
L 628 0 
L 628 4666 
z
" transform="scale(0.015625)"/>
      <path id="DejaVuSans-70" d="M 1159 525 
L 1159 -1331 
L 581 -1331 
L 581 3500 
L 1159 3500 
L 1159 2969 
Q 1341 3281 1617 3432 
Q 1894 3584 2278 3584 
Q 2916 3584 3314 3078 
Q 3713 2572 3713 1747 
Q 3713 922 3314 415 
Q 2916 -91 2278 -91 
Q 1894 -91 1617 61 
Q 1341 213 1159 525 
z
M 3116 1747 
Q 3116 2381 2855 2742 
Q 2594 3103 2138 3103 
Q 1681 3103 1420 2742 
Q 1159 2381 1159 1747 
Q 1159 1113 1420 752 
Q 1681 391 2138 391 
Q 2594 391 2855 752 
Q 3116 1113 3116 1747 
z
" transform="scale(0.015625)"/>
      <path id="DejaVuSans-66" d="M 2375 4863 
L 2375 4384 
L 1825 4384 
Q 1516 4384 1395 4259 
Q 1275 4134 1275 3809 
L 1275 3500 
L 2222 3500 
L 2222 3053 
L 1275 3053 
L 1275 0 
L 697 0 
L 697 3053 
L 147 3053 
L 147 3500 
L 697 3500 
L 697 3744 
Q 697 4328 969 4595 
Q 1241 4863 1831 4863 
L 2375 4863 
z
" transform="scale(0.015625)"/>
      <path id="DejaVuSans-6b" d="M 581 4863 
L 1159 4863 
L 1159 1991 
L 2875 3500 
L 3609 3500 
L 1753 1863 
L 3688 0 
L 2938 0 
L 1159 1709 
L 1159 0 
L 581 0 
L 581 4863 
z
" transform="scale(0.015625)"/>
      <path id="DejaVuSans-2d" d="M 313 2009 
L 1997 2009 
L 1997 1497 
L 313 1497 
L 313 2009 
z
" transform="scale(0.015625)"/>
     </defs>
     <use xlink:href="#DejaVuSans-49"/>
     <use xlink:href="#DejaVuSans-6d" x="29.492188"/>
     <use xlink:href="#DejaVuSans-70" x="126.904297"/>
     <use xlink:href="#DejaVuSans-61" x="190.380859"/>
     <use xlink:href="#DejaVuSans-63" x="251.660156"/>
     <use xlink:href="#DejaVuSans-74" x="306.640625"/>
     <use xlink:href="#DejaVuSans-66" x="345.849609"/>
     <use xlink:href="#DejaVuSans-75" x="381.054688"/>
     <use xlink:href="#DejaVuSans-6c" x="444.433594"/>
     <use xlink:href="#DejaVuSans-20" x="472.216797"/>
     <use xlink:href="#DejaVuSans-64" x="504.003906"/>
     <use xlink:href="#DejaVuSans-69" x="567.480469"/>
     <use xlink:href="#DejaVuSans-72" x="595.263672"/>
     <use xlink:href="#DejaVuSans-65" x="634.126953"/>
     <use xlink:href="#DejaVuSans-63" x="695.650391"/>
     <use xlink:href="#DejaVuSans-74" x="750.630859"/>
     <use xlink:href="#DejaVuSans-6f" x="789.839844"/>
     <use xlink:href="#DejaVuSans-72" x="851.021484"/>
     <use xlink:href="#DejaVuSans-73" x="892.134766"/>
     <use xlink:href="#DejaVuSans-20" x="944.234375"/>
     <use xlink:href="#DejaVuSans-66" x="976.021484"/>
     <use xlink:href="#DejaVuSans-6f" x="1011.226562"/>
     <use xlink:href="#DejaVuSans-72" x="1072.408203"/>
     <use xlink:href="#DejaVuSans-20" x="1113.521484"/>
     <use xlink:href="#DejaVuSans-42" x="1145.308594"/>
     <use xlink:href="#DejaVuSans-6c" x="1213.912109"/>
     <use xlink:href="#DejaVuSans-61" x="1241.695312"/>
     <use xlink:href="#DejaVuSans-63" x="1302.974609"/>
     <use xlink:href="#DejaVuSans-6b" x="1357.955078"/>
     <use xlink:href="#DejaVuSans-2d" x="1415.865234"/>
     <use xlink:href="#DejaVuSans-61" x="1451.949219"/>
     <use xlink:href="#DejaVuSans-6e" x="1513.228516"/>
     <use xlink:href="#DejaVuSans-64" x="1576.607422"/>
     <use xlink:href="#DejaVuSans-2d" x="1640.083984"/>
     <use xlink:href="#DejaVuSans-77" x="1676.167969"/>
     <use xlink:href="#DejaVuSans-68" x="1757.955078"/>
     <use xlink:href="#DejaVuSans-69" x="1821.333984"/>
     <use xlink:href="#DejaVuSans-74" x="1849.117188"/>
     <use xlink:href="#DejaVuSans-65" x="1888.326172"/>
     <use xlink:href="#DejaVuSans-20" x="1949.849609"/>
     <use xlink:href="#DejaVuSans-67" x="1981.636719"/>
     <use xlink:href="#DejaVuSans-65" x="2045.113281"/>
     <use xlink:href="#DejaVuSans-6e" x="2106.636719"/>
     <use xlink:href="#DejaVuSans-72" x="2170.015625"/>
     <use xlink:href="#DejaVuSans-65" x="2208.878906"/>
    </g>
   </g>
  </g>
 </g>
 <defs>
  <clipPath id="p1b438d3af7">
   <rect x="10.8" y="10.8" width="554.4" height="554.4"/>
  </clipPath>
 </defs>
</svg>
