<?xml version="1.0" encoding="utf-8" standalone="no"?>
<!DOCTYPE svg PUBLIC "-//W3C//DTD SVG 1.1//EN"
  "http://www.w3.org/Graphics/SVG/1.1/DTD/svg11.dtd">
<svg xmlns:xlink="http://www.w3.org/1999/xlink" width="576pt" height="576pt" viewBox="0 0 576 576" xmlns="http://www.w3.org/2000/svg" version="1.1">
 <metadata>
  <rdf:RDF xmlns:dc="http://purl.org/dc/elements/1.1/" xmlns:cc="http://creativecommons.org/ns#" xmlns:rdf="http://www.w3.org/1999/02/22-rdf-syntax-ns#">
   <cc:Work>
    <dc:type rdf:resource="http://purl.org/dc/dcmitype/StillImage"/>
    <dc:date>2022-12-23T17:29:22.759917</dc:date>
    <dc:format>image/svg+xml</dc:format>
    <dc:creator>
     <cc:Agent>
      <dc:title>Matplotlib v3.5.2, https://matplotlib.org/</dc:title>
     </cc:Agent>
    </dc:creator>
   </cc:Work>
  </rdf:RDF>
 </metadata>
 <defs>
  <style type="text/css">*{stroke-linejoin: round; stroke-linecap: butt}</style>
 </defs>
 <g id="figure_1">
  <g id="patch_1">
   <path d="M 0 576 
L 576 576 
L 576 0 
L 0 0 
z
" style="fill: #ffffff"/>
  </g>
  <g id="axes_1">
   <g id="LineCollection_1">
    <path d="M 482.592348 214.217107 
L 429.89985 145.312081 
" clip-path="url(#p9828042832)" style="fill: none; stroke: #000000; stroke-opacity: 0.3; stroke-width: 10"/>
    <path d="M 263.109549 93.82362 
L 177.851298 120.143002 
" clip-path="url(#p9828042832)" style="fill: none; stroke: #000000; stroke-opacity: 0.3; stroke-width: 5.068324"/>
    <path d="M 177.851298 120.143002 
L 177.85133 474.9114 
" clip-path="url(#p9828042832)" style="fill: none; stroke: #000000; stroke-opacity: 0.3; stroke-width: 5"/>
   </g>
   <g id="PathCollection_1">
    <path d="M 501.230769 324.913322 
C 508.493655 324.913322 515.46005 322.027747 520.595686 316.892111 
C 525.731322 311.756475 528.616897 304.790081 528.616897 297.527194 
C 528.616897 290.264308 525.731322 283.297914 520.595686 278.162278 
C 515.46005 273.026642 508.493655 270.141067 501.230769 270.141067 
C 493.967883 270.141067 487.001488 273.026642 481.865852 278.162278 
C 476.730217 283.297914 473.844641 290.264308 473.844641 297.527194 
C 473.844641 304.790081 476.730217 311.756475 481.865852 316.892111 
C 487.001488 322.027747 493.967883 324.913322 501.230769 324.913322 
z
" clip-path="url(#p9828042832)" style="fill: #c70039; fill-opacity: 0.99; stroke: #c70039; stroke-opacity: 0.99"/>
    <path d="M 482.592348 239.829125 
C 489.384734 239.829125 495.899837 237.130481 500.702779 232.327538 
C 505.505722 227.524596 508.204366 221.009493 508.204366 214.217107 
C 508.204366 207.42472 505.505722 200.909618 500.702779 196.106675 
C 495.899837 191.303733 489.384734 188.605089 482.592348 188.605089 
C 475.799961 188.605089 469.284859 191.303733 464.481916 196.106675 
C 459.678974 200.909618 456.98033 207.42472 456.98033 214.217107 
C 456.98033 221.009493 459.678974 227.524596 464.481916 232.327538 
C 469.284859 237.130481 475.799961 239.829125 482.592348 239.829125 
z
" clip-path="url(#p9828042832)" style="fill: #c70039; fill-opacity: 0.99; stroke: #c70039; stroke-opacity: 0.99"/>
    <path d="M 429.89985 170.924099 
C 436.692236 170.924099 443.207339 168.225455 448.010281 163.422512 
C 452.813224 158.61957 455.511868 152.104467 455.511868 145.312081 
C 455.511868 138.519694 452.813224 132.004592 448.010281 127.201649 
C 443.207339 122.398707 436.692236 119.700063 429.89985 119.700063 
C 423.107463 119.700063 416.592361 122.398707 411.789418 127.201649 
C 406.986476 132.004592 404.287832 138.519694 404.287832 145.312081 
C 404.287832 152.104467 406.986476 158.61957 411.789418 163.422512 
C 416.592361 168.225455 423.107463 170.924099 429.89985 170.924099 
z
" clip-path="url(#p9828042832)" style="fill: #c70039; fill-opacity: 0.99; stroke: #c70039; stroke-opacity: 0.99"/>
    <path d="M 352.264291 128.061945 
C 358.983345 128.061945 365.428108 125.392437 370.179197 120.641348 
C 374.930285 115.89026 377.599794 109.445496 377.599794 102.726443 
C 377.599794 96.007389 374.930285 89.562626 370.179197 84.811537 
C 365.428108 80.060449 358.983345 77.39094 352.264291 77.39094 
C 345.545237 77.39094 339.100474 80.060449 334.349386 84.811537 
C 329.598297 89.562626 326.928789 96.007389 326.928789 102.726443 
C 326.928789 109.445496 329.598297 115.89026 334.349386 120.641348 
C 339.100474 125.392437 345.545237 128.061945 352.264291 128.061945 
z
" clip-path="url(#p9828042832)" style="fill: #c70039; fill-opacity: 0.99; stroke: #c70039; stroke-opacity: 0.99"/>
    <path d="M 263.109549 117.589732 
C 269.412395 117.589732 275.457942 115.085584 279.914728 110.628799 
C 284.371513 106.172013 286.875661 100.126466 286.875661 93.82362 
C 286.875661 87.520773 284.371513 81.475226 279.914728 77.018441 
C 275.457942 72.561655 269.412395 70.057508 263.109549 70.057508 
C 256.806702 70.057508 250.761155 72.561655 246.30437 77.018441 
C 241.847584 81.475226 239.343436 87.520773 239.343436 93.82362 
C 239.343436 100.126466 241.847584 106.172013 246.30437 110.628799 
C 250.761155 115.085584 256.806702 117.589732 263.109549 117.589732 
z
" clip-path="url(#p9828042832)" style="fill: #c70039; fill-opacity: 0.99; stroke: #c70039; stroke-opacity: 0.99"/>
    <path d="M 177.851298 143.754668 
C 184.113185 143.754668 190.119445 141.266794 194.547267 136.838971 
C 198.97509 132.411148 201.462964 126.404889 201.462964 120.143002 
C 201.462964 113.881115 198.97509 107.874855 194.547267 103.447032 
C 190.119445 99.01921 184.113185 96.531335 177.851298 96.531335 
C 171.589411 96.531335 165.583152 99.01921 161.155329 103.447032 
C 156.727506 107.874855 154.239632 113.881115 154.239632 120.143002 
C 154.239632 126.404889 156.727506 132.411148 161.155329 136.838971 
C 165.583152 141.266794 171.589411 143.754668 177.851298 143.754668 
z
" clip-path="url(#p9828042832)" style="fill: #c70039; fill-opacity: 0.99; stroke: #c70039; stroke-opacity: 0.99"/>
    <path d="M 111.231477 200.712777 
C 117.484718 200.712777 123.482684 198.228338 127.904393 193.806629 
C 132.326101 189.38492 134.81054 183.386954 134.81054 177.133714 
C 134.81054 170.880473 132.326101 164.882507 127.904393 160.460798 
C 123.482684 156.039089 117.484718 153.55465 111.231477 153.55465 
C 104.978236 153.55465 98.98027 156.039089 94.558562 160.460798 
C 90.136853 164.882507 87.652414 170.880473 87.652414 177.133714 
C 87.652414 183.386954 90.136853 189.38492 94.558562 193.806629 
C 98.98027 198.228338 104.978236 200.712777 111.231477 200.712777 
z
" clip-path="url(#p9828042832)" style="fill: #c70039; fill-opacity: 0.99; stroke: #c70039; stroke-opacity: 0.99"/>
    <path d="M 74.769231 277.275498 
C 80.692258 277.275498 86.373491 274.922254 90.561703 270.734041 
C 94.749916 266.545828 97.10316 260.864596 97.10316 254.941569 
C 97.10316 249.018541 94.749916 243.337309 90.561703 239.149096 
C 86.373491 234.960883 80.692258 232.60764 74.769231 232.60764 
C 68.846204 232.60764 63.164971 234.960883 58.976758 239.149096 
C 54.788545 243.337309 52.435302 249.018541 52.435302 254.941569 
C 52.435302 260.864596 54.788545 266.545828 58.976758 270.734041 
C 63.164971 274.922254 68.846204 277.275498 74.769231 277.275498 
z
" clip-path="url(#p9828042832)" style="fill: #c70039; fill-opacity: 0.99; stroke: #c70039; stroke-opacity: 0.99"/>
    <path d="M 74.769244 362.168314 
C 80.618419 362.168314 86.228815 359.844412 90.364806 355.70842 
C 94.500798 351.572428 96.8247 345.962033 96.8247 340.112857 
C 96.8247 334.263682 94.500798 328.653286 90.364806 324.517294 
C 86.228815 320.381303 80.618419 318.057401 74.769244 318.057401 
C 68.920068 318.057401 63.309672 320.381303 59.173681 324.517294 
C 55.037689 328.653286 52.713787 334.263682 52.713787 340.112857 
C 52.713787 345.962033 55.037689 351.572428 59.173681 355.70842 
C 63.309672 359.844412 68.920068 362.168314 74.769244 362.168314 
z
" clip-path="url(#p9828042832)" style="fill: #c70039; fill-opacity: 0.99; stroke: #c70039; stroke-opacity: 0.99"/>
    <path d="M 111.23149 439.65716 
C 116.99607 439.65716 122.525324 437.366868 126.601497 433.290695 
C 130.677671 429.214521 132.967963 423.685268 132.967963 417.920688 
C 132.967963 412.156108 130.677671 406.626854 126.601497 402.55068 
C 122.525324 398.474507 116.99607 396.184215 111.23149 396.184215 
C 105.46691 396.184215 99.937656 398.474507 95.861483 402.55068 
C 91.785309 406.626854 89.495017 412.156108 89.495017 417.920688 
C 89.495017 423.685268 91.785309 429.214521 95.861483 433.290695 
C 99.937656 437.366868 105.46691 439.65716 111.23149 439.65716 
z
" clip-path="url(#p9828042832)" style="fill: #c70039; fill-opacity: 0.99; stroke: #c70039; stroke-opacity: 0.99"/>
    <path d="M 177.85133 496.524358 
C 183.583154 496.524358 189.080988 494.247081 193.134 490.194069 
C 197.187011 486.141058 199.464289 480.643223 199.464289 474.9114 
C 199.464289 469.179576 197.187011 463.681741 193.134 459.62873 
C 189.080988 455.575719 183.583154 453.298441 177.85133 453.298441 
C 172.119507 453.298441 166.621672 455.575719 162.568661 459.62873 
C 158.515649 463.681741 156.238372 469.179576 156.238372 474.9114 
C 156.238372 480.643223 158.515649 486.141058 162.568661 490.194069 
C 166.621672 494.247081 172.119507 496.524358 177.85133 496.524358 
z
" clip-path="url(#p9828042832)" style="fill: #c70039; fill-opacity: 0.99; stroke: #c70039; stroke-opacity: 0.99"/>
    <path d="M 263.109587 522.455616 
C 268.738482 522.455616 274.13759 520.219232 278.11782 516.239002 
C 282.09805 512.258772 284.334434 506.859664 284.334434 501.230769 
C 284.334434 495.601874 282.09805 490.202766 278.11782 486.222536 
C 274.13759 482.242306 268.738482 480.005922 263.109587 480.005922 
C 257.480692 480.005922 252.081584 482.242306 248.101354 486.222536 
C 244.121124 490.202766 241.88474 495.601874 241.88474 501.230769 
C 241.88474 506.859664 244.121124 512.258772 248.101354 516.239002 
C 252.081584 520.219232 257.480692 522.455616 263.109587 522.455616 
z
" clip-path="url(#p9828042832)" style="fill: #c70039; fill-opacity: 0.99; stroke: #c70039; stroke-opacity: 0.99"/>
    <path d="M 352.264323 512.054941 
C 357.495987 512.054941 362.514079 509.976379 366.213424 506.277034 
C 369.912768 502.57769 371.99133 497.559598 371.99133 492.327934 
C 371.99133 487.096271 369.912768 482.078179 366.213424 478.378834 
C 362.514079 474.679489 357.495987 472.600927 352.264323 472.600927 
C 347.03266 472.600927 342.014568 474.679489 338.315223 478.378834 
C 334.615878 482.078179 332.537317 487.096271 332.537317 492.327934 
C 332.537317 497.559598 334.615878 502.57769 338.315223 506.277034 
C 342.014568 509.976379 347.03266 512.054941 352.264323 512.054941 
z
" clip-path="url(#p9828042832)" style="fill: #c70039; fill-opacity: 0.99; stroke: #c70039; stroke-opacity: 0.99"/>
    <path d="M 429.899888 469.35216 
C 435.100492 469.35216 440.088792 467.285938 443.766173 463.608556 
C 447.443555 459.931175 449.509777 454.942875 449.509777 449.742272 
C 449.509777 444.541668 447.443555 439.553368 443.766173 435.875987 
C 440.088792 432.198605 435.100492 430.132383 429.899888 430.132383 
C 424.699285 430.132383 419.710985 432.198605 416.033604 435.875987 
C 412.356222 439.553368 410.29 444.541668 410.29 449.742272 
C 410.29 454.942875 412.356222 459.931175 416.033604 463.608556 
C 419.710985 467.285938 424.699285 469.35216 429.899888 469.35216 
z
" clip-path="url(#p9828042832)" style="fill: #c70039; fill-opacity: 0.99; stroke: #c70039; stroke-opacity: 0.99"/>
    <path d="M 482.592374 400.202168 
C 487.728009 400.202168 492.653994 398.161759 496.285437 394.530316 
C 499.91688 390.898873 501.95729 385.972888 501.95729 380.837252 
C 501.95729 375.701616 499.91688 370.775631 496.285437 367.144188 
C 492.653994 363.512745 487.728009 361.472335 482.592374 361.472335 
C 477.456738 361.472335 472.530753 363.512745 468.89931 367.144188 
C 465.267867 370.775631 463.227457 375.701616 463.227457 380.837252 
C 463.227457 385.972888 465.267867 390.898873 468.89931 394.530316 
C 472.530753 398.161759 477.456738 400.202168 482.592374 400.202168 
z
" clip-path="url(#p9828042832)" style="fill: #c70039; fill-opacity: 0.99; stroke: #c70039; stroke-opacity: 0.99"/>
   </g>
   <g id="text_1">
    <g id="patch_2">
     <path d="M 459.705613 305.842351 
L 542.755925 305.842351 
L 542.755925 289.212038 
L 459.705613 289.212038 
z
" clip-path="url(#p9828042832)" style="fill: #ffffff; opacity: 0.7; stroke: #000000; stroke-linejoin: miter"/>
    </g>
    <g clip-path="url(#p9828042832)">
     <!-- Henry Hathaway -->
     <g transform="translate(463.665613 300.010632)scale(0.09 -0.09)">
      <defs>
       <path id="DejaVuSans-48" d="M 628 4666 
L 1259 4666 
L 1259 2753 
L 3553 2753 
L 3553 4666 
L 4184 4666 
L 4184 0 
L 3553 0 
L 3553 2222 
L 1259 2222 
L 1259 0 
L 628 0 
L 628 4666 
z
" transform="scale(0.015625)"/>
       <path id="DejaVuSans-65" d="M 3597 1894 
L 3597 1613 
L 953 1613 
Q 991 1019 1311 708 
Q 1631 397 2203 397 
Q 2534 397 2845 478 
Q 3156 559 3463 722 
L 3463 178 
Q 3153 47 2828 -22 
Q 2503 -91 2169 -91 
Q 1331 -91 842 396 
Q 353 884 353 1716 
Q 353 2575 817 3079 
Q 1281 3584 2069 3584 
Q 2775 3584 3186 3129 
Q 3597 2675 3597 1894 
z
M 3022 2063 
Q 3016 2534 2758 2815 
Q 2500 3097 2075 3097 
Q 1594 3097 1305 2825 
Q 1016 2553 972 2059 
L 3022 2063 
z
" transform="scale(0.015625)"/>
       <path id="DejaVuSans-6e" d="M 3513 2113 
L 3513 0 
L 2938 0 
L 2938 2094 
Q 2938 2591 2744 2837 
Q 2550 3084 2163 3084 
Q 1697 3084 1428 2787 
Q 1159 2491 1159 1978 
L 1159 0 
L 581 0 
L 581 3500 
L 1159 3500 
L 1159 2956 
Q 1366 3272 1645 3428 
Q 1925 3584 2291 3584 
Q 2894 3584 3203 3211 
Q 3513 2838 3513 2113 
z
" transform="scale(0.015625)"/>
       <path id="DejaVuSans-72" d="M 2631 2963 
Q 2534 3019 2420 3045 
Q 2306 3072 2169 3072 
Q 1681 3072 1420 2755 
Q 1159 2438 1159 1844 
L 1159 0 
L 581 0 
L 581 3500 
L 1159 3500 
L 1159 2956 
Q 1341 3275 1631 3429 
Q 1922 3584 2338 3584 
Q 2397 3584 2469 3576 
Q 2541 3569 2628 3553 
L 2631 2963 
z
" transform="scale(0.015625)"/>
       <path id="DejaVuSans-79" d="M 2059 -325 
Q 1816 -950 1584 -1140 
Q 1353 -1331 966 -1331 
L 506 -1331 
L 506 -850 
L 844 -850 
Q 1081 -850 1212 -737 
Q 1344 -625 1503 -206 
L 1606 56 
L 191 3500 
L 800 3500 
L 1894 763 
L 2988 3500 
L 3597 3500 
L 2059 -325 
z
" transform="scale(0.015625)"/>
       <path id="DejaVuSans-20" transform="scale(0.015625)"/>
       <path id="DejaVuSans-61" d="M 2194 1759 
Q 1497 1759 1228 1600 
Q 959 1441 959 1056 
Q 959 750 1161 570 
Q 1363 391 1709 391 
Q 2188 391 2477 730 
Q 2766 1069 2766 1631 
L 2766 1759 
L 2194 1759 
z
M 3341 1997 
L 3341 0 
L 2766 0 
L 2766 531 
Q 2569 213 2275 61 
Q 1981 -91 1556 -91 
Q 1019 -91 701 211 
Q 384 513 384 1019 
Q 384 1609 779 1909 
Q 1175 2209 1959 2209 
L 2766 2209 
L 2766 2266 
Q 2766 2663 2505 2880 
Q 2244 3097 1772 3097 
Q 1472 3097 1187 3025 
Q 903 2953 641 2809 
L 641 3341 
Q 956 3463 1253 3523 
Q 1550 3584 1831 3584 
Q 2591 3584 2966 3190 
Q 3341 2797 3341 1997 
z
" transform="scale(0.015625)"/>
       <path id="DejaVuSans-74" d="M 1172 4494 
L 1172 3500 
L 2356 3500 
L 2356 3053 
L 1172 3053 
L 1172 1153 
Q 1172 725 1289 603 
Q 1406 481 1766 481 
L 2356 481 
L 2356 0 
L 1766 0 
Q 1100 0 847 248 
Q 594 497 594 1153 
L 594 3053 
L 172 3053 
L 172 3500 
L 594 3500 
L 594 4494 
L 1172 4494 
z
" transform="scale(0.015625)"/>
       <path id="DejaVuSans-68" d="M 3513 2113 
L 3513 0 
L 2938 0 
L 2938 2094 
Q 2938 2591 2744 2837 
Q 2550 3084 2163 3084 
Q 1697 3084 1428 2787 
Q 1159 2491 1159 1978 
L 1159 0 
L 581 0 
L 581 4863 
L 1159 4863 
L 1159 2956 
Q 1366 3272 1645 3428 
Q 1925 3584 2291 3584 
Q 2894 3584 3203 3211 
Q 3513 2838 3513 2113 
z
" transform="scale(0.015625)"/>
       <path id="DejaVuSans-77" d="M 269 3500 
L 844 3500 
L 1563 769 
L 2278 3500 
L 2956 3500 
L 3675 769 
L 4391 3500 
L 4966 3500 
L 4050 0 
L 3372 0 
L 2619 2869 
L 1863 0 
L 1184 0 
L 269 3500 
z
" transform="scale(0.015625)"/>
      </defs>
      <use xlink:href="#DejaVuSans-48"/>
      <use xlink:href="#DejaVuSans-65" x="75.195312"/>
      <use xlink:href="#DejaVuSans-6e" x="136.71875"/>
      <use xlink:href="#DejaVuSans-72" x="200.097656"/>
      <use xlink:href="#DejaVuSans-79" x="241.210938"/>
      <use xlink:href="#DejaVuSans-20" x="300.390625"/>
      <use xlink:href="#DejaVuSans-48" x="332.177734"/>
      <use xlink:href="#DejaVuSans-61" x="407.373047"/>
      <use xlink:href="#DejaVuSans-74" x="468.652344"/>
      <use xlink:href="#DejaVuSans-68" x="507.861328"/>
      <use xlink:href="#DejaVuSans-61" x="571.240234"/>
      <use xlink:href="#DejaVuSans-77" x="632.519531"/>
      <use xlink:href="#DejaVuSans-61" x="714.306641"/>
      <use xlink:href="#DejaVuSans-79" x="775.585938"/>
     </g>
    </g>
   </g>
   <g id="text_2">
    <g id="patch_3">
     <path d="M 444.371176 222.532263 
L 520.81352 222.532263 
L 520.81352 205.901951 
L 444.371176 205.901951 
z
" clip-path="url(#p9828042832)" style="fill: #ffffff; opacity: 0.7; stroke: #000000; stroke-linejoin: miter"/>
    </g>
    <g clip-path="url(#p9828042832)">
     <!-- Joseph Barbera -->
     <g transform="translate(448.331176 216.700544)scale(0.09 -0.09)">
      <defs>
       <path id="DejaVuSans-4a" d="M 628 4666 
L 1259 4666 
L 1259 325 
Q 1259 -519 939 -900 
Q 619 -1281 -91 -1281 
L -331 -1281 
L -331 -750 
L -134 -750 
Q 284 -750 456 -515 
Q 628 -281 628 325 
L 628 4666 
z
" transform="scale(0.015625)"/>
       <path id="DejaVuSans-6f" d="M 1959 3097 
Q 1497 3097 1228 2736 
Q 959 2375 959 1747 
Q 959 1119 1226 758 
Q 1494 397 1959 397 
Q 2419 397 2687 759 
Q 2956 1122 2956 1747 
Q 2956 2369 2687 2733 
Q 2419 3097 1959 3097 
z
M 1959 3584 
Q 2709 3584 3137 3096 
Q 3566 2609 3566 1747 
Q 3566 888 3137 398 
Q 2709 -91 1959 -91 
Q 1206 -91 779 398 
Q 353 888 353 1747 
Q 353 2609 779 3096 
Q 1206 3584 1959 3584 
z
" transform="scale(0.015625)"/>
       <path id="DejaVuSans-73" d="M 2834 3397 
L 2834 2853 
Q 2591 2978 2328 3040 
Q 2066 3103 1784 3103 
Q 1356 3103 1142 2972 
Q 928 2841 928 2578 
Q 928 2378 1081 2264 
Q 1234 2150 1697 2047 
L 1894 2003 
Q 2506 1872 2764 1633 
Q 3022 1394 3022 966 
Q 3022 478 2636 193 
Q 2250 -91 1575 -91 
Q 1294 -91 989 -36 
Q 684 19 347 128 
L 347 722 
Q 666 556 975 473 
Q 1284 391 1588 391 
Q 1994 391 2212 530 
Q 2431 669 2431 922 
Q 2431 1156 2273 1281 
Q 2116 1406 1581 1522 
L 1381 1569 
Q 847 1681 609 1914 
Q 372 2147 372 2553 
Q 372 3047 722 3315 
Q 1072 3584 1716 3584 
Q 2034 3584 2315 3537 
Q 2597 3491 2834 3397 
z
" transform="scale(0.015625)"/>
       <path id="DejaVuSans-70" d="M 1159 525 
L 1159 -1331 
L 581 -1331 
L 581 3500 
L 1159 3500 
L 1159 2969 
Q 1341 3281 1617 3432 
Q 1894 3584 2278 3584 
Q 2916 3584 3314 3078 
Q 3713 2572 3713 1747 
Q 3713 922 3314 415 
Q 2916 -91 2278 -91 
Q 1894 -91 1617 61 
Q 1341 213 1159 525 
z
M 3116 1747 
Q 3116 2381 2855 2742 
Q 2594 3103 2138 3103 
Q 1681 3103 1420 2742 
Q 1159 2381 1159 1747 
Q 1159 1113 1420 752 
Q 1681 391 2138 391 
Q 2594 391 2855 752 
Q 3116 1113 3116 1747 
z
" transform="scale(0.015625)"/>
       <path id="DejaVuSans-42" d="M 1259 2228 
L 1259 519 
L 2272 519 
Q 2781 519 3026 730 
Q 3272 941 3272 1375 
Q 3272 1813 3026 2020 
Q 2781 2228 2272 2228 
L 1259 2228 
z
M 1259 4147 
L 1259 2741 
L 2194 2741 
Q 2656 2741 2882 2914 
Q 3109 3088 3109 3444 
Q 3109 3797 2882 3972 
Q 2656 4147 2194 4147 
L 1259 4147 
z
M 628 4666 
L 2241 4666 
Q 2963 4666 3353 4366 
Q 3744 4066 3744 3513 
Q 3744 3084 3544 2831 
Q 3344 2578 2956 2516 
Q 3422 2416 3680 2098 
Q 3938 1781 3938 1306 
Q 3938 681 3513 340 
Q 3088 0 2303 0 
L 628 0 
L 628 4666 
z
" transform="scale(0.015625)"/>
       <path id="DejaVuSans-62" d="M 3116 1747 
Q 3116 2381 2855 2742 
Q 2594 3103 2138 3103 
Q 1681 3103 1420 2742 
Q 1159 2381 1159 1747 
Q 1159 1113 1420 752 
Q 1681 391 2138 391 
Q 2594 391 2855 752 
Q 3116 1113 3116 1747 
z
M 1159 2969 
Q 1341 3281 1617 3432 
Q 1894 3584 2278 3584 
Q 2916 3584 3314 3078 
Q 3713 2572 3713 1747 
Q 3713 922 3314 415 
Q 2916 -91 2278 -91 
Q 1894 -91 1617 61 
Q 1341 213 1159 525 
L 1159 0 
L 581 0 
L 581 4863 
L 1159 4863 
L 1159 2969 
z
" transform="scale(0.015625)"/>
      </defs>
      <use xlink:href="#DejaVuSans-4a"/>
      <use xlink:href="#DejaVuSans-6f" x="29.492188"/>
      <use xlink:href="#DejaVuSans-73" x="90.673828"/>
      <use xlink:href="#DejaVuSans-65" x="142.773438"/>
      <use xlink:href="#DejaVuSans-70" x="204.296875"/>
      <use xlink:href="#DejaVuSans-68" x="267.773438"/>
      <use xlink:href="#DejaVuSans-20" x="331.152344"/>
      <use xlink:href="#DejaVuSans-42" x="362.939453"/>
      <use xlink:href="#DejaVuSans-61" x="431.542969"/>
      <use xlink:href="#DejaVuSans-72" x="492.822266"/>
      <use xlink:href="#DejaVuSans-62" x="533.935547"/>
      <use xlink:href="#DejaVuSans-65" x="597.412109"/>
      <use xlink:href="#DejaVuSans-72" x="658.935547"/>
      <use xlink:href="#DejaVuSans-61" x="700.048828"/>
     </g>
    </g>
   </g>
   <g id="text_3">
    <g id="patch_4">
     <path d="M 393.416803 153.627237 
L 466.382897 153.627237 
L 466.382897 136.996925 
L 393.416803 136.996925 
z
" clip-path="url(#p9828042832)" style="fill: #ffffff; opacity: 0.7; stroke: #000000; stroke-linejoin: miter"/>
    </g>
    <g clip-path="url(#p9828042832)">
     <!-- William Hanna -->
     <g transform="translate(397.376803 147.795518)scale(0.09 -0.09)">
      <defs>
       <path id="DejaVuSans-57" d="M 213 4666 
L 850 4666 
L 1831 722 
L 2809 4666 
L 3519 4666 
L 4500 722 
L 5478 4666 
L 6119 4666 
L 4947 0 
L 4153 0 
L 3169 4050 
L 2175 0 
L 1381 0 
L 213 4666 
z
" transform="scale(0.015625)"/>
       <path id="DejaVuSans-69" d="M 603 3500 
L 1178 3500 
L 1178 0 
L 603 0 
L 603 3500 
z
M 603 4863 
L 1178 4863 
L 1178 4134 
L 603 4134 
L 603 4863 
z
" transform="scale(0.015625)"/>
       <path id="DejaVuSans-6c" d="M 603 4863 
L 1178 4863 
L 1178 0 
L 603 0 
L 603 4863 
z
" transform="scale(0.015625)"/>
       <path id="DejaVuSans-6d" d="M 3328 2828 
Q 3544 3216 3844 3400 
Q 4144 3584 4550 3584 
Q 5097 3584 5394 3201 
Q 5691 2819 5691 2113 
L 5691 0 
L 5113 0 
L 5113 2094 
Q 5113 2597 4934 2840 
Q 4756 3084 4391 3084 
Q 3944 3084 3684 2787 
Q 3425 2491 3425 1978 
L 3425 0 
L 2847 0 
L 2847 2094 
Q 2847 2600 2669 2842 
Q 2491 3084 2119 3084 
Q 1678 3084 1418 2786 
Q 1159 2488 1159 1978 
L 1159 0 
L 581 0 
L 581 3500 
L 1159 3500 
L 1159 2956 
Q 1356 3278 1631 3431 
Q 1906 3584 2284 3584 
Q 2666 3584 2933 3390 
Q 3200 3197 3328 2828 
z
" transform="scale(0.015625)"/>
      </defs>
      <use xlink:href="#DejaVuSans-57"/>
      <use xlink:href="#DejaVuSans-69" x="96.626953"/>
      <use xlink:href="#DejaVuSans-6c" x="124.410156"/>
      <use xlink:href="#DejaVuSans-6c" x="152.193359"/>
      <use xlink:href="#DejaVuSans-69" x="179.976562"/>
      <use xlink:href="#DejaVuSans-61" x="207.759766"/>
      <use xlink:href="#DejaVuSans-6d" x="269.039062"/>
      <use xlink:href="#DejaVuSans-20" x="366.451172"/>
      <use xlink:href="#DejaVuSans-48" x="398.238281"/>
      <use xlink:href="#DejaVuSans-61" x="473.433594"/>
      <use xlink:href="#DejaVuSans-6e" x="534.712891"/>
      <use xlink:href="#DejaVuSans-6e" x="598.091797"/>
      <use xlink:href="#DejaVuSans-61" x="661.470703"/>
     </g>
    </g>
   </g>
   <g id="text_4">
    <g id="patch_5">
     <path d="M 316.418276 111.041599 
L 388.110307 111.041599 
L 388.110307 94.411286 
L 316.418276 94.411286 
z
" clip-path="url(#p9828042832)" style="fill: #ffffff; opacity: 0.7; stroke: #000000; stroke-linejoin: miter"/>
    </g>
    <g clip-path="url(#p9828042832)">
     <!-- Michael Curtiz -->
     <g transform="translate(320.378276 105.20988)scale(0.09 -0.09)">
      <defs>
       <path id="DejaVuSans-4d" d="M 628 4666 
L 1569 4666 
L 2759 1491 
L 3956 4666 
L 4897 4666 
L 4897 0 
L 4281 0 
L 4281 4097 
L 3078 897 
L 2444 897 
L 1241 4097 
L 1241 0 
L 628 0 
L 628 4666 
z
" transform="scale(0.015625)"/>
       <path id="DejaVuSans-63" d="M 3122 3366 
L 3122 2828 
Q 2878 2963 2633 3030 
Q 2388 3097 2138 3097 
Q 1578 3097 1268 2742 
Q 959 2388 959 1747 
Q 959 1106 1268 751 
Q 1578 397 2138 397 
Q 2388 397 2633 464 
Q 2878 531 3122 666 
L 3122 134 
Q 2881 22 2623 -34 
Q 2366 -91 2075 -91 
Q 1284 -91 818 406 
Q 353 903 353 1747 
Q 353 2603 823 3093 
Q 1294 3584 2113 3584 
Q 2378 3584 2631 3529 
Q 2884 3475 3122 3366 
z
" transform="scale(0.015625)"/>
       <path id="DejaVuSans-43" d="M 4122 4306 
L 4122 3641 
Q 3803 3938 3442 4084 
Q 3081 4231 2675 4231 
Q 1875 4231 1450 3742 
Q 1025 3253 1025 2328 
Q 1025 1406 1450 917 
Q 1875 428 2675 428 
Q 3081 428 3442 575 
Q 3803 722 4122 1019 
L 4122 359 
Q 3791 134 3420 21 
Q 3050 -91 2638 -91 
Q 1578 -91 968 557 
Q 359 1206 359 2328 
Q 359 3453 968 4101 
Q 1578 4750 2638 4750 
Q 3056 4750 3426 4639 
Q 3797 4528 4122 4306 
z
" transform="scale(0.015625)"/>
       <path id="DejaVuSans-75" d="M 544 1381 
L 544 3500 
L 1119 3500 
L 1119 1403 
Q 1119 906 1312 657 
Q 1506 409 1894 409 
Q 2359 409 2629 706 
Q 2900 1003 2900 1516 
L 2900 3500 
L 3475 3500 
L 3475 0 
L 2900 0 
L 2900 538 
Q 2691 219 2414 64 
Q 2138 -91 1772 -91 
Q 1169 -91 856 284 
Q 544 659 544 1381 
z
M 1991 3584 
L 1991 3584 
z
" transform="scale(0.015625)"/>
       <path id="DejaVuSans-7a" d="M 353 3500 
L 3084 3500 
L 3084 2975 
L 922 459 
L 3084 459 
L 3084 0 
L 275 0 
L 275 525 
L 2438 3041 
L 353 3041 
L 353 3500 
z
" transform="scale(0.015625)"/>
      </defs>
      <use xlink:href="#DejaVuSans-4d"/>
      <use xlink:href="#DejaVuSans-69" x="86.279297"/>
      <use xlink:href="#DejaVuSans-63" x="114.0625"/>
      <use xlink:href="#DejaVuSans-68" x="169.042969"/>
      <use xlink:href="#DejaVuSans-61" x="232.421875"/>
      <use xlink:href="#DejaVuSans-65" x="293.701172"/>
      <use xlink:href="#DejaVuSans-6c" x="355.224609"/>
      <use xlink:href="#DejaVuSans-20" x="383.007812"/>
      <use xlink:href="#DejaVuSans-43" x="414.794922"/>
      <use xlink:href="#DejaVuSans-75" x="484.619141"/>
      <use xlink:href="#DejaVuSans-72" x="547.998047"/>
      <use xlink:href="#DejaVuSans-74" x="589.111328"/>
      <use xlink:href="#DejaVuSans-69" x="628.320312"/>
      <use xlink:href="#DejaVuSans-7a" x="656.103516"/>
     </g>
    </g>
   </g>
   <g id="text_5">
    <g id="patch_6">
     <path d="M 219.910955 102.138776 
L 306.308142 102.138776 
L 306.308142 85.508464 
L 219.910955 85.508464 
z
" clip-path="url(#p9828042832)" style="fill: #ffffff; opacity: 0.7; stroke: #000000; stroke-linejoin: miter"/>
    </g>
    <g clip-path="url(#p9828042832)">
     <!-- Robert McKimson -->
     <g transform="translate(223.870955 96.307057)scale(0.09 -0.09)">
      <defs>
       <path id="DejaVuSans-52" d="M 2841 2188 
Q 3044 2119 3236 1894 
Q 3428 1669 3622 1275 
L 4263 0 
L 3584 0 
L 2988 1197 
Q 2756 1666 2539 1819 
Q 2322 1972 1947 1972 
L 1259 1972 
L 1259 0 
L 628 0 
L 628 4666 
L 2053 4666 
Q 2853 4666 3247 4331 
Q 3641 3997 3641 3322 
Q 3641 2881 3436 2590 
Q 3231 2300 2841 2188 
z
M 1259 4147 
L 1259 2491 
L 2053 2491 
Q 2509 2491 2742 2702 
Q 2975 2913 2975 3322 
Q 2975 3731 2742 3939 
Q 2509 4147 2053 4147 
L 1259 4147 
z
" transform="scale(0.015625)"/>
       <path id="DejaVuSans-4b" d="M 628 4666 
L 1259 4666 
L 1259 2694 
L 3353 4666 
L 4166 4666 
L 1850 2491 
L 4331 0 
L 3500 0 
L 1259 2247 
L 1259 0 
L 628 0 
L 628 4666 
z
" transform="scale(0.015625)"/>
      </defs>
      <use xlink:href="#DejaVuSans-52"/>
      <use xlink:href="#DejaVuSans-6f" x="64.982422"/>
      <use xlink:href="#DejaVuSans-62" x="126.164062"/>
      <use xlink:href="#DejaVuSans-65" x="189.640625"/>
      <use xlink:href="#DejaVuSans-72" x="251.164062"/>
      <use xlink:href="#DejaVuSans-74" x="292.277344"/>
      <use xlink:href="#DejaVuSans-20" x="331.486328"/>
      <use xlink:href="#DejaVuSans-4d" x="363.273438"/>
      <use xlink:href="#DejaVuSans-63" x="449.552734"/>
      <use xlink:href="#DejaVuSans-4b" x="504.533203"/>
      <use xlink:href="#DejaVuSans-69" x="570.109375"/>
      <use xlink:href="#DejaVuSans-6d" x="597.892578"/>
      <use xlink:href="#DejaVuSans-73" x="695.304688"/>
      <use xlink:href="#DejaVuSans-6f" x="747.404297"/>
      <use xlink:href="#DejaVuSans-6e" x="808.585938"/>
     </g>
    </g>
   </g>
   <g id="text_6">
    <g id="patch_7">
     <path d="M 146.489111 128.458158 
L 209.213486 128.458158 
L 209.213486 111.827845 
L 146.489111 111.827845 
z
" clip-path="url(#p9828042832)" style="fill: #ffffff; opacity: 0.7; stroke: #000000; stroke-linejoin: miter"/>
    </g>
    <g clip-path="url(#p9828042832)">
     <!-- Chuck Jones -->
     <g transform="translate(150.449111 122.626439)scale(0.09 -0.09)">
      <defs>
       <path id="DejaVuSans-6b" d="M 581 4863 
L 1159 4863 
L 1159 1991 
L 2875 3500 
L 3609 3500 
L 1753 1863 
L 3688 0 
L 2938 0 
L 1159 1709 
L 1159 0 
L 581 0 
L 581 4863 
z
" transform="scale(0.015625)"/>
      </defs>
      <use xlink:href="#DejaVuSans-43"/>
      <use xlink:href="#DejaVuSans-68" x="69.824219"/>
      <use xlink:href="#DejaVuSans-75" x="133.203125"/>
      <use xlink:href="#DejaVuSans-63" x="196.582031"/>
      <use xlink:href="#DejaVuSans-6b" x="251.5625"/>
      <use xlink:href="#DejaVuSans-20" x="309.472656"/>
      <use xlink:href="#DejaVuSans-4a" x="341.259766"/>
      <use xlink:href="#DejaVuSans-6f" x="370.751953"/>
      <use xlink:href="#DejaVuSans-6e" x="431.933594"/>
      <use xlink:href="#DejaVuSans-65" x="495.3125"/>
      <use xlink:href="#DejaVuSans-73" x="556.835938"/>
     </g>
    </g>
   </g>
   <g id="text_7">
    <g id="patch_8">
     <path d="M 71.91554 185.44887 
L 150.547415 185.44887 
L 150.547415 168.818557 
L 71.91554 168.818557 
z
" clip-path="url(#p9828042832)" style="fill: #ffffff; opacity: 0.7; stroke: #000000; stroke-linejoin: miter"/>
    </g>
    <g clip-path="url(#p9828042832)">
     <!-- Charles Chaplin -->
     <g transform="translate(75.87554 179.617151)scale(0.09 -0.09)">
      <use xlink:href="#DejaVuSans-43"/>
      <use xlink:href="#DejaVuSans-68" x="69.824219"/>
      <use xlink:href="#DejaVuSans-61" x="133.203125"/>
      <use xlink:href="#DejaVuSans-72" x="194.482422"/>
      <use xlink:href="#DejaVuSans-6c" x="235.595703"/>
      <use xlink:href="#DejaVuSans-65" x="263.378906"/>
      <use xlink:href="#DejaVuSans-73" x="324.902344"/>
      <use xlink:href="#DejaVuSans-20" x="377.001953"/>
      <use xlink:href="#DejaVuSans-43" x="408.789062"/>
      <use xlink:href="#DejaVuSans-68" x="478.613281"/>
      <use xlink:href="#DejaVuSans-61" x="541.992188"/>
      <use xlink:href="#DejaVuSans-70" x="603.271484"/>
      <use xlink:href="#DejaVuSans-6c" x="666.748047"/>
      <use xlink:href="#DejaVuSans-69" x="694.53125"/>
      <use xlink:href="#DejaVuSans-6e" x="722.314453"/>
     </g>
    </g>
   </g>
   <g id="text_8">
    <g id="patch_9">
     <path d="M 39.98634 263.256725 
L 109.552121 263.256725 
L 109.552121 246.626412 
L 39.98634 246.626412 
z
" clip-path="url(#p9828042832)" style="fill: #ffffff; opacity: 0.7; stroke: #000000; stroke-linejoin: miter"/>
    </g>
    <g clip-path="url(#p9828042832)">
     <!-- William Wyler -->
     <g transform="translate(43.94634 257.425006)scale(0.09 -0.09)">
      <use xlink:href="#DejaVuSans-57"/>
      <use xlink:href="#DejaVuSans-69" x="96.626953"/>
      <use xlink:href="#DejaVuSans-6c" x="124.410156"/>
      <use xlink:href="#DejaVuSans-6c" x="152.193359"/>
      <use xlink:href="#DejaVuSans-69" x="179.976562"/>
      <use xlink:href="#DejaVuSans-61" x="207.759766"/>
      <use xlink:href="#DejaVuSans-6d" x="269.039062"/>
      <use xlink:href="#DejaVuSans-20" x="366.451172"/>
      <use xlink:href="#DejaVuSans-57" x="398.238281"/>
      <use xlink:href="#DejaVuSans-79" x="495.365234"/>
      <use xlink:href="#DejaVuSans-6c" x="554.544922"/>
      <use xlink:href="#DejaVuSans-65" x="582.328125"/>
      <use xlink:href="#DejaVuSans-72" x="643.851562"/>
     </g>
    </g>
   </g>
   <g id="text_9">
    <g id="patch_10">
     <path d="M 38.617369 348.428013 
L 110.921119 348.428013 
L 110.921119 331.797701 
L 38.617369 331.797701 
z
" clip-path="url(#p9828042832)" style="fill: #ffffff; opacity: 0.7; stroke: #000000; stroke-linejoin: miter"/>
    </g>
    <g clip-path="url(#p9828042832)">
     <!-- John Cromwell -->
     <g transform="translate(42.577369 342.596295)scale(0.09 -0.09)">
      <use xlink:href="#DejaVuSans-4a"/>
      <use xlink:href="#DejaVuSans-6f" x="29.492188"/>
      <use xlink:href="#DejaVuSans-68" x="90.673828"/>
      <use xlink:href="#DejaVuSans-6e" x="154.052734"/>
      <use xlink:href="#DejaVuSans-20" x="217.431641"/>
      <use xlink:href="#DejaVuSans-43" x="249.21875"/>
      <use xlink:href="#DejaVuSans-72" x="319.042969"/>
      <use xlink:href="#DejaVuSans-6f" x="357.90625"/>
      <use xlink:href="#DejaVuSans-6d" x="419.087891"/>
      <use xlink:href="#DejaVuSans-77" x="516.5"/>
      <use xlink:href="#DejaVuSans-65" x="598.287109"/>
      <use xlink:href="#DejaVuSans-6c" x="659.810547"/>
      <use xlink:href="#DejaVuSans-6c" x="687.59375"/>
     </g>
    </g>
   </g>
   <g id="text_10">
    <g id="patch_11">
     <path d="M 75.622427 426.235844 
L 146.840552 426.235844 
L 146.840552 409.605531 
L 75.622427 409.605531 
z
" clip-path="url(#p9828042832)" style="fill: #ffffff; opacity: 0.7; stroke: #000000; stroke-linejoin: miter"/>
    </g>
    <g clip-path="url(#p9828042832)">
     <!-- Mervyn LeRoy -->
     <g transform="translate(79.582427 420.404125)scale(0.09 -0.09)">
      <defs>
       <path id="DejaVuSans-76" d="M 191 3500 
L 800 3500 
L 1894 563 
L 2988 3500 
L 3597 3500 
L 2284 0 
L 1503 0 
L 191 3500 
z
" transform="scale(0.015625)"/>
       <path id="DejaVuSans-4c" d="M 628 4666 
L 1259 4666 
L 1259 531 
L 3531 531 
L 3531 0 
L 628 0 
L 628 4666 
z
" transform="scale(0.015625)"/>
      </defs>
      <use xlink:href="#DejaVuSans-4d"/>
      <use xlink:href="#DejaVuSans-65" x="86.279297"/>
      <use xlink:href="#DejaVuSans-72" x="147.802734"/>
      <use xlink:href="#DejaVuSans-76" x="188.916016"/>
      <use xlink:href="#DejaVuSans-79" x="248.095703"/>
      <use xlink:href="#DejaVuSans-6e" x="307.275391"/>
      <use xlink:href="#DejaVuSans-20" x="370.654297"/>
      <use xlink:href="#DejaVuSans-4c" x="402.441406"/>
      <use xlink:href="#DejaVuSans-65" x="456.404297"/>
      <use xlink:href="#DejaVuSans-52" x="517.927734"/>
      <use xlink:href="#DejaVuSans-6f" x="582.910156"/>
      <use xlink:href="#DejaVuSans-79" x="644.091797"/>
     </g>
    </g>
   </g>
   <g id="text_11">
    <g id="patch_12">
     <path d="M 148.23008 483.226556 
L 207.47258 483.226556 
L 207.47258 466.596243 
L 148.23008 466.596243 
z
" clip-path="url(#p9828042832)" style="fill: #ffffff; opacity: 0.7; stroke: #000000; stroke-linejoin: miter"/>
    </g>
    <g clip-path="url(#p9828042832)">
     <!-- Friz Freleng -->
     <g transform="translate(152.19008 477.394837)scale(0.09 -0.09)">
      <defs>
       <path id="DejaVuSans-46" d="M 628 4666 
L 3309 4666 
L 3309 4134 
L 1259 4134 
L 1259 2759 
L 3109 2759 
L 3109 2228 
L 1259 2228 
L 1259 0 
L 628 0 
L 628 4666 
z
" transform="scale(0.015625)"/>
       <path id="DejaVuSans-67" d="M 2906 1791 
Q 2906 2416 2648 2759 
Q 2391 3103 1925 3103 
Q 1463 3103 1205 2759 
Q 947 2416 947 1791 
Q 947 1169 1205 825 
Q 1463 481 1925 481 
Q 2391 481 2648 825 
Q 2906 1169 2906 1791 
z
M 3481 434 
Q 3481 -459 3084 -895 
Q 2688 -1331 1869 -1331 
Q 1566 -1331 1297 -1286 
Q 1028 -1241 775 -1147 
L 775 -588 
Q 1028 -725 1275 -790 
Q 1522 -856 1778 -856 
Q 2344 -856 2625 -561 
Q 2906 -266 2906 331 
L 2906 616 
Q 2728 306 2450 153 
Q 2172 0 1784 0 
Q 1141 0 747 490 
Q 353 981 353 1791 
Q 353 2603 747 3093 
Q 1141 3584 1784 3584 
Q 2172 3584 2450 3431 
Q 2728 3278 2906 2969 
L 2906 3500 
L 3481 3500 
L 3481 434 
z
" transform="scale(0.015625)"/>
      </defs>
      <use xlink:href="#DejaVuSans-46"/>
      <use xlink:href="#DejaVuSans-72" x="50.269531"/>
      <use xlink:href="#DejaVuSans-69" x="91.382812"/>
      <use xlink:href="#DejaVuSans-7a" x="119.166016"/>
      <use xlink:href="#DejaVuSans-20" x="171.65625"/>
      <use xlink:href="#DejaVuSans-46" x="203.443359"/>
      <use xlink:href="#DejaVuSans-72" x="253.712891"/>
      <use xlink:href="#DejaVuSans-65" x="292.576172"/>
      <use xlink:href="#DejaVuSans-6c" x="354.099609"/>
      <use xlink:href="#DejaVuSans-65" x="381.882812"/>
      <use xlink:href="#DejaVuSans-6e" x="443.40625"/>
      <use xlink:href="#DejaVuSans-67" x="506.785156"/>
     </g>
    </g>
   </g>
   <g id="text_12">
    <g id="patch_13">
     <path d="M 231.985056 509.545925 
L 294.234118 509.545925 
L 294.234118 492.915613 
L 231.985056 492.915613 
z
" clip-path="url(#p9828042832)" style="fill: #ffffff; opacity: 0.7; stroke: #000000; stroke-linejoin: miter"/>
    </g>
    <g clip-path="url(#p9828042832)">
     <!-- John Huston -->
     <g transform="translate(235.945056 503.714207)scale(0.09 -0.09)">
      <use xlink:href="#DejaVuSans-4a"/>
      <use xlink:href="#DejaVuSans-6f" x="29.492188"/>
      <use xlink:href="#DejaVuSans-68" x="90.673828"/>
      <use xlink:href="#DejaVuSans-6e" x="154.052734"/>
      <use xlink:href="#DejaVuSans-20" x="217.431641"/>
      <use xlink:href="#DejaVuSans-48" x="249.21875"/>
      <use xlink:href="#DejaVuSans-75" x="324.414062"/>
      <use xlink:href="#DejaVuSans-73" x="387.792969"/>
      <use xlink:href="#DejaVuSans-74" x="439.892578"/>
      <use xlink:href="#DejaVuSans-6f" x="479.101562"/>
      <use xlink:href="#DejaVuSans-6e" x="540.283203"/>
     </g>
    </g>
   </g>
   <g id="text_13">
    <g id="patch_14">
     <path d="M 303.431589 500.64309 
L 401.097058 500.64309 
L 401.097058 484.012778 
L 303.431589 484.012778 
z
" clip-path="url(#p9828042832)" style="fill: #ffffff; opacity: 0.7; stroke: #000000; stroke-linejoin: miter"/>
    </g>
    <g clip-path="url(#p9828042832)">
     <!-- John Frankenheimer -->
     <g transform="translate(307.391589 494.811372)scale(0.09 -0.09)">
      <use xlink:href="#DejaVuSans-4a"/>
      <use xlink:href="#DejaVuSans-6f" x="29.492188"/>
      <use xlink:href="#DejaVuSans-68" x="90.673828"/>
      <use xlink:href="#DejaVuSans-6e" x="154.052734"/>
      <use xlink:href="#DejaVuSans-20" x="217.431641"/>
      <use xlink:href="#DejaVuSans-46" x="249.21875"/>
      <use xlink:href="#DejaVuSans-72" x="299.488281"/>
      <use xlink:href="#DejaVuSans-61" x="340.601562"/>
      <use xlink:href="#DejaVuSans-6e" x="401.880859"/>
      <use xlink:href="#DejaVuSans-6b" x="465.259766"/>
      <use xlink:href="#DejaVuSans-65" x="519.544922"/>
      <use xlink:href="#DejaVuSans-6e" x="581.068359"/>
      <use xlink:href="#DejaVuSans-68" x="644.447266"/>
      <use xlink:href="#DejaVuSans-65" x="707.826172"/>
      <use xlink:href="#DejaVuSans-69" x="769.349609"/>
      <use xlink:href="#DejaVuSans-6d" x="797.132812"/>
      <use xlink:href="#DejaVuSans-65" x="894.544922"/>
      <use xlink:href="#DejaVuSans-72" x="956.068359"/>
     </g>
    </g>
   </g>
   <g id="text_14">
    <g id="patch_15">
     <path d="M 378.355904 458.057428 
L 481.443873 458.057428 
L 481.443873 441.427115 
L 378.355904 441.427115 
z
" clip-path="url(#p9828042832)" style="fill: #ffffff; opacity: 0.7; stroke: #000000; stroke-linejoin: miter"/>
    </g>
    <g clip-path="url(#p9828042832)">
     <!-- Joseph L. Mankiewicz -->
     <g transform="translate(382.315904 452.225709)scale(0.09 -0.09)">
      <defs>
       <path id="DejaVuSans-2e" d="M 684 794 
L 1344 794 
L 1344 0 
L 684 0 
L 684 794 
z
" transform="scale(0.015625)"/>
      </defs>
      <use xlink:href="#DejaVuSans-4a"/>
      <use xlink:href="#DejaVuSans-6f" x="29.492188"/>
      <use xlink:href="#DejaVuSans-73" x="90.673828"/>
      <use xlink:href="#DejaVuSans-65" x="142.773438"/>
      <use xlink:href="#DejaVuSans-70" x="204.296875"/>
      <use xlink:href="#DejaVuSans-68" x="267.773438"/>
      <use xlink:href="#DejaVuSans-20" x="331.152344"/>
      <use xlink:href="#DejaVuSans-4c" x="362.939453"/>
      <use xlink:href="#DejaVuSans-2e" x="418.652344"/>
      <use xlink:href="#DejaVuSans-20" x="450.439453"/>
      <use xlink:href="#DejaVuSans-4d" x="482.226562"/>
      <use xlink:href="#DejaVuSans-61" x="568.505859"/>
      <use xlink:href="#DejaVuSans-6e" x="629.785156"/>
      <use xlink:href="#DejaVuSans-6b" x="693.164062"/>
      <use xlink:href="#DejaVuSans-69" x="751.074219"/>
      <use xlink:href="#DejaVuSans-65" x="778.857422"/>
      <use xlink:href="#DejaVuSans-77" x="840.380859"/>
      <use xlink:href="#DejaVuSans-69" x="922.167969"/>
      <use xlink:href="#DejaVuSans-63" x="949.951172"/>
      <use xlink:href="#DejaVuSans-7a" x="1004.931641"/>
     </g>
    </g>
   </g>
   <g id="text_15">
    <g id="patch_16">
     <path d="M 456.326436 389.152408 
L 508.858311 389.152408 
L 508.858311 372.522095 
L 456.326436 372.522095 
z
" clip-path="url(#p9828042832)" style="fill: #ffffff; opacity: 0.7; stroke: #000000; stroke-linejoin: miter"/>
    </g>
    <g clip-path="url(#p9828042832)">
     <!-- Don Bluth -->
     <g transform="translate(460.286436 383.320689)scale(0.09 -0.09)">
      <defs>
       <path id="DejaVuSans-44" d="M 1259 4147 
L 1259 519 
L 2022 519 
Q 2988 519 3436 956 
Q 3884 1394 3884 2338 
Q 3884 3275 3436 3711 
Q 2988 4147 2022 4147 
L 1259 4147 
z
M 628 4666 
L 1925 4666 
Q 3281 4666 3915 4102 
Q 4550 3538 4550 2338 
Q 4550 1131 3912 565 
Q 3275 0 1925 0 
L 628 0 
L 628 4666 
z
" transform="scale(0.015625)"/>
      </defs>
      <use xlink:href="#DejaVuSans-44"/>
      <use xlink:href="#DejaVuSans-6f" x="77.001953"/>
      <use xlink:href="#DejaVuSans-6e" x="138.183594"/>
      <use xlink:href="#DejaVuSans-20" x="201.5625"/>
      <use xlink:href="#DejaVuSans-42" x="233.349609"/>
      <use xlink:href="#DejaVuSans-6c" x="301.953125"/>
      <use xlink:href="#DejaVuSans-75" x="329.736328"/>
      <use xlink:href="#DejaVuSans-74" x="393.115234"/>
      <use xlink:href="#DejaVuSans-68" x="432.324219"/>
     </g>
    </g>
   </g>
   <g id="text_16">
    <!-- Impactful directors for Black-and-white genre - Importance rank: 6 -->
    <g transform="translate(88.341563 4.8)scale(0.12 -0.12)">
     <defs>
      <path id="DejaVuSans-49" d="M 628 4666 
L 1259 4666 
L 1259 0 
L 628 0 
L 628 4666 
z
" transform="scale(0.015625)"/>
      <path id="DejaVuSans-66" d="M 2375 4863 
L 2375 4384 
L 1825 4384 
Q 1516 4384 1395 4259 
Q 1275 4134 1275 3809 
L 1275 3500 
L 2222 3500 
L 2222 3053 
L 1275 3053 
L 1275 0 
L 697 0 
L 697 3053 
L 147 3053 
L 147 3500 
L 697 3500 
L 697 3744 
Q 697 4328 969 4595 
Q 1241 4863 1831 4863 
L 2375 4863 
z
" transform="scale(0.015625)"/>
      <path id="DejaVuSans-64" d="M 2906 2969 
L 2906 4863 
L 3481 4863 
L 3481 0 
L 2906 0 
L 2906 525 
Q 2725 213 2448 61 
Q 2172 -91 1784 -91 
Q 1150 -91 751 415 
Q 353 922 353 1747 
Q 353 2572 751 3078 
Q 1150 3584 1784 3584 
Q 2172 3584 2448 3432 
Q 2725 3281 2906 2969 
z
M 947 1747 
Q 947 1113 1208 752 
Q 1469 391 1925 391 
Q 2381 391 2643 752 
Q 2906 1113 2906 1747 
Q 2906 2381 2643 2742 
Q 2381 3103 1925 3103 
Q 1469 3103 1208 2742 
Q 947 2381 947 1747 
z
" transform="scale(0.015625)"/>
      <path id="DejaVuSans-2d" d="M 313 2009 
L 1997 2009 
L 1997 1497 
L 313 1497 
L 313 2009 
z
" transform="scale(0.015625)"/>
      <path id="DejaVuSans-3a" d="M 750 794 
L 1409 794 
L 1409 0 
L 750 0 
L 750 794 
z
M 750 3309 
L 1409 3309 
L 1409 2516 
L 750 2516 
L 750 3309 
z
" transform="scale(0.015625)"/>
      <path id="DejaVuSans-36" d="M 2113 2584 
Q 1688 2584 1439 2293 
Q 1191 2003 1191 1497 
Q 1191 994 1439 701 
Q 1688 409 2113 409 
Q 2538 409 2786 701 
Q 3034 994 3034 1497 
Q 3034 2003 2786 2293 
Q 2538 2584 2113 2584 
z
M 3366 4563 
L 3366 3988 
Q 3128 4100 2886 4159 
Q 2644 4219 2406 4219 
Q 1781 4219 1451 3797 
Q 1122 3375 1075 2522 
Q 1259 2794 1537 2939 
Q 1816 3084 2150 3084 
Q 2853 3084 3261 2657 
Q 3669 2231 3669 1497 
Q 3669 778 3244 343 
Q 2819 -91 2113 -91 
Q 1303 -91 875 529 
Q 447 1150 447 2328 
Q 447 3434 972 4092 
Q 1497 4750 2381 4750 
Q 2619 4750 2861 4703 
Q 3103 4656 3366 4563 
z
" transform="scale(0.015625)"/>
     </defs>
     <use xlink:href="#DejaVuSans-49"/>
     <use xlink:href="#DejaVuSans-6d" x="29.492188"/>
     <use xlink:href="#DejaVuSans-70" x="126.904297"/>
     <use xlink:href="#DejaVuSans-61" x="190.380859"/>
     <use xlink:href="#DejaVuSans-63" x="251.660156"/>
     <use xlink:href="#DejaVuSans-74" x="306.640625"/>
     <use xlink:href="#DejaVuSans-66" x="345.849609"/>
     <use xlink:href="#DejaVuSans-75" x="381.054688"/>
     <use xlink:href="#DejaVuSans-6c" x="444.433594"/>
     <use xlink:href="#DejaVuSans-20" x="472.216797"/>
     <use xlink:href="#DejaVuSans-64" x="504.003906"/>
     <use xlink:href="#DejaVuSans-69" x="567.480469"/>
     <use xlink:href="#DejaVuSans-72" x="595.263672"/>
     <use xlink:href="#DejaVuSans-65" x="634.126953"/>
     <use xlink:href="#DejaVuSans-63" x="695.650391"/>
     <use xlink:href="#DejaVuSans-74" x="750.630859"/>
     <use xlink:href="#DejaVuSans-6f" x="789.839844"/>
     <use xlink:href="#DejaVuSans-72" x="851.021484"/>
     <use xlink:href="#DejaVuSans-73" x="892.134766"/>
     <use xlink:href="#DejaVuSans-20" x="944.234375"/>
     <use xlink:href="#DejaVuSans-66" x="976.021484"/>
     <use xlink:href="#DejaVuSans-6f" x="1011.226562"/>
     <use xlink:href="#DejaVuSans-72" x="1072.408203"/>
     <use xlink:href="#DejaVuSans-20" x="1113.521484"/>
     <use xlink:href="#DejaVuSans-42" x="1145.308594"/>
     <use xlink:href="#DejaVuSans-6c" x="1213.912109"/>
     <use xlink:href="#DejaVuSans-61" x="1241.695312"/>
     <use xlink:href="#DejaVuSans-63" x="1302.974609"/>
     <use xlink:href="#DejaVuSans-6b" x="1357.955078"/>
     <use xlink:href="#DejaVuSans-2d" x="1415.865234"/>
     <use xlink:href="#DejaVuSans-61" x="1451.949219"/>
     <use xlink:href="#DejaVuSans-6e" x="1513.228516"/>
     <use xlink:href="#DejaVuSans-64" x="1576.607422"/>
     <use xlink:href="#DejaVuSans-2d" x="1640.083984"/>
     <use xlink:href="#DejaVuSans-77" x="1676.167969"/>
     <use xlink:href="#DejaVuSans-68" x="1757.955078"/>
     <use xlink:href="#DejaVuSans-69" x="1821.333984"/>
     <use xlink:href="#DejaVuSans-74" x="1849.117188"/>
     <use xlink:href="#DejaVuSans-65" x="1888.326172"/>
     <use xlink:href="#DejaVuSans-20" x="1949.849609"/>
     <use xlink:href="#DejaVuSans-67" x="1981.636719"/>
     <use xlink:href="#DejaVuSans-65" x="2045.113281"/>
     <use xlink:href="#DejaVuSans-6e" x="2106.636719"/>
     <use xlink:href="#DejaVuSans-72" x="2170.015625"/>
     <use xlink:href="#DejaVuSans-65" x="2208.878906"/>
     <use xlink:href="#DejaVuSans-20" x="2270.402344"/>
     <use xlink:href="#DejaVuSans-2d" x="2302.189453"/>
     <use xlink:href="#DejaVuSans-20" x="2338.273438"/>
     <use xlink:href="#DejaVuSans-49" x="2370.060547"/>
     <use xlink:href="#DejaVuSans-6d" x="2399.552734"/>
     <use xlink:href="#DejaVuSans-70" x="2496.964844"/>
     <use xlink:href="#DejaVuSans-6f" x="2560.441406"/>
     <use xlink:href="#DejaVuSans-72" x="2621.623047"/>
     <use xlink:href="#DejaVuSans-74" x="2662.736328"/>
     <use xlink:href="#DejaVuSans-61" x="2701.945312"/>
     <use xlink:href="#DejaVuSans-6e" x="2763.224609"/>
     <use xlink:href="#DejaVuSans-63" x="2826.603516"/>
     <use xlink:href="#DejaVuSans-65" x="2881.583984"/>
     <use xlink:href="#DejaVuSans-20" x="2943.107422"/>
     <use xlink:href="#DejaVuSans-72" x="2974.894531"/>
     <use xlink:href="#DejaVuSans-61" x="3016.007812"/>
     <use xlink:href="#DejaVuSans-6e" x="3077.287109"/>
     <use xlink:href="#DejaVuSans-6b" x="3140.666016"/>
     <use xlink:href="#DejaVuSans-3a" x="3198.576172"/>
     <use xlink:href="#DejaVuSans-20" x="3232.267578"/>
     <use xlink:href="#DejaVuSans-36" x="3264.054688"/>
    </g>
   </g>
  </g>
 </g>
 <defs>
  <clipPath id="p9828042832">
   <rect x="10.8" y="10.8" width="554.4" height="554.4"/>
  </clipPath>
 </defs>
</svg>
