<?xml version="1.0" encoding="utf-8" standalone="no"?>
<!DOCTYPE svg PUBLIC "-//W3C//DTD SVG 1.1//EN"
  "http://www.w3.org/Graphics/SVG/1.1/DTD/svg11.dtd">
<svg xmlns:xlink="http://www.w3.org/1999/xlink" width="568.8pt" height="583.918125pt" viewBox="0 0 568.8 583.918125" xmlns="http://www.w3.org/2000/svg" version="1.1">
 <metadata>
  <rdf:RDF xmlns:dc="http://purl.org/dc/elements/1.1/" xmlns:cc="http://creativecommons.org/ns#" xmlns:rdf="http://www.w3.org/1999/02/22-rdf-syntax-ns#">
   <cc:Work>
    <dc:type rdf:resource="http://purl.org/dc/dcmitype/StillImage"/>
    <dc:date>2022-12-23T20:56:43.294976</dc:date>
    <dc:format>image/svg+xml</dc:format>
    <dc:creator>
     <cc:Agent>
      <dc:title>Matplotlib v3.5.3, https://matplotlib.org/</dc:title>
     </cc:Agent>
    </dc:creator>
   </cc:Work>
  </rdf:RDF>
 </metadata>
 <defs>
  <style type="text/css">*{stroke-linejoin: round; stroke-linecap: butt}</style>
 </defs>
 <g id="figure_1">
  <g id="patch_1">
   <path d="M 0 583.918125 
L 568.8 583.918125 
L 568.8 0 
L 0 0 
z
" style="fill: #ffffff"/>
  </g>
  <g id="axes_1">
   <g id="LineCollection_1">
    <path d="M 490.3103 299.955412 
L 471.991819 212.927761 
" clip-path="url(#p92749f9f1b)" style="fill: none; stroke: #000000; stroke-opacity: 0.3; stroke-width: 10"/>
    <path d="M 420.203819 140.947971 
L 343.900922 96.462025 
" clip-path="url(#p92749f9f1b)" style="fill: none; stroke: #000000; stroke-opacity: 0.3; stroke-width: 5"/>
   </g>
   <g id="PathCollection_1">
    <path d="M 490.3103 327.34154 
C 497.573186 327.34154 504.539581 324.455965 509.675217 319.320329 
C 514.810853 314.184693 517.696428 307.218298 517.696428 299.955412 
C 517.696428 292.692526 514.810853 285.726131 509.675217 280.590495 
C 504.539581 275.454859 497.573186 272.569284 490.3103 272.569284 
C 483.047414 272.569284 476.08102 275.454859 470.945384 280.590495 
C 465.809748 285.726131 462.924172 292.692526 462.924172 299.955412 
C 462.924172 307.218298 465.809748 314.184693 470.945384 319.320329 
C 476.08102 324.455965 483.047414 327.34154 490.3103 327.34154 
z
" clip-path="url(#p92749f9f1b)" style="fill: #c70039; fill-opacity: 0.99; stroke: #c70039; stroke-opacity: 0.99"/>
    <path d="M 471.991819 240.294778 
C 479.249637 240.294778 486.21117 237.411217 491.343222 232.279164 
C 496.475275 227.147112 499.358836 220.185579 499.358836 212.927761 
C 499.358836 205.669943 496.475275 198.708409 491.343222 193.576357 
C 486.21117 188.444305 479.249637 185.560743 471.991819 185.560743 
C 464.734001 185.560743 457.772467 188.444305 452.640415 193.576357 
C 447.508363 198.708409 444.624801 205.669943 444.624801 212.927761 
C 444.624801 220.185579 447.508363 227.147112 452.640415 232.279164 
C 457.772467 237.411217 464.734001 240.294778 471.991819 240.294778 
z
" clip-path="url(#p92749f9f1b)" style="fill: #c70039; fill-opacity: 0.99; stroke: #c70039; stroke-opacity: 0.99"/>
    <path d="M 420.203819 168.254781 
C 427.44567 168.254781 434.391888 165.377563 439.512649 160.256802 
C 444.633411 155.13604 447.510629 148.189822 447.510629 140.947971 
C 447.510629 133.706121 444.633411 126.759902 439.512649 121.639141 
C 434.391888 116.518379 427.44567 113.641161 420.203819 113.641161 
C 412.961968 113.641161 406.01575 116.518379 400.894989 121.639141 
C 395.774227 126.759902 392.897009 133.706121 392.897009 140.947971 
C 392.897009 148.189822 395.774227 155.13604 400.894989 160.256802 
C 406.01575 165.377563 412.961968 168.254781 420.203819 168.254781 
z
" clip-path="url(#p92749f9f1b)" style="fill: #c70039; fill-opacity: 0.99; stroke: #c70039; stroke-opacity: 0.99"/>
    <path d="M 343.900922 123.231543 
C 351.000281 123.231543 357.809824 120.410938 362.829829 115.390933 
C 367.849834 110.370928 370.67044 103.561384 370.67044 96.462025 
C 370.67044 89.362666 367.849834 82.553122 362.829829 77.533117 
C 357.809824 72.513112 351.000281 69.692507 343.900922 69.692507 
C 336.801562 69.692507 329.992019 72.513112 324.972014 77.533117 
C 319.952009 82.553122 317.131403 89.362666 317.131403 96.462025 
C 317.131403 103.561384 319.952009 110.370928 324.972014 115.390933 
C 329.992019 120.410938 336.801562 123.231543 343.900922 123.231543 
z
" clip-path="url(#p92749f9f1b)" style="fill: #c70039; fill-opacity: 0.99; stroke: #c70039; stroke-opacity: 0.99"/>
    <path d="M 256.276574 111.495392 
C 262.729883 111.495392 268.919751 108.931465 273.48293 104.368286 
C 278.046109 99.805107 280.610036 93.615239 280.610036 87.16193 
C 280.610036 80.70862 278.046109 74.518752 273.48293 69.955573 
C 268.919751 65.392394 262.729883 62.828467 256.276574 62.828467 
C 249.823264 62.828467 243.633396 65.392394 239.070217 69.955573 
C 234.507038 74.518752 231.943111 80.70862 231.943111 87.16193 
C 231.943111 93.615239 234.507038 99.805107 239.070217 104.368286 
C 243.633396 108.931465 249.823264 111.495392 256.276574 111.495392 
z
" clip-path="url(#p92749f9f1b)" style="fill: #c70039; fill-opacity: 0.99; stroke: #c70039; stroke-opacity: 0.99"/>
    <path d="M 172.481832 137.474161 
C 178.533341 137.474161 184.337811 135.069871 188.616874 130.790808 
C 192.895937 126.511745 195.300226 120.707276 195.300226 114.655767 
C 195.300226 108.604258 192.895937 102.799789 188.616874 98.520726 
C 184.337811 94.241663 178.533341 91.837373 172.481832 91.837373 
C 166.430324 91.837373 160.625854 94.241663 156.346791 98.520726 
C 152.067728 102.799789 149.663438 108.604258 149.663438 114.655767 
C 149.663438 120.707276 152.067728 126.511745 156.346791 130.790808 
C 160.625854 135.069871 166.430324 137.474161 172.481832 137.474161 
z
" clip-path="url(#p92749f9f1b)" style="fill: #c70039; fill-opacity: 0.99; stroke: #c70039; stroke-opacity: 0.99"/>
    <path d="M 107.005581 196.80408 
C 113.003014 196.80408 118.755616 194.421275 122.996442 190.180449 
C 127.237268 185.939623 129.620073 180.187021 129.620073 174.189587 
C 129.620073 168.192154 127.237268 162.439552 122.996442 158.198726 
C 118.755616 153.9579 113.003014 151.575094 107.005581 151.575094 
C 101.008147 151.575094 95.255545 153.9579 91.014719 158.198726 
C 86.773893 162.439552 84.391088 168.192154 84.391088 174.189587 
C 84.391088 180.187021 86.773893 185.939623 91.014719 190.180449 
C 95.255545 194.421275 101.008147 196.80408 107.005581 196.80408 
z
" clip-path="url(#p92749f9f1b)" style="fill: #c70039; fill-opacity: 0.99; stroke: #c70039; stroke-opacity: 0.99"/>
    <path d="M 71.169231 277.251 
C 76.945758 277.251 82.486471 274.955961 86.571092 270.87134 
C 90.655713 266.786719 92.950752 261.246006 92.950752 255.469479 
C 92.950752 249.692952 90.655713 244.152239 86.571092 240.067618 
C 82.486471 235.982996 76.945758 233.687958 71.169231 233.687958 
C 65.392704 233.687958 59.851991 235.982996 55.76737 240.067618 
C 51.682748 244.152239 49.38771 249.692952 49.38771 255.469479 
C 49.38771 261.246006 51.682748 266.786719 55.76737 270.87134 
C 59.851991 274.955961 65.392704 277.251 71.169231 277.251 
z
" clip-path="url(#p92749f9f1b)" style="fill: #c70039; fill-opacity: 0.99; stroke: #c70039; stroke-opacity: 0.99"/>
    <path d="M 71.169243 366.058752 
C 76.902237 366.058752 82.401193 363.78101 86.455031 359.727171 
C 90.50887 355.673333 92.786612 350.174377 92.786612 344.441384 
C 92.786612 338.70839 90.50887 333.209434 86.455031 329.155596 
C 82.401193 325.101757 76.902237 322.824015 71.169243 322.824015 
C 65.43625 322.824015 59.937294 325.101757 55.883455 329.155596 
C 51.829617 333.209434 49.551875 338.70839 49.551875 344.441384 
C 49.551875 350.174377 51.829617 355.673333 55.883455 359.727171 
C 59.937294 363.78101 65.43625 366.058752 71.169243 366.058752 
z
" clip-path="url(#p92749f9f1b)" style="fill: #c70039; fill-opacity: 0.99; stroke: #c70039; stroke-opacity: 0.99"/>
    <path d="M 107.005593 446.864637 
C 112.612885 446.864637 117.991272 444.636836 121.956226 440.671882 
C 125.92118 436.706928 128.148981 431.328541 128.148981 425.721249 
C 128.148981 420.113957 125.92118 414.735571 121.956226 410.770617 
C 117.991272 406.805663 112.612885 404.577862 107.005593 404.577862 
C 101.398301 404.577862 96.019915 406.805663 92.054961 410.770617 
C 88.090007 414.735571 85.862206 420.113957 85.862206 425.721249 
C 85.862206 431.328541 88.090007 436.706928 92.054961 440.671882 
C 96.019915 444.636836 101.398301 446.864637 107.005593 446.864637 
z
" clip-path="url(#p92749f9f1b)" style="fill: #c70039; fill-opacity: 0.99; stroke: #c70039; stroke-opacity: 0.99"/>
    <path d="M 172.481864 506.222354 
C 178.042453 506.222354 183.376043 504.013109 187.307973 500.081179 
C 191.239903 496.149249 193.449148 490.815659 193.449148 485.25507 
C 193.449148 479.694481 191.239903 474.360891 187.307973 470.428961 
C 183.376043 466.497031 178.042453 464.287786 172.481864 464.287786 
C 166.921275 464.287786 161.587685 466.497031 157.655755 470.428961 
C 153.723825 474.360891 151.51458 479.694481 151.51458 485.25507 
C 151.51458 490.815659 153.723825 496.149249 157.655755 500.081179 
C 161.587685 504.013109 166.921275 506.222354 172.481864 506.222354 
z
" clip-path="url(#p92749f9f1b)" style="fill: #c70039; fill-opacity: 0.99; stroke: #c70039; stroke-opacity: 0.99"/>
    <path d="M 256.276612 533.234582 
C 261.709479 533.234582 266.920563 531.076081 270.76218 527.234463 
C 274.603798 523.392845 276.762299 518.181762 276.762299 512.748894 
C 276.762299 507.316026 274.603798 502.104943 270.76218 498.263326 
C 266.920563 494.421708 261.709479 492.263207 256.276612 492.263207 
C 250.843744 492.263207 245.632661 494.421708 241.791043 498.263326 
C 237.949425 502.104943 235.790924 507.316026 235.790924 512.748894 
C 235.790924 518.181762 237.949425 523.392845 241.791043 527.234463 
C 245.632661 531.076081 250.843744 533.234582 256.276612 533.234582 
z
" clip-path="url(#p92749f9f1b)" style="fill: #c70039; fill-opacity: 0.99; stroke: #c70039; stroke-opacity: 0.99"/>
    <path d="M 343.900953 523.299746 
C 349.165489 523.299746 354.215113 521.208124 357.937702 517.485535 
C 361.660291 513.762946 363.751913 508.713322 363.751913 503.448786 
C 363.751913 498.18425 361.660291 493.134627 357.937702 489.412037 
C 354.215113 485.689448 349.165489 483.597826 343.900953 483.597826 
C 338.636417 483.597826 333.586794 485.689448 329.864204 489.412037 
C 326.141615 493.134627 324.049993 498.18425 324.049993 503.448786 
C 324.049993 508.713322 326.141615 513.762946 329.864204 517.485535 
C 333.586794 521.208124 338.636417 523.299746 343.900953 523.299746 
z
" clip-path="url(#p92749f9f1b)" style="fill: #c70039; fill-opacity: 0.99; stroke: #c70039; stroke-opacity: 0.99"/>
    <path d="M 420.203857 478.474632 
C 425.378451 478.474632 430.341805 476.418744 434.000795 472.759753 
C 437.659786 469.100762 439.715675 464.137409 439.715675 458.962815 
C 439.715675 453.78822 437.659786 448.824867 434.000795 445.165876 
C 430.341805 441.506885 425.378451 439.450997 420.203857 439.450997 
C 415.029262 439.450997 410.065909 441.506885 406.406918 445.165876 
C 402.747928 448.824867 400.692039 453.78822 400.692039 458.962815 
C 400.692039 464.137409 402.747928 469.100762 406.406918 472.759753 
C 410.065909 476.418744 415.029262 478.474632 420.203857 478.474632 
z
" clip-path="url(#p92749f9f1b)" style="fill: #c70039; fill-opacity: 0.99; stroke: #c70039; stroke-opacity: 0.99"/>
    <path d="M 471.991844 406.347948 
C 477.12748 406.347948 482.053465 404.307538 485.684908 400.676095 
C 489.316351 397.044652 491.356761 392.118667 491.356761 386.983031 
C 491.356761 381.847395 489.316351 376.92141 485.684908 373.289967 
C 482.053465 369.658524 477.12748 367.618115 471.991844 367.618115 
C 466.856208 367.618115 461.930223 369.658524 458.29878 373.289967 
C 454.667337 376.92141 452.626927 381.847395 452.626927 386.983031 
C 452.626927 392.118667 454.667337 397.044652 458.29878 400.676095 
C 461.930223 404.307538 466.856208 406.347948 471.991844 406.347948 
z
" clip-path="url(#p92749f9f1b)" style="fill: #c70039; fill-opacity: 0.99; stroke: #c70039; stroke-opacity: 0.99"/>
   </g>
   <g id="text_1">
    <g id="patch_2">
     <path d="M 453.827253 308.270568 
L 526.793347 308.270568 
L 526.793347 291.640256 
L 453.827253 291.640256 
z
" clip-path="url(#p92749f9f1b)" style="fill: #ffffff; opacity: 0.7; stroke: #000000; stroke-linejoin: miter"/>
    </g>
    <g clip-path="url(#p92749f9f1b)">
     <!-- William Hanna -->
     <g transform="translate(457.787253 302.438849)scale(0.09 -0.09)">
      <defs>
       <path id="DejaVuSans-57" d="M 213 4666 
L 850 4666 
L 1831 722 
L 2809 4666 
L 3519 4666 
L 4500 722 
L 5478 4666 
L 6119 4666 
L 4947 0 
L 4153 0 
L 3169 4050 
L 2175 0 
L 1381 0 
L 213 4666 
z
" transform="scale(0.015625)"/>
       <path id="DejaVuSans-69" d="M 603 3500 
L 1178 3500 
L 1178 0 
L 603 0 
L 603 3500 
z
M 603 4863 
L 1178 4863 
L 1178 4134 
L 603 4134 
L 603 4863 
z
" transform="scale(0.015625)"/>
       <path id="DejaVuSans-6c" d="M 603 4863 
L 1178 4863 
L 1178 0 
L 603 0 
L 603 4863 
z
" transform="scale(0.015625)"/>
       <path id="DejaVuSans-61" d="M 2194 1759 
Q 1497 1759 1228 1600 
Q 959 1441 959 1056 
Q 959 750 1161 570 
Q 1363 391 1709 391 
Q 2188 391 2477 730 
Q 2766 1069 2766 1631 
L 2766 1759 
L 2194 1759 
z
M 3341 1997 
L 3341 0 
L 2766 0 
L 2766 531 
Q 2569 213 2275 61 
Q 1981 -91 1556 -91 
Q 1019 -91 701 211 
Q 384 513 384 1019 
Q 384 1609 779 1909 
Q 1175 2209 1959 2209 
L 2766 2209 
L 2766 2266 
Q 2766 2663 2505 2880 
Q 2244 3097 1772 3097 
Q 1472 3097 1187 3025 
Q 903 2953 641 2809 
L 641 3341 
Q 956 3463 1253 3523 
Q 1550 3584 1831 3584 
Q 2591 3584 2966 3190 
Q 3341 2797 3341 1997 
z
" transform="scale(0.015625)"/>
       <path id="DejaVuSans-6d" d="M 3328 2828 
Q 3544 3216 3844 3400 
Q 4144 3584 4550 3584 
Q 5097 3584 5394 3201 
Q 5691 2819 5691 2113 
L 5691 0 
L 5113 0 
L 5113 2094 
Q 5113 2597 4934 2840 
Q 4756 3084 4391 3084 
Q 3944 3084 3684 2787 
Q 3425 2491 3425 1978 
L 3425 0 
L 2847 0 
L 2847 2094 
Q 2847 2600 2669 2842 
Q 2491 3084 2119 3084 
Q 1678 3084 1418 2786 
Q 1159 2488 1159 1978 
L 1159 0 
L 581 0 
L 581 3500 
L 1159 3500 
L 1159 2956 
Q 1356 3278 1631 3431 
Q 1906 3584 2284 3584 
Q 2666 3584 2933 3390 
Q 3200 3197 3328 2828 
z
" transform="scale(0.015625)"/>
       <path id="DejaVuSans-20" transform="scale(0.015625)"/>
       <path id="DejaVuSans-48" d="M 628 4666 
L 1259 4666 
L 1259 2753 
L 3553 2753 
L 3553 4666 
L 4184 4666 
L 4184 0 
L 3553 0 
L 3553 2222 
L 1259 2222 
L 1259 0 
L 628 0 
L 628 4666 
z
" transform="scale(0.015625)"/>
       <path id="DejaVuSans-6e" d="M 3513 2113 
L 3513 0 
L 2938 0 
L 2938 2094 
Q 2938 2591 2744 2837 
Q 2550 3084 2163 3084 
Q 1697 3084 1428 2787 
Q 1159 2491 1159 1978 
L 1159 0 
L 581 0 
L 581 3500 
L 1159 3500 
L 1159 2956 
Q 1366 3272 1645 3428 
Q 1925 3584 2291 3584 
Q 2894 3584 3203 3211 
Q 3513 2838 3513 2113 
z
" transform="scale(0.015625)"/>
      </defs>
      <use xlink:href="#DejaVuSans-57"/>
      <use xlink:href="#DejaVuSans-69" x="96.626953"/>
      <use xlink:href="#DejaVuSans-6c" x="124.410156"/>
      <use xlink:href="#DejaVuSans-6c" x="152.193359"/>
      <use xlink:href="#DejaVuSans-69" x="179.976562"/>
      <use xlink:href="#DejaVuSans-61" x="207.759766"/>
      <use xlink:href="#DejaVuSans-6d" x="269.039062"/>
      <use xlink:href="#DejaVuSans-20" x="366.451172"/>
      <use xlink:href="#DejaVuSans-48" x="398.238281"/>
      <use xlink:href="#DejaVuSans-61" x="473.433594"/>
      <use xlink:href="#DejaVuSans-6e" x="534.712891"/>
      <use xlink:href="#DejaVuSans-6e" x="598.091797"/>
      <use xlink:href="#DejaVuSans-61" x="661.470703"/>
     </g>
    </g>
   </g>
   <g id="text_2">
    <g id="patch_3">
     <path d="M 433.770647 221.242917 
L 510.21299 221.242917 
L 510.21299 204.612604 
L 433.770647 204.612604 
z
" clip-path="url(#p92749f9f1b)" style="fill: #ffffff; opacity: 0.7; stroke: #000000; stroke-linejoin: miter"/>
    </g>
    <g clip-path="url(#p92749f9f1b)">
     <!-- Joseph Barbera -->
     <g transform="translate(437.730647 215.411198)scale(0.09 -0.09)">
      <defs>
       <path id="DejaVuSans-4a" d="M 628 4666 
L 1259 4666 
L 1259 325 
Q 1259 -519 939 -900 
Q 619 -1281 -91 -1281 
L -331 -1281 
L -331 -750 
L -134 -750 
Q 284 -750 456 -515 
Q 628 -281 628 325 
L 628 4666 
z
" transform="scale(0.015625)"/>
       <path id="DejaVuSans-6f" d="M 1959 3097 
Q 1497 3097 1228 2736 
Q 959 2375 959 1747 
Q 959 1119 1226 758 
Q 1494 397 1959 397 
Q 2419 397 2687 759 
Q 2956 1122 2956 1747 
Q 2956 2369 2687 2733 
Q 2419 3097 1959 3097 
z
M 1959 3584 
Q 2709 3584 3137 3096 
Q 3566 2609 3566 1747 
Q 3566 888 3137 398 
Q 2709 -91 1959 -91 
Q 1206 -91 779 398 
Q 353 888 353 1747 
Q 353 2609 779 3096 
Q 1206 3584 1959 3584 
z
" transform="scale(0.015625)"/>
       <path id="DejaVuSans-73" d="M 2834 3397 
L 2834 2853 
Q 2591 2978 2328 3040 
Q 2066 3103 1784 3103 
Q 1356 3103 1142 2972 
Q 928 2841 928 2578 
Q 928 2378 1081 2264 
Q 1234 2150 1697 2047 
L 1894 2003 
Q 2506 1872 2764 1633 
Q 3022 1394 3022 966 
Q 3022 478 2636 193 
Q 2250 -91 1575 -91 
Q 1294 -91 989 -36 
Q 684 19 347 128 
L 347 722 
Q 666 556 975 473 
Q 1284 391 1588 391 
Q 1994 391 2212 530 
Q 2431 669 2431 922 
Q 2431 1156 2273 1281 
Q 2116 1406 1581 1522 
L 1381 1569 
Q 847 1681 609 1914 
Q 372 2147 372 2553 
Q 372 3047 722 3315 
Q 1072 3584 1716 3584 
Q 2034 3584 2315 3537 
Q 2597 3491 2834 3397 
z
" transform="scale(0.015625)"/>
       <path id="DejaVuSans-65" d="M 3597 1894 
L 3597 1613 
L 953 1613 
Q 991 1019 1311 708 
Q 1631 397 2203 397 
Q 2534 397 2845 478 
Q 3156 559 3463 722 
L 3463 178 
Q 3153 47 2828 -22 
Q 2503 -91 2169 -91 
Q 1331 -91 842 396 
Q 353 884 353 1716 
Q 353 2575 817 3079 
Q 1281 3584 2069 3584 
Q 2775 3584 3186 3129 
Q 3597 2675 3597 1894 
z
M 3022 2063 
Q 3016 2534 2758 2815 
Q 2500 3097 2075 3097 
Q 1594 3097 1305 2825 
Q 1016 2553 972 2059 
L 3022 2063 
z
" transform="scale(0.015625)"/>
       <path id="DejaVuSans-70" d="M 1159 525 
L 1159 -1331 
L 581 -1331 
L 581 3500 
L 1159 3500 
L 1159 2969 
Q 1341 3281 1617 3432 
Q 1894 3584 2278 3584 
Q 2916 3584 3314 3078 
Q 3713 2572 3713 1747 
Q 3713 922 3314 415 
Q 2916 -91 2278 -91 
Q 1894 -91 1617 61 
Q 1341 213 1159 525 
z
M 3116 1747 
Q 3116 2381 2855 2742 
Q 2594 3103 2138 3103 
Q 1681 3103 1420 2742 
Q 1159 2381 1159 1747 
Q 1159 1113 1420 752 
Q 1681 391 2138 391 
Q 2594 391 2855 752 
Q 3116 1113 3116 1747 
z
" transform="scale(0.015625)"/>
       <path id="DejaVuSans-68" d="M 3513 2113 
L 3513 0 
L 2938 0 
L 2938 2094 
Q 2938 2591 2744 2837 
Q 2550 3084 2163 3084 
Q 1697 3084 1428 2787 
Q 1159 2491 1159 1978 
L 1159 0 
L 581 0 
L 581 4863 
L 1159 4863 
L 1159 2956 
Q 1366 3272 1645 3428 
Q 1925 3584 2291 3584 
Q 2894 3584 3203 3211 
Q 3513 2838 3513 2113 
z
" transform="scale(0.015625)"/>
       <path id="DejaVuSans-42" d="M 1259 2228 
L 1259 519 
L 2272 519 
Q 2781 519 3026 730 
Q 3272 941 3272 1375 
Q 3272 1813 3026 2020 
Q 2781 2228 2272 2228 
L 1259 2228 
z
M 1259 4147 
L 1259 2741 
L 2194 2741 
Q 2656 2741 2882 2914 
Q 3109 3088 3109 3444 
Q 3109 3797 2882 3972 
Q 2656 4147 2194 4147 
L 1259 4147 
z
M 628 4666 
L 2241 4666 
Q 2963 4666 3353 4366 
Q 3744 4066 3744 3513 
Q 3744 3084 3544 2831 
Q 3344 2578 2956 2516 
Q 3422 2416 3680 2098 
Q 3938 1781 3938 1306 
Q 3938 681 3513 340 
Q 3088 0 2303 0 
L 628 0 
L 628 4666 
z
" transform="scale(0.015625)"/>
       <path id="DejaVuSans-72" d="M 2631 2963 
Q 2534 3019 2420 3045 
Q 2306 3072 2169 3072 
Q 1681 3072 1420 2755 
Q 1159 2438 1159 1844 
L 1159 0 
L 581 0 
L 581 3500 
L 1159 3500 
L 1159 2956 
Q 1341 3275 1631 3429 
Q 1922 3584 2338 3584 
Q 2397 3584 2469 3576 
Q 2541 3569 2628 3553 
L 2631 2963 
z
" transform="scale(0.015625)"/>
       <path id="DejaVuSans-62" d="M 3116 1747 
Q 3116 2381 2855 2742 
Q 2594 3103 2138 3103 
Q 1681 3103 1420 2742 
Q 1159 2381 1159 1747 
Q 1159 1113 1420 752 
Q 1681 391 2138 391 
Q 2594 391 2855 752 
Q 3116 1113 3116 1747 
z
M 1159 2969 
Q 1341 3281 1617 3432 
Q 1894 3584 2278 3584 
Q 2916 3584 3314 3078 
Q 3713 2572 3713 1747 
Q 3713 922 3314 415 
Q 2916 -91 2278 -91 
Q 1894 -91 1617 61 
Q 1341 213 1159 525 
L 1159 0 
L 581 0 
L 581 4863 
L 1159 4863 
L 1159 2969 
z
" transform="scale(0.015625)"/>
      </defs>
      <use xlink:href="#DejaVuSans-4a"/>
      <use xlink:href="#DejaVuSans-6f" x="29.492188"/>
      <use xlink:href="#DejaVuSans-73" x="90.673828"/>
      <use xlink:href="#DejaVuSans-65" x="142.773438"/>
      <use xlink:href="#DejaVuSans-70" x="204.296875"/>
      <use xlink:href="#DejaVuSans-68" x="267.773438"/>
      <use xlink:href="#DejaVuSans-20" x="331.152344"/>
      <use xlink:href="#DejaVuSans-42" x="362.939453"/>
      <use xlink:href="#DejaVuSans-61" x="431.542969"/>
      <use xlink:href="#DejaVuSans-72" x="492.822266"/>
      <use xlink:href="#DejaVuSans-62" x="533.935547"/>
      <use xlink:href="#DejaVuSans-65" x="597.412109"/>
      <use xlink:href="#DejaVuSans-72" x="658.935547"/>
      <use xlink:href="#DejaVuSans-61" x="700.048828"/>
     </g>
    </g>
   </g>
   <g id="text_3">
    <g id="patch_4">
     <path d="M 388.841632 149.263127 
L 451.566007 149.263127 
L 451.566007 132.632815 
L 388.841632 132.632815 
z
" clip-path="url(#p92749f9f1b)" style="fill: #ffffff; opacity: 0.7; stroke: #000000; stroke-linejoin: miter"/>
    </g>
    <g clip-path="url(#p92749f9f1b)">
     <!-- Chuck Jones -->
     <g transform="translate(392.801632 143.431409)scale(0.09 -0.09)">
      <defs>
       <path id="DejaVuSans-43" d="M 4122 4306 
L 4122 3641 
Q 3803 3938 3442 4084 
Q 3081 4231 2675 4231 
Q 1875 4231 1450 3742 
Q 1025 3253 1025 2328 
Q 1025 1406 1450 917 
Q 1875 428 2675 428 
Q 3081 428 3442 575 
Q 3803 722 4122 1019 
L 4122 359 
Q 3791 134 3420 21 
Q 3050 -91 2638 -91 
Q 1578 -91 968 557 
Q 359 1206 359 2328 
Q 359 3453 968 4101 
Q 1578 4750 2638 4750 
Q 3056 4750 3426 4639 
Q 3797 4528 4122 4306 
z
" transform="scale(0.015625)"/>
       <path id="DejaVuSans-75" d="M 544 1381 
L 544 3500 
L 1119 3500 
L 1119 1403 
Q 1119 906 1312 657 
Q 1506 409 1894 409 
Q 2359 409 2629 706 
Q 2900 1003 2900 1516 
L 2900 3500 
L 3475 3500 
L 3475 0 
L 2900 0 
L 2900 538 
Q 2691 219 2414 64 
Q 2138 -91 1772 -91 
Q 1169 -91 856 284 
Q 544 659 544 1381 
z
M 1991 3584 
L 1991 3584 
z
" transform="scale(0.015625)"/>
       <path id="DejaVuSans-63" d="M 3122 3366 
L 3122 2828 
Q 2878 2963 2633 3030 
Q 2388 3097 2138 3097 
Q 1578 3097 1268 2742 
Q 959 2388 959 1747 
Q 959 1106 1268 751 
Q 1578 397 2138 397 
Q 2388 397 2633 464 
Q 2878 531 3122 666 
L 3122 134 
Q 2881 22 2623 -34 
Q 2366 -91 2075 -91 
Q 1284 -91 818 406 
Q 353 903 353 1747 
Q 353 2603 823 3093 
Q 1294 3584 2113 3584 
Q 2378 3584 2631 3529 
Q 2884 3475 3122 3366 
z
" transform="scale(0.015625)"/>
       <path id="DejaVuSans-6b" d="M 581 4863 
L 1159 4863 
L 1159 1991 
L 2875 3500 
L 3609 3500 
L 1753 1863 
L 3688 0 
L 2938 0 
L 1159 1709 
L 1159 0 
L 581 0 
L 581 4863 
z
" transform="scale(0.015625)"/>
      </defs>
      <use xlink:href="#DejaVuSans-43"/>
      <use xlink:href="#DejaVuSans-68" x="69.824219"/>
      <use xlink:href="#DejaVuSans-75" x="133.203125"/>
      <use xlink:href="#DejaVuSans-63" x="196.582031"/>
      <use xlink:href="#DejaVuSans-6b" x="251.5625"/>
      <use xlink:href="#DejaVuSans-20" x="309.472656"/>
      <use xlink:href="#DejaVuSans-4a" x="341.259766"/>
      <use xlink:href="#DejaVuSans-6f" x="370.751953"/>
      <use xlink:href="#DejaVuSans-6e" x="431.933594"/>
      <use xlink:href="#DejaVuSans-65" x="495.3125"/>
      <use xlink:href="#DejaVuSans-73" x="556.835938"/>
     </g>
    </g>
   </g>
   <g id="text_4">
    <g id="patch_5">
     <path d="M 314.279672 104.777181 
L 373.522172 104.777181 
L 373.522172 88.146869 
L 314.279672 88.146869 
z
" clip-path="url(#p92749f9f1b)" style="fill: #ffffff; opacity: 0.7; stroke: #000000; stroke-linejoin: miter"/>
    </g>
    <g clip-path="url(#p92749f9f1b)">
     <!-- Friz Freleng -->
     <g transform="translate(318.239672 98.945463)scale(0.09 -0.09)">
      <defs>
       <path id="DejaVuSans-46" d="M 628 4666 
L 3309 4666 
L 3309 4134 
L 1259 4134 
L 1259 2759 
L 3109 2759 
L 3109 2228 
L 1259 2228 
L 1259 0 
L 628 0 
L 628 4666 
z
" transform="scale(0.015625)"/>
       <path id="DejaVuSans-7a" d="M 353 3500 
L 3084 3500 
L 3084 2975 
L 922 459 
L 3084 459 
L 3084 0 
L 275 0 
L 275 525 
L 2438 3041 
L 353 3041 
L 353 3500 
z
" transform="scale(0.015625)"/>
       <path id="DejaVuSans-67" d="M 2906 1791 
Q 2906 2416 2648 2759 
Q 2391 3103 1925 3103 
Q 1463 3103 1205 2759 
Q 947 2416 947 1791 
Q 947 1169 1205 825 
Q 1463 481 1925 481 
Q 2391 481 2648 825 
Q 2906 1169 2906 1791 
z
M 3481 434 
Q 3481 -459 3084 -895 
Q 2688 -1331 1869 -1331 
Q 1566 -1331 1297 -1286 
Q 1028 -1241 775 -1147 
L 775 -588 
Q 1028 -725 1275 -790 
Q 1522 -856 1778 -856 
Q 2344 -856 2625 -561 
Q 2906 -266 2906 331 
L 2906 616 
Q 2728 306 2450 153 
Q 2172 0 1784 0 
Q 1141 0 747 490 
Q 353 981 353 1791 
Q 353 2603 747 3093 
Q 1141 3584 1784 3584 
Q 2172 3584 2450 3431 
Q 2728 3278 2906 2969 
L 2906 3500 
L 3481 3500 
L 3481 434 
z
" transform="scale(0.015625)"/>
      </defs>
      <use xlink:href="#DejaVuSans-46"/>
      <use xlink:href="#DejaVuSans-72" x="50.269531"/>
      <use xlink:href="#DejaVuSans-69" x="91.382812"/>
      <use xlink:href="#DejaVuSans-7a" x="119.166016"/>
      <use xlink:href="#DejaVuSans-20" x="171.65625"/>
      <use xlink:href="#DejaVuSans-46" x="203.443359"/>
      <use xlink:href="#DejaVuSans-72" x="253.712891"/>
      <use xlink:href="#DejaVuSans-65" x="292.576172"/>
      <use xlink:href="#DejaVuSans-6c" x="354.099609"/>
      <use xlink:href="#DejaVuSans-65" x="381.882812"/>
      <use xlink:href="#DejaVuSans-6e" x="443.40625"/>
      <use xlink:href="#DejaVuSans-67" x="506.785156"/>
     </g>
    </g>
   </g>
   <g id="text_5">
    <g id="patch_6">
     <path d="M 215.567042 95.477086 
L 296.986105 95.477086 
L 296.986105 78.846773 
L 215.567042 78.846773 
z
" clip-path="url(#p92749f9f1b)" style="fill: #ffffff; opacity: 0.7; stroke: #000000; stroke-linejoin: miter"/>
    </g>
    <g clip-path="url(#p92749f9f1b)">
     <!-- Alfred Hitchcock -->
     <g transform="translate(219.527042 89.645367)scale(0.09 -0.09)">
      <defs>
       <path id="DejaVuSans-41" d="M 2188 4044 
L 1331 1722 
L 3047 1722 
L 2188 4044 
z
M 1831 4666 
L 2547 4666 
L 4325 0 
L 3669 0 
L 3244 1197 
L 1141 1197 
L 716 0 
L 50 0 
L 1831 4666 
z
" transform="scale(0.015625)"/>
       <path id="DejaVuSans-66" d="M 2375 4863 
L 2375 4384 
L 1825 4384 
Q 1516 4384 1395 4259 
Q 1275 4134 1275 3809 
L 1275 3500 
L 2222 3500 
L 2222 3053 
L 1275 3053 
L 1275 0 
L 697 0 
L 697 3053 
L 147 3053 
L 147 3500 
L 697 3500 
L 697 3744 
Q 697 4328 969 4595 
Q 1241 4863 1831 4863 
L 2375 4863 
z
" transform="scale(0.015625)"/>
       <path id="DejaVuSans-64" d="M 2906 2969 
L 2906 4863 
L 3481 4863 
L 3481 0 
L 2906 0 
L 2906 525 
Q 2725 213 2448 61 
Q 2172 -91 1784 -91 
Q 1150 -91 751 415 
Q 353 922 353 1747 
Q 353 2572 751 3078 
Q 1150 3584 1784 3584 
Q 2172 3584 2448 3432 
Q 2725 3281 2906 2969 
z
M 947 1747 
Q 947 1113 1208 752 
Q 1469 391 1925 391 
Q 2381 391 2643 752 
Q 2906 1113 2906 1747 
Q 2906 2381 2643 2742 
Q 2381 3103 1925 3103 
Q 1469 3103 1208 2742 
Q 947 2381 947 1747 
z
" transform="scale(0.015625)"/>
       <path id="DejaVuSans-74" d="M 1172 4494 
L 1172 3500 
L 2356 3500 
L 2356 3053 
L 1172 3053 
L 1172 1153 
Q 1172 725 1289 603 
Q 1406 481 1766 481 
L 2356 481 
L 2356 0 
L 1766 0 
Q 1100 0 847 248 
Q 594 497 594 1153 
L 594 3053 
L 172 3053 
L 172 3500 
L 594 3500 
L 594 4494 
L 1172 4494 
z
" transform="scale(0.015625)"/>
      </defs>
      <use xlink:href="#DejaVuSans-41"/>
      <use xlink:href="#DejaVuSans-6c" x="68.408203"/>
      <use xlink:href="#DejaVuSans-66" x="96.191406"/>
      <use xlink:href="#DejaVuSans-72" x="131.396484"/>
      <use xlink:href="#DejaVuSans-65" x="170.259766"/>
      <use xlink:href="#DejaVuSans-64" x="231.783203"/>
      <use xlink:href="#DejaVuSans-20" x="295.259766"/>
      <use xlink:href="#DejaVuSans-48" x="327.046875"/>
      <use xlink:href="#DejaVuSans-69" x="402.242188"/>
      <use xlink:href="#DejaVuSans-74" x="430.025391"/>
      <use xlink:href="#DejaVuSans-63" x="469.234375"/>
      <use xlink:href="#DejaVuSans-68" x="524.214844"/>
      <use xlink:href="#DejaVuSans-63" x="587.59375"/>
      <use xlink:href="#DejaVuSans-6f" x="642.574219"/>
      <use xlink:href="#DejaVuSans-63" x="703.755859"/>
      <use xlink:href="#DejaVuSans-6b" x="758.736328"/>
     </g>
    </g>
   </g>
   <g id="text_6">
    <g id="patch_7">
     <path d="M 130.028551 122.970923 
L 214.935114 122.970923 
L 214.935114 106.340611 
L 130.028551 106.340611 
z
" clip-path="url(#p92749f9f1b)" style="fill: #ffffff; opacity: 0.7; stroke: #000000; stroke-linejoin: miter"/>
    </g>
    <g clip-path="url(#p92749f9f1b)">
     <!-- Vincente Minnelli -->
     <g transform="translate(133.988551 117.139204)scale(0.09 -0.09)">
      <defs>
       <path id="DejaVuSans-56" d="M 1831 0 
L 50 4666 
L 709 4666 
L 2188 738 
L 3669 4666 
L 4325 4666 
L 2547 0 
L 1831 0 
z
" transform="scale(0.015625)"/>
       <path id="DejaVuSans-4d" d="M 628 4666 
L 1569 4666 
L 2759 1491 
L 3956 4666 
L 4897 4666 
L 4897 0 
L 4281 0 
L 4281 4097 
L 3078 897 
L 2444 897 
L 1241 4097 
L 1241 0 
L 628 0 
L 628 4666 
z
" transform="scale(0.015625)"/>
      </defs>
      <use xlink:href="#DejaVuSans-56"/>
      <use xlink:href="#DejaVuSans-69" x="66.158203"/>
      <use xlink:href="#DejaVuSans-6e" x="93.941406"/>
      <use xlink:href="#DejaVuSans-63" x="157.320312"/>
      <use xlink:href="#DejaVuSans-65" x="212.300781"/>
      <use xlink:href="#DejaVuSans-6e" x="273.824219"/>
      <use xlink:href="#DejaVuSans-74" x="337.203125"/>
      <use xlink:href="#DejaVuSans-65" x="376.412109"/>
      <use xlink:href="#DejaVuSans-20" x="437.935547"/>
      <use xlink:href="#DejaVuSans-4d" x="469.722656"/>
      <use xlink:href="#DejaVuSans-69" x="556.001953"/>
      <use xlink:href="#DejaVuSans-6e" x="583.785156"/>
      <use xlink:href="#DejaVuSans-6e" x="647.164062"/>
      <use xlink:href="#DejaVuSans-65" x="710.542969"/>
      <use xlink:href="#DejaVuSans-6c" x="772.066406"/>
      <use xlink:href="#DejaVuSans-6c" x="799.849609"/>
      <use xlink:href="#DejaVuSans-69" x="827.632812"/>
     </g>
    </g>
   </g>
   <g id="text_7">
    <g id="patch_8">
     <path d="M 76.086362 182.504744 
L 137.924799 182.504744 
L 137.924799 165.874431 
L 76.086362 165.874431 
z
" clip-path="url(#p92749f9f1b)" style="fill: #ffffff; opacity: 0.7; stroke: #000000; stroke-linejoin: miter"/>
    </g>
    <g clip-path="url(#p92749f9f1b)">
     <!-- Ridley Scott -->
     <g transform="translate(80.046362 176.673025)scale(0.09 -0.09)">
      <defs>
       <path id="DejaVuSans-52" d="M 2841 2188 
Q 3044 2119 3236 1894 
Q 3428 1669 3622 1275 
L 4263 0 
L 3584 0 
L 2988 1197 
Q 2756 1666 2539 1819 
Q 2322 1972 1947 1972 
L 1259 1972 
L 1259 0 
L 628 0 
L 628 4666 
L 2053 4666 
Q 2853 4666 3247 4331 
Q 3641 3997 3641 3322 
Q 3641 2881 3436 2590 
Q 3231 2300 2841 2188 
z
M 1259 4147 
L 1259 2491 
L 2053 2491 
Q 2509 2491 2742 2702 
Q 2975 2913 2975 3322 
Q 2975 3731 2742 3939 
Q 2509 4147 2053 4147 
L 1259 4147 
z
" transform="scale(0.015625)"/>
       <path id="DejaVuSans-79" d="M 2059 -325 
Q 1816 -950 1584 -1140 
Q 1353 -1331 966 -1331 
L 506 -1331 
L 506 -850 
L 844 -850 
Q 1081 -850 1212 -737 
Q 1344 -625 1503 -206 
L 1606 56 
L 191 3500 
L 800 3500 
L 1894 763 
L 2988 3500 
L 3597 3500 
L 2059 -325 
z
" transform="scale(0.015625)"/>
       <path id="DejaVuSans-53" d="M 3425 4513 
L 3425 3897 
Q 3066 4069 2747 4153 
Q 2428 4238 2131 4238 
Q 1616 4238 1336 4038 
Q 1056 3838 1056 3469 
Q 1056 3159 1242 3001 
Q 1428 2844 1947 2747 
L 2328 2669 
Q 3034 2534 3370 2195 
Q 3706 1856 3706 1288 
Q 3706 609 3251 259 
Q 2797 -91 1919 -91 
Q 1588 -91 1214 -16 
Q 841 59 441 206 
L 441 856 
Q 825 641 1194 531 
Q 1563 422 1919 422 
Q 2459 422 2753 634 
Q 3047 847 3047 1241 
Q 3047 1584 2836 1778 
Q 2625 1972 2144 2069 
L 1759 2144 
Q 1053 2284 737 2584 
Q 422 2884 422 3419 
Q 422 4038 858 4394 
Q 1294 4750 2059 4750 
Q 2388 4750 2728 4690 
Q 3069 4631 3425 4513 
z
" transform="scale(0.015625)"/>
      </defs>
      <use xlink:href="#DejaVuSans-52"/>
      <use xlink:href="#DejaVuSans-69" x="69.482422"/>
      <use xlink:href="#DejaVuSans-64" x="97.265625"/>
      <use xlink:href="#DejaVuSans-6c" x="160.742188"/>
      <use xlink:href="#DejaVuSans-65" x="188.525391"/>
      <use xlink:href="#DejaVuSans-79" x="250.048828"/>
      <use xlink:href="#DejaVuSans-20" x="309.228516"/>
      <use xlink:href="#DejaVuSans-53" x="341.015625"/>
      <use xlink:href="#DejaVuSans-63" x="404.492188"/>
      <use xlink:href="#DejaVuSans-6f" x="459.472656"/>
      <use xlink:href="#DejaVuSans-74" x="520.654297"/>
      <use xlink:href="#DejaVuSans-74" x="559.863281"/>
     </g>
    </g>
   </g>
   <g id="text_8">
    <g id="patch_9">
     <path d="M 39.773996 263.784635 
L 102.564465 263.784635 
L 102.564465 247.154322 
L 39.773996 247.154322 
z
" clip-path="url(#p92749f9f1b)" style="fill: #ffffff; opacity: 0.7; stroke: #000000; stroke-linejoin: miter"/>
    </g>
    <g clip-path="url(#p92749f9f1b)">
     <!-- Raoul Walsh -->
     <g transform="translate(43.733996 257.952916)scale(0.09 -0.09)">
      <use xlink:href="#DejaVuSans-52"/>
      <use xlink:href="#DejaVuSans-61" x="67.232422"/>
      <use xlink:href="#DejaVuSans-6f" x="128.511719"/>
      <use xlink:href="#DejaVuSans-75" x="189.693359"/>
      <use xlink:href="#DejaVuSans-6c" x="253.072266"/>
      <use xlink:href="#DejaVuSans-20" x="280.855469"/>
      <use xlink:href="#DejaVuSans-57" x="312.642578"/>
      <use xlink:href="#DejaVuSans-61" x="405.144531"/>
      <use xlink:href="#DejaVuSans-6c" x="466.423828"/>
      <use xlink:href="#DejaVuSans-73" x="494.207031"/>
      <use xlink:href="#DejaVuSans-68" x="546.306641"/>
     </g>
    </g>
   </g>
   <g id="text_9">
    <g id="patch_10">
     <path d="M 33.736978 352.75654 
L 108.601509 352.75654 
L 108.601509 336.126227 
L 33.736978 336.126227 
z
" clip-path="url(#p92749f9f1b)" style="fill: #ffffff; opacity: 0.7; stroke: #000000; stroke-linejoin: miter"/>
    </g>
    <g clip-path="url(#p92749f9f1b)">
     <!-- Barry Levinson -->
     <g transform="translate(37.696978 346.924821)scale(0.09 -0.09)">
      <defs>
       <path id="DejaVuSans-4c" d="M 628 4666 
L 1259 4666 
L 1259 531 
L 3531 531 
L 3531 0 
L 628 0 
L 628 4666 
z
" transform="scale(0.015625)"/>
       <path id="DejaVuSans-76" d="M 191 3500 
L 800 3500 
L 1894 563 
L 2988 3500 
L 3597 3500 
L 2284 0 
L 1503 0 
L 191 3500 
z
" transform="scale(0.015625)"/>
      </defs>
      <use xlink:href="#DejaVuSans-42"/>
      <use xlink:href="#DejaVuSans-61" x="68.603516"/>
      <use xlink:href="#DejaVuSans-72" x="129.882812"/>
      <use xlink:href="#DejaVuSans-72" x="169.246094"/>
      <use xlink:href="#DejaVuSans-79" x="210.359375"/>
      <use xlink:href="#DejaVuSans-20" x="269.539062"/>
      <use xlink:href="#DejaVuSans-4c" x="301.326172"/>
      <use xlink:href="#DejaVuSans-65" x="355.289062"/>
      <use xlink:href="#DejaVuSans-76" x="416.8125"/>
      <use xlink:href="#DejaVuSans-69" x="475.992188"/>
      <use xlink:href="#DejaVuSans-6e" x="503.775391"/>
      <use xlink:href="#DejaVuSans-73" x="567.154297"/>
      <use xlink:href="#DejaVuSans-6f" x="619.253906"/>
      <use xlink:href="#DejaVuSans-6e" x="680.435547"/>
     </g>
    </g>
   </g>
   <g id="text_10">
    <g id="patch_11">
     <path d="M 75.203953 434.036406 
L 138.807234 434.036406 
L 138.807234 417.406093 
L 75.203953 417.406093 
z
" clip-path="url(#p92749f9f1b)" style="fill: #ffffff; opacity: 0.7; stroke: #000000; stroke-linejoin: miter"/>
    </g>
    <g clip-path="url(#p92749f9f1b)">
     <!-- Woody Allen -->
     <g transform="translate(79.163953 428.204687)scale(0.09 -0.09)">
      <use xlink:href="#DejaVuSans-57"/>
      <use xlink:href="#DejaVuSans-6f" x="93.001953"/>
      <use xlink:href="#DejaVuSans-6f" x="154.183594"/>
      <use xlink:href="#DejaVuSans-64" x="215.365234"/>
      <use xlink:href="#DejaVuSans-79" x="278.841797"/>
      <use xlink:href="#DejaVuSans-20" x="338.021484"/>
      <use xlink:href="#DejaVuSans-41" x="369.808594"/>
      <use xlink:href="#DejaVuSans-6c" x="438.216797"/>
      <use xlink:href="#DejaVuSans-6c" x="466"/>
      <use xlink:href="#DejaVuSans-65" x="493.783203"/>
      <use xlink:href="#DejaVuSans-6e" x="555.306641"/>
     </g>
    </g>
   </g>
   <g id="text_11">
    <g id="patch_12">
     <path d="M 143.464598 493.570226 
L 201.49913 493.570226 
L 201.49913 476.939914 
L 143.464598 476.939914 
z
" clip-path="url(#p92749f9f1b)" style="fill: #ffffff; opacity: 0.7; stroke: #000000; stroke-linejoin: miter"/>
    </g>
    <g clip-path="url(#p92749f9f1b)">
     <!-- Jules White -->
     <g transform="translate(147.424598 487.738507)scale(0.09 -0.09)">
      <use xlink:href="#DejaVuSans-4a"/>
      <use xlink:href="#DejaVuSans-75" x="29.492188"/>
      <use xlink:href="#DejaVuSans-6c" x="92.871094"/>
      <use xlink:href="#DejaVuSans-65" x="120.654297"/>
      <use xlink:href="#DejaVuSans-73" x="182.177734"/>
      <use xlink:href="#DejaVuSans-20" x="234.277344"/>
      <use xlink:href="#DejaVuSans-57" x="266.064453"/>
      <use xlink:href="#DejaVuSans-68" x="364.941406"/>
      <use xlink:href="#DejaVuSans-69" x="428.320312"/>
      <use xlink:href="#DejaVuSans-74" x="456.103516"/>
      <use xlink:href="#DejaVuSans-65" x="495.3125"/>
     </g>
    </g>
   </g>
   <g id="text_12">
    <g id="patch_13">
     <path d="M 224.33083 521.06405 
L 288.222393 521.06405 
L 288.222393 504.433738 
L 224.33083 504.433738 
z
" clip-path="url(#p92749f9f1b)" style="fill: #ffffff; opacity: 0.7; stroke: #000000; stroke-linejoin: miter"/>
    </g>
    <g clip-path="url(#p92749f9f1b)">
     <!-- Les Mayfield -->
     <g transform="translate(228.29083 515.232332)scale(0.09 -0.09)">
      <use xlink:href="#DejaVuSans-4c"/>
      <use xlink:href="#DejaVuSans-65" x="53.962891"/>
      <use xlink:href="#DejaVuSans-73" x="115.486328"/>
      <use xlink:href="#DejaVuSans-20" x="167.585938"/>
      <use xlink:href="#DejaVuSans-4d" x="199.373047"/>
      <use xlink:href="#DejaVuSans-61" x="285.652344"/>
      <use xlink:href="#DejaVuSans-79" x="346.931641"/>
      <use xlink:href="#DejaVuSans-66" x="406.111328"/>
      <use xlink:href="#DejaVuSans-69" x="441.316406"/>
      <use xlink:href="#DejaVuSans-65" x="469.099609"/>
      <use xlink:href="#DejaVuSans-6c" x="530.623047"/>
      <use xlink:href="#DejaVuSans-64" x="558.40625"/>
     </g>
    </g>
   </g>
   <g id="text_13">
    <g id="patch_14">
     <path d="M 299.147047 511.763942 
L 388.654859 511.763942 
L 388.654859 495.13363 
L 299.147047 495.13363 
z
" clip-path="url(#p92749f9f1b)" style="fill: #ffffff; opacity: 0.7; stroke: #000000; stroke-linejoin: miter"/>
    </g>
    <g clip-path="url(#p92749f9f1b)">
     <!-- David Cronenberg -->
     <g transform="translate(303.107047 505.932224)scale(0.09 -0.09)">
      <defs>
       <path id="DejaVuSans-44" d="M 1259 4147 
L 1259 519 
L 2022 519 
Q 2988 519 3436 956 
Q 3884 1394 3884 2338 
Q 3884 3275 3436 3711 
Q 2988 4147 2022 4147 
L 1259 4147 
z
M 628 4666 
L 1925 4666 
Q 3281 4666 3915 4102 
Q 4550 3538 4550 2338 
Q 4550 1131 3912 565 
Q 3275 0 1925 0 
L 628 0 
L 628 4666 
z
" transform="scale(0.015625)"/>
      </defs>
      <use xlink:href="#DejaVuSans-44"/>
      <use xlink:href="#DejaVuSans-61" x="77.001953"/>
      <use xlink:href="#DejaVuSans-76" x="138.28125"/>
      <use xlink:href="#DejaVuSans-69" x="197.460938"/>
      <use xlink:href="#DejaVuSans-64" x="225.244141"/>
      <use xlink:href="#DejaVuSans-20" x="288.720703"/>
      <use xlink:href="#DejaVuSans-43" x="320.507812"/>
      <use xlink:href="#DejaVuSans-72" x="390.332031"/>
      <use xlink:href="#DejaVuSans-6f" x="429.195312"/>
      <use xlink:href="#DejaVuSans-6e" x="490.376953"/>
      <use xlink:href="#DejaVuSans-65" x="553.755859"/>
      <use xlink:href="#DejaVuSans-6e" x="615.279297"/>
      <use xlink:href="#DejaVuSans-62" x="678.658203"/>
      <use xlink:href="#DejaVuSans-65" x="742.134766"/>
      <use xlink:href="#DejaVuSans-72" x="803.658203"/>
      <use xlink:href="#DejaVuSans-67" x="843.021484"/>
     </g>
    </g>
   </g>
   <g id="text_14">
    <g id="patch_15">
     <path d="M 384.594794 467.277971 
L 455.812919 467.277971 
L 455.812919 450.647658 
L 384.594794 450.647658 
z
" clip-path="url(#p92749f9f1b)" style="fill: #ffffff; opacity: 0.7; stroke: #000000; stroke-linejoin: miter"/>
    </g>
    <g clip-path="url(#p92749f9f1b)">
     <!-- Mervyn LeRoy -->
     <g transform="translate(388.554794 461.446252)scale(0.09 -0.09)">
      <use xlink:href="#DejaVuSans-4d"/>
      <use xlink:href="#DejaVuSans-65" x="86.279297"/>
      <use xlink:href="#DejaVuSans-72" x="147.802734"/>
      <use xlink:href="#DejaVuSans-76" x="188.916016"/>
      <use xlink:href="#DejaVuSans-79" x="248.095703"/>
      <use xlink:href="#DejaVuSans-6e" x="307.275391"/>
      <use xlink:href="#DejaVuSans-20" x="370.654297"/>
      <use xlink:href="#DejaVuSans-4c" x="402.441406"/>
      <use xlink:href="#DejaVuSans-65" x="456.404297"/>
      <use xlink:href="#DejaVuSans-52" x="517.927734"/>
      <use xlink:href="#DejaVuSans-6f" x="582.910156"/>
      <use xlink:href="#DejaVuSans-79" x="644.091797"/>
     </g>
    </g>
   </g>
   <g id="text_15">
    <g id="patch_16">
     <path d="M 437.208953 395.298188 
L 506.774734 395.298188 
L 506.774734 378.667875 
L 437.208953 378.667875 
z
" clip-path="url(#p92749f9f1b)" style="fill: #ffffff; opacity: 0.7; stroke: #000000; stroke-linejoin: miter"/>
    </g>
    <g clip-path="url(#p92749f9f1b)">
     <!-- William Wyler -->
     <g transform="translate(441.168953 389.466469)scale(0.09 -0.09)">
      <use xlink:href="#DejaVuSans-57"/>
      <use xlink:href="#DejaVuSans-69" x="96.626953"/>
      <use xlink:href="#DejaVuSans-6c" x="124.410156"/>
      <use xlink:href="#DejaVuSans-6c" x="152.193359"/>
      <use xlink:href="#DejaVuSans-69" x="179.976562"/>
      <use xlink:href="#DejaVuSans-61" x="207.759766"/>
      <use xlink:href="#DejaVuSans-6d" x="269.039062"/>
      <use xlink:href="#DejaVuSans-20" x="366.451172"/>
      <use xlink:href="#DejaVuSans-57" x="398.238281"/>
      <use xlink:href="#DejaVuSans-79" x="495.365234"/>
      <use xlink:href="#DejaVuSans-6c" x="554.544922"/>
      <use xlink:href="#DejaVuSans-65" x="582.328125"/>
      <use xlink:href="#DejaVuSans-72" x="643.851562"/>
     </g>
    </g>
   </g>
   <g id="text_16">
    <!-- Impactful directors for Black-and-white genre - Importance rank: 3 -->
    <g transform="translate(84.741562 16.318125)scale(0.12 -0.12)">
     <defs>
      <path id="DejaVuSans-49" d="M 628 4666 
L 1259 4666 
L 1259 0 
L 628 0 
L 628 4666 
z
" transform="scale(0.015625)"/>
      <path id="DejaVuSans-2d" d="M 313 2009 
L 1997 2009 
L 1997 1497 
L 313 1497 
L 313 2009 
z
" transform="scale(0.015625)"/>
      <path id="DejaVuSans-77" d="M 269 3500 
L 844 3500 
L 1563 769 
L 2278 3500 
L 2956 3500 
L 3675 769 
L 4391 3500 
L 4966 3500 
L 4050 0 
L 3372 0 
L 2619 2869 
L 1863 0 
L 1184 0 
L 269 3500 
z
" transform="scale(0.015625)"/>
      <path id="DejaVuSans-3a" d="M 750 794 
L 1409 794 
L 1409 0 
L 750 0 
L 750 794 
z
M 750 3309 
L 1409 3309 
L 1409 2516 
L 750 2516 
L 750 3309 
z
" transform="scale(0.015625)"/>
      <path id="DejaVuSans-33" d="M 2597 2516 
Q 3050 2419 3304 2112 
Q 3559 1806 3559 1356 
Q 3559 666 3084 287 
Q 2609 -91 1734 -91 
Q 1441 -91 1130 -33 
Q 819 25 488 141 
L 488 750 
Q 750 597 1062 519 
Q 1375 441 1716 441 
Q 2309 441 2620 675 
Q 2931 909 2931 1356 
Q 2931 1769 2642 2001 
Q 2353 2234 1838 2234 
L 1294 2234 
L 1294 2753 
L 1863 2753 
Q 2328 2753 2575 2939 
Q 2822 3125 2822 3475 
Q 2822 3834 2567 4026 
Q 2313 4219 1838 4219 
Q 1578 4219 1281 4162 
Q 984 4106 628 3988 
L 628 4550 
Q 988 4650 1302 4700 
Q 1616 4750 1894 4750 
Q 2613 4750 3031 4423 
Q 3450 4097 3450 3541 
Q 3450 3153 3228 2886 
Q 3006 2619 2597 2516 
z
" transform="scale(0.015625)"/>
     </defs>
     <use xlink:href="#DejaVuSans-49"/>
     <use xlink:href="#DejaVuSans-6d" x="29.492188"/>
     <use xlink:href="#DejaVuSans-70" x="126.904297"/>
     <use xlink:href="#DejaVuSans-61" x="190.380859"/>
     <use xlink:href="#DejaVuSans-63" x="251.660156"/>
     <use xlink:href="#DejaVuSans-74" x="306.640625"/>
     <use xlink:href="#DejaVuSans-66" x="345.849609"/>
     <use xlink:href="#DejaVuSans-75" x="381.054688"/>
     <use xlink:href="#DejaVuSans-6c" x="444.433594"/>
     <use xlink:href="#DejaVuSans-20" x="472.216797"/>
     <use xlink:href="#DejaVuSans-64" x="504.003906"/>
     <use xlink:href="#DejaVuSans-69" x="567.480469"/>
     <use xlink:href="#DejaVuSans-72" x="595.263672"/>
     <use xlink:href="#DejaVuSans-65" x="634.126953"/>
     <use xlink:href="#DejaVuSans-63" x="695.650391"/>
     <use xlink:href="#DejaVuSans-74" x="750.630859"/>
     <use xlink:href="#DejaVuSans-6f" x="789.839844"/>
     <use xlink:href="#DejaVuSans-72" x="851.021484"/>
     <use xlink:href="#DejaVuSans-73" x="892.134766"/>
     <use xlink:href="#DejaVuSans-20" x="944.234375"/>
     <use xlink:href="#DejaVuSans-66" x="976.021484"/>
     <use xlink:href="#DejaVuSans-6f" x="1011.226562"/>
     <use xlink:href="#DejaVuSans-72" x="1072.408203"/>
     <use xlink:href="#DejaVuSans-20" x="1113.521484"/>
     <use xlink:href="#DejaVuSans-42" x="1145.308594"/>
     <use xlink:href="#DejaVuSans-6c" x="1213.912109"/>
     <use xlink:href="#DejaVuSans-61" x="1241.695312"/>
     <use xlink:href="#DejaVuSans-63" x="1302.974609"/>
     <use xlink:href="#DejaVuSans-6b" x="1357.955078"/>
     <use xlink:href="#DejaVuSans-2d" x="1415.865234"/>
     <use xlink:href="#DejaVuSans-61" x="1451.949219"/>
     <use xlink:href="#DejaVuSans-6e" x="1513.228516"/>
     <use xlink:href="#DejaVuSans-64" x="1576.607422"/>
     <use xlink:href="#DejaVuSans-2d" x="1640.083984"/>
     <use xlink:href="#DejaVuSans-77" x="1676.167969"/>
     <use xlink:href="#DejaVuSans-68" x="1757.955078"/>
     <use xlink:href="#DejaVuSans-69" x="1821.333984"/>
     <use xlink:href="#DejaVuSans-74" x="1849.117188"/>
     <use xlink:href="#DejaVuSans-65" x="1888.326172"/>
     <use xlink:href="#DejaVuSans-20" x="1949.849609"/>
     <use xlink:href="#DejaVuSans-67" x="1981.636719"/>
     <use xlink:href="#DejaVuSans-65" x="2045.113281"/>
     <use xlink:href="#DejaVuSans-6e" x="2106.636719"/>
     <use xlink:href="#DejaVuSans-72" x="2170.015625"/>
     <use xlink:href="#DejaVuSans-65" x="2208.878906"/>
     <use xlink:href="#DejaVuSans-20" x="2270.402344"/>
     <use xlink:href="#DejaVuSans-2d" x="2302.189453"/>
     <use xlink:href="#DejaVuSans-20" x="2338.273438"/>
     <use xlink:href="#DejaVuSans-49" x="2370.060547"/>
     <use xlink:href="#DejaVuSans-6d" x="2399.552734"/>
     <use xlink:href="#DejaVuSans-70" x="2496.964844"/>
     <use xlink:href="#DejaVuSans-6f" x="2560.441406"/>
     <use xlink:href="#DejaVuSans-72" x="2621.623047"/>
     <use xlink:href="#DejaVuSans-74" x="2662.736328"/>
     <use xlink:href="#DejaVuSans-61" x="2701.945312"/>
     <use xlink:href="#DejaVuSans-6e" x="2763.224609"/>
     <use xlink:href="#DejaVuSans-63" x="2826.603516"/>
     <use xlink:href="#DejaVuSans-65" x="2881.583984"/>
     <use xlink:href="#DejaVuSans-20" x="2943.107422"/>
     <use xlink:href="#DejaVuSans-72" x="2974.894531"/>
     <use xlink:href="#DejaVuSans-61" x="3016.007812"/>
     <use xlink:href="#DejaVuSans-6e" x="3077.287109"/>
     <use xlink:href="#DejaVuSans-6b" x="3140.666016"/>
     <use xlink:href="#DejaVuSans-3a" x="3198.576172"/>
     <use xlink:href="#DejaVuSans-20" x="3232.267578"/>
     <use xlink:href="#DejaVuSans-33" x="3264.054688"/>
    </g>
   </g>
  </g>
 </g>
 <defs>
  <clipPath id="p92749f9f1b">
   <rect x="7.2" y="22.318125" width="554.4" height="554.4"/>
  </clipPath>
 </defs>
</svg>
