<?xml version="1.0" encoding="utf-8" standalone="no"?>
<!DOCTYPE svg PUBLIC "-//W3C//DTD SVG 1.1//EN"
  "http://www.w3.org/Graphics/SVG/1.1/DTD/svg11.dtd">
<svg xmlns:xlink="http://www.w3.org/1999/xlink" width="568.8pt" height="583.918125pt" viewBox="0 0 568.8 583.918125" xmlns="http://www.w3.org/2000/svg" version="1.1">
 <metadata>
  <rdf:RDF xmlns:dc="http://purl.org/dc/elements/1.1/" xmlns:cc="http://creativecommons.org/ns#" xmlns:rdf="http://www.w3.org/1999/02/22-rdf-syntax-ns#">
   <cc:Work>
    <dc:type rdf:resource="http://purl.org/dc/dcmitype/StillImage"/>
    <dc:date>2022-12-23T20:56:33.903834</dc:date>
    <dc:format>image/svg+xml</dc:format>
    <dc:creator>
     <cc:Agent>
      <dc:title>Matplotlib v3.5.3, https://matplotlib.org/</dc:title>
     </cc:Agent>
    </dc:creator>
   </cc:Work>
  </rdf:RDF>
 </metadata>
 <defs>
  <style type="text/css">*{stroke-linejoin: round; stroke-linecap: butt}</style>
 </defs>
 <g id="figure_1">
  <g id="patch_1">
   <path d="M 0 583.918125 
L 568.8 583.918125 
L 568.8 0 
L 0 0 
z
" style="fill: #ffffff"/>
  </g>
  <g id="axes_1">
   <g id="LineCollection_1">
    <path d="M 482.052437 304.718875 
L 464.094863 219.639372 
" clip-path="url(#p867e4517ce)" style="fill: none; stroke: #000000; stroke-opacity: 0.3; stroke-width: 5"/>
    <path d="M 252.629613 96.688857 
L 170.485784 123.567234 
" clip-path="url(#p867e4517ce)" style="fill: none; stroke: #000000; stroke-opacity: 0.3; stroke-width: 10"/>
   </g>
   <g id="PathCollection_1">
    <path d="M 482.052437 332.105003 
C 489.315323 332.105003 496.281717 329.219428 501.417353 324.083792 
C 506.552989 318.948156 509.438564 311.981761 509.438564 304.718875 
C 509.438564 297.455989 506.552989 290.489595 501.417353 285.353959 
C 496.281717 280.218323 489.315323 277.332748 482.052437 277.332748 
C 474.789551 277.332748 467.823156 280.218323 462.68752 285.353959 
C 457.551884 290.489595 454.666309 297.455989 454.666309 304.718875 
C 454.666309 311.981761 457.551884 318.948156 462.68752 324.083792 
C 467.823156 329.219428 474.789551 332.105003 482.052437 332.105003 
z
" clip-path="url(#p867e4517ce)" style="fill: #c70039; fill-opacity: 0.99; stroke: #c70039; stroke-opacity: 0.99"/>
    <path d="M 464.094863 243.046527 
C 470.302514 243.046527 476.25675 240.580202 480.646222 236.19073 
C 485.035693 231.801258 487.502019 225.847022 487.502019 219.639372 
C 487.502019 213.431721 485.035693 207.477485 480.646222 203.088013 
C 476.25675 198.698541 470.302514 196.232216 464.094863 196.232216 
C 457.887213 196.232216 451.932976 198.698541 447.543505 203.088013 
C 443.154033 207.477485 440.687708 213.431721 440.687708 219.639372 
C 440.687708 225.847022 443.154033 231.801258 447.543505 236.19073 
C 451.932976 240.580202 457.887213 243.046527 464.094863 243.046527 
z
" clip-path="url(#p867e4517ce)" style="fill: #c70039; fill-opacity: 0.99; stroke: #c70039; stroke-opacity: 0.99"/>
    <path d="M 413.327184 172.133468 
C 419.390414 172.133468 425.206126 169.724521 429.493477 165.43717 
C 433.780828 161.149819 436.189775 155.334107 436.189775 149.270877 
C 436.189775 143.207647 433.780828 137.391935 429.493477 133.104584 
C 425.206126 128.817233 419.390414 126.408286 413.327184 126.408286 
C 407.263954 126.408286 401.448242 128.817233 397.160891 133.104584 
C 392.87354 137.391935 390.464594 143.207647 390.464594 149.270877 
C 390.464594 155.334107 392.87354 161.149819 397.160891 165.43717 
C 401.448242 169.724521 407.263954 172.133468 413.327184 172.133468 
z
" clip-path="url(#p867e4517ce)" style="fill: #c70039; fill-opacity: 0.99; stroke: #c70039; stroke-opacity: 0.99"/>
    <path d="M 338.527597 128.213739 
C 344.476891 128.213739 350.183318 125.850059 354.390104 121.643273 
C 358.59689 117.436487 360.96057 111.73006 360.96057 105.780766 
C 360.96057 99.831472 358.59689 94.125045 354.390104 89.918259 
C 350.183318 85.711472 344.476891 83.347793 338.527597 83.347793 
C 332.578303 83.347793 326.871875 85.711472 322.665089 89.918259 
C 318.458303 94.125045 316.094624 99.831472 316.094624 105.780766 
C 316.094624 111.73006 318.458303 117.436487 322.665089 121.643273 
C 326.871875 125.850059 332.578303 128.213739 338.527597 128.213739 
z
" clip-path="url(#p867e4517ce)" style="fill: #c70039; fill-opacity: 0.99; stroke: #c70039; stroke-opacity: 0.99"/>
    <path d="M 252.629613 118.87848 
C 258.514369 118.87848 264.158894 116.540441 268.320045 112.37929 
C 272.481197 108.218138 274.819236 102.573614 274.819236 96.688857 
C 274.819236 90.8041 272.481197 85.159575 268.320045 80.998424 
C 264.158894 76.837272 258.514369 74.499234 252.629613 74.499234 
C 246.744856 74.499234 241.100331 76.837272 236.93918 80.998424 
C 232.778028 85.159575 230.43999 90.8041 230.43999 96.688857 
C 230.43999 102.573614 232.778028 108.218138 236.93918 112.37929 
C 241.100331 116.540441 246.744856 118.87848 252.629613 118.87848 
z
" clip-path="url(#p867e4517ce)" style="fill: #c70039; fill-opacity: 0.99; stroke: #c70039; stroke-opacity: 0.99"/>
    <path d="M 170.485784 145.756857 
C 176.370541 145.756857 182.015066 143.418818 186.176217 139.257667 
C 190.337369 135.096515 192.675408 129.451991 192.675408 123.567234 
C 192.675408 117.682477 190.337369 112.037952 186.176217 107.876801 
C 182.015066 103.715649 176.370541 101.377611 170.485784 101.377611 
C 164.601028 101.377611 158.956503 103.715649 154.795352 107.876801 
C 150.6342 112.037952 148.296161 117.682477 148.296161 123.567234 
C 148.296161 129.451991 150.6342 135.096515 154.795352 139.257667 
C 158.956503 143.418818 164.601028 145.756857 170.485784 145.756857 
z
" clip-path="url(#p867e4517ce)" style="fill: #c70039; fill-opacity: 0.99; stroke: #c70039; stroke-opacity: 0.99"/>
    <path d="M 106.299537 202.885961 
C 111.899989 202.885961 117.271814 200.660878 121.231931 196.700761 
C 125.192048 192.740643 127.417131 187.368818 127.417131 181.768367 
C 127.417131 176.167916 125.192048 170.79609 121.231931 166.835973 
C 117.271814 162.875856 111.899989 160.650773 106.299537 160.650773 
C 100.699086 160.650773 95.327261 162.875856 91.367144 166.835973 
C 87.407027 170.79609 85.181944 176.167916 85.181944 181.768367 
C 85.181944 187.368818 87.407027 192.740643 91.367144 196.700761 
C 95.327261 200.660878 100.699086 202.885961 106.299537 202.885961 
z
" clip-path="url(#p867e4517ce)" style="fill: #c70039; fill-opacity: 0.99; stroke: #c70039; stroke-opacity: 0.99"/>
    <path d="M 71.169231 281.978693 
C 76.672173 281.978693 81.95047 279.792351 85.841638 275.901184 
C 89.732805 272.010016 91.919147 266.731719 91.919147 261.228777 
C 91.919147 255.725835 89.732805 250.447538 85.841638 246.55637 
C 81.95047 242.665202 76.672173 240.47886 71.169231 240.47886 
C 65.666289 240.47886 60.387992 242.665202 56.496824 246.55637 
C 52.605656 250.447538 50.419314 255.725835 50.419314 261.228777 
C 50.419314 266.731719 52.605656 272.010016 56.496824 275.901184 
C 60.387992 279.792351 65.666289 281.978693 71.169231 281.978693 
z
" clip-path="url(#p867e4517ce)" style="fill: #c70039; fill-opacity: 0.99; stroke: #c70039; stroke-opacity: 0.99"/>
    <path d="M 71.169243 368.757395 
C 76.618738 368.757395 81.84577 366.592288 85.699145 362.738913 
C 89.55252 358.885538 91.717627 353.658507 91.717627 348.209012 
C 91.717627 342.759516 89.55252 337.532485 85.699145 333.67911 
C 81.84577 329.825735 76.618738 327.660628 71.169243 327.660628 
C 65.719748 327.660628 60.492717 329.825735 56.639342 333.67911 
C 52.785967 337.532485 50.620859 342.759516 50.620859 348.209012 
C 50.620859 353.658507 52.785967 358.885538 56.639342 362.738913 
C 60.492717 366.592288 65.719748 368.757395 71.169243 368.757395 
z
" clip-path="url(#p867e4517ce)" style="fill: #c70039; fill-opacity: 0.99; stroke: #c70039; stroke-opacity: 0.99"/>
    <path d="M 106.29955 448.178812 
C 111.73871 448.178812 116.955829 446.01781 120.801896 442.171743 
C 124.647964 438.325676 126.808965 433.108557 126.808965 427.669396 
C 126.808965 422.230236 124.647964 417.013117 120.801896 413.16705 
C 116.955829 409.320983 111.73871 407.159981 106.29955 407.159981 
C 100.860389 407.159981 95.64327 409.320983 91.797203 413.16705 
C 87.951136 417.013117 85.790135 422.230236 85.790135 427.669396 
C 85.790135 433.108557 87.951136 438.325676 91.797203 442.171743 
C 95.64327 446.01781 100.860389 448.178812 106.29955 448.178812 
z
" clip-path="url(#p867e4517ce)" style="fill: #c70039; fill-opacity: 0.99; stroke: #c70039; stroke-opacity: 0.99"/>
    <path d="M 170.485815 506.17815 
C 175.871459 506.17815 181.037246 504.038411 184.845472 500.230186 
C 188.653697 496.421961 190.793436 491.256174 190.793436 485.87053 
C 190.793436 480.484886 188.653697 475.319099 184.845472 471.510873 
C 181.037246 467.702648 175.871459 465.562909 170.485815 465.562909 
C 165.100171 465.562909 159.934384 467.702648 156.126159 471.510873 
C 152.317934 475.319099 150.178195 480.484886 150.178195 485.87053 
C 150.178195 491.256174 152.317934 496.421961 156.126159 500.230186 
C 159.934384 504.038411 165.100171 506.17815 170.485815 506.17815 
z
" clip-path="url(#p867e4517ce)" style="fill: #c70039; fill-opacity: 0.99; stroke: #c70039; stroke-opacity: 0.99"/>
    <path d="M 252.62965 532.859333 
C 257.963001 532.859333 263.078629 530.740371 266.849878 526.969122 
C 270.621126 523.197874 272.740089 518.082245 272.740089 512.748894 
C 272.740089 507.415543 270.621126 502.299915 266.849878 498.528666 
C 263.078629 494.757418 257.963001 492.638455 252.62965 492.638455 
C 247.296299 492.638455 242.18067 494.757418 238.409422 498.528666 
C 234.638173 502.299915 232.51921 507.415543 232.51921 512.748894 
C 232.51921 518.082245 234.638173 523.197874 238.409422 526.969122 
C 242.18067 530.740371 247.296299 532.859333 252.62965 532.859333 
z
" clip-path="url(#p867e4517ce)" style="fill: #c70039; fill-opacity: 0.99; stroke: #c70039; stroke-opacity: 0.99"/>
    <path d="M 338.527628 523.417691 
C 343.768231 523.417691 348.794899 521.335577 352.500566 517.629911 
C 356.206232 513.924244 358.288346 508.897576 358.288346 503.656973 
C 358.288346 498.416369 356.206232 493.389701 352.500566 489.684034 
C 348.794899 485.978368 343.768231 483.896254 338.527628 483.896254 
C 333.287024 483.896254 328.260356 485.978368 324.55469 489.684034 
C 320.849023 493.389701 318.766909 498.416369 318.766909 503.656973 
C 318.766909 508.897576 320.849023 513.924244 324.55469 517.629911 
C 328.260356 521.335577 333.287024 523.417691 338.527628 523.417691 
z
" clip-path="url(#p867e4517ce)" style="fill: #c70039; fill-opacity: 0.99; stroke: #c70039; stroke-opacity: 0.99"/>
    <path d="M 413.327221 479.770473 
C 418.526167 479.770473 423.512876 477.70491 427.189086 474.028701 
C 430.865295 470.352491 432.930858 465.365782 432.930858 460.166836 
C 432.930858 454.967891 430.865295 449.981182 427.189086 446.304972 
C 423.512876 442.628763 418.526167 440.5632 413.327221 440.5632 
C 408.128276 440.5632 403.141567 442.628763 399.465357 446.304972 
C 395.789148 449.981182 393.723585 454.967891 393.723585 460.166836 
C 393.723585 465.365782 395.789148 470.352491 399.465357 474.028701 
C 403.141567 477.70491 408.128276 479.770473 413.327221 479.770473 
z
" clip-path="url(#p867e4517ce)" style="fill: #c70039; fill-opacity: 0.99; stroke: #c70039; stroke-opacity: 0.99"/>
    <path d="M 464.094888 409.163265 
C 469.230524 409.163265 474.156509 407.122855 477.787952 403.491412 
C 481.419395 399.859969 483.459805 394.933984 483.459805 389.798348 
C 483.459805 384.662712 481.419395 379.736727 477.787952 376.105284 
C 474.156509 372.473841 469.230524 370.433432 464.094888 370.433432 
C 458.959252 370.433432 454.033267 372.473841 450.401824 376.105284 
C 446.770381 379.736727 444.729971 384.662712 444.729971 389.798348 
C 444.729971 394.933984 446.770381 399.859969 450.401824 403.491412 
C 454.033267 407.122855 458.959252 409.163265 464.094888 409.163265 
z
" clip-path="url(#p867e4517ce)" style="fill: #c70039; fill-opacity: 0.99; stroke: #c70039; stroke-opacity: 0.99"/>
   </g>
   <g id="text_1">
    <g id="patch_2">
     <path d="M 450.690249 313.034032 
L 513.414624 313.034032 
L 513.414624 296.403719 
L 450.690249 296.403719 
z
" clip-path="url(#p867e4517ce)" style="fill: #ffffff; opacity: 0.7; stroke: #000000; stroke-linejoin: miter"/>
    </g>
    <g clip-path="url(#p867e4517ce)">
     <!-- Chuck Jones -->
     <g transform="translate(454.650249 307.202313)scale(0.09 -0.09)">
      <defs>
       <path id="DejaVuSans-43" d="M 4122 4306 
L 4122 3641 
Q 3803 3938 3442 4084 
Q 3081 4231 2675 4231 
Q 1875 4231 1450 3742 
Q 1025 3253 1025 2328 
Q 1025 1406 1450 917 
Q 1875 428 2675 428 
Q 3081 428 3442 575 
Q 3803 722 4122 1019 
L 4122 359 
Q 3791 134 3420 21 
Q 3050 -91 2638 -91 
Q 1578 -91 968 557 
Q 359 1206 359 2328 
Q 359 3453 968 4101 
Q 1578 4750 2638 4750 
Q 3056 4750 3426 4639 
Q 3797 4528 4122 4306 
z
" transform="scale(0.015625)"/>
       <path id="DejaVuSans-68" d="M 3513 2113 
L 3513 0 
L 2938 0 
L 2938 2094 
Q 2938 2591 2744 2837 
Q 2550 3084 2163 3084 
Q 1697 3084 1428 2787 
Q 1159 2491 1159 1978 
L 1159 0 
L 581 0 
L 581 4863 
L 1159 4863 
L 1159 2956 
Q 1366 3272 1645 3428 
Q 1925 3584 2291 3584 
Q 2894 3584 3203 3211 
Q 3513 2838 3513 2113 
z
" transform="scale(0.015625)"/>
       <path id="DejaVuSans-75" d="M 544 1381 
L 544 3500 
L 1119 3500 
L 1119 1403 
Q 1119 906 1312 657 
Q 1506 409 1894 409 
Q 2359 409 2629 706 
Q 2900 1003 2900 1516 
L 2900 3500 
L 3475 3500 
L 3475 0 
L 2900 0 
L 2900 538 
Q 2691 219 2414 64 
Q 2138 -91 1772 -91 
Q 1169 -91 856 284 
Q 544 659 544 1381 
z
M 1991 3584 
L 1991 3584 
z
" transform="scale(0.015625)"/>
       <path id="DejaVuSans-63" d="M 3122 3366 
L 3122 2828 
Q 2878 2963 2633 3030 
Q 2388 3097 2138 3097 
Q 1578 3097 1268 2742 
Q 959 2388 959 1747 
Q 959 1106 1268 751 
Q 1578 397 2138 397 
Q 2388 397 2633 464 
Q 2878 531 3122 666 
L 3122 134 
Q 2881 22 2623 -34 
Q 2366 -91 2075 -91 
Q 1284 -91 818 406 
Q 353 903 353 1747 
Q 353 2603 823 3093 
Q 1294 3584 2113 3584 
Q 2378 3584 2631 3529 
Q 2884 3475 3122 3366 
z
" transform="scale(0.015625)"/>
       <path id="DejaVuSans-6b" d="M 581 4863 
L 1159 4863 
L 1159 1991 
L 2875 3500 
L 3609 3500 
L 1753 1863 
L 3688 0 
L 2938 0 
L 1159 1709 
L 1159 0 
L 581 0 
L 581 4863 
z
" transform="scale(0.015625)"/>
       <path id="DejaVuSans-20" transform="scale(0.015625)"/>
       <path id="DejaVuSans-4a" d="M 628 4666 
L 1259 4666 
L 1259 325 
Q 1259 -519 939 -900 
Q 619 -1281 -91 -1281 
L -331 -1281 
L -331 -750 
L -134 -750 
Q 284 -750 456 -515 
Q 628 -281 628 325 
L 628 4666 
z
" transform="scale(0.015625)"/>
       <path id="DejaVuSans-6f" d="M 1959 3097 
Q 1497 3097 1228 2736 
Q 959 2375 959 1747 
Q 959 1119 1226 758 
Q 1494 397 1959 397 
Q 2419 397 2687 759 
Q 2956 1122 2956 1747 
Q 2956 2369 2687 2733 
Q 2419 3097 1959 3097 
z
M 1959 3584 
Q 2709 3584 3137 3096 
Q 3566 2609 3566 1747 
Q 3566 888 3137 398 
Q 2709 -91 1959 -91 
Q 1206 -91 779 398 
Q 353 888 353 1747 
Q 353 2609 779 3096 
Q 1206 3584 1959 3584 
z
" transform="scale(0.015625)"/>
       <path id="DejaVuSans-6e" d="M 3513 2113 
L 3513 0 
L 2938 0 
L 2938 2094 
Q 2938 2591 2744 2837 
Q 2550 3084 2163 3084 
Q 1697 3084 1428 2787 
Q 1159 2491 1159 1978 
L 1159 0 
L 581 0 
L 581 3500 
L 1159 3500 
L 1159 2956 
Q 1366 3272 1645 3428 
Q 1925 3584 2291 3584 
Q 2894 3584 3203 3211 
Q 3513 2838 3513 2113 
z
" transform="scale(0.015625)"/>
       <path id="DejaVuSans-65" d="M 3597 1894 
L 3597 1613 
L 953 1613 
Q 991 1019 1311 708 
Q 1631 397 2203 397 
Q 2534 397 2845 478 
Q 3156 559 3463 722 
L 3463 178 
Q 3153 47 2828 -22 
Q 2503 -91 2169 -91 
Q 1331 -91 842 396 
Q 353 884 353 1716 
Q 353 2575 817 3079 
Q 1281 3584 2069 3584 
Q 2775 3584 3186 3129 
Q 3597 2675 3597 1894 
z
M 3022 2063 
Q 3016 2534 2758 2815 
Q 2500 3097 2075 3097 
Q 1594 3097 1305 2825 
Q 1016 2553 972 2059 
L 3022 2063 
z
" transform="scale(0.015625)"/>
       <path id="DejaVuSans-73" d="M 2834 3397 
L 2834 2853 
Q 2591 2978 2328 3040 
Q 2066 3103 1784 3103 
Q 1356 3103 1142 2972 
Q 928 2841 928 2578 
Q 928 2378 1081 2264 
Q 1234 2150 1697 2047 
L 1894 2003 
Q 2506 1872 2764 1633 
Q 3022 1394 3022 966 
Q 3022 478 2636 193 
Q 2250 -91 1575 -91 
Q 1294 -91 989 -36 
Q 684 19 347 128 
L 347 722 
Q 666 556 975 473 
Q 1284 391 1588 391 
Q 1994 391 2212 530 
Q 2431 669 2431 922 
Q 2431 1156 2273 1281 
Q 2116 1406 1581 1522 
L 1381 1569 
Q 847 1681 609 1914 
Q 372 2147 372 2553 
Q 372 3047 722 3315 
Q 1072 3584 1716 3584 
Q 2034 3584 2315 3537 
Q 2597 3491 2834 3397 
z
" transform="scale(0.015625)"/>
      </defs>
      <use xlink:href="#DejaVuSans-43"/>
      <use xlink:href="#DejaVuSans-68" x="69.824219"/>
      <use xlink:href="#DejaVuSans-75" x="133.203125"/>
      <use xlink:href="#DejaVuSans-63" x="196.582031"/>
      <use xlink:href="#DejaVuSans-6b" x="251.5625"/>
      <use xlink:href="#DejaVuSans-20" x="309.472656"/>
      <use xlink:href="#DejaVuSans-4a" x="341.259766"/>
      <use xlink:href="#DejaVuSans-6f" x="370.751953"/>
      <use xlink:href="#DejaVuSans-6e" x="431.933594"/>
      <use xlink:href="#DejaVuSans-65" x="495.3125"/>
      <use xlink:href="#DejaVuSans-73" x="556.835938"/>
     </g>
    </g>
   </g>
   <g id="text_2">
    <g id="patch_3">
     <path d="M 434.473613 227.954528 
L 493.716113 227.954528 
L 493.716113 211.324215 
L 434.473613 211.324215 
z
" clip-path="url(#p867e4517ce)" style="fill: #ffffff; opacity: 0.7; stroke: #000000; stroke-linejoin: miter"/>
    </g>
    <g clip-path="url(#p867e4517ce)">
     <!-- Friz Freleng -->
     <g transform="translate(438.433613 222.122809)scale(0.09 -0.09)">
      <defs>
       <path id="DejaVuSans-46" d="M 628 4666 
L 3309 4666 
L 3309 4134 
L 1259 4134 
L 1259 2759 
L 3109 2759 
L 3109 2228 
L 1259 2228 
L 1259 0 
L 628 0 
L 628 4666 
z
" transform="scale(0.015625)"/>
       <path id="DejaVuSans-72" d="M 2631 2963 
Q 2534 3019 2420 3045 
Q 2306 3072 2169 3072 
Q 1681 3072 1420 2755 
Q 1159 2438 1159 1844 
L 1159 0 
L 581 0 
L 581 3500 
L 1159 3500 
L 1159 2956 
Q 1341 3275 1631 3429 
Q 1922 3584 2338 3584 
Q 2397 3584 2469 3576 
Q 2541 3569 2628 3553 
L 2631 2963 
z
" transform="scale(0.015625)"/>
       <path id="DejaVuSans-69" d="M 603 3500 
L 1178 3500 
L 1178 0 
L 603 0 
L 603 3500 
z
M 603 4863 
L 1178 4863 
L 1178 4134 
L 603 4134 
L 603 4863 
z
" transform="scale(0.015625)"/>
       <path id="DejaVuSans-7a" d="M 353 3500 
L 3084 3500 
L 3084 2975 
L 922 459 
L 3084 459 
L 3084 0 
L 275 0 
L 275 525 
L 2438 3041 
L 353 3041 
L 353 3500 
z
" transform="scale(0.015625)"/>
       <path id="DejaVuSans-6c" d="M 603 4863 
L 1178 4863 
L 1178 0 
L 603 0 
L 603 4863 
z
" transform="scale(0.015625)"/>
       <path id="DejaVuSans-67" d="M 2906 1791 
Q 2906 2416 2648 2759 
Q 2391 3103 1925 3103 
Q 1463 3103 1205 2759 
Q 947 2416 947 1791 
Q 947 1169 1205 825 
Q 1463 481 1925 481 
Q 2391 481 2648 825 
Q 2906 1169 2906 1791 
z
M 3481 434 
Q 3481 -459 3084 -895 
Q 2688 -1331 1869 -1331 
Q 1566 -1331 1297 -1286 
Q 1028 -1241 775 -1147 
L 775 -588 
Q 1028 -725 1275 -790 
Q 1522 -856 1778 -856 
Q 2344 -856 2625 -561 
Q 2906 -266 2906 331 
L 2906 616 
Q 2728 306 2450 153 
Q 2172 0 1784 0 
Q 1141 0 747 490 
Q 353 981 353 1791 
Q 353 2603 747 3093 
Q 1141 3584 1784 3584 
Q 2172 3584 2450 3431 
Q 2728 3278 2906 2969 
L 2906 3500 
L 3481 3500 
L 3481 434 
z
" transform="scale(0.015625)"/>
      </defs>
      <use xlink:href="#DejaVuSans-46"/>
      <use xlink:href="#DejaVuSans-72" x="50.269531"/>
      <use xlink:href="#DejaVuSans-69" x="91.382812"/>
      <use xlink:href="#DejaVuSans-7a" x="119.166016"/>
      <use xlink:href="#DejaVuSans-20" x="171.65625"/>
      <use xlink:href="#DejaVuSans-46" x="203.443359"/>
      <use xlink:href="#DejaVuSans-72" x="253.712891"/>
      <use xlink:href="#DejaVuSans-65" x="292.576172"/>
      <use xlink:href="#DejaVuSans-6c" x="354.099609"/>
      <use xlink:href="#DejaVuSans-65" x="381.882812"/>
      <use xlink:href="#DejaVuSans-6e" x="443.40625"/>
      <use xlink:href="#DejaVuSans-67" x="506.785156"/>
     </g>
    </g>
   </g>
   <g id="text_3">
    <g id="patch_4">
     <path d="M 375.925153 157.586033 
L 450.729216 157.586033 
L 450.729216 140.955721 
L 375.925153 140.955721 
z
" clip-path="url(#p867e4517ce)" style="fill: #ffffff; opacity: 0.7; stroke: #000000; stroke-linejoin: miter"/>
    </g>
    <g clip-path="url(#p867e4517ce)">
     <!-- Clint Eastwood -->
     <g transform="translate(379.885153 151.754315)scale(0.09 -0.09)">
      <defs>
       <path id="DejaVuSans-74" d="M 1172 4494 
L 1172 3500 
L 2356 3500 
L 2356 3053 
L 1172 3053 
L 1172 1153 
Q 1172 725 1289 603 
Q 1406 481 1766 481 
L 2356 481 
L 2356 0 
L 1766 0 
Q 1100 0 847 248 
Q 594 497 594 1153 
L 594 3053 
L 172 3053 
L 172 3500 
L 594 3500 
L 594 4494 
L 1172 4494 
z
" transform="scale(0.015625)"/>
       <path id="DejaVuSans-45" d="M 628 4666 
L 3578 4666 
L 3578 4134 
L 1259 4134 
L 1259 2753 
L 3481 2753 
L 3481 2222 
L 1259 2222 
L 1259 531 
L 3634 531 
L 3634 0 
L 628 0 
L 628 4666 
z
" transform="scale(0.015625)"/>
       <path id="DejaVuSans-61" d="M 2194 1759 
Q 1497 1759 1228 1600 
Q 959 1441 959 1056 
Q 959 750 1161 570 
Q 1363 391 1709 391 
Q 2188 391 2477 730 
Q 2766 1069 2766 1631 
L 2766 1759 
L 2194 1759 
z
M 3341 1997 
L 3341 0 
L 2766 0 
L 2766 531 
Q 2569 213 2275 61 
Q 1981 -91 1556 -91 
Q 1019 -91 701 211 
Q 384 513 384 1019 
Q 384 1609 779 1909 
Q 1175 2209 1959 2209 
L 2766 2209 
L 2766 2266 
Q 2766 2663 2505 2880 
Q 2244 3097 1772 3097 
Q 1472 3097 1187 3025 
Q 903 2953 641 2809 
L 641 3341 
Q 956 3463 1253 3523 
Q 1550 3584 1831 3584 
Q 2591 3584 2966 3190 
Q 3341 2797 3341 1997 
z
" transform="scale(0.015625)"/>
       <path id="DejaVuSans-77" d="M 269 3500 
L 844 3500 
L 1563 769 
L 2278 3500 
L 2956 3500 
L 3675 769 
L 4391 3500 
L 4966 3500 
L 4050 0 
L 3372 0 
L 2619 2869 
L 1863 0 
L 1184 0 
L 269 3500 
z
" transform="scale(0.015625)"/>
       <path id="DejaVuSans-64" d="M 2906 2969 
L 2906 4863 
L 3481 4863 
L 3481 0 
L 2906 0 
L 2906 525 
Q 2725 213 2448 61 
Q 2172 -91 1784 -91 
Q 1150 -91 751 415 
Q 353 922 353 1747 
Q 353 2572 751 3078 
Q 1150 3584 1784 3584 
Q 2172 3584 2448 3432 
Q 2725 3281 2906 2969 
z
M 947 1747 
Q 947 1113 1208 752 
Q 1469 391 1925 391 
Q 2381 391 2643 752 
Q 2906 1113 2906 1747 
Q 2906 2381 2643 2742 
Q 2381 3103 1925 3103 
Q 1469 3103 1208 2742 
Q 947 2381 947 1747 
z
" transform="scale(0.015625)"/>
      </defs>
      <use xlink:href="#DejaVuSans-43"/>
      <use xlink:href="#DejaVuSans-6c" x="69.824219"/>
      <use xlink:href="#DejaVuSans-69" x="97.607422"/>
      <use xlink:href="#DejaVuSans-6e" x="125.390625"/>
      <use xlink:href="#DejaVuSans-74" x="188.769531"/>
      <use xlink:href="#DejaVuSans-20" x="227.978516"/>
      <use xlink:href="#DejaVuSans-45" x="259.765625"/>
      <use xlink:href="#DejaVuSans-61" x="322.949219"/>
      <use xlink:href="#DejaVuSans-73" x="384.228516"/>
      <use xlink:href="#DejaVuSans-74" x="436.328125"/>
      <use xlink:href="#DejaVuSans-77" x="475.537109"/>
      <use xlink:href="#DejaVuSans-6f" x="557.324219"/>
      <use xlink:href="#DejaVuSans-6f" x="618.505859"/>
      <use xlink:href="#DejaVuSans-64" x="679.6875"/>
     </g>
    </g>
   </g>
   <g id="text_4">
    <g id="patch_5">
     <path d="M 297.818065 114.095922 
L 379.237128 114.095922 
L 379.237128 97.46561 
L 297.818065 97.46561 
z
" clip-path="url(#p867e4517ce)" style="fill: #ffffff; opacity: 0.7; stroke: #000000; stroke-linejoin: miter"/>
    </g>
    <g clip-path="url(#p867e4517ce)">
     <!-- Alfred Hitchcock -->
     <g transform="translate(301.778065 108.264203)scale(0.09 -0.09)">
      <defs>
       <path id="DejaVuSans-41" d="M 2188 4044 
L 1331 1722 
L 3047 1722 
L 2188 4044 
z
M 1831 4666 
L 2547 4666 
L 4325 0 
L 3669 0 
L 3244 1197 
L 1141 1197 
L 716 0 
L 50 0 
L 1831 4666 
z
" transform="scale(0.015625)"/>
       <path id="DejaVuSans-66" d="M 2375 4863 
L 2375 4384 
L 1825 4384 
Q 1516 4384 1395 4259 
Q 1275 4134 1275 3809 
L 1275 3500 
L 2222 3500 
L 2222 3053 
L 1275 3053 
L 1275 0 
L 697 0 
L 697 3053 
L 147 3053 
L 147 3500 
L 697 3500 
L 697 3744 
Q 697 4328 969 4595 
Q 1241 4863 1831 4863 
L 2375 4863 
z
" transform="scale(0.015625)"/>
       <path id="DejaVuSans-48" d="M 628 4666 
L 1259 4666 
L 1259 2753 
L 3553 2753 
L 3553 4666 
L 4184 4666 
L 4184 0 
L 3553 0 
L 3553 2222 
L 1259 2222 
L 1259 0 
L 628 0 
L 628 4666 
z
" transform="scale(0.015625)"/>
      </defs>
      <use xlink:href="#DejaVuSans-41"/>
      <use xlink:href="#DejaVuSans-6c" x="68.408203"/>
      <use xlink:href="#DejaVuSans-66" x="96.191406"/>
      <use xlink:href="#DejaVuSans-72" x="131.396484"/>
      <use xlink:href="#DejaVuSans-65" x="170.259766"/>
      <use xlink:href="#DejaVuSans-64" x="231.783203"/>
      <use xlink:href="#DejaVuSans-20" x="295.259766"/>
      <use xlink:href="#DejaVuSans-48" x="327.046875"/>
      <use xlink:href="#DejaVuSans-69" x="402.242188"/>
      <use xlink:href="#DejaVuSans-74" x="430.025391"/>
      <use xlink:href="#DejaVuSans-63" x="469.234375"/>
      <use xlink:href="#DejaVuSans-68" x="524.214844"/>
      <use xlink:href="#DejaVuSans-63" x="587.59375"/>
      <use xlink:href="#DejaVuSans-6f" x="642.574219"/>
      <use xlink:href="#DejaVuSans-63" x="703.755859"/>
      <use xlink:href="#DejaVuSans-6b" x="758.736328"/>
     </g>
    </g>
   </g>
   <g id="text_5">
    <g id="patch_6">
     <path d="M 214.408441 105.004013 
L 290.850784 105.004013 
L 290.850784 88.3737 
L 214.408441 88.3737 
z
" clip-path="url(#p867e4517ce)" style="fill: #ffffff; opacity: 0.7; stroke: #000000; stroke-linejoin: miter"/>
    </g>
    <g clip-path="url(#p867e4517ce)">
     <!-- Joseph Barbera -->
     <g transform="translate(218.368441 99.172294)scale(0.09 -0.09)">
      <defs>
       <path id="DejaVuSans-70" d="M 1159 525 
L 1159 -1331 
L 581 -1331 
L 581 3500 
L 1159 3500 
L 1159 2969 
Q 1341 3281 1617 3432 
Q 1894 3584 2278 3584 
Q 2916 3584 3314 3078 
Q 3713 2572 3713 1747 
Q 3713 922 3314 415 
Q 2916 -91 2278 -91 
Q 1894 -91 1617 61 
Q 1341 213 1159 525 
z
M 3116 1747 
Q 3116 2381 2855 2742 
Q 2594 3103 2138 3103 
Q 1681 3103 1420 2742 
Q 1159 2381 1159 1747 
Q 1159 1113 1420 752 
Q 1681 391 2138 391 
Q 2594 391 2855 752 
Q 3116 1113 3116 1747 
z
" transform="scale(0.015625)"/>
       <path id="DejaVuSans-42" d="M 1259 2228 
L 1259 519 
L 2272 519 
Q 2781 519 3026 730 
Q 3272 941 3272 1375 
Q 3272 1813 3026 2020 
Q 2781 2228 2272 2228 
L 1259 2228 
z
M 1259 4147 
L 1259 2741 
L 2194 2741 
Q 2656 2741 2882 2914 
Q 3109 3088 3109 3444 
Q 3109 3797 2882 3972 
Q 2656 4147 2194 4147 
L 1259 4147 
z
M 628 4666 
L 2241 4666 
Q 2963 4666 3353 4366 
Q 3744 4066 3744 3513 
Q 3744 3084 3544 2831 
Q 3344 2578 2956 2516 
Q 3422 2416 3680 2098 
Q 3938 1781 3938 1306 
Q 3938 681 3513 340 
Q 3088 0 2303 0 
L 628 0 
L 628 4666 
z
" transform="scale(0.015625)"/>
       <path id="DejaVuSans-62" d="M 3116 1747 
Q 3116 2381 2855 2742 
Q 2594 3103 2138 3103 
Q 1681 3103 1420 2742 
Q 1159 2381 1159 1747 
Q 1159 1113 1420 752 
Q 1681 391 2138 391 
Q 2594 391 2855 752 
Q 3116 1113 3116 1747 
z
M 1159 2969 
Q 1341 3281 1617 3432 
Q 1894 3584 2278 3584 
Q 2916 3584 3314 3078 
Q 3713 2572 3713 1747 
Q 3713 922 3314 415 
Q 2916 -91 2278 -91 
Q 1894 -91 1617 61 
Q 1341 213 1159 525 
L 1159 0 
L 581 0 
L 581 4863 
L 1159 4863 
L 1159 2969 
z
" transform="scale(0.015625)"/>
      </defs>
      <use xlink:href="#DejaVuSans-4a"/>
      <use xlink:href="#DejaVuSans-6f" x="29.492188"/>
      <use xlink:href="#DejaVuSans-73" x="90.673828"/>
      <use xlink:href="#DejaVuSans-65" x="142.773438"/>
      <use xlink:href="#DejaVuSans-70" x="204.296875"/>
      <use xlink:href="#DejaVuSans-68" x="267.773438"/>
      <use xlink:href="#DejaVuSans-20" x="331.152344"/>
      <use xlink:href="#DejaVuSans-42" x="362.939453"/>
      <use xlink:href="#DejaVuSans-61" x="431.542969"/>
      <use xlink:href="#DejaVuSans-72" x="492.822266"/>
      <use xlink:href="#DejaVuSans-62" x="533.935547"/>
      <use xlink:href="#DejaVuSans-65" x="597.412109"/>
      <use xlink:href="#DejaVuSans-72" x="658.935547"/>
      <use xlink:href="#DejaVuSans-61" x="700.048828"/>
     </g>
    </g>
   </g>
   <g id="text_6">
    <g id="patch_7">
     <path d="M 134.002738 131.88239 
L 206.968831 131.88239 
L 206.968831 115.252078 
L 134.002738 115.252078 
z
" clip-path="url(#p867e4517ce)" style="fill: #ffffff; opacity: 0.7; stroke: #000000; stroke-linejoin: miter"/>
    </g>
    <g clip-path="url(#p867e4517ce)">
     <!-- William Hanna -->
     <g transform="translate(137.962738 126.050671)scale(0.09 -0.09)">
      <defs>
       <path id="DejaVuSans-57" d="M 213 4666 
L 850 4666 
L 1831 722 
L 2809 4666 
L 3519 4666 
L 4500 722 
L 5478 4666 
L 6119 4666 
L 4947 0 
L 4153 0 
L 3169 4050 
L 2175 0 
L 1381 0 
L 213 4666 
z
" transform="scale(0.015625)"/>
       <path id="DejaVuSans-6d" d="M 3328 2828 
Q 3544 3216 3844 3400 
Q 4144 3584 4550 3584 
Q 5097 3584 5394 3201 
Q 5691 2819 5691 2113 
L 5691 0 
L 5113 0 
L 5113 2094 
Q 5113 2597 4934 2840 
Q 4756 3084 4391 3084 
Q 3944 3084 3684 2787 
Q 3425 2491 3425 1978 
L 3425 0 
L 2847 0 
L 2847 2094 
Q 2847 2600 2669 2842 
Q 2491 3084 2119 3084 
Q 1678 3084 1418 2786 
Q 1159 2488 1159 1978 
L 1159 0 
L 581 0 
L 581 3500 
L 1159 3500 
L 1159 2956 
Q 1356 3278 1631 3431 
Q 1906 3584 2284 3584 
Q 2666 3584 2933 3390 
Q 3200 3197 3328 2828 
z
" transform="scale(0.015625)"/>
      </defs>
      <use xlink:href="#DejaVuSans-57"/>
      <use xlink:href="#DejaVuSans-69" x="96.626953"/>
      <use xlink:href="#DejaVuSans-6c" x="124.410156"/>
      <use xlink:href="#DejaVuSans-6c" x="152.193359"/>
      <use xlink:href="#DejaVuSans-69" x="179.976562"/>
      <use xlink:href="#DejaVuSans-61" x="207.759766"/>
      <use xlink:href="#DejaVuSans-6d" x="269.039062"/>
      <use xlink:href="#DejaVuSans-20" x="366.451172"/>
      <use xlink:href="#DejaVuSans-48" x="398.238281"/>
      <use xlink:href="#DejaVuSans-61" x="473.433594"/>
      <use xlink:href="#DejaVuSans-6e" x="534.712891"/>
      <use xlink:href="#DejaVuSans-6e" x="598.091797"/>
      <use xlink:href="#DejaVuSans-61" x="661.470703"/>
     </g>
    </g>
   </g>
   <g id="text_7">
    <g id="patch_8">
     <path d="M 68.934069 190.083523 
L 143.665006 190.083523 
L 143.665006 173.453211 
L 68.934069 173.453211 
z
" clip-path="url(#p867e4517ce)" style="fill: #ffffff; opacity: 0.7; stroke: #000000; stroke-linejoin: miter"/>
    </g>
    <g clip-path="url(#p867e4517ce)">
     <!-- Howard Hawks -->
     <g transform="translate(72.894069 184.251804)scale(0.09 -0.09)">
      <use xlink:href="#DejaVuSans-48"/>
      <use xlink:href="#DejaVuSans-6f" x="75.195312"/>
      <use xlink:href="#DejaVuSans-77" x="136.376953"/>
      <use xlink:href="#DejaVuSans-61" x="218.164062"/>
      <use xlink:href="#DejaVuSans-72" x="279.443359"/>
      <use xlink:href="#DejaVuSans-64" x="318.806641"/>
      <use xlink:href="#DejaVuSans-20" x="382.283203"/>
      <use xlink:href="#DejaVuSans-48" x="414.070312"/>
      <use xlink:href="#DejaVuSans-61" x="489.265625"/>
      <use xlink:href="#DejaVuSans-77" x="550.544922"/>
      <use xlink:href="#DejaVuSans-6b" x="632.332031"/>
      <use xlink:href="#DejaVuSans-73" x="690.242188"/>
     </g>
    </g>
   </g>
   <g id="text_8">
    <g id="patch_9">
     <path d="M 29.644075 269.543933 
L 112.694387 269.543933 
L 112.694387 252.913621 
L 29.644075 252.913621 
z
" clip-path="url(#p867e4517ce)" style="fill: #ffffff; opacity: 0.7; stroke: #000000; stroke-linejoin: miter"/>
    </g>
    <g clip-path="url(#p867e4517ce)">
     <!-- Henry Hathaway -->
     <g transform="translate(33.604075 263.712214)scale(0.09 -0.09)">
      <defs>
       <path id="DejaVuSans-79" d="M 2059 -325 
Q 1816 -950 1584 -1140 
Q 1353 -1331 966 -1331 
L 506 -1331 
L 506 -850 
L 844 -850 
Q 1081 -850 1212 -737 
Q 1344 -625 1503 -206 
L 1606 56 
L 191 3500 
L 800 3500 
L 1894 763 
L 2988 3500 
L 3597 3500 
L 2059 -325 
z
" transform="scale(0.015625)"/>
      </defs>
      <use xlink:href="#DejaVuSans-48"/>
      <use xlink:href="#DejaVuSans-65" x="75.195312"/>
      <use xlink:href="#DejaVuSans-6e" x="136.71875"/>
      <use xlink:href="#DejaVuSans-72" x="200.097656"/>
      <use xlink:href="#DejaVuSans-79" x="241.210938"/>
      <use xlink:href="#DejaVuSans-20" x="300.390625"/>
      <use xlink:href="#DejaVuSans-48" x="332.177734"/>
      <use xlink:href="#DejaVuSans-61" x="407.373047"/>
      <use xlink:href="#DejaVuSans-74" x="468.652344"/>
      <use xlink:href="#DejaVuSans-68" x="507.861328"/>
      <use xlink:href="#DejaVuSans-61" x="571.240234"/>
      <use xlink:href="#DejaVuSans-77" x="632.519531"/>
      <use xlink:href="#DejaVuSans-61" x="714.306641"/>
      <use xlink:href="#DejaVuSans-79" x="775.585938"/>
     </g>
    </g>
   </g>
   <g id="text_9">
    <g id="patch_10">
     <path d="M 31.261978 356.524168 
L 111.076509 356.524168 
L 111.076509 339.893855 
L 31.261978 339.893855 
z
" clip-path="url(#p867e4517ce)" style="fill: #ffffff; opacity: 0.7; stroke: #000000; stroke-linejoin: miter"/>
    </g>
    <g clip-path="url(#p867e4517ce)">
     <!-- Martin Scorsese -->
     <g transform="translate(35.221978 350.692449)scale(0.09 -0.09)">
      <defs>
       <path id="DejaVuSans-4d" d="M 628 4666 
L 1569 4666 
L 2759 1491 
L 3956 4666 
L 4897 4666 
L 4897 0 
L 4281 0 
L 4281 4097 
L 3078 897 
L 2444 897 
L 1241 4097 
L 1241 0 
L 628 0 
L 628 4666 
z
" transform="scale(0.015625)"/>
       <path id="DejaVuSans-53" d="M 3425 4513 
L 3425 3897 
Q 3066 4069 2747 4153 
Q 2428 4238 2131 4238 
Q 1616 4238 1336 4038 
Q 1056 3838 1056 3469 
Q 1056 3159 1242 3001 
Q 1428 2844 1947 2747 
L 2328 2669 
Q 3034 2534 3370 2195 
Q 3706 1856 3706 1288 
Q 3706 609 3251 259 
Q 2797 -91 1919 -91 
Q 1588 -91 1214 -16 
Q 841 59 441 206 
L 441 856 
Q 825 641 1194 531 
Q 1563 422 1919 422 
Q 2459 422 2753 634 
Q 3047 847 3047 1241 
Q 3047 1584 2836 1778 
Q 2625 1972 2144 2069 
L 1759 2144 
Q 1053 2284 737 2584 
Q 422 2884 422 3419 
Q 422 4038 858 4394 
Q 1294 4750 2059 4750 
Q 2388 4750 2728 4690 
Q 3069 4631 3425 4513 
z
" transform="scale(0.015625)"/>
      </defs>
      <use xlink:href="#DejaVuSans-4d"/>
      <use xlink:href="#DejaVuSans-61" x="86.279297"/>
      <use xlink:href="#DejaVuSans-72" x="147.558594"/>
      <use xlink:href="#DejaVuSans-74" x="188.671875"/>
      <use xlink:href="#DejaVuSans-69" x="227.880859"/>
      <use xlink:href="#DejaVuSans-6e" x="255.664062"/>
      <use xlink:href="#DejaVuSans-20" x="319.042969"/>
      <use xlink:href="#DejaVuSans-53" x="350.830078"/>
      <use xlink:href="#DejaVuSans-63" x="414.306641"/>
      <use xlink:href="#DejaVuSans-6f" x="469.287109"/>
      <use xlink:href="#DejaVuSans-72" x="530.46875"/>
      <use xlink:href="#DejaVuSans-73" x="571.582031"/>
      <use xlink:href="#DejaVuSans-65" x="623.681641"/>
      <use xlink:href="#DejaVuSans-73" x="685.205078"/>
      <use xlink:href="#DejaVuSans-65" x="737.304688"/>
     </g>
    </g>
   </g>
   <g id="text_10">
    <g id="patch_11">
     <path d="M 63.998847 435.984553 
L 148.600253 435.984553 
L 148.600253 419.35424 
L 63.998847 419.35424 
z
" clip-path="url(#p867e4517ce)" style="fill: #ffffff; opacity: 0.7; stroke: #000000; stroke-linejoin: miter"/>
    </g>
    <g clip-path="url(#p867e4517ce)">
     <!-- Steven Spielberg -->
     <g transform="translate(67.958847 430.152834)scale(0.09 -0.09)">
      <defs>
       <path id="DejaVuSans-76" d="M 191 3500 
L 800 3500 
L 1894 563 
L 2988 3500 
L 3597 3500 
L 2284 0 
L 1503 0 
L 191 3500 
z
" transform="scale(0.015625)"/>
      </defs>
      <use xlink:href="#DejaVuSans-53"/>
      <use xlink:href="#DejaVuSans-74" x="63.476562"/>
      <use xlink:href="#DejaVuSans-65" x="102.685547"/>
      <use xlink:href="#DejaVuSans-76" x="164.208984"/>
      <use xlink:href="#DejaVuSans-65" x="223.388672"/>
      <use xlink:href="#DejaVuSans-6e" x="284.912109"/>
      <use xlink:href="#DejaVuSans-20" x="348.291016"/>
      <use xlink:href="#DejaVuSans-53" x="380.078125"/>
      <use xlink:href="#DejaVuSans-70" x="443.554688"/>
      <use xlink:href="#DejaVuSans-69" x="507.03125"/>
      <use xlink:href="#DejaVuSans-65" x="534.814453"/>
      <use xlink:href="#DejaVuSans-6c" x="596.337891"/>
      <use xlink:href="#DejaVuSans-62" x="624.121094"/>
      <use xlink:href="#DejaVuSans-65" x="687.597656"/>
      <use xlink:href="#DejaVuSans-72" x="749.121094"/>
      <use xlink:href="#DejaVuSans-67" x="788.484375"/>
     </g>
    </g>
   </g>
   <g id="text_11">
    <g id="patch_12">
     <path d="M 134.876753 494.185686 
L 206.094878 494.185686 
L 206.094878 477.555373 
L 134.876753 477.555373 
z
" clip-path="url(#p867e4517ce)" style="fill: #ffffff; opacity: 0.7; stroke: #000000; stroke-linejoin: miter"/>
    </g>
    <g clip-path="url(#p867e4517ce)">
     <!-- Mervyn LeRoy -->
     <g transform="translate(138.836753 488.353967)scale(0.09 -0.09)">
      <defs>
       <path id="DejaVuSans-4c" d="M 628 4666 
L 1259 4666 
L 1259 531 
L 3531 531 
L 3531 0 
L 628 0 
L 628 4666 
z
" transform="scale(0.015625)"/>
       <path id="DejaVuSans-52" d="M 2841 2188 
Q 3044 2119 3236 1894 
Q 3428 1669 3622 1275 
L 4263 0 
L 3584 0 
L 2988 1197 
Q 2756 1666 2539 1819 
Q 2322 1972 1947 1972 
L 1259 1972 
L 1259 0 
L 628 0 
L 628 4666 
L 2053 4666 
Q 2853 4666 3247 4331 
Q 3641 3997 3641 3322 
Q 3641 2881 3436 2590 
Q 3231 2300 2841 2188 
z
M 1259 4147 
L 1259 2491 
L 2053 2491 
Q 2509 2491 2742 2702 
Q 2975 2913 2975 3322 
Q 2975 3731 2742 3939 
Q 2509 4147 2053 4147 
L 1259 4147 
z
" transform="scale(0.015625)"/>
      </defs>
      <use xlink:href="#DejaVuSans-4d"/>
      <use xlink:href="#DejaVuSans-65" x="86.279297"/>
      <use xlink:href="#DejaVuSans-72" x="147.802734"/>
      <use xlink:href="#DejaVuSans-76" x="188.916016"/>
      <use xlink:href="#DejaVuSans-79" x="248.095703"/>
      <use xlink:href="#DejaVuSans-6e" x="307.275391"/>
      <use xlink:href="#DejaVuSans-20" x="370.654297"/>
      <use xlink:href="#DejaVuSans-4c" x="402.441406"/>
      <use xlink:href="#DejaVuSans-65" x="456.404297"/>
      <use xlink:href="#DejaVuSans-52" x="517.927734"/>
      <use xlink:href="#DejaVuSans-6f" x="582.910156"/>
      <use xlink:href="#DejaVuSans-79" x="644.091797"/>
     </g>
    </g>
   </g>
   <g id="text_12">
    <g id="patch_13">
     <path d="M 211.953165 521.06405 
L 293.306134 521.06405 
L 293.306134 504.433738 
L 211.953165 504.433738 
z
" clip-path="url(#p867e4517ce)" style="fill: #ffffff; opacity: 0.7; stroke: #000000; stroke-linejoin: miter"/>
    </g>
    <g clip-path="url(#p867e4517ce)">
     <!-- Fred Zinnemann -->
     <g transform="translate(215.913165 515.232332)scale(0.09 -0.09)">
      <defs>
       <path id="DejaVuSans-5a" d="M 359 4666 
L 4025 4666 
L 4025 4184 
L 1075 531 
L 4097 531 
L 4097 0 
L 288 0 
L 288 481 
L 3238 4134 
L 359 4134 
L 359 4666 
z
" transform="scale(0.015625)"/>
      </defs>
      <use xlink:href="#DejaVuSans-46"/>
      <use xlink:href="#DejaVuSans-72" x="50.269531"/>
      <use xlink:href="#DejaVuSans-65" x="89.132812"/>
      <use xlink:href="#DejaVuSans-64" x="150.65625"/>
      <use xlink:href="#DejaVuSans-20" x="214.132812"/>
      <use xlink:href="#DejaVuSans-5a" x="245.919922"/>
      <use xlink:href="#DejaVuSans-69" x="314.425781"/>
      <use xlink:href="#DejaVuSans-6e" x="342.208984"/>
      <use xlink:href="#DejaVuSans-6e" x="405.587891"/>
      <use xlink:href="#DejaVuSans-65" x="468.966797"/>
      <use xlink:href="#DejaVuSans-6d" x="530.490234"/>
      <use xlink:href="#DejaVuSans-61" x="627.902344"/>
      <use xlink:href="#DejaVuSans-6e" x="689.181641"/>
      <use xlink:href="#DejaVuSans-6e" x="752.560547"/>
     </g>
    </g>
   </g>
   <g id="text_13">
    <g id="patch_14">
     <path d="M 306.725987 511.972129 
L 370.329268 511.972129 
L 370.329268 495.341816 
L 306.725987 495.341816 
z
" clip-path="url(#p867e4517ce)" style="fill: #ffffff; opacity: 0.7; stroke: #000000; stroke-linejoin: miter"/>
    </g>
    <g clip-path="url(#p867e4517ce)">
     <!-- Woody Allen -->
     <g transform="translate(310.685987 506.14041)scale(0.09 -0.09)">
      <use xlink:href="#DejaVuSans-57"/>
      <use xlink:href="#DejaVuSans-6f" x="93.001953"/>
      <use xlink:href="#DejaVuSans-6f" x="154.183594"/>
      <use xlink:href="#DejaVuSans-64" x="215.365234"/>
      <use xlink:href="#DejaVuSans-79" x="278.841797"/>
      <use xlink:href="#DejaVuSans-20" x="338.021484"/>
      <use xlink:href="#DejaVuSans-41" x="369.808594"/>
      <use xlink:href="#DejaVuSans-6c" x="438.216797"/>
      <use xlink:href="#DejaVuSans-6c" x="466"/>
      <use xlink:href="#DejaVuSans-65" x="493.783203"/>
      <use xlink:href="#DejaVuSans-6e" x="555.306641"/>
     </g>
    </g>
   </g>
   <g id="text_14">
    <g id="patch_15">
     <path d="M 376.778081 468.481993 
L 449.876362 468.481993 
L 449.876362 451.85168 
L 376.778081 451.85168 
z
" clip-path="url(#p867e4517ce)" style="fill: #ffffff; opacity: 0.7; stroke: #000000; stroke-linejoin: miter"/>
    </g>
    <g clip-path="url(#p867e4517ce)">
     <!-- Anthony Mann -->
     <g transform="translate(380.738081 462.650274)scale(0.09 -0.09)">
      <use xlink:href="#DejaVuSans-41"/>
      <use xlink:href="#DejaVuSans-6e" x="68.408203"/>
      <use xlink:href="#DejaVuSans-74" x="131.787109"/>
      <use xlink:href="#DejaVuSans-68" x="170.996094"/>
      <use xlink:href="#DejaVuSans-6f" x="234.375"/>
      <use xlink:href="#DejaVuSans-6e" x="295.556641"/>
      <use xlink:href="#DejaVuSans-79" x="358.935547"/>
      <use xlink:href="#DejaVuSans-20" x="418.115234"/>
      <use xlink:href="#DejaVuSans-4d" x="449.902344"/>
      <use xlink:href="#DejaVuSans-61" x="536.181641"/>
      <use xlink:href="#DejaVuSans-6e" x="597.460938"/>
      <use xlink:href="#DejaVuSans-6e" x="660.839844"/>
     </g>
    </g>
   </g>
   <g id="text_15">
    <g id="patch_16">
     <path d="M 432.699654 398.113505 
L 495.490122 398.113505 
L 495.490122 381.483192 
L 432.699654 381.483192 
z
" clip-path="url(#p867e4517ce)" style="fill: #ffffff; opacity: 0.7; stroke: #000000; stroke-linejoin: miter"/>
    </g>
    <g clip-path="url(#p867e4517ce)">
     <!-- Raoul Walsh -->
     <g transform="translate(436.659654 392.281786)scale(0.09 -0.09)">
      <use xlink:href="#DejaVuSans-52"/>
      <use xlink:href="#DejaVuSans-61" x="67.232422"/>
      <use xlink:href="#DejaVuSans-6f" x="128.511719"/>
      <use xlink:href="#DejaVuSans-75" x="189.693359"/>
      <use xlink:href="#DejaVuSans-6c" x="253.072266"/>
      <use xlink:href="#DejaVuSans-20" x="280.855469"/>
      <use xlink:href="#DejaVuSans-57" x="312.642578"/>
      <use xlink:href="#DejaVuSans-61" x="405.144531"/>
      <use xlink:href="#DejaVuSans-6c" x="466.423828"/>
      <use xlink:href="#DejaVuSans-73" x="494.207031"/>
      <use xlink:href="#DejaVuSans-68" x="546.306641"/>
     </g>
    </g>
   </g>
   <g id="text_16">
    <!-- Impactful directors for Comedy genre - Importance rank: 2 -->
    <g transform="translate(108.255937 16.318125)scale(0.12 -0.12)">
     <defs>
      <path id="DejaVuSans-49" d="M 628 4666 
L 1259 4666 
L 1259 0 
L 628 0 
L 628 4666 
z
" transform="scale(0.015625)"/>
      <path id="DejaVuSans-2d" d="M 313 2009 
L 1997 2009 
L 1997 1497 
L 313 1497 
L 313 2009 
z
" transform="scale(0.015625)"/>
      <path id="DejaVuSans-3a" d="M 750 794 
L 1409 794 
L 1409 0 
L 750 0 
L 750 794 
z
M 750 3309 
L 1409 3309 
L 1409 2516 
L 750 2516 
L 750 3309 
z
" transform="scale(0.015625)"/>
      <path id="DejaVuSans-32" d="M 1228 531 
L 3431 531 
L 3431 0 
L 469 0 
L 469 531 
Q 828 903 1448 1529 
Q 2069 2156 2228 2338 
Q 2531 2678 2651 2914 
Q 2772 3150 2772 3378 
Q 2772 3750 2511 3984 
Q 2250 4219 1831 4219 
Q 1534 4219 1204 4116 
Q 875 4013 500 3803 
L 500 4441 
Q 881 4594 1212 4672 
Q 1544 4750 1819 4750 
Q 2544 4750 2975 4387 
Q 3406 4025 3406 3419 
Q 3406 3131 3298 2873 
Q 3191 2616 2906 2266 
Q 2828 2175 2409 1742 
Q 1991 1309 1228 531 
z
" transform="scale(0.015625)"/>
     </defs>
     <use xlink:href="#DejaVuSans-49"/>
     <use xlink:href="#DejaVuSans-6d" x="29.492188"/>
     <use xlink:href="#DejaVuSans-70" x="126.904297"/>
     <use xlink:href="#DejaVuSans-61" x="190.380859"/>
     <use xlink:href="#DejaVuSans-63" x="251.660156"/>
     <use xlink:href="#DejaVuSans-74" x="306.640625"/>
     <use xlink:href="#DejaVuSans-66" x="345.849609"/>
     <use xlink:href="#DejaVuSans-75" x="381.054688"/>
     <use xlink:href="#DejaVuSans-6c" x="444.433594"/>
     <use xlink:href="#DejaVuSans-20" x="472.216797"/>
     <use xlink:href="#DejaVuSans-64" x="504.003906"/>
     <use xlink:href="#DejaVuSans-69" x="567.480469"/>
     <use xlink:href="#DejaVuSans-72" x="595.263672"/>
     <use xlink:href="#DejaVuSans-65" x="634.126953"/>
     <use xlink:href="#DejaVuSans-63" x="695.650391"/>
     <use xlink:href="#DejaVuSans-74" x="750.630859"/>
     <use xlink:href="#DejaVuSans-6f" x="789.839844"/>
     <use xlink:href="#DejaVuSans-72" x="851.021484"/>
     <use xlink:href="#DejaVuSans-73" x="892.134766"/>
     <use xlink:href="#DejaVuSans-20" x="944.234375"/>
     <use xlink:href="#DejaVuSans-66" x="976.021484"/>
     <use xlink:href="#DejaVuSans-6f" x="1011.226562"/>
     <use xlink:href="#DejaVuSans-72" x="1072.408203"/>
     <use xlink:href="#DejaVuSans-20" x="1113.521484"/>
     <use xlink:href="#DejaVuSans-43" x="1145.308594"/>
     <use xlink:href="#DejaVuSans-6f" x="1215.132812"/>
     <use xlink:href="#DejaVuSans-6d" x="1276.314453"/>
     <use xlink:href="#DejaVuSans-65" x="1373.726562"/>
     <use xlink:href="#DejaVuSans-64" x="1435.25"/>
     <use xlink:href="#DejaVuSans-79" x="1498.726562"/>
     <use xlink:href="#DejaVuSans-20" x="1557.90625"/>
     <use xlink:href="#DejaVuSans-67" x="1589.693359"/>
     <use xlink:href="#DejaVuSans-65" x="1653.169922"/>
     <use xlink:href="#DejaVuSans-6e" x="1714.693359"/>
     <use xlink:href="#DejaVuSans-72" x="1778.072266"/>
     <use xlink:href="#DejaVuSans-65" x="1816.935547"/>
     <use xlink:href="#DejaVuSans-20" x="1878.458984"/>
     <use xlink:href="#DejaVuSans-2d" x="1910.246094"/>
     <use xlink:href="#DejaVuSans-20" x="1946.330078"/>
     <use xlink:href="#DejaVuSans-49" x="1978.117188"/>
     <use xlink:href="#DejaVuSans-6d" x="2007.609375"/>
     <use xlink:href="#DejaVuSans-70" x="2105.021484"/>
     <use xlink:href="#DejaVuSans-6f" x="2168.498047"/>
     <use xlink:href="#DejaVuSans-72" x="2229.679688"/>
     <use xlink:href="#DejaVuSans-74" x="2270.792969"/>
     <use xlink:href="#DejaVuSans-61" x="2310.001953"/>
     <use xlink:href="#DejaVuSans-6e" x="2371.28125"/>
     <use xlink:href="#DejaVuSans-63" x="2434.660156"/>
     <use xlink:href="#DejaVuSans-65" x="2489.640625"/>
     <use xlink:href="#DejaVuSans-20" x="2551.164062"/>
     <use xlink:href="#DejaVuSans-72" x="2582.951172"/>
     <use xlink:href="#DejaVuSans-61" x="2624.064453"/>
     <use xlink:href="#DejaVuSans-6e" x="2685.34375"/>
     <use xlink:href="#DejaVuSans-6b" x="2748.722656"/>
     <use xlink:href="#DejaVuSans-3a" x="2806.632812"/>
     <use xlink:href="#DejaVuSans-20" x="2840.324219"/>
     <use xlink:href="#DejaVuSans-32" x="2872.111328"/>
    </g>
   </g>
  </g>
 </g>
 <defs>
  <clipPath id="p867e4517ce">
   <rect x="7.2" y="22.318125" width="554.4" height="554.4"/>
  </clipPath>
 </defs>
</svg>
