<?xml version="1.0" encoding="utf-8" standalone="no"?>
<!DOCTYPE svg PUBLIC "-//W3C//DTD SVG 1.1//EN"
  "http://www.w3.org/Graphics/SVG/1.1/DTD/svg11.dtd">
<svg xmlns:xlink="http://www.w3.org/1999/xlink" width="576pt" height="576pt" viewBox="0 0 576 576" xmlns="http://www.w3.org/2000/svg" version="1.1">
 <metadata>
  <rdf:RDF xmlns:dc="http://purl.org/dc/elements/1.1/" xmlns:cc="http://creativecommons.org/ns#" xmlns:rdf="http://www.w3.org/1999/02/22-rdf-syntax-ns#">
   <cc:Work>
    <dc:type rdf:resource="http://purl.org/dc/dcmitype/StillImage"/>
    <dc:date>2022-12-22T16:13:14.971314</dc:date>
    <dc:format>image/svg+xml</dc:format>
    <dc:creator>
     <cc:Agent>
      <dc:title>Matplotlib v3.5.2, https://matplotlib.org/</dc:title>
     </cc:Agent>
    </dc:creator>
   </cc:Work>
  </rdf:RDF>
 </metadata>
 <defs>
  <style type="text/css">*{stroke-linejoin: round; stroke-linecap: butt}</style>
 </defs>
 <g id="figure_1">
  <g id="patch_1">
   <path d="M 0 576 
L 576 576 
L 576 0 
L 0 0 
z
" style="fill: #ffffff"/>
  </g>
  <g id="axes_1">
   <g id="LineCollection_1">
    <path d="M 500.30088 288 
L 481.703099 200.793508 
" clip-path="url(#p140f983b81)" style="fill: none; stroke: #000000; stroke-opacity: 0.3; stroke-width: 5"/>
   </g>
   <g id="PathCollection_1">
    <path d="M 500.30088 315.386128 
C 507.563766 315.386128 514.530161 312.500553 519.665797 307.364917 
C 524.801433 302.229281 527.687008 295.262886 527.687008 288 
C 527.687008 280.737114 524.801433 273.770719 519.665797 268.635083 
C 514.530161 263.499447 507.563766 260.613872 500.30088 260.613872 
C 493.037994 260.613872 486.071599 263.499447 480.935963 268.635083 
C 475.800328 273.770719 472.914752 280.737114 472.914752 288 
C 472.914752 295.262886 475.800328 302.229281 480.935963 307.364917 
C 486.071599 312.500553 493.037994 315.386128 500.30088 315.386128 
z
" clip-path="url(#p140f983b81)" style="fill: #d62728; fill-opacity: 0.99; stroke: #d62728; stroke-opacity: 0.99"/>
    <path d="M 481.703099 227.900366 
C 488.891922 227.900366 495.787277 225.044216 500.870542 219.960951 
C 505.953807 214.877686 508.809957 207.982331 508.809957 200.793508 
C 508.809957 193.604686 505.953807 186.709331 500.870542 181.626066 
C 495.787277 176.542801 488.891922 173.686651 481.703099 173.686651 
C 474.514277 173.686651 467.618922 176.542801 462.535657 181.626066 
C 457.452392 186.709331 454.596242 193.604686 454.596242 200.793508 
C 454.596242 207.982331 457.452392 214.877686 462.535657 219.960951 
C 467.618922 225.044216 474.514277 227.900366 481.703099 227.900366 
z
" clip-path="url(#p140f983b81)" style="fill: #d62728; fill-opacity: 0.99; stroke: #d62728; stroke-opacity: 0.99"/>
    <path d="M 429.125496 155.141859 
C 436.147029 155.141859 442.881923 152.352174 447.846896 147.387201 
C 452.811869 142.422228 455.601553 135.687334 455.601553 128.665802 
C 455.601553 121.644269 452.811869 114.909375 447.846896 109.944402 
C 442.881923 104.979429 436.147029 102.189744 429.125496 102.189744 
C 422.103964 102.189744 415.36907 104.979429 410.404097 109.944402 
C 405.439123 114.909375 402.649439 121.644269 402.649439 128.665802 
C 402.649439 135.687334 405.439123 142.422228 410.404097 147.387201 
C 415.36907 152.352174 422.103964 155.141859 429.125496 155.141859 
z
" clip-path="url(#p140f983b81)" style="fill: #d62728; fill-opacity: 0.99; stroke: #d62728; stroke-opacity: 0.99"/>
    <path d="M 351.65922 108.59156 
C 358.157524 108.59156 364.390549 106.009757 368.985544 101.414762 
C 373.580539 96.819767 376.162342 90.586742 376.162342 84.088438 
C 376.162342 77.590134 373.580539 71.357109 368.985544 66.762114 
C 364.390549 62.167119 358.157524 59.585315 351.65922 59.585315 
C 345.160916 59.585315 338.927891 62.167119 334.332896 66.762114 
C 329.737901 71.357109 327.156098 77.590134 327.156098 84.088438 
C 327.156098 90.586742 329.737901 96.819767 334.332896 101.414762 
C 338.927891 106.009757 345.160916 108.59156 351.65922 108.59156 
z
" clip-path="url(#p140f983b81)" style="fill: #d62728; fill-opacity: 0.99; stroke: #d62728; stroke-opacity: 0.99"/>
    <path d="M 262.698877 98.950821 
C 269.11191 98.950821 275.263145 96.402896 279.797844 91.868197 
C 284.332543 87.333498 286.880468 81.182264 286.880468 74.769231 
C 286.880468 68.356198 284.332543 62.204963 279.797844 57.670264 
C 275.263145 53.135565 269.11191 50.58764 262.698877 50.58764 
C 256.285844 50.58764 250.134609 53.135565 245.59991 57.670264 
C 241.065211 62.204963 238.517287 68.356198 238.517287 74.769231 
C 238.517287 81.182264 241.065211 87.333498 245.59991 91.868197 
C 250.134609 96.402896 256.285844 98.950821 262.698877 98.950821 
z
" clip-path="url(#p140f983b81)" style="fill: #d62728; fill-opacity: 0.99; stroke: #d62728; stroke-opacity: 0.99"/>
    <path d="M 177.62653 126.44546 
C 184.024792 126.44546 190.161859 123.903404 194.686113 119.37915 
C 199.210367 114.854896 201.752423 108.717829 201.752423 102.319567 
C 201.752423 95.921306 199.210367 89.784239 194.686113 85.259985 
C 190.161859 80.735731 184.024792 78.193674 177.62653 78.193674 
C 171.228269 78.193674 165.091202 80.735731 160.566948 85.259985 
C 156.042693 89.784239 153.500637 95.921306 153.500637 102.319567 
C 153.500637 108.717829 156.042693 114.854896 160.566948 119.37915 
C 165.091202 123.903404 171.228269 126.44546 177.62653 126.44546 
z
" clip-path="url(#p140f983b81)" style="fill: #d62728; fill-opacity: 0.99; stroke: #d62728; stroke-opacity: 0.99"/>
    <path d="M 111.151972 185.752744 
C 117.45771 185.752744 123.506031 183.247448 127.964861 178.788618 
C 132.423691 174.329787 134.928987 168.281467 134.928987 161.975729 
C 134.928987 155.669991 132.423691 149.62167 127.964861 145.16284 
C 123.506031 140.70401 117.45771 138.198713 111.151972 138.198713 
C 104.846234 138.198713 98.797913 140.70401 94.339083 145.16284 
C 89.880253 149.62167 87.374956 155.669991 87.374956 161.975729 
C 87.374956 168.281467 89.880253 174.329787 94.339083 178.788618 
C 98.797913 183.247448 104.846234 185.752744 111.151972 185.752744 
z
" clip-path="url(#p140f983b81)" style="fill: #d62728; fill-opacity: 0.99; stroke: #d62728; stroke-opacity: 0.99"/>
    <path d="M 74.769231 266.221294 
C 80.815502 266.221294 86.614948 263.819085 90.890307 259.543725 
C 95.165666 255.268366 97.567875 249.46892 97.567875 243.422649 
C 97.567875 237.376378 95.165666 231.576932 90.890307 227.301573 
C 86.614948 223.026213 80.815502 220.624004 74.769231 220.624004 
C 68.72296 220.624004 62.923514 223.026213 58.648154 227.301573 
C 54.372795 231.576932 51.970586 237.376378 51.970586 243.422649 
C 51.970586 249.46892 54.372795 255.268366 58.648154 259.543725 
C 62.923514 263.819085 68.72296 266.221294 74.769231 266.221294 
z
" clip-path="url(#p140f983b81)" style="fill: #d62728; fill-opacity: 0.99; stroke: #d62728; stroke-opacity: 0.99"/>
    <path d="M 74.769244 355.319505 
C 80.800523 355.319505 86.585589 352.923252 90.850348 348.658494 
C 95.115106 344.393735 97.511359 338.608669 97.511359 332.577389 
C 97.511359 326.54611 95.115106 320.761044 90.850348 316.496285 
C 86.585589 312.231527 80.800523 309.835274 74.769244 309.835274 
C 68.737964 309.835274 62.952898 312.231527 58.68814 316.496285 
C 54.423381 320.761044 52.027128 326.54611 52.027128 332.577389 
C 52.027128 338.608669 54.423381 344.393735 58.68814 348.658494 
C 62.952898 352.923252 68.737964 355.319505 74.769244 355.319505 
z
" clip-path="url(#p140f983b81)" style="fill: #d62728; fill-opacity: 0.99; stroke: #d62728; stroke-opacity: 0.99"/>
    <path d="M 111.151985 436.694538 
C 117.164206 436.694538 122.930992 434.305857 127.182275 430.054574 
C 131.433557 425.803291 133.822238 420.036506 133.822238 414.024284 
C 133.822238 408.012063 131.433557 402.245277 127.182275 397.993994 
C 122.930992 393.742711 117.164206 391.35403 111.151985 391.35403 
C 105.139763 391.35403 99.372977 393.742711 95.121695 397.993994 
C 90.870412 402.245277 88.481731 408.012063 88.481731 414.024284 
C 88.481731 420.036506 90.870412 425.803291 95.121695 430.054574 
C 99.372977 434.305857 105.139763 436.694538 111.151985 436.694538 
z
" clip-path="url(#p140f983b81)" style="fill: #d62728; fill-opacity: 0.99; stroke: #d62728; stroke-opacity: 0.99"/>
    <path d="M 177.626562 495.733738 
C 183.475164 495.733738 189.085009 493.410064 193.220595 489.274478 
C 197.356181 485.138893 199.679855 479.529047 199.679855 473.680446 
C 199.679855 467.831844 197.356181 462.221999 193.220595 458.086413 
C 189.085009 453.950827 183.475164 451.627153 177.626562 451.627153 
C 171.777961 451.627153 166.168115 453.950827 162.032529 458.086413 
C 157.896943 462.221999 155.573269 467.831844 155.573269 473.680446 
C 155.573269 479.529047 157.896943 485.138893 162.032529 489.274478 
C 166.168115 493.410064 171.777961 495.733738 177.626562 495.733738 
z
" clip-path="url(#p140f983b81)" style="fill: #d62728; fill-opacity: 0.99; stroke: #d62728; stroke-opacity: 0.99"/>
    <path d="M 262.698916 522.965035 
C 268.46291 522.965035 273.991603 520.674976 278.067362 516.599216 
C 282.143122 512.523456 284.433182 506.994764 284.433182 501.230769 
C 284.433182 495.466775 282.143122 489.938082 278.067362 485.862322 
C 273.991603 481.786563 268.46291 479.496503 262.698916 479.496503 
C 256.934921 479.496503 251.406228 481.786563 247.330469 485.862322 
C 243.254709 489.938082 240.96465 495.466775 240.96465 501.230769 
C 240.96465 506.994764 243.254709 512.523456 247.330469 516.599216 
C 251.406228 520.674976 256.934921 522.965035 262.698916 522.965035 
z
" clip-path="url(#p140f983b81)" style="fill: #d62728; fill-opacity: 0.99; stroke: #d62728; stroke-opacity: 0.99"/>
    <path d="M 351.659252 512.970057 
C 357.244034 512.970057 362.600829 510.7512 366.549866 506.802163 
C 370.498903 502.853126 372.71776 497.496331 372.71776 491.91155 
C 372.71776 486.326768 370.498903 480.969973 366.549866 477.020936 
C 362.600829 473.071899 357.244034 470.853042 351.659252 470.853042 
C 346.07447 470.853042 340.717675 473.071899 336.768638 477.020936 
C 332.819601 480.969973 330.600744 486.326768 330.600744 491.91155 
C 330.600744 497.496331 332.819601 502.853126 336.768638 506.802163 
C 340.717675 510.7512 346.07447 512.970057 351.659252 512.970057 
z
" clip-path="url(#p140f983b81)" style="fill: #d62728; fill-opacity: 0.99; stroke: #d62728; stroke-opacity: 0.99"/>
    <path d="M 429.125535 466.707405 
C 434.263379 466.707405 439.191483 464.666118 442.824488 461.033113 
C 446.457492 457.400108 448.49878 452.472005 448.49878 447.33416 
C 448.49878 442.196315 446.457492 437.268212 442.824488 433.635207 
C 439.191483 430.002202 434.263379 427.960915 429.125535 427.960915 
C 423.98769 427.960915 419.059586 430.002202 415.426582 433.635207 
C 411.793577 437.268212 409.752289 442.196315 409.752289 447.33416 
C 409.752289 452.472005 411.793577 457.400108 415.426582 461.033113 
C 419.059586 464.666118 423.98769 466.707405 429.125535 466.707405 
z
" clip-path="url(#p140f983b81)" style="fill: #d62728; fill-opacity: 0.99; stroke: #d62728; stroke-opacity: 0.99"/>
    <path d="M 481.703125 394.571376 
C 486.838761 394.571376 491.764746 392.530967 495.396189 388.899524 
C 499.027632 385.268081 501.068042 380.342096 501.068042 375.20646 
C 501.068042 370.070824 499.027632 365.144839 495.396189 361.513396 
C 491.764746 357.881953 486.838761 355.841543 481.703125 355.841543 
C 476.567489 355.841543 471.641504 357.881953 468.010061 361.513396 
C 464.378618 365.144839 462.338208 370.070824 462.338208 375.20646 
C 462.338208 380.342096 464.378618 385.268081 468.010061 388.899524 
C 471.641504 392.530967 476.567489 394.571376 481.703125 394.571376 
z
" clip-path="url(#p140f983b81)" style="fill: #d62728; fill-opacity: 0.99; stroke: #d62728; stroke-opacity: 0.99"/>
   </g>
   <g id="text_1">
    <g id="patch_2">
     <path d="M 475.29424 296.315156 
L 525.307521 296.315156 
L 525.307521 279.684844 
L 475.29424 279.684844 
z
" clip-path="url(#p140f983b81)" style="fill: #ffffff; opacity: 0.7; stroke: #000000; stroke-linejoin: miter"/>
    </g>
    <g clip-path="url(#p140f983b81)">
     <!-- Joel Coen -->
     <g transform="translate(479.25424 290.483437)scale(0.09 -0.09)">
      <defs>
       <path id="DejaVuSans-4a" d="M 628 4666 
L 1259 4666 
L 1259 325 
Q 1259 -519 939 -900 
Q 619 -1281 -91 -1281 
L -331 -1281 
L -331 -750 
L -134 -750 
Q 284 -750 456 -515 
Q 628 -281 628 325 
L 628 4666 
z
" transform="scale(0.015625)"/>
       <path id="DejaVuSans-6f" d="M 1959 3097 
Q 1497 3097 1228 2736 
Q 959 2375 959 1747 
Q 959 1119 1226 758 
Q 1494 397 1959 397 
Q 2419 397 2687 759 
Q 2956 1122 2956 1747 
Q 2956 2369 2687 2733 
Q 2419 3097 1959 3097 
z
M 1959 3584 
Q 2709 3584 3137 3096 
Q 3566 2609 3566 1747 
Q 3566 888 3137 398 
Q 2709 -91 1959 -91 
Q 1206 -91 779 398 
Q 353 888 353 1747 
Q 353 2609 779 3096 
Q 1206 3584 1959 3584 
z
" transform="scale(0.015625)"/>
       <path id="DejaVuSans-65" d="M 3597 1894 
L 3597 1613 
L 953 1613 
Q 991 1019 1311 708 
Q 1631 397 2203 397 
Q 2534 397 2845 478 
Q 3156 559 3463 722 
L 3463 178 
Q 3153 47 2828 -22 
Q 2503 -91 2169 -91 
Q 1331 -91 842 396 
Q 353 884 353 1716 
Q 353 2575 817 3079 
Q 1281 3584 2069 3584 
Q 2775 3584 3186 3129 
Q 3597 2675 3597 1894 
z
M 3022 2063 
Q 3016 2534 2758 2815 
Q 2500 3097 2075 3097 
Q 1594 3097 1305 2825 
Q 1016 2553 972 2059 
L 3022 2063 
z
" transform="scale(0.015625)"/>
       <path id="DejaVuSans-6c" d="M 603 4863 
L 1178 4863 
L 1178 0 
L 603 0 
L 603 4863 
z
" transform="scale(0.015625)"/>
       <path id="DejaVuSans-20" transform="scale(0.015625)"/>
       <path id="DejaVuSans-43" d="M 4122 4306 
L 4122 3641 
Q 3803 3938 3442 4084 
Q 3081 4231 2675 4231 
Q 1875 4231 1450 3742 
Q 1025 3253 1025 2328 
Q 1025 1406 1450 917 
Q 1875 428 2675 428 
Q 3081 428 3442 575 
Q 3803 722 4122 1019 
L 4122 359 
Q 3791 134 3420 21 
Q 3050 -91 2638 -91 
Q 1578 -91 968 557 
Q 359 1206 359 2328 
Q 359 3453 968 4101 
Q 1578 4750 2638 4750 
Q 3056 4750 3426 4639 
Q 3797 4528 4122 4306 
z
" transform="scale(0.015625)"/>
       <path id="DejaVuSans-6e" d="M 3513 2113 
L 3513 0 
L 2938 0 
L 2938 2094 
Q 2938 2591 2744 2837 
Q 2550 3084 2163 3084 
Q 1697 3084 1428 2787 
Q 1159 2491 1159 1978 
L 1159 0 
L 581 0 
L 581 3500 
L 1159 3500 
L 1159 2956 
Q 1366 3272 1645 3428 
Q 1925 3584 2291 3584 
Q 2894 3584 3203 3211 
Q 3513 2838 3513 2113 
z
" transform="scale(0.015625)"/>
      </defs>
      <use xlink:href="#DejaVuSans-4a"/>
      <use xlink:href="#DejaVuSans-6f" x="29.492188"/>
      <use xlink:href="#DejaVuSans-65" x="90.673828"/>
      <use xlink:href="#DejaVuSans-6c" x="152.197266"/>
      <use xlink:href="#DejaVuSans-20" x="179.980469"/>
      <use xlink:href="#DejaVuSans-43" x="211.767578"/>
      <use xlink:href="#DejaVuSans-6f" x="281.591797"/>
      <use xlink:href="#DejaVuSans-65" x="342.773438"/>
      <use xlink:href="#DejaVuSans-6e" x="404.296875"/>
     </g>
    </g>
   </g>
   <g id="text_2">
    <g id="patch_3">
     <path d="M 451.727474 209.108665 
L 511.678724 209.108665 
L 511.678724 192.478352 
L 451.727474 192.478352 
z
" clip-path="url(#p140f983b81)" style="fill: #ffffff; opacity: 0.7; stroke: #000000; stroke-linejoin: miter"/>
    </g>
    <g clip-path="url(#p140f983b81)">
     <!-- Ethan Coen -->
     <g transform="translate(455.687474 203.276946)scale(0.09 -0.09)">
      <defs>
       <path id="DejaVuSans-45" d="M 628 4666 
L 3578 4666 
L 3578 4134 
L 1259 4134 
L 1259 2753 
L 3481 2753 
L 3481 2222 
L 1259 2222 
L 1259 531 
L 3634 531 
L 3634 0 
L 628 0 
L 628 4666 
z
" transform="scale(0.015625)"/>
       <path id="DejaVuSans-74" d="M 1172 4494 
L 1172 3500 
L 2356 3500 
L 2356 3053 
L 1172 3053 
L 1172 1153 
Q 1172 725 1289 603 
Q 1406 481 1766 481 
L 2356 481 
L 2356 0 
L 1766 0 
Q 1100 0 847 248 
Q 594 497 594 1153 
L 594 3053 
L 172 3053 
L 172 3500 
L 594 3500 
L 594 4494 
L 1172 4494 
z
" transform="scale(0.015625)"/>
       <path id="DejaVuSans-68" d="M 3513 2113 
L 3513 0 
L 2938 0 
L 2938 2094 
Q 2938 2591 2744 2837 
Q 2550 3084 2163 3084 
Q 1697 3084 1428 2787 
Q 1159 2491 1159 1978 
L 1159 0 
L 581 0 
L 581 4863 
L 1159 4863 
L 1159 2956 
Q 1366 3272 1645 3428 
Q 1925 3584 2291 3584 
Q 2894 3584 3203 3211 
Q 3513 2838 3513 2113 
z
" transform="scale(0.015625)"/>
       <path id="DejaVuSans-61" d="M 2194 1759 
Q 1497 1759 1228 1600 
Q 959 1441 959 1056 
Q 959 750 1161 570 
Q 1363 391 1709 391 
Q 2188 391 2477 730 
Q 2766 1069 2766 1631 
L 2766 1759 
L 2194 1759 
z
M 3341 1997 
L 3341 0 
L 2766 0 
L 2766 531 
Q 2569 213 2275 61 
Q 1981 -91 1556 -91 
Q 1019 -91 701 211 
Q 384 513 384 1019 
Q 384 1609 779 1909 
Q 1175 2209 1959 2209 
L 2766 2209 
L 2766 2266 
Q 2766 2663 2505 2880 
Q 2244 3097 1772 3097 
Q 1472 3097 1187 3025 
Q 903 2953 641 2809 
L 641 3341 
Q 956 3463 1253 3523 
Q 1550 3584 1831 3584 
Q 2591 3584 2966 3190 
Q 3341 2797 3341 1997 
z
" transform="scale(0.015625)"/>
      </defs>
      <use xlink:href="#DejaVuSans-45"/>
      <use xlink:href="#DejaVuSans-74" x="63.183594"/>
      <use xlink:href="#DejaVuSans-68" x="102.392578"/>
      <use xlink:href="#DejaVuSans-61" x="165.771484"/>
      <use xlink:href="#DejaVuSans-6e" x="227.050781"/>
      <use xlink:href="#DejaVuSans-20" x="290.429688"/>
      <use xlink:href="#DejaVuSans-43" x="322.216797"/>
      <use xlink:href="#DejaVuSans-6f" x="392.041016"/>
      <use xlink:href="#DejaVuSans-65" x="453.222656"/>
      <use xlink:href="#DejaVuSans-6e" x="514.746094"/>
     </g>
    </g>
   </g>
   <g id="text_3">
    <g id="patch_4">
     <path d="M 389.218231 136.980958 
L 469.032762 136.980958 
L 469.032762 120.350645 
L 389.218231 120.350645 
z
" clip-path="url(#p140f983b81)" style="fill: #ffffff; opacity: 0.7; stroke: #000000; stroke-linejoin: miter"/>
    </g>
    <g clip-path="url(#p140f983b81)">
     <!-- Martin Scorsese -->
     <g transform="translate(393.178231 131.149239)scale(0.09 -0.09)">
      <defs>
       <path id="DejaVuSans-4d" d="M 628 4666 
L 1569 4666 
L 2759 1491 
L 3956 4666 
L 4897 4666 
L 4897 0 
L 4281 0 
L 4281 4097 
L 3078 897 
L 2444 897 
L 1241 4097 
L 1241 0 
L 628 0 
L 628 4666 
z
" transform="scale(0.015625)"/>
       <path id="DejaVuSans-72" d="M 2631 2963 
Q 2534 3019 2420 3045 
Q 2306 3072 2169 3072 
Q 1681 3072 1420 2755 
Q 1159 2438 1159 1844 
L 1159 0 
L 581 0 
L 581 3500 
L 1159 3500 
L 1159 2956 
Q 1341 3275 1631 3429 
Q 1922 3584 2338 3584 
Q 2397 3584 2469 3576 
Q 2541 3569 2628 3553 
L 2631 2963 
z
" transform="scale(0.015625)"/>
       <path id="DejaVuSans-69" d="M 603 3500 
L 1178 3500 
L 1178 0 
L 603 0 
L 603 3500 
z
M 603 4863 
L 1178 4863 
L 1178 4134 
L 603 4134 
L 603 4863 
z
" transform="scale(0.015625)"/>
       <path id="DejaVuSans-53" d="M 3425 4513 
L 3425 3897 
Q 3066 4069 2747 4153 
Q 2428 4238 2131 4238 
Q 1616 4238 1336 4038 
Q 1056 3838 1056 3469 
Q 1056 3159 1242 3001 
Q 1428 2844 1947 2747 
L 2328 2669 
Q 3034 2534 3370 2195 
Q 3706 1856 3706 1288 
Q 3706 609 3251 259 
Q 2797 -91 1919 -91 
Q 1588 -91 1214 -16 
Q 841 59 441 206 
L 441 856 
Q 825 641 1194 531 
Q 1563 422 1919 422 
Q 2459 422 2753 634 
Q 3047 847 3047 1241 
Q 3047 1584 2836 1778 
Q 2625 1972 2144 2069 
L 1759 2144 
Q 1053 2284 737 2584 
Q 422 2884 422 3419 
Q 422 4038 858 4394 
Q 1294 4750 2059 4750 
Q 2388 4750 2728 4690 
Q 3069 4631 3425 4513 
z
" transform="scale(0.015625)"/>
       <path id="DejaVuSans-63" d="M 3122 3366 
L 3122 2828 
Q 2878 2963 2633 3030 
Q 2388 3097 2138 3097 
Q 1578 3097 1268 2742 
Q 959 2388 959 1747 
Q 959 1106 1268 751 
Q 1578 397 2138 397 
Q 2388 397 2633 464 
Q 2878 531 3122 666 
L 3122 134 
Q 2881 22 2623 -34 
Q 2366 -91 2075 -91 
Q 1284 -91 818 406 
Q 353 903 353 1747 
Q 353 2603 823 3093 
Q 1294 3584 2113 3584 
Q 2378 3584 2631 3529 
Q 2884 3475 3122 3366 
z
" transform="scale(0.015625)"/>
       <path id="DejaVuSans-73" d="M 2834 3397 
L 2834 2853 
Q 2591 2978 2328 3040 
Q 2066 3103 1784 3103 
Q 1356 3103 1142 2972 
Q 928 2841 928 2578 
Q 928 2378 1081 2264 
Q 1234 2150 1697 2047 
L 1894 2003 
Q 2506 1872 2764 1633 
Q 3022 1394 3022 966 
Q 3022 478 2636 193 
Q 2250 -91 1575 -91 
Q 1294 -91 989 -36 
Q 684 19 347 128 
L 347 722 
Q 666 556 975 473 
Q 1284 391 1588 391 
Q 1994 391 2212 530 
Q 2431 669 2431 922 
Q 2431 1156 2273 1281 
Q 2116 1406 1581 1522 
L 1381 1569 
Q 847 1681 609 1914 
Q 372 2147 372 2553 
Q 372 3047 722 3315 
Q 1072 3584 1716 3584 
Q 2034 3584 2315 3537 
Q 2597 3491 2834 3397 
z
" transform="scale(0.015625)"/>
      </defs>
      <use xlink:href="#DejaVuSans-4d"/>
      <use xlink:href="#DejaVuSans-61" x="86.279297"/>
      <use xlink:href="#DejaVuSans-72" x="147.558594"/>
      <use xlink:href="#DejaVuSans-74" x="188.671875"/>
      <use xlink:href="#DejaVuSans-69" x="227.880859"/>
      <use xlink:href="#DejaVuSans-6e" x="255.664062"/>
      <use xlink:href="#DejaVuSans-20" x="319.042969"/>
      <use xlink:href="#DejaVuSans-53" x="350.830078"/>
      <use xlink:href="#DejaVuSans-63" x="414.306641"/>
      <use xlink:href="#DejaVuSans-6f" x="469.287109"/>
      <use xlink:href="#DejaVuSans-72" x="530.46875"/>
      <use xlink:href="#DejaVuSans-73" x="571.582031"/>
      <use xlink:href="#DejaVuSans-65" x="623.681641"/>
      <use xlink:href="#DejaVuSans-73" x="685.205078"/>
      <use xlink:href="#DejaVuSans-65" x="737.304688"/>
     </g>
    </g>
   </g>
   <g id="text_4">
    <g id="patch_5">
     <path d="M 320.117736 92.403594 
L 383.200704 92.403594 
L 383.200704 75.773281 
L 320.117736 75.773281 
z
" clip-path="url(#p140f983b81)" style="fill: #ffffff; opacity: 0.7; stroke: #000000; stroke-linejoin: miter"/>
    </g>
    <g clip-path="url(#p140f983b81)">
     <!-- Brett Ratner -->
     <g transform="translate(324.077736 86.571875)scale(0.09 -0.09)">
      <defs>
       <path id="DejaVuSans-42" d="M 1259 2228 
L 1259 519 
L 2272 519 
Q 2781 519 3026 730 
Q 3272 941 3272 1375 
Q 3272 1813 3026 2020 
Q 2781 2228 2272 2228 
L 1259 2228 
z
M 1259 4147 
L 1259 2741 
L 2194 2741 
Q 2656 2741 2882 2914 
Q 3109 3088 3109 3444 
Q 3109 3797 2882 3972 
Q 2656 4147 2194 4147 
L 1259 4147 
z
M 628 4666 
L 2241 4666 
Q 2963 4666 3353 4366 
Q 3744 4066 3744 3513 
Q 3744 3084 3544 2831 
Q 3344 2578 2956 2516 
Q 3422 2416 3680 2098 
Q 3938 1781 3938 1306 
Q 3938 681 3513 340 
Q 3088 0 2303 0 
L 628 0 
L 628 4666 
z
" transform="scale(0.015625)"/>
       <path id="DejaVuSans-52" d="M 2841 2188 
Q 3044 2119 3236 1894 
Q 3428 1669 3622 1275 
L 4263 0 
L 3584 0 
L 2988 1197 
Q 2756 1666 2539 1819 
Q 2322 1972 1947 1972 
L 1259 1972 
L 1259 0 
L 628 0 
L 628 4666 
L 2053 4666 
Q 2853 4666 3247 4331 
Q 3641 3997 3641 3322 
Q 3641 2881 3436 2590 
Q 3231 2300 2841 2188 
z
M 1259 4147 
L 1259 2491 
L 2053 2491 
Q 2509 2491 2742 2702 
Q 2975 2913 2975 3322 
Q 2975 3731 2742 3939 
Q 2509 4147 2053 4147 
L 1259 4147 
z
" transform="scale(0.015625)"/>
      </defs>
      <use xlink:href="#DejaVuSans-42"/>
      <use xlink:href="#DejaVuSans-72" x="68.603516"/>
      <use xlink:href="#DejaVuSans-65" x="107.466797"/>
      <use xlink:href="#DejaVuSans-74" x="168.990234"/>
      <use xlink:href="#DejaVuSans-74" x="208.199219"/>
      <use xlink:href="#DejaVuSans-20" x="247.408203"/>
      <use xlink:href="#DejaVuSans-52" x="279.195312"/>
      <use xlink:href="#DejaVuSans-61" x="346.427734"/>
      <use xlink:href="#DejaVuSans-74" x="407.707031"/>
      <use xlink:href="#DejaVuSans-6e" x="446.916016"/>
      <use xlink:href="#DejaVuSans-65" x="510.294922"/>
      <use xlink:href="#DejaVuSans-72" x="571.818359"/>
     </g>
    </g>
   </g>
   <g id="text_5">
    <g id="patch_6">
     <path d="M 225.296846 83.084387 
L 300.100908 83.084387 
L 300.100908 66.454075 
L 225.296846 66.454075 
z
" clip-path="url(#p140f983b81)" style="fill: #ffffff; opacity: 0.7; stroke: #000000; stroke-linejoin: miter"/>
    </g>
    <g clip-path="url(#p140f983b81)">
     <!-- Clint Eastwood -->
     <g transform="translate(229.256846 77.252668)scale(0.09 -0.09)">
      <defs>
       <path id="DejaVuSans-77" d="M 269 3500 
L 844 3500 
L 1563 769 
L 2278 3500 
L 2956 3500 
L 3675 769 
L 4391 3500 
L 4966 3500 
L 4050 0 
L 3372 0 
L 2619 2869 
L 1863 0 
L 1184 0 
L 269 3500 
z
" transform="scale(0.015625)"/>
       <path id="DejaVuSans-64" d="M 2906 2969 
L 2906 4863 
L 3481 4863 
L 3481 0 
L 2906 0 
L 2906 525 
Q 2725 213 2448 61 
Q 2172 -91 1784 -91 
Q 1150 -91 751 415 
Q 353 922 353 1747 
Q 353 2572 751 3078 
Q 1150 3584 1784 3584 
Q 2172 3584 2448 3432 
Q 2725 3281 2906 2969 
z
M 947 1747 
Q 947 1113 1208 752 
Q 1469 391 1925 391 
Q 2381 391 2643 752 
Q 2906 1113 2906 1747 
Q 2906 2381 2643 2742 
Q 2381 3103 1925 3103 
Q 1469 3103 1208 2742 
Q 947 2381 947 1747 
z
" transform="scale(0.015625)"/>
      </defs>
      <use xlink:href="#DejaVuSans-43"/>
      <use xlink:href="#DejaVuSans-6c" x="69.824219"/>
      <use xlink:href="#DejaVuSans-69" x="97.607422"/>
      <use xlink:href="#DejaVuSans-6e" x="125.390625"/>
      <use xlink:href="#DejaVuSans-74" x="188.769531"/>
      <use xlink:href="#DejaVuSans-20" x="227.978516"/>
      <use xlink:href="#DejaVuSans-45" x="259.765625"/>
      <use xlink:href="#DejaVuSans-61" x="322.949219"/>
      <use xlink:href="#DejaVuSans-73" x="384.228516"/>
      <use xlink:href="#DejaVuSans-74" x="436.328125"/>
      <use xlink:href="#DejaVuSans-77" x="475.537109"/>
      <use xlink:href="#DejaVuSans-6f" x="557.324219"/>
      <use xlink:href="#DejaVuSans-6f" x="618.505859"/>
      <use xlink:href="#DejaVuSans-64" x="679.6875"/>
     </g>
    </g>
   </g>
   <g id="text_6">
    <g id="patch_7">
     <path d="M 130.370905 110.634724 
L 224.882155 110.634724 
L 224.882155 94.004411 
L 130.370905 94.004411 
z
" clip-path="url(#p140f983b81)" style="fill: #ffffff; opacity: 0.7; stroke: #000000; stroke-linejoin: miter"/>
    </g>
    <g clip-path="url(#p140f983b81)">
     <!-- Steven Soderbergh -->
     <g transform="translate(134.330905 104.803005)scale(0.09 -0.09)">
      <defs>
       <path id="DejaVuSans-76" d="M 191 3500 
L 800 3500 
L 1894 563 
L 2988 3500 
L 3597 3500 
L 2284 0 
L 1503 0 
L 191 3500 
z
" transform="scale(0.015625)"/>
       <path id="DejaVuSans-62" d="M 3116 1747 
Q 3116 2381 2855 2742 
Q 2594 3103 2138 3103 
Q 1681 3103 1420 2742 
Q 1159 2381 1159 1747 
Q 1159 1113 1420 752 
Q 1681 391 2138 391 
Q 2594 391 2855 752 
Q 3116 1113 3116 1747 
z
M 1159 2969 
Q 1341 3281 1617 3432 
Q 1894 3584 2278 3584 
Q 2916 3584 3314 3078 
Q 3713 2572 3713 1747 
Q 3713 922 3314 415 
Q 2916 -91 2278 -91 
Q 1894 -91 1617 61 
Q 1341 213 1159 525 
L 1159 0 
L 581 0 
L 581 4863 
L 1159 4863 
L 1159 2969 
z
" transform="scale(0.015625)"/>
       <path id="DejaVuSans-67" d="M 2906 1791 
Q 2906 2416 2648 2759 
Q 2391 3103 1925 3103 
Q 1463 3103 1205 2759 
Q 947 2416 947 1791 
Q 947 1169 1205 825 
Q 1463 481 1925 481 
Q 2391 481 2648 825 
Q 2906 1169 2906 1791 
z
M 3481 434 
Q 3481 -459 3084 -895 
Q 2688 -1331 1869 -1331 
Q 1566 -1331 1297 -1286 
Q 1028 -1241 775 -1147 
L 775 -588 
Q 1028 -725 1275 -790 
Q 1522 -856 1778 -856 
Q 2344 -856 2625 -561 
Q 2906 -266 2906 331 
L 2906 616 
Q 2728 306 2450 153 
Q 2172 0 1784 0 
Q 1141 0 747 490 
Q 353 981 353 1791 
Q 353 2603 747 3093 
Q 1141 3584 1784 3584 
Q 2172 3584 2450 3431 
Q 2728 3278 2906 2969 
L 2906 3500 
L 3481 3500 
L 3481 434 
z
" transform="scale(0.015625)"/>
      </defs>
      <use xlink:href="#DejaVuSans-53"/>
      <use xlink:href="#DejaVuSans-74" x="63.476562"/>
      <use xlink:href="#DejaVuSans-65" x="102.685547"/>
      <use xlink:href="#DejaVuSans-76" x="164.208984"/>
      <use xlink:href="#DejaVuSans-65" x="223.388672"/>
      <use xlink:href="#DejaVuSans-6e" x="284.912109"/>
      <use xlink:href="#DejaVuSans-20" x="348.291016"/>
      <use xlink:href="#DejaVuSans-53" x="380.078125"/>
      <use xlink:href="#DejaVuSans-6f" x="443.554688"/>
      <use xlink:href="#DejaVuSans-64" x="504.736328"/>
      <use xlink:href="#DejaVuSans-65" x="568.212891"/>
      <use xlink:href="#DejaVuSans-72" x="629.736328"/>
      <use xlink:href="#DejaVuSans-62" x="670.849609"/>
      <use xlink:href="#DejaVuSans-65" x="734.326172"/>
      <use xlink:href="#DejaVuSans-72" x="795.849609"/>
      <use xlink:href="#DejaVuSans-67" x="835.212891"/>
      <use xlink:href="#DejaVuSans-68" x="898.689453"/>
     </g>
    </g>
   </g>
   <g id="text_7">
    <g id="patch_8">
     <path d="M 66.498613 170.290885 
L 155.805331 170.290885 
L 155.805331 153.660572 
L 66.498613 153.660572 
z
" clip-path="url(#p140f983b81)" style="fill: #ffffff; opacity: 0.7; stroke: #000000; stroke-linejoin: miter"/>
    </g>
    <g clip-path="url(#p140f983b81)">
     <!-- Christopher Nolan -->
     <g transform="translate(70.458613 164.459166)scale(0.09 -0.09)">
      <defs>
       <path id="DejaVuSans-70" d="M 1159 525 
L 1159 -1331 
L 581 -1331 
L 581 3500 
L 1159 3500 
L 1159 2969 
Q 1341 3281 1617 3432 
Q 1894 3584 2278 3584 
Q 2916 3584 3314 3078 
Q 3713 2572 3713 1747 
Q 3713 922 3314 415 
Q 2916 -91 2278 -91 
Q 1894 -91 1617 61 
Q 1341 213 1159 525 
z
M 3116 1747 
Q 3116 2381 2855 2742 
Q 2594 3103 2138 3103 
Q 1681 3103 1420 2742 
Q 1159 2381 1159 1747 
Q 1159 1113 1420 752 
Q 1681 391 2138 391 
Q 2594 391 2855 752 
Q 3116 1113 3116 1747 
z
" transform="scale(0.015625)"/>
       <path id="DejaVuSans-4e" d="M 628 4666 
L 1478 4666 
L 3547 763 
L 3547 4666 
L 4159 4666 
L 4159 0 
L 3309 0 
L 1241 3903 
L 1241 0 
L 628 0 
L 628 4666 
z
" transform="scale(0.015625)"/>
      </defs>
      <use xlink:href="#DejaVuSans-43"/>
      <use xlink:href="#DejaVuSans-68" x="69.824219"/>
      <use xlink:href="#DejaVuSans-72" x="133.203125"/>
      <use xlink:href="#DejaVuSans-69" x="174.316406"/>
      <use xlink:href="#DejaVuSans-73" x="202.099609"/>
      <use xlink:href="#DejaVuSans-74" x="254.199219"/>
      <use xlink:href="#DejaVuSans-6f" x="293.408203"/>
      <use xlink:href="#DejaVuSans-70" x="354.589844"/>
      <use xlink:href="#DejaVuSans-68" x="418.066406"/>
      <use xlink:href="#DejaVuSans-65" x="481.445312"/>
      <use xlink:href="#DejaVuSans-72" x="542.96875"/>
      <use xlink:href="#DejaVuSans-20" x="584.082031"/>
      <use xlink:href="#DejaVuSans-4e" x="615.869141"/>
      <use xlink:href="#DejaVuSans-6f" x="690.673828"/>
      <use xlink:href="#DejaVuSans-6c" x="751.855469"/>
      <use xlink:href="#DejaVuSans-61" x="779.638672"/>
      <use xlink:href="#DejaVuSans-6e" x="840.917969"/>
     </g>
    </g>
   </g>
   <g id="text_8">
    <g id="patch_9">
     <path d="M 23.981809 251.737805 
L 125.556653 251.737805 
L 125.556653 235.107493 
L 23.981809 235.107493 
z
" clip-path="url(#p140f983b81)" style="fill: #ffffff; opacity: 0.7; stroke: #000000; stroke-linejoin: miter"/>
    </g>
    <g clip-path="url(#p140f983b81)">
     <!-- Francis Ford Coppola -->
     <g transform="translate(27.941809 245.906086)scale(0.09 -0.09)">
      <defs>
       <path id="DejaVuSans-46" d="M 628 4666 
L 3309 4666 
L 3309 4134 
L 1259 4134 
L 1259 2759 
L 3109 2759 
L 3109 2228 
L 1259 2228 
L 1259 0 
L 628 0 
L 628 4666 
z
" transform="scale(0.015625)"/>
      </defs>
      <use xlink:href="#DejaVuSans-46"/>
      <use xlink:href="#DejaVuSans-72" x="50.269531"/>
      <use xlink:href="#DejaVuSans-61" x="91.382812"/>
      <use xlink:href="#DejaVuSans-6e" x="152.662109"/>
      <use xlink:href="#DejaVuSans-63" x="216.041016"/>
      <use xlink:href="#DejaVuSans-69" x="271.021484"/>
      <use xlink:href="#DejaVuSans-73" x="298.804688"/>
      <use xlink:href="#DejaVuSans-20" x="350.904297"/>
      <use xlink:href="#DejaVuSans-46" x="382.691406"/>
      <use xlink:href="#DejaVuSans-6f" x="436.585938"/>
      <use xlink:href="#DejaVuSans-72" x="497.767578"/>
      <use xlink:href="#DejaVuSans-64" x="537.130859"/>
      <use xlink:href="#DejaVuSans-20" x="600.607422"/>
      <use xlink:href="#DejaVuSans-43" x="632.394531"/>
      <use xlink:href="#DejaVuSans-6f" x="702.21875"/>
      <use xlink:href="#DejaVuSans-70" x="763.400391"/>
      <use xlink:href="#DejaVuSans-70" x="826.876953"/>
      <use xlink:href="#DejaVuSans-6f" x="890.353516"/>
      <use xlink:href="#DejaVuSans-6c" x="951.535156"/>
      <use xlink:href="#DejaVuSans-61" x="979.318359"/>
     </g>
    </g>
   </g>
   <g id="text_9">
    <g id="patch_10">
     <path d="M 43.140572 340.892546 
L 106.397915 340.892546 
L 106.397915 324.262233 
L 43.140572 324.262233 
z
" clip-path="url(#p140f983b81)" style="fill: #ffffff; opacity: 0.7; stroke: #000000; stroke-linejoin: miter"/>
    </g>
    <g clip-path="url(#p140f983b81)">
     <!-- F. Gary Gray -->
     <g transform="translate(47.100572 335.060827)scale(0.09 -0.09)">
      <defs>
       <path id="DejaVuSans-2e" d="M 684 794 
L 1344 794 
L 1344 0 
L 684 0 
L 684 794 
z
" transform="scale(0.015625)"/>
       <path id="DejaVuSans-47" d="M 3809 666 
L 3809 1919 
L 2778 1919 
L 2778 2438 
L 4434 2438 
L 4434 434 
Q 4069 175 3628 42 
Q 3188 -91 2688 -91 
Q 1594 -91 976 548 
Q 359 1188 359 2328 
Q 359 3472 976 4111 
Q 1594 4750 2688 4750 
Q 3144 4750 3555 4637 
Q 3966 4525 4313 4306 
L 4313 3634 
Q 3963 3931 3569 4081 
Q 3175 4231 2741 4231 
Q 1884 4231 1454 3753 
Q 1025 3275 1025 2328 
Q 1025 1384 1454 906 
Q 1884 428 2741 428 
Q 3075 428 3337 486 
Q 3600 544 3809 666 
z
" transform="scale(0.015625)"/>
       <path id="DejaVuSans-79" d="M 2059 -325 
Q 1816 -950 1584 -1140 
Q 1353 -1331 966 -1331 
L 506 -1331 
L 506 -850 
L 844 -850 
Q 1081 -850 1212 -737 
Q 1344 -625 1503 -206 
L 1606 56 
L 191 3500 
L 800 3500 
L 1894 763 
L 2988 3500 
L 3597 3500 
L 2059 -325 
z
" transform="scale(0.015625)"/>
      </defs>
      <use xlink:href="#DejaVuSans-46"/>
      <use xlink:href="#DejaVuSans-2e" x="41.394531"/>
      <use xlink:href="#DejaVuSans-20" x="73.181641"/>
      <use xlink:href="#DejaVuSans-47" x="104.96875"/>
      <use xlink:href="#DejaVuSans-61" x="182.458984"/>
      <use xlink:href="#DejaVuSans-72" x="243.738281"/>
      <use xlink:href="#DejaVuSans-79" x="284.851562"/>
      <use xlink:href="#DejaVuSans-20" x="344.03125"/>
      <use xlink:href="#DejaVuSans-47" x="375.818359"/>
      <use xlink:href="#DejaVuSans-72" x="453.308594"/>
      <use xlink:href="#DejaVuSans-61" x="494.421875"/>
      <use xlink:href="#DejaVuSans-79" x="555.701172"/>
     </g>
    </g>
   </g>
   <g id="text_10">
    <g id="patch_11">
     <path d="M 67.037922 422.33944 
L 155.266047 422.33944 
L 155.266047 405.709128 
L 67.037922 405.709128 
z
" clip-path="url(#p140f983b81)" style="fill: #ffffff; opacity: 0.7; stroke: #000000; stroke-linejoin: miter"/>
    </g>
    <g clip-path="url(#p140f983b81)">
     <!-- Quentin Tarantino -->
     <g transform="translate(70.997922 416.507722)scale(0.09 -0.09)">
      <defs>
       <path id="DejaVuSans-51" d="M 2522 4238 
Q 1834 4238 1429 3725 
Q 1025 3213 1025 2328 
Q 1025 1447 1429 934 
Q 1834 422 2522 422 
Q 3209 422 3611 934 
Q 4013 1447 4013 2328 
Q 4013 3213 3611 3725 
Q 3209 4238 2522 4238 
z
M 3406 84 
L 4238 -825 
L 3475 -825 
L 2784 -78 
Q 2681 -84 2626 -87 
Q 2572 -91 2522 -91 
Q 1538 -91 948 567 
Q 359 1225 359 2328 
Q 359 3434 948 4092 
Q 1538 4750 2522 4750 
Q 3503 4750 4090 4092 
Q 4678 3434 4678 2328 
Q 4678 1516 4351 937 
Q 4025 359 3406 84 
z
" transform="scale(0.015625)"/>
       <path id="DejaVuSans-75" d="M 544 1381 
L 544 3500 
L 1119 3500 
L 1119 1403 
Q 1119 906 1312 657 
Q 1506 409 1894 409 
Q 2359 409 2629 706 
Q 2900 1003 2900 1516 
L 2900 3500 
L 3475 3500 
L 3475 0 
L 2900 0 
L 2900 538 
Q 2691 219 2414 64 
Q 2138 -91 1772 -91 
Q 1169 -91 856 284 
Q 544 659 544 1381 
z
M 1991 3584 
L 1991 3584 
z
" transform="scale(0.015625)"/>
       <path id="DejaVuSans-54" d="M -19 4666 
L 3928 4666 
L 3928 4134 
L 2272 4134 
L 2272 0 
L 1638 0 
L 1638 4134 
L -19 4134 
L -19 4666 
z
" transform="scale(0.015625)"/>
      </defs>
      <use xlink:href="#DejaVuSans-51"/>
      <use xlink:href="#DejaVuSans-75" x="78.710938"/>
      <use xlink:href="#DejaVuSans-65" x="142.089844"/>
      <use xlink:href="#DejaVuSans-6e" x="203.613281"/>
      <use xlink:href="#DejaVuSans-74" x="266.992188"/>
      <use xlink:href="#DejaVuSans-69" x="306.201172"/>
      <use xlink:href="#DejaVuSans-6e" x="333.984375"/>
      <use xlink:href="#DejaVuSans-20" x="397.363281"/>
      <use xlink:href="#DejaVuSans-54" x="429.150391"/>
      <use xlink:href="#DejaVuSans-61" x="473.734375"/>
      <use xlink:href="#DejaVuSans-72" x="535.013672"/>
      <use xlink:href="#DejaVuSans-61" x="576.126953"/>
      <use xlink:href="#DejaVuSans-6e" x="637.40625"/>
      <use xlink:href="#DejaVuSans-74" x="700.785156"/>
      <use xlink:href="#DejaVuSans-69" x="739.994141"/>
      <use xlink:href="#DejaVuSans-6e" x="767.777344"/>
      <use xlink:href="#DejaVuSans-6f" x="831.15625"/>
     </g>
    </g>
   </g>
   <g id="text_11">
    <g id="patch_12">
     <path d="M 150.371328 481.995602 
L 204.881797 481.995602 
L 204.881797 465.365289 
L 150.371328 465.365289 
z
" clip-path="url(#p140f983b81)" style="fill: #ffffff; opacity: 0.7; stroke: #000000; stroke-linejoin: miter"/>
    </g>
    <g clip-path="url(#p140f983b81)">
     <!-- Tony Scott -->
     <g transform="translate(154.331328 476.163883)scale(0.09 -0.09)">
      <use xlink:href="#DejaVuSans-54"/>
      <use xlink:href="#DejaVuSans-6f" x="44.083984"/>
      <use xlink:href="#DejaVuSans-6e" x="105.265625"/>
      <use xlink:href="#DejaVuSans-79" x="168.644531"/>
      <use xlink:href="#DejaVuSans-20" x="227.824219"/>
      <use xlink:href="#DejaVuSans-53" x="259.611328"/>
      <use xlink:href="#DejaVuSans-63" x="323.087891"/>
      <use xlink:href="#DejaVuSans-6f" x="378.068359"/>
      <use xlink:href="#DejaVuSans-74" x="439.25"/>
      <use xlink:href="#DejaVuSans-74" x="478.458984"/>
     </g>
    </g>
   </g>
   <g id="text_12">
    <g id="patch_13">
     <path d="M 233.908759 509.545925 
L 291.489072 509.545925 
L 291.489072 492.915613 
L 233.908759 492.915613 
z
" clip-path="url(#p140f983b81)" style="fill: #ffffff; opacity: 0.7; stroke: #000000; stroke-linejoin: miter"/>
    </g>
    <g clip-path="url(#p140f983b81)">
     <!-- Tim Burton -->
     <g transform="translate(237.868759 503.714207)scale(0.09 -0.09)">
      <defs>
       <path id="DejaVuSans-6d" d="M 3328 2828 
Q 3544 3216 3844 3400 
Q 4144 3584 4550 3584 
Q 5097 3584 5394 3201 
Q 5691 2819 5691 2113 
L 5691 0 
L 5113 0 
L 5113 2094 
Q 5113 2597 4934 2840 
Q 4756 3084 4391 3084 
Q 3944 3084 3684 2787 
Q 3425 2491 3425 1978 
L 3425 0 
L 2847 0 
L 2847 2094 
Q 2847 2600 2669 2842 
Q 2491 3084 2119 3084 
Q 1678 3084 1418 2786 
Q 1159 2488 1159 1978 
L 1159 0 
L 581 0 
L 581 3500 
L 1159 3500 
L 1159 2956 
Q 1356 3278 1631 3431 
Q 1906 3584 2284 3584 
Q 2666 3584 2933 3390 
Q 3200 3197 3328 2828 
z
" transform="scale(0.015625)"/>
      </defs>
      <use xlink:href="#DejaVuSans-54"/>
      <use xlink:href="#DejaVuSans-69" x="57.958984"/>
      <use xlink:href="#DejaVuSans-6d" x="85.742188"/>
      <use xlink:href="#DejaVuSans-20" x="183.154297"/>
      <use xlink:href="#DejaVuSans-42" x="214.941406"/>
      <use xlink:href="#DejaVuSans-75" x="283.544922"/>
      <use xlink:href="#DejaVuSans-72" x="346.923828"/>
      <use xlink:href="#DejaVuSans-74" x="388.037109"/>
      <use xlink:href="#DejaVuSans-6f" x="427.246094"/>
      <use xlink:href="#DejaVuSans-6e" x="488.427734"/>
     </g>
    </g>
   </g>
   <g id="text_13">
    <g id="patch_14">
     <path d="M 310.048315 500.226706 
L 393.27019 500.226706 
L 393.27019 483.596393 
L 310.048315 483.596393 
z
" clip-path="url(#p140f983b81)" style="fill: #ffffff; opacity: 0.7; stroke: #000000; stroke-linejoin: miter"/>
    </g>
    <g clip-path="url(#p140f983b81)">
     <!-- Joel Schumacher -->
     <g transform="translate(314.008315 494.394987)scale(0.09 -0.09)">
      <use xlink:href="#DejaVuSans-4a"/>
      <use xlink:href="#DejaVuSans-6f" x="29.492188"/>
      <use xlink:href="#DejaVuSans-65" x="90.673828"/>
      <use xlink:href="#DejaVuSans-6c" x="152.197266"/>
      <use xlink:href="#DejaVuSans-20" x="179.980469"/>
      <use xlink:href="#DejaVuSans-53" x="211.767578"/>
      <use xlink:href="#DejaVuSans-63" x="275.244141"/>
      <use xlink:href="#DejaVuSans-68" x="330.224609"/>
      <use xlink:href="#DejaVuSans-75" x="393.603516"/>
      <use xlink:href="#DejaVuSans-6d" x="456.982422"/>
      <use xlink:href="#DejaVuSans-61" x="554.394531"/>
      <use xlink:href="#DejaVuSans-63" x="615.673828"/>
      <use xlink:href="#DejaVuSans-68" x="670.654297"/>
      <use xlink:href="#DejaVuSans-65" x="734.033203"/>
      <use xlink:href="#DejaVuSans-72" x="795.556641"/>
     </g>
    </g>
   </g>
   <g id="text_14">
    <g id="patch_15">
     <path d="M 404.736238 455.649316 
L 453.514831 455.649316 
L 453.514831 439.019004 
L 404.736238 439.019004 
z
" clip-path="url(#p140f983b81)" style="fill: #ffffff; opacity: 0.7; stroke: #000000; stroke-linejoin: miter"/>
    </g>
    <g clip-path="url(#p140f983b81)">
     <!-- Justin Lin -->
     <g transform="translate(408.696238 449.817598)scale(0.09 -0.09)">
      <defs>
       <path id="DejaVuSans-4c" d="M 628 4666 
L 1259 4666 
L 1259 531 
L 3531 531 
L 3531 0 
L 628 0 
L 628 4666 
z
" transform="scale(0.015625)"/>
      </defs>
      <use xlink:href="#DejaVuSans-4a"/>
      <use xlink:href="#DejaVuSans-75" x="29.492188"/>
      <use xlink:href="#DejaVuSans-73" x="92.871094"/>
      <use xlink:href="#DejaVuSans-74" x="144.970703"/>
      <use xlink:href="#DejaVuSans-69" x="184.179688"/>
      <use xlink:href="#DejaVuSans-6e" x="211.962891"/>
      <use xlink:href="#DejaVuSans-20" x="275.341797"/>
      <use xlink:href="#DejaVuSans-4c" x="307.128906"/>
      <use xlink:href="#DejaVuSans-69" x="362.841797"/>
      <use xlink:href="#DejaVuSans-6e" x="390.625"/>
     </g>
    </g>
   </g>
   <g id="text_15">
    <g id="patch_16">
     <path d="M 445.324141 383.521616 
L 518.082109 383.521616 
L 518.082109 366.891303 
L 445.324141 366.891303 
z
" clip-path="url(#p140f983b81)" style="fill: #ffffff; opacity: 0.7; stroke: #000000; stroke-linejoin: miter"/>
    </g>
    <g clip-path="url(#p140f983b81)">
     <!-- John Singleton -->
     <g transform="translate(449.284141 377.689897)scale(0.09 -0.09)">
      <use xlink:href="#DejaVuSans-4a"/>
      <use xlink:href="#DejaVuSans-6f" x="29.492188"/>
      <use xlink:href="#DejaVuSans-68" x="90.673828"/>
      <use xlink:href="#DejaVuSans-6e" x="154.052734"/>
      <use xlink:href="#DejaVuSans-20" x="217.431641"/>
      <use xlink:href="#DejaVuSans-53" x="249.21875"/>
      <use xlink:href="#DejaVuSans-69" x="312.695312"/>
      <use xlink:href="#DejaVuSans-6e" x="340.478516"/>
      <use xlink:href="#DejaVuSans-67" x="403.857422"/>
      <use xlink:href="#DejaVuSans-6c" x="467.333984"/>
      <use xlink:href="#DejaVuSans-65" x="495.117188"/>
      <use xlink:href="#DejaVuSans-74" x="556.640625"/>
      <use xlink:href="#DejaVuSans-6f" x="595.849609"/>
      <use xlink:href="#DejaVuSans-6e" x="657.03125"/>
     </g>
    </g>
   </g>
   <g id="text_16">
    <!-- Impactful directors for Crime Fiction genre -->
    <g transform="translate(160.8075 4.8)scale(0.12 -0.12)">
     <defs>
      <path id="DejaVuSans-49" d="M 628 4666 
L 1259 4666 
L 1259 0 
L 628 0 
L 628 4666 
z
" transform="scale(0.015625)"/>
      <path id="DejaVuSans-66" d="M 2375 4863 
L 2375 4384 
L 1825 4384 
Q 1516 4384 1395 4259 
Q 1275 4134 1275 3809 
L 1275 3500 
L 2222 3500 
L 2222 3053 
L 1275 3053 
L 1275 0 
L 697 0 
L 697 3053 
L 147 3053 
L 147 3500 
L 697 3500 
L 697 3744 
Q 697 4328 969 4595 
Q 1241 4863 1831 4863 
L 2375 4863 
z
" transform="scale(0.015625)"/>
     </defs>
     <use xlink:href="#DejaVuSans-49"/>
     <use xlink:href="#DejaVuSans-6d" x="29.492188"/>
     <use xlink:href="#DejaVuSans-70" x="126.904297"/>
     <use xlink:href="#DejaVuSans-61" x="190.380859"/>
     <use xlink:href="#DejaVuSans-63" x="251.660156"/>
     <use xlink:href="#DejaVuSans-74" x="306.640625"/>
     <use xlink:href="#DejaVuSans-66" x="345.849609"/>
     <use xlink:href="#DejaVuSans-75" x="381.054688"/>
     <use xlink:href="#DejaVuSans-6c" x="444.433594"/>
     <use xlink:href="#DejaVuSans-20" x="472.216797"/>
     <use xlink:href="#DejaVuSans-64" x="504.003906"/>
     <use xlink:href="#DejaVuSans-69" x="567.480469"/>
     <use xlink:href="#DejaVuSans-72" x="595.263672"/>
     <use xlink:href="#DejaVuSans-65" x="634.126953"/>
     <use xlink:href="#DejaVuSans-63" x="695.650391"/>
     <use xlink:href="#DejaVuSans-74" x="750.630859"/>
     <use xlink:href="#DejaVuSans-6f" x="789.839844"/>
     <use xlink:href="#DejaVuSans-72" x="851.021484"/>
     <use xlink:href="#DejaVuSans-73" x="892.134766"/>
     <use xlink:href="#DejaVuSans-20" x="944.234375"/>
     <use xlink:href="#DejaVuSans-66" x="976.021484"/>
     <use xlink:href="#DejaVuSans-6f" x="1011.226562"/>
     <use xlink:href="#DejaVuSans-72" x="1072.408203"/>
     <use xlink:href="#DejaVuSans-20" x="1113.521484"/>
     <use xlink:href="#DejaVuSans-43" x="1145.308594"/>
     <use xlink:href="#DejaVuSans-72" x="1215.132812"/>
     <use xlink:href="#DejaVuSans-69" x="1256.246094"/>
     <use xlink:href="#DejaVuSans-6d" x="1284.029297"/>
     <use xlink:href="#DejaVuSans-65" x="1381.441406"/>
     <use xlink:href="#DejaVuSans-20" x="1442.964844"/>
     <use xlink:href="#DejaVuSans-46" x="1474.751953"/>
     <use xlink:href="#DejaVuSans-69" x="1525.021484"/>
     <use xlink:href="#DejaVuSans-63" x="1552.804688"/>
     <use xlink:href="#DejaVuSans-74" x="1607.785156"/>
     <use xlink:href="#DejaVuSans-69" x="1646.994141"/>
     <use xlink:href="#DejaVuSans-6f" x="1674.777344"/>
     <use xlink:href="#DejaVuSans-6e" x="1735.958984"/>
     <use xlink:href="#DejaVuSans-20" x="1799.337891"/>
     <use xlink:href="#DejaVuSans-67" x="1831.125"/>
     <use xlink:href="#DejaVuSans-65" x="1894.601562"/>
     <use xlink:href="#DejaVuSans-6e" x="1956.125"/>
     <use xlink:href="#DejaVuSans-72" x="2019.503906"/>
     <use xlink:href="#DejaVuSans-65" x="2058.367188"/>
    </g>
   </g>
  </g>
 </g>
 <defs>
  <clipPath id="p140f983b81">
   <rect x="10.8" y="10.8" width="554.4" height="554.4"/>
  </clipPath>
 </defs>
</svg>
