<?xml version="1.0" encoding="utf-8" standalone="no"?>
<!DOCTYPE svg PUBLIC "-//W3C//DTD SVG 1.1//EN"
  "http://www.w3.org/Graphics/SVG/1.1/DTD/svg11.dtd">
<svg xmlns:xlink="http://www.w3.org/1999/xlink" width="576pt" height="576pt" viewBox="0 0 576 576" xmlns="http://www.w3.org/2000/svg" version="1.1">
 <metadata>
  <rdf:RDF xmlns:dc="http://purl.org/dc/elements/1.1/" xmlns:cc="http://creativecommons.org/ns#" xmlns:rdf="http://www.w3.org/1999/02/22-rdf-syntax-ns#">
   <cc:Work>
    <dc:type rdf:resource="http://purl.org/dc/dcmitype/StillImage"/>
    <dc:date>2022-12-22T16:11:49.437007</dc:date>
    <dc:format>image/svg+xml</dc:format>
    <dc:creator>
     <cc:Agent>
      <dc:title>Matplotlib v3.5.2, https://matplotlib.org/</dc:title>
     </cc:Agent>
    </dc:creator>
   </cc:Work>
  </rdf:RDF>
 </metadata>
 <defs>
  <style type="text/css">*{stroke-linejoin: round; stroke-linecap: butt}</style>
 </defs>
 <g id="figure_1">
  <g id="patch_1">
   <path d="M 0 576 
L 576 576 
L 576 0 
L 0 0 
z
" style="fill: #ffffff"/>
  </g>
  <g id="axes_1">
   <g id="PathCollection_1">
    <path d="M 501.230769 315.386128 
C 508.493655 315.386128 515.46005 312.500553 520.595686 307.364917 
C 525.731322 302.229281 528.616897 295.262886 528.616897 288 
C 528.616897 280.737114 525.731322 273.770719 520.595686 268.635083 
C 515.46005 263.499447 508.493655 260.613872 501.230769 260.613872 
C 493.967883 260.613872 487.001488 263.499447 481.865852 268.635083 
C 476.730217 273.770719 473.844641 280.737114 473.844641 288 
C 473.844641 295.262886 476.730217 302.229281 481.865852 307.364917 
C 487.001488 312.500553 493.967883 315.386128 501.230769 315.386128 
z
" clip-path="url(#p0aee075dcf)" style="fill: #d62728; fill-opacity: 0.99; stroke: #d62728; stroke-opacity: 0.99"/>
    <path d="M 482.592348 227.2899 
C 489.619273 227.2899 496.35934 224.498073 501.328126 219.529287 
C 506.296913 214.5605 509.08874 207.820434 509.08874 200.793508 
C 509.08874 193.766583 506.296913 187.026517 501.328126 182.05773 
C 496.35934 177.088944 489.619273 174.297117 482.592348 174.297117 
C 475.565423 174.297117 468.825356 177.088944 463.856569 182.05773 
C 458.887783 187.026517 456.095956 193.766583 456.095956 200.793508 
C 456.095956 207.820434 458.887783 214.5605 463.856569 219.529287 
C 468.825356 224.498073 475.565423 227.2899 482.592348 227.2899 
z
" clip-path="url(#p0aee075dcf)" style="fill: #d62728; fill-opacity: 0.99; stroke: #d62728; stroke-opacity: 0.99"/>
    <path d="M 429.89985 153.712471 
C 436.542304 153.712471 442.913595 151.073396 447.61052 146.376472 
C 452.307444 141.679547 454.946519 135.308256 454.946519 128.665802 
C 454.946519 122.023347 452.307444 115.652056 447.61052 110.955132 
C 442.913595 106.258207 436.542304 103.619132 429.89985 103.619132 
C 423.257395 103.619132 416.886105 106.258207 412.18918 110.955132 
C 407.492255 115.652056 404.85318 122.023347 404.85318 128.665802 
C 404.85318 135.308256 407.492255 141.679547 412.18918 146.376472 
C 416.886105 151.073396 423.257395 153.712471 429.89985 153.712471 
z
" clip-path="url(#p0aee075dcf)" style="fill: #d62728; fill-opacity: 0.99; stroke: #d62728; stroke-opacity: 0.99"/>
    <path d="M 352.264291 108.296406 
C 358.684319 108.296406 364.842264 105.745701 369.381909 101.206056 
C 373.921555 96.666411 376.472259 90.508466 376.472259 84.088438 
C 376.472259 77.66841 373.921555 71.510465 369.381909 66.970819 
C 364.842264 62.431174 358.684319 59.88047 352.264291 59.88047 
C 345.844263 59.88047 339.686318 62.431174 335.146673 66.970819 
C 330.607027 71.510465 328.056323 77.66841 328.056323 84.088438 
C 328.056323 90.508466 330.607027 96.666411 335.146673 101.206056 
C 339.686318 105.745701 345.844263 108.296406 352.264291 108.296406 
z
" clip-path="url(#p0aee075dcf)" style="fill: #d62728; fill-opacity: 0.99; stroke: #d62728; stroke-opacity: 0.99"/>
    <path d="M 263.109549 98.608935 
C 269.431912 98.608935 275.496179 96.097033 279.966765 91.626447 
C 284.437351 87.155861 286.949253 81.091594 286.949253 74.769231 
C 286.949253 68.446867 284.437351 62.3826 279.966765 57.912014 
C 275.496179 53.441428 269.431912 50.929526 263.109549 50.929526 
C 256.787185 50.929526 250.722918 53.441428 246.252332 57.912014 
C 241.781746 62.3826 239.269844 68.446867 239.269844 74.769231 
C 239.269844 81.091594 241.781746 87.155861 246.252332 91.626447 
C 250.722918 96.097033 256.787185 98.608935 263.109549 98.608935 
z
" clip-path="url(#p0aee075dcf)" style="fill: #d62728; fill-opacity: 0.99; stroke: #d62728; stroke-opacity: 0.99"/>
    <path d="M 177.851298 125.141339 
C 183.903703 125.141339 189.709031 122.736693 193.988728 118.456997 
C 198.268424 114.177301 200.67307 108.371972 200.67307 102.319567 
C 200.67307 96.267163 198.268424 90.461834 193.988728 86.182138 
C 189.709031 81.902441 183.903703 79.497795 177.851298 79.497795 
C 171.798893 79.497795 165.993565 81.902441 161.713868 86.182138 
C 157.434172 90.461834 155.029526 96.267163 155.029526 102.319567 
C 155.029526 108.371972 157.434172 114.177301 161.713868 118.456997 
C 165.993565 122.736693 171.798893 125.141339 177.851298 125.141339 
z
" clip-path="url(#p0aee075dcf)" style="fill: #d62728; fill-opacity: 0.99; stroke: #d62728; stroke-opacity: 0.99"/>
    <path d="M 111.231477 184.797501 
C 117.283882 184.797501 123.08921 182.392855 127.368907 178.113158 
C 131.648603 173.833462 134.053249 168.028133 134.053249 161.975729 
C 134.053249 155.923324 131.648603 150.117995 127.368907 145.838299 
C 123.08921 141.558603 117.283882 139.153957 111.231477 139.153957 
C 105.179072 139.153957 99.373744 141.558603 95.094047 145.838299 
C 90.814351 150.117995 88.409705 155.923324 88.409705 161.975729 
C 88.409705 168.028133 90.814351 173.833462 95.094047 178.113158 
C 99.373744 182.392855 105.179072 184.797501 111.231477 184.797501 
z
" clip-path="url(#p0aee075dcf)" style="fill: #d62728; fill-opacity: 0.99; stroke: #d62728; stroke-opacity: 0.99"/>
    <path d="M 74.769231 265.84914 
C 80.716806 265.84914 86.421584 263.486143 90.627154 259.280573 
C 94.832725 255.075002 97.195722 249.370224 97.195722 243.422649 
C 97.195722 237.475074 94.832725 231.770296 90.627154 227.564725 
C 86.421584 223.359155 80.716806 220.996158 74.769231 220.996158 
C 68.821656 220.996158 63.116878 223.359155 58.911307 227.564725 
C 54.705737 231.770296 52.34274 237.475074 52.34274 243.422649 
C 52.34274 249.370224 54.705737 255.075002 58.911307 259.280573 
C 63.116878 263.486143 68.821656 265.84914 74.769231 265.84914 
z
" clip-path="url(#p0aee075dcf)" style="fill: #d62728; fill-opacity: 0.99; stroke: #d62728; stroke-opacity: 0.99"/>
    <path d="M 74.769244 354.764977 
C 80.653461 354.764977 86.297468 352.427153 90.458237 348.266383 
C 94.619007 344.105613 96.956831 338.461606 96.956831 332.577389 
C 96.956831 326.693172 94.619007 321.049166 90.458237 316.888396 
C 86.297468 312.727626 80.653461 310.389802 74.769244 310.389802 
C 68.885027 310.389802 63.24102 312.727626 59.08025 316.888396 
C 54.91948 321.049166 52.581656 326.693172 52.581656 332.577389 
C 52.581656 338.461606 54.91948 344.105613 59.08025 348.266383 
C 63.24102 352.427153 68.885027 354.764977 74.769244 354.764977 
z
" clip-path="url(#p0aee075dcf)" style="fill: #d62728; fill-opacity: 0.99; stroke: #d62728; stroke-opacity: 0.99"/>
    <path d="M 111.23149 435.418741 
C 116.905366 435.418741 122.347619 433.164486 126.359655 429.15245 
C 130.371692 425.140413 132.625947 419.69816 132.625947 414.024284 
C 132.625947 408.350408 130.371692 402.908155 126.359655 398.896119 
C 122.347619 394.884082 116.905366 392.629827 111.23149 392.629827 
C 105.557614 392.629827 100.115361 394.884082 96.103324 398.896119 
C 92.091288 402.908155 89.837033 408.350408 89.837033 414.024284 
C 89.837033 419.69816 92.091288 425.140413 96.103324 429.15245 
C 100.115361 433.164486 105.557614 435.418741 111.23149 435.418741 
z
" clip-path="url(#p0aee075dcf)" style="fill: #d62728; fill-opacity: 0.99; stroke: #d62728; stroke-opacity: 0.99"/>
    <path d="M 177.85133 494.809936 
C 183.454937 494.809936 188.829788 492.583599 192.792136 488.621251 
C 196.754484 484.658903 198.98082 479.284052 198.98082 473.680446 
C 198.98082 468.076839 196.754484 462.701988 192.792136 458.73964 
C 188.829788 454.777292 183.454937 452.550955 177.85133 452.550955 
C 172.247724 452.550955 166.872872 454.777292 162.910524 458.73964 
C 158.948176 462.701988 156.72184 468.076839 156.72184 473.680446 
C 156.72184 479.284052 158.948176 484.658903 162.910524 488.621251 
C 166.872872 492.583599 172.247724 494.809936 177.85133 494.809936 
z
" clip-path="url(#p0aee075dcf)" style="fill: #d62728; fill-opacity: 0.99; stroke: #d62728; stroke-opacity: 0.99"/>
    <path d="M 263.109587 521.94438 
C 268.602901 521.94438 273.871962 519.761863 277.756322 515.877504 
C 281.640681 511.993144 283.823198 506.724083 283.823198 501.230769 
C 283.823198 495.737456 281.640681 490.468394 277.756322 486.584035 
C 273.871962 482.699675 268.602901 480.517159 263.109587 480.517159 
C 257.616273 480.517159 252.347212 482.699675 248.462853 486.584035 
C 244.578493 490.468394 242.395977 495.737456 242.395977 501.230769 
C 242.395977 506.724083 244.578493 511.993144 248.462853 515.877504 
C 252.347212 519.761863 257.616273 521.94438 263.109587 521.94438 
z
" clip-path="url(#p0aee075dcf)" style="fill: #d62728; fill-opacity: 0.99; stroke: #d62728; stroke-opacity: 0.99"/>
    <path d="M 352.264323 511.91901 
C 357.570364 511.91901 362.659797 509.810898 366.411734 506.05896 
C 370.163671 502.307023 372.271784 497.21759 372.271784 491.91155 
C 372.271784 486.605509 370.163671 481.516076 366.411734 477.764139 
C 362.659797 474.012201 357.570364 471.904089 352.264323 471.904089 
C 346.958283 471.904089 341.86885 474.012201 338.116912 477.764139 
C 334.364975 481.516076 332.256863 486.605509 332.256863 491.91155 
C 332.256863 497.21759 334.364975 502.307023 338.116912 506.05896 
C 341.86885 509.810898 346.958283 511.91901 352.264323 511.91901 
z
" clip-path="url(#p0aee075dcf)" style="fill: #d62728; fill-opacity: 0.99; stroke: #d62728; stroke-opacity: 0.99"/>
    <path d="M 429.899888 467.246872 
C 435.180801 467.246872 440.246132 465.148743 443.980302 461.414573 
C 447.714471 457.680404 449.8126 452.615073 449.8126 447.33416 
C 449.8126 442.053247 447.714471 436.987916 443.980302 433.253747 
C 440.246132 429.519577 435.180801 427.421448 429.899888 427.421448 
C 424.618976 427.421448 419.553644 429.519577 415.819475 433.253747 
C 412.085306 436.987916 409.987177 442.053247 409.987177 447.33416 
C 409.987177 452.615073 412.085306 457.680404 415.819475 461.414573 
C 419.553644 465.148743 424.618976 467.246872 429.899888 467.246872 
z
" clip-path="url(#p0aee075dcf)" style="fill: #d62728; fill-opacity: 0.99; stroke: #d62728; stroke-opacity: 0.99"/>
    <path d="M 482.592374 394.571376 
C 487.728009 394.571376 492.653994 392.530967 496.285437 388.899524 
C 499.91688 385.268081 501.95729 380.342096 501.95729 375.20646 
C 501.95729 370.070824 499.91688 365.144839 496.285437 361.513396 
C 492.653994 357.881953 487.728009 355.841543 482.592374 355.841543 
C 477.456738 355.841543 472.530753 357.881953 468.89931 361.513396 
C 465.267867 365.144839 463.227457 370.070824 463.227457 375.20646 
C 463.227457 380.342096 465.267867 385.268081 468.89931 388.899524 
C 472.530753 392.530967 477.456738 394.571376 482.592374 394.571376 
z
" clip-path="url(#p0aee075dcf)" style="fill: #d62728; fill-opacity: 0.99; stroke: #d62728; stroke-opacity: 0.99"/>
   </g>
   <g id="text_1">
    <g id="patch_2">
     <path d="M 467.901238 296.315156 
L 534.5603 296.315156 
L 534.5603 279.684844 
L 467.901238 279.684844 
z
" clip-path="url(#p0aee075dcf)" style="fill: #ffffff; opacity: 0.7; stroke: #000000; stroke-linejoin: miter"/>
    </g>
    <g clip-path="url(#p0aee075dcf)">
     <!-- John Zaritsky -->
     <g transform="translate(471.861238 290.483437)scale(0.09 -0.09)">
      <defs>
       <path id="DejaVuSans-4a" d="M 628 4666 
L 1259 4666 
L 1259 325 
Q 1259 -519 939 -900 
Q 619 -1281 -91 -1281 
L -331 -1281 
L -331 -750 
L -134 -750 
Q 284 -750 456 -515 
Q 628 -281 628 325 
L 628 4666 
z
" transform="scale(0.015625)"/>
       <path id="DejaVuSans-6f" d="M 1959 3097 
Q 1497 3097 1228 2736 
Q 959 2375 959 1747 
Q 959 1119 1226 758 
Q 1494 397 1959 397 
Q 2419 397 2687 759 
Q 2956 1122 2956 1747 
Q 2956 2369 2687 2733 
Q 2419 3097 1959 3097 
z
M 1959 3584 
Q 2709 3584 3137 3096 
Q 3566 2609 3566 1747 
Q 3566 888 3137 398 
Q 2709 -91 1959 -91 
Q 1206 -91 779 398 
Q 353 888 353 1747 
Q 353 2609 779 3096 
Q 1206 3584 1959 3584 
z
" transform="scale(0.015625)"/>
       <path id="DejaVuSans-68" d="M 3513 2113 
L 3513 0 
L 2938 0 
L 2938 2094 
Q 2938 2591 2744 2837 
Q 2550 3084 2163 3084 
Q 1697 3084 1428 2787 
Q 1159 2491 1159 1978 
L 1159 0 
L 581 0 
L 581 4863 
L 1159 4863 
L 1159 2956 
Q 1366 3272 1645 3428 
Q 1925 3584 2291 3584 
Q 2894 3584 3203 3211 
Q 3513 2838 3513 2113 
z
" transform="scale(0.015625)"/>
       <path id="DejaVuSans-6e" d="M 3513 2113 
L 3513 0 
L 2938 0 
L 2938 2094 
Q 2938 2591 2744 2837 
Q 2550 3084 2163 3084 
Q 1697 3084 1428 2787 
Q 1159 2491 1159 1978 
L 1159 0 
L 581 0 
L 581 3500 
L 1159 3500 
L 1159 2956 
Q 1366 3272 1645 3428 
Q 1925 3584 2291 3584 
Q 2894 3584 3203 3211 
Q 3513 2838 3513 2113 
z
" transform="scale(0.015625)"/>
       <path id="DejaVuSans-20" transform="scale(0.015625)"/>
       <path id="DejaVuSans-5a" d="M 359 4666 
L 4025 4666 
L 4025 4184 
L 1075 531 
L 4097 531 
L 4097 0 
L 288 0 
L 288 481 
L 3238 4134 
L 359 4134 
L 359 4666 
z
" transform="scale(0.015625)"/>
       <path id="DejaVuSans-61" d="M 2194 1759 
Q 1497 1759 1228 1600 
Q 959 1441 959 1056 
Q 959 750 1161 570 
Q 1363 391 1709 391 
Q 2188 391 2477 730 
Q 2766 1069 2766 1631 
L 2766 1759 
L 2194 1759 
z
M 3341 1997 
L 3341 0 
L 2766 0 
L 2766 531 
Q 2569 213 2275 61 
Q 1981 -91 1556 -91 
Q 1019 -91 701 211 
Q 384 513 384 1019 
Q 384 1609 779 1909 
Q 1175 2209 1959 2209 
L 2766 2209 
L 2766 2266 
Q 2766 2663 2505 2880 
Q 2244 3097 1772 3097 
Q 1472 3097 1187 3025 
Q 903 2953 641 2809 
L 641 3341 
Q 956 3463 1253 3523 
Q 1550 3584 1831 3584 
Q 2591 3584 2966 3190 
Q 3341 2797 3341 1997 
z
" transform="scale(0.015625)"/>
       <path id="DejaVuSans-72" d="M 2631 2963 
Q 2534 3019 2420 3045 
Q 2306 3072 2169 3072 
Q 1681 3072 1420 2755 
Q 1159 2438 1159 1844 
L 1159 0 
L 581 0 
L 581 3500 
L 1159 3500 
L 1159 2956 
Q 1341 3275 1631 3429 
Q 1922 3584 2338 3584 
Q 2397 3584 2469 3576 
Q 2541 3569 2628 3553 
L 2631 2963 
z
" transform="scale(0.015625)"/>
       <path id="DejaVuSans-69" d="M 603 3500 
L 1178 3500 
L 1178 0 
L 603 0 
L 603 3500 
z
M 603 4863 
L 1178 4863 
L 1178 4134 
L 603 4134 
L 603 4863 
z
" transform="scale(0.015625)"/>
       <path id="DejaVuSans-74" d="M 1172 4494 
L 1172 3500 
L 2356 3500 
L 2356 3053 
L 1172 3053 
L 1172 1153 
Q 1172 725 1289 603 
Q 1406 481 1766 481 
L 2356 481 
L 2356 0 
L 1766 0 
Q 1100 0 847 248 
Q 594 497 594 1153 
L 594 3053 
L 172 3053 
L 172 3500 
L 594 3500 
L 594 4494 
L 1172 4494 
z
" transform="scale(0.015625)"/>
       <path id="DejaVuSans-73" d="M 2834 3397 
L 2834 2853 
Q 2591 2978 2328 3040 
Q 2066 3103 1784 3103 
Q 1356 3103 1142 2972 
Q 928 2841 928 2578 
Q 928 2378 1081 2264 
Q 1234 2150 1697 2047 
L 1894 2003 
Q 2506 1872 2764 1633 
Q 3022 1394 3022 966 
Q 3022 478 2636 193 
Q 2250 -91 1575 -91 
Q 1294 -91 989 -36 
Q 684 19 347 128 
L 347 722 
Q 666 556 975 473 
Q 1284 391 1588 391 
Q 1994 391 2212 530 
Q 2431 669 2431 922 
Q 2431 1156 2273 1281 
Q 2116 1406 1581 1522 
L 1381 1569 
Q 847 1681 609 1914 
Q 372 2147 372 2553 
Q 372 3047 722 3315 
Q 1072 3584 1716 3584 
Q 2034 3584 2315 3537 
Q 2597 3491 2834 3397 
z
" transform="scale(0.015625)"/>
       <path id="DejaVuSans-6b" d="M 581 4863 
L 1159 4863 
L 1159 1991 
L 2875 3500 
L 3609 3500 
L 1753 1863 
L 3688 0 
L 2938 0 
L 1159 1709 
L 1159 0 
L 581 0 
L 581 4863 
z
" transform="scale(0.015625)"/>
       <path id="DejaVuSans-79" d="M 2059 -325 
Q 1816 -950 1584 -1140 
Q 1353 -1331 966 -1331 
L 506 -1331 
L 506 -850 
L 844 -850 
Q 1081 -850 1212 -737 
Q 1344 -625 1503 -206 
L 1606 56 
L 191 3500 
L 800 3500 
L 1894 763 
L 2988 3500 
L 3597 3500 
L 2059 -325 
z
" transform="scale(0.015625)"/>
      </defs>
      <use xlink:href="#DejaVuSans-4a"/>
      <use xlink:href="#DejaVuSans-6f" x="29.492188"/>
      <use xlink:href="#DejaVuSans-68" x="90.673828"/>
      <use xlink:href="#DejaVuSans-6e" x="154.052734"/>
      <use xlink:href="#DejaVuSans-20" x="217.431641"/>
      <use xlink:href="#DejaVuSans-5a" x="249.21875"/>
      <use xlink:href="#DejaVuSans-61" x="317.724609"/>
      <use xlink:href="#DejaVuSans-72" x="379.003906"/>
      <use xlink:href="#DejaVuSans-69" x="420.117188"/>
      <use xlink:href="#DejaVuSans-74" x="447.900391"/>
      <use xlink:href="#DejaVuSans-73" x="487.109375"/>
      <use xlink:href="#DejaVuSans-6b" x="539.208984"/>
      <use xlink:href="#DejaVuSans-79" x="593.494141"/>
     </g>
    </g>
   </g>
   <g id="text_2">
    <g id="patch_3">
     <path d="M 442.685082 209.108665 
L 522.499613 209.108665 
L 522.499613 192.478352 
L 442.685082 192.478352 
z
" clip-path="url(#p0aee075dcf)" style="fill: #ffffff; opacity: 0.7; stroke: #000000; stroke-linejoin: miter"/>
    </g>
    <g clip-path="url(#p0aee075dcf)">
     <!-- Martin Scorsese -->
     <g transform="translate(446.645082 203.276946)scale(0.09 -0.09)">
      <defs>
       <path id="DejaVuSans-4d" d="M 628 4666 
L 1569 4666 
L 2759 1491 
L 3956 4666 
L 4897 4666 
L 4897 0 
L 4281 0 
L 4281 4097 
L 3078 897 
L 2444 897 
L 1241 4097 
L 1241 0 
L 628 0 
L 628 4666 
z
" transform="scale(0.015625)"/>
       <path id="DejaVuSans-53" d="M 3425 4513 
L 3425 3897 
Q 3066 4069 2747 4153 
Q 2428 4238 2131 4238 
Q 1616 4238 1336 4038 
Q 1056 3838 1056 3469 
Q 1056 3159 1242 3001 
Q 1428 2844 1947 2747 
L 2328 2669 
Q 3034 2534 3370 2195 
Q 3706 1856 3706 1288 
Q 3706 609 3251 259 
Q 2797 -91 1919 -91 
Q 1588 -91 1214 -16 
Q 841 59 441 206 
L 441 856 
Q 825 641 1194 531 
Q 1563 422 1919 422 
Q 2459 422 2753 634 
Q 3047 847 3047 1241 
Q 3047 1584 2836 1778 
Q 2625 1972 2144 2069 
L 1759 2144 
Q 1053 2284 737 2584 
Q 422 2884 422 3419 
Q 422 4038 858 4394 
Q 1294 4750 2059 4750 
Q 2388 4750 2728 4690 
Q 3069 4631 3425 4513 
z
" transform="scale(0.015625)"/>
       <path id="DejaVuSans-63" d="M 3122 3366 
L 3122 2828 
Q 2878 2963 2633 3030 
Q 2388 3097 2138 3097 
Q 1578 3097 1268 2742 
Q 959 2388 959 1747 
Q 959 1106 1268 751 
Q 1578 397 2138 397 
Q 2388 397 2633 464 
Q 2878 531 3122 666 
L 3122 134 
Q 2881 22 2623 -34 
Q 2366 -91 2075 -91 
Q 1284 -91 818 406 
Q 353 903 353 1747 
Q 353 2603 823 3093 
Q 1294 3584 2113 3584 
Q 2378 3584 2631 3529 
Q 2884 3475 3122 3366 
z
" transform="scale(0.015625)"/>
       <path id="DejaVuSans-65" d="M 3597 1894 
L 3597 1613 
L 953 1613 
Q 991 1019 1311 708 
Q 1631 397 2203 397 
Q 2534 397 2845 478 
Q 3156 559 3463 722 
L 3463 178 
Q 3153 47 2828 -22 
Q 2503 -91 2169 -91 
Q 1331 -91 842 396 
Q 353 884 353 1716 
Q 353 2575 817 3079 
Q 1281 3584 2069 3584 
Q 2775 3584 3186 3129 
Q 3597 2675 3597 1894 
z
M 3022 2063 
Q 3016 2534 2758 2815 
Q 2500 3097 2075 3097 
Q 1594 3097 1305 2825 
Q 1016 2553 972 2059 
L 3022 2063 
z
" transform="scale(0.015625)"/>
      </defs>
      <use xlink:href="#DejaVuSans-4d"/>
      <use xlink:href="#DejaVuSans-61" x="86.279297"/>
      <use xlink:href="#DejaVuSans-72" x="147.558594"/>
      <use xlink:href="#DejaVuSans-74" x="188.671875"/>
      <use xlink:href="#DejaVuSans-69" x="227.880859"/>
      <use xlink:href="#DejaVuSans-6e" x="255.664062"/>
      <use xlink:href="#DejaVuSans-20" x="319.042969"/>
      <use xlink:href="#DejaVuSans-53" x="350.830078"/>
      <use xlink:href="#DejaVuSans-63" x="414.306641"/>
      <use xlink:href="#DejaVuSans-6f" x="469.287109"/>
      <use xlink:href="#DejaVuSans-72" x="530.46875"/>
      <use xlink:href="#DejaVuSans-73" x="571.582031"/>
      <use xlink:href="#DejaVuSans-65" x="623.681641"/>
      <use xlink:href="#DejaVuSans-73" x="685.205078"/>
      <use xlink:href="#DejaVuSans-65" x="737.304688"/>
     </g>
    </g>
   </g>
   <g id="text_3">
    <g id="patch_4">
     <path d="M 401.606803 136.980958 
L 458.192897 136.980958 
L 458.192897 120.350645 
L 401.606803 120.350645 
z
" clip-path="url(#p0aee075dcf)" style="fill: #ffffff; opacity: 0.7; stroke: #000000; stroke-linejoin: miter"/>
    </g>
    <g clip-path="url(#p0aee075dcf)">
     <!-- Rob Cohen -->
     <g transform="translate(405.566803 131.149239)scale(0.09 -0.09)">
      <defs>
       <path id="DejaVuSans-52" d="M 2841 2188 
Q 3044 2119 3236 1894 
Q 3428 1669 3622 1275 
L 4263 0 
L 3584 0 
L 2988 1197 
Q 2756 1666 2539 1819 
Q 2322 1972 1947 1972 
L 1259 1972 
L 1259 0 
L 628 0 
L 628 4666 
L 2053 4666 
Q 2853 4666 3247 4331 
Q 3641 3997 3641 3322 
Q 3641 2881 3436 2590 
Q 3231 2300 2841 2188 
z
M 1259 4147 
L 1259 2491 
L 2053 2491 
Q 2509 2491 2742 2702 
Q 2975 2913 2975 3322 
Q 2975 3731 2742 3939 
Q 2509 4147 2053 4147 
L 1259 4147 
z
" transform="scale(0.015625)"/>
       <path id="DejaVuSans-62" d="M 3116 1747 
Q 3116 2381 2855 2742 
Q 2594 3103 2138 3103 
Q 1681 3103 1420 2742 
Q 1159 2381 1159 1747 
Q 1159 1113 1420 752 
Q 1681 391 2138 391 
Q 2594 391 2855 752 
Q 3116 1113 3116 1747 
z
M 1159 2969 
Q 1341 3281 1617 3432 
Q 1894 3584 2278 3584 
Q 2916 3584 3314 3078 
Q 3713 2572 3713 1747 
Q 3713 922 3314 415 
Q 2916 -91 2278 -91 
Q 1894 -91 1617 61 
Q 1341 213 1159 525 
L 1159 0 
L 581 0 
L 581 4863 
L 1159 4863 
L 1159 2969 
z
" transform="scale(0.015625)"/>
       <path id="DejaVuSans-43" d="M 4122 4306 
L 4122 3641 
Q 3803 3938 3442 4084 
Q 3081 4231 2675 4231 
Q 1875 4231 1450 3742 
Q 1025 3253 1025 2328 
Q 1025 1406 1450 917 
Q 1875 428 2675 428 
Q 3081 428 3442 575 
Q 3803 722 4122 1019 
L 4122 359 
Q 3791 134 3420 21 
Q 3050 -91 2638 -91 
Q 1578 -91 968 557 
Q 359 1206 359 2328 
Q 359 3453 968 4101 
Q 1578 4750 2638 4750 
Q 3056 4750 3426 4639 
Q 3797 4528 4122 4306 
z
" transform="scale(0.015625)"/>
      </defs>
      <use xlink:href="#DejaVuSans-52"/>
      <use xlink:href="#DejaVuSans-6f" x="64.982422"/>
      <use xlink:href="#DejaVuSans-62" x="126.164062"/>
      <use xlink:href="#DejaVuSans-20" x="189.640625"/>
      <use xlink:href="#DejaVuSans-43" x="221.427734"/>
      <use xlink:href="#DejaVuSans-6f" x="291.251953"/>
      <use xlink:href="#DejaVuSans-68" x="352.433594"/>
      <use xlink:href="#DejaVuSans-65" x="415.8125"/>
      <use xlink:href="#DejaVuSans-6e" x="477.335938"/>
     </g>
    </g>
   </g>
   <g id="text_4">
    <g id="patch_5">
     <path d="M 308.616401 92.403594 
L 395.912182 92.403594 
L 395.912182 75.773281 
L 308.616401 75.773281 
z
" clip-path="url(#p0aee075dcf)" style="fill: #ffffff; opacity: 0.7; stroke: #000000; stroke-linejoin: miter"/>
    </g>
    <g clip-path="url(#p0aee075dcf)">
     <!-- David Lowell Rich -->
     <g transform="translate(312.576401 86.571875)scale(0.09 -0.09)">
      <defs>
       <path id="DejaVuSans-44" d="M 1259 4147 
L 1259 519 
L 2022 519 
Q 2988 519 3436 956 
Q 3884 1394 3884 2338 
Q 3884 3275 3436 3711 
Q 2988 4147 2022 4147 
L 1259 4147 
z
M 628 4666 
L 1925 4666 
Q 3281 4666 3915 4102 
Q 4550 3538 4550 2338 
Q 4550 1131 3912 565 
Q 3275 0 1925 0 
L 628 0 
L 628 4666 
z
" transform="scale(0.015625)"/>
       <path id="DejaVuSans-76" d="M 191 3500 
L 800 3500 
L 1894 563 
L 2988 3500 
L 3597 3500 
L 2284 0 
L 1503 0 
L 191 3500 
z
" transform="scale(0.015625)"/>
       <path id="DejaVuSans-64" d="M 2906 2969 
L 2906 4863 
L 3481 4863 
L 3481 0 
L 2906 0 
L 2906 525 
Q 2725 213 2448 61 
Q 2172 -91 1784 -91 
Q 1150 -91 751 415 
Q 353 922 353 1747 
Q 353 2572 751 3078 
Q 1150 3584 1784 3584 
Q 2172 3584 2448 3432 
Q 2725 3281 2906 2969 
z
M 947 1747 
Q 947 1113 1208 752 
Q 1469 391 1925 391 
Q 2381 391 2643 752 
Q 2906 1113 2906 1747 
Q 2906 2381 2643 2742 
Q 2381 3103 1925 3103 
Q 1469 3103 1208 2742 
Q 947 2381 947 1747 
z
" transform="scale(0.015625)"/>
       <path id="DejaVuSans-4c" d="M 628 4666 
L 1259 4666 
L 1259 531 
L 3531 531 
L 3531 0 
L 628 0 
L 628 4666 
z
" transform="scale(0.015625)"/>
       <path id="DejaVuSans-77" d="M 269 3500 
L 844 3500 
L 1563 769 
L 2278 3500 
L 2956 3500 
L 3675 769 
L 4391 3500 
L 4966 3500 
L 4050 0 
L 3372 0 
L 2619 2869 
L 1863 0 
L 1184 0 
L 269 3500 
z
" transform="scale(0.015625)"/>
       <path id="DejaVuSans-6c" d="M 603 4863 
L 1178 4863 
L 1178 0 
L 603 0 
L 603 4863 
z
" transform="scale(0.015625)"/>
      </defs>
      <use xlink:href="#DejaVuSans-44"/>
      <use xlink:href="#DejaVuSans-61" x="77.001953"/>
      <use xlink:href="#DejaVuSans-76" x="138.28125"/>
      <use xlink:href="#DejaVuSans-69" x="197.460938"/>
      <use xlink:href="#DejaVuSans-64" x="225.244141"/>
      <use xlink:href="#DejaVuSans-20" x="288.720703"/>
      <use xlink:href="#DejaVuSans-4c" x="320.507812"/>
      <use xlink:href="#DejaVuSans-6f" x="374.470703"/>
      <use xlink:href="#DejaVuSans-77" x="435.652344"/>
      <use xlink:href="#DejaVuSans-65" x="517.439453"/>
      <use xlink:href="#DejaVuSans-6c" x="578.962891"/>
      <use xlink:href="#DejaVuSans-6c" x="606.746094"/>
      <use xlink:href="#DejaVuSans-20" x="634.529297"/>
      <use xlink:href="#DejaVuSans-52" x="666.316406"/>
      <use xlink:href="#DejaVuSans-69" x="735.798828"/>
      <use xlink:href="#DejaVuSans-63" x="763.582031"/>
      <use xlink:href="#DejaVuSans-68" x="818.5625"/>
     </g>
    </g>
   </g>
   <g id="text_5">
    <g id="patch_6">
     <path d="M 229.436892 83.084387 
L 296.782205 83.084387 
L 296.782205 66.454075 
L 229.436892 66.454075 
z
" clip-path="url(#p0aee075dcf)" style="fill: #ffffff; opacity: 0.7; stroke: #000000; stroke-linejoin: miter"/>
    </g>
    <g clip-path="url(#p0aee075dcf)">
     <!-- Mani Ratnam -->
     <g transform="translate(233.396892 77.252668)scale(0.09 -0.09)">
      <defs>
       <path id="DejaVuSans-6d" d="M 3328 2828 
Q 3544 3216 3844 3400 
Q 4144 3584 4550 3584 
Q 5097 3584 5394 3201 
Q 5691 2819 5691 2113 
L 5691 0 
L 5113 0 
L 5113 2094 
Q 5113 2597 4934 2840 
Q 4756 3084 4391 3084 
Q 3944 3084 3684 2787 
Q 3425 2491 3425 1978 
L 3425 0 
L 2847 0 
L 2847 2094 
Q 2847 2600 2669 2842 
Q 2491 3084 2119 3084 
Q 1678 3084 1418 2786 
Q 1159 2488 1159 1978 
L 1159 0 
L 581 0 
L 581 3500 
L 1159 3500 
L 1159 2956 
Q 1356 3278 1631 3431 
Q 1906 3584 2284 3584 
Q 2666 3584 2933 3390 
Q 3200 3197 3328 2828 
z
" transform="scale(0.015625)"/>
      </defs>
      <use xlink:href="#DejaVuSans-4d"/>
      <use xlink:href="#DejaVuSans-61" x="86.279297"/>
      <use xlink:href="#DejaVuSans-6e" x="147.558594"/>
      <use xlink:href="#DejaVuSans-69" x="210.9375"/>
      <use xlink:href="#DejaVuSans-20" x="238.720703"/>
      <use xlink:href="#DejaVuSans-52" x="270.507812"/>
      <use xlink:href="#DejaVuSans-61" x="337.740234"/>
      <use xlink:href="#DejaVuSans-74" x="399.019531"/>
      <use xlink:href="#DejaVuSans-6e" x="438.228516"/>
      <use xlink:href="#DejaVuSans-61" x="501.607422"/>
      <use xlink:href="#DejaVuSans-6d" x="562.886719"/>
     </g>
    </g>
   </g>
   <g id="text_6">
    <g id="patch_7">
     <path d="M 137.506689 110.634724 
L 218.195907 110.634724 
L 218.195907 94.004411 
L 137.506689 94.004411 
z
" clip-path="url(#p0aee075dcf)" style="fill: #ffffff; opacity: 0.7; stroke: #000000; stroke-linejoin: miter"/>
    </g>
    <g clip-path="url(#p0aee075dcf)">
     <!-- Susan Raymond -->
     <g transform="translate(141.466689 104.803005)scale(0.09 -0.09)">
      <defs>
       <path id="DejaVuSans-75" d="M 544 1381 
L 544 3500 
L 1119 3500 
L 1119 1403 
Q 1119 906 1312 657 
Q 1506 409 1894 409 
Q 2359 409 2629 706 
Q 2900 1003 2900 1516 
L 2900 3500 
L 3475 3500 
L 3475 0 
L 2900 0 
L 2900 538 
Q 2691 219 2414 64 
Q 2138 -91 1772 -91 
Q 1169 -91 856 284 
Q 544 659 544 1381 
z
M 1991 3584 
L 1991 3584 
z
" transform="scale(0.015625)"/>
      </defs>
      <use xlink:href="#DejaVuSans-53"/>
      <use xlink:href="#DejaVuSans-75" x="63.476562"/>
      <use xlink:href="#DejaVuSans-73" x="126.855469"/>
      <use xlink:href="#DejaVuSans-61" x="178.955078"/>
      <use xlink:href="#DejaVuSans-6e" x="240.234375"/>
      <use xlink:href="#DejaVuSans-20" x="303.613281"/>
      <use xlink:href="#DejaVuSans-52" x="335.400391"/>
      <use xlink:href="#DejaVuSans-61" x="402.632812"/>
      <use xlink:href="#DejaVuSans-79" x="463.912109"/>
      <use xlink:href="#DejaVuSans-6d" x="523.091797"/>
      <use xlink:href="#DejaVuSans-6f" x="620.503906"/>
      <use xlink:href="#DejaVuSans-6e" x="681.685547"/>
      <use xlink:href="#DejaVuSans-64" x="745.064453"/>
     </g>
    </g>
   </g>
   <g id="text_7">
    <g id="patch_8">
     <path d="M 74.611321 170.290885 
L 147.851633 170.290885 
L 147.851633 153.660572 
L 74.611321 153.660572 
z
" clip-path="url(#p0aee075dcf)" style="fill: #ffffff; opacity: 0.7; stroke: #000000; stroke-linejoin: miter"/>
    </g>
    <g clip-path="url(#p0aee075dcf)">
     <!-- Alan Raymond -->
     <g transform="translate(78.571321 164.459166)scale(0.09 -0.09)">
      <defs>
       <path id="DejaVuSans-41" d="M 2188 4044 
L 1331 1722 
L 3047 1722 
L 2188 4044 
z
M 1831 4666 
L 2547 4666 
L 4325 0 
L 3669 0 
L 3244 1197 
L 1141 1197 
L 716 0 
L 50 0 
L 1831 4666 
z
" transform="scale(0.015625)"/>
      </defs>
      <use xlink:href="#DejaVuSans-41"/>
      <use xlink:href="#DejaVuSans-6c" x="68.408203"/>
      <use xlink:href="#DejaVuSans-61" x="96.191406"/>
      <use xlink:href="#DejaVuSans-6e" x="157.470703"/>
      <use xlink:href="#DejaVuSans-20" x="220.849609"/>
      <use xlink:href="#DejaVuSans-52" x="252.636719"/>
      <use xlink:href="#DejaVuSans-61" x="319.869141"/>
      <use xlink:href="#DejaVuSans-79" x="381.148438"/>
      <use xlink:href="#DejaVuSans-6d" x="440.328125"/>
      <use xlink:href="#DejaVuSans-6f" x="537.740234"/>
      <use xlink:href="#DejaVuSans-6e" x="598.921875"/>
      <use xlink:href="#DejaVuSans-64" x="662.300781"/>
     </g>
    </g>
   </g>
   <g id="text_8">
    <g id="patch_9">
     <path d="M 37.208293 251.737805 
L 112.330168 251.737805 
L 112.330168 235.107493 
L 37.208293 235.107493 
z
" clip-path="url(#p0aee075dcf)" style="fill: #ffffff; opacity: 0.7; stroke: #000000; stroke-linejoin: miter"/>
    </g>
    <g clip-path="url(#p0aee075dcf)">
     <!-- Werner Herzog -->
     <g transform="translate(41.168293 245.906086)scale(0.09 -0.09)">
      <defs>
       <path id="DejaVuSans-57" d="M 213 4666 
L 850 4666 
L 1831 722 
L 2809 4666 
L 3519 4666 
L 4500 722 
L 5478 4666 
L 6119 4666 
L 4947 0 
L 4153 0 
L 3169 4050 
L 2175 0 
L 1381 0 
L 213 4666 
z
" transform="scale(0.015625)"/>
       <path id="DejaVuSans-48" d="M 628 4666 
L 1259 4666 
L 1259 2753 
L 3553 2753 
L 3553 4666 
L 4184 4666 
L 4184 0 
L 3553 0 
L 3553 2222 
L 1259 2222 
L 1259 0 
L 628 0 
L 628 4666 
z
" transform="scale(0.015625)"/>
       <path id="DejaVuSans-7a" d="M 353 3500 
L 3084 3500 
L 3084 2975 
L 922 459 
L 3084 459 
L 3084 0 
L 275 0 
L 275 525 
L 2438 3041 
L 353 3041 
L 353 3500 
z
" transform="scale(0.015625)"/>
       <path id="DejaVuSans-67" d="M 2906 1791 
Q 2906 2416 2648 2759 
Q 2391 3103 1925 3103 
Q 1463 3103 1205 2759 
Q 947 2416 947 1791 
Q 947 1169 1205 825 
Q 1463 481 1925 481 
Q 2391 481 2648 825 
Q 2906 1169 2906 1791 
z
M 3481 434 
Q 3481 -459 3084 -895 
Q 2688 -1331 1869 -1331 
Q 1566 -1331 1297 -1286 
Q 1028 -1241 775 -1147 
L 775 -588 
Q 1028 -725 1275 -790 
Q 1522 -856 1778 -856 
Q 2344 -856 2625 -561 
Q 2906 -266 2906 331 
L 2906 616 
Q 2728 306 2450 153 
Q 2172 0 1784 0 
Q 1141 0 747 490 
Q 353 981 353 1791 
Q 353 2603 747 3093 
Q 1141 3584 1784 3584 
Q 2172 3584 2450 3431 
Q 2728 3278 2906 2969 
L 2906 3500 
L 3481 3500 
L 3481 434 
z
" transform="scale(0.015625)"/>
      </defs>
      <use xlink:href="#DejaVuSans-57"/>
      <use xlink:href="#DejaVuSans-65" x="93.001953"/>
      <use xlink:href="#DejaVuSans-72" x="154.525391"/>
      <use xlink:href="#DejaVuSans-6e" x="193.888672"/>
      <use xlink:href="#DejaVuSans-65" x="257.267578"/>
      <use xlink:href="#DejaVuSans-72" x="318.791016"/>
      <use xlink:href="#DejaVuSans-20" x="359.904297"/>
      <use xlink:href="#DejaVuSans-48" x="391.691406"/>
      <use xlink:href="#DejaVuSans-65" x="466.886719"/>
      <use xlink:href="#DejaVuSans-72" x="528.410156"/>
      <use xlink:href="#DejaVuSans-7a" x="569.523438"/>
      <use xlink:href="#DejaVuSans-6f" x="622.013672"/>
      <use xlink:href="#DejaVuSans-67" x="683.195312"/>
     </g>
    </g>
   </g>
   <g id="text_9">
    <g id="patch_10">
     <path d="M 44.345025 340.892546 
L 105.193462 340.892546 
L 105.193462 324.262233 
L 44.345025 324.262233 
z
" clip-path="url(#p0aee075dcf)" style="fill: #ffffff; opacity: 0.7; stroke: #000000; stroke-linejoin: miter"/>
    </g>
    <g clip-path="url(#p0aee075dcf)">
     <!-- John Davies -->
     <g transform="translate(48.305025 335.060827)scale(0.09 -0.09)">
      <use xlink:href="#DejaVuSans-4a"/>
      <use xlink:href="#DejaVuSans-6f" x="29.492188"/>
      <use xlink:href="#DejaVuSans-68" x="90.673828"/>
      <use xlink:href="#DejaVuSans-6e" x="154.052734"/>
      <use xlink:href="#DejaVuSans-20" x="217.431641"/>
      <use xlink:href="#DejaVuSans-44" x="249.21875"/>
      <use xlink:href="#DejaVuSans-61" x="326.220703"/>
      <use xlink:href="#DejaVuSans-76" x="387.5"/>
      <use xlink:href="#DejaVuSans-69" x="446.679688"/>
      <use xlink:href="#DejaVuSans-65" x="474.462891"/>
      <use xlink:href="#DejaVuSans-73" x="535.986328"/>
     </g>
    </g>
   </g>
   <g id="text_10">
    <g id="patch_11">
     <path d="M 87.271099 422.484284 
L 135.19188 422.484284 
L 135.19188 405.564284 
L 87.271099 405.564284 
z
" clip-path="url(#p0aee075dcf)" style="fill: #ffffff; opacity: 0.7; stroke: #000000; stroke-linejoin: miter"/>
    </g>
    <g clip-path="url(#p0aee075dcf)">
     <!-- Jirí Weiss -->
     <g transform="translate(91.231099 416.652565)scale(0.09 -0.09)">
      <defs>
       <path id="DejaVuSans-ed" d="M 1325 5119 
L 1947 5119 
L 928 3944 
L 450 3944 
L 1325 5119 
z
M 603 3500 
L 1178 3500 
L 1178 0 
L 603 0 
L 603 3500 
z
M 891 3584 
L 891 3584 
z
" transform="scale(0.015625)"/>
      </defs>
      <use xlink:href="#DejaVuSans-4a"/>
      <use xlink:href="#DejaVuSans-69" x="29.492188"/>
      <use xlink:href="#DejaVuSans-72" x="57.275391"/>
      <use xlink:href="#DejaVuSans-ed" x="98.388672"/>
      <use xlink:href="#DejaVuSans-20" x="126.171875"/>
      <use xlink:href="#DejaVuSans-57" x="157.958984"/>
      <use xlink:href="#DejaVuSans-65" x="250.960938"/>
      <use xlink:href="#DejaVuSans-69" x="312.484375"/>
      <use xlink:href="#DejaVuSans-73" x="340.267578"/>
      <use xlink:href="#DejaVuSans-73" x="392.367188"/>
     </g>
    </g>
   </g>
   <g id="text_11">
    <g id="patch_12">
     <path d="M 140.884533 481.995602 
L 214.818127 481.995602 
L 214.818127 465.365289 
L 140.884533 465.365289 
z
" clip-path="url(#p0aee075dcf)" style="fill: #ffffff; opacity: 0.7; stroke: #000000; stroke-linejoin: miter"/>
    </g>
    <g clip-path="url(#p0aee075dcf)">
     <!-- Barbara Loden -->
     <g transform="translate(144.844533 476.163883)scale(0.09 -0.09)">
      <defs>
       <path id="DejaVuSans-42" d="M 1259 2228 
L 1259 519 
L 2272 519 
Q 2781 519 3026 730 
Q 3272 941 3272 1375 
Q 3272 1813 3026 2020 
Q 2781 2228 2272 2228 
L 1259 2228 
z
M 1259 4147 
L 1259 2741 
L 2194 2741 
Q 2656 2741 2882 2914 
Q 3109 3088 3109 3444 
Q 3109 3797 2882 3972 
Q 2656 4147 2194 4147 
L 1259 4147 
z
M 628 4666 
L 2241 4666 
Q 2963 4666 3353 4366 
Q 3744 4066 3744 3513 
Q 3744 3084 3544 2831 
Q 3344 2578 2956 2516 
Q 3422 2416 3680 2098 
Q 3938 1781 3938 1306 
Q 3938 681 3513 340 
Q 3088 0 2303 0 
L 628 0 
L 628 4666 
z
" transform="scale(0.015625)"/>
      </defs>
      <use xlink:href="#DejaVuSans-42"/>
      <use xlink:href="#DejaVuSans-61" x="68.603516"/>
      <use xlink:href="#DejaVuSans-72" x="129.882812"/>
      <use xlink:href="#DejaVuSans-62" x="170.996094"/>
      <use xlink:href="#DejaVuSans-61" x="234.472656"/>
      <use xlink:href="#DejaVuSans-72" x="295.751953"/>
      <use xlink:href="#DejaVuSans-61" x="336.865234"/>
      <use xlink:href="#DejaVuSans-20" x="398.144531"/>
      <use xlink:href="#DejaVuSans-4c" x="429.931641"/>
      <use xlink:href="#DejaVuSans-6f" x="483.894531"/>
      <use xlink:href="#DejaVuSans-64" x="545.076172"/>
      <use xlink:href="#DejaVuSans-65" x="608.552734"/>
      <use xlink:href="#DejaVuSans-6e" x="670.076172"/>
     </g>
    </g>
   </g>
   <g id="text_12">
    <g id="patch_13">
     <path d="M 222.412712 509.545925 
L 303.806462 509.545925 
L 303.806462 492.915613 
L 222.412712 492.915613 
z
" clip-path="url(#p0aee075dcf)" style="fill: #ffffff; opacity: 0.7; stroke: #000000; stroke-linejoin: miter"/>
    </g>
    <g clip-path="url(#p0aee075dcf)">
     <!-- Peter Tewksbury -->
     <g transform="translate(226.372712 503.714207)scale(0.09 -0.09)">
      <defs>
       <path id="DejaVuSans-50" d="M 1259 4147 
L 1259 2394 
L 2053 2394 
Q 2494 2394 2734 2622 
Q 2975 2850 2975 3272 
Q 2975 3691 2734 3919 
Q 2494 4147 2053 4147 
L 1259 4147 
z
M 628 4666 
L 2053 4666 
Q 2838 4666 3239 4311 
Q 3641 3956 3641 3272 
Q 3641 2581 3239 2228 
Q 2838 1875 2053 1875 
L 1259 1875 
L 1259 0 
L 628 0 
L 628 4666 
z
" transform="scale(0.015625)"/>
       <path id="DejaVuSans-54" d="M -19 4666 
L 3928 4666 
L 3928 4134 
L 2272 4134 
L 2272 0 
L 1638 0 
L 1638 4134 
L -19 4134 
L -19 4666 
z
" transform="scale(0.015625)"/>
      </defs>
      <use xlink:href="#DejaVuSans-50"/>
      <use xlink:href="#DejaVuSans-65" x="56.677734"/>
      <use xlink:href="#DejaVuSans-74" x="118.201172"/>
      <use xlink:href="#DejaVuSans-65" x="157.410156"/>
      <use xlink:href="#DejaVuSans-72" x="218.933594"/>
      <use xlink:href="#DejaVuSans-20" x="260.046875"/>
      <use xlink:href="#DejaVuSans-54" x="291.833984"/>
      <use xlink:href="#DejaVuSans-65" x="335.917969"/>
      <use xlink:href="#DejaVuSans-77" x="397.441406"/>
      <use xlink:href="#DejaVuSans-6b" x="479.228516"/>
      <use xlink:href="#DejaVuSans-73" x="537.138672"/>
      <use xlink:href="#DejaVuSans-62" x="589.238281"/>
      <use xlink:href="#DejaVuSans-75" x="652.714844"/>
      <use xlink:href="#DejaVuSans-72" x="716.09375"/>
      <use xlink:href="#DejaVuSans-79" x="757.207031"/>
     </g>
    </g>
   </g>
   <g id="text_13">
    <g id="patch_14">
     <path d="M 313.886355 500.226706 
L 390.642292 500.226706 
L 390.642292 483.596393 
L 313.886355 483.596393 
z
" clip-path="url(#p0aee075dcf)" style="fill: #ffffff; opacity: 0.7; stroke: #000000; stroke-linejoin: miter"/>
    </g>
    <g clip-path="url(#p0aee075dcf)">
     <!-- Damiano Fusca -->
     <g transform="translate(317.846355 494.394987)scale(0.09 -0.09)">
      <defs>
       <path id="DejaVuSans-46" d="M 628 4666 
L 3309 4666 
L 3309 4134 
L 1259 4134 
L 1259 2759 
L 3109 2759 
L 3109 2228 
L 1259 2228 
L 1259 0 
L 628 0 
L 628 4666 
z
" transform="scale(0.015625)"/>
      </defs>
      <use xlink:href="#DejaVuSans-44"/>
      <use xlink:href="#DejaVuSans-61" x="77.001953"/>
      <use xlink:href="#DejaVuSans-6d" x="138.28125"/>
      <use xlink:href="#DejaVuSans-69" x="235.693359"/>
      <use xlink:href="#DejaVuSans-61" x="263.476562"/>
      <use xlink:href="#DejaVuSans-6e" x="324.755859"/>
      <use xlink:href="#DejaVuSans-6f" x="388.134766"/>
      <use xlink:href="#DejaVuSans-20" x="449.316406"/>
      <use xlink:href="#DejaVuSans-46" x="481.103516"/>
      <use xlink:href="#DejaVuSans-75" x="533.123047"/>
      <use xlink:href="#DejaVuSans-73" x="596.501953"/>
      <use xlink:href="#DejaVuSans-63" x="648.601562"/>
      <use xlink:href="#DejaVuSans-61" x="703.582031"/>
     </g>
    </g>
   </g>
   <g id="text_14">
    <g id="patch_15">
     <path d="M 389.765513 455.649316 
L 470.034263 455.649316 
L 470.034263 439.019004 
L 389.765513 439.019004 
z
" clip-path="url(#p0aee075dcf)" style="fill: #ffffff; opacity: 0.7; stroke: #000000; stroke-linejoin: miter"/>
    </g>
    <g clip-path="url(#p0aee075dcf)">
     <!-- Oren Moverman -->
     <g transform="translate(393.725513 449.817598)scale(0.09 -0.09)">
      <defs>
       <path id="DejaVuSans-4f" d="M 2522 4238 
Q 1834 4238 1429 3725 
Q 1025 3213 1025 2328 
Q 1025 1447 1429 934 
Q 1834 422 2522 422 
Q 3209 422 3611 934 
Q 4013 1447 4013 2328 
Q 4013 3213 3611 3725 
Q 3209 4238 2522 4238 
z
M 2522 4750 
Q 3503 4750 4090 4092 
Q 4678 3434 4678 2328 
Q 4678 1225 4090 567 
Q 3503 -91 2522 -91 
Q 1538 -91 948 565 
Q 359 1222 359 2328 
Q 359 3434 948 4092 
Q 1538 4750 2522 4750 
z
" transform="scale(0.015625)"/>
      </defs>
      <use xlink:href="#DejaVuSans-4f"/>
      <use xlink:href="#DejaVuSans-72" x="78.710938"/>
      <use xlink:href="#DejaVuSans-65" x="117.574219"/>
      <use xlink:href="#DejaVuSans-6e" x="179.097656"/>
      <use xlink:href="#DejaVuSans-20" x="242.476562"/>
      <use xlink:href="#DejaVuSans-4d" x="274.263672"/>
      <use xlink:href="#DejaVuSans-6f" x="360.542969"/>
      <use xlink:href="#DejaVuSans-76" x="421.724609"/>
      <use xlink:href="#DejaVuSans-65" x="480.904297"/>
      <use xlink:href="#DejaVuSans-72" x="542.427734"/>
      <use xlink:href="#DejaVuSans-6d" x="581.791016"/>
      <use xlink:href="#DejaVuSans-61" x="679.203125"/>
      <use xlink:href="#DejaVuSans-6e" x="740.482422"/>
     </g>
    </g>
   </g>
   <g id="text_15">
    <g id="patch_16">
     <path d="M 437.586045 383.521616 
L 527.598702 383.521616 
L 527.598702 366.891303 
L 437.586045 366.891303 
z
" clip-path="url(#p0aee075dcf)" style="fill: #ffffff; opacity: 0.7; stroke: #000000; stroke-linejoin: miter"/>
    </g>
    <g clip-path="url(#p0aee075dcf)">
     <!-- Raghunath Jhalani -->
     <g transform="translate(441.546045 377.689897)scale(0.09 -0.09)">
      <use xlink:href="#DejaVuSans-52"/>
      <use xlink:href="#DejaVuSans-61" x="67.232422"/>
      <use xlink:href="#DejaVuSans-67" x="128.511719"/>
      <use xlink:href="#DejaVuSans-68" x="191.988281"/>
      <use xlink:href="#DejaVuSans-75" x="255.367188"/>
      <use xlink:href="#DejaVuSans-6e" x="318.746094"/>
      <use xlink:href="#DejaVuSans-61" x="382.125"/>
      <use xlink:href="#DejaVuSans-74" x="443.404297"/>
      <use xlink:href="#DejaVuSans-68" x="482.613281"/>
      <use xlink:href="#DejaVuSans-20" x="545.992188"/>
      <use xlink:href="#DejaVuSans-4a" x="577.779297"/>
      <use xlink:href="#DejaVuSans-68" x="607.271484"/>
      <use xlink:href="#DejaVuSans-61" x="670.650391"/>
      <use xlink:href="#DejaVuSans-6c" x="731.929688"/>
      <use xlink:href="#DejaVuSans-61" x="759.712891"/>
      <use xlink:href="#DejaVuSans-6e" x="820.992188"/>
      <use xlink:href="#DejaVuSans-69" x="884.371094"/>
     </g>
    </g>
   </g>
   <g id="text_16">
    <!-- Impactful directors for Crime genre -->
    <g transform="translate(182.189063 4.8)scale(0.12 -0.12)">
     <defs>
      <path id="DejaVuSans-49" d="M 628 4666 
L 1259 4666 
L 1259 0 
L 628 0 
L 628 4666 
z
" transform="scale(0.015625)"/>
      <path id="DejaVuSans-70" d="M 1159 525 
L 1159 -1331 
L 581 -1331 
L 581 3500 
L 1159 3500 
L 1159 2969 
Q 1341 3281 1617 3432 
Q 1894 3584 2278 3584 
Q 2916 3584 3314 3078 
Q 3713 2572 3713 1747 
Q 3713 922 3314 415 
Q 2916 -91 2278 -91 
Q 1894 -91 1617 61 
Q 1341 213 1159 525 
z
M 3116 1747 
Q 3116 2381 2855 2742 
Q 2594 3103 2138 3103 
Q 1681 3103 1420 2742 
Q 1159 2381 1159 1747 
Q 1159 1113 1420 752 
Q 1681 391 2138 391 
Q 2594 391 2855 752 
Q 3116 1113 3116 1747 
z
" transform="scale(0.015625)"/>
      <path id="DejaVuSans-66" d="M 2375 4863 
L 2375 4384 
L 1825 4384 
Q 1516 4384 1395 4259 
Q 1275 4134 1275 3809 
L 1275 3500 
L 2222 3500 
L 2222 3053 
L 1275 3053 
L 1275 0 
L 697 0 
L 697 3053 
L 147 3053 
L 147 3500 
L 697 3500 
L 697 3744 
Q 697 4328 969 4595 
Q 1241 4863 1831 4863 
L 2375 4863 
z
" transform="scale(0.015625)"/>
     </defs>
     <use xlink:href="#DejaVuSans-49"/>
     <use xlink:href="#DejaVuSans-6d" x="29.492188"/>
     <use xlink:href="#DejaVuSans-70" x="126.904297"/>
     <use xlink:href="#DejaVuSans-61" x="190.380859"/>
     <use xlink:href="#DejaVuSans-63" x="251.660156"/>
     <use xlink:href="#DejaVuSans-74" x="306.640625"/>
     <use xlink:href="#DejaVuSans-66" x="345.849609"/>
     <use xlink:href="#DejaVuSans-75" x="381.054688"/>
     <use xlink:href="#DejaVuSans-6c" x="444.433594"/>
     <use xlink:href="#DejaVuSans-20" x="472.216797"/>
     <use xlink:href="#DejaVuSans-64" x="504.003906"/>
     <use xlink:href="#DejaVuSans-69" x="567.480469"/>
     <use xlink:href="#DejaVuSans-72" x="595.263672"/>
     <use xlink:href="#DejaVuSans-65" x="634.126953"/>
     <use xlink:href="#DejaVuSans-63" x="695.650391"/>
     <use xlink:href="#DejaVuSans-74" x="750.630859"/>
     <use xlink:href="#DejaVuSans-6f" x="789.839844"/>
     <use xlink:href="#DejaVuSans-72" x="851.021484"/>
     <use xlink:href="#DejaVuSans-73" x="892.134766"/>
     <use xlink:href="#DejaVuSans-20" x="944.234375"/>
     <use xlink:href="#DejaVuSans-66" x="976.021484"/>
     <use xlink:href="#DejaVuSans-6f" x="1011.226562"/>
     <use xlink:href="#DejaVuSans-72" x="1072.408203"/>
     <use xlink:href="#DejaVuSans-20" x="1113.521484"/>
     <use xlink:href="#DejaVuSans-43" x="1145.308594"/>
     <use xlink:href="#DejaVuSans-72" x="1215.132812"/>
     <use xlink:href="#DejaVuSans-69" x="1256.246094"/>
     <use xlink:href="#DejaVuSans-6d" x="1284.029297"/>
     <use xlink:href="#DejaVuSans-65" x="1381.441406"/>
     <use xlink:href="#DejaVuSans-20" x="1442.964844"/>
     <use xlink:href="#DejaVuSans-67" x="1474.751953"/>
     <use xlink:href="#DejaVuSans-65" x="1538.228516"/>
     <use xlink:href="#DejaVuSans-6e" x="1599.751953"/>
     <use xlink:href="#DejaVuSans-72" x="1663.130859"/>
     <use xlink:href="#DejaVuSans-65" x="1701.994141"/>
    </g>
   </g>
  </g>
 </g>
 <defs>
  <clipPath id="p0aee075dcf">
   <rect x="10.8" y="10.8" width="554.4" height="554.4"/>
  </clipPath>
 </defs>
</svg>
