<?xml version="1.0" encoding="utf-8" standalone="no"?>
<!DOCTYPE svg PUBLIC "-//W3C//DTD SVG 1.1//EN"
  "http://www.w3.org/Graphics/SVG/1.1/DTD/svg11.dtd">
<svg xmlns:xlink="http://www.w3.org/1999/xlink" width="576pt" height="576pt" viewBox="0 0 576 576" xmlns="http://www.w3.org/2000/svg" version="1.1">
 <metadata>
  <rdf:RDF xmlns:dc="http://purl.org/dc/elements/1.1/" xmlns:cc="http://creativecommons.org/ns#" xmlns:rdf="http://www.w3.org/1999/02/22-rdf-syntax-ns#">
   <cc:Work>
    <dc:type rdf:resource="http://purl.org/dc/dcmitype/StillImage"/>
    <dc:date>2022-12-23T17:29:54.295021</dc:date>
    <dc:format>image/svg+xml</dc:format>
    <dc:creator>
     <cc:Agent>
      <dc:title>Matplotlib v3.5.2, https://matplotlib.org/</dc:title>
     </cc:Agent>
    </dc:creator>
   </cc:Work>
  </rdf:RDF>
 </metadata>
 <defs>
  <style type="text/css">*{stroke-linejoin: round; stroke-linecap: butt}</style>
 </defs>
 <g id="figure_1">
  <g id="patch_1">
   <path d="M 0 576 
L 576 576 
L 576 0 
L 0 0 
z
" style="fill: #ffffff"/>
  </g>
  <g id="axes_1">
   <g id="LineCollection_1">
    <path d="M 481.846154 294.256104 
L 464.902134 209.608216 
" clip-path="url(#p1fb0483c30)" style="fill: none; stroke: #000000; stroke-opacity: 0.3; stroke-width: 10"/>
    <path d="M 346.422079 96.327225 
L 265.37231 87.281439 
" clip-path="url(#p1fb0483c30)" style="fill: none; stroke: #000000; stroke-opacity: 0.3; stroke-width: 5.182684"/>
    <path d="M 265.37231 87.281439 
L 94.153846 337.525611 
" clip-path="url(#p1fb0483c30)" style="fill: none; stroke: #000000; stroke-opacity: 0.3; stroke-width: 5.068324"/>
   </g>
   <g id="PathCollection_1">
    <path d="M 481.846154 321.642232 
C 489.10904 321.642232 496.075435 318.756657 501.211071 313.621021 
C 506.346707 308.485385 509.232282 301.51899 509.232282 294.256104 
C 509.232282 286.993218 506.346707 280.026824 501.211071 274.891188 
C 496.075435 269.755552 489.10904 266.869976 481.846154 266.869976 
C 474.583268 266.869976 467.616873 269.755552 462.481237 274.891188 
C 457.345601 280.026824 454.460026 286.993218 454.460026 294.256104 
C 454.460026 301.51899 457.345601 308.485385 462.481237 313.621021 
C 467.616873 318.756657 474.583268 321.642232 481.846154 321.642232 
z
" clip-path="url(#p1fb0483c30)" style="fill: #c70039; fill-opacity: 0.99; stroke: #c70039; stroke-opacity: 0.99"/>
    <path d="M 464.902134 236.994344 
C 472.16502 236.994344 479.131415 234.108769 484.267051 228.973133 
C 489.402687 223.837497 492.288262 216.871102 492.288262 209.608216 
C 492.288262 202.34533 489.402687 195.378935 484.267051 190.243299 
C 479.131415 185.107663 472.16502 182.222088 464.902134 182.222088 
C 457.639248 182.222088 450.672853 185.107663 445.537217 190.243299 
C 440.401581 195.378935 437.516006 202.34533 437.516006 209.608216 
C 437.516006 216.871102 440.401581 223.837497 445.537217 228.973133 
C 450.672853 234.108769 457.639248 236.994344 464.902134 236.994344 
z
" clip-path="url(#p1fb0483c30)" style="fill: #c70039; fill-opacity: 0.99; stroke: #c70039; stroke-opacity: 0.99"/>
    <path d="M 416.999862 165.204705 
C 423.791182 165.204705 430.305262 162.506485 435.107451 157.704296 
C 439.90964 152.902107 442.60786 146.388027 442.60786 139.596707 
C 442.60786 132.805386 439.90964 126.291306 435.107451 121.489117 
C 430.305262 116.686929 423.791182 113.988708 416.999862 113.988708 
C 410.208541 113.988708 403.694461 116.686929 398.892272 121.489117 
C 394.090083 126.291306 391.391863 132.805386 391.391863 139.596707 
C 391.391863 146.388027 394.090083 152.902107 398.892272 157.704296 
C 403.694461 162.506485 410.208541 165.204705 416.999862 165.204705 
z
" clip-path="url(#p1fb0483c30)" style="fill: #c70039; fill-opacity: 0.99; stroke: #c70039; stroke-opacity: 0.99"/>
    <path d="M 346.422079 121.052623 
C 352.979331 121.052623 359.268898 118.447399 363.905576 113.810722 
C 368.542254 109.174044 371.147478 102.884477 371.147478 96.327225 
C 371.147478 89.769972 368.542254 83.480405 363.905576 78.843727 
C 359.268898 74.20705 352.979331 71.601826 346.422079 71.601826 
C 339.864826 71.601826 333.575259 74.20705 328.938582 78.843727 
C 324.301904 83.480405 321.69668 89.769972 321.69668 96.327225 
C 321.69668 102.884477 324.301904 109.174044 328.938582 113.810722 
C 333.575259 118.447399 339.864826 121.052623 346.422079 121.052623 
z
" clip-path="url(#p1fb0483c30)" style="fill: #c70039; fill-opacity: 0.99; stroke: #c70039; stroke-opacity: 0.99"/>
    <path d="M 265.37231 110.465005 
C 271.520664 110.465005 277.418024 108.022238 281.765567 103.674696 
C 286.113109 99.327153 288.555876 93.429793 288.555876 87.281439 
C 288.555876 81.133086 286.113109 75.235725 281.765567 70.888183 
C 277.418024 66.540641 271.520664 64.097874 265.37231 64.097874 
C 259.223957 64.097874 253.326596 66.540641 248.979054 70.888183 
C 244.631512 75.235725 242.188745 81.133086 242.188745 87.281439 
C 242.188745 93.429793 244.631512 99.327153 248.979054 103.674696 
C 253.326596 108.022238 259.223957 110.465005 265.37231 110.465005 
z
" clip-path="url(#p1fb0483c30)" style="fill: #c70039; fill-opacity: 0.99; stroke: #c70039; stroke-opacity: 0.99"/>
    <path d="M 187.864808 136.42942 
C 193.806938 136.42942 199.506493 134.068587 203.708214 129.866866 
C 207.909934 125.665146 210.270767 119.96559 210.270767 114.02346 
C 210.270767 108.08133 207.909934 102.381774 203.708214 98.180054 
C 199.506493 93.978334 193.806938 91.6175 187.864808 91.6175 
C 181.922678 91.6175 176.223122 93.978334 172.021401 98.180054 
C 167.819681 102.381774 165.458848 108.08133 165.458848 114.02346 
C 165.458848 119.96559 167.819681 125.665146 172.021401 129.866866 
C 176.223122 134.068587 181.922678 136.42942 187.864808 136.42942 
z
" clip-path="url(#p1fb0483c30)" style="fill: #c70039; fill-opacity: 0.99; stroke: #c70039; stroke-opacity: 0.99"/>
    <path d="M 127.301332 193.130839 
C 132.924037 193.130839 138.317208 190.896915 142.29306 186.921062 
C 146.268913 182.945209 148.502837 177.552039 148.502837 171.929334 
C 148.502837 166.306629 146.268913 160.913459 142.29306 156.937606 
C 138.317208 152.961753 132.924037 150.727829 127.301332 150.727829 
C 121.678627 150.727829 116.285457 152.961753 112.309604 156.937606 
C 108.333751 160.913459 106.099827 166.306629 106.099827 171.929334 
C 106.099827 177.552039 108.333751 182.945209 112.309604 186.921062 
C 116.285457 190.896915 121.678627 193.130839 127.301332 193.130839 
z
" clip-path="url(#p1fb0483c30)" style="fill: #c70039; fill-opacity: 0.99; stroke: #c70039; stroke-opacity: 0.99"/>
    <path d="M 94.153834 271.9229 
C 99.706197 271.9229 105.031897 269.716923 108.95801 265.79081 
C 112.884123 261.864697 115.0901 256.538997 115.0901 250.986635 
C 115.0901 245.434272 112.884123 240.108572 108.95801 236.182459 
C 105.031897 232.256346 99.706197 230.050369 94.153834 230.050369 
C 88.601472 230.050369 83.275772 232.256346 79.349659 236.182459 
C 75.423546 240.108572 73.217569 245.434272 73.217569 250.986635 
C 73.217569 256.538997 75.423546 261.864697 79.349659 265.79081 
C 83.275772 269.716923 88.601472 271.9229 94.153834 271.9229 
z
" clip-path="url(#p1fb0483c30)" style="fill: #c70039; fill-opacity: 0.99; stroke: #c70039; stroke-opacity: 0.99"/>
    <path d="M 94.153846 358.24126 
C 99.6477 358.24126 104.91728 356.058528 108.802022 352.173787 
C 112.686763 348.289045 114.869495 343.019465 114.869495 337.525611 
C 114.869495 332.031757 112.686763 326.762177 108.802022 322.877436 
C 104.91728 318.992694 99.6477 316.809963 94.153846 316.809963 
C 88.659992 316.809963 83.390412 318.992694 79.505671 322.877436 
C 75.620929 326.762177 73.438198 332.031757 73.438198 337.525611 
C 73.438198 343.019465 75.620929 348.289045 79.505671 352.173787 
C 83.390412 356.058528 88.659992 358.24126 94.153846 358.24126 
z
" clip-path="url(#p1fb0483c30)" style="fill: #c70039; fill-opacity: 0.99; stroke: #c70039; stroke-opacity: 0.99"/>
    <path d="M 127.301344 436.737306 
C 132.646358 436.737306 137.773174 434.61371 141.55267 430.834214 
C 145.332166 427.054718 147.455763 421.927902 147.455763 416.582887 
C 147.455763 411.237872 145.332166 406.111056 141.55267 402.33156 
C 137.773174 398.552064 132.646358 396.428467 127.301344 396.428467 
C 121.956329 396.428467 116.829513 398.552064 113.050017 402.33156 
C 109.270521 406.111056 107.146924 411.237872 107.146924 416.582887 
C 107.146924 421.927902 109.270521 427.054718 113.050017 430.834214 
C 116.829513 434.61371 121.956329 436.737306 127.301344 436.737306 
z
" clip-path="url(#p1fb0483c30)" style="fill: #c70039; fill-opacity: 0.99; stroke: #c70039; stroke-opacity: 0.99"/>
    <path d="M 187.864837 494.592237 
C 193.196341 494.592237 198.310198 492.474008 202.080141 488.704065 
C 205.850084 484.934122 207.968313 479.820265 207.968313 474.488761 
C 207.968313 469.157257 205.850084 464.043399 202.080141 460.273457 
C 198.310198 456.503514 193.196341 454.385285 187.864837 454.385285 
C 182.533333 454.385285 177.419475 456.503514 173.649533 460.273457 
C 169.87959 464.043399 167.761361 469.157257 167.761361 474.488761 
C 167.761361 479.820265 169.87959 484.934122 173.649533 488.704065 
C 177.419475 492.474008 182.533333 494.592237 187.864837 494.592237 
z
" clip-path="url(#p1fb0483c30)" style="fill: #c70039; fill-opacity: 0.99; stroke: #c70039; stroke-opacity: 0.99"/>
    <path d="M 265.372345 520.933846 
C 270.597662 520.933846 275.609667 518.857805 279.304525 515.162948 
C 282.999382 511.468091 285.075422 506.456086 285.075422 501.230769 
C 285.075422 496.005452 282.999382 490.993447 279.304525 487.29859 
C 275.609667 483.603733 270.597662 481.527693 265.372345 481.527693 
C 260.147028 481.527693 255.135023 483.603733 251.440166 487.29859 
C 247.745309 490.993447 245.669269 496.005452 245.669269 501.230769 
C 245.669269 506.456086 247.745309 511.468091 251.440166 515.162948 
C 255.135023 518.857805 260.147028 520.933846 265.372345 520.933846 
z
" clip-path="url(#p1fb0483c30)" style="fill: #c70039; fill-opacity: 0.99; stroke: #c70039; stroke-opacity: 0.99"/>
    <path d="M 346.422108 511.568873 
C 351.562779 511.568873 356.493593 509.526462 360.128596 505.891459 
C 363.763599 502.256456 365.806009 497.325642 365.806009 492.184972 
C 365.806009 487.044301 363.763599 482.113487 360.128596 478.478484 
C 356.493593 474.843481 351.562779 472.801071 346.422108 472.801071 
C 341.281437 472.801071 336.350623 474.843481 332.71562 478.478484 
C 329.080617 482.113487 327.038207 487.044301 327.038207 492.184972 
C 327.038207 497.325642 329.080617 502.256456 332.71562 505.891459 
C 336.350623 509.526462 341.281437 511.568873 346.422108 511.568873 
z
" clip-path="url(#p1fb0483c30)" style="fill: #c70039; fill-opacity: 0.99; stroke: #c70039; stroke-opacity: 0.99"/>
    <path d="M 416.999897 468.282919 
C 422.136206 468.282919 427.062836 466.242242 430.694755 462.610323 
C 434.326674 458.978404 436.367351 454.051774 436.367351 448.915465 
C 436.367351 443.779156 434.326674 438.852525 430.694755 435.220606 
C 427.062836 431.588687 422.136206 429.54801 416.999897 429.54801 
C 411.863588 429.54801 406.936957 431.588687 403.305038 435.220606 
C 399.673119 438.852525 397.632442 443.779156 397.632442 448.915465 
C 397.632442 454.051774 399.673119 458.978404 403.305038 462.610323 
C 406.936957 466.242242 411.863588 468.282919 416.999897 468.282919 
z
" clip-path="url(#p1fb0483c30)" style="fill: #c70039; fill-opacity: 0.99; stroke: #c70039; stroke-opacity: 0.99"/>
    <path d="M 464.902157 398.268878 
C 470.037793 398.268878 474.963778 396.228469 478.595221 392.597026 
C 482.226664 388.965583 484.267074 384.039598 484.267074 378.903962 
C 484.267074 373.768326 482.226664 368.842341 478.595221 365.210898 
C 474.963778 361.579455 470.037793 359.539045 464.902157 359.539045 
C 459.766521 359.539045 454.840536 361.579455 451.209093 365.210898 
C 447.57765 368.842341 445.537241 373.768326 445.537241 378.903962 
C 445.537241 384.039598 447.57765 388.965583 451.209093 392.597026 
C 454.840536 396.228469 459.766521 398.268878 464.902157 398.268878 
z
" clip-path="url(#p1fb0483c30)" style="fill: #c70039; fill-opacity: 0.99; stroke: #c70039; stroke-opacity: 0.99"/>
   </g>
   <g id="text_1">
    <g id="patch_2">
     <path d="M 443.624982 302.571261 
L 520.067326 302.571261 
L 520.067326 285.940948 
L 443.624982 285.940948 
z
" clip-path="url(#p1fb0483c30)" style="fill: #ffffff; opacity: 0.7; stroke: #000000; stroke-linejoin: miter"/>
    </g>
    <g clip-path="url(#p1fb0483c30)">
     <!-- Joseph Barbera -->
     <g transform="translate(447.584982 296.739542)scale(0.09 -0.09)">
      <defs>
       <path id="DejaVuSans-4a" d="M 628 4666 
L 1259 4666 
L 1259 325 
Q 1259 -519 939 -900 
Q 619 -1281 -91 -1281 
L -331 -1281 
L -331 -750 
L -134 -750 
Q 284 -750 456 -515 
Q 628 -281 628 325 
L 628 4666 
z
" transform="scale(0.015625)"/>
       <path id="DejaVuSans-6f" d="M 1959 3097 
Q 1497 3097 1228 2736 
Q 959 2375 959 1747 
Q 959 1119 1226 758 
Q 1494 397 1959 397 
Q 2419 397 2687 759 
Q 2956 1122 2956 1747 
Q 2956 2369 2687 2733 
Q 2419 3097 1959 3097 
z
M 1959 3584 
Q 2709 3584 3137 3096 
Q 3566 2609 3566 1747 
Q 3566 888 3137 398 
Q 2709 -91 1959 -91 
Q 1206 -91 779 398 
Q 353 888 353 1747 
Q 353 2609 779 3096 
Q 1206 3584 1959 3584 
z
" transform="scale(0.015625)"/>
       <path id="DejaVuSans-73" d="M 2834 3397 
L 2834 2853 
Q 2591 2978 2328 3040 
Q 2066 3103 1784 3103 
Q 1356 3103 1142 2972 
Q 928 2841 928 2578 
Q 928 2378 1081 2264 
Q 1234 2150 1697 2047 
L 1894 2003 
Q 2506 1872 2764 1633 
Q 3022 1394 3022 966 
Q 3022 478 2636 193 
Q 2250 -91 1575 -91 
Q 1294 -91 989 -36 
Q 684 19 347 128 
L 347 722 
Q 666 556 975 473 
Q 1284 391 1588 391 
Q 1994 391 2212 530 
Q 2431 669 2431 922 
Q 2431 1156 2273 1281 
Q 2116 1406 1581 1522 
L 1381 1569 
Q 847 1681 609 1914 
Q 372 2147 372 2553 
Q 372 3047 722 3315 
Q 1072 3584 1716 3584 
Q 2034 3584 2315 3537 
Q 2597 3491 2834 3397 
z
" transform="scale(0.015625)"/>
       <path id="DejaVuSans-65" d="M 3597 1894 
L 3597 1613 
L 953 1613 
Q 991 1019 1311 708 
Q 1631 397 2203 397 
Q 2534 397 2845 478 
Q 3156 559 3463 722 
L 3463 178 
Q 3153 47 2828 -22 
Q 2503 -91 2169 -91 
Q 1331 -91 842 396 
Q 353 884 353 1716 
Q 353 2575 817 3079 
Q 1281 3584 2069 3584 
Q 2775 3584 3186 3129 
Q 3597 2675 3597 1894 
z
M 3022 2063 
Q 3016 2534 2758 2815 
Q 2500 3097 2075 3097 
Q 1594 3097 1305 2825 
Q 1016 2553 972 2059 
L 3022 2063 
z
" transform="scale(0.015625)"/>
       <path id="DejaVuSans-70" d="M 1159 525 
L 1159 -1331 
L 581 -1331 
L 581 3500 
L 1159 3500 
L 1159 2969 
Q 1341 3281 1617 3432 
Q 1894 3584 2278 3584 
Q 2916 3584 3314 3078 
Q 3713 2572 3713 1747 
Q 3713 922 3314 415 
Q 2916 -91 2278 -91 
Q 1894 -91 1617 61 
Q 1341 213 1159 525 
z
M 3116 1747 
Q 3116 2381 2855 2742 
Q 2594 3103 2138 3103 
Q 1681 3103 1420 2742 
Q 1159 2381 1159 1747 
Q 1159 1113 1420 752 
Q 1681 391 2138 391 
Q 2594 391 2855 752 
Q 3116 1113 3116 1747 
z
" transform="scale(0.015625)"/>
       <path id="DejaVuSans-68" d="M 3513 2113 
L 3513 0 
L 2938 0 
L 2938 2094 
Q 2938 2591 2744 2837 
Q 2550 3084 2163 3084 
Q 1697 3084 1428 2787 
Q 1159 2491 1159 1978 
L 1159 0 
L 581 0 
L 581 4863 
L 1159 4863 
L 1159 2956 
Q 1366 3272 1645 3428 
Q 1925 3584 2291 3584 
Q 2894 3584 3203 3211 
Q 3513 2838 3513 2113 
z
" transform="scale(0.015625)"/>
       <path id="DejaVuSans-20" transform="scale(0.015625)"/>
       <path id="DejaVuSans-42" d="M 1259 2228 
L 1259 519 
L 2272 519 
Q 2781 519 3026 730 
Q 3272 941 3272 1375 
Q 3272 1813 3026 2020 
Q 2781 2228 2272 2228 
L 1259 2228 
z
M 1259 4147 
L 1259 2741 
L 2194 2741 
Q 2656 2741 2882 2914 
Q 3109 3088 3109 3444 
Q 3109 3797 2882 3972 
Q 2656 4147 2194 4147 
L 1259 4147 
z
M 628 4666 
L 2241 4666 
Q 2963 4666 3353 4366 
Q 3744 4066 3744 3513 
Q 3744 3084 3544 2831 
Q 3344 2578 2956 2516 
Q 3422 2416 3680 2098 
Q 3938 1781 3938 1306 
Q 3938 681 3513 340 
Q 3088 0 2303 0 
L 628 0 
L 628 4666 
z
" transform="scale(0.015625)"/>
       <path id="DejaVuSans-61" d="M 2194 1759 
Q 1497 1759 1228 1600 
Q 959 1441 959 1056 
Q 959 750 1161 570 
Q 1363 391 1709 391 
Q 2188 391 2477 730 
Q 2766 1069 2766 1631 
L 2766 1759 
L 2194 1759 
z
M 3341 1997 
L 3341 0 
L 2766 0 
L 2766 531 
Q 2569 213 2275 61 
Q 1981 -91 1556 -91 
Q 1019 -91 701 211 
Q 384 513 384 1019 
Q 384 1609 779 1909 
Q 1175 2209 1959 2209 
L 2766 2209 
L 2766 2266 
Q 2766 2663 2505 2880 
Q 2244 3097 1772 3097 
Q 1472 3097 1187 3025 
Q 903 2953 641 2809 
L 641 3341 
Q 956 3463 1253 3523 
Q 1550 3584 1831 3584 
Q 2591 3584 2966 3190 
Q 3341 2797 3341 1997 
z
" transform="scale(0.015625)"/>
       <path id="DejaVuSans-72" d="M 2631 2963 
Q 2534 3019 2420 3045 
Q 2306 3072 2169 3072 
Q 1681 3072 1420 2755 
Q 1159 2438 1159 1844 
L 1159 0 
L 581 0 
L 581 3500 
L 1159 3500 
L 1159 2956 
Q 1341 3275 1631 3429 
Q 1922 3584 2338 3584 
Q 2397 3584 2469 3576 
Q 2541 3569 2628 3553 
L 2631 2963 
z
" transform="scale(0.015625)"/>
       <path id="DejaVuSans-62" d="M 3116 1747 
Q 3116 2381 2855 2742 
Q 2594 3103 2138 3103 
Q 1681 3103 1420 2742 
Q 1159 2381 1159 1747 
Q 1159 1113 1420 752 
Q 1681 391 2138 391 
Q 2594 391 2855 752 
Q 3116 1113 3116 1747 
z
M 1159 2969 
Q 1341 3281 1617 3432 
Q 1894 3584 2278 3584 
Q 2916 3584 3314 3078 
Q 3713 2572 3713 1747 
Q 3713 922 3314 415 
Q 2916 -91 2278 -91 
Q 1894 -91 1617 61 
Q 1341 213 1159 525 
L 1159 0 
L 581 0 
L 581 4863 
L 1159 4863 
L 1159 2969 
z
" transform="scale(0.015625)"/>
      </defs>
      <use xlink:href="#DejaVuSans-4a"/>
      <use xlink:href="#DejaVuSans-6f" x="29.492188"/>
      <use xlink:href="#DejaVuSans-73" x="90.673828"/>
      <use xlink:href="#DejaVuSans-65" x="142.773438"/>
      <use xlink:href="#DejaVuSans-70" x="204.296875"/>
      <use xlink:href="#DejaVuSans-68" x="267.773438"/>
      <use xlink:href="#DejaVuSans-20" x="331.152344"/>
      <use xlink:href="#DejaVuSans-42" x="362.939453"/>
      <use xlink:href="#DejaVuSans-61" x="431.542969"/>
      <use xlink:href="#DejaVuSans-72" x="492.822266"/>
      <use xlink:href="#DejaVuSans-62" x="533.935547"/>
      <use xlink:href="#DejaVuSans-65" x="597.412109"/>
      <use xlink:href="#DejaVuSans-72" x="658.935547"/>
      <use xlink:href="#DejaVuSans-61" x="700.048828"/>
     </g>
    </g>
   </g>
   <g id="text_2">
    <g id="patch_3">
     <path d="M 428.419087 217.923372 
L 501.385181 217.923372 
L 501.385181 201.29306 
L 428.419087 201.29306 
z
" clip-path="url(#p1fb0483c30)" style="fill: #ffffff; opacity: 0.7; stroke: #000000; stroke-linejoin: miter"/>
    </g>
    <g clip-path="url(#p1fb0483c30)">
     <!-- William Hanna -->
     <g transform="translate(432.379087 212.091653)scale(0.09 -0.09)">
      <defs>
       <path id="DejaVuSans-57" d="M 213 4666 
L 850 4666 
L 1831 722 
L 2809 4666 
L 3519 4666 
L 4500 722 
L 5478 4666 
L 6119 4666 
L 4947 0 
L 4153 0 
L 3169 4050 
L 2175 0 
L 1381 0 
L 213 4666 
z
" transform="scale(0.015625)"/>
       <path id="DejaVuSans-69" d="M 603 3500 
L 1178 3500 
L 1178 0 
L 603 0 
L 603 3500 
z
M 603 4863 
L 1178 4863 
L 1178 4134 
L 603 4134 
L 603 4863 
z
" transform="scale(0.015625)"/>
       <path id="DejaVuSans-6c" d="M 603 4863 
L 1178 4863 
L 1178 0 
L 603 0 
L 603 4863 
z
" transform="scale(0.015625)"/>
       <path id="DejaVuSans-6d" d="M 3328 2828 
Q 3544 3216 3844 3400 
Q 4144 3584 4550 3584 
Q 5097 3584 5394 3201 
Q 5691 2819 5691 2113 
L 5691 0 
L 5113 0 
L 5113 2094 
Q 5113 2597 4934 2840 
Q 4756 3084 4391 3084 
Q 3944 3084 3684 2787 
Q 3425 2491 3425 1978 
L 3425 0 
L 2847 0 
L 2847 2094 
Q 2847 2600 2669 2842 
Q 2491 3084 2119 3084 
Q 1678 3084 1418 2786 
Q 1159 2488 1159 1978 
L 1159 0 
L 581 0 
L 581 3500 
L 1159 3500 
L 1159 2956 
Q 1356 3278 1631 3431 
Q 1906 3584 2284 3584 
Q 2666 3584 2933 3390 
Q 3200 3197 3328 2828 
z
" transform="scale(0.015625)"/>
       <path id="DejaVuSans-48" d="M 628 4666 
L 1259 4666 
L 1259 2753 
L 3553 2753 
L 3553 4666 
L 4184 4666 
L 4184 0 
L 3553 0 
L 3553 2222 
L 1259 2222 
L 1259 0 
L 628 0 
L 628 4666 
z
" transform="scale(0.015625)"/>
       <path id="DejaVuSans-6e" d="M 3513 2113 
L 3513 0 
L 2938 0 
L 2938 2094 
Q 2938 2591 2744 2837 
Q 2550 3084 2163 3084 
Q 1697 3084 1428 2787 
Q 1159 2491 1159 1978 
L 1159 0 
L 581 0 
L 581 3500 
L 1159 3500 
L 1159 2956 
Q 1366 3272 1645 3428 
Q 1925 3584 2291 3584 
Q 2894 3584 3203 3211 
Q 3513 2838 3513 2113 
z
" transform="scale(0.015625)"/>
      </defs>
      <use xlink:href="#DejaVuSans-57"/>
      <use xlink:href="#DejaVuSans-69" x="96.626953"/>
      <use xlink:href="#DejaVuSans-6c" x="124.410156"/>
      <use xlink:href="#DejaVuSans-6c" x="152.193359"/>
      <use xlink:href="#DejaVuSans-69" x="179.976562"/>
      <use xlink:href="#DejaVuSans-61" x="207.759766"/>
      <use xlink:href="#DejaVuSans-6d" x="269.039062"/>
      <use xlink:href="#DejaVuSans-20" x="366.451172"/>
      <use xlink:href="#DejaVuSans-48" x="398.238281"/>
      <use xlink:href="#DejaVuSans-61" x="473.433594"/>
      <use xlink:href="#DejaVuSans-6e" x="534.712891"/>
      <use xlink:href="#DejaVuSans-6e" x="598.091797"/>
      <use xlink:href="#DejaVuSans-61" x="661.470703"/>
     </g>
    </g>
   </g>
   <g id="text_3">
    <g id="patch_4">
     <path d="M 394.315643 147.911863 
L 439.68408 147.911863 
L 439.68408 131.28155 
L 394.315643 131.28155 
z
" clip-path="url(#p1fb0483c30)" style="fill: #ffffff; opacity: 0.7; stroke: #000000; stroke-linejoin: miter"/>
    </g>
    <g clip-path="url(#p1fb0483c30)">
     <!-- Del Lord -->
     <g transform="translate(398.275643 142.080144)scale(0.09 -0.09)">
      <defs>
       <path id="DejaVuSans-44" d="M 1259 4147 
L 1259 519 
L 2022 519 
Q 2988 519 3436 956 
Q 3884 1394 3884 2338 
Q 3884 3275 3436 3711 
Q 2988 4147 2022 4147 
L 1259 4147 
z
M 628 4666 
L 1925 4666 
Q 3281 4666 3915 4102 
Q 4550 3538 4550 2338 
Q 4550 1131 3912 565 
Q 3275 0 1925 0 
L 628 0 
L 628 4666 
z
" transform="scale(0.015625)"/>
       <path id="DejaVuSans-4c" d="M 628 4666 
L 1259 4666 
L 1259 531 
L 3531 531 
L 3531 0 
L 628 0 
L 628 4666 
z
" transform="scale(0.015625)"/>
       <path id="DejaVuSans-64" d="M 2906 2969 
L 2906 4863 
L 3481 4863 
L 3481 0 
L 2906 0 
L 2906 525 
Q 2725 213 2448 61 
Q 2172 -91 1784 -91 
Q 1150 -91 751 415 
Q 353 922 353 1747 
Q 353 2572 751 3078 
Q 1150 3584 1784 3584 
Q 2172 3584 2448 3432 
Q 2725 3281 2906 2969 
z
M 947 1747 
Q 947 1113 1208 752 
Q 1469 391 1925 391 
Q 2381 391 2643 752 
Q 2906 1113 2906 1747 
Q 2906 2381 2643 2742 
Q 2381 3103 1925 3103 
Q 1469 3103 1208 2742 
Q 947 2381 947 1747 
z
" transform="scale(0.015625)"/>
      </defs>
      <use xlink:href="#DejaVuSans-44"/>
      <use xlink:href="#DejaVuSans-65" x="77.001953"/>
      <use xlink:href="#DejaVuSans-6c" x="138.525391"/>
      <use xlink:href="#DejaVuSans-20" x="166.308594"/>
      <use xlink:href="#DejaVuSans-4c" x="198.095703"/>
      <use xlink:href="#DejaVuSans-6f" x="252.058594"/>
      <use xlink:href="#DejaVuSans-72" x="313.240234"/>
      <use xlink:href="#DejaVuSans-64" x="352.603516"/>
     </g>
    </g>
   </g>
   <g id="text_4">
    <g id="patch_5">
     <path d="M 316.800829 104.642381 
L 376.043329 104.642381 
L 376.043329 88.012068 
L 316.800829 88.012068 
z
" clip-path="url(#p1fb0483c30)" style="fill: #ffffff; opacity: 0.7; stroke: #000000; stroke-linejoin: miter"/>
    </g>
    <g clip-path="url(#p1fb0483c30)">
     <!-- Friz Freleng -->
     <g transform="translate(320.760829 98.810662)scale(0.09 -0.09)">
      <defs>
       <path id="DejaVuSans-46" d="M 628 4666 
L 3309 4666 
L 3309 4134 
L 1259 4134 
L 1259 2759 
L 3109 2759 
L 3109 2228 
L 1259 2228 
L 1259 0 
L 628 0 
L 628 4666 
z
" transform="scale(0.015625)"/>
       <path id="DejaVuSans-7a" d="M 353 3500 
L 3084 3500 
L 3084 2975 
L 922 459 
L 3084 459 
L 3084 0 
L 275 0 
L 275 525 
L 2438 3041 
L 353 3041 
L 353 3500 
z
" transform="scale(0.015625)"/>
       <path id="DejaVuSans-67" d="M 2906 1791 
Q 2906 2416 2648 2759 
Q 2391 3103 1925 3103 
Q 1463 3103 1205 2759 
Q 947 2416 947 1791 
Q 947 1169 1205 825 
Q 1463 481 1925 481 
Q 2391 481 2648 825 
Q 2906 1169 2906 1791 
z
M 3481 434 
Q 3481 -459 3084 -895 
Q 2688 -1331 1869 -1331 
Q 1566 -1331 1297 -1286 
Q 1028 -1241 775 -1147 
L 775 -588 
Q 1028 -725 1275 -790 
Q 1522 -856 1778 -856 
Q 2344 -856 2625 -561 
Q 2906 -266 2906 331 
L 2906 616 
Q 2728 306 2450 153 
Q 2172 0 1784 0 
Q 1141 0 747 490 
Q 353 981 353 1791 
Q 353 2603 747 3093 
Q 1141 3584 1784 3584 
Q 2172 3584 2450 3431 
Q 2728 3278 2906 2969 
L 2906 3500 
L 3481 3500 
L 3481 434 
z
" transform="scale(0.015625)"/>
      </defs>
      <use xlink:href="#DejaVuSans-46"/>
      <use xlink:href="#DejaVuSans-72" x="50.269531"/>
      <use xlink:href="#DejaVuSans-69" x="91.382812"/>
      <use xlink:href="#DejaVuSans-7a" x="119.166016"/>
      <use xlink:href="#DejaVuSans-20" x="171.65625"/>
      <use xlink:href="#DejaVuSans-46" x="203.443359"/>
      <use xlink:href="#DejaVuSans-72" x="253.712891"/>
      <use xlink:href="#DejaVuSans-65" x="292.576172"/>
      <use xlink:href="#DejaVuSans-6c" x="354.099609"/>
      <use xlink:href="#DejaVuSans-65" x="381.882812"/>
      <use xlink:href="#DejaVuSans-6e" x="443.40625"/>
      <use xlink:href="#DejaVuSans-67" x="506.785156"/>
     </g>
    </g>
   </g>
   <g id="text_5">
    <g id="patch_6">
     <path d="M 234.010123 95.596596 
L 296.734498 95.596596 
L 296.734498 78.966283 
L 234.010123 78.966283 
z
" clip-path="url(#p1fb0483c30)" style="fill: #ffffff; opacity: 0.7; stroke: #000000; stroke-linejoin: miter"/>
    </g>
    <g clip-path="url(#p1fb0483c30)">
     <!-- Chuck Jones -->
     <g transform="translate(237.970123 89.764877)scale(0.09 -0.09)">
      <defs>
       <path id="DejaVuSans-43" d="M 4122 4306 
L 4122 3641 
Q 3803 3938 3442 4084 
Q 3081 4231 2675 4231 
Q 1875 4231 1450 3742 
Q 1025 3253 1025 2328 
Q 1025 1406 1450 917 
Q 1875 428 2675 428 
Q 3081 428 3442 575 
Q 3803 722 4122 1019 
L 4122 359 
Q 3791 134 3420 21 
Q 3050 -91 2638 -91 
Q 1578 -91 968 557 
Q 359 1206 359 2328 
Q 359 3453 968 4101 
Q 1578 4750 2638 4750 
Q 3056 4750 3426 4639 
Q 3797 4528 4122 4306 
z
" transform="scale(0.015625)"/>
       <path id="DejaVuSans-75" d="M 544 1381 
L 544 3500 
L 1119 3500 
L 1119 1403 
Q 1119 906 1312 657 
Q 1506 409 1894 409 
Q 2359 409 2629 706 
Q 2900 1003 2900 1516 
L 2900 3500 
L 3475 3500 
L 3475 0 
L 2900 0 
L 2900 538 
Q 2691 219 2414 64 
Q 2138 -91 1772 -91 
Q 1169 -91 856 284 
Q 544 659 544 1381 
z
M 1991 3584 
L 1991 3584 
z
" transform="scale(0.015625)"/>
       <path id="DejaVuSans-63" d="M 3122 3366 
L 3122 2828 
Q 2878 2963 2633 3030 
Q 2388 3097 2138 3097 
Q 1578 3097 1268 2742 
Q 959 2388 959 1747 
Q 959 1106 1268 751 
Q 1578 397 2138 397 
Q 2388 397 2633 464 
Q 2878 531 3122 666 
L 3122 134 
Q 2881 22 2623 -34 
Q 2366 -91 2075 -91 
Q 1284 -91 818 406 
Q 353 903 353 1747 
Q 353 2603 823 3093 
Q 1294 3584 2113 3584 
Q 2378 3584 2631 3529 
Q 2884 3475 3122 3366 
z
" transform="scale(0.015625)"/>
       <path id="DejaVuSans-6b" d="M 581 4863 
L 1159 4863 
L 1159 1991 
L 2875 3500 
L 3609 3500 
L 1753 1863 
L 3688 0 
L 2938 0 
L 1159 1709 
L 1159 0 
L 581 0 
L 581 4863 
z
" transform="scale(0.015625)"/>
      </defs>
      <use xlink:href="#DejaVuSans-43"/>
      <use xlink:href="#DejaVuSans-68" x="69.824219"/>
      <use xlink:href="#DejaVuSans-75" x="133.203125"/>
      <use xlink:href="#DejaVuSans-63" x="196.582031"/>
      <use xlink:href="#DejaVuSans-6b" x="251.5625"/>
      <use xlink:href="#DejaVuSans-20" x="309.472656"/>
      <use xlink:href="#DejaVuSans-4a" x="341.259766"/>
      <use xlink:href="#DejaVuSans-6f" x="370.751953"/>
      <use xlink:href="#DejaVuSans-6e" x="431.933594"/>
      <use xlink:href="#DejaVuSans-65" x="495.3125"/>
      <use xlink:href="#DejaVuSans-73" x="556.835938"/>
     </g>
    </g>
   </g>
   <g id="text_6">
    <g id="patch_7">
     <path d="M 156.96387 122.338616 
L 218.765745 122.338616 
L 218.765745 105.708304 
L 156.96387 105.708304 
z
" clip-path="url(#p1fb0483c30)" style="fill: #ffffff; opacity: 0.7; stroke: #000000; stroke-linejoin: miter"/>
    </g>
    <g clip-path="url(#p1fb0483c30)">
     <!-- Satyajit Ray -->
     <g transform="translate(160.92387 116.506898)scale(0.09 -0.09)">
      <defs>
       <path id="DejaVuSans-53" d="M 3425 4513 
L 3425 3897 
Q 3066 4069 2747 4153 
Q 2428 4238 2131 4238 
Q 1616 4238 1336 4038 
Q 1056 3838 1056 3469 
Q 1056 3159 1242 3001 
Q 1428 2844 1947 2747 
L 2328 2669 
Q 3034 2534 3370 2195 
Q 3706 1856 3706 1288 
Q 3706 609 3251 259 
Q 2797 -91 1919 -91 
Q 1588 -91 1214 -16 
Q 841 59 441 206 
L 441 856 
Q 825 641 1194 531 
Q 1563 422 1919 422 
Q 2459 422 2753 634 
Q 3047 847 3047 1241 
Q 3047 1584 2836 1778 
Q 2625 1972 2144 2069 
L 1759 2144 
Q 1053 2284 737 2584 
Q 422 2884 422 3419 
Q 422 4038 858 4394 
Q 1294 4750 2059 4750 
Q 2388 4750 2728 4690 
Q 3069 4631 3425 4513 
z
" transform="scale(0.015625)"/>
       <path id="DejaVuSans-74" d="M 1172 4494 
L 1172 3500 
L 2356 3500 
L 2356 3053 
L 1172 3053 
L 1172 1153 
Q 1172 725 1289 603 
Q 1406 481 1766 481 
L 2356 481 
L 2356 0 
L 1766 0 
Q 1100 0 847 248 
Q 594 497 594 1153 
L 594 3053 
L 172 3053 
L 172 3500 
L 594 3500 
L 594 4494 
L 1172 4494 
z
" transform="scale(0.015625)"/>
       <path id="DejaVuSans-79" d="M 2059 -325 
Q 1816 -950 1584 -1140 
Q 1353 -1331 966 -1331 
L 506 -1331 
L 506 -850 
L 844 -850 
Q 1081 -850 1212 -737 
Q 1344 -625 1503 -206 
L 1606 56 
L 191 3500 
L 800 3500 
L 1894 763 
L 2988 3500 
L 3597 3500 
L 2059 -325 
z
" transform="scale(0.015625)"/>
       <path id="DejaVuSans-6a" d="M 603 3500 
L 1178 3500 
L 1178 -63 
Q 1178 -731 923 -1031 
Q 669 -1331 103 -1331 
L -116 -1331 
L -116 -844 
L 38 -844 
Q 366 -844 484 -692 
Q 603 -541 603 -63 
L 603 3500 
z
M 603 4863 
L 1178 4863 
L 1178 4134 
L 603 4134 
L 603 4863 
z
" transform="scale(0.015625)"/>
       <path id="DejaVuSans-52" d="M 2841 2188 
Q 3044 2119 3236 1894 
Q 3428 1669 3622 1275 
L 4263 0 
L 3584 0 
L 2988 1197 
Q 2756 1666 2539 1819 
Q 2322 1972 1947 1972 
L 1259 1972 
L 1259 0 
L 628 0 
L 628 4666 
L 2053 4666 
Q 2853 4666 3247 4331 
Q 3641 3997 3641 3322 
Q 3641 2881 3436 2590 
Q 3231 2300 2841 2188 
z
M 1259 4147 
L 1259 2491 
L 2053 2491 
Q 2509 2491 2742 2702 
Q 2975 2913 2975 3322 
Q 2975 3731 2742 3939 
Q 2509 4147 2053 4147 
L 1259 4147 
z
" transform="scale(0.015625)"/>
      </defs>
      <use xlink:href="#DejaVuSans-53"/>
      <use xlink:href="#DejaVuSans-61" x="63.476562"/>
      <use xlink:href="#DejaVuSans-74" x="124.755859"/>
      <use xlink:href="#DejaVuSans-79" x="163.964844"/>
      <use xlink:href="#DejaVuSans-61" x="223.144531"/>
      <use xlink:href="#DejaVuSans-6a" x="284.423828"/>
      <use xlink:href="#DejaVuSans-69" x="312.207031"/>
      <use xlink:href="#DejaVuSans-74" x="339.990234"/>
      <use xlink:href="#DejaVuSans-20" x="379.199219"/>
      <use xlink:href="#DejaVuSans-52" x="410.986328"/>
      <use xlink:href="#DejaVuSans-61" x="478.21875"/>
      <use xlink:href="#DejaVuSans-79" x="539.498047"/>
     </g>
    </g>
   </g>
   <g id="text_7">
    <g id="patch_8">
     <path d="M 80.38391 180.24449 
L 174.218754 180.24449 
L 174.218754 163.614178 
L 80.38391 163.614178 
z
" clip-path="url(#p1fb0483c30)" style="fill: #ffffff; opacity: 0.7; stroke: #000000; stroke-linejoin: miter"/>
    </g>
    <g clip-path="url(#p1fb0483c30)">
     <!-- Robert F. McGowan -->
     <g transform="translate(84.34391 174.412772)scale(0.09 -0.09)">
      <defs>
       <path id="DejaVuSans-2e" d="M 684 794 
L 1344 794 
L 1344 0 
L 684 0 
L 684 794 
z
" transform="scale(0.015625)"/>
       <path id="DejaVuSans-4d" d="M 628 4666 
L 1569 4666 
L 2759 1491 
L 3956 4666 
L 4897 4666 
L 4897 0 
L 4281 0 
L 4281 4097 
L 3078 897 
L 2444 897 
L 1241 4097 
L 1241 0 
L 628 0 
L 628 4666 
z
" transform="scale(0.015625)"/>
       <path id="DejaVuSans-47" d="M 3809 666 
L 3809 1919 
L 2778 1919 
L 2778 2438 
L 4434 2438 
L 4434 434 
Q 4069 175 3628 42 
Q 3188 -91 2688 -91 
Q 1594 -91 976 548 
Q 359 1188 359 2328 
Q 359 3472 976 4111 
Q 1594 4750 2688 4750 
Q 3144 4750 3555 4637 
Q 3966 4525 4313 4306 
L 4313 3634 
Q 3963 3931 3569 4081 
Q 3175 4231 2741 4231 
Q 1884 4231 1454 3753 
Q 1025 3275 1025 2328 
Q 1025 1384 1454 906 
Q 1884 428 2741 428 
Q 3075 428 3337 486 
Q 3600 544 3809 666 
z
" transform="scale(0.015625)"/>
       <path id="DejaVuSans-77" d="M 269 3500 
L 844 3500 
L 1563 769 
L 2278 3500 
L 2956 3500 
L 3675 769 
L 4391 3500 
L 4966 3500 
L 4050 0 
L 3372 0 
L 2619 2869 
L 1863 0 
L 1184 0 
L 269 3500 
z
" transform="scale(0.015625)"/>
      </defs>
      <use xlink:href="#DejaVuSans-52"/>
      <use xlink:href="#DejaVuSans-6f" x="64.982422"/>
      <use xlink:href="#DejaVuSans-62" x="126.164062"/>
      <use xlink:href="#DejaVuSans-65" x="189.640625"/>
      <use xlink:href="#DejaVuSans-72" x="251.164062"/>
      <use xlink:href="#DejaVuSans-74" x="292.277344"/>
      <use xlink:href="#DejaVuSans-20" x="331.486328"/>
      <use xlink:href="#DejaVuSans-46" x="363.273438"/>
      <use xlink:href="#DejaVuSans-2e" x="404.667969"/>
      <use xlink:href="#DejaVuSans-20" x="436.455078"/>
      <use xlink:href="#DejaVuSans-4d" x="468.242188"/>
      <use xlink:href="#DejaVuSans-63" x="554.521484"/>
      <use xlink:href="#DejaVuSans-47" x="609.501953"/>
      <use xlink:href="#DejaVuSans-6f" x="686.992188"/>
      <use xlink:href="#DejaVuSans-77" x="748.173828"/>
      <use xlink:href="#DejaVuSans-61" x="829.960938"/>
      <use xlink:href="#DejaVuSans-6e" x="891.240234"/>
     </g>
    </g>
   </g>
   <g id="text_8">
    <g id="patch_9">
     <path d="M 54.837897 259.301791 
L 133.469772 259.301791 
L 133.469772 242.671478 
L 54.837897 242.671478 
z
" clip-path="url(#p1fb0483c30)" style="fill: #ffffff; opacity: 0.7; stroke: #000000; stroke-linejoin: miter"/>
    </g>
    <g clip-path="url(#p1fb0483c30)">
     <!-- Charles Chaplin -->
     <g transform="translate(58.797897 253.470072)scale(0.09 -0.09)">
      <use xlink:href="#DejaVuSans-43"/>
      <use xlink:href="#DejaVuSans-68" x="69.824219"/>
      <use xlink:href="#DejaVuSans-61" x="133.203125"/>
      <use xlink:href="#DejaVuSans-72" x="194.482422"/>
      <use xlink:href="#DejaVuSans-6c" x="235.595703"/>
      <use xlink:href="#DejaVuSans-65" x="263.378906"/>
      <use xlink:href="#DejaVuSans-73" x="324.902344"/>
      <use xlink:href="#DejaVuSans-20" x="377.001953"/>
      <use xlink:href="#DejaVuSans-43" x="408.789062"/>
      <use xlink:href="#DejaVuSans-68" x="478.613281"/>
      <use xlink:href="#DejaVuSans-61" x="541.992188"/>
      <use xlink:href="#DejaVuSans-70" x="603.271484"/>
      <use xlink:href="#DejaVuSans-6c" x="666.748047"/>
      <use xlink:href="#DejaVuSans-69" x="694.53125"/>
      <use xlink:href="#DejaVuSans-6e" x="722.314453"/>
     </g>
    </g>
   </g>
   <g id="text_9">
    <g id="patch_10">
     <path d="M 50.955252 345.840767 
L 137.35244 345.840767 
L 137.35244 329.210455 
L 50.955252 329.210455 
z
" clip-path="url(#p1fb0483c30)" style="fill: #ffffff; opacity: 0.7; stroke: #000000; stroke-linejoin: miter"/>
    </g>
    <g clip-path="url(#p1fb0483c30)">
     <!-- Robert McKimson -->
     <g transform="translate(54.915252 340.009049)scale(0.09 -0.09)">
      <defs>
       <path id="DejaVuSans-4b" d="M 628 4666 
L 1259 4666 
L 1259 2694 
L 3353 4666 
L 4166 4666 
L 1850 2491 
L 4331 0 
L 3500 0 
L 1259 2247 
L 1259 0 
L 628 0 
L 628 4666 
z
" transform="scale(0.015625)"/>
      </defs>
      <use xlink:href="#DejaVuSans-52"/>
      <use xlink:href="#DejaVuSans-6f" x="64.982422"/>
      <use xlink:href="#DejaVuSans-62" x="126.164062"/>
      <use xlink:href="#DejaVuSans-65" x="189.640625"/>
      <use xlink:href="#DejaVuSans-72" x="251.164062"/>
      <use xlink:href="#DejaVuSans-74" x="292.277344"/>
      <use xlink:href="#DejaVuSans-20" x="331.486328"/>
      <use xlink:href="#DejaVuSans-4d" x="363.273438"/>
      <use xlink:href="#DejaVuSans-63" x="449.552734"/>
      <use xlink:href="#DejaVuSans-4b" x="504.533203"/>
      <use xlink:href="#DejaVuSans-69" x="570.109375"/>
      <use xlink:href="#DejaVuSans-6d" x="597.892578"/>
      <use xlink:href="#DejaVuSans-73" x="695.304688"/>
      <use xlink:href="#DejaVuSans-6f" x="747.404297"/>
      <use xlink:href="#DejaVuSans-6e" x="808.585938"/>
     </g>
    </g>
   </g>
   <g id="text_10">
    <g id="patch_11">
     <path d="M 86.306344 424.898043 
L 168.296344 424.898043 
L 168.296344 408.267731 
L 86.306344 408.267731 
z
" clip-path="url(#p1fb0483c30)" style="fill: #ffffff; opacity: 0.7; stroke: #000000; stroke-linejoin: miter"/>
    </g>
    <g clip-path="url(#p1fb0483c30)">
     <!-- Robert Clampett -->
     <g transform="translate(90.266344 419.066324)scale(0.09 -0.09)">
      <use xlink:href="#DejaVuSans-52"/>
      <use xlink:href="#DejaVuSans-6f" x="64.982422"/>
      <use xlink:href="#DejaVuSans-62" x="126.164062"/>
      <use xlink:href="#DejaVuSans-65" x="189.640625"/>
      <use xlink:href="#DejaVuSans-72" x="251.164062"/>
      <use xlink:href="#DejaVuSans-74" x="292.277344"/>
      <use xlink:href="#DejaVuSans-20" x="331.486328"/>
      <use xlink:href="#DejaVuSans-43" x="363.273438"/>
      <use xlink:href="#DejaVuSans-6c" x="433.097656"/>
      <use xlink:href="#DejaVuSans-61" x="460.880859"/>
      <use xlink:href="#DejaVuSans-6d" x="522.160156"/>
      <use xlink:href="#DejaVuSans-70" x="619.572266"/>
      <use xlink:href="#DejaVuSans-65" x="683.048828"/>
      <use xlink:href="#DejaVuSans-74" x="744.572266"/>
      <use xlink:href="#DejaVuSans-74" x="783.78125"/>
     </g>
    </g>
   </g>
   <g id="text_11">
    <g id="patch_12">
     <path d="M 150.820696 482.803917 
L 224.908977 482.803917 
L 224.908977 466.173605 
L 150.820696 466.173605 
z
" clip-path="url(#p1fb0483c30)" style="fill: #ffffff; opacity: 0.7; stroke: #000000; stroke-linejoin: miter"/>
    </g>
    <g clip-path="url(#p1fb0483c30)">
     <!-- George Sidney -->
     <g transform="translate(154.780696 476.972198)scale(0.09 -0.09)">
      <use xlink:href="#DejaVuSans-47"/>
      <use xlink:href="#DejaVuSans-65" x="77.490234"/>
      <use xlink:href="#DejaVuSans-6f" x="139.013672"/>
      <use xlink:href="#DejaVuSans-72" x="200.195312"/>
      <use xlink:href="#DejaVuSans-67" x="239.558594"/>
      <use xlink:href="#DejaVuSans-65" x="303.035156"/>
      <use xlink:href="#DejaVuSans-20" x="364.558594"/>
      <use xlink:href="#DejaVuSans-53" x="396.345703"/>
      <use xlink:href="#DejaVuSans-69" x="459.822266"/>
      <use xlink:href="#DejaVuSans-64" x="487.605469"/>
      <use xlink:href="#DejaVuSans-6e" x="551.082031"/>
      <use xlink:href="#DejaVuSans-65" x="614.460938"/>
      <use xlink:href="#DejaVuSans-79" x="675.984375"/>
     </g>
    </g>
   </g>
   <g id="text_12">
    <g id="patch_13">
     <path d="M 237.160158 509.545925 
L 293.584533 509.545925 
L 293.584533 492.915613 
L 237.160158 492.915613 
z
" clip-path="url(#p1fb0483c30)" style="fill: #ffffff; opacity: 0.7; stroke: #000000; stroke-linejoin: miter"/>
    </g>
    <g clip-path="url(#p1fb0483c30)">
     <!-- Don Siegel -->
     <g transform="translate(241.120158 503.714207)scale(0.09 -0.09)">
      <use xlink:href="#DejaVuSans-44"/>
      <use xlink:href="#DejaVuSans-6f" x="77.001953"/>
      <use xlink:href="#DejaVuSans-6e" x="138.183594"/>
      <use xlink:href="#DejaVuSans-20" x="201.5625"/>
      <use xlink:href="#DejaVuSans-53" x="233.349609"/>
      <use xlink:href="#DejaVuSans-69" x="296.826172"/>
      <use xlink:href="#DejaVuSans-65" x="324.609375"/>
      <use xlink:href="#DejaVuSans-67" x="386.132812"/>
      <use xlink:href="#DejaVuSans-65" x="449.609375"/>
      <use xlink:href="#DejaVuSans-6c" x="511.132812"/>
     </g>
    </g>
   </g>
   <g id="text_13">
    <g id="patch_14">
     <path d="M 307.627889 500.500128 
L 385.216327 500.500128 
L 385.216327 483.869815 
L 307.627889 483.869815 
z
" clip-path="url(#p1fb0483c30)" style="fill: #ffffff; opacity: 0.7; stroke: #000000; stroke-linejoin: miter"/>
    </g>
    <g clip-path="url(#p1fb0483c30)">
     <!-- Busby Berkeley -->
     <g transform="translate(311.587889 494.668409)scale(0.09 -0.09)">
      <use xlink:href="#DejaVuSans-42"/>
      <use xlink:href="#DejaVuSans-75" x="68.603516"/>
      <use xlink:href="#DejaVuSans-73" x="131.982422"/>
      <use xlink:href="#DejaVuSans-62" x="184.082031"/>
      <use xlink:href="#DejaVuSans-79" x="247.558594"/>
      <use xlink:href="#DejaVuSans-20" x="306.738281"/>
      <use xlink:href="#DejaVuSans-42" x="338.525391"/>
      <use xlink:href="#DejaVuSans-65" x="407.128906"/>
      <use xlink:href="#DejaVuSans-72" x="468.652344"/>
      <use xlink:href="#DejaVuSans-6b" x="509.765625"/>
      <use xlink:href="#DejaVuSans-65" x="564.050781"/>
      <use xlink:href="#DejaVuSans-6c" x="625.574219"/>
      <use xlink:href="#DejaVuSans-65" x="653.357422"/>
      <use xlink:href="#DejaVuSans-79" x="714.880859"/>
     </g>
    </g>
   </g>
   <g id="text_14">
    <g id="patch_15">
     <path d="M 383.614115 457.230621 
L 450.385678 457.230621 
L 450.385678 440.600308 
L 383.614115 440.600308 
z
" clip-path="url(#p1fb0483c30)" style="fill: #ffffff; opacity: 0.7; stroke: #000000; stroke-linejoin: miter"/>
    </g>
    <g clip-path="url(#p1fb0483c30)">
     <!-- Priyadarshan -->
     <g transform="translate(387.574115 451.398902)scale(0.09 -0.09)">
      <defs>
       <path id="DejaVuSans-50" d="M 1259 4147 
L 1259 2394 
L 2053 2394 
Q 2494 2394 2734 2622 
Q 2975 2850 2975 3272 
Q 2975 3691 2734 3919 
Q 2494 4147 2053 4147 
L 1259 4147 
z
M 628 4666 
L 2053 4666 
Q 2838 4666 3239 4311 
Q 3641 3956 3641 3272 
Q 3641 2581 3239 2228 
Q 2838 1875 2053 1875 
L 1259 1875 
L 1259 0 
L 628 0 
L 628 4666 
z
" transform="scale(0.015625)"/>
      </defs>
      <use xlink:href="#DejaVuSans-50"/>
      <use xlink:href="#DejaVuSans-72" x="58.552734"/>
      <use xlink:href="#DejaVuSans-69" x="99.666016"/>
      <use xlink:href="#DejaVuSans-79" x="127.449219"/>
      <use xlink:href="#DejaVuSans-61" x="186.628906"/>
      <use xlink:href="#DejaVuSans-64" x="247.908203"/>
      <use xlink:href="#DejaVuSans-61" x="311.384766"/>
      <use xlink:href="#DejaVuSans-72" x="372.664062"/>
      <use xlink:href="#DejaVuSans-73" x="413.777344"/>
      <use xlink:href="#DejaVuSans-68" x="465.876953"/>
      <use xlink:href="#DejaVuSans-61" x="529.255859"/>
      <use xlink:href="#DejaVuSans-6e" x="590.535156"/>
     </g>
    </g>
   </g>
   <g id="text_15">
    <g id="patch_16">
     <path d="M 428.369188 387.219118 
L 501.435126 387.219118 
L 501.435126 370.588806 
L 428.369188 370.588806 
z
" clip-path="url(#p1fb0483c30)" style="fill: #ffffff; opacity: 0.7; stroke: #000000; stroke-linejoin: miter"/>
    </g>
    <g clip-path="url(#p1fb0483c30)">
     <!-- Michael Moore -->
     <g transform="translate(432.329188 381.387399)scale(0.09 -0.09)">
      <use xlink:href="#DejaVuSans-4d"/>
      <use xlink:href="#DejaVuSans-69" x="86.279297"/>
      <use xlink:href="#DejaVuSans-63" x="114.0625"/>
      <use xlink:href="#DejaVuSans-68" x="169.042969"/>
      <use xlink:href="#DejaVuSans-61" x="232.421875"/>
      <use xlink:href="#DejaVuSans-65" x="293.701172"/>
      <use xlink:href="#DejaVuSans-6c" x="355.224609"/>
      <use xlink:href="#DejaVuSans-20" x="383.007812"/>
      <use xlink:href="#DejaVuSans-4d" x="414.794922"/>
      <use xlink:href="#DejaVuSans-6f" x="501.074219"/>
      <use xlink:href="#DejaVuSans-6f" x="562.255859"/>
      <use xlink:href="#DejaVuSans-72" x="623.4375"/>
      <use xlink:href="#DejaVuSans-65" x="662.300781"/>
     </g>
    </g>
   </g>
   <g id="text_16">
    <!-- Impactful directors for Documentary genre - Importance rank: 7 -->
    <g transform="translate(95.835 4.8)scale(0.12 -0.12)">
     <defs>
      <path id="DejaVuSans-49" d="M 628 4666 
L 1259 4666 
L 1259 0 
L 628 0 
L 628 4666 
z
" transform="scale(0.015625)"/>
      <path id="DejaVuSans-66" d="M 2375 4863 
L 2375 4384 
L 1825 4384 
Q 1516 4384 1395 4259 
Q 1275 4134 1275 3809 
L 1275 3500 
L 2222 3500 
L 2222 3053 
L 1275 3053 
L 1275 0 
L 697 0 
L 697 3053 
L 147 3053 
L 147 3500 
L 697 3500 
L 697 3744 
Q 697 4328 969 4595 
Q 1241 4863 1831 4863 
L 2375 4863 
z
" transform="scale(0.015625)"/>
      <path id="DejaVuSans-2d" d="M 313 2009 
L 1997 2009 
L 1997 1497 
L 313 1497 
L 313 2009 
z
" transform="scale(0.015625)"/>
      <path id="DejaVuSans-3a" d="M 750 794 
L 1409 794 
L 1409 0 
L 750 0 
L 750 794 
z
M 750 3309 
L 1409 3309 
L 1409 2516 
L 750 2516 
L 750 3309 
z
" transform="scale(0.015625)"/>
      <path id="DejaVuSans-37" d="M 525 4666 
L 3525 4666 
L 3525 4397 
L 1831 0 
L 1172 0 
L 2766 4134 
L 525 4134 
L 525 4666 
z
" transform="scale(0.015625)"/>
     </defs>
     <use xlink:href="#DejaVuSans-49"/>
     <use xlink:href="#DejaVuSans-6d" x="29.492188"/>
     <use xlink:href="#DejaVuSans-70" x="126.904297"/>
     <use xlink:href="#DejaVuSans-61" x="190.380859"/>
     <use xlink:href="#DejaVuSans-63" x="251.660156"/>
     <use xlink:href="#DejaVuSans-74" x="306.640625"/>
     <use xlink:href="#DejaVuSans-66" x="345.849609"/>
     <use xlink:href="#DejaVuSans-75" x="381.054688"/>
     <use xlink:href="#DejaVuSans-6c" x="444.433594"/>
     <use xlink:href="#DejaVuSans-20" x="472.216797"/>
     <use xlink:href="#DejaVuSans-64" x="504.003906"/>
     <use xlink:href="#DejaVuSans-69" x="567.480469"/>
     <use xlink:href="#DejaVuSans-72" x="595.263672"/>
     <use xlink:href="#DejaVuSans-65" x="634.126953"/>
     <use xlink:href="#DejaVuSans-63" x="695.650391"/>
     <use xlink:href="#DejaVuSans-74" x="750.630859"/>
     <use xlink:href="#DejaVuSans-6f" x="789.839844"/>
     <use xlink:href="#DejaVuSans-72" x="851.021484"/>
     <use xlink:href="#DejaVuSans-73" x="892.134766"/>
     <use xlink:href="#DejaVuSans-20" x="944.234375"/>
     <use xlink:href="#DejaVuSans-66" x="976.021484"/>
     <use xlink:href="#DejaVuSans-6f" x="1011.226562"/>
     <use xlink:href="#DejaVuSans-72" x="1072.408203"/>
     <use xlink:href="#DejaVuSans-20" x="1113.521484"/>
     <use xlink:href="#DejaVuSans-44" x="1145.308594"/>
     <use xlink:href="#DejaVuSans-6f" x="1222.310547"/>
     <use xlink:href="#DejaVuSans-63" x="1283.492188"/>
     <use xlink:href="#DejaVuSans-75" x="1338.472656"/>
     <use xlink:href="#DejaVuSans-6d" x="1401.851562"/>
     <use xlink:href="#DejaVuSans-65" x="1499.263672"/>
     <use xlink:href="#DejaVuSans-6e" x="1560.787109"/>
     <use xlink:href="#DejaVuSans-74" x="1624.166016"/>
     <use xlink:href="#DejaVuSans-61" x="1663.375"/>
     <use xlink:href="#DejaVuSans-72" x="1724.654297"/>
     <use xlink:href="#DejaVuSans-79" x="1765.767578"/>
     <use xlink:href="#DejaVuSans-20" x="1824.947266"/>
     <use xlink:href="#DejaVuSans-67" x="1856.734375"/>
     <use xlink:href="#DejaVuSans-65" x="1920.210938"/>
     <use xlink:href="#DejaVuSans-6e" x="1981.734375"/>
     <use xlink:href="#DejaVuSans-72" x="2045.113281"/>
     <use xlink:href="#DejaVuSans-65" x="2083.976562"/>
     <use xlink:href="#DejaVuSans-20" x="2145.5"/>
     <use xlink:href="#DejaVuSans-2d" x="2177.287109"/>
     <use xlink:href="#DejaVuSans-20" x="2213.371094"/>
     <use xlink:href="#DejaVuSans-49" x="2245.158203"/>
     <use xlink:href="#DejaVuSans-6d" x="2274.650391"/>
     <use xlink:href="#DejaVuSans-70" x="2372.0625"/>
     <use xlink:href="#DejaVuSans-6f" x="2435.539062"/>
     <use xlink:href="#DejaVuSans-72" x="2496.720703"/>
     <use xlink:href="#DejaVuSans-74" x="2537.833984"/>
     <use xlink:href="#DejaVuSans-61" x="2577.042969"/>
     <use xlink:href="#DejaVuSans-6e" x="2638.322266"/>
     <use xlink:href="#DejaVuSans-63" x="2701.701172"/>
     <use xlink:href="#DejaVuSans-65" x="2756.681641"/>
     <use xlink:href="#DejaVuSans-20" x="2818.205078"/>
     <use xlink:href="#DejaVuSans-72" x="2849.992188"/>
     <use xlink:href="#DejaVuSans-61" x="2891.105469"/>
     <use xlink:href="#DejaVuSans-6e" x="2952.384766"/>
     <use xlink:href="#DejaVuSans-6b" x="3015.763672"/>
     <use xlink:href="#DejaVuSans-3a" x="3073.673828"/>
     <use xlink:href="#DejaVuSans-20" x="3107.365234"/>
     <use xlink:href="#DejaVuSans-37" x="3139.152344"/>
    </g>
   </g>
  </g>
 </g>
 <defs>
  <clipPath id="p1fb0483c30">
   <rect x="10.8" y="10.8" width="554.4" height="554.4"/>
  </clipPath>
 </defs>
</svg>
