<?xml version="1.0" encoding="utf-8" standalone="no"?>
<!DOCTYPE svg PUBLIC "-//W3C//DTD SVG 1.1//EN"
  "http://www.w3.org/Graphics/SVG/1.1/DTD/svg11.dtd">
<svg xmlns:xlink="http://www.w3.org/1999/xlink" width="576pt" height="576pt" viewBox="0 0 576 576" xmlns="http://www.w3.org/2000/svg" version="1.1">
 <metadata>
  <rdf:RDF xmlns:dc="http://purl.org/dc/elements/1.1/" xmlns:cc="http://creativecommons.org/ns#" xmlns:rdf="http://www.w3.org/1999/02/22-rdf-syntax-ns#">
   <cc:Work>
    <dc:type rdf:resource="http://purl.org/dc/dcmitype/StillImage"/>
    <dc:date>2022-12-22T16:13:24.000288</dc:date>
    <dc:format>image/svg+xml</dc:format>
    <dc:creator>
     <cc:Agent>
      <dc:title>Matplotlib v3.5.2, https://matplotlib.org/</dc:title>
     </cc:Agent>
    </dc:creator>
   </cc:Work>
  </rdf:RDF>
 </metadata>
 <defs>
  <style type="text/css">*{stroke-linejoin: round; stroke-linecap: butt}</style>
 </defs>
 <g id="figure_1">
  <g id="patch_1">
   <path d="M 0 576 
L 576 576 
L 576 0 
L 0 0 
z
" style="fill: #ffffff"/>
  </g>
  <g id="axes_1">
   <g id="LineCollection_1">
    <path d="M 429.89985 128.665802 
L 352.264291 84.088438 
" clip-path="url(#p56ef3bf9b3)" style="fill: none; stroke: #000000; stroke-opacity: 0.3; stroke-width: 5"/>
   </g>
   <g id="PathCollection_1">
    <path d="M 501.230769 315.386128 
C 508.493655 315.386128 515.46005 312.500553 520.595686 307.364917 
C 525.731322 302.229281 528.616897 295.262886 528.616897 288 
C 528.616897 280.737114 525.731322 273.770719 520.595686 268.635083 
C 515.46005 263.499447 508.493655 260.613872 501.230769 260.613872 
C 493.967883 260.613872 487.001488 263.499447 481.865852 268.635083 
C 476.730217 273.770719 473.844641 280.737114 473.844641 288 
C 473.844641 295.262886 476.730217 302.229281 481.865852 307.364917 
C 487.001488 312.500553 493.967883 315.386128 501.230769 315.386128 
z
" clip-path="url(#p56ef3bf9b3)" style="fill: #d62728; fill-opacity: 0.99; stroke: #d62728; stroke-opacity: 0.99"/>
    <path d="M 482.592348 227.520298 
C 489.680375 227.520298 496.47905 224.704195 501.491042 219.692202 
C 506.503034 214.68021 509.319137 207.881536 509.319137 200.793508 
C 509.319137 193.705481 506.503034 186.906807 501.491042 181.894814 
C 496.47905 176.882822 489.680375 174.066719 482.592348 174.066719 
C 475.50432 174.066719 468.705646 176.882822 463.693654 181.894814 
C 458.681662 186.906807 455.865558 193.705481 455.865558 200.793508 
C 455.865558 207.881536 458.681662 214.68021 463.693654 219.692202 
C 468.705646 224.704195 475.50432 227.520298 482.592348 227.520298 
z
" clip-path="url(#p56ef3bf9b3)" style="fill: #d62728; fill-opacity: 0.99; stroke: #d62728; stroke-opacity: 0.99"/>
    <path d="M 429.89985 153.913575 
C 436.595638 153.913575 443.018085 151.25331 447.752721 146.518673 
C 452.487358 141.784036 455.147623 135.361589 455.147623 128.665802 
C 455.147623 121.970014 452.487358 115.547567 447.752721 110.81293 
C 443.018085 106.078293 436.595638 103.418029 429.89985 103.418029 
C 423.204062 103.418029 416.781615 106.078293 412.046978 110.81293 
C 407.312341 115.547567 404.652077 121.970014 404.652077 128.665802 
C 404.652077 135.361589 407.312341 141.784036 412.046978 146.518673 
C 416.781615 151.25331 423.204062 153.913575 429.89985 153.913575 
z
" clip-path="url(#p56ef3bf9b3)" style="fill: #d62728; fill-opacity: 0.99; stroke: #d62728; stroke-opacity: 0.99"/>
    <path d="M 352.264291 109.336211 
C 358.960079 109.336211 365.382526 106.675946 370.117163 101.941309 
C 374.8518 97.206672 377.512064 90.784225 377.512064 84.088438 
C 377.512064 77.39265 374.8518 70.970203 370.117163 66.235566 
C 365.382526 61.500929 358.960079 58.840665 352.264291 58.840665 
C 345.568504 58.840665 339.146057 61.500929 334.41142 66.235566 
C 329.676783 70.970203 327.016518 77.39265 327.016518 84.088438 
C 327.016518 90.784225 329.676783 97.206672 334.41142 101.941309 
C 339.146057 106.675946 345.568504 109.336211 352.264291 109.336211 
z
" clip-path="url(#p56ef3bf9b3)" style="fill: #d62728; fill-opacity: 0.99; stroke: #d62728; stroke-opacity: 0.99"/>
    <path d="M 263.109549 99.394643 
C 269.640284 99.394643 275.904417 96.799954 280.522345 92.182027 
C 285.140272 87.564099 287.734961 81.299966 287.734961 74.769231 
C 287.734961 68.238495 285.140272 61.974362 280.522345 57.356435 
C 275.904417 52.738507 269.640284 50.143818 263.109549 50.143818 
C 256.578813 50.143818 250.31468 52.738507 245.696752 57.356435 
C 241.078825 61.974362 238.484136 68.238495 238.484136 74.769231 
C 238.484136 81.299966 241.078825 87.564099 245.696752 92.182027 
C 250.31468 96.799954 256.578813 99.394643 263.109549 99.394643 
z
" clip-path="url(#p56ef3bf9b3)" style="fill: #d62728; fill-opacity: 0.99; stroke: #d62728; stroke-opacity: 0.99"/>
    <path d="M 177.851298 125.959208 
C 184.120604 125.959208 190.13398 123.468386 194.567048 119.035318 
C 199.000117 114.602249 201.490939 108.588873 201.490939 102.319567 
C 201.490939 96.050261 199.000117 90.036886 194.567048 85.603817 
C 190.13398 81.170748 184.120604 78.679926 177.851298 78.679926 
C 171.581992 78.679926 165.568617 81.170748 161.135548 85.603817 
C 156.702479 90.036886 154.211657 96.050261 154.211657 102.319567 
C 154.211657 108.588873 156.702479 114.602249 161.135548 119.035318 
C 165.568617 123.468386 171.581992 125.959208 177.851298 125.959208 
z
" clip-path="url(#p56ef3bf9b3)" style="fill: #d62728; fill-opacity: 0.99; stroke: #d62728; stroke-opacity: 0.99"/>
    <path d="M 111.231477 184.446585 
C 117.190818 184.446585 122.906881 182.078913 127.120772 177.865023 
C 131.334662 173.651133 133.702333 167.935069 133.702333 161.975729 
C 133.702333 156.016388 131.334662 150.300324 127.120772 146.086434 
C 122.906881 141.872544 117.190818 139.504873 111.231477 139.504873 
C 105.272136 139.504873 99.556073 141.872544 95.342182 146.086434 
C 91.128292 150.300324 88.760621 156.016388 88.760621 161.975729 
C 88.760621 167.935069 91.128292 173.651133 95.342182 177.865023 
C 99.556073 182.078913 105.272136 184.446585 111.231477 184.446585 
z
" clip-path="url(#p56ef3bf9b3)" style="fill: #d62728; fill-opacity: 0.99; stroke: #d62728; stroke-opacity: 0.99"/>
    <path d="M 74.769231 265.603322 
C 80.651614 265.603322 86.293862 263.266226 90.453335 259.106753 
C 94.612808 254.94728 96.949904 249.305032 96.949904 243.422649 
C 96.949904 237.540266 94.612808 231.898018 90.453335 227.738545 
C 86.293862 223.579072 80.651614 221.241976 74.769231 221.241976 
C 68.886848 221.241976 63.2446 223.579072 59.085127 227.738545 
C 54.925654 231.898018 52.588558 237.540266 52.588558 243.422649 
C 52.588558 249.305032 54.925654 254.94728 59.085127 259.106753 
C 63.2446 263.266226 68.886848 265.603322 74.769231 265.603322 
z
" clip-path="url(#p56ef3bf9b3)" style="fill: #d62728; fill-opacity: 0.99; stroke: #d62728; stroke-opacity: 0.99"/>
    <path d="M 74.769244 354.758062 
C 80.651627 354.758062 86.293875 352.420967 90.453348 348.261494 
C 94.612821 344.102021 96.949916 338.459773 96.949916 332.577389 
C 96.949916 326.695006 94.612821 321.052758 90.453348 316.893285 
C 86.293875 312.733812 80.651627 310.396717 74.769244 310.396717 
C 68.88686 310.396717 63.244612 312.733812 59.085139 316.893285 
C 54.925666 321.052758 52.588571 326.695006 52.588571 332.577389 
C 52.588571 338.459773 54.925666 344.102021 59.085139 348.261494 
C 63.244612 352.420967 68.88686 354.758062 74.769244 354.758062 
z
" clip-path="url(#p56ef3bf9b3)" style="fill: #d62728; fill-opacity: 0.99; stroke: #d62728; stroke-opacity: 0.99"/>
    <path d="M 111.23149 436.157339 
C 117.101245 436.157339 122.73138 433.825261 126.881923 429.674717 
C 131.032466 425.524174 133.364545 419.894039 133.364545 414.024284 
C 133.364545 408.154529 131.032466 402.524394 126.881923 398.373851 
C 122.73138 394.223307 117.101245 391.891229 111.23149 391.891229 
C 105.361735 391.891229 99.7316 394.223307 95.581057 398.373851 
C 91.430513 402.524394 89.098435 408.154529 89.098435 414.024284 
C 89.098435 419.894039 91.430513 425.524174 95.581057 429.674717 
C 99.7316 433.825261 105.361735 436.157339 111.23149 436.157339 
z
" clip-path="url(#p56ef3bf9b3)" style="fill: #d62728; fill-opacity: 0.99; stroke: #d62728; stroke-opacity: 0.99"/>
    <path d="M 177.85133 494.662382 
C 183.415805 494.662382 188.753122 492.451593 192.6878 488.516915 
C 196.622478 484.582237 198.833267 479.24492 198.833267 473.680446 
C 198.833267 468.115971 196.622478 462.778654 192.6878 458.843976 
C 188.753122 454.909298 183.415805 452.698509 177.85133 452.698509 
C 172.286856 452.698509 166.949538 454.909298 163.014861 458.843976 
C 159.080183 462.778654 156.869394 468.115971 156.869394 473.680446 
C 156.869394 479.24492 159.080183 484.582237 163.014861 488.516915 
C 166.949538 492.451593 172.286856 494.662382 177.85133 494.662382 
z
" clip-path="url(#p56ef3bf9b3)" style="fill: #d62728; fill-opacity: 0.99; stroke: #d62728; stroke-opacity: 0.99"/>
    <path d="M 263.109587 521.835682 
C 268.574074 521.835682 273.815485 519.664619 277.679461 515.800643 
C 281.543437 511.936667 283.7145 506.695256 283.7145 501.230769 
C 283.7145 495.766282 281.543437 490.524871 277.679461 486.660895 
C 273.815485 482.79692 268.574074 480.625856 263.109587 480.625856 
C 257.6451 480.625856 252.403689 482.79692 248.539713 486.660895 
C 244.675738 490.524871 242.504674 495.766282 242.504674 501.230769 
C 242.504674 506.695256 244.675738 511.936667 248.539713 515.800643 
C 252.403689 519.664619 257.6451 521.835682 263.109587 521.835682 
z
" clip-path="url(#p56ef3bf9b3)" style="fill: #d62728; fill-opacity: 0.99; stroke: #d62728; stroke-opacity: 0.99"/>
    <path d="M 352.264323 512.143983 
C 357.630027 512.143983 362.776689 510.012166 366.570814 506.218041 
C 370.36494 502.423915 372.496757 497.277254 372.496757 491.91155 
C 372.496757 486.545845 370.36494 481.399184 366.570814 477.605058 
C 362.776689 473.810933 357.630027 471.679116 352.264323 471.679116 
C 346.898619 471.679116 341.751958 473.810933 337.957832 477.605058 
C 334.163706 481.399184 332.03189 486.545845 332.03189 491.91155 
C 332.03189 497.277254 334.163706 502.423915 337.957832 506.218041 
C 341.751958 510.012166 346.898619 512.143983 352.264323 512.143983 
z
" clip-path="url(#p56ef3bf9b3)" style="fill: #d62728; fill-opacity: 0.99; stroke: #d62728; stroke-opacity: 0.99"/>
    <path d="M 429.899888 466.726628 
C 435.042831 466.726628 439.975824 464.683315 443.612434 461.046705 
C 447.249043 457.410096 449.292356 452.477103 449.292356 447.33416 
C 449.292356 442.191218 447.249043 437.258224 443.612434 433.621615 
C 439.975824 429.985005 435.042831 427.941692 429.899888 427.941692 
C 424.756946 427.941692 419.823953 429.985005 416.187343 433.621615 
C 412.550733 437.258224 410.507421 442.191218 410.507421 447.33416 
C 410.507421 452.477103 412.550733 457.410096 416.187343 461.046705 
C 419.823953 464.683315 424.756946 466.726628 429.899888 466.726628 
z
" clip-path="url(#p56ef3bf9b3)" style="fill: #d62728; fill-opacity: 0.99; stroke: #d62728; stroke-opacity: 0.99"/>
    <path d="M 482.592374 394.571376 
C 487.728009 394.571376 492.653994 392.530967 496.285437 388.899524 
C 499.91688 385.268081 501.95729 380.342096 501.95729 375.20646 
C 501.95729 370.070824 499.91688 365.144839 496.285437 361.513396 
C 492.653994 357.881953 487.728009 355.841543 482.592374 355.841543 
C 477.456738 355.841543 472.530753 357.881953 468.89931 361.513396 
C 465.267867 365.144839 463.227457 370.070824 463.227457 375.20646 
C 463.227457 380.342096 465.267867 385.268081 468.89931 388.899524 
C 472.530753 392.530967 477.456738 394.571376 482.592374 394.571376 
z
" clip-path="url(#p56ef3bf9b3)" style="fill: #d62728; fill-opacity: 0.99; stroke: #d62728; stroke-opacity: 0.99"/>
   </g>
   <g id="text_1">
    <g id="patch_2">
     <path d="M 474.587254 296.315156 
L 527.874285 296.315156 
L 527.874285 279.684844 
L 474.587254 279.684844 
z
" clip-path="url(#p56ef3bf9b3)" style="fill: #ffffff; opacity: 0.7; stroke: #000000; stroke-linejoin: miter"/>
    </g>
    <g clip-path="url(#p56ef3bf9b3)">
     <!-- Ken Burns -->
     <g transform="translate(478.547254 290.483437)scale(0.09 -0.09)">
      <defs>
       <path id="DejaVuSans-4b" d="M 628 4666 
L 1259 4666 
L 1259 2694 
L 3353 4666 
L 4166 4666 
L 1850 2491 
L 4331 0 
L 3500 0 
L 1259 2247 
L 1259 0 
L 628 0 
L 628 4666 
z
" transform="scale(0.015625)"/>
       <path id="DejaVuSans-65" d="M 3597 1894 
L 3597 1613 
L 953 1613 
Q 991 1019 1311 708 
Q 1631 397 2203 397 
Q 2534 397 2845 478 
Q 3156 559 3463 722 
L 3463 178 
Q 3153 47 2828 -22 
Q 2503 -91 2169 -91 
Q 1331 -91 842 396 
Q 353 884 353 1716 
Q 353 2575 817 3079 
Q 1281 3584 2069 3584 
Q 2775 3584 3186 3129 
Q 3597 2675 3597 1894 
z
M 3022 2063 
Q 3016 2534 2758 2815 
Q 2500 3097 2075 3097 
Q 1594 3097 1305 2825 
Q 1016 2553 972 2059 
L 3022 2063 
z
" transform="scale(0.015625)"/>
       <path id="DejaVuSans-6e" d="M 3513 2113 
L 3513 0 
L 2938 0 
L 2938 2094 
Q 2938 2591 2744 2837 
Q 2550 3084 2163 3084 
Q 1697 3084 1428 2787 
Q 1159 2491 1159 1978 
L 1159 0 
L 581 0 
L 581 3500 
L 1159 3500 
L 1159 2956 
Q 1366 3272 1645 3428 
Q 1925 3584 2291 3584 
Q 2894 3584 3203 3211 
Q 3513 2838 3513 2113 
z
" transform="scale(0.015625)"/>
       <path id="DejaVuSans-20" transform="scale(0.015625)"/>
       <path id="DejaVuSans-42" d="M 1259 2228 
L 1259 519 
L 2272 519 
Q 2781 519 3026 730 
Q 3272 941 3272 1375 
Q 3272 1813 3026 2020 
Q 2781 2228 2272 2228 
L 1259 2228 
z
M 1259 4147 
L 1259 2741 
L 2194 2741 
Q 2656 2741 2882 2914 
Q 3109 3088 3109 3444 
Q 3109 3797 2882 3972 
Q 2656 4147 2194 4147 
L 1259 4147 
z
M 628 4666 
L 2241 4666 
Q 2963 4666 3353 4366 
Q 3744 4066 3744 3513 
Q 3744 3084 3544 2831 
Q 3344 2578 2956 2516 
Q 3422 2416 3680 2098 
Q 3938 1781 3938 1306 
Q 3938 681 3513 340 
Q 3088 0 2303 0 
L 628 0 
L 628 4666 
z
" transform="scale(0.015625)"/>
       <path id="DejaVuSans-75" d="M 544 1381 
L 544 3500 
L 1119 3500 
L 1119 1403 
Q 1119 906 1312 657 
Q 1506 409 1894 409 
Q 2359 409 2629 706 
Q 2900 1003 2900 1516 
L 2900 3500 
L 3475 3500 
L 3475 0 
L 2900 0 
L 2900 538 
Q 2691 219 2414 64 
Q 2138 -91 1772 -91 
Q 1169 -91 856 284 
Q 544 659 544 1381 
z
M 1991 3584 
L 1991 3584 
z
" transform="scale(0.015625)"/>
       <path id="DejaVuSans-72" d="M 2631 2963 
Q 2534 3019 2420 3045 
Q 2306 3072 2169 3072 
Q 1681 3072 1420 2755 
Q 1159 2438 1159 1844 
L 1159 0 
L 581 0 
L 581 3500 
L 1159 3500 
L 1159 2956 
Q 1341 3275 1631 3429 
Q 1922 3584 2338 3584 
Q 2397 3584 2469 3576 
Q 2541 3569 2628 3553 
L 2631 2963 
z
" transform="scale(0.015625)"/>
       <path id="DejaVuSans-73" d="M 2834 3397 
L 2834 2853 
Q 2591 2978 2328 3040 
Q 2066 3103 1784 3103 
Q 1356 3103 1142 2972 
Q 928 2841 928 2578 
Q 928 2378 1081 2264 
Q 1234 2150 1697 2047 
L 1894 2003 
Q 2506 1872 2764 1633 
Q 3022 1394 3022 966 
Q 3022 478 2636 193 
Q 2250 -91 1575 -91 
Q 1294 -91 989 -36 
Q 684 19 347 128 
L 347 722 
Q 666 556 975 473 
Q 1284 391 1588 391 
Q 1994 391 2212 530 
Q 2431 669 2431 922 
Q 2431 1156 2273 1281 
Q 2116 1406 1581 1522 
L 1381 1569 
Q 847 1681 609 1914 
Q 372 2147 372 2553 
Q 372 3047 722 3315 
Q 1072 3584 1716 3584 
Q 2034 3584 2315 3537 
Q 2597 3491 2834 3397 
z
" transform="scale(0.015625)"/>
      </defs>
      <use xlink:href="#DejaVuSans-4b"/>
      <use xlink:href="#DejaVuSans-65" x="60.576172"/>
      <use xlink:href="#DejaVuSans-6e" x="122.099609"/>
      <use xlink:href="#DejaVuSans-20" x="185.478516"/>
      <use xlink:href="#DejaVuSans-42" x="217.265625"/>
      <use xlink:href="#DejaVuSans-75" x="285.869141"/>
      <use xlink:href="#DejaVuSans-72" x="349.248047"/>
      <use xlink:href="#DejaVuSans-6e" x="388.611328"/>
      <use xlink:href="#DejaVuSans-73" x="451.990234"/>
     </g>
    </g>
   </g>
   <g id="text_2">
    <g id="patch_3">
     <path d="M 446.059379 209.108665 
L 519.125317 209.108665 
L 519.125317 192.478352 
L 446.059379 192.478352 
z
" clip-path="url(#p56ef3bf9b3)" style="fill: #ffffff; opacity: 0.7; stroke: #000000; stroke-linejoin: miter"/>
    </g>
    <g clip-path="url(#p56ef3bf9b3)">
     <!-- Michael Moore -->
     <g transform="translate(450.019379 203.276946)scale(0.09 -0.09)">
      <defs>
       <path id="DejaVuSans-4d" d="M 628 4666 
L 1569 4666 
L 2759 1491 
L 3956 4666 
L 4897 4666 
L 4897 0 
L 4281 0 
L 4281 4097 
L 3078 897 
L 2444 897 
L 1241 4097 
L 1241 0 
L 628 0 
L 628 4666 
z
" transform="scale(0.015625)"/>
       <path id="DejaVuSans-69" d="M 603 3500 
L 1178 3500 
L 1178 0 
L 603 0 
L 603 3500 
z
M 603 4863 
L 1178 4863 
L 1178 4134 
L 603 4134 
L 603 4863 
z
" transform="scale(0.015625)"/>
       <path id="DejaVuSans-63" d="M 3122 3366 
L 3122 2828 
Q 2878 2963 2633 3030 
Q 2388 3097 2138 3097 
Q 1578 3097 1268 2742 
Q 959 2388 959 1747 
Q 959 1106 1268 751 
Q 1578 397 2138 397 
Q 2388 397 2633 464 
Q 2878 531 3122 666 
L 3122 134 
Q 2881 22 2623 -34 
Q 2366 -91 2075 -91 
Q 1284 -91 818 406 
Q 353 903 353 1747 
Q 353 2603 823 3093 
Q 1294 3584 2113 3584 
Q 2378 3584 2631 3529 
Q 2884 3475 3122 3366 
z
" transform="scale(0.015625)"/>
       <path id="DejaVuSans-68" d="M 3513 2113 
L 3513 0 
L 2938 0 
L 2938 2094 
Q 2938 2591 2744 2837 
Q 2550 3084 2163 3084 
Q 1697 3084 1428 2787 
Q 1159 2491 1159 1978 
L 1159 0 
L 581 0 
L 581 4863 
L 1159 4863 
L 1159 2956 
Q 1366 3272 1645 3428 
Q 1925 3584 2291 3584 
Q 2894 3584 3203 3211 
Q 3513 2838 3513 2113 
z
" transform="scale(0.015625)"/>
       <path id="DejaVuSans-61" d="M 2194 1759 
Q 1497 1759 1228 1600 
Q 959 1441 959 1056 
Q 959 750 1161 570 
Q 1363 391 1709 391 
Q 2188 391 2477 730 
Q 2766 1069 2766 1631 
L 2766 1759 
L 2194 1759 
z
M 3341 1997 
L 3341 0 
L 2766 0 
L 2766 531 
Q 2569 213 2275 61 
Q 1981 -91 1556 -91 
Q 1019 -91 701 211 
Q 384 513 384 1019 
Q 384 1609 779 1909 
Q 1175 2209 1959 2209 
L 2766 2209 
L 2766 2266 
Q 2766 2663 2505 2880 
Q 2244 3097 1772 3097 
Q 1472 3097 1187 3025 
Q 903 2953 641 2809 
L 641 3341 
Q 956 3463 1253 3523 
Q 1550 3584 1831 3584 
Q 2591 3584 2966 3190 
Q 3341 2797 3341 1997 
z
" transform="scale(0.015625)"/>
       <path id="DejaVuSans-6c" d="M 603 4863 
L 1178 4863 
L 1178 0 
L 603 0 
L 603 4863 
z
" transform="scale(0.015625)"/>
       <path id="DejaVuSans-6f" d="M 1959 3097 
Q 1497 3097 1228 2736 
Q 959 2375 959 1747 
Q 959 1119 1226 758 
Q 1494 397 1959 397 
Q 2419 397 2687 759 
Q 2956 1122 2956 1747 
Q 2956 2369 2687 2733 
Q 2419 3097 1959 3097 
z
M 1959 3584 
Q 2709 3584 3137 3096 
Q 3566 2609 3566 1747 
Q 3566 888 3137 398 
Q 2709 -91 1959 -91 
Q 1206 -91 779 398 
Q 353 888 353 1747 
Q 353 2609 779 3096 
Q 1206 3584 1959 3584 
z
" transform="scale(0.015625)"/>
      </defs>
      <use xlink:href="#DejaVuSans-4d"/>
      <use xlink:href="#DejaVuSans-69" x="86.279297"/>
      <use xlink:href="#DejaVuSans-63" x="114.0625"/>
      <use xlink:href="#DejaVuSans-68" x="169.042969"/>
      <use xlink:href="#DejaVuSans-61" x="232.421875"/>
      <use xlink:href="#DejaVuSans-65" x="293.701172"/>
      <use xlink:href="#DejaVuSans-6c" x="355.224609"/>
      <use xlink:href="#DejaVuSans-20" x="383.007812"/>
      <use xlink:href="#DejaVuSans-4d" x="414.794922"/>
      <use xlink:href="#DejaVuSans-6f" x="501.074219"/>
      <use xlink:href="#DejaVuSans-6f" x="562.255859"/>
      <use xlink:href="#DejaVuSans-72" x="623.4375"/>
      <use xlink:href="#DejaVuSans-65" x="662.300781"/>
     </g>
    </g>
   </g>
   <g id="text_3">
    <g id="patch_4">
     <path d="M 402.491334 136.980958 
L 457.308365 136.980958 
L 457.308365 120.350645 
L 402.491334 120.350645 
z
" clip-path="url(#p56ef3bf9b3)" style="fill: #ffffff; opacity: 0.7; stroke: #000000; stroke-linejoin: miter"/>
    </g>
    <g clip-path="url(#p56ef3bf9b3)">
     <!-- Sam Dunn -->
     <g transform="translate(406.451334 131.149239)scale(0.09 -0.09)">
      <defs>
       <path id="DejaVuSans-53" d="M 3425 4513 
L 3425 3897 
Q 3066 4069 2747 4153 
Q 2428 4238 2131 4238 
Q 1616 4238 1336 4038 
Q 1056 3838 1056 3469 
Q 1056 3159 1242 3001 
Q 1428 2844 1947 2747 
L 2328 2669 
Q 3034 2534 3370 2195 
Q 3706 1856 3706 1288 
Q 3706 609 3251 259 
Q 2797 -91 1919 -91 
Q 1588 -91 1214 -16 
Q 841 59 441 206 
L 441 856 
Q 825 641 1194 531 
Q 1563 422 1919 422 
Q 2459 422 2753 634 
Q 3047 847 3047 1241 
Q 3047 1584 2836 1778 
Q 2625 1972 2144 2069 
L 1759 2144 
Q 1053 2284 737 2584 
Q 422 2884 422 3419 
Q 422 4038 858 4394 
Q 1294 4750 2059 4750 
Q 2388 4750 2728 4690 
Q 3069 4631 3425 4513 
z
" transform="scale(0.015625)"/>
       <path id="DejaVuSans-6d" d="M 3328 2828 
Q 3544 3216 3844 3400 
Q 4144 3584 4550 3584 
Q 5097 3584 5394 3201 
Q 5691 2819 5691 2113 
L 5691 0 
L 5113 0 
L 5113 2094 
Q 5113 2597 4934 2840 
Q 4756 3084 4391 3084 
Q 3944 3084 3684 2787 
Q 3425 2491 3425 1978 
L 3425 0 
L 2847 0 
L 2847 2094 
Q 2847 2600 2669 2842 
Q 2491 3084 2119 3084 
Q 1678 3084 1418 2786 
Q 1159 2488 1159 1978 
L 1159 0 
L 581 0 
L 581 3500 
L 1159 3500 
L 1159 2956 
Q 1356 3278 1631 3431 
Q 1906 3584 2284 3584 
Q 2666 3584 2933 3390 
Q 3200 3197 3328 2828 
z
" transform="scale(0.015625)"/>
       <path id="DejaVuSans-44" d="M 1259 4147 
L 1259 519 
L 2022 519 
Q 2988 519 3436 956 
Q 3884 1394 3884 2338 
Q 3884 3275 3436 3711 
Q 2988 4147 2022 4147 
L 1259 4147 
z
M 628 4666 
L 1925 4666 
Q 3281 4666 3915 4102 
Q 4550 3538 4550 2338 
Q 4550 1131 3912 565 
Q 3275 0 1925 0 
L 628 0 
L 628 4666 
z
" transform="scale(0.015625)"/>
      </defs>
      <use xlink:href="#DejaVuSans-53"/>
      <use xlink:href="#DejaVuSans-61" x="63.476562"/>
      <use xlink:href="#DejaVuSans-6d" x="124.755859"/>
      <use xlink:href="#DejaVuSans-20" x="222.167969"/>
      <use xlink:href="#DejaVuSans-44" x="253.955078"/>
      <use xlink:href="#DejaVuSans-75" x="330.957031"/>
      <use xlink:href="#DejaVuSans-6e" x="394.335938"/>
      <use xlink:href="#DejaVuSans-6e" x="457.714844"/>
     </g>
    </g>
   </g>
   <g id="text_4">
    <g id="patch_5">
     <path d="M 314.59226 92.403594 
L 389.936322 92.403594 
L 389.936322 75.773281 
L 314.59226 75.773281 
z
" clip-path="url(#p56ef3bf9b3)" style="fill: #ffffff; opacity: 0.7; stroke: #000000; stroke-linejoin: miter"/>
    </g>
    <g clip-path="url(#p56ef3bf9b3)">
     <!-- Scot McFadyen -->
     <g transform="translate(318.55226 86.571875)scale(0.09 -0.09)">
      <defs>
       <path id="DejaVuSans-74" d="M 1172 4494 
L 1172 3500 
L 2356 3500 
L 2356 3053 
L 1172 3053 
L 1172 1153 
Q 1172 725 1289 603 
Q 1406 481 1766 481 
L 2356 481 
L 2356 0 
L 1766 0 
Q 1100 0 847 248 
Q 594 497 594 1153 
L 594 3053 
L 172 3053 
L 172 3500 
L 594 3500 
L 594 4494 
L 1172 4494 
z
" transform="scale(0.015625)"/>
       <path id="DejaVuSans-46" d="M 628 4666 
L 3309 4666 
L 3309 4134 
L 1259 4134 
L 1259 2759 
L 3109 2759 
L 3109 2228 
L 1259 2228 
L 1259 0 
L 628 0 
L 628 4666 
z
" transform="scale(0.015625)"/>
       <path id="DejaVuSans-64" d="M 2906 2969 
L 2906 4863 
L 3481 4863 
L 3481 0 
L 2906 0 
L 2906 525 
Q 2725 213 2448 61 
Q 2172 -91 1784 -91 
Q 1150 -91 751 415 
Q 353 922 353 1747 
Q 353 2572 751 3078 
Q 1150 3584 1784 3584 
Q 2172 3584 2448 3432 
Q 2725 3281 2906 2969 
z
M 947 1747 
Q 947 1113 1208 752 
Q 1469 391 1925 391 
Q 2381 391 2643 752 
Q 2906 1113 2906 1747 
Q 2906 2381 2643 2742 
Q 2381 3103 1925 3103 
Q 1469 3103 1208 2742 
Q 947 2381 947 1747 
z
" transform="scale(0.015625)"/>
       <path id="DejaVuSans-79" d="M 2059 -325 
Q 1816 -950 1584 -1140 
Q 1353 -1331 966 -1331 
L 506 -1331 
L 506 -850 
L 844 -850 
Q 1081 -850 1212 -737 
Q 1344 -625 1503 -206 
L 1606 56 
L 191 3500 
L 800 3500 
L 1894 763 
L 2988 3500 
L 3597 3500 
L 2059 -325 
z
" transform="scale(0.015625)"/>
      </defs>
      <use xlink:href="#DejaVuSans-53"/>
      <use xlink:href="#DejaVuSans-63" x="63.476562"/>
      <use xlink:href="#DejaVuSans-6f" x="118.457031"/>
      <use xlink:href="#DejaVuSans-74" x="179.638672"/>
      <use xlink:href="#DejaVuSans-20" x="218.847656"/>
      <use xlink:href="#DejaVuSans-4d" x="250.634766"/>
      <use xlink:href="#DejaVuSans-63" x="336.914062"/>
      <use xlink:href="#DejaVuSans-46" x="391.894531"/>
      <use xlink:href="#DejaVuSans-61" x="440.289062"/>
      <use xlink:href="#DejaVuSans-64" x="501.568359"/>
      <use xlink:href="#DejaVuSans-79" x="565.044922"/>
      <use xlink:href="#DejaVuSans-65" x="624.224609"/>
      <use xlink:href="#DejaVuSans-6e" x="685.748047"/>
     </g>
    </g>
   </g>
   <g id="text_5">
    <g id="patch_6">
     <path d="M 237.96158 83.084387 
L 288.257517 83.084387 
L 288.257517 66.454075 
L 237.96158 66.454075 
z
" clip-path="url(#p56ef3bf9b3)" style="fill: #ffffff; opacity: 0.7; stroke: #000000; stroke-linejoin: miter"/>
    </g>
    <g clip-path="url(#p56ef3bf9b3)">
     <!-- Ric Burns -->
     <g transform="translate(241.92158 77.252668)scale(0.09 -0.09)">
      <defs>
       <path id="DejaVuSans-52" d="M 2841 2188 
Q 3044 2119 3236 1894 
Q 3428 1669 3622 1275 
L 4263 0 
L 3584 0 
L 2988 1197 
Q 2756 1666 2539 1819 
Q 2322 1972 1947 1972 
L 1259 1972 
L 1259 0 
L 628 0 
L 628 4666 
L 2053 4666 
Q 2853 4666 3247 4331 
Q 3641 3997 3641 3322 
Q 3641 2881 3436 2590 
Q 3231 2300 2841 2188 
z
M 1259 4147 
L 1259 2491 
L 2053 2491 
Q 2509 2491 2742 2702 
Q 2975 2913 2975 3322 
Q 2975 3731 2742 3939 
Q 2509 4147 2053 4147 
L 1259 4147 
z
" transform="scale(0.015625)"/>
      </defs>
      <use xlink:href="#DejaVuSans-52"/>
      <use xlink:href="#DejaVuSans-69" x="69.482422"/>
      <use xlink:href="#DejaVuSans-63" x="97.265625"/>
      <use xlink:href="#DejaVuSans-20" x="152.246094"/>
      <use xlink:href="#DejaVuSans-42" x="184.033203"/>
      <use xlink:href="#DejaVuSans-75" x="252.636719"/>
      <use xlink:href="#DejaVuSans-72" x="316.015625"/>
      <use xlink:href="#DejaVuSans-6e" x="355.378906"/>
      <use xlink:href="#DejaVuSans-73" x="418.757812"/>
     </g>
    </g>
   </g>
   <g id="text_6">
    <g id="patch_7">
     <path d="M 150.088407 110.634724 
L 205.614189 110.634724 
L 205.614189 94.004411 
L 150.088407 94.004411 
z
" clip-path="url(#p56ef3bf9b3)" style="fill: #ffffff; opacity: 0.7; stroke: #000000; stroke-linejoin: miter"/>
    </g>
    <g clip-path="url(#p56ef3bf9b3)">
     <!-- John Pilger -->
     <g transform="translate(154.048407 104.803005)scale(0.09 -0.09)">
      <defs>
       <path id="DejaVuSans-4a" d="M 628 4666 
L 1259 4666 
L 1259 325 
Q 1259 -519 939 -900 
Q 619 -1281 -91 -1281 
L -331 -1281 
L -331 -750 
L -134 -750 
Q 284 -750 456 -515 
Q 628 -281 628 325 
L 628 4666 
z
" transform="scale(0.015625)"/>
       <path id="DejaVuSans-50" d="M 1259 4147 
L 1259 2394 
L 2053 2394 
Q 2494 2394 2734 2622 
Q 2975 2850 2975 3272 
Q 2975 3691 2734 3919 
Q 2494 4147 2053 4147 
L 1259 4147 
z
M 628 4666 
L 2053 4666 
Q 2838 4666 3239 4311 
Q 3641 3956 3641 3272 
Q 3641 2581 3239 2228 
Q 2838 1875 2053 1875 
L 1259 1875 
L 1259 0 
L 628 0 
L 628 4666 
z
" transform="scale(0.015625)"/>
       <path id="DejaVuSans-67" d="M 2906 1791 
Q 2906 2416 2648 2759 
Q 2391 3103 1925 3103 
Q 1463 3103 1205 2759 
Q 947 2416 947 1791 
Q 947 1169 1205 825 
Q 1463 481 1925 481 
Q 2391 481 2648 825 
Q 2906 1169 2906 1791 
z
M 3481 434 
Q 3481 -459 3084 -895 
Q 2688 -1331 1869 -1331 
Q 1566 -1331 1297 -1286 
Q 1028 -1241 775 -1147 
L 775 -588 
Q 1028 -725 1275 -790 
Q 1522 -856 1778 -856 
Q 2344 -856 2625 -561 
Q 2906 -266 2906 331 
L 2906 616 
Q 2728 306 2450 153 
Q 2172 0 1784 0 
Q 1141 0 747 490 
Q 353 981 353 1791 
Q 353 2603 747 3093 
Q 1141 3584 1784 3584 
Q 2172 3584 2450 3431 
Q 2728 3278 2906 2969 
L 2906 3500 
L 3481 3500 
L 3481 434 
z
" transform="scale(0.015625)"/>
      </defs>
      <use xlink:href="#DejaVuSans-4a"/>
      <use xlink:href="#DejaVuSans-6f" x="29.492188"/>
      <use xlink:href="#DejaVuSans-68" x="90.673828"/>
      <use xlink:href="#DejaVuSans-6e" x="154.052734"/>
      <use xlink:href="#DejaVuSans-20" x="217.431641"/>
      <use xlink:href="#DejaVuSans-50" x="249.21875"/>
      <use xlink:href="#DejaVuSans-69" x="307.271484"/>
      <use xlink:href="#DejaVuSans-6c" x="335.054688"/>
      <use xlink:href="#DejaVuSans-67" x="362.837891"/>
      <use xlink:href="#DejaVuSans-65" x="426.314453"/>
      <use xlink:href="#DejaVuSans-72" x="487.837891"/>
     </g>
    </g>
   </g>
   <g id="text_7">
    <g id="patch_8">
     <path d="M 80.627258 170.290885 
L 141.835696 170.290885 
L 141.835696 153.660572 
L 80.627258 153.660572 
z
" clip-path="url(#p56ef3bf9b3)" style="fill: #ffffff; opacity: 0.7; stroke: #000000; stroke-linejoin: miter"/>
    </g>
    <g clip-path="url(#p56ef3bf9b3)">
     <!-- Rob Epstein -->
     <g transform="translate(84.587258 164.459166)scale(0.09 -0.09)">
      <defs>
       <path id="DejaVuSans-62" d="M 3116 1747 
Q 3116 2381 2855 2742 
Q 2594 3103 2138 3103 
Q 1681 3103 1420 2742 
Q 1159 2381 1159 1747 
Q 1159 1113 1420 752 
Q 1681 391 2138 391 
Q 2594 391 2855 752 
Q 3116 1113 3116 1747 
z
M 1159 2969 
Q 1341 3281 1617 3432 
Q 1894 3584 2278 3584 
Q 2916 3584 3314 3078 
Q 3713 2572 3713 1747 
Q 3713 922 3314 415 
Q 2916 -91 2278 -91 
Q 1894 -91 1617 61 
Q 1341 213 1159 525 
L 1159 0 
L 581 0 
L 581 4863 
L 1159 4863 
L 1159 2969 
z
" transform="scale(0.015625)"/>
       <path id="DejaVuSans-45" d="M 628 4666 
L 3578 4666 
L 3578 4134 
L 1259 4134 
L 1259 2753 
L 3481 2753 
L 3481 2222 
L 1259 2222 
L 1259 531 
L 3634 531 
L 3634 0 
L 628 0 
L 628 4666 
z
" transform="scale(0.015625)"/>
       <path id="DejaVuSans-70" d="M 1159 525 
L 1159 -1331 
L 581 -1331 
L 581 3500 
L 1159 3500 
L 1159 2969 
Q 1341 3281 1617 3432 
Q 1894 3584 2278 3584 
Q 2916 3584 3314 3078 
Q 3713 2572 3713 1747 
Q 3713 922 3314 415 
Q 2916 -91 2278 -91 
Q 1894 -91 1617 61 
Q 1341 213 1159 525 
z
M 3116 1747 
Q 3116 2381 2855 2742 
Q 2594 3103 2138 3103 
Q 1681 3103 1420 2742 
Q 1159 2381 1159 1747 
Q 1159 1113 1420 752 
Q 1681 391 2138 391 
Q 2594 391 2855 752 
Q 3116 1113 3116 1747 
z
" transform="scale(0.015625)"/>
      </defs>
      <use xlink:href="#DejaVuSans-52"/>
      <use xlink:href="#DejaVuSans-6f" x="64.982422"/>
      <use xlink:href="#DejaVuSans-62" x="126.164062"/>
      <use xlink:href="#DejaVuSans-20" x="189.640625"/>
      <use xlink:href="#DejaVuSans-45" x="221.427734"/>
      <use xlink:href="#DejaVuSans-70" x="284.611328"/>
      <use xlink:href="#DejaVuSans-73" x="348.087891"/>
      <use xlink:href="#DejaVuSans-74" x="400.1875"/>
      <use xlink:href="#DejaVuSans-65" x="439.396484"/>
      <use xlink:href="#DejaVuSans-69" x="500.919922"/>
      <use xlink:href="#DejaVuSans-6e" x="528.703125"/>
     </g>
    </g>
   </g>
   <g id="text_8">
    <g id="patch_9">
     <path d="M 35.313371 251.737805 
L 114.22509 251.737805 
L 114.22509 235.107493 
L 35.313371 235.107493 
z
" clip-path="url(#p56ef3bf9b3)" style="fill: #ffffff; opacity: 0.7; stroke: #000000; stroke-linejoin: miter"/>
    </g>
    <g clip-path="url(#p56ef3bf9b3)">
     <!-- Kevin Brownlow -->
     <g transform="translate(39.273371 245.906086)scale(0.09 -0.09)">
      <defs>
       <path id="DejaVuSans-76" d="M 191 3500 
L 800 3500 
L 1894 563 
L 2988 3500 
L 3597 3500 
L 2284 0 
L 1503 0 
L 191 3500 
z
" transform="scale(0.015625)"/>
       <path id="DejaVuSans-77" d="M 269 3500 
L 844 3500 
L 1563 769 
L 2278 3500 
L 2956 3500 
L 3675 769 
L 4391 3500 
L 4966 3500 
L 4050 0 
L 3372 0 
L 2619 2869 
L 1863 0 
L 1184 0 
L 269 3500 
z
" transform="scale(0.015625)"/>
      </defs>
      <use xlink:href="#DejaVuSans-4b"/>
      <use xlink:href="#DejaVuSans-65" x="60.576172"/>
      <use xlink:href="#DejaVuSans-76" x="122.099609"/>
      <use xlink:href="#DejaVuSans-69" x="181.279297"/>
      <use xlink:href="#DejaVuSans-6e" x="209.0625"/>
      <use xlink:href="#DejaVuSans-20" x="272.441406"/>
      <use xlink:href="#DejaVuSans-42" x="304.228516"/>
      <use xlink:href="#DejaVuSans-72" x="372.832031"/>
      <use xlink:href="#DejaVuSans-6f" x="411.695312"/>
      <use xlink:href="#DejaVuSans-77" x="472.876953"/>
      <use xlink:href="#DejaVuSans-6e" x="554.664062"/>
      <use xlink:href="#DejaVuSans-6c" x="618.042969"/>
      <use xlink:href="#DejaVuSans-6f" x="645.826172"/>
      <use xlink:href="#DejaVuSans-77" x="707.007812"/>
     </g>
    </g>
   </g>
   <g id="text_9">
    <g id="patch_10">
     <path d="M 49.148775 340.892546 
L 100.389712 340.892546 
L 100.389712 324.262233 
L 49.148775 324.262233 
z
" clip-path="url(#p56ef3bf9b3)" style="fill: #ffffff; opacity: 0.7; stroke: #000000; stroke-linejoin: miter"/>
    </g>
    <g clip-path="url(#p56ef3bf9b3)">
     <!-- David Gill -->
     <g transform="translate(53.108775 335.060827)scale(0.09 -0.09)">
      <defs>
       <path id="DejaVuSans-47" d="M 3809 666 
L 3809 1919 
L 2778 1919 
L 2778 2438 
L 4434 2438 
L 4434 434 
Q 4069 175 3628 42 
Q 3188 -91 2688 -91 
Q 1594 -91 976 548 
Q 359 1188 359 2328 
Q 359 3472 976 4111 
Q 1594 4750 2688 4750 
Q 3144 4750 3555 4637 
Q 3966 4525 4313 4306 
L 4313 3634 
Q 3963 3931 3569 4081 
Q 3175 4231 2741 4231 
Q 1884 4231 1454 3753 
Q 1025 3275 1025 2328 
Q 1025 1384 1454 906 
Q 1884 428 2741 428 
Q 3075 428 3337 486 
Q 3600 544 3809 666 
z
" transform="scale(0.015625)"/>
      </defs>
      <use xlink:href="#DejaVuSans-44"/>
      <use xlink:href="#DejaVuSans-61" x="77.001953"/>
      <use xlink:href="#DejaVuSans-76" x="138.28125"/>
      <use xlink:href="#DejaVuSans-69" x="197.460938"/>
      <use xlink:href="#DejaVuSans-64" x="225.244141"/>
      <use xlink:href="#DejaVuSans-20" x="288.720703"/>
      <use xlink:href="#DejaVuSans-47" x="320.507812"/>
      <use xlink:href="#DejaVuSans-69" x="397.998047"/>
      <use xlink:href="#DejaVuSans-6c" x="425.78125"/>
      <use xlink:href="#DejaVuSans-6c" x="453.564453"/>
     </g>
    </g>
   </g>
   <g id="text_10">
    <g id="patch_11">
     <path d="M 71.324224 422.33944 
L 151.138755 422.33944 
L 151.138755 405.709128 
L 71.324224 405.709128 
z
" clip-path="url(#p56ef3bf9b3)" style="fill: #ffffff; opacity: 0.7; stroke: #000000; stroke-linejoin: miter"/>
    </g>
    <g clip-path="url(#p56ef3bf9b3)">
     <!-- Martin Scorsese -->
     <g transform="translate(75.284224 416.507722)scale(0.09 -0.09)">
      <use xlink:href="#DejaVuSans-4d"/>
      <use xlink:href="#DejaVuSans-61" x="86.279297"/>
      <use xlink:href="#DejaVuSans-72" x="147.558594"/>
      <use xlink:href="#DejaVuSans-74" x="188.671875"/>
      <use xlink:href="#DejaVuSans-69" x="227.880859"/>
      <use xlink:href="#DejaVuSans-6e" x="255.664062"/>
      <use xlink:href="#DejaVuSans-20" x="319.042969"/>
      <use xlink:href="#DejaVuSans-53" x="350.830078"/>
      <use xlink:href="#DejaVuSans-63" x="414.306641"/>
      <use xlink:href="#DejaVuSans-6f" x="469.287109"/>
      <use xlink:href="#DejaVuSans-72" x="530.46875"/>
      <use xlink:href="#DejaVuSans-73" x="571.582031"/>
      <use xlink:href="#DejaVuSans-65" x="623.681641"/>
      <use xlink:href="#DejaVuSans-73" x="685.205078"/>
      <use xlink:href="#DejaVuSans-65" x="737.304688"/>
     </g>
    </g>
   </g>
   <g id="text_11">
    <g id="patch_12">
     <path d="M 138.067815 481.995602 
L 217.634846 481.995602 
L 217.634846 465.365289 
L 138.067815 465.365289 
z
" clip-path="url(#p56ef3bf9b3)" style="fill: #ffffff; opacity: 0.7; stroke: #000000; stroke-linejoin: miter"/>
    </g>
    <g clip-path="url(#p56ef3bf9b3)">
     <!-- James E. Motluk -->
     <g transform="translate(142.027815 476.163883)scale(0.09 -0.09)">
      <defs>
       <path id="DejaVuSans-2e" d="M 684 794 
L 1344 794 
L 1344 0 
L 684 0 
L 684 794 
z
" transform="scale(0.015625)"/>
       <path id="DejaVuSans-6b" d="M 581 4863 
L 1159 4863 
L 1159 1991 
L 2875 3500 
L 3609 3500 
L 1753 1863 
L 3688 0 
L 2938 0 
L 1159 1709 
L 1159 0 
L 581 0 
L 581 4863 
z
" transform="scale(0.015625)"/>
      </defs>
      <use xlink:href="#DejaVuSans-4a"/>
      <use xlink:href="#DejaVuSans-61" x="29.492188"/>
      <use xlink:href="#DejaVuSans-6d" x="90.771484"/>
      <use xlink:href="#DejaVuSans-65" x="188.183594"/>
      <use xlink:href="#DejaVuSans-73" x="249.707031"/>
      <use xlink:href="#DejaVuSans-20" x="301.806641"/>
      <use xlink:href="#DejaVuSans-45" x="333.59375"/>
      <use xlink:href="#DejaVuSans-2e" x="396.777344"/>
      <use xlink:href="#DejaVuSans-20" x="428.564453"/>
      <use xlink:href="#DejaVuSans-4d" x="460.351562"/>
      <use xlink:href="#DejaVuSans-6f" x="546.630859"/>
      <use xlink:href="#DejaVuSans-74" x="607.8125"/>
      <use xlink:href="#DejaVuSans-6c" x="647.021484"/>
      <use xlink:href="#DejaVuSans-75" x="674.804688"/>
      <use xlink:href="#DejaVuSans-6b" x="738.183594"/>
     </g>
    </g>
   </g>
   <g id="text_12">
    <g id="patch_13">
     <path d="M 221.926853 509.545925 
L 304.292322 509.545925 
L 304.292322 492.915613 
L 221.926853 492.915613 
z
" clip-path="url(#p56ef3bf9b3)" style="fill: #ffffff; opacity: 0.7; stroke: #000000; stroke-linejoin: miter"/>
    </g>
    <g clip-path="url(#p56ef3bf9b3)">
     <!-- D.A. Pennebaker -->
     <g transform="translate(225.886853 503.714207)scale(0.09 -0.09)">
      <defs>
       <path id="DejaVuSans-41" d="M 2188 4044 
L 1331 1722 
L 3047 1722 
L 2188 4044 
z
M 1831 4666 
L 2547 4666 
L 4325 0 
L 3669 0 
L 3244 1197 
L 1141 1197 
L 716 0 
L 50 0 
L 1831 4666 
z
" transform="scale(0.015625)"/>
      </defs>
      <use xlink:href="#DejaVuSans-44"/>
      <use xlink:href="#DejaVuSans-2e" x="77.001953"/>
      <use xlink:href="#DejaVuSans-41" x="108.789062"/>
      <use xlink:href="#DejaVuSans-2e" x="175.447266"/>
      <use xlink:href="#DejaVuSans-20" x="207.234375"/>
      <use xlink:href="#DejaVuSans-50" x="239.021484"/>
      <use xlink:href="#DejaVuSans-65" x="295.699219"/>
      <use xlink:href="#DejaVuSans-6e" x="357.222656"/>
      <use xlink:href="#DejaVuSans-6e" x="420.601562"/>
      <use xlink:href="#DejaVuSans-65" x="483.980469"/>
      <use xlink:href="#DejaVuSans-62" x="545.503906"/>
      <use xlink:href="#DejaVuSans-61" x="608.980469"/>
      <use xlink:href="#DejaVuSans-6b" x="670.259766"/>
      <use xlink:href="#DejaVuSans-65" x="724.544922"/>
      <use xlink:href="#DejaVuSans-72" x="786.068359"/>
     </g>
    </g>
   </g>
   <g id="text_13">
    <g id="patch_14">
     <path d="M 319.490261 500.226706 
L 385.038386 500.226706 
L 385.038386 483.596393 
L 319.490261 483.596393 
z
" clip-path="url(#p56ef3bf9b3)" style="fill: #ffffff; opacity: 0.7; stroke: #000000; stroke-linejoin: miter"/>
    </g>
    <g clip-path="url(#p56ef3bf9b3)">
     <!-- Joe Berlinger -->
     <g transform="translate(323.450261 494.394987)scale(0.09 -0.09)">
      <use xlink:href="#DejaVuSans-4a"/>
      <use xlink:href="#DejaVuSans-6f" x="29.492188"/>
      <use xlink:href="#DejaVuSans-65" x="90.673828"/>
      <use xlink:href="#DejaVuSans-20" x="152.197266"/>
      <use xlink:href="#DejaVuSans-42" x="183.984375"/>
      <use xlink:href="#DejaVuSans-65" x="252.587891"/>
      <use xlink:href="#DejaVuSans-72" x="314.111328"/>
      <use xlink:href="#DejaVuSans-6c" x="355.224609"/>
      <use xlink:href="#DejaVuSans-69" x="383.007812"/>
      <use xlink:href="#DejaVuSans-6e" x="410.791016"/>
      <use xlink:href="#DejaVuSans-67" x="474.169922"/>
      <use xlink:href="#DejaVuSans-65" x="537.646484"/>
      <use xlink:href="#DejaVuSans-72" x="599.169922"/>
     </g>
    </g>
   </g>
   <g id="text_14">
    <g id="patch_15">
     <path d="M 392.505592 455.649316 
L 467.294185 455.649316 
L 467.294185 439.019004 
L 392.505592 439.019004 
z
" clip-path="url(#p56ef3bf9b3)" style="fill: #ffffff; opacity: 0.7; stroke: #000000; stroke-linejoin: miter"/>
    </g>
    <g clip-path="url(#p56ef3bf9b3)">
     <!-- Dereck Joubert -->
     <g transform="translate(396.465592 449.817598)scale(0.09 -0.09)">
      <use xlink:href="#DejaVuSans-44"/>
      <use xlink:href="#DejaVuSans-65" x="77.001953"/>
      <use xlink:href="#DejaVuSans-72" x="138.525391"/>
      <use xlink:href="#DejaVuSans-65" x="177.388672"/>
      <use xlink:href="#DejaVuSans-63" x="238.912109"/>
      <use xlink:href="#DejaVuSans-6b" x="293.892578"/>
      <use xlink:href="#DejaVuSans-20" x="351.802734"/>
      <use xlink:href="#DejaVuSans-4a" x="383.589844"/>
      <use xlink:href="#DejaVuSans-6f" x="413.082031"/>
      <use xlink:href="#DejaVuSans-75" x="474.263672"/>
      <use xlink:href="#DejaVuSans-62" x="537.642578"/>
      <use xlink:href="#DejaVuSans-65" x="601.119141"/>
      <use xlink:href="#DejaVuSans-72" x="662.642578"/>
      <use xlink:href="#DejaVuSans-74" x="703.755859"/>
     </g>
    </g>
   </g>
   <g id="text_15">
    <g id="patch_16">
     <path d="M 451.119795 383.521616 
L 514.064952 383.521616 
L 514.064952 366.891303 
L 451.119795 366.891303 
z
" clip-path="url(#p56ef3bf9b3)" style="fill: #ffffff; opacity: 0.7; stroke: #000000; stroke-linejoin: miter"/>
    </g>
    <g clip-path="url(#p56ef3bf9b3)">
     <!-- Alan Lowery -->
     <g transform="translate(455.079795 377.689897)scale(0.09 -0.09)">
      <defs>
       <path id="DejaVuSans-4c" d="M 628 4666 
L 1259 4666 
L 1259 531 
L 3531 531 
L 3531 0 
L 628 0 
L 628 4666 
z
" transform="scale(0.015625)"/>
      </defs>
      <use xlink:href="#DejaVuSans-41"/>
      <use xlink:href="#DejaVuSans-6c" x="68.408203"/>
      <use xlink:href="#DejaVuSans-61" x="96.191406"/>
      <use xlink:href="#DejaVuSans-6e" x="157.470703"/>
      <use xlink:href="#DejaVuSans-20" x="220.849609"/>
      <use xlink:href="#DejaVuSans-4c" x="252.636719"/>
      <use xlink:href="#DejaVuSans-6f" x="306.599609"/>
      <use xlink:href="#DejaVuSans-77" x="367.78125"/>
      <use xlink:href="#DejaVuSans-65" x="449.568359"/>
      <use xlink:href="#DejaVuSans-72" x="511.091797"/>
      <use xlink:href="#DejaVuSans-79" x="552.205078"/>
     </g>
    </g>
   </g>
   <g id="text_16">
    <!-- Impactful directors for Documentary genre -->
    <g transform="translate(159.27 4.8)scale(0.12 -0.12)">
     <defs>
      <path id="DejaVuSans-49" d="M 628 4666 
L 1259 4666 
L 1259 0 
L 628 0 
L 628 4666 
z
" transform="scale(0.015625)"/>
      <path id="DejaVuSans-66" d="M 2375 4863 
L 2375 4384 
L 1825 4384 
Q 1516 4384 1395 4259 
Q 1275 4134 1275 3809 
L 1275 3500 
L 2222 3500 
L 2222 3053 
L 1275 3053 
L 1275 0 
L 697 0 
L 697 3053 
L 147 3053 
L 147 3500 
L 697 3500 
L 697 3744 
Q 697 4328 969 4595 
Q 1241 4863 1831 4863 
L 2375 4863 
z
" transform="scale(0.015625)"/>
     </defs>
     <use xlink:href="#DejaVuSans-49"/>
     <use xlink:href="#DejaVuSans-6d" x="29.492188"/>
     <use xlink:href="#DejaVuSans-70" x="126.904297"/>
     <use xlink:href="#DejaVuSans-61" x="190.380859"/>
     <use xlink:href="#DejaVuSans-63" x="251.660156"/>
     <use xlink:href="#DejaVuSans-74" x="306.640625"/>
     <use xlink:href="#DejaVuSans-66" x="345.849609"/>
     <use xlink:href="#DejaVuSans-75" x="381.054688"/>
     <use xlink:href="#DejaVuSans-6c" x="444.433594"/>
     <use xlink:href="#DejaVuSans-20" x="472.216797"/>
     <use xlink:href="#DejaVuSans-64" x="504.003906"/>
     <use xlink:href="#DejaVuSans-69" x="567.480469"/>
     <use xlink:href="#DejaVuSans-72" x="595.263672"/>
     <use xlink:href="#DejaVuSans-65" x="634.126953"/>
     <use xlink:href="#DejaVuSans-63" x="695.650391"/>
     <use xlink:href="#DejaVuSans-74" x="750.630859"/>
     <use xlink:href="#DejaVuSans-6f" x="789.839844"/>
     <use xlink:href="#DejaVuSans-72" x="851.021484"/>
     <use xlink:href="#DejaVuSans-73" x="892.134766"/>
     <use xlink:href="#DejaVuSans-20" x="944.234375"/>
     <use xlink:href="#DejaVuSans-66" x="976.021484"/>
     <use xlink:href="#DejaVuSans-6f" x="1011.226562"/>
     <use xlink:href="#DejaVuSans-72" x="1072.408203"/>
     <use xlink:href="#DejaVuSans-20" x="1113.521484"/>
     <use xlink:href="#DejaVuSans-44" x="1145.308594"/>
     <use xlink:href="#DejaVuSans-6f" x="1222.310547"/>
     <use xlink:href="#DejaVuSans-63" x="1283.492188"/>
     <use xlink:href="#DejaVuSans-75" x="1338.472656"/>
     <use xlink:href="#DejaVuSans-6d" x="1401.851562"/>
     <use xlink:href="#DejaVuSans-65" x="1499.263672"/>
     <use xlink:href="#DejaVuSans-6e" x="1560.787109"/>
     <use xlink:href="#DejaVuSans-74" x="1624.166016"/>
     <use xlink:href="#DejaVuSans-61" x="1663.375"/>
     <use xlink:href="#DejaVuSans-72" x="1724.654297"/>
     <use xlink:href="#DejaVuSans-79" x="1765.767578"/>
     <use xlink:href="#DejaVuSans-20" x="1824.947266"/>
     <use xlink:href="#DejaVuSans-67" x="1856.734375"/>
     <use xlink:href="#DejaVuSans-65" x="1920.210938"/>
     <use xlink:href="#DejaVuSans-6e" x="1981.734375"/>
     <use xlink:href="#DejaVuSans-72" x="2045.113281"/>
     <use xlink:href="#DejaVuSans-65" x="2083.976562"/>
    </g>
   </g>
  </g>
 </g>
 <defs>
  <clipPath id="p56ef3bf9b3">
   <rect x="10.8" y="10.8" width="554.4" height="554.4"/>
  </clipPath>
 </defs>
</svg>
