<?xml version="1.0" encoding="utf-8" standalone="no"?>
<!DOCTYPE svg PUBLIC "-//W3C//DTD SVG 1.1//EN"
  "http://www.w3.org/Graphics/SVG/1.1/DTD/svg11.dtd">
<svg xmlns:xlink="http://www.w3.org/1999/xlink" width="568.8pt" height="583.918125pt" viewBox="0 0 568.8 583.918125" xmlns="http://www.w3.org/2000/svg" version="1.1">
 <metadata>
  <rdf:RDF xmlns:dc="http://purl.org/dc/elements/1.1/" xmlns:cc="http://creativecommons.org/ns#" xmlns:rdf="http://www.w3.org/1999/02/22-rdf-syntax-ns#">
   <cc:Work>
    <dc:type rdf:resource="http://purl.org/dc/dcmitype/StillImage"/>
    <dc:date>2022-12-23T20:57:00.976087</dc:date>
    <dc:format>image/svg+xml</dc:format>
    <dc:creator>
     <cc:Agent>
      <dc:title>Matplotlib v3.5.3, https://matplotlib.org/</dc:title>
     </cc:Agent>
    </dc:creator>
   </cc:Work>
  </rdf:RDF>
 </metadata>
 <defs>
  <style type="text/css">*{stroke-linejoin: round; stroke-linecap: butt}</style>
 </defs>
 <g id="figure_1">
  <g id="patch_1">
   <path d="M 0 583.918125 
L 568.8 583.918125 
L 568.8 0 
L 0 0 
z
" style="fill: #ffffff"/>
  </g>
  <g id="axes_1">
   <g id="LineCollection_1">
    <path d="M 478.246154 299.518125 
L 461.302134 212.311633 
" clip-path="url(#p46c5829bfc)" style="fill: none; stroke: #000000; stroke-opacity: 0.3; stroke-width: 5"/>
    <path d="M 123.701343 173.493854 
L 90.553846 254.940774 
" clip-path="url(#p46c5829bfc)" style="fill: none; stroke: #000000; stroke-opacity: 0.3; stroke-width: 10"/>
   </g>
   <g id="PathCollection_1">
    <path d="M 478.246154 326.904253 
C 485.50904 326.904253 492.475435 324.018678 497.611071 318.883042 
C 502.746707 313.747406 505.632282 306.781011 505.632282 299.518125 
C 505.632282 292.255239 502.746707 285.288844 497.611071 280.153208 
C 492.475435 275.017572 485.50904 272.131997 478.246154 272.131997 
C 470.983268 272.131997 464.016873 275.017572 458.881237 280.153208 
C 453.745601 285.288844 450.860026 292.255239 450.860026 299.518125 
C 450.860026 306.781011 453.745601 313.747406 458.881237 318.883042 
C 464.016873 324.018678 470.983268 326.904253 478.246154 326.904253 
z
" clip-path="url(#p46c5829bfc)" style="fill: #c70039; fill-opacity: 0.99; stroke: #c70039; stroke-opacity: 0.99"/>
    <path d="M 461.302134 235.060277 
C 467.335145 235.060277 473.121871 232.663336 477.387854 228.397353 
C 481.653837 224.13137 484.050777 218.344644 484.050777 212.311633 
C 484.050777 206.278623 481.653837 200.491896 477.387854 196.225914 
C 473.121871 191.959931 467.335145 189.56299 461.302134 189.56299 
C 455.269124 189.56299 449.482397 191.959931 445.216415 196.225914 
C 440.950432 200.491896 438.553491 206.278623 438.553491 212.311633 
C 438.553491 218.344644 440.950432 224.13137 445.216415 228.397353 
C 449.482397 232.663336 455.269124 235.060277 461.302134 235.060277 
z
" clip-path="url(#p46c5829bfc)" style="fill: #c70039; fill-opacity: 0.99; stroke: #c70039; stroke-opacity: 0.99"/>
    <path d="M 413.399864 162.647368 
C 419.357238 162.647368 425.071415 160.280478 429.283915 156.067978 
C 433.496415 151.855478 435.863305 146.141301 435.863305 140.183927 
C 435.863305 134.226552 433.496415 128.512375 429.283915 124.299875 
C 425.071415 120.087375 419.357238 117.720485 413.399864 117.720485 
C 407.442489 117.720485 401.728312 120.087375 397.515812 124.299875 
C 393.303312 128.512375 390.936422 134.226552 390.936422 140.183927 
C 390.936422 146.141301 393.303312 151.855478 397.515812 156.067978 
C 401.728312 160.280478 407.442489 162.647368 413.399864 162.647368 
z
" clip-path="url(#p46c5829bfc)" style="fill: #c70039; fill-opacity: 0.99; stroke: #c70039; stroke-opacity: 0.99"/>
    <path d="M 342.822083 117.178364 
C 348.542991 117.178364 354.030357 114.905423 358.07565 110.86013 
C 362.120943 106.814836 364.393884 101.327471 364.393884 95.606563 
C 364.393884 89.885654 362.120943 84.398289 358.07565 80.352996 
C 354.030357 76.307703 348.542991 74.034762 342.822083 74.034762 
C 337.101174 74.034762 331.613809 76.307703 327.568516 80.352996 
C 323.523223 84.398289 321.250282 89.885654 321.250282 95.606563 
C 321.250282 101.327471 323.523223 106.814836 327.568516 110.86013 
C 331.613809 114.905423 337.101174 117.178364 342.822083 117.178364 
z
" clip-path="url(#p46c5829bfc)" style="fill: #c70039; fill-opacity: 0.99; stroke: #c70039; stroke-opacity: 0.99"/>
    <path d="M 261.772317 107.662704 
C 267.441126 107.662704 272.878518 105.410462 276.886971 101.402009 
C 280.895424 97.393556 283.147665 91.956164 283.147665 86.287356 
C 283.147665 80.618547 280.895424 75.181155 276.886971 71.172702 
C 272.878518 67.164249 267.441126 64.912008 261.772317 64.912008 
C 256.103508 64.912008 250.666116 67.164249 246.657663 71.172702 
C 242.64921 75.181155 240.396969 80.618547 240.396969 86.287356 
C 240.396969 91.956164 242.64921 97.393556 246.657663 101.402009 
C 250.666116 105.410462 256.103508 107.662704 261.772317 107.662704 
z
" clip-path="url(#p46c5829bfc)" style="fill: #c70039; fill-opacity: 0.99; stroke: #c70039; stroke-opacity: 0.99"/>
    <path d="M 184.264816 135.046431 
C 189.88944 135.046431 195.28445 132.811744 199.261659 128.834535 
C 203.238868 124.857326 205.473555 119.462315 205.473555 113.837692 
C 205.473555 108.213069 203.238868 102.818059 199.261659 98.84085 
C 195.28445 94.86364 189.88944 92.628954 184.264816 92.628954 
C 178.640193 92.628954 173.245183 94.86364 169.267974 98.84085 
C 165.290765 102.818059 163.056078 108.213069 163.056078 113.837692 
C 163.056078 119.462315 165.290765 124.857326 169.267974 128.834535 
C 173.245183 132.811744 178.640193 135.046431 184.264816 135.046431 
z
" clip-path="url(#p46c5829bfc)" style="fill: #c70039; fill-opacity: 0.99; stroke: #c70039; stroke-opacity: 0.99"/>
    <path d="M 123.701343 194.677834 
C 129.3194 194.677834 134.708112 192.445756 138.680679 188.47319 
C 142.653245 184.500623 144.885323 179.111911 144.885323 173.493854 
C 144.885323 167.875797 142.653245 162.487084 138.680679 158.514518 
C 134.708112 154.541951 129.3194 152.309874 123.701343 152.309874 
C 118.083286 152.309874 112.694573 154.541951 108.722007 158.514518 
C 104.74944 162.487084 102.517363 167.875797 102.517363 173.493854 
C 102.517363 179.111911 104.74944 184.500623 108.722007 188.47319 
C 112.694573 192.445756 118.083286 194.677834 123.701343 194.677834 
z
" clip-path="url(#p46c5829bfc)" style="fill: #c70039; fill-opacity: 0.99; stroke: #c70039; stroke-opacity: 0.99"/>
    <path d="M 90.553846 276.124754 
C 96.171903 276.124754 101.560616 273.892676 105.533182 269.92011 
C 109.505748 265.947544 111.737826 260.558831 111.737826 254.940774 
C 111.737826 249.322717 109.505748 243.934004 105.533182 239.961438 
C 101.560616 235.988872 96.171903 233.756794 90.553846 233.756794 
C 84.935789 233.756794 79.547077 235.988872 75.57451 239.961438 
C 71.601944 243.934004 69.369866 249.322717 69.369866 254.940774 
C 69.369866 260.558831 71.601944 265.947544 75.57451 269.92011 
C 79.547077 273.892676 84.935789 276.124754 90.553846 276.124754 
z
" clip-path="url(#p46c5829bfc)" style="fill: #c70039; fill-opacity: 0.99; stroke: #c70039; stroke-opacity: 0.99"/>
    <path d="M 90.553858 365.165337 
C 96.14164 365.165337 101.501313 362.945287 105.452472 358.994129 
C 109.403631 355.04297 111.62368 349.683297 111.62368 344.095514 
C 111.62368 338.507732 109.403631 333.148059 105.452472 329.1969 
C 101.501313 325.245742 96.14164 323.025692 90.553858 323.025692 
C 84.966076 323.025692 79.606402 325.245742 75.655244 329.1969 
C 71.704085 333.148059 69.484036 338.507732 69.484036 344.095514 
C 69.484036 349.683297 71.704085 355.04297 75.655244 358.994129 
C 79.606402 362.945287 84.966076 365.165337 90.553858 365.165337 
z
" clip-path="url(#p46c5829bfc)" style="fill: #c70039; fill-opacity: 0.99; stroke: #c70039; stroke-opacity: 0.99"/>
    <path d="M 123.701354 445.769221 
C 129.065568 445.769221 134.210799 443.637997 138.00387 439.844925 
C 141.796942 436.051853 143.928166 430.906622 143.928166 425.542409 
C 143.928166 420.178196 141.796942 415.032965 138.00387 411.239893 
C 134.210799 407.446822 129.065568 405.315597 123.701354 405.315597 
C 118.337141 405.315597 113.19191 407.446822 109.398838 411.239893 
C 105.605767 415.032965 103.474542 420.178196 103.474542 425.542409 
C 103.474542 430.906622 105.605767 436.051853 109.398838 439.844925 
C 113.19191 443.637997 118.337141 445.769221 123.701354 445.769221 
z
" clip-path="url(#p46c5829bfc)" style="fill: #c70039; fill-opacity: 0.99; stroke: #c70039; stroke-opacity: 0.99"/>
    <path d="M 184.264846 505.395078 
C 189.621022 505.395078 194.758545 503.267047 198.545933 499.479658 
C 202.333322 495.692269 204.461353 490.554747 204.461353 485.198571 
C 204.461353 479.842394 202.333322 474.704872 198.545933 470.917483 
C 194.758545 467.130094 189.621022 465.002063 184.264846 465.002063 
C 178.908669 465.002063 173.771147 467.130094 169.983758 470.917483 
C 166.196369 474.704872 164.068338 479.842394 164.068338 485.198571 
C 164.068338 490.554747 166.196369 495.692269 169.983758 499.479658 
C 173.771147 503.267047 178.908669 505.395078 184.264846 505.395078 
z
" clip-path="url(#p46c5829bfc)" style="fill: #c70039; fill-opacity: 0.99; stroke: #c70039; stroke-opacity: 0.99"/>
    <path d="M 261.772352 532.569845 
C 267.02893 532.569845 272.070919 530.481385 275.787881 526.764423 
C 279.504843 523.047462 281.593303 518.005472 281.593303 512.748894 
C 281.593303 507.492317 279.504843 502.450327 275.787881 498.733365 
C 272.070919 495.016403 267.02893 492.927943 261.772352 492.927943 
C 256.515774 492.927943 251.473785 495.016403 247.756823 498.733365 
C 244.039861 502.450327 241.951401 507.492317 241.951401 512.748894 
C 241.951401 518.005472 244.039861 523.047462 247.756823 526.764423 
C 251.473785 530.481385 256.515774 532.569845 261.772352 532.569845 
z
" clip-path="url(#p46c5829bfc)" style="fill: #c70039; fill-opacity: 0.99; stroke: #c70039; stroke-opacity: 0.99"/>
    <path d="M 342.822112 523.241236 
C 348.0762 523.241236 353.1158 521.153764 356.831001 517.438564 
C 360.546202 513.723363 362.633673 508.683762 362.633673 503.429675 
C 362.633673 498.175587 360.546202 493.135986 356.831001 489.420785 
C 353.1158 485.705585 348.0762 483.618114 342.822112 483.618114 
C 337.568025 483.618114 332.528424 485.705585 328.813223 489.420785 
C 325.098022 493.135986 323.010551 498.175587 323.010551 503.429675 
C 323.010551 508.683762 325.098022 513.723363 328.813223 517.438564 
C 332.528424 521.153764 337.568025 523.241236 342.822112 523.241236 
z
" clip-path="url(#p46c5829bfc)" style="fill: #c70039; fill-opacity: 0.99; stroke: #c70039; stroke-opacity: 0.99"/>
    <path d="M 413.399899 478.560786 
C 418.626654 478.560786 423.640039 476.484174 427.335913 472.7883 
C 431.031788 469.092425 433.1084 464.079041 433.1084 458.852285 
C 433.1084 453.625529 431.031788 448.612145 427.335913 444.91627 
C 423.640039 441.220396 418.626654 439.143784 413.399899 439.143784 
C 408.173143 439.143784 403.159758 441.220396 399.463884 444.91627 
C 395.768009 448.612145 393.691397 453.625529 393.691397 458.852285 
C 393.691397 464.079041 395.768009 469.092425 399.463884 472.7883 
C 403.159758 476.484174 408.173143 478.560786 413.399899 478.560786 
z
" clip-path="url(#p46c5829bfc)" style="fill: #c70039; fill-opacity: 0.99; stroke: #c70039; stroke-opacity: 0.99"/>
    <path d="M 461.302158 406.089501 
C 466.437794 406.089501 471.363779 404.049092 474.995222 400.417649 
C 478.626665 396.786206 480.667074 391.860221 480.667074 386.724585 
C 480.667074 381.588949 478.626665 376.662964 474.995222 373.031521 
C 471.363779 369.400078 466.437794 367.359668 461.302158 367.359668 
C 456.166522 367.359668 451.240537 369.400078 447.609094 373.031521 
C 443.977651 376.662964 441.937241 381.588949 441.937241 386.724585 
C 441.937241 391.860221 443.977651 396.786206 447.609094 400.417649 
C 451.240537 404.049092 456.166522 406.089501 461.302158 406.089501 
z
" clip-path="url(#p46c5829bfc)" style="fill: #c70039; fill-opacity: 0.99; stroke: #c70039; stroke-opacity: 0.99"/>
   </g>
   <g id="text_1">
    <g id="patch_2">
     <path d="M 446.883966 307.833281 
L 509.608341 307.833281 
L 509.608341 291.202969 
L 446.883966 291.202969 
z
" clip-path="url(#p46c5829bfc)" style="fill: #ffffff; opacity: 0.7; stroke: #000000; stroke-linejoin: miter"/>
    </g>
    <g clip-path="url(#p46c5829bfc)">
     <!-- Chuck Jones -->
     <g transform="translate(450.843966 302.001562)scale(0.09 -0.09)">
      <defs>
       <path id="DejaVuSans-43" d="M 4122 4306 
L 4122 3641 
Q 3803 3938 3442 4084 
Q 3081 4231 2675 4231 
Q 1875 4231 1450 3742 
Q 1025 3253 1025 2328 
Q 1025 1406 1450 917 
Q 1875 428 2675 428 
Q 3081 428 3442 575 
Q 3803 722 4122 1019 
L 4122 359 
Q 3791 134 3420 21 
Q 3050 -91 2638 -91 
Q 1578 -91 968 557 
Q 359 1206 359 2328 
Q 359 3453 968 4101 
Q 1578 4750 2638 4750 
Q 3056 4750 3426 4639 
Q 3797 4528 4122 4306 
z
" transform="scale(0.015625)"/>
       <path id="DejaVuSans-68" d="M 3513 2113 
L 3513 0 
L 2938 0 
L 2938 2094 
Q 2938 2591 2744 2837 
Q 2550 3084 2163 3084 
Q 1697 3084 1428 2787 
Q 1159 2491 1159 1978 
L 1159 0 
L 581 0 
L 581 4863 
L 1159 4863 
L 1159 2956 
Q 1366 3272 1645 3428 
Q 1925 3584 2291 3584 
Q 2894 3584 3203 3211 
Q 3513 2838 3513 2113 
z
" transform="scale(0.015625)"/>
       <path id="DejaVuSans-75" d="M 544 1381 
L 544 3500 
L 1119 3500 
L 1119 1403 
Q 1119 906 1312 657 
Q 1506 409 1894 409 
Q 2359 409 2629 706 
Q 2900 1003 2900 1516 
L 2900 3500 
L 3475 3500 
L 3475 0 
L 2900 0 
L 2900 538 
Q 2691 219 2414 64 
Q 2138 -91 1772 -91 
Q 1169 -91 856 284 
Q 544 659 544 1381 
z
M 1991 3584 
L 1991 3584 
z
" transform="scale(0.015625)"/>
       <path id="DejaVuSans-63" d="M 3122 3366 
L 3122 2828 
Q 2878 2963 2633 3030 
Q 2388 3097 2138 3097 
Q 1578 3097 1268 2742 
Q 959 2388 959 1747 
Q 959 1106 1268 751 
Q 1578 397 2138 397 
Q 2388 397 2633 464 
Q 2878 531 3122 666 
L 3122 134 
Q 2881 22 2623 -34 
Q 2366 -91 2075 -91 
Q 1284 -91 818 406 
Q 353 903 353 1747 
Q 353 2603 823 3093 
Q 1294 3584 2113 3584 
Q 2378 3584 2631 3529 
Q 2884 3475 3122 3366 
z
" transform="scale(0.015625)"/>
       <path id="DejaVuSans-6b" d="M 581 4863 
L 1159 4863 
L 1159 1991 
L 2875 3500 
L 3609 3500 
L 1753 1863 
L 3688 0 
L 2938 0 
L 1159 1709 
L 1159 0 
L 581 0 
L 581 4863 
z
" transform="scale(0.015625)"/>
       <path id="DejaVuSans-20" transform="scale(0.015625)"/>
       <path id="DejaVuSans-4a" d="M 628 4666 
L 1259 4666 
L 1259 325 
Q 1259 -519 939 -900 
Q 619 -1281 -91 -1281 
L -331 -1281 
L -331 -750 
L -134 -750 
Q 284 -750 456 -515 
Q 628 -281 628 325 
L 628 4666 
z
" transform="scale(0.015625)"/>
       <path id="DejaVuSans-6f" d="M 1959 3097 
Q 1497 3097 1228 2736 
Q 959 2375 959 1747 
Q 959 1119 1226 758 
Q 1494 397 1959 397 
Q 2419 397 2687 759 
Q 2956 1122 2956 1747 
Q 2956 2369 2687 2733 
Q 2419 3097 1959 3097 
z
M 1959 3584 
Q 2709 3584 3137 3096 
Q 3566 2609 3566 1747 
Q 3566 888 3137 398 
Q 2709 -91 1959 -91 
Q 1206 -91 779 398 
Q 353 888 353 1747 
Q 353 2609 779 3096 
Q 1206 3584 1959 3584 
z
" transform="scale(0.015625)"/>
       <path id="DejaVuSans-6e" d="M 3513 2113 
L 3513 0 
L 2938 0 
L 2938 2094 
Q 2938 2591 2744 2837 
Q 2550 3084 2163 3084 
Q 1697 3084 1428 2787 
Q 1159 2491 1159 1978 
L 1159 0 
L 581 0 
L 581 3500 
L 1159 3500 
L 1159 2956 
Q 1366 3272 1645 3428 
Q 1925 3584 2291 3584 
Q 2894 3584 3203 3211 
Q 3513 2838 3513 2113 
z
" transform="scale(0.015625)"/>
       <path id="DejaVuSans-65" d="M 3597 1894 
L 3597 1613 
L 953 1613 
Q 991 1019 1311 708 
Q 1631 397 2203 397 
Q 2534 397 2845 478 
Q 3156 559 3463 722 
L 3463 178 
Q 3153 47 2828 -22 
Q 2503 -91 2169 -91 
Q 1331 -91 842 396 
Q 353 884 353 1716 
Q 353 2575 817 3079 
Q 1281 3584 2069 3584 
Q 2775 3584 3186 3129 
Q 3597 2675 3597 1894 
z
M 3022 2063 
Q 3016 2534 2758 2815 
Q 2500 3097 2075 3097 
Q 1594 3097 1305 2825 
Q 1016 2553 972 2059 
L 3022 2063 
z
" transform="scale(0.015625)"/>
       <path id="DejaVuSans-73" d="M 2834 3397 
L 2834 2853 
Q 2591 2978 2328 3040 
Q 2066 3103 1784 3103 
Q 1356 3103 1142 2972 
Q 928 2841 928 2578 
Q 928 2378 1081 2264 
Q 1234 2150 1697 2047 
L 1894 2003 
Q 2506 1872 2764 1633 
Q 3022 1394 3022 966 
Q 3022 478 2636 193 
Q 2250 -91 1575 -91 
Q 1294 -91 989 -36 
Q 684 19 347 128 
L 347 722 
Q 666 556 975 473 
Q 1284 391 1588 391 
Q 1994 391 2212 530 
Q 2431 669 2431 922 
Q 2431 1156 2273 1281 
Q 2116 1406 1581 1522 
L 1381 1569 
Q 847 1681 609 1914 
Q 372 2147 372 2553 
Q 372 3047 722 3315 
Q 1072 3584 1716 3584 
Q 2034 3584 2315 3537 
Q 2597 3491 2834 3397 
z
" transform="scale(0.015625)"/>
      </defs>
      <use xlink:href="#DejaVuSans-43"/>
      <use xlink:href="#DejaVuSans-68" x="69.824219"/>
      <use xlink:href="#DejaVuSans-75" x="133.203125"/>
      <use xlink:href="#DejaVuSans-63" x="196.582031"/>
      <use xlink:href="#DejaVuSans-6b" x="251.5625"/>
      <use xlink:href="#DejaVuSans-20" x="309.472656"/>
      <use xlink:href="#DejaVuSans-4a" x="341.259766"/>
      <use xlink:href="#DejaVuSans-6f" x="370.751953"/>
      <use xlink:href="#DejaVuSans-6e" x="431.933594"/>
      <use xlink:href="#DejaVuSans-65" x="495.3125"/>
      <use xlink:href="#DejaVuSans-73" x="556.835938"/>
     </g>
    </g>
   </g>
   <g id="text_2">
    <g id="patch_3">
     <path d="M 431.680884 220.62679 
L 490.923384 220.62679 
L 490.923384 203.996477 
L 431.680884 203.996477 
z
" clip-path="url(#p46c5829bfc)" style="fill: #ffffff; opacity: 0.7; stroke: #000000; stroke-linejoin: miter"/>
    </g>
    <g clip-path="url(#p46c5829bfc)">
     <!-- Friz Freleng -->
     <g transform="translate(435.640884 214.795071)scale(0.09 -0.09)">
      <defs>
       <path id="DejaVuSans-46" d="M 628 4666 
L 3309 4666 
L 3309 4134 
L 1259 4134 
L 1259 2759 
L 3109 2759 
L 3109 2228 
L 1259 2228 
L 1259 0 
L 628 0 
L 628 4666 
z
" transform="scale(0.015625)"/>
       <path id="DejaVuSans-72" d="M 2631 2963 
Q 2534 3019 2420 3045 
Q 2306 3072 2169 3072 
Q 1681 3072 1420 2755 
Q 1159 2438 1159 1844 
L 1159 0 
L 581 0 
L 581 3500 
L 1159 3500 
L 1159 2956 
Q 1341 3275 1631 3429 
Q 1922 3584 2338 3584 
Q 2397 3584 2469 3576 
Q 2541 3569 2628 3553 
L 2631 2963 
z
" transform="scale(0.015625)"/>
       <path id="DejaVuSans-69" d="M 603 3500 
L 1178 3500 
L 1178 0 
L 603 0 
L 603 3500 
z
M 603 4863 
L 1178 4863 
L 1178 4134 
L 603 4134 
L 603 4863 
z
" transform="scale(0.015625)"/>
       <path id="DejaVuSans-7a" d="M 353 3500 
L 3084 3500 
L 3084 2975 
L 922 459 
L 3084 459 
L 3084 0 
L 275 0 
L 275 525 
L 2438 3041 
L 353 3041 
L 353 3500 
z
" transform="scale(0.015625)"/>
       <path id="DejaVuSans-6c" d="M 603 4863 
L 1178 4863 
L 1178 0 
L 603 0 
L 603 4863 
z
" transform="scale(0.015625)"/>
       <path id="DejaVuSans-67" d="M 2906 1791 
Q 2906 2416 2648 2759 
Q 2391 3103 1925 3103 
Q 1463 3103 1205 2759 
Q 947 2416 947 1791 
Q 947 1169 1205 825 
Q 1463 481 1925 481 
Q 2391 481 2648 825 
Q 2906 1169 2906 1791 
z
M 3481 434 
Q 3481 -459 3084 -895 
Q 2688 -1331 1869 -1331 
Q 1566 -1331 1297 -1286 
Q 1028 -1241 775 -1147 
L 775 -588 
Q 1028 -725 1275 -790 
Q 1522 -856 1778 -856 
Q 2344 -856 2625 -561 
Q 2906 -266 2906 331 
L 2906 616 
Q 2728 306 2450 153 
Q 2172 0 1784 0 
Q 1141 0 747 490 
Q 353 981 353 1791 
Q 353 2603 747 3093 
Q 1141 3584 1784 3584 
Q 2172 3584 2450 3431 
Q 2728 3278 2906 2969 
L 2906 3500 
L 3481 3500 
L 3481 434 
z
" transform="scale(0.015625)"/>
      </defs>
      <use xlink:href="#DejaVuSans-46"/>
      <use xlink:href="#DejaVuSans-72" x="50.269531"/>
      <use xlink:href="#DejaVuSans-69" x="91.382812"/>
      <use xlink:href="#DejaVuSans-7a" x="119.166016"/>
      <use xlink:href="#DejaVuSans-20" x="171.65625"/>
      <use xlink:href="#DejaVuSans-46" x="203.443359"/>
      <use xlink:href="#DejaVuSans-72" x="253.712891"/>
      <use xlink:href="#DejaVuSans-65" x="292.576172"/>
      <use xlink:href="#DejaVuSans-6c" x="354.099609"/>
      <use xlink:href="#DejaVuSans-65" x="381.882812"/>
      <use xlink:href="#DejaVuSans-6e" x="443.40625"/>
      <use xlink:href="#DejaVuSans-67" x="506.785156"/>
     </g>
    </g>
   </g>
   <g id="text_3">
    <g id="patch_4">
     <path d="M 381.598223 148.499083 
L 445.201504 148.499083 
L 445.201504 131.86877 
L 381.598223 131.86877 
z
" clip-path="url(#p46c5829bfc)" style="fill: #ffffff; opacity: 0.7; stroke: #000000; stroke-linejoin: miter"/>
    </g>
    <g clip-path="url(#p46c5829bfc)">
     <!-- Woody Allen -->
     <g transform="translate(385.558223 142.667364)scale(0.09 -0.09)">
      <defs>
       <path id="DejaVuSans-57" d="M 213 4666 
L 850 4666 
L 1831 722 
L 2809 4666 
L 3519 4666 
L 4500 722 
L 5478 4666 
L 6119 4666 
L 4947 0 
L 4153 0 
L 3169 4050 
L 2175 0 
L 1381 0 
L 213 4666 
z
" transform="scale(0.015625)"/>
       <path id="DejaVuSans-64" d="M 2906 2969 
L 2906 4863 
L 3481 4863 
L 3481 0 
L 2906 0 
L 2906 525 
Q 2725 213 2448 61 
Q 2172 -91 1784 -91 
Q 1150 -91 751 415 
Q 353 922 353 1747 
Q 353 2572 751 3078 
Q 1150 3584 1784 3584 
Q 2172 3584 2448 3432 
Q 2725 3281 2906 2969 
z
M 947 1747 
Q 947 1113 1208 752 
Q 1469 391 1925 391 
Q 2381 391 2643 752 
Q 2906 1113 2906 1747 
Q 2906 2381 2643 2742 
Q 2381 3103 1925 3103 
Q 1469 3103 1208 2742 
Q 947 2381 947 1747 
z
" transform="scale(0.015625)"/>
       <path id="DejaVuSans-79" d="M 2059 -325 
Q 1816 -950 1584 -1140 
Q 1353 -1331 966 -1331 
L 506 -1331 
L 506 -850 
L 844 -850 
Q 1081 -850 1212 -737 
Q 1344 -625 1503 -206 
L 1606 56 
L 191 3500 
L 800 3500 
L 1894 763 
L 2988 3500 
L 3597 3500 
L 2059 -325 
z
" transform="scale(0.015625)"/>
       <path id="DejaVuSans-41" d="M 2188 4044 
L 1331 1722 
L 3047 1722 
L 2188 4044 
z
M 1831 4666 
L 2547 4666 
L 4325 0 
L 3669 0 
L 3244 1197 
L 1141 1197 
L 716 0 
L 50 0 
L 1831 4666 
z
" transform="scale(0.015625)"/>
      </defs>
      <use xlink:href="#DejaVuSans-57"/>
      <use xlink:href="#DejaVuSans-6f" x="93.001953"/>
      <use xlink:href="#DejaVuSans-6f" x="154.183594"/>
      <use xlink:href="#DejaVuSans-64" x="215.365234"/>
      <use xlink:href="#DejaVuSans-79" x="278.841797"/>
      <use xlink:href="#DejaVuSans-20" x="338.021484"/>
      <use xlink:href="#DejaVuSans-41" x="369.808594"/>
      <use xlink:href="#DejaVuSans-6c" x="438.216797"/>
      <use xlink:href="#DejaVuSans-6c" x="466"/>
      <use xlink:href="#DejaVuSans-65" x="493.783203"/>
      <use xlink:href="#DejaVuSans-6e" x="555.306641"/>
     </g>
    </g>
   </g>
   <g id="text_4">
    <g id="patch_5">
     <path d="M 306.443099 103.921719 
L 379.201067 103.921719 
L 379.201067 87.291406 
L 306.443099 87.291406 
z
" clip-path="url(#p46c5829bfc)" style="fill: #ffffff; opacity: 0.7; stroke: #000000; stroke-linejoin: miter"/>
    </g>
    <g clip-path="url(#p46c5829bfc)">
     <!-- John Singleton -->
     <g transform="translate(310.403099 98.09)scale(0.09 -0.09)">
      <defs>
       <path id="DejaVuSans-53" d="M 3425 4513 
L 3425 3897 
Q 3066 4069 2747 4153 
Q 2428 4238 2131 4238 
Q 1616 4238 1336 4038 
Q 1056 3838 1056 3469 
Q 1056 3159 1242 3001 
Q 1428 2844 1947 2747 
L 2328 2669 
Q 3034 2534 3370 2195 
Q 3706 1856 3706 1288 
Q 3706 609 3251 259 
Q 2797 -91 1919 -91 
Q 1588 -91 1214 -16 
Q 841 59 441 206 
L 441 856 
Q 825 641 1194 531 
Q 1563 422 1919 422 
Q 2459 422 2753 634 
Q 3047 847 3047 1241 
Q 3047 1584 2836 1778 
Q 2625 1972 2144 2069 
L 1759 2144 
Q 1053 2284 737 2584 
Q 422 2884 422 3419 
Q 422 4038 858 4394 
Q 1294 4750 2059 4750 
Q 2388 4750 2728 4690 
Q 3069 4631 3425 4513 
z
" transform="scale(0.015625)"/>
       <path id="DejaVuSans-74" d="M 1172 4494 
L 1172 3500 
L 2356 3500 
L 2356 3053 
L 1172 3053 
L 1172 1153 
Q 1172 725 1289 603 
Q 1406 481 1766 481 
L 2356 481 
L 2356 0 
L 1766 0 
Q 1100 0 847 248 
Q 594 497 594 1153 
L 594 3053 
L 172 3053 
L 172 3500 
L 594 3500 
L 594 4494 
L 1172 4494 
z
" transform="scale(0.015625)"/>
      </defs>
      <use xlink:href="#DejaVuSans-4a"/>
      <use xlink:href="#DejaVuSans-6f" x="29.492188"/>
      <use xlink:href="#DejaVuSans-68" x="90.673828"/>
      <use xlink:href="#DejaVuSans-6e" x="154.052734"/>
      <use xlink:href="#DejaVuSans-20" x="217.431641"/>
      <use xlink:href="#DejaVuSans-53" x="249.21875"/>
      <use xlink:href="#DejaVuSans-69" x="312.695312"/>
      <use xlink:href="#DejaVuSans-6e" x="340.478516"/>
      <use xlink:href="#DejaVuSans-67" x="403.857422"/>
      <use xlink:href="#DejaVuSans-6c" x="467.333984"/>
      <use xlink:href="#DejaVuSans-65" x="495.117188"/>
      <use xlink:href="#DejaVuSans-74" x="556.640625"/>
      <use xlink:href="#DejaVuSans-6f" x="595.849609"/>
      <use xlink:href="#DejaVuSans-6e" x="657.03125"/>
     </g>
    </g>
   </g>
   <g id="text_5">
    <g id="patch_6">
     <path d="M 221.062786 94.602512 
L 302.481848 94.602512 
L 302.481848 77.9722 
L 221.062786 77.9722 
z
" clip-path="url(#p46c5829bfc)" style="fill: #ffffff; opacity: 0.7; stroke: #000000; stroke-linejoin: miter"/>
    </g>
    <g clip-path="url(#p46c5829bfc)">
     <!-- Alfred Hitchcock -->
     <g transform="translate(225.022786 88.770793)scale(0.09 -0.09)">
      <defs>
       <path id="DejaVuSans-66" d="M 2375 4863 
L 2375 4384 
L 1825 4384 
Q 1516 4384 1395 4259 
Q 1275 4134 1275 3809 
L 1275 3500 
L 2222 3500 
L 2222 3053 
L 1275 3053 
L 1275 0 
L 697 0 
L 697 3053 
L 147 3053 
L 147 3500 
L 697 3500 
L 697 3744 
Q 697 4328 969 4595 
Q 1241 4863 1831 4863 
L 2375 4863 
z
" transform="scale(0.015625)"/>
       <path id="DejaVuSans-48" d="M 628 4666 
L 1259 4666 
L 1259 2753 
L 3553 2753 
L 3553 4666 
L 4184 4666 
L 4184 0 
L 3553 0 
L 3553 2222 
L 1259 2222 
L 1259 0 
L 628 0 
L 628 4666 
z
" transform="scale(0.015625)"/>
      </defs>
      <use xlink:href="#DejaVuSans-41"/>
      <use xlink:href="#DejaVuSans-6c" x="68.408203"/>
      <use xlink:href="#DejaVuSans-66" x="96.191406"/>
      <use xlink:href="#DejaVuSans-72" x="131.396484"/>
      <use xlink:href="#DejaVuSans-65" x="170.259766"/>
      <use xlink:href="#DejaVuSans-64" x="231.783203"/>
      <use xlink:href="#DejaVuSans-20" x="295.259766"/>
      <use xlink:href="#DejaVuSans-48" x="327.046875"/>
      <use xlink:href="#DejaVuSans-69" x="402.242188"/>
      <use xlink:href="#DejaVuSans-74" x="430.025391"/>
      <use xlink:href="#DejaVuSans-63" x="469.234375"/>
      <use xlink:href="#DejaVuSans-68" x="524.214844"/>
      <use xlink:href="#DejaVuSans-63" x="587.59375"/>
      <use xlink:href="#DejaVuSans-6f" x="642.574219"/>
      <use xlink:href="#DejaVuSans-63" x="703.755859"/>
      <use xlink:href="#DejaVuSans-6b" x="758.736328"/>
     </g>
    </g>
   </g>
   <g id="text_6">
    <g id="patch_7">
     <path d="M 145.699816 122.152849 
L 222.829816 122.152849 
L 222.829816 105.522536 
L 145.699816 105.522536 
z
" clip-path="url(#p46c5829bfc)" style="fill: #ffffff; opacity: 0.7; stroke: #000000; stroke-linejoin: miter"/>
    </g>
    <g clip-path="url(#p46c5829bfc)">
     <!-- Clyde Geronimi -->
     <g transform="translate(149.659816 116.32113)scale(0.09 -0.09)">
      <defs>
       <path id="DejaVuSans-47" d="M 3809 666 
L 3809 1919 
L 2778 1919 
L 2778 2438 
L 4434 2438 
L 4434 434 
Q 4069 175 3628 42 
Q 3188 -91 2688 -91 
Q 1594 -91 976 548 
Q 359 1188 359 2328 
Q 359 3472 976 4111 
Q 1594 4750 2688 4750 
Q 3144 4750 3555 4637 
Q 3966 4525 4313 4306 
L 4313 3634 
Q 3963 3931 3569 4081 
Q 3175 4231 2741 4231 
Q 1884 4231 1454 3753 
Q 1025 3275 1025 2328 
Q 1025 1384 1454 906 
Q 1884 428 2741 428 
Q 3075 428 3337 486 
Q 3600 544 3809 666 
z
" transform="scale(0.015625)"/>
       <path id="DejaVuSans-6d" d="M 3328 2828 
Q 3544 3216 3844 3400 
Q 4144 3584 4550 3584 
Q 5097 3584 5394 3201 
Q 5691 2819 5691 2113 
L 5691 0 
L 5113 0 
L 5113 2094 
Q 5113 2597 4934 2840 
Q 4756 3084 4391 3084 
Q 3944 3084 3684 2787 
Q 3425 2491 3425 1978 
L 3425 0 
L 2847 0 
L 2847 2094 
Q 2847 2600 2669 2842 
Q 2491 3084 2119 3084 
Q 1678 3084 1418 2786 
Q 1159 2488 1159 1978 
L 1159 0 
L 581 0 
L 581 3500 
L 1159 3500 
L 1159 2956 
Q 1356 3278 1631 3431 
Q 1906 3584 2284 3584 
Q 2666 3584 2933 3390 
Q 3200 3197 3328 2828 
z
" transform="scale(0.015625)"/>
      </defs>
      <use xlink:href="#DejaVuSans-43"/>
      <use xlink:href="#DejaVuSans-6c" x="69.824219"/>
      <use xlink:href="#DejaVuSans-79" x="97.607422"/>
      <use xlink:href="#DejaVuSans-64" x="156.787109"/>
      <use xlink:href="#DejaVuSans-65" x="220.263672"/>
      <use xlink:href="#DejaVuSans-20" x="281.787109"/>
      <use xlink:href="#DejaVuSans-47" x="313.574219"/>
      <use xlink:href="#DejaVuSans-65" x="391.064453"/>
      <use xlink:href="#DejaVuSans-72" x="452.587891"/>
      <use xlink:href="#DejaVuSans-6f" x="491.451172"/>
      <use xlink:href="#DejaVuSans-6e" x="552.632812"/>
      <use xlink:href="#DejaVuSans-69" x="616.011719"/>
      <use xlink:href="#DejaVuSans-6d" x="643.794922"/>
      <use xlink:href="#DejaVuSans-69" x="741.207031"/>
     </g>
    </g>
   </g>
   <g id="text_7">
    <g id="patch_8">
     <path d="M 87.218296 181.80901 
L 160.18439 181.80901 
L 160.18439 165.178697 
L 87.218296 165.178697 
z
" clip-path="url(#p46c5829bfc)" style="fill: #ffffff; opacity: 0.7; stroke: #000000; stroke-linejoin: miter"/>
    </g>
    <g clip-path="url(#p46c5829bfc)">
     <!-- William Hanna -->
     <g transform="translate(91.178296 175.977291)scale(0.09 -0.09)">
      <defs>
       <path id="DejaVuSans-61" d="M 2194 1759 
Q 1497 1759 1228 1600 
Q 959 1441 959 1056 
Q 959 750 1161 570 
Q 1363 391 1709 391 
Q 2188 391 2477 730 
Q 2766 1069 2766 1631 
L 2766 1759 
L 2194 1759 
z
M 3341 1997 
L 3341 0 
L 2766 0 
L 2766 531 
Q 2569 213 2275 61 
Q 1981 -91 1556 -91 
Q 1019 -91 701 211 
Q 384 513 384 1019 
Q 384 1609 779 1909 
Q 1175 2209 1959 2209 
L 2766 2209 
L 2766 2266 
Q 2766 2663 2505 2880 
Q 2244 3097 1772 3097 
Q 1472 3097 1187 3025 
Q 903 2953 641 2809 
L 641 3341 
Q 956 3463 1253 3523 
Q 1550 3584 1831 3584 
Q 2591 3584 2966 3190 
Q 3341 2797 3341 1997 
z
" transform="scale(0.015625)"/>
      </defs>
      <use xlink:href="#DejaVuSans-57"/>
      <use xlink:href="#DejaVuSans-69" x="96.626953"/>
      <use xlink:href="#DejaVuSans-6c" x="124.410156"/>
      <use xlink:href="#DejaVuSans-6c" x="152.193359"/>
      <use xlink:href="#DejaVuSans-69" x="179.976562"/>
      <use xlink:href="#DejaVuSans-61" x="207.759766"/>
      <use xlink:href="#DejaVuSans-6d" x="269.039062"/>
      <use xlink:href="#DejaVuSans-20" x="366.451172"/>
      <use xlink:href="#DejaVuSans-48" x="398.238281"/>
      <use xlink:href="#DejaVuSans-61" x="473.433594"/>
      <use xlink:href="#DejaVuSans-6e" x="534.712891"/>
      <use xlink:href="#DejaVuSans-6e" x="598.091797"/>
      <use xlink:href="#DejaVuSans-61" x="661.470703"/>
     </g>
    </g>
   </g>
   <g id="text_8">
    <g id="patch_9">
     <path d="M 52.332674 263.25593 
L 128.775018 263.25593 
L 128.775018 246.625618 
L 52.332674 246.625618 
z
" clip-path="url(#p46c5829bfc)" style="fill: #ffffff; opacity: 0.7; stroke: #000000; stroke-linejoin: miter"/>
    </g>
    <g clip-path="url(#p46c5829bfc)">
     <!-- Joseph Barbera -->
     <g transform="translate(56.292674 257.424211)scale(0.09 -0.09)">
      <defs>
       <path id="DejaVuSans-70" d="M 1159 525 
L 1159 -1331 
L 581 -1331 
L 581 3500 
L 1159 3500 
L 1159 2969 
Q 1341 3281 1617 3432 
Q 1894 3584 2278 3584 
Q 2916 3584 3314 3078 
Q 3713 2572 3713 1747 
Q 3713 922 3314 415 
Q 2916 -91 2278 -91 
Q 1894 -91 1617 61 
Q 1341 213 1159 525 
z
M 3116 1747 
Q 3116 2381 2855 2742 
Q 2594 3103 2138 3103 
Q 1681 3103 1420 2742 
Q 1159 2381 1159 1747 
Q 1159 1113 1420 752 
Q 1681 391 2138 391 
Q 2594 391 2855 752 
Q 3116 1113 3116 1747 
z
" transform="scale(0.015625)"/>
       <path id="DejaVuSans-42" d="M 1259 2228 
L 1259 519 
L 2272 519 
Q 2781 519 3026 730 
Q 3272 941 3272 1375 
Q 3272 1813 3026 2020 
Q 2781 2228 2272 2228 
L 1259 2228 
z
M 1259 4147 
L 1259 2741 
L 2194 2741 
Q 2656 2741 2882 2914 
Q 3109 3088 3109 3444 
Q 3109 3797 2882 3972 
Q 2656 4147 2194 4147 
L 1259 4147 
z
M 628 4666 
L 2241 4666 
Q 2963 4666 3353 4366 
Q 3744 4066 3744 3513 
Q 3744 3084 3544 2831 
Q 3344 2578 2956 2516 
Q 3422 2416 3680 2098 
Q 3938 1781 3938 1306 
Q 3938 681 3513 340 
Q 3088 0 2303 0 
L 628 0 
L 628 4666 
z
" transform="scale(0.015625)"/>
       <path id="DejaVuSans-62" d="M 3116 1747 
Q 3116 2381 2855 2742 
Q 2594 3103 2138 3103 
Q 1681 3103 1420 2742 
Q 1159 2381 1159 1747 
Q 1159 1113 1420 752 
Q 1681 391 2138 391 
Q 2594 391 2855 752 
Q 3116 1113 3116 1747 
z
M 1159 2969 
Q 1341 3281 1617 3432 
Q 1894 3584 2278 3584 
Q 2916 3584 3314 3078 
Q 3713 2572 3713 1747 
Q 3713 922 3314 415 
Q 2916 -91 2278 -91 
Q 1894 -91 1617 61 
Q 1341 213 1159 525 
L 1159 0 
L 581 0 
L 581 4863 
L 1159 4863 
L 1159 2969 
z
" transform="scale(0.015625)"/>
      </defs>
      <use xlink:href="#DejaVuSans-4a"/>
      <use xlink:href="#DejaVuSans-6f" x="29.492188"/>
      <use xlink:href="#DejaVuSans-73" x="90.673828"/>
      <use xlink:href="#DejaVuSans-65" x="142.773438"/>
      <use xlink:href="#DejaVuSans-70" x="204.296875"/>
      <use xlink:href="#DejaVuSans-68" x="267.773438"/>
      <use xlink:href="#DejaVuSans-20" x="331.152344"/>
      <use xlink:href="#DejaVuSans-42" x="362.939453"/>
      <use xlink:href="#DejaVuSans-61" x="431.542969"/>
      <use xlink:href="#DejaVuSans-72" x="492.822266"/>
      <use xlink:href="#DejaVuSans-62" x="533.935547"/>
      <use xlink:href="#DejaVuSans-65" x="597.412109"/>
      <use xlink:href="#DejaVuSans-72" x="658.935547"/>
      <use xlink:href="#DejaVuSans-61" x="700.048828"/>
     </g>
    </g>
   </g>
   <g id="text_9">
    <g id="patch_10">
     <path d="M 58.843623 352.410671 
L 122.264092 352.410671 
L 122.264092 335.780358 
L 58.843623 335.780358 
z
" clip-path="url(#p46c5829bfc)" style="fill: #ffffff; opacity: 0.7; stroke: #000000; stroke-linejoin: miter"/>
    </g>
    <g clip-path="url(#p46c5829bfc)">
     <!-- Oliver Stone -->
     <g transform="translate(62.803623 346.578952)scale(0.09 -0.09)">
      <defs>
       <path id="DejaVuSans-4f" d="M 2522 4238 
Q 1834 4238 1429 3725 
Q 1025 3213 1025 2328 
Q 1025 1447 1429 934 
Q 1834 422 2522 422 
Q 3209 422 3611 934 
Q 4013 1447 4013 2328 
Q 4013 3213 3611 3725 
Q 3209 4238 2522 4238 
z
M 2522 4750 
Q 3503 4750 4090 4092 
Q 4678 3434 4678 2328 
Q 4678 1225 4090 567 
Q 3503 -91 2522 -91 
Q 1538 -91 948 565 
Q 359 1222 359 2328 
Q 359 3434 948 4092 
Q 1538 4750 2522 4750 
z
" transform="scale(0.015625)"/>
       <path id="DejaVuSans-76" d="M 191 3500 
L 800 3500 
L 1894 563 
L 2988 3500 
L 3597 3500 
L 2284 0 
L 1503 0 
L 191 3500 
z
" transform="scale(0.015625)"/>
      </defs>
      <use xlink:href="#DejaVuSans-4f"/>
      <use xlink:href="#DejaVuSans-6c" x="78.710938"/>
      <use xlink:href="#DejaVuSans-69" x="106.494141"/>
      <use xlink:href="#DejaVuSans-76" x="134.277344"/>
      <use xlink:href="#DejaVuSans-65" x="193.457031"/>
      <use xlink:href="#DejaVuSans-72" x="254.980469"/>
      <use xlink:href="#DejaVuSans-20" x="296.09375"/>
      <use xlink:href="#DejaVuSans-53" x="327.880859"/>
      <use xlink:href="#DejaVuSans-74" x="391.357422"/>
      <use xlink:href="#DejaVuSans-6f" x="430.566406"/>
      <use xlink:href="#DejaVuSans-6e" x="491.748047"/>
      <use xlink:href="#DejaVuSans-65" x="555.126953"/>
     </g>
    </g>
   </g>
   <g id="text_10">
    <g id="patch_11">
     <path d="M 85.310026 433.857565 
L 162.092683 433.857565 
L 162.092683 417.227253 
L 85.310026 417.227253 
z
" clip-path="url(#p46c5829bfc)" style="fill: #ffffff; opacity: 0.7; stroke: #000000; stroke-linejoin: miter"/>
    </g>
    <g clip-path="url(#p46c5829bfc)">
     <!-- John McTiernan -->
     <g transform="translate(89.270026 428.025847)scale(0.09 -0.09)">
      <defs>
       <path id="DejaVuSans-4d" d="M 628 4666 
L 1569 4666 
L 2759 1491 
L 3956 4666 
L 4897 4666 
L 4897 0 
L 4281 0 
L 4281 4097 
L 3078 897 
L 2444 897 
L 1241 4097 
L 1241 0 
L 628 0 
L 628 4666 
z
" transform="scale(0.015625)"/>
       <path id="DejaVuSans-54" d="M -19 4666 
L 3928 4666 
L 3928 4134 
L 2272 4134 
L 2272 0 
L 1638 0 
L 1638 4134 
L -19 4134 
L -19 4666 
z
" transform="scale(0.015625)"/>
      </defs>
      <use xlink:href="#DejaVuSans-4a"/>
      <use xlink:href="#DejaVuSans-6f" x="29.492188"/>
      <use xlink:href="#DejaVuSans-68" x="90.673828"/>
      <use xlink:href="#DejaVuSans-6e" x="154.052734"/>
      <use xlink:href="#DejaVuSans-20" x="217.431641"/>
      <use xlink:href="#DejaVuSans-4d" x="249.21875"/>
      <use xlink:href="#DejaVuSans-63" x="335.498047"/>
      <use xlink:href="#DejaVuSans-54" x="390.478516"/>
      <use xlink:href="#DejaVuSans-69" x="448.4375"/>
      <use xlink:href="#DejaVuSans-65" x="476.220703"/>
      <use xlink:href="#DejaVuSans-72" x="537.744141"/>
      <use xlink:href="#DejaVuSans-6e" x="577.107422"/>
      <use xlink:href="#DejaVuSans-61" x="640.486328"/>
      <use xlink:href="#DejaVuSans-6e" x="701.765625"/>
     </g>
    </g>
   </g>
   <g id="text_11">
    <g id="patch_12">
     <path d="M 143.943439 493.513727 
L 224.586252 493.513727 
L 224.586252 476.883414 
L 143.943439 476.883414 
z
" clip-path="url(#p46c5829bfc)" style="fill: #ffffff; opacity: 0.7; stroke: #000000; stroke-linejoin: miter"/>
    </g>
    <g clip-path="url(#p46c5829bfc)">
     <!-- John G. Avildsen -->
     <g transform="translate(147.903439 487.682008)scale(0.09 -0.09)">
      <defs>
       <path id="DejaVuSans-2e" d="M 684 794 
L 1344 794 
L 1344 0 
L 684 0 
L 684 794 
z
" transform="scale(0.015625)"/>
      </defs>
      <use xlink:href="#DejaVuSans-4a"/>
      <use xlink:href="#DejaVuSans-6f" x="29.492188"/>
      <use xlink:href="#DejaVuSans-68" x="90.673828"/>
      <use xlink:href="#DejaVuSans-6e" x="154.052734"/>
      <use xlink:href="#DejaVuSans-20" x="217.431641"/>
      <use xlink:href="#DejaVuSans-47" x="249.21875"/>
      <use xlink:href="#DejaVuSans-2e" x="326.708984"/>
      <use xlink:href="#DejaVuSans-20" x="358.496094"/>
      <use xlink:href="#DejaVuSans-41" x="390.283203"/>
      <use xlink:href="#DejaVuSans-76" x="452.816406"/>
      <use xlink:href="#DejaVuSans-69" x="511.996094"/>
      <use xlink:href="#DejaVuSans-6c" x="539.779297"/>
      <use xlink:href="#DejaVuSans-64" x="567.5625"/>
      <use xlink:href="#DejaVuSans-73" x="631.039062"/>
      <use xlink:href="#DejaVuSans-65" x="683.138672"/>
      <use xlink:href="#DejaVuSans-6e" x="744.662109"/>
     </g>
    </g>
   </g>
   <g id="text_12">
    <g id="patch_13">
     <path d="M 217.118993 521.06405 
L 306.425711 521.06405 
L 306.425711 504.433738 
L 217.118993 504.433738 
z
" clip-path="url(#p46c5829bfc)" style="fill: #ffffff; opacity: 0.7; stroke: #000000; stroke-linejoin: miter"/>
    </g>
    <g clip-path="url(#p46c5829bfc)">
     <!-- Christopher Nolan -->
     <g transform="translate(221.078993 515.232332)scale(0.09 -0.09)">
      <defs>
       <path id="DejaVuSans-4e" d="M 628 4666 
L 1478 4666 
L 3547 763 
L 3547 4666 
L 4159 4666 
L 4159 0 
L 3309 0 
L 1241 3903 
L 1241 0 
L 628 0 
L 628 4666 
z
" transform="scale(0.015625)"/>
      </defs>
      <use xlink:href="#DejaVuSans-43"/>
      <use xlink:href="#DejaVuSans-68" x="69.824219"/>
      <use xlink:href="#DejaVuSans-72" x="133.203125"/>
      <use xlink:href="#DejaVuSans-69" x="174.316406"/>
      <use xlink:href="#DejaVuSans-73" x="202.099609"/>
      <use xlink:href="#DejaVuSans-74" x="254.199219"/>
      <use xlink:href="#DejaVuSans-6f" x="293.408203"/>
      <use xlink:href="#DejaVuSans-70" x="354.589844"/>
      <use xlink:href="#DejaVuSans-68" x="418.066406"/>
      <use xlink:href="#DejaVuSans-65" x="481.445312"/>
      <use xlink:href="#DejaVuSans-72" x="542.96875"/>
      <use xlink:href="#DejaVuSans-20" x="584.082031"/>
      <use xlink:href="#DejaVuSans-4e" x="615.869141"/>
      <use xlink:href="#DejaVuSans-6f" x="690.673828"/>
      <use xlink:href="#DejaVuSans-6c" x="751.855469"/>
      <use xlink:href="#DejaVuSans-61" x="779.638672"/>
      <use xlink:href="#DejaVuSans-6e" x="840.917969"/>
     </g>
    </g>
   </g>
   <g id="text_13">
    <g id="patch_14">
     <path d="M 313.006096 511.744831 
L 372.638128 511.744831 
L 372.638128 495.114518 
L 313.006096 495.114518 
z
" clip-path="url(#p46c5829bfc)" style="fill: #ffffff; opacity: 0.7; stroke: #000000; stroke-linejoin: miter"/>
    </g>
    <g clip-path="url(#p46c5829bfc)">
     <!-- John Sayles -->
     <g transform="translate(316.966096 505.913112)scale(0.09 -0.09)">
      <use xlink:href="#DejaVuSans-4a"/>
      <use xlink:href="#DejaVuSans-6f" x="29.492188"/>
      <use xlink:href="#DejaVuSans-68" x="90.673828"/>
      <use xlink:href="#DejaVuSans-6e" x="154.052734"/>
      <use xlink:href="#DejaVuSans-20" x="217.431641"/>
      <use xlink:href="#DejaVuSans-53" x="249.21875"/>
      <use xlink:href="#DejaVuSans-61" x="312.695312"/>
      <use xlink:href="#DejaVuSans-79" x="373.974609"/>
      <use xlink:href="#DejaVuSans-6c" x="433.154297"/>
      <use xlink:href="#DejaVuSans-65" x="460.9375"/>
      <use xlink:href="#DejaVuSans-73" x="522.460938"/>
     </g>
    </g>
   </g>
   <g id="text_14">
    <g id="patch_15">
     <path d="M 381.45482 467.167441 
L 445.344977 467.167441 
L 445.344977 450.537129 
L 381.45482 450.537129 
z
" clip-path="url(#p46c5829bfc)" style="fill: #ffffff; opacity: 0.7; stroke: #000000; stroke-linejoin: miter"/>
    </g>
    <g clip-path="url(#p46c5829bfc)">
     <!-- Frank Coraci -->
     <g transform="translate(385.41482 461.335723)scale(0.09 -0.09)">
      <use xlink:href="#DejaVuSans-46"/>
      <use xlink:href="#DejaVuSans-72" x="50.269531"/>
      <use xlink:href="#DejaVuSans-61" x="91.382812"/>
      <use xlink:href="#DejaVuSans-6e" x="152.662109"/>
      <use xlink:href="#DejaVuSans-6b" x="216.041016"/>
      <use xlink:href="#DejaVuSans-20" x="273.951172"/>
      <use xlink:href="#DejaVuSans-43" x="305.738281"/>
      <use xlink:href="#DejaVuSans-6f" x="375.5625"/>
      <use xlink:href="#DejaVuSans-72" x="436.744141"/>
      <use xlink:href="#DejaVuSans-61" x="477.857422"/>
      <use xlink:href="#DejaVuSans-63" x="539.136719"/>
      <use xlink:href="#DejaVuSans-69" x="594.117188"/>
     </g>
    </g>
   </g>
   <g id="text_15">
    <g id="patch_16">
     <path d="M 425.623486 395.039741 
L 496.98083 395.039741 
L 496.98083 378.409428 
L 425.623486 378.409428 
z
" clip-path="url(#p46c5829bfc)" style="fill: #ffffff; opacity: 0.7; stroke: #000000; stroke-linejoin: miter"/>
    </g>
    <g clip-path="url(#p46c5829bfc)">
     <!-- Buster Keaton -->
     <g transform="translate(429.583486 389.208022)scale(0.09 -0.09)">
      <defs>
       <path id="DejaVuSans-4b" d="M 628 4666 
L 1259 4666 
L 1259 2694 
L 3353 4666 
L 4166 4666 
L 1850 2491 
L 4331 0 
L 3500 0 
L 1259 2247 
L 1259 0 
L 628 0 
L 628 4666 
z
" transform="scale(0.015625)"/>
      </defs>
      <use xlink:href="#DejaVuSans-42"/>
      <use xlink:href="#DejaVuSans-75" x="68.603516"/>
      <use xlink:href="#DejaVuSans-73" x="131.982422"/>
      <use xlink:href="#DejaVuSans-74" x="184.082031"/>
      <use xlink:href="#DejaVuSans-65" x="223.291016"/>
      <use xlink:href="#DejaVuSans-72" x="284.814453"/>
      <use xlink:href="#DejaVuSans-20" x="325.927734"/>
      <use xlink:href="#DejaVuSans-4b" x="357.714844"/>
      <use xlink:href="#DejaVuSans-65" x="418.291016"/>
      <use xlink:href="#DejaVuSans-61" x="479.814453"/>
      <use xlink:href="#DejaVuSans-74" x="541.09375"/>
      <use xlink:href="#DejaVuSans-6f" x="580.302734"/>
      <use xlink:href="#DejaVuSans-6e" x="641.484375"/>
     </g>
    </g>
   </g>
   <g id="text_16">
    <!-- Impactful directors for Documentary genre - Importance rank: 2 -->
    <g transform="translate(92.235 16.318125)scale(0.12 -0.12)">
     <defs>
      <path id="DejaVuSans-49" d="M 628 4666 
L 1259 4666 
L 1259 0 
L 628 0 
L 628 4666 
z
" transform="scale(0.015625)"/>
      <path id="DejaVuSans-44" d="M 1259 4147 
L 1259 519 
L 2022 519 
Q 2988 519 3436 956 
Q 3884 1394 3884 2338 
Q 3884 3275 3436 3711 
Q 2988 4147 2022 4147 
L 1259 4147 
z
M 628 4666 
L 1925 4666 
Q 3281 4666 3915 4102 
Q 4550 3538 4550 2338 
Q 4550 1131 3912 565 
Q 3275 0 1925 0 
L 628 0 
L 628 4666 
z
" transform="scale(0.015625)"/>
      <path id="DejaVuSans-2d" d="M 313 2009 
L 1997 2009 
L 1997 1497 
L 313 1497 
L 313 2009 
z
" transform="scale(0.015625)"/>
      <path id="DejaVuSans-3a" d="M 750 794 
L 1409 794 
L 1409 0 
L 750 0 
L 750 794 
z
M 750 3309 
L 1409 3309 
L 1409 2516 
L 750 2516 
L 750 3309 
z
" transform="scale(0.015625)"/>
      <path id="DejaVuSans-32" d="M 1228 531 
L 3431 531 
L 3431 0 
L 469 0 
L 469 531 
Q 828 903 1448 1529 
Q 2069 2156 2228 2338 
Q 2531 2678 2651 2914 
Q 2772 3150 2772 3378 
Q 2772 3750 2511 3984 
Q 2250 4219 1831 4219 
Q 1534 4219 1204 4116 
Q 875 4013 500 3803 
L 500 4441 
Q 881 4594 1212 4672 
Q 1544 4750 1819 4750 
Q 2544 4750 2975 4387 
Q 3406 4025 3406 3419 
Q 3406 3131 3298 2873 
Q 3191 2616 2906 2266 
Q 2828 2175 2409 1742 
Q 1991 1309 1228 531 
z
" transform="scale(0.015625)"/>
     </defs>
     <use xlink:href="#DejaVuSans-49"/>
     <use xlink:href="#DejaVuSans-6d" x="29.492188"/>
     <use xlink:href="#DejaVuSans-70" x="126.904297"/>
     <use xlink:href="#DejaVuSans-61" x="190.380859"/>
     <use xlink:href="#DejaVuSans-63" x="251.660156"/>
     <use xlink:href="#DejaVuSans-74" x="306.640625"/>
     <use xlink:href="#DejaVuSans-66" x="345.849609"/>
     <use xlink:href="#DejaVuSans-75" x="381.054688"/>
     <use xlink:href="#DejaVuSans-6c" x="444.433594"/>
     <use xlink:href="#DejaVuSans-20" x="472.216797"/>
     <use xlink:href="#DejaVuSans-64" x="504.003906"/>
     <use xlink:href="#DejaVuSans-69" x="567.480469"/>
     <use xlink:href="#DejaVuSans-72" x="595.263672"/>
     <use xlink:href="#DejaVuSans-65" x="634.126953"/>
     <use xlink:href="#DejaVuSans-63" x="695.650391"/>
     <use xlink:href="#DejaVuSans-74" x="750.630859"/>
     <use xlink:href="#DejaVuSans-6f" x="789.839844"/>
     <use xlink:href="#DejaVuSans-72" x="851.021484"/>
     <use xlink:href="#DejaVuSans-73" x="892.134766"/>
     <use xlink:href="#DejaVuSans-20" x="944.234375"/>
     <use xlink:href="#DejaVuSans-66" x="976.021484"/>
     <use xlink:href="#DejaVuSans-6f" x="1011.226562"/>
     <use xlink:href="#DejaVuSans-72" x="1072.408203"/>
     <use xlink:href="#DejaVuSans-20" x="1113.521484"/>
     <use xlink:href="#DejaVuSans-44" x="1145.308594"/>
     <use xlink:href="#DejaVuSans-6f" x="1222.310547"/>
     <use xlink:href="#DejaVuSans-63" x="1283.492188"/>
     <use xlink:href="#DejaVuSans-75" x="1338.472656"/>
     <use xlink:href="#DejaVuSans-6d" x="1401.851562"/>
     <use xlink:href="#DejaVuSans-65" x="1499.263672"/>
     <use xlink:href="#DejaVuSans-6e" x="1560.787109"/>
     <use xlink:href="#DejaVuSans-74" x="1624.166016"/>
     <use xlink:href="#DejaVuSans-61" x="1663.375"/>
     <use xlink:href="#DejaVuSans-72" x="1724.654297"/>
     <use xlink:href="#DejaVuSans-79" x="1765.767578"/>
     <use xlink:href="#DejaVuSans-20" x="1824.947266"/>
     <use xlink:href="#DejaVuSans-67" x="1856.734375"/>
     <use xlink:href="#DejaVuSans-65" x="1920.210938"/>
     <use xlink:href="#DejaVuSans-6e" x="1981.734375"/>
     <use xlink:href="#DejaVuSans-72" x="2045.113281"/>
     <use xlink:href="#DejaVuSans-65" x="2083.976562"/>
     <use xlink:href="#DejaVuSans-20" x="2145.5"/>
     <use xlink:href="#DejaVuSans-2d" x="2177.287109"/>
     <use xlink:href="#DejaVuSans-20" x="2213.371094"/>
     <use xlink:href="#DejaVuSans-49" x="2245.158203"/>
     <use xlink:href="#DejaVuSans-6d" x="2274.650391"/>
     <use xlink:href="#DejaVuSans-70" x="2372.0625"/>
     <use xlink:href="#DejaVuSans-6f" x="2435.539062"/>
     <use xlink:href="#DejaVuSans-72" x="2496.720703"/>
     <use xlink:href="#DejaVuSans-74" x="2537.833984"/>
     <use xlink:href="#DejaVuSans-61" x="2577.042969"/>
     <use xlink:href="#DejaVuSans-6e" x="2638.322266"/>
     <use xlink:href="#DejaVuSans-63" x="2701.701172"/>
     <use xlink:href="#DejaVuSans-65" x="2756.681641"/>
     <use xlink:href="#DejaVuSans-20" x="2818.205078"/>
     <use xlink:href="#DejaVuSans-72" x="2849.992188"/>
     <use xlink:href="#DejaVuSans-61" x="2891.105469"/>
     <use xlink:href="#DejaVuSans-6e" x="2952.384766"/>
     <use xlink:href="#DejaVuSans-6b" x="3015.763672"/>
     <use xlink:href="#DejaVuSans-3a" x="3073.673828"/>
     <use xlink:href="#DejaVuSans-20" x="3107.365234"/>
     <use xlink:href="#DejaVuSans-32" x="3139.152344"/>
    </g>
   </g>
  </g>
 </g>
 <defs>
  <clipPath id="p46c5829bfc">
   <rect x="7.2" y="22.318125" width="554.4" height="554.4"/>
  </clipPath>
 </defs>
</svg>
