<?xml version="1.0" encoding="utf-8" standalone="no"?>
<!DOCTYPE svg PUBLIC "-//W3C//DTD SVG 1.1//EN"
  "http://www.w3.org/Graphics/SVG/1.1/DTD/svg11.dtd">
<svg xmlns:xlink="http://www.w3.org/1999/xlink" width="576pt" height="576pt" viewBox="0 0 576 576" xmlns="http://www.w3.org/2000/svg" version="1.1">
 <metadata>
  <rdf:RDF xmlns:dc="http://purl.org/dc/elements/1.1/" xmlns:cc="http://creativecommons.org/ns#" xmlns:rdf="http://www.w3.org/1999/02/22-rdf-syntax-ns#">
   <cc:Work>
    <dc:type rdf:resource="http://purl.org/dc/dcmitype/StillImage"/>
    <dc:date>2022-12-22T16:12:11.523910</dc:date>
    <dc:format>image/svg+xml</dc:format>
    <dc:creator>
     <cc:Agent>
      <dc:title>Matplotlib v3.5.2, https://matplotlib.org/</dc:title>
     </cc:Agent>
    </dc:creator>
   </cc:Work>
  </rdf:RDF>
 </metadata>
 <defs>
  <style type="text/css">*{stroke-linejoin: round; stroke-linecap: butt}</style>
 </defs>
 <g id="figure_1">
  <g id="patch_1">
   <path d="M 0 576 
L 576 576 
L 576 0 
L 0 0 
z
" style="fill: #ffffff"/>
  </g>
  <g id="axes_1">
   <g id="LineCollection_1">
    <path d="M 111.231477 161.975729 
L 111.23149 414.024284 
" clip-path="url(#p13fa4d8c23)" style="fill: none; stroke: #000000; stroke-opacity: 0.3; stroke-width: 5"/>
   </g>
   <g id="PathCollection_1">
    <path d="M 501.230769 315.386128 
C 508.493655 315.386128 515.46005 312.500553 520.595686 307.364917 
C 525.731322 302.229281 528.616897 295.262886 528.616897 288 
C 528.616897 280.737114 525.731322 273.770719 520.595686 268.635083 
C 515.46005 263.499447 508.493655 260.613872 501.230769 260.613872 
C 493.967883 260.613872 487.001488 263.499447 481.865852 268.635083 
C 476.730217 273.770719 473.844641 280.737114 473.844641 288 
C 473.844641 295.262886 476.730217 302.229281 481.865852 307.364917 
C 487.001488 312.500553 493.967883 315.386128 501.230769 315.386128 
z
" clip-path="url(#p13fa4d8c23)" style="fill: #d62728; fill-opacity: 0.99; stroke: #d62728; stroke-opacity: 0.99"/>
    <path d="M 482.592348 227.593247 
C 489.699722 227.593247 496.516953 224.769458 501.542625 219.743786 
C 506.568297 214.718113 509.392087 207.900882 509.392087 200.793508 
C 509.392087 193.686135 506.568297 186.868903 501.542625 181.843231 
C 496.516953 176.817559 489.699722 173.993769 482.592348 173.993769 
C 475.484974 173.993769 468.667743 176.817559 463.642071 181.843231 
C 458.616398 186.868903 455.792609 193.686135 455.792609 200.793508 
C 455.792609 207.900882 458.616398 214.718113 463.642071 219.743786 
C 468.667743 224.769458 475.484974 227.593247 482.592348 227.593247 
z
" clip-path="url(#p13fa4d8c23)" style="fill: #d62728; fill-opacity: 0.99; stroke: #d62728; stroke-opacity: 0.99"/>
    <path d="M 429.89985 154.504883 
C 436.752454 154.504883 443.325316 151.782314 448.170839 146.936791 
C 453.016362 142.091268 455.738931 135.518406 455.738931 128.665802 
C 455.738931 121.813197 453.016362 115.240335 448.170839 110.394812 
C 443.325316 105.549289 436.752454 102.826721 429.89985 102.826721 
C 423.047245 102.826721 416.474383 105.549289 411.62886 110.394812 
C 406.783337 115.240335 404.060769 121.813197 404.060769 128.665802 
C 404.060769 135.518406 406.783337 142.091268 411.62886 146.936791 
C 416.474383 151.782314 423.047245 154.504883 429.89985 154.504883 
z
" clip-path="url(#p13fa4d8c23)" style="fill: #d62728; fill-opacity: 0.99; stroke: #d62728; stroke-opacity: 0.99"/>
    <path d="M 352.264291 107.400527 
C 358.44673 107.400527 364.376784 104.944218 368.748428 100.572574 
C 373.120072 96.20093 375.576381 90.270876 375.576381 84.088438 
C 375.576381 77.905999 373.120072 71.975945 368.748428 67.604301 
C 364.376784 63.232657 358.44673 60.776348 352.264291 60.776348 
C 346.081853 60.776348 340.151799 63.232657 335.780155 67.604301 
C 331.40851 71.975945 328.952202 77.905999 328.952202 84.088438 
C 328.952202 90.270876 331.40851 96.20093 335.780155 100.572574 
C 340.151799 104.944218 346.081853 107.400527 352.264291 107.400527 
z
" clip-path="url(#p13fa4d8c23)" style="fill: #d62728; fill-opacity: 0.99; stroke: #d62728; stroke-opacity: 0.99"/>
    <path d="M 263.109549 96.949584 
C 268.991847 96.949584 274.634014 94.612522 278.793427 90.453109 
C 282.95284 86.293696 285.289902 80.651529 285.289902 74.769231 
C 285.289902 68.886932 282.95284 63.244766 278.793427 59.085352 
C 274.634014 54.925939 268.991847 52.588877 263.109549 52.588877 
C 257.22725 52.588877 251.585083 54.925939 247.42567 59.085352 
C 243.266257 63.244766 240.929195 68.886932 240.929195 74.769231 
C 240.929195 80.651529 243.266257 86.293696 247.42567 90.453109 
C 251.585083 94.612522 257.22725 96.949584 263.109549 96.949584 
z
" clip-path="url(#p13fa4d8c23)" style="fill: #d62728; fill-opacity: 0.99; stroke: #d62728; stroke-opacity: 0.99"/>
    <path d="M 177.851298 124.365555 
C 183.697962 124.365555 189.305949 122.04265 193.440165 117.908434 
C 197.574381 113.774218 199.897285 108.166231 199.897285 102.319567 
C 199.897285 96.472903 197.574381 90.864916 193.440165 86.7307 
C 189.305949 82.596484 183.697962 80.27358 177.851298 80.27358 
C 172.004634 80.27358 166.396647 82.596484 162.262431 86.7307 
C 158.128215 90.864916 155.805311 96.472903 155.805311 102.319567 
C 155.805311 108.166231 158.128215 113.774218 162.262431 117.908434 
C 166.396647 122.04265 172.004634 124.365555 177.851298 124.365555 
z
" clip-path="url(#p13fa4d8c23)" style="fill: #d62728; fill-opacity: 0.99; stroke: #d62728; stroke-opacity: 0.99"/>
    <path d="M 111.231477 183.983211 
C 117.06793 183.983211 122.666122 181.664364 126.793117 177.537369 
C 130.920112 173.410373 133.238959 167.812181 133.238959 161.975729 
C 133.238959 156.139276 130.920112 150.541084 126.793117 146.414089 
C 122.666122 142.287094 117.06793 139.968247 111.231477 139.968247 
C 105.395025 139.968247 99.796832 142.287094 95.669837 146.414089 
C 91.542842 150.541084 89.223995 156.139276 89.223995 161.975729 
C 89.223995 167.812181 91.542842 173.410373 95.669837 177.537369 
C 99.796832 181.664364 105.395025 183.983211 111.231477 183.983211 
z
" clip-path="url(#p13fa4d8c23)" style="fill: #d62728; fill-opacity: 0.99; stroke: #d62728; stroke-opacity: 0.99"/>
    <path d="M 74.769231 265.284992 
C 80.567192 265.284992 86.128464 262.981437 90.228242 258.88166 
C 94.328019 254.781882 96.631574 249.22061 96.631574 243.422649 
C 96.631574 237.624688 94.328019 232.063416 90.228242 227.963638 
C 86.128464 223.86386 80.567192 221.560306 74.769231 221.560306 
C 68.97127 221.560306 63.409997 223.86386 59.31022 227.963638 
C 55.210442 232.063416 52.906888 237.624688 52.906888 243.422649 
C 52.906888 249.22061 55.210442 254.781882 59.31022 258.88166 
C 63.409997 262.981437 68.97127 265.284992 74.769231 265.284992 
z
" clip-path="url(#p13fa4d8c23)" style="fill: #d62728; fill-opacity: 0.99; stroke: #d62728; stroke-opacity: 0.99"/>
    <path d="M 74.769244 354.252392 
C 80.517522 354.252392 86.031139 351.968577 90.095785 347.903931 
C 94.160431 343.839285 96.444246 338.325667 96.444246 332.577389 
C 96.444246 326.829112 94.160431 321.315494 90.095785 317.250848 
C 86.031139 313.186202 80.517522 310.902387 74.769244 310.902387 
C 69.020966 310.902387 63.507348 313.186202 59.442702 317.250848 
C 55.378056 321.315494 53.094241 326.829112 53.094241 332.577389 
C 53.094241 338.325667 55.378056 343.839285 59.442702 347.903931 
C 63.507348 351.968577 69.020966 354.252392 74.769244 354.252392 
z
" clip-path="url(#p13fa4d8c23)" style="fill: #d62728; fill-opacity: 0.99; stroke: #d62728; stroke-opacity: 0.99"/>
    <path d="M 111.23149 435.65077 
C 116.966901 435.65077 122.468177 433.372067 126.523725 429.316519 
C 130.579273 425.260971 132.857976 419.759695 132.857976 414.024284 
C 132.857976 408.288873 130.579273 402.787597 126.523725 398.732049 
C 122.468177 394.676501 116.966901 392.397798 111.23149 392.397798 
C 105.496079 392.397798 99.994803 394.676501 95.939255 398.732049 
C 91.883707 402.787597 89.605004 408.288873 89.605004 414.024284 
C 89.605004 419.759695 91.883707 425.260971 95.939255 429.316519 
C 99.994803 433.372067 105.496079 435.65077 111.23149 435.65077 
z
" clip-path="url(#p13fa4d8c23)" style="fill: #d62728; fill-opacity: 0.99; stroke: #d62728; stroke-opacity: 0.99"/>
    <path d="M 177.85133 494.57304 
C 183.392111 494.57304 188.706702 492.371664 192.624625 488.453741 
C 196.542549 484.535817 198.743925 479.221226 198.743925 473.680446 
C 198.743925 468.139665 196.542549 462.825074 192.624625 458.90715 
C 188.706702 454.989227 183.392111 452.787851 177.85133 452.787851 
C 172.310549 452.787851 166.995959 454.989227 163.078035 458.90715 
C 159.160111 462.825074 156.958736 468.139665 156.958736 473.680446 
C 156.958736 479.221226 159.160111 484.535817 163.078035 488.453741 
C 166.995959 492.371664 172.310549 494.57304 177.85133 494.57304 
z
" clip-path="url(#p13fa4d8c23)" style="fill: #d62728; fill-opacity: 0.99; stroke: #d62728; stroke-opacity: 0.99"/>
    <path d="M 263.109587 521.704399 
C 268.539257 521.704399 273.747273 519.547168 277.58663 515.707812 
C 281.425986 511.868455 283.583217 506.660439 283.583217 501.230769 
C 283.583217 495.801099 281.425986 490.593083 277.58663 486.753727 
C 273.747273 482.91437 268.539257 480.757139 263.109587 480.757139 
C 257.679917 480.757139 252.471901 482.91437 248.632545 486.753727 
C 244.793188 490.593083 242.635957 495.801099 242.635957 501.230769 
C 242.635957 506.660439 244.793188 511.868455 248.632545 515.707812 
C 252.471901 519.547168 257.679917 521.704399 263.109587 521.704399 
z
" clip-path="url(#p13fa4d8c23)" style="fill: #d62728; fill-opacity: 0.99; stroke: #d62728; stroke-opacity: 0.99"/>
    <path d="M 352.264323 511.792611 
C 357.536843 511.792611 362.594123 509.697817 366.322357 505.969583 
C 370.050591 502.241349 372.145385 497.184069 372.145385 491.91155 
C 372.145385 486.63903 370.050591 481.58175 366.322357 477.853516 
C 362.594123 474.125282 357.536843 472.030488 352.264323 472.030488 
C 346.991804 472.030488 341.934524 474.125282 338.20629 477.853516 
C 334.478056 481.58175 332.383262 486.63903 332.383262 491.91155 
C 332.383262 497.184069 334.478056 502.241349 338.20629 505.969583 
C 341.934524 509.697817 346.991804 511.792611 352.264323 511.792611 
z
" clip-path="url(#p13fa4d8c23)" style="fill: #d62728; fill-opacity: 0.99; stroke: #d62728; stroke-opacity: 0.99"/>
    <path d="M 429.899888 467.209484 
C 435.170886 467.209484 440.226707 465.115294 443.953865 461.388136 
C 447.681023 457.660978 449.775212 452.605158 449.775212 447.33416 
C 449.775212 442.063163 447.681023 437.007342 443.953865 433.280184 
C 440.226707 429.553026 435.170886 427.458836 429.899888 427.458836 
C 424.628891 427.458836 419.57307 429.553026 415.845912 433.280184 
C 412.118754 437.007342 410.024564 442.063163 410.024564 447.33416 
C 410.024564 452.605158 412.118754 457.660978 415.845912 461.388136 
C 419.57307 465.115294 424.628891 467.209484 429.899888 467.209484 
z
" clip-path="url(#p13fa4d8c23)" style="fill: #d62728; fill-opacity: 0.99; stroke: #d62728; stroke-opacity: 0.99"/>
    <path d="M 482.592374 394.571376 
C 487.728009 394.571376 492.653994 392.530967 496.285437 388.899524 
C 499.91688 385.268081 501.95729 380.342096 501.95729 375.20646 
C 501.95729 370.070824 499.91688 365.144839 496.285437 361.513396 
C 492.653994 357.881953 487.728009 355.841543 482.592374 355.841543 
C 477.456738 355.841543 472.530753 357.881953 468.89931 361.513396 
C 465.267867 365.144839 463.227457 370.070824 463.227457 375.20646 
C 463.227457 380.342096 465.267867 385.268081 468.89931 388.899524 
C 472.530753 392.530967 477.456738 394.571376 482.592374 394.571376 
z
" clip-path="url(#p13fa4d8c23)" style="fill: #d62728; fill-opacity: 0.99; stroke: #d62728; stroke-opacity: 0.99"/>
   </g>
   <g id="text_1">
    <g id="patch_2">
     <path d="M 461.323504 296.315156 
L 541.138035 296.315156 
L 541.138035 279.684844 
L 461.323504 279.684844 
z
" clip-path="url(#p13fa4d8c23)" style="fill: #ffffff; opacity: 0.7; stroke: #000000; stroke-linejoin: miter"/>
    </g>
    <g clip-path="url(#p13fa4d8c23)">
     <!-- Martin Scorsese -->
     <g transform="translate(465.283504 290.483437)scale(0.09 -0.09)">
      <defs>
       <path id="DejaVuSans-4d" d="M 628 4666 
L 1569 4666 
L 2759 1491 
L 3956 4666 
L 4897 4666 
L 4897 0 
L 4281 0 
L 4281 4097 
L 3078 897 
L 2444 897 
L 1241 4097 
L 1241 0 
L 628 0 
L 628 4666 
z
" transform="scale(0.015625)"/>
       <path id="DejaVuSans-61" d="M 2194 1759 
Q 1497 1759 1228 1600 
Q 959 1441 959 1056 
Q 959 750 1161 570 
Q 1363 391 1709 391 
Q 2188 391 2477 730 
Q 2766 1069 2766 1631 
L 2766 1759 
L 2194 1759 
z
M 3341 1997 
L 3341 0 
L 2766 0 
L 2766 531 
Q 2569 213 2275 61 
Q 1981 -91 1556 -91 
Q 1019 -91 701 211 
Q 384 513 384 1019 
Q 384 1609 779 1909 
Q 1175 2209 1959 2209 
L 2766 2209 
L 2766 2266 
Q 2766 2663 2505 2880 
Q 2244 3097 1772 3097 
Q 1472 3097 1187 3025 
Q 903 2953 641 2809 
L 641 3341 
Q 956 3463 1253 3523 
Q 1550 3584 1831 3584 
Q 2591 3584 2966 3190 
Q 3341 2797 3341 1997 
z
" transform="scale(0.015625)"/>
       <path id="DejaVuSans-72" d="M 2631 2963 
Q 2534 3019 2420 3045 
Q 2306 3072 2169 3072 
Q 1681 3072 1420 2755 
Q 1159 2438 1159 1844 
L 1159 0 
L 581 0 
L 581 3500 
L 1159 3500 
L 1159 2956 
Q 1341 3275 1631 3429 
Q 1922 3584 2338 3584 
Q 2397 3584 2469 3576 
Q 2541 3569 2628 3553 
L 2631 2963 
z
" transform="scale(0.015625)"/>
       <path id="DejaVuSans-74" d="M 1172 4494 
L 1172 3500 
L 2356 3500 
L 2356 3053 
L 1172 3053 
L 1172 1153 
Q 1172 725 1289 603 
Q 1406 481 1766 481 
L 2356 481 
L 2356 0 
L 1766 0 
Q 1100 0 847 248 
Q 594 497 594 1153 
L 594 3053 
L 172 3053 
L 172 3500 
L 594 3500 
L 594 4494 
L 1172 4494 
z
" transform="scale(0.015625)"/>
       <path id="DejaVuSans-69" d="M 603 3500 
L 1178 3500 
L 1178 0 
L 603 0 
L 603 3500 
z
M 603 4863 
L 1178 4863 
L 1178 4134 
L 603 4134 
L 603 4863 
z
" transform="scale(0.015625)"/>
       <path id="DejaVuSans-6e" d="M 3513 2113 
L 3513 0 
L 2938 0 
L 2938 2094 
Q 2938 2591 2744 2837 
Q 2550 3084 2163 3084 
Q 1697 3084 1428 2787 
Q 1159 2491 1159 1978 
L 1159 0 
L 581 0 
L 581 3500 
L 1159 3500 
L 1159 2956 
Q 1366 3272 1645 3428 
Q 1925 3584 2291 3584 
Q 2894 3584 3203 3211 
Q 3513 2838 3513 2113 
z
" transform="scale(0.015625)"/>
       <path id="DejaVuSans-20" transform="scale(0.015625)"/>
       <path id="DejaVuSans-53" d="M 3425 4513 
L 3425 3897 
Q 3066 4069 2747 4153 
Q 2428 4238 2131 4238 
Q 1616 4238 1336 4038 
Q 1056 3838 1056 3469 
Q 1056 3159 1242 3001 
Q 1428 2844 1947 2747 
L 2328 2669 
Q 3034 2534 3370 2195 
Q 3706 1856 3706 1288 
Q 3706 609 3251 259 
Q 2797 -91 1919 -91 
Q 1588 -91 1214 -16 
Q 841 59 441 206 
L 441 856 
Q 825 641 1194 531 
Q 1563 422 1919 422 
Q 2459 422 2753 634 
Q 3047 847 3047 1241 
Q 3047 1584 2836 1778 
Q 2625 1972 2144 2069 
L 1759 2144 
Q 1053 2284 737 2584 
Q 422 2884 422 3419 
Q 422 4038 858 4394 
Q 1294 4750 2059 4750 
Q 2388 4750 2728 4690 
Q 3069 4631 3425 4513 
z
" transform="scale(0.015625)"/>
       <path id="DejaVuSans-63" d="M 3122 3366 
L 3122 2828 
Q 2878 2963 2633 3030 
Q 2388 3097 2138 3097 
Q 1578 3097 1268 2742 
Q 959 2388 959 1747 
Q 959 1106 1268 751 
Q 1578 397 2138 397 
Q 2388 397 2633 464 
Q 2878 531 3122 666 
L 3122 134 
Q 2881 22 2623 -34 
Q 2366 -91 2075 -91 
Q 1284 -91 818 406 
Q 353 903 353 1747 
Q 353 2603 823 3093 
Q 1294 3584 2113 3584 
Q 2378 3584 2631 3529 
Q 2884 3475 3122 3366 
z
" transform="scale(0.015625)"/>
       <path id="DejaVuSans-6f" d="M 1959 3097 
Q 1497 3097 1228 2736 
Q 959 2375 959 1747 
Q 959 1119 1226 758 
Q 1494 397 1959 397 
Q 2419 397 2687 759 
Q 2956 1122 2956 1747 
Q 2956 2369 2687 2733 
Q 2419 3097 1959 3097 
z
M 1959 3584 
Q 2709 3584 3137 3096 
Q 3566 2609 3566 1747 
Q 3566 888 3137 398 
Q 2709 -91 1959 -91 
Q 1206 -91 779 398 
Q 353 888 353 1747 
Q 353 2609 779 3096 
Q 1206 3584 1959 3584 
z
" transform="scale(0.015625)"/>
       <path id="DejaVuSans-73" d="M 2834 3397 
L 2834 2853 
Q 2591 2978 2328 3040 
Q 2066 3103 1784 3103 
Q 1356 3103 1142 2972 
Q 928 2841 928 2578 
Q 928 2378 1081 2264 
Q 1234 2150 1697 2047 
L 1894 2003 
Q 2506 1872 2764 1633 
Q 3022 1394 3022 966 
Q 3022 478 2636 193 
Q 2250 -91 1575 -91 
Q 1294 -91 989 -36 
Q 684 19 347 128 
L 347 722 
Q 666 556 975 473 
Q 1284 391 1588 391 
Q 1994 391 2212 530 
Q 2431 669 2431 922 
Q 2431 1156 2273 1281 
Q 2116 1406 1581 1522 
L 1381 1569 
Q 847 1681 609 1914 
Q 372 2147 372 2553 
Q 372 3047 722 3315 
Q 1072 3584 1716 3584 
Q 2034 3584 2315 3537 
Q 2597 3491 2834 3397 
z
" transform="scale(0.015625)"/>
       <path id="DejaVuSans-65" d="M 3597 1894 
L 3597 1613 
L 953 1613 
Q 991 1019 1311 708 
Q 1631 397 2203 397 
Q 2534 397 2845 478 
Q 3156 559 3463 722 
L 3463 178 
Q 3153 47 2828 -22 
Q 2503 -91 2169 -91 
Q 1331 -91 842 396 
Q 353 884 353 1716 
Q 353 2575 817 3079 
Q 1281 3584 2069 3584 
Q 2775 3584 3186 3129 
Q 3597 2675 3597 1894 
z
M 3022 2063 
Q 3016 2534 2758 2815 
Q 2500 3097 2075 3097 
Q 1594 3097 1305 2825 
Q 1016 2553 972 2059 
L 3022 2063 
z
" transform="scale(0.015625)"/>
      </defs>
      <use xlink:href="#DejaVuSans-4d"/>
      <use xlink:href="#DejaVuSans-61" x="86.279297"/>
      <use xlink:href="#DejaVuSans-72" x="147.558594"/>
      <use xlink:href="#DejaVuSans-74" x="188.671875"/>
      <use xlink:href="#DejaVuSans-69" x="227.880859"/>
      <use xlink:href="#DejaVuSans-6e" x="255.664062"/>
      <use xlink:href="#DejaVuSans-20" x="319.042969"/>
      <use xlink:href="#DejaVuSans-53" x="350.830078"/>
      <use xlink:href="#DejaVuSans-63" x="414.306641"/>
      <use xlink:href="#DejaVuSans-6f" x="469.287109"/>
      <use xlink:href="#DejaVuSans-72" x="530.46875"/>
      <use xlink:href="#DejaVuSans-73" x="571.582031"/>
      <use xlink:href="#DejaVuSans-65" x="623.681641"/>
      <use xlink:href="#DejaVuSans-73" x="685.205078"/>
      <use xlink:href="#DejaVuSans-65" x="737.304688"/>
     </g>
    </g>
   </g>
   <g id="text_2">
    <g id="patch_3">
     <path d="M 440.291645 209.108665 
L 524.893051 209.108665 
L 524.893051 192.478352 
L 440.291645 192.478352 
z
" clip-path="url(#p13fa4d8c23)" style="fill: #ffffff; opacity: 0.7; stroke: #000000; stroke-linejoin: miter"/>
    </g>
    <g clip-path="url(#p13fa4d8c23)">
     <!-- Steven Spielberg -->
     <g transform="translate(444.251645 203.276946)scale(0.09 -0.09)">
      <defs>
       <path id="DejaVuSans-76" d="M 191 3500 
L 800 3500 
L 1894 563 
L 2988 3500 
L 3597 3500 
L 2284 0 
L 1503 0 
L 191 3500 
z
" transform="scale(0.015625)"/>
       <path id="DejaVuSans-70" d="M 1159 525 
L 1159 -1331 
L 581 -1331 
L 581 3500 
L 1159 3500 
L 1159 2969 
Q 1341 3281 1617 3432 
Q 1894 3584 2278 3584 
Q 2916 3584 3314 3078 
Q 3713 2572 3713 1747 
Q 3713 922 3314 415 
Q 2916 -91 2278 -91 
Q 1894 -91 1617 61 
Q 1341 213 1159 525 
z
M 3116 1747 
Q 3116 2381 2855 2742 
Q 2594 3103 2138 3103 
Q 1681 3103 1420 2742 
Q 1159 2381 1159 1747 
Q 1159 1113 1420 752 
Q 1681 391 2138 391 
Q 2594 391 2855 752 
Q 3116 1113 3116 1747 
z
" transform="scale(0.015625)"/>
       <path id="DejaVuSans-6c" d="M 603 4863 
L 1178 4863 
L 1178 0 
L 603 0 
L 603 4863 
z
" transform="scale(0.015625)"/>
       <path id="DejaVuSans-62" d="M 3116 1747 
Q 3116 2381 2855 2742 
Q 2594 3103 2138 3103 
Q 1681 3103 1420 2742 
Q 1159 2381 1159 1747 
Q 1159 1113 1420 752 
Q 1681 391 2138 391 
Q 2594 391 2855 752 
Q 3116 1113 3116 1747 
z
M 1159 2969 
Q 1341 3281 1617 3432 
Q 1894 3584 2278 3584 
Q 2916 3584 3314 3078 
Q 3713 2572 3713 1747 
Q 3713 922 3314 415 
Q 2916 -91 2278 -91 
Q 1894 -91 1617 61 
Q 1341 213 1159 525 
L 1159 0 
L 581 0 
L 581 4863 
L 1159 4863 
L 1159 2969 
z
" transform="scale(0.015625)"/>
       <path id="DejaVuSans-67" d="M 2906 1791 
Q 2906 2416 2648 2759 
Q 2391 3103 1925 3103 
Q 1463 3103 1205 2759 
Q 947 2416 947 1791 
Q 947 1169 1205 825 
Q 1463 481 1925 481 
Q 2391 481 2648 825 
Q 2906 1169 2906 1791 
z
M 3481 434 
Q 3481 -459 3084 -895 
Q 2688 -1331 1869 -1331 
Q 1566 -1331 1297 -1286 
Q 1028 -1241 775 -1147 
L 775 -588 
Q 1028 -725 1275 -790 
Q 1522 -856 1778 -856 
Q 2344 -856 2625 -561 
Q 2906 -266 2906 331 
L 2906 616 
Q 2728 306 2450 153 
Q 2172 0 1784 0 
Q 1141 0 747 490 
Q 353 981 353 1791 
Q 353 2603 747 3093 
Q 1141 3584 1784 3584 
Q 2172 3584 2450 3431 
Q 2728 3278 2906 2969 
L 2906 3500 
L 3481 3500 
L 3481 434 
z
" transform="scale(0.015625)"/>
      </defs>
      <use xlink:href="#DejaVuSans-53"/>
      <use xlink:href="#DejaVuSans-74" x="63.476562"/>
      <use xlink:href="#DejaVuSans-65" x="102.685547"/>
      <use xlink:href="#DejaVuSans-76" x="164.208984"/>
      <use xlink:href="#DejaVuSans-65" x="223.388672"/>
      <use xlink:href="#DejaVuSans-6e" x="284.912109"/>
      <use xlink:href="#DejaVuSans-20" x="348.291016"/>
      <use xlink:href="#DejaVuSans-53" x="380.078125"/>
      <use xlink:href="#DejaVuSans-70" x="443.554688"/>
      <use xlink:href="#DejaVuSans-69" x="507.03125"/>
      <use xlink:href="#DejaVuSans-65" x="534.814453"/>
      <use xlink:href="#DejaVuSans-6c" x="596.337891"/>
      <use xlink:href="#DejaVuSans-62" x="624.121094"/>
      <use xlink:href="#DejaVuSans-65" x="687.597656"/>
      <use xlink:href="#DejaVuSans-72" x="749.121094"/>
      <use xlink:href="#DejaVuSans-67" x="788.484375"/>
     </g>
    </g>
   </g>
   <g id="text_3">
    <g id="patch_4">
     <path d="M 398.980631 136.980958 
L 460.819069 136.980958 
L 460.819069 120.350645 
L 398.980631 120.350645 
z
" clip-path="url(#p13fa4d8c23)" style="fill: #ffffff; opacity: 0.7; stroke: #000000; stroke-linejoin: miter"/>
    </g>
    <g clip-path="url(#p13fa4d8c23)">
     <!-- Ridley Scott -->
     <g transform="translate(402.940631 131.149239)scale(0.09 -0.09)">
      <defs>
       <path id="DejaVuSans-52" d="M 2841 2188 
Q 3044 2119 3236 1894 
Q 3428 1669 3622 1275 
L 4263 0 
L 3584 0 
L 2988 1197 
Q 2756 1666 2539 1819 
Q 2322 1972 1947 1972 
L 1259 1972 
L 1259 0 
L 628 0 
L 628 4666 
L 2053 4666 
Q 2853 4666 3247 4331 
Q 3641 3997 3641 3322 
Q 3641 2881 3436 2590 
Q 3231 2300 2841 2188 
z
M 1259 4147 
L 1259 2491 
L 2053 2491 
Q 2509 2491 2742 2702 
Q 2975 2913 2975 3322 
Q 2975 3731 2742 3939 
Q 2509 4147 2053 4147 
L 1259 4147 
z
" transform="scale(0.015625)"/>
       <path id="DejaVuSans-64" d="M 2906 2969 
L 2906 4863 
L 3481 4863 
L 3481 0 
L 2906 0 
L 2906 525 
Q 2725 213 2448 61 
Q 2172 -91 1784 -91 
Q 1150 -91 751 415 
Q 353 922 353 1747 
Q 353 2572 751 3078 
Q 1150 3584 1784 3584 
Q 2172 3584 2448 3432 
Q 2725 3281 2906 2969 
z
M 947 1747 
Q 947 1113 1208 752 
Q 1469 391 1925 391 
Q 2381 391 2643 752 
Q 2906 1113 2906 1747 
Q 2906 2381 2643 2742 
Q 2381 3103 1925 3103 
Q 1469 3103 1208 2742 
Q 947 2381 947 1747 
z
" transform="scale(0.015625)"/>
       <path id="DejaVuSans-79" d="M 2059 -325 
Q 1816 -950 1584 -1140 
Q 1353 -1331 966 -1331 
L 506 -1331 
L 506 -850 
L 844 -850 
Q 1081 -850 1212 -737 
Q 1344 -625 1503 -206 
L 1606 56 
L 191 3500 
L 800 3500 
L 1894 763 
L 2988 3500 
L 3597 3500 
L 2059 -325 
z
" transform="scale(0.015625)"/>
      </defs>
      <use xlink:href="#DejaVuSans-52"/>
      <use xlink:href="#DejaVuSans-69" x="69.482422"/>
      <use xlink:href="#DejaVuSans-64" x="97.265625"/>
      <use xlink:href="#DejaVuSans-6c" x="160.742188"/>
      <use xlink:href="#DejaVuSans-65" x="188.525391"/>
      <use xlink:href="#DejaVuSans-79" x="250.048828"/>
      <use xlink:href="#DejaVuSans-20" x="309.228516"/>
      <use xlink:href="#DejaVuSans-53" x="341.015625"/>
      <use xlink:href="#DejaVuSans-63" x="404.492188"/>
      <use xlink:href="#DejaVuSans-6f" x="459.472656"/>
      <use xlink:href="#DejaVuSans-74" x="520.654297"/>
      <use xlink:href="#DejaVuSans-74" x="559.863281"/>
     </g>
    </g>
   </g>
   <g id="text_4">
    <g id="patch_5">
     <path d="M 314.86226 92.403594 
L 389.666322 92.403594 
L 389.666322 75.773281 
L 314.86226 75.773281 
z
" clip-path="url(#p13fa4d8c23)" style="fill: #ffffff; opacity: 0.7; stroke: #000000; stroke-linejoin: miter"/>
    </g>
    <g clip-path="url(#p13fa4d8c23)">
     <!-- Clint Eastwood -->
     <g transform="translate(318.82226 86.571875)scale(0.09 -0.09)">
      <defs>
       <path id="DejaVuSans-43" d="M 4122 4306 
L 4122 3641 
Q 3803 3938 3442 4084 
Q 3081 4231 2675 4231 
Q 1875 4231 1450 3742 
Q 1025 3253 1025 2328 
Q 1025 1406 1450 917 
Q 1875 428 2675 428 
Q 3081 428 3442 575 
Q 3803 722 4122 1019 
L 4122 359 
Q 3791 134 3420 21 
Q 3050 -91 2638 -91 
Q 1578 -91 968 557 
Q 359 1206 359 2328 
Q 359 3453 968 4101 
Q 1578 4750 2638 4750 
Q 3056 4750 3426 4639 
Q 3797 4528 4122 4306 
z
" transform="scale(0.015625)"/>
       <path id="DejaVuSans-45" d="M 628 4666 
L 3578 4666 
L 3578 4134 
L 1259 4134 
L 1259 2753 
L 3481 2753 
L 3481 2222 
L 1259 2222 
L 1259 531 
L 3634 531 
L 3634 0 
L 628 0 
L 628 4666 
z
" transform="scale(0.015625)"/>
       <path id="DejaVuSans-77" d="M 269 3500 
L 844 3500 
L 1563 769 
L 2278 3500 
L 2956 3500 
L 3675 769 
L 4391 3500 
L 4966 3500 
L 4050 0 
L 3372 0 
L 2619 2869 
L 1863 0 
L 1184 0 
L 269 3500 
z
" transform="scale(0.015625)"/>
      </defs>
      <use xlink:href="#DejaVuSans-43"/>
      <use xlink:href="#DejaVuSans-6c" x="69.824219"/>
      <use xlink:href="#DejaVuSans-69" x="97.607422"/>
      <use xlink:href="#DejaVuSans-6e" x="125.390625"/>
      <use xlink:href="#DejaVuSans-74" x="188.769531"/>
      <use xlink:href="#DejaVuSans-20" x="227.978516"/>
      <use xlink:href="#DejaVuSans-45" x="259.765625"/>
      <use xlink:href="#DejaVuSans-61" x="322.949219"/>
      <use xlink:href="#DejaVuSans-73" x="384.228516"/>
      <use xlink:href="#DejaVuSans-74" x="436.328125"/>
      <use xlink:href="#DejaVuSans-77" x="475.537109"/>
      <use xlink:href="#DejaVuSans-6f" x="557.324219"/>
      <use xlink:href="#DejaVuSans-6f" x="618.505859"/>
      <use xlink:href="#DejaVuSans-64" x="679.6875"/>
     </g>
    </g>
   </g>
   <g id="text_5">
    <g id="patch_6">
     <path d="M 212.322127 83.084387 
L 313.89697 83.084387 
L 313.89697 66.454075 
L 212.322127 66.454075 
z
" clip-path="url(#p13fa4d8c23)" style="fill: #ffffff; opacity: 0.7; stroke: #000000; stroke-linejoin: miter"/>
    </g>
    <g clip-path="url(#p13fa4d8c23)">
     <!-- Francis Ford Coppola -->
     <g transform="translate(216.282127 77.252668)scale(0.09 -0.09)">
      <defs>
       <path id="DejaVuSans-46" d="M 628 4666 
L 3309 4666 
L 3309 4134 
L 1259 4134 
L 1259 2759 
L 3109 2759 
L 3109 2228 
L 1259 2228 
L 1259 0 
L 628 0 
L 628 4666 
z
" transform="scale(0.015625)"/>
      </defs>
      <use xlink:href="#DejaVuSans-46"/>
      <use xlink:href="#DejaVuSans-72" x="50.269531"/>
      <use xlink:href="#DejaVuSans-61" x="91.382812"/>
      <use xlink:href="#DejaVuSans-6e" x="152.662109"/>
      <use xlink:href="#DejaVuSans-63" x="216.041016"/>
      <use xlink:href="#DejaVuSans-69" x="271.021484"/>
      <use xlink:href="#DejaVuSans-73" x="298.804688"/>
      <use xlink:href="#DejaVuSans-20" x="350.904297"/>
      <use xlink:href="#DejaVuSans-46" x="382.691406"/>
      <use xlink:href="#DejaVuSans-6f" x="436.585938"/>
      <use xlink:href="#DejaVuSans-72" x="497.767578"/>
      <use xlink:href="#DejaVuSans-64" x="537.130859"/>
      <use xlink:href="#DejaVuSans-20" x="600.607422"/>
      <use xlink:href="#DejaVuSans-43" x="632.394531"/>
      <use xlink:href="#DejaVuSans-6f" x="702.21875"/>
      <use xlink:href="#DejaVuSans-70" x="763.400391"/>
      <use xlink:href="#DejaVuSans-70" x="826.876953"/>
      <use xlink:href="#DejaVuSans-6f" x="890.353516"/>
      <use xlink:href="#DejaVuSans-6c" x="951.535156"/>
      <use xlink:href="#DejaVuSans-61" x="979.318359"/>
     </g>
    </g>
   </g>
   <g id="text_6">
    <g id="patch_7">
     <path d="M 146.728173 110.634724 
L 208.974423 110.634724 
L 208.974423 94.004411 
L 146.728173 94.004411 
z
" clip-path="url(#p13fa4d8c23)" style="fill: #ffffff; opacity: 0.7; stroke: #000000; stroke-linejoin: miter"/>
    </g>
    <g clip-path="url(#p13fa4d8c23)">
     <!-- Ron Howard -->
     <g transform="translate(150.688173 104.803005)scale(0.09 -0.09)">
      <defs>
       <path id="DejaVuSans-48" d="M 628 4666 
L 1259 4666 
L 1259 2753 
L 3553 2753 
L 3553 4666 
L 4184 4666 
L 4184 0 
L 3553 0 
L 3553 2222 
L 1259 2222 
L 1259 0 
L 628 0 
L 628 4666 
z
" transform="scale(0.015625)"/>
      </defs>
      <use xlink:href="#DejaVuSans-52"/>
      <use xlink:href="#DejaVuSans-6f" x="64.982422"/>
      <use xlink:href="#DejaVuSans-6e" x="126.164062"/>
      <use xlink:href="#DejaVuSans-20" x="189.542969"/>
      <use xlink:href="#DejaVuSans-48" x="221.330078"/>
      <use xlink:href="#DejaVuSans-6f" x="296.525391"/>
      <use xlink:href="#DejaVuSans-77" x="357.707031"/>
      <use xlink:href="#DejaVuSans-61" x="439.494141"/>
      <use xlink:href="#DejaVuSans-72" x="500.773438"/>
      <use xlink:href="#DejaVuSans-64" x="540.136719"/>
     </g>
    </g>
   </g>
   <g id="text_7">
    <g id="patch_8">
     <path d="M 86.224836 170.290885 
L 136.238118 170.290885 
L 136.238118 153.660572 
L 86.224836 153.660572 
z
" clip-path="url(#p13fa4d8c23)" style="fill: #ffffff; opacity: 0.7; stroke: #000000; stroke-linejoin: miter"/>
    </g>
    <g clip-path="url(#p13fa4d8c23)">
     <!-- Joel Coen -->
     <g transform="translate(90.184836 164.459166)scale(0.09 -0.09)">
      <defs>
       <path id="DejaVuSans-4a" d="M 628 4666 
L 1259 4666 
L 1259 325 
Q 1259 -519 939 -900 
Q 619 -1281 -91 -1281 
L -331 -1281 
L -331 -750 
L -134 -750 
Q 284 -750 456 -515 
Q 628 -281 628 325 
L 628 4666 
z
" transform="scale(0.015625)"/>
      </defs>
      <use xlink:href="#DejaVuSans-4a"/>
      <use xlink:href="#DejaVuSans-6f" x="29.492188"/>
      <use xlink:href="#DejaVuSans-65" x="90.673828"/>
      <use xlink:href="#DejaVuSans-6c" x="152.197266"/>
      <use xlink:href="#DejaVuSans-20" x="179.980469"/>
      <use xlink:href="#DejaVuSans-43" x="211.767578"/>
      <use xlink:href="#DejaVuSans-6f" x="281.591797"/>
      <use xlink:href="#DejaVuSans-65" x="342.773438"/>
      <use xlink:href="#DejaVuSans-6e" x="404.296875"/>
     </g>
    </g>
   </g>
   <g id="text_8">
    <g id="patch_9">
     <path d="M 43.868293 251.737805 
L 105.670168 251.737805 
L 105.670168 235.107493 
L 43.868293 235.107493 
z
" clip-path="url(#p13fa4d8c23)" style="fill: #ffffff; opacity: 0.7; stroke: #000000; stroke-linejoin: miter"/>
    </g>
    <g clip-path="url(#p13fa4d8c23)">
     <!-- Satyajit Ray -->
     <g transform="translate(47.828293 245.906086)scale(0.09 -0.09)">
      <defs>
       <path id="DejaVuSans-6a" d="M 603 3500 
L 1178 3500 
L 1178 -63 
Q 1178 -731 923 -1031 
Q 669 -1331 103 -1331 
L -116 -1331 
L -116 -844 
L 38 -844 
Q 366 -844 484 -692 
Q 603 -541 603 -63 
L 603 3500 
z
M 603 4863 
L 1178 4863 
L 1178 4134 
L 603 4134 
L 603 4863 
z
" transform="scale(0.015625)"/>
      </defs>
      <use xlink:href="#DejaVuSans-53"/>
      <use xlink:href="#DejaVuSans-61" x="63.476562"/>
      <use xlink:href="#DejaVuSans-74" x="124.755859"/>
      <use xlink:href="#DejaVuSans-79" x="163.964844"/>
      <use xlink:href="#DejaVuSans-61" x="223.144531"/>
      <use xlink:href="#DejaVuSans-6a" x="284.423828"/>
      <use xlink:href="#DejaVuSans-69" x="312.207031"/>
      <use xlink:href="#DejaVuSans-74" x="339.990234"/>
      <use xlink:href="#DejaVuSans-20" x="379.199219"/>
      <use xlink:href="#DejaVuSans-52" x="410.986328"/>
      <use xlink:href="#DejaVuSans-61" x="478.21875"/>
      <use xlink:href="#DejaVuSans-79" x="539.498047"/>
     </g>
    </g>
   </g>
   <g id="text_9">
    <g id="patch_10">
     <path d="M 35.851275 340.892546 
L 113.687212 340.892546 
L 113.687212 324.262233 
L 35.851275 324.262233 
z
" clip-path="url(#p13fa4d8c23)" style="fill: #ffffff; opacity: 0.7; stroke: #000000; stroke-linejoin: miter"/>
    </g>
    <g clip-path="url(#p13fa4d8c23)">
     <!-- Stanley Kubrick -->
     <g transform="translate(39.811275 335.060827)scale(0.09 -0.09)">
      <defs>
       <path id="DejaVuSans-4b" d="M 628 4666 
L 1259 4666 
L 1259 2694 
L 3353 4666 
L 4166 4666 
L 1850 2491 
L 4331 0 
L 3500 0 
L 1259 2247 
L 1259 0 
L 628 0 
L 628 4666 
z
" transform="scale(0.015625)"/>
       <path id="DejaVuSans-75" d="M 544 1381 
L 544 3500 
L 1119 3500 
L 1119 1403 
Q 1119 906 1312 657 
Q 1506 409 1894 409 
Q 2359 409 2629 706 
Q 2900 1003 2900 1516 
L 2900 3500 
L 3475 3500 
L 3475 0 
L 2900 0 
L 2900 538 
Q 2691 219 2414 64 
Q 2138 -91 1772 -91 
Q 1169 -91 856 284 
Q 544 659 544 1381 
z
M 1991 3584 
L 1991 3584 
z
" transform="scale(0.015625)"/>
       <path id="DejaVuSans-6b" d="M 581 4863 
L 1159 4863 
L 1159 1991 
L 2875 3500 
L 3609 3500 
L 1753 1863 
L 3688 0 
L 2938 0 
L 1159 1709 
L 1159 0 
L 581 0 
L 581 4863 
z
" transform="scale(0.015625)"/>
      </defs>
      <use xlink:href="#DejaVuSans-53"/>
      <use xlink:href="#DejaVuSans-74" x="63.476562"/>
      <use xlink:href="#DejaVuSans-61" x="102.685547"/>
      <use xlink:href="#DejaVuSans-6e" x="163.964844"/>
      <use xlink:href="#DejaVuSans-6c" x="227.34375"/>
      <use xlink:href="#DejaVuSans-65" x="255.126953"/>
      <use xlink:href="#DejaVuSans-79" x="316.650391"/>
      <use xlink:href="#DejaVuSans-20" x="375.830078"/>
      <use xlink:href="#DejaVuSans-4b" x="407.617188"/>
      <use xlink:href="#DejaVuSans-75" x="468.193359"/>
      <use xlink:href="#DejaVuSans-62" x="531.572266"/>
      <use xlink:href="#DejaVuSans-72" x="595.048828"/>
      <use xlink:href="#DejaVuSans-69" x="636.162109"/>
      <use xlink:href="#DejaVuSans-63" x="663.945312"/>
      <use xlink:href="#DejaVuSans-6b" x="718.925781"/>
     </g>
    </g>
   </g>
   <g id="text_10">
    <g id="patch_11">
     <path d="M 81.255865 422.33944 
L 141.207115 422.33944 
L 141.207115 405.709128 
L 81.255865 405.709128 
z
" clip-path="url(#p13fa4d8c23)" style="fill: #ffffff; opacity: 0.7; stroke: #000000; stroke-linejoin: miter"/>
    </g>
    <g clip-path="url(#p13fa4d8c23)">
     <!-- Ethan Coen -->
     <g transform="translate(85.215865 416.507722)scale(0.09 -0.09)">
      <defs>
       <path id="DejaVuSans-68" d="M 3513 2113 
L 3513 0 
L 2938 0 
L 2938 2094 
Q 2938 2591 2744 2837 
Q 2550 3084 2163 3084 
Q 1697 3084 1428 2787 
Q 1159 2491 1159 1978 
L 1159 0 
L 581 0 
L 581 4863 
L 1159 4863 
L 1159 2956 
Q 1366 3272 1645 3428 
Q 1925 3584 2291 3584 
Q 2894 3584 3203 3211 
Q 3513 2838 3513 2113 
z
" transform="scale(0.015625)"/>
      </defs>
      <use xlink:href="#DejaVuSans-45"/>
      <use xlink:href="#DejaVuSans-74" x="63.183594"/>
      <use xlink:href="#DejaVuSans-68" x="102.392578"/>
      <use xlink:href="#DejaVuSans-61" x="165.771484"/>
      <use xlink:href="#DejaVuSans-6e" x="227.050781"/>
      <use xlink:href="#DejaVuSans-20" x="290.429688"/>
      <use xlink:href="#DejaVuSans-43" x="322.216797"/>
      <use xlink:href="#DejaVuSans-6f" x="392.041016"/>
      <use xlink:href="#DejaVuSans-65" x="453.222656"/>
      <use xlink:href="#DejaVuSans-6e" x="514.746094"/>
     </g>
    </g>
   </g>
   <g id="text_11">
    <g id="patch_12">
     <path d="M 146.04969 481.995602 
L 209.652971 481.995602 
L 209.652971 465.365289 
L 146.04969 465.365289 
z
" clip-path="url(#p13fa4d8c23)" style="fill: #ffffff; opacity: 0.7; stroke: #000000; stroke-linejoin: miter"/>
    </g>
    <g clip-path="url(#p13fa4d8c23)">
     <!-- Woody Allen -->
     <g transform="translate(150.00969 476.163883)scale(0.09 -0.09)">
      <defs>
       <path id="DejaVuSans-57" d="M 213 4666 
L 850 4666 
L 1831 722 
L 2809 4666 
L 3519 4666 
L 4500 722 
L 5478 4666 
L 6119 4666 
L 4947 0 
L 4153 0 
L 3169 4050 
L 2175 0 
L 1381 0 
L 213 4666 
z
" transform="scale(0.015625)"/>
       <path id="DejaVuSans-41" d="M 2188 4044 
L 1331 1722 
L 3047 1722 
L 2188 4044 
z
M 1831 4666 
L 2547 4666 
L 4325 0 
L 3669 0 
L 3244 1197 
L 1141 1197 
L 716 0 
L 50 0 
L 1831 4666 
z
" transform="scale(0.015625)"/>
      </defs>
      <use xlink:href="#DejaVuSans-57"/>
      <use xlink:href="#DejaVuSans-6f" x="93.001953"/>
      <use xlink:href="#DejaVuSans-6f" x="154.183594"/>
      <use xlink:href="#DejaVuSans-64" x="215.365234"/>
      <use xlink:href="#DejaVuSans-79" x="278.841797"/>
      <use xlink:href="#DejaVuSans-20" x="338.021484"/>
      <use xlink:href="#DejaVuSans-41" x="369.808594"/>
      <use xlink:href="#DejaVuSans-6c" x="438.216797"/>
      <use xlink:href="#DejaVuSans-6c" x="466"/>
      <use xlink:href="#DejaVuSans-65" x="493.783203"/>
      <use xlink:href="#DejaVuSans-6e" x="555.306641"/>
     </g>
    </g>
   </g>
   <g id="text_12">
    <g id="patch_13">
     <path d="M 234.319431 509.545925 
L 291.899743 509.545925 
L 291.899743 492.915613 
L 234.319431 492.915613 
z
" clip-path="url(#p13fa4d8c23)" style="fill: #ffffff; opacity: 0.7; stroke: #000000; stroke-linejoin: miter"/>
    </g>
    <g clip-path="url(#p13fa4d8c23)">
     <!-- Tim Burton -->
     <g transform="translate(238.279431 503.714207)scale(0.09 -0.09)">
      <defs>
       <path id="DejaVuSans-54" d="M -19 4666 
L 3928 4666 
L 3928 4134 
L 2272 4134 
L 2272 0 
L 1638 0 
L 1638 4134 
L -19 4134 
L -19 4666 
z
" transform="scale(0.015625)"/>
       <path id="DejaVuSans-6d" d="M 3328 2828 
Q 3544 3216 3844 3400 
Q 4144 3584 4550 3584 
Q 5097 3584 5394 3201 
Q 5691 2819 5691 2113 
L 5691 0 
L 5113 0 
L 5113 2094 
Q 5113 2597 4934 2840 
Q 4756 3084 4391 3084 
Q 3944 3084 3684 2787 
Q 3425 2491 3425 1978 
L 3425 0 
L 2847 0 
L 2847 2094 
Q 2847 2600 2669 2842 
Q 2491 3084 2119 3084 
Q 1678 3084 1418 2786 
Q 1159 2488 1159 1978 
L 1159 0 
L 581 0 
L 581 3500 
L 1159 3500 
L 1159 2956 
Q 1356 3278 1631 3431 
Q 1906 3584 2284 3584 
Q 2666 3584 2933 3390 
Q 3200 3197 3328 2828 
z
" transform="scale(0.015625)"/>
       <path id="DejaVuSans-42" d="M 1259 2228 
L 1259 519 
L 2272 519 
Q 2781 519 3026 730 
Q 3272 941 3272 1375 
Q 3272 1813 3026 2020 
Q 2781 2228 2272 2228 
L 1259 2228 
z
M 1259 4147 
L 1259 2741 
L 2194 2741 
Q 2656 2741 2882 2914 
Q 3109 3088 3109 3444 
Q 3109 3797 2882 3972 
Q 2656 4147 2194 4147 
L 1259 4147 
z
M 628 4666 
L 2241 4666 
Q 2963 4666 3353 4366 
Q 3744 4066 3744 3513 
Q 3744 3084 3544 2831 
Q 3344 2578 2956 2516 
Q 3422 2416 3680 2098 
Q 3938 1781 3938 1306 
Q 3938 681 3513 340 
Q 3088 0 2303 0 
L 628 0 
L 628 4666 
z
" transform="scale(0.015625)"/>
      </defs>
      <use xlink:href="#DejaVuSans-54"/>
      <use xlink:href="#DejaVuSans-69" x="57.958984"/>
      <use xlink:href="#DejaVuSans-6d" x="85.742188"/>
      <use xlink:href="#DejaVuSans-20" x="183.154297"/>
      <use xlink:href="#DejaVuSans-42" x="214.941406"/>
      <use xlink:href="#DejaVuSans-75" x="283.544922"/>
      <use xlink:href="#DejaVuSans-72" x="346.923828"/>
      <use xlink:href="#DejaVuSans-74" x="388.037109"/>
      <use xlink:href="#DejaVuSans-6f" x="427.246094"/>
      <use xlink:href="#DejaVuSans-6e" x="488.427734"/>
     </g>
    </g>
   </g>
   <g id="text_13">
    <g id="patch_14">
     <path d="M 307.610964 500.226706 
L 396.917683 500.226706 
L 396.917683 483.596393 
L 307.610964 483.596393 
z
" clip-path="url(#p13fa4d8c23)" style="fill: #ffffff; opacity: 0.7; stroke: #000000; stroke-linejoin: miter"/>
    </g>
    <g clip-path="url(#p13fa4d8c23)">
     <!-- Christopher Nolan -->
     <g transform="translate(311.570964 494.394987)scale(0.09 -0.09)">
      <defs>
       <path id="DejaVuSans-4e" d="M 628 4666 
L 1478 4666 
L 3547 763 
L 3547 4666 
L 4159 4666 
L 4159 0 
L 3309 0 
L 1241 3903 
L 1241 0 
L 628 0 
L 628 4666 
z
" transform="scale(0.015625)"/>
      </defs>
      <use xlink:href="#DejaVuSans-43"/>
      <use xlink:href="#DejaVuSans-68" x="69.824219"/>
      <use xlink:href="#DejaVuSans-72" x="133.203125"/>
      <use xlink:href="#DejaVuSans-69" x="174.316406"/>
      <use xlink:href="#DejaVuSans-73" x="202.099609"/>
      <use xlink:href="#DejaVuSans-74" x="254.199219"/>
      <use xlink:href="#DejaVuSans-6f" x="293.408203"/>
      <use xlink:href="#DejaVuSans-70" x="354.589844"/>
      <use xlink:href="#DejaVuSans-68" x="418.066406"/>
      <use xlink:href="#DejaVuSans-65" x="481.445312"/>
      <use xlink:href="#DejaVuSans-72" x="542.96875"/>
      <use xlink:href="#DejaVuSans-20" x="584.082031"/>
      <use xlink:href="#DejaVuSans-4e" x="615.869141"/>
      <use xlink:href="#DejaVuSans-6f" x="690.673828"/>
      <use xlink:href="#DejaVuSans-6c" x="751.855469"/>
      <use xlink:href="#DejaVuSans-61" x="779.638672"/>
      <use xlink:href="#DejaVuSans-6e" x="840.917969"/>
     </g>
    </g>
   </g>
   <g id="text_14">
    <g id="patch_15">
     <path d="M 398.189654 455.649316 
L 461.610123 455.649316 
L 461.610123 439.019004 
L 398.189654 439.019004 
z
" clip-path="url(#p13fa4d8c23)" style="fill: #ffffff; opacity: 0.7; stroke: #000000; stroke-linejoin: miter"/>
    </g>
    <g clip-path="url(#p13fa4d8c23)">
     <!-- Oliver Stone -->
     <g transform="translate(402.149654 449.817598)scale(0.09 -0.09)">
      <defs>
       <path id="DejaVuSans-4f" d="M 2522 4238 
Q 1834 4238 1429 3725 
Q 1025 3213 1025 2328 
Q 1025 1447 1429 934 
Q 1834 422 2522 422 
Q 3209 422 3611 934 
Q 4013 1447 4013 2328 
Q 4013 3213 3611 3725 
Q 3209 4238 2522 4238 
z
M 2522 4750 
Q 3503 4750 4090 4092 
Q 4678 3434 4678 2328 
Q 4678 1225 4090 567 
Q 3503 -91 2522 -91 
Q 1538 -91 948 565 
Q 359 1222 359 2328 
Q 359 3434 948 4092 
Q 1538 4750 2522 4750 
z
" transform="scale(0.015625)"/>
      </defs>
      <use xlink:href="#DejaVuSans-4f"/>
      <use xlink:href="#DejaVuSans-6c" x="78.710938"/>
      <use xlink:href="#DejaVuSans-69" x="106.494141"/>
      <use xlink:href="#DejaVuSans-76" x="134.277344"/>
      <use xlink:href="#DejaVuSans-65" x="193.457031"/>
      <use xlink:href="#DejaVuSans-72" x="254.980469"/>
      <use xlink:href="#DejaVuSans-20" x="296.09375"/>
      <use xlink:href="#DejaVuSans-53" x="327.880859"/>
      <use xlink:href="#DejaVuSans-74" x="391.357422"/>
      <use xlink:href="#DejaVuSans-6f" x="430.566406"/>
      <use xlink:href="#DejaVuSans-6e" x="491.748047"/>
      <use xlink:href="#DejaVuSans-65" x="555.126953"/>
     </g>
    </g>
   </g>
   <g id="text_15">
    <g id="patch_16">
     <path d="M 438.478311 383.521616 
L 526.706436 383.521616 
L 526.706436 366.891303 
L 438.478311 366.891303 
z
" clip-path="url(#p13fa4d8c23)" style="fill: #ffffff; opacity: 0.7; stroke: #000000; stroke-linejoin: miter"/>
    </g>
    <g clip-path="url(#p13fa4d8c23)">
     <!-- Quentin Tarantino -->
     <g transform="translate(442.438311 377.689897)scale(0.09 -0.09)">
      <defs>
       <path id="DejaVuSans-51" d="M 2522 4238 
Q 1834 4238 1429 3725 
Q 1025 3213 1025 2328 
Q 1025 1447 1429 934 
Q 1834 422 2522 422 
Q 3209 422 3611 934 
Q 4013 1447 4013 2328 
Q 4013 3213 3611 3725 
Q 3209 4238 2522 4238 
z
M 3406 84 
L 4238 -825 
L 3475 -825 
L 2784 -78 
Q 2681 -84 2626 -87 
Q 2572 -91 2522 -91 
Q 1538 -91 948 567 
Q 359 1225 359 2328 
Q 359 3434 948 4092 
Q 1538 4750 2522 4750 
Q 3503 4750 4090 4092 
Q 4678 3434 4678 2328 
Q 4678 1516 4351 937 
Q 4025 359 3406 84 
z
" transform="scale(0.015625)"/>
      </defs>
      <use xlink:href="#DejaVuSans-51"/>
      <use xlink:href="#DejaVuSans-75" x="78.710938"/>
      <use xlink:href="#DejaVuSans-65" x="142.089844"/>
      <use xlink:href="#DejaVuSans-6e" x="203.613281"/>
      <use xlink:href="#DejaVuSans-74" x="266.992188"/>
      <use xlink:href="#DejaVuSans-69" x="306.201172"/>
      <use xlink:href="#DejaVuSans-6e" x="333.984375"/>
      <use xlink:href="#DejaVuSans-20" x="397.363281"/>
      <use xlink:href="#DejaVuSans-54" x="429.150391"/>
      <use xlink:href="#DejaVuSans-61" x="473.734375"/>
      <use xlink:href="#DejaVuSans-72" x="535.013672"/>
      <use xlink:href="#DejaVuSans-61" x="576.126953"/>
      <use xlink:href="#DejaVuSans-6e" x="637.40625"/>
      <use xlink:href="#DejaVuSans-74" x="700.785156"/>
      <use xlink:href="#DejaVuSans-69" x="739.994141"/>
      <use xlink:href="#DejaVuSans-6e" x="767.777344"/>
      <use xlink:href="#DejaVuSans-6f" x="831.15625"/>
     </g>
    </g>
   </g>
   <g id="text_16">
    <!-- Impactful directors for Drama genre -->
    <g transform="translate(179.76375 4.8)scale(0.12 -0.12)">
     <defs>
      <path id="DejaVuSans-49" d="M 628 4666 
L 1259 4666 
L 1259 0 
L 628 0 
L 628 4666 
z
" transform="scale(0.015625)"/>
      <path id="DejaVuSans-66" d="M 2375 4863 
L 2375 4384 
L 1825 4384 
Q 1516 4384 1395 4259 
Q 1275 4134 1275 3809 
L 1275 3500 
L 2222 3500 
L 2222 3053 
L 1275 3053 
L 1275 0 
L 697 0 
L 697 3053 
L 147 3053 
L 147 3500 
L 697 3500 
L 697 3744 
Q 697 4328 969 4595 
Q 1241 4863 1831 4863 
L 2375 4863 
z
" transform="scale(0.015625)"/>
      <path id="DejaVuSans-44" d="M 1259 4147 
L 1259 519 
L 2022 519 
Q 2988 519 3436 956 
Q 3884 1394 3884 2338 
Q 3884 3275 3436 3711 
Q 2988 4147 2022 4147 
L 1259 4147 
z
M 628 4666 
L 1925 4666 
Q 3281 4666 3915 4102 
Q 4550 3538 4550 2338 
Q 4550 1131 3912 565 
Q 3275 0 1925 0 
L 628 0 
L 628 4666 
z
" transform="scale(0.015625)"/>
     </defs>
     <use xlink:href="#DejaVuSans-49"/>
     <use xlink:href="#DejaVuSans-6d" x="29.492188"/>
     <use xlink:href="#DejaVuSans-70" x="126.904297"/>
     <use xlink:href="#DejaVuSans-61" x="190.380859"/>
     <use xlink:href="#DejaVuSans-63" x="251.660156"/>
     <use xlink:href="#DejaVuSans-74" x="306.640625"/>
     <use xlink:href="#DejaVuSans-66" x="345.849609"/>
     <use xlink:href="#DejaVuSans-75" x="381.054688"/>
     <use xlink:href="#DejaVuSans-6c" x="444.433594"/>
     <use xlink:href="#DejaVuSans-20" x="472.216797"/>
     <use xlink:href="#DejaVuSans-64" x="504.003906"/>
     <use xlink:href="#DejaVuSans-69" x="567.480469"/>
     <use xlink:href="#DejaVuSans-72" x="595.263672"/>
     <use xlink:href="#DejaVuSans-65" x="634.126953"/>
     <use xlink:href="#DejaVuSans-63" x="695.650391"/>
     <use xlink:href="#DejaVuSans-74" x="750.630859"/>
     <use xlink:href="#DejaVuSans-6f" x="789.839844"/>
     <use xlink:href="#DejaVuSans-72" x="851.021484"/>
     <use xlink:href="#DejaVuSans-73" x="892.134766"/>
     <use xlink:href="#DejaVuSans-20" x="944.234375"/>
     <use xlink:href="#DejaVuSans-66" x="976.021484"/>
     <use xlink:href="#DejaVuSans-6f" x="1011.226562"/>
     <use xlink:href="#DejaVuSans-72" x="1072.408203"/>
     <use xlink:href="#DejaVuSans-20" x="1113.521484"/>
     <use xlink:href="#DejaVuSans-44" x="1145.308594"/>
     <use xlink:href="#DejaVuSans-72" x="1222.310547"/>
     <use xlink:href="#DejaVuSans-61" x="1263.423828"/>
     <use xlink:href="#DejaVuSans-6d" x="1324.703125"/>
     <use xlink:href="#DejaVuSans-61" x="1422.115234"/>
     <use xlink:href="#DejaVuSans-20" x="1483.394531"/>
     <use xlink:href="#DejaVuSans-67" x="1515.181641"/>
     <use xlink:href="#DejaVuSans-65" x="1578.658203"/>
     <use xlink:href="#DejaVuSans-6e" x="1640.181641"/>
     <use xlink:href="#DejaVuSans-72" x="1703.560547"/>
     <use xlink:href="#DejaVuSans-65" x="1742.423828"/>
    </g>
   </g>
  </g>
 </g>
 <defs>
  <clipPath id="p13fa4d8c23">
   <rect x="10.8" y="10.8" width="554.4" height="554.4"/>
  </clipPath>
 </defs>
</svg>
