<?xml version="1.0" encoding="utf-8" standalone="no"?>
<!DOCTYPE svg PUBLIC "-//W3C//DTD SVG 1.1//EN"
  "http://www.w3.org/Graphics/SVG/1.1/DTD/svg11.dtd">
<svg xmlns:xlink="http://www.w3.org/1999/xlink" width="576pt" height="576pt" viewBox="0 0 576 576" xmlns="http://www.w3.org/2000/svg" version="1.1">
 <metadata>
  <rdf:RDF xmlns:dc="http://purl.org/dc/elements/1.1/" xmlns:cc="http://creativecommons.org/ns#" xmlns:rdf="http://www.w3.org/1999/02/22-rdf-syntax-ns#">
   <cc:Work>
    <dc:type rdf:resource="http://purl.org/dc/dcmitype/StillImage"/>
    <dc:date>2022-12-23T17:28:56.769683</dc:date>
    <dc:format>image/svg+xml</dc:format>
    <dc:creator>
     <cc:Agent>
      <dc:title>Matplotlib v3.5.2, https://matplotlib.org/</dc:title>
     </cc:Agent>
    </dc:creator>
   </cc:Work>
  </rdf:RDF>
 </metadata>
 <defs>
  <style type="text/css">*{stroke-linejoin: round; stroke-linecap: butt}</style>
 </defs>
 <g id="figure_1">
  <g id="patch_1">
   <path d="M 0 576 
L 576 576 
L 576 0 
L 0 0 
z
" style="fill: #ffffff"/>
  </g>
  <g id="axes_1">
   <g id="LineCollection_1">
    <path d="M 485.652438 297.527194 
L 467.694865 214.217107 
" clip-path="url(#p1ddb71b9ff)" style="fill: none; stroke: #000000; stroke-opacity: 0.3; stroke-width: 5"/>
    <path d="M 485.652438 297.527194 
L 174.085816 474.9114 
" clip-path="url(#p1ddb71b9ff)" style="fill: none; stroke: #000000; stroke-opacity: 0.3; stroke-width: 5.068324"/>
    <path d="M 342.127598 102.726443 
L 256.229613 93.82362 
" clip-path="url(#p1ddb71b9ff)" style="fill: none; stroke: #000000; stroke-opacity: 0.3; stroke-width: 10"/>
   </g>
   <g id="PathCollection_1">
    <path d="M 485.652438 324.913322 
C 492.915324 324.913322 499.881719 322.027747 505.017355 316.892111 
C 510.152991 311.756475 513.038566 304.790081 513.038566 297.527194 
C 513.038566 290.264308 510.152991 283.297914 505.017355 278.162278 
C 499.881719 273.026642 492.915324 270.141067 485.652438 270.141067 
C 478.389552 270.141067 471.423157 273.026642 466.287521 278.162278 
C 461.151885 283.297914 458.26631 290.264308 458.26631 297.527194 
C 458.26631 304.790081 461.151885 311.756475 466.287521 316.892111 
C 471.423157 322.027747 478.389552 324.913322 485.652438 324.913322 
z
" clip-path="url(#p1ddb71b9ff)" style="fill: #c70039; fill-opacity: 0.99; stroke: #c70039; stroke-opacity: 0.99"/>
    <path d="M 467.694865 237.635781 
C 473.90557 237.635781 479.862736 235.168242 484.254368 230.77661 
C 488.646 226.384979 491.113539 220.427812 491.113539 214.217107 
C 491.113539 208.006402 488.646 202.049235 484.254368 197.657604 
C 479.862736 193.265972 473.90557 190.798433 467.694865 190.798433 
C 461.48416 190.798433 455.526993 193.265972 451.135361 197.657604 
C 446.74373 202.049235 444.276191 208.006402 444.276191 214.217107 
C 444.276191 220.427812 446.74373 226.384979 451.135361 230.77661 
C 455.526993 235.168242 461.48416 237.635781 467.694865 237.635781 
z
" clip-path="url(#p1ddb71b9ff)" style="fill: #c70039; fill-opacity: 0.99; stroke: #c70039; stroke-opacity: 0.99"/>
    <path d="M 416.927186 168.391788 
C 423.047995 168.391788 428.918937 165.959964 433.247003 161.631898 
C 437.575069 157.303832 440.006893 151.432891 440.006893 145.312081 
C 440.006893 139.191271 437.575069 133.320329 433.247003 128.992263 
C 428.918937 124.664197 423.047995 122.232374 416.927186 122.232374 
C 410.806376 122.232374 404.935434 124.664197 400.607368 128.992263 
C 396.279302 133.320329 393.847478 139.191271 393.847478 145.312081 
C 393.847478 151.432891 396.279302 157.303832 400.607368 161.631898 
C 404.935434 165.959964 410.806376 168.391788 416.927186 168.391788 
z
" clip-path="url(#p1ddb71b9ff)" style="fill: #c70039; fill-opacity: 0.99; stroke: #c70039; stroke-opacity: 0.99"/>
    <path d="M 342.127598 124.743437 
C 347.966573 124.743437 353.567185 122.423588 357.695964 118.294809 
C 361.824743 114.16603 364.144592 108.565418 364.144592 102.726443 
C 364.144592 96.887467 361.824743 91.286856 357.695964 87.158077 
C 353.567185 83.029298 347.966573 80.709448 342.127598 80.709448 
C 336.288622 80.709448 330.688011 83.029298 326.559232 87.158077 
C 322.430453 91.286856 320.110603 96.887467 320.110603 102.726443 
C 320.110603 108.565418 322.430453 114.16603 326.559232 118.294809 
C 330.688011 122.423588 336.288622 124.743437 342.127598 124.743437 
z
" clip-path="url(#p1ddb71b9ff)" style="fill: #c70039; fill-opacity: 0.99; stroke: #c70039; stroke-opacity: 0.99"/>
    <path d="M 256.229613 115.840614 
C 262.068588 115.840614 267.6692 113.520765 271.797979 109.391986 
C 275.926758 105.263207 278.246608 99.662595 278.246608 93.82362 
C 278.246608 87.984645 275.926758 82.384033 271.797979 78.255254 
C 267.6692 74.126475 262.068588 71.806625 256.229613 71.806625 
C 250.390638 71.806625 244.790026 74.126475 240.661247 78.255254 
C 236.532468 82.384033 234.212619 87.984645 234.212619 93.82362 
C 234.212619 99.662595 236.532468 105.263207 240.661247 109.391986 
C 244.790026 113.520765 250.390638 115.840614 256.229613 115.840614 
z
" clip-path="url(#p1ddb71b9ff)" style="fill: #c70039; fill-opacity: 0.99; stroke: #c70039; stroke-opacity: 0.99"/>
    <path d="M 174.085785 141.396677 
C 179.722325 141.396677 185.128767 139.157256 189.114403 135.17162 
C 193.100039 131.185984 195.33946 125.779542 195.33946 120.143002 
C 195.33946 114.506461 193.100039 109.10002 189.114403 105.114383 
C 185.128767 101.128747 179.722325 98.889326 174.085785 98.889326 
C 168.449244 98.889326 163.042803 101.128747 159.057167 105.114383 
C 155.071531 109.10002 152.832109 114.506461 152.832109 120.143002 
C 152.832109 125.779542 155.071531 131.185984 159.057167 135.17162 
C 163.042803 139.157256 168.449244 141.396677 174.085785 141.396677 
z
" clip-path="url(#p1ddb71b9ff)" style="fill: #c70039; fill-opacity: 0.99; stroke: #c70039; stroke-opacity: 0.99"/>
    <path d="M 109.899538 197.639753 
C 115.337803 197.639753 120.554063 195.479107 124.399497 191.633673 
C 128.244931 187.788239 130.405577 182.571979 130.405577 177.133714 
C 130.405577 171.695448 128.244931 166.479188 124.399497 162.633754 
C 120.554063 158.78832 115.337803 156.627674 109.899538 156.627674 
C 104.461272 156.627674 99.245012 158.78832 95.399578 162.633754 
C 91.554144 166.479188 89.393498 171.695448 89.393498 177.133714 
C 89.393498 182.571979 91.554144 187.788239 95.399578 191.633673 
C 99.245012 195.479107 104.461272 197.639753 109.899538 197.639753 
z
" clip-path="url(#p1ddb71b9ff)" style="fill: #c70039; fill-opacity: 0.99; stroke: #c70039; stroke-opacity: 0.99"/>
    <path d="M 74.769231 275.091145 
C 80.112961 275.091145 85.238545 272.968058 89.017133 269.18947 
C 92.79572 265.410883 94.918807 260.285299 94.918807 254.941569 
C 94.918807 249.597839 92.79572 244.472254 89.017133 240.693667 
C 85.238545 236.915079 80.112961 234.791992 74.769231 234.791992 
C 69.425501 234.791992 64.299917 236.915079 60.521329 240.693667 
C 56.742741 244.472254 54.619655 249.597839 54.619655 254.941569 
C 54.619655 260.285299 56.742741 265.410883 60.521329 269.18947 
C 64.299917 272.968058 69.425501 275.091145 74.769231 275.091145 
z
" clip-path="url(#p1ddb71b9ff)" style="fill: #c70039; fill-opacity: 0.99; stroke: #c70039; stroke-opacity: 0.99"/>
    <path d="M 74.769243 360.239868 
C 80.106989 360.239868 85.226833 358.119159 89.001189 354.344803 
C 92.775545 350.570447 94.896254 345.450603 94.896254 340.112857 
C 94.896254 334.775111 92.775545 329.655268 89.001189 325.880911 
C 85.226833 322.106555 80.106989 319.985847 74.769243 319.985847 
C 69.431498 319.985847 64.311654 322.106555 60.537298 325.880911 
C 56.762941 329.655268 54.642233 334.775111 54.642233 340.112857 
C 54.642233 345.450603 56.762941 350.570447 60.537298 354.344803 
C 64.311654 358.119159 69.431498 360.239868 74.769243 360.239868 
z
" clip-path="url(#p1ddb71b9ff)" style="fill: #c70039; fill-opacity: 0.99; stroke: #c70039; stroke-opacity: 0.99"/>
    <path d="M 109.89955 437.988795 
C 115.221674 437.988795 120.326535 435.874293 124.089845 432.110982 
C 127.853155 428.347672 129.967657 423.242812 129.967657 417.920688 
C 129.967657 412.598563 127.853155 407.493703 124.089845 403.730393 
C 120.326535 399.967083 115.221674 397.85258 109.89955 397.85258 
C 104.577426 397.85258 99.472565 399.967083 95.709255 403.730393 
C 91.945945 407.493703 89.831443 412.598563 89.831443 417.920688 
C 89.831443 423.242812 91.945945 428.347672 95.709255 432.110982 
C 99.472565 435.874293 104.577426 437.988795 109.89955 437.988795 
z
" clip-path="url(#p1ddb71b9ff)" style="fill: #c70039; fill-opacity: 0.99; stroke: #c70039; stroke-opacity: 0.99"/>
    <path d="M 174.085816 494.790696 
C 179.357867 494.790696 184.414698 492.696088 188.142601 488.968185 
C 191.870504 485.240282 193.965112 480.183451 193.965112 474.9114 
C 193.965112 469.639349 191.870504 464.582517 188.142601 460.854614 
C 184.414698 457.126711 179.357867 455.032103 174.085816 455.032103 
C 168.813765 455.032103 163.756934 457.126711 160.02903 460.854614 
C 156.301127 464.582517 154.206519 469.639349 154.206519 474.9114 
C 154.206519 480.183451 156.301127 485.240282 160.02903 488.968185 
C 163.756934 492.696088 168.813765 494.790696 174.085816 494.790696 
z
" clip-path="url(#p1ddb71b9ff)" style="fill: #c70039; fill-opacity: 0.99; stroke: #c70039; stroke-opacity: 0.99"/>
    <path d="M 256.22965 521.045885 
C 261.48468 521.045885 266.525186 518.958039 270.241053 515.242172 
C 273.95692 511.526304 276.044766 506.485799 276.044766 501.230769 
C 276.044766 495.975739 273.95692 490.935234 270.241053 487.219367 
C 266.525186 483.503499 261.48468 481.415654 256.22965 481.415654 
C 250.97462 481.415654 245.934115 483.503499 242.218248 487.219367 
C 238.50238 490.935234 236.414535 495.975739 236.414535 501.230769 
C 236.414535 506.485799 238.50238 511.526304 242.218248 515.242172 
C 245.934115 518.958039 250.97462 521.045885 256.22965 521.045885 
z
" clip-path="url(#p1ddb71b9ff)" style="fill: #c70039; fill-opacity: 0.99; stroke: #c70039; stroke-opacity: 0.99"/>
    <path d="M 342.127629 511.976169 
C 347.338401 511.976169 352.336456 509.905907 356.021029 506.221334 
C 359.705602 502.536762 361.775864 497.538707 361.775864 492.327934 
C 361.775864 487.117161 359.705602 482.119107 356.021029 478.434534 
C 352.336456 474.749961 347.338401 472.679699 342.127629 472.679699 
C 336.916856 472.679699 331.918801 474.749961 328.234228 478.434534 
C 324.549655 482.119107 322.479393 487.117161 322.479393 492.327934 
C 322.479393 497.538707 324.549655 502.536762 328.234228 506.221334 
C 331.918801 509.905907 336.916856 511.976169 342.127629 511.976169 
z
" clip-path="url(#p1ddb71b9ff)" style="fill: #c70039; fill-opacity: 0.99; stroke: #c70039; stroke-opacity: 0.99"/>
    <path d="M 416.927223 469.165052 
C 422.078204 469.165052 427.018909 467.118546 430.661203 463.476252 
C 434.303497 459.833957 436.350003 454.893253 436.350003 449.742272 
C 436.350003 444.59129 434.303497 439.650586 430.661203 436.008292 
C 427.018909 432.365998 422.078204 430.319491 416.927223 430.319491 
C 411.776241 430.319491 406.835537 432.365998 403.193243 436.008292 
C 399.550949 439.650586 397.504442 444.59129 397.504442 449.742272 
C 397.504442 454.893253 399.550949 459.833957 403.193243 463.476252 
C 406.835537 467.118546 411.776241 469.165052 416.927223 469.165052 
z
" clip-path="url(#p1ddb71b9ff)" style="fill: #c70039; fill-opacity: 0.99; stroke: #c70039; stroke-opacity: 0.99"/>
    <path d="M 467.69489 400.202168 
C 472.830525 400.202168 477.75651 398.161759 481.387953 394.530316 
C 485.019396 390.898873 487.059806 385.972888 487.059806 380.837252 
C 487.059806 375.701616 485.019396 370.775631 481.387953 367.144188 
C 477.75651 363.512745 472.830525 361.472335 467.69489 361.472335 
C 462.559254 361.472335 457.633269 363.512745 454.001826 367.144188 
C 450.370383 370.775631 448.329973 375.701616 448.329973 380.837252 
C 448.329973 385.972888 450.370383 390.898873 454.001826 394.530316 
C 457.633269 398.161759 462.559254 400.202168 467.69489 400.202168 
z
" clip-path="url(#p1ddb71b9ff)" style="fill: #c70039; fill-opacity: 0.99; stroke: #c70039; stroke-opacity: 0.99"/>
   </g>
   <g id="text_1">
    <g id="patch_2">
     <path d="M 454.290251 305.842351 
L 517.014626 305.842351 
L 517.014626 289.212038 
L 454.290251 289.212038 
z
" clip-path="url(#p1ddb71b9ff)" style="fill: #ffffff; opacity: 0.7; stroke: #000000; stroke-linejoin: miter"/>
    </g>
    <g clip-path="url(#p1ddb71b9ff)">
     <!-- Chuck Jones -->
     <g transform="translate(458.250251 300.010632)scale(0.09 -0.09)">
      <defs>
       <path id="DejaVuSans-43" d="M 4122 4306 
L 4122 3641 
Q 3803 3938 3442 4084 
Q 3081 4231 2675 4231 
Q 1875 4231 1450 3742 
Q 1025 3253 1025 2328 
Q 1025 1406 1450 917 
Q 1875 428 2675 428 
Q 3081 428 3442 575 
Q 3803 722 4122 1019 
L 4122 359 
Q 3791 134 3420 21 
Q 3050 -91 2638 -91 
Q 1578 -91 968 557 
Q 359 1206 359 2328 
Q 359 3453 968 4101 
Q 1578 4750 2638 4750 
Q 3056 4750 3426 4639 
Q 3797 4528 4122 4306 
z
" transform="scale(0.015625)"/>
       <path id="DejaVuSans-68" d="M 3513 2113 
L 3513 0 
L 2938 0 
L 2938 2094 
Q 2938 2591 2744 2837 
Q 2550 3084 2163 3084 
Q 1697 3084 1428 2787 
Q 1159 2491 1159 1978 
L 1159 0 
L 581 0 
L 581 4863 
L 1159 4863 
L 1159 2956 
Q 1366 3272 1645 3428 
Q 1925 3584 2291 3584 
Q 2894 3584 3203 3211 
Q 3513 2838 3513 2113 
z
" transform="scale(0.015625)"/>
       <path id="DejaVuSans-75" d="M 544 1381 
L 544 3500 
L 1119 3500 
L 1119 1403 
Q 1119 906 1312 657 
Q 1506 409 1894 409 
Q 2359 409 2629 706 
Q 2900 1003 2900 1516 
L 2900 3500 
L 3475 3500 
L 3475 0 
L 2900 0 
L 2900 538 
Q 2691 219 2414 64 
Q 2138 -91 1772 -91 
Q 1169 -91 856 284 
Q 544 659 544 1381 
z
M 1991 3584 
L 1991 3584 
z
" transform="scale(0.015625)"/>
       <path id="DejaVuSans-63" d="M 3122 3366 
L 3122 2828 
Q 2878 2963 2633 3030 
Q 2388 3097 2138 3097 
Q 1578 3097 1268 2742 
Q 959 2388 959 1747 
Q 959 1106 1268 751 
Q 1578 397 2138 397 
Q 2388 397 2633 464 
Q 2878 531 3122 666 
L 3122 134 
Q 2881 22 2623 -34 
Q 2366 -91 2075 -91 
Q 1284 -91 818 406 
Q 353 903 353 1747 
Q 353 2603 823 3093 
Q 1294 3584 2113 3584 
Q 2378 3584 2631 3529 
Q 2884 3475 3122 3366 
z
" transform="scale(0.015625)"/>
       <path id="DejaVuSans-6b" d="M 581 4863 
L 1159 4863 
L 1159 1991 
L 2875 3500 
L 3609 3500 
L 1753 1863 
L 3688 0 
L 2938 0 
L 1159 1709 
L 1159 0 
L 581 0 
L 581 4863 
z
" transform="scale(0.015625)"/>
       <path id="DejaVuSans-20" transform="scale(0.015625)"/>
       <path id="DejaVuSans-4a" d="M 628 4666 
L 1259 4666 
L 1259 325 
Q 1259 -519 939 -900 
Q 619 -1281 -91 -1281 
L -331 -1281 
L -331 -750 
L -134 -750 
Q 284 -750 456 -515 
Q 628 -281 628 325 
L 628 4666 
z
" transform="scale(0.015625)"/>
       <path id="DejaVuSans-6f" d="M 1959 3097 
Q 1497 3097 1228 2736 
Q 959 2375 959 1747 
Q 959 1119 1226 758 
Q 1494 397 1959 397 
Q 2419 397 2687 759 
Q 2956 1122 2956 1747 
Q 2956 2369 2687 2733 
Q 2419 3097 1959 3097 
z
M 1959 3584 
Q 2709 3584 3137 3096 
Q 3566 2609 3566 1747 
Q 3566 888 3137 398 
Q 2709 -91 1959 -91 
Q 1206 -91 779 398 
Q 353 888 353 1747 
Q 353 2609 779 3096 
Q 1206 3584 1959 3584 
z
" transform="scale(0.015625)"/>
       <path id="DejaVuSans-6e" d="M 3513 2113 
L 3513 0 
L 2938 0 
L 2938 2094 
Q 2938 2591 2744 2837 
Q 2550 3084 2163 3084 
Q 1697 3084 1428 2787 
Q 1159 2491 1159 1978 
L 1159 0 
L 581 0 
L 581 3500 
L 1159 3500 
L 1159 2956 
Q 1366 3272 1645 3428 
Q 1925 3584 2291 3584 
Q 2894 3584 3203 3211 
Q 3513 2838 3513 2113 
z
" transform="scale(0.015625)"/>
       <path id="DejaVuSans-65" d="M 3597 1894 
L 3597 1613 
L 953 1613 
Q 991 1019 1311 708 
Q 1631 397 2203 397 
Q 2534 397 2845 478 
Q 3156 559 3463 722 
L 3463 178 
Q 3153 47 2828 -22 
Q 2503 -91 2169 -91 
Q 1331 -91 842 396 
Q 353 884 353 1716 
Q 353 2575 817 3079 
Q 1281 3584 2069 3584 
Q 2775 3584 3186 3129 
Q 3597 2675 3597 1894 
z
M 3022 2063 
Q 3016 2534 2758 2815 
Q 2500 3097 2075 3097 
Q 1594 3097 1305 2825 
Q 1016 2553 972 2059 
L 3022 2063 
z
" transform="scale(0.015625)"/>
       <path id="DejaVuSans-73" d="M 2834 3397 
L 2834 2853 
Q 2591 2978 2328 3040 
Q 2066 3103 1784 3103 
Q 1356 3103 1142 2972 
Q 928 2841 928 2578 
Q 928 2378 1081 2264 
Q 1234 2150 1697 2047 
L 1894 2003 
Q 2506 1872 2764 1633 
Q 3022 1394 3022 966 
Q 3022 478 2636 193 
Q 2250 -91 1575 -91 
Q 1294 -91 989 -36 
Q 684 19 347 128 
L 347 722 
Q 666 556 975 473 
Q 1284 391 1588 391 
Q 1994 391 2212 530 
Q 2431 669 2431 922 
Q 2431 1156 2273 1281 
Q 2116 1406 1581 1522 
L 1381 1569 
Q 847 1681 609 1914 
Q 372 2147 372 2553 
Q 372 3047 722 3315 
Q 1072 3584 1716 3584 
Q 2034 3584 2315 3537 
Q 2597 3491 2834 3397 
z
" transform="scale(0.015625)"/>
      </defs>
      <use xlink:href="#DejaVuSans-43"/>
      <use xlink:href="#DejaVuSans-68" x="69.824219"/>
      <use xlink:href="#DejaVuSans-75" x="133.203125"/>
      <use xlink:href="#DejaVuSans-63" x="196.582031"/>
      <use xlink:href="#DejaVuSans-6b" x="251.5625"/>
      <use xlink:href="#DejaVuSans-20" x="309.472656"/>
      <use xlink:href="#DejaVuSans-4a" x="341.259766"/>
      <use xlink:href="#DejaVuSans-6f" x="370.751953"/>
      <use xlink:href="#DejaVuSans-6e" x="431.933594"/>
      <use xlink:href="#DejaVuSans-65" x="495.3125"/>
      <use xlink:href="#DejaVuSans-73" x="556.835938"/>
     </g>
    </g>
   </g>
   <g id="text_2">
    <g id="patch_3">
     <path d="M 438.073615 222.532263 
L 497.316115 222.532263 
L 497.316115 205.901951 
L 438.073615 205.901951 
z
" clip-path="url(#p1ddb71b9ff)" style="fill: #ffffff; opacity: 0.7; stroke: #000000; stroke-linejoin: miter"/>
    </g>
    <g clip-path="url(#p1ddb71b9ff)">
     <!-- Friz Freleng -->
     <g transform="translate(442.033615 216.700544)scale(0.09 -0.09)">
      <defs>
       <path id="DejaVuSans-46" d="M 628 4666 
L 3309 4666 
L 3309 4134 
L 1259 4134 
L 1259 2759 
L 3109 2759 
L 3109 2228 
L 1259 2228 
L 1259 0 
L 628 0 
L 628 4666 
z
" transform="scale(0.015625)"/>
       <path id="DejaVuSans-72" d="M 2631 2963 
Q 2534 3019 2420 3045 
Q 2306 3072 2169 3072 
Q 1681 3072 1420 2755 
Q 1159 2438 1159 1844 
L 1159 0 
L 581 0 
L 581 3500 
L 1159 3500 
L 1159 2956 
Q 1341 3275 1631 3429 
Q 1922 3584 2338 3584 
Q 2397 3584 2469 3576 
Q 2541 3569 2628 3553 
L 2631 2963 
z
" transform="scale(0.015625)"/>
       <path id="DejaVuSans-69" d="M 603 3500 
L 1178 3500 
L 1178 0 
L 603 0 
L 603 3500 
z
M 603 4863 
L 1178 4863 
L 1178 4134 
L 603 4134 
L 603 4863 
z
" transform="scale(0.015625)"/>
       <path id="DejaVuSans-7a" d="M 353 3500 
L 3084 3500 
L 3084 2975 
L 922 459 
L 3084 459 
L 3084 0 
L 275 0 
L 275 525 
L 2438 3041 
L 353 3041 
L 353 3500 
z
" transform="scale(0.015625)"/>
       <path id="DejaVuSans-6c" d="M 603 4863 
L 1178 4863 
L 1178 0 
L 603 0 
L 603 4863 
z
" transform="scale(0.015625)"/>
       <path id="DejaVuSans-67" d="M 2906 1791 
Q 2906 2416 2648 2759 
Q 2391 3103 1925 3103 
Q 1463 3103 1205 2759 
Q 947 2416 947 1791 
Q 947 1169 1205 825 
Q 1463 481 1925 481 
Q 2391 481 2648 825 
Q 2906 1169 2906 1791 
z
M 3481 434 
Q 3481 -459 3084 -895 
Q 2688 -1331 1869 -1331 
Q 1566 -1331 1297 -1286 
Q 1028 -1241 775 -1147 
L 775 -588 
Q 1028 -725 1275 -790 
Q 1522 -856 1778 -856 
Q 2344 -856 2625 -561 
Q 2906 -266 2906 331 
L 2906 616 
Q 2728 306 2450 153 
Q 2172 0 1784 0 
Q 1141 0 747 490 
Q 353 981 353 1791 
Q 353 2603 747 3093 
Q 1141 3584 1784 3584 
Q 2172 3584 2450 3431 
Q 2728 3278 2906 2969 
L 2906 3500 
L 3481 3500 
L 3481 434 
z
" transform="scale(0.015625)"/>
      </defs>
      <use xlink:href="#DejaVuSans-46"/>
      <use xlink:href="#DejaVuSans-72" x="50.269531"/>
      <use xlink:href="#DejaVuSans-69" x="91.382812"/>
      <use xlink:href="#DejaVuSans-7a" x="119.166016"/>
      <use xlink:href="#DejaVuSans-20" x="171.65625"/>
      <use xlink:href="#DejaVuSans-46" x="203.443359"/>
      <use xlink:href="#DejaVuSans-72" x="253.712891"/>
      <use xlink:href="#DejaVuSans-65" x="292.576172"/>
      <use xlink:href="#DejaVuSans-6c" x="354.099609"/>
      <use xlink:href="#DejaVuSans-65" x="381.882812"/>
      <use xlink:href="#DejaVuSans-6e" x="443.40625"/>
      <use xlink:href="#DejaVuSans-67" x="506.785156"/>
     </g>
    </g>
   </g>
   <g id="text_3">
    <g id="patch_4">
     <path d="M 385.125545 153.627237 
L 448.728826 153.627237 
L 448.728826 136.996925 
L 385.125545 136.996925 
z
" clip-path="url(#p1ddb71b9ff)" style="fill: #ffffff; opacity: 0.7; stroke: #000000; stroke-linejoin: miter"/>
    </g>
    <g clip-path="url(#p1ddb71b9ff)">
     <!-- Woody Allen -->
     <g transform="translate(389.085545 147.795518)scale(0.09 -0.09)">
      <defs>
       <path id="DejaVuSans-57" d="M 213 4666 
L 850 4666 
L 1831 722 
L 2809 4666 
L 3519 4666 
L 4500 722 
L 5478 4666 
L 6119 4666 
L 4947 0 
L 4153 0 
L 3169 4050 
L 2175 0 
L 1381 0 
L 213 4666 
z
" transform="scale(0.015625)"/>
       <path id="DejaVuSans-64" d="M 2906 2969 
L 2906 4863 
L 3481 4863 
L 3481 0 
L 2906 0 
L 2906 525 
Q 2725 213 2448 61 
Q 2172 -91 1784 -91 
Q 1150 -91 751 415 
Q 353 922 353 1747 
Q 353 2572 751 3078 
Q 1150 3584 1784 3584 
Q 2172 3584 2448 3432 
Q 2725 3281 2906 2969 
z
M 947 1747 
Q 947 1113 1208 752 
Q 1469 391 1925 391 
Q 2381 391 2643 752 
Q 2906 1113 2906 1747 
Q 2906 2381 2643 2742 
Q 2381 3103 1925 3103 
Q 1469 3103 1208 2742 
Q 947 2381 947 1747 
z
" transform="scale(0.015625)"/>
       <path id="DejaVuSans-79" d="M 2059 -325 
Q 1816 -950 1584 -1140 
Q 1353 -1331 966 -1331 
L 506 -1331 
L 506 -850 
L 844 -850 
Q 1081 -850 1212 -737 
Q 1344 -625 1503 -206 
L 1606 56 
L 191 3500 
L 800 3500 
L 1894 763 
L 2988 3500 
L 3597 3500 
L 2059 -325 
z
" transform="scale(0.015625)"/>
       <path id="DejaVuSans-41" d="M 2188 4044 
L 1331 1722 
L 3047 1722 
L 2188 4044 
z
M 1831 4666 
L 2547 4666 
L 4325 0 
L 3669 0 
L 3244 1197 
L 1141 1197 
L 716 0 
L 50 0 
L 1831 4666 
z
" transform="scale(0.015625)"/>
      </defs>
      <use xlink:href="#DejaVuSans-57"/>
      <use xlink:href="#DejaVuSans-6f" x="93.001953"/>
      <use xlink:href="#DejaVuSans-6f" x="154.183594"/>
      <use xlink:href="#DejaVuSans-64" x="215.365234"/>
      <use xlink:href="#DejaVuSans-79" x="278.841797"/>
      <use xlink:href="#DejaVuSans-20" x="338.021484"/>
      <use xlink:href="#DejaVuSans-41" x="369.808594"/>
      <use xlink:href="#DejaVuSans-6c" x="438.216797"/>
      <use xlink:href="#DejaVuSans-6c" x="466"/>
      <use xlink:href="#DejaVuSans-65" x="493.783203"/>
      <use xlink:href="#DejaVuSans-6e" x="555.306641"/>
     </g>
    </g>
   </g>
   <g id="text_4">
    <g id="patch_5">
     <path d="M 305.644551 111.041599 
L 378.610645 111.041599 
L 378.610645 94.411286 
L 305.644551 94.411286 
z
" clip-path="url(#p1ddb71b9ff)" style="fill: #ffffff; opacity: 0.7; stroke: #000000; stroke-linejoin: miter"/>
    </g>
    <g clip-path="url(#p1ddb71b9ff)">
     <!-- William Hanna -->
     <g transform="translate(309.604551 105.20988)scale(0.09 -0.09)">
      <defs>
       <path id="DejaVuSans-61" d="M 2194 1759 
Q 1497 1759 1228 1600 
Q 959 1441 959 1056 
Q 959 750 1161 570 
Q 1363 391 1709 391 
Q 2188 391 2477 730 
Q 2766 1069 2766 1631 
L 2766 1759 
L 2194 1759 
z
M 3341 1997 
L 3341 0 
L 2766 0 
L 2766 531 
Q 2569 213 2275 61 
Q 1981 -91 1556 -91 
Q 1019 -91 701 211 
Q 384 513 384 1019 
Q 384 1609 779 1909 
Q 1175 2209 1959 2209 
L 2766 2209 
L 2766 2266 
Q 2766 2663 2505 2880 
Q 2244 3097 1772 3097 
Q 1472 3097 1187 3025 
Q 903 2953 641 2809 
L 641 3341 
Q 956 3463 1253 3523 
Q 1550 3584 1831 3584 
Q 2591 3584 2966 3190 
Q 3341 2797 3341 1997 
z
" transform="scale(0.015625)"/>
       <path id="DejaVuSans-6d" d="M 3328 2828 
Q 3544 3216 3844 3400 
Q 4144 3584 4550 3584 
Q 5097 3584 5394 3201 
Q 5691 2819 5691 2113 
L 5691 0 
L 5113 0 
L 5113 2094 
Q 5113 2597 4934 2840 
Q 4756 3084 4391 3084 
Q 3944 3084 3684 2787 
Q 3425 2491 3425 1978 
L 3425 0 
L 2847 0 
L 2847 2094 
Q 2847 2600 2669 2842 
Q 2491 3084 2119 3084 
Q 1678 3084 1418 2786 
Q 1159 2488 1159 1978 
L 1159 0 
L 581 0 
L 581 3500 
L 1159 3500 
L 1159 2956 
Q 1356 3278 1631 3431 
Q 1906 3584 2284 3584 
Q 2666 3584 2933 3390 
Q 3200 3197 3328 2828 
z
" transform="scale(0.015625)"/>
       <path id="DejaVuSans-48" d="M 628 4666 
L 1259 4666 
L 1259 2753 
L 3553 2753 
L 3553 4666 
L 4184 4666 
L 4184 0 
L 3553 0 
L 3553 2222 
L 1259 2222 
L 1259 0 
L 628 0 
L 628 4666 
z
" transform="scale(0.015625)"/>
      </defs>
      <use xlink:href="#DejaVuSans-57"/>
      <use xlink:href="#DejaVuSans-69" x="96.626953"/>
      <use xlink:href="#DejaVuSans-6c" x="124.410156"/>
      <use xlink:href="#DejaVuSans-6c" x="152.193359"/>
      <use xlink:href="#DejaVuSans-69" x="179.976562"/>
      <use xlink:href="#DejaVuSans-61" x="207.759766"/>
      <use xlink:href="#DejaVuSans-6d" x="269.039062"/>
      <use xlink:href="#DejaVuSans-20" x="366.451172"/>
      <use xlink:href="#DejaVuSans-48" x="398.238281"/>
      <use xlink:href="#DejaVuSans-61" x="473.433594"/>
      <use xlink:href="#DejaVuSans-6e" x="534.712891"/>
      <use xlink:href="#DejaVuSans-6e" x="598.091797"/>
      <use xlink:href="#DejaVuSans-61" x="661.470703"/>
     </g>
    </g>
   </g>
   <g id="text_5">
    <g id="patch_6">
     <path d="M 218.008441 102.138776 
L 294.450785 102.138776 
L 294.450785 85.508464 
L 218.008441 85.508464 
z
" clip-path="url(#p1ddb71b9ff)" style="fill: #ffffff; opacity: 0.7; stroke: #000000; stroke-linejoin: miter"/>
    </g>
    <g clip-path="url(#p1ddb71b9ff)">
     <!-- Joseph Barbera -->
     <g transform="translate(221.968441 96.307057)scale(0.09 -0.09)">
      <defs>
       <path id="DejaVuSans-70" d="M 1159 525 
L 1159 -1331 
L 581 -1331 
L 581 3500 
L 1159 3500 
L 1159 2969 
Q 1341 3281 1617 3432 
Q 1894 3584 2278 3584 
Q 2916 3584 3314 3078 
Q 3713 2572 3713 1747 
Q 3713 922 3314 415 
Q 2916 -91 2278 -91 
Q 1894 -91 1617 61 
Q 1341 213 1159 525 
z
M 3116 1747 
Q 3116 2381 2855 2742 
Q 2594 3103 2138 3103 
Q 1681 3103 1420 2742 
Q 1159 2381 1159 1747 
Q 1159 1113 1420 752 
Q 1681 391 2138 391 
Q 2594 391 2855 752 
Q 3116 1113 3116 1747 
z
" transform="scale(0.015625)"/>
       <path id="DejaVuSans-42" d="M 1259 2228 
L 1259 519 
L 2272 519 
Q 2781 519 3026 730 
Q 3272 941 3272 1375 
Q 3272 1813 3026 2020 
Q 2781 2228 2272 2228 
L 1259 2228 
z
M 1259 4147 
L 1259 2741 
L 2194 2741 
Q 2656 2741 2882 2914 
Q 3109 3088 3109 3444 
Q 3109 3797 2882 3972 
Q 2656 4147 2194 4147 
L 1259 4147 
z
M 628 4666 
L 2241 4666 
Q 2963 4666 3353 4366 
Q 3744 4066 3744 3513 
Q 3744 3084 3544 2831 
Q 3344 2578 2956 2516 
Q 3422 2416 3680 2098 
Q 3938 1781 3938 1306 
Q 3938 681 3513 340 
Q 3088 0 2303 0 
L 628 0 
L 628 4666 
z
" transform="scale(0.015625)"/>
       <path id="DejaVuSans-62" d="M 3116 1747 
Q 3116 2381 2855 2742 
Q 2594 3103 2138 3103 
Q 1681 3103 1420 2742 
Q 1159 2381 1159 1747 
Q 1159 1113 1420 752 
Q 1681 391 2138 391 
Q 2594 391 2855 752 
Q 3116 1113 3116 1747 
z
M 1159 2969 
Q 1341 3281 1617 3432 
Q 1894 3584 2278 3584 
Q 2916 3584 3314 3078 
Q 3713 2572 3713 1747 
Q 3713 922 3314 415 
Q 2916 -91 2278 -91 
Q 1894 -91 1617 61 
Q 1341 213 1159 525 
L 1159 0 
L 581 0 
L 581 4863 
L 1159 4863 
L 1159 2969 
z
" transform="scale(0.015625)"/>
      </defs>
      <use xlink:href="#DejaVuSans-4a"/>
      <use xlink:href="#DejaVuSans-6f" x="29.492188"/>
      <use xlink:href="#DejaVuSans-73" x="90.673828"/>
      <use xlink:href="#DejaVuSans-65" x="142.773438"/>
      <use xlink:href="#DejaVuSans-70" x="204.296875"/>
      <use xlink:href="#DejaVuSans-68" x="267.773438"/>
      <use xlink:href="#DejaVuSans-20" x="331.152344"/>
      <use xlink:href="#DejaVuSans-42" x="362.939453"/>
      <use xlink:href="#DejaVuSans-61" x="431.542969"/>
      <use xlink:href="#DejaVuSans-72" x="492.822266"/>
      <use xlink:href="#DejaVuSans-62" x="533.935547"/>
      <use xlink:href="#DejaVuSans-65" x="597.412109"/>
      <use xlink:href="#DejaVuSans-72" x="658.935547"/>
      <use xlink:href="#DejaVuSans-61" x="700.048828"/>
     </g>
    </g>
   </g>
   <g id="text_6">
    <g id="patch_7">
     <path d="M 138.239769 128.458158 
L 209.9318 128.458158 
L 209.9318 111.827845 
L 138.239769 111.827845 
z
" clip-path="url(#p1ddb71b9ff)" style="fill: #ffffff; opacity: 0.7; stroke: #000000; stroke-linejoin: miter"/>
    </g>
    <g clip-path="url(#p1ddb71b9ff)">
     <!-- Michael Curtiz -->
     <g transform="translate(142.199769 122.626439)scale(0.09 -0.09)">
      <defs>
       <path id="DejaVuSans-4d" d="M 628 4666 
L 1569 4666 
L 2759 1491 
L 3956 4666 
L 4897 4666 
L 4897 0 
L 4281 0 
L 4281 4097 
L 3078 897 
L 2444 897 
L 1241 4097 
L 1241 0 
L 628 0 
L 628 4666 
z
" transform="scale(0.015625)"/>
       <path id="DejaVuSans-74" d="M 1172 4494 
L 1172 3500 
L 2356 3500 
L 2356 3053 
L 1172 3053 
L 1172 1153 
Q 1172 725 1289 603 
Q 1406 481 1766 481 
L 2356 481 
L 2356 0 
L 1766 0 
Q 1100 0 847 248 
Q 594 497 594 1153 
L 594 3053 
L 172 3053 
L 172 3500 
L 594 3500 
L 594 4494 
L 1172 4494 
z
" transform="scale(0.015625)"/>
      </defs>
      <use xlink:href="#DejaVuSans-4d"/>
      <use xlink:href="#DejaVuSans-69" x="86.279297"/>
      <use xlink:href="#DejaVuSans-63" x="114.0625"/>
      <use xlink:href="#DejaVuSans-68" x="169.042969"/>
      <use xlink:href="#DejaVuSans-61" x="232.421875"/>
      <use xlink:href="#DejaVuSans-65" x="293.701172"/>
      <use xlink:href="#DejaVuSans-6c" x="355.224609"/>
      <use xlink:href="#DejaVuSans-20" x="383.007812"/>
      <use xlink:href="#DejaVuSans-43" x="414.794922"/>
      <use xlink:href="#DejaVuSans-75" x="484.619141"/>
      <use xlink:href="#DejaVuSans-72" x="547.998047"/>
      <use xlink:href="#DejaVuSans-74" x="589.111328"/>
      <use xlink:href="#DejaVuSans-69" x="628.320312"/>
      <use xlink:href="#DejaVuSans-7a" x="656.103516"/>
     </g>
    </g>
   </g>
   <g id="text_7">
    <g id="patch_8">
     <path d="M 67.598834 185.44887 
L 152.200241 185.44887 
L 152.200241 168.818557 
L 67.598834 168.818557 
z
" clip-path="url(#p1ddb71b9ff)" style="fill: #ffffff; opacity: 0.7; stroke: #000000; stroke-linejoin: miter"/>
    </g>
    <g clip-path="url(#p1ddb71b9ff)">
     <!-- Steven Spielberg -->
     <g transform="translate(71.558834 179.617151)scale(0.09 -0.09)">
      <defs>
       <path id="DejaVuSans-53" d="M 3425 4513 
L 3425 3897 
Q 3066 4069 2747 4153 
Q 2428 4238 2131 4238 
Q 1616 4238 1336 4038 
Q 1056 3838 1056 3469 
Q 1056 3159 1242 3001 
Q 1428 2844 1947 2747 
L 2328 2669 
Q 3034 2534 3370 2195 
Q 3706 1856 3706 1288 
Q 3706 609 3251 259 
Q 2797 -91 1919 -91 
Q 1588 -91 1214 -16 
Q 841 59 441 206 
L 441 856 
Q 825 641 1194 531 
Q 1563 422 1919 422 
Q 2459 422 2753 634 
Q 3047 847 3047 1241 
Q 3047 1584 2836 1778 
Q 2625 1972 2144 2069 
L 1759 2144 
Q 1053 2284 737 2584 
Q 422 2884 422 3419 
Q 422 4038 858 4394 
Q 1294 4750 2059 4750 
Q 2388 4750 2728 4690 
Q 3069 4631 3425 4513 
z
" transform="scale(0.015625)"/>
       <path id="DejaVuSans-76" d="M 191 3500 
L 800 3500 
L 1894 563 
L 2988 3500 
L 3597 3500 
L 2284 0 
L 1503 0 
L 191 3500 
z
" transform="scale(0.015625)"/>
      </defs>
      <use xlink:href="#DejaVuSans-53"/>
      <use xlink:href="#DejaVuSans-74" x="63.476562"/>
      <use xlink:href="#DejaVuSans-65" x="102.685547"/>
      <use xlink:href="#DejaVuSans-76" x="164.208984"/>
      <use xlink:href="#DejaVuSans-65" x="223.388672"/>
      <use xlink:href="#DejaVuSans-6e" x="284.912109"/>
      <use xlink:href="#DejaVuSans-20" x="348.291016"/>
      <use xlink:href="#DejaVuSans-53" x="380.078125"/>
      <use xlink:href="#DejaVuSans-70" x="443.554688"/>
      <use xlink:href="#DejaVuSans-69" x="507.03125"/>
      <use xlink:href="#DejaVuSans-65" x="534.814453"/>
      <use xlink:href="#DejaVuSans-6c" x="596.337891"/>
      <use xlink:href="#DejaVuSans-62" x="624.121094"/>
      <use xlink:href="#DejaVuSans-65" x="687.597656"/>
      <use xlink:href="#DejaVuSans-72" x="749.121094"/>
      <use xlink:href="#DejaVuSans-67" x="788.484375"/>
     </g>
    </g>
   </g>
   <g id="text_8">
    <g id="patch_9">
     <path d="M 34.0597 263.256725 
L 115.478762 263.256725 
L 115.478762 246.626412 
L 34.0597 246.626412 
z
" clip-path="url(#p1ddb71b9ff)" style="fill: #ffffff; opacity: 0.7; stroke: #000000; stroke-linejoin: miter"/>
    </g>
    <g clip-path="url(#p1ddb71b9ff)">
     <!-- Alfred Hitchcock -->
     <g transform="translate(38.0197 257.425006)scale(0.09 -0.09)">
      <defs>
       <path id="DejaVuSans-66" d="M 2375 4863 
L 2375 4384 
L 1825 4384 
Q 1516 4384 1395 4259 
Q 1275 4134 1275 3809 
L 1275 3500 
L 2222 3500 
L 2222 3053 
L 1275 3053 
L 1275 0 
L 697 0 
L 697 3053 
L 147 3053 
L 147 3500 
L 697 3500 
L 697 3744 
Q 697 4328 969 4595 
Q 1241 4863 1831 4863 
L 2375 4863 
z
" transform="scale(0.015625)"/>
      </defs>
      <use xlink:href="#DejaVuSans-41"/>
      <use xlink:href="#DejaVuSans-6c" x="68.408203"/>
      <use xlink:href="#DejaVuSans-66" x="96.191406"/>
      <use xlink:href="#DejaVuSans-72" x="131.396484"/>
      <use xlink:href="#DejaVuSans-65" x="170.259766"/>
      <use xlink:href="#DejaVuSans-64" x="231.783203"/>
      <use xlink:href="#DejaVuSans-20" x="295.259766"/>
      <use xlink:href="#DejaVuSans-48" x="327.046875"/>
      <use xlink:href="#DejaVuSans-69" x="402.242188"/>
      <use xlink:href="#DejaVuSans-74" x="430.025391"/>
      <use xlink:href="#DejaVuSans-63" x="469.234375"/>
      <use xlink:href="#DejaVuSans-68" x="524.214844"/>
      <use xlink:href="#DejaVuSans-63" x="587.59375"/>
      <use xlink:href="#DejaVuSans-6f" x="642.574219"/>
      <use xlink:href="#DejaVuSans-63" x="703.755859"/>
      <use xlink:href="#DejaVuSans-6b" x="758.736328"/>
     </g>
    </g>
   </g>
   <g id="text_9">
    <g id="patch_10">
     <path d="M 43.644712 348.428013 
L 105.893774 348.428013 
L 105.893774 331.797701 
L 43.644712 331.797701 
z
" clip-path="url(#p1ddb71b9ff)" style="fill: #ffffff; opacity: 0.7; stroke: #000000; stroke-linejoin: miter"/>
    </g>
    <g clip-path="url(#p1ddb71b9ff)">
     <!-- John Huston -->
     <g transform="translate(47.604712 342.596295)scale(0.09 -0.09)">
      <use xlink:href="#DejaVuSans-4a"/>
      <use xlink:href="#DejaVuSans-6f" x="29.492188"/>
      <use xlink:href="#DejaVuSans-68" x="90.673828"/>
      <use xlink:href="#DejaVuSans-6e" x="154.052734"/>
      <use xlink:href="#DejaVuSans-20" x="217.431641"/>
      <use xlink:href="#DejaVuSans-48" x="249.21875"/>
      <use xlink:href="#DejaVuSans-75" x="324.414062"/>
      <use xlink:href="#DejaVuSans-73" x="387.792969"/>
      <use xlink:href="#DejaVuSans-74" x="439.892578"/>
      <use xlink:href="#DejaVuSans-6f" x="479.101562"/>
      <use xlink:href="#DejaVuSans-6e" x="540.283203"/>
     </g>
    </g>
   </g>
   <g id="text_10">
    <g id="patch_11">
     <path d="M 80.882284 426.235844 
L 138.916816 426.235844 
L 138.916816 409.605531 
L 80.882284 409.605531 
z
" clip-path="url(#p1ddb71b9ff)" style="fill: #ffffff; opacity: 0.7; stroke: #000000; stroke-linejoin: miter"/>
    </g>
    <g clip-path="url(#p1ddb71b9ff)">
     <!-- Jules White -->
     <g transform="translate(84.842284 420.404125)scale(0.09 -0.09)">
      <use xlink:href="#DejaVuSans-4a"/>
      <use xlink:href="#DejaVuSans-75" x="29.492188"/>
      <use xlink:href="#DejaVuSans-6c" x="92.871094"/>
      <use xlink:href="#DejaVuSans-65" x="120.654297"/>
      <use xlink:href="#DejaVuSans-73" x="182.177734"/>
      <use xlink:href="#DejaVuSans-20" x="234.277344"/>
      <use xlink:href="#DejaVuSans-57" x="266.064453"/>
      <use xlink:href="#DejaVuSans-68" x="364.941406"/>
      <use xlink:href="#DejaVuSans-69" x="428.320312"/>
      <use xlink:href="#DejaVuSans-74" x="456.103516"/>
      <use xlink:href="#DejaVuSans-65" x="495.3125"/>
     </g>
    </g>
   </g>
   <g id="text_11">
    <g id="patch_12">
     <path d="M 130.887222 483.226556 
L 217.28441 483.226556 
L 217.28441 466.596243 
L 130.887222 466.596243 
z
" clip-path="url(#p1ddb71b9ff)" style="fill: #ffffff; opacity: 0.7; stroke: #000000; stroke-linejoin: miter"/>
    </g>
    <g clip-path="url(#p1ddb71b9ff)">
     <!-- Robert McKimson -->
     <g transform="translate(134.847222 477.394837)scale(0.09 -0.09)">
      <defs>
       <path id="DejaVuSans-52" d="M 2841 2188 
Q 3044 2119 3236 1894 
Q 3428 1669 3622 1275 
L 4263 0 
L 3584 0 
L 2988 1197 
Q 2756 1666 2539 1819 
Q 2322 1972 1947 1972 
L 1259 1972 
L 1259 0 
L 628 0 
L 628 4666 
L 2053 4666 
Q 2853 4666 3247 4331 
Q 3641 3997 3641 3322 
Q 3641 2881 3436 2590 
Q 3231 2300 2841 2188 
z
M 1259 4147 
L 1259 2491 
L 2053 2491 
Q 2509 2491 2742 2702 
Q 2975 2913 2975 3322 
Q 2975 3731 2742 3939 
Q 2509 4147 2053 4147 
L 1259 4147 
z
" transform="scale(0.015625)"/>
       <path id="DejaVuSans-4b" d="M 628 4666 
L 1259 4666 
L 1259 2694 
L 3353 4666 
L 4166 4666 
L 1850 2491 
L 4331 0 
L 3500 0 
L 1259 2247 
L 1259 0 
L 628 0 
L 628 4666 
z
" transform="scale(0.015625)"/>
      </defs>
      <use xlink:href="#DejaVuSans-52"/>
      <use xlink:href="#DejaVuSans-6f" x="64.982422"/>
      <use xlink:href="#DejaVuSans-62" x="126.164062"/>
      <use xlink:href="#DejaVuSans-65" x="189.640625"/>
      <use xlink:href="#DejaVuSans-72" x="251.164062"/>
      <use xlink:href="#DejaVuSans-74" x="292.277344"/>
      <use xlink:href="#DejaVuSans-20" x="331.486328"/>
      <use xlink:href="#DejaVuSans-4d" x="363.273438"/>
      <use xlink:href="#DejaVuSans-63" x="449.552734"/>
      <use xlink:href="#DejaVuSans-4b" x="504.533203"/>
      <use xlink:href="#DejaVuSans-69" x="570.109375"/>
      <use xlink:href="#DejaVuSans-6d" x="597.892578"/>
      <use xlink:href="#DejaVuSans-73" x="695.304688"/>
      <use xlink:href="#DejaVuSans-6f" x="747.404297"/>
      <use xlink:href="#DejaVuSans-6e" x="808.585938"/>
     </g>
    </g>
   </g>
   <g id="text_12">
    <g id="patch_13">
     <path d="M 218.827619 509.545925 
L 293.631682 509.545925 
L 293.631682 492.915613 
L 218.827619 492.915613 
z
" clip-path="url(#p1ddb71b9ff)" style="fill: #ffffff; opacity: 0.7; stroke: #000000; stroke-linejoin: miter"/>
    </g>
    <g clip-path="url(#p1ddb71b9ff)">
     <!-- Clint Eastwood -->
     <g transform="translate(222.787619 503.714207)scale(0.09 -0.09)">
      <defs>
       <path id="DejaVuSans-45" d="M 628 4666 
L 3578 4666 
L 3578 4134 
L 1259 4134 
L 1259 2753 
L 3481 2753 
L 3481 2222 
L 1259 2222 
L 1259 531 
L 3634 531 
L 3634 0 
L 628 0 
L 628 4666 
z
" transform="scale(0.015625)"/>
       <path id="DejaVuSans-77" d="M 269 3500 
L 844 3500 
L 1563 769 
L 2278 3500 
L 2956 3500 
L 3675 769 
L 4391 3500 
L 4966 3500 
L 4050 0 
L 3372 0 
L 2619 2869 
L 1863 0 
L 1184 0 
L 269 3500 
z
" transform="scale(0.015625)"/>
      </defs>
      <use xlink:href="#DejaVuSans-43"/>
      <use xlink:href="#DejaVuSans-6c" x="69.824219"/>
      <use xlink:href="#DejaVuSans-69" x="97.607422"/>
      <use xlink:href="#DejaVuSans-6e" x="125.390625"/>
      <use xlink:href="#DejaVuSans-74" x="188.769531"/>
      <use xlink:href="#DejaVuSans-20" x="227.978516"/>
      <use xlink:href="#DejaVuSans-45" x="259.765625"/>
      <use xlink:href="#DejaVuSans-61" x="322.949219"/>
      <use xlink:href="#DejaVuSans-73" x="384.228516"/>
      <use xlink:href="#DejaVuSans-74" x="436.328125"/>
      <use xlink:href="#DejaVuSans-77" x="475.537109"/>
      <use xlink:href="#DejaVuSans-6f" x="557.324219"/>
      <use xlink:href="#DejaVuSans-6f" x="618.505859"/>
      <use xlink:href="#DejaVuSans-64" x="679.6875"/>
     </g>
    </g>
   </g>
   <g id="text_13">
    <g id="patch_14">
     <path d="M 311.20841 500.64309 
L 373.046847 500.64309 
L 373.046847 484.012778 
L 311.20841 484.012778 
z
" clip-path="url(#p1ddb71b9ff)" style="fill: #ffffff; opacity: 0.7; stroke: #000000; stroke-linejoin: miter"/>
    </g>
    <g clip-path="url(#p1ddb71b9ff)">
     <!-- Ridley Scott -->
     <g transform="translate(315.16841 494.811372)scale(0.09 -0.09)">
      <use xlink:href="#DejaVuSans-52"/>
      <use xlink:href="#DejaVuSans-69" x="69.482422"/>
      <use xlink:href="#DejaVuSans-64" x="97.265625"/>
      <use xlink:href="#DejaVuSans-6c" x="160.742188"/>
      <use xlink:href="#DejaVuSans-65" x="188.525391"/>
      <use xlink:href="#DejaVuSans-79" x="250.048828"/>
      <use xlink:href="#DejaVuSans-20" x="309.228516"/>
      <use xlink:href="#DejaVuSans-53" x="341.015625"/>
      <use xlink:href="#DejaVuSans-63" x="404.492188"/>
      <use xlink:href="#DejaVuSans-6f" x="459.472656"/>
      <use xlink:href="#DejaVuSans-74" x="520.654297"/>
      <use xlink:href="#DejaVuSans-74" x="559.863281"/>
     </g>
    </g>
   </g>
   <g id="text_14">
    <g id="patch_15">
     <path d="M 388.137066 458.057428 
L 445.717379 458.057428 
L 445.717379 441.427115 
L 388.137066 441.427115 
z
" clip-path="url(#p1ddb71b9ff)" style="fill: #ffffff; opacity: 0.7; stroke: #000000; stroke-linejoin: miter"/>
    </g>
    <g clip-path="url(#p1ddb71b9ff)">
     <!-- Tim Burton -->
     <g transform="translate(392.097066 452.225709)scale(0.09 -0.09)">
      <defs>
       <path id="DejaVuSans-54" d="M -19 4666 
L 3928 4666 
L 3928 4134 
L 2272 4134 
L 2272 0 
L 1638 0 
L 1638 4134 
L -19 4134 
L -19 4666 
z
" transform="scale(0.015625)"/>
      </defs>
      <use xlink:href="#DejaVuSans-54"/>
      <use xlink:href="#DejaVuSans-69" x="57.958984"/>
      <use xlink:href="#DejaVuSans-6d" x="85.742188"/>
      <use xlink:href="#DejaVuSans-20" x="183.154297"/>
      <use xlink:href="#DejaVuSans-42" x="214.941406"/>
      <use xlink:href="#DejaVuSans-75" x="283.544922"/>
      <use xlink:href="#DejaVuSans-72" x="346.923828"/>
      <use xlink:href="#DejaVuSans-74" x="388.037109"/>
      <use xlink:href="#DejaVuSans-6f" x="427.246094"/>
      <use xlink:href="#DejaVuSans-6e" x="488.427734"/>
     </g>
    </g>
   </g>
   <g id="text_15">
    <g id="patch_16">
     <path d="M 420.439265 389.152408 
L 514.950515 389.152408 
L 514.950515 372.522095 
L 420.439265 372.522095 
z
" clip-path="url(#p1ddb71b9ff)" style="fill: #ffffff; opacity: 0.7; stroke: #000000; stroke-linejoin: miter"/>
    </g>
    <g clip-path="url(#p1ddb71b9ff)">
     <!-- Steven Soderbergh -->
     <g transform="translate(424.399265 383.320689)scale(0.09 -0.09)">
      <use xlink:href="#DejaVuSans-53"/>
      <use xlink:href="#DejaVuSans-74" x="63.476562"/>
      <use xlink:href="#DejaVuSans-65" x="102.685547"/>
      <use xlink:href="#DejaVuSans-76" x="164.208984"/>
      <use xlink:href="#DejaVuSans-65" x="223.388672"/>
      <use xlink:href="#DejaVuSans-6e" x="284.912109"/>
      <use xlink:href="#DejaVuSans-20" x="348.291016"/>
      <use xlink:href="#DejaVuSans-53" x="380.078125"/>
      <use xlink:href="#DejaVuSans-6f" x="443.554688"/>
      <use xlink:href="#DejaVuSans-64" x="504.736328"/>
      <use xlink:href="#DejaVuSans-65" x="568.212891"/>
      <use xlink:href="#DejaVuSans-72" x="629.736328"/>
      <use xlink:href="#DejaVuSans-62" x="670.849609"/>
      <use xlink:href="#DejaVuSans-65" x="734.326172"/>
      <use xlink:href="#DejaVuSans-72" x="795.849609"/>
      <use xlink:href="#DejaVuSans-67" x="835.212891"/>
      <use xlink:href="#DejaVuSans-68" x="898.689453"/>
     </g>
    </g>
   </g>
   <g id="text_16">
    <!-- Impactful directors for Drama genre - Importance rank: 7 -->
    <g transform="translate(116.32875 4.8)scale(0.12 -0.12)">
     <defs>
      <path id="DejaVuSans-49" d="M 628 4666 
L 1259 4666 
L 1259 0 
L 628 0 
L 628 4666 
z
" transform="scale(0.015625)"/>
      <path id="DejaVuSans-44" d="M 1259 4147 
L 1259 519 
L 2022 519 
Q 2988 519 3436 956 
Q 3884 1394 3884 2338 
Q 3884 3275 3436 3711 
Q 2988 4147 2022 4147 
L 1259 4147 
z
M 628 4666 
L 1925 4666 
Q 3281 4666 3915 4102 
Q 4550 3538 4550 2338 
Q 4550 1131 3912 565 
Q 3275 0 1925 0 
L 628 0 
L 628 4666 
z
" transform="scale(0.015625)"/>
      <path id="DejaVuSans-2d" d="M 313 2009 
L 1997 2009 
L 1997 1497 
L 313 1497 
L 313 2009 
z
" transform="scale(0.015625)"/>
      <path id="DejaVuSans-3a" d="M 750 794 
L 1409 794 
L 1409 0 
L 750 0 
L 750 794 
z
M 750 3309 
L 1409 3309 
L 1409 2516 
L 750 2516 
L 750 3309 
z
" transform="scale(0.015625)"/>
      <path id="DejaVuSans-37" d="M 525 4666 
L 3525 4666 
L 3525 4397 
L 1831 0 
L 1172 0 
L 2766 4134 
L 525 4134 
L 525 4666 
z
" transform="scale(0.015625)"/>
     </defs>
     <use xlink:href="#DejaVuSans-49"/>
     <use xlink:href="#DejaVuSans-6d" x="29.492188"/>
     <use xlink:href="#DejaVuSans-70" x="126.904297"/>
     <use xlink:href="#DejaVuSans-61" x="190.380859"/>
     <use xlink:href="#DejaVuSans-63" x="251.660156"/>
     <use xlink:href="#DejaVuSans-74" x="306.640625"/>
     <use xlink:href="#DejaVuSans-66" x="345.849609"/>
     <use xlink:href="#DejaVuSans-75" x="381.054688"/>
     <use xlink:href="#DejaVuSans-6c" x="444.433594"/>
     <use xlink:href="#DejaVuSans-20" x="472.216797"/>
     <use xlink:href="#DejaVuSans-64" x="504.003906"/>
     <use xlink:href="#DejaVuSans-69" x="567.480469"/>
     <use xlink:href="#DejaVuSans-72" x="595.263672"/>
     <use xlink:href="#DejaVuSans-65" x="634.126953"/>
     <use xlink:href="#DejaVuSans-63" x="695.650391"/>
     <use xlink:href="#DejaVuSans-74" x="750.630859"/>
     <use xlink:href="#DejaVuSans-6f" x="789.839844"/>
     <use xlink:href="#DejaVuSans-72" x="851.021484"/>
     <use xlink:href="#DejaVuSans-73" x="892.134766"/>
     <use xlink:href="#DejaVuSans-20" x="944.234375"/>
     <use xlink:href="#DejaVuSans-66" x="976.021484"/>
     <use xlink:href="#DejaVuSans-6f" x="1011.226562"/>
     <use xlink:href="#DejaVuSans-72" x="1072.408203"/>
     <use xlink:href="#DejaVuSans-20" x="1113.521484"/>
     <use xlink:href="#DejaVuSans-44" x="1145.308594"/>
     <use xlink:href="#DejaVuSans-72" x="1222.310547"/>
     <use xlink:href="#DejaVuSans-61" x="1263.423828"/>
     <use xlink:href="#DejaVuSans-6d" x="1324.703125"/>
     <use xlink:href="#DejaVuSans-61" x="1422.115234"/>
     <use xlink:href="#DejaVuSans-20" x="1483.394531"/>
     <use xlink:href="#DejaVuSans-67" x="1515.181641"/>
     <use xlink:href="#DejaVuSans-65" x="1578.658203"/>
     <use xlink:href="#DejaVuSans-6e" x="1640.181641"/>
     <use xlink:href="#DejaVuSans-72" x="1703.560547"/>
     <use xlink:href="#DejaVuSans-65" x="1742.423828"/>
     <use xlink:href="#DejaVuSans-20" x="1803.947266"/>
     <use xlink:href="#DejaVuSans-2d" x="1835.734375"/>
     <use xlink:href="#DejaVuSans-20" x="1871.818359"/>
     <use xlink:href="#DejaVuSans-49" x="1903.605469"/>
     <use xlink:href="#DejaVuSans-6d" x="1933.097656"/>
     <use xlink:href="#DejaVuSans-70" x="2030.509766"/>
     <use xlink:href="#DejaVuSans-6f" x="2093.986328"/>
     <use xlink:href="#DejaVuSans-72" x="2155.167969"/>
     <use xlink:href="#DejaVuSans-74" x="2196.28125"/>
     <use xlink:href="#DejaVuSans-61" x="2235.490234"/>
     <use xlink:href="#DejaVuSans-6e" x="2296.769531"/>
     <use xlink:href="#DejaVuSans-63" x="2360.148438"/>
     <use xlink:href="#DejaVuSans-65" x="2415.128906"/>
     <use xlink:href="#DejaVuSans-20" x="2476.652344"/>
     <use xlink:href="#DejaVuSans-72" x="2508.439453"/>
     <use xlink:href="#DejaVuSans-61" x="2549.552734"/>
     <use xlink:href="#DejaVuSans-6e" x="2610.832031"/>
     <use xlink:href="#DejaVuSans-6b" x="2674.210938"/>
     <use xlink:href="#DejaVuSans-3a" x="2732.121094"/>
     <use xlink:href="#DejaVuSans-20" x="2765.8125"/>
     <use xlink:href="#DejaVuSans-37" x="2797.599609"/>
    </g>
   </g>
  </g>
 </g>
 <defs>
  <clipPath id="p1ddb71b9ff">
   <rect x="10.8" y="10.8" width="554.4" height="554.4"/>
  </clipPath>
 </defs>
</svg>
