<?xml version="1.0" encoding="utf-8" standalone="no"?>
<!DOCTYPE svg PUBLIC "-//W3C//DTD SVG 1.1//EN"
  "http://www.w3.org/Graphics/SVG/1.1/DTD/svg11.dtd">
<svg xmlns:xlink="http://www.w3.org/1999/xlink" width="576pt" height="576pt" viewBox="0 0 576 576" xmlns="http://www.w3.org/2000/svg" version="1.1">
 <metadata>
  <rdf:RDF xmlns:dc="http://purl.org/dc/elements/1.1/" xmlns:cc="http://creativecommons.org/ns#" xmlns:rdf="http://www.w3.org/1999/02/22-rdf-syntax-ns#">
   <cc:Work>
    <dc:type rdf:resource="http://purl.org/dc/dcmitype/StillImage"/>
    <dc:date>2022-12-23T17:30:15.549969</dc:date>
    <dc:format>image/svg+xml</dc:format>
    <dc:creator>
     <cc:Agent>
      <dc:title>Matplotlib v3.5.2, https://matplotlib.org/</dc:title>
     </cc:Agent>
    </dc:creator>
   </cc:Work>
  </rdf:RDF>
 </metadata>
 <defs>
  <style type="text/css">*{stroke-linejoin: round; stroke-linecap: butt}</style>
 </defs>
 <g id="figure_1">
  <g id="patch_1">
   <path d="M 0 576 
L 576 576 
L 576 0 
L 0 0 
z
" style="fill: #ffffff"/>
  </g>
  <g id="axes_1">
   <g id="LineCollection_1">
    <path d="M 482.592348 200.793508 
L 429.89985 128.665802 
" clip-path="url(#p5115f4aa82)" style="fill: none; stroke: #000000; stroke-opacity: 0.3; stroke-width: 5"/>
   </g>
   <g id="PathCollection_1">
    <path d="M 501.230769 315.386128 
C 508.493655 315.386128 515.46005 312.500553 520.595686 307.364917 
C 525.731322 302.229281 528.616897 295.262886 528.616897 288 
C 528.616897 280.737114 525.731322 273.770719 520.595686 268.635083 
C 515.46005 263.499447 508.493655 260.613872 501.230769 260.613872 
C 493.967883 260.613872 487.001488 263.499447 481.865852 268.635083 
C 476.730217 273.770719 473.844641 280.737114 473.844641 288 
C 473.844641 295.262886 476.730217 302.229281 481.865852 307.364917 
C 487.001488 312.500553 493.967883 315.386128 501.230769 315.386128 
z
" clip-path="url(#p5115f4aa82)" style="fill: #c70039; fill-opacity: 0.99; stroke: #c70039; stroke-opacity: 0.99"/>
    <path d="M 482.592348 227.127031 
C 489.57608 227.127031 496.274716 224.352365 501.212961 219.414121 
C 506.151205 214.475877 508.925871 207.77724 508.925871 200.793508 
C 508.925871 193.809776 506.151205 187.11114 501.212961 182.172896 
C 496.274716 177.234652 489.57608 174.459985 482.592348 174.459985 
C 475.608616 174.459985 468.909979 177.234652 463.971735 182.172896 
C 459.033491 187.11114 456.258825 193.809776 456.258825 200.793508 
C 456.258825 207.77724 459.033491 214.475877 463.971735 219.414121 
C 468.909979 224.352365 475.608616 227.127031 482.592348 227.127031 
z
" clip-path="url(#p5115f4aa82)" style="fill: #c70039; fill-opacity: 0.99; stroke: #c70039; stroke-opacity: 0.99"/>
    <path d="M 429.89985 152.413186 
C 436.19773 152.413186 442.238513 149.911012 446.691786 145.457738 
C 451.14506 141.004464 453.647234 134.963682 453.647234 128.665802 
C 453.647234 122.367922 451.14506 116.327139 446.691786 111.873865 
C 442.238513 107.420592 436.19773 104.918417 429.89985 104.918417 
C 423.60197 104.918417 417.561187 107.420592 413.107913 111.873865 
C 408.65464 116.327139 406.152466 122.367922 406.152466 128.665802 
C 406.152466 134.963682 408.65464 141.004464 413.107913 145.457738 
C 417.561187 149.911012 423.60197 152.413186 429.89985 152.413186 
z
" clip-path="url(#p5115f4aa82)" style="fill: #c70039; fill-opacity: 0.99; stroke: #c70039; stroke-opacity: 0.99"/>
    <path d="M 352.264291 107.56602 
C 358.490619 107.56602 364.462771 105.092274 368.865449 100.689596 
C 373.268128 96.286917 375.741874 90.314765 375.741874 84.088438 
C 375.741874 77.86211 373.268128 71.889958 368.865449 67.48728 
C 364.462771 63.084601 358.490619 60.610855 352.264291 60.610855 
C 346.037963 60.610855 340.065812 63.084601 335.663133 67.48728 
C 331.260455 71.889958 328.786708 77.86211 328.786708 84.088438 
C 328.786708 90.314765 331.260455 96.286917 335.663133 100.689596 
C 340.065812 105.092274 346.037963 107.56602 352.264291 107.56602 
z
" clip-path="url(#p5115f4aa82)" style="fill: #c70039; fill-opacity: 0.99; stroke: #c70039; stroke-opacity: 0.99"/>
    <path d="M 263.109549 97.848744 
C 269.230307 97.848744 275.101199 95.416941 279.429229 91.088911 
C 283.757259 86.760882 286.189062 80.889989 286.189062 74.769231 
C 286.189062 68.648472 283.757259 62.77758 279.429229 58.44955 
C 275.101199 54.12152 269.230307 51.689717 263.109549 51.689717 
C 256.98879 51.689717 251.117898 54.12152 246.789868 58.44955 
C 242.461838 62.77758 240.030035 68.648472 240.030035 74.769231 
C 240.030035 80.889989 242.461838 86.760882 246.789868 91.088911 
C 251.117898 95.416941 256.98879 97.848744 263.109549 97.848744 
z
" clip-path="url(#p5115f4aa82)" style="fill: #c70039; fill-opacity: 0.99; stroke: #c70039; stroke-opacity: 0.99"/>
    <path d="M 177.851298 124.915723 
C 183.843869 124.915723 189.591806 122.534849 193.829193 118.297462 
C 198.06658 114.060075 200.447454 108.312138 200.447454 102.319567 
C 200.447454 96.326997 198.06658 90.57906 193.829193 86.341672 
C 189.591806 82.104285 183.843869 79.723412 177.851298 79.723412 
C 171.858728 79.723412 166.11079 82.104285 161.873403 86.341672 
C 157.636016 90.57906 155.255142 96.326997 155.255142 102.319567 
C 155.255142 108.312138 157.636016 114.060075 161.873403 118.297462 
C 166.11079 122.534849 171.858728 124.915723 177.851298 124.915723 
z
" clip-path="url(#p5115f4aa82)" style="fill: #c70039; fill-opacity: 0.99; stroke: #c70039; stroke-opacity: 0.99"/>
    <path d="M 111.231477 183.640875 
C 116.977141 183.640875 122.488251 181.358099 126.551049 177.295301 
C 130.613847 173.232503 132.896623 167.721393 132.896623 161.975729 
C 132.896623 156.230065 130.613847 150.718955 126.551049 146.656157 
C 122.488251 142.593359 116.977141 140.310582 111.231477 140.310582 
C 105.485813 140.310582 99.974703 142.593359 95.911905 146.656157 
C 91.849107 150.718955 89.566331 156.230065 89.566331 161.975729 
C 89.566331 167.721393 91.849107 173.232503 95.911905 177.295301 
C 99.974703 181.358099 105.485813 183.640875 111.231477 183.640875 
z
" clip-path="url(#p5115f4aa82)" style="fill: #c70039; fill-opacity: 0.99; stroke: #c70039; stroke-opacity: 0.99"/>
    <path d="M 74.769231 264.529824 
C 80.366919 264.529824 85.736094 262.305839 89.694257 258.347676 
C 93.652421 254.389512 95.876406 249.020337 95.876406 243.422649 
C 95.876406 237.824961 93.652421 232.455786 89.694257 228.497622 
C 85.736094 224.539459 80.366919 222.315474 74.769231 222.315474 
C 69.171542 222.315474 63.802367 224.539459 59.844204 228.497622 
C 55.886041 232.455786 53.662056 237.824961 53.662056 243.422649 
C 53.662056 249.020337 55.886041 254.389512 59.844204 258.347676 
C 63.802367 262.305839 69.171542 264.529824 74.769231 264.529824 
z
" clip-path="url(#p5115f4aa82)" style="fill: #c70039; fill-opacity: 0.99; stroke: #c70039; stroke-opacity: 0.99"/>
    <path d="M 74.769244 353.377913 
C 80.285607 353.377913 85.576777 351.186239 89.477435 347.285581 
C 93.378093 343.384923 95.569767 338.093753 95.569767 332.577389 
C 95.569767 327.061026 93.378093 321.769856 89.477435 317.869198 
C 85.576777 313.96854 80.285607 311.776866 74.769244 311.776866 
C 69.25288 311.776866 63.96171 313.96854 60.061052 317.869198 
C 56.160394 321.769856 53.96872 327.061026 53.96872 332.577389 
C 53.96872 338.093753 56.160394 343.384923 60.061052 347.285581 
C 63.96171 351.186239 69.25288 353.377913 74.769244 353.377913 
z
" clip-path="url(#p5115f4aa82)" style="fill: #c70039; fill-opacity: 0.99; stroke: #c70039; stroke-opacity: 0.99"/>
    <path d="M 111.23149 434.785007 
C 116.737298 434.785007 122.018343 432.597526 125.911538 428.704332 
C 129.804732 424.811138 131.992212 419.530092 131.992212 414.024284 
C 131.992212 408.518476 129.804732 403.237431 125.911538 399.344236 
C 122.018343 395.451042 116.737298 393.263561 111.23149 393.263561 
C 105.725682 393.263561 100.444636 395.451042 96.551442 399.344236 
C 92.658248 403.237431 90.470767 408.518476 90.470767 414.024284 
C 90.470767 419.530092 92.658248 424.811138 96.551442 428.704332 
C 100.444636 432.597526 105.725682 434.785007 111.23149 434.785007 
z
" clip-path="url(#p5115f4aa82)" style="fill: #c70039; fill-opacity: 0.99; stroke: #c70039; stroke-opacity: 0.99"/>
    <path d="M 177.85133 494.193829 
C 183.291543 494.193829 188.509672 492.03241 192.356483 488.185598 
C 196.203295 484.338787 198.364714 479.120659 198.364714 473.680446 
C 198.364714 468.240233 196.203295 463.022104 192.356483 459.175293 
C 188.509672 455.328481 183.291543 453.167062 177.85133 453.167062 
C 172.411117 453.167062 167.192989 455.328481 163.346177 459.175293 
C 159.499366 463.022104 157.337946 468.240233 157.337946 473.680446 
C 157.337946 479.120659 159.499366 484.338787 163.346177 488.185598 
C 167.192989 492.03241 172.411117 494.193829 177.85133 494.193829 
z
" clip-path="url(#p5115f4aa82)" style="fill: #c70039; fill-opacity: 0.99; stroke: #c70039; stroke-opacity: 0.99"/>
    <path d="M 263.109587 521.677994 
C 268.532255 521.677994 273.733554 519.523546 277.567959 515.689141 
C 281.402363 511.854736 283.556812 506.653437 283.556812 501.230769 
C 283.556812 495.808102 281.402363 490.606803 277.567959 486.772398 
C 273.733554 482.937993 268.532255 480.783544 263.109587 480.783544 
C 257.68692 480.783544 252.485621 482.937993 248.651216 486.772398 
C 244.816811 490.606803 242.662362 495.808102 242.662362 501.230769 
C 242.662362 506.653437 244.816811 511.854736 248.651216 515.689141 
C 252.485621 519.523546 257.68692 521.677994 263.109587 521.677994 
z
" clip-path="url(#p5115f4aa82)" style="fill: #c70039; fill-opacity: 0.99; stroke: #c70039; stroke-opacity: 0.99"/>
    <path d="M 352.264323 512.232528 
C 357.65351 512.232528 362.822695 510.091381 366.633425 506.280651 
C 370.444155 502.469921 372.585301 497.300736 372.585301 491.91155 
C 372.585301 486.522363 370.444155 481.353178 366.633425 477.542448 
C 362.822695 473.731718 357.65351 471.590571 352.264323 471.590571 
C 346.875137 471.590571 341.705952 473.731718 337.895222 477.542448 
C 334.084492 481.353178 331.943345 486.522363 331.943345 491.91155 
C 331.943345 497.300736 334.084492 502.469921 337.895222 506.280651 
C 341.705952 510.091381 346.875137 512.232528 352.264323 512.232528 
z
" clip-path="url(#p5115f4aa82)" style="fill: #c70039; fill-opacity: 0.99; stroke: #c70039; stroke-opacity: 0.99"/>
    <path d="M 429.899888 467.636602 
C 435.284159 467.636602 440.448629 465.497409 444.255883 461.690154 
C 448.063137 457.8829 450.20233 452.718431 450.20233 447.33416 
C 450.20233 441.949889 448.063137 436.78542 444.255883 432.978166 
C 440.448629 429.170911 435.284159 427.031718 429.899888 427.031718 
C 424.515618 427.031718 419.351148 429.170911 415.543894 432.978166 
C 411.73664 436.78542 409.597446 441.949889 409.597446 447.33416 
C 409.597446 452.718431 411.73664 457.8829 415.543894 461.690154 
C 419.351148 465.497409 424.515618 467.636602 429.899888 467.636602 
z
" clip-path="url(#p5115f4aa82)" style="fill: #c70039; fill-opacity: 0.99; stroke: #c70039; stroke-opacity: 0.99"/>
    <path d="M 482.592374 394.571376 
C 487.728009 394.571376 492.653994 392.530967 496.285437 388.899524 
C 499.91688 385.268081 501.95729 380.342096 501.95729 375.20646 
C 501.95729 370.070824 499.91688 365.144839 496.285437 361.513396 
C 492.653994 357.881953 487.728009 355.841543 482.592374 355.841543 
C 477.456738 355.841543 472.530753 357.881953 468.89931 361.513396 
C 465.267867 365.144839 463.227457 370.070824 463.227457 375.20646 
C 463.227457 380.342096 465.267867 385.268081 468.89931 388.899524 
C 472.530753 392.530967 477.456738 394.571376 482.592374 394.571376 
z
" clip-path="url(#p5115f4aa82)" style="fill: #c70039; fill-opacity: 0.99; stroke: #c70039; stroke-opacity: 0.99"/>
   </g>
   <g id="text_1">
    <g id="patch_2">
     <path d="M 469.429129 296.315156 
L 533.03241 296.315156 
L 533.03241 279.684844 
L 469.429129 279.684844 
z
" clip-path="url(#p5115f4aa82)" style="fill: #ffffff; opacity: 0.7; stroke: #000000; stroke-linejoin: miter"/>
    </g>
    <g clip-path="url(#p5115f4aa82)">
     <!-- Woody Allen -->
     <g transform="translate(473.389129 290.483437)scale(0.09 -0.09)">
      <defs>
       <path id="DejaVuSans-57" d="M 213 4666 
L 850 4666 
L 1831 722 
L 2809 4666 
L 3519 4666 
L 4500 722 
L 5478 4666 
L 6119 4666 
L 4947 0 
L 4153 0 
L 3169 4050 
L 2175 0 
L 1381 0 
L 213 4666 
z
" transform="scale(0.015625)"/>
       <path id="DejaVuSans-6f" d="M 1959 3097 
Q 1497 3097 1228 2736 
Q 959 2375 959 1747 
Q 959 1119 1226 758 
Q 1494 397 1959 397 
Q 2419 397 2687 759 
Q 2956 1122 2956 1747 
Q 2956 2369 2687 2733 
Q 2419 3097 1959 3097 
z
M 1959 3584 
Q 2709 3584 3137 3096 
Q 3566 2609 3566 1747 
Q 3566 888 3137 398 
Q 2709 -91 1959 -91 
Q 1206 -91 779 398 
Q 353 888 353 1747 
Q 353 2609 779 3096 
Q 1206 3584 1959 3584 
z
" transform="scale(0.015625)"/>
       <path id="DejaVuSans-64" d="M 2906 2969 
L 2906 4863 
L 3481 4863 
L 3481 0 
L 2906 0 
L 2906 525 
Q 2725 213 2448 61 
Q 2172 -91 1784 -91 
Q 1150 -91 751 415 
Q 353 922 353 1747 
Q 353 2572 751 3078 
Q 1150 3584 1784 3584 
Q 2172 3584 2448 3432 
Q 2725 3281 2906 2969 
z
M 947 1747 
Q 947 1113 1208 752 
Q 1469 391 1925 391 
Q 2381 391 2643 752 
Q 2906 1113 2906 1747 
Q 2906 2381 2643 2742 
Q 2381 3103 1925 3103 
Q 1469 3103 1208 2742 
Q 947 2381 947 1747 
z
" transform="scale(0.015625)"/>
       <path id="DejaVuSans-79" d="M 2059 -325 
Q 1816 -950 1584 -1140 
Q 1353 -1331 966 -1331 
L 506 -1331 
L 506 -850 
L 844 -850 
Q 1081 -850 1212 -737 
Q 1344 -625 1503 -206 
L 1606 56 
L 191 3500 
L 800 3500 
L 1894 763 
L 2988 3500 
L 3597 3500 
L 2059 -325 
z
" transform="scale(0.015625)"/>
       <path id="DejaVuSans-20" transform="scale(0.015625)"/>
       <path id="DejaVuSans-41" d="M 2188 4044 
L 1331 1722 
L 3047 1722 
L 2188 4044 
z
M 1831 4666 
L 2547 4666 
L 4325 0 
L 3669 0 
L 3244 1197 
L 1141 1197 
L 716 0 
L 50 0 
L 1831 4666 
z
" transform="scale(0.015625)"/>
       <path id="DejaVuSans-6c" d="M 603 4863 
L 1178 4863 
L 1178 0 
L 603 0 
L 603 4863 
z
" transform="scale(0.015625)"/>
       <path id="DejaVuSans-65" d="M 3597 1894 
L 3597 1613 
L 953 1613 
Q 991 1019 1311 708 
Q 1631 397 2203 397 
Q 2534 397 2845 478 
Q 3156 559 3463 722 
L 3463 178 
Q 3153 47 2828 -22 
Q 2503 -91 2169 -91 
Q 1331 -91 842 396 
Q 353 884 353 1716 
Q 353 2575 817 3079 
Q 1281 3584 2069 3584 
Q 2775 3584 3186 3129 
Q 3597 2675 3597 1894 
z
M 3022 2063 
Q 3016 2534 2758 2815 
Q 2500 3097 2075 3097 
Q 1594 3097 1305 2825 
Q 1016 2553 972 2059 
L 3022 2063 
z
" transform="scale(0.015625)"/>
       <path id="DejaVuSans-6e" d="M 3513 2113 
L 3513 0 
L 2938 0 
L 2938 2094 
Q 2938 2591 2744 2837 
Q 2550 3084 2163 3084 
Q 1697 3084 1428 2787 
Q 1159 2491 1159 1978 
L 1159 0 
L 581 0 
L 581 3500 
L 1159 3500 
L 1159 2956 
Q 1366 3272 1645 3428 
Q 1925 3584 2291 3584 
Q 2894 3584 3203 3211 
Q 3513 2838 3513 2113 
z
" transform="scale(0.015625)"/>
      </defs>
      <use xlink:href="#DejaVuSans-57"/>
      <use xlink:href="#DejaVuSans-6f" x="93.001953"/>
      <use xlink:href="#DejaVuSans-6f" x="154.183594"/>
      <use xlink:href="#DejaVuSans-64" x="215.365234"/>
      <use xlink:href="#DejaVuSans-79" x="278.841797"/>
      <use xlink:href="#DejaVuSans-20" x="338.021484"/>
      <use xlink:href="#DejaVuSans-41" x="369.808594"/>
      <use xlink:href="#DejaVuSans-6c" x="438.216797"/>
      <use xlink:href="#DejaVuSans-6c" x="466"/>
      <use xlink:href="#DejaVuSans-65" x="493.783203"/>
      <use xlink:href="#DejaVuSans-6e" x="555.306641"/>
     </g>
    </g>
   </g>
   <g id="text_2">
    <g id="patch_3">
     <path d="M 451.23016 209.108665 
L 513.954535 209.108665 
L 513.954535 192.478352 
L 451.23016 192.478352 
z
" clip-path="url(#p5115f4aa82)" style="fill: #ffffff; opacity: 0.7; stroke: #000000; stroke-linejoin: miter"/>
    </g>
    <g clip-path="url(#p5115f4aa82)">
     <!-- Chuck Jones -->
     <g transform="translate(455.19016 203.276946)scale(0.09 -0.09)">
      <defs>
       <path id="DejaVuSans-43" d="M 4122 4306 
L 4122 3641 
Q 3803 3938 3442 4084 
Q 3081 4231 2675 4231 
Q 1875 4231 1450 3742 
Q 1025 3253 1025 2328 
Q 1025 1406 1450 917 
Q 1875 428 2675 428 
Q 3081 428 3442 575 
Q 3803 722 4122 1019 
L 4122 359 
Q 3791 134 3420 21 
Q 3050 -91 2638 -91 
Q 1578 -91 968 557 
Q 359 1206 359 2328 
Q 359 3453 968 4101 
Q 1578 4750 2638 4750 
Q 3056 4750 3426 4639 
Q 3797 4528 4122 4306 
z
" transform="scale(0.015625)"/>
       <path id="DejaVuSans-68" d="M 3513 2113 
L 3513 0 
L 2938 0 
L 2938 2094 
Q 2938 2591 2744 2837 
Q 2550 3084 2163 3084 
Q 1697 3084 1428 2787 
Q 1159 2491 1159 1978 
L 1159 0 
L 581 0 
L 581 4863 
L 1159 4863 
L 1159 2956 
Q 1366 3272 1645 3428 
Q 1925 3584 2291 3584 
Q 2894 3584 3203 3211 
Q 3513 2838 3513 2113 
z
" transform="scale(0.015625)"/>
       <path id="DejaVuSans-75" d="M 544 1381 
L 544 3500 
L 1119 3500 
L 1119 1403 
Q 1119 906 1312 657 
Q 1506 409 1894 409 
Q 2359 409 2629 706 
Q 2900 1003 2900 1516 
L 2900 3500 
L 3475 3500 
L 3475 0 
L 2900 0 
L 2900 538 
Q 2691 219 2414 64 
Q 2138 -91 1772 -91 
Q 1169 -91 856 284 
Q 544 659 544 1381 
z
M 1991 3584 
L 1991 3584 
z
" transform="scale(0.015625)"/>
       <path id="DejaVuSans-63" d="M 3122 3366 
L 3122 2828 
Q 2878 2963 2633 3030 
Q 2388 3097 2138 3097 
Q 1578 3097 1268 2742 
Q 959 2388 959 1747 
Q 959 1106 1268 751 
Q 1578 397 2138 397 
Q 2388 397 2633 464 
Q 2878 531 3122 666 
L 3122 134 
Q 2881 22 2623 -34 
Q 2366 -91 2075 -91 
Q 1284 -91 818 406 
Q 353 903 353 1747 
Q 353 2603 823 3093 
Q 1294 3584 2113 3584 
Q 2378 3584 2631 3529 
Q 2884 3475 3122 3366 
z
" transform="scale(0.015625)"/>
       <path id="DejaVuSans-6b" d="M 581 4863 
L 1159 4863 
L 1159 1991 
L 2875 3500 
L 3609 3500 
L 1753 1863 
L 3688 0 
L 2938 0 
L 1159 1709 
L 1159 0 
L 581 0 
L 581 4863 
z
" transform="scale(0.015625)"/>
       <path id="DejaVuSans-4a" d="M 628 4666 
L 1259 4666 
L 1259 325 
Q 1259 -519 939 -900 
Q 619 -1281 -91 -1281 
L -331 -1281 
L -331 -750 
L -134 -750 
Q 284 -750 456 -515 
Q 628 -281 628 325 
L 628 4666 
z
" transform="scale(0.015625)"/>
       <path id="DejaVuSans-73" d="M 2834 3397 
L 2834 2853 
Q 2591 2978 2328 3040 
Q 2066 3103 1784 3103 
Q 1356 3103 1142 2972 
Q 928 2841 928 2578 
Q 928 2378 1081 2264 
Q 1234 2150 1697 2047 
L 1894 2003 
Q 2506 1872 2764 1633 
Q 3022 1394 3022 966 
Q 3022 478 2636 193 
Q 2250 -91 1575 -91 
Q 1294 -91 989 -36 
Q 684 19 347 128 
L 347 722 
Q 666 556 975 473 
Q 1284 391 1588 391 
Q 1994 391 2212 530 
Q 2431 669 2431 922 
Q 2431 1156 2273 1281 
Q 2116 1406 1581 1522 
L 1381 1569 
Q 847 1681 609 1914 
Q 372 2147 372 2553 
Q 372 3047 722 3315 
Q 1072 3584 1716 3584 
Q 2034 3584 2315 3537 
Q 2597 3491 2834 3397 
z
" transform="scale(0.015625)"/>
      </defs>
      <use xlink:href="#DejaVuSans-43"/>
      <use xlink:href="#DejaVuSans-68" x="69.824219"/>
      <use xlink:href="#DejaVuSans-75" x="133.203125"/>
      <use xlink:href="#DejaVuSans-63" x="196.582031"/>
      <use xlink:href="#DejaVuSans-6b" x="251.5625"/>
      <use xlink:href="#DejaVuSans-20" x="309.472656"/>
      <use xlink:href="#DejaVuSans-4a" x="341.259766"/>
      <use xlink:href="#DejaVuSans-6f" x="370.751953"/>
      <use xlink:href="#DejaVuSans-6e" x="431.933594"/>
      <use xlink:href="#DejaVuSans-65" x="495.3125"/>
      <use xlink:href="#DejaVuSans-73" x="556.835938"/>
     </g>
    </g>
   </g>
   <g id="text_3">
    <g id="patch_4">
     <path d="M 400.2786 136.980958 
L 459.5211 136.980958 
L 459.5211 120.350645 
L 400.2786 120.350645 
z
" clip-path="url(#p5115f4aa82)" style="fill: #ffffff; opacity: 0.7; stroke: #000000; stroke-linejoin: miter"/>
    </g>
    <g clip-path="url(#p5115f4aa82)">
     <!-- Friz Freleng -->
     <g transform="translate(404.2386 131.149239)scale(0.09 -0.09)">
      <defs>
       <path id="DejaVuSans-46" d="M 628 4666 
L 3309 4666 
L 3309 4134 
L 1259 4134 
L 1259 2759 
L 3109 2759 
L 3109 2228 
L 1259 2228 
L 1259 0 
L 628 0 
L 628 4666 
z
" transform="scale(0.015625)"/>
       <path id="DejaVuSans-72" d="M 2631 2963 
Q 2534 3019 2420 3045 
Q 2306 3072 2169 3072 
Q 1681 3072 1420 2755 
Q 1159 2438 1159 1844 
L 1159 0 
L 581 0 
L 581 3500 
L 1159 3500 
L 1159 2956 
Q 1341 3275 1631 3429 
Q 1922 3584 2338 3584 
Q 2397 3584 2469 3576 
Q 2541 3569 2628 3553 
L 2631 2963 
z
" transform="scale(0.015625)"/>
       <path id="DejaVuSans-69" d="M 603 3500 
L 1178 3500 
L 1178 0 
L 603 0 
L 603 3500 
z
M 603 4863 
L 1178 4863 
L 1178 4134 
L 603 4134 
L 603 4863 
z
" transform="scale(0.015625)"/>
       <path id="DejaVuSans-7a" d="M 353 3500 
L 3084 3500 
L 3084 2975 
L 922 459 
L 3084 459 
L 3084 0 
L 275 0 
L 275 525 
L 2438 3041 
L 353 3041 
L 353 3500 
z
" transform="scale(0.015625)"/>
       <path id="DejaVuSans-67" d="M 2906 1791 
Q 2906 2416 2648 2759 
Q 2391 3103 1925 3103 
Q 1463 3103 1205 2759 
Q 947 2416 947 1791 
Q 947 1169 1205 825 
Q 1463 481 1925 481 
Q 2391 481 2648 825 
Q 2906 1169 2906 1791 
z
M 3481 434 
Q 3481 -459 3084 -895 
Q 2688 -1331 1869 -1331 
Q 1566 -1331 1297 -1286 
Q 1028 -1241 775 -1147 
L 775 -588 
Q 1028 -725 1275 -790 
Q 1522 -856 1778 -856 
Q 2344 -856 2625 -561 
Q 2906 -266 2906 331 
L 2906 616 
Q 2728 306 2450 153 
Q 2172 0 1784 0 
Q 1141 0 747 490 
Q 353 981 353 1791 
Q 353 2603 747 3093 
Q 1141 3584 1784 3584 
Q 2172 3584 2450 3431 
Q 2728 3278 2906 2969 
L 2906 3500 
L 3481 3500 
L 3481 434 
z
" transform="scale(0.015625)"/>
      </defs>
      <use xlink:href="#DejaVuSans-46"/>
      <use xlink:href="#DejaVuSans-72" x="50.269531"/>
      <use xlink:href="#DejaVuSans-69" x="91.382812"/>
      <use xlink:href="#DejaVuSans-7a" x="119.166016"/>
      <use xlink:href="#DejaVuSans-20" x="171.65625"/>
      <use xlink:href="#DejaVuSans-46" x="203.443359"/>
      <use xlink:href="#DejaVuSans-72" x="253.712891"/>
      <use xlink:href="#DejaVuSans-65" x="292.576172"/>
      <use xlink:href="#DejaVuSans-6c" x="354.099609"/>
      <use xlink:href="#DejaVuSans-65" x="381.882812"/>
      <use xlink:href="#DejaVuSans-6e" x="443.40625"/>
      <use xlink:href="#DejaVuSans-67" x="506.785156"/>
     </g>
    </g>
   </g>
   <g id="text_4">
    <g id="patch_5">
     <path d="M 311.83601 92.403594 
L 392.692572 92.403594 
L 392.692572 75.773281 
L 311.83601 75.773281 
z
" clip-path="url(#p5115f4aa82)" style="fill: #ffffff; opacity: 0.7; stroke: #000000; stroke-linejoin: miter"/>
    </g>
    <g clip-path="url(#p5115f4aa82)">
     <!-- Carlos Saldanha -->
     <g transform="translate(315.79601 86.571875)scale(0.09 -0.09)">
      <defs>
       <path id="DejaVuSans-61" d="M 2194 1759 
Q 1497 1759 1228 1600 
Q 959 1441 959 1056 
Q 959 750 1161 570 
Q 1363 391 1709 391 
Q 2188 391 2477 730 
Q 2766 1069 2766 1631 
L 2766 1759 
L 2194 1759 
z
M 3341 1997 
L 3341 0 
L 2766 0 
L 2766 531 
Q 2569 213 2275 61 
Q 1981 -91 1556 -91 
Q 1019 -91 701 211 
Q 384 513 384 1019 
Q 384 1609 779 1909 
Q 1175 2209 1959 2209 
L 2766 2209 
L 2766 2266 
Q 2766 2663 2505 2880 
Q 2244 3097 1772 3097 
Q 1472 3097 1187 3025 
Q 903 2953 641 2809 
L 641 3341 
Q 956 3463 1253 3523 
Q 1550 3584 1831 3584 
Q 2591 3584 2966 3190 
Q 3341 2797 3341 1997 
z
" transform="scale(0.015625)"/>
       <path id="DejaVuSans-53" d="M 3425 4513 
L 3425 3897 
Q 3066 4069 2747 4153 
Q 2428 4238 2131 4238 
Q 1616 4238 1336 4038 
Q 1056 3838 1056 3469 
Q 1056 3159 1242 3001 
Q 1428 2844 1947 2747 
L 2328 2669 
Q 3034 2534 3370 2195 
Q 3706 1856 3706 1288 
Q 3706 609 3251 259 
Q 2797 -91 1919 -91 
Q 1588 -91 1214 -16 
Q 841 59 441 206 
L 441 856 
Q 825 641 1194 531 
Q 1563 422 1919 422 
Q 2459 422 2753 634 
Q 3047 847 3047 1241 
Q 3047 1584 2836 1778 
Q 2625 1972 2144 2069 
L 1759 2144 
Q 1053 2284 737 2584 
Q 422 2884 422 3419 
Q 422 4038 858 4394 
Q 1294 4750 2059 4750 
Q 2388 4750 2728 4690 
Q 3069 4631 3425 4513 
z
" transform="scale(0.015625)"/>
      </defs>
      <use xlink:href="#DejaVuSans-43"/>
      <use xlink:href="#DejaVuSans-61" x="69.824219"/>
      <use xlink:href="#DejaVuSans-72" x="131.103516"/>
      <use xlink:href="#DejaVuSans-6c" x="172.216797"/>
      <use xlink:href="#DejaVuSans-6f" x="200"/>
      <use xlink:href="#DejaVuSans-73" x="261.181641"/>
      <use xlink:href="#DejaVuSans-20" x="313.28125"/>
      <use xlink:href="#DejaVuSans-53" x="345.068359"/>
      <use xlink:href="#DejaVuSans-61" x="408.544922"/>
      <use xlink:href="#DejaVuSans-6c" x="469.824219"/>
      <use xlink:href="#DejaVuSans-64" x="497.607422"/>
      <use xlink:href="#DejaVuSans-61" x="561.083984"/>
      <use xlink:href="#DejaVuSans-6e" x="622.363281"/>
      <use xlink:href="#DejaVuSans-68" x="685.742188"/>
      <use xlink:href="#DejaVuSans-61" x="749.121094"/>
     </g>
    </g>
   </g>
   <g id="text_5">
    <g id="patch_6">
     <path d="M 222.400017 83.084387 
L 303.81908 83.084387 
L 303.81908 66.454075 
L 222.400017 66.454075 
z
" clip-path="url(#p5115f4aa82)" style="fill: #ffffff; opacity: 0.7; stroke: #000000; stroke-linejoin: miter"/>
    </g>
    <g clip-path="url(#p5115f4aa82)">
     <!-- Alfred Hitchcock -->
     <g transform="translate(226.360017 77.252668)scale(0.09 -0.09)">
      <defs>
       <path id="DejaVuSans-66" d="M 2375 4863 
L 2375 4384 
L 1825 4384 
Q 1516 4384 1395 4259 
Q 1275 4134 1275 3809 
L 1275 3500 
L 2222 3500 
L 2222 3053 
L 1275 3053 
L 1275 0 
L 697 0 
L 697 3053 
L 147 3053 
L 147 3500 
L 697 3500 
L 697 3744 
Q 697 4328 969 4595 
Q 1241 4863 1831 4863 
L 2375 4863 
z
" transform="scale(0.015625)"/>
       <path id="DejaVuSans-48" d="M 628 4666 
L 1259 4666 
L 1259 2753 
L 3553 2753 
L 3553 4666 
L 4184 4666 
L 4184 0 
L 3553 0 
L 3553 2222 
L 1259 2222 
L 1259 0 
L 628 0 
L 628 4666 
z
" transform="scale(0.015625)"/>
       <path id="DejaVuSans-74" d="M 1172 4494 
L 1172 3500 
L 2356 3500 
L 2356 3053 
L 1172 3053 
L 1172 1153 
Q 1172 725 1289 603 
Q 1406 481 1766 481 
L 2356 481 
L 2356 0 
L 1766 0 
Q 1100 0 847 248 
Q 594 497 594 1153 
L 594 3053 
L 172 3053 
L 172 3500 
L 594 3500 
L 594 4494 
L 1172 4494 
z
" transform="scale(0.015625)"/>
      </defs>
      <use xlink:href="#DejaVuSans-41"/>
      <use xlink:href="#DejaVuSans-6c" x="68.408203"/>
      <use xlink:href="#DejaVuSans-66" x="96.191406"/>
      <use xlink:href="#DejaVuSans-72" x="131.396484"/>
      <use xlink:href="#DejaVuSans-65" x="170.259766"/>
      <use xlink:href="#DejaVuSans-64" x="231.783203"/>
      <use xlink:href="#DejaVuSans-20" x="295.259766"/>
      <use xlink:href="#DejaVuSans-48" x="327.046875"/>
      <use xlink:href="#DejaVuSans-69" x="402.242188"/>
      <use xlink:href="#DejaVuSans-74" x="430.025391"/>
      <use xlink:href="#DejaVuSans-63" x="469.234375"/>
      <use xlink:href="#DejaVuSans-68" x="524.214844"/>
      <use xlink:href="#DejaVuSans-63" x="587.59375"/>
      <use xlink:href="#DejaVuSans-6f" x="642.574219"/>
      <use xlink:href="#DejaVuSans-63" x="703.755859"/>
      <use xlink:href="#DejaVuSans-6b" x="758.736328"/>
     </g>
    </g>
   </g>
   <g id="text_6">
    <g id="patch_7">
     <path d="M 140.449267 110.634724 
L 215.253329 110.634724 
L 215.253329 94.004411 
L 140.449267 94.004411 
z
" clip-path="url(#p5115f4aa82)" style="fill: #ffffff; opacity: 0.7; stroke: #000000; stroke-linejoin: miter"/>
    </g>
    <g clip-path="url(#p5115f4aa82)">
     <!-- Clint Eastwood -->
     <g transform="translate(144.409267 104.803005)scale(0.09 -0.09)">
      <defs>
       <path id="DejaVuSans-45" d="M 628 4666 
L 3578 4666 
L 3578 4134 
L 1259 4134 
L 1259 2753 
L 3481 2753 
L 3481 2222 
L 1259 2222 
L 1259 531 
L 3634 531 
L 3634 0 
L 628 0 
L 628 4666 
z
" transform="scale(0.015625)"/>
       <path id="DejaVuSans-77" d="M 269 3500 
L 844 3500 
L 1563 769 
L 2278 3500 
L 2956 3500 
L 3675 769 
L 4391 3500 
L 4966 3500 
L 4050 0 
L 3372 0 
L 2619 2869 
L 1863 0 
L 1184 0 
L 269 3500 
z
" transform="scale(0.015625)"/>
      </defs>
      <use xlink:href="#DejaVuSans-43"/>
      <use xlink:href="#DejaVuSans-6c" x="69.824219"/>
      <use xlink:href="#DejaVuSans-69" x="97.607422"/>
      <use xlink:href="#DejaVuSans-6e" x="125.390625"/>
      <use xlink:href="#DejaVuSans-74" x="188.769531"/>
      <use xlink:href="#DejaVuSans-20" x="227.978516"/>
      <use xlink:href="#DejaVuSans-45" x="259.765625"/>
      <use xlink:href="#DejaVuSans-61" x="322.949219"/>
      <use xlink:href="#DejaVuSans-73" x="384.228516"/>
      <use xlink:href="#DejaVuSans-74" x="436.328125"/>
      <use xlink:href="#DejaVuSans-77" x="475.537109"/>
      <use xlink:href="#DejaVuSans-6f" x="557.324219"/>
      <use xlink:href="#DejaVuSans-6f" x="618.505859"/>
      <use xlink:href="#DejaVuSans-64" x="679.6875"/>
     </g>
    </g>
   </g>
   <g id="text_7">
    <g id="patch_8">
     <path d="M 72.923118 170.290885 
L 149.539836 170.290885 
L 149.539836 153.660572 
L 72.923118 153.660572 
z
" clip-path="url(#p5115f4aa82)" style="fill: #ffffff; opacity: 0.7; stroke: #000000; stroke-linejoin: miter"/>
    </g>
    <g clip-path="url(#p5115f4aa82)">
     <!-- Richard Thorpe -->
     <g transform="translate(76.883118 164.459166)scale(0.09 -0.09)">
      <defs>
       <path id="DejaVuSans-52" d="M 2841 2188 
Q 3044 2119 3236 1894 
Q 3428 1669 3622 1275 
L 4263 0 
L 3584 0 
L 2988 1197 
Q 2756 1666 2539 1819 
Q 2322 1972 1947 1972 
L 1259 1972 
L 1259 0 
L 628 0 
L 628 4666 
L 2053 4666 
Q 2853 4666 3247 4331 
Q 3641 3997 3641 3322 
Q 3641 2881 3436 2590 
Q 3231 2300 2841 2188 
z
M 1259 4147 
L 1259 2491 
L 2053 2491 
Q 2509 2491 2742 2702 
Q 2975 2913 2975 3322 
Q 2975 3731 2742 3939 
Q 2509 4147 2053 4147 
L 1259 4147 
z
" transform="scale(0.015625)"/>
       <path id="DejaVuSans-54" d="M -19 4666 
L 3928 4666 
L 3928 4134 
L 2272 4134 
L 2272 0 
L 1638 0 
L 1638 4134 
L -19 4134 
L -19 4666 
z
" transform="scale(0.015625)"/>
       <path id="DejaVuSans-70" d="M 1159 525 
L 1159 -1331 
L 581 -1331 
L 581 3500 
L 1159 3500 
L 1159 2969 
Q 1341 3281 1617 3432 
Q 1894 3584 2278 3584 
Q 2916 3584 3314 3078 
Q 3713 2572 3713 1747 
Q 3713 922 3314 415 
Q 2916 -91 2278 -91 
Q 1894 -91 1617 61 
Q 1341 213 1159 525 
z
M 3116 1747 
Q 3116 2381 2855 2742 
Q 2594 3103 2138 3103 
Q 1681 3103 1420 2742 
Q 1159 2381 1159 1747 
Q 1159 1113 1420 752 
Q 1681 391 2138 391 
Q 2594 391 2855 752 
Q 3116 1113 3116 1747 
z
" transform="scale(0.015625)"/>
      </defs>
      <use xlink:href="#DejaVuSans-52"/>
      <use xlink:href="#DejaVuSans-69" x="69.482422"/>
      <use xlink:href="#DejaVuSans-63" x="97.265625"/>
      <use xlink:href="#DejaVuSans-68" x="152.246094"/>
      <use xlink:href="#DejaVuSans-61" x="215.625"/>
      <use xlink:href="#DejaVuSans-72" x="276.904297"/>
      <use xlink:href="#DejaVuSans-64" x="316.267578"/>
      <use xlink:href="#DejaVuSans-20" x="379.744141"/>
      <use xlink:href="#DejaVuSans-54" x="411.53125"/>
      <use xlink:href="#DejaVuSans-68" x="472.615234"/>
      <use xlink:href="#DejaVuSans-6f" x="535.994141"/>
      <use xlink:href="#DejaVuSans-72" x="597.175781"/>
      <use xlink:href="#DejaVuSans-70" x="638.289062"/>
      <use xlink:href="#DejaVuSans-65" x="701.765625"/>
     </g>
    </g>
   </g>
   <g id="text_8">
    <g id="patch_9">
     <path d="M 32.783528 251.737805 
L 116.754934 251.737805 
L 116.754934 235.107493 
L 32.783528 235.107493 
z
" clip-path="url(#p5115f4aa82)" style="fill: #ffffff; opacity: 0.7; stroke: #000000; stroke-linejoin: miter"/>
    </g>
    <g clip-path="url(#p5115f4aa82)">
     <!-- Robert Zemeckis -->
     <g transform="translate(36.743528 245.906086)scale(0.09 -0.09)">
      <defs>
       <path id="DejaVuSans-62" d="M 3116 1747 
Q 3116 2381 2855 2742 
Q 2594 3103 2138 3103 
Q 1681 3103 1420 2742 
Q 1159 2381 1159 1747 
Q 1159 1113 1420 752 
Q 1681 391 2138 391 
Q 2594 391 2855 752 
Q 3116 1113 3116 1747 
z
M 1159 2969 
Q 1341 3281 1617 3432 
Q 1894 3584 2278 3584 
Q 2916 3584 3314 3078 
Q 3713 2572 3713 1747 
Q 3713 922 3314 415 
Q 2916 -91 2278 -91 
Q 1894 -91 1617 61 
Q 1341 213 1159 525 
L 1159 0 
L 581 0 
L 581 4863 
L 1159 4863 
L 1159 2969 
z
" transform="scale(0.015625)"/>
       <path id="DejaVuSans-5a" d="M 359 4666 
L 4025 4666 
L 4025 4184 
L 1075 531 
L 4097 531 
L 4097 0 
L 288 0 
L 288 481 
L 3238 4134 
L 359 4134 
L 359 4666 
z
" transform="scale(0.015625)"/>
       <path id="DejaVuSans-6d" d="M 3328 2828 
Q 3544 3216 3844 3400 
Q 4144 3584 4550 3584 
Q 5097 3584 5394 3201 
Q 5691 2819 5691 2113 
L 5691 0 
L 5113 0 
L 5113 2094 
Q 5113 2597 4934 2840 
Q 4756 3084 4391 3084 
Q 3944 3084 3684 2787 
Q 3425 2491 3425 1978 
L 3425 0 
L 2847 0 
L 2847 2094 
Q 2847 2600 2669 2842 
Q 2491 3084 2119 3084 
Q 1678 3084 1418 2786 
Q 1159 2488 1159 1978 
L 1159 0 
L 581 0 
L 581 3500 
L 1159 3500 
L 1159 2956 
Q 1356 3278 1631 3431 
Q 1906 3584 2284 3584 
Q 2666 3584 2933 3390 
Q 3200 3197 3328 2828 
z
" transform="scale(0.015625)"/>
      </defs>
      <use xlink:href="#DejaVuSans-52"/>
      <use xlink:href="#DejaVuSans-6f" x="64.982422"/>
      <use xlink:href="#DejaVuSans-62" x="126.164062"/>
      <use xlink:href="#DejaVuSans-65" x="189.640625"/>
      <use xlink:href="#DejaVuSans-72" x="251.164062"/>
      <use xlink:href="#DejaVuSans-74" x="292.277344"/>
      <use xlink:href="#DejaVuSans-20" x="331.486328"/>
      <use xlink:href="#DejaVuSans-5a" x="363.273438"/>
      <use xlink:href="#DejaVuSans-65" x="431.779297"/>
      <use xlink:href="#DejaVuSans-6d" x="493.302734"/>
      <use xlink:href="#DejaVuSans-65" x="590.714844"/>
      <use xlink:href="#DejaVuSans-63" x="652.238281"/>
      <use xlink:href="#DejaVuSans-6b" x="707.21875"/>
      <use xlink:href="#DejaVuSans-69" x="765.128906"/>
      <use xlink:href="#DejaVuSans-73" x="792.912109"/>
     </g>
    </g>
   </g>
   <g id="text_9">
    <g id="patch_10">
     <path d="M 43.646119 340.892546 
L 105.892369 340.892546 
L 105.892369 324.262233 
L 43.646119 324.262233 
z
" clip-path="url(#p5115f4aa82)" style="fill: #ffffff; opacity: 0.7; stroke: #000000; stroke-linejoin: miter"/>
    </g>
    <g clip-path="url(#p5115f4aa82)">
     <!-- Ron Howard -->
     <g transform="translate(47.606119 335.060827)scale(0.09 -0.09)">
      <use xlink:href="#DejaVuSans-52"/>
      <use xlink:href="#DejaVuSans-6f" x="64.982422"/>
      <use xlink:href="#DejaVuSans-6e" x="126.164062"/>
      <use xlink:href="#DejaVuSans-20" x="189.542969"/>
      <use xlink:href="#DejaVuSans-48" x="221.330078"/>
      <use xlink:href="#DejaVuSans-6f" x="296.525391"/>
      <use xlink:href="#DejaVuSans-77" x="357.707031"/>
      <use xlink:href="#DejaVuSans-61" x="439.494141"/>
      <use xlink:href="#DejaVuSans-72" x="500.773438"/>
      <use xlink:href="#DejaVuSans-64" x="540.136719"/>
     </g>
    </g>
   </g>
   <g id="text_10">
    <g id="patch_11">
     <path d="M 68.930787 422.33944 
L 153.532193 422.33944 
L 153.532193 405.709128 
L 68.930787 405.709128 
z
" clip-path="url(#p5115f4aa82)" style="fill: #ffffff; opacity: 0.7; stroke: #000000; stroke-linejoin: miter"/>
    </g>
    <g clip-path="url(#p5115f4aa82)">
     <!-- Steven Spielberg -->
     <g transform="translate(72.890787 416.507722)scale(0.09 -0.09)">
      <defs>
       <path id="DejaVuSans-76" d="M 191 3500 
L 800 3500 
L 1894 563 
L 2988 3500 
L 3597 3500 
L 2284 0 
L 1503 0 
L 191 3500 
z
" transform="scale(0.015625)"/>
      </defs>
      <use xlink:href="#DejaVuSans-53"/>
      <use xlink:href="#DejaVuSans-74" x="63.476562"/>
      <use xlink:href="#DejaVuSans-65" x="102.685547"/>
      <use xlink:href="#DejaVuSans-76" x="164.208984"/>
      <use xlink:href="#DejaVuSans-65" x="223.388672"/>
      <use xlink:href="#DejaVuSans-6e" x="284.912109"/>
      <use xlink:href="#DejaVuSans-20" x="348.291016"/>
      <use xlink:href="#DejaVuSans-53" x="380.078125"/>
      <use xlink:href="#DejaVuSans-70" x="443.554688"/>
      <use xlink:href="#DejaVuSans-69" x="507.03125"/>
      <use xlink:href="#DejaVuSans-65" x="534.814453"/>
      <use xlink:href="#DejaVuSans-6c" x="596.337891"/>
      <use xlink:href="#DejaVuSans-62" x="624.121094"/>
      <use xlink:href="#DejaVuSans-65" x="687.597656"/>
      <use xlink:href="#DejaVuSans-72" x="749.121094"/>
      <use xlink:href="#DejaVuSans-67" x="788.484375"/>
     </g>
    </g>
   </g>
   <g id="text_11">
    <g id="patch_12">
     <path d="M 139.539455 481.995602 
L 216.163205 481.995602 
L 216.163205 465.365289 
L 139.539455 465.365289 
z
" clip-path="url(#p5115f4aa82)" style="fill: #ffffff; opacity: 0.7; stroke: #000000; stroke-linejoin: miter"/>
    </g>
    <g clip-path="url(#p5115f4aa82)">
     <!-- Wilfred Jackson -->
     <g transform="translate(143.499455 476.163883)scale(0.09 -0.09)">
      <use xlink:href="#DejaVuSans-57"/>
      <use xlink:href="#DejaVuSans-69" x="96.626953"/>
      <use xlink:href="#DejaVuSans-6c" x="124.410156"/>
      <use xlink:href="#DejaVuSans-66" x="152.193359"/>
      <use xlink:href="#DejaVuSans-72" x="187.398438"/>
      <use xlink:href="#DejaVuSans-65" x="226.261719"/>
      <use xlink:href="#DejaVuSans-64" x="287.785156"/>
      <use xlink:href="#DejaVuSans-20" x="351.261719"/>
      <use xlink:href="#DejaVuSans-4a" x="383.048828"/>
      <use xlink:href="#DejaVuSans-61" x="412.541016"/>
      <use xlink:href="#DejaVuSans-63" x="473.820312"/>
      <use xlink:href="#DejaVuSans-6b" x="528.800781"/>
      <use xlink:href="#DejaVuSans-73" x="586.710938"/>
      <use xlink:href="#DejaVuSans-6f" x="638.810547"/>
      <use xlink:href="#DejaVuSans-6e" x="699.992188"/>
     </g>
    </g>
   </g>
   <g id="text_12">
    <g id="patch_13">
     <path d="M 230.248337 509.545925 
L 295.970837 509.545925 
L 295.970837 492.915613 
L 230.248337 492.915613 
z
" clip-path="url(#p5115f4aa82)" style="fill: #ffffff; opacity: 0.7; stroke: #000000; stroke-linejoin: miter"/>
    </g>
    <g clip-path="url(#p5115f4aa82)">
     <!-- Sam Mendes -->
     <g transform="translate(234.208337 503.714207)scale(0.09 -0.09)">
      <defs>
       <path id="DejaVuSans-4d" d="M 628 4666 
L 1569 4666 
L 2759 1491 
L 3956 4666 
L 4897 4666 
L 4897 0 
L 4281 0 
L 4281 4097 
L 3078 897 
L 2444 897 
L 1241 4097 
L 1241 0 
L 628 0 
L 628 4666 
z
" transform="scale(0.015625)"/>
      </defs>
      <use xlink:href="#DejaVuSans-53"/>
      <use xlink:href="#DejaVuSans-61" x="63.476562"/>
      <use xlink:href="#DejaVuSans-6d" x="124.755859"/>
      <use xlink:href="#DejaVuSans-20" x="222.167969"/>
      <use xlink:href="#DejaVuSans-4d" x="253.955078"/>
      <use xlink:href="#DejaVuSans-65" x="340.234375"/>
      <use xlink:href="#DejaVuSans-6e" x="401.757812"/>
      <use xlink:href="#DejaVuSans-64" x="465.136719"/>
      <use xlink:href="#DejaVuSans-65" x="528.613281"/>
      <use xlink:href="#DejaVuSans-73" x="590.136719"/>
     </g>
    </g>
   </g>
   <g id="text_13">
    <g id="patch_14">
     <path d="M 312.357058 500.226706 
L 392.171589 500.226706 
L 392.171589 483.596393 
L 312.357058 483.596393 
z
" clip-path="url(#p5115f4aa82)" style="fill: #ffffff; opacity: 0.7; stroke: #000000; stroke-linejoin: miter"/>
    </g>
    <g clip-path="url(#p5115f4aa82)">
     <!-- Martin Scorsese -->
     <g transform="translate(316.317058 494.394987)scale(0.09 -0.09)">
      <use xlink:href="#DejaVuSans-4d"/>
      <use xlink:href="#DejaVuSans-61" x="86.279297"/>
      <use xlink:href="#DejaVuSans-72" x="147.558594"/>
      <use xlink:href="#DejaVuSans-74" x="188.671875"/>
      <use xlink:href="#DejaVuSans-69" x="227.880859"/>
      <use xlink:href="#DejaVuSans-6e" x="255.664062"/>
      <use xlink:href="#DejaVuSans-20" x="319.042969"/>
      <use xlink:href="#DejaVuSans-53" x="350.830078"/>
      <use xlink:href="#DejaVuSans-63" x="414.306641"/>
      <use xlink:href="#DejaVuSans-6f" x="469.287109"/>
      <use xlink:href="#DejaVuSans-72" x="530.46875"/>
      <use xlink:href="#DejaVuSans-73" x="571.582031"/>
      <use xlink:href="#DejaVuSans-65" x="623.681641"/>
      <use xlink:href="#DejaVuSans-73" x="685.205078"/>
      <use xlink:href="#DejaVuSans-65" x="737.304688"/>
     </g>
    </g>
   </g>
   <g id="text_14">
    <g id="patch_15">
     <path d="M 386.985357 455.649316 
L 472.81442 455.649316 
L 472.81442 439.019004 
L 386.985357 439.019004 
z
" clip-path="url(#p5115f4aa82)" style="fill: #ffffff; opacity: 0.7; stroke: #000000; stroke-linejoin: miter"/>
    </g>
    <g clip-path="url(#p5115f4aa82)">
     <!-- Barry Sonnenfeld -->
     <g transform="translate(390.945357 449.817598)scale(0.09 -0.09)">
      <defs>
       <path id="DejaVuSans-42" d="M 1259 2228 
L 1259 519 
L 2272 519 
Q 2781 519 3026 730 
Q 3272 941 3272 1375 
Q 3272 1813 3026 2020 
Q 2781 2228 2272 2228 
L 1259 2228 
z
M 1259 4147 
L 1259 2741 
L 2194 2741 
Q 2656 2741 2882 2914 
Q 3109 3088 3109 3444 
Q 3109 3797 2882 3972 
Q 2656 4147 2194 4147 
L 1259 4147 
z
M 628 4666 
L 2241 4666 
Q 2963 4666 3353 4366 
Q 3744 4066 3744 3513 
Q 3744 3084 3544 2831 
Q 3344 2578 2956 2516 
Q 3422 2416 3680 2098 
Q 3938 1781 3938 1306 
Q 3938 681 3513 340 
Q 3088 0 2303 0 
L 628 0 
L 628 4666 
z
" transform="scale(0.015625)"/>
      </defs>
      <use xlink:href="#DejaVuSans-42"/>
      <use xlink:href="#DejaVuSans-61" x="68.603516"/>
      <use xlink:href="#DejaVuSans-72" x="129.882812"/>
      <use xlink:href="#DejaVuSans-72" x="169.246094"/>
      <use xlink:href="#DejaVuSans-79" x="210.359375"/>
      <use xlink:href="#DejaVuSans-20" x="269.539062"/>
      <use xlink:href="#DejaVuSans-53" x="301.326172"/>
      <use xlink:href="#DejaVuSans-6f" x="364.802734"/>
      <use xlink:href="#DejaVuSans-6e" x="425.984375"/>
      <use xlink:href="#DejaVuSans-6e" x="489.363281"/>
      <use xlink:href="#DejaVuSans-65" x="552.742188"/>
      <use xlink:href="#DejaVuSans-6e" x="614.265625"/>
      <use xlink:href="#DejaVuSans-66" x="677.644531"/>
      <use xlink:href="#DejaVuSans-65" x="712.849609"/>
      <use xlink:href="#DejaVuSans-6c" x="774.373047"/>
      <use xlink:href="#DejaVuSans-64" x="802.15625"/>
     </g>
    </g>
   </g>
   <g id="text_15">
    <g id="patch_16">
     <path d="M 446.983311 383.521616 
L 518.201436 383.521616 
L 518.201436 366.891303 
L 446.983311 366.891303 
z
" clip-path="url(#p5115f4aa82)" style="fill: #ffffff; opacity: 0.7; stroke: #000000; stroke-linejoin: miter"/>
    </g>
    <g clip-path="url(#p5115f4aa82)">
     <!-- Mervyn LeRoy -->
     <g transform="translate(450.943311 377.689897)scale(0.09 -0.09)">
      <defs>
       <path id="DejaVuSans-4c" d="M 628 4666 
L 1259 4666 
L 1259 531 
L 3531 531 
L 3531 0 
L 628 0 
L 628 4666 
z
" transform="scale(0.015625)"/>
      </defs>
      <use xlink:href="#DejaVuSans-4d"/>
      <use xlink:href="#DejaVuSans-65" x="86.279297"/>
      <use xlink:href="#DejaVuSans-72" x="147.802734"/>
      <use xlink:href="#DejaVuSans-76" x="188.916016"/>
      <use xlink:href="#DejaVuSans-79" x="248.095703"/>
      <use xlink:href="#DejaVuSans-6e" x="307.275391"/>
      <use xlink:href="#DejaVuSans-20" x="370.654297"/>
      <use xlink:href="#DejaVuSans-4c" x="402.441406"/>
      <use xlink:href="#DejaVuSans-65" x="456.404297"/>
      <use xlink:href="#DejaVuSans-52" x="517.927734"/>
      <use xlink:href="#DejaVuSans-6f" x="582.910156"/>
      <use xlink:href="#DejaVuSans-79" x="644.091797"/>
     </g>
    </g>
   </g>
   <g id="text_16">
    <!-- Impactful directors for Family Film genre - Importance rank: 6 -->
    <g transform="translate(103.202812 4.8)scale(0.12 -0.12)">
     <defs>
      <path id="DejaVuSans-49" d="M 628 4666 
L 1259 4666 
L 1259 0 
L 628 0 
L 628 4666 
z
" transform="scale(0.015625)"/>
      <path id="DejaVuSans-2d" d="M 313 2009 
L 1997 2009 
L 1997 1497 
L 313 1497 
L 313 2009 
z
" transform="scale(0.015625)"/>
      <path id="DejaVuSans-3a" d="M 750 794 
L 1409 794 
L 1409 0 
L 750 0 
L 750 794 
z
M 750 3309 
L 1409 3309 
L 1409 2516 
L 750 2516 
L 750 3309 
z
" transform="scale(0.015625)"/>
      <path id="DejaVuSans-36" d="M 2113 2584 
Q 1688 2584 1439 2293 
Q 1191 2003 1191 1497 
Q 1191 994 1439 701 
Q 1688 409 2113 409 
Q 2538 409 2786 701 
Q 3034 994 3034 1497 
Q 3034 2003 2786 2293 
Q 2538 2584 2113 2584 
z
M 3366 4563 
L 3366 3988 
Q 3128 4100 2886 4159 
Q 2644 4219 2406 4219 
Q 1781 4219 1451 3797 
Q 1122 3375 1075 2522 
Q 1259 2794 1537 2939 
Q 1816 3084 2150 3084 
Q 2853 3084 3261 2657 
Q 3669 2231 3669 1497 
Q 3669 778 3244 343 
Q 2819 -91 2113 -91 
Q 1303 -91 875 529 
Q 447 1150 447 2328 
Q 447 3434 972 4092 
Q 1497 4750 2381 4750 
Q 2619 4750 2861 4703 
Q 3103 4656 3366 4563 
z
" transform="scale(0.015625)"/>
     </defs>
     <use xlink:href="#DejaVuSans-49"/>
     <use xlink:href="#DejaVuSans-6d" x="29.492188"/>
     <use xlink:href="#DejaVuSans-70" x="126.904297"/>
     <use xlink:href="#DejaVuSans-61" x="190.380859"/>
     <use xlink:href="#DejaVuSans-63" x="251.660156"/>
     <use xlink:href="#DejaVuSans-74" x="306.640625"/>
     <use xlink:href="#DejaVuSans-66" x="345.849609"/>
     <use xlink:href="#DejaVuSans-75" x="381.054688"/>
     <use xlink:href="#DejaVuSans-6c" x="444.433594"/>
     <use xlink:href="#DejaVuSans-20" x="472.216797"/>
     <use xlink:href="#DejaVuSans-64" x="504.003906"/>
     <use xlink:href="#DejaVuSans-69" x="567.480469"/>
     <use xlink:href="#DejaVuSans-72" x="595.263672"/>
     <use xlink:href="#DejaVuSans-65" x="634.126953"/>
     <use xlink:href="#DejaVuSans-63" x="695.650391"/>
     <use xlink:href="#DejaVuSans-74" x="750.630859"/>
     <use xlink:href="#DejaVuSans-6f" x="789.839844"/>
     <use xlink:href="#DejaVuSans-72" x="851.021484"/>
     <use xlink:href="#DejaVuSans-73" x="892.134766"/>
     <use xlink:href="#DejaVuSans-20" x="944.234375"/>
     <use xlink:href="#DejaVuSans-66" x="976.021484"/>
     <use xlink:href="#DejaVuSans-6f" x="1011.226562"/>
     <use xlink:href="#DejaVuSans-72" x="1072.408203"/>
     <use xlink:href="#DejaVuSans-20" x="1113.521484"/>
     <use xlink:href="#DejaVuSans-46" x="1145.308594"/>
     <use xlink:href="#DejaVuSans-61" x="1193.703125"/>
     <use xlink:href="#DejaVuSans-6d" x="1254.982422"/>
     <use xlink:href="#DejaVuSans-69" x="1352.394531"/>
     <use xlink:href="#DejaVuSans-6c" x="1380.177734"/>
     <use xlink:href="#DejaVuSans-79" x="1407.960938"/>
     <use xlink:href="#DejaVuSans-20" x="1467.140625"/>
     <use xlink:href="#DejaVuSans-46" x="1498.927734"/>
     <use xlink:href="#DejaVuSans-69" x="1549.197266"/>
     <use xlink:href="#DejaVuSans-6c" x="1576.980469"/>
     <use xlink:href="#DejaVuSans-6d" x="1604.763672"/>
     <use xlink:href="#DejaVuSans-20" x="1702.175781"/>
     <use xlink:href="#DejaVuSans-67" x="1733.962891"/>
     <use xlink:href="#DejaVuSans-65" x="1797.439453"/>
     <use xlink:href="#DejaVuSans-6e" x="1858.962891"/>
     <use xlink:href="#DejaVuSans-72" x="1922.341797"/>
     <use xlink:href="#DejaVuSans-65" x="1961.205078"/>
     <use xlink:href="#DejaVuSans-20" x="2022.728516"/>
     <use xlink:href="#DejaVuSans-2d" x="2054.515625"/>
     <use xlink:href="#DejaVuSans-20" x="2090.599609"/>
     <use xlink:href="#DejaVuSans-49" x="2122.386719"/>
     <use xlink:href="#DejaVuSans-6d" x="2151.878906"/>
     <use xlink:href="#DejaVuSans-70" x="2249.291016"/>
     <use xlink:href="#DejaVuSans-6f" x="2312.767578"/>
     <use xlink:href="#DejaVuSans-72" x="2373.949219"/>
     <use xlink:href="#DejaVuSans-74" x="2415.0625"/>
     <use xlink:href="#DejaVuSans-61" x="2454.271484"/>
     <use xlink:href="#DejaVuSans-6e" x="2515.550781"/>
     <use xlink:href="#DejaVuSans-63" x="2578.929688"/>
     <use xlink:href="#DejaVuSans-65" x="2633.910156"/>
     <use xlink:href="#DejaVuSans-20" x="2695.433594"/>
     <use xlink:href="#DejaVuSans-72" x="2727.220703"/>
     <use xlink:href="#DejaVuSans-61" x="2768.333984"/>
     <use xlink:href="#DejaVuSans-6e" x="2829.613281"/>
     <use xlink:href="#DejaVuSans-6b" x="2892.992188"/>
     <use xlink:href="#DejaVuSans-3a" x="2950.902344"/>
     <use xlink:href="#DejaVuSans-20" x="2984.59375"/>
     <use xlink:href="#DejaVuSans-36" x="3016.380859"/>
    </g>
   </g>
  </g>
 </g>
 <defs>
  <clipPath id="p5115f4aa82">
   <rect x="10.8" y="10.8" width="554.4" height="554.4"/>
  </clipPath>
 </defs>
</svg>
