<?xml version="1.0" encoding="utf-8" standalone="no"?>
<!DOCTYPE svg PUBLIC "-//W3C//DTD SVG 1.1//EN"
  "http://www.w3.org/Graphics/SVG/1.1/DTD/svg11.dtd">
<svg xmlns:xlink="http://www.w3.org/1999/xlink" width="568.8pt" height="583.918125pt" viewBox="0 0 568.8 583.918125" xmlns="http://www.w3.org/2000/svg" version="1.1">
 <metadata>
  <rdf:RDF xmlns:dc="http://purl.org/dc/elements/1.1/" xmlns:cc="http://creativecommons.org/ns#" xmlns:rdf="http://www.w3.org/1999/02/22-rdf-syntax-ns#">
   <cc:Work>
    <dc:type rdf:resource="http://purl.org/dc/dcmitype/StillImage"/>
    <dc:date>2022-12-23T20:57:11.809032</dc:date>
    <dc:format>image/svg+xml</dc:format>
    <dc:creator>
     <cc:Agent>
      <dc:title>Matplotlib v3.5.3, https://matplotlib.org/</dc:title>
     </cc:Agent>
    </dc:creator>
   </cc:Work>
  </rdf:RDF>
 </metadata>
 <defs>
  <style type="text/css">*{stroke-linejoin: round; stroke-linecap: butt}</style>
 </defs>
 <g id="figure_1">
  <g id="patch_1">
   <path d="M 0 583.918125 
L 568.8 583.918125 
L 568.8 0 
L 0 0 
z
" style="fill: #ffffff"/>
  </g>
  <g id="axes_1">
   <g id="LineCollection_1">
    <path d="M 426.29985 140.183927 
L 348.664291 95.606563 
" clip-path="url(#p923d69e967)" style="fill: none; stroke: #000000; stroke-opacity: 0.3; stroke-width: 5"/>
   </g>
   <g id="PathCollection_1">
    <path d="M 497.630769 326.904253 
C 504.893655 326.904253 511.86005 324.018678 516.995686 318.883042 
C 522.131322 313.747406 525.016897 306.781011 525.016897 299.518125 
C 525.016897 292.255239 522.131322 285.288844 516.995686 280.153208 
C 511.86005 275.017572 504.893655 272.131997 497.630769 272.131997 
C 490.367883 272.131997 483.401488 275.017572 478.265852 280.153208 
C 473.130217 285.288844 470.244641 292.255239 470.244641 299.518125 
C 470.244641 306.781011 473.130217 313.747406 478.265852 318.883042 
C 483.401488 324.018678 490.367883 326.904253 497.630769 326.904253 
z
" clip-path="url(#p923d69e967)" style="fill: #c70039; fill-opacity: 0.99; stroke: #c70039; stroke-opacity: 0.99"/>
    <path d="M 478.992348 238.608859 
C 485.966454 238.608859 492.655857 235.838018 497.587295 230.90658 
C 502.518732 225.975143 505.289574 219.285739 505.289574 212.311633 
C 505.289574 205.337528 502.518732 198.648124 497.587295 193.716687 
C 492.655857 188.785249 485.966454 186.014407 478.992348 186.014407 
C 472.018242 186.014407 465.328839 188.785249 460.397401 193.716687 
C 455.465963 198.648124 452.695122 205.337528 452.695122 212.311633 
C 452.695122 219.285739 455.465963 225.975143 460.397401 230.90658 
C 465.328839 235.838018 472.018242 238.608859 478.992348 238.608859 
z
" clip-path="url(#p923d69e967)" style="fill: #c70039; fill-opacity: 0.99; stroke: #c70039; stroke-opacity: 0.99"/>
    <path d="M 426.29985 164.148516 
C 432.655333 164.148516 438.751368 161.623455 443.245373 157.12945 
C 447.739379 152.635445 450.264439 146.53941 450.264439 140.183927 
C 450.264439 133.828443 447.739379 127.732409 443.245373 123.238403 
C 438.751368 118.744398 432.655333 116.219338 426.29985 116.219338 
C 419.944367 116.219338 413.848332 118.744398 409.354326 123.238403 
C 404.860321 127.732409 402.335261 133.828443 402.335261 140.183927 
C 402.335261 146.53941 404.860321 152.635445 409.354326 157.12945 
C 413.848332 161.623455 419.944367 164.148516 426.29985 164.148516 
z
" clip-path="url(#p923d69e967)" style="fill: #c70039; fill-opacity: 0.99; stroke: #c70039; stroke-opacity: 0.99"/>
    <path d="M 348.664291 118.442238 
C 354.720383 118.442238 360.529248 116.036127 364.811552 111.753823 
C 369.093855 107.47152 371.499966 101.662655 371.499966 95.606563 
C 371.499966 89.550471 369.093855 83.741606 364.811552 79.459302 
C 360.529248 75.176998 354.720383 72.770888 348.664291 72.770888 
C 342.608199 72.770888 336.799334 75.176998 332.517031 79.459302 
C 328.234727 83.741606 325.828616 89.550471 325.828616 95.606563 
C 325.828616 101.662655 328.234727 107.47152 332.517031 111.753823 
C 336.799334 116.036127 342.608199 118.442238 348.664291 118.442238 
z
" clip-path="url(#p923d69e967)" style="fill: #c70039; fill-opacity: 0.99; stroke: #c70039; stroke-opacity: 0.99"/>
    <path d="M 259.509549 108.456639 
C 265.388911 108.456639 271.028262 106.120744 275.185599 101.963406 
C 279.342936 97.806069 281.678832 92.166718 281.678832 86.287356 
C 281.678832 80.407993 279.342936 74.768642 275.185599 70.611305 
C 271.028262 66.453968 265.388911 64.118072 259.509549 64.118072 
C 253.630186 64.118072 247.990835 66.453968 243.833498 70.611305 
C 239.676161 74.768642 237.340265 80.407993 237.340265 86.287356 
C 237.340265 92.166718 239.676161 97.806069 243.833498 101.963406 
C 247.990835 106.120744 253.630186 108.456639 259.509549 108.456639 
z
" clip-path="url(#p923d69e967)" style="fill: #c70039; fill-opacity: 0.99; stroke: #c70039; stroke-opacity: 0.99"/>
    <path d="M 174.251298 135.749822 
C 180.062463 135.749822 185.636399 133.441021 189.745513 129.331908 
C 193.854627 125.222794 196.163428 119.648857 196.163428 113.837692 
C 196.163428 108.026528 193.854627 102.452591 189.745513 98.343477 
C 185.636399 94.234363 180.062463 91.925563 174.251298 91.925563 
C 168.440133 91.925563 162.866197 94.234363 158.757083 98.343477 
C 154.647969 102.452591 152.339169 108.026528 152.339169 113.837692 
C 152.339169 119.648857 154.647969 125.222794 158.757083 129.331908 
C 162.866197 133.441021 168.440133 135.749822 174.251298 135.749822 
z
" clip-path="url(#p923d69e967)" style="fill: #c70039; fill-opacity: 0.99; stroke: #c70039; stroke-opacity: 0.99"/>
    <path d="M 107.631477 195.204673 
C 113.389254 195.204673 118.911982 192.917084 122.983345 188.845721 
C 127.054707 184.774358 129.342296 179.25163 129.342296 173.493854 
C 129.342296 167.736077 127.054707 162.213349 122.983345 158.141986 
C 118.911982 154.070623 113.389254 151.783034 107.631477 151.783034 
C 101.8737 151.783034 96.350972 154.070623 92.279609 158.141986 
C 88.208247 162.213349 85.920658 167.736077 85.920658 173.493854 
C 85.920658 179.25163 88.208247 184.774358 92.279609 188.845721 
C 96.350972 192.917084 101.8737 195.204673 107.631477 195.204673 
z
" clip-path="url(#p923d69e967)" style="fill: #c70039; fill-opacity: 0.99; stroke: #c70039; stroke-opacity: 0.99"/>
    <path d="M 71.169231 275.894122 
C 76.726124 275.894122 82.056169 273.686345 85.985485 269.757028 
C 89.914802 265.827712 92.122579 260.497667 92.122579 254.940774 
C 92.122579 249.383881 89.914802 244.053836 85.985485 240.124519 
C 82.056169 236.195203 76.726124 233.987426 71.169231 233.987426 
C 65.612338 233.987426 60.282293 236.195203 56.352976 240.124519 
C 52.423659 244.053836 50.215883 249.383881 50.215883 254.940774 
C 50.215883 260.497667 52.423659 265.827712 56.352976 269.757028 
C 60.282293 273.686345 65.612338 275.894122 71.169231 275.894122 
z
" clip-path="url(#p923d69e967)" style="fill: #c70039; fill-opacity: 0.99; stroke: #c70039; stroke-opacity: 0.99"/>
    <path d="M 71.169244 364.409877 
C 76.556676 364.409877 81.724177 362.269428 85.533667 358.459938 
C 89.343157 354.650448 91.483606 349.482946 91.483606 344.095514 
C 91.483606 338.708083 89.343157 333.540581 85.533667 329.731091 
C 81.724177 325.921601 76.556676 323.781152 71.169244 323.781152 
C 65.781812 323.781152 60.61431 325.921601 56.80482 329.731091 
C 52.995331 333.540581 50.854881 338.708083 50.854881 344.095514 
C 50.854881 349.482946 52.995331 354.650448 56.80482 358.459938 
C 60.61431 362.269428 65.781812 364.409877 71.169244 364.409877 
z
" clip-path="url(#p923d69e967)" style="fill: #c70039; fill-opacity: 0.99; stroke: #c70039; stroke-opacity: 0.99"/>
    <path d="M 107.63149 445.278027 
C 112.865437 445.278027 117.885719 443.198557 121.586679 439.497598 
C 125.287638 435.796639 127.367107 430.776356 127.367107 425.542409 
C 127.367107 420.308462 125.287638 415.288179 121.586679 411.58722 
C 117.885719 407.886261 112.865437 405.806792 107.63149 405.806792 
C 102.397543 405.806792 97.37726 407.886261 93.676301 411.58722 
C 89.975342 415.288179 87.895872 420.308462 87.895872 425.542409 
C 87.895872 430.776356 89.975342 435.796639 93.676301 439.497598 
C 97.37726 443.198557 102.397543 445.278027 107.63149 445.278027 
z
" clip-path="url(#p923d69e967)" style="fill: #c70039; fill-opacity: 0.99; stroke: #c70039; stroke-opacity: 0.99"/>
    <path d="M 174.25133 504.8333 
C 179.458521 504.8333 184.45314 502.764461 188.13518 499.082421 
C 191.817221 495.400381 193.886059 490.405762 193.886059 485.198571 
C 193.886059 479.991379 191.817221 474.99676 188.13518 471.31472 
C 184.45314 467.63268 179.458521 465.563841 174.25133 465.563841 
C 169.044139 465.563841 164.04952 467.63268 160.36748 471.31472 
C 156.68544 474.99676 154.616601 479.991379 154.616601 485.198571 
C 154.616601 490.405762 156.68544 495.400381 160.36748 499.082421 
C 164.04952 502.764461 169.044139 504.8333 174.25133 504.8333 
z
" clip-path="url(#p923d69e967)" style="fill: #c70039; fill-opacity: 0.99; stroke: #c70039; stroke-opacity: 0.99"/>
    <path d="M 259.509587 532.265942 
C 264.685569 532.265942 269.650252 530.209503 273.310224 526.549531 
C 276.970196 522.88956 279.026635 517.924876 279.026635 512.748894 
C 279.026635 507.572913 276.970196 502.608229 273.310224 498.948257 
C 269.650252 495.288285 264.685569 493.231846 259.509587 493.231846 
C 254.333606 493.231846 249.368922 495.288285 245.70895 498.948257 
C 242.048978 502.608229 239.992539 507.572913 239.992539 512.748894 
C 239.992539 517.924876 242.048978 522.88956 245.70895 526.549531 
C 249.368922 530.209503 254.333606 532.265942 259.509587 532.265942 
z
" clip-path="url(#p923d69e967)" style="fill: #c70039; fill-opacity: 0.99; stroke: #c70039; stroke-opacity: 0.99"/>
    <path d="M 348.664323 522.85066 
C 353.814829 522.85066 358.755076 520.804342 362.397034 517.162385 
C 366.038991 513.520427 368.085308 508.58018 368.085308 503.429675 
C 368.085308 498.279169 366.038991 493.338922 362.397034 489.696964 
C 358.755076 486.055007 353.814829 484.008689 348.664323 484.008689 
C 343.513818 484.008689 338.57357 486.055007 334.931613 489.696964 
C 331.289656 493.338922 329.243338 498.279169 329.243338 503.429675 
C 329.243338 508.58018 331.289656 513.520427 334.931613 517.162385 
C 338.57357 520.804342 343.513818 522.85066 348.664323 522.85066 
z
" clip-path="url(#p923d69e967)" style="fill: #c70039; fill-opacity: 0.99; stroke: #c70039; stroke-opacity: 0.99"/>
    <path d="M 426.299888 478.264128 
C 431.447969 478.264128 436.385891 476.218773 440.026134 472.578531 
C 443.666377 468.938288 445.711731 464.000366 445.711731 458.852285 
C 445.711731 453.704204 443.666377 448.766282 440.026134 445.126039 
C 436.385891 441.485797 431.447969 439.440442 426.299888 439.440442 
C 421.151808 439.440442 416.213886 441.485797 412.573643 445.126039 
C 408.9334 448.766282 406.888046 453.704204 406.888046 458.852285 
C 406.888046 464.000366 408.9334 468.938288 412.573643 472.578531 
C 416.213886 476.218773 421.151808 478.264128 426.299888 478.264128 
z
" clip-path="url(#p923d69e967)" style="fill: #c70039; fill-opacity: 0.99; stroke: #c70039; stroke-opacity: 0.99"/>
    <path d="M 478.992374 406.089501 
C 484.128009 406.089501 489.053994 404.049092 492.685437 400.417649 
C 496.31688 396.786206 498.35729 391.860221 498.35729 386.724585 
C 498.35729 381.588949 496.31688 376.662964 492.685437 373.031521 
C 489.053994 369.400078 484.128009 367.359668 478.992374 367.359668 
C 473.856738 367.359668 468.930753 369.400078 465.29931 373.031521 
C 461.667867 376.662964 459.627457 381.588949 459.627457 386.724585 
C 459.627457 391.860221 461.667867 396.786206 465.29931 400.417649 
C 468.930753 404.049092 473.856738 406.089501 478.992374 406.089501 
z
" clip-path="url(#p923d69e967)" style="fill: #c70039; fill-opacity: 0.99; stroke: #c70039; stroke-opacity: 0.99"/>
   </g>
   <g id="text_1">
    <g id="patch_2">
     <path d="M 461.784754 307.833281 
L 533.476785 307.833281 
L 533.476785 291.202969 
L 461.784754 291.202969 
z
" clip-path="url(#p923d69e967)" style="fill: #ffffff; opacity: 0.7; stroke: #000000; stroke-linejoin: miter"/>
    </g>
    <g clip-path="url(#p923d69e967)">
     <!-- Michael Curtiz -->
     <g transform="translate(465.744754 302.001562)scale(0.09 -0.09)">
      <defs>
       <path id="DejaVuSans-4d" d="M 628 4666 
L 1569 4666 
L 2759 1491 
L 3956 4666 
L 4897 4666 
L 4897 0 
L 4281 0 
L 4281 4097 
L 3078 897 
L 2444 897 
L 1241 4097 
L 1241 0 
L 628 0 
L 628 4666 
z
" transform="scale(0.015625)"/>
       <path id="DejaVuSans-69" d="M 603 3500 
L 1178 3500 
L 1178 0 
L 603 0 
L 603 3500 
z
M 603 4863 
L 1178 4863 
L 1178 4134 
L 603 4134 
L 603 4863 
z
" transform="scale(0.015625)"/>
       <path id="DejaVuSans-63" d="M 3122 3366 
L 3122 2828 
Q 2878 2963 2633 3030 
Q 2388 3097 2138 3097 
Q 1578 3097 1268 2742 
Q 959 2388 959 1747 
Q 959 1106 1268 751 
Q 1578 397 2138 397 
Q 2388 397 2633 464 
Q 2878 531 3122 666 
L 3122 134 
Q 2881 22 2623 -34 
Q 2366 -91 2075 -91 
Q 1284 -91 818 406 
Q 353 903 353 1747 
Q 353 2603 823 3093 
Q 1294 3584 2113 3584 
Q 2378 3584 2631 3529 
Q 2884 3475 3122 3366 
z
" transform="scale(0.015625)"/>
       <path id="DejaVuSans-68" d="M 3513 2113 
L 3513 0 
L 2938 0 
L 2938 2094 
Q 2938 2591 2744 2837 
Q 2550 3084 2163 3084 
Q 1697 3084 1428 2787 
Q 1159 2491 1159 1978 
L 1159 0 
L 581 0 
L 581 4863 
L 1159 4863 
L 1159 2956 
Q 1366 3272 1645 3428 
Q 1925 3584 2291 3584 
Q 2894 3584 3203 3211 
Q 3513 2838 3513 2113 
z
" transform="scale(0.015625)"/>
       <path id="DejaVuSans-61" d="M 2194 1759 
Q 1497 1759 1228 1600 
Q 959 1441 959 1056 
Q 959 750 1161 570 
Q 1363 391 1709 391 
Q 2188 391 2477 730 
Q 2766 1069 2766 1631 
L 2766 1759 
L 2194 1759 
z
M 3341 1997 
L 3341 0 
L 2766 0 
L 2766 531 
Q 2569 213 2275 61 
Q 1981 -91 1556 -91 
Q 1019 -91 701 211 
Q 384 513 384 1019 
Q 384 1609 779 1909 
Q 1175 2209 1959 2209 
L 2766 2209 
L 2766 2266 
Q 2766 2663 2505 2880 
Q 2244 3097 1772 3097 
Q 1472 3097 1187 3025 
Q 903 2953 641 2809 
L 641 3341 
Q 956 3463 1253 3523 
Q 1550 3584 1831 3584 
Q 2591 3584 2966 3190 
Q 3341 2797 3341 1997 
z
" transform="scale(0.015625)"/>
       <path id="DejaVuSans-65" d="M 3597 1894 
L 3597 1613 
L 953 1613 
Q 991 1019 1311 708 
Q 1631 397 2203 397 
Q 2534 397 2845 478 
Q 3156 559 3463 722 
L 3463 178 
Q 3153 47 2828 -22 
Q 2503 -91 2169 -91 
Q 1331 -91 842 396 
Q 353 884 353 1716 
Q 353 2575 817 3079 
Q 1281 3584 2069 3584 
Q 2775 3584 3186 3129 
Q 3597 2675 3597 1894 
z
M 3022 2063 
Q 3016 2534 2758 2815 
Q 2500 3097 2075 3097 
Q 1594 3097 1305 2825 
Q 1016 2553 972 2059 
L 3022 2063 
z
" transform="scale(0.015625)"/>
       <path id="DejaVuSans-6c" d="M 603 4863 
L 1178 4863 
L 1178 0 
L 603 0 
L 603 4863 
z
" transform="scale(0.015625)"/>
       <path id="DejaVuSans-20" transform="scale(0.015625)"/>
       <path id="DejaVuSans-43" d="M 4122 4306 
L 4122 3641 
Q 3803 3938 3442 4084 
Q 3081 4231 2675 4231 
Q 1875 4231 1450 3742 
Q 1025 3253 1025 2328 
Q 1025 1406 1450 917 
Q 1875 428 2675 428 
Q 3081 428 3442 575 
Q 3803 722 4122 1019 
L 4122 359 
Q 3791 134 3420 21 
Q 3050 -91 2638 -91 
Q 1578 -91 968 557 
Q 359 1206 359 2328 
Q 359 3453 968 4101 
Q 1578 4750 2638 4750 
Q 3056 4750 3426 4639 
Q 3797 4528 4122 4306 
z
" transform="scale(0.015625)"/>
       <path id="DejaVuSans-75" d="M 544 1381 
L 544 3500 
L 1119 3500 
L 1119 1403 
Q 1119 906 1312 657 
Q 1506 409 1894 409 
Q 2359 409 2629 706 
Q 2900 1003 2900 1516 
L 2900 3500 
L 3475 3500 
L 3475 0 
L 2900 0 
L 2900 538 
Q 2691 219 2414 64 
Q 2138 -91 1772 -91 
Q 1169 -91 856 284 
Q 544 659 544 1381 
z
M 1991 3584 
L 1991 3584 
z
" transform="scale(0.015625)"/>
       <path id="DejaVuSans-72" d="M 2631 2963 
Q 2534 3019 2420 3045 
Q 2306 3072 2169 3072 
Q 1681 3072 1420 2755 
Q 1159 2438 1159 1844 
L 1159 0 
L 581 0 
L 581 3500 
L 1159 3500 
L 1159 2956 
Q 1341 3275 1631 3429 
Q 1922 3584 2338 3584 
Q 2397 3584 2469 3576 
Q 2541 3569 2628 3553 
L 2631 2963 
z
" transform="scale(0.015625)"/>
       <path id="DejaVuSans-74" d="M 1172 4494 
L 1172 3500 
L 2356 3500 
L 2356 3053 
L 1172 3053 
L 1172 1153 
Q 1172 725 1289 603 
Q 1406 481 1766 481 
L 2356 481 
L 2356 0 
L 1766 0 
Q 1100 0 847 248 
Q 594 497 594 1153 
L 594 3053 
L 172 3053 
L 172 3500 
L 594 3500 
L 594 4494 
L 1172 4494 
z
" transform="scale(0.015625)"/>
       <path id="DejaVuSans-7a" d="M 353 3500 
L 3084 3500 
L 3084 2975 
L 922 459 
L 3084 459 
L 3084 0 
L 275 0 
L 275 525 
L 2438 3041 
L 353 3041 
L 353 3500 
z
" transform="scale(0.015625)"/>
      </defs>
      <use xlink:href="#DejaVuSans-4d"/>
      <use xlink:href="#DejaVuSans-69" x="86.279297"/>
      <use xlink:href="#DejaVuSans-63" x="114.0625"/>
      <use xlink:href="#DejaVuSans-68" x="169.042969"/>
      <use xlink:href="#DejaVuSans-61" x="232.421875"/>
      <use xlink:href="#DejaVuSans-65" x="293.701172"/>
      <use xlink:href="#DejaVuSans-6c" x="355.224609"/>
      <use xlink:href="#DejaVuSans-20" x="383.007812"/>
      <use xlink:href="#DejaVuSans-43" x="414.794922"/>
      <use xlink:href="#DejaVuSans-75" x="484.619141"/>
      <use xlink:href="#DejaVuSans-72" x="547.998047"/>
      <use xlink:href="#DejaVuSans-74" x="589.111328"/>
      <use xlink:href="#DejaVuSans-69" x="628.320312"/>
      <use xlink:href="#DejaVuSans-7a" x="656.103516"/>
     </g>
    </g>
   </g>
   <g id="text_2">
    <g id="patch_3">
     <path d="M 447.63016 220.62679 
L 510.354535 220.62679 
L 510.354535 203.996477 
L 447.63016 203.996477 
z
" clip-path="url(#p923d69e967)" style="fill: #ffffff; opacity: 0.7; stroke: #000000; stroke-linejoin: miter"/>
    </g>
    <g clip-path="url(#p923d69e967)">
     <!-- Chuck Jones -->
     <g transform="translate(451.59016 214.795071)scale(0.09 -0.09)">
      <defs>
       <path id="DejaVuSans-6b" d="M 581 4863 
L 1159 4863 
L 1159 1991 
L 2875 3500 
L 3609 3500 
L 1753 1863 
L 3688 0 
L 2938 0 
L 1159 1709 
L 1159 0 
L 581 0 
L 581 4863 
z
" transform="scale(0.015625)"/>
       <path id="DejaVuSans-4a" d="M 628 4666 
L 1259 4666 
L 1259 325 
Q 1259 -519 939 -900 
Q 619 -1281 -91 -1281 
L -331 -1281 
L -331 -750 
L -134 -750 
Q 284 -750 456 -515 
Q 628 -281 628 325 
L 628 4666 
z
" transform="scale(0.015625)"/>
       <path id="DejaVuSans-6f" d="M 1959 3097 
Q 1497 3097 1228 2736 
Q 959 2375 959 1747 
Q 959 1119 1226 758 
Q 1494 397 1959 397 
Q 2419 397 2687 759 
Q 2956 1122 2956 1747 
Q 2956 2369 2687 2733 
Q 2419 3097 1959 3097 
z
M 1959 3584 
Q 2709 3584 3137 3096 
Q 3566 2609 3566 1747 
Q 3566 888 3137 398 
Q 2709 -91 1959 -91 
Q 1206 -91 779 398 
Q 353 888 353 1747 
Q 353 2609 779 3096 
Q 1206 3584 1959 3584 
z
" transform="scale(0.015625)"/>
       <path id="DejaVuSans-6e" d="M 3513 2113 
L 3513 0 
L 2938 0 
L 2938 2094 
Q 2938 2591 2744 2837 
Q 2550 3084 2163 3084 
Q 1697 3084 1428 2787 
Q 1159 2491 1159 1978 
L 1159 0 
L 581 0 
L 581 3500 
L 1159 3500 
L 1159 2956 
Q 1366 3272 1645 3428 
Q 1925 3584 2291 3584 
Q 2894 3584 3203 3211 
Q 3513 2838 3513 2113 
z
" transform="scale(0.015625)"/>
       <path id="DejaVuSans-73" d="M 2834 3397 
L 2834 2853 
Q 2591 2978 2328 3040 
Q 2066 3103 1784 3103 
Q 1356 3103 1142 2972 
Q 928 2841 928 2578 
Q 928 2378 1081 2264 
Q 1234 2150 1697 2047 
L 1894 2003 
Q 2506 1872 2764 1633 
Q 3022 1394 3022 966 
Q 3022 478 2636 193 
Q 2250 -91 1575 -91 
Q 1294 -91 989 -36 
Q 684 19 347 128 
L 347 722 
Q 666 556 975 473 
Q 1284 391 1588 391 
Q 1994 391 2212 530 
Q 2431 669 2431 922 
Q 2431 1156 2273 1281 
Q 2116 1406 1581 1522 
L 1381 1569 
Q 847 1681 609 1914 
Q 372 2147 372 2553 
Q 372 3047 722 3315 
Q 1072 3584 1716 3584 
Q 2034 3584 2315 3537 
Q 2597 3491 2834 3397 
z
" transform="scale(0.015625)"/>
      </defs>
      <use xlink:href="#DejaVuSans-43"/>
      <use xlink:href="#DejaVuSans-68" x="69.824219"/>
      <use xlink:href="#DejaVuSans-75" x="133.203125"/>
      <use xlink:href="#DejaVuSans-63" x="196.582031"/>
      <use xlink:href="#DejaVuSans-6b" x="251.5625"/>
      <use xlink:href="#DejaVuSans-20" x="309.472656"/>
      <use xlink:href="#DejaVuSans-4a" x="341.259766"/>
      <use xlink:href="#DejaVuSans-6f" x="370.751953"/>
      <use xlink:href="#DejaVuSans-6e" x="431.933594"/>
      <use xlink:href="#DejaVuSans-65" x="495.3125"/>
      <use xlink:href="#DejaVuSans-73" x="556.835938"/>
     </g>
    </g>
   </g>
   <g id="text_3">
    <g id="patch_4">
     <path d="M 389.816803 148.499083 
L 462.782897 148.499083 
L 462.782897 131.86877 
L 389.816803 131.86877 
z
" clip-path="url(#p923d69e967)" style="fill: #ffffff; opacity: 0.7; stroke: #000000; stroke-linejoin: miter"/>
    </g>
    <g clip-path="url(#p923d69e967)">
     <!-- William Hanna -->
     <g transform="translate(393.776803 142.667364)scale(0.09 -0.09)">
      <defs>
       <path id="DejaVuSans-57" d="M 213 4666 
L 850 4666 
L 1831 722 
L 2809 4666 
L 3519 4666 
L 4500 722 
L 5478 4666 
L 6119 4666 
L 4947 0 
L 4153 0 
L 3169 4050 
L 2175 0 
L 1381 0 
L 213 4666 
z
" transform="scale(0.015625)"/>
       <path id="DejaVuSans-6d" d="M 3328 2828 
Q 3544 3216 3844 3400 
Q 4144 3584 4550 3584 
Q 5097 3584 5394 3201 
Q 5691 2819 5691 2113 
L 5691 0 
L 5113 0 
L 5113 2094 
Q 5113 2597 4934 2840 
Q 4756 3084 4391 3084 
Q 3944 3084 3684 2787 
Q 3425 2491 3425 1978 
L 3425 0 
L 2847 0 
L 2847 2094 
Q 2847 2600 2669 2842 
Q 2491 3084 2119 3084 
Q 1678 3084 1418 2786 
Q 1159 2488 1159 1978 
L 1159 0 
L 581 0 
L 581 3500 
L 1159 3500 
L 1159 2956 
Q 1356 3278 1631 3431 
Q 1906 3584 2284 3584 
Q 2666 3584 2933 3390 
Q 3200 3197 3328 2828 
z
" transform="scale(0.015625)"/>
       <path id="DejaVuSans-48" d="M 628 4666 
L 1259 4666 
L 1259 2753 
L 3553 2753 
L 3553 4666 
L 4184 4666 
L 4184 0 
L 3553 0 
L 3553 2222 
L 1259 2222 
L 1259 0 
L 628 0 
L 628 4666 
z
" transform="scale(0.015625)"/>
      </defs>
      <use xlink:href="#DejaVuSans-57"/>
      <use xlink:href="#DejaVuSans-69" x="96.626953"/>
      <use xlink:href="#DejaVuSans-6c" x="124.410156"/>
      <use xlink:href="#DejaVuSans-6c" x="152.193359"/>
      <use xlink:href="#DejaVuSans-69" x="179.976562"/>
      <use xlink:href="#DejaVuSans-61" x="207.759766"/>
      <use xlink:href="#DejaVuSans-6d" x="269.039062"/>
      <use xlink:href="#DejaVuSans-20" x="366.451172"/>
      <use xlink:href="#DejaVuSans-48" x="398.238281"/>
      <use xlink:href="#DejaVuSans-61" x="473.433594"/>
      <use xlink:href="#DejaVuSans-6e" x="534.712891"/>
      <use xlink:href="#DejaVuSans-6e" x="598.091797"/>
      <use xlink:href="#DejaVuSans-61" x="661.470703"/>
     </g>
    </g>
   </g>
   <g id="text_4">
    <g id="patch_5">
     <path d="M 310.443119 103.921719 
L 386.885463 103.921719 
L 386.885463 87.291406 
L 310.443119 87.291406 
z
" clip-path="url(#p923d69e967)" style="fill: #ffffff; opacity: 0.7; stroke: #000000; stroke-linejoin: miter"/>
    </g>
    <g clip-path="url(#p923d69e967)">
     <!-- Joseph Barbera -->
     <g transform="translate(314.403119 98.09)scale(0.09 -0.09)">
      <defs>
       <path id="DejaVuSans-70" d="M 1159 525 
L 1159 -1331 
L 581 -1331 
L 581 3500 
L 1159 3500 
L 1159 2969 
Q 1341 3281 1617 3432 
Q 1894 3584 2278 3584 
Q 2916 3584 3314 3078 
Q 3713 2572 3713 1747 
Q 3713 922 3314 415 
Q 2916 -91 2278 -91 
Q 1894 -91 1617 61 
Q 1341 213 1159 525 
z
M 3116 1747 
Q 3116 2381 2855 2742 
Q 2594 3103 2138 3103 
Q 1681 3103 1420 2742 
Q 1159 2381 1159 1747 
Q 1159 1113 1420 752 
Q 1681 391 2138 391 
Q 2594 391 2855 752 
Q 3116 1113 3116 1747 
z
" transform="scale(0.015625)"/>
       <path id="DejaVuSans-42" d="M 1259 2228 
L 1259 519 
L 2272 519 
Q 2781 519 3026 730 
Q 3272 941 3272 1375 
Q 3272 1813 3026 2020 
Q 2781 2228 2272 2228 
L 1259 2228 
z
M 1259 4147 
L 1259 2741 
L 2194 2741 
Q 2656 2741 2882 2914 
Q 3109 3088 3109 3444 
Q 3109 3797 2882 3972 
Q 2656 4147 2194 4147 
L 1259 4147 
z
M 628 4666 
L 2241 4666 
Q 2963 4666 3353 4366 
Q 3744 4066 3744 3513 
Q 3744 3084 3544 2831 
Q 3344 2578 2956 2516 
Q 3422 2416 3680 2098 
Q 3938 1781 3938 1306 
Q 3938 681 3513 340 
Q 3088 0 2303 0 
L 628 0 
L 628 4666 
z
" transform="scale(0.015625)"/>
       <path id="DejaVuSans-62" d="M 3116 1747 
Q 3116 2381 2855 2742 
Q 2594 3103 2138 3103 
Q 1681 3103 1420 2742 
Q 1159 2381 1159 1747 
Q 1159 1113 1420 752 
Q 1681 391 2138 391 
Q 2594 391 2855 752 
Q 3116 1113 3116 1747 
z
M 1159 2969 
Q 1341 3281 1617 3432 
Q 1894 3584 2278 3584 
Q 2916 3584 3314 3078 
Q 3713 2572 3713 1747 
Q 3713 922 3314 415 
Q 2916 -91 2278 -91 
Q 1894 -91 1617 61 
Q 1341 213 1159 525 
L 1159 0 
L 581 0 
L 581 4863 
L 1159 4863 
L 1159 2969 
z
" transform="scale(0.015625)"/>
      </defs>
      <use xlink:href="#DejaVuSans-4a"/>
      <use xlink:href="#DejaVuSans-6f" x="29.492188"/>
      <use xlink:href="#DejaVuSans-73" x="90.673828"/>
      <use xlink:href="#DejaVuSans-65" x="142.773438"/>
      <use xlink:href="#DejaVuSans-70" x="204.296875"/>
      <use xlink:href="#DejaVuSans-68" x="267.773438"/>
      <use xlink:href="#DejaVuSans-20" x="331.152344"/>
      <use xlink:href="#DejaVuSans-42" x="362.939453"/>
      <use xlink:href="#DejaVuSans-61" x="431.542969"/>
      <use xlink:href="#DejaVuSans-72" x="492.822266"/>
      <use xlink:href="#DejaVuSans-62" x="533.935547"/>
      <use xlink:href="#DejaVuSans-65" x="597.412109"/>
      <use xlink:href="#DejaVuSans-72" x="658.935547"/>
      <use xlink:href="#DejaVuSans-61" x="700.048828"/>
     </g>
    </g>
   </g>
   <g id="text_5">
    <g id="patch_6">
     <path d="M 220.739939 94.602512 
L 298.279158 94.602512 
L 298.279158 77.9722 
L 220.739939 77.9722 
z
" clip-path="url(#p923d69e967)" style="fill: #ffffff; opacity: 0.7; stroke: #000000; stroke-linejoin: miter"/>
    </g>
    <g clip-path="url(#p923d69e967)">
     <!-- Howard Deutch -->
     <g transform="translate(224.699939 88.770793)scale(0.09 -0.09)">
      <defs>
       <path id="DejaVuSans-77" d="M 269 3500 
L 844 3500 
L 1563 769 
L 2278 3500 
L 2956 3500 
L 3675 769 
L 4391 3500 
L 4966 3500 
L 4050 0 
L 3372 0 
L 2619 2869 
L 1863 0 
L 1184 0 
L 269 3500 
z
" transform="scale(0.015625)"/>
       <path id="DejaVuSans-64" d="M 2906 2969 
L 2906 4863 
L 3481 4863 
L 3481 0 
L 2906 0 
L 2906 525 
Q 2725 213 2448 61 
Q 2172 -91 1784 -91 
Q 1150 -91 751 415 
Q 353 922 353 1747 
Q 353 2572 751 3078 
Q 1150 3584 1784 3584 
Q 2172 3584 2448 3432 
Q 2725 3281 2906 2969 
z
M 947 1747 
Q 947 1113 1208 752 
Q 1469 391 1925 391 
Q 2381 391 2643 752 
Q 2906 1113 2906 1747 
Q 2906 2381 2643 2742 
Q 2381 3103 1925 3103 
Q 1469 3103 1208 2742 
Q 947 2381 947 1747 
z
" transform="scale(0.015625)"/>
       <path id="DejaVuSans-44" d="M 1259 4147 
L 1259 519 
L 2022 519 
Q 2988 519 3436 956 
Q 3884 1394 3884 2338 
Q 3884 3275 3436 3711 
Q 2988 4147 2022 4147 
L 1259 4147 
z
M 628 4666 
L 1925 4666 
Q 3281 4666 3915 4102 
Q 4550 3538 4550 2338 
Q 4550 1131 3912 565 
Q 3275 0 1925 0 
L 628 0 
L 628 4666 
z
" transform="scale(0.015625)"/>
      </defs>
      <use xlink:href="#DejaVuSans-48"/>
      <use xlink:href="#DejaVuSans-6f" x="75.195312"/>
      <use xlink:href="#DejaVuSans-77" x="136.376953"/>
      <use xlink:href="#DejaVuSans-61" x="218.164062"/>
      <use xlink:href="#DejaVuSans-72" x="279.443359"/>
      <use xlink:href="#DejaVuSans-64" x="318.806641"/>
      <use xlink:href="#DejaVuSans-20" x="382.283203"/>
      <use xlink:href="#DejaVuSans-44" x="414.070312"/>
      <use xlink:href="#DejaVuSans-65" x="491.072266"/>
      <use xlink:href="#DejaVuSans-75" x="552.595703"/>
      <use xlink:href="#DejaVuSans-74" x="615.974609"/>
      <use xlink:href="#DejaVuSans-63" x="655.183594"/>
      <use xlink:href="#DejaVuSans-68" x="710.164062"/>
     </g>
    </g>
   </g>
   <g id="text_6">
    <g id="patch_7">
     <path d="M 130.320048 122.152849 
L 218.182548 122.152849 
L 218.182548 105.522536 
L 130.320048 105.522536 
z
" clip-path="url(#p923d69e967)" style="fill: #ffffff; opacity: 0.7; stroke: #000000; stroke-linejoin: miter"/>
    </g>
    <g clip-path="url(#p923d69e967)">
     <!-- Robert Stevenson -->
     <g transform="translate(134.280048 116.32113)scale(0.09 -0.09)">
      <defs>
       <path id="DejaVuSans-52" d="M 2841 2188 
Q 3044 2119 3236 1894 
Q 3428 1669 3622 1275 
L 4263 0 
L 3584 0 
L 2988 1197 
Q 2756 1666 2539 1819 
Q 2322 1972 1947 1972 
L 1259 1972 
L 1259 0 
L 628 0 
L 628 4666 
L 2053 4666 
Q 2853 4666 3247 4331 
Q 3641 3997 3641 3322 
Q 3641 2881 3436 2590 
Q 3231 2300 2841 2188 
z
M 1259 4147 
L 1259 2491 
L 2053 2491 
Q 2509 2491 2742 2702 
Q 2975 2913 2975 3322 
Q 2975 3731 2742 3939 
Q 2509 4147 2053 4147 
L 1259 4147 
z
" transform="scale(0.015625)"/>
       <path id="DejaVuSans-53" d="M 3425 4513 
L 3425 3897 
Q 3066 4069 2747 4153 
Q 2428 4238 2131 4238 
Q 1616 4238 1336 4038 
Q 1056 3838 1056 3469 
Q 1056 3159 1242 3001 
Q 1428 2844 1947 2747 
L 2328 2669 
Q 3034 2534 3370 2195 
Q 3706 1856 3706 1288 
Q 3706 609 3251 259 
Q 2797 -91 1919 -91 
Q 1588 -91 1214 -16 
Q 841 59 441 206 
L 441 856 
Q 825 641 1194 531 
Q 1563 422 1919 422 
Q 2459 422 2753 634 
Q 3047 847 3047 1241 
Q 3047 1584 2836 1778 
Q 2625 1972 2144 2069 
L 1759 2144 
Q 1053 2284 737 2584 
Q 422 2884 422 3419 
Q 422 4038 858 4394 
Q 1294 4750 2059 4750 
Q 2388 4750 2728 4690 
Q 3069 4631 3425 4513 
z
" transform="scale(0.015625)"/>
       <path id="DejaVuSans-76" d="M 191 3500 
L 800 3500 
L 1894 563 
L 2988 3500 
L 3597 3500 
L 2284 0 
L 1503 0 
L 191 3500 
z
" transform="scale(0.015625)"/>
      </defs>
      <use xlink:href="#DejaVuSans-52"/>
      <use xlink:href="#DejaVuSans-6f" x="64.982422"/>
      <use xlink:href="#DejaVuSans-62" x="126.164062"/>
      <use xlink:href="#DejaVuSans-65" x="189.640625"/>
      <use xlink:href="#DejaVuSans-72" x="251.164062"/>
      <use xlink:href="#DejaVuSans-74" x="292.277344"/>
      <use xlink:href="#DejaVuSans-20" x="331.486328"/>
      <use xlink:href="#DejaVuSans-53" x="363.273438"/>
      <use xlink:href="#DejaVuSans-74" x="426.75"/>
      <use xlink:href="#DejaVuSans-65" x="465.958984"/>
      <use xlink:href="#DejaVuSans-76" x="527.482422"/>
      <use xlink:href="#DejaVuSans-65" x="586.662109"/>
      <use xlink:href="#DejaVuSans-6e" x="648.185547"/>
      <use xlink:href="#DejaVuSans-73" x="711.564453"/>
      <use xlink:href="#DejaVuSans-6f" x="763.664062"/>
      <use xlink:href="#DejaVuSans-6e" x="824.845703"/>
     </g>
    </g>
   </g>
   <g id="text_7">
    <g id="patch_8">
     <path d="M 71.680696 181.80901 
L 143.582258 181.80901 
L 143.582258 165.178697 
L 71.680696 165.178697 
z
" clip-path="url(#p923d69e967)" style="fill: #ffffff; opacity: 0.7; stroke: #000000; stroke-linejoin: miter"/>
    </g>
    <g clip-path="url(#p923d69e967)">
     <!-- Michael Apted -->
     <g transform="translate(75.640696 175.977291)scale(0.09 -0.09)">
      <defs>
       <path id="DejaVuSans-41" d="M 2188 4044 
L 1331 1722 
L 3047 1722 
L 2188 4044 
z
M 1831 4666 
L 2547 4666 
L 4325 0 
L 3669 0 
L 3244 1197 
L 1141 1197 
L 716 0 
L 50 0 
L 1831 4666 
z
" transform="scale(0.015625)"/>
      </defs>
      <use xlink:href="#DejaVuSans-4d"/>
      <use xlink:href="#DejaVuSans-69" x="86.279297"/>
      <use xlink:href="#DejaVuSans-63" x="114.0625"/>
      <use xlink:href="#DejaVuSans-68" x="169.042969"/>
      <use xlink:href="#DejaVuSans-61" x="232.421875"/>
      <use xlink:href="#DejaVuSans-65" x="293.701172"/>
      <use xlink:href="#DejaVuSans-6c" x="355.224609"/>
      <use xlink:href="#DejaVuSans-20" x="383.007812"/>
      <use xlink:href="#DejaVuSans-41" x="414.794922"/>
      <use xlink:href="#DejaVuSans-70" x="483.203125"/>
      <use xlink:href="#DejaVuSans-74" x="546.679688"/>
      <use xlink:href="#DejaVuSans-65" x="585.888672"/>
      <use xlink:href="#DejaVuSans-64" x="647.412109"/>
     </g>
    </g>
   </g>
   <g id="text_8">
    <g id="patch_9">
     <path d="M 31.817434 263.25593 
L 110.521028 263.25593 
L 110.521028 246.625618 
L 31.817434 246.625618 
z
" clip-path="url(#p923d69e967)" style="fill: #ffffff; opacity: 0.7; stroke: #000000; stroke-linejoin: miter"/>
    </g>
    <g clip-path="url(#p923d69e967)">
     <!-- Reginald Hudlin -->
     <g transform="translate(35.777434 257.424211)scale(0.09 -0.09)">
      <defs>
       <path id="DejaVuSans-67" d="M 2906 1791 
Q 2906 2416 2648 2759 
Q 2391 3103 1925 3103 
Q 1463 3103 1205 2759 
Q 947 2416 947 1791 
Q 947 1169 1205 825 
Q 1463 481 1925 481 
Q 2391 481 2648 825 
Q 2906 1169 2906 1791 
z
M 3481 434 
Q 3481 -459 3084 -895 
Q 2688 -1331 1869 -1331 
Q 1566 -1331 1297 -1286 
Q 1028 -1241 775 -1147 
L 775 -588 
Q 1028 -725 1275 -790 
Q 1522 -856 1778 -856 
Q 2344 -856 2625 -561 
Q 2906 -266 2906 331 
L 2906 616 
Q 2728 306 2450 153 
Q 2172 0 1784 0 
Q 1141 0 747 490 
Q 353 981 353 1791 
Q 353 2603 747 3093 
Q 1141 3584 1784 3584 
Q 2172 3584 2450 3431 
Q 2728 3278 2906 2969 
L 2906 3500 
L 3481 3500 
L 3481 434 
z
" transform="scale(0.015625)"/>
      </defs>
      <use xlink:href="#DejaVuSans-52"/>
      <use xlink:href="#DejaVuSans-65" x="64.982422"/>
      <use xlink:href="#DejaVuSans-67" x="126.505859"/>
      <use xlink:href="#DejaVuSans-69" x="189.982422"/>
      <use xlink:href="#DejaVuSans-6e" x="217.765625"/>
      <use xlink:href="#DejaVuSans-61" x="281.144531"/>
      <use xlink:href="#DejaVuSans-6c" x="342.423828"/>
      <use xlink:href="#DejaVuSans-64" x="370.207031"/>
      <use xlink:href="#DejaVuSans-20" x="433.683594"/>
      <use xlink:href="#DejaVuSans-48" x="465.470703"/>
      <use xlink:href="#DejaVuSans-75" x="540.666016"/>
      <use xlink:href="#DejaVuSans-64" x="604.044922"/>
      <use xlink:href="#DejaVuSans-6c" x="667.521484"/>
      <use xlink:href="#DejaVuSans-69" x="695.304688"/>
      <use xlink:href="#DejaVuSans-6e" x="723.087891"/>
     </g>
    </g>
   </g>
   <g id="text_9">
    <g id="patch_10">
     <path d="M 33.803775 352.410671 
L 108.534712 352.410671 
L 108.534712 335.780358 
L 33.803775 335.780358 
z
" clip-path="url(#p923d69e967)" style="fill: #ffffff; opacity: 0.7; stroke: #000000; stroke-linejoin: miter"/>
    </g>
    <g clip-path="url(#p923d69e967)">
     <!-- Howard Hawks -->
     <g transform="translate(37.763775 346.578952)scale(0.09 -0.09)">
      <use xlink:href="#DejaVuSans-48"/>
      <use xlink:href="#DejaVuSans-6f" x="75.195312"/>
      <use xlink:href="#DejaVuSans-77" x="136.376953"/>
      <use xlink:href="#DejaVuSans-61" x="218.164062"/>
      <use xlink:href="#DejaVuSans-72" x="279.443359"/>
      <use xlink:href="#DejaVuSans-64" x="318.806641"/>
      <use xlink:href="#DejaVuSans-20" x="382.283203"/>
      <use xlink:href="#DejaVuSans-48" x="414.070312"/>
      <use xlink:href="#DejaVuSans-61" x="489.265625"/>
      <use xlink:href="#DejaVuSans-77" x="550.544922"/>
      <use xlink:href="#DejaVuSans-6b" x="632.332031"/>
      <use xlink:href="#DejaVuSans-73" x="690.242188"/>
     </g>
    </g>
   </g>
   <g id="text_10">
    <g id="patch_11">
     <path d="M 75.61188 433.857565 
L 139.651099 433.857565 
L 139.651099 417.227253 
L 75.61188 417.227253 
z
" clip-path="url(#p923d69e967)" style="fill: #ffffff; opacity: 0.7; stroke: #000000; stroke-linejoin: miter"/>
    </g>
    <g clip-path="url(#p923d69e967)">
     <!-- Larry Peerce -->
     <g transform="translate(79.57188 428.025847)scale(0.09 -0.09)">
      <defs>
       <path id="DejaVuSans-4c" d="M 628 4666 
L 1259 4666 
L 1259 531 
L 3531 531 
L 3531 0 
L 628 0 
L 628 4666 
z
" transform="scale(0.015625)"/>
       <path id="DejaVuSans-79" d="M 2059 -325 
Q 1816 -950 1584 -1140 
Q 1353 -1331 966 -1331 
L 506 -1331 
L 506 -850 
L 844 -850 
Q 1081 -850 1212 -737 
Q 1344 -625 1503 -206 
L 1606 56 
L 191 3500 
L 800 3500 
L 1894 763 
L 2988 3500 
L 3597 3500 
L 2059 -325 
z
" transform="scale(0.015625)"/>
       <path id="DejaVuSans-50" d="M 1259 4147 
L 1259 2394 
L 2053 2394 
Q 2494 2394 2734 2622 
Q 2975 2850 2975 3272 
Q 2975 3691 2734 3919 
Q 2494 4147 2053 4147 
L 1259 4147 
z
M 628 4666 
L 2053 4666 
Q 2838 4666 3239 4311 
Q 3641 3956 3641 3272 
Q 3641 2581 3239 2228 
Q 2838 1875 2053 1875 
L 1259 1875 
L 1259 0 
L 628 0 
L 628 4666 
z
" transform="scale(0.015625)"/>
      </defs>
      <use xlink:href="#DejaVuSans-4c"/>
      <use xlink:href="#DejaVuSans-61" x="55.712891"/>
      <use xlink:href="#DejaVuSans-72" x="116.992188"/>
      <use xlink:href="#DejaVuSans-72" x="156.355469"/>
      <use xlink:href="#DejaVuSans-79" x="197.46875"/>
      <use xlink:href="#DejaVuSans-20" x="256.648438"/>
      <use xlink:href="#DejaVuSans-50" x="288.435547"/>
      <use xlink:href="#DejaVuSans-65" x="345.113281"/>
      <use xlink:href="#DejaVuSans-65" x="406.636719"/>
      <use xlink:href="#DejaVuSans-72" x="468.160156"/>
      <use xlink:href="#DejaVuSans-63" x="507.023438"/>
      <use xlink:href="#DejaVuSans-65" x="562.003906"/>
     </g>
    </g>
   </g>
   <g id="text_11">
    <g id="patch_12">
     <path d="M 149.270002 493.513727 
L 199.232658 493.513727 
L 199.232658 476.883414 
L 149.270002 476.883414 
z
" clip-path="url(#p923d69e967)" style="fill: #ffffff; opacity: 0.7; stroke: #000000; stroke-linejoin: miter"/>
    </g>
    <g clip-path="url(#p923d69e967)">
     <!-- John Ford -->
     <g transform="translate(153.230002 487.682008)scale(0.09 -0.09)">
      <defs>
       <path id="DejaVuSans-46" d="M 628 4666 
L 3309 4666 
L 3309 4134 
L 1259 4134 
L 1259 2759 
L 3109 2759 
L 3109 2228 
L 1259 2228 
L 1259 0 
L 628 0 
L 628 4666 
z
" transform="scale(0.015625)"/>
      </defs>
      <use xlink:href="#DejaVuSans-4a"/>
      <use xlink:href="#DejaVuSans-6f" x="29.492188"/>
      <use xlink:href="#DejaVuSans-68" x="90.673828"/>
      <use xlink:href="#DejaVuSans-6e" x="154.052734"/>
      <use xlink:href="#DejaVuSans-20" x="217.431641"/>
      <use xlink:href="#DejaVuSans-46" x="249.21875"/>
      <use xlink:href="#DejaVuSans-6f" x="303.113281"/>
      <use xlink:href="#DejaVuSans-72" x="364.294922"/>
      <use xlink:href="#DejaVuSans-64" x="403.658203"/>
     </g>
    </g>
   </g>
   <g id="text_12">
    <g id="patch_13">
     <path d="M 222.525915 521.06405 
L 296.493259 521.06405 
L 296.493259 504.433738 
L 222.525915 504.433738 
z
" clip-path="url(#p923d69e967)" style="fill: #ffffff; opacity: 0.7; stroke: #000000; stroke-linejoin: miter"/>
    </g>
    <g clip-path="url(#p923d69e967)">
     <!-- Brad Silberling -->
     <g transform="translate(226.485915 515.232332)scale(0.09 -0.09)">
      <use xlink:href="#DejaVuSans-42"/>
      <use xlink:href="#DejaVuSans-72" x="68.603516"/>
      <use xlink:href="#DejaVuSans-61" x="109.716797"/>
      <use xlink:href="#DejaVuSans-64" x="170.996094"/>
      <use xlink:href="#DejaVuSans-20" x="234.472656"/>
      <use xlink:href="#DejaVuSans-53" x="266.259766"/>
      <use xlink:href="#DejaVuSans-69" x="329.736328"/>
      <use xlink:href="#DejaVuSans-6c" x="357.519531"/>
      <use xlink:href="#DejaVuSans-62" x="385.302734"/>
      <use xlink:href="#DejaVuSans-65" x="448.779297"/>
      <use xlink:href="#DejaVuSans-72" x="510.302734"/>
      <use xlink:href="#DejaVuSans-6c" x="551.416016"/>
      <use xlink:href="#DejaVuSans-69" x="579.199219"/>
      <use xlink:href="#DejaVuSans-6e" x="606.982422"/>
      <use xlink:href="#DejaVuSans-67" x="670.361328"/>
     </g>
    </g>
   </g>
   <g id="text_13">
    <g id="patch_14">
     <path d="M 318.327292 511.744831 
L 379.001355 511.744831 
L 379.001355 495.114518 
L 318.327292 495.114518 
z
" clip-path="url(#p923d69e967)" style="fill: #ffffff; opacity: 0.7; stroke: #000000; stroke-linejoin: miter"/>
    </g>
    <g clip-path="url(#p923d69e967)">
     <!-- Adrian Lyne -->
     <g transform="translate(322.287292 505.913112)scale(0.09 -0.09)">
      <use xlink:href="#DejaVuSans-41"/>
      <use xlink:href="#DejaVuSans-64" x="66.658203"/>
      <use xlink:href="#DejaVuSans-72" x="130.134766"/>
      <use xlink:href="#DejaVuSans-69" x="171.248047"/>
      <use xlink:href="#DejaVuSans-61" x="199.03125"/>
      <use xlink:href="#DejaVuSans-6e" x="260.310547"/>
      <use xlink:href="#DejaVuSans-20" x="323.689453"/>
      <use xlink:href="#DejaVuSans-4c" x="355.476562"/>
      <use xlink:href="#DejaVuSans-79" x="402.064453"/>
      <use xlink:href="#DejaVuSans-6e" x="461.244141"/>
      <use xlink:href="#DejaVuSans-65" x="524.623047"/>
     </g>
    </g>
   </g>
   <g id="text_14">
    <g id="patch_15">
     <path d="M 412.496138 467.167441 
L 440.103638 467.167441 
L 440.103638 450.537129 
L 412.496138 450.537129 
z
" clip-path="url(#p923d69e967)" style="fill: #ffffff; opacity: 0.7; stroke: #000000; stroke-linejoin: miter"/>
    </g>
    <g clip-path="url(#p923d69e967)">
     <!-- McG -->
     <g transform="translate(416.456138 461.335723)scale(0.09 -0.09)">
      <defs>
       <path id="DejaVuSans-47" d="M 3809 666 
L 3809 1919 
L 2778 1919 
L 2778 2438 
L 4434 2438 
L 4434 434 
Q 4069 175 3628 42 
Q 3188 -91 2688 -91 
Q 1594 -91 976 548 
Q 359 1188 359 2328 
Q 359 3472 976 4111 
Q 1594 4750 2688 4750 
Q 3144 4750 3555 4637 
Q 3966 4525 4313 4306 
L 4313 3634 
Q 3963 3931 3569 4081 
Q 3175 4231 2741 4231 
Q 1884 4231 1454 3753 
Q 1025 3275 1025 2328 
Q 1025 1384 1454 906 
Q 1884 428 2741 428 
Q 3075 428 3337 486 
Q 3600 544 3809 666 
z
" transform="scale(0.015625)"/>
      </defs>
      <use xlink:href="#DejaVuSans-4d"/>
      <use xlink:href="#DejaVuSans-63" x="86.279297"/>
      <use xlink:href="#DejaVuSans-47" x="141.259766"/>
     </g>
    </g>
   </g>
   <g id="text_15">
    <g id="patch_16">
     <path d="M 445.81542 395.039741 
L 512.169327 395.039741 
L 512.169327 378.409428 
L 445.81542 378.409428 
z
" clip-path="url(#p923d69e967)" style="fill: #ffffff; opacity: 0.7; stroke: #000000; stroke-linejoin: miter"/>
    </g>
    <g clip-path="url(#p923d69e967)">
     <!-- Greg Mottola -->
     <g transform="translate(449.77542 389.208022)scale(0.09 -0.09)">
      <use xlink:href="#DejaVuSans-47"/>
      <use xlink:href="#DejaVuSans-72" x="77.490234"/>
      <use xlink:href="#DejaVuSans-65" x="116.353516"/>
      <use xlink:href="#DejaVuSans-67" x="177.876953"/>
      <use xlink:href="#DejaVuSans-20" x="241.353516"/>
      <use xlink:href="#DejaVuSans-4d" x="273.140625"/>
      <use xlink:href="#DejaVuSans-6f" x="359.419922"/>
      <use xlink:href="#DejaVuSans-74" x="420.601562"/>
      <use xlink:href="#DejaVuSans-74" x="459.810547"/>
      <use xlink:href="#DejaVuSans-6f" x="499.019531"/>
      <use xlink:href="#DejaVuSans-6c" x="560.201172"/>
      <use xlink:href="#DejaVuSans-61" x="587.984375"/>
     </g>
    </g>
   </g>
   <g id="text_16">
    <!-- Impactful directors for Family Film genre - Importance rank: 3 -->
    <g transform="translate(99.602812 16.318125)scale(0.12 -0.12)">
     <defs>
      <path id="DejaVuSans-49" d="M 628 4666 
L 1259 4666 
L 1259 0 
L 628 0 
L 628 4666 
z
" transform="scale(0.015625)"/>
      <path id="DejaVuSans-66" d="M 2375 4863 
L 2375 4384 
L 1825 4384 
Q 1516 4384 1395 4259 
Q 1275 4134 1275 3809 
L 1275 3500 
L 2222 3500 
L 2222 3053 
L 1275 3053 
L 1275 0 
L 697 0 
L 697 3053 
L 147 3053 
L 147 3500 
L 697 3500 
L 697 3744 
Q 697 4328 969 4595 
Q 1241 4863 1831 4863 
L 2375 4863 
z
" transform="scale(0.015625)"/>
      <path id="DejaVuSans-2d" d="M 313 2009 
L 1997 2009 
L 1997 1497 
L 313 1497 
L 313 2009 
z
" transform="scale(0.015625)"/>
      <path id="DejaVuSans-3a" d="M 750 794 
L 1409 794 
L 1409 0 
L 750 0 
L 750 794 
z
M 750 3309 
L 1409 3309 
L 1409 2516 
L 750 2516 
L 750 3309 
z
" transform="scale(0.015625)"/>
      <path id="DejaVuSans-33" d="M 2597 2516 
Q 3050 2419 3304 2112 
Q 3559 1806 3559 1356 
Q 3559 666 3084 287 
Q 2609 -91 1734 -91 
Q 1441 -91 1130 -33 
Q 819 25 488 141 
L 488 750 
Q 750 597 1062 519 
Q 1375 441 1716 441 
Q 2309 441 2620 675 
Q 2931 909 2931 1356 
Q 2931 1769 2642 2001 
Q 2353 2234 1838 2234 
L 1294 2234 
L 1294 2753 
L 1863 2753 
Q 2328 2753 2575 2939 
Q 2822 3125 2822 3475 
Q 2822 3834 2567 4026 
Q 2313 4219 1838 4219 
Q 1578 4219 1281 4162 
Q 984 4106 628 3988 
L 628 4550 
Q 988 4650 1302 4700 
Q 1616 4750 1894 4750 
Q 2613 4750 3031 4423 
Q 3450 4097 3450 3541 
Q 3450 3153 3228 2886 
Q 3006 2619 2597 2516 
z
" transform="scale(0.015625)"/>
     </defs>
     <use xlink:href="#DejaVuSans-49"/>
     <use xlink:href="#DejaVuSans-6d" x="29.492188"/>
     <use xlink:href="#DejaVuSans-70" x="126.904297"/>
     <use xlink:href="#DejaVuSans-61" x="190.380859"/>
     <use xlink:href="#DejaVuSans-63" x="251.660156"/>
     <use xlink:href="#DejaVuSans-74" x="306.640625"/>
     <use xlink:href="#DejaVuSans-66" x="345.849609"/>
     <use xlink:href="#DejaVuSans-75" x="381.054688"/>
     <use xlink:href="#DejaVuSans-6c" x="444.433594"/>
     <use xlink:href="#DejaVuSans-20" x="472.216797"/>
     <use xlink:href="#DejaVuSans-64" x="504.003906"/>
     <use xlink:href="#DejaVuSans-69" x="567.480469"/>
     <use xlink:href="#DejaVuSans-72" x="595.263672"/>
     <use xlink:href="#DejaVuSans-65" x="634.126953"/>
     <use xlink:href="#DejaVuSans-63" x="695.650391"/>
     <use xlink:href="#DejaVuSans-74" x="750.630859"/>
     <use xlink:href="#DejaVuSans-6f" x="789.839844"/>
     <use xlink:href="#DejaVuSans-72" x="851.021484"/>
     <use xlink:href="#DejaVuSans-73" x="892.134766"/>
     <use xlink:href="#DejaVuSans-20" x="944.234375"/>
     <use xlink:href="#DejaVuSans-66" x="976.021484"/>
     <use xlink:href="#DejaVuSans-6f" x="1011.226562"/>
     <use xlink:href="#DejaVuSans-72" x="1072.408203"/>
     <use xlink:href="#DejaVuSans-20" x="1113.521484"/>
     <use xlink:href="#DejaVuSans-46" x="1145.308594"/>
     <use xlink:href="#DejaVuSans-61" x="1193.703125"/>
     <use xlink:href="#DejaVuSans-6d" x="1254.982422"/>
     <use xlink:href="#DejaVuSans-69" x="1352.394531"/>
     <use xlink:href="#DejaVuSans-6c" x="1380.177734"/>
     <use xlink:href="#DejaVuSans-79" x="1407.960938"/>
     <use xlink:href="#DejaVuSans-20" x="1467.140625"/>
     <use xlink:href="#DejaVuSans-46" x="1498.927734"/>
     <use xlink:href="#DejaVuSans-69" x="1549.197266"/>
     <use xlink:href="#DejaVuSans-6c" x="1576.980469"/>
     <use xlink:href="#DejaVuSans-6d" x="1604.763672"/>
     <use xlink:href="#DejaVuSans-20" x="1702.175781"/>
     <use xlink:href="#DejaVuSans-67" x="1733.962891"/>
     <use xlink:href="#DejaVuSans-65" x="1797.439453"/>
     <use xlink:href="#DejaVuSans-6e" x="1858.962891"/>
     <use xlink:href="#DejaVuSans-72" x="1922.341797"/>
     <use xlink:href="#DejaVuSans-65" x="1961.205078"/>
     <use xlink:href="#DejaVuSans-20" x="2022.728516"/>
     <use xlink:href="#DejaVuSans-2d" x="2054.515625"/>
     <use xlink:href="#DejaVuSans-20" x="2090.599609"/>
     <use xlink:href="#DejaVuSans-49" x="2122.386719"/>
     <use xlink:href="#DejaVuSans-6d" x="2151.878906"/>
     <use xlink:href="#DejaVuSans-70" x="2249.291016"/>
     <use xlink:href="#DejaVuSans-6f" x="2312.767578"/>
     <use xlink:href="#DejaVuSans-72" x="2373.949219"/>
     <use xlink:href="#DejaVuSans-74" x="2415.0625"/>
     <use xlink:href="#DejaVuSans-61" x="2454.271484"/>
     <use xlink:href="#DejaVuSans-6e" x="2515.550781"/>
     <use xlink:href="#DejaVuSans-63" x="2578.929688"/>
     <use xlink:href="#DejaVuSans-65" x="2633.910156"/>
     <use xlink:href="#DejaVuSans-20" x="2695.433594"/>
     <use xlink:href="#DejaVuSans-72" x="2727.220703"/>
     <use xlink:href="#DejaVuSans-61" x="2768.333984"/>
     <use xlink:href="#DejaVuSans-6e" x="2829.613281"/>
     <use xlink:href="#DejaVuSans-6b" x="2892.992188"/>
     <use xlink:href="#DejaVuSans-3a" x="2950.902344"/>
     <use xlink:href="#DejaVuSans-20" x="2984.59375"/>
     <use xlink:href="#DejaVuSans-33" x="3016.380859"/>
    </g>
   </g>
  </g>
 </g>
 <defs>
  <clipPath id="p923d69e967">
   <rect x="7.2" y="22.318125" width="554.4" height="554.4"/>
  </clipPath>
 </defs>
</svg>
