<?xml version="1.0" encoding="utf-8" standalone="no"?>
<!DOCTYPE svg PUBLIC "-//W3C//DTD SVG 1.1//EN"
  "http://www.w3.org/Graphics/SVG/1.1/DTD/svg11.dtd">
<svg xmlns:xlink="http://www.w3.org/1999/xlink" width="576pt" height="576pt" viewBox="0 0 576 576" xmlns="http://www.w3.org/2000/svg" version="1.1">
 <metadata>
  <rdf:RDF xmlns:dc="http://purl.org/dc/elements/1.1/" xmlns:cc="http://creativecommons.org/ns#" xmlns:rdf="http://www.w3.org/1999/02/22-rdf-syntax-ns#">
   <cc:Work>
    <dc:type rdf:resource="http://purl.org/dc/dcmitype/StillImage"/>
    <dc:date>2022-12-22T16:13:50.437909</dc:date>
    <dc:format>image/svg+xml</dc:format>
    <dc:creator>
     <cc:Agent>
      <dc:title>Matplotlib v3.5.2, https://matplotlib.org/</dc:title>
     </cc:Agent>
    </dc:creator>
   </cc:Work>
  </rdf:RDF>
 </metadata>
 <defs>
  <style type="text/css">*{stroke-linejoin: round; stroke-linecap: butt}</style>
 </defs>
 <g id="figure_1">
  <g id="patch_1">
   <path d="M 0 576 
L 576 576 
L 576 0 
L 0 0 
z
" style="fill: #ffffff"/>
  </g>
  <g id="axes_1">
   <g id="LineCollection_1">
    <path d="M 481.846154 200.793508 
L 431.754643 128.665802 
" clip-path="url(#p4b2c2c51af)" style="fill: none; stroke: #000000; stroke-opacity: 0.3; stroke-width: 10"/>
    <path d="M 192.147616 102.319567 
L 128.816257 161.975729 
" clip-path="url(#p4b2c2c51af)" style="fill: none; stroke: #000000; stroke-opacity: 0.3; stroke-width: 8.006092"/>
    <path d="M 94.153846 243.422649 
L 94.153858 332.577389 
" clip-path="url(#p4b2c2c51af)" style="fill: none; stroke: #000000; stroke-opacity: 0.3; stroke-width: 5"/>
    <path d="M 94.153846 243.422649 
L 128.816269 414.024284 
" clip-path="url(#p4b2c2c51af)" style="fill: none; stroke: #000000; stroke-opacity: 0.3; stroke-width: 5"/>
    <path d="M 94.153858 332.577389 
L 128.816269 414.024284 
" clip-path="url(#p4b2c2c51af)" style="fill: none; stroke: #000000; stroke-opacity: 0.3; stroke-width: 7.495128"/>
   </g>
   <g id="PathCollection_1">
    <path d="M 499.564553 315.386128 
C 506.827439 315.386128 513.793833 312.500553 518.929469 307.364917 
C 524.065105 302.229281 526.95068 295.262886 526.95068 288 
C 526.95068 280.737114 524.065105 273.770719 518.929469 268.635083 
C 513.793833 263.499447 506.827439 260.613872 499.564553 260.613872 
C 492.301667 260.613872 485.335272 263.499447 480.199636 268.635083 
C 475.064 273.770719 472.178425 280.737114 472.178425 288 
C 472.178425 295.262886 475.064 302.229281 480.199636 307.364917 
C 485.335272 312.500553 492.301667 315.386128 499.564553 315.386128 
z
" clip-path="url(#p4b2c2c51af)" style="fill: #d62728; fill-opacity: 0.99; stroke: #d62728; stroke-opacity: 0.99"/>
    <path d="M 481.846154 225.952686 
C 488.518446 225.952686 494.918356 223.301756 499.636379 218.583734 
C 504.354402 213.865711 507.005331 207.4658 507.005331 200.793508 
C 507.005331 194.121217 504.354402 187.721306 499.636379 183.003283 
C 494.918356 178.28526 488.518446 175.634331 481.846154 175.634331 
C 475.173862 175.634331 468.773952 178.28526 464.055929 183.003283 
C 459.337906 187.721306 456.686976 194.121217 456.686976 200.793508 
C 456.686976 207.4658 459.337906 213.865711 464.055929 218.583734 
C 468.773952 223.301756 475.173862 225.952686 481.846154 225.952686 
z
" clip-path="url(#p4b2c2c51af)" style="fill: #d62728; fill-opacity: 0.99; stroke: #d62728; stroke-opacity: 0.99"/>
    <path d="M 431.754643 153.747971 
C 438.406512 153.747971 444.786833 151.105155 449.490415 146.401574 
C 454.193997 141.697992 456.836812 135.317671 456.836812 128.665802 
C 456.836812 122.013933 454.193997 115.633611 449.490415 110.93003 
C 444.786833 106.226448 438.406512 103.583632 431.754643 103.583632 
C 425.102774 103.583632 418.722453 106.226448 414.018871 110.93003 
C 409.315289 115.633611 406.672473 122.013933 406.672473 128.665802 
C 406.672473 135.317671 409.315289 141.697992 414.018871 146.401574 
C 418.722453 151.105155 425.102774 153.747971 431.754643 153.747971 
z
" clip-path="url(#p4b2c2c51af)" style="fill: #d62728; fill-opacity: 0.99; stroke: #d62728; stroke-opacity: 0.99"/>
    <path d="M 357.951301 108.397857 
C 364.398234 108.397857 370.581986 105.836463 375.140656 101.277793 
C 379.699327 96.719123 382.26072 90.535371 382.26072 84.088438 
C 382.26072 77.641504 379.699327 71.457753 375.140656 66.899082 
C 370.581986 62.340412 364.398234 59.779018 357.951301 59.779018 
C 351.504368 59.779018 345.320616 62.340412 340.761946 66.899082 
C 336.203276 71.457753 333.641882 77.641504 333.641882 84.088438 
C 333.641882 90.535371 336.203276 96.719123 340.761946 101.277793 
C 345.320616 105.836463 351.504368 108.397857 357.951301 108.397857 
z
" clip-path="url(#p4b2c2c51af)" style="fill: #d62728; fill-opacity: 0.99; stroke: #d62728; stroke-opacity: 0.99"/>
    <path d="M 273.197381 98.144681 
C 279.396623 98.144681 285.342794 95.681696 289.72632 91.29817 
C 294.109846 86.914644 296.572831 80.968473 296.572831 74.769231 
C 296.572831 68.569989 294.109846 62.623817 289.72632 58.240292 
C 285.342794 53.856766 279.396623 51.393781 273.197381 51.393781 
C 266.998139 51.393781 261.051968 53.856766 256.668442 58.240292 
C 252.284916 62.623817 249.821931 68.569989 249.821931 74.769231 
C 249.821931 80.968473 252.284916 86.914644 256.668442 91.29817 
C 261.051968 95.681696 266.998139 98.144681 273.197381 98.144681 
z
" clip-path="url(#p4b2c2c51af)" style="fill: #d62728; fill-opacity: 0.99; stroke: #d62728; stroke-opacity: 0.99"/>
    <path d="M 192.147616 125.21382 
C 198.219242 125.21382 204.043008 122.801537 208.336297 118.508248 
C 212.629585 114.21496 215.041868 108.391194 215.041868 102.319567 
C 215.041868 96.247941 212.629585 90.424175 208.336297 86.130886 
C 204.043008 81.837598 198.219242 79.425315 192.147616 79.425315 
C 186.075989 79.425315 180.252223 81.837598 175.958935 86.130886 
C 171.665646 90.424175 169.253363 96.247941 169.253363 102.319567 
C 169.253363 108.391194 171.665646 114.21496 175.958935 118.508248 
C 180.252223 122.801537 186.075989 125.21382 192.147616 125.21382 
z
" clip-path="url(#p4b2c2c51af)" style="fill: #d62728; fill-opacity: 0.99; stroke: #d62728; stroke-opacity: 0.99"/>
    <path d="M 128.816257 184.869981 
C 134.887884 184.869981 140.71165 182.457698 145.004938 178.16441 
C 149.298226 173.871121 151.710509 168.047355 151.710509 161.975729 
C 151.710509 155.904102 149.298226 150.080336 145.004938 145.787048 
C 140.71165 141.493759 134.887884 139.081476 128.816257 139.081476 
C 122.74463 139.081476 116.920864 141.493759 112.627576 145.787048 
C 108.334287 150.080336 105.922005 155.904102 105.922005 161.975729 
C 105.922005 168.047355 108.334287 173.871121 112.627576 178.16441 
C 116.920864 182.457698 122.74463 184.869981 128.816257 184.869981 
z
" clip-path="url(#p4b2c2c51af)" style="fill: #d62728; fill-opacity: 0.99; stroke: #d62728; stroke-opacity: 0.99"/>
    <path d="M 94.153846 266.035324 
C 100.150798 266.035324 105.902937 263.65271 110.143422 259.412225 
C 114.383907 255.17174 116.766521 249.4196 116.766521 243.422649 
C 116.766521 237.425697 114.383907 231.673558 110.143422 227.433073 
C 105.902937 223.192588 100.150798 220.809974 94.153846 220.809974 
C 88.156895 220.809974 82.404755 223.192588 78.16427 227.433073 
C 73.923785 231.673558 71.541171 237.425697 71.541171 243.422649 
C 71.541171 249.4196 73.923785 255.17174 78.16427 259.412225 
C 82.404755 263.65271 88.156895 266.035324 94.153846 266.035324 
z
" clip-path="url(#p4b2c2c51af)" style="fill: #d62728; fill-opacity: 0.99; stroke: #d62728; stroke-opacity: 0.99"/>
    <path d="M 94.153858 355.15603 
C 100.141784 355.15603 105.885265 352.777002 110.119368 348.542899 
C 114.353471 344.308796 116.732499 338.565315 116.732499 332.577389 
C 116.732499 326.589464 114.353471 320.845983 110.119368 316.61188 
C 105.885265 312.377777 100.141784 309.998749 94.153858 309.998749 
C 88.165933 309.998749 82.422451 312.377777 78.188349 316.61188 
C 73.954246 320.845983 71.575218 326.589464 71.575218 332.577389 
C 71.575218 338.565315 73.954246 344.308796 78.188349 348.542899 
C 82.422451 352.777002 88.165933 355.15603 94.153858 355.15603 
z
" clip-path="url(#p4b2c2c51af)" style="fill: #d62728; fill-opacity: 0.99; stroke: #d62728; stroke-opacity: 0.99"/>
    <path d="M 128.816269 435.370393 
C 134.477323 435.370393 139.907278 433.121233 143.910248 429.118263 
C 147.913218 425.115293 150.162378 419.685338 150.162378 414.024284 
C 150.162378 408.36323 147.913218 402.933275 143.910248 398.930305 
C 139.907278 394.927336 134.477323 392.678175 128.816269 392.678175 
C 123.155215 392.678175 117.72526 394.927336 113.722291 398.930305 
C 109.719321 402.933275 107.47016 408.36323 107.47016 414.024284 
C 107.47016 419.685338 109.719321 425.115293 113.722291 429.118263 
C 117.72526 433.121233 123.155215 435.370393 128.816269 435.370393 
z
" clip-path="url(#p4b2c2c51af)" style="fill: #d62728; fill-opacity: 0.99; stroke: #d62728; stroke-opacity: 0.99"/>
    <path d="M 192.147646 494.884216 
C 197.770952 494.884216 203.164698 492.650053 207.140976 488.673775 
C 211.117253 484.697498 213.351416 479.303751 213.351416 473.680446 
C 213.351416 468.05714 211.117253 462.663393 207.140976 458.687116 
C 203.164698 454.710838 197.770952 452.476675 192.147646 452.476675 
C 186.524341 452.476675 181.130594 454.710838 177.154317 458.687116 
C 173.178039 462.663393 170.943876 468.05714 170.943876 473.680446 
C 170.943876 479.303751 173.178039 484.697498 177.154317 488.673775 
C 181.130594 492.650053 186.524341 494.884216 192.147646 494.884216 
z
" clip-path="url(#p4b2c2c51af)" style="fill: #d62728; fill-opacity: 0.99; stroke: #d62728; stroke-opacity: 0.99"/>
    <path d="M 273.197418 521.985064 
C 278.701521 521.985064 283.980931 519.798261 287.87292 515.906272 
C 291.764909 512.014283 293.951712 506.734873 293.951712 501.230769 
C 293.951712 495.726666 291.764909 490.447255 287.87292 486.555267 
C 283.980931 482.663278 278.701521 480.476474 273.197418 480.476474 
C 267.693314 480.476474 262.413904 482.663278 258.521915 486.555267 
C 254.629926 490.447255 252.443123 495.726666 252.443123 501.230769 
C 252.443123 506.734873 254.629926 512.014283 258.521915 515.906272 
C 262.413904 519.798261 267.693314 521.985064 273.197418 521.985064 
z
" clip-path="url(#p4b2c2c51af)" style="fill: #d62728; fill-opacity: 0.99; stroke: #d62728; stroke-opacity: 0.99"/>
    <path d="M 357.951332 511.995443 
C 363.277642 511.995443 368.386518 509.879277 372.152789 506.113007 
C 375.919059 502.346736 378.035225 497.23786 378.035225 491.91155 
C 378.035225 486.585239 375.919059 481.476363 372.152789 477.710092 
C 368.386518 473.943822 363.277642 471.827656 357.951332 471.827656 
C 352.625021 471.827656 347.516145 473.943822 343.749874 477.710092 
C 339.983604 481.476363 337.867438 486.585239 337.867438 491.91155 
C 337.867438 497.23786 339.983604 502.346736 343.749874 506.113007 
C 347.516145 509.879277 352.625021 511.995443 357.951332 511.995443 
z
" clip-path="url(#p4b2c2c51af)" style="fill: #d62728; fill-opacity: 0.99; stroke: #d62728; stroke-opacity: 0.99"/>
    <path d="M 431.75468 467.390052 
C 437.073564 467.390052 442.175317 465.276837 445.936337 461.515817 
C 449.697356 457.754798 451.810572 452.653045 451.810572 447.33416 
C 451.810572 442.015275 449.697356 436.913522 445.936337 433.152503 
C 442.175317 429.391483 437.073564 427.278268 431.75468 427.278268 
C 426.435795 427.278268 421.334042 429.391483 417.573022 433.152503 
C 413.812003 436.913522 411.698787 442.015275 411.698787 447.33416 
C 411.698787 452.653045 413.812003 457.754798 417.573022 461.515817 
C 421.334042 465.276837 426.435795 467.390052 431.75468 467.390052 
z
" clip-path="url(#p4b2c2c51af)" style="fill: #d62728; fill-opacity: 0.99; stroke: #d62728; stroke-opacity: 0.99"/>
    <path d="M 481.846178 394.571376 
C 486.981814 394.571376 491.907799 392.530967 495.539242 388.899524 
C 499.170685 385.268081 501.211095 380.342096 501.211095 375.20646 
C 501.211095 370.070824 499.170685 365.144839 495.539242 361.513396 
C 491.907799 357.881953 486.981814 355.841543 481.846178 355.841543 
C 476.710542 355.841543 471.784557 357.881953 468.153114 361.513396 
C 464.521671 365.144839 462.481262 370.070824 462.481262 375.20646 
C 462.481262 380.342096 464.521671 385.268081 468.153114 388.899524 
C 471.784557 392.530967 476.710542 394.571376 481.846178 394.571376 
z
" clip-path="url(#p4b2c2c51af)" style="fill: #d62728; fill-opacity: 0.99; stroke: #d62728; stroke-opacity: 0.99"/>
   </g>
   <g id="text_1">
    <g id="patch_2">
     <path d="M 468.202365 296.315156 
L 530.92674 296.315156 
L 530.92674 279.684844 
L 468.202365 279.684844 
z
" clip-path="url(#p4b2c2c51af)" style="fill: #ffffff; opacity: 0.7; stroke: #000000; stroke-linejoin: miter"/>
    </g>
    <g clip-path="url(#p4b2c2c51af)">
     <!-- Chuck Jones -->
     <g transform="translate(472.162365 290.483437)scale(0.09 -0.09)">
      <defs>
       <path id="DejaVuSans-43" d="M 4122 4306 
L 4122 3641 
Q 3803 3938 3442 4084 
Q 3081 4231 2675 4231 
Q 1875 4231 1450 3742 
Q 1025 3253 1025 2328 
Q 1025 1406 1450 917 
Q 1875 428 2675 428 
Q 3081 428 3442 575 
Q 3803 722 4122 1019 
L 4122 359 
Q 3791 134 3420 21 
Q 3050 -91 2638 -91 
Q 1578 -91 968 557 
Q 359 1206 359 2328 
Q 359 3453 968 4101 
Q 1578 4750 2638 4750 
Q 3056 4750 3426 4639 
Q 3797 4528 4122 4306 
z
" transform="scale(0.015625)"/>
       <path id="DejaVuSans-68" d="M 3513 2113 
L 3513 0 
L 2938 0 
L 2938 2094 
Q 2938 2591 2744 2837 
Q 2550 3084 2163 3084 
Q 1697 3084 1428 2787 
Q 1159 2491 1159 1978 
L 1159 0 
L 581 0 
L 581 4863 
L 1159 4863 
L 1159 2956 
Q 1366 3272 1645 3428 
Q 1925 3584 2291 3584 
Q 2894 3584 3203 3211 
Q 3513 2838 3513 2113 
z
" transform="scale(0.015625)"/>
       <path id="DejaVuSans-75" d="M 544 1381 
L 544 3500 
L 1119 3500 
L 1119 1403 
Q 1119 906 1312 657 
Q 1506 409 1894 409 
Q 2359 409 2629 706 
Q 2900 1003 2900 1516 
L 2900 3500 
L 3475 3500 
L 3475 0 
L 2900 0 
L 2900 538 
Q 2691 219 2414 64 
Q 2138 -91 1772 -91 
Q 1169 -91 856 284 
Q 544 659 544 1381 
z
M 1991 3584 
L 1991 3584 
z
" transform="scale(0.015625)"/>
       <path id="DejaVuSans-63" d="M 3122 3366 
L 3122 2828 
Q 2878 2963 2633 3030 
Q 2388 3097 2138 3097 
Q 1578 3097 1268 2742 
Q 959 2388 959 1747 
Q 959 1106 1268 751 
Q 1578 397 2138 397 
Q 2388 397 2633 464 
Q 2878 531 3122 666 
L 3122 134 
Q 2881 22 2623 -34 
Q 2366 -91 2075 -91 
Q 1284 -91 818 406 
Q 353 903 353 1747 
Q 353 2603 823 3093 
Q 1294 3584 2113 3584 
Q 2378 3584 2631 3529 
Q 2884 3475 3122 3366 
z
" transform="scale(0.015625)"/>
       <path id="DejaVuSans-6b" d="M 581 4863 
L 1159 4863 
L 1159 1991 
L 2875 3500 
L 3609 3500 
L 1753 1863 
L 3688 0 
L 2938 0 
L 1159 1709 
L 1159 0 
L 581 0 
L 581 4863 
z
" transform="scale(0.015625)"/>
       <path id="DejaVuSans-20" transform="scale(0.015625)"/>
       <path id="DejaVuSans-4a" d="M 628 4666 
L 1259 4666 
L 1259 325 
Q 1259 -519 939 -900 
Q 619 -1281 -91 -1281 
L -331 -1281 
L -331 -750 
L -134 -750 
Q 284 -750 456 -515 
Q 628 -281 628 325 
L 628 4666 
z
" transform="scale(0.015625)"/>
       <path id="DejaVuSans-6f" d="M 1959 3097 
Q 1497 3097 1228 2736 
Q 959 2375 959 1747 
Q 959 1119 1226 758 
Q 1494 397 1959 397 
Q 2419 397 2687 759 
Q 2956 1122 2956 1747 
Q 2956 2369 2687 2733 
Q 2419 3097 1959 3097 
z
M 1959 3584 
Q 2709 3584 3137 3096 
Q 3566 2609 3566 1747 
Q 3566 888 3137 398 
Q 2709 -91 1959 -91 
Q 1206 -91 779 398 
Q 353 888 353 1747 
Q 353 2609 779 3096 
Q 1206 3584 1959 3584 
z
" transform="scale(0.015625)"/>
       <path id="DejaVuSans-6e" d="M 3513 2113 
L 3513 0 
L 2938 0 
L 2938 2094 
Q 2938 2591 2744 2837 
Q 2550 3084 2163 3084 
Q 1697 3084 1428 2787 
Q 1159 2491 1159 1978 
L 1159 0 
L 581 0 
L 581 3500 
L 1159 3500 
L 1159 2956 
Q 1366 3272 1645 3428 
Q 1925 3584 2291 3584 
Q 2894 3584 3203 3211 
Q 3513 2838 3513 2113 
z
" transform="scale(0.015625)"/>
       <path id="DejaVuSans-65" d="M 3597 1894 
L 3597 1613 
L 953 1613 
Q 991 1019 1311 708 
Q 1631 397 2203 397 
Q 2534 397 2845 478 
Q 3156 559 3463 722 
L 3463 178 
Q 3153 47 2828 -22 
Q 2503 -91 2169 -91 
Q 1331 -91 842 396 
Q 353 884 353 1716 
Q 353 2575 817 3079 
Q 1281 3584 2069 3584 
Q 2775 3584 3186 3129 
Q 3597 2675 3597 1894 
z
M 3022 2063 
Q 3016 2534 2758 2815 
Q 2500 3097 2075 3097 
Q 1594 3097 1305 2825 
Q 1016 2553 972 2059 
L 3022 2063 
z
" transform="scale(0.015625)"/>
       <path id="DejaVuSans-73" d="M 2834 3397 
L 2834 2853 
Q 2591 2978 2328 3040 
Q 2066 3103 1784 3103 
Q 1356 3103 1142 2972 
Q 928 2841 928 2578 
Q 928 2378 1081 2264 
Q 1234 2150 1697 2047 
L 1894 2003 
Q 2506 1872 2764 1633 
Q 3022 1394 3022 966 
Q 3022 478 2636 193 
Q 2250 -91 1575 -91 
Q 1294 -91 989 -36 
Q 684 19 347 128 
L 347 722 
Q 666 556 975 473 
Q 1284 391 1588 391 
Q 1994 391 2212 530 
Q 2431 669 2431 922 
Q 2431 1156 2273 1281 
Q 2116 1406 1581 1522 
L 1381 1569 
Q 847 1681 609 1914 
Q 372 2147 372 2553 
Q 372 3047 722 3315 
Q 1072 3584 1716 3584 
Q 2034 3584 2315 3537 
Q 2597 3491 2834 3397 
z
" transform="scale(0.015625)"/>
      </defs>
      <use xlink:href="#DejaVuSans-43"/>
      <use xlink:href="#DejaVuSans-68" x="69.824219"/>
      <use xlink:href="#DejaVuSans-75" x="133.203125"/>
      <use xlink:href="#DejaVuSans-63" x="196.582031"/>
      <use xlink:href="#DejaVuSans-6b" x="251.5625"/>
      <use xlink:href="#DejaVuSans-20" x="309.472656"/>
      <use xlink:href="#DejaVuSans-4a" x="341.259766"/>
      <use xlink:href="#DejaVuSans-6f" x="370.751953"/>
      <use xlink:href="#DejaVuSans-6e" x="431.933594"/>
      <use xlink:href="#DejaVuSans-65" x="495.3125"/>
      <use xlink:href="#DejaVuSans-73" x="556.835938"/>
     </g>
    </g>
   </g>
   <g id="text_2">
    <g id="patch_3">
     <path d="M 443.624982 209.108665 
L 520.067326 209.108665 
L 520.067326 192.478352 
L 443.624982 192.478352 
z
" clip-path="url(#p4b2c2c51af)" style="fill: #ffffff; opacity: 0.7; stroke: #000000; stroke-linejoin: miter"/>
    </g>
    <g clip-path="url(#p4b2c2c51af)">
     <!-- Joseph Barbera -->
     <g transform="translate(447.584982 203.276946)scale(0.09 -0.09)">
      <defs>
       <path id="DejaVuSans-70" d="M 1159 525 
L 1159 -1331 
L 581 -1331 
L 581 3500 
L 1159 3500 
L 1159 2969 
Q 1341 3281 1617 3432 
Q 1894 3584 2278 3584 
Q 2916 3584 3314 3078 
Q 3713 2572 3713 1747 
Q 3713 922 3314 415 
Q 2916 -91 2278 -91 
Q 1894 -91 1617 61 
Q 1341 213 1159 525 
z
M 3116 1747 
Q 3116 2381 2855 2742 
Q 2594 3103 2138 3103 
Q 1681 3103 1420 2742 
Q 1159 2381 1159 1747 
Q 1159 1113 1420 752 
Q 1681 391 2138 391 
Q 2594 391 2855 752 
Q 3116 1113 3116 1747 
z
" transform="scale(0.015625)"/>
       <path id="DejaVuSans-42" d="M 1259 2228 
L 1259 519 
L 2272 519 
Q 2781 519 3026 730 
Q 3272 941 3272 1375 
Q 3272 1813 3026 2020 
Q 2781 2228 2272 2228 
L 1259 2228 
z
M 1259 4147 
L 1259 2741 
L 2194 2741 
Q 2656 2741 2882 2914 
Q 3109 3088 3109 3444 
Q 3109 3797 2882 3972 
Q 2656 4147 2194 4147 
L 1259 4147 
z
M 628 4666 
L 2241 4666 
Q 2963 4666 3353 4366 
Q 3744 4066 3744 3513 
Q 3744 3084 3544 2831 
Q 3344 2578 2956 2516 
Q 3422 2416 3680 2098 
Q 3938 1781 3938 1306 
Q 3938 681 3513 340 
Q 3088 0 2303 0 
L 628 0 
L 628 4666 
z
" transform="scale(0.015625)"/>
       <path id="DejaVuSans-61" d="M 2194 1759 
Q 1497 1759 1228 1600 
Q 959 1441 959 1056 
Q 959 750 1161 570 
Q 1363 391 1709 391 
Q 2188 391 2477 730 
Q 2766 1069 2766 1631 
L 2766 1759 
L 2194 1759 
z
M 3341 1997 
L 3341 0 
L 2766 0 
L 2766 531 
Q 2569 213 2275 61 
Q 1981 -91 1556 -91 
Q 1019 -91 701 211 
Q 384 513 384 1019 
Q 384 1609 779 1909 
Q 1175 2209 1959 2209 
L 2766 2209 
L 2766 2266 
Q 2766 2663 2505 2880 
Q 2244 3097 1772 3097 
Q 1472 3097 1187 3025 
Q 903 2953 641 2809 
L 641 3341 
Q 956 3463 1253 3523 
Q 1550 3584 1831 3584 
Q 2591 3584 2966 3190 
Q 3341 2797 3341 1997 
z
" transform="scale(0.015625)"/>
       <path id="DejaVuSans-72" d="M 2631 2963 
Q 2534 3019 2420 3045 
Q 2306 3072 2169 3072 
Q 1681 3072 1420 2755 
Q 1159 2438 1159 1844 
L 1159 0 
L 581 0 
L 581 3500 
L 1159 3500 
L 1159 2956 
Q 1341 3275 1631 3429 
Q 1922 3584 2338 3584 
Q 2397 3584 2469 3576 
Q 2541 3569 2628 3553 
L 2631 2963 
z
" transform="scale(0.015625)"/>
       <path id="DejaVuSans-62" d="M 3116 1747 
Q 3116 2381 2855 2742 
Q 2594 3103 2138 3103 
Q 1681 3103 1420 2742 
Q 1159 2381 1159 1747 
Q 1159 1113 1420 752 
Q 1681 391 2138 391 
Q 2594 391 2855 752 
Q 3116 1113 3116 1747 
z
M 1159 2969 
Q 1341 3281 1617 3432 
Q 1894 3584 2278 3584 
Q 2916 3584 3314 3078 
Q 3713 2572 3713 1747 
Q 3713 922 3314 415 
Q 2916 -91 2278 -91 
Q 1894 -91 1617 61 
Q 1341 213 1159 525 
L 1159 0 
L 581 0 
L 581 4863 
L 1159 4863 
L 1159 2969 
z
" transform="scale(0.015625)"/>
      </defs>
      <use xlink:href="#DejaVuSans-4a"/>
      <use xlink:href="#DejaVuSans-6f" x="29.492188"/>
      <use xlink:href="#DejaVuSans-73" x="90.673828"/>
      <use xlink:href="#DejaVuSans-65" x="142.773438"/>
      <use xlink:href="#DejaVuSans-70" x="204.296875"/>
      <use xlink:href="#DejaVuSans-68" x="267.773438"/>
      <use xlink:href="#DejaVuSans-20" x="331.152344"/>
      <use xlink:href="#DejaVuSans-42" x="362.939453"/>
      <use xlink:href="#DejaVuSans-61" x="431.542969"/>
      <use xlink:href="#DejaVuSans-72" x="492.822266"/>
      <use xlink:href="#DejaVuSans-62" x="533.935547"/>
      <use xlink:href="#DejaVuSans-65" x="597.412109"/>
      <use xlink:href="#DejaVuSans-72" x="658.935547"/>
      <use xlink:href="#DejaVuSans-61" x="700.048828"/>
     </g>
    </g>
   </g>
   <g id="text_3">
    <g id="patch_4">
     <path d="M 395.271596 136.980958 
L 468.23769 136.980958 
L 468.23769 120.350645 
L 395.271596 120.350645 
z
" clip-path="url(#p4b2c2c51af)" style="fill: #ffffff; opacity: 0.7; stroke: #000000; stroke-linejoin: miter"/>
    </g>
    <g clip-path="url(#p4b2c2c51af)">
     <!-- William Hanna -->
     <g transform="translate(399.231596 131.149239)scale(0.09 -0.09)">
      <defs>
       <path id="DejaVuSans-57" d="M 213 4666 
L 850 4666 
L 1831 722 
L 2809 4666 
L 3519 4666 
L 4500 722 
L 5478 4666 
L 6119 4666 
L 4947 0 
L 4153 0 
L 3169 4050 
L 2175 0 
L 1381 0 
L 213 4666 
z
" transform="scale(0.015625)"/>
       <path id="DejaVuSans-69" d="M 603 3500 
L 1178 3500 
L 1178 0 
L 603 0 
L 603 3500 
z
M 603 4863 
L 1178 4863 
L 1178 4134 
L 603 4134 
L 603 4863 
z
" transform="scale(0.015625)"/>
       <path id="DejaVuSans-6c" d="M 603 4863 
L 1178 4863 
L 1178 0 
L 603 0 
L 603 4863 
z
" transform="scale(0.015625)"/>
       <path id="DejaVuSans-6d" d="M 3328 2828 
Q 3544 3216 3844 3400 
Q 4144 3584 4550 3584 
Q 5097 3584 5394 3201 
Q 5691 2819 5691 2113 
L 5691 0 
L 5113 0 
L 5113 2094 
Q 5113 2597 4934 2840 
Q 4756 3084 4391 3084 
Q 3944 3084 3684 2787 
Q 3425 2491 3425 1978 
L 3425 0 
L 2847 0 
L 2847 2094 
Q 2847 2600 2669 2842 
Q 2491 3084 2119 3084 
Q 1678 3084 1418 2786 
Q 1159 2488 1159 1978 
L 1159 0 
L 581 0 
L 581 3500 
L 1159 3500 
L 1159 2956 
Q 1356 3278 1631 3431 
Q 1906 3584 2284 3584 
Q 2666 3584 2933 3390 
Q 3200 3197 3328 2828 
z
" transform="scale(0.015625)"/>
       <path id="DejaVuSans-48" d="M 628 4666 
L 1259 4666 
L 1259 2753 
L 3553 2753 
L 3553 4666 
L 4184 4666 
L 4184 0 
L 3553 0 
L 3553 2222 
L 1259 2222 
L 1259 0 
L 628 0 
L 628 4666 
z
" transform="scale(0.015625)"/>
      </defs>
      <use xlink:href="#DejaVuSans-57"/>
      <use xlink:href="#DejaVuSans-69" x="96.626953"/>
      <use xlink:href="#DejaVuSans-6c" x="124.410156"/>
      <use xlink:href="#DejaVuSans-6c" x="152.193359"/>
      <use xlink:href="#DejaVuSans-69" x="179.976562"/>
      <use xlink:href="#DejaVuSans-61" x="207.759766"/>
      <use xlink:href="#DejaVuSans-6d" x="269.039062"/>
      <use xlink:href="#DejaVuSans-20" x="366.451172"/>
      <use xlink:href="#DejaVuSans-48" x="398.238281"/>
      <use xlink:href="#DejaVuSans-61" x="473.433594"/>
      <use xlink:href="#DejaVuSans-6e" x="534.712891"/>
      <use xlink:href="#DejaVuSans-6e" x="598.091797"/>
      <use xlink:href="#DejaVuSans-61" x="661.470703"/>
     </g>
    </g>
   </g>
   <g id="text_4">
    <g id="patch_5">
     <path d="M 315.965598 92.403594 
L 399.937004 92.403594 
L 399.937004 75.773281 
L 315.965598 75.773281 
z
" clip-path="url(#p4b2c2c51af)" style="fill: #ffffff; opacity: 0.7; stroke: #000000; stroke-linejoin: miter"/>
    </g>
    <g clip-path="url(#p4b2c2c51af)">
     <!-- Robert Zemeckis -->
     <g transform="translate(319.925598 86.571875)scale(0.09 -0.09)">
      <defs>
       <path id="DejaVuSans-52" d="M 2841 2188 
Q 3044 2119 3236 1894 
Q 3428 1669 3622 1275 
L 4263 0 
L 3584 0 
L 2988 1197 
Q 2756 1666 2539 1819 
Q 2322 1972 1947 1972 
L 1259 1972 
L 1259 0 
L 628 0 
L 628 4666 
L 2053 4666 
Q 2853 4666 3247 4331 
Q 3641 3997 3641 3322 
Q 3641 2881 3436 2590 
Q 3231 2300 2841 2188 
z
M 1259 4147 
L 1259 2491 
L 2053 2491 
Q 2509 2491 2742 2702 
Q 2975 2913 2975 3322 
Q 2975 3731 2742 3939 
Q 2509 4147 2053 4147 
L 1259 4147 
z
" transform="scale(0.015625)"/>
       <path id="DejaVuSans-74" d="M 1172 4494 
L 1172 3500 
L 2356 3500 
L 2356 3053 
L 1172 3053 
L 1172 1153 
Q 1172 725 1289 603 
Q 1406 481 1766 481 
L 2356 481 
L 2356 0 
L 1766 0 
Q 1100 0 847 248 
Q 594 497 594 1153 
L 594 3053 
L 172 3053 
L 172 3500 
L 594 3500 
L 594 4494 
L 1172 4494 
z
" transform="scale(0.015625)"/>
       <path id="DejaVuSans-5a" d="M 359 4666 
L 4025 4666 
L 4025 4184 
L 1075 531 
L 4097 531 
L 4097 0 
L 288 0 
L 288 481 
L 3238 4134 
L 359 4134 
L 359 4666 
z
" transform="scale(0.015625)"/>
      </defs>
      <use xlink:href="#DejaVuSans-52"/>
      <use xlink:href="#DejaVuSans-6f" x="64.982422"/>
      <use xlink:href="#DejaVuSans-62" x="126.164062"/>
      <use xlink:href="#DejaVuSans-65" x="189.640625"/>
      <use xlink:href="#DejaVuSans-72" x="251.164062"/>
      <use xlink:href="#DejaVuSans-74" x="292.277344"/>
      <use xlink:href="#DejaVuSans-20" x="331.486328"/>
      <use xlink:href="#DejaVuSans-5a" x="363.273438"/>
      <use xlink:href="#DejaVuSans-65" x="431.779297"/>
      <use xlink:href="#DejaVuSans-6d" x="493.302734"/>
      <use xlink:href="#DejaVuSans-65" x="590.714844"/>
      <use xlink:href="#DejaVuSans-63" x="652.238281"/>
      <use xlink:href="#DejaVuSans-6b" x="707.21875"/>
      <use xlink:href="#DejaVuSans-69" x="765.128906"/>
      <use xlink:href="#DejaVuSans-73" x="792.912109"/>
     </g>
    </g>
   </g>
   <g id="text_5">
    <g id="patch_6">
     <path d="M 233.934881 83.084387 
L 312.459881 83.084387 
L 312.459881 66.454075 
L 233.934881 66.454075 
z
" clip-path="url(#p4b2c2c51af)" style="fill: #ffffff; opacity: 0.7; stroke: #000000; stroke-linejoin: miter"/>
    </g>
    <g clip-path="url(#p4b2c2c51af)">
     <!-- Chris Columbus -->
     <g transform="translate(237.894881 77.252668)scale(0.09 -0.09)">
      <use xlink:href="#DejaVuSans-43"/>
      <use xlink:href="#DejaVuSans-68" x="69.824219"/>
      <use xlink:href="#DejaVuSans-72" x="133.203125"/>
      <use xlink:href="#DejaVuSans-69" x="174.316406"/>
      <use xlink:href="#DejaVuSans-73" x="202.099609"/>
      <use xlink:href="#DejaVuSans-20" x="254.199219"/>
      <use xlink:href="#DejaVuSans-43" x="285.986328"/>
      <use xlink:href="#DejaVuSans-6f" x="355.810547"/>
      <use xlink:href="#DejaVuSans-6c" x="416.992188"/>
      <use xlink:href="#DejaVuSans-75" x="444.775391"/>
      <use xlink:href="#DejaVuSans-6d" x="508.154297"/>
      <use xlink:href="#DejaVuSans-62" x="605.566406"/>
      <use xlink:href="#DejaVuSans-75" x="669.042969"/>
      <use xlink:href="#DejaVuSans-73" x="732.421875"/>
     </g>
    </g>
   </g>
   <g id="text_6">
    <g id="patch_7">
     <path d="M 160.832538 110.634724 
L 223.462694 110.634724 
L 223.462694 94.004411 
L 160.832538 94.004411 
z
" clip-path="url(#p4b2c2c51af)" style="fill: #ffffff; opacity: 0.7; stroke: #000000; stroke-linejoin: miter"/>
    </g>
    <g clip-path="url(#p4b2c2c51af)">
     <!-- John Musker -->
     <g transform="translate(164.792538 104.803005)scale(0.09 -0.09)">
      <defs>
       <path id="DejaVuSans-4d" d="M 628 4666 
L 1569 4666 
L 2759 1491 
L 3956 4666 
L 4897 4666 
L 4897 0 
L 4281 0 
L 4281 4097 
L 3078 897 
L 2444 897 
L 1241 4097 
L 1241 0 
L 628 0 
L 628 4666 
z
" transform="scale(0.015625)"/>
      </defs>
      <use xlink:href="#DejaVuSans-4a"/>
      <use xlink:href="#DejaVuSans-6f" x="29.492188"/>
      <use xlink:href="#DejaVuSans-68" x="90.673828"/>
      <use xlink:href="#DejaVuSans-6e" x="154.052734"/>
      <use xlink:href="#DejaVuSans-20" x="217.431641"/>
      <use xlink:href="#DejaVuSans-4d" x="249.21875"/>
      <use xlink:href="#DejaVuSans-75" x="335.498047"/>
      <use xlink:href="#DejaVuSans-73" x="398.876953"/>
      <use xlink:href="#DejaVuSans-6b" x="450.976562"/>
      <use xlink:href="#DejaVuSans-65" x="505.261719"/>
      <use xlink:href="#DejaVuSans-72" x="566.785156"/>
     </g>
    </g>
   </g>
   <g id="text_7">
    <g id="patch_8">
     <path d="M 93.622741 170.290885 
L 164.009773 170.290885 
L 164.009773 153.660572 
L 93.622741 153.660572 
z
" clip-path="url(#p4b2c2c51af)" style="fill: #ffffff; opacity: 0.7; stroke: #000000; stroke-linejoin: miter"/>
    </g>
    <g clip-path="url(#p4b2c2c51af)">
     <!-- Ron Clements -->
     <g transform="translate(97.582741 164.459166)scale(0.09 -0.09)">
      <use xlink:href="#DejaVuSans-52"/>
      <use xlink:href="#DejaVuSans-6f" x="64.982422"/>
      <use xlink:href="#DejaVuSans-6e" x="126.164062"/>
      <use xlink:href="#DejaVuSans-20" x="189.542969"/>
      <use xlink:href="#DejaVuSans-43" x="221.330078"/>
      <use xlink:href="#DejaVuSans-6c" x="291.154297"/>
      <use xlink:href="#DejaVuSans-65" x="318.9375"/>
      <use xlink:href="#DejaVuSans-6d" x="380.460938"/>
      <use xlink:href="#DejaVuSans-65" x="477.873047"/>
      <use xlink:href="#DejaVuSans-6e" x="539.396484"/>
      <use xlink:href="#DejaVuSans-74" x="602.775391"/>
      <use xlink:href="#DejaVuSans-73" x="641.984375"/>
     </g>
    </g>
   </g>
   <g id="text_8">
    <g id="patch_9">
     <path d="M 41.575565 251.737805 
L 146.732127 251.737805 
L 146.732127 235.107493 
L 41.575565 235.107493 
z
" clip-path="url(#p4b2c2c51af)" style="fill: #ffffff; opacity: 0.7; stroke: #000000; stroke-linejoin: miter"/>
    </g>
    <g clip-path="url(#p4b2c2c51af)">
     <!-- Wolfgang Reitherman -->
     <g transform="translate(45.535565 245.906086)scale(0.09 -0.09)">
      <defs>
       <path id="DejaVuSans-66" d="M 2375 4863 
L 2375 4384 
L 1825 4384 
Q 1516 4384 1395 4259 
Q 1275 4134 1275 3809 
L 1275 3500 
L 2222 3500 
L 2222 3053 
L 1275 3053 
L 1275 0 
L 697 0 
L 697 3053 
L 147 3053 
L 147 3500 
L 697 3500 
L 697 3744 
Q 697 4328 969 4595 
Q 1241 4863 1831 4863 
L 2375 4863 
z
" transform="scale(0.015625)"/>
       <path id="DejaVuSans-67" d="M 2906 1791 
Q 2906 2416 2648 2759 
Q 2391 3103 1925 3103 
Q 1463 3103 1205 2759 
Q 947 2416 947 1791 
Q 947 1169 1205 825 
Q 1463 481 1925 481 
Q 2391 481 2648 825 
Q 2906 1169 2906 1791 
z
M 3481 434 
Q 3481 -459 3084 -895 
Q 2688 -1331 1869 -1331 
Q 1566 -1331 1297 -1286 
Q 1028 -1241 775 -1147 
L 775 -588 
Q 1028 -725 1275 -790 
Q 1522 -856 1778 -856 
Q 2344 -856 2625 -561 
Q 2906 -266 2906 331 
L 2906 616 
Q 2728 306 2450 153 
Q 2172 0 1784 0 
Q 1141 0 747 490 
Q 353 981 353 1791 
Q 353 2603 747 3093 
Q 1141 3584 1784 3584 
Q 2172 3584 2450 3431 
Q 2728 3278 2906 2969 
L 2906 3500 
L 3481 3500 
L 3481 434 
z
" transform="scale(0.015625)"/>
      </defs>
      <use xlink:href="#DejaVuSans-57"/>
      <use xlink:href="#DejaVuSans-6f" x="93.001953"/>
      <use xlink:href="#DejaVuSans-6c" x="154.183594"/>
      <use xlink:href="#DejaVuSans-66" x="181.966797"/>
      <use xlink:href="#DejaVuSans-67" x="217.171875"/>
      <use xlink:href="#DejaVuSans-61" x="280.648438"/>
      <use xlink:href="#DejaVuSans-6e" x="341.927734"/>
      <use xlink:href="#DejaVuSans-67" x="405.306641"/>
      <use xlink:href="#DejaVuSans-20" x="468.783203"/>
      <use xlink:href="#DejaVuSans-52" x="500.570312"/>
      <use xlink:href="#DejaVuSans-65" x="565.552734"/>
      <use xlink:href="#DejaVuSans-69" x="627.076172"/>
      <use xlink:href="#DejaVuSans-74" x="654.859375"/>
      <use xlink:href="#DejaVuSans-68" x="694.068359"/>
      <use xlink:href="#DejaVuSans-65" x="757.447266"/>
      <use xlink:href="#DejaVuSans-72" x="818.970703"/>
      <use xlink:href="#DejaVuSans-6d" x="858.333984"/>
      <use xlink:href="#DejaVuSans-61" x="955.746094"/>
      <use xlink:href="#DejaVuSans-6e" x="1017.025391"/>
     </g>
    </g>
   </g>
   <g id="text_9">
    <g id="patch_10">
     <path d="M 55.588858 340.892546 
L 132.718858 340.892546 
L 132.718858 324.262233 
L 55.588858 324.262233 
z
" clip-path="url(#p4b2c2c51af)" style="fill: #ffffff; opacity: 0.7; stroke: #000000; stroke-linejoin: miter"/>
    </g>
    <g clip-path="url(#p4b2c2c51af)">
     <!-- Clyde Geronimi -->
     <g transform="translate(59.548858 335.060827)scale(0.09 -0.09)">
      <defs>
       <path id="DejaVuSans-79" d="M 2059 -325 
Q 1816 -950 1584 -1140 
Q 1353 -1331 966 -1331 
L 506 -1331 
L 506 -850 
L 844 -850 
Q 1081 -850 1212 -737 
Q 1344 -625 1503 -206 
L 1606 56 
L 191 3500 
L 800 3500 
L 1894 763 
L 2988 3500 
L 3597 3500 
L 2059 -325 
z
" transform="scale(0.015625)"/>
       <path id="DejaVuSans-64" d="M 2906 2969 
L 2906 4863 
L 3481 4863 
L 3481 0 
L 2906 0 
L 2906 525 
Q 2725 213 2448 61 
Q 2172 -91 1784 -91 
Q 1150 -91 751 415 
Q 353 922 353 1747 
Q 353 2572 751 3078 
Q 1150 3584 1784 3584 
Q 2172 3584 2448 3432 
Q 2725 3281 2906 2969 
z
M 947 1747 
Q 947 1113 1208 752 
Q 1469 391 1925 391 
Q 2381 391 2643 752 
Q 2906 1113 2906 1747 
Q 2906 2381 2643 2742 
Q 2381 3103 1925 3103 
Q 1469 3103 1208 2742 
Q 947 2381 947 1747 
z
" transform="scale(0.015625)"/>
       <path id="DejaVuSans-47" d="M 3809 666 
L 3809 1919 
L 2778 1919 
L 2778 2438 
L 4434 2438 
L 4434 434 
Q 4069 175 3628 42 
Q 3188 -91 2688 -91 
Q 1594 -91 976 548 
Q 359 1188 359 2328 
Q 359 3472 976 4111 
Q 1594 4750 2688 4750 
Q 3144 4750 3555 4637 
Q 3966 4525 4313 4306 
L 4313 3634 
Q 3963 3931 3569 4081 
Q 3175 4231 2741 4231 
Q 1884 4231 1454 3753 
Q 1025 3275 1025 2328 
Q 1025 1384 1454 906 
Q 1884 428 2741 428 
Q 3075 428 3337 486 
Q 3600 544 3809 666 
z
" transform="scale(0.015625)"/>
      </defs>
      <use xlink:href="#DejaVuSans-43"/>
      <use xlink:href="#DejaVuSans-6c" x="69.824219"/>
      <use xlink:href="#DejaVuSans-79" x="97.607422"/>
      <use xlink:href="#DejaVuSans-64" x="156.787109"/>
      <use xlink:href="#DejaVuSans-65" x="220.263672"/>
      <use xlink:href="#DejaVuSans-20" x="281.787109"/>
      <use xlink:href="#DejaVuSans-47" x="313.574219"/>
      <use xlink:href="#DejaVuSans-65" x="391.064453"/>
      <use xlink:href="#DejaVuSans-72" x="452.587891"/>
      <use xlink:href="#DejaVuSans-6f" x="491.451172"/>
      <use xlink:href="#DejaVuSans-6e" x="552.632812"/>
      <use xlink:href="#DejaVuSans-69" x="616.011719"/>
      <use xlink:href="#DejaVuSans-6d" x="643.794922"/>
      <use xlink:href="#DejaVuSans-69" x="741.207031"/>
     </g>
    </g>
   </g>
   <g id="text_10">
    <g id="patch_11">
     <path d="M 90.195019 422.33944 
L 167.437519 422.33944 
L 167.437519 405.709128 
L 90.195019 405.709128 
z
" clip-path="url(#p4b2c2c51af)" style="fill: #ffffff; opacity: 0.7; stroke: #000000; stroke-linejoin: miter"/>
    </g>
    <g clip-path="url(#p4b2c2c51af)">
     <!-- Hamilton Luske -->
     <g transform="translate(94.155019 416.507722)scale(0.09 -0.09)">
      <defs>
       <path id="DejaVuSans-4c" d="M 628 4666 
L 1259 4666 
L 1259 531 
L 3531 531 
L 3531 0 
L 628 0 
L 628 4666 
z
" transform="scale(0.015625)"/>
      </defs>
      <use xlink:href="#DejaVuSans-48"/>
      <use xlink:href="#DejaVuSans-61" x="75.195312"/>
      <use xlink:href="#DejaVuSans-6d" x="136.474609"/>
      <use xlink:href="#DejaVuSans-69" x="233.886719"/>
      <use xlink:href="#DejaVuSans-6c" x="261.669922"/>
      <use xlink:href="#DejaVuSans-74" x="289.453125"/>
      <use xlink:href="#DejaVuSans-6f" x="328.662109"/>
      <use xlink:href="#DejaVuSans-6e" x="389.84375"/>
      <use xlink:href="#DejaVuSans-20" x="453.222656"/>
      <use xlink:href="#DejaVuSans-4c" x="485.009766"/>
      <use xlink:href="#DejaVuSans-75" x="538.972656"/>
      <use xlink:href="#DejaVuSans-73" x="602.351562"/>
      <use xlink:href="#DejaVuSans-6b" x="654.451172"/>
      <use xlink:href="#DejaVuSans-65" x="708.736328"/>
     </g>
    </g>
   </g>
   <g id="text_11">
    <g id="patch_12">
     <path d="M 151.719365 481.995602 
L 232.575928 481.995602 
L 232.575928 465.365289 
L 151.719365 465.365289 
z
" clip-path="url(#p4b2c2c51af)" style="fill: #ffffff; opacity: 0.7; stroke: #000000; stroke-linejoin: miter"/>
    </g>
    <g clip-path="url(#p4b2c2c51af)">
     <!-- Carlos Saldanha -->
     <g transform="translate(155.679365 476.163883)scale(0.09 -0.09)">
      <defs>
       <path id="DejaVuSans-53" d="M 3425 4513 
L 3425 3897 
Q 3066 4069 2747 4153 
Q 2428 4238 2131 4238 
Q 1616 4238 1336 4038 
Q 1056 3838 1056 3469 
Q 1056 3159 1242 3001 
Q 1428 2844 1947 2747 
L 2328 2669 
Q 3034 2534 3370 2195 
Q 3706 1856 3706 1288 
Q 3706 609 3251 259 
Q 2797 -91 1919 -91 
Q 1588 -91 1214 -16 
Q 841 59 441 206 
L 441 856 
Q 825 641 1194 531 
Q 1563 422 1919 422 
Q 2459 422 2753 634 
Q 3047 847 3047 1241 
Q 3047 1584 2836 1778 
Q 2625 1972 2144 2069 
L 1759 2144 
Q 1053 2284 737 2584 
Q 422 2884 422 3419 
Q 422 4038 858 4394 
Q 1294 4750 2059 4750 
Q 2388 4750 2728 4690 
Q 3069 4631 3425 4513 
z
" transform="scale(0.015625)"/>
      </defs>
      <use xlink:href="#DejaVuSans-43"/>
      <use xlink:href="#DejaVuSans-61" x="69.824219"/>
      <use xlink:href="#DejaVuSans-72" x="131.103516"/>
      <use xlink:href="#DejaVuSans-6c" x="172.216797"/>
      <use xlink:href="#DejaVuSans-6f" x="200"/>
      <use xlink:href="#DejaVuSans-73" x="261.181641"/>
      <use xlink:href="#DejaVuSans-20" x="313.28125"/>
      <use xlink:href="#DejaVuSans-53" x="345.068359"/>
      <use xlink:href="#DejaVuSans-61" x="408.544922"/>
      <use xlink:href="#DejaVuSans-6c" x="469.824219"/>
      <use xlink:href="#DejaVuSans-64" x="497.607422"/>
      <use xlink:href="#DejaVuSans-61" x="561.083984"/>
      <use xlink:href="#DejaVuSans-6e" x="622.363281"/>
      <use xlink:href="#DejaVuSans-68" x="685.742188"/>
      <use xlink:href="#DejaVuSans-61" x="749.121094"/>
     </g>
    </g>
   </g>
   <g id="text_12">
    <g id="patch_13">
     <path d="M 242.663511 509.545925 
L 303.731324 509.545925 
L 303.731324 492.915613 
L 242.663511 492.915613 
z
" clip-path="url(#p4b2c2c51af)" style="fill: #ffffff; opacity: 0.7; stroke: #000000; stroke-linejoin: miter"/>
    </g>
    <g clip-path="url(#p4b2c2c51af)">
     <!-- Lee Unkrich -->
     <g transform="translate(246.623511 503.714207)scale(0.09 -0.09)">
      <defs>
       <path id="DejaVuSans-55" d="M 556 4666 
L 1191 4666 
L 1191 1831 
Q 1191 1081 1462 751 
Q 1734 422 2344 422 
Q 2950 422 3222 751 
Q 3494 1081 3494 1831 
L 3494 4666 
L 4128 4666 
L 4128 1753 
Q 4128 841 3676 375 
Q 3225 -91 2344 -91 
Q 1459 -91 1007 375 
Q 556 841 556 1753 
L 556 4666 
z
" transform="scale(0.015625)"/>
      </defs>
      <use xlink:href="#DejaVuSans-4c"/>
      <use xlink:href="#DejaVuSans-65" x="53.962891"/>
      <use xlink:href="#DejaVuSans-65" x="115.486328"/>
      <use xlink:href="#DejaVuSans-20" x="177.009766"/>
      <use xlink:href="#DejaVuSans-55" x="208.796875"/>
      <use xlink:href="#DejaVuSans-6e" x="281.990234"/>
      <use xlink:href="#DejaVuSans-6b" x="345.369141"/>
      <use xlink:href="#DejaVuSans-72" x="403.279297"/>
      <use xlink:href="#DejaVuSans-69" x="444.392578"/>
      <use xlink:href="#DejaVuSans-63" x="472.175781"/>
      <use xlink:href="#DejaVuSans-68" x="527.15625"/>
     </g>
    </g>
   </g>
   <g id="text_13">
    <g id="patch_14">
     <path d="M 328.028441 500.226706 
L 387.874222 500.226706 
L 387.874222 483.596393 
L 328.028441 483.596393 
z
" clip-path="url(#p4b2c2c51af)" style="fill: #ffffff; opacity: 0.7; stroke: #000000; stroke-linejoin: miter"/>
    </g>
    <g clip-path="url(#p4b2c2c51af)">
     <!-- Eric Darnell -->
     <g transform="translate(331.988441 494.394987)scale(0.09 -0.09)">
      <defs>
       <path id="DejaVuSans-45" d="M 628 4666 
L 3578 4666 
L 3578 4134 
L 1259 4134 
L 1259 2753 
L 3481 2753 
L 3481 2222 
L 1259 2222 
L 1259 531 
L 3634 531 
L 3634 0 
L 628 0 
L 628 4666 
z
" transform="scale(0.015625)"/>
       <path id="DejaVuSans-44" d="M 1259 4147 
L 1259 519 
L 2022 519 
Q 2988 519 3436 956 
Q 3884 1394 3884 2338 
Q 3884 3275 3436 3711 
Q 2988 4147 2022 4147 
L 1259 4147 
z
M 628 4666 
L 1925 4666 
Q 3281 4666 3915 4102 
Q 4550 3538 4550 2338 
Q 4550 1131 3912 565 
Q 3275 0 1925 0 
L 628 0 
L 628 4666 
z
" transform="scale(0.015625)"/>
      </defs>
      <use xlink:href="#DejaVuSans-45"/>
      <use xlink:href="#DejaVuSans-72" x="63.183594"/>
      <use xlink:href="#DejaVuSans-69" x="104.296875"/>
      <use xlink:href="#DejaVuSans-63" x="132.080078"/>
      <use xlink:href="#DejaVuSans-20" x="187.060547"/>
      <use xlink:href="#DejaVuSans-44" x="218.847656"/>
      <use xlink:href="#DejaVuSans-61" x="295.849609"/>
      <use xlink:href="#DejaVuSans-72" x="357.128906"/>
      <use xlink:href="#DejaVuSans-6e" x="396.492188"/>
      <use xlink:href="#DejaVuSans-65" x="459.871094"/>
      <use xlink:href="#DejaVuSans-6c" x="521.394531"/>
      <use xlink:href="#DejaVuSans-6c" x="549.177734"/>
     </g>
    </g>
   </g>
   <g id="text_14">
    <g id="patch_15">
     <path d="M 405.488742 455.649316 
L 458.020617 455.649316 
L 458.020617 439.019004 
L 405.488742 439.019004 
z
" clip-path="url(#p4b2c2c51af)" style="fill: #ffffff; opacity: 0.7; stroke: #000000; stroke-linejoin: miter"/>
    </g>
    <g clip-path="url(#p4b2c2c51af)">
     <!-- Don Bluth -->
     <g transform="translate(409.448742 449.817598)scale(0.09 -0.09)">
      <use xlink:href="#DejaVuSans-44"/>
      <use xlink:href="#DejaVuSans-6f" x="77.001953"/>
      <use xlink:href="#DejaVuSans-6e" x="138.183594"/>
      <use xlink:href="#DejaVuSans-20" x="201.5625"/>
      <use xlink:href="#DejaVuSans-42" x="233.349609"/>
      <use xlink:href="#DejaVuSans-6c" x="301.953125"/>
      <use xlink:href="#DejaVuSans-75" x="329.736328"/>
      <use xlink:href="#DejaVuSans-74" x="393.115234"/>
      <use xlink:href="#DejaVuSans-68" x="432.324219"/>
     </g>
    </g>
   </g>
   <g id="text_15">
    <g id="patch_16">
     <path d="M 447.566022 383.521616 
L 516.126335 383.521616 
L 516.126335 366.891303 
L 447.566022 366.891303 
z
" clip-path="url(#p4b2c2c51af)" style="fill: #ffffff; opacity: 0.7; stroke: #000000; stroke-linejoin: miter"/>
    </g>
    <g clip-path="url(#p4b2c2c51af)">
     <!-- John Lasseter -->
     <g transform="translate(451.526022 377.689897)scale(0.09 -0.09)">
      <use xlink:href="#DejaVuSans-4a"/>
      <use xlink:href="#DejaVuSans-6f" x="29.492188"/>
      <use xlink:href="#DejaVuSans-68" x="90.673828"/>
      <use xlink:href="#DejaVuSans-6e" x="154.052734"/>
      <use xlink:href="#DejaVuSans-20" x="217.431641"/>
      <use xlink:href="#DejaVuSans-4c" x="249.21875"/>
      <use xlink:href="#DejaVuSans-61" x="304.931641"/>
      <use xlink:href="#DejaVuSans-73" x="366.210938"/>
      <use xlink:href="#DejaVuSans-73" x="418.310547"/>
      <use xlink:href="#DejaVuSans-65" x="470.410156"/>
      <use xlink:href="#DejaVuSans-74" x="531.933594"/>
      <use xlink:href="#DejaVuSans-65" x="571.142578"/>
      <use xlink:href="#DejaVuSans-72" x="632.666016"/>
     </g>
    </g>
   </g>
   <g id="text_16">
    <!-- Impactful directors for Family Film genre -->
    <g transform="translate(166.637812 4.8)scale(0.12 -0.12)">
     <defs>
      <path id="DejaVuSans-49" d="M 628 4666 
L 1259 4666 
L 1259 0 
L 628 0 
L 628 4666 
z
" transform="scale(0.015625)"/>
      <path id="DejaVuSans-46" d="M 628 4666 
L 3309 4666 
L 3309 4134 
L 1259 4134 
L 1259 2759 
L 3109 2759 
L 3109 2228 
L 1259 2228 
L 1259 0 
L 628 0 
L 628 4666 
z
" transform="scale(0.015625)"/>
     </defs>
     <use xlink:href="#DejaVuSans-49"/>
     <use xlink:href="#DejaVuSans-6d" x="29.492188"/>
     <use xlink:href="#DejaVuSans-70" x="126.904297"/>
     <use xlink:href="#DejaVuSans-61" x="190.380859"/>
     <use xlink:href="#DejaVuSans-63" x="251.660156"/>
     <use xlink:href="#DejaVuSans-74" x="306.640625"/>
     <use xlink:href="#DejaVuSans-66" x="345.849609"/>
     <use xlink:href="#DejaVuSans-75" x="381.054688"/>
     <use xlink:href="#DejaVuSans-6c" x="444.433594"/>
     <use xlink:href="#DejaVuSans-20" x="472.216797"/>
     <use xlink:href="#DejaVuSans-64" x="504.003906"/>
     <use xlink:href="#DejaVuSans-69" x="567.480469"/>
     <use xlink:href="#DejaVuSans-72" x="595.263672"/>
     <use xlink:href="#DejaVuSans-65" x="634.126953"/>
     <use xlink:href="#DejaVuSans-63" x="695.650391"/>
     <use xlink:href="#DejaVuSans-74" x="750.630859"/>
     <use xlink:href="#DejaVuSans-6f" x="789.839844"/>
     <use xlink:href="#DejaVuSans-72" x="851.021484"/>
     <use xlink:href="#DejaVuSans-73" x="892.134766"/>
     <use xlink:href="#DejaVuSans-20" x="944.234375"/>
     <use xlink:href="#DejaVuSans-66" x="976.021484"/>
     <use xlink:href="#DejaVuSans-6f" x="1011.226562"/>
     <use xlink:href="#DejaVuSans-72" x="1072.408203"/>
     <use xlink:href="#DejaVuSans-20" x="1113.521484"/>
     <use xlink:href="#DejaVuSans-46" x="1145.308594"/>
     <use xlink:href="#DejaVuSans-61" x="1193.703125"/>
     <use xlink:href="#DejaVuSans-6d" x="1254.982422"/>
     <use xlink:href="#DejaVuSans-69" x="1352.394531"/>
     <use xlink:href="#DejaVuSans-6c" x="1380.177734"/>
     <use xlink:href="#DejaVuSans-79" x="1407.960938"/>
     <use xlink:href="#DejaVuSans-20" x="1467.140625"/>
     <use xlink:href="#DejaVuSans-46" x="1498.927734"/>
     <use xlink:href="#DejaVuSans-69" x="1549.197266"/>
     <use xlink:href="#DejaVuSans-6c" x="1576.980469"/>
     <use xlink:href="#DejaVuSans-6d" x="1604.763672"/>
     <use xlink:href="#DejaVuSans-20" x="1702.175781"/>
     <use xlink:href="#DejaVuSans-67" x="1733.962891"/>
     <use xlink:href="#DejaVuSans-65" x="1797.439453"/>
     <use xlink:href="#DejaVuSans-6e" x="1858.962891"/>
     <use xlink:href="#DejaVuSans-72" x="1922.341797"/>
     <use xlink:href="#DejaVuSans-65" x="1961.205078"/>
    </g>
   </g>
  </g>
 </g>
 <defs>
  <clipPath id="p4b2c2c51af">
   <rect x="10.8" y="10.8" width="554.4" height="554.4"/>
  </clipPath>
 </defs>
</svg>
