<?xml version="1.0" encoding="utf-8" standalone="no"?>
<!DOCTYPE svg PUBLIC "-//W3C//DTD SVG 1.1//EN"
  "http://www.w3.org/Graphics/SVG/1.1/DTD/svg11.dtd">
<svg xmlns:xlink="http://www.w3.org/1999/xlink" width="568.8pt" height="583.918125pt" viewBox="0 0 568.8 583.918125" xmlns="http://www.w3.org/2000/svg" version="1.1">
 <metadata>
  <rdf:RDF xmlns:dc="http://purl.org/dc/elements/1.1/" xmlns:cc="http://creativecommons.org/ns#" xmlns:rdf="http://www.w3.org/1999/02/22-rdf-syntax-ns#">
   <cc:Work>
    <dc:type rdf:resource="http://purl.org/dc/dcmitype/StillImage"/>
    <dc:date>2022-12-23T20:57:03.607471</dc:date>
    <dc:format>image/svg+xml</dc:format>
    <dc:creator>
     <cc:Agent>
      <dc:title>Matplotlib v3.5.3, https://matplotlib.org/</dc:title>
     </cc:Agent>
    </dc:creator>
   </cc:Work>
  </rdf:RDF>
 </metadata>
 <defs>
  <style type="text/css">*{stroke-linejoin: round; stroke-linecap: butt}</style>
 </defs>
 <g id="figure_1">
  <g id="patch_1">
   <path d="M 0 583.918125 
L 568.8 583.918125 
L 568.8 0 
L 0 0 
z
" style="fill: #ffffff"/>
  </g>
  <g id="axes_1">
   <g id="LineCollection_1">
    <path d="M 348.664291 96.061843 
L 259.509549 86.752808 
" clip-path="url(#p5c2c34f45f)" style="fill: none; stroke: #000000; stroke-opacity: 0.3; stroke-width: 5"/>
   </g>
   <g id="PathCollection_1">
    <path d="M 497.630769 327.136979 
C 504.893655 327.136979 511.86005 324.251404 516.995686 319.115768 
C 522.131322 313.980132 525.016897 307.013737 525.016897 299.750851 
C 525.016897 292.487965 522.131322 285.52157 516.995686 280.385934 
C 511.86005 275.250298 504.893655 272.364723 497.630769 272.364723 
C 490.367883 272.364723 483.401488 275.250298 478.265852 280.385934 
C 473.130217 285.52157 470.244641 292.487965 470.244641 299.750851 
C 470.244641 307.013737 473.130217 313.980132 478.265852 319.115768 
C 483.401488 324.251404 490.367883 327.136979 497.630769 327.136979 
z
" clip-path="url(#p5c2c34f45f)" style="fill: #c70039; fill-opacity: 0.99; stroke: #c70039; stroke-opacity: 0.99"/>
    <path d="M 478.992348 235.396356 
C 485.027526 235.396356 490.816332 232.998554 495.083848 228.731039 
C 499.351363 224.463523 501.749165 218.674717 501.749165 212.639539 
C 501.749165 206.60436 499.351363 200.815555 495.083848 196.548039 
C 490.816332 192.280523 485.027526 189.882721 478.992348 189.882721 
C 472.957169 189.882721 467.168364 192.280523 462.900848 196.548039 
C 458.633332 200.815555 456.23553 206.60436 456.23553 212.639539 
C 456.23553 218.674717 458.633332 224.463523 462.900848 228.731039 
C 467.168364 232.998554 472.957169 235.396356 478.992348 235.396356 
z
" clip-path="url(#p5c2c34f45f)" style="fill: #c70039; fill-opacity: 0.99; stroke: #c70039; stroke-opacity: 0.99"/>
    <path d="M 426.29985 163.14284 
C 432.280786 163.14284 438.017564 160.766589 442.246724 156.537429 
C 446.475885 152.308268 448.852136 146.57149 448.852136 140.590554 
C 448.852136 134.609618 446.475885 128.87284 442.246724 124.64368 
C 438.017564 120.414519 432.280786 118.038268 426.29985 118.038268 
C 420.318914 118.038268 414.582136 120.414519 410.352976 124.64368 
C 406.123815 128.87284 403.747564 134.609618 403.747564 140.590554 
C 403.747564 146.57149 406.123815 152.308268 410.352976 156.537429 
C 414.582136 160.766589 420.318914 163.14284 426.29985 163.14284 
z
" clip-path="url(#p5c2c34f45f)" style="fill: #c70039; fill-opacity: 0.99; stroke: #c70039; stroke-opacity: 0.99"/>
    <path d="M 348.664291 117.274115 
C 354.289852 117.274115 359.685761 115.039057 363.663633 111.061185 
C 367.641505 107.083313 369.876563 101.687404 369.876563 96.061843 
C 369.876563 90.436283 367.641505 85.040374 363.663633 81.062502 
C 359.685761 77.08463 354.289852 74.849571 348.664291 74.849571 
C 343.038731 74.849571 337.642822 77.08463 333.66495 81.062502 
C 329.687078 85.040374 327.452019 90.436283 327.452019 96.061843 
C 327.452019 101.687404 329.687078 107.083313 333.66495 111.061185 
C 337.642822 115.039057 343.038731 117.274115 348.664291 117.274115 
z
" clip-path="url(#p5c2c34f45f)" style="fill: #c70039; fill-opacity: 0.99; stroke: #c70039; stroke-opacity: 0.99"/>
    <path d="M 259.509549 107.96508 
C 265.135109 107.96508 270.531018 105.730021 274.50889 101.752149 
C 278.486762 97.774277 280.721821 92.378368 280.721821 86.752808 
C 280.721821 81.127247 278.486762 75.731338 274.50889 71.753466 
C 270.531018 67.775594 265.135109 65.540535 259.509549 65.540535 
C 253.883988 65.540535 248.488079 67.775594 244.510207 71.753466 
C 240.532335 75.731338 238.297276 81.127247 238.297276 86.752808 
C 238.297276 92.378368 240.532335 97.774277 244.510207 101.752149 
C 248.488079 105.730021 253.883988 107.96508 259.509549 107.96508 
z
" clip-path="url(#p5c2c34f45f)" style="fill: #c70039; fill-opacity: 0.99; stroke: #c70039; stroke-opacity: 0.99"/>
    <path d="M 174.251298 135.284342 
C 179.823551 135.284342 185.168329 133.070462 189.108507 129.130284 
C 193.048685 125.190106 195.262565 119.845328 195.262565 114.273075 
C 195.262565 108.700822 193.048685 103.356044 189.108507 99.415866 
C 185.168329 95.475688 179.823551 93.261808 174.251298 93.261808 
C 168.679045 93.261808 163.334267 95.475688 159.394089 99.415866 
C 155.453911 103.356044 153.240031 108.700822 153.240031 114.273075 
C 153.240031 119.845328 155.453911 125.190106 159.394089 129.130284 
C 163.334267 133.070462 168.679045 135.284342 174.251298 135.284342 
z
" clip-path="url(#p5c2c34f45f)" style="fill: #c70039; fill-opacity: 0.99; stroke: #c70039; stroke-opacity: 0.99"/>
    <path d="M 107.631477 194.758932 
C 113.172844 194.758932 118.487998 192.557324 122.406336 188.638985 
C 126.324675 184.720647 128.526283 179.405493 128.526283 173.864126 
C 128.526283 168.322759 126.324675 163.007605 122.406336 159.089267 
C 118.487998 155.170928 113.172844 152.96932 107.631477 152.96932 
C 102.09011 152.96932 96.774956 155.170928 92.856618 159.089267 
C 88.938279 163.007605 86.736671 168.322759 86.736671 173.864126 
C 86.736671 179.405493 88.938279 184.720647 92.856618 188.638985 
C 96.774956 192.557324 102.09011 194.758932 107.631477 194.758932 
z
" clip-path="url(#p5c2c34f45f)" style="fill: #c70039; fill-opacity: 0.99; stroke: #c70039; stroke-opacity: 0.99"/>
    <path d="M 71.169231 275.969679 
C 76.671539 275.969679 81.949228 273.783589 85.839947 269.892869 
C 89.730667 266.00215 91.916757 260.724461 91.916757 255.222153 
C 91.916757 249.719844 89.730667 244.442156 85.839947 240.551436 
C 81.949228 236.660717 76.671539 234.474627 71.169231 234.474627 
C 65.666923 234.474627 60.389234 236.660717 56.498514 240.551436 
C 52.607795 244.442156 50.421705 249.719844 50.421705 255.222153 
C 50.421705 260.724461 52.607795 266.00215 56.498514 269.892869 
C 60.389234 273.783589 65.666923 275.969679 71.169231 275.969679 
z
" clip-path="url(#p5c2c34f45f)" style="fill: #c70039; fill-opacity: 0.99; stroke: #c70039; stroke-opacity: 0.99"/>
    <path d="M 71.169244 364.990182 
C 76.661757 364.990182 81.930051 362.807983 85.813845 358.924189 
C 89.697639 355.040395 91.879838 349.772101 91.879838 344.279587 
C 91.879838 338.787074 89.697639 333.51878 85.813845 329.634986 
C 81.930051 325.751192 76.661757 323.568993 71.169244 323.568993 
C 65.67673 323.568993 60.408436 325.751192 56.524642 329.634986 
C 52.640848 333.51878 50.458649 338.787074 50.458649 344.279587 
C 50.458649 349.772101 52.640848 355.040395 56.524642 358.924189 
C 60.408436 362.807983 65.67673 364.990182 71.169244 364.990182 
z
" clip-path="url(#p5c2c34f45f)" style="fill: #c70039; fill-opacity: 0.99; stroke: #c70039; stroke-opacity: 0.99"/>
    <path d="M 107.63149 446.260611 
C 113.100779 446.260611 118.346797 444.087639 122.214169 440.220268 
C 126.081541 436.352896 128.254512 431.106878 128.254512 425.637589 
C 128.254512 420.168299 126.081541 414.922281 122.214169 411.054909 
C 118.346797 407.187538 113.100779 405.014566 107.63149 405.014566 
C 102.1622 405.014566 96.916182 407.187538 93.048811 411.054909 
C 89.181439 414.922281 87.008467 420.168299 87.008467 425.637589 
C 87.008467 431.106878 89.181439 436.352896 93.048811 440.220268 
C 96.916182 444.087639 102.1622 446.260611 107.63149 446.260611 
z
" clip-path="url(#p5c2c34f45f)" style="fill: #c70039; fill-opacity: 0.99; stroke: #c70039; stroke-opacity: 0.99"/>
    <path d="M 174.25133 505.506117 
C 179.62898 505.506117 184.787099 503.369554 188.589672 499.566981 
C 192.392244 495.764409 194.528807 490.606289 194.528807 485.22864 
C 194.528807 479.85099 192.392244 474.692871 188.589672 470.890298 
C 184.787099 467.087726 179.62898 464.951163 174.25133 464.951163 
C 168.87368 464.951163 163.715561 467.087726 159.912989 470.890298 
C 156.110416 474.692871 153.973853 479.85099 153.973853 485.22864 
C 153.973853 490.606289 156.110416 495.764409 159.912989 499.566981 
C 163.715561 503.369554 168.87368 505.506117 174.25133 505.506117 
z
" clip-path="url(#p5c2c34f45f)" style="fill: #c70039; fill-opacity: 0.99; stroke: #c70039; stroke-opacity: 0.99"/>
    <path d="M 259.509587 532.966738 
C 264.871422 532.966738 270.014372 530.836459 273.805762 527.045069 
C 277.597152 523.253679 279.727431 518.110729 279.727431 512.748894 
C 279.727431 507.387059 277.597152 502.244109 273.805762 498.45272 
C 270.014372 494.66133 264.871422 492.53105 259.509587 492.53105 
C 254.147752 492.53105 249.004802 494.66133 245.213412 498.45272 
C 241.422023 502.244109 239.291743 507.387059 239.291743 512.748894 
C 239.291743 518.110729 241.422023 523.253679 245.213412 527.045069 
C 249.004802 530.836459 254.147752 532.966738 259.509587 532.966738 
z
" clip-path="url(#p5c2c34f45f)" style="fill: #c70039; fill-opacity: 0.99; stroke: #c70039; stroke-opacity: 0.99"/>
    <path d="M 348.664323 523.477322 
C 353.978324 523.477322 359.075393 521.366047 362.832959 517.608481 
C 366.590525 513.850915 368.7018 508.753847 368.7018 503.439846 
C 368.7018 498.125845 366.590525 493.028776 362.832959 489.27121 
C 359.075393 485.513644 353.978324 483.402369 348.664323 483.402369 
C 343.350322 483.402369 338.253254 485.513644 334.495688 489.27121 
C 330.738122 493.028776 328.626847 498.125845 328.626847 503.439846 
C 328.626847 508.753847 330.738122 513.850915 334.495688 517.608481 
C 338.253254 521.366047 343.350322 523.477322 348.664323 523.477322 
z
" clip-path="url(#p5c2c34f45f)" style="fill: #c70039; fill-opacity: 0.99; stroke: #c70039; stroke-opacity: 0.99"/>
    <path d="M 426.299888 478.670963 
C 431.540263 478.670963 436.566711 476.58894 440.272215 472.883436 
C 443.977719 469.177932 446.059742 464.151484 446.059742 458.911109 
C 446.059742 453.670735 443.977719 448.644287 440.272215 444.938783 
C 436.566711 441.233278 431.540263 439.151255 426.299888 439.151255 
C 421.059514 439.151255 416.033066 441.233278 412.327562 444.938783 
C 408.622057 448.644287 406.540035 453.670735 406.540035 458.911109 
C 406.540035 464.151484 408.622057 469.177932 412.327562 472.883436 
C 416.033066 476.58894 421.059514 478.670963 426.299888 478.670963 
z
" clip-path="url(#p5c2c34f45f)" style="fill: #c70039; fill-opacity: 0.99; stroke: #c70039; stroke-opacity: 0.99"/>
    <path d="M 478.992374 406.227048 
C 484.128009 406.227048 489.053994 404.186638 492.685437 400.555195 
C 496.31688 396.923752 498.35729 391.997767 498.35729 386.862131 
C 498.35729 381.726495 496.31688 376.80051 492.685437 373.169067 
C 489.053994 369.537624 484.128009 367.497214 478.992374 367.497214 
C 473.856738 367.497214 468.930753 369.537624 465.29931 373.169067 
C 461.667867 376.80051 459.627457 381.726495 459.627457 386.862131 
C 459.627457 391.997767 461.667867 396.923752 465.29931 400.555195 
C 468.930753 404.186638 473.856738 406.227048 478.992374 406.227048 
z
" clip-path="url(#p5c2c34f45f)" style="fill: #c70039; fill-opacity: 0.99; stroke: #c70039; stroke-opacity: 0.99"/>
   </g>
   <g id="text_1">
    <g id="patch_2">
     <path d="M 466.268582 308.066007 
L 528.992957 308.066007 
L 528.992957 291.435695 
L 466.268582 291.435695 
z
" clip-path="url(#p5c2c34f45f)" style="fill: #ffffff; opacity: 0.7; stroke: #000000; stroke-linejoin: miter"/>
    </g>
    <g clip-path="url(#p5c2c34f45f)">
     <!-- Chuck Jones -->
     <g transform="translate(470.228582 302.234288)scale(0.09 -0.09)">
      <defs>
       <path id="DejaVuSans-43" d="M 4122 4306 
L 4122 3641 
Q 3803 3938 3442 4084 
Q 3081 4231 2675 4231 
Q 1875 4231 1450 3742 
Q 1025 3253 1025 2328 
Q 1025 1406 1450 917 
Q 1875 428 2675 428 
Q 3081 428 3442 575 
Q 3803 722 4122 1019 
L 4122 359 
Q 3791 134 3420 21 
Q 3050 -91 2638 -91 
Q 1578 -91 968 557 
Q 359 1206 359 2328 
Q 359 3453 968 4101 
Q 1578 4750 2638 4750 
Q 3056 4750 3426 4639 
Q 3797 4528 4122 4306 
z
" transform="scale(0.015625)"/>
       <path id="DejaVuSans-68" d="M 3513 2113 
L 3513 0 
L 2938 0 
L 2938 2094 
Q 2938 2591 2744 2837 
Q 2550 3084 2163 3084 
Q 1697 3084 1428 2787 
Q 1159 2491 1159 1978 
L 1159 0 
L 581 0 
L 581 4863 
L 1159 4863 
L 1159 2956 
Q 1366 3272 1645 3428 
Q 1925 3584 2291 3584 
Q 2894 3584 3203 3211 
Q 3513 2838 3513 2113 
z
" transform="scale(0.015625)"/>
       <path id="DejaVuSans-75" d="M 544 1381 
L 544 3500 
L 1119 3500 
L 1119 1403 
Q 1119 906 1312 657 
Q 1506 409 1894 409 
Q 2359 409 2629 706 
Q 2900 1003 2900 1516 
L 2900 3500 
L 3475 3500 
L 3475 0 
L 2900 0 
L 2900 538 
Q 2691 219 2414 64 
Q 2138 -91 1772 -91 
Q 1169 -91 856 284 
Q 544 659 544 1381 
z
M 1991 3584 
L 1991 3584 
z
" transform="scale(0.015625)"/>
       <path id="DejaVuSans-63" d="M 3122 3366 
L 3122 2828 
Q 2878 2963 2633 3030 
Q 2388 3097 2138 3097 
Q 1578 3097 1268 2742 
Q 959 2388 959 1747 
Q 959 1106 1268 751 
Q 1578 397 2138 397 
Q 2388 397 2633 464 
Q 2878 531 3122 666 
L 3122 134 
Q 2881 22 2623 -34 
Q 2366 -91 2075 -91 
Q 1284 -91 818 406 
Q 353 903 353 1747 
Q 353 2603 823 3093 
Q 1294 3584 2113 3584 
Q 2378 3584 2631 3529 
Q 2884 3475 3122 3366 
z
" transform="scale(0.015625)"/>
       <path id="DejaVuSans-6b" d="M 581 4863 
L 1159 4863 
L 1159 1991 
L 2875 3500 
L 3609 3500 
L 1753 1863 
L 3688 0 
L 2938 0 
L 1159 1709 
L 1159 0 
L 581 0 
L 581 4863 
z
" transform="scale(0.015625)"/>
       <path id="DejaVuSans-20" transform="scale(0.015625)"/>
       <path id="DejaVuSans-4a" d="M 628 4666 
L 1259 4666 
L 1259 325 
Q 1259 -519 939 -900 
Q 619 -1281 -91 -1281 
L -331 -1281 
L -331 -750 
L -134 -750 
Q 284 -750 456 -515 
Q 628 -281 628 325 
L 628 4666 
z
" transform="scale(0.015625)"/>
       <path id="DejaVuSans-6f" d="M 1959 3097 
Q 1497 3097 1228 2736 
Q 959 2375 959 1747 
Q 959 1119 1226 758 
Q 1494 397 1959 397 
Q 2419 397 2687 759 
Q 2956 1122 2956 1747 
Q 2956 2369 2687 2733 
Q 2419 3097 1959 3097 
z
M 1959 3584 
Q 2709 3584 3137 3096 
Q 3566 2609 3566 1747 
Q 3566 888 3137 398 
Q 2709 -91 1959 -91 
Q 1206 -91 779 398 
Q 353 888 353 1747 
Q 353 2609 779 3096 
Q 1206 3584 1959 3584 
z
" transform="scale(0.015625)"/>
       <path id="DejaVuSans-6e" d="M 3513 2113 
L 3513 0 
L 2938 0 
L 2938 2094 
Q 2938 2591 2744 2837 
Q 2550 3084 2163 3084 
Q 1697 3084 1428 2787 
Q 1159 2491 1159 1978 
L 1159 0 
L 581 0 
L 581 3500 
L 1159 3500 
L 1159 2956 
Q 1366 3272 1645 3428 
Q 1925 3584 2291 3584 
Q 2894 3584 3203 3211 
Q 3513 2838 3513 2113 
z
" transform="scale(0.015625)"/>
       <path id="DejaVuSans-65" d="M 3597 1894 
L 3597 1613 
L 953 1613 
Q 991 1019 1311 708 
Q 1631 397 2203 397 
Q 2534 397 2845 478 
Q 3156 559 3463 722 
L 3463 178 
Q 3153 47 2828 -22 
Q 2503 -91 2169 -91 
Q 1331 -91 842 396 
Q 353 884 353 1716 
Q 353 2575 817 3079 
Q 1281 3584 2069 3584 
Q 2775 3584 3186 3129 
Q 3597 2675 3597 1894 
z
M 3022 2063 
Q 3016 2534 2758 2815 
Q 2500 3097 2075 3097 
Q 1594 3097 1305 2825 
Q 1016 2553 972 2059 
L 3022 2063 
z
" transform="scale(0.015625)"/>
       <path id="DejaVuSans-73" d="M 2834 3397 
L 2834 2853 
Q 2591 2978 2328 3040 
Q 2066 3103 1784 3103 
Q 1356 3103 1142 2972 
Q 928 2841 928 2578 
Q 928 2378 1081 2264 
Q 1234 2150 1697 2047 
L 1894 2003 
Q 2506 1872 2764 1633 
Q 3022 1394 3022 966 
Q 3022 478 2636 193 
Q 2250 -91 1575 -91 
Q 1294 -91 989 -36 
Q 684 19 347 128 
L 347 722 
Q 666 556 975 473 
Q 1284 391 1588 391 
Q 1994 391 2212 530 
Q 2431 669 2431 922 
Q 2431 1156 2273 1281 
Q 2116 1406 1581 1522 
L 1381 1569 
Q 847 1681 609 1914 
Q 372 2147 372 2553 
Q 372 3047 722 3315 
Q 1072 3584 1716 3584 
Q 2034 3584 2315 3537 
Q 2597 3491 2834 3397 
z
" transform="scale(0.015625)"/>
      </defs>
      <use xlink:href="#DejaVuSans-43"/>
      <use xlink:href="#DejaVuSans-68" x="69.824219"/>
      <use xlink:href="#DejaVuSans-75" x="133.203125"/>
      <use xlink:href="#DejaVuSans-63" x="196.582031"/>
      <use xlink:href="#DejaVuSans-6b" x="251.5625"/>
      <use xlink:href="#DejaVuSans-20" x="309.472656"/>
      <use xlink:href="#DejaVuSans-4a" x="341.259766"/>
      <use xlink:href="#DejaVuSans-6f" x="370.751953"/>
      <use xlink:href="#DejaVuSans-6e" x="431.933594"/>
      <use xlink:href="#DejaVuSans-65" x="495.3125"/>
      <use xlink:href="#DejaVuSans-73" x="556.835938"/>
     </g>
    </g>
   </g>
   <g id="text_2">
    <g id="patch_3">
     <path d="M 441.590317 220.954695 
L 516.394379 220.954695 
L 516.394379 204.324383 
L 441.590317 204.324383 
z
" clip-path="url(#p5c2c34f45f)" style="fill: #ffffff; opacity: 0.7; stroke: #000000; stroke-linejoin: miter"/>
    </g>
    <g clip-path="url(#p5c2c34f45f)">
     <!-- Clint Eastwood -->
     <g transform="translate(445.550317 215.122976)scale(0.09 -0.09)">
      <defs>
       <path id="DejaVuSans-6c" d="M 603 4863 
L 1178 4863 
L 1178 0 
L 603 0 
L 603 4863 
z
" transform="scale(0.015625)"/>
       <path id="DejaVuSans-69" d="M 603 3500 
L 1178 3500 
L 1178 0 
L 603 0 
L 603 3500 
z
M 603 4863 
L 1178 4863 
L 1178 4134 
L 603 4134 
L 603 4863 
z
" transform="scale(0.015625)"/>
       <path id="DejaVuSans-74" d="M 1172 4494 
L 1172 3500 
L 2356 3500 
L 2356 3053 
L 1172 3053 
L 1172 1153 
Q 1172 725 1289 603 
Q 1406 481 1766 481 
L 2356 481 
L 2356 0 
L 1766 0 
Q 1100 0 847 248 
Q 594 497 594 1153 
L 594 3053 
L 172 3053 
L 172 3500 
L 594 3500 
L 594 4494 
L 1172 4494 
z
" transform="scale(0.015625)"/>
       <path id="DejaVuSans-45" d="M 628 4666 
L 3578 4666 
L 3578 4134 
L 1259 4134 
L 1259 2753 
L 3481 2753 
L 3481 2222 
L 1259 2222 
L 1259 531 
L 3634 531 
L 3634 0 
L 628 0 
L 628 4666 
z
" transform="scale(0.015625)"/>
       <path id="DejaVuSans-61" d="M 2194 1759 
Q 1497 1759 1228 1600 
Q 959 1441 959 1056 
Q 959 750 1161 570 
Q 1363 391 1709 391 
Q 2188 391 2477 730 
Q 2766 1069 2766 1631 
L 2766 1759 
L 2194 1759 
z
M 3341 1997 
L 3341 0 
L 2766 0 
L 2766 531 
Q 2569 213 2275 61 
Q 1981 -91 1556 -91 
Q 1019 -91 701 211 
Q 384 513 384 1019 
Q 384 1609 779 1909 
Q 1175 2209 1959 2209 
L 2766 2209 
L 2766 2266 
Q 2766 2663 2505 2880 
Q 2244 3097 1772 3097 
Q 1472 3097 1187 3025 
Q 903 2953 641 2809 
L 641 3341 
Q 956 3463 1253 3523 
Q 1550 3584 1831 3584 
Q 2591 3584 2966 3190 
Q 3341 2797 3341 1997 
z
" transform="scale(0.015625)"/>
       <path id="DejaVuSans-77" d="M 269 3500 
L 844 3500 
L 1563 769 
L 2278 3500 
L 2956 3500 
L 3675 769 
L 4391 3500 
L 4966 3500 
L 4050 0 
L 3372 0 
L 2619 2869 
L 1863 0 
L 1184 0 
L 269 3500 
z
" transform="scale(0.015625)"/>
       <path id="DejaVuSans-64" d="M 2906 2969 
L 2906 4863 
L 3481 4863 
L 3481 0 
L 2906 0 
L 2906 525 
Q 2725 213 2448 61 
Q 2172 -91 1784 -91 
Q 1150 -91 751 415 
Q 353 922 353 1747 
Q 353 2572 751 3078 
Q 1150 3584 1784 3584 
Q 2172 3584 2448 3432 
Q 2725 3281 2906 2969 
z
M 947 1747 
Q 947 1113 1208 752 
Q 1469 391 1925 391 
Q 2381 391 2643 752 
Q 2906 1113 2906 1747 
Q 2906 2381 2643 2742 
Q 2381 3103 1925 3103 
Q 1469 3103 1208 2742 
Q 947 2381 947 1747 
z
" transform="scale(0.015625)"/>
      </defs>
      <use xlink:href="#DejaVuSans-43"/>
      <use xlink:href="#DejaVuSans-6c" x="69.824219"/>
      <use xlink:href="#DejaVuSans-69" x="97.607422"/>
      <use xlink:href="#DejaVuSans-6e" x="125.390625"/>
      <use xlink:href="#DejaVuSans-74" x="188.769531"/>
      <use xlink:href="#DejaVuSans-20" x="227.978516"/>
      <use xlink:href="#DejaVuSans-45" x="259.765625"/>
      <use xlink:href="#DejaVuSans-61" x="322.949219"/>
      <use xlink:href="#DejaVuSans-73" x="384.228516"/>
      <use xlink:href="#DejaVuSans-74" x="436.328125"/>
      <use xlink:href="#DejaVuSans-77" x="475.537109"/>
      <use xlink:href="#DejaVuSans-6f" x="557.324219"/>
      <use xlink:href="#DejaVuSans-6f" x="618.505859"/>
      <use xlink:href="#DejaVuSans-64" x="679.6875"/>
     </g>
    </g>
   </g>
   <g id="text_3">
    <g id="patch_4">
     <path d="M 389.492662 148.90571 
L 463.107037 148.90571 
L 463.107037 132.275398 
L 389.492662 132.275398 
z
" clip-path="url(#p5c2c34f45f)" style="fill: #ffffff; opacity: 0.7; stroke: #000000; stroke-linejoin: miter"/>
    </g>
    <g clip-path="url(#p5c2c34f45f)">
     <!-- Blake Edwards -->
     <g transform="translate(393.452662 143.073992)scale(0.09 -0.09)">
      <defs>
       <path id="DejaVuSans-42" d="M 1259 2228 
L 1259 519 
L 2272 519 
Q 2781 519 3026 730 
Q 3272 941 3272 1375 
Q 3272 1813 3026 2020 
Q 2781 2228 2272 2228 
L 1259 2228 
z
M 1259 4147 
L 1259 2741 
L 2194 2741 
Q 2656 2741 2882 2914 
Q 3109 3088 3109 3444 
Q 3109 3797 2882 3972 
Q 2656 4147 2194 4147 
L 1259 4147 
z
M 628 4666 
L 2241 4666 
Q 2963 4666 3353 4366 
Q 3744 4066 3744 3513 
Q 3744 3084 3544 2831 
Q 3344 2578 2956 2516 
Q 3422 2416 3680 2098 
Q 3938 1781 3938 1306 
Q 3938 681 3513 340 
Q 3088 0 2303 0 
L 628 0 
L 628 4666 
z
" transform="scale(0.015625)"/>
       <path id="DejaVuSans-72" d="M 2631 2963 
Q 2534 3019 2420 3045 
Q 2306 3072 2169 3072 
Q 1681 3072 1420 2755 
Q 1159 2438 1159 1844 
L 1159 0 
L 581 0 
L 581 3500 
L 1159 3500 
L 1159 2956 
Q 1341 3275 1631 3429 
Q 1922 3584 2338 3584 
Q 2397 3584 2469 3576 
Q 2541 3569 2628 3553 
L 2631 2963 
z
" transform="scale(0.015625)"/>
      </defs>
      <use xlink:href="#DejaVuSans-42"/>
      <use xlink:href="#DejaVuSans-6c" x="68.603516"/>
      <use xlink:href="#DejaVuSans-61" x="96.386719"/>
      <use xlink:href="#DejaVuSans-6b" x="157.666016"/>
      <use xlink:href="#DejaVuSans-65" x="211.951172"/>
      <use xlink:href="#DejaVuSans-20" x="273.474609"/>
      <use xlink:href="#DejaVuSans-45" x="305.261719"/>
      <use xlink:href="#DejaVuSans-64" x="368.445312"/>
      <use xlink:href="#DejaVuSans-77" x="431.921875"/>
      <use xlink:href="#DejaVuSans-61" x="513.708984"/>
      <use xlink:href="#DejaVuSans-72" x="574.988281"/>
      <use xlink:href="#DejaVuSans-64" x="614.351562"/>
      <use xlink:href="#DejaVuSans-73" x="677.828125"/>
     </g>
    </g>
   </g>
   <g id="text_4">
    <g id="patch_5">
     <path d="M 323.657651 104.377 
L 373.670932 104.377 
L 373.670932 87.746687 
L 323.657651 87.746687 
z
" clip-path="url(#p5c2c34f45f)" style="fill: #ffffff; opacity: 0.7; stroke: #000000; stroke-linejoin: miter"/>
    </g>
    <g clip-path="url(#p5c2c34f45f)">
     <!-- Joel Coen -->
     <g transform="translate(327.617651 98.545281)scale(0.09 -0.09)">
      <use xlink:href="#DejaVuSans-4a"/>
      <use xlink:href="#DejaVuSans-6f" x="29.492188"/>
      <use xlink:href="#DejaVuSans-65" x="90.673828"/>
      <use xlink:href="#DejaVuSans-6c" x="152.197266"/>
      <use xlink:href="#DejaVuSans-20" x="179.980469"/>
      <use xlink:href="#DejaVuSans-43" x="211.767578"/>
      <use xlink:href="#DejaVuSans-6f" x="281.591797"/>
      <use xlink:href="#DejaVuSans-65" x="342.773438"/>
      <use xlink:href="#DejaVuSans-6e" x="404.296875"/>
     </g>
    </g>
   </g>
   <g id="text_5">
    <g id="patch_6">
     <path d="M 229.533924 95.067964 
L 289.485174 95.067964 
L 289.485174 78.437651 
L 229.533924 78.437651 
z
" clip-path="url(#p5c2c34f45f)" style="fill: #ffffff; opacity: 0.7; stroke: #000000; stroke-linejoin: miter"/>
    </g>
    <g clip-path="url(#p5c2c34f45f)">
     <!-- Ethan Coen -->
     <g transform="translate(233.493924 89.236245)scale(0.09 -0.09)">
      <use xlink:href="#DejaVuSans-45"/>
      <use xlink:href="#DejaVuSans-74" x="63.183594"/>
      <use xlink:href="#DejaVuSans-68" x="102.392578"/>
      <use xlink:href="#DejaVuSans-61" x="165.771484"/>
      <use xlink:href="#DejaVuSans-6e" x="227.050781"/>
      <use xlink:href="#DejaVuSans-20" x="290.429688"/>
      <use xlink:href="#DejaVuSans-43" x="322.216797"/>
      <use xlink:href="#DejaVuSans-6f" x="392.041016"/>
      <use xlink:href="#DejaVuSans-65" x="453.222656"/>
      <use xlink:href="#DejaVuSans-6e" x="514.746094"/>
     </g>
    </g>
   </g>
   <g id="text_6">
    <g id="patch_7">
     <path d="M 144.508407 122.588231 
L 203.994189 122.588231 
L 203.994189 105.957919 
L 144.508407 105.957919 
z
" clip-path="url(#p5c2c34f45f)" style="fill: #ffffff; opacity: 0.7; stroke: #000000; stroke-linejoin: miter"/>
    </g>
    <g clip-path="url(#p5c2c34f45f)">
     <!-- John Landis -->
     <g transform="translate(148.468407 116.756512)scale(0.09 -0.09)">
      <defs>
       <path id="DejaVuSans-4c" d="M 628 4666 
L 1259 4666 
L 1259 531 
L 3531 531 
L 3531 0 
L 628 0 
L 628 4666 
z
" transform="scale(0.015625)"/>
      </defs>
      <use xlink:href="#DejaVuSans-4a"/>
      <use xlink:href="#DejaVuSans-6f" x="29.492188"/>
      <use xlink:href="#DejaVuSans-68" x="90.673828"/>
      <use xlink:href="#DejaVuSans-6e" x="154.052734"/>
      <use xlink:href="#DejaVuSans-20" x="217.431641"/>
      <use xlink:href="#DejaVuSans-4c" x="249.21875"/>
      <use xlink:href="#DejaVuSans-61" x="304.931641"/>
      <use xlink:href="#DejaVuSans-6e" x="366.210938"/>
      <use xlink:href="#DejaVuSans-64" x="429.589844"/>
      <use xlink:href="#DejaVuSans-69" x="493.066406"/>
      <use xlink:href="#DejaVuSans-73" x="520.849609"/>
     </g>
    </g>
   </g>
   <g id="text_7">
    <g id="patch_8">
     <path d="M 79.694915 182.179282 
L 135.56804 182.179282 
L 135.56804 165.54897 
L 79.694915 165.54897 
z
" clip-path="url(#p5c2c34f45f)" style="fill: #ffffff; opacity: 0.7; stroke: #000000; stroke-linejoin: miter"/>
    </g>
    <g clip-path="url(#p5c2c34f45f)">
     <!-- Sam Wood -->
     <g transform="translate(83.654915 176.347563)scale(0.09 -0.09)">
      <defs>
       <path id="DejaVuSans-53" d="M 3425 4513 
L 3425 3897 
Q 3066 4069 2747 4153 
Q 2428 4238 2131 4238 
Q 1616 4238 1336 4038 
Q 1056 3838 1056 3469 
Q 1056 3159 1242 3001 
Q 1428 2844 1947 2747 
L 2328 2669 
Q 3034 2534 3370 2195 
Q 3706 1856 3706 1288 
Q 3706 609 3251 259 
Q 2797 -91 1919 -91 
Q 1588 -91 1214 -16 
Q 841 59 441 206 
L 441 856 
Q 825 641 1194 531 
Q 1563 422 1919 422 
Q 2459 422 2753 634 
Q 3047 847 3047 1241 
Q 3047 1584 2836 1778 
Q 2625 1972 2144 2069 
L 1759 2144 
Q 1053 2284 737 2584 
Q 422 2884 422 3419 
Q 422 4038 858 4394 
Q 1294 4750 2059 4750 
Q 2388 4750 2728 4690 
Q 3069 4631 3425 4513 
z
" transform="scale(0.015625)"/>
       <path id="DejaVuSans-6d" d="M 3328 2828 
Q 3544 3216 3844 3400 
Q 4144 3584 4550 3584 
Q 5097 3584 5394 3201 
Q 5691 2819 5691 2113 
L 5691 0 
L 5113 0 
L 5113 2094 
Q 5113 2597 4934 2840 
Q 4756 3084 4391 3084 
Q 3944 3084 3684 2787 
Q 3425 2491 3425 1978 
L 3425 0 
L 2847 0 
L 2847 2094 
Q 2847 2600 2669 2842 
Q 2491 3084 2119 3084 
Q 1678 3084 1418 2786 
Q 1159 2488 1159 1978 
L 1159 0 
L 581 0 
L 581 3500 
L 1159 3500 
L 1159 2956 
Q 1356 3278 1631 3431 
Q 1906 3584 2284 3584 
Q 2666 3584 2933 3390 
Q 3200 3197 3328 2828 
z
" transform="scale(0.015625)"/>
       <path id="DejaVuSans-57" d="M 213 4666 
L 850 4666 
L 1831 722 
L 2809 4666 
L 3519 4666 
L 4500 722 
L 5478 4666 
L 6119 4666 
L 4947 0 
L 4153 0 
L 3169 4050 
L 2175 0 
L 1381 0 
L 213 4666 
z
" transform="scale(0.015625)"/>
      </defs>
      <use xlink:href="#DejaVuSans-53"/>
      <use xlink:href="#DejaVuSans-61" x="63.476562"/>
      <use xlink:href="#DejaVuSans-6d" x="124.755859"/>
      <use xlink:href="#DejaVuSans-20" x="222.167969"/>
      <use xlink:href="#DejaVuSans-57" x="253.955078"/>
      <use xlink:href="#DejaVuSans-6f" x="346.957031"/>
      <use xlink:href="#DejaVuSans-6f" x="408.138672"/>
      <use xlink:href="#DejaVuSans-64" x="469.320312"/>
     </g>
    </g>
   </g>
   <g id="text_8">
    <g id="patch_9">
     <path d="M 28.599231 263.537309 
L 113.739231 263.537309 
L 113.739231 246.906996 
L 28.599231 246.906996 
z
" clip-path="url(#p5c2c34f45f)" style="fill: #ffffff; opacity: 0.7; stroke: #000000; stroke-linejoin: miter"/>
    </g>
    <g clip-path="url(#p5c2c34f45f)">
     <!-- Vincent Sherman -->
     <g transform="translate(32.559231 257.70559)scale(0.09 -0.09)">
      <defs>
       <path id="DejaVuSans-56" d="M 1831 0 
L 50 4666 
L 709 4666 
L 2188 738 
L 3669 4666 
L 4325 4666 
L 2547 0 
L 1831 0 
z
" transform="scale(0.015625)"/>
      </defs>
      <use xlink:href="#DejaVuSans-56"/>
      <use xlink:href="#DejaVuSans-69" x="66.158203"/>
      <use xlink:href="#DejaVuSans-6e" x="93.941406"/>
      <use xlink:href="#DejaVuSans-63" x="157.320312"/>
      <use xlink:href="#DejaVuSans-65" x="212.300781"/>
      <use xlink:href="#DejaVuSans-6e" x="273.824219"/>
      <use xlink:href="#DejaVuSans-74" x="337.203125"/>
      <use xlink:href="#DejaVuSans-20" x="376.412109"/>
      <use xlink:href="#DejaVuSans-53" x="408.199219"/>
      <use xlink:href="#DejaVuSans-68" x="471.675781"/>
      <use xlink:href="#DejaVuSans-65" x="535.054688"/>
      <use xlink:href="#DejaVuSans-72" x="596.578125"/>
      <use xlink:href="#DejaVuSans-6d" x="635.941406"/>
      <use xlink:href="#DejaVuSans-61" x="733.353516"/>
      <use xlink:href="#DejaVuSans-6e" x="794.632812"/>
     </g>
    </g>
   </g>
   <g id="text_9">
    <g id="patch_10">
     <path d="M 40.044712 352.594744 
L 102.293775 352.594744 
L 102.293775 335.964431 
L 40.044712 335.964431 
z
" clip-path="url(#p5c2c34f45f)" style="fill: #ffffff; opacity: 0.7; stroke: #000000; stroke-linejoin: miter"/>
    </g>
    <g clip-path="url(#p5c2c34f45f)">
     <!-- John Huston -->
     <g transform="translate(44.004712 346.763025)scale(0.09 -0.09)">
      <defs>
       <path id="DejaVuSans-48" d="M 628 4666 
L 1259 4666 
L 1259 2753 
L 3553 2753 
L 3553 4666 
L 4184 4666 
L 4184 0 
L 3553 0 
L 3553 2222 
L 1259 2222 
L 1259 0 
L 628 0 
L 628 4666 
z
" transform="scale(0.015625)"/>
      </defs>
      <use xlink:href="#DejaVuSans-4a"/>
      <use xlink:href="#DejaVuSans-6f" x="29.492188"/>
      <use xlink:href="#DejaVuSans-68" x="90.673828"/>
      <use xlink:href="#DejaVuSans-6e" x="154.052734"/>
      <use xlink:href="#DejaVuSans-20" x="217.431641"/>
      <use xlink:href="#DejaVuSans-48" x="249.21875"/>
      <use xlink:href="#DejaVuSans-75" x="324.414062"/>
      <use xlink:href="#DejaVuSans-73" x="387.792969"/>
      <use xlink:href="#DejaVuSans-74" x="439.892578"/>
      <use xlink:href="#DejaVuSans-6f" x="479.101562"/>
      <use xlink:href="#DejaVuSans-6e" x="540.283203"/>
     </g>
    </g>
   </g>
   <g id="text_10">
    <g id="patch_11">
     <path d="M 66.921959 433.952745 
L 148.341021 433.952745 
L 148.341021 417.322432 
L 66.921959 417.322432 
z
" clip-path="url(#p5c2c34f45f)" style="fill: #ffffff; opacity: 0.7; stroke: #000000; stroke-linejoin: miter"/>
    </g>
    <g clip-path="url(#p5c2c34f45f)">
     <!-- Alfred Hitchcock -->
     <g transform="translate(70.881959 428.121026)scale(0.09 -0.09)">
      <defs>
       <path id="DejaVuSans-41" d="M 2188 4044 
L 1331 1722 
L 3047 1722 
L 2188 4044 
z
M 1831 4666 
L 2547 4666 
L 4325 0 
L 3669 0 
L 3244 1197 
L 1141 1197 
L 716 0 
L 50 0 
L 1831 4666 
z
" transform="scale(0.015625)"/>
       <path id="DejaVuSans-66" d="M 2375 4863 
L 2375 4384 
L 1825 4384 
Q 1516 4384 1395 4259 
Q 1275 4134 1275 3809 
L 1275 3500 
L 2222 3500 
L 2222 3053 
L 1275 3053 
L 1275 0 
L 697 0 
L 697 3053 
L 147 3053 
L 147 3500 
L 697 3500 
L 697 3744 
Q 697 4328 969 4595 
Q 1241 4863 1831 4863 
L 2375 4863 
z
" transform="scale(0.015625)"/>
      </defs>
      <use xlink:href="#DejaVuSans-41"/>
      <use xlink:href="#DejaVuSans-6c" x="68.408203"/>
      <use xlink:href="#DejaVuSans-66" x="96.191406"/>
      <use xlink:href="#DejaVuSans-72" x="131.396484"/>
      <use xlink:href="#DejaVuSans-65" x="170.259766"/>
      <use xlink:href="#DejaVuSans-64" x="231.783203"/>
      <use xlink:href="#DejaVuSans-20" x="295.259766"/>
      <use xlink:href="#DejaVuSans-48" x="327.046875"/>
      <use xlink:href="#DejaVuSans-69" x="402.242188"/>
      <use xlink:href="#DejaVuSans-74" x="430.025391"/>
      <use xlink:href="#DejaVuSans-63" x="469.234375"/>
      <use xlink:href="#DejaVuSans-68" x="524.214844"/>
      <use xlink:href="#DejaVuSans-63" x="587.59375"/>
      <use xlink:href="#DejaVuSans-6f" x="642.574219"/>
      <use xlink:href="#DejaVuSans-63" x="703.755859"/>
      <use xlink:href="#DejaVuSans-6b" x="758.736328"/>
     </g>
    </g>
   </g>
   <g id="text_11">
    <g id="patch_12">
     <path d="M 136.331096 493.543796 
L 212.171565 493.543796 
L 212.171565 476.913483 
L 136.331096 476.913483 
z
" clip-path="url(#p5c2c34f45f)" style="fill: #ffffff; opacity: 0.7; stroke: #000000; stroke-linejoin: miter"/>
    </g>
    <g clip-path="url(#p5c2c34f45f)">
     <!-- Joseph Sargent -->
     <g transform="translate(140.291096 487.712077)scale(0.09 -0.09)">
      <defs>
       <path id="DejaVuSans-70" d="M 1159 525 
L 1159 -1331 
L 581 -1331 
L 581 3500 
L 1159 3500 
L 1159 2969 
Q 1341 3281 1617 3432 
Q 1894 3584 2278 3584 
Q 2916 3584 3314 3078 
Q 3713 2572 3713 1747 
Q 3713 922 3314 415 
Q 2916 -91 2278 -91 
Q 1894 -91 1617 61 
Q 1341 213 1159 525 
z
M 3116 1747 
Q 3116 2381 2855 2742 
Q 2594 3103 2138 3103 
Q 1681 3103 1420 2742 
Q 1159 2381 1159 1747 
Q 1159 1113 1420 752 
Q 1681 391 2138 391 
Q 2594 391 2855 752 
Q 3116 1113 3116 1747 
z
" transform="scale(0.015625)"/>
       <path id="DejaVuSans-67" d="M 2906 1791 
Q 2906 2416 2648 2759 
Q 2391 3103 1925 3103 
Q 1463 3103 1205 2759 
Q 947 2416 947 1791 
Q 947 1169 1205 825 
Q 1463 481 1925 481 
Q 2391 481 2648 825 
Q 2906 1169 2906 1791 
z
M 3481 434 
Q 3481 -459 3084 -895 
Q 2688 -1331 1869 -1331 
Q 1566 -1331 1297 -1286 
Q 1028 -1241 775 -1147 
L 775 -588 
Q 1028 -725 1275 -790 
Q 1522 -856 1778 -856 
Q 2344 -856 2625 -561 
Q 2906 -266 2906 331 
L 2906 616 
Q 2728 306 2450 153 
Q 2172 0 1784 0 
Q 1141 0 747 490 
Q 353 981 353 1791 
Q 353 2603 747 3093 
Q 1141 3584 1784 3584 
Q 2172 3584 2450 3431 
Q 2728 3278 2906 2969 
L 2906 3500 
L 3481 3500 
L 3481 434 
z
" transform="scale(0.015625)"/>
      </defs>
      <use xlink:href="#DejaVuSans-4a"/>
      <use xlink:href="#DejaVuSans-6f" x="29.492188"/>
      <use xlink:href="#DejaVuSans-73" x="90.673828"/>
      <use xlink:href="#DejaVuSans-65" x="142.773438"/>
      <use xlink:href="#DejaVuSans-70" x="204.296875"/>
      <use xlink:href="#DejaVuSans-68" x="267.773438"/>
      <use xlink:href="#DejaVuSans-20" x="331.152344"/>
      <use xlink:href="#DejaVuSans-53" x="362.939453"/>
      <use xlink:href="#DejaVuSans-61" x="426.416016"/>
      <use xlink:href="#DejaVuSans-72" x="487.695312"/>
      <use xlink:href="#DejaVuSans-67" x="527.058594"/>
      <use xlink:href="#DejaVuSans-65" x="590.535156"/>
      <use xlink:href="#DejaVuSans-6e" x="652.058594"/>
      <use xlink:href="#DejaVuSans-74" x="715.4375"/>
     </g>
    </g>
   </g>
   <g id="text_12">
    <g id="patch_13">
     <path d="M 226.715134 521.06405 
L 292.30404 521.06405 
L 292.30404 504.433738 
L 226.715134 504.433738 
z
" clip-path="url(#p5c2c34f45f)" style="fill: #ffffff; opacity: 0.7; stroke: #000000; stroke-linejoin: miter"/>
    </g>
    <g clip-path="url(#p5c2c34f45f)">
     <!-- Renny Harlin -->
     <g transform="translate(230.675134 515.232332)scale(0.09 -0.09)">
      <defs>
       <path id="DejaVuSans-52" d="M 2841 2188 
Q 3044 2119 3236 1894 
Q 3428 1669 3622 1275 
L 4263 0 
L 3584 0 
L 2988 1197 
Q 2756 1666 2539 1819 
Q 2322 1972 1947 1972 
L 1259 1972 
L 1259 0 
L 628 0 
L 628 4666 
L 2053 4666 
Q 2853 4666 3247 4331 
Q 3641 3997 3641 3322 
Q 3641 2881 3436 2590 
Q 3231 2300 2841 2188 
z
M 1259 4147 
L 1259 2491 
L 2053 2491 
Q 2509 2491 2742 2702 
Q 2975 2913 2975 3322 
Q 2975 3731 2742 3939 
Q 2509 4147 2053 4147 
L 1259 4147 
z
" transform="scale(0.015625)"/>
       <path id="DejaVuSans-79" d="M 2059 -325 
Q 1816 -950 1584 -1140 
Q 1353 -1331 966 -1331 
L 506 -1331 
L 506 -850 
L 844 -850 
Q 1081 -850 1212 -737 
Q 1344 -625 1503 -206 
L 1606 56 
L 191 3500 
L 800 3500 
L 1894 763 
L 2988 3500 
L 3597 3500 
L 2059 -325 
z
" transform="scale(0.015625)"/>
      </defs>
      <use xlink:href="#DejaVuSans-52"/>
      <use xlink:href="#DejaVuSans-65" x="64.982422"/>
      <use xlink:href="#DejaVuSans-6e" x="126.505859"/>
      <use xlink:href="#DejaVuSans-6e" x="189.884766"/>
      <use xlink:href="#DejaVuSans-79" x="253.263672"/>
      <use xlink:href="#DejaVuSans-20" x="312.443359"/>
      <use xlink:href="#DejaVuSans-48" x="344.230469"/>
      <use xlink:href="#DejaVuSans-61" x="419.425781"/>
      <use xlink:href="#DejaVuSans-72" x="480.705078"/>
      <use xlink:href="#DejaVuSans-6c" x="521.818359"/>
      <use xlink:href="#DejaVuSans-69" x="549.601562"/>
      <use xlink:href="#DejaVuSans-6e" x="577.384766"/>
     </g>
    </g>
   </g>
   <g id="text_13">
    <g id="patch_14">
     <path d="M 305.275886 511.755002 
L 392.052761 511.755002 
L 392.052761 495.12469 
L 305.275886 495.12469 
z
" clip-path="url(#p5c2c34f45f)" style="fill: #ffffff; opacity: 0.7; stroke: #000000; stroke-linejoin: miter"/>
    </g>
    <g clip-path="url(#p5c2c34f45f)">
     <!-- Lawrence Kasdan -->
     <g transform="translate(309.235886 505.923283)scale(0.09 -0.09)">
      <defs>
       <path id="DejaVuSans-4b" d="M 628 4666 
L 1259 4666 
L 1259 2694 
L 3353 4666 
L 4166 4666 
L 1850 2491 
L 4331 0 
L 3500 0 
L 1259 2247 
L 1259 0 
L 628 0 
L 628 4666 
z
" transform="scale(0.015625)"/>
      </defs>
      <use xlink:href="#DejaVuSans-4c"/>
      <use xlink:href="#DejaVuSans-61" x="55.712891"/>
      <use xlink:href="#DejaVuSans-77" x="116.992188"/>
      <use xlink:href="#DejaVuSans-72" x="198.779297"/>
      <use xlink:href="#DejaVuSans-65" x="237.642578"/>
      <use xlink:href="#DejaVuSans-6e" x="299.166016"/>
      <use xlink:href="#DejaVuSans-63" x="362.544922"/>
      <use xlink:href="#DejaVuSans-65" x="417.525391"/>
      <use xlink:href="#DejaVuSans-20" x="479.048828"/>
      <use xlink:href="#DejaVuSans-4b" x="510.835938"/>
      <use xlink:href="#DejaVuSans-61" x="574.662109"/>
      <use xlink:href="#DejaVuSans-73" x="635.941406"/>
      <use xlink:href="#DejaVuSans-64" x="688.041016"/>
      <use xlink:href="#DejaVuSans-61" x="751.517578"/>
      <use xlink:href="#DejaVuSans-6e" x="812.796875"/>
     </g>
    </g>
   </g>
   <g id="text_14">
    <g id="patch_15">
     <path d="M 390.256295 467.226266 
L 462.343482 467.226266 
L 462.343482 450.595953 
L 390.256295 450.595953 
z
" clip-path="url(#p5c2c34f45f)" style="fill: #ffffff; opacity: 0.7; stroke: #000000; stroke-linejoin: miter"/>
    </g>
    <g clip-path="url(#p5c2c34f45f)">
     <!-- Wes Anderson -->
     <g transform="translate(394.216295 461.394547)scale(0.09 -0.09)">
      <use xlink:href="#DejaVuSans-57"/>
      <use xlink:href="#DejaVuSans-65" x="93.001953"/>
      <use xlink:href="#DejaVuSans-73" x="154.525391"/>
      <use xlink:href="#DejaVuSans-20" x="206.625"/>
      <use xlink:href="#DejaVuSans-41" x="238.412109"/>
      <use xlink:href="#DejaVuSans-6e" x="306.820312"/>
      <use xlink:href="#DejaVuSans-64" x="370.199219"/>
      <use xlink:href="#DejaVuSans-65" x="433.675781"/>
      <use xlink:href="#DejaVuSans-72" x="495.199219"/>
      <use xlink:href="#DejaVuSans-73" x="536.3125"/>
      <use xlink:href="#DejaVuSans-6f" x="588.412109"/>
      <use xlink:href="#DejaVuSans-6e" x="649.59375"/>
     </g>
    </g>
   </g>
   <g id="text_15">
    <g id="patch_16">
     <path d="M 449.099717 395.177287 
L 508.88503 395.177287 
L 508.88503 378.546975 
L 449.099717 378.546975 
z
" clip-path="url(#p5c2c34f45f)" style="fill: #ffffff; opacity: 0.7; stroke: #000000; stroke-linejoin: miter"/>
    </g>
    <g clip-path="url(#p5c2c34f45f)">
     <!-- Jack Kinney -->
     <g transform="translate(453.059717 389.345568)scale(0.09 -0.09)">
      <use xlink:href="#DejaVuSans-4a"/>
      <use xlink:href="#DejaVuSans-61" x="29.492188"/>
      <use xlink:href="#DejaVuSans-63" x="90.771484"/>
      <use xlink:href="#DejaVuSans-6b" x="145.751953"/>
      <use xlink:href="#DejaVuSans-20" x="203.662109"/>
      <use xlink:href="#DejaVuSans-4b" x="235.449219"/>
      <use xlink:href="#DejaVuSans-69" x="301.025391"/>
      <use xlink:href="#DejaVuSans-6e" x="328.808594"/>
      <use xlink:href="#DejaVuSans-6e" x="392.1875"/>
      <use xlink:href="#DejaVuSans-65" x="455.566406"/>
      <use xlink:href="#DejaVuSans-79" x="517.089844"/>
     </g>
    </g>
   </g>
   <g id="text_16">
    <!-- Impactful directors for Horror genre - Importance rank: 2 -->
    <g transform="translate(113.999062 16.318125)scale(0.12 -0.12)">
     <defs>
      <path id="DejaVuSans-49" d="M 628 4666 
L 1259 4666 
L 1259 0 
L 628 0 
L 628 4666 
z
" transform="scale(0.015625)"/>
      <path id="DejaVuSans-2d" d="M 313 2009 
L 1997 2009 
L 1997 1497 
L 313 1497 
L 313 2009 
z
" transform="scale(0.015625)"/>
      <path id="DejaVuSans-3a" d="M 750 794 
L 1409 794 
L 1409 0 
L 750 0 
L 750 794 
z
M 750 3309 
L 1409 3309 
L 1409 2516 
L 750 2516 
L 750 3309 
z
" transform="scale(0.015625)"/>
      <path id="DejaVuSans-32" d="M 1228 531 
L 3431 531 
L 3431 0 
L 469 0 
L 469 531 
Q 828 903 1448 1529 
Q 2069 2156 2228 2338 
Q 2531 2678 2651 2914 
Q 2772 3150 2772 3378 
Q 2772 3750 2511 3984 
Q 2250 4219 1831 4219 
Q 1534 4219 1204 4116 
Q 875 4013 500 3803 
L 500 4441 
Q 881 4594 1212 4672 
Q 1544 4750 1819 4750 
Q 2544 4750 2975 4387 
Q 3406 4025 3406 3419 
Q 3406 3131 3298 2873 
Q 3191 2616 2906 2266 
Q 2828 2175 2409 1742 
Q 1991 1309 1228 531 
z
" transform="scale(0.015625)"/>
     </defs>
     <use xlink:href="#DejaVuSans-49"/>
     <use xlink:href="#DejaVuSans-6d" x="29.492188"/>
     <use xlink:href="#DejaVuSans-70" x="126.904297"/>
     <use xlink:href="#DejaVuSans-61" x="190.380859"/>
     <use xlink:href="#DejaVuSans-63" x="251.660156"/>
     <use xlink:href="#DejaVuSans-74" x="306.640625"/>
     <use xlink:href="#DejaVuSans-66" x="345.849609"/>
     <use xlink:href="#DejaVuSans-75" x="381.054688"/>
     <use xlink:href="#DejaVuSans-6c" x="444.433594"/>
     <use xlink:href="#DejaVuSans-20" x="472.216797"/>
     <use xlink:href="#DejaVuSans-64" x="504.003906"/>
     <use xlink:href="#DejaVuSans-69" x="567.480469"/>
     <use xlink:href="#DejaVuSans-72" x="595.263672"/>
     <use xlink:href="#DejaVuSans-65" x="634.126953"/>
     <use xlink:href="#DejaVuSans-63" x="695.650391"/>
     <use xlink:href="#DejaVuSans-74" x="750.630859"/>
     <use xlink:href="#DejaVuSans-6f" x="789.839844"/>
     <use xlink:href="#DejaVuSans-72" x="851.021484"/>
     <use xlink:href="#DejaVuSans-73" x="892.134766"/>
     <use xlink:href="#DejaVuSans-20" x="944.234375"/>
     <use xlink:href="#DejaVuSans-66" x="976.021484"/>
     <use xlink:href="#DejaVuSans-6f" x="1011.226562"/>
     <use xlink:href="#DejaVuSans-72" x="1072.408203"/>
     <use xlink:href="#DejaVuSans-20" x="1113.521484"/>
     <use xlink:href="#DejaVuSans-48" x="1145.308594"/>
     <use xlink:href="#DejaVuSans-6f" x="1220.503906"/>
     <use xlink:href="#DejaVuSans-72" x="1281.685547"/>
     <use xlink:href="#DejaVuSans-72" x="1321.048828"/>
     <use xlink:href="#DejaVuSans-6f" x="1359.912109"/>
     <use xlink:href="#DejaVuSans-72" x="1421.09375"/>
     <use xlink:href="#DejaVuSans-20" x="1462.207031"/>
     <use xlink:href="#DejaVuSans-67" x="1493.994141"/>
     <use xlink:href="#DejaVuSans-65" x="1557.470703"/>
     <use xlink:href="#DejaVuSans-6e" x="1618.994141"/>
     <use xlink:href="#DejaVuSans-72" x="1682.373047"/>
     <use xlink:href="#DejaVuSans-65" x="1721.236328"/>
     <use xlink:href="#DejaVuSans-20" x="1782.759766"/>
     <use xlink:href="#DejaVuSans-2d" x="1814.546875"/>
     <use xlink:href="#DejaVuSans-20" x="1850.630859"/>
     <use xlink:href="#DejaVuSans-49" x="1882.417969"/>
     <use xlink:href="#DejaVuSans-6d" x="1911.910156"/>
     <use xlink:href="#DejaVuSans-70" x="2009.322266"/>
     <use xlink:href="#DejaVuSans-6f" x="2072.798828"/>
     <use xlink:href="#DejaVuSans-72" x="2133.980469"/>
     <use xlink:href="#DejaVuSans-74" x="2175.09375"/>
     <use xlink:href="#DejaVuSans-61" x="2214.302734"/>
     <use xlink:href="#DejaVuSans-6e" x="2275.582031"/>
     <use xlink:href="#DejaVuSans-63" x="2338.960938"/>
     <use xlink:href="#DejaVuSans-65" x="2393.941406"/>
     <use xlink:href="#DejaVuSans-20" x="2455.464844"/>
     <use xlink:href="#DejaVuSans-72" x="2487.251953"/>
     <use xlink:href="#DejaVuSans-61" x="2528.365234"/>
     <use xlink:href="#DejaVuSans-6e" x="2589.644531"/>
     <use xlink:href="#DejaVuSans-6b" x="2653.023438"/>
     <use xlink:href="#DejaVuSans-3a" x="2710.933594"/>
     <use xlink:href="#DejaVuSans-20" x="2744.625"/>
     <use xlink:href="#DejaVuSans-32" x="2776.412109"/>
    </g>
   </g>
  </g>
 </g>
 <defs>
  <clipPath id="p5c2c34f45f">
   <rect x="7.2" y="22.318125" width="554.4" height="554.4"/>
  </clipPath>
 </defs>
</svg>
