<?xml version="1.0" encoding="utf-8" standalone="no"?>
<!DOCTYPE svg PUBLIC "-//W3C//DTD SVG 1.1//EN"
  "http://www.w3.org/Graphics/SVG/1.1/DTD/svg11.dtd">
<svg xmlns:xlink="http://www.w3.org/1999/xlink" width="576pt" height="576pt" viewBox="0 0 576 576" xmlns="http://www.w3.org/2000/svg" version="1.1">
 <metadata>
  <rdf:RDF xmlns:dc="http://purl.org/dc/elements/1.1/" xmlns:cc="http://creativecommons.org/ns#" xmlns:rdf="http://www.w3.org/1999/02/22-rdf-syntax-ns#">
   <cc:Work>
    <dc:type rdf:resource="http://purl.org/dc/dcmitype/StillImage"/>
    <dc:date>2022-12-23T17:30:00.906295</dc:date>
    <dc:format>image/svg+xml</dc:format>
    <dc:creator>
     <cc:Agent>
      <dc:title>Matplotlib v3.5.2, https://matplotlib.org/</dc:title>
     </cc:Agent>
    </dc:creator>
   </cc:Work>
  </rdf:RDF>
 </metadata>
 <defs>
  <style type="text/css">*{stroke-linejoin: round; stroke-linecap: butt}</style>
 </defs>
 <g id="figure_1">
  <g id="patch_1">
   <path d="M 0 576 
L 576 576 
L 576 0 
L 0 0 
z
" style="fill: #ffffff"/>
  </g>
  <g id="axes_1">
   <g id="LineCollection_1">
    <path d="M 482.592348 205.168006 
L 429.89985 134.09051 
" clip-path="url(#p7c7a1e82c1)" style="fill: none; stroke: #000000; stroke-opacity: 0.3; stroke-width: 10"/>
    <path d="M 263.109549 80.978696 
L 177.851298 108.127888 
" clip-path="url(#p7c7a1e82c1)" style="fill: none; stroke: #000000; stroke-opacity: 0.3; stroke-width: 5"/>
   </g>
   <g id="PathCollection_1">
    <path d="M 501.230769 318.490861 
C 508.493655 318.490861 515.46005 315.605285 520.595686 310.469649 
C 525.731322 305.334014 528.616897 298.367619 528.616897 291.104733 
C 528.616897 283.841847 525.731322 276.875452 520.595686 271.739816 
C 515.46005 266.60418 508.493655 263.718605 501.230769 263.718605 
C 493.967883 263.718605 487.001488 266.60418 481.865852 271.739816 
C 476.730217 276.875452 473.844641 283.841847 473.844641 291.104733 
C 473.844641 298.367619 476.730217 305.334014 481.865852 310.469649 
C 487.001488 315.605285 493.967883 318.490861 501.230769 318.490861 
z
" clip-path="url(#p7c7a1e82c1)" style="fill: #c70039; fill-opacity: 0.99; stroke: #c70039; stroke-opacity: 0.99"/>
    <path d="M 482.592348 231.745676 
C 489.640829 231.745676 496.401571 228.945285 501.385599 223.961257 
C 506.369628 218.977228 509.170019 212.216486 509.170019 205.168006 
C 509.170019 198.119525 506.369628 191.358783 501.385599 186.374754 
C 496.401571 181.390726 489.640829 178.590335 482.592348 178.590335 
C 475.543867 178.590335 468.783125 181.390726 463.799097 186.374754 
C 458.815068 191.358783 456.014677 198.119525 456.014677 205.168006 
C 456.014677 212.216486 458.815068 218.977228 463.799097 223.961257 
C 468.783125 228.945285 475.543867 231.745676 482.592348 231.745676 
z
" clip-path="url(#p7c7a1e82c1)" style="fill: #c70039; fill-opacity: 0.99; stroke: #c70039; stroke-opacity: 0.99"/>
    <path d="M 429.89985 160.66818 
C 436.948331 160.66818 443.709073 157.867789 448.693101 152.883761 
C 453.67713 147.899732 456.477521 141.13899 456.477521 134.09051 
C 456.477521 127.042029 453.67713 120.281287 448.693101 115.297258 
C 443.709073 110.31323 436.948331 107.512839 429.89985 107.512839 
C 422.851369 107.512839 416.090627 110.31323 411.106599 115.297258 
C 406.12257 120.281287 403.322179 127.042029 403.322179 134.09051 
C 403.322179 141.13899 406.12257 147.899732 411.106599 152.883761 
C 416.090627 157.867789 422.851369 160.66818 429.89985 160.66818 
z
" clip-path="url(#p7c7a1e82c1)" style="fill: #c70039; fill-opacity: 0.99; stroke: #c70039; stroke-opacity: 0.99"/>
    <path d="M 352.264291 116.461726 
C 359.239004 116.461726 365.92899 113.690644 370.860856 108.758777 
C 375.792723 103.82691 378.563806 97.136924 378.563806 90.162211 
C 378.563806 83.187499 375.792723 76.497513 370.860856 71.565646 
C 365.92899 66.633779 359.239004 63.862697 352.264291 63.862697 
C 345.289578 63.862697 338.599593 66.633779 333.667726 71.565646 
C 328.735859 76.497513 325.964776 83.187499 325.964776 90.162211 
C 325.964776 97.136924 328.735859 103.82691 333.667726 108.758777 
C 338.599593 113.690644 345.289578 116.461726 352.264291 116.461726 
z
" clip-path="url(#p7c7a1e82c1)" style="fill: #c70039; fill-opacity: 0.99; stroke: #c70039; stroke-opacity: 0.99"/>
    <path d="M 263.109549 106.834389 
C 269.966559 106.834389 276.543646 104.11007 281.392284 99.261432 
C 286.240923 94.412794 288.965241 87.835706 288.965241 80.978696 
C 288.965241 74.121686 286.240923 67.544599 281.392284 62.69596 
C 276.543646 57.847322 269.966559 55.123003 263.109549 55.123003 
C 256.252539 55.123003 249.675451 57.847322 244.826813 62.69596 
C 239.978175 67.544599 237.253856 74.121686 237.253856 80.978696 
C 237.253856 87.835706 239.978175 94.412794 244.826813 99.261432 
C 249.675451 104.11007 256.252539 106.834389 263.109549 106.834389 
z
" clip-path="url(#p7c7a1e82c1)" style="fill: #c70039; fill-opacity: 0.99; stroke: #c70039; stroke-opacity: 0.99"/>
    <path d="M 177.851298 131.637636 
C 184.086156 131.637636 190.06649 129.1605 194.4752 124.75179 
C 198.883911 120.34308 201.361046 114.362746 201.361046 108.127888 
C 201.361046 101.89303 198.883911 95.912696 194.4752 91.503986 
C 190.06649 87.095275 184.086156 84.61814 177.851298 84.61814 
C 171.61644 84.61814 165.636106 87.095275 161.227396 91.503986 
C 156.818686 95.912696 154.34155 101.89303 154.34155 108.127888 
C 154.34155 114.362746 156.818686 120.34308 161.227396 124.75179 
C 165.636106 129.1605 171.61644 131.637636 177.851298 131.637636 
z
" clip-path="url(#p7c7a1e82c1)" style="fill: #c70039; fill-opacity: 0.99; stroke: #c70039; stroke-opacity: 0.99"/>
    <path d="M 111.231477 190.421086 
C 117.46525 190.421086 123.444543 187.944382 127.852486 183.536439 
C 132.260429 179.128496 134.737133 173.149203 134.737133 166.91543 
C 134.737133 160.681657 132.260429 154.702364 127.852486 150.294421 
C 123.444543 145.886478 117.46525 143.409773 111.231477 143.409773 
C 104.997704 143.409773 99.018411 145.886478 94.610468 150.294421 
C 90.202525 154.702364 87.725821 160.681657 87.725821 166.91543 
C 87.725821 173.149203 90.202525 179.128496 94.610468 183.536439 
C 99.018411 187.944382 104.997704 190.421086 111.231477 190.421086 
z
" clip-path="url(#p7c7a1e82c1)" style="fill: #c70039; fill-opacity: 0.99; stroke: #c70039; stroke-opacity: 0.99"/>
    <path d="M 74.769231 270.330361 
C 80.90972 270.330361 86.799538 267.890719 91.14152 263.548737 
C 95.483502 259.206755 97.923145 253.316937 97.923145 247.176447 
C 97.923145 241.035958 95.483502 235.14614 91.14152 230.804158 
C 86.799538 226.462176 80.90972 224.022533 74.769231 224.022533 
C 68.628741 224.022533 62.738923 226.462176 58.396941 230.804158 
C 54.054959 235.14614 51.615317 241.035958 51.615317 247.176447 
C 51.615317 253.316937 54.054959 259.206755 58.396941 263.548737 
C 62.738923 267.890719 68.628741 270.330361 74.769231 270.330361 
z
" clip-path="url(#p7c7a1e82c1)" style="fill: #c70039; fill-opacity: 0.99; stroke: #c70039; stroke-opacity: 0.99"/>
    <path d="M 74.769244 357.796835 
C 80.806268 357.796835 86.596845 355.3983 90.865666 351.129479 
C 95.134487 346.860657 97.533023 341.070081 97.533023 335.033056 
C 97.533023 328.996031 95.134487 323.205455 90.865666 318.936634 
C 86.596845 314.667812 80.806268 312.269277 74.769244 312.269277 
C 68.732219 312.269277 62.941642 314.667812 58.672821 318.936634 
C 54.404 323.205455 52.005465 328.996031 52.005465 335.033056 
C 52.005465 341.070081 54.404 346.860657 58.672821 351.129479 
C 62.941642 355.3983 68.732219 357.796835 74.769244 357.796835 
z
" clip-path="url(#p7c7a1e82c1)" style="fill: #c70039; fill-opacity: 0.99; stroke: #c70039; stroke-opacity: 0.99"/>
    <path d="M 111.23149 438.040038 
C 117.263797 438.040038 123.049848 435.643377 127.315334 431.377892 
C 131.580819 427.112407 133.97748 421.326355 133.97748 415.294048 
C 133.97748 409.261741 131.580819 403.47569 127.315334 399.210205 
C 123.049848 394.94472 117.263797 392.548059 111.23149 392.548059 
C 105.199183 392.548059 99.413131 394.94472 95.147646 399.210205 
C 90.882161 403.47569 88.4855 409.261741 88.4855 415.294048 
C 88.4855 421.326355 90.882161 427.112407 95.147646 431.377892 
C 99.413131 435.643377 105.199183 438.040038 111.23149 438.040038 
z
" clip-path="url(#p7c7a1e82c1)" style="fill: #c70039; fill-opacity: 0.99; stroke: #c70039; stroke-opacity: 0.99"/>
    <path d="M 177.85133 496.553988 
C 183.81108 496.553988 189.527536 494.186155 193.741715 489.971975 
C 197.955895 485.757796 200.323728 480.04134 200.323728 474.08159 
C 200.323728 468.121841 197.955895 462.405384 193.741715 458.191205 
C 189.527536 453.977026 183.81108 451.609192 177.85133 451.609192 
C 171.891581 451.609192 166.175124 453.977026 161.960945 458.191205 
C 157.746766 462.405384 155.378932 468.121841 155.378932 474.08159 
C 155.378932 480.04134 157.746766 485.757796 161.960945 489.971975 
C 166.175124 494.186155 171.891581 496.553988 177.85133 496.553988 
z
" clip-path="url(#p7c7a1e82c1)" style="fill: #c70039; fill-opacity: 0.99; stroke: #c70039; stroke-opacity: 0.99"/>
    <path d="M 263.109587 521.464645 
C 268.475674 521.464645 273.622702 519.332676 277.417098 515.53828 
C 281.211494 511.743884 283.343463 506.596856 283.343463 501.230769 
C 283.343463 495.864683 281.211494 490.717655 277.417098 486.923258 
C 273.622702 483.128862 268.475674 480.996893 263.109587 480.996893 
C 257.743501 480.996893 252.596473 483.128862 248.802076 486.923258 
C 245.00768 490.717655 242.875711 495.864683 242.875711 501.230769 
C 242.875711 506.596856 245.00768 511.743884 248.802076 515.53828 
C 252.596473 519.332676 257.743501 521.464645 263.109587 521.464645 
z
" clip-path="url(#p7c7a1e82c1)" style="fill: #c70039; fill-opacity: 0.99; stroke: #c70039; stroke-opacity: 0.99"/>
    <path d="M 352.264323 512.224956 
C 357.615516 512.224956 362.748258 510.098905 366.532122 506.31504 
C 370.315987 502.531176 372.442038 497.398434 372.442038 492.047241 
C 372.442038 486.696049 370.315987 481.563307 366.532122 477.779442 
C 362.748258 473.995578 357.615516 471.869527 352.264323 471.869527 
C 346.913131 471.869527 341.780389 473.995578 337.996524 477.779442 
C 334.21266 481.563307 332.086609 486.696049 332.086609 492.047241 
C 332.086609 497.398434 334.21266 502.531176 337.996524 506.31504 
C 341.780389 510.098905 346.913131 512.224956 352.264323 512.224956 
z
" clip-path="url(#p7c7a1e82c1)" style="fill: #c70039; fill-opacity: 0.99; stroke: #c70039; stroke-opacity: 0.99"/>
    <path d="M 429.899888 467.749865 
C 435.106076 467.749865 440.099733 465.681425 443.781064 462.000094 
C 447.462395 458.318763 449.530835 453.325106 449.530835 448.118918 
C 449.530835 442.91273 447.462395 437.919073 443.781064 434.237742 
C 440.099733 430.556412 435.106076 428.487971 429.899888 428.487971 
C 424.6937 428.487971 419.700044 430.556412 416.018713 434.237742 
C 412.337382 437.919073 410.268942 442.91273 410.268942 448.118918 
C 410.268942 453.325106 412.337382 458.318763 416.018713 462.000094 
C 419.700044 465.681425 424.6937 467.749865 429.899888 467.749865 
z
" clip-path="url(#p7c7a1e82c1)" style="fill: #c70039; fill-opacity: 0.99; stroke: #c70039; stroke-opacity: 0.99"/>
    <path d="M 482.592374 396.406345 
C 487.728009 396.406345 492.653994 394.365935 496.285437 390.734492 
C 499.91688 387.103049 501.95729 382.177064 501.95729 377.041428 
C 501.95729 371.905792 499.91688 366.979807 496.285437 363.348364 
C 492.653994 359.716921 487.728009 357.676512 482.592374 357.676512 
C 477.456738 357.676512 472.530753 359.716921 468.89931 363.348364 
C 465.267867 366.979807 463.227457 371.905792 463.227457 377.041428 
C 463.227457 382.177064 465.267867 387.103049 468.89931 390.734492 
C 472.530753 394.365935 477.456738 396.406345 482.592374 396.406345 
z
" clip-path="url(#p7c7a1e82c1)" style="fill: #c70039; fill-opacity: 0.99; stroke: #c70039; stroke-opacity: 0.99"/>
   </g>
   <g id="text_1">
    <g id="patch_2">
     <path d="M 462.71991 299.419889 
L 539.741629 299.419889 
L 539.741629 282.789576 
L 462.71991 282.789576 
z
" clip-path="url(#p7c7a1e82c1)" style="fill: #ffffff; opacity: 0.7; stroke: #000000; stroke-linejoin: miter"/>
    </g>
    <g clip-path="url(#p7c7a1e82c1)">
     <!-- Brian De Palma -->
     <g transform="translate(466.67991 293.58817)scale(0.09 -0.09)">
      <defs>
       <path id="DejaVuSans-42" d="M 1259 2228 
L 1259 519 
L 2272 519 
Q 2781 519 3026 730 
Q 3272 941 3272 1375 
Q 3272 1813 3026 2020 
Q 2781 2228 2272 2228 
L 1259 2228 
z
M 1259 4147 
L 1259 2741 
L 2194 2741 
Q 2656 2741 2882 2914 
Q 3109 3088 3109 3444 
Q 3109 3797 2882 3972 
Q 2656 4147 2194 4147 
L 1259 4147 
z
M 628 4666 
L 2241 4666 
Q 2963 4666 3353 4366 
Q 3744 4066 3744 3513 
Q 3744 3084 3544 2831 
Q 3344 2578 2956 2516 
Q 3422 2416 3680 2098 
Q 3938 1781 3938 1306 
Q 3938 681 3513 340 
Q 3088 0 2303 0 
L 628 0 
L 628 4666 
z
" transform="scale(0.015625)"/>
       <path id="DejaVuSans-72" d="M 2631 2963 
Q 2534 3019 2420 3045 
Q 2306 3072 2169 3072 
Q 1681 3072 1420 2755 
Q 1159 2438 1159 1844 
L 1159 0 
L 581 0 
L 581 3500 
L 1159 3500 
L 1159 2956 
Q 1341 3275 1631 3429 
Q 1922 3584 2338 3584 
Q 2397 3584 2469 3576 
Q 2541 3569 2628 3553 
L 2631 2963 
z
" transform="scale(0.015625)"/>
       <path id="DejaVuSans-69" d="M 603 3500 
L 1178 3500 
L 1178 0 
L 603 0 
L 603 3500 
z
M 603 4863 
L 1178 4863 
L 1178 4134 
L 603 4134 
L 603 4863 
z
" transform="scale(0.015625)"/>
       <path id="DejaVuSans-61" d="M 2194 1759 
Q 1497 1759 1228 1600 
Q 959 1441 959 1056 
Q 959 750 1161 570 
Q 1363 391 1709 391 
Q 2188 391 2477 730 
Q 2766 1069 2766 1631 
L 2766 1759 
L 2194 1759 
z
M 3341 1997 
L 3341 0 
L 2766 0 
L 2766 531 
Q 2569 213 2275 61 
Q 1981 -91 1556 -91 
Q 1019 -91 701 211 
Q 384 513 384 1019 
Q 384 1609 779 1909 
Q 1175 2209 1959 2209 
L 2766 2209 
L 2766 2266 
Q 2766 2663 2505 2880 
Q 2244 3097 1772 3097 
Q 1472 3097 1187 3025 
Q 903 2953 641 2809 
L 641 3341 
Q 956 3463 1253 3523 
Q 1550 3584 1831 3584 
Q 2591 3584 2966 3190 
Q 3341 2797 3341 1997 
z
" transform="scale(0.015625)"/>
       <path id="DejaVuSans-6e" d="M 3513 2113 
L 3513 0 
L 2938 0 
L 2938 2094 
Q 2938 2591 2744 2837 
Q 2550 3084 2163 3084 
Q 1697 3084 1428 2787 
Q 1159 2491 1159 1978 
L 1159 0 
L 581 0 
L 581 3500 
L 1159 3500 
L 1159 2956 
Q 1366 3272 1645 3428 
Q 1925 3584 2291 3584 
Q 2894 3584 3203 3211 
Q 3513 2838 3513 2113 
z
" transform="scale(0.015625)"/>
       <path id="DejaVuSans-20" transform="scale(0.015625)"/>
       <path id="DejaVuSans-44" d="M 1259 4147 
L 1259 519 
L 2022 519 
Q 2988 519 3436 956 
Q 3884 1394 3884 2338 
Q 3884 3275 3436 3711 
Q 2988 4147 2022 4147 
L 1259 4147 
z
M 628 4666 
L 1925 4666 
Q 3281 4666 3915 4102 
Q 4550 3538 4550 2338 
Q 4550 1131 3912 565 
Q 3275 0 1925 0 
L 628 0 
L 628 4666 
z
" transform="scale(0.015625)"/>
       <path id="DejaVuSans-65" d="M 3597 1894 
L 3597 1613 
L 953 1613 
Q 991 1019 1311 708 
Q 1631 397 2203 397 
Q 2534 397 2845 478 
Q 3156 559 3463 722 
L 3463 178 
Q 3153 47 2828 -22 
Q 2503 -91 2169 -91 
Q 1331 -91 842 396 
Q 353 884 353 1716 
Q 353 2575 817 3079 
Q 1281 3584 2069 3584 
Q 2775 3584 3186 3129 
Q 3597 2675 3597 1894 
z
M 3022 2063 
Q 3016 2534 2758 2815 
Q 2500 3097 2075 3097 
Q 1594 3097 1305 2825 
Q 1016 2553 972 2059 
L 3022 2063 
z
" transform="scale(0.015625)"/>
       <path id="DejaVuSans-50" d="M 1259 4147 
L 1259 2394 
L 2053 2394 
Q 2494 2394 2734 2622 
Q 2975 2850 2975 3272 
Q 2975 3691 2734 3919 
Q 2494 4147 2053 4147 
L 1259 4147 
z
M 628 4666 
L 2053 4666 
Q 2838 4666 3239 4311 
Q 3641 3956 3641 3272 
Q 3641 2581 3239 2228 
Q 2838 1875 2053 1875 
L 1259 1875 
L 1259 0 
L 628 0 
L 628 4666 
z
" transform="scale(0.015625)"/>
       <path id="DejaVuSans-6c" d="M 603 4863 
L 1178 4863 
L 1178 0 
L 603 0 
L 603 4863 
z
" transform="scale(0.015625)"/>
       <path id="DejaVuSans-6d" d="M 3328 2828 
Q 3544 3216 3844 3400 
Q 4144 3584 4550 3584 
Q 5097 3584 5394 3201 
Q 5691 2819 5691 2113 
L 5691 0 
L 5113 0 
L 5113 2094 
Q 5113 2597 4934 2840 
Q 4756 3084 4391 3084 
Q 3944 3084 3684 2787 
Q 3425 2491 3425 1978 
L 3425 0 
L 2847 0 
L 2847 2094 
Q 2847 2600 2669 2842 
Q 2491 3084 2119 3084 
Q 1678 3084 1418 2786 
Q 1159 2488 1159 1978 
L 1159 0 
L 581 0 
L 581 3500 
L 1159 3500 
L 1159 2956 
Q 1356 3278 1631 3431 
Q 1906 3584 2284 3584 
Q 2666 3584 2933 3390 
Q 3200 3197 3328 2828 
z
" transform="scale(0.015625)"/>
      </defs>
      <use xlink:href="#DejaVuSans-42"/>
      <use xlink:href="#DejaVuSans-72" x="68.603516"/>
      <use xlink:href="#DejaVuSans-69" x="109.716797"/>
      <use xlink:href="#DejaVuSans-61" x="137.5"/>
      <use xlink:href="#DejaVuSans-6e" x="198.779297"/>
      <use xlink:href="#DejaVuSans-20" x="262.158203"/>
      <use xlink:href="#DejaVuSans-44" x="293.945312"/>
      <use xlink:href="#DejaVuSans-65" x="370.947266"/>
      <use xlink:href="#DejaVuSans-20" x="432.470703"/>
      <use xlink:href="#DejaVuSans-50" x="464.257812"/>
      <use xlink:href="#DejaVuSans-61" x="520.060547"/>
      <use xlink:href="#DejaVuSans-6c" x="581.339844"/>
      <use xlink:href="#DejaVuSans-6d" x="609.123047"/>
      <use xlink:href="#DejaVuSans-61" x="706.535156"/>
     </g>
    </g>
   </g>
   <g id="text_2">
    <g id="patch_3">
     <path d="M 446.109301 213.483162 
L 519.075395 213.483162 
L 519.075395 196.852849 
L 446.109301 196.852849 
z
" clip-path="url(#p7c7a1e82c1)" style="fill: #ffffff; opacity: 0.7; stroke: #000000; stroke-linejoin: miter"/>
    </g>
    <g clip-path="url(#p7c7a1e82c1)">
     <!-- William Hanna -->
     <g transform="translate(450.069301 207.651443)scale(0.09 -0.09)">
      <defs>
       <path id="DejaVuSans-57" d="M 213 4666 
L 850 4666 
L 1831 722 
L 2809 4666 
L 3519 4666 
L 4500 722 
L 5478 4666 
L 6119 4666 
L 4947 0 
L 4153 0 
L 3169 4050 
L 2175 0 
L 1381 0 
L 213 4666 
z
" transform="scale(0.015625)"/>
       <path id="DejaVuSans-48" d="M 628 4666 
L 1259 4666 
L 1259 2753 
L 3553 2753 
L 3553 4666 
L 4184 4666 
L 4184 0 
L 3553 0 
L 3553 2222 
L 1259 2222 
L 1259 0 
L 628 0 
L 628 4666 
z
" transform="scale(0.015625)"/>
      </defs>
      <use xlink:href="#DejaVuSans-57"/>
      <use xlink:href="#DejaVuSans-69" x="96.626953"/>
      <use xlink:href="#DejaVuSans-6c" x="124.410156"/>
      <use xlink:href="#DejaVuSans-6c" x="152.193359"/>
      <use xlink:href="#DejaVuSans-69" x="179.976562"/>
      <use xlink:href="#DejaVuSans-61" x="207.759766"/>
      <use xlink:href="#DejaVuSans-6d" x="269.039062"/>
      <use xlink:href="#DejaVuSans-20" x="366.451172"/>
      <use xlink:href="#DejaVuSans-48" x="398.238281"/>
      <use xlink:href="#DejaVuSans-61" x="473.433594"/>
      <use xlink:href="#DejaVuSans-6e" x="534.712891"/>
      <use xlink:href="#DejaVuSans-6e" x="598.091797"/>
      <use xlink:href="#DejaVuSans-61" x="661.470703"/>
     </g>
    </g>
   </g>
   <g id="text_3">
    <g id="patch_4">
     <path d="M 391.678678 142.405666 
L 468.121022 142.405666 
L 468.121022 125.775353 
L 391.678678 125.775353 
z
" clip-path="url(#p7c7a1e82c1)" style="fill: #ffffff; opacity: 0.7; stroke: #000000; stroke-linejoin: miter"/>
    </g>
    <g clip-path="url(#p7c7a1e82c1)">
     <!-- Joseph Barbera -->
     <g transform="translate(395.638678 136.573947)scale(0.09 -0.09)">
      <defs>
       <path id="DejaVuSans-4a" d="M 628 4666 
L 1259 4666 
L 1259 325 
Q 1259 -519 939 -900 
Q 619 -1281 -91 -1281 
L -331 -1281 
L -331 -750 
L -134 -750 
Q 284 -750 456 -515 
Q 628 -281 628 325 
L 628 4666 
z
" transform="scale(0.015625)"/>
       <path id="DejaVuSans-6f" d="M 1959 3097 
Q 1497 3097 1228 2736 
Q 959 2375 959 1747 
Q 959 1119 1226 758 
Q 1494 397 1959 397 
Q 2419 397 2687 759 
Q 2956 1122 2956 1747 
Q 2956 2369 2687 2733 
Q 2419 3097 1959 3097 
z
M 1959 3584 
Q 2709 3584 3137 3096 
Q 3566 2609 3566 1747 
Q 3566 888 3137 398 
Q 2709 -91 1959 -91 
Q 1206 -91 779 398 
Q 353 888 353 1747 
Q 353 2609 779 3096 
Q 1206 3584 1959 3584 
z
" transform="scale(0.015625)"/>
       <path id="DejaVuSans-73" d="M 2834 3397 
L 2834 2853 
Q 2591 2978 2328 3040 
Q 2066 3103 1784 3103 
Q 1356 3103 1142 2972 
Q 928 2841 928 2578 
Q 928 2378 1081 2264 
Q 1234 2150 1697 2047 
L 1894 2003 
Q 2506 1872 2764 1633 
Q 3022 1394 3022 966 
Q 3022 478 2636 193 
Q 2250 -91 1575 -91 
Q 1294 -91 989 -36 
Q 684 19 347 128 
L 347 722 
Q 666 556 975 473 
Q 1284 391 1588 391 
Q 1994 391 2212 530 
Q 2431 669 2431 922 
Q 2431 1156 2273 1281 
Q 2116 1406 1581 1522 
L 1381 1569 
Q 847 1681 609 1914 
Q 372 2147 372 2553 
Q 372 3047 722 3315 
Q 1072 3584 1716 3584 
Q 2034 3584 2315 3537 
Q 2597 3491 2834 3397 
z
" transform="scale(0.015625)"/>
       <path id="DejaVuSans-70" d="M 1159 525 
L 1159 -1331 
L 581 -1331 
L 581 3500 
L 1159 3500 
L 1159 2969 
Q 1341 3281 1617 3432 
Q 1894 3584 2278 3584 
Q 2916 3584 3314 3078 
Q 3713 2572 3713 1747 
Q 3713 922 3314 415 
Q 2916 -91 2278 -91 
Q 1894 -91 1617 61 
Q 1341 213 1159 525 
z
M 3116 1747 
Q 3116 2381 2855 2742 
Q 2594 3103 2138 3103 
Q 1681 3103 1420 2742 
Q 1159 2381 1159 1747 
Q 1159 1113 1420 752 
Q 1681 391 2138 391 
Q 2594 391 2855 752 
Q 3116 1113 3116 1747 
z
" transform="scale(0.015625)"/>
       <path id="DejaVuSans-68" d="M 3513 2113 
L 3513 0 
L 2938 0 
L 2938 2094 
Q 2938 2591 2744 2837 
Q 2550 3084 2163 3084 
Q 1697 3084 1428 2787 
Q 1159 2491 1159 1978 
L 1159 0 
L 581 0 
L 581 4863 
L 1159 4863 
L 1159 2956 
Q 1366 3272 1645 3428 
Q 1925 3584 2291 3584 
Q 2894 3584 3203 3211 
Q 3513 2838 3513 2113 
z
" transform="scale(0.015625)"/>
       <path id="DejaVuSans-62" d="M 3116 1747 
Q 3116 2381 2855 2742 
Q 2594 3103 2138 3103 
Q 1681 3103 1420 2742 
Q 1159 2381 1159 1747 
Q 1159 1113 1420 752 
Q 1681 391 2138 391 
Q 2594 391 2855 752 
Q 3116 1113 3116 1747 
z
M 1159 2969 
Q 1341 3281 1617 3432 
Q 1894 3584 2278 3584 
Q 2916 3584 3314 3078 
Q 3713 2572 3713 1747 
Q 3713 922 3314 415 
Q 2916 -91 2278 -91 
Q 1894 -91 1617 61 
Q 1341 213 1159 525 
L 1159 0 
L 581 0 
L 581 4863 
L 1159 4863 
L 1159 2969 
z
" transform="scale(0.015625)"/>
      </defs>
      <use xlink:href="#DejaVuSans-4a"/>
      <use xlink:href="#DejaVuSans-6f" x="29.492188"/>
      <use xlink:href="#DejaVuSans-73" x="90.673828"/>
      <use xlink:href="#DejaVuSans-65" x="142.773438"/>
      <use xlink:href="#DejaVuSans-70" x="204.296875"/>
      <use xlink:href="#DejaVuSans-68" x="267.773438"/>
      <use xlink:href="#DejaVuSans-20" x="331.152344"/>
      <use xlink:href="#DejaVuSans-42" x="362.939453"/>
      <use xlink:href="#DejaVuSans-61" x="431.542969"/>
      <use xlink:href="#DejaVuSans-72" x="492.822266"/>
      <use xlink:href="#DejaVuSans-62" x="533.935547"/>
      <use xlink:href="#DejaVuSans-65" x="597.412109"/>
      <use xlink:href="#DejaVuSans-72" x="658.935547"/>
      <use xlink:href="#DejaVuSans-61" x="700.048828"/>
     </g>
    </g>
   </g>
   <g id="text_4">
    <g id="patch_5">
     <path d="M 309.963588 98.477368 
L 394.564994 98.477368 
L 394.564994 81.847055 
L 309.963588 81.847055 
z
" clip-path="url(#p7c7a1e82c1)" style="fill: #ffffff; opacity: 0.7; stroke: #000000; stroke-linejoin: miter"/>
    </g>
    <g clip-path="url(#p7c7a1e82c1)">
     <!-- Steven Spielberg -->
     <g transform="translate(313.923588 92.645649)scale(0.09 -0.09)">
      <defs>
       <path id="DejaVuSans-53" d="M 3425 4513 
L 3425 3897 
Q 3066 4069 2747 4153 
Q 2428 4238 2131 4238 
Q 1616 4238 1336 4038 
Q 1056 3838 1056 3469 
Q 1056 3159 1242 3001 
Q 1428 2844 1947 2747 
L 2328 2669 
Q 3034 2534 3370 2195 
Q 3706 1856 3706 1288 
Q 3706 609 3251 259 
Q 2797 -91 1919 -91 
Q 1588 -91 1214 -16 
Q 841 59 441 206 
L 441 856 
Q 825 641 1194 531 
Q 1563 422 1919 422 
Q 2459 422 2753 634 
Q 3047 847 3047 1241 
Q 3047 1584 2836 1778 
Q 2625 1972 2144 2069 
L 1759 2144 
Q 1053 2284 737 2584 
Q 422 2884 422 3419 
Q 422 4038 858 4394 
Q 1294 4750 2059 4750 
Q 2388 4750 2728 4690 
Q 3069 4631 3425 4513 
z
" transform="scale(0.015625)"/>
       <path id="DejaVuSans-74" d="M 1172 4494 
L 1172 3500 
L 2356 3500 
L 2356 3053 
L 1172 3053 
L 1172 1153 
Q 1172 725 1289 603 
Q 1406 481 1766 481 
L 2356 481 
L 2356 0 
L 1766 0 
Q 1100 0 847 248 
Q 594 497 594 1153 
L 594 3053 
L 172 3053 
L 172 3500 
L 594 3500 
L 594 4494 
L 1172 4494 
z
" transform="scale(0.015625)"/>
       <path id="DejaVuSans-76" d="M 191 3500 
L 800 3500 
L 1894 563 
L 2988 3500 
L 3597 3500 
L 2284 0 
L 1503 0 
L 191 3500 
z
" transform="scale(0.015625)"/>
       <path id="DejaVuSans-67" d="M 2906 1791 
Q 2906 2416 2648 2759 
Q 2391 3103 1925 3103 
Q 1463 3103 1205 2759 
Q 947 2416 947 1791 
Q 947 1169 1205 825 
Q 1463 481 1925 481 
Q 2391 481 2648 825 
Q 2906 1169 2906 1791 
z
M 3481 434 
Q 3481 -459 3084 -895 
Q 2688 -1331 1869 -1331 
Q 1566 -1331 1297 -1286 
Q 1028 -1241 775 -1147 
L 775 -588 
Q 1028 -725 1275 -790 
Q 1522 -856 1778 -856 
Q 2344 -856 2625 -561 
Q 2906 -266 2906 331 
L 2906 616 
Q 2728 306 2450 153 
Q 2172 0 1784 0 
Q 1141 0 747 490 
Q 353 981 353 1791 
Q 353 2603 747 3093 
Q 1141 3584 1784 3584 
Q 2172 3584 2450 3431 
Q 2728 3278 2906 2969 
L 2906 3500 
L 3481 3500 
L 3481 434 
z
" transform="scale(0.015625)"/>
      </defs>
      <use xlink:href="#DejaVuSans-53"/>
      <use xlink:href="#DejaVuSans-74" x="63.476562"/>
      <use xlink:href="#DejaVuSans-65" x="102.685547"/>
      <use xlink:href="#DejaVuSans-76" x="164.208984"/>
      <use xlink:href="#DejaVuSans-65" x="223.388672"/>
      <use xlink:href="#DejaVuSans-6e" x="284.912109"/>
      <use xlink:href="#DejaVuSans-20" x="348.291016"/>
      <use xlink:href="#DejaVuSans-53" x="380.078125"/>
      <use xlink:href="#DejaVuSans-70" x="443.554688"/>
      <use xlink:href="#DejaVuSans-69" x="507.03125"/>
      <use xlink:href="#DejaVuSans-65" x="534.814453"/>
      <use xlink:href="#DejaVuSans-6c" x="596.337891"/>
      <use xlink:href="#DejaVuSans-62" x="624.121094"/>
      <use xlink:href="#DejaVuSans-65" x="687.597656"/>
      <use xlink:href="#DejaVuSans-72" x="749.121094"/>
      <use xlink:href="#DejaVuSans-67" x="788.484375"/>
     </g>
    </g>
   </g>
   <g id="text_5">
    <g id="patch_6">
     <path d="M 231.747361 89.293852 
L 294.471736 89.293852 
L 294.471736 72.66354 
L 231.747361 72.66354 
z
" clip-path="url(#p7c7a1e82c1)" style="fill: #ffffff; opacity: 0.7; stroke: #000000; stroke-linejoin: miter"/>
    </g>
    <g clip-path="url(#p7c7a1e82c1)">
     <!-- Chuck Jones -->
     <g transform="translate(235.707361 83.462134)scale(0.09 -0.09)">
      <defs>
       <path id="DejaVuSans-43" d="M 4122 4306 
L 4122 3641 
Q 3803 3938 3442 4084 
Q 3081 4231 2675 4231 
Q 1875 4231 1450 3742 
Q 1025 3253 1025 2328 
Q 1025 1406 1450 917 
Q 1875 428 2675 428 
Q 3081 428 3442 575 
Q 3803 722 4122 1019 
L 4122 359 
Q 3791 134 3420 21 
Q 3050 -91 2638 -91 
Q 1578 -91 968 557 
Q 359 1206 359 2328 
Q 359 3453 968 4101 
Q 1578 4750 2638 4750 
Q 3056 4750 3426 4639 
Q 3797 4528 4122 4306 
z
" transform="scale(0.015625)"/>
       <path id="DejaVuSans-75" d="M 544 1381 
L 544 3500 
L 1119 3500 
L 1119 1403 
Q 1119 906 1312 657 
Q 1506 409 1894 409 
Q 2359 409 2629 706 
Q 2900 1003 2900 1516 
L 2900 3500 
L 3475 3500 
L 3475 0 
L 2900 0 
L 2900 538 
Q 2691 219 2414 64 
Q 2138 -91 1772 -91 
Q 1169 -91 856 284 
Q 544 659 544 1381 
z
M 1991 3584 
L 1991 3584 
z
" transform="scale(0.015625)"/>
       <path id="DejaVuSans-63" d="M 3122 3366 
L 3122 2828 
Q 2878 2963 2633 3030 
Q 2388 3097 2138 3097 
Q 1578 3097 1268 2742 
Q 959 2388 959 1747 
Q 959 1106 1268 751 
Q 1578 397 2138 397 
Q 2388 397 2633 464 
Q 2878 531 3122 666 
L 3122 134 
Q 2881 22 2623 -34 
Q 2366 -91 2075 -91 
Q 1284 -91 818 406 
Q 353 903 353 1747 
Q 353 2603 823 3093 
Q 1294 3584 2113 3584 
Q 2378 3584 2631 3529 
Q 2884 3475 3122 3366 
z
" transform="scale(0.015625)"/>
       <path id="DejaVuSans-6b" d="M 581 4863 
L 1159 4863 
L 1159 1991 
L 2875 3500 
L 3609 3500 
L 1753 1863 
L 3688 0 
L 2938 0 
L 1159 1709 
L 1159 0 
L 581 0 
L 581 4863 
z
" transform="scale(0.015625)"/>
      </defs>
      <use xlink:href="#DejaVuSans-43"/>
      <use xlink:href="#DejaVuSans-68" x="69.824219"/>
      <use xlink:href="#DejaVuSans-75" x="133.203125"/>
      <use xlink:href="#DejaVuSans-63" x="196.582031"/>
      <use xlink:href="#DejaVuSans-6b" x="251.5625"/>
      <use xlink:href="#DejaVuSans-20" x="309.472656"/>
      <use xlink:href="#DejaVuSans-4a" x="341.259766"/>
      <use xlink:href="#DejaVuSans-6f" x="370.751953"/>
      <use xlink:href="#DejaVuSans-6e" x="431.933594"/>
      <use xlink:href="#DejaVuSans-65" x="495.3125"/>
      <use xlink:href="#DejaVuSans-73" x="556.835938"/>
     </g>
    </g>
   </g>
   <g id="text_6">
    <g id="patch_7">
     <path d="M 148.230048 116.443044 
L 207.472548 116.443044 
L 207.472548 99.812732 
L 148.230048 99.812732 
z
" clip-path="url(#p7c7a1e82c1)" style="fill: #ffffff; opacity: 0.7; stroke: #000000; stroke-linejoin: miter"/>
    </g>
    <g clip-path="url(#p7c7a1e82c1)">
     <!-- Friz Freleng -->
     <g transform="translate(152.190048 110.611325)scale(0.09 -0.09)">
      <defs>
       <path id="DejaVuSans-46" d="M 628 4666 
L 3309 4666 
L 3309 4134 
L 1259 4134 
L 1259 2759 
L 3109 2759 
L 3109 2228 
L 1259 2228 
L 1259 0 
L 628 0 
L 628 4666 
z
" transform="scale(0.015625)"/>
       <path id="DejaVuSans-7a" d="M 353 3500 
L 3084 3500 
L 3084 2975 
L 922 459 
L 3084 459 
L 3084 0 
L 275 0 
L 275 525 
L 2438 3041 
L 353 3041 
L 353 3500 
z
" transform="scale(0.015625)"/>
      </defs>
      <use xlink:href="#DejaVuSans-46"/>
      <use xlink:href="#DejaVuSans-72" x="50.269531"/>
      <use xlink:href="#DejaVuSans-69" x="91.382812"/>
      <use xlink:href="#DejaVuSans-7a" x="119.166016"/>
      <use xlink:href="#DejaVuSans-20" x="171.65625"/>
      <use xlink:href="#DejaVuSans-46" x="203.443359"/>
      <use xlink:href="#DejaVuSans-72" x="253.712891"/>
      <use xlink:href="#DejaVuSans-65" x="292.576172"/>
      <use xlink:href="#DejaVuSans-6c" x="354.099609"/>
      <use xlink:href="#DejaVuSans-65" x="381.882812"/>
      <use xlink:href="#DejaVuSans-6e" x="443.40625"/>
      <use xlink:href="#DejaVuSans-67" x="506.785156"/>
     </g>
    </g>
   </g>
   <g id="text_7">
    <g id="patch_8">
     <path d="M 80.509133 175.230586 
L 141.953821 175.230586 
L 141.953821 158.600273 
L 80.509133 158.600273 
z
" clip-path="url(#p7c7a1e82c1)" style="fill: #ffffff; opacity: 0.7; stroke: #000000; stroke-linejoin: miter"/>
    </g>
    <g clip-path="url(#p7c7a1e82c1)">
     <!-- Wes Craven -->
     <g transform="translate(84.469133 169.398867)scale(0.09 -0.09)">
      <use xlink:href="#DejaVuSans-57"/>
      <use xlink:href="#DejaVuSans-65" x="93.001953"/>
      <use xlink:href="#DejaVuSans-73" x="154.525391"/>
      <use xlink:href="#DejaVuSans-20" x="206.625"/>
      <use xlink:href="#DejaVuSans-43" x="238.412109"/>
      <use xlink:href="#DejaVuSans-72" x="308.236328"/>
      <use xlink:href="#DejaVuSans-61" x="349.349609"/>
      <use xlink:href="#DejaVuSans-76" x="410.628906"/>
      <use xlink:href="#DejaVuSans-65" x="469.808594"/>
      <use xlink:href="#DejaVuSans-6e" x="531.332031"/>
     </g>
    </g>
   </g>
   <g id="text_8">
    <g id="patch_9">
     <path d="M 43.030871 255.491603 
L 106.50759 255.491603 
L 106.50759 238.861291 
L 43.030871 238.861291 
z
" clip-path="url(#p7c7a1e82c1)" style="fill: #ffffff; opacity: 0.7; stroke: #000000; stroke-linejoin: miter"/>
    </g>
    <g clip-path="url(#p7c7a1e82c1)">
     <!-- Joe Johnston -->
     <g transform="translate(46.990871 249.659885)scale(0.09 -0.09)">
      <use xlink:href="#DejaVuSans-4a"/>
      <use xlink:href="#DejaVuSans-6f" x="29.492188"/>
      <use xlink:href="#DejaVuSans-65" x="90.673828"/>
      <use xlink:href="#DejaVuSans-20" x="152.197266"/>
      <use xlink:href="#DejaVuSans-4a" x="183.984375"/>
      <use xlink:href="#DejaVuSans-6f" x="213.476562"/>
      <use xlink:href="#DejaVuSans-68" x="274.658203"/>
      <use xlink:href="#DejaVuSans-6e" x="338.037109"/>
      <use xlink:href="#DejaVuSans-73" x="401.416016"/>
      <use xlink:href="#DejaVuSans-74" x="453.515625"/>
      <use xlink:href="#DejaVuSans-6f" x="492.724609"/>
      <use xlink:href="#DejaVuSans-6e" x="553.90625"/>
     </g>
    </g>
   </g>
   <g id="text_9">
    <g id="patch_10">
     <path d="M 27.513619 343.348212 
L 122.024869 343.348212 
L 122.024869 326.7179 
L 27.513619 326.7179 
z
" clip-path="url(#p7c7a1e82c1)" style="fill: #ffffff; opacity: 0.7; stroke: #000000; stroke-linejoin: miter"/>
    </g>
    <g clip-path="url(#p7c7a1e82c1)">
     <!-- Steven Soderbergh -->
     <g transform="translate(31.473619 337.516494)scale(0.09 -0.09)">
      <defs>
       <path id="DejaVuSans-64" d="M 2906 2969 
L 2906 4863 
L 3481 4863 
L 3481 0 
L 2906 0 
L 2906 525 
Q 2725 213 2448 61 
Q 2172 -91 1784 -91 
Q 1150 -91 751 415 
Q 353 922 353 1747 
Q 353 2572 751 3078 
Q 1150 3584 1784 3584 
Q 2172 3584 2448 3432 
Q 2725 3281 2906 2969 
z
M 947 1747 
Q 947 1113 1208 752 
Q 1469 391 1925 391 
Q 2381 391 2643 752 
Q 2906 1113 2906 1747 
Q 2906 2381 2643 2742 
Q 2381 3103 1925 3103 
Q 1469 3103 1208 2742 
Q 947 2381 947 1747 
z
" transform="scale(0.015625)"/>
      </defs>
      <use xlink:href="#DejaVuSans-53"/>
      <use xlink:href="#DejaVuSans-74" x="63.476562"/>
      <use xlink:href="#DejaVuSans-65" x="102.685547"/>
      <use xlink:href="#DejaVuSans-76" x="164.208984"/>
      <use xlink:href="#DejaVuSans-65" x="223.388672"/>
      <use xlink:href="#DejaVuSans-6e" x="284.912109"/>
      <use xlink:href="#DejaVuSans-20" x="348.291016"/>
      <use xlink:href="#DejaVuSans-53" x="380.078125"/>
      <use xlink:href="#DejaVuSans-6f" x="443.554688"/>
      <use xlink:href="#DejaVuSans-64" x="504.736328"/>
      <use xlink:href="#DejaVuSans-65" x="568.212891"/>
      <use xlink:href="#DejaVuSans-72" x="629.736328"/>
      <use xlink:href="#DejaVuSans-62" x="670.849609"/>
      <use xlink:href="#DejaVuSans-65" x="734.326172"/>
      <use xlink:href="#DejaVuSans-72" x="795.849609"/>
      <use xlink:href="#DejaVuSans-67" x="835.212891"/>
      <use xlink:href="#DejaVuSans-68" x="898.689453"/>
     </g>
    </g>
   </g>
   <g id="text_10">
    <g id="patch_11">
     <path d="M 71.324224 423.609205 
L 151.138755 423.609205 
L 151.138755 406.978892 
L 71.324224 406.978892 
z
" clip-path="url(#p7c7a1e82c1)" style="fill: #ffffff; opacity: 0.7; stroke: #000000; stroke-linejoin: miter"/>
    </g>
    <g clip-path="url(#p7c7a1e82c1)">
     <!-- Martin Scorsese -->
     <g transform="translate(75.284224 417.777486)scale(0.09 -0.09)">
      <defs>
       <path id="DejaVuSans-4d" d="M 628 4666 
L 1569 4666 
L 2759 1491 
L 3956 4666 
L 4897 4666 
L 4897 0 
L 4281 0 
L 4281 4097 
L 3078 897 
L 2444 897 
L 1241 4097 
L 1241 0 
L 628 0 
L 628 4666 
z
" transform="scale(0.015625)"/>
      </defs>
      <use xlink:href="#DejaVuSans-4d"/>
      <use xlink:href="#DejaVuSans-61" x="86.279297"/>
      <use xlink:href="#DejaVuSans-72" x="147.558594"/>
      <use xlink:href="#DejaVuSans-74" x="188.671875"/>
      <use xlink:href="#DejaVuSans-69" x="227.880859"/>
      <use xlink:href="#DejaVuSans-6e" x="255.664062"/>
      <use xlink:href="#DejaVuSans-20" x="319.042969"/>
      <use xlink:href="#DejaVuSans-53" x="350.830078"/>
      <use xlink:href="#DejaVuSans-63" x="414.306641"/>
      <use xlink:href="#DejaVuSans-6f" x="469.287109"/>
      <use xlink:href="#DejaVuSans-72" x="530.46875"/>
      <use xlink:href="#DejaVuSans-73" x="571.582031"/>
      <use xlink:href="#DejaVuSans-65" x="623.681641"/>
      <use xlink:href="#DejaVuSans-73" x="685.205078"/>
      <use xlink:href="#DejaVuSans-65" x="737.304688"/>
     </g>
    </g>
   </g>
   <g id="text_11">
    <g id="patch_12">
     <path d="M 146.04969 482.396746 
L 209.652971 482.396746 
L 209.652971 465.766434 
L 146.04969 465.766434 
z
" clip-path="url(#p7c7a1e82c1)" style="fill: #ffffff; opacity: 0.7; stroke: #000000; stroke-linejoin: miter"/>
    </g>
    <g clip-path="url(#p7c7a1e82c1)">
     <!-- Woody Allen -->
     <g transform="translate(150.00969 476.565028)scale(0.09 -0.09)">
      <defs>
       <path id="DejaVuSans-79" d="M 2059 -325 
Q 1816 -950 1584 -1140 
Q 1353 -1331 966 -1331 
L 506 -1331 
L 506 -850 
L 844 -850 
Q 1081 -850 1212 -737 
Q 1344 -625 1503 -206 
L 1606 56 
L 191 3500 
L 800 3500 
L 1894 763 
L 2988 3500 
L 3597 3500 
L 2059 -325 
z
" transform="scale(0.015625)"/>
       <path id="DejaVuSans-41" d="M 2188 4044 
L 1331 1722 
L 3047 1722 
L 2188 4044 
z
M 1831 4666 
L 2547 4666 
L 4325 0 
L 3669 0 
L 3244 1197 
L 1141 1197 
L 716 0 
L 50 0 
L 1831 4666 
z
" transform="scale(0.015625)"/>
      </defs>
      <use xlink:href="#DejaVuSans-57"/>
      <use xlink:href="#DejaVuSans-6f" x="93.001953"/>
      <use xlink:href="#DejaVuSans-6f" x="154.183594"/>
      <use xlink:href="#DejaVuSans-64" x="215.365234"/>
      <use xlink:href="#DejaVuSans-79" x="278.841797"/>
      <use xlink:href="#DejaVuSans-20" x="338.021484"/>
      <use xlink:href="#DejaVuSans-41" x="369.808594"/>
      <use xlink:href="#DejaVuSans-6c" x="438.216797"/>
      <use xlink:href="#DejaVuSans-6c" x="466"/>
      <use xlink:href="#DejaVuSans-65" x="493.783203"/>
      <use xlink:href="#DejaVuSans-6e" x="555.306641"/>
     </g>
    </g>
   </g>
   <g id="text_12">
    <g id="patch_13">
     <path d="M 232.190368 509.545925 
L 294.028806 509.545925 
L 294.028806 492.915613 
L 232.190368 492.915613 
z
" clip-path="url(#p7c7a1e82c1)" style="fill: #ffffff; opacity: 0.7; stroke: #000000; stroke-linejoin: miter"/>
    </g>
    <g clip-path="url(#p7c7a1e82c1)">
     <!-- Ridley Scott -->
     <g transform="translate(236.150368 503.714207)scale(0.09 -0.09)">
      <defs>
       <path id="DejaVuSans-52" d="M 2841 2188 
Q 3044 2119 3236 1894 
Q 3428 1669 3622 1275 
L 4263 0 
L 3584 0 
L 2988 1197 
Q 2756 1666 2539 1819 
Q 2322 1972 1947 1972 
L 1259 1972 
L 1259 0 
L 628 0 
L 628 4666 
L 2053 4666 
Q 2853 4666 3247 4331 
Q 3641 3997 3641 3322 
Q 3641 2881 3436 2590 
Q 3231 2300 2841 2188 
z
M 1259 4147 
L 1259 2491 
L 2053 2491 
Q 2509 2491 2742 2702 
Q 2975 2913 2975 3322 
Q 2975 3731 2742 3939 
Q 2509 4147 2053 4147 
L 1259 4147 
z
" transform="scale(0.015625)"/>
      </defs>
      <use xlink:href="#DejaVuSans-52"/>
      <use xlink:href="#DejaVuSans-69" x="69.482422"/>
      <use xlink:href="#DejaVuSans-64" x="97.265625"/>
      <use xlink:href="#DejaVuSans-6c" x="160.742188"/>
      <use xlink:href="#DejaVuSans-65" x="188.525391"/>
      <use xlink:href="#DejaVuSans-79" x="250.048828"/>
      <use xlink:href="#DejaVuSans-20" x="309.228516"/>
      <use xlink:href="#DejaVuSans-53" x="341.015625"/>
      <use xlink:href="#DejaVuSans-63" x="404.492188"/>
      <use xlink:href="#DejaVuSans-6f" x="459.472656"/>
      <use xlink:href="#DejaVuSans-74" x="520.654297"/>
      <use xlink:href="#DejaVuSans-74" x="559.863281"/>
     </g>
    </g>
   </g>
   <g id="text_13">
    <g id="patch_14">
     <path d="M 323.474167 500.362398 
L 381.05448 500.362398 
L 381.05448 483.732085 
L 323.474167 483.732085 
z
" clip-path="url(#p7c7a1e82c1)" style="fill: #ffffff; opacity: 0.7; stroke: #000000; stroke-linejoin: miter"/>
    </g>
    <g clip-path="url(#p7c7a1e82c1)">
     <!-- Tim Burton -->
     <g transform="translate(327.434167 494.530679)scale(0.09 -0.09)">
      <defs>
       <path id="DejaVuSans-54" d="M -19 4666 
L 3928 4666 
L 3928 4134 
L 2272 4134 
L 2272 0 
L 1638 0 
L 1638 4134 
L -19 4134 
L -19 4666 
z
" transform="scale(0.015625)"/>
      </defs>
      <use xlink:href="#DejaVuSans-54"/>
      <use xlink:href="#DejaVuSans-69" x="57.958984"/>
      <use xlink:href="#DejaVuSans-6d" x="85.742188"/>
      <use xlink:href="#DejaVuSans-20" x="183.154297"/>
      <use xlink:href="#DejaVuSans-42" x="214.941406"/>
      <use xlink:href="#DejaVuSans-75" x="283.544922"/>
      <use xlink:href="#DejaVuSans-72" x="346.923828"/>
      <use xlink:href="#DejaVuSans-74" x="388.037109"/>
      <use xlink:href="#DejaVuSans-6f" x="427.246094"/>
      <use xlink:href="#DejaVuSans-6e" x="488.427734"/>
     </g>
    </g>
   </g>
   <g id="text_14">
    <g id="patch_15">
     <path d="M 401.845201 456.434074 
L 457.954576 456.434074 
L 457.954576 439.803762 
L 401.845201 439.803762 
z
" clip-path="url(#p7c7a1e82c1)" style="fill: #ffffff; opacity: 0.7; stroke: #000000; stroke-linejoin: miter"/>
    </g>
    <g clip-path="url(#p7c7a1e82c1)">
     <!-- Sam Raimi -->
     <g transform="translate(405.805201 450.602356)scale(0.09 -0.09)">
      <use xlink:href="#DejaVuSans-53"/>
      <use xlink:href="#DejaVuSans-61" x="63.476562"/>
      <use xlink:href="#DejaVuSans-6d" x="124.755859"/>
      <use xlink:href="#DejaVuSans-20" x="222.167969"/>
      <use xlink:href="#DejaVuSans-52" x="253.955078"/>
      <use xlink:href="#DejaVuSans-61" x="321.1875"/>
      <use xlink:href="#DejaVuSans-69" x="382.466797"/>
      <use xlink:href="#DejaVuSans-6d" x="410.25"/>
      <use xlink:href="#DejaVuSans-69" x="507.662109"/>
     </g>
    </g>
   </g>
   <g id="text_15">
    <g id="patch_16">
     <path d="M 444.807139 385.356585 
L 520.377608 385.356585 
L 520.377608 368.726272 
L 444.807139 368.726272 
z
" clip-path="url(#p7c7a1e82c1)" style="fill: #ffffff; opacity: 0.7; stroke: #000000; stroke-linejoin: miter"/>
    </g>
    <g clip-path="url(#p7c7a1e82c1)">
     <!-- John Carpenter -->
     <g transform="translate(448.767139 379.524866)scale(0.09 -0.09)">
      <use xlink:href="#DejaVuSans-4a"/>
      <use xlink:href="#DejaVuSans-6f" x="29.492188"/>
      <use xlink:href="#DejaVuSans-68" x="90.673828"/>
      <use xlink:href="#DejaVuSans-6e" x="154.052734"/>
      <use xlink:href="#DejaVuSans-20" x="217.431641"/>
      <use xlink:href="#DejaVuSans-43" x="249.21875"/>
      <use xlink:href="#DejaVuSans-61" x="319.042969"/>
      <use xlink:href="#DejaVuSans-72" x="380.322266"/>
      <use xlink:href="#DejaVuSans-70" x="421.435547"/>
      <use xlink:href="#DejaVuSans-65" x="484.912109"/>
      <use xlink:href="#DejaVuSans-6e" x="546.435547"/>
      <use xlink:href="#DejaVuSans-74" x="609.814453"/>
      <use xlink:href="#DejaVuSans-65" x="649.023438"/>
      <use xlink:href="#DejaVuSans-72" x="710.546875"/>
     </g>
    </g>
   </g>
   <g id="text_16">
    <!-- Impactful directors for Horror genre - Importance rank: 7 -->
    <g transform="translate(117.599063 4.8)scale(0.12 -0.12)">
     <defs>
      <path id="DejaVuSans-49" d="M 628 4666 
L 1259 4666 
L 1259 0 
L 628 0 
L 628 4666 
z
" transform="scale(0.015625)"/>
      <path id="DejaVuSans-66" d="M 2375 4863 
L 2375 4384 
L 1825 4384 
Q 1516 4384 1395 4259 
Q 1275 4134 1275 3809 
L 1275 3500 
L 2222 3500 
L 2222 3053 
L 1275 3053 
L 1275 0 
L 697 0 
L 697 3053 
L 147 3053 
L 147 3500 
L 697 3500 
L 697 3744 
Q 697 4328 969 4595 
Q 1241 4863 1831 4863 
L 2375 4863 
z
" transform="scale(0.015625)"/>
      <path id="DejaVuSans-2d" d="M 313 2009 
L 1997 2009 
L 1997 1497 
L 313 1497 
L 313 2009 
z
" transform="scale(0.015625)"/>
      <path id="DejaVuSans-3a" d="M 750 794 
L 1409 794 
L 1409 0 
L 750 0 
L 750 794 
z
M 750 3309 
L 1409 3309 
L 1409 2516 
L 750 2516 
L 750 3309 
z
" transform="scale(0.015625)"/>
      <path id="DejaVuSans-37" d="M 525 4666 
L 3525 4666 
L 3525 4397 
L 1831 0 
L 1172 0 
L 2766 4134 
L 525 4134 
L 525 4666 
z
" transform="scale(0.015625)"/>
     </defs>
     <use xlink:href="#DejaVuSans-49"/>
     <use xlink:href="#DejaVuSans-6d" x="29.492188"/>
     <use xlink:href="#DejaVuSans-70" x="126.904297"/>
     <use xlink:href="#DejaVuSans-61" x="190.380859"/>
     <use xlink:href="#DejaVuSans-63" x="251.660156"/>
     <use xlink:href="#DejaVuSans-74" x="306.640625"/>
     <use xlink:href="#DejaVuSans-66" x="345.849609"/>
     <use xlink:href="#DejaVuSans-75" x="381.054688"/>
     <use xlink:href="#DejaVuSans-6c" x="444.433594"/>
     <use xlink:href="#DejaVuSans-20" x="472.216797"/>
     <use xlink:href="#DejaVuSans-64" x="504.003906"/>
     <use xlink:href="#DejaVuSans-69" x="567.480469"/>
     <use xlink:href="#DejaVuSans-72" x="595.263672"/>
     <use xlink:href="#DejaVuSans-65" x="634.126953"/>
     <use xlink:href="#DejaVuSans-63" x="695.650391"/>
     <use xlink:href="#DejaVuSans-74" x="750.630859"/>
     <use xlink:href="#DejaVuSans-6f" x="789.839844"/>
     <use xlink:href="#DejaVuSans-72" x="851.021484"/>
     <use xlink:href="#DejaVuSans-73" x="892.134766"/>
     <use xlink:href="#DejaVuSans-20" x="944.234375"/>
     <use xlink:href="#DejaVuSans-66" x="976.021484"/>
     <use xlink:href="#DejaVuSans-6f" x="1011.226562"/>
     <use xlink:href="#DejaVuSans-72" x="1072.408203"/>
     <use xlink:href="#DejaVuSans-20" x="1113.521484"/>
     <use xlink:href="#DejaVuSans-48" x="1145.308594"/>
     <use xlink:href="#DejaVuSans-6f" x="1220.503906"/>
     <use xlink:href="#DejaVuSans-72" x="1281.685547"/>
     <use xlink:href="#DejaVuSans-72" x="1321.048828"/>
     <use xlink:href="#DejaVuSans-6f" x="1359.912109"/>
     <use xlink:href="#DejaVuSans-72" x="1421.09375"/>
     <use xlink:href="#DejaVuSans-20" x="1462.207031"/>
     <use xlink:href="#DejaVuSans-67" x="1493.994141"/>
     <use xlink:href="#DejaVuSans-65" x="1557.470703"/>
     <use xlink:href="#DejaVuSans-6e" x="1618.994141"/>
     <use xlink:href="#DejaVuSans-72" x="1682.373047"/>
     <use xlink:href="#DejaVuSans-65" x="1721.236328"/>
     <use xlink:href="#DejaVuSans-20" x="1782.759766"/>
     <use xlink:href="#DejaVuSans-2d" x="1814.546875"/>
     <use xlink:href="#DejaVuSans-20" x="1850.630859"/>
     <use xlink:href="#DejaVuSans-49" x="1882.417969"/>
     <use xlink:href="#DejaVuSans-6d" x="1911.910156"/>
     <use xlink:href="#DejaVuSans-70" x="2009.322266"/>
     <use xlink:href="#DejaVuSans-6f" x="2072.798828"/>
     <use xlink:href="#DejaVuSans-72" x="2133.980469"/>
     <use xlink:href="#DejaVuSans-74" x="2175.09375"/>
     <use xlink:href="#DejaVuSans-61" x="2214.302734"/>
     <use xlink:href="#DejaVuSans-6e" x="2275.582031"/>
     <use xlink:href="#DejaVuSans-63" x="2338.960938"/>
     <use xlink:href="#DejaVuSans-65" x="2393.941406"/>
     <use xlink:href="#DejaVuSans-20" x="2455.464844"/>
     <use xlink:href="#DejaVuSans-72" x="2487.251953"/>
     <use xlink:href="#DejaVuSans-61" x="2528.365234"/>
     <use xlink:href="#DejaVuSans-6e" x="2589.644531"/>
     <use xlink:href="#DejaVuSans-6b" x="2653.023438"/>
     <use xlink:href="#DejaVuSans-3a" x="2710.933594"/>
     <use xlink:href="#DejaVuSans-20" x="2744.625"/>
     <use xlink:href="#DejaVuSans-37" x="2776.412109"/>
    </g>
   </g>
  </g>
 </g>
 <defs>
  <clipPath id="p7c7a1e82c1">
   <rect x="10.8" y="10.8" width="554.4" height="554.4"/>
  </clipPath>
 </defs>
</svg>
