<?xml version="1.0" encoding="utf-8" standalone="no"?>
<!DOCTYPE svg PUBLIC "-//W3C//DTD SVG 1.1//EN"
  "http://www.w3.org/Graphics/SVG/1.1/DTD/svg11.dtd">
<svg xmlns:xlink="http://www.w3.org/1999/xlink" width="576pt" height="576pt" viewBox="0 0 576 576" xmlns="http://www.w3.org/2000/svg" version="1.1">
 <metadata>
  <rdf:RDF xmlns:dc="http://purl.org/dc/elements/1.1/" xmlns:cc="http://creativecommons.org/ns#" xmlns:rdf="http://www.w3.org/1999/02/22-rdf-syntax-ns#">
   <cc:Work>
    <dc:type rdf:resource="http://purl.org/dc/dcmitype/StillImage"/>
    <dc:date>2022-12-22T16:13:20.165814</dc:date>
    <dc:format>image/svg+xml</dc:format>
    <dc:creator>
     <cc:Agent>
      <dc:title>Matplotlib v3.5.2, https://matplotlib.org/</dc:title>
     </cc:Agent>
    </dc:creator>
   </cc:Work>
  </rdf:RDF>
 </metadata>
 <defs>
  <style type="text/css">*{stroke-linejoin: round; stroke-linecap: butt}</style>
 </defs>
 <g id="figure_1">
  <g id="patch_1">
   <path d="M 0 576 
L 576 576 
L 576 0 
L 0 0 
z
" style="fill: #ffffff"/>
  </g>
  <g id="axes_1">
   <g id="LineCollection_1">
    <path d="M 177.851298 102.319567 
L 111.231477 161.975729 
" clip-path="url(#p05b79fb0e0)" style="fill: none; stroke: #000000; stroke-opacity: 0.3; stroke-width: 5"/>
   </g>
   <g id="PathCollection_1">
    <path d="M 501.230769 315.386128 
C 508.493655 315.386128 515.46005 312.500553 520.595686 307.364917 
C 525.731322 302.229281 528.616897 295.262886 528.616897 288 
C 528.616897 280.737114 525.731322 273.770719 520.595686 268.635083 
C 515.46005 263.499447 508.493655 260.613872 501.230769 260.613872 
C 493.967883 260.613872 487.001488 263.499447 481.865852 268.635083 
C 476.730217 273.770719 473.844641 280.737114 473.844641 288 
C 473.844641 295.262886 476.730217 302.229281 481.865852 307.364917 
C 487.001488 312.500553 493.967883 315.386128 501.230769 315.386128 
z
" clip-path="url(#p05b79fb0e0)" style="fill: #d62728; fill-opacity: 0.99; stroke: #d62728; stroke-opacity: 0.99"/>
    <path d="M 482.592348 223.899864 
C 488.720225 223.899864 494.597945 221.465233 498.931009 217.132169 
C 503.264072 212.799106 505.698704 206.921386 505.698704 200.793508 
C 505.698704 194.665631 503.264072 188.787911 498.931009 184.454848 
C 494.597945 180.121784 488.720225 177.687153 482.592348 177.687153 
C 476.464471 177.687153 470.58675 180.121784 466.253687 184.454848 
C 461.920623 188.787911 459.485992 194.665631 459.485992 200.793508 
C 459.485992 206.921386 461.920623 212.799106 466.253687 217.132169 
C 470.58675 221.465233 476.464471 223.899864 482.592348 223.899864 
z
" clip-path="url(#p05b79fb0e0)" style="fill: #d62728; fill-opacity: 0.99; stroke: #d62728; stroke-opacity: 0.99"/>
    <path d="M 429.89985 151.334024 
C 435.911533 151.334024 441.677802 148.945557 445.928704 144.694655 
C 450.179605 140.443754 452.568072 134.677485 452.568072 128.665802 
C 452.568072 122.654119 450.179605 116.887849 445.928704 112.636948 
C 441.677802 108.386046 435.911533 105.997579 429.89985 105.997579 
C 423.888167 105.997579 418.121898 108.386046 413.870996 112.636948 
C 409.620094 116.887849 407.231627 122.654119 407.231627 128.665802 
C 407.231627 134.677485 409.620094 140.443754 413.870996 144.694655 
C 418.121898 148.945557 423.888167 151.334024 429.89985 151.334024 
z
" clip-path="url(#p05b79fb0e0)" style="fill: #d62728; fill-opacity: 0.99; stroke: #d62728; stroke-opacity: 0.99"/>
    <path d="M 352.264291 106.638037 
C 358.244515 106.638037 363.980609 104.262069 368.209266 100.033412 
C 372.437923 95.804756 374.813891 90.068661 374.813891 84.088438 
C 374.813891 78.108214 372.437923 72.37212 368.209266 68.143463 
C 363.980609 63.914806 358.244515 61.538838 352.264291 61.538838 
C 346.284068 61.538838 340.547973 63.914806 336.319317 68.143463 
C 332.09066 72.37212 329.714692 78.108214 329.714692 84.088438 
C 329.714692 90.068661 332.09066 95.804756 336.319317 100.033412 
C 340.547973 104.262069 346.284068 106.638037 352.264291 106.638037 
z
" clip-path="url(#p05b79fb0e0)" style="fill: #d62728; fill-opacity: 0.99; stroke: #d62728; stroke-opacity: 0.99"/>
    <path d="M 263.109549 96.867782 
C 268.970153 96.867782 274.591511 94.539339 278.735584 90.395266 
C 282.879657 86.251193 285.2081 80.629835 285.2081 74.769231 
C 285.2081 68.908627 282.879657 63.287269 278.735584 59.143196 
C 274.591511 54.999123 268.970153 52.67068 263.109549 52.67068 
C 257.248944 52.67068 251.627586 54.999123 247.483513 59.143196 
C 243.33944 63.287269 241.010998 68.908627 241.010998 74.769231 
C 241.010998 80.629835 243.33944 86.251193 247.483513 90.395266 
C 251.627586 94.539339 257.248944 96.867782 263.109549 96.867782 
z
" clip-path="url(#p05b79fb0e0)" style="fill: #d62728; fill-opacity: 0.99; stroke: #d62728; stroke-opacity: 0.99"/>
    <path d="M 177.851298 123.329527 
C 183.423205 123.329527 188.76765 121.115785 192.707583 117.175852 
C 196.647516 113.235919 198.861258 107.891474 198.861258 102.319567 
C 198.861258 96.747661 196.647516 91.403215 192.707583 87.463282 
C 188.76765 83.523349 183.423205 81.309607 177.851298 81.309607 
C 172.279392 81.309607 166.934946 83.523349 162.995013 87.463282 
C 159.05508 91.403215 156.841338 96.747661 156.841338 102.319567 
C 156.841338 107.891474 159.05508 113.235919 162.995013 117.175852 
C 166.934946 121.115785 172.279392 123.329527 177.851298 123.329527 
z
" clip-path="url(#p05b79fb0e0)" style="fill: #d62728; fill-opacity: 0.99; stroke: #d62728; stroke-opacity: 0.99"/>
    <path d="M 111.231477 182.985689 
C 116.803383 182.985689 122.147829 180.771947 126.087762 176.832014 
C 130.027695 172.892081 132.241437 167.547635 132.241437 161.975729 
C 132.241437 156.403822 130.027695 151.059377 126.087762 147.119444 
C 122.147829 143.179511 116.803383 140.965769 111.231477 140.965769 
C 105.659571 140.965769 100.315125 143.179511 96.375192 147.119444 
C 92.435259 151.059377 90.221517 156.403822 90.221517 161.975729 
C 90.221517 167.547635 92.435259 172.892081 96.375192 176.832014 
C 100.315125 180.771947 105.659571 182.985689 111.231477 182.985689 
z
" clip-path="url(#p05b79fb0e0)" style="fill: #d62728; fill-opacity: 0.99; stroke: #d62728; stroke-opacity: 0.99"/>
    <path d="M 74.769231 263.683258 
C 80.142407 263.683258 85.296236 261.548473 89.095645 257.749063 
C 92.895055 253.949654 95.02984 248.795825 95.02984 243.422649 
C 95.02984 238.049472 92.895055 232.895644 89.095645 229.096234 
C 85.296236 225.296825 80.142407 223.162039 74.769231 223.162039 
C 69.396054 223.162039 64.242226 225.296825 60.442816 229.096234 
C 56.643407 232.895644 54.508621 238.049472 54.508621 243.422649 
C 54.508621 248.795825 56.643407 253.949654 60.442816 257.749063 
C 64.242226 261.548473 69.396054 263.683258 74.769231 263.683258 
z
" clip-path="url(#p05b79fb0e0)" style="fill: #d62728; fill-opacity: 0.99; stroke: #d62728; stroke-opacity: 0.99"/>
    <path d="M 74.769244 352.766912 
C 80.123568 352.766912 85.259313 350.639617 89.045392 346.853538 
C 92.831471 343.067459 94.958766 337.931713 94.958766 332.577389 
C 94.958766 327.223066 92.831471 322.08732 89.045392 318.301241 
C 85.259313 314.515162 80.123568 312.387867 74.769244 312.387867 
C 69.41492 312.387867 64.279174 314.515162 60.493095 318.301241 
C 56.707017 322.08732 54.579721 327.223066 54.579721 332.577389 
C 54.579721 337.931713 56.707017 343.067459 60.493095 346.853538 
C 64.279174 350.639617 69.41492 352.766912 74.769244 352.766912 
z
" clip-path="url(#p05b79fb0e0)" style="fill: #d62728; fill-opacity: 0.99; stroke: #d62728; stroke-opacity: 0.99"/>
    <path d="M 111.23149 434.170645 
C 116.574367 434.170645 121.699134 432.047898 125.477119 428.269913 
C 129.255103 424.491928 131.377851 419.367162 131.377851 414.024284 
C 131.377851 408.681407 129.255103 403.55664 125.477119 399.778655 
C 121.699134 396.00067 116.574367 393.877923 111.23149 393.877923 
C 105.888612 393.877923 100.763846 396.00067 96.985861 399.778655 
C 93.207876 403.55664 91.085129 408.681407 91.085129 414.024284 
C 91.085129 419.367162 93.207876 424.491928 96.985861 428.269913 
C 100.763846 432.047898 105.888612 434.170645 111.23149 434.170645 
z
" clip-path="url(#p05b79fb0e0)" style="fill: #d62728; fill-opacity: 0.99; stroke: #d62728; stroke-opacity: 0.99"/>
    <path d="M 177.85133 493.519045 
C 183.112588 493.519045 188.159067 491.428725 191.879339 487.708454 
C 195.59961 483.988183 197.68993 478.941704 197.68993 473.680446 
C 197.68993 468.419187 195.59961 463.372709 191.879339 459.652437 
C 188.159067 455.932166 183.112588 453.841846 177.85133 453.841846 
C 172.590072 453.841846 167.543593 455.932166 163.823322 459.652437 
C 160.103051 463.372709 158.012731 468.419187 158.012731 473.680446 
C 158.012731 478.941704 160.103051 483.988183 163.823322 487.708454 
C 167.543593 491.428725 172.590072 493.519045 177.85133 493.519045 
z
" clip-path="url(#p05b79fb0e0)" style="fill: #d62728; fill-opacity: 0.99; stroke: #d62728; stroke-opacity: 0.99"/>
    <path d="M 263.109587 520.775814 
C 268.292994 520.775814 273.264799 518.716424 276.930021 515.051203 
C 280.595242 511.385981 282.654632 506.414176 282.654632 501.230769 
C 282.654632 496.047363 280.595242 491.075558 276.930021 487.410336 
C 273.264799 483.745114 268.292994 481.685725 263.109587 481.685725 
C 257.926181 481.685725 252.954376 483.745114 249.289154 487.410336 
C 245.623932 491.075558 243.564543 496.047363 243.564543 501.230769 
C 243.564543 506.414176 245.623932 511.385981 249.289154 515.051203 
C 252.954376 518.716424 257.926181 520.775814 263.109587 520.775814 
z
" clip-path="url(#p05b79fb0e0)" style="fill: #d62728; fill-opacity: 0.99; stroke: #d62728; stroke-opacity: 0.99"/>
    <path d="M 352.264323 511.433052 
C 357.441486 511.433052 362.407303 509.376144 366.06811 505.715337 
C 369.728917 502.054529 371.785826 497.088713 371.785826 491.91155 
C 371.785826 486.734386 369.728917 481.76857 366.06811 478.107762 
C 362.407303 474.446955 357.441486 472.390047 352.264323 472.390047 
C 347.08716 472.390047 342.121343 474.446955 338.460536 478.107762 
C 334.799729 481.76857 332.742821 486.734386 332.742821 491.91155 
C 332.742821 497.088713 334.799729 502.054529 338.460536 505.715337 
C 342.121343 509.376144 347.08716 511.433052 352.264323 511.433052 
z
" clip-path="url(#p05b79fb0e0)" style="fill: #d62728; fill-opacity: 0.99; stroke: #d62728; stroke-opacity: 0.99"/>
    <path d="M 429.899888 466.741893 
C 435.046879 466.741893 439.983756 464.696972 443.623228 461.0575 
C 447.2627 457.418027 449.307621 452.481151 449.307621 447.33416 
C 449.307621 442.187169 447.2627 437.250293 443.623228 433.610821 
C 439.983756 429.971348 435.046879 427.926427 429.899888 427.926427 
C 424.752898 427.926427 419.816021 429.971348 416.176549 433.610821 
C 412.537077 437.250293 410.492156 442.187169 410.492156 447.33416 
C 410.492156 452.481151 412.537077 457.418027 416.176549 461.0575 
C 419.816021 464.696972 424.752898 466.741893 429.899888 466.741893 
z
" clip-path="url(#p05b79fb0e0)" style="fill: #d62728; fill-opacity: 0.99; stroke: #d62728; stroke-opacity: 0.99"/>
    <path d="M 482.592374 394.571376 
C 487.728009 394.571376 492.653994 392.530967 496.285437 388.899524 
C 499.91688 385.268081 501.95729 380.342096 501.95729 375.20646 
C 501.95729 370.070824 499.91688 365.144839 496.285437 361.513396 
C 492.653994 357.881953 487.728009 355.841543 482.592374 355.841543 
C 477.456738 355.841543 472.530753 357.881953 468.89931 361.513396 
C 465.267867 365.144839 463.227457 370.070824 463.227457 375.20646 
C 463.227457 380.342096 465.267867 385.268081 468.89931 388.899524 
C 472.530753 392.530967 477.456738 394.571376 482.592374 394.571376 
z
" clip-path="url(#p05b79fb0e0)" style="fill: #d62728; fill-opacity: 0.99; stroke: #d62728; stroke-opacity: 0.99"/>
   </g>
   <g id="text_1">
    <g id="patch_2">
     <path d="M 469.429129 296.315156 
L 533.03241 296.315156 
L 533.03241 279.684844 
L 469.429129 279.684844 
z
" clip-path="url(#p05b79fb0e0)" style="fill: #ffffff; opacity: 0.7; stroke: #000000; stroke-linejoin: miter"/>
    </g>
    <g clip-path="url(#p05b79fb0e0)">
     <!-- Woody Allen -->
     <g transform="translate(473.389129 290.483437)scale(0.09 -0.09)">
      <defs>
       <path id="DejaVuSans-57" d="M 213 4666 
L 850 4666 
L 1831 722 
L 2809 4666 
L 3519 4666 
L 4500 722 
L 5478 4666 
L 6119 4666 
L 4947 0 
L 4153 0 
L 3169 4050 
L 2175 0 
L 1381 0 
L 213 4666 
z
" transform="scale(0.015625)"/>
       <path id="DejaVuSans-6f" d="M 1959 3097 
Q 1497 3097 1228 2736 
Q 959 2375 959 1747 
Q 959 1119 1226 758 
Q 1494 397 1959 397 
Q 2419 397 2687 759 
Q 2956 1122 2956 1747 
Q 2956 2369 2687 2733 
Q 2419 3097 1959 3097 
z
M 1959 3584 
Q 2709 3584 3137 3096 
Q 3566 2609 3566 1747 
Q 3566 888 3137 398 
Q 2709 -91 1959 -91 
Q 1206 -91 779 398 
Q 353 888 353 1747 
Q 353 2609 779 3096 
Q 1206 3584 1959 3584 
z
" transform="scale(0.015625)"/>
       <path id="DejaVuSans-64" d="M 2906 2969 
L 2906 4863 
L 3481 4863 
L 3481 0 
L 2906 0 
L 2906 525 
Q 2725 213 2448 61 
Q 2172 -91 1784 -91 
Q 1150 -91 751 415 
Q 353 922 353 1747 
Q 353 2572 751 3078 
Q 1150 3584 1784 3584 
Q 2172 3584 2448 3432 
Q 2725 3281 2906 2969 
z
M 947 1747 
Q 947 1113 1208 752 
Q 1469 391 1925 391 
Q 2381 391 2643 752 
Q 2906 1113 2906 1747 
Q 2906 2381 2643 2742 
Q 2381 3103 1925 3103 
Q 1469 3103 1208 2742 
Q 947 2381 947 1747 
z
" transform="scale(0.015625)"/>
       <path id="DejaVuSans-79" d="M 2059 -325 
Q 1816 -950 1584 -1140 
Q 1353 -1331 966 -1331 
L 506 -1331 
L 506 -850 
L 844 -850 
Q 1081 -850 1212 -737 
Q 1344 -625 1503 -206 
L 1606 56 
L 191 3500 
L 800 3500 
L 1894 763 
L 2988 3500 
L 3597 3500 
L 2059 -325 
z
" transform="scale(0.015625)"/>
       <path id="DejaVuSans-20" transform="scale(0.015625)"/>
       <path id="DejaVuSans-41" d="M 2188 4044 
L 1331 1722 
L 3047 1722 
L 2188 4044 
z
M 1831 4666 
L 2547 4666 
L 4325 0 
L 3669 0 
L 3244 1197 
L 1141 1197 
L 716 0 
L 50 0 
L 1831 4666 
z
" transform="scale(0.015625)"/>
       <path id="DejaVuSans-6c" d="M 603 4863 
L 1178 4863 
L 1178 0 
L 603 0 
L 603 4863 
z
" transform="scale(0.015625)"/>
       <path id="DejaVuSans-65" d="M 3597 1894 
L 3597 1613 
L 953 1613 
Q 991 1019 1311 708 
Q 1631 397 2203 397 
Q 2534 397 2845 478 
Q 3156 559 3463 722 
L 3463 178 
Q 3153 47 2828 -22 
Q 2503 -91 2169 -91 
Q 1331 -91 842 396 
Q 353 884 353 1716 
Q 353 2575 817 3079 
Q 1281 3584 2069 3584 
Q 2775 3584 3186 3129 
Q 3597 2675 3597 1894 
z
M 3022 2063 
Q 3016 2534 2758 2815 
Q 2500 3097 2075 3097 
Q 1594 3097 1305 2825 
Q 1016 2553 972 2059 
L 3022 2063 
z
" transform="scale(0.015625)"/>
       <path id="DejaVuSans-6e" d="M 3513 2113 
L 3513 0 
L 2938 0 
L 2938 2094 
Q 2938 2591 2744 2837 
Q 2550 3084 2163 3084 
Q 1697 3084 1428 2787 
Q 1159 2491 1159 1978 
L 1159 0 
L 581 0 
L 581 3500 
L 1159 3500 
L 1159 2956 
Q 1366 3272 1645 3428 
Q 1925 3584 2291 3584 
Q 2894 3584 3203 3211 
Q 3513 2838 3513 2113 
z
" transform="scale(0.015625)"/>
      </defs>
      <use xlink:href="#DejaVuSans-57"/>
      <use xlink:href="#DejaVuSans-6f" x="93.001953"/>
      <use xlink:href="#DejaVuSans-6f" x="154.183594"/>
      <use xlink:href="#DejaVuSans-64" x="215.365234"/>
      <use xlink:href="#DejaVuSans-79" x="278.841797"/>
      <use xlink:href="#DejaVuSans-20" x="338.021484"/>
      <use xlink:href="#DejaVuSans-41" x="369.808594"/>
      <use xlink:href="#DejaVuSans-6c" x="438.216797"/>
      <use xlink:href="#DejaVuSans-6c" x="466"/>
      <use xlink:href="#DejaVuSans-65" x="493.783203"/>
      <use xlink:href="#DejaVuSans-6e" x="555.306641"/>
     </g>
    </g>
   </g>
   <g id="text_2">
    <g id="patch_3">
     <path d="M 457.060473 209.108665 
L 508.124223 209.108665 
L 508.124223 192.478352 
L 457.060473 192.478352 
z
" clip-path="url(#p05b79fb0e0)" style="fill: #ffffff; opacity: 0.7; stroke: #000000; stroke-linejoin: miter"/>
    </g>
    <g clip-path="url(#p05b79fb0e0)">
     <!-- Spike Lee -->
     <g transform="translate(461.020473 203.276946)scale(0.09 -0.09)">
      <defs>
       <path id="DejaVuSans-53" d="M 3425 4513 
L 3425 3897 
Q 3066 4069 2747 4153 
Q 2428 4238 2131 4238 
Q 1616 4238 1336 4038 
Q 1056 3838 1056 3469 
Q 1056 3159 1242 3001 
Q 1428 2844 1947 2747 
L 2328 2669 
Q 3034 2534 3370 2195 
Q 3706 1856 3706 1288 
Q 3706 609 3251 259 
Q 2797 -91 1919 -91 
Q 1588 -91 1214 -16 
Q 841 59 441 206 
L 441 856 
Q 825 641 1194 531 
Q 1563 422 1919 422 
Q 2459 422 2753 634 
Q 3047 847 3047 1241 
Q 3047 1584 2836 1778 
Q 2625 1972 2144 2069 
L 1759 2144 
Q 1053 2284 737 2584 
Q 422 2884 422 3419 
Q 422 4038 858 4394 
Q 1294 4750 2059 4750 
Q 2388 4750 2728 4690 
Q 3069 4631 3425 4513 
z
" transform="scale(0.015625)"/>
       <path id="DejaVuSans-70" d="M 1159 525 
L 1159 -1331 
L 581 -1331 
L 581 3500 
L 1159 3500 
L 1159 2969 
Q 1341 3281 1617 3432 
Q 1894 3584 2278 3584 
Q 2916 3584 3314 3078 
Q 3713 2572 3713 1747 
Q 3713 922 3314 415 
Q 2916 -91 2278 -91 
Q 1894 -91 1617 61 
Q 1341 213 1159 525 
z
M 3116 1747 
Q 3116 2381 2855 2742 
Q 2594 3103 2138 3103 
Q 1681 3103 1420 2742 
Q 1159 2381 1159 1747 
Q 1159 1113 1420 752 
Q 1681 391 2138 391 
Q 2594 391 2855 752 
Q 3116 1113 3116 1747 
z
" transform="scale(0.015625)"/>
       <path id="DejaVuSans-69" d="M 603 3500 
L 1178 3500 
L 1178 0 
L 603 0 
L 603 3500 
z
M 603 4863 
L 1178 4863 
L 1178 4134 
L 603 4134 
L 603 4863 
z
" transform="scale(0.015625)"/>
       <path id="DejaVuSans-6b" d="M 581 4863 
L 1159 4863 
L 1159 1991 
L 2875 3500 
L 3609 3500 
L 1753 1863 
L 3688 0 
L 2938 0 
L 1159 1709 
L 1159 0 
L 581 0 
L 581 4863 
z
" transform="scale(0.015625)"/>
       <path id="DejaVuSans-4c" d="M 628 4666 
L 1259 4666 
L 1259 531 
L 3531 531 
L 3531 0 
L 628 0 
L 628 4666 
z
" transform="scale(0.015625)"/>
      </defs>
      <use xlink:href="#DejaVuSans-53"/>
      <use xlink:href="#DejaVuSans-70" x="63.476562"/>
      <use xlink:href="#DejaVuSans-69" x="126.953125"/>
      <use xlink:href="#DejaVuSans-6b" x="154.736328"/>
      <use xlink:href="#DejaVuSans-65" x="209.021484"/>
      <use xlink:href="#DejaVuSans-20" x="270.544922"/>
      <use xlink:href="#DejaVuSans-4c" x="302.332031"/>
      <use xlink:href="#DejaVuSans-65" x="356.294922"/>
      <use xlink:href="#DejaVuSans-65" x="417.818359"/>
     </g>
    </g>
   </g>
   <g id="text_3">
    <g id="patch_4">
     <path d="M 399.177506 136.980958 
L 460.622194 136.980958 
L 460.622194 120.350645 
L 399.177506 120.350645 
z
" clip-path="url(#p05b79fb0e0)" style="fill: #ffffff; opacity: 0.7; stroke: #000000; stroke-linejoin: miter"/>
    </g>
    <g clip-path="url(#p05b79fb0e0)">
     <!-- Wes Craven -->
     <g transform="translate(403.137506 131.149239)scale(0.09 -0.09)">
      <defs>
       <path id="DejaVuSans-73" d="M 2834 3397 
L 2834 2853 
Q 2591 2978 2328 3040 
Q 2066 3103 1784 3103 
Q 1356 3103 1142 2972 
Q 928 2841 928 2578 
Q 928 2378 1081 2264 
Q 1234 2150 1697 2047 
L 1894 2003 
Q 2506 1872 2764 1633 
Q 3022 1394 3022 966 
Q 3022 478 2636 193 
Q 2250 -91 1575 -91 
Q 1294 -91 989 -36 
Q 684 19 347 128 
L 347 722 
Q 666 556 975 473 
Q 1284 391 1588 391 
Q 1994 391 2212 530 
Q 2431 669 2431 922 
Q 2431 1156 2273 1281 
Q 2116 1406 1581 1522 
L 1381 1569 
Q 847 1681 609 1914 
Q 372 2147 372 2553 
Q 372 3047 722 3315 
Q 1072 3584 1716 3584 
Q 2034 3584 2315 3537 
Q 2597 3491 2834 3397 
z
" transform="scale(0.015625)"/>
       <path id="DejaVuSans-43" d="M 4122 4306 
L 4122 3641 
Q 3803 3938 3442 4084 
Q 3081 4231 2675 4231 
Q 1875 4231 1450 3742 
Q 1025 3253 1025 2328 
Q 1025 1406 1450 917 
Q 1875 428 2675 428 
Q 3081 428 3442 575 
Q 3803 722 4122 1019 
L 4122 359 
Q 3791 134 3420 21 
Q 3050 -91 2638 -91 
Q 1578 -91 968 557 
Q 359 1206 359 2328 
Q 359 3453 968 4101 
Q 1578 4750 2638 4750 
Q 3056 4750 3426 4639 
Q 3797 4528 4122 4306 
z
" transform="scale(0.015625)"/>
       <path id="DejaVuSans-72" d="M 2631 2963 
Q 2534 3019 2420 3045 
Q 2306 3072 2169 3072 
Q 1681 3072 1420 2755 
Q 1159 2438 1159 1844 
L 1159 0 
L 581 0 
L 581 3500 
L 1159 3500 
L 1159 2956 
Q 1341 3275 1631 3429 
Q 1922 3584 2338 3584 
Q 2397 3584 2469 3576 
Q 2541 3569 2628 3553 
L 2631 2963 
z
" transform="scale(0.015625)"/>
       <path id="DejaVuSans-61" d="M 2194 1759 
Q 1497 1759 1228 1600 
Q 959 1441 959 1056 
Q 959 750 1161 570 
Q 1363 391 1709 391 
Q 2188 391 2477 730 
Q 2766 1069 2766 1631 
L 2766 1759 
L 2194 1759 
z
M 3341 1997 
L 3341 0 
L 2766 0 
L 2766 531 
Q 2569 213 2275 61 
Q 1981 -91 1556 -91 
Q 1019 -91 701 211 
Q 384 513 384 1019 
Q 384 1609 779 1909 
Q 1175 2209 1959 2209 
L 2766 2209 
L 2766 2266 
Q 2766 2663 2505 2880 
Q 2244 3097 1772 3097 
Q 1472 3097 1187 3025 
Q 903 2953 641 2809 
L 641 3341 
Q 956 3463 1253 3523 
Q 1550 3584 1831 3584 
Q 2591 3584 2966 3190 
Q 3341 2797 3341 1997 
z
" transform="scale(0.015625)"/>
       <path id="DejaVuSans-76" d="M 191 3500 
L 800 3500 
L 1894 563 
L 2988 3500 
L 3597 3500 
L 2284 0 
L 1503 0 
L 191 3500 
z
" transform="scale(0.015625)"/>
      </defs>
      <use xlink:href="#DejaVuSans-57"/>
      <use xlink:href="#DejaVuSans-65" x="93.001953"/>
      <use xlink:href="#DejaVuSans-73" x="154.525391"/>
      <use xlink:href="#DejaVuSans-20" x="206.625"/>
      <use xlink:href="#DejaVuSans-43" x="238.412109"/>
      <use xlink:href="#DejaVuSans-72" x="308.236328"/>
      <use xlink:href="#DejaVuSans-61" x="349.349609"/>
      <use xlink:href="#DejaVuSans-76" x="410.628906"/>
      <use xlink:href="#DejaVuSans-65" x="469.808594"/>
      <use xlink:href="#DejaVuSans-6e" x="531.332031"/>
     </g>
    </g>
   </g>
   <g id="text_4">
    <g id="patch_5">
     <path d="M 308.150229 92.403594 
L 396.378354 92.403594 
L 396.378354 75.773281 
L 308.150229 75.773281 
z
" clip-path="url(#p05b79fb0e0)" style="fill: #ffffff; opacity: 0.7; stroke: #000000; stroke-linejoin: miter"/>
    </g>
    <g clip-path="url(#p05b79fb0e0)">
     <!-- Quentin Tarantino -->
     <g transform="translate(312.110229 86.571875)scale(0.09 -0.09)">
      <defs>
       <path id="DejaVuSans-51" d="M 2522 4238 
Q 1834 4238 1429 3725 
Q 1025 3213 1025 2328 
Q 1025 1447 1429 934 
Q 1834 422 2522 422 
Q 3209 422 3611 934 
Q 4013 1447 4013 2328 
Q 4013 3213 3611 3725 
Q 3209 4238 2522 4238 
z
M 3406 84 
L 4238 -825 
L 3475 -825 
L 2784 -78 
Q 2681 -84 2626 -87 
Q 2572 -91 2522 -91 
Q 1538 -91 948 567 
Q 359 1225 359 2328 
Q 359 3434 948 4092 
Q 1538 4750 2522 4750 
Q 3503 4750 4090 4092 
Q 4678 3434 4678 2328 
Q 4678 1516 4351 937 
Q 4025 359 3406 84 
z
" transform="scale(0.015625)"/>
       <path id="DejaVuSans-75" d="M 544 1381 
L 544 3500 
L 1119 3500 
L 1119 1403 
Q 1119 906 1312 657 
Q 1506 409 1894 409 
Q 2359 409 2629 706 
Q 2900 1003 2900 1516 
L 2900 3500 
L 3475 3500 
L 3475 0 
L 2900 0 
L 2900 538 
Q 2691 219 2414 64 
Q 2138 -91 1772 -91 
Q 1169 -91 856 284 
Q 544 659 544 1381 
z
M 1991 3584 
L 1991 3584 
z
" transform="scale(0.015625)"/>
       <path id="DejaVuSans-74" d="M 1172 4494 
L 1172 3500 
L 2356 3500 
L 2356 3053 
L 1172 3053 
L 1172 1153 
Q 1172 725 1289 603 
Q 1406 481 1766 481 
L 2356 481 
L 2356 0 
L 1766 0 
Q 1100 0 847 248 
Q 594 497 594 1153 
L 594 3053 
L 172 3053 
L 172 3500 
L 594 3500 
L 594 4494 
L 1172 4494 
z
" transform="scale(0.015625)"/>
       <path id="DejaVuSans-54" d="M -19 4666 
L 3928 4666 
L 3928 4134 
L 2272 4134 
L 2272 0 
L 1638 0 
L 1638 4134 
L -19 4134 
L -19 4666 
z
" transform="scale(0.015625)"/>
      </defs>
      <use xlink:href="#DejaVuSans-51"/>
      <use xlink:href="#DejaVuSans-75" x="78.710938"/>
      <use xlink:href="#DejaVuSans-65" x="142.089844"/>
      <use xlink:href="#DejaVuSans-6e" x="203.613281"/>
      <use xlink:href="#DejaVuSans-74" x="266.992188"/>
      <use xlink:href="#DejaVuSans-69" x="306.201172"/>
      <use xlink:href="#DejaVuSans-6e" x="333.984375"/>
      <use xlink:href="#DejaVuSans-20" x="397.363281"/>
      <use xlink:href="#DejaVuSans-54" x="429.150391"/>
      <use xlink:href="#DejaVuSans-61" x="473.734375"/>
      <use xlink:href="#DejaVuSans-72" x="535.013672"/>
      <use xlink:href="#DejaVuSans-61" x="576.126953"/>
      <use xlink:href="#DejaVuSans-6e" x="637.40625"/>
      <use xlink:href="#DejaVuSans-74" x="700.785156"/>
      <use xlink:href="#DejaVuSans-69" x="739.994141"/>
      <use xlink:href="#DejaVuSans-6e" x="767.777344"/>
      <use xlink:href="#DejaVuSans-6f" x="831.15625"/>
     </g>
    </g>
   </g>
   <g id="text_5">
    <g id="patch_6">
     <path d="M 226.57658 83.084387 
L 299.642517 83.084387 
L 299.642517 66.454075 
L 226.57658 66.454075 
z
" clip-path="url(#p05b79fb0e0)" style="fill: #ffffff; opacity: 0.7; stroke: #000000; stroke-linejoin: miter"/>
    </g>
    <g clip-path="url(#p05b79fb0e0)">
     <!-- Michael Moore -->
     <g transform="translate(230.53658 77.252668)scale(0.09 -0.09)">
      <defs>
       <path id="DejaVuSans-4d" d="M 628 4666 
L 1569 4666 
L 2759 1491 
L 3956 4666 
L 4897 4666 
L 4897 0 
L 4281 0 
L 4281 4097 
L 3078 897 
L 2444 897 
L 1241 4097 
L 1241 0 
L 628 0 
L 628 4666 
z
" transform="scale(0.015625)"/>
       <path id="DejaVuSans-63" d="M 3122 3366 
L 3122 2828 
Q 2878 2963 2633 3030 
Q 2388 3097 2138 3097 
Q 1578 3097 1268 2742 
Q 959 2388 959 1747 
Q 959 1106 1268 751 
Q 1578 397 2138 397 
Q 2388 397 2633 464 
Q 2878 531 3122 666 
L 3122 134 
Q 2881 22 2623 -34 
Q 2366 -91 2075 -91 
Q 1284 -91 818 406 
Q 353 903 353 1747 
Q 353 2603 823 3093 
Q 1294 3584 2113 3584 
Q 2378 3584 2631 3529 
Q 2884 3475 3122 3366 
z
" transform="scale(0.015625)"/>
       <path id="DejaVuSans-68" d="M 3513 2113 
L 3513 0 
L 2938 0 
L 2938 2094 
Q 2938 2591 2744 2837 
Q 2550 3084 2163 3084 
Q 1697 3084 1428 2787 
Q 1159 2491 1159 1978 
L 1159 0 
L 581 0 
L 581 4863 
L 1159 4863 
L 1159 2956 
Q 1366 3272 1645 3428 
Q 1925 3584 2291 3584 
Q 2894 3584 3203 3211 
Q 3513 2838 3513 2113 
z
" transform="scale(0.015625)"/>
      </defs>
      <use xlink:href="#DejaVuSans-4d"/>
      <use xlink:href="#DejaVuSans-69" x="86.279297"/>
      <use xlink:href="#DejaVuSans-63" x="114.0625"/>
      <use xlink:href="#DejaVuSans-68" x="169.042969"/>
      <use xlink:href="#DejaVuSans-61" x="232.421875"/>
      <use xlink:href="#DejaVuSans-65" x="293.701172"/>
      <use xlink:href="#DejaVuSans-6c" x="355.224609"/>
      <use xlink:href="#DejaVuSans-20" x="383.007812"/>
      <use xlink:href="#DejaVuSans-4d" x="414.794922"/>
      <use xlink:href="#DejaVuSans-6f" x="501.074219"/>
      <use xlink:href="#DejaVuSans-6f" x="562.255859"/>
      <use xlink:href="#DejaVuSans-72" x="623.4375"/>
      <use xlink:href="#DejaVuSans-65" x="662.300781"/>
     </g>
    </g>
   </g>
   <g id="text_6">
    <g id="patch_7">
     <path d="M 152.844657 110.634724 
L 202.857939 110.634724 
L 202.857939 94.004411 
L 152.844657 94.004411 
z
" clip-path="url(#p05b79fb0e0)" style="fill: #ffffff; opacity: 0.7; stroke: #000000; stroke-linejoin: miter"/>
    </g>
    <g clip-path="url(#p05b79fb0e0)">
     <!-- Joel Coen -->
     <g transform="translate(156.804657 104.803005)scale(0.09 -0.09)">
      <defs>
       <path id="DejaVuSans-4a" d="M 628 4666 
L 1259 4666 
L 1259 325 
Q 1259 -519 939 -900 
Q 619 -1281 -91 -1281 
L -331 -1281 
L -331 -750 
L -134 -750 
Q 284 -750 456 -515 
Q 628 -281 628 325 
L 628 4666 
z
" transform="scale(0.015625)"/>
      </defs>
      <use xlink:href="#DejaVuSans-4a"/>
      <use xlink:href="#DejaVuSans-6f" x="29.492188"/>
      <use xlink:href="#DejaVuSans-65" x="90.673828"/>
      <use xlink:href="#DejaVuSans-6c" x="152.197266"/>
      <use xlink:href="#DejaVuSans-20" x="179.980469"/>
      <use xlink:href="#DejaVuSans-43" x="211.767578"/>
      <use xlink:href="#DejaVuSans-6f" x="281.591797"/>
      <use xlink:href="#DejaVuSans-65" x="342.773438"/>
      <use xlink:href="#DejaVuSans-6e" x="404.296875"/>
     </g>
    </g>
   </g>
   <g id="text_7">
    <g id="patch_8">
     <path d="M 81.255852 170.290885 
L 141.207102 170.290885 
L 141.207102 153.660572 
L 81.255852 153.660572 
z
" clip-path="url(#p05b79fb0e0)" style="fill: #ffffff; opacity: 0.7; stroke: #000000; stroke-linejoin: miter"/>
    </g>
    <g clip-path="url(#p05b79fb0e0)">
     <!-- Ethan Coen -->
     <g transform="translate(85.215852 164.459166)scale(0.09 -0.09)">
      <defs>
       <path id="DejaVuSans-45" d="M 628 4666 
L 3578 4666 
L 3578 4134 
L 1259 4134 
L 1259 2753 
L 3481 2753 
L 3481 2222 
L 1259 2222 
L 1259 531 
L 3634 531 
L 3634 0 
L 628 0 
L 628 4666 
z
" transform="scale(0.015625)"/>
      </defs>
      <use xlink:href="#DejaVuSans-45"/>
      <use xlink:href="#DejaVuSans-74" x="63.183594"/>
      <use xlink:href="#DejaVuSans-68" x="102.392578"/>
      <use xlink:href="#DejaVuSans-61" x="165.771484"/>
      <use xlink:href="#DejaVuSans-6e" x="227.050781"/>
      <use xlink:href="#DejaVuSans-20" x="290.429688"/>
      <use xlink:href="#DejaVuSans-43" x="322.216797"/>
      <use xlink:href="#DejaVuSans-6f" x="392.041016"/>
      <use xlink:href="#DejaVuSans-65" x="453.222656"/>
      <use xlink:href="#DejaVuSans-6e" x="514.746094"/>
     </g>
    </g>
   </g>
   <g id="text_8">
    <g id="patch_9">
     <path d="M 40.696496 251.737805 
L 108.841965 251.737805 
L 108.841965 235.107493 
L 40.696496 235.107493 
z
" clip-path="url(#p05b79fb0e0)" style="fill: #ffffff; opacity: 0.7; stroke: #000000; stroke-linejoin: miter"/>
    </g>
    <g clip-path="url(#p05b79fb0e0)">
     <!-- Gus Van Sant -->
     <g transform="translate(44.656496 245.906086)scale(0.09 -0.09)">
      <defs>
       <path id="DejaVuSans-47" d="M 3809 666 
L 3809 1919 
L 2778 1919 
L 2778 2438 
L 4434 2438 
L 4434 434 
Q 4069 175 3628 42 
Q 3188 -91 2688 -91 
Q 1594 -91 976 548 
Q 359 1188 359 2328 
Q 359 3472 976 4111 
Q 1594 4750 2688 4750 
Q 3144 4750 3555 4637 
Q 3966 4525 4313 4306 
L 4313 3634 
Q 3963 3931 3569 4081 
Q 3175 4231 2741 4231 
Q 1884 4231 1454 3753 
Q 1025 3275 1025 2328 
Q 1025 1384 1454 906 
Q 1884 428 2741 428 
Q 3075 428 3337 486 
Q 3600 544 3809 666 
z
" transform="scale(0.015625)"/>
       <path id="DejaVuSans-56" d="M 1831 0 
L 50 4666 
L 709 4666 
L 2188 738 
L 3669 4666 
L 4325 4666 
L 2547 0 
L 1831 0 
z
" transform="scale(0.015625)"/>
      </defs>
      <use xlink:href="#DejaVuSans-47"/>
      <use xlink:href="#DejaVuSans-75" x="77.490234"/>
      <use xlink:href="#DejaVuSans-73" x="140.869141"/>
      <use xlink:href="#DejaVuSans-20" x="192.96875"/>
      <use xlink:href="#DejaVuSans-56" x="224.755859"/>
      <use xlink:href="#DejaVuSans-61" x="285.414062"/>
      <use xlink:href="#DejaVuSans-6e" x="346.693359"/>
      <use xlink:href="#DejaVuSans-20" x="410.072266"/>
      <use xlink:href="#DejaVuSans-53" x="441.859375"/>
      <use xlink:href="#DejaVuSans-61" x="505.335938"/>
      <use xlink:href="#DejaVuSans-6e" x="566.615234"/>
      <use xlink:href="#DejaVuSans-74" x="629.994141"/>
     </g>
    </g>
   </g>
   <g id="text_9">
    <g id="patch_10">
     <path d="M 29.781197 340.892546 
L 119.75729 340.892546 
L 119.75729 324.262233 
L 29.781197 324.262233 
z
" clip-path="url(#p05b79fb0e0)" style="fill: #ffffff; opacity: 0.7; stroke: #000000; stroke-linejoin: miter"/>
    </g>
    <g clip-path="url(#p05b79fb0e0)">
     <!-- George A. Romero -->
     <g transform="translate(33.741197 335.060827)scale(0.09 -0.09)">
      <defs>
       <path id="DejaVuSans-67" d="M 2906 1791 
Q 2906 2416 2648 2759 
Q 2391 3103 1925 3103 
Q 1463 3103 1205 2759 
Q 947 2416 947 1791 
Q 947 1169 1205 825 
Q 1463 481 1925 481 
Q 2391 481 2648 825 
Q 2906 1169 2906 1791 
z
M 3481 434 
Q 3481 -459 3084 -895 
Q 2688 -1331 1869 -1331 
Q 1566 -1331 1297 -1286 
Q 1028 -1241 775 -1147 
L 775 -588 
Q 1028 -725 1275 -790 
Q 1522 -856 1778 -856 
Q 2344 -856 2625 -561 
Q 2906 -266 2906 331 
L 2906 616 
Q 2728 306 2450 153 
Q 2172 0 1784 0 
Q 1141 0 747 490 
Q 353 981 353 1791 
Q 353 2603 747 3093 
Q 1141 3584 1784 3584 
Q 2172 3584 2450 3431 
Q 2728 3278 2906 2969 
L 2906 3500 
L 3481 3500 
L 3481 434 
z
" transform="scale(0.015625)"/>
       <path id="DejaVuSans-2e" d="M 684 794 
L 1344 794 
L 1344 0 
L 684 0 
L 684 794 
z
" transform="scale(0.015625)"/>
       <path id="DejaVuSans-52" d="M 2841 2188 
Q 3044 2119 3236 1894 
Q 3428 1669 3622 1275 
L 4263 0 
L 3584 0 
L 2988 1197 
Q 2756 1666 2539 1819 
Q 2322 1972 1947 1972 
L 1259 1972 
L 1259 0 
L 628 0 
L 628 4666 
L 2053 4666 
Q 2853 4666 3247 4331 
Q 3641 3997 3641 3322 
Q 3641 2881 3436 2590 
Q 3231 2300 2841 2188 
z
M 1259 4147 
L 1259 2491 
L 2053 2491 
Q 2509 2491 2742 2702 
Q 2975 2913 2975 3322 
Q 2975 3731 2742 3939 
Q 2509 4147 2053 4147 
L 1259 4147 
z
" transform="scale(0.015625)"/>
       <path id="DejaVuSans-6d" d="M 3328 2828 
Q 3544 3216 3844 3400 
Q 4144 3584 4550 3584 
Q 5097 3584 5394 3201 
Q 5691 2819 5691 2113 
L 5691 0 
L 5113 0 
L 5113 2094 
Q 5113 2597 4934 2840 
Q 4756 3084 4391 3084 
Q 3944 3084 3684 2787 
Q 3425 2491 3425 1978 
L 3425 0 
L 2847 0 
L 2847 2094 
Q 2847 2600 2669 2842 
Q 2491 3084 2119 3084 
Q 1678 3084 1418 2786 
Q 1159 2488 1159 1978 
L 1159 0 
L 581 0 
L 581 3500 
L 1159 3500 
L 1159 2956 
Q 1356 3278 1631 3431 
Q 1906 3584 2284 3584 
Q 2666 3584 2933 3390 
Q 3200 3197 3328 2828 
z
" transform="scale(0.015625)"/>
      </defs>
      <use xlink:href="#DejaVuSans-47"/>
      <use xlink:href="#DejaVuSans-65" x="77.490234"/>
      <use xlink:href="#DejaVuSans-6f" x="139.013672"/>
      <use xlink:href="#DejaVuSans-72" x="200.195312"/>
      <use xlink:href="#DejaVuSans-67" x="239.558594"/>
      <use xlink:href="#DejaVuSans-65" x="303.035156"/>
      <use xlink:href="#DejaVuSans-20" x="364.558594"/>
      <use xlink:href="#DejaVuSans-41" x="396.345703"/>
      <use xlink:href="#DejaVuSans-2e" x="463.003906"/>
      <use xlink:href="#DejaVuSans-20" x="494.791016"/>
      <use xlink:href="#DejaVuSans-52" x="526.578125"/>
      <use xlink:href="#DejaVuSans-6f" x="591.560547"/>
      <use xlink:href="#DejaVuSans-6d" x="652.742188"/>
      <use xlink:href="#DejaVuSans-65" x="750.154297"/>
      <use xlink:href="#DejaVuSans-72" x="811.677734"/>
      <use xlink:href="#DejaVuSans-6f" x="850.541016"/>
     </g>
    </g>
   </g>
   <g id="text_10">
    <g id="patch_11">
     <path d="M 75.552818 422.33944 
L 146.910162 422.33944 
L 146.910162 405.709128 
L 75.552818 405.709128 
z
" clip-path="url(#p05b79fb0e0)" style="fill: #ffffff; opacity: 0.7; stroke: #000000; stroke-linejoin: miter"/>
    </g>
    <g clip-path="url(#p05b79fb0e0)">
     <!-- Buster Keaton -->
     <g transform="translate(79.512818 416.507722)scale(0.09 -0.09)">
      <defs>
       <path id="DejaVuSans-42" d="M 1259 2228 
L 1259 519 
L 2272 519 
Q 2781 519 3026 730 
Q 3272 941 3272 1375 
Q 3272 1813 3026 2020 
Q 2781 2228 2272 2228 
L 1259 2228 
z
M 1259 4147 
L 1259 2741 
L 2194 2741 
Q 2656 2741 2882 2914 
Q 3109 3088 3109 3444 
Q 3109 3797 2882 3972 
Q 2656 4147 2194 4147 
L 1259 4147 
z
M 628 4666 
L 2241 4666 
Q 2963 4666 3353 4366 
Q 3744 4066 3744 3513 
Q 3744 3084 3544 2831 
Q 3344 2578 2956 2516 
Q 3422 2416 3680 2098 
Q 3938 1781 3938 1306 
Q 3938 681 3513 340 
Q 3088 0 2303 0 
L 628 0 
L 628 4666 
z
" transform="scale(0.015625)"/>
       <path id="DejaVuSans-4b" d="M 628 4666 
L 1259 4666 
L 1259 2694 
L 3353 4666 
L 4166 4666 
L 1850 2491 
L 4331 0 
L 3500 0 
L 1259 2247 
L 1259 0 
L 628 0 
L 628 4666 
z
" transform="scale(0.015625)"/>
      </defs>
      <use xlink:href="#DejaVuSans-42"/>
      <use xlink:href="#DejaVuSans-75" x="68.603516"/>
      <use xlink:href="#DejaVuSans-73" x="131.982422"/>
      <use xlink:href="#DejaVuSans-74" x="184.082031"/>
      <use xlink:href="#DejaVuSans-65" x="223.291016"/>
      <use xlink:href="#DejaVuSans-72" x="284.814453"/>
      <use xlink:href="#DejaVuSans-20" x="325.927734"/>
      <use xlink:href="#DejaVuSans-4b" x="357.714844"/>
      <use xlink:href="#DejaVuSans-65" x="418.291016"/>
      <use xlink:href="#DejaVuSans-61" x="479.814453"/>
      <use xlink:href="#DejaVuSans-74" x="541.09375"/>
      <use xlink:href="#DejaVuSans-6f" x="580.302734"/>
      <use xlink:href="#DejaVuSans-6e" x="641.484375"/>
     </g>
    </g>
   </g>
   <g id="text_11">
    <g id="patch_12">
     <path d="M 147.094533 481.995602 
L 208.608127 481.995602 
L 208.608127 465.365289 
L 147.094533 465.365289 
z
" clip-path="url(#p05b79fb0e0)" style="fill: #ffffff; opacity: 0.7; stroke: #000000; stroke-linejoin: miter"/>
    </g>
    <g clip-path="url(#p05b79fb0e0)">
     <!-- Kevin Smith -->
     <g transform="translate(151.054533 476.163883)scale(0.09 -0.09)">
      <use xlink:href="#DejaVuSans-4b"/>
      <use xlink:href="#DejaVuSans-65" x="60.576172"/>
      <use xlink:href="#DejaVuSans-76" x="122.099609"/>
      <use xlink:href="#DejaVuSans-69" x="181.279297"/>
      <use xlink:href="#DejaVuSans-6e" x="209.0625"/>
      <use xlink:href="#DejaVuSans-20" x="272.441406"/>
      <use xlink:href="#DejaVuSans-53" x="304.228516"/>
      <use xlink:href="#DejaVuSans-6d" x="367.705078"/>
      <use xlink:href="#DejaVuSans-69" x="465.117188"/>
      <use xlink:href="#DejaVuSans-74" x="492.900391"/>
      <use xlink:href="#DejaVuSans-68" x="532.109375"/>
     </g>
    </g>
   </g>
   <g id="text_12">
    <g id="patch_13">
     <path d="M 215.853962 509.545925 
L 310.365212 509.545925 
L 310.365212 492.915613 
L 215.853962 492.915613 
z
" clip-path="url(#p05b79fb0e0)" style="fill: #ffffff; opacity: 0.7; stroke: #000000; stroke-linejoin: miter"/>
    </g>
    <g clip-path="url(#p05b79fb0e0)">
     <!-- Steven Soderbergh -->
     <g transform="translate(219.813962 503.714207)scale(0.09 -0.09)">
      <defs>
       <path id="DejaVuSans-62" d="M 3116 1747 
Q 3116 2381 2855 2742 
Q 2594 3103 2138 3103 
Q 1681 3103 1420 2742 
Q 1159 2381 1159 1747 
Q 1159 1113 1420 752 
Q 1681 391 2138 391 
Q 2594 391 2855 752 
Q 3116 1113 3116 1747 
z
M 1159 2969 
Q 1341 3281 1617 3432 
Q 1894 3584 2278 3584 
Q 2916 3584 3314 3078 
Q 3713 2572 3713 1747 
Q 3713 922 3314 415 
Q 2916 -91 2278 -91 
Q 1894 -91 1617 61 
Q 1341 213 1159 525 
L 1159 0 
L 581 0 
L 581 4863 
L 1159 4863 
L 1159 2969 
z
" transform="scale(0.015625)"/>
      </defs>
      <use xlink:href="#DejaVuSans-53"/>
      <use xlink:href="#DejaVuSans-74" x="63.476562"/>
      <use xlink:href="#DejaVuSans-65" x="102.685547"/>
      <use xlink:href="#DejaVuSans-76" x="164.208984"/>
      <use xlink:href="#DejaVuSans-65" x="223.388672"/>
      <use xlink:href="#DejaVuSans-6e" x="284.912109"/>
      <use xlink:href="#DejaVuSans-20" x="348.291016"/>
      <use xlink:href="#DejaVuSans-53" x="380.078125"/>
      <use xlink:href="#DejaVuSans-6f" x="443.554688"/>
      <use xlink:href="#DejaVuSans-64" x="504.736328"/>
      <use xlink:href="#DejaVuSans-65" x="568.212891"/>
      <use xlink:href="#DejaVuSans-72" x="629.736328"/>
      <use xlink:href="#DejaVuSans-62" x="670.849609"/>
      <use xlink:href="#DejaVuSans-65" x="734.326172"/>
      <use xlink:href="#DejaVuSans-72" x="795.849609"/>
      <use xlink:href="#DejaVuSans-67" x="835.212891"/>
      <use xlink:href="#DejaVuSans-68" x="898.689453"/>
     </g>
    </g>
   </g>
   <g id="text_13">
    <g id="patch_14">
     <path d="M 317.301433 500.226706 
L 387.227214 500.226706 
L 387.227214 483.596393 
L 317.301433 483.596393 
z
" clip-path="url(#p05b79fb0e0)" style="fill: #ffffff; opacity: 0.7; stroke: #000000; stroke-linejoin: miter"/>
    </g>
    <g clip-path="url(#p05b79fb0e0)">
     <!-- Sofia Coppola -->
     <g transform="translate(321.261433 494.394987)scale(0.09 -0.09)">
      <defs>
       <path id="DejaVuSans-66" d="M 2375 4863 
L 2375 4384 
L 1825 4384 
Q 1516 4384 1395 4259 
Q 1275 4134 1275 3809 
L 1275 3500 
L 2222 3500 
L 2222 3053 
L 1275 3053 
L 1275 0 
L 697 0 
L 697 3053 
L 147 3053 
L 147 3500 
L 697 3500 
L 697 3744 
Q 697 4328 969 4595 
Q 1241 4863 1831 4863 
L 2375 4863 
z
" transform="scale(0.015625)"/>
      </defs>
      <use xlink:href="#DejaVuSans-53"/>
      <use xlink:href="#DejaVuSans-6f" x="63.476562"/>
      <use xlink:href="#DejaVuSans-66" x="124.658203"/>
      <use xlink:href="#DejaVuSans-69" x="159.863281"/>
      <use xlink:href="#DejaVuSans-61" x="187.646484"/>
      <use xlink:href="#DejaVuSans-20" x="248.925781"/>
      <use xlink:href="#DejaVuSans-43" x="280.712891"/>
      <use xlink:href="#DejaVuSans-6f" x="350.537109"/>
      <use xlink:href="#DejaVuSans-70" x="411.71875"/>
      <use xlink:href="#DejaVuSans-70" x="475.195312"/>
      <use xlink:href="#DejaVuSans-6f" x="538.671875"/>
      <use xlink:href="#DejaVuSans-6c" x="599.853516"/>
      <use xlink:href="#DejaVuSans-61" x="627.636719"/>
     </g>
    </g>
   </g>
   <g id="text_14">
    <g id="patch_15">
     <path d="M 397.396529 455.649316 
L 462.403248 455.649316 
L 462.403248 439.019004 
L 397.396529 439.019004 
z
" clip-path="url(#p05b79fb0e0)" style="fill: #ffffff; opacity: 0.7; stroke: #000000; stroke-linejoin: miter"/>
    </g>
    <g clip-path="url(#p05b79fb0e0)">
     <!-- Danny Boyle -->
     <g transform="translate(401.356529 449.817598)scale(0.09 -0.09)">
      <defs>
       <path id="DejaVuSans-44" d="M 1259 4147 
L 1259 519 
L 2022 519 
Q 2988 519 3436 956 
Q 3884 1394 3884 2338 
Q 3884 3275 3436 3711 
Q 2988 4147 2022 4147 
L 1259 4147 
z
M 628 4666 
L 1925 4666 
Q 3281 4666 3915 4102 
Q 4550 3538 4550 2338 
Q 4550 1131 3912 565 
Q 3275 0 1925 0 
L 628 0 
L 628 4666 
z
" transform="scale(0.015625)"/>
      </defs>
      <use xlink:href="#DejaVuSans-44"/>
      <use xlink:href="#DejaVuSans-61" x="77.001953"/>
      <use xlink:href="#DejaVuSans-6e" x="138.28125"/>
      <use xlink:href="#DejaVuSans-6e" x="201.660156"/>
      <use xlink:href="#DejaVuSans-79" x="265.039062"/>
      <use xlink:href="#DejaVuSans-20" x="324.21875"/>
      <use xlink:href="#DejaVuSans-42" x="356.005859"/>
      <use xlink:href="#DejaVuSans-6f" x="424.609375"/>
      <use xlink:href="#DejaVuSans-79" x="485.791016"/>
      <use xlink:href="#DejaVuSans-6c" x="544.970703"/>
      <use xlink:href="#DejaVuSans-65" x="572.753906"/>
     </g>
    </g>
   </g>
   <g id="text_15">
    <g id="patch_16">
     <path d="M 444.279092 383.521616 
L 520.905655 383.521616 
L 520.905655 366.891303 
L 444.279092 366.891303 
z
" clip-path="url(#p05b79fb0e0)" style="fill: #ffffff; opacity: 0.7; stroke: #000000; stroke-linejoin: miter"/>
    </g>
    <g clip-path="url(#p05b79fb0e0)">
     <!-- Victor Sjöström -->
     <g transform="translate(448.239092 377.689897)scale(0.09 -0.09)">
      <defs>
       <path id="DejaVuSans-6a" d="M 603 3500 
L 1178 3500 
L 1178 -63 
Q 1178 -731 923 -1031 
Q 669 -1331 103 -1331 
L -116 -1331 
L -116 -844 
L 38 -844 
Q 366 -844 484 -692 
Q 603 -541 603 -63 
L 603 3500 
z
M 603 4863 
L 1178 4863 
L 1178 4134 
L 603 4134 
L 603 4863 
z
" transform="scale(0.015625)"/>
       <path id="DejaVuSans-f6" d="M 1959 3097 
Q 1497 3097 1228 2736 
Q 959 2375 959 1747 
Q 959 1119 1226 758 
Q 1494 397 1959 397 
Q 2419 397 2687 759 
Q 2956 1122 2956 1747 
Q 2956 2369 2687 2733 
Q 2419 3097 1959 3097 
z
M 1959 3584 
Q 2709 3584 3137 3096 
Q 3566 2609 3566 1747 
Q 3566 888 3137 398 
Q 2709 -91 1959 -91 
Q 1206 -91 779 398 
Q 353 888 353 1747 
Q 353 2609 779 3096 
Q 1206 3584 1959 3584 
z
M 2253 4850 
L 2888 4850 
L 2888 4219 
L 2253 4219 
L 2253 4850 
z
M 1031 4850 
L 1666 4850 
L 1666 4219 
L 1031 4219 
L 1031 4850 
z
" transform="scale(0.015625)"/>
      </defs>
      <use xlink:href="#DejaVuSans-56"/>
      <use xlink:href="#DejaVuSans-69" x="66.158203"/>
      <use xlink:href="#DejaVuSans-63" x="93.941406"/>
      <use xlink:href="#DejaVuSans-74" x="148.921875"/>
      <use xlink:href="#DejaVuSans-6f" x="188.130859"/>
      <use xlink:href="#DejaVuSans-72" x="249.3125"/>
      <use xlink:href="#DejaVuSans-20" x="290.425781"/>
      <use xlink:href="#DejaVuSans-53" x="322.212891"/>
      <use xlink:href="#DejaVuSans-6a" x="385.689453"/>
      <use xlink:href="#DejaVuSans-f6" x="413.472656"/>
      <use xlink:href="#DejaVuSans-73" x="474.654297"/>
      <use xlink:href="#DejaVuSans-74" x="526.753906"/>
      <use xlink:href="#DejaVuSans-72" x="565.962891"/>
      <use xlink:href="#DejaVuSans-f6" x="604.826172"/>
      <use xlink:href="#DejaVuSans-6d" x="666.007812"/>
     </g>
    </g>
   </g>
   <g id="text_16">
    <!-- Impactful directors for Indie genre -->
    <g transform="translate(185.308125 4.8)scale(0.12 -0.12)">
     <defs>
      <path id="DejaVuSans-49" d="M 628 4666 
L 1259 4666 
L 1259 0 
L 628 0 
L 628 4666 
z
" transform="scale(0.015625)"/>
     </defs>
     <use xlink:href="#DejaVuSans-49"/>
     <use xlink:href="#DejaVuSans-6d" x="29.492188"/>
     <use xlink:href="#DejaVuSans-70" x="126.904297"/>
     <use xlink:href="#DejaVuSans-61" x="190.380859"/>
     <use xlink:href="#DejaVuSans-63" x="251.660156"/>
     <use xlink:href="#DejaVuSans-74" x="306.640625"/>
     <use xlink:href="#DejaVuSans-66" x="345.849609"/>
     <use xlink:href="#DejaVuSans-75" x="381.054688"/>
     <use xlink:href="#DejaVuSans-6c" x="444.433594"/>
     <use xlink:href="#DejaVuSans-20" x="472.216797"/>
     <use xlink:href="#DejaVuSans-64" x="504.003906"/>
     <use xlink:href="#DejaVuSans-69" x="567.480469"/>
     <use xlink:href="#DejaVuSans-72" x="595.263672"/>
     <use xlink:href="#DejaVuSans-65" x="634.126953"/>
     <use xlink:href="#DejaVuSans-63" x="695.650391"/>
     <use xlink:href="#DejaVuSans-74" x="750.630859"/>
     <use xlink:href="#DejaVuSans-6f" x="789.839844"/>
     <use xlink:href="#DejaVuSans-72" x="851.021484"/>
     <use xlink:href="#DejaVuSans-73" x="892.134766"/>
     <use xlink:href="#DejaVuSans-20" x="944.234375"/>
     <use xlink:href="#DejaVuSans-66" x="976.021484"/>
     <use xlink:href="#DejaVuSans-6f" x="1011.226562"/>
     <use xlink:href="#DejaVuSans-72" x="1072.408203"/>
     <use xlink:href="#DejaVuSans-20" x="1113.521484"/>
     <use xlink:href="#DejaVuSans-49" x="1145.308594"/>
     <use xlink:href="#DejaVuSans-6e" x="1174.800781"/>
     <use xlink:href="#DejaVuSans-64" x="1238.179688"/>
     <use xlink:href="#DejaVuSans-69" x="1301.65625"/>
     <use xlink:href="#DejaVuSans-65" x="1329.439453"/>
     <use xlink:href="#DejaVuSans-20" x="1390.962891"/>
     <use xlink:href="#DejaVuSans-67" x="1422.75"/>
     <use xlink:href="#DejaVuSans-65" x="1486.226562"/>
     <use xlink:href="#DejaVuSans-6e" x="1547.75"/>
     <use xlink:href="#DejaVuSans-72" x="1611.128906"/>
     <use xlink:href="#DejaVuSans-65" x="1649.992188"/>
    </g>
   </g>
  </g>
 </g>
 <defs>
  <clipPath id="p05b79fb0e0">
   <rect x="10.8" y="10.8" width="554.4" height="554.4"/>
  </clipPath>
 </defs>
</svg>
