<?xml version="1.0" encoding="utf-8" standalone="no"?>
<!DOCTYPE svg PUBLIC "-//W3C//DTD SVG 1.1//EN"
  "http://www.w3.org/Graphics/SVG/1.1/DTD/svg11.dtd">
<svg xmlns:xlink="http://www.w3.org/1999/xlink" width="568.8pt" height="583.918125pt" viewBox="0 0 568.8 583.918125" xmlns="http://www.w3.org/2000/svg" version="1.1">
 <metadata>
  <rdf:RDF xmlns:dc="http://purl.org/dc/elements/1.1/" xmlns:cc="http://creativecommons.org/ns#" xmlns:rdf="http://www.w3.org/1999/02/22-rdf-syntax-ns#">
   <cc:Work>
    <dc:type rdf:resource="http://purl.org/dc/dcmitype/StillImage"/>
    <dc:date>2022-12-23T20:56:58.520845</dc:date>
    <dc:format>image/svg+xml</dc:format>
    <dc:creator>
     <cc:Agent>
      <dc:title>Matplotlib v3.5.3, https://matplotlib.org/</dc:title>
     </cc:Agent>
    </dc:creator>
   </cc:Work>
  </rdf:RDF>
 </metadata>
 <defs>
  <style type="text/css">*{stroke-linejoin: round; stroke-linecap: butt}</style>
 </defs>
 <g id="figure_1">
  <g id="patch_1">
   <path d="M 0 583.918125 
L 568.8 583.918125 
L 568.8 0 
L 0 0 
z
" style="fill: #ffffff"/>
  </g>
  <g id="axes_1">
   <g id="LineCollection_1">
    <path d="M 478.992348 214.137727 
L 426.29985 147.102197 
" clip-path="url(#pf386765ce1)" style="fill: none; stroke: #000000; stroke-opacity: 0.3; stroke-width: 5.1622"/>
    <path d="M 478.992348 214.137727 
L 348.664291 105.671971 
" clip-path="url(#pf386765ce1)" style="fill: none; stroke: #000000; stroke-opacity: 0.3; stroke-width: 5.228316"/>
    <path d="M 426.29985 147.102197 
L 348.664291 105.671971 
" clip-path="url(#pf386765ce1)" style="fill: none; stroke: #000000; stroke-opacity: 0.3; stroke-width: 5"/>
    <path d="M 107.63149 412.314525 
L 174.25133 467.758993 
" clip-path="url(#pf386765ce1)" style="fill: none; stroke: #000000; stroke-opacity: 0.3; stroke-width: 10"/>
    <path d="M 259.509587 493.364279 
L 348.664323 484.702991 
" clip-path="url(#pf386765ce1)" style="fill: none; stroke: #000000; stroke-opacity: 0.3; stroke-width: 7.766519"/>
   </g>
   <g id="PathCollection_1">
    <path d="M 497.630769 322.573615 
C 504.893655 322.573615 511.86005 319.68804 516.995686 314.552404 
C 522.131322 309.416768 525.016897 302.450373 525.016897 295.187487 
C 525.016897 287.924601 522.131322 280.958206 516.995686 275.82257 
C 511.86005 270.686934 504.893655 267.801359 497.630769 267.801359 
C 490.367883 267.801359 483.401488 270.686934 478.265852 275.82257 
C 473.130217 280.958206 470.244641 287.924601 470.244641 295.187487 
C 470.244641 302.450373 473.130217 309.416768 478.265852 314.552404 
C 483.401488 319.68804 490.367883 322.573615 497.630769 322.573615 
z
" clip-path="url(#pf386765ce1)" style="fill: #c70039; fill-opacity: 0.99; stroke: #c70039; stroke-opacity: 0.99"/>
    <path d="M 478.992348 239.838298 
C 485.808219 239.838298 492.345847 237.130323 497.165396 232.310775 
C 501.984944 227.491226 504.692919 220.953598 504.692919 214.137727 
C 504.692919 207.321856 501.984944 200.784227 497.165396 195.964679 
C 492.345847 191.14513 485.808219 188.437156 478.992348 188.437156 
C 472.176477 188.437156 465.638849 191.14513 460.8193 195.964679 
C 455.999751 200.784227 453.291777 207.321856 453.291777 214.137727 
C 453.291777 220.953598 455.999751 227.491226 460.8193 232.310775 
C 465.638849 237.130323 472.176477 239.838298 478.992348 239.838298 
z
" clip-path="url(#pf386765ce1)" style="fill: #c70039; fill-opacity: 0.99; stroke: #c70039; stroke-opacity: 0.99"/>
    <path d="M 426.29985 171.380706 
C 432.738586 171.380706 438.914474 168.822569 443.467348 164.269695 
C 448.020222 159.716822 450.578359 153.540933 450.578359 147.102197 
C 450.578359 140.663461 448.020222 134.487573 443.467348 129.934699 
C 438.914474 125.381825 432.738586 122.823688 426.29985 122.823688 
C 419.861114 122.823688 413.685225 125.381825 409.132352 129.934699 
C 404.579478 134.487573 402.021341 140.663461 402.021341 147.102197 
C 402.021341 153.540933 404.579478 159.716822 409.132352 164.269695 
C 413.685225 168.822569 419.861114 171.380706 426.29985 171.380706 
z
" clip-path="url(#pf386765ce1)" style="fill: #c70039; fill-opacity: 0.99; stroke: #c70039; stroke-opacity: 0.99"/>
    <path d="M 348.664291 128.852967 
C 354.811963 128.852967 360.70867 126.410471 365.055731 122.063411 
C 369.402791 117.71635 371.845287 111.819643 371.845287 105.671971 
C 371.845287 99.524299 369.402791 93.627592 365.055731 89.280532 
C 360.70867 84.933471 354.811963 82.490975 348.664291 82.490975 
C 342.516619 82.490975 336.619912 84.933471 332.272852 89.280532 
C 327.925791 93.627592 325.483295 99.524299 325.483295 105.671971 
C 325.483295 111.819643 327.925791 117.71635 332.272852 122.063411 
C 336.619912 126.410471 342.516619 128.852967 348.664291 128.852967 
z
" clip-path="url(#pf386765ce1)" style="fill: #c70039; fill-opacity: 0.99; stroke: #c70039; stroke-opacity: 0.99"/>
    <path d="M 259.509549 120.186339 
C 265.655801 120.186339 271.551147 117.744407 275.897204 113.39835 
C 280.24326 109.052293 282.685192 103.156948 282.685192 97.010695 
C 282.685192 90.864443 280.24326 84.969097 275.897204 80.62304 
C 271.551147 76.276983 265.655801 73.835051 259.509549 73.835051 
C 253.363296 73.835051 247.467951 76.276983 243.121894 80.62304 
C 238.775837 84.969097 236.333905 90.864443 236.333905 97.010695 
C 236.333905 103.156948 238.775837 109.052293 243.121894 113.39835 
C 247.467951 117.744407 253.363296 120.186339 259.509549 120.186339 
z
" clip-path="url(#pf386765ce1)" style="fill: #c70039; fill-opacity: 0.99; stroke: #c70039; stroke-opacity: 0.99"/>
    <path d="M 174.251298 144.895068 
C 180.159778 144.895068 185.827057 142.547604 190.004983 138.369678 
C 194.182909 134.191752 196.530373 128.524473 196.530373 122.615993 
C 196.530373 116.707513 194.182909 111.040234 190.004983 106.862308 
C 185.827057 102.684381 180.159778 100.336918 174.251298 100.336918 
C 168.342818 100.336918 162.675539 102.684381 158.497613 106.862308 
C 154.319687 111.040234 151.972223 116.707513 151.972223 122.615993 
C 151.972223 128.524473 154.319687 134.191752 158.497613 138.369678 
C 162.675539 142.547604 168.342818 144.895068 174.251298 144.895068 
z
" clip-path="url(#pf386765ce1)" style="fill: #c70039; fill-opacity: 0.99; stroke: #c70039; stroke-opacity: 0.99"/>
    <path d="M 107.631477 198.876142 
C 113.15186 198.876142 118.446885 196.68287 122.350386 192.77937 
C 126.253886 188.87587 128.447157 183.580844 128.447157 178.060461 
C 128.447157 172.540078 126.253886 167.245053 122.350386 163.341553 
C 118.446885 159.438053 113.15186 157.244781 107.631477 157.244781 
C 102.111094 157.244781 96.816069 159.438053 92.912568 163.341553 
C 89.009068 167.245053 86.815797 172.540078 86.815797 178.060461 
C 86.815797 183.580844 89.009068 188.87587 92.912568 192.77937 
C 96.816069 196.68287 102.111094 198.876142 107.631477 198.876142 
z
" clip-path="url(#pf386765ce1)" style="fill: #c70039; fill-opacity: 0.99; stroke: #c70039; stroke-opacity: 0.99"/>
    <path d="M 71.169231 274.542737 
C 76.6816 274.542737 81.96894 272.352649 85.866773 268.454816 
C 89.764607 264.556982 91.954695 259.269642 91.954695 253.757273 
C 91.954695 248.244903 89.764607 242.957564 85.866773 239.05973 
C 81.96894 235.161896 76.6816 232.971809 71.169231 232.971809 
C 65.656861 232.971809 60.369522 235.161896 56.471688 239.05973 
C 52.573854 242.957564 50.383767 248.244903 50.383767 253.757273 
C 50.383767 259.269642 52.573854 264.556982 56.471688 268.454816 
C 60.369522 272.352649 65.656861 274.542737 71.169231 274.542737 
z
" clip-path="url(#pf386765ce1)" style="fill: #c70039; fill-opacity: 0.99; stroke: #c70039; stroke-opacity: 0.99"/>
    <path d="M 71.169244 356.809736 
C 76.524224 356.809736 81.6606 354.68218 85.447143 350.895637 
C 89.233687 347.109093 91.361243 341.972718 91.361243 336.617737 
C 91.361243 331.262756 89.233687 326.12638 85.447143 322.339837 
C 81.6606 318.553294 76.524224 316.425737 71.169244 316.425737 
C 65.814263 316.425737 60.677887 318.553294 56.891344 322.339837 
C 53.104801 326.12638 50.977244 331.262756 50.977244 336.617737 
C 50.977244 341.972718 53.104801 347.109093 56.891344 350.895637 
C 60.677887 354.68218 65.814263 356.809736 71.169244 356.809736 
z
" clip-path="url(#pf386765ce1)" style="fill: #c70039; fill-opacity: 0.99; stroke: #c70039; stroke-opacity: 0.99"/>
    <path d="M 107.63149 432.506524 
C 112.986471 432.506524 118.122846 430.378968 121.90939 426.592424 
C 125.695933 422.805881 127.823489 417.669505 127.823489 412.314525 
C 127.823489 406.959544 125.695933 401.823168 121.90939 398.036625 
C 118.122846 394.250081 112.986471 392.122525 107.63149 392.122525 
C 102.276509 392.122525 97.140133 394.250081 93.35359 398.036625 
C 89.567047 401.823168 87.43949 406.959544 87.43949 412.314525 
C 87.43949 417.669505 89.567047 422.805881 93.35359 426.592424 
C 97.140133 430.378968 102.276509 432.506524 107.63149 432.506524 
z
" clip-path="url(#pf386765ce1)" style="fill: #c70039; fill-opacity: 0.99; stroke: #c70039; stroke-opacity: 0.99"/>
    <path d="M 174.25133 487.849239 
C 179.579326 487.849239 184.689818 485.732404 188.457279 481.964942 
C 192.224741 478.19748 194.341576 473.086989 194.341576 467.758993 
C 194.341576 462.430998 192.224741 457.320506 188.457279 453.553044 
C 184.689818 449.785582 179.579326 447.668747 174.25133 447.668747 
C 168.923335 447.668747 163.812843 449.785582 160.045381 453.553044 
C 156.277919 457.320506 154.161084 462.430998 154.161084 467.758993 
C 154.161084 473.086989 156.277919 478.19748 160.045381 481.964942 
C 163.812843 485.732404 168.923335 487.849239 174.25133 487.849239 
z
" clip-path="url(#pf386765ce1)" style="fill: #c70039; fill-opacity: 0.99; stroke: #c70039; stroke-opacity: 0.99"/>
    <path d="M 259.509587 513.454525 
C 264.837583 513.454525 269.948074 511.33769 273.715536 507.570228 
C 277.482998 503.802766 279.599833 498.692274 279.599833 493.364279 
C 279.599833 488.036283 277.482998 482.925792 273.715536 479.15833 
C 269.948074 475.390868 264.837583 473.274033 259.509587 473.274033 
C 254.181592 473.274033 249.0711 475.390868 245.303638 479.15833 
C 241.536176 482.925792 239.419341 488.036283 239.419341 493.364279 
C 239.419341 498.692274 241.536176 503.802766 245.303638 507.570228 
C 249.0711 511.33769 254.181592 513.454525 259.509587 513.454525 
z
" clip-path="url(#pf386765ce1)" style="fill: #c70039; fill-opacity: 0.99; stroke: #c70039; stroke-opacity: 0.99"/>
    <path d="M 348.664323 504.779514 
C 353.988679 504.779514 359.095681 502.664125 362.860569 498.899237 
C 366.625457 495.134348 368.740846 490.027347 368.740846 484.702991 
C 368.740846 479.378635 366.625457 474.271634 362.860569 470.506745 
C 359.095681 466.741857 353.988679 464.626468 348.664323 464.626468 
C 343.339967 464.626468 338.232966 466.741857 334.468078 470.506745 
C 330.703189 474.271634 328.5878 479.378635 328.5878 484.702991 
C 328.5878 490.027347 330.703189 495.134348 334.468078 498.899237 
C 338.232966 502.664125 343.339967 504.779514 348.664323 504.779514 
z
" clip-path="url(#pf386765ce1)" style="fill: #c70039; fill-opacity: 0.99; stroke: #c70039; stroke-opacity: 0.99"/>
    <path d="M 426.299888 462.69887 
C 431.451758 462.69887 436.393314 460.652011 440.036236 457.009089 
C 443.679158 453.366167 445.726017 448.424611 445.726017 443.272741 
C 445.726017 438.120872 443.679158 433.179316 440.036236 429.536394 
C 436.393314 425.893472 431.451758 423.846612 426.299888 423.846612 
C 421.148019 423.846612 416.206463 425.893472 412.563541 429.536394 
C 408.920619 433.179316 406.873759 438.120872 406.873759 443.272741 
C 406.873759 448.424611 408.920619 453.366167 412.563541 457.009089 
C 416.206463 460.652011 421.148019 462.69887 426.299888 462.69887 
z
" clip-path="url(#pf386765ce1)" style="fill: #c70039; fill-opacity: 0.99; stroke: #c70039; stroke-opacity: 0.99"/>
    <path d="M 478.992374 395.602134 
C 484.128009 395.602134 489.053994 393.561725 492.685437 389.930282 
C 496.31688 386.298839 498.35729 381.372854 498.35729 376.237218 
C 498.35729 371.101582 496.31688 366.175597 492.685437 362.544154 
C 489.053994 358.912711 484.128009 356.872301 478.992374 356.872301 
C 473.856738 356.872301 468.930753 358.912711 465.29931 362.544154 
C 461.667867 366.175597 459.627457 371.101582 459.627457 376.237218 
C 459.627457 381.372854 461.667867 386.298839 465.29931 389.930282 
C 468.930753 393.561725 473.856738 395.602134 478.992374 395.602134 
z
" clip-path="url(#pf386765ce1)" style="fill: #c70039; fill-opacity: 0.99; stroke: #c70039; stroke-opacity: 0.99"/>
   </g>
   <g id="text_1">
    <g id="patch_2">
     <path d="M 466.611707 303.502643 
L 528.649832 303.502643 
L 528.649832 286.872331 
L 466.611707 286.872331 
z
" clip-path="url(#pf386765ce1)" style="fill: #ffffff; opacity: 0.7; stroke: #000000; stroke-linejoin: miter"/>
    </g>
    <g clip-path="url(#pf386765ce1)">
     <!-- Robert Wise -->
     <g transform="translate(470.571707 297.670925)scale(0.09 -0.09)">
      <defs>
       <path id="DejaVuSans-52" d="M 2841 2188 
Q 3044 2119 3236 1894 
Q 3428 1669 3622 1275 
L 4263 0 
L 3584 0 
L 2988 1197 
Q 2756 1666 2539 1819 
Q 2322 1972 1947 1972 
L 1259 1972 
L 1259 0 
L 628 0 
L 628 4666 
L 2053 4666 
Q 2853 4666 3247 4331 
Q 3641 3997 3641 3322 
Q 3641 2881 3436 2590 
Q 3231 2300 2841 2188 
z
M 1259 4147 
L 1259 2491 
L 2053 2491 
Q 2509 2491 2742 2702 
Q 2975 2913 2975 3322 
Q 2975 3731 2742 3939 
Q 2509 4147 2053 4147 
L 1259 4147 
z
" transform="scale(0.015625)"/>
       <path id="DejaVuSans-6f" d="M 1959 3097 
Q 1497 3097 1228 2736 
Q 959 2375 959 1747 
Q 959 1119 1226 758 
Q 1494 397 1959 397 
Q 2419 397 2687 759 
Q 2956 1122 2956 1747 
Q 2956 2369 2687 2733 
Q 2419 3097 1959 3097 
z
M 1959 3584 
Q 2709 3584 3137 3096 
Q 3566 2609 3566 1747 
Q 3566 888 3137 398 
Q 2709 -91 1959 -91 
Q 1206 -91 779 398 
Q 353 888 353 1747 
Q 353 2609 779 3096 
Q 1206 3584 1959 3584 
z
" transform="scale(0.015625)"/>
       <path id="DejaVuSans-62" d="M 3116 1747 
Q 3116 2381 2855 2742 
Q 2594 3103 2138 3103 
Q 1681 3103 1420 2742 
Q 1159 2381 1159 1747 
Q 1159 1113 1420 752 
Q 1681 391 2138 391 
Q 2594 391 2855 752 
Q 3116 1113 3116 1747 
z
M 1159 2969 
Q 1341 3281 1617 3432 
Q 1894 3584 2278 3584 
Q 2916 3584 3314 3078 
Q 3713 2572 3713 1747 
Q 3713 922 3314 415 
Q 2916 -91 2278 -91 
Q 1894 -91 1617 61 
Q 1341 213 1159 525 
L 1159 0 
L 581 0 
L 581 4863 
L 1159 4863 
L 1159 2969 
z
" transform="scale(0.015625)"/>
       <path id="DejaVuSans-65" d="M 3597 1894 
L 3597 1613 
L 953 1613 
Q 991 1019 1311 708 
Q 1631 397 2203 397 
Q 2534 397 2845 478 
Q 3156 559 3463 722 
L 3463 178 
Q 3153 47 2828 -22 
Q 2503 -91 2169 -91 
Q 1331 -91 842 396 
Q 353 884 353 1716 
Q 353 2575 817 3079 
Q 1281 3584 2069 3584 
Q 2775 3584 3186 3129 
Q 3597 2675 3597 1894 
z
M 3022 2063 
Q 3016 2534 2758 2815 
Q 2500 3097 2075 3097 
Q 1594 3097 1305 2825 
Q 1016 2553 972 2059 
L 3022 2063 
z
" transform="scale(0.015625)"/>
       <path id="DejaVuSans-72" d="M 2631 2963 
Q 2534 3019 2420 3045 
Q 2306 3072 2169 3072 
Q 1681 3072 1420 2755 
Q 1159 2438 1159 1844 
L 1159 0 
L 581 0 
L 581 3500 
L 1159 3500 
L 1159 2956 
Q 1341 3275 1631 3429 
Q 1922 3584 2338 3584 
Q 2397 3584 2469 3576 
Q 2541 3569 2628 3553 
L 2631 2963 
z
" transform="scale(0.015625)"/>
       <path id="DejaVuSans-74" d="M 1172 4494 
L 1172 3500 
L 2356 3500 
L 2356 3053 
L 1172 3053 
L 1172 1153 
Q 1172 725 1289 603 
Q 1406 481 1766 481 
L 2356 481 
L 2356 0 
L 1766 0 
Q 1100 0 847 248 
Q 594 497 594 1153 
L 594 3053 
L 172 3053 
L 172 3500 
L 594 3500 
L 594 4494 
L 1172 4494 
z
" transform="scale(0.015625)"/>
       <path id="DejaVuSans-20" transform="scale(0.015625)"/>
       <path id="DejaVuSans-57" d="M 213 4666 
L 850 4666 
L 1831 722 
L 2809 4666 
L 3519 4666 
L 4500 722 
L 5478 4666 
L 6119 4666 
L 4947 0 
L 4153 0 
L 3169 4050 
L 2175 0 
L 1381 0 
L 213 4666 
z
" transform="scale(0.015625)"/>
       <path id="DejaVuSans-69" d="M 603 3500 
L 1178 3500 
L 1178 0 
L 603 0 
L 603 3500 
z
M 603 4863 
L 1178 4863 
L 1178 4134 
L 603 4134 
L 603 4863 
z
" transform="scale(0.015625)"/>
       <path id="DejaVuSans-73" d="M 2834 3397 
L 2834 2853 
Q 2591 2978 2328 3040 
Q 2066 3103 1784 3103 
Q 1356 3103 1142 2972 
Q 928 2841 928 2578 
Q 928 2378 1081 2264 
Q 1234 2150 1697 2047 
L 1894 2003 
Q 2506 1872 2764 1633 
Q 3022 1394 3022 966 
Q 3022 478 2636 193 
Q 2250 -91 1575 -91 
Q 1294 -91 989 -36 
Q 684 19 347 128 
L 347 722 
Q 666 556 975 473 
Q 1284 391 1588 391 
Q 1994 391 2212 530 
Q 2431 669 2431 922 
Q 2431 1156 2273 1281 
Q 2116 1406 1581 1522 
L 1381 1569 
Q 847 1681 609 1914 
Q 372 2147 372 2553 
Q 372 3047 722 3315 
Q 1072 3584 1716 3584 
Q 2034 3584 2315 3537 
Q 2597 3491 2834 3397 
z
" transform="scale(0.015625)"/>
      </defs>
      <use xlink:href="#DejaVuSans-52"/>
      <use xlink:href="#DejaVuSans-6f" x="64.982422"/>
      <use xlink:href="#DejaVuSans-62" x="126.164062"/>
      <use xlink:href="#DejaVuSans-65" x="189.640625"/>
      <use xlink:href="#DejaVuSans-72" x="251.164062"/>
      <use xlink:href="#DejaVuSans-74" x="292.277344"/>
      <use xlink:href="#DejaVuSans-20" x="331.486328"/>
      <use xlink:href="#DejaVuSans-57" x="363.273438"/>
      <use xlink:href="#DejaVuSans-69" x="459.900391"/>
      <use xlink:href="#DejaVuSans-73" x="487.683594"/>
      <use xlink:href="#DejaVuSans-65" x="539.783203"/>
     </g>
    </g>
   </g>
   <g id="text_2">
    <g id="patch_3">
     <path d="M 447.63016 222.452883 
L 510.354535 222.452883 
L 510.354535 205.822571 
L 447.63016 205.822571 
z
" clip-path="url(#pf386765ce1)" style="fill: #ffffff; opacity: 0.7; stroke: #000000; stroke-linejoin: miter"/>
    </g>
    <g clip-path="url(#pf386765ce1)">
     <!-- Chuck Jones -->
     <g transform="translate(451.59016 216.621164)scale(0.09 -0.09)">
      <defs>
       <path id="DejaVuSans-43" d="M 4122 4306 
L 4122 3641 
Q 3803 3938 3442 4084 
Q 3081 4231 2675 4231 
Q 1875 4231 1450 3742 
Q 1025 3253 1025 2328 
Q 1025 1406 1450 917 
Q 1875 428 2675 428 
Q 3081 428 3442 575 
Q 3803 722 4122 1019 
L 4122 359 
Q 3791 134 3420 21 
Q 3050 -91 2638 -91 
Q 1578 -91 968 557 
Q 359 1206 359 2328 
Q 359 3453 968 4101 
Q 1578 4750 2638 4750 
Q 3056 4750 3426 4639 
Q 3797 4528 4122 4306 
z
" transform="scale(0.015625)"/>
       <path id="DejaVuSans-68" d="M 3513 2113 
L 3513 0 
L 2938 0 
L 2938 2094 
Q 2938 2591 2744 2837 
Q 2550 3084 2163 3084 
Q 1697 3084 1428 2787 
Q 1159 2491 1159 1978 
L 1159 0 
L 581 0 
L 581 4863 
L 1159 4863 
L 1159 2956 
Q 1366 3272 1645 3428 
Q 1925 3584 2291 3584 
Q 2894 3584 3203 3211 
Q 3513 2838 3513 2113 
z
" transform="scale(0.015625)"/>
       <path id="DejaVuSans-75" d="M 544 1381 
L 544 3500 
L 1119 3500 
L 1119 1403 
Q 1119 906 1312 657 
Q 1506 409 1894 409 
Q 2359 409 2629 706 
Q 2900 1003 2900 1516 
L 2900 3500 
L 3475 3500 
L 3475 0 
L 2900 0 
L 2900 538 
Q 2691 219 2414 64 
Q 2138 -91 1772 -91 
Q 1169 -91 856 284 
Q 544 659 544 1381 
z
M 1991 3584 
L 1991 3584 
z
" transform="scale(0.015625)"/>
       <path id="DejaVuSans-63" d="M 3122 3366 
L 3122 2828 
Q 2878 2963 2633 3030 
Q 2388 3097 2138 3097 
Q 1578 3097 1268 2742 
Q 959 2388 959 1747 
Q 959 1106 1268 751 
Q 1578 397 2138 397 
Q 2388 397 2633 464 
Q 2878 531 3122 666 
L 3122 134 
Q 2881 22 2623 -34 
Q 2366 -91 2075 -91 
Q 1284 -91 818 406 
Q 353 903 353 1747 
Q 353 2603 823 3093 
Q 1294 3584 2113 3584 
Q 2378 3584 2631 3529 
Q 2884 3475 3122 3366 
z
" transform="scale(0.015625)"/>
       <path id="DejaVuSans-6b" d="M 581 4863 
L 1159 4863 
L 1159 1991 
L 2875 3500 
L 3609 3500 
L 1753 1863 
L 3688 0 
L 2938 0 
L 1159 1709 
L 1159 0 
L 581 0 
L 581 4863 
z
" transform="scale(0.015625)"/>
       <path id="DejaVuSans-4a" d="M 628 4666 
L 1259 4666 
L 1259 325 
Q 1259 -519 939 -900 
Q 619 -1281 -91 -1281 
L -331 -1281 
L -331 -750 
L -134 -750 
Q 284 -750 456 -515 
Q 628 -281 628 325 
L 628 4666 
z
" transform="scale(0.015625)"/>
       <path id="DejaVuSans-6e" d="M 3513 2113 
L 3513 0 
L 2938 0 
L 2938 2094 
Q 2938 2591 2744 2837 
Q 2550 3084 2163 3084 
Q 1697 3084 1428 2787 
Q 1159 2491 1159 1978 
L 1159 0 
L 581 0 
L 581 3500 
L 1159 3500 
L 1159 2956 
Q 1366 3272 1645 3428 
Q 1925 3584 2291 3584 
Q 2894 3584 3203 3211 
Q 3513 2838 3513 2113 
z
" transform="scale(0.015625)"/>
      </defs>
      <use xlink:href="#DejaVuSans-43"/>
      <use xlink:href="#DejaVuSans-68" x="69.824219"/>
      <use xlink:href="#DejaVuSans-75" x="133.203125"/>
      <use xlink:href="#DejaVuSans-63" x="196.582031"/>
      <use xlink:href="#DejaVuSans-6b" x="251.5625"/>
      <use xlink:href="#DejaVuSans-20" x="309.472656"/>
      <use xlink:href="#DejaVuSans-4a" x="341.259766"/>
      <use xlink:href="#DejaVuSans-6f" x="370.751953"/>
      <use xlink:href="#DejaVuSans-6e" x="431.933594"/>
      <use xlink:href="#DejaVuSans-65" x="495.3125"/>
      <use xlink:href="#DejaVuSans-73" x="556.835938"/>
     </g>
    </g>
   </g>
   <g id="text_3">
    <g id="patch_4">
     <path d="M 396.6786 155.417353 
L 455.9211 155.417353 
L 455.9211 138.787041 
L 396.6786 138.787041 
z
" clip-path="url(#pf386765ce1)" style="fill: #ffffff; opacity: 0.7; stroke: #000000; stroke-linejoin: miter"/>
    </g>
    <g clip-path="url(#pf386765ce1)">
     <!-- Friz Freleng -->
     <g transform="translate(400.6386 149.585635)scale(0.09 -0.09)">
      <defs>
       <path id="DejaVuSans-46" d="M 628 4666 
L 3309 4666 
L 3309 4134 
L 1259 4134 
L 1259 2759 
L 3109 2759 
L 3109 2228 
L 1259 2228 
L 1259 0 
L 628 0 
L 628 4666 
z
" transform="scale(0.015625)"/>
       <path id="DejaVuSans-7a" d="M 353 3500 
L 3084 3500 
L 3084 2975 
L 922 459 
L 3084 459 
L 3084 0 
L 275 0 
L 275 525 
L 2438 3041 
L 353 3041 
L 353 3500 
z
" transform="scale(0.015625)"/>
       <path id="DejaVuSans-6c" d="M 603 4863 
L 1178 4863 
L 1178 0 
L 603 0 
L 603 4863 
z
" transform="scale(0.015625)"/>
       <path id="DejaVuSans-67" d="M 2906 1791 
Q 2906 2416 2648 2759 
Q 2391 3103 1925 3103 
Q 1463 3103 1205 2759 
Q 947 2416 947 1791 
Q 947 1169 1205 825 
Q 1463 481 1925 481 
Q 2391 481 2648 825 
Q 2906 1169 2906 1791 
z
M 3481 434 
Q 3481 -459 3084 -895 
Q 2688 -1331 1869 -1331 
Q 1566 -1331 1297 -1286 
Q 1028 -1241 775 -1147 
L 775 -588 
Q 1028 -725 1275 -790 
Q 1522 -856 1778 -856 
Q 2344 -856 2625 -561 
Q 2906 -266 2906 331 
L 2906 616 
Q 2728 306 2450 153 
Q 2172 0 1784 0 
Q 1141 0 747 490 
Q 353 981 353 1791 
Q 353 2603 747 3093 
Q 1141 3584 1784 3584 
Q 2172 3584 2450 3431 
Q 2728 3278 2906 2969 
L 2906 3500 
L 3481 3500 
L 3481 434 
z
" transform="scale(0.015625)"/>
      </defs>
      <use xlink:href="#DejaVuSans-46"/>
      <use xlink:href="#DejaVuSans-72" x="50.269531"/>
      <use xlink:href="#DejaVuSans-69" x="91.382812"/>
      <use xlink:href="#DejaVuSans-7a" x="119.166016"/>
      <use xlink:href="#DejaVuSans-20" x="171.65625"/>
      <use xlink:href="#DejaVuSans-46" x="203.443359"/>
      <use xlink:href="#DejaVuSans-72" x="253.712891"/>
      <use xlink:href="#DejaVuSans-65" x="292.576172"/>
      <use xlink:href="#DejaVuSans-6c" x="354.099609"/>
      <use xlink:href="#DejaVuSans-65" x="381.882812"/>
      <use xlink:href="#DejaVuSans-6e" x="443.40625"/>
      <use xlink:href="#DejaVuSans-67" x="506.785156"/>
     </g>
    </g>
   </g>
   <g id="text_4">
    <g id="patch_5">
     <path d="M 305.465697 113.987127 
L 391.862885 113.987127 
L 391.862885 97.356815 
L 305.465697 97.356815 
z
" clip-path="url(#pf386765ce1)" style="fill: #ffffff; opacity: 0.7; stroke: #000000; stroke-linejoin: miter"/>
    </g>
    <g clip-path="url(#pf386765ce1)">
     <!-- Robert McKimson -->
     <g transform="translate(309.425697 108.155409)scale(0.09 -0.09)">
      <defs>
       <path id="DejaVuSans-4d" d="M 628 4666 
L 1569 4666 
L 2759 1491 
L 3956 4666 
L 4897 4666 
L 4897 0 
L 4281 0 
L 4281 4097 
L 3078 897 
L 2444 897 
L 1241 4097 
L 1241 0 
L 628 0 
L 628 4666 
z
" transform="scale(0.015625)"/>
       <path id="DejaVuSans-4b" d="M 628 4666 
L 1259 4666 
L 1259 2694 
L 3353 4666 
L 4166 4666 
L 1850 2491 
L 4331 0 
L 3500 0 
L 1259 2247 
L 1259 0 
L 628 0 
L 628 4666 
z
" transform="scale(0.015625)"/>
       <path id="DejaVuSans-6d" d="M 3328 2828 
Q 3544 3216 3844 3400 
Q 4144 3584 4550 3584 
Q 5097 3584 5394 3201 
Q 5691 2819 5691 2113 
L 5691 0 
L 5113 0 
L 5113 2094 
Q 5113 2597 4934 2840 
Q 4756 3084 4391 3084 
Q 3944 3084 3684 2787 
Q 3425 2491 3425 1978 
L 3425 0 
L 2847 0 
L 2847 2094 
Q 2847 2600 2669 2842 
Q 2491 3084 2119 3084 
Q 1678 3084 1418 2786 
Q 1159 2488 1159 1978 
L 1159 0 
L 581 0 
L 581 3500 
L 1159 3500 
L 1159 2956 
Q 1356 3278 1631 3431 
Q 1906 3584 2284 3584 
Q 2666 3584 2933 3390 
Q 3200 3197 3328 2828 
z
" transform="scale(0.015625)"/>
      </defs>
      <use xlink:href="#DejaVuSans-52"/>
      <use xlink:href="#DejaVuSans-6f" x="64.982422"/>
      <use xlink:href="#DejaVuSans-62" x="126.164062"/>
      <use xlink:href="#DejaVuSans-65" x="189.640625"/>
      <use xlink:href="#DejaVuSans-72" x="251.164062"/>
      <use xlink:href="#DejaVuSans-74" x="292.277344"/>
      <use xlink:href="#DejaVuSans-20" x="331.486328"/>
      <use xlink:href="#DejaVuSans-4d" x="363.273438"/>
      <use xlink:href="#DejaVuSans-63" x="449.552734"/>
      <use xlink:href="#DejaVuSans-4b" x="504.533203"/>
      <use xlink:href="#DejaVuSans-69" x="570.109375"/>
      <use xlink:href="#DejaVuSans-6d" x="597.892578"/>
      <use xlink:href="#DejaVuSans-73" x="695.304688"/>
      <use xlink:href="#DejaVuSans-6f" x="747.404297"/>
      <use xlink:href="#DejaVuSans-6e" x="808.585938"/>
     </g>
    </g>
   </g>
   <g id="text_5">
    <g id="patch_6">
     <path d="M 218.800017 105.325851 
L 300.21908 105.325851 
L 300.21908 88.695539 
L 218.800017 88.695539 
z
" clip-path="url(#pf386765ce1)" style="fill: #ffffff; opacity: 0.7; stroke: #000000; stroke-linejoin: miter"/>
    </g>
    <g clip-path="url(#pf386765ce1)">
     <!-- Alfred Hitchcock -->
     <g transform="translate(222.760017 99.494133)scale(0.09 -0.09)">
      <defs>
       <path id="DejaVuSans-41" d="M 2188 4044 
L 1331 1722 
L 3047 1722 
L 2188 4044 
z
M 1831 4666 
L 2547 4666 
L 4325 0 
L 3669 0 
L 3244 1197 
L 1141 1197 
L 716 0 
L 50 0 
L 1831 4666 
z
" transform="scale(0.015625)"/>
       <path id="DejaVuSans-66" d="M 2375 4863 
L 2375 4384 
L 1825 4384 
Q 1516 4384 1395 4259 
Q 1275 4134 1275 3809 
L 1275 3500 
L 2222 3500 
L 2222 3053 
L 1275 3053 
L 1275 0 
L 697 0 
L 697 3053 
L 147 3053 
L 147 3500 
L 697 3500 
L 697 3744 
Q 697 4328 969 4595 
Q 1241 4863 1831 4863 
L 2375 4863 
z
" transform="scale(0.015625)"/>
       <path id="DejaVuSans-64" d="M 2906 2969 
L 2906 4863 
L 3481 4863 
L 3481 0 
L 2906 0 
L 2906 525 
Q 2725 213 2448 61 
Q 2172 -91 1784 -91 
Q 1150 -91 751 415 
Q 353 922 353 1747 
Q 353 2572 751 3078 
Q 1150 3584 1784 3584 
Q 2172 3584 2448 3432 
Q 2725 3281 2906 2969 
z
M 947 1747 
Q 947 1113 1208 752 
Q 1469 391 1925 391 
Q 2381 391 2643 752 
Q 2906 1113 2906 1747 
Q 2906 2381 2643 2742 
Q 2381 3103 1925 3103 
Q 1469 3103 1208 2742 
Q 947 2381 947 1747 
z
" transform="scale(0.015625)"/>
       <path id="DejaVuSans-48" d="M 628 4666 
L 1259 4666 
L 1259 2753 
L 3553 2753 
L 3553 4666 
L 4184 4666 
L 4184 0 
L 3553 0 
L 3553 2222 
L 1259 2222 
L 1259 0 
L 628 0 
L 628 4666 
z
" transform="scale(0.015625)"/>
      </defs>
      <use xlink:href="#DejaVuSans-41"/>
      <use xlink:href="#DejaVuSans-6c" x="68.408203"/>
      <use xlink:href="#DejaVuSans-66" x="96.191406"/>
      <use xlink:href="#DejaVuSans-72" x="131.396484"/>
      <use xlink:href="#DejaVuSans-65" x="170.259766"/>
      <use xlink:href="#DejaVuSans-64" x="231.783203"/>
      <use xlink:href="#DejaVuSans-20" x="295.259766"/>
      <use xlink:href="#DejaVuSans-48" x="327.046875"/>
      <use xlink:href="#DejaVuSans-69" x="402.242188"/>
      <use xlink:href="#DejaVuSans-74" x="430.025391"/>
      <use xlink:href="#DejaVuSans-63" x="469.234375"/>
      <use xlink:href="#DejaVuSans-68" x="524.214844"/>
      <use xlink:href="#DejaVuSans-63" x="587.59375"/>
      <use xlink:href="#DejaVuSans-6f" x="642.574219"/>
      <use xlink:href="#DejaVuSans-63" x="703.755859"/>
      <use xlink:href="#DejaVuSans-6b" x="758.736328"/>
     </g>
    </g>
   </g>
   <g id="text_6">
    <g id="patch_7">
     <path d="M 142.449657 130.931149 
L 206.052939 130.931149 
L 206.052939 114.300837 
L 142.449657 114.300837 
z
" clip-path="url(#pf386765ce1)" style="fill: #ffffff; opacity: 0.7; stroke: #000000; stroke-linejoin: miter"/>
    </g>
    <g clip-path="url(#pf386765ce1)">
     <!-- Woody Allen -->
     <g transform="translate(146.409657 125.09943)scale(0.09 -0.09)">
      <defs>
       <path id="DejaVuSans-79" d="M 2059 -325 
Q 1816 -950 1584 -1140 
Q 1353 -1331 966 -1331 
L 506 -1331 
L 506 -850 
L 844 -850 
Q 1081 -850 1212 -737 
Q 1344 -625 1503 -206 
L 1606 56 
L 191 3500 
L 800 3500 
L 1894 763 
L 2988 3500 
L 3597 3500 
L 2059 -325 
z
" transform="scale(0.015625)"/>
      </defs>
      <use xlink:href="#DejaVuSans-57"/>
      <use xlink:href="#DejaVuSans-6f" x="93.001953"/>
      <use xlink:href="#DejaVuSans-6f" x="154.183594"/>
      <use xlink:href="#DejaVuSans-64" x="215.365234"/>
      <use xlink:href="#DejaVuSans-79" x="278.841797"/>
      <use xlink:href="#DejaVuSans-20" x="338.021484"/>
      <use xlink:href="#DejaVuSans-41" x="369.808594"/>
      <use xlink:href="#DejaVuSans-6c" x="438.216797"/>
      <use xlink:href="#DejaVuSans-6c" x="466"/>
      <use xlink:href="#DejaVuSans-65" x="493.783203"/>
      <use xlink:href="#DejaVuSans-6e" x="555.306641"/>
     </g>
    </g>
   </g>
   <g id="text_7">
    <g id="patch_8">
     <path d="M 64.55593 186.375618 
L 150.707024 186.375618 
L 150.707024 169.745305 
L 64.55593 169.745305 
z
" clip-path="url(#pf386765ce1)" style="fill: #ffffff; opacity: 0.7; stroke: #000000; stroke-linejoin: miter"/>
    </g>
    <g clip-path="url(#pf386765ce1)">
     <!-- Jonathan Demme -->
     <g transform="translate(68.51593 180.543899)scale(0.09 -0.09)">
      <defs>
       <path id="DejaVuSans-61" d="M 2194 1759 
Q 1497 1759 1228 1600 
Q 959 1441 959 1056 
Q 959 750 1161 570 
Q 1363 391 1709 391 
Q 2188 391 2477 730 
Q 2766 1069 2766 1631 
L 2766 1759 
L 2194 1759 
z
M 3341 1997 
L 3341 0 
L 2766 0 
L 2766 531 
Q 2569 213 2275 61 
Q 1981 -91 1556 -91 
Q 1019 -91 701 211 
Q 384 513 384 1019 
Q 384 1609 779 1909 
Q 1175 2209 1959 2209 
L 2766 2209 
L 2766 2266 
Q 2766 2663 2505 2880 
Q 2244 3097 1772 3097 
Q 1472 3097 1187 3025 
Q 903 2953 641 2809 
L 641 3341 
Q 956 3463 1253 3523 
Q 1550 3584 1831 3584 
Q 2591 3584 2966 3190 
Q 3341 2797 3341 1997 
z
" transform="scale(0.015625)"/>
       <path id="DejaVuSans-44" d="M 1259 4147 
L 1259 519 
L 2022 519 
Q 2988 519 3436 956 
Q 3884 1394 3884 2338 
Q 3884 3275 3436 3711 
Q 2988 4147 2022 4147 
L 1259 4147 
z
M 628 4666 
L 1925 4666 
Q 3281 4666 3915 4102 
Q 4550 3538 4550 2338 
Q 4550 1131 3912 565 
Q 3275 0 1925 0 
L 628 0 
L 628 4666 
z
" transform="scale(0.015625)"/>
      </defs>
      <use xlink:href="#DejaVuSans-4a"/>
      <use xlink:href="#DejaVuSans-6f" x="29.492188"/>
      <use xlink:href="#DejaVuSans-6e" x="90.673828"/>
      <use xlink:href="#DejaVuSans-61" x="154.052734"/>
      <use xlink:href="#DejaVuSans-74" x="215.332031"/>
      <use xlink:href="#DejaVuSans-68" x="254.541016"/>
      <use xlink:href="#DejaVuSans-61" x="317.919922"/>
      <use xlink:href="#DejaVuSans-6e" x="379.199219"/>
      <use xlink:href="#DejaVuSans-20" x="442.578125"/>
      <use xlink:href="#DejaVuSans-44" x="474.365234"/>
      <use xlink:href="#DejaVuSans-65" x="551.367188"/>
      <use xlink:href="#DejaVuSans-6d" x="612.890625"/>
      <use xlink:href="#DejaVuSans-6d" x="710.302734"/>
      <use xlink:href="#DejaVuSans-65" x="807.714844"/>
     </g>
    </g>
   </g>
   <g id="text_8">
    <g id="patch_9">
     <path d="M 40.034856 262.072429 
L 102.303606 262.072429 
L 102.303606 245.442117 
L 40.034856 245.442117 
z
" clip-path="url(#pf386765ce1)" style="fill: #ffffff; opacity: 0.7; stroke: #000000; stroke-linejoin: miter"/>
    </g>
    <g clip-path="url(#pf386765ce1)">
     <!-- Michael Bay -->
     <g transform="translate(43.994856 256.24071)scale(0.09 -0.09)">
      <defs>
       <path id="DejaVuSans-42" d="M 1259 2228 
L 1259 519 
L 2272 519 
Q 2781 519 3026 730 
Q 3272 941 3272 1375 
Q 3272 1813 3026 2020 
Q 2781 2228 2272 2228 
L 1259 2228 
z
M 1259 4147 
L 1259 2741 
L 2194 2741 
Q 2656 2741 2882 2914 
Q 3109 3088 3109 3444 
Q 3109 3797 2882 3972 
Q 2656 4147 2194 4147 
L 1259 4147 
z
M 628 4666 
L 2241 4666 
Q 2963 4666 3353 4366 
Q 3744 4066 3744 3513 
Q 3744 3084 3544 2831 
Q 3344 2578 2956 2516 
Q 3422 2416 3680 2098 
Q 3938 1781 3938 1306 
Q 3938 681 3513 340 
Q 3088 0 2303 0 
L 628 0 
L 628 4666 
z
" transform="scale(0.015625)"/>
      </defs>
      <use xlink:href="#DejaVuSans-4d"/>
      <use xlink:href="#DejaVuSans-69" x="86.279297"/>
      <use xlink:href="#DejaVuSans-63" x="114.0625"/>
      <use xlink:href="#DejaVuSans-68" x="169.042969"/>
      <use xlink:href="#DejaVuSans-61" x="232.421875"/>
      <use xlink:href="#DejaVuSans-65" x="293.701172"/>
      <use xlink:href="#DejaVuSans-6c" x="355.224609"/>
      <use xlink:href="#DejaVuSans-20" x="383.007812"/>
      <use xlink:href="#DejaVuSans-42" x="414.794922"/>
      <use xlink:href="#DejaVuSans-61" x="483.398438"/>
      <use xlink:href="#DejaVuSans-79" x="544.677734"/>
     </g>
    </g>
   </g>
   <g id="text_9">
    <g id="patch_10">
     <path d="M 29.18354 344.932893 
L 113.154947 344.932893 
L 113.154947 328.302581 
L 29.18354 328.302581 
z
" clip-path="url(#pf386765ce1)" style="fill: #ffffff; opacity: 0.7; stroke: #000000; stroke-linejoin: miter"/>
    </g>
    <g clip-path="url(#pf386765ce1)">
     <!-- Robert Zemeckis -->
     <g transform="translate(33.14354 339.101174)scale(0.09 -0.09)">
      <defs>
       <path id="DejaVuSans-5a" d="M 359 4666 
L 4025 4666 
L 4025 4184 
L 1075 531 
L 4097 531 
L 4097 0 
L 288 0 
L 288 481 
L 3238 4134 
L 359 4134 
L 359 4666 
z
" transform="scale(0.015625)"/>
      </defs>
      <use xlink:href="#DejaVuSans-52"/>
      <use xlink:href="#DejaVuSans-6f" x="64.982422"/>
      <use xlink:href="#DejaVuSans-62" x="126.164062"/>
      <use xlink:href="#DejaVuSans-65" x="189.640625"/>
      <use xlink:href="#DejaVuSans-72" x="251.164062"/>
      <use xlink:href="#DejaVuSans-74" x="292.277344"/>
      <use xlink:href="#DejaVuSans-20" x="331.486328"/>
      <use xlink:href="#DejaVuSans-5a" x="363.273438"/>
      <use xlink:href="#DejaVuSans-65" x="431.779297"/>
      <use xlink:href="#DejaVuSans-6d" x="493.302734"/>
      <use xlink:href="#DejaVuSans-65" x="590.714844"/>
      <use xlink:href="#DejaVuSans-63" x="652.238281"/>
      <use xlink:href="#DejaVuSans-6b" x="707.21875"/>
      <use xlink:href="#DejaVuSans-69" x="765.128906"/>
      <use xlink:href="#DejaVuSans-73" x="792.912109"/>
     </g>
    </g>
   </g>
   <g id="text_10">
    <g id="patch_11">
     <path d="M 71.148443 420.629681 
L 144.114537 420.629681 
L 144.114537 403.999368 
L 71.148443 403.999368 
z
" clip-path="url(#pf386765ce1)" style="fill: #ffffff; opacity: 0.7; stroke: #000000; stroke-linejoin: miter"/>
    </g>
    <g clip-path="url(#pf386765ce1)">
     <!-- William Hanna -->
     <g transform="translate(75.108443 414.797962)scale(0.09 -0.09)">
      <use xlink:href="#DejaVuSans-57"/>
      <use xlink:href="#DejaVuSans-69" x="96.626953"/>
      <use xlink:href="#DejaVuSans-6c" x="124.410156"/>
      <use xlink:href="#DejaVuSans-6c" x="152.193359"/>
      <use xlink:href="#DejaVuSans-69" x="179.976562"/>
      <use xlink:href="#DejaVuSans-61" x="207.759766"/>
      <use xlink:href="#DejaVuSans-6d" x="269.039062"/>
      <use xlink:href="#DejaVuSans-20" x="366.451172"/>
      <use xlink:href="#DejaVuSans-48" x="398.238281"/>
      <use xlink:href="#DejaVuSans-61" x="473.433594"/>
      <use xlink:href="#DejaVuSans-6e" x="534.712891"/>
      <use xlink:href="#DejaVuSans-6e" x="598.091797"/>
      <use xlink:href="#DejaVuSans-61" x="661.470703"/>
     </g>
    </g>
   </g>
   <g id="text_11">
    <g id="patch_12">
     <path d="M 136.030158 476.074149 
L 212.472502 476.074149 
L 212.472502 459.443837 
L 136.030158 459.443837 
z
" clip-path="url(#pf386765ce1)" style="fill: #ffffff; opacity: 0.7; stroke: #000000; stroke-linejoin: miter"/>
    </g>
    <g clip-path="url(#pf386765ce1)">
     <!-- Joseph Barbera -->
     <g transform="translate(139.990158 470.242431)scale(0.09 -0.09)">
      <defs>
       <path id="DejaVuSans-70" d="M 1159 525 
L 1159 -1331 
L 581 -1331 
L 581 3500 
L 1159 3500 
L 1159 2969 
Q 1341 3281 1617 3432 
Q 1894 3584 2278 3584 
Q 2916 3584 3314 3078 
Q 3713 2572 3713 1747 
Q 3713 922 3314 415 
Q 2916 -91 2278 -91 
Q 1894 -91 1617 61 
Q 1341 213 1159 525 
z
M 3116 1747 
Q 3116 2381 2855 2742 
Q 2594 3103 2138 3103 
Q 1681 3103 1420 2742 
Q 1159 2381 1159 1747 
Q 1159 1113 1420 752 
Q 1681 391 2138 391 
Q 2594 391 2855 752 
Q 3116 1113 3116 1747 
z
" transform="scale(0.015625)"/>
      </defs>
      <use xlink:href="#DejaVuSans-4a"/>
      <use xlink:href="#DejaVuSans-6f" x="29.492188"/>
      <use xlink:href="#DejaVuSans-73" x="90.673828"/>
      <use xlink:href="#DejaVuSans-65" x="142.773438"/>
      <use xlink:href="#DejaVuSans-70" x="204.296875"/>
      <use xlink:href="#DejaVuSans-68" x="267.773438"/>
      <use xlink:href="#DejaVuSans-20" x="331.152344"/>
      <use xlink:href="#DejaVuSans-42" x="362.939453"/>
      <use xlink:href="#DejaVuSans-61" x="431.542969"/>
      <use xlink:href="#DejaVuSans-72" x="492.822266"/>
      <use xlink:href="#DejaVuSans-62" x="533.935547"/>
      <use xlink:href="#DejaVuSans-65" x="597.412109"/>
      <use xlink:href="#DejaVuSans-72" x="658.935547"/>
      <use xlink:href="#DejaVuSans-61" x="700.048828"/>
     </g>
    </g>
   </g>
   <g id="text_12">
    <g id="patch_13">
     <path d="M 229.533962 501.679435 
L 289.485212 501.679435 
L 289.485212 485.049123 
L 229.533962 485.049123 
z
" clip-path="url(#pf386765ce1)" style="fill: #ffffff; opacity: 0.7; stroke: #000000; stroke-linejoin: miter"/>
    </g>
    <g clip-path="url(#pf386765ce1)">
     <!-- Ethan Coen -->
     <g transform="translate(233.493962 495.847716)scale(0.09 -0.09)">
      <defs>
       <path id="DejaVuSans-45" d="M 628 4666 
L 3578 4666 
L 3578 4134 
L 1259 4134 
L 1259 2753 
L 3481 2753 
L 3481 2222 
L 1259 2222 
L 1259 531 
L 3634 531 
L 3634 0 
L 628 0 
L 628 4666 
z
" transform="scale(0.015625)"/>
      </defs>
      <use xlink:href="#DejaVuSans-45"/>
      <use xlink:href="#DejaVuSans-74" x="63.183594"/>
      <use xlink:href="#DejaVuSans-68" x="102.392578"/>
      <use xlink:href="#DejaVuSans-61" x="165.771484"/>
      <use xlink:href="#DejaVuSans-6e" x="227.050781"/>
      <use xlink:href="#DejaVuSans-20" x="290.429688"/>
      <use xlink:href="#DejaVuSans-43" x="322.216797"/>
      <use xlink:href="#DejaVuSans-6f" x="392.041016"/>
      <use xlink:href="#DejaVuSans-65" x="453.222656"/>
      <use xlink:href="#DejaVuSans-6e" x="514.746094"/>
     </g>
    </g>
   </g>
   <g id="text_13">
    <g id="patch_14">
     <path d="M 323.657683 493.018147 
L 373.670964 493.018147 
L 373.670964 476.387835 
L 323.657683 476.387835 
z
" clip-path="url(#pf386765ce1)" style="fill: #ffffff; opacity: 0.7; stroke: #000000; stroke-linejoin: miter"/>
    </g>
    <g clip-path="url(#pf386765ce1)">
     <!-- Joel Coen -->
     <g transform="translate(327.617683 487.186429)scale(0.09 -0.09)">
      <use xlink:href="#DejaVuSans-4a"/>
      <use xlink:href="#DejaVuSans-6f" x="29.492188"/>
      <use xlink:href="#DejaVuSans-65" x="90.673828"/>
      <use xlink:href="#DejaVuSans-6c" x="152.197266"/>
      <use xlink:href="#DejaVuSans-20" x="179.980469"/>
      <use xlink:href="#DejaVuSans-43" x="211.767578"/>
      <use xlink:href="#DejaVuSans-6f" x="281.591797"/>
      <use xlink:href="#DejaVuSans-65" x="342.773438"/>
      <use xlink:href="#DejaVuSans-6e" x="404.296875"/>
     </g>
    </g>
   </g>
   <g id="text_14">
    <g id="patch_15">
     <path d="M 392.02817 451.587897 
L 460.571607 451.587897 
L 460.571607 434.957585 
L 392.02817 434.957585 
z
" clip-path="url(#pf386765ce1)" style="fill: #ffffff; opacity: 0.7; stroke: #000000; stroke-linejoin: miter"/>
    </g>
    <g clip-path="url(#pf386765ce1)">
     <!-- Roger Michell -->
     <g transform="translate(395.98817 445.756179)scale(0.09 -0.09)">
      <use xlink:href="#DejaVuSans-52"/>
      <use xlink:href="#DejaVuSans-6f" x="64.982422"/>
      <use xlink:href="#DejaVuSans-67" x="126.164062"/>
      <use xlink:href="#DejaVuSans-65" x="189.640625"/>
      <use xlink:href="#DejaVuSans-72" x="251.164062"/>
      <use xlink:href="#DejaVuSans-20" x="292.277344"/>
      <use xlink:href="#DejaVuSans-4d" x="324.064453"/>
      <use xlink:href="#DejaVuSans-69" x="410.34375"/>
      <use xlink:href="#DejaVuSans-63" x="438.126953"/>
      <use xlink:href="#DejaVuSans-68" x="493.107422"/>
      <use xlink:href="#DejaVuSans-65" x="556.486328"/>
      <use xlink:href="#DejaVuSans-6c" x="618.009766"/>
      <use xlink:href="#DejaVuSans-6c" x="645.792969"/>
     </g>
    </g>
   </g>
   <g id="text_15">
    <g id="patch_16">
     <path d="M 429.174561 384.552374 
L 528.810186 384.552374 
L 528.810186 367.922061 
L 429.174561 367.922061 
z
" clip-path="url(#pf386765ce1)" style="fill: #ffffff; opacity: 0.7; stroke: #000000; stroke-linejoin: miter"/>
    </g>
    <g clip-path="url(#pf386765ce1)">
     <!-- Michael Caton-Jones -->
     <g transform="translate(433.134561 378.720655)scale(0.09 -0.09)">
      <defs>
       <path id="DejaVuSans-2d" d="M 313 2009 
L 1997 2009 
L 1997 1497 
L 313 1497 
L 313 2009 
z
" transform="scale(0.015625)"/>
      </defs>
      <use xlink:href="#DejaVuSans-4d"/>
      <use xlink:href="#DejaVuSans-69" x="86.279297"/>
      <use xlink:href="#DejaVuSans-63" x="114.0625"/>
      <use xlink:href="#DejaVuSans-68" x="169.042969"/>
      <use xlink:href="#DejaVuSans-61" x="232.421875"/>
      <use xlink:href="#DejaVuSans-65" x="293.701172"/>
      <use xlink:href="#DejaVuSans-6c" x="355.224609"/>
      <use xlink:href="#DejaVuSans-20" x="383.007812"/>
      <use xlink:href="#DejaVuSans-43" x="414.794922"/>
      <use xlink:href="#DejaVuSans-61" x="484.619141"/>
      <use xlink:href="#DejaVuSans-74" x="545.898438"/>
      <use xlink:href="#DejaVuSans-6f" x="585.107422"/>
      <use xlink:href="#DejaVuSans-6e" x="646.289062"/>
      <use xlink:href="#DejaVuSans-2d" x="709.667969"/>
      <use xlink:href="#DejaVuSans-4a" x="751.376953"/>
      <use xlink:href="#DejaVuSans-6f" x="780.869141"/>
      <use xlink:href="#DejaVuSans-6e" x="842.050781"/>
      <use xlink:href="#DejaVuSans-65" x="905.429688"/>
      <use xlink:href="#DejaVuSans-73" x="966.953125"/>
     </g>
    </g>
   </g>
   <g id="text_16">
    <!-- Impactful directors for Indie genre - Importance rank: 2 -->
    <g transform="translate(118.273125 16.318125)scale(0.12 -0.12)">
     <defs>
      <path id="DejaVuSans-49" d="M 628 4666 
L 1259 4666 
L 1259 0 
L 628 0 
L 628 4666 
z
" transform="scale(0.015625)"/>
      <path id="DejaVuSans-3a" d="M 750 794 
L 1409 794 
L 1409 0 
L 750 0 
L 750 794 
z
M 750 3309 
L 1409 3309 
L 1409 2516 
L 750 2516 
L 750 3309 
z
" transform="scale(0.015625)"/>
      <path id="DejaVuSans-32" d="M 1228 531 
L 3431 531 
L 3431 0 
L 469 0 
L 469 531 
Q 828 903 1448 1529 
Q 2069 2156 2228 2338 
Q 2531 2678 2651 2914 
Q 2772 3150 2772 3378 
Q 2772 3750 2511 3984 
Q 2250 4219 1831 4219 
Q 1534 4219 1204 4116 
Q 875 4013 500 3803 
L 500 4441 
Q 881 4594 1212 4672 
Q 1544 4750 1819 4750 
Q 2544 4750 2975 4387 
Q 3406 4025 3406 3419 
Q 3406 3131 3298 2873 
Q 3191 2616 2906 2266 
Q 2828 2175 2409 1742 
Q 1991 1309 1228 531 
z
" transform="scale(0.015625)"/>
     </defs>
     <use xlink:href="#DejaVuSans-49"/>
     <use xlink:href="#DejaVuSans-6d" x="29.492188"/>
     <use xlink:href="#DejaVuSans-70" x="126.904297"/>
     <use xlink:href="#DejaVuSans-61" x="190.380859"/>
     <use xlink:href="#DejaVuSans-63" x="251.660156"/>
     <use xlink:href="#DejaVuSans-74" x="306.640625"/>
     <use xlink:href="#DejaVuSans-66" x="345.849609"/>
     <use xlink:href="#DejaVuSans-75" x="381.054688"/>
     <use xlink:href="#DejaVuSans-6c" x="444.433594"/>
     <use xlink:href="#DejaVuSans-20" x="472.216797"/>
     <use xlink:href="#DejaVuSans-64" x="504.003906"/>
     <use xlink:href="#DejaVuSans-69" x="567.480469"/>
     <use xlink:href="#DejaVuSans-72" x="595.263672"/>
     <use xlink:href="#DejaVuSans-65" x="634.126953"/>
     <use xlink:href="#DejaVuSans-63" x="695.650391"/>
     <use xlink:href="#DejaVuSans-74" x="750.630859"/>
     <use xlink:href="#DejaVuSans-6f" x="789.839844"/>
     <use xlink:href="#DejaVuSans-72" x="851.021484"/>
     <use xlink:href="#DejaVuSans-73" x="892.134766"/>
     <use xlink:href="#DejaVuSans-20" x="944.234375"/>
     <use xlink:href="#DejaVuSans-66" x="976.021484"/>
     <use xlink:href="#DejaVuSans-6f" x="1011.226562"/>
     <use xlink:href="#DejaVuSans-72" x="1072.408203"/>
     <use xlink:href="#DejaVuSans-20" x="1113.521484"/>
     <use xlink:href="#DejaVuSans-49" x="1145.308594"/>
     <use xlink:href="#DejaVuSans-6e" x="1174.800781"/>
     <use xlink:href="#DejaVuSans-64" x="1238.179688"/>
     <use xlink:href="#DejaVuSans-69" x="1301.65625"/>
     <use xlink:href="#DejaVuSans-65" x="1329.439453"/>
     <use xlink:href="#DejaVuSans-20" x="1390.962891"/>
     <use xlink:href="#DejaVuSans-67" x="1422.75"/>
     <use xlink:href="#DejaVuSans-65" x="1486.226562"/>
     <use xlink:href="#DejaVuSans-6e" x="1547.75"/>
     <use xlink:href="#DejaVuSans-72" x="1611.128906"/>
     <use xlink:href="#DejaVuSans-65" x="1649.992188"/>
     <use xlink:href="#DejaVuSans-20" x="1711.515625"/>
     <use xlink:href="#DejaVuSans-2d" x="1743.302734"/>
     <use xlink:href="#DejaVuSans-20" x="1779.386719"/>
     <use xlink:href="#DejaVuSans-49" x="1811.173828"/>
     <use xlink:href="#DejaVuSans-6d" x="1840.666016"/>
     <use xlink:href="#DejaVuSans-70" x="1938.078125"/>
     <use xlink:href="#DejaVuSans-6f" x="2001.554688"/>
     <use xlink:href="#DejaVuSans-72" x="2062.736328"/>
     <use xlink:href="#DejaVuSans-74" x="2103.849609"/>
     <use xlink:href="#DejaVuSans-61" x="2143.058594"/>
     <use xlink:href="#DejaVuSans-6e" x="2204.337891"/>
     <use xlink:href="#DejaVuSans-63" x="2267.716797"/>
     <use xlink:href="#DejaVuSans-65" x="2322.697266"/>
     <use xlink:href="#DejaVuSans-20" x="2384.220703"/>
     <use xlink:href="#DejaVuSans-72" x="2416.007812"/>
     <use xlink:href="#DejaVuSans-61" x="2457.121094"/>
     <use xlink:href="#DejaVuSans-6e" x="2518.400391"/>
     <use xlink:href="#DejaVuSans-6b" x="2581.779297"/>
     <use xlink:href="#DejaVuSans-3a" x="2639.689453"/>
     <use xlink:href="#DejaVuSans-20" x="2673.380859"/>
     <use xlink:href="#DejaVuSans-32" x="2705.167969"/>
    </g>
   </g>
  </g>
 </g>
 <defs>
  <clipPath id="pf386765ce1">
   <rect x="7.2" y="22.318125" width="554.4" height="554.4"/>
  </clipPath>
 </defs>
</svg>
