<?xml version="1.0" encoding="utf-8" standalone="no"?>
<!DOCTYPE svg PUBLIC "-//W3C//DTD SVG 1.1//EN"
  "http://www.w3.org/Graphics/SVG/1.1/DTD/svg11.dtd">
<svg xmlns:xlink="http://www.w3.org/1999/xlink" width="576pt" height="576pt" viewBox="0 0 576 576" xmlns="http://www.w3.org/2000/svg" version="1.1">
 <metadata>
  <rdf:RDF xmlns:dc="http://purl.org/dc/elements/1.1/" xmlns:cc="http://creativecommons.org/ns#" xmlns:rdf="http://www.w3.org/1999/02/22-rdf-syntax-ns#">
   <cc:Work>
    <dc:type rdf:resource="http://purl.org/dc/dcmitype/StillImage"/>
    <dc:date>2022-12-22T16:12:33.075406</dc:date>
    <dc:format>image/svg+xml</dc:format>
    <dc:creator>
     <cc:Agent>
      <dc:title>Matplotlib v3.5.2, https://matplotlib.org/</dc:title>
     </cc:Agent>
    </dc:creator>
   </cc:Work>
  </rdf:RDF>
 </metadata>
 <defs>
  <style type="text/css">*{stroke-linejoin: round; stroke-linecap: butt}</style>
 </defs>
 <g id="figure_1">
  <g id="patch_1">
   <path d="M 0 576 
L 576 576 
L 576 0 
L 0 0 
z
" style="fill: #ffffff"/>
  </g>
  <g id="axes_1">
   <g id="LineCollection_1">
    <path d="M 112.891618 161.975729 
L 76.584583 243.422649 
" clip-path="url(#pef32f89cbb)" style="fill: none; stroke: #000000; stroke-opacity: 0.3; stroke-width: 10"/>
    <path d="M 76.584596 332.577389 
L 112.89163 414.024284 
" clip-path="url(#pef32f89cbb)" style="fill: none; stroke: #000000; stroke-opacity: 0.3; stroke-width: 5"/>
   </g>
   <g id="PathCollection_1">
    <path d="M 501.230769 315.386128 
C 508.493655 315.386128 515.46005 312.500553 520.595686 307.364917 
C 525.731322 302.229281 528.616897 295.262886 528.616897 288 
C 528.616897 280.737114 525.731322 273.770719 520.595686 268.635083 
C 515.46005 263.499447 508.493655 260.613872 501.230769 260.613872 
C 493.967883 260.613872 487.001488 263.499447 481.865852 268.635083 
C 476.730217 273.770719 473.844641 280.737114 473.844641 288 
C 473.844641 295.262886 476.730217 302.229281 481.865852 307.364917 
C 487.001488 312.500553 493.967883 315.386128 501.230769 315.386128 
z
" clip-path="url(#pef32f89cbb)" style="fill: #d62728; fill-opacity: 0.99; stroke: #d62728; stroke-opacity: 0.99"/>
    <path d="M 482.671687 222.893488 
C 488.53267 222.893488 494.154392 220.564894 498.298733 216.420554 
C 502.443073 212.276213 504.771667 206.654491 504.771667 200.793508 
C 504.771667 194.932525 502.443073 189.310804 498.298733 185.166463 
C 494.154392 181.022122 488.53267 178.693529 482.671687 178.693529 
C 476.810704 178.693529 471.188983 181.022122 467.044642 185.166463 
C 462.900302 189.310804 460.571708 194.932525 460.571708 200.793508 
C 460.571708 206.654491 462.900302 212.276213 467.044642 216.420554 
C 471.188983 220.564894 476.810704 222.893488 482.671687 222.893488 
z
" clip-path="url(#pef32f89cbb)" style="fill: #d62728; fill-opacity: 0.99; stroke: #d62728; stroke-opacity: 0.99"/>
    <path d="M 430.20349 149.639958 
C 435.765901 149.639958 441.101239 147.429988 445.034458 143.49677 
C 448.967676 139.563551 451.177646 134.228213 451.177646 128.665802 
C 451.177646 123.10339 448.967676 117.768052 445.034458 113.834834 
C 441.101239 109.901615 435.765901 107.691646 430.20349 107.691646 
C 424.641079 107.691646 419.305741 109.901615 415.372522 113.834834 
C 411.439303 117.768052 409.229334 123.10339 409.229334 128.665802 
C 409.229334 134.228213 411.439303 139.563551 415.372522 143.49677 
C 419.305741 147.429988 424.641079 149.639958 430.20349 149.639958 
z
" clip-path="url(#pef32f89cbb)" style="fill: #d62728; fill-opacity: 0.99; stroke: #d62728; stroke-opacity: 0.99"/>
    <path d="M 352.898409 104.967307 
C 358.43555 104.967307 363.746649 102.767378 367.661999 98.852028 
C 371.577349 94.936678 373.777278 89.625579 373.777278 84.088438 
C 373.777278 78.551297 371.577349 73.240197 367.661999 69.324847 
C 363.746649 65.409497 358.43555 63.209568 352.898409 63.209568 
C 347.361268 63.209568 342.050168 65.409497 338.134818 69.324847 
C 334.219468 73.240197 332.019539 78.551297 332.019539 84.088438 
C 332.019539 89.625579 334.219468 94.936678 338.134818 98.852028 
C 342.050168 102.767378 347.361268 104.967307 352.898409 104.967307 
z
" clip-path="url(#pef32f89cbb)" style="fill: #d62728; fill-opacity: 0.99; stroke: #d62728; stroke-opacity: 0.99"/>
    <path d="M 264.123178 95.291198 
C 269.565667 95.291198 274.785979 93.128874 278.6344 89.280453 
C 282.482821 85.432032 284.645145 80.21172 284.645145 74.769231 
C 284.645145 69.326742 282.482821 64.10643 278.6344 60.258009 
C 274.785979 56.409588 269.565667 54.247264 264.123178 54.247264 
C 258.680689 54.247264 253.460377 56.409588 249.611956 60.258009 
C 245.763535 64.10643 243.601211 69.326742 243.601211 74.769231 
C 243.601211 80.21172 245.763535 85.432032 249.611956 89.280453 
C 253.460377 93.128874 258.680689 95.291198 264.123178 95.291198 
z
" clip-path="url(#pef32f89cbb)" style="fill: #d62728; fill-opacity: 0.99; stroke: #d62728; stroke-opacity: 0.99"/>
    <path d="M 179.227853 122.824811 
C 184.665907 122.824811 189.881965 120.664249 193.72725 116.818964 
C 197.572535 112.973679 199.733097 107.757622 199.733097 102.319567 
C 199.733097 96.881513 197.572535 91.665455 193.72725 87.82017 
C 189.881965 83.974885 184.665907 81.814323 179.227853 81.814323 
C 173.789799 81.814323 168.573741 83.974885 164.728456 87.82017 
C 160.883171 91.665455 158.722609 96.881513 158.722609 102.319567 
C 158.722609 107.757622 160.883171 112.973679 164.728456 116.818964 
C 168.573741 120.664249 173.789799 122.824811 179.227853 122.824811 
z
" clip-path="url(#pef32f89cbb)" style="fill: #d62728; fill-opacity: 0.99; stroke: #d62728; stroke-opacity: 0.99"/>
    <path d="M 112.891618 182.22959 
C 118.263005 182.22959 123.415116 180.095516 127.213261 176.297372 
C 131.011405 172.499228 133.145479 167.347116 133.145479 161.975729 
C 133.145479 156.604342 131.011405 151.45223 127.213261 147.654086 
C 123.415116 143.855942 118.263005 141.721867 112.891618 141.721867 
C 107.520231 141.721867 102.368119 143.855942 98.569975 147.654086 
C 94.771831 151.45223 92.637756 156.604342 92.637756 161.975729 
C 92.637756 167.347116 94.771831 172.499228 98.569975 176.297372 
C 102.368119 180.095516 107.520231 182.22959 112.891618 182.22959 
z
" clip-path="url(#pef32f89cbb)" style="fill: #d62728; fill-opacity: 0.99; stroke: #d62728; stroke-opacity: 0.99"/>
    <path d="M 76.584583 263.67651 
C 81.95597 263.67651 87.108082 261.542436 90.906226 257.744292 
C 94.70437 253.946148 96.838445 248.794036 96.838445 243.422649 
C 96.838445 238.051262 94.70437 232.89915 90.906226 229.101006 
C 87.108082 225.302862 81.95597 223.168787 76.584583 223.168787 
C 71.213196 223.168787 66.061084 225.302862 62.26294 229.101006 
C 58.464796 232.89915 56.330722 238.051262 56.330722 243.422649 
C 56.330722 248.794036 58.464796 253.946148 62.26294 257.744292 
C 66.061084 261.542436 71.213196 263.67651 76.584583 263.67651 
z
" clip-path="url(#pef32f89cbb)" style="fill: #d62728; fill-opacity: 0.99; stroke: #d62728; stroke-opacity: 0.99"/>
    <path d="M 76.584596 352.739372 
C 81.931616 352.739372 87.060356 350.614979 90.841271 346.834064 
C 94.622185 343.05315 96.746579 337.92441 96.746579 332.577389 
C 96.746579 327.230369 94.622185 322.101629 90.841271 318.320715 
C 87.060356 314.5398 81.931616 312.415407 76.584596 312.415407 
C 71.237576 312.415407 66.108835 314.5398 62.327921 318.320715 
C 58.547007 322.101629 56.422613 327.230369 56.422613 332.577389 
C 56.422613 337.92441 58.547007 343.05315 62.327921 346.834064 
C 66.108835 350.614979 71.237576 352.739372 76.584596 352.739372 
z
" clip-path="url(#pef32f89cbb)" style="fill: #d62728; fill-opacity: 0.99; stroke: #d62728; stroke-opacity: 0.99"/>
    <path d="M 112.89163 434.186267 
C 118.238651 434.186267 123.367391 432.061873 127.148305 428.280959 
C 130.92922 424.500045 133.053613 419.371304 133.053613 414.024284 
C 133.053613 408.677264 130.92922 403.548524 127.148305 399.767609 
C 123.367391 395.986695 118.238651 393.862301 112.89163 393.862301 
C 107.54461 393.862301 102.41587 395.986695 98.634956 399.767609 
C 94.854041 403.548524 92.729647 408.677264 92.729647 414.024284 
C 92.729647 419.371304 94.854041 424.500045 98.634956 428.280959 
C 102.41587 432.061873 107.54461 434.186267 112.89163 434.186267 
z
" clip-path="url(#pef32f89cbb)" style="fill: #d62728; fill-opacity: 0.99; stroke: #d62728; stroke-opacity: 0.99"/>
    <path d="M 179.227885 493.44121 
C 184.468501 493.44121 189.495181 491.359091 193.200856 487.653416 
C 196.906531 483.947741 198.98865 478.921062 198.98865 473.680446 
C 198.98865 468.439829 196.906531 463.41315 193.200856 459.707475 
C 189.495181 456.0018 184.468501 453.919681 179.227885 453.919681 
C 173.987269 453.919681 168.960589 456.0018 165.254914 459.707475 
C 161.549239 463.41315 159.46712 468.439829 159.46712 473.680446 
C 159.46712 478.921062 161.549239 483.947741 165.254914 487.653416 
C 168.960589 491.359091 173.987269 493.44121 179.227885 493.44121 
z
" clip-path="url(#pef32f89cbb)" style="fill: #d62728; fill-opacity: 0.99; stroke: #d62728; stroke-opacity: 0.99"/>
    <path d="M 264.123216 520.775639 
C 269.306576 520.775639 274.278337 518.716268 277.943526 515.051079 
C 281.608715 511.38589 283.668086 506.414129 283.668086 501.230769 
C 283.668086 496.047409 281.608715 491.075648 277.943526 487.410459 
C 274.278337 483.745271 269.306576 481.6859 264.123216 481.6859 
C 258.939856 481.6859 253.968096 483.745271 250.302907 487.410459 
C 246.637718 491.075648 244.578347 496.047409 244.578347 501.230769 
C 244.578347 506.414129 246.637718 511.38589 250.302907 515.051079 
C 253.968096 518.716268 258.939856 520.775639 264.123216 520.775639 
z
" clip-path="url(#pef32f89cbb)" style="fill: #d62728; fill-opacity: 0.99; stroke: #d62728; stroke-opacity: 0.99"/>
    <path d="M 352.898441 511.446035 
C 358.079047 511.446035 363.048166 509.387758 366.711407 505.724516 
C 370.374649 502.061275 372.432926 497.092156 372.432926 491.91155 
C 372.432926 486.730944 370.374649 481.761824 366.711407 478.098583 
C 363.048166 474.435341 358.079047 472.377064 352.898441 472.377064 
C 347.717835 472.377064 342.748715 474.435341 339.085474 478.098583 
C 335.422232 481.761824 333.363955 486.730944 333.363955 491.91155 
C 333.363955 497.092156 335.422232 502.061275 339.085474 505.724516 
C 342.748715 509.387758 347.717835 511.446035 352.898441 511.446035 
z
" clip-path="url(#pef32f89cbb)" style="fill: #d62728; fill-opacity: 0.99; stroke: #d62728; stroke-opacity: 0.99"/>
    <path d="M 430.203528 466.806774 
C 435.367726 466.806774 440.321106 464.755017 443.972746 461.103377 
C 447.624385 457.451738 449.676142 452.498358 449.676142 447.33416 
C 449.676142 442.169962 447.624385 437.216582 443.972746 433.564943 
C 440.321106 429.913303 435.367726 427.861546 430.203528 427.861546 
C 425.039331 427.861546 420.08595 429.913303 416.434311 433.564943 
C 412.782672 437.216582 410.730914 442.169962 410.730914 447.33416 
C 410.730914 452.498358 412.782672 457.451738 416.434311 461.103377 
C 420.08595 464.755017 425.039331 466.806774 430.203528 466.806774 
z
" clip-path="url(#pef32f89cbb)" style="fill: #d62728; fill-opacity: 0.99; stroke: #d62728; stroke-opacity: 0.99"/>
    <path d="M 482.671713 394.571376 
C 487.807349 394.571376 492.733334 392.530967 496.364777 388.899524 
C 499.99622 385.268081 502.03663 380.342096 502.03663 375.20646 
C 502.03663 370.070824 499.99622 365.144839 496.364777 361.513396 
C 492.733334 357.881953 487.807349 355.841543 482.671713 355.841543 
C 477.536077 355.841543 472.610092 357.881953 468.978649 361.513396 
C 465.347206 365.144839 463.306796 370.070824 463.306796 375.20646 
C 463.306796 380.342096 465.347206 385.268081 468.978649 388.899524 
C 472.610092 392.530967 477.536077 394.571376 482.671713 394.571376 
z
" clip-path="url(#pef32f89cbb)" style="fill: #d62728; fill-opacity: 0.99; stroke: #d62728; stroke-opacity: 0.99"/>
   </g>
   <g id="text_1">
    <g id="patch_2">
     <path d="M 469.429129 296.315156 
L 533.03241 296.315156 
L 533.03241 279.684844 
L 469.429129 279.684844 
z
" clip-path="url(#pef32f89cbb)" style="fill: #ffffff; opacity: 0.7; stroke: #000000; stroke-linejoin: miter"/>
    </g>
    <g clip-path="url(#pef32f89cbb)">
     <!-- Woody Allen -->
     <g transform="translate(473.389129 290.483437)scale(0.09 -0.09)">
      <defs>
       <path id="DejaVuSans-57" d="M 213 4666 
L 850 4666 
L 1831 722 
L 2809 4666 
L 3519 4666 
L 4500 722 
L 5478 4666 
L 6119 4666 
L 4947 0 
L 4153 0 
L 3169 4050 
L 2175 0 
L 1381 0 
L 213 4666 
z
" transform="scale(0.015625)"/>
       <path id="DejaVuSans-6f" d="M 1959 3097 
Q 1497 3097 1228 2736 
Q 959 2375 959 1747 
Q 959 1119 1226 758 
Q 1494 397 1959 397 
Q 2419 397 2687 759 
Q 2956 1122 2956 1747 
Q 2956 2369 2687 2733 
Q 2419 3097 1959 3097 
z
M 1959 3584 
Q 2709 3584 3137 3096 
Q 3566 2609 3566 1747 
Q 3566 888 3137 398 
Q 2709 -91 1959 -91 
Q 1206 -91 779 398 
Q 353 888 353 1747 
Q 353 2609 779 3096 
Q 1206 3584 1959 3584 
z
" transform="scale(0.015625)"/>
       <path id="DejaVuSans-64" d="M 2906 2969 
L 2906 4863 
L 3481 4863 
L 3481 0 
L 2906 0 
L 2906 525 
Q 2725 213 2448 61 
Q 2172 -91 1784 -91 
Q 1150 -91 751 415 
Q 353 922 353 1747 
Q 353 2572 751 3078 
Q 1150 3584 1784 3584 
Q 2172 3584 2448 3432 
Q 2725 3281 2906 2969 
z
M 947 1747 
Q 947 1113 1208 752 
Q 1469 391 1925 391 
Q 2381 391 2643 752 
Q 2906 1113 2906 1747 
Q 2906 2381 2643 2742 
Q 2381 3103 1925 3103 
Q 1469 3103 1208 2742 
Q 947 2381 947 1747 
z
" transform="scale(0.015625)"/>
       <path id="DejaVuSans-79" d="M 2059 -325 
Q 1816 -950 1584 -1140 
Q 1353 -1331 966 -1331 
L 506 -1331 
L 506 -850 
L 844 -850 
Q 1081 -850 1212 -737 
Q 1344 -625 1503 -206 
L 1606 56 
L 191 3500 
L 800 3500 
L 1894 763 
L 2988 3500 
L 3597 3500 
L 2059 -325 
z
" transform="scale(0.015625)"/>
       <path id="DejaVuSans-20" transform="scale(0.015625)"/>
       <path id="DejaVuSans-41" d="M 2188 4044 
L 1331 1722 
L 3047 1722 
L 2188 4044 
z
M 1831 4666 
L 2547 4666 
L 4325 0 
L 3669 0 
L 3244 1197 
L 1141 1197 
L 716 0 
L 50 0 
L 1831 4666 
z
" transform="scale(0.015625)"/>
       <path id="DejaVuSans-6c" d="M 603 4863 
L 1178 4863 
L 1178 0 
L 603 0 
L 603 4863 
z
" transform="scale(0.015625)"/>
       <path id="DejaVuSans-65" d="M 3597 1894 
L 3597 1613 
L 953 1613 
Q 991 1019 1311 708 
Q 1631 397 2203 397 
Q 2534 397 2845 478 
Q 3156 559 3463 722 
L 3463 178 
Q 3153 47 2828 -22 
Q 2503 -91 2169 -91 
Q 1331 -91 842 396 
Q 353 884 353 1716 
Q 353 2575 817 3079 
Q 1281 3584 2069 3584 
Q 2775 3584 3186 3129 
Q 3597 2675 3597 1894 
z
M 3022 2063 
Q 3016 2534 2758 2815 
Q 2500 3097 2075 3097 
Q 1594 3097 1305 2825 
Q 1016 2553 972 2059 
L 3022 2063 
z
" transform="scale(0.015625)"/>
       <path id="DejaVuSans-6e" d="M 3513 2113 
L 3513 0 
L 2938 0 
L 2938 2094 
Q 2938 2591 2744 2837 
Q 2550 3084 2163 3084 
Q 1697 3084 1428 2787 
Q 1159 2491 1159 1978 
L 1159 0 
L 581 0 
L 581 3500 
L 1159 3500 
L 1159 2956 
Q 1366 3272 1645 3428 
Q 1925 3584 2291 3584 
Q 2894 3584 3203 3211 
Q 3513 2838 3513 2113 
z
" transform="scale(0.015625)"/>
      </defs>
      <use xlink:href="#DejaVuSans-57"/>
      <use xlink:href="#DejaVuSans-6f" x="93.001953"/>
      <use xlink:href="#DejaVuSans-6f" x="154.183594"/>
      <use xlink:href="#DejaVuSans-64" x="215.365234"/>
      <use xlink:href="#DejaVuSans-79" x="278.841797"/>
      <use xlink:href="#DejaVuSans-20" x="338.021484"/>
      <use xlink:href="#DejaVuSans-41" x="369.808594"/>
      <use xlink:href="#DejaVuSans-6c" x="438.216797"/>
      <use xlink:href="#DejaVuSans-6c" x="466"/>
      <use xlink:href="#DejaVuSans-65" x="493.783203"/>
      <use xlink:href="#DejaVuSans-6e" x="555.306641"/>
     </g>
    </g>
   </g>
   <g id="text_2">
    <g id="patch_3">
     <path d="M 448.001297 209.108665 
L 517.342078 209.108665 
L 517.342078 192.478352 
L 448.001297 192.478352 
z
" clip-path="url(#pef32f89cbb)" style="fill: #ffffff; opacity: 0.7; stroke: #000000; stroke-linejoin: miter"/>
    </g>
    <g clip-path="url(#pef32f89cbb)">
     <!-- Andy Tennant -->
     <g transform="translate(451.961297 203.276946)scale(0.09 -0.09)">
      <defs>
       <path id="DejaVuSans-54" d="M -19 4666 
L 3928 4666 
L 3928 4134 
L 2272 4134 
L 2272 0 
L 1638 0 
L 1638 4134 
L -19 4134 
L -19 4666 
z
" transform="scale(0.015625)"/>
       <path id="DejaVuSans-61" d="M 2194 1759 
Q 1497 1759 1228 1600 
Q 959 1441 959 1056 
Q 959 750 1161 570 
Q 1363 391 1709 391 
Q 2188 391 2477 730 
Q 2766 1069 2766 1631 
L 2766 1759 
L 2194 1759 
z
M 3341 1997 
L 3341 0 
L 2766 0 
L 2766 531 
Q 2569 213 2275 61 
Q 1981 -91 1556 -91 
Q 1019 -91 701 211 
Q 384 513 384 1019 
Q 384 1609 779 1909 
Q 1175 2209 1959 2209 
L 2766 2209 
L 2766 2266 
Q 2766 2663 2505 2880 
Q 2244 3097 1772 3097 
Q 1472 3097 1187 3025 
Q 903 2953 641 2809 
L 641 3341 
Q 956 3463 1253 3523 
Q 1550 3584 1831 3584 
Q 2591 3584 2966 3190 
Q 3341 2797 3341 1997 
z
" transform="scale(0.015625)"/>
       <path id="DejaVuSans-74" d="M 1172 4494 
L 1172 3500 
L 2356 3500 
L 2356 3053 
L 1172 3053 
L 1172 1153 
Q 1172 725 1289 603 
Q 1406 481 1766 481 
L 2356 481 
L 2356 0 
L 1766 0 
Q 1100 0 847 248 
Q 594 497 594 1153 
L 594 3053 
L 172 3053 
L 172 3500 
L 594 3500 
L 594 4494 
L 1172 4494 
z
" transform="scale(0.015625)"/>
      </defs>
      <use xlink:href="#DejaVuSans-41"/>
      <use xlink:href="#DejaVuSans-6e" x="68.408203"/>
      <use xlink:href="#DejaVuSans-64" x="131.787109"/>
      <use xlink:href="#DejaVuSans-79" x="195.263672"/>
      <use xlink:href="#DejaVuSans-20" x="254.443359"/>
      <use xlink:href="#DejaVuSans-54" x="286.230469"/>
      <use xlink:href="#DejaVuSans-65" x="330.314453"/>
      <use xlink:href="#DejaVuSans-6e" x="391.837891"/>
      <use xlink:href="#DejaVuSans-6e" x="455.216797"/>
      <use xlink:href="#DejaVuSans-61" x="518.595703"/>
      <use xlink:href="#DejaVuSans-6e" x="579.875"/>
      <use xlink:href="#DejaVuSans-74" x="643.253906"/>
     </g>
    </g>
   </g>
   <g id="text_3">
    <g id="patch_4">
     <path d="M 394.421459 136.980958 
L 465.985521 136.980958 
L 465.985521 120.350645 
L 394.421459 120.350645 
z
" clip-path="url(#pef32f89cbb)" style="fill: #ffffff; opacity: 0.7; stroke: #000000; stroke-linejoin: miter"/>
    </g>
    <g clip-path="url(#pef32f89cbb)">
     <!-- Nancy Meyers -->
     <g transform="translate(398.381459 131.149239)scale(0.09 -0.09)">
      <defs>
       <path id="DejaVuSans-4e" d="M 628 4666 
L 1478 4666 
L 3547 763 
L 3547 4666 
L 4159 4666 
L 4159 0 
L 3309 0 
L 1241 3903 
L 1241 0 
L 628 0 
L 628 4666 
z
" transform="scale(0.015625)"/>
       <path id="DejaVuSans-63" d="M 3122 3366 
L 3122 2828 
Q 2878 2963 2633 3030 
Q 2388 3097 2138 3097 
Q 1578 3097 1268 2742 
Q 959 2388 959 1747 
Q 959 1106 1268 751 
Q 1578 397 2138 397 
Q 2388 397 2633 464 
Q 2878 531 3122 666 
L 3122 134 
Q 2881 22 2623 -34 
Q 2366 -91 2075 -91 
Q 1284 -91 818 406 
Q 353 903 353 1747 
Q 353 2603 823 3093 
Q 1294 3584 2113 3584 
Q 2378 3584 2631 3529 
Q 2884 3475 3122 3366 
z
" transform="scale(0.015625)"/>
       <path id="DejaVuSans-4d" d="M 628 4666 
L 1569 4666 
L 2759 1491 
L 3956 4666 
L 4897 4666 
L 4897 0 
L 4281 0 
L 4281 4097 
L 3078 897 
L 2444 897 
L 1241 4097 
L 1241 0 
L 628 0 
L 628 4666 
z
" transform="scale(0.015625)"/>
       <path id="DejaVuSans-72" d="M 2631 2963 
Q 2534 3019 2420 3045 
Q 2306 3072 2169 3072 
Q 1681 3072 1420 2755 
Q 1159 2438 1159 1844 
L 1159 0 
L 581 0 
L 581 3500 
L 1159 3500 
L 1159 2956 
Q 1341 3275 1631 3429 
Q 1922 3584 2338 3584 
Q 2397 3584 2469 3576 
Q 2541 3569 2628 3553 
L 2631 2963 
z
" transform="scale(0.015625)"/>
       <path id="DejaVuSans-73" d="M 2834 3397 
L 2834 2853 
Q 2591 2978 2328 3040 
Q 2066 3103 1784 3103 
Q 1356 3103 1142 2972 
Q 928 2841 928 2578 
Q 928 2378 1081 2264 
Q 1234 2150 1697 2047 
L 1894 2003 
Q 2506 1872 2764 1633 
Q 3022 1394 3022 966 
Q 3022 478 2636 193 
Q 2250 -91 1575 -91 
Q 1294 -91 989 -36 
Q 684 19 347 128 
L 347 722 
Q 666 556 975 473 
Q 1284 391 1588 391 
Q 1994 391 2212 530 
Q 2431 669 2431 922 
Q 2431 1156 2273 1281 
Q 2116 1406 1581 1522 
L 1381 1569 
Q 847 1681 609 1914 
Q 372 2147 372 2553 
Q 372 3047 722 3315 
Q 1072 3584 1716 3584 
Q 2034 3584 2315 3537 
Q 2597 3491 2834 3397 
z
" transform="scale(0.015625)"/>
      </defs>
      <use xlink:href="#DejaVuSans-4e"/>
      <use xlink:href="#DejaVuSans-61" x="74.804688"/>
      <use xlink:href="#DejaVuSans-6e" x="136.083984"/>
      <use xlink:href="#DejaVuSans-63" x="199.462891"/>
      <use xlink:href="#DejaVuSans-79" x="254.443359"/>
      <use xlink:href="#DejaVuSans-20" x="313.623047"/>
      <use xlink:href="#DejaVuSans-4d" x="345.410156"/>
      <use xlink:href="#DejaVuSans-65" x="431.689453"/>
      <use xlink:href="#DejaVuSans-79" x="493.212891"/>
      <use xlink:href="#DejaVuSans-65" x="552.392578"/>
      <use xlink:href="#DejaVuSans-72" x="613.916016"/>
      <use xlink:href="#DejaVuSans-73" x="655.029297"/>
     </g>
    </g>
   </g>
   <g id="text_4">
    <g id="patch_5">
     <path d="M 324.559659 92.403594 
L 381.237159 92.403594 
L 381.237159 75.773281 
L 324.559659 75.773281 
z
" clip-path="url(#pef32f89cbb)" style="fill: #ffffff; opacity: 0.7; stroke: #000000; stroke-linejoin: miter"/>
    </g>
    <g clip-path="url(#pef32f89cbb)">
     <!-- Rob Reiner -->
     <g transform="translate(328.519659 86.571875)scale(0.09 -0.09)">
      <defs>
       <path id="DejaVuSans-52" d="M 2841 2188 
Q 3044 2119 3236 1894 
Q 3428 1669 3622 1275 
L 4263 0 
L 3584 0 
L 2988 1197 
Q 2756 1666 2539 1819 
Q 2322 1972 1947 1972 
L 1259 1972 
L 1259 0 
L 628 0 
L 628 4666 
L 2053 4666 
Q 2853 4666 3247 4331 
Q 3641 3997 3641 3322 
Q 3641 2881 3436 2590 
Q 3231 2300 2841 2188 
z
M 1259 4147 
L 1259 2491 
L 2053 2491 
Q 2509 2491 2742 2702 
Q 2975 2913 2975 3322 
Q 2975 3731 2742 3939 
Q 2509 4147 2053 4147 
L 1259 4147 
z
" transform="scale(0.015625)"/>
       <path id="DejaVuSans-62" d="M 3116 1747 
Q 3116 2381 2855 2742 
Q 2594 3103 2138 3103 
Q 1681 3103 1420 2742 
Q 1159 2381 1159 1747 
Q 1159 1113 1420 752 
Q 1681 391 2138 391 
Q 2594 391 2855 752 
Q 3116 1113 3116 1747 
z
M 1159 2969 
Q 1341 3281 1617 3432 
Q 1894 3584 2278 3584 
Q 2916 3584 3314 3078 
Q 3713 2572 3713 1747 
Q 3713 922 3314 415 
Q 2916 -91 2278 -91 
Q 1894 -91 1617 61 
Q 1341 213 1159 525 
L 1159 0 
L 581 0 
L 581 4863 
L 1159 4863 
L 1159 2969 
z
" transform="scale(0.015625)"/>
       <path id="DejaVuSans-69" d="M 603 3500 
L 1178 3500 
L 1178 0 
L 603 0 
L 603 3500 
z
M 603 4863 
L 1178 4863 
L 1178 4134 
L 603 4134 
L 603 4863 
z
" transform="scale(0.015625)"/>
      </defs>
      <use xlink:href="#DejaVuSans-52"/>
      <use xlink:href="#DejaVuSans-6f" x="64.982422"/>
      <use xlink:href="#DejaVuSans-62" x="126.164062"/>
      <use xlink:href="#DejaVuSans-20" x="189.640625"/>
      <use xlink:href="#DejaVuSans-52" x="221.427734"/>
      <use xlink:href="#DejaVuSans-65" x="286.410156"/>
      <use xlink:href="#DejaVuSans-69" x="347.933594"/>
      <use xlink:href="#DejaVuSans-6e" x="375.716797"/>
      <use xlink:href="#DejaVuSans-65" x="439.095703"/>
      <use xlink:href="#DejaVuSans-72" x="500.619141"/>
     </g>
    </g>
   </g>
   <g id="text_5">
    <g id="patch_6">
     <path d="M 233.000053 83.084387 
L 295.246303 83.084387 
L 295.246303 66.454075 
L 233.000053 66.454075 
z
" clip-path="url(#pef32f89cbb)" style="fill: #ffffff; opacity: 0.7; stroke: #000000; stroke-linejoin: miter"/>
    </g>
    <g clip-path="url(#pef32f89cbb)">
     <!-- Ron Howard -->
     <g transform="translate(236.960053 77.252668)scale(0.09 -0.09)">
      <defs>
       <path id="DejaVuSans-48" d="M 628 4666 
L 1259 4666 
L 1259 2753 
L 3553 2753 
L 3553 4666 
L 4184 4666 
L 4184 0 
L 3553 0 
L 3553 2222 
L 1259 2222 
L 1259 0 
L 628 0 
L 628 4666 
z
" transform="scale(0.015625)"/>
       <path id="DejaVuSans-77" d="M 269 3500 
L 844 3500 
L 1563 769 
L 2278 3500 
L 2956 3500 
L 3675 769 
L 4391 3500 
L 4966 3500 
L 4050 0 
L 3372 0 
L 2619 2869 
L 1863 0 
L 1184 0 
L 269 3500 
z
" transform="scale(0.015625)"/>
      </defs>
      <use xlink:href="#DejaVuSans-52"/>
      <use xlink:href="#DejaVuSans-6f" x="64.982422"/>
      <use xlink:href="#DejaVuSans-6e" x="126.164062"/>
      <use xlink:href="#DejaVuSans-20" x="189.542969"/>
      <use xlink:href="#DejaVuSans-48" x="221.330078"/>
      <use xlink:href="#DejaVuSans-6f" x="296.525391"/>
      <use xlink:href="#DejaVuSans-77" x="357.707031"/>
      <use xlink:href="#DejaVuSans-61" x="439.494141"/>
      <use xlink:href="#DejaVuSans-72" x="500.773438"/>
      <use xlink:href="#DejaVuSans-64" x="540.136719"/>
     </g>
    </g>
   </g>
   <g id="text_6">
    <g id="patch_7">
     <path d="M 145.536915 110.634724 
L 212.91879 110.634724 
L 212.91879 94.004411 
L 145.536915 94.004411 
z
" clip-path="url(#pef32f89cbb)" style="fill: #ffffff; opacity: 0.7; stroke: #000000; stroke-linejoin: miter"/>
    </g>
    <g clip-path="url(#pef32f89cbb)">
     <!-- Ivan Reitman -->
     <g transform="translate(149.496915 104.803005)scale(0.09 -0.09)">
      <defs>
       <path id="DejaVuSans-49" d="M 628 4666 
L 1259 4666 
L 1259 0 
L 628 0 
L 628 4666 
z
" transform="scale(0.015625)"/>
       <path id="DejaVuSans-76" d="M 191 3500 
L 800 3500 
L 1894 563 
L 2988 3500 
L 3597 3500 
L 2284 0 
L 1503 0 
L 191 3500 
z
" transform="scale(0.015625)"/>
       <path id="DejaVuSans-6d" d="M 3328 2828 
Q 3544 3216 3844 3400 
Q 4144 3584 4550 3584 
Q 5097 3584 5394 3201 
Q 5691 2819 5691 2113 
L 5691 0 
L 5113 0 
L 5113 2094 
Q 5113 2597 4934 2840 
Q 4756 3084 4391 3084 
Q 3944 3084 3684 2787 
Q 3425 2491 3425 1978 
L 3425 0 
L 2847 0 
L 2847 2094 
Q 2847 2600 2669 2842 
Q 2491 3084 2119 3084 
Q 1678 3084 1418 2786 
Q 1159 2488 1159 1978 
L 1159 0 
L 581 0 
L 581 3500 
L 1159 3500 
L 1159 2956 
Q 1356 3278 1631 3431 
Q 1906 3584 2284 3584 
Q 2666 3584 2933 3390 
Q 3200 3197 3328 2828 
z
" transform="scale(0.015625)"/>
      </defs>
      <use xlink:href="#DejaVuSans-49"/>
      <use xlink:href="#DejaVuSans-76" x="29.492188"/>
      <use xlink:href="#DejaVuSans-61" x="88.671875"/>
      <use xlink:href="#DejaVuSans-6e" x="149.951172"/>
      <use xlink:href="#DejaVuSans-20" x="213.330078"/>
      <use xlink:href="#DejaVuSans-52" x="245.117188"/>
      <use xlink:href="#DejaVuSans-65" x="310.099609"/>
      <use xlink:href="#DejaVuSans-69" x="371.623047"/>
      <use xlink:href="#DejaVuSans-74" x="399.40625"/>
      <use xlink:href="#DejaVuSans-6d" x="438.615234"/>
      <use xlink:href="#DejaVuSans-61" x="536.027344"/>
      <use xlink:href="#DejaVuSans-6e" x="597.306641"/>
     </g>
    </g>
   </g>
   <g id="text_7">
    <g id="patch_8">
     <path d="M 79.411618 170.290885 
L 146.371618 170.290885 
L 146.371618 153.660572 
L 79.411618 153.660572 
z
" clip-path="url(#pef32f89cbb)" style="fill: #ffffff; opacity: 0.7; stroke: #000000; stroke-linejoin: miter"/>
    </g>
    <g clip-path="url(#pef32f89cbb)">
     <!-- Peter Farrelly -->
     <g transform="translate(83.371618 164.459166)scale(0.09 -0.09)">
      <defs>
       <path id="DejaVuSans-50" d="M 1259 4147 
L 1259 2394 
L 2053 2394 
Q 2494 2394 2734 2622 
Q 2975 2850 2975 3272 
Q 2975 3691 2734 3919 
Q 2494 4147 2053 4147 
L 1259 4147 
z
M 628 4666 
L 2053 4666 
Q 2838 4666 3239 4311 
Q 3641 3956 3641 3272 
Q 3641 2581 3239 2228 
Q 2838 1875 2053 1875 
L 1259 1875 
L 1259 0 
L 628 0 
L 628 4666 
z
" transform="scale(0.015625)"/>
       <path id="DejaVuSans-46" d="M 628 4666 
L 3309 4666 
L 3309 4134 
L 1259 4134 
L 1259 2759 
L 3109 2759 
L 3109 2228 
L 1259 2228 
L 1259 0 
L 628 0 
L 628 4666 
z
" transform="scale(0.015625)"/>
      </defs>
      <use xlink:href="#DejaVuSans-50"/>
      <use xlink:href="#DejaVuSans-65" x="56.677734"/>
      <use xlink:href="#DejaVuSans-74" x="118.201172"/>
      <use xlink:href="#DejaVuSans-65" x="157.410156"/>
      <use xlink:href="#DejaVuSans-72" x="218.933594"/>
      <use xlink:href="#DejaVuSans-20" x="260.046875"/>
      <use xlink:href="#DejaVuSans-46" x="291.833984"/>
      <use xlink:href="#DejaVuSans-61" x="340.228516"/>
      <use xlink:href="#DejaVuSans-72" x="401.507812"/>
      <use xlink:href="#DejaVuSans-72" x="440.871094"/>
      <use xlink:href="#DejaVuSans-65" x="479.734375"/>
      <use xlink:href="#DejaVuSans-6c" x="541.257812"/>
      <use xlink:href="#DejaVuSans-6c" x="569.041016"/>
      <use xlink:href="#DejaVuSans-79" x="596.824219"/>
     </g>
    </g>
   </g>
   <g id="text_8">
    <g id="patch_9">
     <path d="M 40.588802 251.737805 
L 112.580364 251.737805 
L 112.580364 235.107493 
L 40.588802 235.107493 
z
" clip-path="url(#pef32f89cbb)" style="fill: #ffffff; opacity: 0.7; stroke: #000000; stroke-linejoin: miter"/>
    </g>
    <g clip-path="url(#pef32f89cbb)">
     <!-- Bobby Farrelly -->
     <g transform="translate(44.548802 245.906086)scale(0.09 -0.09)">
      <defs>
       <path id="DejaVuSans-42" d="M 1259 2228 
L 1259 519 
L 2272 519 
Q 2781 519 3026 730 
Q 3272 941 3272 1375 
Q 3272 1813 3026 2020 
Q 2781 2228 2272 2228 
L 1259 2228 
z
M 1259 4147 
L 1259 2741 
L 2194 2741 
Q 2656 2741 2882 2914 
Q 3109 3088 3109 3444 
Q 3109 3797 2882 3972 
Q 2656 4147 2194 4147 
L 1259 4147 
z
M 628 4666 
L 2241 4666 
Q 2963 4666 3353 4366 
Q 3744 4066 3744 3513 
Q 3744 3084 3544 2831 
Q 3344 2578 2956 2516 
Q 3422 2416 3680 2098 
Q 3938 1781 3938 1306 
Q 3938 681 3513 340 
Q 3088 0 2303 0 
L 628 0 
L 628 4666 
z
" transform="scale(0.015625)"/>
      </defs>
      <use xlink:href="#DejaVuSans-42"/>
      <use xlink:href="#DejaVuSans-6f" x="68.603516"/>
      <use xlink:href="#DejaVuSans-62" x="129.785156"/>
      <use xlink:href="#DejaVuSans-62" x="193.261719"/>
      <use xlink:href="#DejaVuSans-79" x="256.738281"/>
      <use xlink:href="#DejaVuSans-20" x="315.917969"/>
      <use xlink:href="#DejaVuSans-46" x="347.705078"/>
      <use xlink:href="#DejaVuSans-61" x="396.099609"/>
      <use xlink:href="#DejaVuSans-72" x="457.378906"/>
      <use xlink:href="#DejaVuSans-72" x="496.742188"/>
      <use xlink:href="#DejaVuSans-65" x="535.605469"/>
      <use xlink:href="#DejaVuSans-6c" x="597.128906"/>
      <use xlink:href="#DejaVuSans-6c" x="624.912109"/>
      <use xlink:href="#DejaVuSans-79" x="652.695312"/>
     </g>
    </g>
   </g>
   <g id="text_9">
    <g id="patch_10">
     <path d="M 45.269518 340.892546 
L 107.899674 340.892546 
L 107.899674 324.262233 
L 45.269518 324.262233 
z
" clip-path="url(#pef32f89cbb)" style="fill: #ffffff; opacity: 0.7; stroke: #000000; stroke-linejoin: miter"/>
    </g>
    <g clip-path="url(#pef32f89cbb)">
     <!-- John Musker -->
     <g transform="translate(49.229518 335.060827)scale(0.09 -0.09)">
      <defs>
       <path id="DejaVuSans-4a" d="M 628 4666 
L 1259 4666 
L 1259 325 
Q 1259 -519 939 -900 
Q 619 -1281 -91 -1281 
L -331 -1281 
L -331 -750 
L -134 -750 
Q 284 -750 456 -515 
Q 628 -281 628 325 
L 628 4666 
z
" transform="scale(0.015625)"/>
       <path id="DejaVuSans-68" d="M 3513 2113 
L 3513 0 
L 2938 0 
L 2938 2094 
Q 2938 2591 2744 2837 
Q 2550 3084 2163 3084 
Q 1697 3084 1428 2787 
Q 1159 2491 1159 1978 
L 1159 0 
L 581 0 
L 581 4863 
L 1159 4863 
L 1159 2956 
Q 1366 3272 1645 3428 
Q 1925 3584 2291 3584 
Q 2894 3584 3203 3211 
Q 3513 2838 3513 2113 
z
" transform="scale(0.015625)"/>
       <path id="DejaVuSans-75" d="M 544 1381 
L 544 3500 
L 1119 3500 
L 1119 1403 
Q 1119 906 1312 657 
Q 1506 409 1894 409 
Q 2359 409 2629 706 
Q 2900 1003 2900 1516 
L 2900 3500 
L 3475 3500 
L 3475 0 
L 2900 0 
L 2900 538 
Q 2691 219 2414 64 
Q 2138 -91 1772 -91 
Q 1169 -91 856 284 
Q 544 659 544 1381 
z
M 1991 3584 
L 1991 3584 
z
" transform="scale(0.015625)"/>
       <path id="DejaVuSans-6b" d="M 581 4863 
L 1159 4863 
L 1159 1991 
L 2875 3500 
L 3609 3500 
L 1753 1863 
L 3688 0 
L 2938 0 
L 1159 1709 
L 1159 0 
L 581 0 
L 581 4863 
z
" transform="scale(0.015625)"/>
      </defs>
      <use xlink:href="#DejaVuSans-4a"/>
      <use xlink:href="#DejaVuSans-6f" x="29.492188"/>
      <use xlink:href="#DejaVuSans-68" x="90.673828"/>
      <use xlink:href="#DejaVuSans-6e" x="154.052734"/>
      <use xlink:href="#DejaVuSans-20" x="217.431641"/>
      <use xlink:href="#DejaVuSans-4d" x="249.21875"/>
      <use xlink:href="#DejaVuSans-75" x="335.498047"/>
      <use xlink:href="#DejaVuSans-73" x="398.876953"/>
      <use xlink:href="#DejaVuSans-6b" x="450.976562"/>
      <use xlink:href="#DejaVuSans-65" x="505.261719"/>
      <use xlink:href="#DejaVuSans-72" x="566.785156"/>
     </g>
    </g>
   </g>
   <g id="text_10">
    <g id="patch_11">
     <path d="M 77.698115 422.33944 
L 148.085146 422.33944 
L 148.085146 405.709128 
L 77.698115 405.709128 
z
" clip-path="url(#pef32f89cbb)" style="fill: #ffffff; opacity: 0.7; stroke: #000000; stroke-linejoin: miter"/>
    </g>
    <g clip-path="url(#pef32f89cbb)">
     <!-- Ron Clements -->
     <g transform="translate(81.658115 416.507722)scale(0.09 -0.09)">
      <defs>
       <path id="DejaVuSans-43" d="M 4122 4306 
L 4122 3641 
Q 3803 3938 3442 4084 
Q 3081 4231 2675 4231 
Q 1875 4231 1450 3742 
Q 1025 3253 1025 2328 
Q 1025 1406 1450 917 
Q 1875 428 2675 428 
Q 3081 428 3442 575 
Q 3803 722 4122 1019 
L 4122 359 
Q 3791 134 3420 21 
Q 3050 -91 2638 -91 
Q 1578 -91 968 557 
Q 359 1206 359 2328 
Q 359 3453 968 4101 
Q 1578 4750 2638 4750 
Q 3056 4750 3426 4639 
Q 3797 4528 4122 4306 
z
" transform="scale(0.015625)"/>
      </defs>
      <use xlink:href="#DejaVuSans-52"/>
      <use xlink:href="#DejaVuSans-6f" x="64.982422"/>
      <use xlink:href="#DejaVuSans-6e" x="126.164062"/>
      <use xlink:href="#DejaVuSans-20" x="189.542969"/>
      <use xlink:href="#DejaVuSans-43" x="221.330078"/>
      <use xlink:href="#DejaVuSans-6c" x="291.154297"/>
      <use xlink:href="#DejaVuSans-65" x="318.9375"/>
      <use xlink:href="#DejaVuSans-6d" x="380.460938"/>
      <use xlink:href="#DejaVuSans-65" x="477.873047"/>
      <use xlink:href="#DejaVuSans-6e" x="539.396484"/>
      <use xlink:href="#DejaVuSans-74" x="602.775391"/>
      <use xlink:href="#DejaVuSans-73" x="641.984375"/>
     </g>
    </g>
   </g>
   <g id="text_11">
    <g id="patch_12">
     <path d="M 141.53476 481.995602 
L 216.92101 481.995602 
L 216.92101 465.365289 
L 141.53476 465.365289 
z
" clip-path="url(#pef32f89cbb)" style="fill: #ffffff; opacity: 0.7; stroke: #000000; stroke-linejoin: miter"/>
    </g>
    <g clip-path="url(#pef32f89cbb)">
     <!-- Sydney Pollack -->
     <g transform="translate(145.49476 476.163883)scale(0.09 -0.09)">
      <defs>
       <path id="DejaVuSans-53" d="M 3425 4513 
L 3425 3897 
Q 3066 4069 2747 4153 
Q 2428 4238 2131 4238 
Q 1616 4238 1336 4038 
Q 1056 3838 1056 3469 
Q 1056 3159 1242 3001 
Q 1428 2844 1947 2747 
L 2328 2669 
Q 3034 2534 3370 2195 
Q 3706 1856 3706 1288 
Q 3706 609 3251 259 
Q 2797 -91 1919 -91 
Q 1588 -91 1214 -16 
Q 841 59 441 206 
L 441 856 
Q 825 641 1194 531 
Q 1563 422 1919 422 
Q 2459 422 2753 634 
Q 3047 847 3047 1241 
Q 3047 1584 2836 1778 
Q 2625 1972 2144 2069 
L 1759 2144 
Q 1053 2284 737 2584 
Q 422 2884 422 3419 
Q 422 4038 858 4394 
Q 1294 4750 2059 4750 
Q 2388 4750 2728 4690 
Q 3069 4631 3425 4513 
z
" transform="scale(0.015625)"/>
      </defs>
      <use xlink:href="#DejaVuSans-53"/>
      <use xlink:href="#DejaVuSans-79" x="63.476562"/>
      <use xlink:href="#DejaVuSans-64" x="122.65625"/>
      <use xlink:href="#DejaVuSans-6e" x="186.132812"/>
      <use xlink:href="#DejaVuSans-65" x="249.511719"/>
      <use xlink:href="#DejaVuSans-79" x="311.035156"/>
      <use xlink:href="#DejaVuSans-20" x="370.214844"/>
      <use xlink:href="#DejaVuSans-50" x="402.001953"/>
      <use xlink:href="#DejaVuSans-6f" x="458.679688"/>
      <use xlink:href="#DejaVuSans-6c" x="519.861328"/>
      <use xlink:href="#DejaVuSans-6c" x="547.644531"/>
      <use xlink:href="#DejaVuSans-61" x="575.427734"/>
      <use xlink:href="#DejaVuSans-63" x="636.707031"/>
      <use xlink:href="#DejaVuSans-6b" x="691.6875"/>
     </g>
    </g>
   </g>
   <g id="text_12">
    <g id="patch_13">
     <path d="M 224.374857 509.545925 
L 303.871576 509.545925 
L 303.871576 492.915613 
L 224.374857 492.915613 
z
" clip-path="url(#pef32f89cbb)" style="fill: #ffffff; opacity: 0.7; stroke: #000000; stroke-linejoin: miter"/>
    </g>
    <g clip-path="url(#pef32f89cbb)">
     <!-- Lasse Hallström -->
     <g transform="translate(228.334857 503.714207)scale(0.09 -0.09)">
      <defs>
       <path id="DejaVuSans-4c" d="M 628 4666 
L 1259 4666 
L 1259 531 
L 3531 531 
L 3531 0 
L 628 0 
L 628 4666 
z
" transform="scale(0.015625)"/>
       <path id="DejaVuSans-f6" d="M 1959 3097 
Q 1497 3097 1228 2736 
Q 959 2375 959 1747 
Q 959 1119 1226 758 
Q 1494 397 1959 397 
Q 2419 397 2687 759 
Q 2956 1122 2956 1747 
Q 2956 2369 2687 2733 
Q 2419 3097 1959 3097 
z
M 1959 3584 
Q 2709 3584 3137 3096 
Q 3566 2609 3566 1747 
Q 3566 888 3137 398 
Q 2709 -91 1959 -91 
Q 1206 -91 779 398 
Q 353 888 353 1747 
Q 353 2609 779 3096 
Q 1206 3584 1959 3584 
z
M 2253 4850 
L 2888 4850 
L 2888 4219 
L 2253 4219 
L 2253 4850 
z
M 1031 4850 
L 1666 4850 
L 1666 4219 
L 1031 4219 
L 1031 4850 
z
" transform="scale(0.015625)"/>
      </defs>
      <use xlink:href="#DejaVuSans-4c"/>
      <use xlink:href="#DejaVuSans-61" x="55.712891"/>
      <use xlink:href="#DejaVuSans-73" x="116.992188"/>
      <use xlink:href="#DejaVuSans-73" x="169.091797"/>
      <use xlink:href="#DejaVuSans-65" x="221.191406"/>
      <use xlink:href="#DejaVuSans-20" x="282.714844"/>
      <use xlink:href="#DejaVuSans-48" x="314.501953"/>
      <use xlink:href="#DejaVuSans-61" x="389.697266"/>
      <use xlink:href="#DejaVuSans-6c" x="450.976562"/>
      <use xlink:href="#DejaVuSans-6c" x="478.759766"/>
      <use xlink:href="#DejaVuSans-73" x="506.542969"/>
      <use xlink:href="#DejaVuSans-74" x="558.642578"/>
      <use xlink:href="#DejaVuSans-72" x="597.851562"/>
      <use xlink:href="#DejaVuSans-f6" x="636.714844"/>
      <use xlink:href="#DejaVuSans-6d" x="697.896484"/>
     </g>
    </g>
   </g>
   <g id="text_13">
    <g id="patch_14">
     <path d="M 321.657191 500.226706 
L 384.139691 500.226706 
L 384.139691 483.596393 
L 321.657191 483.596393 
z
" clip-path="url(#pef32f89cbb)" style="fill: #ffffff; opacity: 0.7; stroke: #000000; stroke-linejoin: miter"/>
    </g>
    <g clip-path="url(#pef32f89cbb)">
     <!-- Jerry Zucker -->
     <g transform="translate(325.617191 494.394987)scale(0.09 -0.09)">
      <defs>
       <path id="DejaVuSans-5a" d="M 359 4666 
L 4025 4666 
L 4025 4184 
L 1075 531 
L 4097 531 
L 4097 0 
L 288 0 
L 288 481 
L 3238 4134 
L 359 4134 
L 359 4666 
z
" transform="scale(0.015625)"/>
      </defs>
      <use xlink:href="#DejaVuSans-4a"/>
      <use xlink:href="#DejaVuSans-65" x="29.492188"/>
      <use xlink:href="#DejaVuSans-72" x="91.015625"/>
      <use xlink:href="#DejaVuSans-72" x="130.378906"/>
      <use xlink:href="#DejaVuSans-79" x="171.492188"/>
      <use xlink:href="#DejaVuSans-20" x="230.671875"/>
      <use xlink:href="#DejaVuSans-5a" x="262.458984"/>
      <use xlink:href="#DejaVuSans-75" x="330.964844"/>
      <use xlink:href="#DejaVuSans-63" x="394.34375"/>
      <use xlink:href="#DejaVuSans-6b" x="449.324219"/>
      <use xlink:href="#DejaVuSans-65" x="503.609375"/>
      <use xlink:href="#DejaVuSans-72" x="565.132812"/>
     </g>
    </g>
   </g>
   <g id="text_14">
    <g id="patch_15">
     <path d="M 390.571184 455.649316 
L 469.835872 455.649316 
L 469.835872 439.019004 
L 390.571184 439.019004 
z
" clip-path="url(#pef32f89cbb)" style="fill: #ffffff; opacity: 0.7; stroke: #000000; stroke-linejoin: miter"/>
    </g>
    <g clip-path="url(#pef32f89cbb)">
     <!-- James L. Brooks -->
     <g transform="translate(394.531184 449.817598)scale(0.09 -0.09)">
      <defs>
       <path id="DejaVuSans-2e" d="M 684 794 
L 1344 794 
L 1344 0 
L 684 0 
L 684 794 
z
" transform="scale(0.015625)"/>
      </defs>
      <use xlink:href="#DejaVuSans-4a"/>
      <use xlink:href="#DejaVuSans-61" x="29.492188"/>
      <use xlink:href="#DejaVuSans-6d" x="90.771484"/>
      <use xlink:href="#DejaVuSans-65" x="188.183594"/>
      <use xlink:href="#DejaVuSans-73" x="249.707031"/>
      <use xlink:href="#DejaVuSans-20" x="301.806641"/>
      <use xlink:href="#DejaVuSans-4c" x="333.59375"/>
      <use xlink:href="#DejaVuSans-2e" x="389.306641"/>
      <use xlink:href="#DejaVuSans-20" x="421.09375"/>
      <use xlink:href="#DejaVuSans-42" x="452.880859"/>
      <use xlink:href="#DejaVuSans-72" x="521.484375"/>
      <use xlink:href="#DejaVuSans-6f" x="560.347656"/>
      <use xlink:href="#DejaVuSans-6f" x="621.529297"/>
      <use xlink:href="#DejaVuSans-6b" x="682.710938"/>
      <use xlink:href="#DejaVuSans-73" x="740.621094"/>
     </g>
    </g>
   </g>
   <g id="text_15">
    <g id="patch_16">
     <path d="M 450.647885 383.521616 
L 514.695541 383.521616 
L 514.695541 366.891303 
L 450.647885 366.891303 
z
" clip-path="url(#pef32f89cbb)" style="fill: #ffffff; opacity: 0.7; stroke: #000000; stroke-linejoin: miter"/>
    </g>
    <g clip-path="url(#pef32f89cbb)">
     <!-- Nora Ephron -->
     <g transform="translate(454.607885 377.689897)scale(0.09 -0.09)">
      <defs>
       <path id="DejaVuSans-45" d="M 628 4666 
L 3578 4666 
L 3578 4134 
L 1259 4134 
L 1259 2753 
L 3481 2753 
L 3481 2222 
L 1259 2222 
L 1259 531 
L 3634 531 
L 3634 0 
L 628 0 
L 628 4666 
z
" transform="scale(0.015625)"/>
       <path id="DejaVuSans-70" d="M 1159 525 
L 1159 -1331 
L 581 -1331 
L 581 3500 
L 1159 3500 
L 1159 2969 
Q 1341 3281 1617 3432 
Q 1894 3584 2278 3584 
Q 2916 3584 3314 3078 
Q 3713 2572 3713 1747 
Q 3713 922 3314 415 
Q 2916 -91 2278 -91 
Q 1894 -91 1617 61 
Q 1341 213 1159 525 
z
M 3116 1747 
Q 3116 2381 2855 2742 
Q 2594 3103 2138 3103 
Q 1681 3103 1420 2742 
Q 1159 2381 1159 1747 
Q 1159 1113 1420 752 
Q 1681 391 2138 391 
Q 2594 391 2855 752 
Q 3116 1113 3116 1747 
z
" transform="scale(0.015625)"/>
      </defs>
      <use xlink:href="#DejaVuSans-4e"/>
      <use xlink:href="#DejaVuSans-6f" x="74.804688"/>
      <use xlink:href="#DejaVuSans-72" x="135.986328"/>
      <use xlink:href="#DejaVuSans-61" x="177.099609"/>
      <use xlink:href="#DejaVuSans-20" x="238.378906"/>
      <use xlink:href="#DejaVuSans-45" x="270.166016"/>
      <use xlink:href="#DejaVuSans-70" x="333.349609"/>
      <use xlink:href="#DejaVuSans-68" x="396.826172"/>
      <use xlink:href="#DejaVuSans-72" x="460.205078"/>
      <use xlink:href="#DejaVuSans-6f" x="499.068359"/>
      <use xlink:href="#DejaVuSans-6e" x="560.25"/>
     </g>
    </g>
   </g>
   <g id="text_16">
    <!-- Impactful directors for Romance Film genre -->
    <g transform="translate(158.0625 4.8)scale(0.12 -0.12)">
     <defs>
      <path id="DejaVuSans-66" d="M 2375 4863 
L 2375 4384 
L 1825 4384 
Q 1516 4384 1395 4259 
Q 1275 4134 1275 3809 
L 1275 3500 
L 2222 3500 
L 2222 3053 
L 1275 3053 
L 1275 0 
L 697 0 
L 697 3053 
L 147 3053 
L 147 3500 
L 697 3500 
L 697 3744 
Q 697 4328 969 4595 
Q 1241 4863 1831 4863 
L 2375 4863 
z
" transform="scale(0.015625)"/>
      <path id="DejaVuSans-67" d="M 2906 1791 
Q 2906 2416 2648 2759 
Q 2391 3103 1925 3103 
Q 1463 3103 1205 2759 
Q 947 2416 947 1791 
Q 947 1169 1205 825 
Q 1463 481 1925 481 
Q 2391 481 2648 825 
Q 2906 1169 2906 1791 
z
M 3481 434 
Q 3481 -459 3084 -895 
Q 2688 -1331 1869 -1331 
Q 1566 -1331 1297 -1286 
Q 1028 -1241 775 -1147 
L 775 -588 
Q 1028 -725 1275 -790 
Q 1522 -856 1778 -856 
Q 2344 -856 2625 -561 
Q 2906 -266 2906 331 
L 2906 616 
Q 2728 306 2450 153 
Q 2172 0 1784 0 
Q 1141 0 747 490 
Q 353 981 353 1791 
Q 353 2603 747 3093 
Q 1141 3584 1784 3584 
Q 2172 3584 2450 3431 
Q 2728 3278 2906 2969 
L 2906 3500 
L 3481 3500 
L 3481 434 
z
" transform="scale(0.015625)"/>
     </defs>
     <use xlink:href="#DejaVuSans-49"/>
     <use xlink:href="#DejaVuSans-6d" x="29.492188"/>
     <use xlink:href="#DejaVuSans-70" x="126.904297"/>
     <use xlink:href="#DejaVuSans-61" x="190.380859"/>
     <use xlink:href="#DejaVuSans-63" x="251.660156"/>
     <use xlink:href="#DejaVuSans-74" x="306.640625"/>
     <use xlink:href="#DejaVuSans-66" x="345.849609"/>
     <use xlink:href="#DejaVuSans-75" x="381.054688"/>
     <use xlink:href="#DejaVuSans-6c" x="444.433594"/>
     <use xlink:href="#DejaVuSans-20" x="472.216797"/>
     <use xlink:href="#DejaVuSans-64" x="504.003906"/>
     <use xlink:href="#DejaVuSans-69" x="567.480469"/>
     <use xlink:href="#DejaVuSans-72" x="595.263672"/>
     <use xlink:href="#DejaVuSans-65" x="634.126953"/>
     <use xlink:href="#DejaVuSans-63" x="695.650391"/>
     <use xlink:href="#DejaVuSans-74" x="750.630859"/>
     <use xlink:href="#DejaVuSans-6f" x="789.839844"/>
     <use xlink:href="#DejaVuSans-72" x="851.021484"/>
     <use xlink:href="#DejaVuSans-73" x="892.134766"/>
     <use xlink:href="#DejaVuSans-20" x="944.234375"/>
     <use xlink:href="#DejaVuSans-66" x="976.021484"/>
     <use xlink:href="#DejaVuSans-6f" x="1011.226562"/>
     <use xlink:href="#DejaVuSans-72" x="1072.408203"/>
     <use xlink:href="#DejaVuSans-20" x="1113.521484"/>
     <use xlink:href="#DejaVuSans-52" x="1145.308594"/>
     <use xlink:href="#DejaVuSans-6f" x="1210.291016"/>
     <use xlink:href="#DejaVuSans-6d" x="1271.472656"/>
     <use xlink:href="#DejaVuSans-61" x="1368.884766"/>
     <use xlink:href="#DejaVuSans-6e" x="1430.164062"/>
     <use xlink:href="#DejaVuSans-63" x="1493.542969"/>
     <use xlink:href="#DejaVuSans-65" x="1548.523438"/>
     <use xlink:href="#DejaVuSans-20" x="1610.046875"/>
     <use xlink:href="#DejaVuSans-46" x="1641.833984"/>
     <use xlink:href="#DejaVuSans-69" x="1692.103516"/>
     <use xlink:href="#DejaVuSans-6c" x="1719.886719"/>
     <use xlink:href="#DejaVuSans-6d" x="1747.669922"/>
     <use xlink:href="#DejaVuSans-20" x="1845.082031"/>
     <use xlink:href="#DejaVuSans-67" x="1876.869141"/>
     <use xlink:href="#DejaVuSans-65" x="1940.345703"/>
     <use xlink:href="#DejaVuSans-6e" x="2001.869141"/>
     <use xlink:href="#DejaVuSans-72" x="2065.248047"/>
     <use xlink:href="#DejaVuSans-65" x="2104.111328"/>
    </g>
   </g>
  </g>
 </g>
 <defs>
  <clipPath id="pef32f89cbb">
   <rect x="10.8" y="10.8" width="554.4" height="554.4"/>
  </clipPath>
 </defs>
</svg>
