<?xml version="1.0" encoding="utf-8" standalone="no"?>
<!DOCTYPE svg PUBLIC "-//W3C//DTD SVG 1.1//EN"
  "http://www.w3.org/Graphics/SVG/1.1/DTD/svg11.dtd">
<svg xmlns:xlink="http://www.w3.org/1999/xlink" width="568.8pt" height="583.918125pt" viewBox="0 0 568.8 583.918125" xmlns="http://www.w3.org/2000/svg" version="1.1">
 <metadata>
  <rdf:RDF xmlns:dc="http://purl.org/dc/elements/1.1/" xmlns:cc="http://creativecommons.org/ns#" xmlns:rdf="http://www.w3.org/1999/02/22-rdf-syntax-ns#">
   <cc:Work>
    <dc:type rdf:resource="http://purl.org/dc/dcmitype/StillImage"/>
    <dc:date>2022-12-23T20:56:37.199582</dc:date>
    <dc:format>image/svg+xml</dc:format>
    <dc:creator>
     <cc:Agent>
      <dc:title>Matplotlib v3.5.3, https://matplotlib.org/</dc:title>
     </cc:Agent>
    </dc:creator>
   </cc:Work>
  </rdf:RDF>
 </metadata>
 <defs>
  <style type="text/css">*{stroke-linejoin: round; stroke-linecap: butt}</style>
 </defs>
 <g id="figure_1">
  <g id="patch_1">
   <path d="M 0 583.918125 
L 568.8 583.918125 
L 568.8 0 
L 0 0 
z
" style="fill: #ffffff"/>
  </g>
  <g id="axes_1">
   <g id="LineCollection_1">
    <path d="M 494.093803 299.518125 
L 475.609964 212.311633 
" clip-path="url(#p0824dd2912)" style="fill: none; stroke: #000000; stroke-opacity: 0.3; stroke-width: 7.3926"/>
    <path d="M 494.093803 299.518125 
L 423.354485 140.183927 
" clip-path="url(#p0824dd2912)" style="fill: none; stroke: #000000; stroke-opacity: 0.3; stroke-width: 8.367871"/>
    <path d="M 475.609964 212.311633 
L 423.354485 140.183927 
" clip-path="url(#p0824dd2912)" style="fill: none; stroke: #000000; stroke-opacity: 0.3; stroke-width: 5"/>
   </g>
   <g id="PathCollection_1">
    <path d="M 494.093803 326.904253 
C 501.356689 326.904253 508.323084 324.018678 513.45872 318.883042 
C 518.594356 313.747406 521.479931 306.781011 521.479931 299.518125 
C 521.479931 292.255239 518.594356 285.288844 513.45872 280.153208 
C 508.323084 275.017572 501.356689 272.131997 494.093803 272.131997 
C 486.830917 272.131997 479.864523 275.017572 474.728887 280.153208 
C 469.593251 285.288844 466.707675 292.255239 466.707675 299.518125 
C 466.707675 306.781011 469.593251 313.747406 474.728887 318.883042 
C 479.864523 324.018678 486.830917 326.904253 494.093803 326.904253 
z
" clip-path="url(#p0824dd2912)" style="fill: #c70039; fill-opacity: 0.99; stroke: #c70039; stroke-opacity: 0.99"/>
    <path d="M 475.609964 238.031362 
C 482.430916 238.031362 488.973418 235.321369 493.796559 230.498228 
C 498.6197 225.675087 501.329693 219.132585 501.329693 212.311633 
C 501.329693 205.490682 498.6197 198.94818 493.796559 194.125039 
C 488.973418 189.301898 482.430916 186.591905 475.609964 186.591905 
C 468.789013 186.591905 462.246511 189.301898 457.42337 194.125039 
C 452.600229 198.94818 449.890236 205.490682 449.890236 212.311633 
C 449.890236 219.132585 452.600229 225.675087 457.42337 230.498228 
C 462.246511 235.321369 468.789013 238.031362 475.609964 238.031362 
z
" clip-path="url(#p0824dd2912)" style="fill: #c70039; fill-opacity: 0.99; stroke: #c70039; stroke-opacity: 0.99"/>
    <path d="M 423.354485 165.645633 
C 430.107008 165.645633 436.583875 162.962827 441.35863 158.188072 
C 446.133385 153.413317 448.816191 146.93645 448.816191 140.183927 
C 448.816191 133.431403 446.133385 126.954537 441.35863 122.179781 
C 436.583875 117.405026 430.107008 114.72222 423.354485 114.72222 
C 416.601961 114.72222 410.125095 117.405026 405.35034 122.179781 
C 400.575585 126.954537 397.892779 133.431403 397.892779 140.183927 
C 397.892779 146.93645 400.575585 153.413317 405.35034 158.188072 
C 410.125095 162.962827 416.601961 165.645633 423.354485 165.645633 
z
" clip-path="url(#p0824dd2912)" style="fill: #c70039; fill-opacity: 0.99; stroke: #c70039; stroke-opacity: 0.99"/>
    <path d="M 346.362816 119.308843 
C 352.648734 119.308843 358.678044 116.811421 363.122859 112.366605 
C 367.567674 107.92179 370.065096 101.892481 370.065096 95.606563 
C 370.065096 89.320645 367.567674 83.291335 363.122859 78.84652 
C 358.678044 74.401705 352.648734 71.904283 346.362816 71.904283 
C 340.076898 71.904283 334.047589 74.401705 329.602773 78.84652 
C 325.157958 83.291335 322.660536 89.320645 322.660536 95.606563 
C 322.660536 101.892481 325.157958 107.92179 329.602773 112.366605 
C 334.047589 116.811421 340.076898 119.308843 346.362816 119.308843 
z
" clip-path="url(#p0824dd2912)" style="fill: #c70039; fill-opacity: 0.99; stroke: #c70039; stroke-opacity: 0.99"/>
    <path d="M 257.947501 108.981243 
C 263.96599 108.981243 269.738788 106.590072 273.994502 102.334357 
C 278.250217 98.078643 280.641388 92.305845 280.641388 86.287356 
C 280.641388 80.268867 278.250217 74.496069 273.994502 70.240354 
C 269.738788 65.98464 263.96599 63.593469 257.947501 63.593469 
C 251.929012 63.593469 246.156214 65.98464 241.9005 70.240354 
C 237.644785 74.496069 235.253614 80.268867 235.253614 86.287356 
C 235.253614 92.305845 237.644785 98.078643 241.9005 102.334357 
C 246.156214 106.590072 251.929012 108.981243 257.947501 108.981243 
z
" clip-path="url(#p0824dd2912)" style="fill: #c70039; fill-opacity: 0.99; stroke: #c70039; stroke-opacity: 0.99"/>
    <path d="M 173.396361 135.513219 
C 179.144778 135.513219 184.658528 133.229348 188.723273 129.164604 
C 192.788017 125.099859 195.071887 119.586109 195.071887 113.837692 
C 195.071887 108.089275 192.788017 102.575525 188.723273 98.510781 
C 184.658528 94.446036 179.144778 92.162166 173.396361 92.162166 
C 167.647944 92.162166 162.134194 94.446036 158.069449 98.510781 
C 154.004705 102.575525 151.720835 108.089275 151.720835 113.837692 
C 151.720835 119.586109 154.004705 125.099859 158.069449 129.164604 
C 162.134194 133.229348 167.647944 135.513219 173.396361 135.513219 
z
" clip-path="url(#p0824dd2912)" style="fill: #c70039; fill-opacity: 0.99; stroke: #c70039; stroke-opacity: 0.99"/>
    <path d="M 107.329068 194.925344 
C 113.012766 194.925344 118.464439 192.667187 122.48342 188.648206 
C 126.502401 184.629225 128.760558 179.177551 128.760558 173.493854 
C 128.760558 167.810156 126.502401 162.358483 122.48342 158.339502 
C 118.464439 154.320521 113.012766 152.062364 107.329068 152.062364 
C 101.645371 152.062364 96.193697 154.320521 92.174716 158.339502 
C 88.155735 162.358483 85.897578 167.810156 85.897578 173.493854 
C 85.897578 179.177551 88.155735 184.629225 92.174716 188.648206 
C 96.193697 192.667187 101.645371 194.925344 107.329068 194.925344 
z
" clip-path="url(#p0824dd2912)" style="fill: #c70039; fill-opacity: 0.99; stroke: #c70039; stroke-opacity: 0.99"/>
    <path d="M 71.169231 276.221183 
C 76.812861 276.221183 82.226103 273.978945 86.216752 269.988295 
C 90.207401 265.997646 92.44964 260.584404 92.44964 254.940774 
C 92.44964 249.297143 90.207401 243.883902 86.216752 239.893253 
C 82.226103 235.902603 76.812861 233.660365 71.169231 233.660365 
C 65.5256 233.660365 60.112359 235.902603 56.121709 239.893253 
C 52.13106 243.883902 49.888822 249.297143 49.888822 254.940774 
C 49.888822 260.584404 52.13106 265.997646 56.121709 269.988295 
C 60.112359 273.978945 65.5256 276.221183 71.169231 276.221183 
z
" clip-path="url(#p0824dd2912)" style="fill: #c70039; fill-opacity: 0.99; stroke: #c70039; stroke-opacity: 0.99"/>
    <path d="M 71.169244 365.216313 
C 76.770545 365.216313 82.143185 362.990892 86.103903 359.030174 
C 90.064621 355.069456 92.290042 349.696816 92.290042 344.095514 
C 92.290042 338.494213 90.064621 333.121573 86.103903 329.160855 
C 82.143185 325.200137 76.770545 322.974716 71.169244 322.974716 
C 65.567942 322.974716 60.195302 325.200137 56.234584 329.160855 
C 52.273866 333.121573 50.048445 338.494213 50.048445 344.095514 
C 50.048445 349.696816 52.273866 355.069456 56.234584 359.030174 
C 60.195302 362.990892 65.567942 365.216313 71.169244 365.216313 
z
" clip-path="url(#p0824dd2912)" style="fill: #c70039; fill-opacity: 0.99; stroke: #c70039; stroke-opacity: 0.99"/>
    <path d="M 107.329081 446.199793 
C 112.807483 446.199793 118.062242 444.023201 121.936058 440.149386 
C 125.809873 436.27557 127.986465 431.020811 127.986465 425.542409 
C 127.986465 420.064007 125.809873 414.809248 121.936058 410.935432 
C 118.062242 407.061617 112.807483 404.885025 107.329081 404.885025 
C 101.850679 404.885025 96.59592 407.061617 92.722104 410.935432 
C 88.848289 414.809248 86.671697 420.064007 86.671697 425.542409 
C 86.671697 431.020811 88.848289 436.27557 92.722104 440.149386 
C 96.59592 444.023201 101.850679 446.199793 107.329081 446.199793 
z
" clip-path="url(#p0824dd2912)" style="fill: #c70039; fill-opacity: 0.99; stroke: #c70039; stroke-opacity: 0.99"/>
    <path d="M 173.396393 505.797953 
C 178.859413 505.797953 184.099417 503.627472 187.962356 499.764533 
C 191.825294 495.901595 193.995775 490.661591 193.995775 485.198571 
C 193.995775 479.73555 191.825294 474.495546 187.962356 470.632608 
C 184.099417 466.769669 178.859413 464.599188 173.396393 464.599188 
C 167.933373 464.599188 162.693369 466.769669 158.83043 470.632608 
C 154.967492 474.495546 152.797011 479.73555 152.797011 485.198571 
C 152.797011 490.661591 154.967492 495.901595 158.83043 499.764533 
C 162.693369 503.627472 167.933373 505.797953 173.396393 505.797953 
z
" clip-path="url(#p0824dd2912)" style="fill: #c70039; fill-opacity: 0.99; stroke: #c70039; stroke-opacity: 0.99"/>
    <path d="M 257.947539 532.779807 
C 263.259799 532.779807 268.355198 530.669223 272.111533 526.912888 
C 275.867868 523.156553 277.978452 518.061154 277.978452 512.748894 
C 277.978452 507.436634 275.867868 502.341235 272.111533 498.5849 
C 268.355198 494.828565 263.259799 492.717982 257.947539 492.717982 
C 252.635279 492.717982 247.53988 494.828565 243.783545 498.5849 
C 240.02721 502.341235 237.916627 507.436634 237.916627 512.748894 
C 237.916627 518.061154 240.02721 523.156553 243.783545 526.912888 
C 247.53988 530.669223 252.635279 532.779807 257.947539 532.779807 
z
" clip-path="url(#p0824dd2912)" style="fill: #c70039; fill-opacity: 0.99; stroke: #c70039; stroke-opacity: 0.99"/>
    <path d="M 346.362848 523.107131 
C 351.58137 523.107131 356.586858 521.03379 360.276911 517.343737 
C 363.966963 513.653685 366.040304 508.648197 366.040304 503.429675 
C 366.040304 498.211152 363.966963 493.205664 360.276911 489.515612 
C 356.586858 485.825559 351.58137 483.752218 346.362848 483.752218 
C 341.144326 483.752218 336.138838 485.825559 332.448785 489.515612 
C 328.758733 493.205664 326.685392 498.211152 326.685392 503.429675 
C 326.685392 508.648197 328.758733 513.653685 332.448785 517.343737 
C 336.138838 521.03379 341.144326 523.107131 346.362848 523.107131 
z
" clip-path="url(#p0824dd2912)" style="fill: #c70039; fill-opacity: 0.99; stroke: #c70039; stroke-opacity: 0.99"/>
    <path d="M 423.354523 478.377811 
C 428.532753 478.377811 433.499593 476.320478 437.161155 472.658917 
C 440.822716 468.997355 442.880049 464.030515 442.880049 458.852285 
C 442.880049 453.674055 440.822716 448.707215 437.161155 445.045653 
C 433.499593 441.384092 428.532753 439.326759 423.354523 439.326759 
C 418.176293 439.326759 413.209453 441.384092 409.547891 445.045653 
C 405.88633 448.707215 403.828997 453.674055 403.828997 458.852285 
C 403.828997 464.030515 405.88633 468.997355 409.547891 472.658917 
C 413.209453 476.320478 418.176293 478.377811 423.354523 478.377811 
z
" clip-path="url(#p0824dd2912)" style="fill: #c70039; fill-opacity: 0.99; stroke: #c70039; stroke-opacity: 0.99"/>
    <path d="M 475.60999 406.089501 
C 480.745626 406.089501 485.671611 404.049092 489.303054 400.417649 
C 492.934497 396.786206 494.974907 391.860221 494.974907 386.724585 
C 494.974907 381.588949 492.934497 376.662964 489.303054 373.031521 
C 485.671611 369.400078 480.745626 367.359668 475.60999 367.359668 
C 470.474354 367.359668 465.548369 369.400078 461.916926 373.031521 
C 458.285483 376.662964 456.245073 381.588949 456.245073 386.724585 
C 456.245073 391.860221 458.285483 396.786206 461.916926 400.417649 
C 465.548369 404.049092 470.474354 406.089501 475.60999 406.089501 
z
" clip-path="url(#p0824dd2912)" style="fill: #c70039; fill-opacity: 0.99; stroke: #c70039; stroke-opacity: 0.99"/>
   </g>
   <g id="text_1">
    <g id="patch_2">
     <path d="M 462.731616 307.833281 
L 525.455991 307.833281 
L 525.455991 291.202969 
L 462.731616 291.202969 
z
" clip-path="url(#p0824dd2912)" style="fill: #ffffff; opacity: 0.7; stroke: #000000; stroke-linejoin: miter"/>
    </g>
    <g clip-path="url(#p0824dd2912)">
     <!-- Chuck Jones -->
     <g transform="translate(466.691616 302.001562)scale(0.09 -0.09)">
      <defs>
       <path id="DejaVuSans-43" d="M 4122 4306 
L 4122 3641 
Q 3803 3938 3442 4084 
Q 3081 4231 2675 4231 
Q 1875 4231 1450 3742 
Q 1025 3253 1025 2328 
Q 1025 1406 1450 917 
Q 1875 428 2675 428 
Q 3081 428 3442 575 
Q 3803 722 4122 1019 
L 4122 359 
Q 3791 134 3420 21 
Q 3050 -91 2638 -91 
Q 1578 -91 968 557 
Q 359 1206 359 2328 
Q 359 3453 968 4101 
Q 1578 4750 2638 4750 
Q 3056 4750 3426 4639 
Q 3797 4528 4122 4306 
z
" transform="scale(0.015625)"/>
       <path id="DejaVuSans-68" d="M 3513 2113 
L 3513 0 
L 2938 0 
L 2938 2094 
Q 2938 2591 2744 2837 
Q 2550 3084 2163 3084 
Q 1697 3084 1428 2787 
Q 1159 2491 1159 1978 
L 1159 0 
L 581 0 
L 581 4863 
L 1159 4863 
L 1159 2956 
Q 1366 3272 1645 3428 
Q 1925 3584 2291 3584 
Q 2894 3584 3203 3211 
Q 3513 2838 3513 2113 
z
" transform="scale(0.015625)"/>
       <path id="DejaVuSans-75" d="M 544 1381 
L 544 3500 
L 1119 3500 
L 1119 1403 
Q 1119 906 1312 657 
Q 1506 409 1894 409 
Q 2359 409 2629 706 
Q 2900 1003 2900 1516 
L 2900 3500 
L 3475 3500 
L 3475 0 
L 2900 0 
L 2900 538 
Q 2691 219 2414 64 
Q 2138 -91 1772 -91 
Q 1169 -91 856 284 
Q 544 659 544 1381 
z
M 1991 3584 
L 1991 3584 
z
" transform="scale(0.015625)"/>
       <path id="DejaVuSans-63" d="M 3122 3366 
L 3122 2828 
Q 2878 2963 2633 3030 
Q 2388 3097 2138 3097 
Q 1578 3097 1268 2742 
Q 959 2388 959 1747 
Q 959 1106 1268 751 
Q 1578 397 2138 397 
Q 2388 397 2633 464 
Q 2878 531 3122 666 
L 3122 134 
Q 2881 22 2623 -34 
Q 2366 -91 2075 -91 
Q 1284 -91 818 406 
Q 353 903 353 1747 
Q 353 2603 823 3093 
Q 1294 3584 2113 3584 
Q 2378 3584 2631 3529 
Q 2884 3475 3122 3366 
z
" transform="scale(0.015625)"/>
       <path id="DejaVuSans-6b" d="M 581 4863 
L 1159 4863 
L 1159 1991 
L 2875 3500 
L 3609 3500 
L 1753 1863 
L 3688 0 
L 2938 0 
L 1159 1709 
L 1159 0 
L 581 0 
L 581 4863 
z
" transform="scale(0.015625)"/>
       <path id="DejaVuSans-20" transform="scale(0.015625)"/>
       <path id="DejaVuSans-4a" d="M 628 4666 
L 1259 4666 
L 1259 325 
Q 1259 -519 939 -900 
Q 619 -1281 -91 -1281 
L -331 -1281 
L -331 -750 
L -134 -750 
Q 284 -750 456 -515 
Q 628 -281 628 325 
L 628 4666 
z
" transform="scale(0.015625)"/>
       <path id="DejaVuSans-6f" d="M 1959 3097 
Q 1497 3097 1228 2736 
Q 959 2375 959 1747 
Q 959 1119 1226 758 
Q 1494 397 1959 397 
Q 2419 397 2687 759 
Q 2956 1122 2956 1747 
Q 2956 2369 2687 2733 
Q 2419 3097 1959 3097 
z
M 1959 3584 
Q 2709 3584 3137 3096 
Q 3566 2609 3566 1747 
Q 3566 888 3137 398 
Q 2709 -91 1959 -91 
Q 1206 -91 779 398 
Q 353 888 353 1747 
Q 353 2609 779 3096 
Q 1206 3584 1959 3584 
z
" transform="scale(0.015625)"/>
       <path id="DejaVuSans-6e" d="M 3513 2113 
L 3513 0 
L 2938 0 
L 2938 2094 
Q 2938 2591 2744 2837 
Q 2550 3084 2163 3084 
Q 1697 3084 1428 2787 
Q 1159 2491 1159 1978 
L 1159 0 
L 581 0 
L 581 3500 
L 1159 3500 
L 1159 2956 
Q 1366 3272 1645 3428 
Q 1925 3584 2291 3584 
Q 2894 3584 3203 3211 
Q 3513 2838 3513 2113 
z
" transform="scale(0.015625)"/>
       <path id="DejaVuSans-65" d="M 3597 1894 
L 3597 1613 
L 953 1613 
Q 991 1019 1311 708 
Q 1631 397 2203 397 
Q 2534 397 2845 478 
Q 3156 559 3463 722 
L 3463 178 
Q 3153 47 2828 -22 
Q 2503 -91 2169 -91 
Q 1331 -91 842 396 
Q 353 884 353 1716 
Q 353 2575 817 3079 
Q 1281 3584 2069 3584 
Q 2775 3584 3186 3129 
Q 3597 2675 3597 1894 
z
M 3022 2063 
Q 3016 2534 2758 2815 
Q 2500 3097 2075 3097 
Q 1594 3097 1305 2825 
Q 1016 2553 972 2059 
L 3022 2063 
z
" transform="scale(0.015625)"/>
       <path id="DejaVuSans-73" d="M 2834 3397 
L 2834 2853 
Q 2591 2978 2328 3040 
Q 2066 3103 1784 3103 
Q 1356 3103 1142 2972 
Q 928 2841 928 2578 
Q 928 2378 1081 2264 
Q 1234 2150 1697 2047 
L 1894 2003 
Q 2506 1872 2764 1633 
Q 3022 1394 3022 966 
Q 3022 478 2636 193 
Q 2250 -91 1575 -91 
Q 1294 -91 989 -36 
Q 684 19 347 128 
L 347 722 
Q 666 556 975 473 
Q 1284 391 1588 391 
Q 1994 391 2212 530 
Q 2431 669 2431 922 
Q 2431 1156 2273 1281 
Q 2116 1406 1581 1522 
L 1381 1569 
Q 847 1681 609 1914 
Q 372 2147 372 2553 
Q 372 3047 722 3315 
Q 1072 3584 1716 3584 
Q 2034 3584 2315 3537 
Q 2597 3491 2834 3397 
z
" transform="scale(0.015625)"/>
      </defs>
      <use xlink:href="#DejaVuSans-43"/>
      <use xlink:href="#DejaVuSans-68" x="69.824219"/>
      <use xlink:href="#DejaVuSans-75" x="133.203125"/>
      <use xlink:href="#DejaVuSans-63" x="196.582031"/>
      <use xlink:href="#DejaVuSans-6b" x="251.5625"/>
      <use xlink:href="#DejaVuSans-20" x="309.472656"/>
      <use xlink:href="#DejaVuSans-4a" x="341.259766"/>
      <use xlink:href="#DejaVuSans-6f" x="370.751953"/>
      <use xlink:href="#DejaVuSans-6e" x="431.933594"/>
      <use xlink:href="#DejaVuSans-65" x="495.3125"/>
      <use xlink:href="#DejaVuSans-73" x="556.835938"/>
     </g>
    </g>
   </g>
   <g id="text_2">
    <g id="patch_3">
     <path d="M 445.988714 220.62679 
L 505.231214 220.62679 
L 505.231214 203.996477 
L 445.988714 203.996477 
z
" clip-path="url(#p0824dd2912)" style="fill: #ffffff; opacity: 0.7; stroke: #000000; stroke-linejoin: miter"/>
    </g>
    <g clip-path="url(#p0824dd2912)">
     <!-- Friz Freleng -->
     <g transform="translate(449.948714 214.795071)scale(0.09 -0.09)">
      <defs>
       <path id="DejaVuSans-46" d="M 628 4666 
L 3309 4666 
L 3309 4134 
L 1259 4134 
L 1259 2759 
L 3109 2759 
L 3109 2228 
L 1259 2228 
L 1259 0 
L 628 0 
L 628 4666 
z
" transform="scale(0.015625)"/>
       <path id="DejaVuSans-72" d="M 2631 2963 
Q 2534 3019 2420 3045 
Q 2306 3072 2169 3072 
Q 1681 3072 1420 2755 
Q 1159 2438 1159 1844 
L 1159 0 
L 581 0 
L 581 3500 
L 1159 3500 
L 1159 2956 
Q 1341 3275 1631 3429 
Q 1922 3584 2338 3584 
Q 2397 3584 2469 3576 
Q 2541 3569 2628 3553 
L 2631 2963 
z
" transform="scale(0.015625)"/>
       <path id="DejaVuSans-69" d="M 603 3500 
L 1178 3500 
L 1178 0 
L 603 0 
L 603 3500 
z
M 603 4863 
L 1178 4863 
L 1178 4134 
L 603 4134 
L 603 4863 
z
" transform="scale(0.015625)"/>
       <path id="DejaVuSans-7a" d="M 353 3500 
L 3084 3500 
L 3084 2975 
L 922 459 
L 3084 459 
L 3084 0 
L 275 0 
L 275 525 
L 2438 3041 
L 353 3041 
L 353 3500 
z
" transform="scale(0.015625)"/>
       <path id="DejaVuSans-6c" d="M 603 4863 
L 1178 4863 
L 1178 0 
L 603 0 
L 603 4863 
z
" transform="scale(0.015625)"/>
       <path id="DejaVuSans-67" d="M 2906 1791 
Q 2906 2416 2648 2759 
Q 2391 3103 1925 3103 
Q 1463 3103 1205 2759 
Q 947 2416 947 1791 
Q 947 1169 1205 825 
Q 1463 481 1925 481 
Q 2391 481 2648 825 
Q 2906 1169 2906 1791 
z
M 3481 434 
Q 3481 -459 3084 -895 
Q 2688 -1331 1869 -1331 
Q 1566 -1331 1297 -1286 
Q 1028 -1241 775 -1147 
L 775 -588 
Q 1028 -725 1275 -790 
Q 1522 -856 1778 -856 
Q 2344 -856 2625 -561 
Q 2906 -266 2906 331 
L 2906 616 
Q 2728 306 2450 153 
Q 2172 0 1784 0 
Q 1141 0 747 490 
Q 353 981 353 1791 
Q 353 2603 747 3093 
Q 1141 3584 1784 3584 
Q 2172 3584 2450 3431 
Q 2728 3278 2906 2969 
L 2906 3500 
L 3481 3500 
L 3481 434 
z
" transform="scale(0.015625)"/>
      </defs>
      <use xlink:href="#DejaVuSans-46"/>
      <use xlink:href="#DejaVuSans-72" x="50.269531"/>
      <use xlink:href="#DejaVuSans-69" x="91.382812"/>
      <use xlink:href="#DejaVuSans-7a" x="119.166016"/>
      <use xlink:href="#DejaVuSans-20" x="171.65625"/>
      <use xlink:href="#DejaVuSans-46" x="203.443359"/>
      <use xlink:href="#DejaVuSans-72" x="253.712891"/>
      <use xlink:href="#DejaVuSans-65" x="292.576172"/>
      <use xlink:href="#DejaVuSans-6c" x="354.099609"/>
      <use xlink:href="#DejaVuSans-65" x="381.882812"/>
      <use xlink:href="#DejaVuSans-6e" x="443.40625"/>
      <use xlink:href="#DejaVuSans-67" x="506.785156"/>
     </g>
    </g>
   </g>
   <g id="text_3">
    <g id="patch_4">
     <path d="M 380.155891 148.499083 
L 466.553079 148.499083 
L 466.553079 131.86877 
L 380.155891 131.86877 
z
" clip-path="url(#p0824dd2912)" style="fill: #ffffff; opacity: 0.7; stroke: #000000; stroke-linejoin: miter"/>
    </g>
    <g clip-path="url(#p0824dd2912)">
     <!-- Robert McKimson -->
     <g transform="translate(384.115891 142.667364)scale(0.09 -0.09)">
      <defs>
       <path id="DejaVuSans-52" d="M 2841 2188 
Q 3044 2119 3236 1894 
Q 3428 1669 3622 1275 
L 4263 0 
L 3584 0 
L 2988 1197 
Q 2756 1666 2539 1819 
Q 2322 1972 1947 1972 
L 1259 1972 
L 1259 0 
L 628 0 
L 628 4666 
L 2053 4666 
Q 2853 4666 3247 4331 
Q 3641 3997 3641 3322 
Q 3641 2881 3436 2590 
Q 3231 2300 2841 2188 
z
M 1259 4147 
L 1259 2491 
L 2053 2491 
Q 2509 2491 2742 2702 
Q 2975 2913 2975 3322 
Q 2975 3731 2742 3939 
Q 2509 4147 2053 4147 
L 1259 4147 
z
" transform="scale(0.015625)"/>
       <path id="DejaVuSans-62" d="M 3116 1747 
Q 3116 2381 2855 2742 
Q 2594 3103 2138 3103 
Q 1681 3103 1420 2742 
Q 1159 2381 1159 1747 
Q 1159 1113 1420 752 
Q 1681 391 2138 391 
Q 2594 391 2855 752 
Q 3116 1113 3116 1747 
z
M 1159 2969 
Q 1341 3281 1617 3432 
Q 1894 3584 2278 3584 
Q 2916 3584 3314 3078 
Q 3713 2572 3713 1747 
Q 3713 922 3314 415 
Q 2916 -91 2278 -91 
Q 1894 -91 1617 61 
Q 1341 213 1159 525 
L 1159 0 
L 581 0 
L 581 4863 
L 1159 4863 
L 1159 2969 
z
" transform="scale(0.015625)"/>
       <path id="DejaVuSans-74" d="M 1172 4494 
L 1172 3500 
L 2356 3500 
L 2356 3053 
L 1172 3053 
L 1172 1153 
Q 1172 725 1289 603 
Q 1406 481 1766 481 
L 2356 481 
L 2356 0 
L 1766 0 
Q 1100 0 847 248 
Q 594 497 594 1153 
L 594 3053 
L 172 3053 
L 172 3500 
L 594 3500 
L 594 4494 
L 1172 4494 
z
" transform="scale(0.015625)"/>
       <path id="DejaVuSans-4d" d="M 628 4666 
L 1569 4666 
L 2759 1491 
L 3956 4666 
L 4897 4666 
L 4897 0 
L 4281 0 
L 4281 4097 
L 3078 897 
L 2444 897 
L 1241 4097 
L 1241 0 
L 628 0 
L 628 4666 
z
" transform="scale(0.015625)"/>
       <path id="DejaVuSans-4b" d="M 628 4666 
L 1259 4666 
L 1259 2694 
L 3353 4666 
L 4166 4666 
L 1850 2491 
L 4331 0 
L 3500 0 
L 1259 2247 
L 1259 0 
L 628 0 
L 628 4666 
z
" transform="scale(0.015625)"/>
       <path id="DejaVuSans-6d" d="M 3328 2828 
Q 3544 3216 3844 3400 
Q 4144 3584 4550 3584 
Q 5097 3584 5394 3201 
Q 5691 2819 5691 2113 
L 5691 0 
L 5113 0 
L 5113 2094 
Q 5113 2597 4934 2840 
Q 4756 3084 4391 3084 
Q 3944 3084 3684 2787 
Q 3425 2491 3425 1978 
L 3425 0 
L 2847 0 
L 2847 2094 
Q 2847 2600 2669 2842 
Q 2491 3084 2119 3084 
Q 1678 3084 1418 2786 
Q 1159 2488 1159 1978 
L 1159 0 
L 581 0 
L 581 3500 
L 1159 3500 
L 1159 2956 
Q 1356 3278 1631 3431 
Q 1906 3584 2284 3584 
Q 2666 3584 2933 3390 
Q 3200 3197 3328 2828 
z
" transform="scale(0.015625)"/>
      </defs>
      <use xlink:href="#DejaVuSans-52"/>
      <use xlink:href="#DejaVuSans-6f" x="64.982422"/>
      <use xlink:href="#DejaVuSans-62" x="126.164062"/>
      <use xlink:href="#DejaVuSans-65" x="189.640625"/>
      <use xlink:href="#DejaVuSans-72" x="251.164062"/>
      <use xlink:href="#DejaVuSans-74" x="292.277344"/>
      <use xlink:href="#DejaVuSans-20" x="331.486328"/>
      <use xlink:href="#DejaVuSans-4d" x="363.273438"/>
      <use xlink:href="#DejaVuSans-63" x="449.552734"/>
      <use xlink:href="#DejaVuSans-4b" x="504.533203"/>
      <use xlink:href="#DejaVuSans-69" x="570.109375"/>
      <use xlink:href="#DejaVuSans-6d" x="597.892578"/>
      <use xlink:href="#DejaVuSans-73" x="695.304688"/>
      <use xlink:href="#DejaVuSans-6f" x="747.404297"/>
      <use xlink:href="#DejaVuSans-6e" x="808.585938"/>
     </g>
    </g>
   </g>
   <g id="text_4">
    <g id="patch_5">
     <path d="M 305.653285 103.921719 
L 387.072347 103.921719 
L 387.072347 87.291406 
L 305.653285 87.291406 
z
" clip-path="url(#p0824dd2912)" style="fill: #ffffff; opacity: 0.7; stroke: #000000; stroke-linejoin: miter"/>
    </g>
    <g clip-path="url(#p0824dd2912)">
     <!-- Alfred Hitchcock -->
     <g transform="translate(309.613285 98.09)scale(0.09 -0.09)">
      <defs>
       <path id="DejaVuSans-41" d="M 2188 4044 
L 1331 1722 
L 3047 1722 
L 2188 4044 
z
M 1831 4666 
L 2547 4666 
L 4325 0 
L 3669 0 
L 3244 1197 
L 1141 1197 
L 716 0 
L 50 0 
L 1831 4666 
z
" transform="scale(0.015625)"/>
       <path id="DejaVuSans-66" d="M 2375 4863 
L 2375 4384 
L 1825 4384 
Q 1516 4384 1395 4259 
Q 1275 4134 1275 3809 
L 1275 3500 
L 2222 3500 
L 2222 3053 
L 1275 3053 
L 1275 0 
L 697 0 
L 697 3053 
L 147 3053 
L 147 3500 
L 697 3500 
L 697 3744 
Q 697 4328 969 4595 
Q 1241 4863 1831 4863 
L 2375 4863 
z
" transform="scale(0.015625)"/>
       <path id="DejaVuSans-64" d="M 2906 2969 
L 2906 4863 
L 3481 4863 
L 3481 0 
L 2906 0 
L 2906 525 
Q 2725 213 2448 61 
Q 2172 -91 1784 -91 
Q 1150 -91 751 415 
Q 353 922 353 1747 
Q 353 2572 751 3078 
Q 1150 3584 1784 3584 
Q 2172 3584 2448 3432 
Q 2725 3281 2906 2969 
z
M 947 1747 
Q 947 1113 1208 752 
Q 1469 391 1925 391 
Q 2381 391 2643 752 
Q 2906 1113 2906 1747 
Q 2906 2381 2643 2742 
Q 2381 3103 1925 3103 
Q 1469 3103 1208 2742 
Q 947 2381 947 1747 
z
" transform="scale(0.015625)"/>
       <path id="DejaVuSans-48" d="M 628 4666 
L 1259 4666 
L 1259 2753 
L 3553 2753 
L 3553 4666 
L 4184 4666 
L 4184 0 
L 3553 0 
L 3553 2222 
L 1259 2222 
L 1259 0 
L 628 0 
L 628 4666 
z
" transform="scale(0.015625)"/>
      </defs>
      <use xlink:href="#DejaVuSans-41"/>
      <use xlink:href="#DejaVuSans-6c" x="68.408203"/>
      <use xlink:href="#DejaVuSans-66" x="96.191406"/>
      <use xlink:href="#DejaVuSans-72" x="131.396484"/>
      <use xlink:href="#DejaVuSans-65" x="170.259766"/>
      <use xlink:href="#DejaVuSans-64" x="231.783203"/>
      <use xlink:href="#DejaVuSans-20" x="295.259766"/>
      <use xlink:href="#DejaVuSans-48" x="327.046875"/>
      <use xlink:href="#DejaVuSans-69" x="402.242188"/>
      <use xlink:href="#DejaVuSans-74" x="430.025391"/>
      <use xlink:href="#DejaVuSans-63" x="469.234375"/>
      <use xlink:href="#DejaVuSans-68" x="524.214844"/>
      <use xlink:href="#DejaVuSans-63" x="587.59375"/>
      <use xlink:href="#DejaVuSans-6f" x="642.574219"/>
      <use xlink:href="#DejaVuSans-63" x="703.755859"/>
      <use xlink:href="#DejaVuSans-6b" x="758.736328"/>
     </g>
    </g>
   </g>
   <g id="text_5">
    <g id="patch_6">
     <path d="M 220.54547 94.602512 
L 295.349532 94.602512 
L 295.349532 77.9722 
L 220.54547 77.9722 
z
" clip-path="url(#p0824dd2912)" style="fill: #ffffff; opacity: 0.7; stroke: #000000; stroke-linejoin: miter"/>
    </g>
    <g clip-path="url(#p0824dd2912)">
     <!-- Clint Eastwood -->
     <g transform="translate(224.50547 88.770793)scale(0.09 -0.09)">
      <defs>
       <path id="DejaVuSans-45" d="M 628 4666 
L 3578 4666 
L 3578 4134 
L 1259 4134 
L 1259 2753 
L 3481 2753 
L 3481 2222 
L 1259 2222 
L 1259 531 
L 3634 531 
L 3634 0 
L 628 0 
L 628 4666 
z
" transform="scale(0.015625)"/>
       <path id="DejaVuSans-61" d="M 2194 1759 
Q 1497 1759 1228 1600 
Q 959 1441 959 1056 
Q 959 750 1161 570 
Q 1363 391 1709 391 
Q 2188 391 2477 730 
Q 2766 1069 2766 1631 
L 2766 1759 
L 2194 1759 
z
M 3341 1997 
L 3341 0 
L 2766 0 
L 2766 531 
Q 2569 213 2275 61 
Q 1981 -91 1556 -91 
Q 1019 -91 701 211 
Q 384 513 384 1019 
Q 384 1609 779 1909 
Q 1175 2209 1959 2209 
L 2766 2209 
L 2766 2266 
Q 2766 2663 2505 2880 
Q 2244 3097 1772 3097 
Q 1472 3097 1187 3025 
Q 903 2953 641 2809 
L 641 3341 
Q 956 3463 1253 3523 
Q 1550 3584 1831 3584 
Q 2591 3584 2966 3190 
Q 3341 2797 3341 1997 
z
" transform="scale(0.015625)"/>
       <path id="DejaVuSans-77" d="M 269 3500 
L 844 3500 
L 1563 769 
L 2278 3500 
L 2956 3500 
L 3675 769 
L 4391 3500 
L 4966 3500 
L 4050 0 
L 3372 0 
L 2619 2869 
L 1863 0 
L 1184 0 
L 269 3500 
z
" transform="scale(0.015625)"/>
      </defs>
      <use xlink:href="#DejaVuSans-43"/>
      <use xlink:href="#DejaVuSans-6c" x="69.824219"/>
      <use xlink:href="#DejaVuSans-69" x="97.607422"/>
      <use xlink:href="#DejaVuSans-6e" x="125.390625"/>
      <use xlink:href="#DejaVuSans-74" x="188.769531"/>
      <use xlink:href="#DejaVuSans-20" x="227.978516"/>
      <use xlink:href="#DejaVuSans-45" x="259.765625"/>
      <use xlink:href="#DejaVuSans-61" x="322.949219"/>
      <use xlink:href="#DejaVuSans-73" x="384.228516"/>
      <use xlink:href="#DejaVuSans-74" x="436.328125"/>
      <use xlink:href="#DejaVuSans-77" x="475.537109"/>
      <use xlink:href="#DejaVuSans-6f" x="557.324219"/>
      <use xlink:href="#DejaVuSans-6f" x="618.505859"/>
      <use xlink:href="#DejaVuSans-64" x="679.6875"/>
     </g>
    </g>
   </g>
   <g id="text_6">
    <g id="patch_7">
     <path d="M 134.831361 122.152849 
L 211.961361 122.152849 
L 211.961361 105.522536 
L 134.831361 105.522536 
z
" clip-path="url(#p0824dd2912)" style="fill: #ffffff; opacity: 0.7; stroke: #000000; stroke-linejoin: miter"/>
    </g>
    <g clip-path="url(#p0824dd2912)">
     <!-- Clyde Geronimi -->
     <g transform="translate(138.791361 116.32113)scale(0.09 -0.09)">
      <defs>
       <path id="DejaVuSans-79" d="M 2059 -325 
Q 1816 -950 1584 -1140 
Q 1353 -1331 966 -1331 
L 506 -1331 
L 506 -850 
L 844 -850 
Q 1081 -850 1212 -737 
Q 1344 -625 1503 -206 
L 1606 56 
L 191 3500 
L 800 3500 
L 1894 763 
L 2988 3500 
L 3597 3500 
L 2059 -325 
z
" transform="scale(0.015625)"/>
       <path id="DejaVuSans-47" d="M 3809 666 
L 3809 1919 
L 2778 1919 
L 2778 2438 
L 4434 2438 
L 4434 434 
Q 4069 175 3628 42 
Q 3188 -91 2688 -91 
Q 1594 -91 976 548 
Q 359 1188 359 2328 
Q 359 3472 976 4111 
Q 1594 4750 2688 4750 
Q 3144 4750 3555 4637 
Q 3966 4525 4313 4306 
L 4313 3634 
Q 3963 3931 3569 4081 
Q 3175 4231 2741 4231 
Q 1884 4231 1454 3753 
Q 1025 3275 1025 2328 
Q 1025 1384 1454 906 
Q 1884 428 2741 428 
Q 3075 428 3337 486 
Q 3600 544 3809 666 
z
" transform="scale(0.015625)"/>
      </defs>
      <use xlink:href="#DejaVuSans-43"/>
      <use xlink:href="#DejaVuSans-6c" x="69.824219"/>
      <use xlink:href="#DejaVuSans-79" x="97.607422"/>
      <use xlink:href="#DejaVuSans-64" x="156.787109"/>
      <use xlink:href="#DejaVuSans-65" x="220.263672"/>
      <use xlink:href="#DejaVuSans-20" x="281.787109"/>
      <use xlink:href="#DejaVuSans-47" x="313.574219"/>
      <use xlink:href="#DejaVuSans-65" x="391.064453"/>
      <use xlink:href="#DejaVuSans-72" x="452.587891"/>
      <use xlink:href="#DejaVuSans-6f" x="491.451172"/>
      <use xlink:href="#DejaVuSans-6e" x="552.632812"/>
      <use xlink:href="#DejaVuSans-69" x="616.011719"/>
      <use xlink:href="#DejaVuSans-6d" x="643.794922"/>
      <use xlink:href="#DejaVuSans-69" x="741.207031"/>
     </g>
    </g>
   </g>
   <g id="text_7">
    <g id="patch_8">
     <path d="M 68.013131 181.80901 
L 146.645006 181.80901 
L 146.645006 165.178697 
L 68.013131 165.178697 
z
" clip-path="url(#p0824dd2912)" style="fill: #ffffff; opacity: 0.7; stroke: #000000; stroke-linejoin: miter"/>
    </g>
    <g clip-path="url(#p0824dd2912)">
     <!-- Charles Chaplin -->
     <g transform="translate(71.973131 175.977291)scale(0.09 -0.09)">
      <defs>
       <path id="DejaVuSans-70" d="M 1159 525 
L 1159 -1331 
L 581 -1331 
L 581 3500 
L 1159 3500 
L 1159 2969 
Q 1341 3281 1617 3432 
Q 1894 3584 2278 3584 
Q 2916 3584 3314 3078 
Q 3713 2572 3713 1747 
Q 3713 922 3314 415 
Q 2916 -91 2278 -91 
Q 1894 -91 1617 61 
Q 1341 213 1159 525 
z
M 3116 1747 
Q 3116 2381 2855 2742 
Q 2594 3103 2138 3103 
Q 1681 3103 1420 2742 
Q 1159 2381 1159 1747 
Q 1159 1113 1420 752 
Q 1681 391 2138 391 
Q 2594 391 2855 752 
Q 3116 1113 3116 1747 
z
" transform="scale(0.015625)"/>
      </defs>
      <use xlink:href="#DejaVuSans-43"/>
      <use xlink:href="#DejaVuSans-68" x="69.824219"/>
      <use xlink:href="#DejaVuSans-61" x="133.203125"/>
      <use xlink:href="#DejaVuSans-72" x="194.482422"/>
      <use xlink:href="#DejaVuSans-6c" x="235.595703"/>
      <use xlink:href="#DejaVuSans-65" x="263.378906"/>
      <use xlink:href="#DejaVuSans-73" x="324.902344"/>
      <use xlink:href="#DejaVuSans-20" x="377.001953"/>
      <use xlink:href="#DejaVuSans-43" x="408.789062"/>
      <use xlink:href="#DejaVuSans-68" x="478.613281"/>
      <use xlink:href="#DejaVuSans-61" x="541.992188"/>
      <use xlink:href="#DejaVuSans-70" x="603.271484"/>
      <use xlink:href="#DejaVuSans-6c" x="666.748047"/>
      <use xlink:href="#DejaVuSans-69" x="694.53125"/>
      <use xlink:href="#DejaVuSans-6e" x="722.314453"/>
     </g>
    </g>
   </g>
   <g id="text_8">
    <g id="patch_9">
     <path d="M 40.0447 263.25593 
L 102.293762 263.25593 
L 102.293762 246.625618 
L 40.0447 246.625618 
z
" clip-path="url(#p0824dd2912)" style="fill: #ffffff; opacity: 0.7; stroke: #000000; stroke-linejoin: miter"/>
    </g>
    <g clip-path="url(#p0824dd2912)">
     <!-- John Huston -->
     <g transform="translate(44.0047 257.424211)scale(0.09 -0.09)">
      <use xlink:href="#DejaVuSans-4a"/>
      <use xlink:href="#DejaVuSans-6f" x="29.492188"/>
      <use xlink:href="#DejaVuSans-68" x="90.673828"/>
      <use xlink:href="#DejaVuSans-6e" x="154.052734"/>
      <use xlink:href="#DejaVuSans-20" x="217.431641"/>
      <use xlink:href="#DejaVuSans-48" x="249.21875"/>
      <use xlink:href="#DejaVuSans-75" x="324.414062"/>
      <use xlink:href="#DejaVuSans-73" x="387.792969"/>
      <use xlink:href="#DejaVuSans-74" x="439.892578"/>
      <use xlink:href="#DejaVuSans-6f" x="479.101562"/>
      <use xlink:href="#DejaVuSans-6e" x="540.283203"/>
     </g>
    </g>
   </g>
   <g id="text_9">
    <g id="patch_10">
     <path d="M 36.332915 352.410671 
L 106.005572 352.410671 
L 106.005572 335.780358 
L 36.332915 335.780358 
z
" clip-path="url(#p0824dd2912)" style="fill: #ffffff; opacity: 0.7; stroke: #000000; stroke-linejoin: miter"/>
    </g>
    <g clip-path="url(#p0824dd2912)">
     <!-- George Cukor -->
     <g transform="translate(40.292915 346.578952)scale(0.09 -0.09)">
      <use xlink:href="#DejaVuSans-47"/>
      <use xlink:href="#DejaVuSans-65" x="77.490234"/>
      <use xlink:href="#DejaVuSans-6f" x="139.013672"/>
      <use xlink:href="#DejaVuSans-72" x="200.195312"/>
      <use xlink:href="#DejaVuSans-67" x="239.558594"/>
      <use xlink:href="#DejaVuSans-65" x="303.035156"/>
      <use xlink:href="#DejaVuSans-20" x="364.558594"/>
      <use xlink:href="#DejaVuSans-43" x="396.345703"/>
      <use xlink:href="#DejaVuSans-75" x="466.169922"/>
      <use xlink:href="#DejaVuSans-6b" x="529.548828"/>
      <use xlink:href="#DejaVuSans-6f" x="583.833984"/>
      <use xlink:href="#DejaVuSans-72" x="645.015625"/>
     </g>
    </g>
   </g>
   <g id="text_10">
    <g id="patch_11">
     <path d="M 67.421815 433.857565 
L 147.236347 433.857565 
L 147.236347 417.227253 
L 67.421815 417.227253 
z
" clip-path="url(#p0824dd2912)" style="fill: #ffffff; opacity: 0.7; stroke: #000000; stroke-linejoin: miter"/>
    </g>
    <g clip-path="url(#p0824dd2912)">
     <!-- Martin Scorsese -->
     <g transform="translate(71.381815 428.025847)scale(0.09 -0.09)">
      <defs>
       <path id="DejaVuSans-53" d="M 3425 4513 
L 3425 3897 
Q 3066 4069 2747 4153 
Q 2428 4238 2131 4238 
Q 1616 4238 1336 4038 
Q 1056 3838 1056 3469 
Q 1056 3159 1242 3001 
Q 1428 2844 1947 2747 
L 2328 2669 
Q 3034 2534 3370 2195 
Q 3706 1856 3706 1288 
Q 3706 609 3251 259 
Q 2797 -91 1919 -91 
Q 1588 -91 1214 -16 
Q 841 59 441 206 
L 441 856 
Q 825 641 1194 531 
Q 1563 422 1919 422 
Q 2459 422 2753 634 
Q 3047 847 3047 1241 
Q 3047 1584 2836 1778 
Q 2625 1972 2144 2069 
L 1759 2144 
Q 1053 2284 737 2584 
Q 422 2884 422 3419 
Q 422 4038 858 4394 
Q 1294 4750 2059 4750 
Q 2388 4750 2728 4690 
Q 3069 4631 3425 4513 
z
" transform="scale(0.015625)"/>
      </defs>
      <use xlink:href="#DejaVuSans-4d"/>
      <use xlink:href="#DejaVuSans-61" x="86.279297"/>
      <use xlink:href="#DejaVuSans-72" x="147.558594"/>
      <use xlink:href="#DejaVuSans-74" x="188.671875"/>
      <use xlink:href="#DejaVuSans-69" x="227.880859"/>
      <use xlink:href="#DejaVuSans-6e" x="255.664062"/>
      <use xlink:href="#DejaVuSans-20" x="319.042969"/>
      <use xlink:href="#DejaVuSans-53" x="350.830078"/>
      <use xlink:href="#DejaVuSans-63" x="414.306641"/>
      <use xlink:href="#DejaVuSans-6f" x="469.287109"/>
      <use xlink:href="#DejaVuSans-72" x="530.46875"/>
      <use xlink:href="#DejaVuSans-73" x="571.582031"/>
      <use xlink:href="#DejaVuSans-65" x="623.681641"/>
      <use xlink:href="#DejaVuSans-73" x="685.205078"/>
      <use xlink:href="#DejaVuSans-65" x="737.304688"/>
     </g>
    </g>
   </g>
   <g id="text_11">
    <g id="patch_12">
     <path d="M 137.78733 493.513727 
L 209.005455 493.513727 
L 209.005455 476.883414 
L 137.78733 476.883414 
z
" clip-path="url(#p0824dd2912)" style="fill: #ffffff; opacity: 0.7; stroke: #000000; stroke-linejoin: miter"/>
    </g>
    <g clip-path="url(#p0824dd2912)">
     <!-- Mervyn LeRoy -->
     <g transform="translate(141.74733 487.682008)scale(0.09 -0.09)">
      <defs>
       <path id="DejaVuSans-76" d="M 191 3500 
L 800 3500 
L 1894 563 
L 2988 3500 
L 3597 3500 
L 2284 0 
L 1503 0 
L 191 3500 
z
" transform="scale(0.015625)"/>
       <path id="DejaVuSans-4c" d="M 628 4666 
L 1259 4666 
L 1259 531 
L 3531 531 
L 3531 0 
L 628 0 
L 628 4666 
z
" transform="scale(0.015625)"/>
      </defs>
      <use xlink:href="#DejaVuSans-4d"/>
      <use xlink:href="#DejaVuSans-65" x="86.279297"/>
      <use xlink:href="#DejaVuSans-72" x="147.802734"/>
      <use xlink:href="#DejaVuSans-76" x="188.916016"/>
      <use xlink:href="#DejaVuSans-79" x="248.095703"/>
      <use xlink:href="#DejaVuSans-6e" x="307.275391"/>
      <use xlink:href="#DejaVuSans-20" x="370.654297"/>
      <use xlink:href="#DejaVuSans-4c" x="402.441406"/>
      <use xlink:href="#DejaVuSans-65" x="456.404297"/>
      <use xlink:href="#DejaVuSans-52" x="517.927734"/>
      <use xlink:href="#DejaVuSans-6f" x="582.910156"/>
      <use xlink:href="#DejaVuSans-79" x="644.091797"/>
     </g>
    </g>
   </g>
   <g id="text_12">
    <g id="patch_13">
     <path d="M 232.095742 521.06405 
L 283.799336 521.06405 
L 283.799336 504.433738 
L 232.095742 504.433738 
z
" clip-path="url(#p0824dd2912)" style="fill: #ffffff; opacity: 0.7; stroke: #000000; stroke-linejoin: miter"/>
    </g>
    <g clip-path="url(#p0824dd2912)">
     <!-- Fritz Lang -->
     <g transform="translate(236.055742 515.232332)scale(0.09 -0.09)">
      <use xlink:href="#DejaVuSans-46"/>
      <use xlink:href="#DejaVuSans-72" x="50.269531"/>
      <use xlink:href="#DejaVuSans-69" x="91.382812"/>
      <use xlink:href="#DejaVuSans-74" x="119.166016"/>
      <use xlink:href="#DejaVuSans-7a" x="158.375"/>
      <use xlink:href="#DejaVuSans-20" x="210.865234"/>
      <use xlink:href="#DejaVuSans-4c" x="242.652344"/>
      <use xlink:href="#DejaVuSans-61" x="298.365234"/>
      <use xlink:href="#DejaVuSans-6e" x="359.644531"/>
      <use xlink:href="#DejaVuSans-67" x="423.023438"/>
     </g>
    </g>
   </g>
   <g id="text_13">
    <g id="patch_14">
     <path d="M 297.416911 511.744831 
L 395.308786 511.744831 
L 395.308786 495.114518 
L 297.416911 495.114518 
z
" clip-path="url(#p0824dd2912)" style="fill: #ffffff; opacity: 0.7; stroke: #000000; stroke-linejoin: miter"/>
    </g>
    <g clip-path="url(#p0824dd2912)">
     <!-- Roger Spottiswoode -->
     <g transform="translate(301.376911 505.913112)scale(0.09 -0.09)">
      <use xlink:href="#DejaVuSans-52"/>
      <use xlink:href="#DejaVuSans-6f" x="64.982422"/>
      <use xlink:href="#DejaVuSans-67" x="126.164062"/>
      <use xlink:href="#DejaVuSans-65" x="189.640625"/>
      <use xlink:href="#DejaVuSans-72" x="251.164062"/>
      <use xlink:href="#DejaVuSans-20" x="292.277344"/>
      <use xlink:href="#DejaVuSans-53" x="324.064453"/>
      <use xlink:href="#DejaVuSans-70" x="387.541016"/>
      <use xlink:href="#DejaVuSans-6f" x="451.017578"/>
      <use xlink:href="#DejaVuSans-74" x="512.199219"/>
      <use xlink:href="#DejaVuSans-74" x="551.408203"/>
      <use xlink:href="#DejaVuSans-69" x="590.617188"/>
      <use xlink:href="#DejaVuSans-73" x="618.400391"/>
      <use xlink:href="#DejaVuSans-77" x="670.5"/>
      <use xlink:href="#DejaVuSans-6f" x="752.287109"/>
      <use xlink:href="#DejaVuSans-6f" x="813.46875"/>
      <use xlink:href="#DejaVuSans-64" x="874.650391"/>
      <use xlink:href="#DejaVuSans-65" x="938.126953"/>
     </g>
    </g>
   </g>
   <g id="text_14">
    <g id="patch_15">
     <path d="M 391.964914 467.167441 
L 454.744132 467.167441 
L 454.744132 450.537129 
L 391.964914 450.537129 
z
" clip-path="url(#p0824dd2912)" style="fill: #ffffff; opacity: 0.7; stroke: #000000; stroke-linejoin: miter"/>
    </g>
    <g clip-path="url(#p0824dd2912)">
     <!-- Arthur Hiller -->
     <g transform="translate(395.924914 461.335723)scale(0.09 -0.09)">
      <use xlink:href="#DejaVuSans-41"/>
      <use xlink:href="#DejaVuSans-72" x="68.408203"/>
      <use xlink:href="#DejaVuSans-74" x="109.521484"/>
      <use xlink:href="#DejaVuSans-68" x="148.730469"/>
      <use xlink:href="#DejaVuSans-75" x="212.109375"/>
      <use xlink:href="#DejaVuSans-72" x="275.488281"/>
      <use xlink:href="#DejaVuSans-20" x="316.601562"/>
      <use xlink:href="#DejaVuSans-48" x="348.388672"/>
      <use xlink:href="#DejaVuSans-69" x="423.583984"/>
      <use xlink:href="#DejaVuSans-6c" x="451.367188"/>
      <use xlink:href="#DejaVuSans-6c" x="479.150391"/>
      <use xlink:href="#DejaVuSans-65" x="506.933594"/>
      <use xlink:href="#DejaVuSans-72" x="568.457031"/>
     </g>
    </g>
   </g>
   <g id="text_15">
    <g id="patch_16">
     <path d="M 437.09913 395.039741 
L 514.120849 395.039741 
L 514.120849 378.409428 
L 437.09913 378.409428 
z
" clip-path="url(#p0824dd2912)" style="fill: #ffffff; opacity: 0.7; stroke: #000000; stroke-linejoin: miter"/>
    </g>
    <g clip-path="url(#p0824dd2912)">
     <!-- Brian De Palma -->
     <g transform="translate(441.05913 389.208022)scale(0.09 -0.09)">
      <defs>
       <path id="DejaVuSans-42" d="M 1259 2228 
L 1259 519 
L 2272 519 
Q 2781 519 3026 730 
Q 3272 941 3272 1375 
Q 3272 1813 3026 2020 
Q 2781 2228 2272 2228 
L 1259 2228 
z
M 1259 4147 
L 1259 2741 
L 2194 2741 
Q 2656 2741 2882 2914 
Q 3109 3088 3109 3444 
Q 3109 3797 2882 3972 
Q 2656 4147 2194 4147 
L 1259 4147 
z
M 628 4666 
L 2241 4666 
Q 2963 4666 3353 4366 
Q 3744 4066 3744 3513 
Q 3744 3084 3544 2831 
Q 3344 2578 2956 2516 
Q 3422 2416 3680 2098 
Q 3938 1781 3938 1306 
Q 3938 681 3513 340 
Q 3088 0 2303 0 
L 628 0 
L 628 4666 
z
" transform="scale(0.015625)"/>
       <path id="DejaVuSans-44" d="M 1259 4147 
L 1259 519 
L 2022 519 
Q 2988 519 3436 956 
Q 3884 1394 3884 2338 
Q 3884 3275 3436 3711 
Q 2988 4147 2022 4147 
L 1259 4147 
z
M 628 4666 
L 1925 4666 
Q 3281 4666 3915 4102 
Q 4550 3538 4550 2338 
Q 4550 1131 3912 565 
Q 3275 0 1925 0 
L 628 0 
L 628 4666 
z
" transform="scale(0.015625)"/>
       <path id="DejaVuSans-50" d="M 1259 4147 
L 1259 2394 
L 2053 2394 
Q 2494 2394 2734 2622 
Q 2975 2850 2975 3272 
Q 2975 3691 2734 3919 
Q 2494 4147 2053 4147 
L 1259 4147 
z
M 628 4666 
L 2053 4666 
Q 2838 4666 3239 4311 
Q 3641 3956 3641 3272 
Q 3641 2581 3239 2228 
Q 2838 1875 2053 1875 
L 1259 1875 
L 1259 0 
L 628 0 
L 628 4666 
z
" transform="scale(0.015625)"/>
      </defs>
      <use xlink:href="#DejaVuSans-42"/>
      <use xlink:href="#DejaVuSans-72" x="68.603516"/>
      <use xlink:href="#DejaVuSans-69" x="109.716797"/>
      <use xlink:href="#DejaVuSans-61" x="137.5"/>
      <use xlink:href="#DejaVuSans-6e" x="198.779297"/>
      <use xlink:href="#DejaVuSans-20" x="262.158203"/>
      <use xlink:href="#DejaVuSans-44" x="293.945312"/>
      <use xlink:href="#DejaVuSans-65" x="370.947266"/>
      <use xlink:href="#DejaVuSans-20" x="432.470703"/>
      <use xlink:href="#DejaVuSans-50" x="464.257812"/>
      <use xlink:href="#DejaVuSans-61" x="520.060547"/>
      <use xlink:href="#DejaVuSans-6c" x="581.339844"/>
      <use xlink:href="#DejaVuSans-6d" x="609.123047"/>
      <use xlink:href="#DejaVuSans-61" x="706.535156"/>
     </g>
    </g>
   </g>
   <g id="text_16">
    <!-- Impactful directors for Romance Film genre - Importance rank: 1 -->
    <g transform="translate(91.0275 16.318125)scale(0.12 -0.12)">
     <defs>
      <path id="DejaVuSans-49" d="M 628 4666 
L 1259 4666 
L 1259 0 
L 628 0 
L 628 4666 
z
" transform="scale(0.015625)"/>
      <path id="DejaVuSans-2d" d="M 313 2009 
L 1997 2009 
L 1997 1497 
L 313 1497 
L 313 2009 
z
" transform="scale(0.015625)"/>
      <path id="DejaVuSans-3a" d="M 750 794 
L 1409 794 
L 1409 0 
L 750 0 
L 750 794 
z
M 750 3309 
L 1409 3309 
L 1409 2516 
L 750 2516 
L 750 3309 
z
" transform="scale(0.015625)"/>
      <path id="DejaVuSans-31" d="M 794 531 
L 1825 531 
L 1825 4091 
L 703 3866 
L 703 4441 
L 1819 4666 
L 2450 4666 
L 2450 531 
L 3481 531 
L 3481 0 
L 794 0 
L 794 531 
z
" transform="scale(0.015625)"/>
     </defs>
     <use xlink:href="#DejaVuSans-49"/>
     <use xlink:href="#DejaVuSans-6d" x="29.492188"/>
     <use xlink:href="#DejaVuSans-70" x="126.904297"/>
     <use xlink:href="#DejaVuSans-61" x="190.380859"/>
     <use xlink:href="#DejaVuSans-63" x="251.660156"/>
     <use xlink:href="#DejaVuSans-74" x="306.640625"/>
     <use xlink:href="#DejaVuSans-66" x="345.849609"/>
     <use xlink:href="#DejaVuSans-75" x="381.054688"/>
     <use xlink:href="#DejaVuSans-6c" x="444.433594"/>
     <use xlink:href="#DejaVuSans-20" x="472.216797"/>
     <use xlink:href="#DejaVuSans-64" x="504.003906"/>
     <use xlink:href="#DejaVuSans-69" x="567.480469"/>
     <use xlink:href="#DejaVuSans-72" x="595.263672"/>
     <use xlink:href="#DejaVuSans-65" x="634.126953"/>
     <use xlink:href="#DejaVuSans-63" x="695.650391"/>
     <use xlink:href="#DejaVuSans-74" x="750.630859"/>
     <use xlink:href="#DejaVuSans-6f" x="789.839844"/>
     <use xlink:href="#DejaVuSans-72" x="851.021484"/>
     <use xlink:href="#DejaVuSans-73" x="892.134766"/>
     <use xlink:href="#DejaVuSans-20" x="944.234375"/>
     <use xlink:href="#DejaVuSans-66" x="976.021484"/>
     <use xlink:href="#DejaVuSans-6f" x="1011.226562"/>
     <use xlink:href="#DejaVuSans-72" x="1072.408203"/>
     <use xlink:href="#DejaVuSans-20" x="1113.521484"/>
     <use xlink:href="#DejaVuSans-52" x="1145.308594"/>
     <use xlink:href="#DejaVuSans-6f" x="1210.291016"/>
     <use xlink:href="#DejaVuSans-6d" x="1271.472656"/>
     <use xlink:href="#DejaVuSans-61" x="1368.884766"/>
     <use xlink:href="#DejaVuSans-6e" x="1430.164062"/>
     <use xlink:href="#DejaVuSans-63" x="1493.542969"/>
     <use xlink:href="#DejaVuSans-65" x="1548.523438"/>
     <use xlink:href="#DejaVuSans-20" x="1610.046875"/>
     <use xlink:href="#DejaVuSans-46" x="1641.833984"/>
     <use xlink:href="#DejaVuSans-69" x="1692.103516"/>
     <use xlink:href="#DejaVuSans-6c" x="1719.886719"/>
     <use xlink:href="#DejaVuSans-6d" x="1747.669922"/>
     <use xlink:href="#DejaVuSans-20" x="1845.082031"/>
     <use xlink:href="#DejaVuSans-67" x="1876.869141"/>
     <use xlink:href="#DejaVuSans-65" x="1940.345703"/>
     <use xlink:href="#DejaVuSans-6e" x="2001.869141"/>
     <use xlink:href="#DejaVuSans-72" x="2065.248047"/>
     <use xlink:href="#DejaVuSans-65" x="2104.111328"/>
     <use xlink:href="#DejaVuSans-20" x="2165.634766"/>
     <use xlink:href="#DejaVuSans-2d" x="2197.421875"/>
     <use xlink:href="#DejaVuSans-20" x="2233.505859"/>
     <use xlink:href="#DejaVuSans-49" x="2265.292969"/>
     <use xlink:href="#DejaVuSans-6d" x="2294.785156"/>
     <use xlink:href="#DejaVuSans-70" x="2392.197266"/>
     <use xlink:href="#DejaVuSans-6f" x="2455.673828"/>
     <use xlink:href="#DejaVuSans-72" x="2516.855469"/>
     <use xlink:href="#DejaVuSans-74" x="2557.96875"/>
     <use xlink:href="#DejaVuSans-61" x="2597.177734"/>
     <use xlink:href="#DejaVuSans-6e" x="2658.457031"/>
     <use xlink:href="#DejaVuSans-63" x="2721.835938"/>
     <use xlink:href="#DejaVuSans-65" x="2776.816406"/>
     <use xlink:href="#DejaVuSans-20" x="2838.339844"/>
     <use xlink:href="#DejaVuSans-72" x="2870.126953"/>
     <use xlink:href="#DejaVuSans-61" x="2911.240234"/>
     <use xlink:href="#DejaVuSans-6e" x="2972.519531"/>
     <use xlink:href="#DejaVuSans-6b" x="3035.898438"/>
     <use xlink:href="#DejaVuSans-3a" x="3093.808594"/>
     <use xlink:href="#DejaVuSans-20" x="3127.5"/>
     <use xlink:href="#DejaVuSans-31" x="3159.287109"/>
    </g>
   </g>
  </g>
 </g>
 <defs>
  <clipPath id="p0824dd2912">
   <rect x="7.2" y="22.318125" width="554.4" height="554.4"/>
  </clipPath>
 </defs>
</svg>
