<?xml version="1.0" encoding="utf-8" standalone="no"?>
<!DOCTYPE svg PUBLIC "-//W3C//DTD SVG 1.1//EN"
  "http://www.w3.org/Graphics/SVG/1.1/DTD/svg11.dtd">
<svg xmlns:xlink="http://www.w3.org/1999/xlink" width="576pt" height="576pt" viewBox="0 0 576 576" xmlns="http://www.w3.org/2000/svg" version="1.1">
 <metadata>
  <rdf:RDF xmlns:dc="http://purl.org/dc/elements/1.1/" xmlns:cc="http://creativecommons.org/ns#" xmlns:rdf="http://www.w3.org/1999/02/22-rdf-syntax-ns#">
   <cc:Work>
    <dc:type rdf:resource="http://purl.org/dc/dcmitype/StillImage"/>
    <dc:date>2022-12-23T17:29:11.093759</dc:date>
    <dc:format>image/svg+xml</dc:format>
    <dc:creator>
     <cc:Agent>
      <dc:title>Matplotlib v3.5.2, https://matplotlib.org/</dc:title>
     </cc:Agent>
    </dc:creator>
   </cc:Work>
  </rdf:RDF>
 </metadata>
 <defs>
  <style type="text/css">*{stroke-linejoin: round; stroke-linecap: butt}</style>
 </defs>
 <g id="figure_1">
  <g id="patch_1">
   <path d="M 0 576 
L 576 576 
L 576 0 
L 0 0 
z
" style="fill: #ffffff"/>
  </g>
  <g id="axes_1">
   <g id="LineCollection_1">
    <path d="M 482.592348 205.168006 
L 429.89985 134.09051 
" clip-path="url(#pc51db6fc10)" style="fill: none; stroke: #000000; stroke-opacity: 0.3; stroke-width: 5"/>
    <path d="M 263.109549 80.978696 
L 177.851298 108.127888 
" clip-path="url(#pc51db6fc10)" style="fill: none; stroke: #000000; stroke-opacity: 0.3; stroke-width: 10"/>
   </g>
   <g id="PathCollection_1">
    <path d="M 501.230769 318.490861 
C 508.493655 318.490861 515.46005 315.605285 520.595686 310.469649 
C 525.731322 305.334014 528.616897 298.367619 528.616897 291.104733 
C 528.616897 283.841847 525.731322 276.875452 520.595686 271.739816 
C 515.46005 266.60418 508.493655 263.718605 501.230769 263.718605 
C 493.967883 263.718605 487.001488 266.60418 481.865852 271.739816 
C 476.730217 276.875452 473.844641 283.841847 473.844641 291.104733 
C 473.844641 298.367619 476.730217 305.334014 481.865852 310.469649 
C 487.001488 315.605285 493.967883 318.490861 501.230769 318.490861 
z
" clip-path="url(#pc51db6fc10)" style="fill: #c70039; fill-opacity: 0.99; stroke: #c70039; stroke-opacity: 0.99"/>
    <path d="M 482.592348 231.836372 
C 489.664881 231.836372 496.448694 229.026425 501.449731 224.025389 
C 506.450767 219.024352 509.260715 212.240539 509.260715 205.168006 
C 509.260715 198.095472 506.450767 191.311659 501.449731 186.310623 
C 496.448694 181.309586 489.664881 178.499639 482.592348 178.499639 
C 475.519814 178.499639 468.736001 181.309586 463.734965 186.310623 
C 458.733928 191.311659 455.923981 198.095472 455.923981 205.168006 
C 455.923981 212.240539 458.733928 219.024352 463.734965 224.025389 
C 468.736001 229.026425 475.519814 231.836372 482.592348 231.836372 
z
" clip-path="url(#pc51db6fc10)" style="fill: #c70039; fill-opacity: 0.99; stroke: #c70039; stroke-opacity: 0.99"/>
    <path d="M 429.89985 158.721448 
C 436.432051 158.721448 442.69759 156.126177 447.316553 151.507213 
C 451.935517 146.888249 454.530788 140.622711 454.530788 134.09051 
C 454.530788 127.558308 451.935517 121.29277 447.316553 116.673806 
C 442.69759 112.054842 436.432051 109.459571 429.89985 109.459571 
C 423.367649 109.459571 417.10211 112.054842 412.483146 116.673806 
C 407.864183 121.29277 405.268912 127.558308 405.268912 134.09051 
C 405.268912 140.622711 407.864183 146.888249 412.483146 151.507213 
C 417.10211 156.126177 423.367649 158.721448 429.89985 158.721448 
z
" clip-path="url(#pc51db6fc10)" style="fill: #c70039; fill-opacity: 0.99; stroke: #c70039; stroke-opacity: 0.99"/>
    <path d="M 352.264291 114.665553 
C 358.762653 114.665553 364.995734 112.083727 369.59077 107.488691 
C 374.185806 102.893655 376.767633 96.660574 376.767633 90.162211 
C 376.767633 83.663849 374.185806 77.430768 369.59077 72.835732 
C 364.995734 68.240696 358.762653 65.65887 352.264291 65.65887 
C 345.765929 65.65887 339.532848 68.240696 334.937812 72.835732 
C 330.342776 77.430768 327.760949 83.663849 327.760949 90.162211 
C 327.760949 96.660574 330.342776 102.893655 334.937812 107.488691 
C 339.532848 112.083727 345.765929 114.665553 352.264291 114.665553 
z
" clip-path="url(#pc51db6fc10)" style="fill: #c70039; fill-opacity: 0.99; stroke: #c70039; stroke-opacity: 0.99"/>
    <path d="M 263.109549 105.482038 
C 269.607911 105.482038 275.840992 102.900211 280.436028 98.305175 
C 285.031064 93.710139 287.612891 87.477058 287.612891 80.978696 
C 287.612891 74.480334 285.031064 68.247253 280.436028 63.652217 
C 275.840992 59.057181 269.607911 56.475354 263.109549 56.475354 
C 256.611186 56.475354 250.378105 59.057181 245.783069 63.652217 
C 241.188033 68.247253 238.606207 74.480334 238.606207 80.978696 
C 238.606207 87.477058 241.188033 93.710139 245.783069 98.305175 
C 250.378105 102.900211 256.611186 105.482038 263.109549 105.482038 
z
" clip-path="url(#pc51db6fc10)" style="fill: #c70039; fill-opacity: 0.99; stroke: #c70039; stroke-opacity: 0.99"/>
    <path d="M 177.851298 131.09936 
C 183.943404 131.09936 189.786813 128.678941 194.094582 124.371172 
C 198.402351 120.063402 200.82277 114.219994 200.82277 108.127888 
C 200.82277 102.035782 198.402351 96.192373 194.094582 91.884604 
C 189.786813 87.576835 183.943404 85.156416 177.851298 85.156416 
C 171.759192 85.156416 165.915783 87.576835 161.608014 91.884604 
C 157.300245 96.192373 154.879826 102.035782 154.879826 108.127888 
C 154.879826 114.219994 157.300245 120.063402 161.608014 124.371172 
C 165.915783 128.678941 171.759192 131.09936 177.851298 131.09936 
z
" clip-path="url(#pc51db6fc10)" style="fill: #c70039; fill-opacity: 0.99; stroke: #c70039; stroke-opacity: 0.99"/>
    <path d="M 111.231477 189.048692 
C 117.101287 189.048692 122.731474 186.716592 126.882057 182.566009 
C 131.032639 178.415427 133.364739 172.785239 133.364739 166.91543 
C 133.364739 161.04562 131.032639 155.415432 126.882057 151.26485 
C 122.731474 147.114268 117.101287 144.782168 111.231477 144.782168 
C 105.361667 144.782168 99.73148 147.114268 95.580897 151.26485 
C 91.430315 155.415432 89.098215 161.04562 89.098215 166.91543 
C 89.098215 172.785239 91.430315 178.415427 95.580897 182.566009 
C 99.73148 186.716592 105.361667 189.048692 111.231477 189.048692 
z
" clip-path="url(#pc51db6fc10)" style="fill: #c70039; fill-opacity: 0.99; stroke: #c70039; stroke-opacity: 0.99"/>
    <path d="M 74.769231 269.25944 
C 80.625709 269.25944 86.24311 266.932637 90.384265 262.791481 
C 94.525421 258.650326 96.852224 253.032925 96.852224 247.176447 
C 96.852224 241.319969 94.525421 235.702568 90.384265 231.561413 
C 86.24311 227.420257 80.625709 225.093454 74.769231 225.093454 
C 68.912753 225.093454 63.295352 227.420257 59.154197 231.561413 
C 55.013041 235.702568 52.686238 241.319969 52.686238 247.176447 
C 52.686238 253.032925 55.013041 258.650326 59.154197 262.791481 
C 63.295352 266.932637 68.912753 269.25944 74.769231 269.25944 
z
" clip-path="url(#pc51db6fc10)" style="fill: #c70039; fill-opacity: 0.99; stroke: #c70039; stroke-opacity: 0.99"/>
    <path d="M 74.769244 357.077449 
C 80.615485 357.077449 86.223066 354.754712 90.356983 350.620796 
C 94.4909 346.486879 96.813636 340.879297 96.813636 335.033056 
C 96.813636 329.186815 94.4909 323.579233 90.356983 319.445316 
C 86.223066 315.3114 80.615485 312.988663 74.769244 312.988663 
C 68.923002 312.988663 63.315421 315.3114 59.181504 319.445316 
C 55.047587 323.579233 52.724851 329.186815 52.724851 335.033056 
C 52.724851 340.879297 55.047587 346.486879 59.181504 350.620796 
C 63.315421 354.754712 68.923002 357.077449 74.769244 357.077449 
z
" clip-path="url(#pc51db6fc10)" style="fill: #c70039; fill-opacity: 0.99; stroke: #c70039; stroke-opacity: 0.99"/>
    <path d="M 111.23149 436.776712 
C 116.928759 436.776712 122.393449 434.513163 126.422027 430.484585 
C 130.450604 426.456008 132.714153 420.991317 132.714153 415.294048 
C 132.714153 409.596779 130.450604 404.132089 126.422027 400.103511 
C 122.393449 396.074934 116.928759 393.811385 111.23149 393.811385 
C 105.534221 393.811385 100.06953 396.074934 96.040953 400.103511 
C 92.012375 404.132089 89.748826 409.596779 89.748826 415.294048 
C 89.748826 420.991317 92.012375 426.456008 96.040953 430.484585 
C 100.06953 434.513163 105.534221 436.776712 111.23149 436.776712 
z
" clip-path="url(#pc51db6fc10)" style="fill: #c70039; fill-opacity: 0.99; stroke: #c70039; stroke-opacity: 0.99"/>
    <path d="M 177.85133 495.511203 
C 183.53453 495.511203 188.985726 493.253244 193.004355 489.234615 
C 197.022984 485.215986 199.280943 479.76479 199.280943 474.08159 
C 199.280943 468.398391 197.022984 462.947195 193.004355 458.928566 
C 188.985726 454.909937 183.53453 452.651978 177.85133 452.651978 
C 172.168131 452.651978 166.716935 454.909937 162.698306 458.928566 
C 158.679677 462.947195 156.421718 468.398391 156.421718 474.08159 
C 156.421718 479.76479 158.679677 485.215986 162.698306 489.234615 
C 166.716935 493.253244 172.168131 495.511203 177.85133 495.511203 
z
" clip-path="url(#pc51db6fc10)" style="fill: #c70039; fill-opacity: 0.99; stroke: #c70039; stroke-opacity: 0.99"/>
    <path d="M 263.109587 521.822298 
C 268.570524 521.822298 273.808531 519.652645 277.669997 515.791179 
C 281.531463 511.929713 283.701116 506.691707 283.701116 501.230769 
C 283.701116 495.769832 281.531463 490.531825 277.669997 486.670359 
C 273.808531 482.808894 268.570524 480.63924 263.109587 480.63924 
C 257.64865 480.63924 252.410643 482.808894 248.549177 486.670359 
C 244.687712 490.531825 242.518058 495.769832 242.518058 501.230769 
C 242.518058 506.691707 244.687712 511.929713 248.549177 515.791179 
C 252.410643 519.652645 257.64865 521.822298 263.109587 521.822298 
z
" clip-path="url(#pc51db6fc10)" style="fill: #c70039; fill-opacity: 0.99; stroke: #c70039; stroke-opacity: 0.99"/>
    <path d="M 352.264323 511.994227 
C 357.554326 511.994227 362.628376 509.892487 366.368972 506.15189 
C 370.109569 502.411294 372.211309 497.337244 372.211309 492.047241 
C 372.211309 486.757239 370.109569 481.683189 366.368972 477.942593 
C 362.628376 474.201996 357.554326 472.100256 352.264323 472.100256 
C 346.974321 472.100256 341.900271 474.201996 338.159675 477.942593 
C 334.419078 481.683189 332.317338 486.757239 332.317338 492.047241 
C 332.317338 497.337244 334.419078 502.411294 338.159675 506.15189 
C 341.900271 509.892487 346.974321 511.994227 352.264323 511.994227 
z
" clip-path="url(#pc51db6fc10)" style="fill: #c70039; fill-opacity: 0.99; stroke: #c70039; stroke-opacity: 0.99"/>
    <path d="M 429.899888 467.515373 
C 435.043888 467.515373 439.977896 465.47164 443.615253 461.834283 
C 447.252611 458.196926 449.296343 453.262918 449.296343 448.118918 
C 449.296343 442.974918 447.252611 438.04091 443.615253 434.403553 
C 439.977896 430.766196 435.043888 428.722463 429.899888 428.722463 
C 424.755888 428.722463 419.821881 430.766196 416.184523 434.403553 
C 412.547166 438.04091 410.503433 442.974918 410.503433 448.118918 
C 410.503433 453.262918 412.547166 458.196926 416.184523 461.834283 
C 419.821881 465.47164 424.755888 467.515373 429.899888 467.515373 
z
" clip-path="url(#pc51db6fc10)" style="fill: #c70039; fill-opacity: 0.99; stroke: #c70039; stroke-opacity: 0.99"/>
    <path d="M 482.592374 396.406345 
C 487.728009 396.406345 492.653994 394.365935 496.285437 390.734492 
C 499.91688 387.103049 501.95729 382.177064 501.95729 377.041428 
C 501.95729 371.905792 499.91688 366.979807 496.285437 363.348364 
C 492.653994 359.716921 487.728009 357.676512 482.592374 357.676512 
C 477.456738 357.676512 472.530753 359.716921 468.89931 363.348364 
C 465.267867 366.979807 463.227457 371.905792 463.227457 377.041428 
C 463.227457 382.177064 465.267867 387.103049 468.89931 390.734492 
C 472.530753 394.365935 477.456738 396.406345 482.592374 396.406345 
z
" clip-path="url(#pc51db6fc10)" style="fill: #c70039; fill-opacity: 0.99; stroke: #c70039; stroke-opacity: 0.99"/>
   </g>
   <g id="text_1">
    <g id="patch_2">
     <path d="M 469.429129 299.419889 
L 533.03241 299.419889 
L 533.03241 282.789576 
L 469.429129 282.789576 
z
" clip-path="url(#pc51db6fc10)" style="fill: #ffffff; opacity: 0.7; stroke: #000000; stroke-linejoin: miter"/>
    </g>
    <g clip-path="url(#pc51db6fc10)">
     <!-- Woody Allen -->
     <g transform="translate(473.389129 293.58817)scale(0.09 -0.09)">
      <defs>
       <path id="DejaVuSans-57" d="M 213 4666 
L 850 4666 
L 1831 722 
L 2809 4666 
L 3519 4666 
L 4500 722 
L 5478 4666 
L 6119 4666 
L 4947 0 
L 4153 0 
L 3169 4050 
L 2175 0 
L 1381 0 
L 213 4666 
z
" transform="scale(0.015625)"/>
       <path id="DejaVuSans-6f" d="M 1959 3097 
Q 1497 3097 1228 2736 
Q 959 2375 959 1747 
Q 959 1119 1226 758 
Q 1494 397 1959 397 
Q 2419 397 2687 759 
Q 2956 1122 2956 1747 
Q 2956 2369 2687 2733 
Q 2419 3097 1959 3097 
z
M 1959 3584 
Q 2709 3584 3137 3096 
Q 3566 2609 3566 1747 
Q 3566 888 3137 398 
Q 2709 -91 1959 -91 
Q 1206 -91 779 398 
Q 353 888 353 1747 
Q 353 2609 779 3096 
Q 1206 3584 1959 3584 
z
" transform="scale(0.015625)"/>
       <path id="DejaVuSans-64" d="M 2906 2969 
L 2906 4863 
L 3481 4863 
L 3481 0 
L 2906 0 
L 2906 525 
Q 2725 213 2448 61 
Q 2172 -91 1784 -91 
Q 1150 -91 751 415 
Q 353 922 353 1747 
Q 353 2572 751 3078 
Q 1150 3584 1784 3584 
Q 2172 3584 2448 3432 
Q 2725 3281 2906 2969 
z
M 947 1747 
Q 947 1113 1208 752 
Q 1469 391 1925 391 
Q 2381 391 2643 752 
Q 2906 1113 2906 1747 
Q 2906 2381 2643 2742 
Q 2381 3103 1925 3103 
Q 1469 3103 1208 2742 
Q 947 2381 947 1747 
z
" transform="scale(0.015625)"/>
       <path id="DejaVuSans-79" d="M 2059 -325 
Q 1816 -950 1584 -1140 
Q 1353 -1331 966 -1331 
L 506 -1331 
L 506 -850 
L 844 -850 
Q 1081 -850 1212 -737 
Q 1344 -625 1503 -206 
L 1606 56 
L 191 3500 
L 800 3500 
L 1894 763 
L 2988 3500 
L 3597 3500 
L 2059 -325 
z
" transform="scale(0.015625)"/>
       <path id="DejaVuSans-20" transform="scale(0.015625)"/>
       <path id="DejaVuSans-41" d="M 2188 4044 
L 1331 1722 
L 3047 1722 
L 2188 4044 
z
M 1831 4666 
L 2547 4666 
L 4325 0 
L 3669 0 
L 3244 1197 
L 1141 1197 
L 716 0 
L 50 0 
L 1831 4666 
z
" transform="scale(0.015625)"/>
       <path id="DejaVuSans-6c" d="M 603 4863 
L 1178 4863 
L 1178 0 
L 603 0 
L 603 4863 
z
" transform="scale(0.015625)"/>
       <path id="DejaVuSans-65" d="M 3597 1894 
L 3597 1613 
L 953 1613 
Q 991 1019 1311 708 
Q 1631 397 2203 397 
Q 2534 397 2845 478 
Q 3156 559 3463 722 
L 3463 178 
Q 3153 47 2828 -22 
Q 2503 -91 2169 -91 
Q 1331 -91 842 396 
Q 353 884 353 1716 
Q 353 2575 817 3079 
Q 1281 3584 2069 3584 
Q 2775 3584 3186 3129 
Q 3597 2675 3597 1894 
z
M 3022 2063 
Q 3016 2534 2758 2815 
Q 2500 3097 2075 3097 
Q 1594 3097 1305 2825 
Q 1016 2553 972 2059 
L 3022 2063 
z
" transform="scale(0.015625)"/>
       <path id="DejaVuSans-6e" d="M 3513 2113 
L 3513 0 
L 2938 0 
L 2938 2094 
Q 2938 2591 2744 2837 
Q 2550 3084 2163 3084 
Q 1697 3084 1428 2787 
Q 1159 2491 1159 1978 
L 1159 0 
L 581 0 
L 581 3500 
L 1159 3500 
L 1159 2956 
Q 1366 3272 1645 3428 
Q 1925 3584 2291 3584 
Q 2894 3584 3203 3211 
Q 3513 2838 3513 2113 
z
" transform="scale(0.015625)"/>
      </defs>
      <use xlink:href="#DejaVuSans-57"/>
      <use xlink:href="#DejaVuSans-6f" x="93.001953"/>
      <use xlink:href="#DejaVuSans-6f" x="154.183594"/>
      <use xlink:href="#DejaVuSans-64" x="215.365234"/>
      <use xlink:href="#DejaVuSans-79" x="278.841797"/>
      <use xlink:href="#DejaVuSans-20" x="338.021484"/>
      <use xlink:href="#DejaVuSans-41" x="369.808594"/>
      <use xlink:href="#DejaVuSans-6c" x="438.216797"/>
      <use xlink:href="#DejaVuSans-6c" x="466"/>
      <use xlink:href="#DejaVuSans-65" x="493.783203"/>
      <use xlink:href="#DejaVuSans-6e" x="555.306641"/>
     </g>
    </g>
   </g>
   <g id="text_2">
    <g id="patch_3">
     <path d="M 451.23016 213.483162 
L 513.954535 213.483162 
L 513.954535 196.852849 
L 451.23016 196.852849 
z
" clip-path="url(#pc51db6fc10)" style="fill: #ffffff; opacity: 0.7; stroke: #000000; stroke-linejoin: miter"/>
    </g>
    <g clip-path="url(#pc51db6fc10)">
     <!-- Chuck Jones -->
     <g transform="translate(455.19016 207.651443)scale(0.09 -0.09)">
      <defs>
       <path id="DejaVuSans-43" d="M 4122 4306 
L 4122 3641 
Q 3803 3938 3442 4084 
Q 3081 4231 2675 4231 
Q 1875 4231 1450 3742 
Q 1025 3253 1025 2328 
Q 1025 1406 1450 917 
Q 1875 428 2675 428 
Q 3081 428 3442 575 
Q 3803 722 4122 1019 
L 4122 359 
Q 3791 134 3420 21 
Q 3050 -91 2638 -91 
Q 1578 -91 968 557 
Q 359 1206 359 2328 
Q 359 3453 968 4101 
Q 1578 4750 2638 4750 
Q 3056 4750 3426 4639 
Q 3797 4528 4122 4306 
z
" transform="scale(0.015625)"/>
       <path id="DejaVuSans-68" d="M 3513 2113 
L 3513 0 
L 2938 0 
L 2938 2094 
Q 2938 2591 2744 2837 
Q 2550 3084 2163 3084 
Q 1697 3084 1428 2787 
Q 1159 2491 1159 1978 
L 1159 0 
L 581 0 
L 581 4863 
L 1159 4863 
L 1159 2956 
Q 1366 3272 1645 3428 
Q 1925 3584 2291 3584 
Q 2894 3584 3203 3211 
Q 3513 2838 3513 2113 
z
" transform="scale(0.015625)"/>
       <path id="DejaVuSans-75" d="M 544 1381 
L 544 3500 
L 1119 3500 
L 1119 1403 
Q 1119 906 1312 657 
Q 1506 409 1894 409 
Q 2359 409 2629 706 
Q 2900 1003 2900 1516 
L 2900 3500 
L 3475 3500 
L 3475 0 
L 2900 0 
L 2900 538 
Q 2691 219 2414 64 
Q 2138 -91 1772 -91 
Q 1169 -91 856 284 
Q 544 659 544 1381 
z
M 1991 3584 
L 1991 3584 
z
" transform="scale(0.015625)"/>
       <path id="DejaVuSans-63" d="M 3122 3366 
L 3122 2828 
Q 2878 2963 2633 3030 
Q 2388 3097 2138 3097 
Q 1578 3097 1268 2742 
Q 959 2388 959 1747 
Q 959 1106 1268 751 
Q 1578 397 2138 397 
Q 2388 397 2633 464 
Q 2878 531 3122 666 
L 3122 134 
Q 2881 22 2623 -34 
Q 2366 -91 2075 -91 
Q 1284 -91 818 406 
Q 353 903 353 1747 
Q 353 2603 823 3093 
Q 1294 3584 2113 3584 
Q 2378 3584 2631 3529 
Q 2884 3475 3122 3366 
z
" transform="scale(0.015625)"/>
       <path id="DejaVuSans-6b" d="M 581 4863 
L 1159 4863 
L 1159 1991 
L 2875 3500 
L 3609 3500 
L 1753 1863 
L 3688 0 
L 2938 0 
L 1159 1709 
L 1159 0 
L 581 0 
L 581 4863 
z
" transform="scale(0.015625)"/>
       <path id="DejaVuSans-4a" d="M 628 4666 
L 1259 4666 
L 1259 325 
Q 1259 -519 939 -900 
Q 619 -1281 -91 -1281 
L -331 -1281 
L -331 -750 
L -134 -750 
Q 284 -750 456 -515 
Q 628 -281 628 325 
L 628 4666 
z
" transform="scale(0.015625)"/>
       <path id="DejaVuSans-73" d="M 2834 3397 
L 2834 2853 
Q 2591 2978 2328 3040 
Q 2066 3103 1784 3103 
Q 1356 3103 1142 2972 
Q 928 2841 928 2578 
Q 928 2378 1081 2264 
Q 1234 2150 1697 2047 
L 1894 2003 
Q 2506 1872 2764 1633 
Q 3022 1394 3022 966 
Q 3022 478 2636 193 
Q 2250 -91 1575 -91 
Q 1294 -91 989 -36 
Q 684 19 347 128 
L 347 722 
Q 666 556 975 473 
Q 1284 391 1588 391 
Q 1994 391 2212 530 
Q 2431 669 2431 922 
Q 2431 1156 2273 1281 
Q 2116 1406 1581 1522 
L 1381 1569 
Q 847 1681 609 1914 
Q 372 2147 372 2553 
Q 372 3047 722 3315 
Q 1072 3584 1716 3584 
Q 2034 3584 2315 3537 
Q 2597 3491 2834 3397 
z
" transform="scale(0.015625)"/>
      </defs>
      <use xlink:href="#DejaVuSans-43"/>
      <use xlink:href="#DejaVuSans-68" x="69.824219"/>
      <use xlink:href="#DejaVuSans-75" x="133.203125"/>
      <use xlink:href="#DejaVuSans-63" x="196.582031"/>
      <use xlink:href="#DejaVuSans-6b" x="251.5625"/>
      <use xlink:href="#DejaVuSans-20" x="309.472656"/>
      <use xlink:href="#DejaVuSans-4a" x="341.259766"/>
      <use xlink:href="#DejaVuSans-6f" x="370.751953"/>
      <use xlink:href="#DejaVuSans-6e" x="431.933594"/>
      <use xlink:href="#DejaVuSans-65" x="495.3125"/>
      <use xlink:href="#DejaVuSans-73" x="556.835938"/>
     </g>
    </g>
   </g>
   <g id="text_3">
    <g id="patch_4">
     <path d="M 400.2786 142.405666 
L 459.5211 142.405666 
L 459.5211 125.775353 
L 400.2786 125.775353 
z
" clip-path="url(#pc51db6fc10)" style="fill: #ffffff; opacity: 0.7; stroke: #000000; stroke-linejoin: miter"/>
    </g>
    <g clip-path="url(#pc51db6fc10)">
     <!-- Friz Freleng -->
     <g transform="translate(404.2386 136.573947)scale(0.09 -0.09)">
      <defs>
       <path id="DejaVuSans-46" d="M 628 4666 
L 3309 4666 
L 3309 4134 
L 1259 4134 
L 1259 2759 
L 3109 2759 
L 3109 2228 
L 1259 2228 
L 1259 0 
L 628 0 
L 628 4666 
z
" transform="scale(0.015625)"/>
       <path id="DejaVuSans-72" d="M 2631 2963 
Q 2534 3019 2420 3045 
Q 2306 3072 2169 3072 
Q 1681 3072 1420 2755 
Q 1159 2438 1159 1844 
L 1159 0 
L 581 0 
L 581 3500 
L 1159 3500 
L 1159 2956 
Q 1341 3275 1631 3429 
Q 1922 3584 2338 3584 
Q 2397 3584 2469 3576 
Q 2541 3569 2628 3553 
L 2631 2963 
z
" transform="scale(0.015625)"/>
       <path id="DejaVuSans-69" d="M 603 3500 
L 1178 3500 
L 1178 0 
L 603 0 
L 603 3500 
z
M 603 4863 
L 1178 4863 
L 1178 4134 
L 603 4134 
L 603 4863 
z
" transform="scale(0.015625)"/>
       <path id="DejaVuSans-7a" d="M 353 3500 
L 3084 3500 
L 3084 2975 
L 922 459 
L 3084 459 
L 3084 0 
L 275 0 
L 275 525 
L 2438 3041 
L 353 3041 
L 353 3500 
z
" transform="scale(0.015625)"/>
       <path id="DejaVuSans-67" d="M 2906 1791 
Q 2906 2416 2648 2759 
Q 2391 3103 1925 3103 
Q 1463 3103 1205 2759 
Q 947 2416 947 1791 
Q 947 1169 1205 825 
Q 1463 481 1925 481 
Q 2391 481 2648 825 
Q 2906 1169 2906 1791 
z
M 3481 434 
Q 3481 -459 3084 -895 
Q 2688 -1331 1869 -1331 
Q 1566 -1331 1297 -1286 
Q 1028 -1241 775 -1147 
L 775 -588 
Q 1028 -725 1275 -790 
Q 1522 -856 1778 -856 
Q 2344 -856 2625 -561 
Q 2906 -266 2906 331 
L 2906 616 
Q 2728 306 2450 153 
Q 2172 0 1784 0 
Q 1141 0 747 490 
Q 353 981 353 1791 
Q 353 2603 747 3093 
Q 1141 3584 1784 3584 
Q 2172 3584 2450 3431 
Q 2728 3278 2906 2969 
L 2906 3500 
L 3481 3500 
L 3481 434 
z
" transform="scale(0.015625)"/>
      </defs>
      <use xlink:href="#DejaVuSans-46"/>
      <use xlink:href="#DejaVuSans-72" x="50.269531"/>
      <use xlink:href="#DejaVuSans-69" x="91.382812"/>
      <use xlink:href="#DejaVuSans-7a" x="119.166016"/>
      <use xlink:href="#DejaVuSans-20" x="171.65625"/>
      <use xlink:href="#DejaVuSans-46" x="203.443359"/>
      <use xlink:href="#DejaVuSans-72" x="253.712891"/>
      <use xlink:href="#DejaVuSans-65" x="292.576172"/>
      <use xlink:href="#DejaVuSans-6c" x="354.099609"/>
      <use xlink:href="#DejaVuSans-65" x="381.882812"/>
      <use xlink:href="#DejaVuSans-6e" x="443.40625"/>
      <use xlink:href="#DejaVuSans-67" x="506.785156"/>
     </g>
    </g>
   </g>
   <g id="text_4">
    <g id="patch_5">
     <path d="M 318.573354 98.477368 
L 385.955229 98.477368 
L 385.955229 81.847055 
L 318.573354 81.847055 
z
" clip-path="url(#pc51db6fc10)" style="fill: #ffffff; opacity: 0.7; stroke: #000000; stroke-linejoin: miter"/>
    </g>
    <g clip-path="url(#pc51db6fc10)">
     <!-- Ivan Reitman -->
     <g transform="translate(322.533354 92.645649)scale(0.09 -0.09)">
      <defs>
       <path id="DejaVuSans-49" d="M 628 4666 
L 1259 4666 
L 1259 0 
L 628 0 
L 628 4666 
z
" transform="scale(0.015625)"/>
       <path id="DejaVuSans-76" d="M 191 3500 
L 800 3500 
L 1894 563 
L 2988 3500 
L 3597 3500 
L 2284 0 
L 1503 0 
L 191 3500 
z
" transform="scale(0.015625)"/>
       <path id="DejaVuSans-61" d="M 2194 1759 
Q 1497 1759 1228 1600 
Q 959 1441 959 1056 
Q 959 750 1161 570 
Q 1363 391 1709 391 
Q 2188 391 2477 730 
Q 2766 1069 2766 1631 
L 2766 1759 
L 2194 1759 
z
M 3341 1997 
L 3341 0 
L 2766 0 
L 2766 531 
Q 2569 213 2275 61 
Q 1981 -91 1556 -91 
Q 1019 -91 701 211 
Q 384 513 384 1019 
Q 384 1609 779 1909 
Q 1175 2209 1959 2209 
L 2766 2209 
L 2766 2266 
Q 2766 2663 2505 2880 
Q 2244 3097 1772 3097 
Q 1472 3097 1187 3025 
Q 903 2953 641 2809 
L 641 3341 
Q 956 3463 1253 3523 
Q 1550 3584 1831 3584 
Q 2591 3584 2966 3190 
Q 3341 2797 3341 1997 
z
" transform="scale(0.015625)"/>
       <path id="DejaVuSans-52" d="M 2841 2188 
Q 3044 2119 3236 1894 
Q 3428 1669 3622 1275 
L 4263 0 
L 3584 0 
L 2988 1197 
Q 2756 1666 2539 1819 
Q 2322 1972 1947 1972 
L 1259 1972 
L 1259 0 
L 628 0 
L 628 4666 
L 2053 4666 
Q 2853 4666 3247 4331 
Q 3641 3997 3641 3322 
Q 3641 2881 3436 2590 
Q 3231 2300 2841 2188 
z
M 1259 4147 
L 1259 2491 
L 2053 2491 
Q 2509 2491 2742 2702 
Q 2975 2913 2975 3322 
Q 2975 3731 2742 3939 
Q 2509 4147 2053 4147 
L 1259 4147 
z
" transform="scale(0.015625)"/>
       <path id="DejaVuSans-74" d="M 1172 4494 
L 1172 3500 
L 2356 3500 
L 2356 3053 
L 1172 3053 
L 1172 1153 
Q 1172 725 1289 603 
Q 1406 481 1766 481 
L 2356 481 
L 2356 0 
L 1766 0 
Q 1100 0 847 248 
Q 594 497 594 1153 
L 594 3053 
L 172 3053 
L 172 3500 
L 594 3500 
L 594 4494 
L 1172 4494 
z
" transform="scale(0.015625)"/>
       <path id="DejaVuSans-6d" d="M 3328 2828 
Q 3544 3216 3844 3400 
Q 4144 3584 4550 3584 
Q 5097 3584 5394 3201 
Q 5691 2819 5691 2113 
L 5691 0 
L 5113 0 
L 5113 2094 
Q 5113 2597 4934 2840 
Q 4756 3084 4391 3084 
Q 3944 3084 3684 2787 
Q 3425 2491 3425 1978 
L 3425 0 
L 2847 0 
L 2847 2094 
Q 2847 2600 2669 2842 
Q 2491 3084 2119 3084 
Q 1678 3084 1418 2786 
Q 1159 2488 1159 1978 
L 1159 0 
L 581 0 
L 581 3500 
L 1159 3500 
L 1159 2956 
Q 1356 3278 1631 3431 
Q 1906 3584 2284 3584 
Q 2666 3584 2933 3390 
Q 3200 3197 3328 2828 
z
" transform="scale(0.015625)"/>
      </defs>
      <use xlink:href="#DejaVuSans-49"/>
      <use xlink:href="#DejaVuSans-76" x="29.492188"/>
      <use xlink:href="#DejaVuSans-61" x="88.671875"/>
      <use xlink:href="#DejaVuSans-6e" x="149.951172"/>
      <use xlink:href="#DejaVuSans-20" x="213.330078"/>
      <use xlink:href="#DejaVuSans-52" x="245.117188"/>
      <use xlink:href="#DejaVuSans-65" x="310.099609"/>
      <use xlink:href="#DejaVuSans-69" x="371.623047"/>
      <use xlink:href="#DejaVuSans-74" x="399.40625"/>
      <use xlink:href="#DejaVuSans-6d" x="438.615234"/>
      <use xlink:href="#DejaVuSans-61" x="536.027344"/>
      <use xlink:href="#DejaVuSans-6e" x="597.306641"/>
     </g>
    </g>
   </g>
   <g id="text_5">
    <g id="patch_6">
     <path d="M 226.626502 89.293852 
L 299.592595 89.293852 
L 299.592595 72.66354 
L 226.626502 72.66354 
z
" clip-path="url(#pc51db6fc10)" style="fill: #ffffff; opacity: 0.7; stroke: #000000; stroke-linejoin: miter"/>
    </g>
    <g clip-path="url(#pc51db6fc10)">
     <!-- William Hanna -->
     <g transform="translate(230.586502 83.462134)scale(0.09 -0.09)">
      <defs>
       <path id="DejaVuSans-48" d="M 628 4666 
L 1259 4666 
L 1259 2753 
L 3553 2753 
L 3553 4666 
L 4184 4666 
L 4184 0 
L 3553 0 
L 3553 2222 
L 1259 2222 
L 1259 0 
L 628 0 
L 628 4666 
z
" transform="scale(0.015625)"/>
      </defs>
      <use xlink:href="#DejaVuSans-57"/>
      <use xlink:href="#DejaVuSans-69" x="96.626953"/>
      <use xlink:href="#DejaVuSans-6c" x="124.410156"/>
      <use xlink:href="#DejaVuSans-6c" x="152.193359"/>
      <use xlink:href="#DejaVuSans-69" x="179.976562"/>
      <use xlink:href="#DejaVuSans-61" x="207.759766"/>
      <use xlink:href="#DejaVuSans-6d" x="269.039062"/>
      <use xlink:href="#DejaVuSans-20" x="366.451172"/>
      <use xlink:href="#DejaVuSans-48" x="398.238281"/>
      <use xlink:href="#DejaVuSans-61" x="473.433594"/>
      <use xlink:href="#DejaVuSans-6e" x="534.712891"/>
      <use xlink:href="#DejaVuSans-6e" x="598.091797"/>
      <use xlink:href="#DejaVuSans-61" x="661.470703"/>
     </g>
    </g>
   </g>
   <g id="text_6">
    <g id="patch_7">
     <path d="M 139.630126 116.443044 
L 216.07247 116.443044 
L 216.07247 99.812732 
L 139.630126 99.812732 
z
" clip-path="url(#pc51db6fc10)" style="fill: #ffffff; opacity: 0.7; stroke: #000000; stroke-linejoin: miter"/>
    </g>
    <g clip-path="url(#pc51db6fc10)">
     <!-- Joseph Barbera -->
     <g transform="translate(143.590126 110.611325)scale(0.09 -0.09)">
      <defs>
       <path id="DejaVuSans-70" d="M 1159 525 
L 1159 -1331 
L 581 -1331 
L 581 3500 
L 1159 3500 
L 1159 2969 
Q 1341 3281 1617 3432 
Q 1894 3584 2278 3584 
Q 2916 3584 3314 3078 
Q 3713 2572 3713 1747 
Q 3713 922 3314 415 
Q 2916 -91 2278 -91 
Q 1894 -91 1617 61 
Q 1341 213 1159 525 
z
M 3116 1747 
Q 3116 2381 2855 2742 
Q 2594 3103 2138 3103 
Q 1681 3103 1420 2742 
Q 1159 2381 1159 1747 
Q 1159 1113 1420 752 
Q 1681 391 2138 391 
Q 2594 391 2855 752 
Q 3116 1113 3116 1747 
z
" transform="scale(0.015625)"/>
       <path id="DejaVuSans-42" d="M 1259 2228 
L 1259 519 
L 2272 519 
Q 2781 519 3026 730 
Q 3272 941 3272 1375 
Q 3272 1813 3026 2020 
Q 2781 2228 2272 2228 
L 1259 2228 
z
M 1259 4147 
L 1259 2741 
L 2194 2741 
Q 2656 2741 2882 2914 
Q 3109 3088 3109 3444 
Q 3109 3797 2882 3972 
Q 2656 4147 2194 4147 
L 1259 4147 
z
M 628 4666 
L 2241 4666 
Q 2963 4666 3353 4366 
Q 3744 4066 3744 3513 
Q 3744 3084 3544 2831 
Q 3344 2578 2956 2516 
Q 3422 2416 3680 2098 
Q 3938 1781 3938 1306 
Q 3938 681 3513 340 
Q 3088 0 2303 0 
L 628 0 
L 628 4666 
z
" transform="scale(0.015625)"/>
       <path id="DejaVuSans-62" d="M 3116 1747 
Q 3116 2381 2855 2742 
Q 2594 3103 2138 3103 
Q 1681 3103 1420 2742 
Q 1159 2381 1159 1747 
Q 1159 1113 1420 752 
Q 1681 391 2138 391 
Q 2594 391 2855 752 
Q 3116 1113 3116 1747 
z
M 1159 2969 
Q 1341 3281 1617 3432 
Q 1894 3584 2278 3584 
Q 2916 3584 3314 3078 
Q 3713 2572 3713 1747 
Q 3713 922 3314 415 
Q 2916 -91 2278 -91 
Q 1894 -91 1617 61 
Q 1341 213 1159 525 
L 1159 0 
L 581 0 
L 581 4863 
L 1159 4863 
L 1159 2969 
z
" transform="scale(0.015625)"/>
      </defs>
      <use xlink:href="#DejaVuSans-4a"/>
      <use xlink:href="#DejaVuSans-6f" x="29.492188"/>
      <use xlink:href="#DejaVuSans-73" x="90.673828"/>
      <use xlink:href="#DejaVuSans-65" x="142.773438"/>
      <use xlink:href="#DejaVuSans-70" x="204.296875"/>
      <use xlink:href="#DejaVuSans-68" x="267.773438"/>
      <use xlink:href="#DejaVuSans-20" x="331.152344"/>
      <use xlink:href="#DejaVuSans-42" x="362.939453"/>
      <use xlink:href="#DejaVuSans-61" x="431.542969"/>
      <use xlink:href="#DejaVuSans-72" x="492.822266"/>
      <use xlink:href="#DejaVuSans-62" x="533.935547"/>
      <use xlink:href="#DejaVuSans-65" x="597.412109"/>
      <use xlink:href="#DejaVuSans-72" x="658.935547"/>
      <use xlink:href="#DejaVuSans-61" x="700.048828"/>
     </g>
    </g>
   </g>
   <g id="text_7">
    <g id="patch_8">
     <path d="M 80.106946 175.230586 
L 142.356008 175.230586 
L 142.356008 158.600273 
L 80.106946 158.600273 
z
" clip-path="url(#pc51db6fc10)" style="fill: #ffffff; opacity: 0.7; stroke: #000000; stroke-linejoin: miter"/>
    </g>
    <g clip-path="url(#pc51db6fc10)">
     <!-- John Huston -->
     <g transform="translate(84.066946 169.398867)scale(0.09 -0.09)">
      <use xlink:href="#DejaVuSans-4a"/>
      <use xlink:href="#DejaVuSans-6f" x="29.492188"/>
      <use xlink:href="#DejaVuSans-68" x="90.673828"/>
      <use xlink:href="#DejaVuSans-6e" x="154.052734"/>
      <use xlink:href="#DejaVuSans-20" x="217.431641"/>
      <use xlink:href="#DejaVuSans-48" x="249.21875"/>
      <use xlink:href="#DejaVuSans-75" x="324.414062"/>
      <use xlink:href="#DejaVuSans-73" x="387.792969"/>
      <use xlink:href="#DejaVuSans-74" x="439.892578"/>
      <use xlink:href="#DejaVuSans-6f" x="479.101562"/>
      <use xlink:href="#DejaVuSans-6e" x="540.283203"/>
     </g>
    </g>
   </g>
   <g id="text_8">
    <g id="patch_9">
     <path d="M 38.923215 255.491603 
L 110.615246 255.491603 
L 110.615246 238.861291 
L 38.923215 238.861291 
z
" clip-path="url(#pc51db6fc10)" style="fill: #ffffff; opacity: 0.7; stroke: #000000; stroke-linejoin: miter"/>
    </g>
    <g clip-path="url(#pc51db6fc10)">
     <!-- Michael Curtiz -->
     <g transform="translate(42.883215 249.659885)scale(0.09 -0.09)">
      <defs>
       <path id="DejaVuSans-4d" d="M 628 4666 
L 1569 4666 
L 2759 1491 
L 3956 4666 
L 4897 4666 
L 4897 0 
L 4281 0 
L 4281 4097 
L 3078 897 
L 2444 897 
L 1241 4097 
L 1241 0 
L 628 0 
L 628 4666 
z
" transform="scale(0.015625)"/>
      </defs>
      <use xlink:href="#DejaVuSans-4d"/>
      <use xlink:href="#DejaVuSans-69" x="86.279297"/>
      <use xlink:href="#DejaVuSans-63" x="114.0625"/>
      <use xlink:href="#DejaVuSans-68" x="169.042969"/>
      <use xlink:href="#DejaVuSans-61" x="232.421875"/>
      <use xlink:href="#DejaVuSans-65" x="293.701172"/>
      <use xlink:href="#DejaVuSans-6c" x="355.224609"/>
      <use xlink:href="#DejaVuSans-20" x="383.007812"/>
      <use xlink:href="#DejaVuSans-43" x="414.794922"/>
      <use xlink:href="#DejaVuSans-75" x="484.619141"/>
      <use xlink:href="#DejaVuSans-72" x="547.998047"/>
      <use xlink:href="#DejaVuSans-74" x="589.111328"/>
      <use xlink:href="#DejaVuSans-69" x="628.320312"/>
      <use xlink:href="#DejaVuSans-7a" x="656.103516"/>
     </g>
    </g>
   </g>
   <g id="text_9">
    <g id="patch_10">
     <path d="M 41.383462 343.348212 
L 108.155025 343.348212 
L 108.155025 326.7179 
L 41.383462 326.7179 
z
" clip-path="url(#pc51db6fc10)" style="fill: #ffffff; opacity: 0.7; stroke: #000000; stroke-linejoin: miter"/>
    </g>
    <g clip-path="url(#pc51db6fc10)">
     <!-- Priyadarshan -->
     <g transform="translate(45.343462 337.516494)scale(0.09 -0.09)">
      <defs>
       <path id="DejaVuSans-50" d="M 1259 4147 
L 1259 2394 
L 2053 2394 
Q 2494 2394 2734 2622 
Q 2975 2850 2975 3272 
Q 2975 3691 2734 3919 
Q 2494 4147 2053 4147 
L 1259 4147 
z
M 628 4666 
L 2053 4666 
Q 2838 4666 3239 4311 
Q 3641 3956 3641 3272 
Q 3641 2581 3239 2228 
Q 2838 1875 2053 1875 
L 1259 1875 
L 1259 0 
L 628 0 
L 628 4666 
z
" transform="scale(0.015625)"/>
      </defs>
      <use xlink:href="#DejaVuSans-50"/>
      <use xlink:href="#DejaVuSans-72" x="58.552734"/>
      <use xlink:href="#DejaVuSans-69" x="99.666016"/>
      <use xlink:href="#DejaVuSans-79" x="127.449219"/>
      <use xlink:href="#DejaVuSans-61" x="186.628906"/>
      <use xlink:href="#DejaVuSans-64" x="247.908203"/>
      <use xlink:href="#DejaVuSans-61" x="311.384766"/>
      <use xlink:href="#DejaVuSans-72" x="372.664062"/>
      <use xlink:href="#DejaVuSans-73" x="413.777344"/>
      <use xlink:href="#DejaVuSans-68" x="465.876953"/>
      <use xlink:href="#DejaVuSans-61" x="529.255859"/>
      <use xlink:href="#DejaVuSans-6e" x="590.535156"/>
     </g>
    </g>
   </g>
   <g id="text_10">
    <g id="patch_11">
     <path d="M 77.158755 423.609205 
L 145.304224 423.609205 
L 145.304224 406.978892 
L 77.158755 406.978892 
z
" clip-path="url(#pc51db6fc10)" style="fill: #ffffff; opacity: 0.7; stroke: #000000; stroke-linejoin: miter"/>
    </g>
    <g clip-path="url(#pc51db6fc10)">
     <!-- Gus Van Sant -->
     <g transform="translate(81.118755 417.777486)scale(0.09 -0.09)">
      <defs>
       <path id="DejaVuSans-47" d="M 3809 666 
L 3809 1919 
L 2778 1919 
L 2778 2438 
L 4434 2438 
L 4434 434 
Q 4069 175 3628 42 
Q 3188 -91 2688 -91 
Q 1594 -91 976 548 
Q 359 1188 359 2328 
Q 359 3472 976 4111 
Q 1594 4750 2688 4750 
Q 3144 4750 3555 4637 
Q 3966 4525 4313 4306 
L 4313 3634 
Q 3963 3931 3569 4081 
Q 3175 4231 2741 4231 
Q 1884 4231 1454 3753 
Q 1025 3275 1025 2328 
Q 1025 1384 1454 906 
Q 1884 428 2741 428 
Q 3075 428 3337 486 
Q 3600 544 3809 666 
z
" transform="scale(0.015625)"/>
       <path id="DejaVuSans-56" d="M 1831 0 
L 50 4666 
L 709 4666 
L 2188 738 
L 3669 4666 
L 4325 4666 
L 2547 0 
L 1831 0 
z
" transform="scale(0.015625)"/>
       <path id="DejaVuSans-53" d="M 3425 4513 
L 3425 3897 
Q 3066 4069 2747 4153 
Q 2428 4238 2131 4238 
Q 1616 4238 1336 4038 
Q 1056 3838 1056 3469 
Q 1056 3159 1242 3001 
Q 1428 2844 1947 2747 
L 2328 2669 
Q 3034 2534 3370 2195 
Q 3706 1856 3706 1288 
Q 3706 609 3251 259 
Q 2797 -91 1919 -91 
Q 1588 -91 1214 -16 
Q 841 59 441 206 
L 441 856 
Q 825 641 1194 531 
Q 1563 422 1919 422 
Q 2459 422 2753 634 
Q 3047 847 3047 1241 
Q 3047 1584 2836 1778 
Q 2625 1972 2144 2069 
L 1759 2144 
Q 1053 2284 737 2584 
Q 422 2884 422 3419 
Q 422 4038 858 4394 
Q 1294 4750 2059 4750 
Q 2388 4750 2728 4690 
Q 3069 4631 3425 4513 
z
" transform="scale(0.015625)"/>
      </defs>
      <use xlink:href="#DejaVuSans-47"/>
      <use xlink:href="#DejaVuSans-75" x="77.490234"/>
      <use xlink:href="#DejaVuSans-73" x="140.869141"/>
      <use xlink:href="#DejaVuSans-20" x="192.96875"/>
      <use xlink:href="#DejaVuSans-56" x="224.755859"/>
      <use xlink:href="#DejaVuSans-61" x="285.414062"/>
      <use xlink:href="#DejaVuSans-6e" x="346.693359"/>
      <use xlink:href="#DejaVuSans-20" x="410.072266"/>
      <use xlink:href="#DejaVuSans-53" x="441.859375"/>
      <use xlink:href="#DejaVuSans-61" x="505.335938"/>
      <use xlink:href="#DejaVuSans-6e" x="566.615234"/>
      <use xlink:href="#DejaVuSans-74" x="629.994141"/>
     </g>
    </g>
   </g>
   <g id="text_11">
    <g id="patch_12">
     <path d="M 137.110861 482.396746 
L 218.591799 482.396746 
L 218.591799 465.766434 
L 137.110861 465.766434 
z
" clip-path="url(#pc51db6fc10)" style="fill: #ffffff; opacity: 0.7; stroke: #000000; stroke-linejoin: miter"/>
    </g>
    <g clip-path="url(#pc51db6fc10)">
     <!-- George Marshall -->
     <g transform="translate(141.070861 476.565028)scale(0.09 -0.09)">
      <use xlink:href="#DejaVuSans-47"/>
      <use xlink:href="#DejaVuSans-65" x="77.490234"/>
      <use xlink:href="#DejaVuSans-6f" x="139.013672"/>
      <use xlink:href="#DejaVuSans-72" x="200.195312"/>
      <use xlink:href="#DejaVuSans-67" x="239.558594"/>
      <use xlink:href="#DejaVuSans-65" x="303.035156"/>
      <use xlink:href="#DejaVuSans-20" x="364.558594"/>
      <use xlink:href="#DejaVuSans-4d" x="396.345703"/>
      <use xlink:href="#DejaVuSans-61" x="482.625"/>
      <use xlink:href="#DejaVuSans-72" x="543.904297"/>
      <use xlink:href="#DejaVuSans-73" x="585.017578"/>
      <use xlink:href="#DejaVuSans-68" x="637.117188"/>
      <use xlink:href="#DejaVuSans-61" x="700.496094"/>
      <use xlink:href="#DejaVuSans-6c" x="761.775391"/>
      <use xlink:href="#DejaVuSans-6c" x="789.558594"/>
     </g>
    </g>
   </g>
   <g id="text_12">
    <g id="patch_13">
     <path d="M 226.3024 509.545925 
L 299.916775 509.545925 
L 299.916775 492.915613 
L 226.3024 492.915613 
z
" clip-path="url(#pc51db6fc10)" style="fill: #ffffff; opacity: 0.7; stroke: #000000; stroke-linejoin: miter"/>
    </g>
    <g clip-path="url(#pc51db6fc10)">
     <!-- Blake Edwards -->
     <g transform="translate(230.2624 503.714207)scale(0.09 -0.09)">
      <defs>
       <path id="DejaVuSans-45" d="M 628 4666 
L 3578 4666 
L 3578 4134 
L 1259 4134 
L 1259 2753 
L 3481 2753 
L 3481 2222 
L 1259 2222 
L 1259 531 
L 3634 531 
L 3634 0 
L 628 0 
L 628 4666 
z
" transform="scale(0.015625)"/>
       <path id="DejaVuSans-77" d="M 269 3500 
L 844 3500 
L 1563 769 
L 2278 3500 
L 2956 3500 
L 3675 769 
L 4391 3500 
L 4966 3500 
L 4050 0 
L 3372 0 
L 2619 2869 
L 1863 0 
L 1184 0 
L 269 3500 
z
" transform="scale(0.015625)"/>
      </defs>
      <use xlink:href="#DejaVuSans-42"/>
      <use xlink:href="#DejaVuSans-6c" x="68.603516"/>
      <use xlink:href="#DejaVuSans-61" x="96.386719"/>
      <use xlink:href="#DejaVuSans-6b" x="157.666016"/>
      <use xlink:href="#DejaVuSans-65" x="211.951172"/>
      <use xlink:href="#DejaVuSans-20" x="273.474609"/>
      <use xlink:href="#DejaVuSans-45" x="305.261719"/>
      <use xlink:href="#DejaVuSans-64" x="368.445312"/>
      <use xlink:href="#DejaVuSans-77" x="431.921875"/>
      <use xlink:href="#DejaVuSans-61" x="513.708984"/>
      <use xlink:href="#DejaVuSans-72" x="574.988281"/>
      <use xlink:href="#DejaVuSans-64" x="614.351562"/>
      <use xlink:href="#DejaVuSans-73" x="677.828125"/>
     </g>
    </g>
   </g>
   <g id="text_13">
    <g id="patch_14">
     <path d="M 317.427995 500.362398 
L 387.100651 500.362398 
L 387.100651 483.732085 
L 317.427995 483.732085 
z
" clip-path="url(#pc51db6fc10)" style="fill: #ffffff; opacity: 0.7; stroke: #000000; stroke-linejoin: miter"/>
    </g>
    <g clip-path="url(#pc51db6fc10)">
     <!-- George Cukor -->
     <g transform="translate(321.387995 494.530679)scale(0.09 -0.09)">
      <use xlink:href="#DejaVuSans-47"/>
      <use xlink:href="#DejaVuSans-65" x="77.490234"/>
      <use xlink:href="#DejaVuSans-6f" x="139.013672"/>
      <use xlink:href="#DejaVuSans-72" x="200.195312"/>
      <use xlink:href="#DejaVuSans-67" x="239.558594"/>
      <use xlink:href="#DejaVuSans-65" x="303.035156"/>
      <use xlink:href="#DejaVuSans-20" x="364.558594"/>
      <use xlink:href="#DejaVuSans-43" x="396.345703"/>
      <use xlink:href="#DejaVuSans-75" x="466.169922"/>
      <use xlink:href="#DejaVuSans-6b" x="529.548828"/>
      <use xlink:href="#DejaVuSans-6f" x="583.833984"/>
      <use xlink:href="#DejaVuSans-72" x="645.015625"/>
     </g>
    </g>
   </g>
   <g id="text_14">
    <g id="patch_15">
     <path d="M 401.963326 456.434074 
L 457.836451 456.434074 
L 457.836451 439.803762 
L 401.963326 439.803762 
z
" clip-path="url(#pc51db6fc10)" style="fill: #ffffff; opacity: 0.7; stroke: #000000; stroke-linejoin: miter"/>
    </g>
    <g clip-path="url(#pc51db6fc10)">
     <!-- Sam Wood -->
     <g transform="translate(405.923326 450.602356)scale(0.09 -0.09)">
      <use xlink:href="#DejaVuSans-53"/>
      <use xlink:href="#DejaVuSans-61" x="63.476562"/>
      <use xlink:href="#DejaVuSans-6d" x="124.755859"/>
      <use xlink:href="#DejaVuSans-20" x="222.167969"/>
      <use xlink:href="#DejaVuSans-57" x="253.955078"/>
      <use xlink:href="#DejaVuSans-6f" x="346.957031"/>
      <use xlink:href="#DejaVuSans-6f" x="408.138672"/>
      <use xlink:href="#DejaVuSans-64" x="469.320312"/>
     </g>
    </g>
   </g>
   <g id="text_15">
    <g id="patch_16">
     <path d="M 441.067217 385.356585 
L 524.11753 385.356585 
L 524.11753 368.726272 
L 441.067217 368.726272 
z
" clip-path="url(#pc51db6fc10)" style="fill: #ffffff; opacity: 0.7; stroke: #000000; stroke-linejoin: miter"/>
    </g>
    <g clip-path="url(#pc51db6fc10)">
     <!-- Henry Hathaway -->
     <g transform="translate(445.027217 379.524866)scale(0.09 -0.09)">
      <use xlink:href="#DejaVuSans-48"/>
      <use xlink:href="#DejaVuSans-65" x="75.195312"/>
      <use xlink:href="#DejaVuSans-6e" x="136.71875"/>
      <use xlink:href="#DejaVuSans-72" x="200.097656"/>
      <use xlink:href="#DejaVuSans-79" x="241.210938"/>
      <use xlink:href="#DejaVuSans-20" x="300.390625"/>
      <use xlink:href="#DejaVuSans-48" x="332.177734"/>
      <use xlink:href="#DejaVuSans-61" x="407.373047"/>
      <use xlink:href="#DejaVuSans-74" x="468.652344"/>
      <use xlink:href="#DejaVuSans-68" x="507.861328"/>
      <use xlink:href="#DejaVuSans-61" x="571.240234"/>
      <use xlink:href="#DejaVuSans-77" x="632.519531"/>
      <use xlink:href="#DejaVuSans-61" x="714.306641"/>
      <use xlink:href="#DejaVuSans-79" x="775.585938"/>
     </g>
    </g>
   </g>
   <g id="text_16">
    <!-- Impactful directors for Romance Film genre - Importance rank: 8 -->
    <g transform="translate(94.6275 4.8)scale(0.12 -0.12)">
     <defs>
      <path id="DejaVuSans-66" d="M 2375 4863 
L 2375 4384 
L 1825 4384 
Q 1516 4384 1395 4259 
Q 1275 4134 1275 3809 
L 1275 3500 
L 2222 3500 
L 2222 3053 
L 1275 3053 
L 1275 0 
L 697 0 
L 697 3053 
L 147 3053 
L 147 3500 
L 697 3500 
L 697 3744 
Q 697 4328 969 4595 
Q 1241 4863 1831 4863 
L 2375 4863 
z
" transform="scale(0.015625)"/>
      <path id="DejaVuSans-2d" d="M 313 2009 
L 1997 2009 
L 1997 1497 
L 313 1497 
L 313 2009 
z
" transform="scale(0.015625)"/>
      <path id="DejaVuSans-3a" d="M 750 794 
L 1409 794 
L 1409 0 
L 750 0 
L 750 794 
z
M 750 3309 
L 1409 3309 
L 1409 2516 
L 750 2516 
L 750 3309 
z
" transform="scale(0.015625)"/>
      <path id="DejaVuSans-38" d="M 2034 2216 
Q 1584 2216 1326 1975 
Q 1069 1734 1069 1313 
Q 1069 891 1326 650 
Q 1584 409 2034 409 
Q 2484 409 2743 651 
Q 3003 894 3003 1313 
Q 3003 1734 2745 1975 
Q 2488 2216 2034 2216 
z
M 1403 2484 
Q 997 2584 770 2862 
Q 544 3141 544 3541 
Q 544 4100 942 4425 
Q 1341 4750 2034 4750 
Q 2731 4750 3128 4425 
Q 3525 4100 3525 3541 
Q 3525 3141 3298 2862 
Q 3072 2584 2669 2484 
Q 3125 2378 3379 2068 
Q 3634 1759 3634 1313 
Q 3634 634 3220 271 
Q 2806 -91 2034 -91 
Q 1263 -91 848 271 
Q 434 634 434 1313 
Q 434 1759 690 2068 
Q 947 2378 1403 2484 
z
M 1172 3481 
Q 1172 3119 1398 2916 
Q 1625 2713 2034 2713 
Q 2441 2713 2670 2916 
Q 2900 3119 2900 3481 
Q 2900 3844 2670 4047 
Q 2441 4250 2034 4250 
Q 1625 4250 1398 4047 
Q 1172 3844 1172 3481 
z
" transform="scale(0.015625)"/>
     </defs>
     <use xlink:href="#DejaVuSans-49"/>
     <use xlink:href="#DejaVuSans-6d" x="29.492188"/>
     <use xlink:href="#DejaVuSans-70" x="126.904297"/>
     <use xlink:href="#DejaVuSans-61" x="190.380859"/>
     <use xlink:href="#DejaVuSans-63" x="251.660156"/>
     <use xlink:href="#DejaVuSans-74" x="306.640625"/>
     <use xlink:href="#DejaVuSans-66" x="345.849609"/>
     <use xlink:href="#DejaVuSans-75" x="381.054688"/>
     <use xlink:href="#DejaVuSans-6c" x="444.433594"/>
     <use xlink:href="#DejaVuSans-20" x="472.216797"/>
     <use xlink:href="#DejaVuSans-64" x="504.003906"/>
     <use xlink:href="#DejaVuSans-69" x="567.480469"/>
     <use xlink:href="#DejaVuSans-72" x="595.263672"/>
     <use xlink:href="#DejaVuSans-65" x="634.126953"/>
     <use xlink:href="#DejaVuSans-63" x="695.650391"/>
     <use xlink:href="#DejaVuSans-74" x="750.630859"/>
     <use xlink:href="#DejaVuSans-6f" x="789.839844"/>
     <use xlink:href="#DejaVuSans-72" x="851.021484"/>
     <use xlink:href="#DejaVuSans-73" x="892.134766"/>
     <use xlink:href="#DejaVuSans-20" x="944.234375"/>
     <use xlink:href="#DejaVuSans-66" x="976.021484"/>
     <use xlink:href="#DejaVuSans-6f" x="1011.226562"/>
     <use xlink:href="#DejaVuSans-72" x="1072.408203"/>
     <use xlink:href="#DejaVuSans-20" x="1113.521484"/>
     <use xlink:href="#DejaVuSans-52" x="1145.308594"/>
     <use xlink:href="#DejaVuSans-6f" x="1210.291016"/>
     <use xlink:href="#DejaVuSans-6d" x="1271.472656"/>
     <use xlink:href="#DejaVuSans-61" x="1368.884766"/>
     <use xlink:href="#DejaVuSans-6e" x="1430.164062"/>
     <use xlink:href="#DejaVuSans-63" x="1493.542969"/>
     <use xlink:href="#DejaVuSans-65" x="1548.523438"/>
     <use xlink:href="#DejaVuSans-20" x="1610.046875"/>
     <use xlink:href="#DejaVuSans-46" x="1641.833984"/>
     <use xlink:href="#DejaVuSans-69" x="1692.103516"/>
     <use xlink:href="#DejaVuSans-6c" x="1719.886719"/>
     <use xlink:href="#DejaVuSans-6d" x="1747.669922"/>
     <use xlink:href="#DejaVuSans-20" x="1845.082031"/>
     <use xlink:href="#DejaVuSans-67" x="1876.869141"/>
     <use xlink:href="#DejaVuSans-65" x="1940.345703"/>
     <use xlink:href="#DejaVuSans-6e" x="2001.869141"/>
     <use xlink:href="#DejaVuSans-72" x="2065.248047"/>
     <use xlink:href="#DejaVuSans-65" x="2104.111328"/>
     <use xlink:href="#DejaVuSans-20" x="2165.634766"/>
     <use xlink:href="#DejaVuSans-2d" x="2197.421875"/>
     <use xlink:href="#DejaVuSans-20" x="2233.505859"/>
     <use xlink:href="#DejaVuSans-49" x="2265.292969"/>
     <use xlink:href="#DejaVuSans-6d" x="2294.785156"/>
     <use xlink:href="#DejaVuSans-70" x="2392.197266"/>
     <use xlink:href="#DejaVuSans-6f" x="2455.673828"/>
     <use xlink:href="#DejaVuSans-72" x="2516.855469"/>
     <use xlink:href="#DejaVuSans-74" x="2557.96875"/>
     <use xlink:href="#DejaVuSans-61" x="2597.177734"/>
     <use xlink:href="#DejaVuSans-6e" x="2658.457031"/>
     <use xlink:href="#DejaVuSans-63" x="2721.835938"/>
     <use xlink:href="#DejaVuSans-65" x="2776.816406"/>
     <use xlink:href="#DejaVuSans-20" x="2838.339844"/>
     <use xlink:href="#DejaVuSans-72" x="2870.126953"/>
     <use xlink:href="#DejaVuSans-61" x="2911.240234"/>
     <use xlink:href="#DejaVuSans-6e" x="2972.519531"/>
     <use xlink:href="#DejaVuSans-6b" x="3035.898438"/>
     <use xlink:href="#DejaVuSans-3a" x="3093.808594"/>
     <use xlink:href="#DejaVuSans-20" x="3127.5"/>
     <use xlink:href="#DejaVuSans-38" x="3159.287109"/>
    </g>
   </g>
  </g>
 </g>
 <defs>
  <clipPath id="pc51db6fc10">
   <rect x="10.8" y="10.8" width="554.4" height="554.4"/>
  </clipPath>
 </defs>
</svg>
