<?xml version="1.0" encoding="utf-8" standalone="no"?>
<!DOCTYPE svg PUBLIC "-//W3C//DTD SVG 1.1//EN"
  "http://www.w3.org/Graphics/SVG/1.1/DTD/svg11.dtd">
<svg xmlns:xlink="http://www.w3.org/1999/xlink" width="576pt" height="576pt" viewBox="0 0 576 576" xmlns="http://www.w3.org/2000/svg" version="1.1">
 <metadata>
  <rdf:RDF xmlns:dc="http://purl.org/dc/elements/1.1/" xmlns:cc="http://creativecommons.org/ns#" xmlns:rdf="http://www.w3.org/1999/02/22-rdf-syntax-ns#">
   <cc:Work>
    <dc:type rdf:resource="http://purl.org/dc/dcmitype/StillImage"/>
    <dc:date>2022-12-22T16:13:03.520966</dc:date>
    <dc:format>image/svg+xml</dc:format>
    <dc:creator>
     <cc:Agent>
      <dc:title>Matplotlib v3.5.2, https://matplotlib.org/</dc:title>
     </cc:Agent>
    </dc:creator>
   </cc:Work>
  </rdf:RDF>
 </metadata>
 <defs>
  <style type="text/css">*{stroke-linejoin: round; stroke-linecap: butt}</style>
 </defs>
 <g id="figure_1">
  <g id="patch_1">
   <path d="M 0 576 
L 576 576 
L 576 0 
L 0 0 
z
" style="fill: #ffffff"/>
  </g>
  <g id="axes_1">
   <g id="LineCollection_1">
    <path d="M 485.652437 288.437287 
L 342.127597 84.9439 
" clip-path="url(#p27571938af)" style="fill: none; stroke: #000000; stroke-opacity: 0.3; stroke-width: 10"/>
    <path d="M 467.694863 201.409636 
L 416.927184 129.429846 
" clip-path="url(#p27571938af)" style="fill: none; stroke: #000000; stroke-opacity: 0.3; stroke-width: 5"/>
    <path d="M 467.694863 201.409636 
L 174.085784 103.137642 
" clip-path="url(#p27571938af)" style="fill: none; stroke: #000000; stroke-opacity: 0.3; stroke-width: 6.330802"/>
   </g>
   <g id="PathCollection_1">
    <path d="M 485.652437 315.823415 
C 492.915323 315.823415 499.881717 312.93784 505.017353 307.802204 
C 510.152989 302.666568 513.038564 295.700173 513.038564 288.437287 
C 513.038564 281.174401 510.152989 274.208006 505.017353 269.07237 
C 499.881717 263.936734 492.915323 261.051159 485.652437 261.051159 
C 478.389551 261.051159 471.423156 263.936734 466.28752 269.07237 
C 461.151884 274.208006 458.266309 281.174401 458.266309 288.437287 
C 458.266309 295.700173 461.151884 302.666568 466.28752 307.802204 
C 471.423156 312.93784 478.389551 315.823415 485.652437 315.823415 
z
" clip-path="url(#p27571938af)" style="fill: #d62728; fill-opacity: 0.99; stroke: #d62728; stroke-opacity: 0.99"/>
    <path d="M 467.694863 228.749886 
C 474.945583 228.749886 481.900307 225.869145 487.02734 220.742112 
C 492.154373 215.61508 495.035114 208.660355 495.035114 201.409636 
C 495.035114 194.158916 492.154373 187.204192 487.02734 182.077159 
C 481.900307 176.950126 474.945583 174.069385 467.694863 174.069385 
C 460.444144 174.069385 453.489419 176.950126 448.362387 182.077159 
C 443.235354 187.204192 440.354613 194.158916 440.354613 201.409636 
C 440.354613 208.660355 443.235354 215.61508 448.362387 220.742112 
C 453.489419 225.869145 460.444144 228.749886 467.694863 228.749886 
z
" clip-path="url(#p27571938af)" style="fill: #d62728; fill-opacity: 0.99; stroke: #d62728; stroke-opacity: 0.99"/>
    <path d="M 416.927184 156.750049 
C 424.172587 156.750049 431.122212 153.87142 436.245485 148.748147 
C 441.368759 143.624874 444.247388 136.675249 444.247388 129.429846 
C 444.247388 122.184444 441.368759 115.234819 436.245485 110.111545 
C 431.122212 104.988272 424.172587 102.109643 416.927184 102.109643 
C 409.681782 102.109643 402.732157 104.988272 397.608883 110.111545 
C 392.48561 115.234819 389.606981 122.184444 389.606981 129.429846 
C 389.606981 136.675249 392.48561 143.624874 397.608883 148.748147 
C 402.732157 153.87142 409.681782 156.750049 416.927184 156.750049 
z
" clip-path="url(#p27571938af)" style="fill: #d62728; fill-opacity: 0.99; stroke: #d62728; stroke-opacity: 0.99"/>
    <path d="M 342.127597 108.835506 
C 348.463725 108.835506 354.541194 106.318136 359.021513 101.837817 
C 363.501832 97.357498 366.019203 91.280028 366.019203 84.9439 
C 366.019203 78.607772 363.501832 72.530303 359.021513 68.049984 
C 354.541194 63.569664 348.463725 61.052294 342.127597 61.052294 
C 335.791469 61.052294 329.713999 63.569664 325.23368 68.049984 
C 320.753361 72.530303 318.235991 78.607772 318.235991 84.9439 
C 318.235991 91.280028 320.753361 97.357498 325.23368 101.837817 
C 329.713999 106.318136 335.791469 108.835506 342.127597 108.835506 
z
" clip-path="url(#p27571938af)" style="fill: #d62728; fill-opacity: 0.99; stroke: #d62728; stroke-opacity: 0.99"/>
    <path d="M 256.229613 98.887298 
C 262.393859 98.887298 268.306464 96.438217 272.665245 92.079437 
C 277.024025 87.720656 279.473106 81.808051 279.473106 75.643805 
C 279.473106 69.479558 277.024025 63.566953 272.665245 59.208173 
C 268.306464 54.849392 262.393859 52.400311 256.229613 52.400311 
C 250.065366 52.400311 244.152761 54.849392 239.793981 59.208173 
C 235.4352 63.566953 232.986119 69.479558 232.986119 75.643805 
C 232.986119 81.808051 235.4352 87.720656 239.793981 92.079437 
C 244.152761 96.438217 250.065366 98.887298 256.229613 98.887298 
z
" clip-path="url(#p27571938af)" style="fill: #d62728; fill-opacity: 0.99; stroke: #d62728; stroke-opacity: 0.99"/>
    <path d="M 174.085784 126.202293 
C 180.202601 126.202293 186.069713 123.772056 190.394956 119.446813 
C 194.720198 115.12157 197.150435 109.254459 197.150435 103.137642 
C 197.150435 97.020825 194.720198 91.153713 190.394956 86.828471 
C 186.069713 82.503228 180.202601 80.072991 174.085784 80.072991 
C 167.968968 80.072991 162.101856 82.503228 157.776613 86.828471 
C 153.451371 91.153713 151.021134 97.020825 151.021134 103.137642 
C 151.021134 109.254459 153.451371 115.12157 157.776613 119.446813 
C 162.101856 123.772056 167.968968 126.202293 174.085784 126.202293 
z
" clip-path="url(#p27571938af)" style="fill: #d62728; fill-opacity: 0.99; stroke: #d62728; stroke-opacity: 0.99"/>
    <path d="M 109.899537 185.070163 
C 115.839742 185.070163 121.537451 182.710094 125.73781 178.509735 
C 129.938169 174.309376 132.298238 168.611667 132.298238 162.671462 
C 132.298238 156.731258 129.938169 151.033549 125.73781 146.833189 
C 121.537451 142.63283 115.839742 140.272762 109.899537 140.272762 
C 103.959333 140.272762 98.261624 142.63283 94.061265 146.833189 
C 89.860906 151.033549 87.500837 156.731258 87.500837 162.671462 
C 87.500837 168.611667 89.860906 174.309376 94.061265 178.509735 
C 98.261624 182.710094 103.959333 185.070163 109.899537 185.070163 
z
" clip-path="url(#p27571938af)" style="fill: #d62728; fill-opacity: 0.99; stroke: #d62728; stroke-opacity: 0.99"/>
    <path d="M 74.769231 266.174052 
C 80.662759 266.174052 86.315697 263.832528 90.483051 259.665174 
C 94.650405 255.49782 96.991929 249.844882 96.991929 243.951354 
C 96.991929 238.057825 94.650405 232.404887 90.483051 228.237533 
C 86.315697 224.070179 80.662759 221.728655 74.769231 221.728655 
C 68.875702 221.728655 63.222764 224.070179 59.05541 228.237533 
C 54.888056 232.404887 52.546532 238.057825 52.546532 243.951354 
C 52.546532 249.844882 54.888056 255.49782 59.05541 259.665174 
C 63.222764 263.832528 68.875702 266.174052 74.769231 266.174052 
z
" clip-path="url(#p27571938af)" style="fill: #d62728; fill-opacity: 0.99; stroke: #d62728; stroke-opacity: 0.99"/>
    <path d="M 74.769243 354.098479 
C 80.384977 354.098479 85.771461 351.867324 89.742385 347.8964 
C 93.713308 343.925477 95.944463 338.538993 95.944463 332.923259 
C 95.944463 327.307525 93.713308 321.92104 89.742385 317.950117 
C 85.771461 313.979193 80.384977 311.748039 74.769243 311.748039 
C 69.153509 311.748039 63.767025 313.979193 59.796101 317.950117 
C 55.825178 321.92104 53.594023 327.307525 53.594023 332.923259 
C 53.594023 338.538993 55.825178 343.925477 59.796101 347.8964 
C 63.767025 351.867324 69.153509 354.098479 74.769243 354.098479 
z
" clip-path="url(#p27571938af)" style="fill: #d62728; fill-opacity: 0.99; stroke: #d62728; stroke-opacity: 0.99"/>
    <path d="M 109.89955 434.823132 
C 115.36804 434.823132 120.613291 432.650478 124.480097 428.783672 
C 128.346903 424.916865 130.519558 419.671614 130.519558 414.203124 
C 130.519558 408.734634 128.346903 403.489383 124.480097 399.622577 
C 120.613291 395.755771 115.36804 393.583117 109.89955 393.583117 
C 104.43106 393.583117 99.185809 395.755771 95.319003 399.622577 
C 91.452196 403.489383 89.279542 408.734634 89.279542 414.203124 
C 89.279542 419.671614 91.452196 424.916865 95.319003 428.783672 
C 99.185809 432.650478 104.43106 434.823132 109.89955 434.823132 
z
" clip-path="url(#p27571938af)" style="fill: #d62728; fill-opacity: 0.99; stroke: #d62728; stroke-opacity: 0.99"/>
    <path d="M 174.085815 493.712001 
C 179.383262 493.712001 184.464453 491.607303 188.210313 487.861443 
C 191.956174 484.115582 194.060872 479.034392 194.060872 473.736945 
C 194.060872 468.439498 191.956174 463.358308 188.210313 459.612447 
C 184.464453 455.866587 179.383262 453.761889 174.085815 453.761889 
C 168.788369 453.761889 163.707178 455.866587 159.961318 459.612447 
C 156.215457 463.358308 154.110759 468.439498 154.110759 473.736945 
C 154.110759 479.034392 156.215457 484.115582 159.961318 487.861443 
C 163.707178 491.607303 168.788369 493.712001 174.085815 493.712001 
z
" clip-path="url(#p27571938af)" style="fill: #d62728; fill-opacity: 0.99; stroke: #d62728; stroke-opacity: 0.99"/>
    <path d="M 256.22965 521.107543 
C 261.501032 521.107543 266.557221 519.013201 270.284651 515.285771 
C 274.012081 511.558341 276.106423 506.502151 276.106423 501.230769 
C 276.106423 495.959387 274.012081 490.903198 270.284651 487.175768 
C 266.557221 483.448338 261.501032 481.353996 256.22965 481.353996 
C 250.958268 481.353996 245.902078 483.448338 242.174648 487.175768 
C 238.447218 490.903198 236.352876 495.959387 236.352876 501.230769 
C 236.352876 506.502151 238.447218 511.558341 242.174648 515.285771 
C 245.902078 519.013201 250.958268 521.107543 256.22965 521.107543 
z
" clip-path="url(#p27571938af)" style="fill: #d62728; fill-opacity: 0.99; stroke: #d62728; stroke-opacity: 0.99"/>
    <path d="M 342.127628 511.33992 
C 347.275023 511.33992 352.212288 509.294838 355.852047 505.65508 
C 359.491805 502.015322 361.536887 497.078057 361.536887 491.930661 
C 361.536887 486.783265 359.491805 481.846001 355.852047 478.206242 
C 352.212288 474.566484 347.275023 472.521402 342.127628 472.521402 
C 336.980232 472.521402 332.042967 474.566484 328.403209 478.206242 
C 324.76345 481.846001 322.718368 486.783265 322.718368 491.930661 
C 322.718368 497.078057 324.76345 502.015322 328.403209 505.65508 
C 332.042967 509.294838 336.980232 511.33992 342.127628 511.33992 
z
" clip-path="url(#p27571938af)" style="fill: #d62728; fill-opacity: 0.99; stroke: #d62728; stroke-opacity: 0.99"/>
    <path d="M 416.927221 466.83165 
C 422.068703 466.83165 427.000296 464.788917 430.635872 461.15334 
C 434.271449 457.517764 436.314181 452.586171 436.314181 447.44469 
C 436.314181 442.303208 434.271449 437.371615 430.635872 433.736039 
C 427.000296 430.100462 422.068703 428.05773 416.927221 428.05773 
C 411.78574 428.05773 406.854147 430.100462 403.218571 433.736039 
C 399.582994 437.371615 397.540261 442.303208 397.540261 447.44469 
C 397.540261 452.586171 399.582994 457.517764 403.218571 461.15334 
C 406.854147 464.788917 411.78574 466.83165 416.927221 466.83165 
z
" clip-path="url(#p27571938af)" style="fill: #d62728; fill-opacity: 0.99; stroke: #d62728; stroke-opacity: 0.99"/>
    <path d="M 467.694888 394.829823 
C 472.830524 394.829823 477.756509 392.789413 481.387952 389.15797 
C 485.019395 385.526527 487.059805 380.600542 487.059805 375.464906 
C 487.059805 370.32927 485.019395 365.403285 481.387952 361.771842 
C 477.756509 358.140399 472.830524 356.09999 467.694888 356.09999 
C 462.559252 356.09999 457.633267 358.140399 454.001824 361.771842 
C 450.370381 365.403285 448.329971 370.32927 448.329971 375.464906 
C 448.329971 380.600542 450.370381 385.526527 454.001824 389.15797 
C 457.633267 392.789413 462.559252 394.829823 467.694888 394.829823 
z
" clip-path="url(#p27571938af)" style="fill: #d62728; fill-opacity: 0.99; stroke: #d62728; stroke-opacity: 0.99"/>
   </g>
   <g id="text_1">
    <g id="patch_2">
     <path d="M 449.16939 296.752443 
L 522.135483 296.752443 
L 522.135483 280.122131 
L 449.16939 280.122131 
z
" clip-path="url(#p27571938af)" style="fill: #ffffff; opacity: 0.7; stroke: #000000; stroke-linejoin: miter"/>
    </g>
    <g clip-path="url(#p27571938af)">
     <!-- William Hanna -->
     <g transform="translate(453.12939 290.920724)scale(0.09 -0.09)">
      <defs>
       <path id="DejaVuSans-57" d="M 213 4666 
L 850 4666 
L 1831 722 
L 2809 4666 
L 3519 4666 
L 4500 722 
L 5478 4666 
L 6119 4666 
L 4947 0 
L 4153 0 
L 3169 4050 
L 2175 0 
L 1381 0 
L 213 4666 
z
" transform="scale(0.015625)"/>
       <path id="DejaVuSans-69" d="M 603 3500 
L 1178 3500 
L 1178 0 
L 603 0 
L 603 3500 
z
M 603 4863 
L 1178 4863 
L 1178 4134 
L 603 4134 
L 603 4863 
z
" transform="scale(0.015625)"/>
       <path id="DejaVuSans-6c" d="M 603 4863 
L 1178 4863 
L 1178 0 
L 603 0 
L 603 4863 
z
" transform="scale(0.015625)"/>
       <path id="DejaVuSans-61" d="M 2194 1759 
Q 1497 1759 1228 1600 
Q 959 1441 959 1056 
Q 959 750 1161 570 
Q 1363 391 1709 391 
Q 2188 391 2477 730 
Q 2766 1069 2766 1631 
L 2766 1759 
L 2194 1759 
z
M 3341 1997 
L 3341 0 
L 2766 0 
L 2766 531 
Q 2569 213 2275 61 
Q 1981 -91 1556 -91 
Q 1019 -91 701 211 
Q 384 513 384 1019 
Q 384 1609 779 1909 
Q 1175 2209 1959 2209 
L 2766 2209 
L 2766 2266 
Q 2766 2663 2505 2880 
Q 2244 3097 1772 3097 
Q 1472 3097 1187 3025 
Q 903 2953 641 2809 
L 641 3341 
Q 956 3463 1253 3523 
Q 1550 3584 1831 3584 
Q 2591 3584 2966 3190 
Q 3341 2797 3341 1997 
z
" transform="scale(0.015625)"/>
       <path id="DejaVuSans-6d" d="M 3328 2828 
Q 3544 3216 3844 3400 
Q 4144 3584 4550 3584 
Q 5097 3584 5394 3201 
Q 5691 2819 5691 2113 
L 5691 0 
L 5113 0 
L 5113 2094 
Q 5113 2597 4934 2840 
Q 4756 3084 4391 3084 
Q 3944 3084 3684 2787 
Q 3425 2491 3425 1978 
L 3425 0 
L 2847 0 
L 2847 2094 
Q 2847 2600 2669 2842 
Q 2491 3084 2119 3084 
Q 1678 3084 1418 2786 
Q 1159 2488 1159 1978 
L 1159 0 
L 581 0 
L 581 3500 
L 1159 3500 
L 1159 2956 
Q 1356 3278 1631 3431 
Q 1906 3584 2284 3584 
Q 2666 3584 2933 3390 
Q 3200 3197 3328 2828 
z
" transform="scale(0.015625)"/>
       <path id="DejaVuSans-20" transform="scale(0.015625)"/>
       <path id="DejaVuSans-48" d="M 628 4666 
L 1259 4666 
L 1259 2753 
L 3553 2753 
L 3553 4666 
L 4184 4666 
L 4184 0 
L 3553 0 
L 3553 2222 
L 1259 2222 
L 1259 0 
L 628 0 
L 628 4666 
z
" transform="scale(0.015625)"/>
       <path id="DejaVuSans-6e" d="M 3513 2113 
L 3513 0 
L 2938 0 
L 2938 2094 
Q 2938 2591 2744 2837 
Q 2550 3084 2163 3084 
Q 1697 3084 1428 2787 
Q 1159 2491 1159 1978 
L 1159 0 
L 581 0 
L 581 3500 
L 1159 3500 
L 1159 2956 
Q 1366 3272 1645 3428 
Q 1925 3584 2291 3584 
Q 2894 3584 3203 3211 
Q 3513 2838 3513 2113 
z
" transform="scale(0.015625)"/>
      </defs>
      <use xlink:href="#DejaVuSans-57"/>
      <use xlink:href="#DejaVuSans-69" x="96.626953"/>
      <use xlink:href="#DejaVuSans-6c" x="124.410156"/>
      <use xlink:href="#DejaVuSans-6c" x="152.193359"/>
      <use xlink:href="#DejaVuSans-69" x="179.976562"/>
      <use xlink:href="#DejaVuSans-61" x="207.759766"/>
      <use xlink:href="#DejaVuSans-6d" x="269.039062"/>
      <use xlink:href="#DejaVuSans-20" x="366.451172"/>
      <use xlink:href="#DejaVuSans-48" x="398.238281"/>
      <use xlink:href="#DejaVuSans-61" x="473.433594"/>
      <use xlink:href="#DejaVuSans-6e" x="534.712891"/>
      <use xlink:href="#DejaVuSans-6e" x="598.091797"/>
      <use xlink:href="#DejaVuSans-61" x="661.470703"/>
     </g>
    </g>
   </g>
   <g id="text_2">
    <g id="patch_3">
     <path d="M 436.332676 209.724792 
L 499.057051 209.724792 
L 499.057051 193.094479 
L 436.332676 193.094479 
z
" clip-path="url(#p27571938af)" style="fill: #ffffff; opacity: 0.7; stroke: #000000; stroke-linejoin: miter"/>
    </g>
    <g clip-path="url(#p27571938af)">
     <!-- Chuck Jones -->
     <g transform="translate(440.292676 203.893073)scale(0.09 -0.09)">
      <defs>
       <path id="DejaVuSans-43" d="M 4122 4306 
L 4122 3641 
Q 3803 3938 3442 4084 
Q 3081 4231 2675 4231 
Q 1875 4231 1450 3742 
Q 1025 3253 1025 2328 
Q 1025 1406 1450 917 
Q 1875 428 2675 428 
Q 3081 428 3442 575 
Q 3803 722 4122 1019 
L 4122 359 
Q 3791 134 3420 21 
Q 3050 -91 2638 -91 
Q 1578 -91 968 557 
Q 359 1206 359 2328 
Q 359 3453 968 4101 
Q 1578 4750 2638 4750 
Q 3056 4750 3426 4639 
Q 3797 4528 4122 4306 
z
" transform="scale(0.015625)"/>
       <path id="DejaVuSans-68" d="M 3513 2113 
L 3513 0 
L 2938 0 
L 2938 2094 
Q 2938 2591 2744 2837 
Q 2550 3084 2163 3084 
Q 1697 3084 1428 2787 
Q 1159 2491 1159 1978 
L 1159 0 
L 581 0 
L 581 4863 
L 1159 4863 
L 1159 2956 
Q 1366 3272 1645 3428 
Q 1925 3584 2291 3584 
Q 2894 3584 3203 3211 
Q 3513 2838 3513 2113 
z
" transform="scale(0.015625)"/>
       <path id="DejaVuSans-75" d="M 544 1381 
L 544 3500 
L 1119 3500 
L 1119 1403 
Q 1119 906 1312 657 
Q 1506 409 1894 409 
Q 2359 409 2629 706 
Q 2900 1003 2900 1516 
L 2900 3500 
L 3475 3500 
L 3475 0 
L 2900 0 
L 2900 538 
Q 2691 219 2414 64 
Q 2138 -91 1772 -91 
Q 1169 -91 856 284 
Q 544 659 544 1381 
z
M 1991 3584 
L 1991 3584 
z
" transform="scale(0.015625)"/>
       <path id="DejaVuSans-63" d="M 3122 3366 
L 3122 2828 
Q 2878 2963 2633 3030 
Q 2388 3097 2138 3097 
Q 1578 3097 1268 2742 
Q 959 2388 959 1747 
Q 959 1106 1268 751 
Q 1578 397 2138 397 
Q 2388 397 2633 464 
Q 2878 531 3122 666 
L 3122 134 
Q 2881 22 2623 -34 
Q 2366 -91 2075 -91 
Q 1284 -91 818 406 
Q 353 903 353 1747 
Q 353 2603 823 3093 
Q 1294 3584 2113 3584 
Q 2378 3584 2631 3529 
Q 2884 3475 3122 3366 
z
" transform="scale(0.015625)"/>
       <path id="DejaVuSans-6b" d="M 581 4863 
L 1159 4863 
L 1159 1991 
L 2875 3500 
L 3609 3500 
L 1753 1863 
L 3688 0 
L 2938 0 
L 1159 1709 
L 1159 0 
L 581 0 
L 581 4863 
z
" transform="scale(0.015625)"/>
       <path id="DejaVuSans-4a" d="M 628 4666 
L 1259 4666 
L 1259 325 
Q 1259 -519 939 -900 
Q 619 -1281 -91 -1281 
L -331 -1281 
L -331 -750 
L -134 -750 
Q 284 -750 456 -515 
Q 628 -281 628 325 
L 628 4666 
z
" transform="scale(0.015625)"/>
       <path id="DejaVuSans-6f" d="M 1959 3097 
Q 1497 3097 1228 2736 
Q 959 2375 959 1747 
Q 959 1119 1226 758 
Q 1494 397 1959 397 
Q 2419 397 2687 759 
Q 2956 1122 2956 1747 
Q 2956 2369 2687 2733 
Q 2419 3097 1959 3097 
z
M 1959 3584 
Q 2709 3584 3137 3096 
Q 3566 2609 3566 1747 
Q 3566 888 3137 398 
Q 2709 -91 1959 -91 
Q 1206 -91 779 398 
Q 353 888 353 1747 
Q 353 2609 779 3096 
Q 1206 3584 1959 3584 
z
" transform="scale(0.015625)"/>
       <path id="DejaVuSans-65" d="M 3597 1894 
L 3597 1613 
L 953 1613 
Q 991 1019 1311 708 
Q 1631 397 2203 397 
Q 2534 397 2845 478 
Q 3156 559 3463 722 
L 3463 178 
Q 3153 47 2828 -22 
Q 2503 -91 2169 -91 
Q 1331 -91 842 396 
Q 353 884 353 1716 
Q 353 2575 817 3079 
Q 1281 3584 2069 3584 
Q 2775 3584 3186 3129 
Q 3597 2675 3597 1894 
z
M 3022 2063 
Q 3016 2534 2758 2815 
Q 2500 3097 2075 3097 
Q 1594 3097 1305 2825 
Q 1016 2553 972 2059 
L 3022 2063 
z
" transform="scale(0.015625)"/>
       <path id="DejaVuSans-73" d="M 2834 3397 
L 2834 2853 
Q 2591 2978 2328 3040 
Q 2066 3103 1784 3103 
Q 1356 3103 1142 2972 
Q 928 2841 928 2578 
Q 928 2378 1081 2264 
Q 1234 2150 1697 2047 
L 1894 2003 
Q 2506 1872 2764 1633 
Q 3022 1394 3022 966 
Q 3022 478 2636 193 
Q 2250 -91 1575 -91 
Q 1294 -91 989 -36 
Q 684 19 347 128 
L 347 722 
Q 666 556 975 473 
Q 1284 391 1588 391 
Q 1994 391 2212 530 
Q 2431 669 2431 922 
Q 2431 1156 2273 1281 
Q 2116 1406 1581 1522 
L 1381 1569 
Q 847 1681 609 1914 
Q 372 2147 372 2553 
Q 372 3047 722 3315 
Q 1072 3584 1716 3584 
Q 2034 3584 2315 3537 
Q 2597 3491 2834 3397 
z
" transform="scale(0.015625)"/>
      </defs>
      <use xlink:href="#DejaVuSans-43"/>
      <use xlink:href="#DejaVuSans-68" x="69.824219"/>
      <use xlink:href="#DejaVuSans-75" x="133.203125"/>
      <use xlink:href="#DejaVuSans-63" x="196.582031"/>
      <use xlink:href="#DejaVuSans-6b" x="251.5625"/>
      <use xlink:href="#DejaVuSans-20" x="309.472656"/>
      <use xlink:href="#DejaVuSans-4a" x="341.259766"/>
      <use xlink:href="#DejaVuSans-6f" x="370.751953"/>
      <use xlink:href="#DejaVuSans-6e" x="431.933594"/>
      <use xlink:href="#DejaVuSans-65" x="495.3125"/>
      <use xlink:href="#DejaVuSans-73" x="556.835938"/>
     </g>
    </g>
   </g>
   <g id="text_3">
    <g id="patch_4">
     <path d="M 373.728591 137.745002 
L 460.125778 137.745002 
L 460.125778 121.11469 
L 373.728591 121.11469 
z
" clip-path="url(#p27571938af)" style="fill: #ffffff; opacity: 0.7; stroke: #000000; stroke-linejoin: miter"/>
    </g>
    <g clip-path="url(#p27571938af)">
     <!-- Robert McKimson -->
     <g transform="translate(377.688591 131.913284)scale(0.09 -0.09)">
      <defs>
       <path id="DejaVuSans-52" d="M 2841 2188 
Q 3044 2119 3236 1894 
Q 3428 1669 3622 1275 
L 4263 0 
L 3584 0 
L 2988 1197 
Q 2756 1666 2539 1819 
Q 2322 1972 1947 1972 
L 1259 1972 
L 1259 0 
L 628 0 
L 628 4666 
L 2053 4666 
Q 2853 4666 3247 4331 
Q 3641 3997 3641 3322 
Q 3641 2881 3436 2590 
Q 3231 2300 2841 2188 
z
M 1259 4147 
L 1259 2491 
L 2053 2491 
Q 2509 2491 2742 2702 
Q 2975 2913 2975 3322 
Q 2975 3731 2742 3939 
Q 2509 4147 2053 4147 
L 1259 4147 
z
" transform="scale(0.015625)"/>
       <path id="DejaVuSans-62" d="M 3116 1747 
Q 3116 2381 2855 2742 
Q 2594 3103 2138 3103 
Q 1681 3103 1420 2742 
Q 1159 2381 1159 1747 
Q 1159 1113 1420 752 
Q 1681 391 2138 391 
Q 2594 391 2855 752 
Q 3116 1113 3116 1747 
z
M 1159 2969 
Q 1341 3281 1617 3432 
Q 1894 3584 2278 3584 
Q 2916 3584 3314 3078 
Q 3713 2572 3713 1747 
Q 3713 922 3314 415 
Q 2916 -91 2278 -91 
Q 1894 -91 1617 61 
Q 1341 213 1159 525 
L 1159 0 
L 581 0 
L 581 4863 
L 1159 4863 
L 1159 2969 
z
" transform="scale(0.015625)"/>
       <path id="DejaVuSans-72" d="M 2631 2963 
Q 2534 3019 2420 3045 
Q 2306 3072 2169 3072 
Q 1681 3072 1420 2755 
Q 1159 2438 1159 1844 
L 1159 0 
L 581 0 
L 581 3500 
L 1159 3500 
L 1159 2956 
Q 1341 3275 1631 3429 
Q 1922 3584 2338 3584 
Q 2397 3584 2469 3576 
Q 2541 3569 2628 3553 
L 2631 2963 
z
" transform="scale(0.015625)"/>
       <path id="DejaVuSans-74" d="M 1172 4494 
L 1172 3500 
L 2356 3500 
L 2356 3053 
L 1172 3053 
L 1172 1153 
Q 1172 725 1289 603 
Q 1406 481 1766 481 
L 2356 481 
L 2356 0 
L 1766 0 
Q 1100 0 847 248 
Q 594 497 594 1153 
L 594 3053 
L 172 3053 
L 172 3500 
L 594 3500 
L 594 4494 
L 1172 4494 
z
" transform="scale(0.015625)"/>
       <path id="DejaVuSans-4d" d="M 628 4666 
L 1569 4666 
L 2759 1491 
L 3956 4666 
L 4897 4666 
L 4897 0 
L 4281 0 
L 4281 4097 
L 3078 897 
L 2444 897 
L 1241 4097 
L 1241 0 
L 628 0 
L 628 4666 
z
" transform="scale(0.015625)"/>
       <path id="DejaVuSans-4b" d="M 628 4666 
L 1259 4666 
L 1259 2694 
L 3353 4666 
L 4166 4666 
L 1850 2491 
L 4331 0 
L 3500 0 
L 1259 2247 
L 1259 0 
L 628 0 
L 628 4666 
z
" transform="scale(0.015625)"/>
      </defs>
      <use xlink:href="#DejaVuSans-52"/>
      <use xlink:href="#DejaVuSans-6f" x="64.982422"/>
      <use xlink:href="#DejaVuSans-62" x="126.164062"/>
      <use xlink:href="#DejaVuSans-65" x="189.640625"/>
      <use xlink:href="#DejaVuSans-72" x="251.164062"/>
      <use xlink:href="#DejaVuSans-74" x="292.277344"/>
      <use xlink:href="#DejaVuSans-20" x="331.486328"/>
      <use xlink:href="#DejaVuSans-4d" x="363.273438"/>
      <use xlink:href="#DejaVuSans-63" x="449.552734"/>
      <use xlink:href="#DejaVuSans-4b" x="504.533203"/>
      <use xlink:href="#DejaVuSans-69" x="570.109375"/>
      <use xlink:href="#DejaVuSans-6d" x="597.892578"/>
      <use xlink:href="#DejaVuSans-73" x="695.304688"/>
      <use xlink:href="#DejaVuSans-6f" x="747.404297"/>
      <use xlink:href="#DejaVuSans-6e" x="808.585938"/>
     </g>
    </g>
   </g>
   <g id="text_4">
    <g id="patch_5">
     <path d="M 303.906425 93.259056 
L 380.348769 93.259056 
L 380.348769 76.628744 
L 303.906425 76.628744 
z
" clip-path="url(#p27571938af)" style="fill: #ffffff; opacity: 0.7; stroke: #000000; stroke-linejoin: miter"/>
    </g>
    <g clip-path="url(#p27571938af)">
     <!-- Joseph Barbera -->
     <g transform="translate(307.866425 87.427338)scale(0.09 -0.09)">
      <defs>
       <path id="DejaVuSans-70" d="M 1159 525 
L 1159 -1331 
L 581 -1331 
L 581 3500 
L 1159 3500 
L 1159 2969 
Q 1341 3281 1617 3432 
Q 1894 3584 2278 3584 
Q 2916 3584 3314 3078 
Q 3713 2572 3713 1747 
Q 3713 922 3314 415 
Q 2916 -91 2278 -91 
Q 1894 -91 1617 61 
Q 1341 213 1159 525 
z
M 3116 1747 
Q 3116 2381 2855 2742 
Q 2594 3103 2138 3103 
Q 1681 3103 1420 2742 
Q 1159 2381 1159 1747 
Q 1159 1113 1420 752 
Q 1681 391 2138 391 
Q 2594 391 2855 752 
Q 3116 1113 3116 1747 
z
" transform="scale(0.015625)"/>
       <path id="DejaVuSans-42" d="M 1259 2228 
L 1259 519 
L 2272 519 
Q 2781 519 3026 730 
Q 3272 941 3272 1375 
Q 3272 1813 3026 2020 
Q 2781 2228 2272 2228 
L 1259 2228 
z
M 1259 4147 
L 1259 2741 
L 2194 2741 
Q 2656 2741 2882 2914 
Q 3109 3088 3109 3444 
Q 3109 3797 2882 3972 
Q 2656 4147 2194 4147 
L 1259 4147 
z
M 628 4666 
L 2241 4666 
Q 2963 4666 3353 4366 
Q 3744 4066 3744 3513 
Q 3744 3084 3544 2831 
Q 3344 2578 2956 2516 
Q 3422 2416 3680 2098 
Q 3938 1781 3938 1306 
Q 3938 681 3513 340 
Q 3088 0 2303 0 
L 628 0 
L 628 4666 
z
" transform="scale(0.015625)"/>
      </defs>
      <use xlink:href="#DejaVuSans-4a"/>
      <use xlink:href="#DejaVuSans-6f" x="29.492188"/>
      <use xlink:href="#DejaVuSans-73" x="90.673828"/>
      <use xlink:href="#DejaVuSans-65" x="142.773438"/>
      <use xlink:href="#DejaVuSans-70" x="204.296875"/>
      <use xlink:href="#DejaVuSans-68" x="267.773438"/>
      <use xlink:href="#DejaVuSans-20" x="331.152344"/>
      <use xlink:href="#DejaVuSans-42" x="362.939453"/>
      <use xlink:href="#DejaVuSans-61" x="431.542969"/>
      <use xlink:href="#DejaVuSans-72" x="492.822266"/>
      <use xlink:href="#DejaVuSans-62" x="533.935547"/>
      <use xlink:href="#DejaVuSans-65" x="597.412109"/>
      <use xlink:href="#DejaVuSans-72" x="658.935547"/>
      <use xlink:href="#DejaVuSans-61" x="700.048828"/>
     </g>
    </g>
   </g>
   <g id="text_5">
    <g id="patch_6">
     <path d="M 233.545394 83.958961 
L 278.913831 83.958961 
L 278.913831 67.328648 
L 233.545394 67.328648 
z
" clip-path="url(#p27571938af)" style="fill: #ffffff; opacity: 0.7; stroke: #000000; stroke-linejoin: miter"/>
    </g>
    <g clip-path="url(#p27571938af)">
     <!-- Del Lord -->
     <g transform="translate(237.505394 78.127242)scale(0.09 -0.09)">
      <defs>
       <path id="DejaVuSans-44" d="M 1259 4147 
L 1259 519 
L 2022 519 
Q 2988 519 3436 956 
Q 3884 1394 3884 2338 
Q 3884 3275 3436 3711 
Q 2988 4147 2022 4147 
L 1259 4147 
z
M 628 4666 
L 1925 4666 
Q 3281 4666 3915 4102 
Q 4550 3538 4550 2338 
Q 4550 1131 3912 565 
Q 3275 0 1925 0 
L 628 0 
L 628 4666 
z
" transform="scale(0.015625)"/>
       <path id="DejaVuSans-4c" d="M 628 4666 
L 1259 4666 
L 1259 531 
L 3531 531 
L 3531 0 
L 628 0 
L 628 4666 
z
" transform="scale(0.015625)"/>
       <path id="DejaVuSans-64" d="M 2906 2969 
L 2906 4863 
L 3481 4863 
L 3481 0 
L 2906 0 
L 2906 525 
Q 2725 213 2448 61 
Q 2172 -91 1784 -91 
Q 1150 -91 751 415 
Q 353 922 353 1747 
Q 353 2572 751 3078 
Q 1150 3584 1784 3584 
Q 2172 3584 2448 3432 
Q 2725 3281 2906 2969 
z
M 947 1747 
Q 947 1113 1208 752 
Q 1469 391 1925 391 
Q 2381 391 2643 752 
Q 2906 1113 2906 1747 
Q 2906 2381 2643 2742 
Q 2381 3103 1925 3103 
Q 1469 3103 1208 2742 
Q 947 2381 947 1747 
z
" transform="scale(0.015625)"/>
      </defs>
      <use xlink:href="#DejaVuSans-44"/>
      <use xlink:href="#DejaVuSans-65" x="77.001953"/>
      <use xlink:href="#DejaVuSans-6c" x="138.525391"/>
      <use xlink:href="#DejaVuSans-20" x="166.308594"/>
      <use xlink:href="#DejaVuSans-4c" x="198.095703"/>
      <use xlink:href="#DejaVuSans-6f" x="252.058594"/>
      <use xlink:href="#DejaVuSans-72" x="313.240234"/>
      <use xlink:href="#DejaVuSans-64" x="352.603516"/>
     </g>
    </g>
   </g>
   <g id="text_6">
    <g id="patch_7">
     <path d="M 144.464534 111.452798 
L 203.707034 111.452798 
L 203.707034 94.822486 
L 144.464534 94.822486 
z
" clip-path="url(#p27571938af)" style="fill: #ffffff; opacity: 0.7; stroke: #000000; stroke-linejoin: miter"/>
    </g>
    <g clip-path="url(#p27571938af)">
     <!-- Friz Freleng -->
     <g transform="translate(148.424534 105.621079)scale(0.09 -0.09)">
      <defs>
       <path id="DejaVuSans-46" d="M 628 4666 
L 3309 4666 
L 3309 4134 
L 1259 4134 
L 1259 2759 
L 3109 2759 
L 3109 2228 
L 1259 2228 
L 1259 0 
L 628 0 
L 628 4666 
z
" transform="scale(0.015625)"/>
       <path id="DejaVuSans-7a" d="M 353 3500 
L 3084 3500 
L 3084 2975 
L 922 459 
L 3084 459 
L 3084 0 
L 275 0 
L 275 525 
L 2438 3041 
L 353 3041 
L 353 3500 
z
" transform="scale(0.015625)"/>
       <path id="DejaVuSans-67" d="M 2906 1791 
Q 2906 2416 2648 2759 
Q 2391 3103 1925 3103 
Q 1463 3103 1205 2759 
Q 947 2416 947 1791 
Q 947 1169 1205 825 
Q 1463 481 1925 481 
Q 2391 481 2648 825 
Q 2906 1169 2906 1791 
z
M 3481 434 
Q 3481 -459 3084 -895 
Q 2688 -1331 1869 -1331 
Q 1566 -1331 1297 -1286 
Q 1028 -1241 775 -1147 
L 775 -588 
Q 1028 -725 1275 -790 
Q 1522 -856 1778 -856 
Q 2344 -856 2625 -561 
Q 2906 -266 2906 331 
L 2906 616 
Q 2728 306 2450 153 
Q 2172 0 1784 0 
Q 1141 0 747 490 
Q 353 981 353 1791 
Q 353 2603 747 3093 
Q 1141 3584 1784 3584 
Q 2172 3584 2450 3431 
Q 2728 3278 2906 2969 
L 2906 3500 
L 3481 3500 
L 3481 434 
z
" transform="scale(0.015625)"/>
      </defs>
      <use xlink:href="#DejaVuSans-46"/>
      <use xlink:href="#DejaVuSans-72" x="50.269531"/>
      <use xlink:href="#DejaVuSans-69" x="91.382812"/>
      <use xlink:href="#DejaVuSans-7a" x="119.166016"/>
      <use xlink:href="#DejaVuSans-20" x="171.65625"/>
      <use xlink:href="#DejaVuSans-46" x="203.443359"/>
      <use xlink:href="#DejaVuSans-72" x="253.712891"/>
      <use xlink:href="#DejaVuSans-65" x="292.576172"/>
      <use xlink:href="#DejaVuSans-6c" x="354.099609"/>
      <use xlink:href="#DejaVuSans-65" x="381.882812"/>
      <use xlink:href="#DejaVuSans-6e" x="443.40625"/>
      <use xlink:href="#DejaVuSans-67" x="506.785156"/>
     </g>
    </g>
   </g>
   <g id="text_7">
    <g id="patch_8">
     <path d="M 72.062975 170.986619 
L 147.7361 170.986619 
L 147.7361 154.356306 
L 72.062975 154.356306 
z
" clip-path="url(#p27571938af)" style="fill: #ffffff; opacity: 0.7; stroke: #000000; stroke-linejoin: miter"/>
    </g>
    <g clip-path="url(#p27571938af)">
     <!-- Edward Bernds -->
     <g transform="translate(76.022975 165.1549)scale(0.09 -0.09)">
      <defs>
       <path id="DejaVuSans-45" d="M 628 4666 
L 3578 4666 
L 3578 4134 
L 1259 4134 
L 1259 2753 
L 3481 2753 
L 3481 2222 
L 1259 2222 
L 1259 531 
L 3634 531 
L 3634 0 
L 628 0 
L 628 4666 
z
" transform="scale(0.015625)"/>
       <path id="DejaVuSans-77" d="M 269 3500 
L 844 3500 
L 1563 769 
L 2278 3500 
L 2956 3500 
L 3675 769 
L 4391 3500 
L 4966 3500 
L 4050 0 
L 3372 0 
L 2619 2869 
L 1863 0 
L 1184 0 
L 269 3500 
z
" transform="scale(0.015625)"/>
      </defs>
      <use xlink:href="#DejaVuSans-45"/>
      <use xlink:href="#DejaVuSans-64" x="63.183594"/>
      <use xlink:href="#DejaVuSans-77" x="126.660156"/>
      <use xlink:href="#DejaVuSans-61" x="208.447266"/>
      <use xlink:href="#DejaVuSans-72" x="269.726562"/>
      <use xlink:href="#DejaVuSans-64" x="309.089844"/>
      <use xlink:href="#DejaVuSans-20" x="372.566406"/>
      <use xlink:href="#DejaVuSans-42" x="404.353516"/>
      <use xlink:href="#DejaVuSans-65" x="472.957031"/>
      <use xlink:href="#DejaVuSans-72" x="534.480469"/>
      <use xlink:href="#DejaVuSans-6e" x="573.84375"/>
      <use xlink:href="#DejaVuSans-64" x="637.222656"/>
      <use xlink:href="#DejaVuSans-73" x="700.699219"/>
     </g>
    </g>
   </g>
   <g id="text_8">
    <g id="patch_9">
     <path d="M 45.751965 252.26651 
L 103.786496 252.26651 
L 103.786496 235.636197 
L 45.751965 235.636197 
z
" clip-path="url(#p27571938af)" style="fill: #ffffff; opacity: 0.7; stroke: #000000; stroke-linejoin: miter"/>
    </g>
    <g clip-path="url(#p27571938af)">
     <!-- Jules White -->
     <g transform="translate(49.711965 246.434791)scale(0.09 -0.09)">
      <use xlink:href="#DejaVuSans-4a"/>
      <use xlink:href="#DejaVuSans-75" x="29.492188"/>
      <use xlink:href="#DejaVuSans-6c" x="92.871094"/>
      <use xlink:href="#DejaVuSans-65" x="120.654297"/>
      <use xlink:href="#DejaVuSans-73" x="182.177734"/>
      <use xlink:href="#DejaVuSans-20" x="234.277344"/>
      <use xlink:href="#DejaVuSans-57" x="266.064453"/>
      <use xlink:href="#DejaVuSans-68" x="364.941406"/>
      <use xlink:href="#DejaVuSans-69" x="428.320312"/>
      <use xlink:href="#DejaVuSans-74" x="456.103516"/>
      <use xlink:href="#DejaVuSans-65" x="495.3125"/>
     </g>
    </g>
   </g>
   <g id="text_9">
    <g id="patch_10">
     <path d="M 49.958071 341.238415 
L 99.580415 341.238415 
L 99.580415 324.608102 
L 49.958071 324.608102 
z
" clip-path="url(#p27571938af)" style="fill: #ffffff; opacity: 0.7; stroke: #000000; stroke-linejoin: miter"/>
    </g>
    <g clip-path="url(#p27571938af)">
     <!-- Nick Park -->
     <g transform="translate(53.918071 335.406696)scale(0.09 -0.09)">
      <defs>
       <path id="DejaVuSans-4e" d="M 628 4666 
L 1478 4666 
L 3547 763 
L 3547 4666 
L 4159 4666 
L 4159 0 
L 3309 0 
L 1241 3903 
L 1241 0 
L 628 0 
L 628 4666 
z
" transform="scale(0.015625)"/>
       <path id="DejaVuSans-50" d="M 1259 4147 
L 1259 2394 
L 2053 2394 
Q 2494 2394 2734 2622 
Q 2975 2850 2975 3272 
Q 2975 3691 2734 3919 
Q 2494 4147 2053 4147 
L 1259 4147 
z
M 628 4666 
L 2053 4666 
Q 2838 4666 3239 4311 
Q 3641 3956 3641 3272 
Q 3641 2581 3239 2228 
Q 2838 1875 2053 1875 
L 1259 1875 
L 1259 0 
L 628 0 
L 628 4666 
z
" transform="scale(0.015625)"/>
      </defs>
      <use xlink:href="#DejaVuSans-4e"/>
      <use xlink:href="#DejaVuSans-69" x="74.804688"/>
      <use xlink:href="#DejaVuSans-63" x="102.587891"/>
      <use xlink:href="#DejaVuSans-6b" x="157.568359"/>
      <use xlink:href="#DejaVuSans-20" x="215.478516"/>
      <use xlink:href="#DejaVuSans-50" x="247.265625"/>
      <use xlink:href="#DejaVuSans-61" x="303.068359"/>
      <use xlink:href="#DejaVuSans-72" x="364.347656"/>
      <use xlink:href="#DejaVuSans-6b" x="405.460938"/>
     </g>
    </g>
   </g>
   <g id="text_10">
    <g id="patch_11">
     <path d="M 77.32869 422.518281 
L 142.470409 422.518281 
L 142.470409 405.887968 
L 77.32869 405.887968 
z
" clip-path="url(#p27571938af)" style="fill: #ffffff; opacity: 0.7; stroke: #000000; stroke-linejoin: miter"/>
    </g>
    <g clip-path="url(#p27571938af)">
     <!-- Stuart Burge -->
     <g transform="translate(81.28869 416.686562)scale(0.09 -0.09)">
      <defs>
       <path id="DejaVuSans-53" d="M 3425 4513 
L 3425 3897 
Q 3066 4069 2747 4153 
Q 2428 4238 2131 4238 
Q 1616 4238 1336 4038 
Q 1056 3838 1056 3469 
Q 1056 3159 1242 3001 
Q 1428 2844 1947 2747 
L 2328 2669 
Q 3034 2534 3370 2195 
Q 3706 1856 3706 1288 
Q 3706 609 3251 259 
Q 2797 -91 1919 -91 
Q 1588 -91 1214 -16 
Q 841 59 441 206 
L 441 856 
Q 825 641 1194 531 
Q 1563 422 1919 422 
Q 2459 422 2753 634 
Q 3047 847 3047 1241 
Q 3047 1584 2836 1778 
Q 2625 1972 2144 2069 
L 1759 2144 
Q 1053 2284 737 2584 
Q 422 2884 422 3419 
Q 422 4038 858 4394 
Q 1294 4750 2059 4750 
Q 2388 4750 2728 4690 
Q 3069 4631 3425 4513 
z
" transform="scale(0.015625)"/>
      </defs>
      <use xlink:href="#DejaVuSans-53"/>
      <use xlink:href="#DejaVuSans-74" x="63.476562"/>
      <use xlink:href="#DejaVuSans-75" x="102.685547"/>
      <use xlink:href="#DejaVuSans-61" x="166.064453"/>
      <use xlink:href="#DejaVuSans-72" x="227.34375"/>
      <use xlink:href="#DejaVuSans-74" x="268.457031"/>
      <use xlink:href="#DejaVuSans-20" x="307.666016"/>
      <use xlink:href="#DejaVuSans-42" x="339.453125"/>
      <use xlink:href="#DejaVuSans-75" x="408.056641"/>
      <use xlink:href="#DejaVuSans-72" x="471.435547"/>
      <use xlink:href="#DejaVuSans-67" x="510.798828"/>
      <use xlink:href="#DejaVuSans-65" x="574.275391"/>
     </g>
    </g>
   </g>
   <g id="text_11">
    <g id="patch_12">
     <path d="M 127.168394 482.052101 
L 221.003237 482.052101 
L 221.003237 465.421789 
L 127.168394 465.421789 
z
" clip-path="url(#p27571938af)" style="fill: #ffffff; opacity: 0.7; stroke: #000000; stroke-linejoin: miter"/>
    </g>
    <g clip-path="url(#p27571938af)">
     <!-- Robert F. McGowan -->
     <g transform="translate(131.128394 476.220382)scale(0.09 -0.09)">
      <defs>
       <path id="DejaVuSans-2e" d="M 684 794 
L 1344 794 
L 1344 0 
L 684 0 
L 684 794 
z
" transform="scale(0.015625)"/>
       <path id="DejaVuSans-47" d="M 3809 666 
L 3809 1919 
L 2778 1919 
L 2778 2438 
L 4434 2438 
L 4434 434 
Q 4069 175 3628 42 
Q 3188 -91 2688 -91 
Q 1594 -91 976 548 
Q 359 1188 359 2328 
Q 359 3472 976 4111 
Q 1594 4750 2688 4750 
Q 3144 4750 3555 4637 
Q 3966 4525 4313 4306 
L 4313 3634 
Q 3963 3931 3569 4081 
Q 3175 4231 2741 4231 
Q 1884 4231 1454 3753 
Q 1025 3275 1025 2328 
Q 1025 1384 1454 906 
Q 1884 428 2741 428 
Q 3075 428 3337 486 
Q 3600 544 3809 666 
z
" transform="scale(0.015625)"/>
      </defs>
      <use xlink:href="#DejaVuSans-52"/>
      <use xlink:href="#DejaVuSans-6f" x="64.982422"/>
      <use xlink:href="#DejaVuSans-62" x="126.164062"/>
      <use xlink:href="#DejaVuSans-65" x="189.640625"/>
      <use xlink:href="#DejaVuSans-72" x="251.164062"/>
      <use xlink:href="#DejaVuSans-74" x="292.277344"/>
      <use xlink:href="#DejaVuSans-20" x="331.486328"/>
      <use xlink:href="#DejaVuSans-46" x="363.273438"/>
      <use xlink:href="#DejaVuSans-2e" x="404.667969"/>
      <use xlink:href="#DejaVuSans-20" x="436.455078"/>
      <use xlink:href="#DejaVuSans-4d" x="468.242188"/>
      <use xlink:href="#DejaVuSans-63" x="554.521484"/>
      <use xlink:href="#DejaVuSans-47" x="609.501953"/>
      <use xlink:href="#DejaVuSans-6f" x="686.992188"/>
      <use xlink:href="#DejaVuSans-77" x="748.173828"/>
      <use xlink:href="#DejaVuSans-61" x="829.960938"/>
      <use xlink:href="#DejaVuSans-6e" x="891.240234"/>
     </g>
    </g>
   </g>
   <g id="text_12">
    <g id="patch_13">
     <path d="M 229.05879 509.545925 
L 283.400509 509.545925 
L 283.400509 492.915613 
L 229.05879 492.915613 
z
" clip-path="url(#p27571938af)" style="fill: #ffffff; opacity: 0.7; stroke: #000000; stroke-linejoin: miter"/>
    </g>
    <g clip-path="url(#p27571938af)">
     <!-- Gus Meins -->
     <g transform="translate(233.01879 503.714207)scale(0.09 -0.09)">
      <use xlink:href="#DejaVuSans-47"/>
      <use xlink:href="#DejaVuSans-75" x="77.490234"/>
      <use xlink:href="#DejaVuSans-73" x="140.869141"/>
      <use xlink:href="#DejaVuSans-20" x="192.96875"/>
      <use xlink:href="#DejaVuSans-4d" x="224.755859"/>
      <use xlink:href="#DejaVuSans-65" x="311.035156"/>
      <use xlink:href="#DejaVuSans-69" x="372.558594"/>
      <use xlink:href="#DejaVuSans-6e" x="400.341797"/>
      <use xlink:href="#DejaVuSans-73" x="463.720703"/>
     </g>
    </g>
   </g>
   <g id="text_13">
    <g id="patch_14">
     <path d="M 316.640753 500.245817 
L 367.614503 500.245817 
L 367.614503 483.615505 
L 316.640753 483.615505 
z
" clip-path="url(#p27571938af)" style="fill: #ffffff; opacity: 0.7; stroke: #000000; stroke-linejoin: miter"/>
    </g>
    <g clip-path="url(#p27571938af)">
     <!-- Tex Avery -->
     <g transform="translate(320.600753 494.414099)scale(0.09 -0.09)">
      <defs>
       <path id="DejaVuSans-54" d="M -19 4666 
L 3928 4666 
L 3928 4134 
L 2272 4134 
L 2272 0 
L 1638 0 
L 1638 4134 
L -19 4134 
L -19 4666 
z
" transform="scale(0.015625)"/>
       <path id="DejaVuSans-78" d="M 3513 3500 
L 2247 1797 
L 3578 0 
L 2900 0 
L 1881 1375 
L 863 0 
L 184 0 
L 1544 1831 
L 300 3500 
L 978 3500 
L 1906 2253 
L 2834 3500 
L 3513 3500 
z
" transform="scale(0.015625)"/>
       <path id="DejaVuSans-41" d="M 2188 4044 
L 1331 1722 
L 3047 1722 
L 2188 4044 
z
M 1831 4666 
L 2547 4666 
L 4325 0 
L 3669 0 
L 3244 1197 
L 1141 1197 
L 716 0 
L 50 0 
L 1831 4666 
z
" transform="scale(0.015625)"/>
       <path id="DejaVuSans-76" d="M 191 3500 
L 800 3500 
L 1894 563 
L 2988 3500 
L 3597 3500 
L 2284 0 
L 1503 0 
L 191 3500 
z
" transform="scale(0.015625)"/>
       <path id="DejaVuSans-79" d="M 2059 -325 
Q 1816 -950 1584 -1140 
Q 1353 -1331 966 -1331 
L 506 -1331 
L 506 -850 
L 844 -850 
Q 1081 -850 1212 -737 
Q 1344 -625 1503 -206 
L 1606 56 
L 191 3500 
L 800 3500 
L 1894 763 
L 2988 3500 
L 3597 3500 
L 2059 -325 
z
" transform="scale(0.015625)"/>
      </defs>
      <use xlink:href="#DejaVuSans-54"/>
      <use xlink:href="#DejaVuSans-65" x="44.083984"/>
      <use xlink:href="#DejaVuSans-78" x="103.857422"/>
      <use xlink:href="#DejaVuSans-20" x="163.037109"/>
      <use xlink:href="#DejaVuSans-41" x="194.824219"/>
      <use xlink:href="#DejaVuSans-76" x="257.357422"/>
      <use xlink:href="#DejaVuSans-65" x="316.537109"/>
      <use xlink:href="#DejaVuSans-72" x="378.060547"/>
      <use xlink:href="#DejaVuSans-79" x="419.173828"/>
     </g>
    </g>
   </g>
   <g id="text_14">
    <g id="patch_15">
     <path d="M 380.494096 455.759846 
L 453.360346 455.759846 
L 453.360346 439.129533 
L 380.494096 439.129533 
z
" clip-path="url(#p27571938af)" style="fill: #ffffff; opacity: 0.7; stroke: #000000; stroke-linejoin: miter"/>
    </g>
    <g clip-path="url(#p27571938af)">
     <!-- Nathan Collett -->
     <g transform="translate(384.454096 449.928127)scale(0.09 -0.09)">
      <use xlink:href="#DejaVuSans-4e"/>
      <use xlink:href="#DejaVuSans-61" x="74.804688"/>
      <use xlink:href="#DejaVuSans-74" x="136.083984"/>
      <use xlink:href="#DejaVuSans-68" x="175.292969"/>
      <use xlink:href="#DejaVuSans-61" x="238.671875"/>
      <use xlink:href="#DejaVuSans-6e" x="299.951172"/>
      <use xlink:href="#DejaVuSans-20" x="363.330078"/>
      <use xlink:href="#DejaVuSans-43" x="395.117188"/>
      <use xlink:href="#DejaVuSans-6f" x="464.941406"/>
      <use xlink:href="#DejaVuSans-6c" x="526.123047"/>
      <use xlink:href="#DejaVuSans-6c" x="553.90625"/>
      <use xlink:href="#DejaVuSans-65" x="581.689453"/>
      <use xlink:href="#DejaVuSans-74" x="643.212891"/>
      <use xlink:href="#DejaVuSans-74" x="682.421875"/>
     </g>
    </g>
   </g>
   <g id="text_15">
    <g id="patch_16">
     <path d="M 441.466216 383.780063 
L 493.92356 383.780063 
L 493.92356 367.14975 
L 441.466216 367.14975 
z
" clip-path="url(#p27571938af)" style="fill: #ffffff; opacity: 0.7; stroke: #000000; stroke-linejoin: miter"/>
    </g>
    <g clip-path="url(#p27571938af)">
     <!-- Todd Field -->
     <g transform="translate(445.426216 377.948344)scale(0.09 -0.09)">
      <use xlink:href="#DejaVuSans-54"/>
      <use xlink:href="#DejaVuSans-6f" x="44.083984"/>
      <use xlink:href="#DejaVuSans-64" x="105.265625"/>
      <use xlink:href="#DejaVuSans-64" x="168.742188"/>
      <use xlink:href="#DejaVuSans-20" x="232.21875"/>
      <use xlink:href="#DejaVuSans-46" x="264.005859"/>
      <use xlink:href="#DejaVuSans-69" x="314.275391"/>
      <use xlink:href="#DejaVuSans-65" x="342.058594"/>
      <use xlink:href="#DejaVuSans-6c" x="403.582031"/>
      <use xlink:href="#DejaVuSans-64" x="431.365234"/>
     </g>
    </g>
   </g>
   <g id="text_16">
    <!-- Impactful directors for Short Film genre -->
    <g transform="translate(169.845937 4.8)scale(0.12 -0.12)">
     <defs>
      <path id="DejaVuSans-49" d="M 628 4666 
L 1259 4666 
L 1259 0 
L 628 0 
L 628 4666 
z
" transform="scale(0.015625)"/>
      <path id="DejaVuSans-66" d="M 2375 4863 
L 2375 4384 
L 1825 4384 
Q 1516 4384 1395 4259 
Q 1275 4134 1275 3809 
L 1275 3500 
L 2222 3500 
L 2222 3053 
L 1275 3053 
L 1275 0 
L 697 0 
L 697 3053 
L 147 3053 
L 147 3500 
L 697 3500 
L 697 3744 
Q 697 4328 969 4595 
Q 1241 4863 1831 4863 
L 2375 4863 
z
" transform="scale(0.015625)"/>
     </defs>
     <use xlink:href="#DejaVuSans-49"/>
     <use xlink:href="#DejaVuSans-6d" x="29.492188"/>
     <use xlink:href="#DejaVuSans-70" x="126.904297"/>
     <use xlink:href="#DejaVuSans-61" x="190.380859"/>
     <use xlink:href="#DejaVuSans-63" x="251.660156"/>
     <use xlink:href="#DejaVuSans-74" x="306.640625"/>
     <use xlink:href="#DejaVuSans-66" x="345.849609"/>
     <use xlink:href="#DejaVuSans-75" x="381.054688"/>
     <use xlink:href="#DejaVuSans-6c" x="444.433594"/>
     <use xlink:href="#DejaVuSans-20" x="472.216797"/>
     <use xlink:href="#DejaVuSans-64" x="504.003906"/>
     <use xlink:href="#DejaVuSans-69" x="567.480469"/>
     <use xlink:href="#DejaVuSans-72" x="595.263672"/>
     <use xlink:href="#DejaVuSans-65" x="634.126953"/>
     <use xlink:href="#DejaVuSans-63" x="695.650391"/>
     <use xlink:href="#DejaVuSans-74" x="750.630859"/>
     <use xlink:href="#DejaVuSans-6f" x="789.839844"/>
     <use xlink:href="#DejaVuSans-72" x="851.021484"/>
     <use xlink:href="#DejaVuSans-73" x="892.134766"/>
     <use xlink:href="#DejaVuSans-20" x="944.234375"/>
     <use xlink:href="#DejaVuSans-66" x="976.021484"/>
     <use xlink:href="#DejaVuSans-6f" x="1011.226562"/>
     <use xlink:href="#DejaVuSans-72" x="1072.408203"/>
     <use xlink:href="#DejaVuSans-20" x="1113.521484"/>
     <use xlink:href="#DejaVuSans-53" x="1145.308594"/>
     <use xlink:href="#DejaVuSans-68" x="1208.785156"/>
     <use xlink:href="#DejaVuSans-6f" x="1272.164062"/>
     <use xlink:href="#DejaVuSans-72" x="1333.345703"/>
     <use xlink:href="#DejaVuSans-74" x="1374.458984"/>
     <use xlink:href="#DejaVuSans-20" x="1413.667969"/>
     <use xlink:href="#DejaVuSans-46" x="1445.455078"/>
     <use xlink:href="#DejaVuSans-69" x="1495.724609"/>
     <use xlink:href="#DejaVuSans-6c" x="1523.507812"/>
     <use xlink:href="#DejaVuSans-6d" x="1551.291016"/>
     <use xlink:href="#DejaVuSans-20" x="1648.703125"/>
     <use xlink:href="#DejaVuSans-67" x="1680.490234"/>
     <use xlink:href="#DejaVuSans-65" x="1743.966797"/>
     <use xlink:href="#DejaVuSans-6e" x="1805.490234"/>
     <use xlink:href="#DejaVuSans-72" x="1868.869141"/>
     <use xlink:href="#DejaVuSans-65" x="1907.732422"/>
    </g>
   </g>
  </g>
 </g>
 <defs>
  <clipPath id="p27571938af">
   <rect x="10.8" y="10.8" width="554.4" height="554.4"/>
  </clipPath>
 </defs>
</svg>
