<?xml version="1.0" encoding="utf-8" standalone="no"?>
<!DOCTYPE svg PUBLIC "-//W3C//DTD SVG 1.1//EN"
  "http://www.w3.org/Graphics/SVG/1.1/DTD/svg11.dtd">
<svg xmlns:xlink="http://www.w3.org/1999/xlink" width="576pt" height="576pt" viewBox="0 0 576 576" xmlns="http://www.w3.org/2000/svg" version="1.1">
 <metadata>
  <rdf:RDF xmlns:dc="http://purl.org/dc/elements/1.1/" xmlns:cc="http://creativecommons.org/ns#" xmlns:rdf="http://www.w3.org/1999/02/22-rdf-syntax-ns#">
   <cc:Work>
    <dc:type rdf:resource="http://purl.org/dc/dcmitype/StillImage"/>
    <dc:date>2022-12-23T17:29:33.760606</dc:date>
    <dc:format>image/svg+xml</dc:format>
    <dc:creator>
     <cc:Agent>
      <dc:title>Matplotlib v3.5.2, https://matplotlib.org/</dc:title>
     </cc:Agent>
    </dc:creator>
   </cc:Work>
  </rdf:RDF>
 </metadata>
 <defs>
  <style type="text/css">*{stroke-linejoin: round; stroke-linecap: butt}</style>
 </defs>
 <g id="figure_1">
  <g id="patch_1">
   <path d="M 0 576 
L 576 576 
L 576 0 
L 0 0 
z
" style="fill: #ffffff"/>
  </g>
  <g id="axes_1">
   <g id="LineCollection_1">
    <path d="M 482.583454 291.529391 
L 464.76001 205.766339 
" clip-path="url(#p66da317299)" style="fill: none; stroke: #000000; stroke-opacity: 0.3; stroke-width: 5.376325"/>
    <path d="M 464.76001 205.766339 
L 109.637153 415.467724 
" clip-path="url(#p66da317299)" style="fill: none; stroke: #000000; stroke-opacity: 0.3; stroke-width: 5"/>
    <path d="M 414.371527 134.832489 
L 340.130635 90.992969 
" clip-path="url(#p66da317299)" style="fill: none; stroke: #000000; stroke-opacity: 0.3; stroke-width: 10"/>
   </g>
   <g id="PathCollection_1">
    <path d="M 482.583454 318.915519 
C 489.84634 318.915519 496.812735 316.029944 501.948371 310.894308 
C 507.084007 305.758672 509.969582 298.792277 509.969582 291.529391 
C 509.969582 284.266505 507.084007 277.30011 501.948371 272.164474 
C 496.812735 267.028838 489.84634 264.143263 482.583454 264.143263 
C 475.320568 264.143263 468.354173 267.028838 463.218537 272.164474 
C 458.082902 277.30011 455.197326 284.266505 455.197326 291.529391 
C 455.197326 298.792277 458.082902 305.758672 463.218537 310.894308 
C 468.354173 316.029944 475.320568 318.915519 482.583454 318.915519 
z
" clip-path="url(#p66da317299)" style="fill: #c70039; fill-opacity: 0.99; stroke: #c70039; stroke-opacity: 0.99"/>
    <path d="M 464.76001 232.119716 
C 471.749007 232.119716 478.452694 229.342958 483.394662 224.400991 
C 488.336629 219.459024 491.113387 212.755337 491.113387 205.766339 
C 491.113387 198.777342 488.336629 192.073655 483.394662 187.131688 
C 478.452694 182.189721 471.749007 179.412963 464.76001 179.412963 
C 457.771013 179.412963 451.067326 182.189721 446.125359 187.131688 
C 441.183391 192.073655 438.406633 198.777342 438.406633 205.766339 
C 438.406633 212.755337 441.183391 219.459024 446.125359 224.400991 
C 451.067326 229.342958 457.771013 232.119716 464.76001 232.119716 
z
" clip-path="url(#p66da317299)" style="fill: #c70039; fill-opacity: 0.99; stroke: #c70039; stroke-opacity: 0.99"/>
    <path d="M 414.371527 161.185866 
C 421.360524 161.185866 428.064211 158.409108 433.006178 153.46714 
C 437.948146 148.525173 440.724904 141.821486 440.724904 134.832489 
C 440.724904 127.843492 437.948146 121.139805 433.006178 116.197837 
C 428.064211 111.25587 421.360524 108.479112 414.371527 108.479112 
C 407.38253 108.479112 400.678843 111.25587 395.736875 116.197837 
C 390.794908 121.139805 388.01815 127.843492 388.01815 134.832489 
C 388.01815 141.821486 390.794908 148.525173 395.736875 153.46714 
C 400.678843 158.409108 407.38253 161.185866 414.371527 161.185866 
z
" clip-path="url(#p66da317299)" style="fill: #c70039; fill-opacity: 0.99; stroke: #c70039; stroke-opacity: 0.99"/>
    <path d="M 340.130635 114.737641 
C 346.427796 114.737641 352.467889 112.235753 356.920654 107.782988 
C 361.373419 103.330222 363.875307 97.290129 363.875307 90.992969 
C 363.875307 84.695808 361.373419 78.655715 356.920654 74.20295 
C 352.467889 69.750184 346.427796 67.248296 340.130635 67.248296 
C 333.833474 67.248296 327.793381 69.750184 323.340616 74.20295 
C 318.887851 78.655715 316.385962 84.695808 316.385962 90.992969 
C 316.385962 97.290129 318.887851 103.330222 323.340616 107.782988 
C 327.793381 112.235753 333.833474 114.737641 340.130635 114.737641 
z
" clip-path="url(#p66da317299)" style="fill: #c70039; fill-opacity: 0.99; stroke: #c70039; stroke-opacity: 0.99"/>
    <path d="M 254.874243 103.296604 
C 260.56778 103.296604 266.02889 101.034538 270.054829 97.008599 
C 274.080767 92.982661 276.342834 87.52155 276.342834 81.828013 
C 276.342834 76.134476 274.080767 70.673365 270.054829 66.647427 
C 266.02889 62.621488 260.56778 60.359422 254.874243 60.359422 
C 249.180706 60.359422 243.719595 62.621488 239.693656 66.647427 
C 235.667718 70.673365 233.405652 76.134476 233.405652 81.828013 
C 233.405652 87.52155 235.667718 92.982661 239.693656 97.008599 
C 243.719595 101.034538 249.180706 103.296604 254.874243 103.296604 
z
" clip-path="url(#p66da317299)" style="fill: #c70039; fill-opacity: 0.99; stroke: #c70039; stroke-opacity: 0.99"/>
    <path d="M 173.343966 130.316161 
C 179.017674 130.316161 184.459766 128.061972 188.471684 124.050055 
C 192.483602 120.038137 194.73779 114.596045 194.73779 108.922337 
C 194.73779 103.248628 192.483602 97.806537 188.471684 93.794619 
C 184.459766 89.782701 179.017674 87.528513 173.343966 87.528513 
C 167.670258 87.528513 162.228166 89.782701 158.216248 93.794619 
C 154.20433 97.806537 151.950142 103.248628 151.950142 108.922337 
C 151.950142 114.596045 154.20433 120.038137 158.216248 124.050055 
C 162.228166 128.061972 167.670258 130.316161 173.343966 130.316161 
z
" clip-path="url(#p66da317299)" style="fill: #c70039; fill-opacity: 0.99; stroke: #c70039; stroke-opacity: 0.99"/>
    <path d="M 109.637141 188.849018 
C 115.274814 188.849018 120.682342 186.609147 124.66878 182.622709 
C 128.655217 178.636272 130.895088 173.228744 130.895088 167.591071 
C 130.895088 161.953397 128.655217 156.545869 124.66878 152.559432 
C 120.682342 148.572995 115.274814 146.333124 109.637141 146.333124 
C 103.999468 146.333124 98.59194 148.572995 94.605502 152.559432 
C 90.619065 156.545869 88.379194 161.953397 88.379194 167.591071 
C 88.379194 173.228744 90.619065 178.636272 94.605502 182.622709 
C 98.59194 186.609147 103.999468 188.849018 109.637141 188.849018 
z
" clip-path="url(#p66da317299)" style="fill: #c70039; fill-opacity: 0.99; stroke: #c70039; stroke-opacity: 0.99"/>
    <path d="M 74.769231 268.440954 
C 80.272479 268.440954 85.551069 266.25449 89.442453 262.363106 
C 93.333837 258.471722 95.520301 253.193131 95.520301 247.689883 
C 95.520301 242.186635 93.333837 236.908045 89.442453 233.016661 
C 85.551069 229.125277 80.272479 226.938813 74.769231 226.938813 
C 69.265983 226.938813 63.987392 229.125277 60.096008 233.016661 
C 56.204624 236.908045 54.01816 242.186635 54.01816 247.689883 
C 54.01816 253.193131 56.204624 258.471722 60.096008 262.363106 
C 63.987392 266.25449 69.265983 268.440954 74.769231 268.440954 
z
" clip-path="url(#p66da317299)" style="fill: #c70039; fill-opacity: 0.99; stroke: #c70039; stroke-opacity: 0.99"/>
    <path d="M 74.769243 355.876084 
C 80.207802 355.876084 85.424344 353.715321 89.269986 349.869679 
C 93.115628 346.024038 95.27639 340.807496 95.27639 335.368937 
C 95.27639 329.930378 93.115628 324.713836 89.269986 320.868194 
C 85.424344 317.022552 80.207802 314.861789 74.769243 314.861789 
C 69.330684 314.861789 64.114142 317.022552 60.2685 320.868194 
C 56.422858 324.713836 54.262096 329.930378 54.262096 335.368937 
C 54.262096 340.807496 56.422858 346.024038 60.2685 349.869679 
C 64.114142 353.715321 69.330684 355.876084 74.769243 355.876084 
z
" clip-path="url(#p66da317299)" style="fill: #c70039; fill-opacity: 0.99; stroke: #c70039; stroke-opacity: 0.99"/>
    <path d="M 109.637153 435.946315 
C 115.068139 435.946315 120.277417 433.788561 124.117704 429.948274 
C 127.95799 426.107987 130.115744 420.89871 130.115744 415.467724 
C 130.115744 410.036738 127.95799 404.82746 124.117704 400.987174 
C 120.277417 397.146887 115.068139 394.989133 109.637153 394.989133 
C 104.206168 394.989133 98.99689 397.146887 95.156603 400.987174 
C 91.316316 404.82746 89.158563 410.036738 89.158563 415.467724 
C 89.158563 420.89871 91.316316 426.107987 95.156603 429.948274 
C 98.99689 433.788561 104.206168 435.946315 109.637153 435.946315 
z
" clip-path="url(#p66da317299)" style="fill: #c70039; fill-opacity: 0.99; stroke: #c70039; stroke-opacity: 0.99"/>
    <path d="M 173.343997 494.217088 
C 178.669442 494.217088 183.777488 492.101267 187.543147 488.335608 
C 191.308805 484.569949 193.424627 479.461903 193.424627 474.136458 
C 193.424627 468.811012 191.308805 463.702966 187.543147 459.937308 
C 183.777488 456.171649 178.669442 454.055827 173.343997 454.055827 
C 168.018551 454.055827 162.910505 456.171649 159.144847 459.937308 
C 155.379188 463.702966 153.263366 468.811012 153.263366 474.136458 
C 153.263366 479.461903 155.379188 484.569949 159.144847 488.335608 
C 162.910505 492.101267 168.018551 494.217088 173.343997 494.217088 
z
" clip-path="url(#p66da317299)" style="fill: #c70039; fill-opacity: 0.99; stroke: #c70039; stroke-opacity: 0.99"/>
    <path d="M 254.87428 520.864473 
C 260.081199 520.864473 265.075557 518.795742 268.757404 515.113894 
C 272.439252 511.432046 274.507983 506.437688 274.507983 501.230769 
C 274.507983 496.02385 272.439252 491.029492 268.757404 487.347644 
C 265.075557 483.665797 260.081199 481.597066 254.87428 481.597066 
C 249.66736 481.597066 244.673002 483.665797 240.991155 487.347644 
C 237.309307 491.029492 235.240576 496.02385 235.240576 501.230769 
C 235.240576 506.437688 237.309307 511.432046 240.991155 515.113894 
C 244.673002 518.795742 249.66736 520.864473 254.87428 520.864473 
z
" clip-path="url(#p66da317299)" style="fill: #c70039; fill-opacity: 0.99; stroke: #c70039; stroke-opacity: 0.99"/>
    <path d="M 340.130665 511.63828 
C 345.321348 511.63828 350.300131 509.576 353.970498 505.905634 
C 357.640864 502.235267 359.703144 497.256483 359.703144 492.065801 
C 359.703144 486.875119 357.640864 481.896335 353.970498 478.225969 
C 350.300131 474.555602 345.321348 472.493322 340.130665 472.493322 
C 334.939983 472.493322 329.961199 474.555602 326.290833 478.225969 
C 322.620466 481.896335 320.558187 486.875119 320.558187 492.065801 
C 320.558187 497.256483 322.620466 502.235267 326.290833 505.905634 
C 329.961199 509.576 334.939983 511.63828 340.130665 511.63828 
z
" clip-path="url(#p66da317299)" style="fill: #c70039; fill-opacity: 0.99; stroke: #c70039; stroke-opacity: 0.99"/>
    <path d="M 414.371564 467.762736 
C 419.552699 467.762736 424.522326 465.704249 428.185941 462.040633 
C 431.849557 458.377017 433.908044 453.407391 433.908044 448.226256 
C 433.908044 443.04512 431.849557 438.075494 428.185941 434.411878 
C 424.522326 430.748262 419.552699 428.689775 414.371564 428.689775 
C 409.190429 428.689775 404.220802 430.748262 400.557186 434.411878 
C 396.89357 438.075494 394.835084 443.04512 394.835084 448.226256 
C 394.835084 453.407391 396.89357 458.377017 400.557186 462.040633 
C 404.220802 465.704249 409.190429 467.762736 414.371564 467.762736 
z
" clip-path="url(#p66da317299)" style="fill: #c70039; fill-opacity: 0.99; stroke: #c70039; stroke-opacity: 0.99"/>
    <path d="M 464.760035 396.657328 
C 469.895671 396.657328 474.821656 394.616918 478.453099 390.985475 
C 482.084542 387.354032 484.124951 382.428047 484.124951 377.292411 
C 484.124951 372.156775 482.084542 367.23079 478.453099 363.599347 
C 474.821656 359.967904 469.895671 357.927495 464.760035 357.927495 
C 459.624399 357.927495 454.698414 359.967904 451.066971 363.599347 
C 447.435528 367.23079 445.395118 372.156775 445.395118 377.292411 
C 445.395118 382.428047 447.435528 387.354032 451.066971 390.985475 
C 454.698414 394.616918 459.624399 396.657328 464.760035 396.657328 
z
" clip-path="url(#p66da317299)" style="fill: #c70039; fill-opacity: 0.99; stroke: #c70039; stroke-opacity: 0.99"/>
   </g>
   <g id="text_1">
    <g id="patch_2">
     <path d="M 451.221267 299.844547 
L 513.945642 299.844547 
L 513.945642 283.214235 
L 451.221267 283.214235 
z
" clip-path="url(#p66da317299)" style="fill: #ffffff; opacity: 0.7; stroke: #000000; stroke-linejoin: miter"/>
    </g>
    <g clip-path="url(#p66da317299)">
     <!-- Chuck Jones -->
     <g transform="translate(455.181267 294.012829)scale(0.09 -0.09)">
      <defs>
       <path id="DejaVuSans-43" d="M 4122 4306 
L 4122 3641 
Q 3803 3938 3442 4084 
Q 3081 4231 2675 4231 
Q 1875 4231 1450 3742 
Q 1025 3253 1025 2328 
Q 1025 1406 1450 917 
Q 1875 428 2675 428 
Q 3081 428 3442 575 
Q 3803 722 4122 1019 
L 4122 359 
Q 3791 134 3420 21 
Q 3050 -91 2638 -91 
Q 1578 -91 968 557 
Q 359 1206 359 2328 
Q 359 3453 968 4101 
Q 1578 4750 2638 4750 
Q 3056 4750 3426 4639 
Q 3797 4528 4122 4306 
z
" transform="scale(0.015625)"/>
       <path id="DejaVuSans-68" d="M 3513 2113 
L 3513 0 
L 2938 0 
L 2938 2094 
Q 2938 2591 2744 2837 
Q 2550 3084 2163 3084 
Q 1697 3084 1428 2787 
Q 1159 2491 1159 1978 
L 1159 0 
L 581 0 
L 581 4863 
L 1159 4863 
L 1159 2956 
Q 1366 3272 1645 3428 
Q 1925 3584 2291 3584 
Q 2894 3584 3203 3211 
Q 3513 2838 3513 2113 
z
" transform="scale(0.015625)"/>
       <path id="DejaVuSans-75" d="M 544 1381 
L 544 3500 
L 1119 3500 
L 1119 1403 
Q 1119 906 1312 657 
Q 1506 409 1894 409 
Q 2359 409 2629 706 
Q 2900 1003 2900 1516 
L 2900 3500 
L 3475 3500 
L 3475 0 
L 2900 0 
L 2900 538 
Q 2691 219 2414 64 
Q 2138 -91 1772 -91 
Q 1169 -91 856 284 
Q 544 659 544 1381 
z
M 1991 3584 
L 1991 3584 
z
" transform="scale(0.015625)"/>
       <path id="DejaVuSans-63" d="M 3122 3366 
L 3122 2828 
Q 2878 2963 2633 3030 
Q 2388 3097 2138 3097 
Q 1578 3097 1268 2742 
Q 959 2388 959 1747 
Q 959 1106 1268 751 
Q 1578 397 2138 397 
Q 2388 397 2633 464 
Q 2878 531 3122 666 
L 3122 134 
Q 2881 22 2623 -34 
Q 2366 -91 2075 -91 
Q 1284 -91 818 406 
Q 353 903 353 1747 
Q 353 2603 823 3093 
Q 1294 3584 2113 3584 
Q 2378 3584 2631 3529 
Q 2884 3475 3122 3366 
z
" transform="scale(0.015625)"/>
       <path id="DejaVuSans-6b" d="M 581 4863 
L 1159 4863 
L 1159 1991 
L 2875 3500 
L 3609 3500 
L 1753 1863 
L 3688 0 
L 2938 0 
L 1159 1709 
L 1159 0 
L 581 0 
L 581 4863 
z
" transform="scale(0.015625)"/>
       <path id="DejaVuSans-20" transform="scale(0.015625)"/>
       <path id="DejaVuSans-4a" d="M 628 4666 
L 1259 4666 
L 1259 325 
Q 1259 -519 939 -900 
Q 619 -1281 -91 -1281 
L -331 -1281 
L -331 -750 
L -134 -750 
Q 284 -750 456 -515 
Q 628 -281 628 325 
L 628 4666 
z
" transform="scale(0.015625)"/>
       <path id="DejaVuSans-6f" d="M 1959 3097 
Q 1497 3097 1228 2736 
Q 959 2375 959 1747 
Q 959 1119 1226 758 
Q 1494 397 1959 397 
Q 2419 397 2687 759 
Q 2956 1122 2956 1747 
Q 2956 2369 2687 2733 
Q 2419 3097 1959 3097 
z
M 1959 3584 
Q 2709 3584 3137 3096 
Q 3566 2609 3566 1747 
Q 3566 888 3137 398 
Q 2709 -91 1959 -91 
Q 1206 -91 779 398 
Q 353 888 353 1747 
Q 353 2609 779 3096 
Q 1206 3584 1959 3584 
z
" transform="scale(0.015625)"/>
       <path id="DejaVuSans-6e" d="M 3513 2113 
L 3513 0 
L 2938 0 
L 2938 2094 
Q 2938 2591 2744 2837 
Q 2550 3084 2163 3084 
Q 1697 3084 1428 2787 
Q 1159 2491 1159 1978 
L 1159 0 
L 581 0 
L 581 3500 
L 1159 3500 
L 1159 2956 
Q 1366 3272 1645 3428 
Q 1925 3584 2291 3584 
Q 2894 3584 3203 3211 
Q 3513 2838 3513 2113 
z
" transform="scale(0.015625)"/>
       <path id="DejaVuSans-65" d="M 3597 1894 
L 3597 1613 
L 953 1613 
Q 991 1019 1311 708 
Q 1631 397 2203 397 
Q 2534 397 2845 478 
Q 3156 559 3463 722 
L 3463 178 
Q 3153 47 2828 -22 
Q 2503 -91 2169 -91 
Q 1331 -91 842 396 
Q 353 884 353 1716 
Q 353 2575 817 3079 
Q 1281 3584 2069 3584 
Q 2775 3584 3186 3129 
Q 3597 2675 3597 1894 
z
M 3022 2063 
Q 3016 2534 2758 2815 
Q 2500 3097 2075 3097 
Q 1594 3097 1305 2825 
Q 1016 2553 972 2059 
L 3022 2063 
z
" transform="scale(0.015625)"/>
       <path id="DejaVuSans-73" d="M 2834 3397 
L 2834 2853 
Q 2591 2978 2328 3040 
Q 2066 3103 1784 3103 
Q 1356 3103 1142 2972 
Q 928 2841 928 2578 
Q 928 2378 1081 2264 
Q 1234 2150 1697 2047 
L 1894 2003 
Q 2506 1872 2764 1633 
Q 3022 1394 3022 966 
Q 3022 478 2636 193 
Q 2250 -91 1575 -91 
Q 1294 -91 989 -36 
Q 684 19 347 128 
L 347 722 
Q 666 556 975 473 
Q 1284 391 1588 391 
Q 1994 391 2212 530 
Q 2431 669 2431 922 
Q 2431 1156 2273 1281 
Q 2116 1406 1581 1522 
L 1381 1569 
Q 847 1681 609 1914 
Q 372 2147 372 2553 
Q 372 3047 722 3315 
Q 1072 3584 1716 3584 
Q 2034 3584 2315 3537 
Q 2597 3491 2834 3397 
z
" transform="scale(0.015625)"/>
      </defs>
      <use xlink:href="#DejaVuSans-43"/>
      <use xlink:href="#DejaVuSans-68" x="69.824219"/>
      <use xlink:href="#DejaVuSans-75" x="133.203125"/>
      <use xlink:href="#DejaVuSans-63" x="196.582031"/>
      <use xlink:href="#DejaVuSans-6b" x="251.5625"/>
      <use xlink:href="#DejaVuSans-20" x="309.472656"/>
      <use xlink:href="#DejaVuSans-4a" x="341.259766"/>
      <use xlink:href="#DejaVuSans-6f" x="370.751953"/>
      <use xlink:href="#DejaVuSans-6e" x="431.933594"/>
      <use xlink:href="#DejaVuSans-65" x="495.3125"/>
      <use xlink:href="#DejaVuSans-73" x="556.835938"/>
     </g>
    </g>
   </g>
   <g id="text_2">
    <g id="patch_3">
     <path d="M 435.13876 214.081496 
L 494.38126 214.081496 
L 494.38126 197.451183 
L 435.13876 197.451183 
z
" clip-path="url(#p66da317299)" style="fill: #ffffff; opacity: 0.7; stroke: #000000; stroke-linejoin: miter"/>
    </g>
    <g clip-path="url(#p66da317299)">
     <!-- Friz Freleng -->
     <g transform="translate(439.09876 208.249777)scale(0.09 -0.09)">
      <defs>
       <path id="DejaVuSans-46" d="M 628 4666 
L 3309 4666 
L 3309 4134 
L 1259 4134 
L 1259 2759 
L 3109 2759 
L 3109 2228 
L 1259 2228 
L 1259 0 
L 628 0 
L 628 4666 
z
" transform="scale(0.015625)"/>
       <path id="DejaVuSans-72" d="M 2631 2963 
Q 2534 3019 2420 3045 
Q 2306 3072 2169 3072 
Q 1681 3072 1420 2755 
Q 1159 2438 1159 1844 
L 1159 0 
L 581 0 
L 581 3500 
L 1159 3500 
L 1159 2956 
Q 1341 3275 1631 3429 
Q 1922 3584 2338 3584 
Q 2397 3584 2469 3576 
Q 2541 3569 2628 3553 
L 2631 2963 
z
" transform="scale(0.015625)"/>
       <path id="DejaVuSans-69" d="M 603 3500 
L 1178 3500 
L 1178 0 
L 603 0 
L 603 3500 
z
M 603 4863 
L 1178 4863 
L 1178 4134 
L 603 4134 
L 603 4863 
z
" transform="scale(0.015625)"/>
       <path id="DejaVuSans-7a" d="M 353 3500 
L 3084 3500 
L 3084 2975 
L 922 459 
L 3084 459 
L 3084 0 
L 275 0 
L 275 525 
L 2438 3041 
L 353 3041 
L 353 3500 
z
" transform="scale(0.015625)"/>
       <path id="DejaVuSans-6c" d="M 603 4863 
L 1178 4863 
L 1178 0 
L 603 0 
L 603 4863 
z
" transform="scale(0.015625)"/>
       <path id="DejaVuSans-67" d="M 2906 1791 
Q 2906 2416 2648 2759 
Q 2391 3103 1925 3103 
Q 1463 3103 1205 2759 
Q 947 2416 947 1791 
Q 947 1169 1205 825 
Q 1463 481 1925 481 
Q 2391 481 2648 825 
Q 2906 1169 2906 1791 
z
M 3481 434 
Q 3481 -459 3084 -895 
Q 2688 -1331 1869 -1331 
Q 1566 -1331 1297 -1286 
Q 1028 -1241 775 -1147 
L 775 -588 
Q 1028 -725 1275 -790 
Q 1522 -856 1778 -856 
Q 2344 -856 2625 -561 
Q 2906 -266 2906 331 
L 2906 616 
Q 2728 306 2450 153 
Q 2172 0 1784 0 
Q 1141 0 747 490 
Q 353 981 353 1791 
Q 353 2603 747 3093 
Q 1141 3584 1784 3584 
Q 2172 3584 2450 3431 
Q 2728 3278 2906 2969 
L 2906 3500 
L 3481 3500 
L 3481 434 
z
" transform="scale(0.015625)"/>
      </defs>
      <use xlink:href="#DejaVuSans-46"/>
      <use xlink:href="#DejaVuSans-72" x="50.269531"/>
      <use xlink:href="#DejaVuSans-69" x="91.382812"/>
      <use xlink:href="#DejaVuSans-7a" x="119.166016"/>
      <use xlink:href="#DejaVuSans-20" x="171.65625"/>
      <use xlink:href="#DejaVuSans-46" x="203.443359"/>
      <use xlink:href="#DejaVuSans-72" x="253.712891"/>
      <use xlink:href="#DejaVuSans-65" x="292.576172"/>
      <use xlink:href="#DejaVuSans-6c" x="354.099609"/>
      <use xlink:href="#DejaVuSans-65" x="381.882812"/>
      <use xlink:href="#DejaVuSans-6e" x="443.40625"/>
      <use xlink:href="#DejaVuSans-67" x="506.785156"/>
     </g>
    </g>
   </g>
   <g id="text_3">
    <g id="patch_4">
     <path d="M 377.88848 143.147645 
L 450.854574 143.147645 
L 450.854574 126.517333 
L 377.88848 126.517333 
z
" clip-path="url(#p66da317299)" style="fill: #ffffff; opacity: 0.7; stroke: #000000; stroke-linejoin: miter"/>
    </g>
    <g clip-path="url(#p66da317299)">
     <!-- William Hanna -->
     <g transform="translate(381.84848 137.315926)scale(0.09 -0.09)">
      <defs>
       <path id="DejaVuSans-57" d="M 213 4666 
L 850 4666 
L 1831 722 
L 2809 4666 
L 3519 4666 
L 4500 722 
L 5478 4666 
L 6119 4666 
L 4947 0 
L 4153 0 
L 3169 4050 
L 2175 0 
L 1381 0 
L 213 4666 
z
" transform="scale(0.015625)"/>
       <path id="DejaVuSans-61" d="M 2194 1759 
Q 1497 1759 1228 1600 
Q 959 1441 959 1056 
Q 959 750 1161 570 
Q 1363 391 1709 391 
Q 2188 391 2477 730 
Q 2766 1069 2766 1631 
L 2766 1759 
L 2194 1759 
z
M 3341 1997 
L 3341 0 
L 2766 0 
L 2766 531 
Q 2569 213 2275 61 
Q 1981 -91 1556 -91 
Q 1019 -91 701 211 
Q 384 513 384 1019 
Q 384 1609 779 1909 
Q 1175 2209 1959 2209 
L 2766 2209 
L 2766 2266 
Q 2766 2663 2505 2880 
Q 2244 3097 1772 3097 
Q 1472 3097 1187 3025 
Q 903 2953 641 2809 
L 641 3341 
Q 956 3463 1253 3523 
Q 1550 3584 1831 3584 
Q 2591 3584 2966 3190 
Q 3341 2797 3341 1997 
z
" transform="scale(0.015625)"/>
       <path id="DejaVuSans-6d" d="M 3328 2828 
Q 3544 3216 3844 3400 
Q 4144 3584 4550 3584 
Q 5097 3584 5394 3201 
Q 5691 2819 5691 2113 
L 5691 0 
L 5113 0 
L 5113 2094 
Q 5113 2597 4934 2840 
Q 4756 3084 4391 3084 
Q 3944 3084 3684 2787 
Q 3425 2491 3425 1978 
L 3425 0 
L 2847 0 
L 2847 2094 
Q 2847 2600 2669 2842 
Q 2491 3084 2119 3084 
Q 1678 3084 1418 2786 
Q 1159 2488 1159 1978 
L 1159 0 
L 581 0 
L 581 3500 
L 1159 3500 
L 1159 2956 
Q 1356 3278 1631 3431 
Q 1906 3584 2284 3584 
Q 2666 3584 2933 3390 
Q 3200 3197 3328 2828 
z
" transform="scale(0.015625)"/>
       <path id="DejaVuSans-48" d="M 628 4666 
L 1259 4666 
L 1259 2753 
L 3553 2753 
L 3553 4666 
L 4184 4666 
L 4184 0 
L 3553 0 
L 3553 2222 
L 1259 2222 
L 1259 0 
L 628 0 
L 628 4666 
z
" transform="scale(0.015625)"/>
      </defs>
      <use xlink:href="#DejaVuSans-57"/>
      <use xlink:href="#DejaVuSans-69" x="96.626953"/>
      <use xlink:href="#DejaVuSans-6c" x="124.410156"/>
      <use xlink:href="#DejaVuSans-6c" x="152.193359"/>
      <use xlink:href="#DejaVuSans-69" x="179.976562"/>
      <use xlink:href="#DejaVuSans-61" x="207.759766"/>
      <use xlink:href="#DejaVuSans-6d" x="269.039062"/>
      <use xlink:href="#DejaVuSans-20" x="366.451172"/>
      <use xlink:href="#DejaVuSans-48" x="398.238281"/>
      <use xlink:href="#DejaVuSans-61" x="473.433594"/>
      <use xlink:href="#DejaVuSans-6e" x="534.712891"/>
      <use xlink:href="#DejaVuSans-6e" x="598.091797"/>
      <use xlink:href="#DejaVuSans-61" x="661.470703"/>
     </g>
    </g>
   </g>
   <g id="text_4">
    <g id="patch_5">
     <path d="M 301.909463 99.308125 
L 378.351807 99.308125 
L 378.351807 82.677812 
L 301.909463 82.677812 
z
" clip-path="url(#p66da317299)" style="fill: #ffffff; opacity: 0.7; stroke: #000000; stroke-linejoin: miter"/>
    </g>
    <g clip-path="url(#p66da317299)">
     <!-- Joseph Barbera -->
     <g transform="translate(305.869463 93.476406)scale(0.09 -0.09)">
      <defs>
       <path id="DejaVuSans-70" d="M 1159 525 
L 1159 -1331 
L 581 -1331 
L 581 3500 
L 1159 3500 
L 1159 2969 
Q 1341 3281 1617 3432 
Q 1894 3584 2278 3584 
Q 2916 3584 3314 3078 
Q 3713 2572 3713 1747 
Q 3713 922 3314 415 
Q 2916 -91 2278 -91 
Q 1894 -91 1617 61 
Q 1341 213 1159 525 
z
M 3116 1747 
Q 3116 2381 2855 2742 
Q 2594 3103 2138 3103 
Q 1681 3103 1420 2742 
Q 1159 2381 1159 1747 
Q 1159 1113 1420 752 
Q 1681 391 2138 391 
Q 2594 391 2855 752 
Q 3116 1113 3116 1747 
z
" transform="scale(0.015625)"/>
       <path id="DejaVuSans-42" d="M 1259 2228 
L 1259 519 
L 2272 519 
Q 2781 519 3026 730 
Q 3272 941 3272 1375 
Q 3272 1813 3026 2020 
Q 2781 2228 2272 2228 
L 1259 2228 
z
M 1259 4147 
L 1259 2741 
L 2194 2741 
Q 2656 2741 2882 2914 
Q 3109 3088 3109 3444 
Q 3109 3797 2882 3972 
Q 2656 4147 2194 4147 
L 1259 4147 
z
M 628 4666 
L 2241 4666 
Q 2963 4666 3353 4366 
Q 3744 4066 3744 3513 
Q 3744 3084 3544 2831 
Q 3344 2578 2956 2516 
Q 3422 2416 3680 2098 
Q 3938 1781 3938 1306 
Q 3938 681 3513 340 
Q 3088 0 2303 0 
L 628 0 
L 628 4666 
z
" transform="scale(0.015625)"/>
       <path id="DejaVuSans-62" d="M 3116 1747 
Q 3116 2381 2855 2742 
Q 2594 3103 2138 3103 
Q 1681 3103 1420 2742 
Q 1159 2381 1159 1747 
Q 1159 1113 1420 752 
Q 1681 391 2138 391 
Q 2594 391 2855 752 
Q 3116 1113 3116 1747 
z
M 1159 2969 
Q 1341 3281 1617 3432 
Q 1894 3584 2278 3584 
Q 2916 3584 3314 3078 
Q 3713 2572 3713 1747 
Q 3713 922 3314 415 
Q 2916 -91 2278 -91 
Q 1894 -91 1617 61 
Q 1341 213 1159 525 
L 1159 0 
L 581 0 
L 581 4863 
L 1159 4863 
L 1159 2969 
z
" transform="scale(0.015625)"/>
      </defs>
      <use xlink:href="#DejaVuSans-4a"/>
      <use xlink:href="#DejaVuSans-6f" x="29.492188"/>
      <use xlink:href="#DejaVuSans-73" x="90.673828"/>
      <use xlink:href="#DejaVuSans-65" x="142.773438"/>
      <use xlink:href="#DejaVuSans-70" x="204.296875"/>
      <use xlink:href="#DejaVuSans-68" x="267.773438"/>
      <use xlink:href="#DejaVuSans-20" x="331.152344"/>
      <use xlink:href="#DejaVuSans-42" x="362.939453"/>
      <use xlink:href="#DejaVuSans-61" x="431.542969"/>
      <use xlink:href="#DejaVuSans-72" x="492.822266"/>
      <use xlink:href="#DejaVuSans-62" x="533.935547"/>
      <use xlink:href="#DejaVuSans-65" x="597.412109"/>
      <use xlink:href="#DejaVuSans-72" x="658.935547"/>
      <use xlink:href="#DejaVuSans-61" x="700.048828"/>
     </g>
    </g>
   </g>
   <g id="text_5">
    <g id="patch_6">
     <path d="M 220.037915 90.143169 
L 289.710571 90.143169 
L 289.710571 73.512857 
L 220.037915 73.512857 
z
" clip-path="url(#p66da317299)" style="fill: #ffffff; opacity: 0.7; stroke: #000000; stroke-linejoin: miter"/>
    </g>
    <g clip-path="url(#p66da317299)">
     <!-- George Cukor -->
     <g transform="translate(223.997915 84.31145)scale(0.09 -0.09)">
      <defs>
       <path id="DejaVuSans-47" d="M 3809 666 
L 3809 1919 
L 2778 1919 
L 2778 2438 
L 4434 2438 
L 4434 434 
Q 4069 175 3628 42 
Q 3188 -91 2688 -91 
Q 1594 -91 976 548 
Q 359 1188 359 2328 
Q 359 3472 976 4111 
Q 1594 4750 2688 4750 
Q 3144 4750 3555 4637 
Q 3966 4525 4313 4306 
L 4313 3634 
Q 3963 3931 3569 4081 
Q 3175 4231 2741 4231 
Q 1884 4231 1454 3753 
Q 1025 3275 1025 2328 
Q 1025 1384 1454 906 
Q 1884 428 2741 428 
Q 3075 428 3337 486 
Q 3600 544 3809 666 
z
" transform="scale(0.015625)"/>
      </defs>
      <use xlink:href="#DejaVuSans-47"/>
      <use xlink:href="#DejaVuSans-65" x="77.490234"/>
      <use xlink:href="#DejaVuSans-6f" x="139.013672"/>
      <use xlink:href="#DejaVuSans-72" x="200.195312"/>
      <use xlink:href="#DejaVuSans-67" x="239.558594"/>
      <use xlink:href="#DejaVuSans-65" x="303.035156"/>
      <use xlink:href="#DejaVuSans-20" x="364.558594"/>
      <use xlink:href="#DejaVuSans-43" x="396.345703"/>
      <use xlink:href="#DejaVuSans-75" x="466.169922"/>
      <use xlink:href="#DejaVuSans-6b" x="529.548828"/>
      <use xlink:href="#DejaVuSans-6f" x="583.833984"/>
      <use xlink:href="#DejaVuSans-72" x="645.015625"/>
     </g>
    </g>
   </g>
   <g id="text_6">
    <g id="patch_7">
     <path d="M 135.035607 117.237493 
L 211.652325 117.237493 
L 211.652325 100.607181 
L 135.035607 100.607181 
z
" clip-path="url(#p66da317299)" style="fill: #ffffff; opacity: 0.7; stroke: #000000; stroke-linejoin: miter"/>
    </g>
    <g clip-path="url(#p66da317299)">
     <!-- Richard Thorpe -->
     <g transform="translate(138.995607 111.405774)scale(0.09 -0.09)">
      <defs>
       <path id="DejaVuSans-52" d="M 2841 2188 
Q 3044 2119 3236 1894 
Q 3428 1669 3622 1275 
L 4263 0 
L 3584 0 
L 2988 1197 
Q 2756 1666 2539 1819 
Q 2322 1972 1947 1972 
L 1259 1972 
L 1259 0 
L 628 0 
L 628 4666 
L 2053 4666 
Q 2853 4666 3247 4331 
Q 3641 3997 3641 3322 
Q 3641 2881 3436 2590 
Q 3231 2300 2841 2188 
z
M 1259 4147 
L 1259 2491 
L 2053 2491 
Q 2509 2491 2742 2702 
Q 2975 2913 2975 3322 
Q 2975 3731 2742 3939 
Q 2509 4147 2053 4147 
L 1259 4147 
z
" transform="scale(0.015625)"/>
       <path id="DejaVuSans-64" d="M 2906 2969 
L 2906 4863 
L 3481 4863 
L 3481 0 
L 2906 0 
L 2906 525 
Q 2725 213 2448 61 
Q 2172 -91 1784 -91 
Q 1150 -91 751 415 
Q 353 922 353 1747 
Q 353 2572 751 3078 
Q 1150 3584 1784 3584 
Q 2172 3584 2448 3432 
Q 2725 3281 2906 2969 
z
M 947 1747 
Q 947 1113 1208 752 
Q 1469 391 1925 391 
Q 2381 391 2643 752 
Q 2906 1113 2906 1747 
Q 2906 2381 2643 2742 
Q 2381 3103 1925 3103 
Q 1469 3103 1208 2742 
Q 947 2381 947 1747 
z
" transform="scale(0.015625)"/>
       <path id="DejaVuSans-54" d="M -19 4666 
L 3928 4666 
L 3928 4134 
L 2272 4134 
L 2272 0 
L 1638 0 
L 1638 4134 
L -19 4134 
L -19 4666 
z
" transform="scale(0.015625)"/>
      </defs>
      <use xlink:href="#DejaVuSans-52"/>
      <use xlink:href="#DejaVuSans-69" x="69.482422"/>
      <use xlink:href="#DejaVuSans-63" x="97.265625"/>
      <use xlink:href="#DejaVuSans-68" x="152.246094"/>
      <use xlink:href="#DejaVuSans-61" x="215.625"/>
      <use xlink:href="#DejaVuSans-72" x="276.904297"/>
      <use xlink:href="#DejaVuSans-64" x="316.267578"/>
      <use xlink:href="#DejaVuSans-20" x="379.744141"/>
      <use xlink:href="#DejaVuSans-54" x="411.53125"/>
      <use xlink:href="#DejaVuSans-68" x="472.615234"/>
      <use xlink:href="#DejaVuSans-6f" x="535.994141"/>
      <use xlink:href="#DejaVuSans-72" x="597.175781"/>
      <use xlink:href="#DejaVuSans-70" x="638.289062"/>
      <use xlink:href="#DejaVuSans-65" x="701.765625"/>
     </g>
    </g>
   </g>
   <g id="text_7">
    <g id="patch_8">
     <path d="M 74.028078 175.906227 
L 145.246203 175.906227 
L 145.246203 159.275915 
L 74.028078 159.275915 
z
" clip-path="url(#p66da317299)" style="fill: #ffffff; opacity: 0.7; stroke: #000000; stroke-linejoin: miter"/>
    </g>
    <g clip-path="url(#p66da317299)">
     <!-- Mervyn LeRoy -->
     <g transform="translate(77.988078 170.074508)scale(0.09 -0.09)">
      <defs>
       <path id="DejaVuSans-4d" d="M 628 4666 
L 1569 4666 
L 2759 1491 
L 3956 4666 
L 4897 4666 
L 4897 0 
L 4281 0 
L 4281 4097 
L 3078 897 
L 2444 897 
L 1241 4097 
L 1241 0 
L 628 0 
L 628 4666 
z
" transform="scale(0.015625)"/>
       <path id="DejaVuSans-76" d="M 191 3500 
L 800 3500 
L 1894 563 
L 2988 3500 
L 3597 3500 
L 2284 0 
L 1503 0 
L 191 3500 
z
" transform="scale(0.015625)"/>
       <path id="DejaVuSans-79" d="M 2059 -325 
Q 1816 -950 1584 -1140 
Q 1353 -1331 966 -1331 
L 506 -1331 
L 506 -850 
L 844 -850 
Q 1081 -850 1212 -737 
Q 1344 -625 1503 -206 
L 1606 56 
L 191 3500 
L 800 3500 
L 1894 763 
L 2988 3500 
L 3597 3500 
L 2059 -325 
z
" transform="scale(0.015625)"/>
       <path id="DejaVuSans-4c" d="M 628 4666 
L 1259 4666 
L 1259 531 
L 3531 531 
L 3531 0 
L 628 0 
L 628 4666 
z
" transform="scale(0.015625)"/>
      </defs>
      <use xlink:href="#DejaVuSans-4d"/>
      <use xlink:href="#DejaVuSans-65" x="86.279297"/>
      <use xlink:href="#DejaVuSans-72" x="147.802734"/>
      <use xlink:href="#DejaVuSans-76" x="188.916016"/>
      <use xlink:href="#DejaVuSans-79" x="248.095703"/>
      <use xlink:href="#DejaVuSans-6e" x="307.275391"/>
      <use xlink:href="#DejaVuSans-20" x="370.654297"/>
      <use xlink:href="#DejaVuSans-4c" x="402.441406"/>
      <use xlink:href="#DejaVuSans-65" x="456.404297"/>
      <use xlink:href="#DejaVuSans-52" x="517.927734"/>
      <use xlink:href="#DejaVuSans-6f" x="582.910156"/>
      <use xlink:href="#DejaVuSans-79" x="644.091797"/>
     </g>
    </g>
   </g>
   <g id="text_8">
    <g id="patch_9">
     <path d="M 35.494778 256.00504 
L 114.043684 256.00504 
L 114.043684 239.374727 
L 35.494778 239.374727 
z
" clip-path="url(#p66da317299)" style="fill: #ffffff; opacity: 0.7; stroke: #000000; stroke-linejoin: miter"/>
    </g>
    <g clip-path="url(#p66da317299)">
     <!-- Clarence Brown -->
     <g transform="translate(39.454778 250.173321)scale(0.09 -0.09)">
      <defs>
       <path id="DejaVuSans-77" d="M 269 3500 
L 844 3500 
L 1563 769 
L 2278 3500 
L 2956 3500 
L 3675 769 
L 4391 3500 
L 4966 3500 
L 4050 0 
L 3372 0 
L 2619 2869 
L 1863 0 
L 1184 0 
L 269 3500 
z
" transform="scale(0.015625)"/>
      </defs>
      <use xlink:href="#DejaVuSans-43"/>
      <use xlink:href="#DejaVuSans-6c" x="69.824219"/>
      <use xlink:href="#DejaVuSans-61" x="97.607422"/>
      <use xlink:href="#DejaVuSans-72" x="158.886719"/>
      <use xlink:href="#DejaVuSans-65" x="197.75"/>
      <use xlink:href="#DejaVuSans-6e" x="259.273438"/>
      <use xlink:href="#DejaVuSans-63" x="322.652344"/>
      <use xlink:href="#DejaVuSans-65" x="377.632812"/>
      <use xlink:href="#DejaVuSans-20" x="439.15625"/>
      <use xlink:href="#DejaVuSans-42" x="470.943359"/>
      <use xlink:href="#DejaVuSans-72" x="539.546875"/>
      <use xlink:href="#DejaVuSans-6f" x="578.410156"/>
      <use xlink:href="#DejaVuSans-77" x="639.591797"/>
      <use xlink:href="#DejaVuSans-6e" x="721.378906"/>
     </g>
    </g>
   </g>
   <g id="text_9">
    <g id="patch_10">
     <path d="M 43.852134 343.684093 
L 105.686352 343.684093 
L 105.686352 327.05378 
L 43.852134 327.05378 
z
" clip-path="url(#p66da317299)" style="fill: #ffffff; opacity: 0.7; stroke: #000000; stroke-linejoin: miter"/>
    </g>
    <g clip-path="url(#p66da317299)">
     <!-- Walter Lang -->
     <g transform="translate(47.812134 337.852374)scale(0.09 -0.09)">
      <defs>
       <path id="DejaVuSans-74" d="M 1172 4494 
L 1172 3500 
L 2356 3500 
L 2356 3053 
L 1172 3053 
L 1172 1153 
Q 1172 725 1289 603 
Q 1406 481 1766 481 
L 2356 481 
L 2356 0 
L 1766 0 
Q 1100 0 847 248 
Q 594 497 594 1153 
L 594 3053 
L 172 3053 
L 172 3500 
L 594 3500 
L 594 4494 
L 1172 4494 
z
" transform="scale(0.015625)"/>
      </defs>
      <use xlink:href="#DejaVuSans-57"/>
      <use xlink:href="#DejaVuSans-61" x="92.501953"/>
      <use xlink:href="#DejaVuSans-6c" x="153.78125"/>
      <use xlink:href="#DejaVuSans-74" x="181.564453"/>
      <use xlink:href="#DejaVuSans-65" x="220.773438"/>
      <use xlink:href="#DejaVuSans-72" x="282.296875"/>
      <use xlink:href="#DejaVuSans-20" x="323.410156"/>
      <use xlink:href="#DejaVuSans-4c" x="355.197266"/>
      <use xlink:href="#DejaVuSans-61" x="410.910156"/>
      <use xlink:href="#DejaVuSans-6e" x="472.189453"/>
      <use xlink:href="#DejaVuSans-67" x="535.568359"/>
     </g>
    </g>
   </g>
   <g id="text_10">
    <g id="patch_11">
     <path d="M 76.607856 423.78288 
L 142.66645 423.78288 
L 142.66645 407.152568 
L 76.607856 407.152568 
z
" clip-path="url(#p66da317299)" style="fill: #ffffff; opacity: 0.7; stroke: #000000; stroke-linejoin: miter"/>
    </g>
    <g clip-path="url(#p66da317299)">
     <!-- Frank Tashlin -->
     <g transform="translate(80.567856 417.951161)scale(0.09 -0.09)">
      <use xlink:href="#DejaVuSans-46"/>
      <use xlink:href="#DejaVuSans-72" x="50.269531"/>
      <use xlink:href="#DejaVuSans-61" x="91.382812"/>
      <use xlink:href="#DejaVuSans-6e" x="152.662109"/>
      <use xlink:href="#DejaVuSans-6b" x="216.041016"/>
      <use xlink:href="#DejaVuSans-20" x="273.951172"/>
      <use xlink:href="#DejaVuSans-54" x="305.738281"/>
      <use xlink:href="#DejaVuSans-61" x="350.322266"/>
      <use xlink:href="#DejaVuSans-73" x="411.601562"/>
      <use xlink:href="#DejaVuSans-68" x="463.701172"/>
      <use xlink:href="#DejaVuSans-6c" x="527.080078"/>
      <use xlink:href="#DejaVuSans-69" x="554.863281"/>
      <use xlink:href="#DejaVuSans-6e" x="582.646484"/>
     </g>
    </g>
   </g>
   <g id="text_11">
    <g id="patch_12">
     <path d="M 144.326731 482.451614 
L 202.361262 482.451614 
L 202.361262 465.821302 
L 144.326731 465.821302 
z
" clip-path="url(#p66da317299)" style="fill: #ffffff; opacity: 0.7; stroke: #000000; stroke-linejoin: miter"/>
    </g>
    <g clip-path="url(#p66da317299)">
     <!-- Jules White -->
     <g transform="translate(148.286731 476.619895)scale(0.09 -0.09)">
      <use xlink:href="#DejaVuSans-4a"/>
      <use xlink:href="#DejaVuSans-75" x="29.492188"/>
      <use xlink:href="#DejaVuSans-6c" x="92.871094"/>
      <use xlink:href="#DejaVuSans-65" x="120.654297"/>
      <use xlink:href="#DejaVuSans-73" x="182.177734"/>
      <use xlink:href="#DejaVuSans-20" x="234.277344"/>
      <use xlink:href="#DejaVuSans-57" x="266.064453"/>
      <use xlink:href="#DejaVuSans-68" x="364.941406"/>
      <use xlink:href="#DejaVuSans-69" x="428.320312"/>
      <use xlink:href="#DejaVuSans-74" x="456.103516"/>
      <use xlink:href="#DejaVuSans-65" x="495.3125"/>
     </g>
    </g>
   </g>
   <g id="text_12">
    <g id="patch_13">
     <path d="M 215.377639 509.545925 
L 294.37092 509.545925 
L 294.37092 492.915613 
L 215.377639 492.915613 
z
" clip-path="url(#p66da317299)" style="fill: #ffffff; opacity: 0.7; stroke: #000000; stroke-linejoin: miter"/>
    </g>
    <g clip-path="url(#p66da317299)">
     <!-- Lewis Milestone -->
     <g transform="translate(219.337639 503.714207)scale(0.09 -0.09)">
      <use xlink:href="#DejaVuSans-4c"/>
      <use xlink:href="#DejaVuSans-65" x="53.962891"/>
      <use xlink:href="#DejaVuSans-77" x="115.486328"/>
      <use xlink:href="#DejaVuSans-69" x="197.273438"/>
      <use xlink:href="#DejaVuSans-73" x="225.056641"/>
      <use xlink:href="#DejaVuSans-20" x="277.15625"/>
      <use xlink:href="#DejaVuSans-4d" x="308.943359"/>
      <use xlink:href="#DejaVuSans-69" x="395.222656"/>
      <use xlink:href="#DejaVuSans-6c" x="423.005859"/>
      <use xlink:href="#DejaVuSans-65" x="450.789062"/>
      <use xlink:href="#DejaVuSans-73" x="512.3125"/>
      <use xlink:href="#DejaVuSans-74" x="564.412109"/>
      <use xlink:href="#DejaVuSans-6f" x="603.621094"/>
      <use xlink:href="#DejaVuSans-6e" x="664.802734"/>
      <use xlink:href="#DejaVuSans-65" x="728.181641"/>
     </g>
    </g>
   </g>
   <g id="text_13">
    <g id="patch_14">
     <path d="M 299.135665 500.380957 
L 381.125665 500.380957 
L 381.125665 483.750645 
L 299.135665 483.750645 
z
" clip-path="url(#p66da317299)" style="fill: #ffffff; opacity: 0.7; stroke: #000000; stroke-linejoin: miter"/>
    </g>
    <g clip-path="url(#p66da317299)">
     <!-- Robert Clampett -->
     <g transform="translate(303.095665 494.549239)scale(0.09 -0.09)">
      <use xlink:href="#DejaVuSans-52"/>
      <use xlink:href="#DejaVuSans-6f" x="64.982422"/>
      <use xlink:href="#DejaVuSans-62" x="126.164062"/>
      <use xlink:href="#DejaVuSans-65" x="189.640625"/>
      <use xlink:href="#DejaVuSans-72" x="251.164062"/>
      <use xlink:href="#DejaVuSans-74" x="292.277344"/>
      <use xlink:href="#DejaVuSans-20" x="331.486328"/>
      <use xlink:href="#DejaVuSans-43" x="363.273438"/>
      <use xlink:href="#DejaVuSans-6c" x="433.097656"/>
      <use xlink:href="#DejaVuSans-61" x="460.880859"/>
      <use xlink:href="#DejaVuSans-6d" x="522.160156"/>
      <use xlink:href="#DejaVuSans-70" x="619.572266"/>
      <use xlink:href="#DejaVuSans-65" x="683.048828"/>
      <use xlink:href="#DejaVuSans-74" x="744.572266"/>
      <use xlink:href="#DejaVuSans-74" x="783.78125"/>
     </g>
    </g>
   </g>
   <g id="text_14">
    <g id="patch_15">
     <path d="M 385.553282 456.541412 
L 443.189845 456.541412 
L 443.189845 439.911099 
L 385.553282 439.911099 
z
" clip-path="url(#p66da317299)" style="fill: #ffffff; opacity: 0.7; stroke: #000000; stroke-linejoin: miter"/>
    </g>
    <g clip-path="url(#p66da317299)">
     <!-- Henry King -->
     <g transform="translate(389.513282 450.709693)scale(0.09 -0.09)">
      <defs>
       <path id="DejaVuSans-4b" d="M 628 4666 
L 1259 4666 
L 1259 2694 
L 3353 4666 
L 4166 4666 
L 1850 2491 
L 4331 0 
L 3500 0 
L 1259 2247 
L 1259 0 
L 628 0 
L 628 4666 
z
" transform="scale(0.015625)"/>
      </defs>
      <use xlink:href="#DejaVuSans-48"/>
      <use xlink:href="#DejaVuSans-65" x="75.195312"/>
      <use xlink:href="#DejaVuSans-6e" x="136.71875"/>
      <use xlink:href="#DejaVuSans-72" x="200.097656"/>
      <use xlink:href="#DejaVuSans-79" x="241.210938"/>
      <use xlink:href="#DejaVuSans-20" x="300.390625"/>
      <use xlink:href="#DejaVuSans-4b" x="332.177734"/>
      <use xlink:href="#DejaVuSans-69" x="397.753906"/>
      <use xlink:href="#DejaVuSans-6e" x="425.537109"/>
      <use xlink:href="#DejaVuSans-67" x="488.916016"/>
     </g>
    </g>
   </g>
   <g id="text_15">
    <g id="patch_16">
     <path d="M 422.306754 385.607568 
L 507.213316 385.607568 
L 507.213316 368.977255 
L 422.306754 368.977255 
z
" clip-path="url(#p66da317299)" style="fill: #ffffff; opacity: 0.7; stroke: #000000; stroke-linejoin: miter"/>
    </g>
    <g clip-path="url(#p66da317299)">
     <!-- Vincente Minnelli -->
     <g transform="translate(426.266754 379.775849)scale(0.09 -0.09)">
      <defs>
       <path id="DejaVuSans-56" d="M 1831 0 
L 50 4666 
L 709 4666 
L 2188 738 
L 3669 4666 
L 4325 4666 
L 2547 0 
L 1831 0 
z
" transform="scale(0.015625)"/>
      </defs>
      <use xlink:href="#DejaVuSans-56"/>
      <use xlink:href="#DejaVuSans-69" x="66.158203"/>
      <use xlink:href="#DejaVuSans-6e" x="93.941406"/>
      <use xlink:href="#DejaVuSans-63" x="157.320312"/>
      <use xlink:href="#DejaVuSans-65" x="212.300781"/>
      <use xlink:href="#DejaVuSans-6e" x="273.824219"/>
      <use xlink:href="#DejaVuSans-74" x="337.203125"/>
      <use xlink:href="#DejaVuSans-65" x="376.412109"/>
      <use xlink:href="#DejaVuSans-20" x="437.935547"/>
      <use xlink:href="#DejaVuSans-4d" x="469.722656"/>
      <use xlink:href="#DejaVuSans-69" x="556.001953"/>
      <use xlink:href="#DejaVuSans-6e" x="583.785156"/>
      <use xlink:href="#DejaVuSans-6e" x="647.164062"/>
      <use xlink:href="#DejaVuSans-65" x="710.542969"/>
      <use xlink:href="#DejaVuSans-6c" x="772.066406"/>
      <use xlink:href="#DejaVuSans-6c" x="799.849609"/>
      <use xlink:href="#DejaVuSans-69" x="827.632812"/>
     </g>
    </g>
   </g>
   <g id="text_16">
    <!-- Impactful directors for Short Film genre - Importance rank: 5 -->
    <g transform="translate(106.410938 4.8)scale(0.12 -0.12)">
     <defs>
      <path id="DejaVuSans-49" d="M 628 4666 
L 1259 4666 
L 1259 0 
L 628 0 
L 628 4666 
z
" transform="scale(0.015625)"/>
      <path id="DejaVuSans-66" d="M 2375 4863 
L 2375 4384 
L 1825 4384 
Q 1516 4384 1395 4259 
Q 1275 4134 1275 3809 
L 1275 3500 
L 2222 3500 
L 2222 3053 
L 1275 3053 
L 1275 0 
L 697 0 
L 697 3053 
L 147 3053 
L 147 3500 
L 697 3500 
L 697 3744 
Q 697 4328 969 4595 
Q 1241 4863 1831 4863 
L 2375 4863 
z
" transform="scale(0.015625)"/>
      <path id="DejaVuSans-53" d="M 3425 4513 
L 3425 3897 
Q 3066 4069 2747 4153 
Q 2428 4238 2131 4238 
Q 1616 4238 1336 4038 
Q 1056 3838 1056 3469 
Q 1056 3159 1242 3001 
Q 1428 2844 1947 2747 
L 2328 2669 
Q 3034 2534 3370 2195 
Q 3706 1856 3706 1288 
Q 3706 609 3251 259 
Q 2797 -91 1919 -91 
Q 1588 -91 1214 -16 
Q 841 59 441 206 
L 441 856 
Q 825 641 1194 531 
Q 1563 422 1919 422 
Q 2459 422 2753 634 
Q 3047 847 3047 1241 
Q 3047 1584 2836 1778 
Q 2625 1972 2144 2069 
L 1759 2144 
Q 1053 2284 737 2584 
Q 422 2884 422 3419 
Q 422 4038 858 4394 
Q 1294 4750 2059 4750 
Q 2388 4750 2728 4690 
Q 3069 4631 3425 4513 
z
" transform="scale(0.015625)"/>
      <path id="DejaVuSans-2d" d="M 313 2009 
L 1997 2009 
L 1997 1497 
L 313 1497 
L 313 2009 
z
" transform="scale(0.015625)"/>
      <path id="DejaVuSans-3a" d="M 750 794 
L 1409 794 
L 1409 0 
L 750 0 
L 750 794 
z
M 750 3309 
L 1409 3309 
L 1409 2516 
L 750 2516 
L 750 3309 
z
" transform="scale(0.015625)"/>
      <path id="DejaVuSans-35" d="M 691 4666 
L 3169 4666 
L 3169 4134 
L 1269 4134 
L 1269 2991 
Q 1406 3038 1543 3061 
Q 1681 3084 1819 3084 
Q 2600 3084 3056 2656 
Q 3513 2228 3513 1497 
Q 3513 744 3044 326 
Q 2575 -91 1722 -91 
Q 1428 -91 1123 -41 
Q 819 9 494 109 
L 494 744 
Q 775 591 1075 516 
Q 1375 441 1709 441 
Q 2250 441 2565 725 
Q 2881 1009 2881 1497 
Q 2881 1984 2565 2268 
Q 2250 2553 1709 2553 
Q 1456 2553 1204 2497 
Q 953 2441 691 2322 
L 691 4666 
z
" transform="scale(0.015625)"/>
     </defs>
     <use xlink:href="#DejaVuSans-49"/>
     <use xlink:href="#DejaVuSans-6d" x="29.492188"/>
     <use xlink:href="#DejaVuSans-70" x="126.904297"/>
     <use xlink:href="#DejaVuSans-61" x="190.380859"/>
     <use xlink:href="#DejaVuSans-63" x="251.660156"/>
     <use xlink:href="#DejaVuSans-74" x="306.640625"/>
     <use xlink:href="#DejaVuSans-66" x="345.849609"/>
     <use xlink:href="#DejaVuSans-75" x="381.054688"/>
     <use xlink:href="#DejaVuSans-6c" x="444.433594"/>
     <use xlink:href="#DejaVuSans-20" x="472.216797"/>
     <use xlink:href="#DejaVuSans-64" x="504.003906"/>
     <use xlink:href="#DejaVuSans-69" x="567.480469"/>
     <use xlink:href="#DejaVuSans-72" x="595.263672"/>
     <use xlink:href="#DejaVuSans-65" x="634.126953"/>
     <use xlink:href="#DejaVuSans-63" x="695.650391"/>
     <use xlink:href="#DejaVuSans-74" x="750.630859"/>
     <use xlink:href="#DejaVuSans-6f" x="789.839844"/>
     <use xlink:href="#DejaVuSans-72" x="851.021484"/>
     <use xlink:href="#DejaVuSans-73" x="892.134766"/>
     <use xlink:href="#DejaVuSans-20" x="944.234375"/>
     <use xlink:href="#DejaVuSans-66" x="976.021484"/>
     <use xlink:href="#DejaVuSans-6f" x="1011.226562"/>
     <use xlink:href="#DejaVuSans-72" x="1072.408203"/>
     <use xlink:href="#DejaVuSans-20" x="1113.521484"/>
     <use xlink:href="#DejaVuSans-53" x="1145.308594"/>
     <use xlink:href="#DejaVuSans-68" x="1208.785156"/>
     <use xlink:href="#DejaVuSans-6f" x="1272.164062"/>
     <use xlink:href="#DejaVuSans-72" x="1333.345703"/>
     <use xlink:href="#DejaVuSans-74" x="1374.458984"/>
     <use xlink:href="#DejaVuSans-20" x="1413.667969"/>
     <use xlink:href="#DejaVuSans-46" x="1445.455078"/>
     <use xlink:href="#DejaVuSans-69" x="1495.724609"/>
     <use xlink:href="#DejaVuSans-6c" x="1523.507812"/>
     <use xlink:href="#DejaVuSans-6d" x="1551.291016"/>
     <use xlink:href="#DejaVuSans-20" x="1648.703125"/>
     <use xlink:href="#DejaVuSans-67" x="1680.490234"/>
     <use xlink:href="#DejaVuSans-65" x="1743.966797"/>
     <use xlink:href="#DejaVuSans-6e" x="1805.490234"/>
     <use xlink:href="#DejaVuSans-72" x="1868.869141"/>
     <use xlink:href="#DejaVuSans-65" x="1907.732422"/>
     <use xlink:href="#DejaVuSans-20" x="1969.255859"/>
     <use xlink:href="#DejaVuSans-2d" x="2001.042969"/>
     <use xlink:href="#DejaVuSans-20" x="2037.126953"/>
     <use xlink:href="#DejaVuSans-49" x="2068.914062"/>
     <use xlink:href="#DejaVuSans-6d" x="2098.40625"/>
     <use xlink:href="#DejaVuSans-70" x="2195.818359"/>
     <use xlink:href="#DejaVuSans-6f" x="2259.294922"/>
     <use xlink:href="#DejaVuSans-72" x="2320.476562"/>
     <use xlink:href="#DejaVuSans-74" x="2361.589844"/>
     <use xlink:href="#DejaVuSans-61" x="2400.798828"/>
     <use xlink:href="#DejaVuSans-6e" x="2462.078125"/>
     <use xlink:href="#DejaVuSans-63" x="2525.457031"/>
     <use xlink:href="#DejaVuSans-65" x="2580.4375"/>
     <use xlink:href="#DejaVuSans-20" x="2641.960938"/>
     <use xlink:href="#DejaVuSans-72" x="2673.748047"/>
     <use xlink:href="#DejaVuSans-61" x="2714.861328"/>
     <use xlink:href="#DejaVuSans-6e" x="2776.140625"/>
     <use xlink:href="#DejaVuSans-6b" x="2839.519531"/>
     <use xlink:href="#DejaVuSans-3a" x="2897.429688"/>
     <use xlink:href="#DejaVuSans-20" x="2931.121094"/>
     <use xlink:href="#DejaVuSans-35" x="2962.908203"/>
    </g>
   </g>
  </g>
 </g>
 <defs>
  <clipPath id="p66da317299">
   <rect x="10.8" y="10.8" width="554.4" height="554.4"/>
  </clipPath>
 </defs>
</svg>
