<?xml version="1.0" encoding="utf-8" standalone="no"?>
<!DOCTYPE svg PUBLIC "-//W3C//DTD SVG 1.1//EN"
  "http://www.w3.org/Graphics/SVG/1.1/DTD/svg11.dtd">
<svg xmlns:xlink="http://www.w3.org/1999/xlink" width="568.8pt" height="583.918125pt" viewBox="0 0 568.8 583.918125" xmlns="http://www.w3.org/2000/svg" version="1.1">
 <metadata>
  <rdf:RDF xmlns:dc="http://purl.org/dc/elements/1.1/" xmlns:cc="http://creativecommons.org/ns#" xmlns:rdf="http://www.w3.org/1999/02/22-rdf-syntax-ns#">
   <cc:Work>
    <dc:type rdf:resource="http://purl.org/dc/dcmitype/StillImage"/>
    <dc:date>2022-12-23T20:56:50.244155</dc:date>
    <dc:format>image/svg+xml</dc:format>
    <dc:creator>
     <cc:Agent>
      <dc:title>Matplotlib v3.5.3, https://matplotlib.org/</dc:title>
     </cc:Agent>
    </dc:creator>
   </cc:Work>
  </rdf:RDF>
 </metadata>
 <defs>
  <style type="text/css">*{stroke-linejoin: round; stroke-linecap: butt}</style>
 </defs>
 <g id="figure_1">
  <g id="patch_1">
   <path d="M 0 583.918125 
L 568.8 583.918125 
L 568.8 0 
L 0 0 
z
" style="fill: #ffffff"/>
  </g>
  <g id="axes_1">
   <g id="LineCollection_1">
    <path d="M 478.246154 304.718875 
L 461.302134 219.639372 
" clip-path="url(#p458f88d48b)" style="fill: none; stroke: #000000; stroke-opacity: 0.3; stroke-width: 5"/>
    <path d="M 342.822083 105.780766 
L 261.772317 96.688857 
" clip-path="url(#p458f88d48b)" style="fill: none; stroke: #000000; stroke-opacity: 0.3; stroke-width: 10"/>
    <path d="M 123.701343 181.768367 
L 90.553846 261.228777 
" clip-path="url(#p458f88d48b)" style="fill: none; stroke: #000000; stroke-opacity: 0.3; stroke-width: 5.506468"/>
   </g>
   <g id="PathCollection_1">
    <path d="M 478.246154 332.105003 
C 485.50904 332.105003 492.475435 329.219428 497.611071 324.083792 
C 502.746707 318.948156 505.632282 311.981761 505.632282 304.718875 
C 505.632282 297.455989 502.746707 290.489595 497.611071 285.353959 
C 492.475435 280.218323 485.50904 277.332748 478.246154 277.332748 
C 470.983268 277.332748 464.016873 280.218323 458.881237 285.353959 
C 453.745601 290.489595 450.860026 297.455989 450.860026 304.718875 
C 450.860026 311.981761 453.745601 318.948156 458.881237 324.083792 
C 464.016873 329.219428 470.983268 332.105003 478.246154 332.105003 
z
" clip-path="url(#p458f88d48b)" style="fill: #c70039; fill-opacity: 0.99; stroke: #c70039; stroke-opacity: 0.99"/>
    <path d="M 461.302134 246.042125 
C 468.304226 246.042125 475.020473 243.260164 479.9717 238.308937 
C 484.922927 233.357711 487.704888 226.641463 487.704888 219.639372 
C 487.704888 212.63728 484.922927 205.921032 479.9717 200.969806 
C 475.020473 196.018579 468.304226 193.236618 461.302134 193.236618 
C 454.300042 193.236618 447.583795 196.018579 442.632569 200.969806 
C 437.681342 205.921032 434.899381 212.63728 434.899381 219.639372 
C 434.899381 226.641463 437.681342 233.357711 442.632569 238.308937 
C 447.583795 243.260164 454.300042 246.042125 461.302134 246.042125 
z
" clip-path="url(#p458f88d48b)" style="fill: #c70039; fill-opacity: 0.99; stroke: #c70039; stroke-opacity: 0.99"/>
    <path d="M 413.399864 175.353885 
C 420.317158 175.353885 426.952069 172.605614 431.843335 167.714349 
C 436.734601 162.823083 439.482871 156.188171 439.482871 149.270877 
C 439.482871 142.353583 436.734601 135.718671 431.843335 130.827406 
C 426.952069 125.93614 420.317158 123.18787 413.399864 123.18787 
C 406.482569 123.18787 399.847658 125.93614 394.956392 130.827406 
C 390.065126 135.718671 387.316856 142.353583 387.316856 149.270877 
C 387.316856 156.188171 390.065126 162.823083 394.956392 167.714349 
C 399.847658 172.605614 406.482569 175.353885 413.399864 175.353885 
z
" clip-path="url(#p458f88d48b)" style="fill: #c70039; fill-opacity: 0.99; stroke: #c70039; stroke-opacity: 0.99"/>
    <path d="M 342.822083 127.574082 
C 348.601738 127.574082 354.145451 125.2778 358.232284 121.190967 
C 362.319117 117.104134 364.615399 111.560421 364.615399 105.780766 
C 364.615399 100.001111 362.319117 94.457398 358.232284 90.370565 
C 354.145451 86.283731 348.601738 83.98745 342.822083 83.98745 
C 337.042428 83.98745 331.498715 86.283731 327.411882 90.370565 
C 323.325048 94.457398 321.028767 100.001111 321.028767 105.780766 
C 321.028767 111.560421 323.325048 117.104134 327.411882 121.190967 
C 331.498715 125.2778 337.042428 127.574082 342.822083 127.574082 
z
" clip-path="url(#p458f88d48b)" style="fill: #c70039; fill-opacity: 0.99; stroke: #c70039; stroke-opacity: 0.99"/>
    <path d="M 261.772317 118.482173 
C 267.551972 118.482173 273.095685 116.185891 277.182518 112.099058 
C 281.269351 108.012225 283.565633 102.468512 283.565633 96.688857 
C 283.565633 90.909202 281.269351 85.365488 277.182518 81.278655 
C 273.095685 77.191822 267.551972 74.895541 261.772317 74.895541 
C 255.992662 74.895541 250.448949 77.191822 246.362116 81.278655 
C 242.275282 85.365488 239.979001 90.909202 239.979001 96.688857 
C 239.979001 102.468512 242.275282 108.012225 246.362116 112.099058 
C 250.448949 116.185891 255.992662 118.482173 261.772317 118.482173 
z
" clip-path="url(#p458f88d48b)" style="fill: #c70039; fill-opacity: 0.99; stroke: #c70039; stroke-opacity: 0.99"/>
    <path d="M 184.264816 144.828053 
C 189.903252 144.828053 195.31151 142.587879 199.298486 138.600903 
C 203.285462 134.613928 205.525636 129.205669 205.525636 123.567234 
C 205.525636 117.928799 203.285462 112.52054 199.298486 108.533564 
C 195.31151 104.546588 189.903252 102.306414 184.264816 102.306414 
C 178.626381 102.306414 173.218123 104.546588 169.231147 108.533564 
C 165.244171 112.52054 163.003997 117.928799 163.003997 123.567234 
C 163.003997 129.205669 165.244171 134.613928 169.231147 138.600903 
C 173.218123 142.587879 178.626381 144.828053 184.264816 144.828053 
z
" clip-path="url(#p458f88d48b)" style="fill: #c70039; fill-opacity: 0.99; stroke: #c70039; stroke-opacity: 0.99"/>
    <path d="M 123.701343 202.898331 
C 129.305075 202.898331 134.680047 200.671945 138.642484 196.709508 
C 142.60492 192.747071 144.831307 187.372099 144.831307 181.768367 
C 144.831307 176.164635 142.60492 170.789663 138.642484 166.827226 
C 134.680047 162.864789 129.305075 160.638403 123.701343 160.638403 
C 118.097611 160.638403 112.722639 162.864789 108.760202 166.827226 
C 104.797765 170.789663 102.571379 176.164635 102.571379 181.768367 
C 102.571379 187.372099 104.797765 192.747071 108.760202 196.709508 
C 112.722639 200.671945 118.097611 202.898331 123.701343 202.898331 
z
" clip-path="url(#p458f88d48b)" style="fill: #c70039; fill-opacity: 0.99; stroke: #c70039; stroke-opacity: 0.99"/>
    <path d="M 90.553846 282.021595 
C 96.068166 282.021595 101.357376 279.830732 105.256589 275.931519 
C 109.155801 272.032306 111.346664 266.743097 111.346664 261.228777 
C 111.346664 255.714457 109.155801 250.425247 105.256589 246.526034 
C 101.357376 242.626822 96.068166 240.435959 90.553846 240.435959 
C 85.039526 240.435959 79.750317 242.626822 75.851104 246.526034 
C 71.951891 250.425247 69.761028 255.714457 69.761028 261.228777 
C 69.761028 266.743097 71.951891 272.032306 75.851104 275.931519 
C 79.750317 279.830732 85.039526 282.021595 90.553846 282.021595 
z
" clip-path="url(#p458f88d48b)" style="fill: #c70039; fill-opacity: 0.99; stroke: #c70039; stroke-opacity: 0.99"/>
    <path d="M 90.553858 368.753789 
C 96.002396 368.753789 101.22851 366.589061 105.081209 362.736363 
C 108.933908 358.883664 111.098635 353.65755 111.098635 348.209012 
C 111.098635 342.760473 108.933908 337.534359 105.081209 333.68166 
C 101.22851 329.828962 96.002396 327.664234 90.553858 327.664234 
C 85.105319 327.664234 79.879205 329.828962 76.026507 333.68166 
C 72.173808 337.534359 70.009081 342.760473 70.009081 348.209012 
C 70.009081 353.65755 72.173808 358.883664 76.026507 362.736363 
C 79.879205 366.589061 85.105319 368.753789 90.553858 368.753789 
z
" clip-path="url(#p458f88d48b)" style="fill: #c70039; fill-opacity: 0.99; stroke: #c70039; stroke-opacity: 0.99"/>
    <path d="M 123.701354 448.02635 
C 129.100082 448.02635 134.278418 445.881413 138.095894 442.063936 
C 141.913371 438.24646 144.058308 433.068124 144.058308 427.669396 
C 144.058308 422.270669 141.913371 417.092333 138.095894 413.274857 
C 134.278418 409.45738 129.100082 407.312443 123.701354 407.312443 
C 118.302627 407.312443 113.124291 409.45738 109.306815 413.274857 
C 105.489338 417.092333 103.344401 422.270669 103.344401 427.669396 
C 103.344401 433.068124 105.489338 438.24646 109.306815 442.063936 
C 113.124291 445.881413 118.302627 448.02635 123.701354 448.02635 
z
" clip-path="url(#p458f88d48b)" style="fill: #c70039; fill-opacity: 0.99; stroke: #c70039; stroke-opacity: 0.99"/>
    <path d="M 184.264846 505.937895 
C 189.586773 505.937895 194.691445 503.823471 198.454616 500.0603 
C 202.217787 496.297129 204.332211 491.192457 204.332211 485.87053 
C 204.332211 480.548602 202.217787 475.443931 198.454616 471.68076 
C 194.691445 467.917589 189.586773 465.803164 184.264846 465.803164 
C 178.942918 465.803164 173.838247 467.917589 170.075076 471.68076 
C 166.311905 475.443931 164.19748 480.548602 164.19748 485.87053 
C 164.19748 491.192457 166.311905 496.297129 170.075076 500.0603 
C 173.838247 503.823471 178.942918 505.937895 184.264846 505.937895 
z
" clip-path="url(#p458f88d48b)" style="fill: #c70039; fill-opacity: 0.99; stroke: #c70039; stroke-opacity: 0.99"/>
    <path d="M 261.772352 532.538635 
C 267.020653 532.538635 272.054703 530.453463 275.765812 526.742354 
C 279.476921 523.031245 281.562093 517.997195 281.562093 512.748894 
C 281.562093 507.500594 279.476921 502.466543 275.765812 498.755434 
C 272.054703 495.044325 267.020653 492.959154 261.772352 492.959154 
C 256.524051 492.959154 251.490001 495.044325 247.778892 498.755434 
C 244.067783 502.466543 241.982611 507.500594 241.982611 512.748894 
C 241.982611 517.997195 244.067783 523.031245 247.778892 526.742354 
C 251.490001 530.453463 256.524051 532.538635 261.772352 532.538635 
z
" clip-path="url(#p458f88d48b)" style="fill: #c70039; fill-opacity: 0.99; stroke: #c70039; stroke-opacity: 0.99"/>
    <path d="M 342.822112 523.339859 
C 348.042075 523.339859 353.048944 521.265946 356.740015 517.574875 
C 360.431086 513.883804 362.504999 508.876935 362.504999 503.656973 
C 362.504999 498.43701 360.431086 493.430141 356.740015 489.73907 
C 353.048944 486.047999 348.042075 483.974086 342.822112 483.974086 
C 337.60215 483.974086 332.59528 486.047999 328.90421 489.73907 
C 325.213139 493.430141 323.139226 498.43701 323.139226 503.656973 
C 323.139226 508.876935 325.213139 513.883804 328.90421 517.574875 
C 332.59528 521.265946 337.60215 523.339859 342.822112 523.339859 
z
" clip-path="url(#p458f88d48b)" style="fill: #c70039; fill-opacity: 0.99; stroke: #c70039; stroke-opacity: 0.99"/>
    <path d="M 413.399899 479.670966 
C 418.572454 479.670966 423.533852 477.615888 427.191401 473.958339 
C 430.84895 470.30079 432.904028 465.339392 432.904028 460.166836 
C 432.904028 454.994281 430.84895 450.032883 427.191401 446.375334 
C 423.533852 442.717785 418.572454 440.662707 413.399899 440.662707 
C 408.227343 440.662707 403.265945 442.717785 399.608396 446.375334 
C 395.950847 450.032883 393.895769 454.994281 393.895769 460.166836 
C 393.895769 465.339392 395.950847 470.30079 399.608396 473.958339 
C 403.265945 477.615888 408.227343 479.670966 413.399899 479.670966 
z
" clip-path="url(#p458f88d48b)" style="fill: #c70039; fill-opacity: 0.99; stroke: #c70039; stroke-opacity: 0.99"/>
    <path d="M 461.302158 409.163265 
C 466.437794 409.163265 471.363779 407.122855 474.995222 403.491412 
C 478.626665 399.859969 480.667074 394.933984 480.667074 389.798348 
C 480.667074 384.662712 478.626665 379.736727 474.995222 376.105284 
C 471.363779 372.473841 466.437794 370.433432 461.302158 370.433432 
C 456.166522 370.433432 451.240537 372.473841 447.609094 376.105284 
C 443.977651 379.736727 441.937241 384.662712 441.937241 389.798348 
C 441.937241 394.933984 443.977651 399.859969 447.609094 403.491412 
C 451.240537 407.122855 456.166522 409.163265 461.302158 409.163265 
z
" clip-path="url(#p458f88d48b)" style="fill: #c70039; fill-opacity: 0.99; stroke: #c70039; stroke-opacity: 0.99"/>
   </g>
   <g id="text_1">
    <g id="patch_2">
     <path d="M 446.883966 313.034032 
L 509.608341 313.034032 
L 509.608341 296.403719 
L 446.883966 296.403719 
z
" clip-path="url(#p458f88d48b)" style="fill: #ffffff; opacity: 0.7; stroke: #000000; stroke-linejoin: miter"/>
    </g>
    <g clip-path="url(#p458f88d48b)">
     <!-- Chuck Jones -->
     <g transform="translate(450.843966 307.202313)scale(0.09 -0.09)">
      <defs>
       <path id="DejaVuSans-43" d="M 4122 4306 
L 4122 3641 
Q 3803 3938 3442 4084 
Q 3081 4231 2675 4231 
Q 1875 4231 1450 3742 
Q 1025 3253 1025 2328 
Q 1025 1406 1450 917 
Q 1875 428 2675 428 
Q 3081 428 3442 575 
Q 3803 722 4122 1019 
L 4122 359 
Q 3791 134 3420 21 
Q 3050 -91 2638 -91 
Q 1578 -91 968 557 
Q 359 1206 359 2328 
Q 359 3453 968 4101 
Q 1578 4750 2638 4750 
Q 3056 4750 3426 4639 
Q 3797 4528 4122 4306 
z
" transform="scale(0.015625)"/>
       <path id="DejaVuSans-68" d="M 3513 2113 
L 3513 0 
L 2938 0 
L 2938 2094 
Q 2938 2591 2744 2837 
Q 2550 3084 2163 3084 
Q 1697 3084 1428 2787 
Q 1159 2491 1159 1978 
L 1159 0 
L 581 0 
L 581 4863 
L 1159 4863 
L 1159 2956 
Q 1366 3272 1645 3428 
Q 1925 3584 2291 3584 
Q 2894 3584 3203 3211 
Q 3513 2838 3513 2113 
z
" transform="scale(0.015625)"/>
       <path id="DejaVuSans-75" d="M 544 1381 
L 544 3500 
L 1119 3500 
L 1119 1403 
Q 1119 906 1312 657 
Q 1506 409 1894 409 
Q 2359 409 2629 706 
Q 2900 1003 2900 1516 
L 2900 3500 
L 3475 3500 
L 3475 0 
L 2900 0 
L 2900 538 
Q 2691 219 2414 64 
Q 2138 -91 1772 -91 
Q 1169 -91 856 284 
Q 544 659 544 1381 
z
M 1991 3584 
L 1991 3584 
z
" transform="scale(0.015625)"/>
       <path id="DejaVuSans-63" d="M 3122 3366 
L 3122 2828 
Q 2878 2963 2633 3030 
Q 2388 3097 2138 3097 
Q 1578 3097 1268 2742 
Q 959 2388 959 1747 
Q 959 1106 1268 751 
Q 1578 397 2138 397 
Q 2388 397 2633 464 
Q 2878 531 3122 666 
L 3122 134 
Q 2881 22 2623 -34 
Q 2366 -91 2075 -91 
Q 1284 -91 818 406 
Q 353 903 353 1747 
Q 353 2603 823 3093 
Q 1294 3584 2113 3584 
Q 2378 3584 2631 3529 
Q 2884 3475 3122 3366 
z
" transform="scale(0.015625)"/>
       <path id="DejaVuSans-6b" d="M 581 4863 
L 1159 4863 
L 1159 1991 
L 2875 3500 
L 3609 3500 
L 1753 1863 
L 3688 0 
L 2938 0 
L 1159 1709 
L 1159 0 
L 581 0 
L 581 4863 
z
" transform="scale(0.015625)"/>
       <path id="DejaVuSans-20" transform="scale(0.015625)"/>
       <path id="DejaVuSans-4a" d="M 628 4666 
L 1259 4666 
L 1259 325 
Q 1259 -519 939 -900 
Q 619 -1281 -91 -1281 
L -331 -1281 
L -331 -750 
L -134 -750 
Q 284 -750 456 -515 
Q 628 -281 628 325 
L 628 4666 
z
" transform="scale(0.015625)"/>
       <path id="DejaVuSans-6f" d="M 1959 3097 
Q 1497 3097 1228 2736 
Q 959 2375 959 1747 
Q 959 1119 1226 758 
Q 1494 397 1959 397 
Q 2419 397 2687 759 
Q 2956 1122 2956 1747 
Q 2956 2369 2687 2733 
Q 2419 3097 1959 3097 
z
M 1959 3584 
Q 2709 3584 3137 3096 
Q 3566 2609 3566 1747 
Q 3566 888 3137 398 
Q 2709 -91 1959 -91 
Q 1206 -91 779 398 
Q 353 888 353 1747 
Q 353 2609 779 3096 
Q 1206 3584 1959 3584 
z
" transform="scale(0.015625)"/>
       <path id="DejaVuSans-6e" d="M 3513 2113 
L 3513 0 
L 2938 0 
L 2938 2094 
Q 2938 2591 2744 2837 
Q 2550 3084 2163 3084 
Q 1697 3084 1428 2787 
Q 1159 2491 1159 1978 
L 1159 0 
L 581 0 
L 581 3500 
L 1159 3500 
L 1159 2956 
Q 1366 3272 1645 3428 
Q 1925 3584 2291 3584 
Q 2894 3584 3203 3211 
Q 3513 2838 3513 2113 
z
" transform="scale(0.015625)"/>
       <path id="DejaVuSans-65" d="M 3597 1894 
L 3597 1613 
L 953 1613 
Q 991 1019 1311 708 
Q 1631 397 2203 397 
Q 2534 397 2845 478 
Q 3156 559 3463 722 
L 3463 178 
Q 3153 47 2828 -22 
Q 2503 -91 2169 -91 
Q 1331 -91 842 396 
Q 353 884 353 1716 
Q 353 2575 817 3079 
Q 1281 3584 2069 3584 
Q 2775 3584 3186 3129 
Q 3597 2675 3597 1894 
z
M 3022 2063 
Q 3016 2534 2758 2815 
Q 2500 3097 2075 3097 
Q 1594 3097 1305 2825 
Q 1016 2553 972 2059 
L 3022 2063 
z
" transform="scale(0.015625)"/>
       <path id="DejaVuSans-73" d="M 2834 3397 
L 2834 2853 
Q 2591 2978 2328 3040 
Q 2066 3103 1784 3103 
Q 1356 3103 1142 2972 
Q 928 2841 928 2578 
Q 928 2378 1081 2264 
Q 1234 2150 1697 2047 
L 1894 2003 
Q 2506 1872 2764 1633 
Q 3022 1394 3022 966 
Q 3022 478 2636 193 
Q 2250 -91 1575 -91 
Q 1294 -91 989 -36 
Q 684 19 347 128 
L 347 722 
Q 666 556 975 473 
Q 1284 391 1588 391 
Q 1994 391 2212 530 
Q 2431 669 2431 922 
Q 2431 1156 2273 1281 
Q 2116 1406 1581 1522 
L 1381 1569 
Q 847 1681 609 1914 
Q 372 2147 372 2553 
Q 372 3047 722 3315 
Q 1072 3584 1716 3584 
Q 2034 3584 2315 3537 
Q 2597 3491 2834 3397 
z
" transform="scale(0.015625)"/>
      </defs>
      <use xlink:href="#DejaVuSans-43"/>
      <use xlink:href="#DejaVuSans-68" x="69.824219"/>
      <use xlink:href="#DejaVuSans-75" x="133.203125"/>
      <use xlink:href="#DejaVuSans-63" x="196.582031"/>
      <use xlink:href="#DejaVuSans-6b" x="251.5625"/>
      <use xlink:href="#DejaVuSans-20" x="309.472656"/>
      <use xlink:href="#DejaVuSans-4a" x="341.259766"/>
      <use xlink:href="#DejaVuSans-6f" x="370.751953"/>
      <use xlink:href="#DejaVuSans-6e" x="431.933594"/>
      <use xlink:href="#DejaVuSans-65" x="495.3125"/>
      <use xlink:href="#DejaVuSans-73" x="556.835938"/>
     </g>
    </g>
   </g>
   <g id="text_2">
    <g id="patch_3">
     <path d="M 431.680884 227.954528 
L 490.923384 227.954528 
L 490.923384 211.324215 
L 431.680884 211.324215 
z
" clip-path="url(#p458f88d48b)" style="fill: #ffffff; opacity: 0.7; stroke: #000000; stroke-linejoin: miter"/>
    </g>
    <g clip-path="url(#p458f88d48b)">
     <!-- Friz Freleng -->
     <g transform="translate(435.640884 222.122809)scale(0.09 -0.09)">
      <defs>
       <path id="DejaVuSans-46" d="M 628 4666 
L 3309 4666 
L 3309 4134 
L 1259 4134 
L 1259 2759 
L 3109 2759 
L 3109 2228 
L 1259 2228 
L 1259 0 
L 628 0 
L 628 4666 
z
" transform="scale(0.015625)"/>
       <path id="DejaVuSans-72" d="M 2631 2963 
Q 2534 3019 2420 3045 
Q 2306 3072 2169 3072 
Q 1681 3072 1420 2755 
Q 1159 2438 1159 1844 
L 1159 0 
L 581 0 
L 581 3500 
L 1159 3500 
L 1159 2956 
Q 1341 3275 1631 3429 
Q 1922 3584 2338 3584 
Q 2397 3584 2469 3576 
Q 2541 3569 2628 3553 
L 2631 2963 
z
" transform="scale(0.015625)"/>
       <path id="DejaVuSans-69" d="M 603 3500 
L 1178 3500 
L 1178 0 
L 603 0 
L 603 3500 
z
M 603 4863 
L 1178 4863 
L 1178 4134 
L 603 4134 
L 603 4863 
z
" transform="scale(0.015625)"/>
       <path id="DejaVuSans-7a" d="M 353 3500 
L 3084 3500 
L 3084 2975 
L 922 459 
L 3084 459 
L 3084 0 
L 275 0 
L 275 525 
L 2438 3041 
L 353 3041 
L 353 3500 
z
" transform="scale(0.015625)"/>
       <path id="DejaVuSans-6c" d="M 603 4863 
L 1178 4863 
L 1178 0 
L 603 0 
L 603 4863 
z
" transform="scale(0.015625)"/>
       <path id="DejaVuSans-67" d="M 2906 1791 
Q 2906 2416 2648 2759 
Q 2391 3103 1925 3103 
Q 1463 3103 1205 2759 
Q 947 2416 947 1791 
Q 947 1169 1205 825 
Q 1463 481 1925 481 
Q 2391 481 2648 825 
Q 2906 1169 2906 1791 
z
M 3481 434 
Q 3481 -459 3084 -895 
Q 2688 -1331 1869 -1331 
Q 1566 -1331 1297 -1286 
Q 1028 -1241 775 -1147 
L 775 -588 
Q 1028 -725 1275 -790 
Q 1522 -856 1778 -856 
Q 2344 -856 2625 -561 
Q 2906 -266 2906 331 
L 2906 616 
Q 2728 306 2450 153 
Q 2172 0 1784 0 
Q 1141 0 747 490 
Q 353 981 353 1791 
Q 353 2603 747 3093 
Q 1141 3584 1784 3584 
Q 2172 3584 2450 3431 
Q 2728 3278 2906 2969 
L 2906 3500 
L 3481 3500 
L 3481 434 
z
" transform="scale(0.015625)"/>
      </defs>
      <use xlink:href="#DejaVuSans-46"/>
      <use xlink:href="#DejaVuSans-72" x="50.269531"/>
      <use xlink:href="#DejaVuSans-69" x="91.382812"/>
      <use xlink:href="#DejaVuSans-7a" x="119.166016"/>
      <use xlink:href="#DejaVuSans-20" x="171.65625"/>
      <use xlink:href="#DejaVuSans-46" x="203.443359"/>
      <use xlink:href="#DejaVuSans-72" x="253.712891"/>
      <use xlink:href="#DejaVuSans-65" x="292.576172"/>
      <use xlink:href="#DejaVuSans-6c" x="354.099609"/>
      <use xlink:href="#DejaVuSans-65" x="381.882812"/>
      <use xlink:href="#DejaVuSans-6e" x="443.40625"/>
      <use xlink:href="#DejaVuSans-67" x="506.785156"/>
     </g>
    </g>
   </g>
   <g id="text_3">
    <g id="patch_4">
     <path d="M 372.690332 157.586033 
L 454.109395 157.586033 
L 454.109395 140.955721 
L 372.690332 140.955721 
z
" clip-path="url(#p458f88d48b)" style="fill: #ffffff; opacity: 0.7; stroke: #000000; stroke-linejoin: miter"/>
    </g>
    <g clip-path="url(#p458f88d48b)">
     <!-- Alfred Hitchcock -->
     <g transform="translate(376.650332 151.754315)scale(0.09 -0.09)">
      <defs>
       <path id="DejaVuSans-41" d="M 2188 4044 
L 1331 1722 
L 3047 1722 
L 2188 4044 
z
M 1831 4666 
L 2547 4666 
L 4325 0 
L 3669 0 
L 3244 1197 
L 1141 1197 
L 716 0 
L 50 0 
L 1831 4666 
z
" transform="scale(0.015625)"/>
       <path id="DejaVuSans-66" d="M 2375 4863 
L 2375 4384 
L 1825 4384 
Q 1516 4384 1395 4259 
Q 1275 4134 1275 3809 
L 1275 3500 
L 2222 3500 
L 2222 3053 
L 1275 3053 
L 1275 0 
L 697 0 
L 697 3053 
L 147 3053 
L 147 3500 
L 697 3500 
L 697 3744 
Q 697 4328 969 4595 
Q 1241 4863 1831 4863 
L 2375 4863 
z
" transform="scale(0.015625)"/>
       <path id="DejaVuSans-64" d="M 2906 2969 
L 2906 4863 
L 3481 4863 
L 3481 0 
L 2906 0 
L 2906 525 
Q 2725 213 2448 61 
Q 2172 -91 1784 -91 
Q 1150 -91 751 415 
Q 353 922 353 1747 
Q 353 2572 751 3078 
Q 1150 3584 1784 3584 
Q 2172 3584 2448 3432 
Q 2725 3281 2906 2969 
z
M 947 1747 
Q 947 1113 1208 752 
Q 1469 391 1925 391 
Q 2381 391 2643 752 
Q 2906 1113 2906 1747 
Q 2906 2381 2643 2742 
Q 2381 3103 1925 3103 
Q 1469 3103 1208 2742 
Q 947 2381 947 1747 
z
" transform="scale(0.015625)"/>
       <path id="DejaVuSans-48" d="M 628 4666 
L 1259 4666 
L 1259 2753 
L 3553 2753 
L 3553 4666 
L 4184 4666 
L 4184 0 
L 3553 0 
L 3553 2222 
L 1259 2222 
L 1259 0 
L 628 0 
L 628 4666 
z
" transform="scale(0.015625)"/>
       <path id="DejaVuSans-74" d="M 1172 4494 
L 1172 3500 
L 2356 3500 
L 2356 3053 
L 1172 3053 
L 1172 1153 
Q 1172 725 1289 603 
Q 1406 481 1766 481 
L 2356 481 
L 2356 0 
L 1766 0 
Q 1100 0 847 248 
Q 594 497 594 1153 
L 594 3053 
L 172 3053 
L 172 3500 
L 594 3500 
L 594 4494 
L 1172 4494 
z
" transform="scale(0.015625)"/>
      </defs>
      <use xlink:href="#DejaVuSans-41"/>
      <use xlink:href="#DejaVuSans-6c" x="68.408203"/>
      <use xlink:href="#DejaVuSans-66" x="96.191406"/>
      <use xlink:href="#DejaVuSans-72" x="131.396484"/>
      <use xlink:href="#DejaVuSans-65" x="170.259766"/>
      <use xlink:href="#DejaVuSans-64" x="231.783203"/>
      <use xlink:href="#DejaVuSans-20" x="295.259766"/>
      <use xlink:href="#DejaVuSans-48" x="327.046875"/>
      <use xlink:href="#DejaVuSans-69" x="402.242188"/>
      <use xlink:href="#DejaVuSans-74" x="430.025391"/>
      <use xlink:href="#DejaVuSans-63" x="469.234375"/>
      <use xlink:href="#DejaVuSans-68" x="524.214844"/>
      <use xlink:href="#DejaVuSans-63" x="587.59375"/>
      <use xlink:href="#DejaVuSans-6f" x="642.574219"/>
      <use xlink:href="#DejaVuSans-63" x="703.755859"/>
      <use xlink:href="#DejaVuSans-6b" x="758.736328"/>
     </g>
    </g>
   </g>
   <g id="text_4">
    <g id="patch_5">
     <path d="M 306.339036 114.095922 
L 379.30513 114.095922 
L 379.30513 97.46561 
L 306.339036 97.46561 
z
" clip-path="url(#p458f88d48b)" style="fill: #ffffff; opacity: 0.7; stroke: #000000; stroke-linejoin: miter"/>
    </g>
    <g clip-path="url(#p458f88d48b)">
     <!-- William Hanna -->
     <g transform="translate(310.299036 108.264203)scale(0.09 -0.09)">
      <defs>
       <path id="DejaVuSans-57" d="M 213 4666 
L 850 4666 
L 1831 722 
L 2809 4666 
L 3519 4666 
L 4500 722 
L 5478 4666 
L 6119 4666 
L 4947 0 
L 4153 0 
L 3169 4050 
L 2175 0 
L 1381 0 
L 213 4666 
z
" transform="scale(0.015625)"/>
       <path id="DejaVuSans-61" d="M 2194 1759 
Q 1497 1759 1228 1600 
Q 959 1441 959 1056 
Q 959 750 1161 570 
Q 1363 391 1709 391 
Q 2188 391 2477 730 
Q 2766 1069 2766 1631 
L 2766 1759 
L 2194 1759 
z
M 3341 1997 
L 3341 0 
L 2766 0 
L 2766 531 
Q 2569 213 2275 61 
Q 1981 -91 1556 -91 
Q 1019 -91 701 211 
Q 384 513 384 1019 
Q 384 1609 779 1909 
Q 1175 2209 1959 2209 
L 2766 2209 
L 2766 2266 
Q 2766 2663 2505 2880 
Q 2244 3097 1772 3097 
Q 1472 3097 1187 3025 
Q 903 2953 641 2809 
L 641 3341 
Q 956 3463 1253 3523 
Q 1550 3584 1831 3584 
Q 2591 3584 2966 3190 
Q 3341 2797 3341 1997 
z
" transform="scale(0.015625)"/>
       <path id="DejaVuSans-6d" d="M 3328 2828 
Q 3544 3216 3844 3400 
Q 4144 3584 4550 3584 
Q 5097 3584 5394 3201 
Q 5691 2819 5691 2113 
L 5691 0 
L 5113 0 
L 5113 2094 
Q 5113 2597 4934 2840 
Q 4756 3084 4391 3084 
Q 3944 3084 3684 2787 
Q 3425 2491 3425 1978 
L 3425 0 
L 2847 0 
L 2847 2094 
Q 2847 2600 2669 2842 
Q 2491 3084 2119 3084 
Q 1678 3084 1418 2786 
Q 1159 2488 1159 1978 
L 1159 0 
L 581 0 
L 581 3500 
L 1159 3500 
L 1159 2956 
Q 1356 3278 1631 3431 
Q 1906 3584 2284 3584 
Q 2666 3584 2933 3390 
Q 3200 3197 3328 2828 
z
" transform="scale(0.015625)"/>
      </defs>
      <use xlink:href="#DejaVuSans-57"/>
      <use xlink:href="#DejaVuSans-69" x="96.626953"/>
      <use xlink:href="#DejaVuSans-6c" x="124.410156"/>
      <use xlink:href="#DejaVuSans-6c" x="152.193359"/>
      <use xlink:href="#DejaVuSans-69" x="179.976562"/>
      <use xlink:href="#DejaVuSans-61" x="207.759766"/>
      <use xlink:href="#DejaVuSans-6d" x="269.039062"/>
      <use xlink:href="#DejaVuSans-20" x="366.451172"/>
      <use xlink:href="#DejaVuSans-48" x="398.238281"/>
      <use xlink:href="#DejaVuSans-61" x="473.433594"/>
      <use xlink:href="#DejaVuSans-6e" x="534.712891"/>
      <use xlink:href="#DejaVuSans-6e" x="598.091797"/>
      <use xlink:href="#DejaVuSans-61" x="661.470703"/>
     </g>
    </g>
   </g>
   <g id="text_5">
    <g id="patch_6">
     <path d="M 223.551145 105.004013 
L 299.993489 105.004013 
L 299.993489 88.3737 
L 223.551145 88.3737 
z
" clip-path="url(#p458f88d48b)" style="fill: #ffffff; opacity: 0.7; stroke: #000000; stroke-linejoin: miter"/>
    </g>
    <g clip-path="url(#p458f88d48b)">
     <!-- Joseph Barbera -->
     <g transform="translate(227.511145 99.172294)scale(0.09 -0.09)">
      <defs>
       <path id="DejaVuSans-70" d="M 1159 525 
L 1159 -1331 
L 581 -1331 
L 581 3500 
L 1159 3500 
L 1159 2969 
Q 1341 3281 1617 3432 
Q 1894 3584 2278 3584 
Q 2916 3584 3314 3078 
Q 3713 2572 3713 1747 
Q 3713 922 3314 415 
Q 2916 -91 2278 -91 
Q 1894 -91 1617 61 
Q 1341 213 1159 525 
z
M 3116 1747 
Q 3116 2381 2855 2742 
Q 2594 3103 2138 3103 
Q 1681 3103 1420 2742 
Q 1159 2381 1159 1747 
Q 1159 1113 1420 752 
Q 1681 391 2138 391 
Q 2594 391 2855 752 
Q 3116 1113 3116 1747 
z
" transform="scale(0.015625)"/>
       <path id="DejaVuSans-42" d="M 1259 2228 
L 1259 519 
L 2272 519 
Q 2781 519 3026 730 
Q 3272 941 3272 1375 
Q 3272 1813 3026 2020 
Q 2781 2228 2272 2228 
L 1259 2228 
z
M 1259 4147 
L 1259 2741 
L 2194 2741 
Q 2656 2741 2882 2914 
Q 3109 3088 3109 3444 
Q 3109 3797 2882 3972 
Q 2656 4147 2194 4147 
L 1259 4147 
z
M 628 4666 
L 2241 4666 
Q 2963 4666 3353 4366 
Q 3744 4066 3744 3513 
Q 3744 3084 3544 2831 
Q 3344 2578 2956 2516 
Q 3422 2416 3680 2098 
Q 3938 1781 3938 1306 
Q 3938 681 3513 340 
Q 3088 0 2303 0 
L 628 0 
L 628 4666 
z
" transform="scale(0.015625)"/>
       <path id="DejaVuSans-62" d="M 3116 1747 
Q 3116 2381 2855 2742 
Q 2594 3103 2138 3103 
Q 1681 3103 1420 2742 
Q 1159 2381 1159 1747 
Q 1159 1113 1420 752 
Q 1681 391 2138 391 
Q 2594 391 2855 752 
Q 3116 1113 3116 1747 
z
M 1159 2969 
Q 1341 3281 1617 3432 
Q 1894 3584 2278 3584 
Q 2916 3584 3314 3078 
Q 3713 2572 3713 1747 
Q 3713 922 3314 415 
Q 2916 -91 2278 -91 
Q 1894 -91 1617 61 
Q 1341 213 1159 525 
L 1159 0 
L 581 0 
L 581 4863 
L 1159 4863 
L 1159 2969 
z
" transform="scale(0.015625)"/>
      </defs>
      <use xlink:href="#DejaVuSans-4a"/>
      <use xlink:href="#DejaVuSans-6f" x="29.492188"/>
      <use xlink:href="#DejaVuSans-73" x="90.673828"/>
      <use xlink:href="#DejaVuSans-65" x="142.773438"/>
      <use xlink:href="#DejaVuSans-70" x="204.296875"/>
      <use xlink:href="#DejaVuSans-68" x="267.773438"/>
      <use xlink:href="#DejaVuSans-20" x="331.152344"/>
      <use xlink:href="#DejaVuSans-42" x="362.939453"/>
      <use xlink:href="#DejaVuSans-61" x="431.542969"/>
      <use xlink:href="#DejaVuSans-72" x="492.822266"/>
      <use xlink:href="#DejaVuSans-62" x="533.935547"/>
      <use xlink:href="#DejaVuSans-65" x="597.412109"/>
      <use xlink:href="#DejaVuSans-72" x="658.935547"/>
      <use xlink:href="#DejaVuSans-61" x="700.048828"/>
     </g>
    </g>
   </g>
   <g id="text_6">
    <g id="patch_7">
     <path d="M 146.153332 131.88239 
L 222.376301 131.88239 
L 222.376301 115.252078 
L 146.153332 115.252078 
z
" clip-path="url(#p458f88d48b)" style="fill: #ffffff; opacity: 0.7; stroke: #000000; stroke-linejoin: miter"/>
    </g>
    <g clip-path="url(#p458f88d48b)">
     <!-- Alfonso Cuarón -->
     <g transform="translate(150.113332 126.050671)scale(0.09 -0.09)">
      <defs>
       <path id="DejaVuSans-f3" d="M 1959 3097 
Q 1497 3097 1228 2736 
Q 959 2375 959 1747 
Q 959 1119 1226 758 
Q 1494 397 1959 397 
Q 2419 397 2687 759 
Q 2956 1122 2956 1747 
Q 2956 2369 2687 2733 
Q 2419 3097 1959 3097 
z
M 1959 3584 
Q 2709 3584 3137 3096 
Q 3566 2609 3566 1747 
Q 3566 888 3137 398 
Q 2709 -91 1959 -91 
Q 1206 -91 779 398 
Q 353 888 353 1747 
Q 353 2609 779 3096 
Q 1206 3584 1959 3584 
z
M 2394 5119 
L 3016 5119 
L 1997 3944 
L 1519 3944 
L 2394 5119 
z
" transform="scale(0.015625)"/>
      </defs>
      <use xlink:href="#DejaVuSans-41"/>
      <use xlink:href="#DejaVuSans-6c" x="68.408203"/>
      <use xlink:href="#DejaVuSans-66" x="96.191406"/>
      <use xlink:href="#DejaVuSans-6f" x="131.396484"/>
      <use xlink:href="#DejaVuSans-6e" x="192.578125"/>
      <use xlink:href="#DejaVuSans-73" x="255.957031"/>
      <use xlink:href="#DejaVuSans-6f" x="308.056641"/>
      <use xlink:href="#DejaVuSans-20" x="369.238281"/>
      <use xlink:href="#DejaVuSans-43" x="401.025391"/>
      <use xlink:href="#DejaVuSans-75" x="470.849609"/>
      <use xlink:href="#DejaVuSans-61" x="534.228516"/>
      <use xlink:href="#DejaVuSans-72" x="595.507812"/>
      <use xlink:href="#DejaVuSans-f3" x="634.371094"/>
      <use xlink:href="#DejaVuSans-6e" x="695.552734"/>
     </g>
    </g>
   </g>
   <g id="text_7">
    <g id="patch_8">
     <path d="M 71.123061 190.083523 
L 176.279624 190.083523 
L 176.279624 173.453211 
L 71.123061 173.453211 
z
" clip-path="url(#p458f88d48b)" style="fill: #ffffff; opacity: 0.7; stroke: #000000; stroke-linejoin: miter"/>
    </g>
    <g clip-path="url(#p458f88d48b)">
     <!-- Wolfgang Reitherman -->
     <g transform="translate(75.083061 184.251804)scale(0.09 -0.09)">
      <defs>
       <path id="DejaVuSans-52" d="M 2841 2188 
Q 3044 2119 3236 1894 
Q 3428 1669 3622 1275 
L 4263 0 
L 3584 0 
L 2988 1197 
Q 2756 1666 2539 1819 
Q 2322 1972 1947 1972 
L 1259 1972 
L 1259 0 
L 628 0 
L 628 4666 
L 2053 4666 
Q 2853 4666 3247 4331 
Q 3641 3997 3641 3322 
Q 3641 2881 3436 2590 
Q 3231 2300 2841 2188 
z
M 1259 4147 
L 1259 2491 
L 2053 2491 
Q 2509 2491 2742 2702 
Q 2975 2913 2975 3322 
Q 2975 3731 2742 3939 
Q 2509 4147 2053 4147 
L 1259 4147 
z
" transform="scale(0.015625)"/>
      </defs>
      <use xlink:href="#DejaVuSans-57"/>
      <use xlink:href="#DejaVuSans-6f" x="93.001953"/>
      <use xlink:href="#DejaVuSans-6c" x="154.183594"/>
      <use xlink:href="#DejaVuSans-66" x="181.966797"/>
      <use xlink:href="#DejaVuSans-67" x="217.171875"/>
      <use xlink:href="#DejaVuSans-61" x="280.648438"/>
      <use xlink:href="#DejaVuSans-6e" x="341.927734"/>
      <use xlink:href="#DejaVuSans-67" x="405.306641"/>
      <use xlink:href="#DejaVuSans-20" x="468.783203"/>
      <use xlink:href="#DejaVuSans-52" x="500.570312"/>
      <use xlink:href="#DejaVuSans-65" x="565.552734"/>
      <use xlink:href="#DejaVuSans-69" x="627.076172"/>
      <use xlink:href="#DejaVuSans-74" x="654.859375"/>
      <use xlink:href="#DejaVuSans-68" x="694.068359"/>
      <use xlink:href="#DejaVuSans-65" x="757.447266"/>
      <use xlink:href="#DejaVuSans-72" x="818.970703"/>
      <use xlink:href="#DejaVuSans-6d" x="858.333984"/>
      <use xlink:href="#DejaVuSans-61" x="955.746094"/>
      <use xlink:href="#DejaVuSans-6e" x="1017.025391"/>
     </g>
    </g>
   </g>
   <g id="text_8">
    <g id="patch_9">
     <path d="M 51.988846 269.543933 
L 129.118846 269.543933 
L 129.118846 252.913621 
L 51.988846 252.913621 
z
" clip-path="url(#p458f88d48b)" style="fill: #ffffff; opacity: 0.7; stroke: #000000; stroke-linejoin: miter"/>
    </g>
    <g clip-path="url(#p458f88d48b)">
     <!-- Clyde Geronimi -->
     <g transform="translate(55.948846 263.712214)scale(0.09 -0.09)">
      <defs>
       <path id="DejaVuSans-79" d="M 2059 -325 
Q 1816 -950 1584 -1140 
Q 1353 -1331 966 -1331 
L 506 -1331 
L 506 -850 
L 844 -850 
Q 1081 -850 1212 -737 
Q 1344 -625 1503 -206 
L 1606 56 
L 191 3500 
L 800 3500 
L 1894 763 
L 2988 3500 
L 3597 3500 
L 2059 -325 
z
" transform="scale(0.015625)"/>
       <path id="DejaVuSans-47" d="M 3809 666 
L 3809 1919 
L 2778 1919 
L 2778 2438 
L 4434 2438 
L 4434 434 
Q 4069 175 3628 42 
Q 3188 -91 2688 -91 
Q 1594 -91 976 548 
Q 359 1188 359 2328 
Q 359 3472 976 4111 
Q 1594 4750 2688 4750 
Q 3144 4750 3555 4637 
Q 3966 4525 4313 4306 
L 4313 3634 
Q 3963 3931 3569 4081 
Q 3175 4231 2741 4231 
Q 1884 4231 1454 3753 
Q 1025 3275 1025 2328 
Q 1025 1384 1454 906 
Q 1884 428 2741 428 
Q 3075 428 3337 486 
Q 3600 544 3809 666 
z
" transform="scale(0.015625)"/>
      </defs>
      <use xlink:href="#DejaVuSans-43"/>
      <use xlink:href="#DejaVuSans-6c" x="69.824219"/>
      <use xlink:href="#DejaVuSans-79" x="97.607422"/>
      <use xlink:href="#DejaVuSans-64" x="156.787109"/>
      <use xlink:href="#DejaVuSans-65" x="220.263672"/>
      <use xlink:href="#DejaVuSans-20" x="281.787109"/>
      <use xlink:href="#DejaVuSans-47" x="313.574219"/>
      <use xlink:href="#DejaVuSans-65" x="391.064453"/>
      <use xlink:href="#DejaVuSans-72" x="452.587891"/>
      <use xlink:href="#DejaVuSans-6f" x="491.451172"/>
      <use xlink:href="#DejaVuSans-6e" x="552.632812"/>
      <use xlink:href="#DejaVuSans-69" x="616.011719"/>
      <use xlink:href="#DejaVuSans-6d" x="643.794922"/>
      <use xlink:href="#DejaVuSans-69" x="741.207031"/>
     </g>
    </g>
   </g>
   <g id="text_9">
    <g id="patch_10">
     <path d="M 52.713077 356.524168 
L 128.394639 356.524168 
L 128.394639 339.893855 
L 52.713077 339.893855 
z
" clip-path="url(#p458f88d48b)" style="fill: #ffffff; opacity: 0.7; stroke: #000000; stroke-linejoin: miter"/>
    </g>
    <g clip-path="url(#p458f88d48b)">
     <!-- Stephen Frears -->
     <g transform="translate(56.673077 350.692449)scale(0.09 -0.09)">
      <defs>
       <path id="DejaVuSans-53" d="M 3425 4513 
L 3425 3897 
Q 3066 4069 2747 4153 
Q 2428 4238 2131 4238 
Q 1616 4238 1336 4038 
Q 1056 3838 1056 3469 
Q 1056 3159 1242 3001 
Q 1428 2844 1947 2747 
L 2328 2669 
Q 3034 2534 3370 2195 
Q 3706 1856 3706 1288 
Q 3706 609 3251 259 
Q 2797 -91 1919 -91 
Q 1588 -91 1214 -16 
Q 841 59 441 206 
L 441 856 
Q 825 641 1194 531 
Q 1563 422 1919 422 
Q 2459 422 2753 634 
Q 3047 847 3047 1241 
Q 3047 1584 2836 1778 
Q 2625 1972 2144 2069 
L 1759 2144 
Q 1053 2284 737 2584 
Q 422 2884 422 3419 
Q 422 4038 858 4394 
Q 1294 4750 2059 4750 
Q 2388 4750 2728 4690 
Q 3069 4631 3425 4513 
z
" transform="scale(0.015625)"/>
      </defs>
      <use xlink:href="#DejaVuSans-53"/>
      <use xlink:href="#DejaVuSans-74" x="63.476562"/>
      <use xlink:href="#DejaVuSans-65" x="102.685547"/>
      <use xlink:href="#DejaVuSans-70" x="164.208984"/>
      <use xlink:href="#DejaVuSans-68" x="227.685547"/>
      <use xlink:href="#DejaVuSans-65" x="291.064453"/>
      <use xlink:href="#DejaVuSans-6e" x="352.587891"/>
      <use xlink:href="#DejaVuSans-20" x="415.966797"/>
      <use xlink:href="#DejaVuSans-46" x="447.753906"/>
      <use xlink:href="#DejaVuSans-72" x="498.023438"/>
      <use xlink:href="#DejaVuSans-65" x="536.886719"/>
      <use xlink:href="#DejaVuSans-61" x="598.410156"/>
      <use xlink:href="#DejaVuSans-72" x="659.689453"/>
      <use xlink:href="#DejaVuSans-73" x="700.802734"/>
     </g>
    </g>
   </g>
   <g id="text_10">
    <g id="patch_11">
     <path d="M 96.698542 435.984553 
L 150.704167 435.984553 
L 150.704167 419.35424 
L 96.698542 419.35424 
z
" clip-path="url(#p458f88d48b)" style="fill: #ffffff; opacity: 0.7; stroke: #000000; stroke-linejoin: miter"/>
    </g>
    <g clip-path="url(#p458f88d48b)">
     <!-- Ken Loach -->
     <g transform="translate(100.658542 430.152834)scale(0.09 -0.09)">
      <defs>
       <path id="DejaVuSans-4b" d="M 628 4666 
L 1259 4666 
L 1259 2694 
L 3353 4666 
L 4166 4666 
L 1850 2491 
L 4331 0 
L 3500 0 
L 1259 2247 
L 1259 0 
L 628 0 
L 628 4666 
z
" transform="scale(0.015625)"/>
       <path id="DejaVuSans-4c" d="M 628 4666 
L 1259 4666 
L 1259 531 
L 3531 531 
L 3531 0 
L 628 0 
L 628 4666 
z
" transform="scale(0.015625)"/>
      </defs>
      <use xlink:href="#DejaVuSans-4b"/>
      <use xlink:href="#DejaVuSans-65" x="60.576172"/>
      <use xlink:href="#DejaVuSans-6e" x="122.099609"/>
      <use xlink:href="#DejaVuSans-20" x="185.478516"/>
      <use xlink:href="#DejaVuSans-4c" x="217.265625"/>
      <use xlink:href="#DejaVuSans-6f" x="271.228516"/>
      <use xlink:href="#DejaVuSans-61" x="332.410156"/>
      <use xlink:href="#DejaVuSans-63" x="393.689453"/>
      <use xlink:href="#DejaVuSans-68" x="448.669922"/>
     </g>
    </g>
   </g>
   <g id="text_11">
    <g id="patch_12">
     <path d="M 148.41883 494.185686 
L 220.110861 494.185686 
L 220.110861 477.555373 
L 148.41883 477.555373 
z
" clip-path="url(#p458f88d48b)" style="fill: #ffffff; opacity: 0.7; stroke: #000000; stroke-linejoin: miter"/>
    </g>
    <g clip-path="url(#p458f88d48b)">
     <!-- Michael Curtiz -->
     <g transform="translate(152.37883 488.353967)scale(0.09 -0.09)">
      <defs>
       <path id="DejaVuSans-4d" d="M 628 4666 
L 1569 4666 
L 2759 1491 
L 3956 4666 
L 4897 4666 
L 4897 0 
L 4281 0 
L 4281 4097 
L 3078 897 
L 2444 897 
L 1241 4097 
L 1241 0 
L 628 0 
L 628 4666 
z
" transform="scale(0.015625)"/>
      </defs>
      <use xlink:href="#DejaVuSans-4d"/>
      <use xlink:href="#DejaVuSans-69" x="86.279297"/>
      <use xlink:href="#DejaVuSans-63" x="114.0625"/>
      <use xlink:href="#DejaVuSans-68" x="169.042969"/>
      <use xlink:href="#DejaVuSans-61" x="232.421875"/>
      <use xlink:href="#DejaVuSans-65" x="293.701172"/>
      <use xlink:href="#DejaVuSans-6c" x="355.224609"/>
      <use xlink:href="#DejaVuSans-20" x="383.007812"/>
      <use xlink:href="#DejaVuSans-43" x="414.794922"/>
      <use xlink:href="#DejaVuSans-75" x="484.619141"/>
      <use xlink:href="#DejaVuSans-72" x="547.998047"/>
      <use xlink:href="#DejaVuSans-74" x="589.111328"/>
      <use xlink:href="#DejaVuSans-69" x="628.320312"/>
      <use xlink:href="#DejaVuSans-7a" x="656.103516"/>
     </g>
    </g>
   </g>
   <g id="text_12">
    <g id="patch_13">
     <path d="M 217.018446 521.06405 
L 306.526258 521.06405 
L 306.526258 504.433738 
L 217.018446 504.433738 
z
" clip-path="url(#p458f88d48b)" style="fill: #ffffff; opacity: 0.7; stroke: #000000; stroke-linejoin: miter"/>
    </g>
    <g clip-path="url(#p458f88d48b)">
     <!-- David Cronenberg -->
     <g transform="translate(220.978446 515.232332)scale(0.09 -0.09)">
      <defs>
       <path id="DejaVuSans-44" d="M 1259 4147 
L 1259 519 
L 2022 519 
Q 2988 519 3436 956 
Q 3884 1394 3884 2338 
Q 3884 3275 3436 3711 
Q 2988 4147 2022 4147 
L 1259 4147 
z
M 628 4666 
L 1925 4666 
Q 3281 4666 3915 4102 
Q 4550 3538 4550 2338 
Q 4550 1131 3912 565 
Q 3275 0 1925 0 
L 628 0 
L 628 4666 
z
" transform="scale(0.015625)"/>
       <path id="DejaVuSans-76" d="M 191 3500 
L 800 3500 
L 1894 563 
L 2988 3500 
L 3597 3500 
L 2284 0 
L 1503 0 
L 191 3500 
z
" transform="scale(0.015625)"/>
      </defs>
      <use xlink:href="#DejaVuSans-44"/>
      <use xlink:href="#DejaVuSans-61" x="77.001953"/>
      <use xlink:href="#DejaVuSans-76" x="138.28125"/>
      <use xlink:href="#DejaVuSans-69" x="197.460938"/>
      <use xlink:href="#DejaVuSans-64" x="225.244141"/>
      <use xlink:href="#DejaVuSans-20" x="288.720703"/>
      <use xlink:href="#DejaVuSans-43" x="320.507812"/>
      <use xlink:href="#DejaVuSans-72" x="390.332031"/>
      <use xlink:href="#DejaVuSans-6f" x="429.195312"/>
      <use xlink:href="#DejaVuSans-6e" x="490.376953"/>
      <use xlink:href="#DejaVuSans-65" x="553.755859"/>
      <use xlink:href="#DejaVuSans-6e" x="615.279297"/>
      <use xlink:href="#DejaVuSans-62" x="678.658203"/>
      <use xlink:href="#DejaVuSans-65" x="742.134766"/>
      <use xlink:href="#DejaVuSans-72" x="803.658203"/>
      <use xlink:href="#DejaVuSans-67" x="843.021484"/>
     </g>
    </g>
   </g>
   <g id="text_13">
    <g id="patch_14">
     <path d="M 306.618909 511.972129 
L 379.025315 511.972129 
L 379.025315 495.341816 
L 306.618909 495.341816 
z
" clip-path="url(#p458f88d48b)" style="fill: #ffffff; opacity: 0.7; stroke: #000000; stroke-linejoin: miter"/>
    </g>
    <g clip-path="url(#p458f88d48b)">
     <!-- Roger Corman -->
     <g transform="translate(310.578909 506.14041)scale(0.09 -0.09)">
      <use xlink:href="#DejaVuSans-52"/>
      <use xlink:href="#DejaVuSans-6f" x="64.982422"/>
      <use xlink:href="#DejaVuSans-67" x="126.164062"/>
      <use xlink:href="#DejaVuSans-65" x="189.640625"/>
      <use xlink:href="#DejaVuSans-72" x="251.164062"/>
      <use xlink:href="#DejaVuSans-20" x="292.277344"/>
      <use xlink:href="#DejaVuSans-43" x="324.064453"/>
      <use xlink:href="#DejaVuSans-6f" x="393.888672"/>
      <use xlink:href="#DejaVuSans-72" x="455.070312"/>
      <use xlink:href="#DejaVuSans-6d" x="494.433594"/>
      <use xlink:href="#DejaVuSans-61" x="591.845703"/>
      <use xlink:href="#DejaVuSans-6e" x="653.125"/>
     </g>
    </g>
   </g>
   <g id="text_14">
    <g id="patch_15">
     <path d="M 371.874742 468.481993 
L 454.925055 468.481993 
L 454.925055 451.85168 
L 371.874742 451.85168 
z
" clip-path="url(#p458f88d48b)" style="fill: #ffffff; opacity: 0.7; stroke: #000000; stroke-linejoin: miter"/>
    </g>
    <g clip-path="url(#p458f88d48b)">
     <!-- Henry Hathaway -->
     <g transform="translate(375.834742 462.650274)scale(0.09 -0.09)">
      <defs>
       <path id="DejaVuSans-77" d="M 269 3500 
L 844 3500 
L 1563 769 
L 2278 3500 
L 2956 3500 
L 3675 769 
L 4391 3500 
L 4966 3500 
L 4050 0 
L 3372 0 
L 2619 2869 
L 1863 0 
L 1184 0 
L 269 3500 
z
" transform="scale(0.015625)"/>
      </defs>
      <use xlink:href="#DejaVuSans-48"/>
      <use xlink:href="#DejaVuSans-65" x="75.195312"/>
      <use xlink:href="#DejaVuSans-6e" x="136.71875"/>
      <use xlink:href="#DejaVuSans-72" x="200.097656"/>
      <use xlink:href="#DejaVuSans-79" x="241.210938"/>
      <use xlink:href="#DejaVuSans-20" x="300.390625"/>
      <use xlink:href="#DejaVuSans-48" x="332.177734"/>
      <use xlink:href="#DejaVuSans-61" x="407.373047"/>
      <use xlink:href="#DejaVuSans-74" x="468.652344"/>
      <use xlink:href="#DejaVuSans-68" x="507.861328"/>
      <use xlink:href="#DejaVuSans-61" x="571.240234"/>
      <use xlink:href="#DejaVuSans-77" x="632.519531"/>
      <use xlink:href="#DejaVuSans-61" x="714.306641"/>
      <use xlink:href="#DejaVuSans-79" x="775.585938"/>
     </g>
    </g>
   </g>
   <g id="text_15">
    <g id="patch_16">
     <path d="M 423.530283 398.113505 
L 499.074033 398.113505 
L 499.074033 381.483192 
L 423.530283 381.483192 
z
" clip-path="url(#p458f88d48b)" style="fill: #ffffff; opacity: 0.7; stroke: #000000; stroke-linejoin: miter"/>
    </g>
    <g clip-path="url(#p458f88d48b)">
     <!-- Richard Brooks -->
     <g transform="translate(427.490283 392.281786)scale(0.09 -0.09)">
      <use xlink:href="#DejaVuSans-52"/>
      <use xlink:href="#DejaVuSans-69" x="69.482422"/>
      <use xlink:href="#DejaVuSans-63" x="97.265625"/>
      <use xlink:href="#DejaVuSans-68" x="152.246094"/>
      <use xlink:href="#DejaVuSans-61" x="215.625"/>
      <use xlink:href="#DejaVuSans-72" x="276.904297"/>
      <use xlink:href="#DejaVuSans-64" x="316.267578"/>
      <use xlink:href="#DejaVuSans-20" x="379.744141"/>
      <use xlink:href="#DejaVuSans-42" x="411.53125"/>
      <use xlink:href="#DejaVuSans-72" x="480.134766"/>
      <use xlink:href="#DejaVuSans-6f" x="518.998047"/>
      <use xlink:href="#DejaVuSans-6f" x="580.179688"/>
      <use xlink:href="#DejaVuSans-6b" x="641.361328"/>
      <use xlink:href="#DejaVuSans-73" x="699.271484"/>
     </g>
    </g>
   </g>
   <g id="text_16">
    <!-- Impactful directors for Short Film genre - Importance rank: 4 -->
    <g transform="translate(102.810937 16.318125)scale(0.12 -0.12)">
     <defs>
      <path id="DejaVuSans-49" d="M 628 4666 
L 1259 4666 
L 1259 0 
L 628 0 
L 628 4666 
z
" transform="scale(0.015625)"/>
      <path id="DejaVuSans-2d" d="M 313 2009 
L 1997 2009 
L 1997 1497 
L 313 1497 
L 313 2009 
z
" transform="scale(0.015625)"/>
      <path id="DejaVuSans-3a" d="M 750 794 
L 1409 794 
L 1409 0 
L 750 0 
L 750 794 
z
M 750 3309 
L 1409 3309 
L 1409 2516 
L 750 2516 
L 750 3309 
z
" transform="scale(0.015625)"/>
      <path id="DejaVuSans-34" d="M 2419 4116 
L 825 1625 
L 2419 1625 
L 2419 4116 
z
M 2253 4666 
L 3047 4666 
L 3047 1625 
L 3713 1625 
L 3713 1100 
L 3047 1100 
L 3047 0 
L 2419 0 
L 2419 1100 
L 313 1100 
L 313 1709 
L 2253 4666 
z
" transform="scale(0.015625)"/>
     </defs>
     <use xlink:href="#DejaVuSans-49"/>
     <use xlink:href="#DejaVuSans-6d" x="29.492188"/>
     <use xlink:href="#DejaVuSans-70" x="126.904297"/>
     <use xlink:href="#DejaVuSans-61" x="190.380859"/>
     <use xlink:href="#DejaVuSans-63" x="251.660156"/>
     <use xlink:href="#DejaVuSans-74" x="306.640625"/>
     <use xlink:href="#DejaVuSans-66" x="345.849609"/>
     <use xlink:href="#DejaVuSans-75" x="381.054688"/>
     <use xlink:href="#DejaVuSans-6c" x="444.433594"/>
     <use xlink:href="#DejaVuSans-20" x="472.216797"/>
     <use xlink:href="#DejaVuSans-64" x="504.003906"/>
     <use xlink:href="#DejaVuSans-69" x="567.480469"/>
     <use xlink:href="#DejaVuSans-72" x="595.263672"/>
     <use xlink:href="#DejaVuSans-65" x="634.126953"/>
     <use xlink:href="#DejaVuSans-63" x="695.650391"/>
     <use xlink:href="#DejaVuSans-74" x="750.630859"/>
     <use xlink:href="#DejaVuSans-6f" x="789.839844"/>
     <use xlink:href="#DejaVuSans-72" x="851.021484"/>
     <use xlink:href="#DejaVuSans-73" x="892.134766"/>
     <use xlink:href="#DejaVuSans-20" x="944.234375"/>
     <use xlink:href="#DejaVuSans-66" x="976.021484"/>
     <use xlink:href="#DejaVuSans-6f" x="1011.226562"/>
     <use xlink:href="#DejaVuSans-72" x="1072.408203"/>
     <use xlink:href="#DejaVuSans-20" x="1113.521484"/>
     <use xlink:href="#DejaVuSans-53" x="1145.308594"/>
     <use xlink:href="#DejaVuSans-68" x="1208.785156"/>
     <use xlink:href="#DejaVuSans-6f" x="1272.164062"/>
     <use xlink:href="#DejaVuSans-72" x="1333.345703"/>
     <use xlink:href="#DejaVuSans-74" x="1374.458984"/>
     <use xlink:href="#DejaVuSans-20" x="1413.667969"/>
     <use xlink:href="#DejaVuSans-46" x="1445.455078"/>
     <use xlink:href="#DejaVuSans-69" x="1495.724609"/>
     <use xlink:href="#DejaVuSans-6c" x="1523.507812"/>
     <use xlink:href="#DejaVuSans-6d" x="1551.291016"/>
     <use xlink:href="#DejaVuSans-20" x="1648.703125"/>
     <use xlink:href="#DejaVuSans-67" x="1680.490234"/>
     <use xlink:href="#DejaVuSans-65" x="1743.966797"/>
     <use xlink:href="#DejaVuSans-6e" x="1805.490234"/>
     <use xlink:href="#DejaVuSans-72" x="1868.869141"/>
     <use xlink:href="#DejaVuSans-65" x="1907.732422"/>
     <use xlink:href="#DejaVuSans-20" x="1969.255859"/>
     <use xlink:href="#DejaVuSans-2d" x="2001.042969"/>
     <use xlink:href="#DejaVuSans-20" x="2037.126953"/>
     <use xlink:href="#DejaVuSans-49" x="2068.914062"/>
     <use xlink:href="#DejaVuSans-6d" x="2098.40625"/>
     <use xlink:href="#DejaVuSans-70" x="2195.818359"/>
     <use xlink:href="#DejaVuSans-6f" x="2259.294922"/>
     <use xlink:href="#DejaVuSans-72" x="2320.476562"/>
     <use xlink:href="#DejaVuSans-74" x="2361.589844"/>
     <use xlink:href="#DejaVuSans-61" x="2400.798828"/>
     <use xlink:href="#DejaVuSans-6e" x="2462.078125"/>
     <use xlink:href="#DejaVuSans-63" x="2525.457031"/>
     <use xlink:href="#DejaVuSans-65" x="2580.4375"/>
     <use xlink:href="#DejaVuSans-20" x="2641.960938"/>
     <use xlink:href="#DejaVuSans-72" x="2673.748047"/>
     <use xlink:href="#DejaVuSans-61" x="2714.861328"/>
     <use xlink:href="#DejaVuSans-6e" x="2776.140625"/>
     <use xlink:href="#DejaVuSans-6b" x="2839.519531"/>
     <use xlink:href="#DejaVuSans-3a" x="2897.429688"/>
     <use xlink:href="#DejaVuSans-20" x="2931.121094"/>
     <use xlink:href="#DejaVuSans-34" x="2962.908203"/>
    </g>
   </g>
  </g>
 </g>
 <defs>
  <clipPath id="p458f88d48b">
   <rect x="7.2" y="22.318125" width="554.4" height="554.4"/>
  </clipPath>
 </defs>
</svg>
