<?xml version="1.0" encoding="utf-8" standalone="no"?>
<!DOCTYPE svg PUBLIC "-//W3C//DTD SVG 1.1//EN"
  "http://www.w3.org/Graphics/SVG/1.1/DTD/svg11.dtd">
<svg xmlns:xlink="http://www.w3.org/1999/xlink" width="576pt" height="576pt" viewBox="0 0 576 576" xmlns="http://www.w3.org/2000/svg" version="1.1">
 <metadata>
  <rdf:RDF xmlns:dc="http://purl.org/dc/elements/1.1/" xmlns:cc="http://creativecommons.org/ns#" xmlns:rdf="http://www.w3.org/1999/02/22-rdf-syntax-ns#">
   <cc:Work>
    <dc:type rdf:resource="http://purl.org/dc/dcmitype/StillImage"/>
    <dc:date>2022-12-23T17:30:05.828959</dc:date>
    <dc:format>image/svg+xml</dc:format>
    <dc:creator>
     <cc:Agent>
      <dc:title>Matplotlib v3.5.2, https://matplotlib.org/</dc:title>
     </cc:Agent>
    </dc:creator>
   </cc:Work>
  </rdf:RDF>
 </metadata>
 <defs>
  <style type="text/css">*{stroke-linejoin: round; stroke-linecap: butt}</style>
 </defs>
 <g id="figure_1">
  <g id="patch_1">
   <path d="M 0 576 
L 576 576 
L 576 0 
L 0 0 
z
" style="fill: #ffffff"/>
  </g>
  <g id="axes_1">
   <g id="LineCollection_1">
    <path d="M 177.851298 102.319567 
L 111.231477 161.975729 
" clip-path="url(#pc212a82f52)" style="fill: none; stroke: #000000; stroke-opacity: 0.3; stroke-width: 5"/>
   </g>
   <g id="PathCollection_1">
    <path d="M 501.230769 315.386128 
C 508.493655 315.386128 515.46005 312.500553 520.595686 307.364917 
C 525.731322 302.229281 528.616897 295.262886 528.616897 288 
C 528.616897 280.737114 525.731322 273.770719 520.595686 268.635083 
C 515.46005 263.499447 508.493655 260.613872 501.230769 260.613872 
C 493.967883 260.613872 487.001488 263.499447 481.865852 268.635083 
C 476.730217 273.770719 473.844641 280.737114 473.844641 288 
C 473.844641 295.262886 476.730217 302.229281 481.865852 307.364917 
C 487.001488 312.500553 493.967883 315.386128 501.230769 315.386128 
z
" clip-path="url(#pc212a82f52)" style="fill: #c70039; fill-opacity: 0.99; stroke: #c70039; stroke-opacity: 0.99"/>
    <path d="M 482.592348 227.314811 
C 489.625879 227.314811 496.372283 224.520359 501.345741 219.546901 
C 506.319198 214.573443 509.11365 207.82704 509.11365 200.793508 
C 509.11365 193.759977 506.319198 187.013574 501.345741 182.040116 
C 496.372283 177.066658 489.625879 174.272206 482.592348 174.272206 
C 475.558816 174.272206 468.812413 177.066658 463.838955 182.040116 
C 458.865497 187.013574 456.071046 193.759977 456.071046 200.793508 
C 456.071046 207.82704 458.865497 214.573443 463.838955 219.546901 
C 468.812413 224.520359 475.558816 227.314811 482.592348 227.314811 
z
" clip-path="url(#pc212a82f52)" style="fill: #c70039; fill-opacity: 0.99; stroke: #c70039; stroke-opacity: 0.99"/>
    <path d="M 429.89985 154.986953 
C 436.880301 154.986953 443.57579 152.21359 448.511714 147.277666 
C 453.447639 142.341742 456.221001 135.646253 456.221001 128.665802 
C 456.221001 121.685351 453.447639 114.989861 448.511714 110.053937 
C 443.57579 105.118013 436.880301 102.34465 429.89985 102.34465 
C 422.919399 102.34465 416.223909 105.118013 411.287985 110.053937 
C 406.352061 114.989861 403.578698 121.685351 403.578698 128.665802 
C 403.578698 135.646253 406.352061 142.341742 411.287985 147.277666 
C 416.223909 152.21359 422.919399 154.986953 429.89985 154.986953 
z
" clip-path="url(#pc212a82f52)" style="fill: #c70039; fill-opacity: 0.99; stroke: #c70039; stroke-opacity: 0.99"/>
    <path d="M 352.264291 109.1587 
C 358.913003 109.1587 365.290295 106.517139 369.991644 101.81579 
C 374.692993 97.114441 377.334554 90.737149 377.334554 84.088438 
C 377.334554 77.439726 374.692993 71.062434 369.991644 66.361085 
C 365.290295 61.659736 358.913003 59.018175 352.264291 59.018175 
C 345.61558 59.018175 339.238288 61.659736 334.536939 66.361085 
C 329.83559 71.062434 327.194029 77.439726 327.194029 84.088438 
C 327.194029 90.737149 329.83559 97.114441 334.536939 101.81579 
C 339.238288 106.517139 345.61558 109.1587 352.264291 109.1587 
z
" clip-path="url(#pc212a82f52)" style="fill: #c70039; fill-opacity: 0.99; stroke: #c70039; stroke-opacity: 0.99"/>
    <path d="M 263.109549 98.9298 
C 269.517007 98.9298 275.662894 96.38409 280.193651 91.853333 
C 284.724408 87.322576 287.270118 81.176689 287.270118 74.769231 
C 287.270118 68.361773 284.724408 62.215885 280.193651 57.685128 
C 275.662894 53.154371 269.517007 50.608661 263.109549 50.608661 
C 256.702091 50.608661 250.556203 53.154371 246.025446 57.685128 
C 241.494689 62.215885 238.948979 68.361773 238.948979 74.769231 
C 238.948979 81.176689 241.494689 87.322576 246.025446 91.853333 
C 250.556203 96.38409 256.702091 98.9298 263.109549 98.9298 
z
" clip-path="url(#pc212a82f52)" style="fill: #c70039; fill-opacity: 0.99; stroke: #c70039; stroke-opacity: 0.99"/>
    <path d="M 177.851298 126.437764 
C 184.247519 126.437764 190.382628 123.896519 194.905439 119.373708 
C 199.42825 114.850897 201.969495 108.715788 201.969495 102.319567 
C 201.969495 95.923347 199.42825 89.788238 194.905439 85.265427 
C 190.382628 80.742616 184.247519 78.20137 177.851298 78.20137 
C 171.455077 78.20137 165.319968 80.742616 160.797157 85.265427 
C 156.274346 89.788238 153.733101 95.923347 153.733101 102.319567 
C 153.733101 108.715788 156.274346 114.850897 160.797157 119.373708 
C 165.319968 123.896519 171.455077 126.437764 177.851298 126.437764 
z
" clip-path="url(#pc212a82f52)" style="fill: #c70039; fill-opacity: 0.99; stroke: #c70039; stroke-opacity: 0.99"/>
    <path d="M 111.231477 186.093926 
C 117.627698 186.093926 123.762807 183.55268 128.285618 179.029869 
C 132.808429 174.507058 135.349674 168.371949 135.349674 161.975729 
C 135.349674 155.579508 132.808429 149.444399 128.285618 144.921588 
C 123.762807 140.398777 117.627698 137.857532 111.231477 137.857532 
C 104.835256 137.857532 98.700147 140.398777 94.177336 144.921588 
C 89.654525 149.444399 87.11328 155.579508 87.11328 161.975729 
C 87.11328 168.371949 89.654525 174.507058 94.177336 179.029869 
C 98.700147 183.55268 104.835256 186.093926 111.231477 186.093926 
z
" clip-path="url(#pc212a82f52)" style="fill: #c70039; fill-opacity: 0.99; stroke: #c70039; stroke-opacity: 0.99"/>
    <path d="M 74.769231 266.350959 
C 80.84989 266.350959 86.682319 263.935087 90.981994 259.635412 
C 95.281669 255.335737 97.697541 249.503308 97.697541 243.422649 
C 97.697541 237.34199 95.281669 231.509561 90.981994 227.209885 
C 86.682319 222.91021 80.84989 220.494339 74.769231 220.494339 
C 68.688572 220.494339 62.856142 222.91021 58.556467 227.209885 
C 54.256792 231.509561 51.840921 237.34199 51.840921 243.422649 
C 51.840921 249.503308 54.256792 255.335737 58.556467 259.635412 
C 62.856142 263.935087 68.688572 266.350959 74.769231 266.350959 
z
" clip-path="url(#pc212a82f52)" style="fill: #c70039; fill-opacity: 0.99; stroke: #c70039; stroke-opacity: 0.99"/>
    <path d="M 74.769244 355.416692 
C 80.826297 355.416692 86.636085 353.010199 90.919069 348.727215 
C 95.202053 344.444231 97.608546 338.634443 97.608546 332.577389 
C 97.608546 326.520336 95.202053 320.710548 90.919069 316.427564 
C 86.636085 312.14458 80.826297 309.738087 74.769244 309.738087 
C 68.71219 309.738087 62.902402 312.14458 58.619418 316.427564 
C 54.336434 320.710548 51.929941 326.520336 51.929941 332.577389 
C 51.929941 338.634443 54.336434 344.444231 58.619418 348.727215 
C 62.902402 353.010199 68.71219 355.416692 74.769244 355.416692 
z
" clip-path="url(#pc212a82f52)" style="fill: #c70039; fill-opacity: 0.99; stroke: #c70039; stroke-opacity: 0.99"/>
    <path d="M 111.23149 435.171214 
C 116.839721 435.171214 122.219009 432.94304 126.184627 428.977422 
C 130.150246 425.011803 132.37842 419.632515 132.37842 414.024284 
C 132.37842 408.416053 130.150246 403.036765 126.184627 399.071146 
C 122.219009 395.105528 116.839721 392.877354 111.23149 392.877354 
C 105.623258 392.877354 100.243971 395.105528 96.278352 399.071146 
C 92.312734 403.036765 90.08456 408.416053 90.08456 414.024284 
C 90.08456 419.632515 92.312734 425.011803 96.278352 428.977422 
C 100.243971 432.94304 105.623258 435.171214 111.23149 435.171214 
z
" clip-path="url(#pc212a82f52)" style="fill: #c70039; fill-opacity: 0.99; stroke: #c70039; stroke-opacity: 0.99"/>
    <path d="M 177.85133 494.01293 
C 183.243568 494.01293 188.41568 491.870571 192.228568 488.057683 
C 196.041455 484.244795 198.183814 479.072683 198.183814 473.680446 
C 198.183814 468.288208 196.041455 463.116096 192.228568 459.303208 
C 188.41568 455.49032 183.243568 453.347961 177.85133 453.347961 
C 172.459092 453.347961 167.286981 455.49032 163.474093 459.303208 
C 159.661205 463.116096 157.518846 468.288208 157.518846 473.680446 
C 157.518846 479.072683 159.661205 484.244795 163.474093 488.057683 
C 167.286981 491.870571 172.459092 494.01293 177.85133 494.01293 
z
" clip-path="url(#pc212a82f52)" style="fill: #c70039; fill-opacity: 0.99; stroke: #c70039; stroke-opacity: 0.99"/>
    <path d="M 263.109587 521.428611 
C 268.466117 521.428611 273.603979 519.300439 277.391618 515.5128 
C 281.179257 511.725161 283.307429 506.5873 283.307429 501.230769 
C 283.307429 495.874239 281.179257 490.736377 277.391618 486.948738 
C 273.603979 483.161099 268.466117 481.032927 263.109587 481.032927 
C 257.753057 481.032927 252.615195 483.161099 248.827556 486.948738 
C 245.039917 490.736377 242.911745 495.874239 242.911745 501.230769 
C 242.911745 506.5873 245.039917 511.725161 248.827556 515.5128 
C 252.615195 519.300439 257.753057 521.428611 263.109587 521.428611 
z
" clip-path="url(#pc212a82f52)" style="fill: #c70039; fill-opacity: 0.99; stroke: #c70039; stroke-opacity: 0.99"/>
    <path d="M 352.264323 511.690283 
C 357.509705 511.690283 362.540955 509.606271 366.25 505.897226 
C 369.959045 502.188181 372.043057 497.156931 372.043057 491.91155 
C 372.043057 486.666168 369.959045 481.634918 366.25 477.925873 
C 362.540955 474.216828 357.509705 472.132816 352.264323 472.132816 
C 347.018942 472.132816 341.987692 474.216828 338.278647 477.925873 
C 334.569602 481.634918 332.48559 486.666168 332.48559 491.91155 
C 332.48559 497.156931 334.569602 502.188181 338.278647 505.897226 
C 341.987692 509.606271 347.018942 511.690283 352.264323 511.690283 
z
" clip-path="url(#pc212a82f52)" style="fill: #c70039; fill-opacity: 0.99; stroke: #c70039; stroke-opacity: 0.99"/>
    <path d="M 429.899888 466.732362 
C 435.044352 466.732362 439.978804 464.688445 443.616488 461.05076 
C 447.254173 457.413075 449.29809 452.478623 449.29809 447.33416 
C 449.29809 442.189697 447.254173 437.255245 443.616488 433.61756 
C 439.978804 429.979875 435.044352 427.935958 429.899888 427.935958 
C 424.755425 427.935958 419.820973 429.979875 416.183288 433.61756 
C 412.545604 437.255245 410.501687 442.189697 410.501687 447.33416 
C 410.501687 452.478623 412.545604 457.413075 416.183288 461.05076 
C 419.820973 464.688445 424.755425 466.732362 429.899888 466.732362 
z
" clip-path="url(#pc212a82f52)" style="fill: #c70039; fill-opacity: 0.99; stroke: #c70039; stroke-opacity: 0.99"/>
    <path d="M 482.592374 394.571376 
C 487.728009 394.571376 492.653994 392.530967 496.285437 388.899524 
C 499.91688 385.268081 501.95729 380.342096 501.95729 375.20646 
C 501.95729 370.070824 499.91688 365.144839 496.285437 361.513396 
C 492.653994 357.881953 487.728009 355.841543 482.592374 355.841543 
C 477.456738 355.841543 472.530753 357.881953 468.89931 361.513396 
C 465.267867 365.144839 463.227457 370.070824 463.227457 375.20646 
C 463.227457 380.342096 465.267867 385.268081 468.89931 388.899524 
C 472.530753 392.530967 477.456738 394.571376 482.592374 394.571376 
z
" clip-path="url(#pc212a82f52)" style="fill: #c70039; fill-opacity: 0.99; stroke: #c70039; stroke-opacity: 0.99"/>
   </g>
   <g id="text_1">
    <g id="patch_2">
     <path d="M 451.877722 296.315156 
L 550.583816 296.315156 
L 550.583816 279.684844 
L 451.877722 279.684844 
z
" clip-path="url(#pc212a82f52)" style="fill: #ffffff; opacity: 0.7; stroke: #000000; stroke-linejoin: miter"/>
    </g>
    <g clip-path="url(#pc212a82f52)">
     <!-- M. Night Shyamalan -->
     <g transform="translate(455.837722 290.483437)scale(0.09 -0.09)">
      <defs>
       <path id="DejaVuSans-4d" d="M 628 4666 
L 1569 4666 
L 2759 1491 
L 3956 4666 
L 4897 4666 
L 4897 0 
L 4281 0 
L 4281 4097 
L 3078 897 
L 2444 897 
L 1241 4097 
L 1241 0 
L 628 0 
L 628 4666 
z
" transform="scale(0.015625)"/>
       <path id="DejaVuSans-2e" d="M 684 794 
L 1344 794 
L 1344 0 
L 684 0 
L 684 794 
z
" transform="scale(0.015625)"/>
       <path id="DejaVuSans-20" transform="scale(0.015625)"/>
       <path id="DejaVuSans-4e" d="M 628 4666 
L 1478 4666 
L 3547 763 
L 3547 4666 
L 4159 4666 
L 4159 0 
L 3309 0 
L 1241 3903 
L 1241 0 
L 628 0 
L 628 4666 
z
" transform="scale(0.015625)"/>
       <path id="DejaVuSans-69" d="M 603 3500 
L 1178 3500 
L 1178 0 
L 603 0 
L 603 3500 
z
M 603 4863 
L 1178 4863 
L 1178 4134 
L 603 4134 
L 603 4863 
z
" transform="scale(0.015625)"/>
       <path id="DejaVuSans-67" d="M 2906 1791 
Q 2906 2416 2648 2759 
Q 2391 3103 1925 3103 
Q 1463 3103 1205 2759 
Q 947 2416 947 1791 
Q 947 1169 1205 825 
Q 1463 481 1925 481 
Q 2391 481 2648 825 
Q 2906 1169 2906 1791 
z
M 3481 434 
Q 3481 -459 3084 -895 
Q 2688 -1331 1869 -1331 
Q 1566 -1331 1297 -1286 
Q 1028 -1241 775 -1147 
L 775 -588 
Q 1028 -725 1275 -790 
Q 1522 -856 1778 -856 
Q 2344 -856 2625 -561 
Q 2906 -266 2906 331 
L 2906 616 
Q 2728 306 2450 153 
Q 2172 0 1784 0 
Q 1141 0 747 490 
Q 353 981 353 1791 
Q 353 2603 747 3093 
Q 1141 3584 1784 3584 
Q 2172 3584 2450 3431 
Q 2728 3278 2906 2969 
L 2906 3500 
L 3481 3500 
L 3481 434 
z
" transform="scale(0.015625)"/>
       <path id="DejaVuSans-68" d="M 3513 2113 
L 3513 0 
L 2938 0 
L 2938 2094 
Q 2938 2591 2744 2837 
Q 2550 3084 2163 3084 
Q 1697 3084 1428 2787 
Q 1159 2491 1159 1978 
L 1159 0 
L 581 0 
L 581 4863 
L 1159 4863 
L 1159 2956 
Q 1366 3272 1645 3428 
Q 1925 3584 2291 3584 
Q 2894 3584 3203 3211 
Q 3513 2838 3513 2113 
z
" transform="scale(0.015625)"/>
       <path id="DejaVuSans-74" d="M 1172 4494 
L 1172 3500 
L 2356 3500 
L 2356 3053 
L 1172 3053 
L 1172 1153 
Q 1172 725 1289 603 
Q 1406 481 1766 481 
L 2356 481 
L 2356 0 
L 1766 0 
Q 1100 0 847 248 
Q 594 497 594 1153 
L 594 3053 
L 172 3053 
L 172 3500 
L 594 3500 
L 594 4494 
L 1172 4494 
z
" transform="scale(0.015625)"/>
       <path id="DejaVuSans-53" d="M 3425 4513 
L 3425 3897 
Q 3066 4069 2747 4153 
Q 2428 4238 2131 4238 
Q 1616 4238 1336 4038 
Q 1056 3838 1056 3469 
Q 1056 3159 1242 3001 
Q 1428 2844 1947 2747 
L 2328 2669 
Q 3034 2534 3370 2195 
Q 3706 1856 3706 1288 
Q 3706 609 3251 259 
Q 2797 -91 1919 -91 
Q 1588 -91 1214 -16 
Q 841 59 441 206 
L 441 856 
Q 825 641 1194 531 
Q 1563 422 1919 422 
Q 2459 422 2753 634 
Q 3047 847 3047 1241 
Q 3047 1584 2836 1778 
Q 2625 1972 2144 2069 
L 1759 2144 
Q 1053 2284 737 2584 
Q 422 2884 422 3419 
Q 422 4038 858 4394 
Q 1294 4750 2059 4750 
Q 2388 4750 2728 4690 
Q 3069 4631 3425 4513 
z
" transform="scale(0.015625)"/>
       <path id="DejaVuSans-79" d="M 2059 -325 
Q 1816 -950 1584 -1140 
Q 1353 -1331 966 -1331 
L 506 -1331 
L 506 -850 
L 844 -850 
Q 1081 -850 1212 -737 
Q 1344 -625 1503 -206 
L 1606 56 
L 191 3500 
L 800 3500 
L 1894 763 
L 2988 3500 
L 3597 3500 
L 2059 -325 
z
" transform="scale(0.015625)"/>
       <path id="DejaVuSans-61" d="M 2194 1759 
Q 1497 1759 1228 1600 
Q 959 1441 959 1056 
Q 959 750 1161 570 
Q 1363 391 1709 391 
Q 2188 391 2477 730 
Q 2766 1069 2766 1631 
L 2766 1759 
L 2194 1759 
z
M 3341 1997 
L 3341 0 
L 2766 0 
L 2766 531 
Q 2569 213 2275 61 
Q 1981 -91 1556 -91 
Q 1019 -91 701 211 
Q 384 513 384 1019 
Q 384 1609 779 1909 
Q 1175 2209 1959 2209 
L 2766 2209 
L 2766 2266 
Q 2766 2663 2505 2880 
Q 2244 3097 1772 3097 
Q 1472 3097 1187 3025 
Q 903 2953 641 2809 
L 641 3341 
Q 956 3463 1253 3523 
Q 1550 3584 1831 3584 
Q 2591 3584 2966 3190 
Q 3341 2797 3341 1997 
z
" transform="scale(0.015625)"/>
       <path id="DejaVuSans-6d" d="M 3328 2828 
Q 3544 3216 3844 3400 
Q 4144 3584 4550 3584 
Q 5097 3584 5394 3201 
Q 5691 2819 5691 2113 
L 5691 0 
L 5113 0 
L 5113 2094 
Q 5113 2597 4934 2840 
Q 4756 3084 4391 3084 
Q 3944 3084 3684 2787 
Q 3425 2491 3425 1978 
L 3425 0 
L 2847 0 
L 2847 2094 
Q 2847 2600 2669 2842 
Q 2491 3084 2119 3084 
Q 1678 3084 1418 2786 
Q 1159 2488 1159 1978 
L 1159 0 
L 581 0 
L 581 3500 
L 1159 3500 
L 1159 2956 
Q 1356 3278 1631 3431 
Q 1906 3584 2284 3584 
Q 2666 3584 2933 3390 
Q 3200 3197 3328 2828 
z
" transform="scale(0.015625)"/>
       <path id="DejaVuSans-6c" d="M 603 4863 
L 1178 4863 
L 1178 0 
L 603 0 
L 603 4863 
z
" transform="scale(0.015625)"/>
       <path id="DejaVuSans-6e" d="M 3513 2113 
L 3513 0 
L 2938 0 
L 2938 2094 
Q 2938 2591 2744 2837 
Q 2550 3084 2163 3084 
Q 1697 3084 1428 2787 
Q 1159 2491 1159 1978 
L 1159 0 
L 581 0 
L 581 3500 
L 1159 3500 
L 1159 2956 
Q 1366 3272 1645 3428 
Q 1925 3584 2291 3584 
Q 2894 3584 3203 3211 
Q 3513 2838 3513 2113 
z
" transform="scale(0.015625)"/>
      </defs>
      <use xlink:href="#DejaVuSans-4d"/>
      <use xlink:href="#DejaVuSans-2e" x="86.279297"/>
      <use xlink:href="#DejaVuSans-20" x="118.066406"/>
      <use xlink:href="#DejaVuSans-4e" x="149.853516"/>
      <use xlink:href="#DejaVuSans-69" x="224.658203"/>
      <use xlink:href="#DejaVuSans-67" x="252.441406"/>
      <use xlink:href="#DejaVuSans-68" x="315.917969"/>
      <use xlink:href="#DejaVuSans-74" x="379.296875"/>
      <use xlink:href="#DejaVuSans-20" x="418.505859"/>
      <use xlink:href="#DejaVuSans-53" x="450.292969"/>
      <use xlink:href="#DejaVuSans-68" x="513.769531"/>
      <use xlink:href="#DejaVuSans-79" x="577.148438"/>
      <use xlink:href="#DejaVuSans-61" x="636.328125"/>
      <use xlink:href="#DejaVuSans-6d" x="697.607422"/>
      <use xlink:href="#DejaVuSans-61" x="795.019531"/>
      <use xlink:href="#DejaVuSans-6c" x="856.298828"/>
      <use xlink:href="#DejaVuSans-61" x="884.082031"/>
      <use xlink:href="#DejaVuSans-6e" x="945.361328"/>
     </g>
    </g>
   </g>
   <g id="text_2">
    <g id="patch_3">
     <path d="M 451.835551 209.108665 
L 513.349145 209.108665 
L 513.349145 192.478352 
L 451.835551 192.478352 
z
" clip-path="url(#pc212a82f52)" style="fill: #ffffff; opacity: 0.7; stroke: #000000; stroke-linejoin: miter"/>
    </g>
    <g clip-path="url(#pc212a82f52)">
     <!-- Kevin Smith -->
     <g transform="translate(455.795551 203.276946)scale(0.09 -0.09)">
      <defs>
       <path id="DejaVuSans-4b" d="M 628 4666 
L 1259 4666 
L 1259 2694 
L 3353 4666 
L 4166 4666 
L 1850 2491 
L 4331 0 
L 3500 0 
L 1259 2247 
L 1259 0 
L 628 0 
L 628 4666 
z
" transform="scale(0.015625)"/>
       <path id="DejaVuSans-65" d="M 3597 1894 
L 3597 1613 
L 953 1613 
Q 991 1019 1311 708 
Q 1631 397 2203 397 
Q 2534 397 2845 478 
Q 3156 559 3463 722 
L 3463 178 
Q 3153 47 2828 -22 
Q 2503 -91 2169 -91 
Q 1331 -91 842 396 
Q 353 884 353 1716 
Q 353 2575 817 3079 
Q 1281 3584 2069 3584 
Q 2775 3584 3186 3129 
Q 3597 2675 3597 1894 
z
M 3022 2063 
Q 3016 2534 2758 2815 
Q 2500 3097 2075 3097 
Q 1594 3097 1305 2825 
Q 1016 2553 972 2059 
L 3022 2063 
z
" transform="scale(0.015625)"/>
       <path id="DejaVuSans-76" d="M 191 3500 
L 800 3500 
L 1894 563 
L 2988 3500 
L 3597 3500 
L 2284 0 
L 1503 0 
L 191 3500 
z
" transform="scale(0.015625)"/>
      </defs>
      <use xlink:href="#DejaVuSans-4b"/>
      <use xlink:href="#DejaVuSans-65" x="60.576172"/>
      <use xlink:href="#DejaVuSans-76" x="122.099609"/>
      <use xlink:href="#DejaVuSans-69" x="181.279297"/>
      <use xlink:href="#DejaVuSans-6e" x="209.0625"/>
      <use xlink:href="#DejaVuSans-20" x="272.441406"/>
      <use xlink:href="#DejaVuSans-53" x="304.228516"/>
      <use xlink:href="#DejaVuSans-6d" x="367.705078"/>
      <use xlink:href="#DejaVuSans-69" x="465.117188"/>
      <use xlink:href="#DejaVuSans-74" x="492.900391"/>
      <use xlink:href="#DejaVuSans-68" x="532.109375"/>
     </g>
    </g>
   </g>
   <g id="text_3">
    <g id="patch_4">
     <path d="M 390.583912 136.980958 
L 469.215787 136.980958 
L 469.215787 120.350645 
L 390.583912 120.350645 
z
" clip-path="url(#pc212a82f52)" style="fill: #ffffff; opacity: 0.7; stroke: #000000; stroke-linejoin: miter"/>
    </g>
    <g clip-path="url(#pc212a82f52)">
     <!-- Charles Chaplin -->
     <g transform="translate(394.543912 131.149239)scale(0.09 -0.09)">
      <defs>
       <path id="DejaVuSans-43" d="M 4122 4306 
L 4122 3641 
Q 3803 3938 3442 4084 
Q 3081 4231 2675 4231 
Q 1875 4231 1450 3742 
Q 1025 3253 1025 2328 
Q 1025 1406 1450 917 
Q 1875 428 2675 428 
Q 3081 428 3442 575 
Q 3803 722 4122 1019 
L 4122 359 
Q 3791 134 3420 21 
Q 3050 -91 2638 -91 
Q 1578 -91 968 557 
Q 359 1206 359 2328 
Q 359 3453 968 4101 
Q 1578 4750 2638 4750 
Q 3056 4750 3426 4639 
Q 3797 4528 4122 4306 
z
" transform="scale(0.015625)"/>
       <path id="DejaVuSans-72" d="M 2631 2963 
Q 2534 3019 2420 3045 
Q 2306 3072 2169 3072 
Q 1681 3072 1420 2755 
Q 1159 2438 1159 1844 
L 1159 0 
L 581 0 
L 581 3500 
L 1159 3500 
L 1159 2956 
Q 1341 3275 1631 3429 
Q 1922 3584 2338 3584 
Q 2397 3584 2469 3576 
Q 2541 3569 2628 3553 
L 2631 2963 
z
" transform="scale(0.015625)"/>
       <path id="DejaVuSans-73" d="M 2834 3397 
L 2834 2853 
Q 2591 2978 2328 3040 
Q 2066 3103 1784 3103 
Q 1356 3103 1142 2972 
Q 928 2841 928 2578 
Q 928 2378 1081 2264 
Q 1234 2150 1697 2047 
L 1894 2003 
Q 2506 1872 2764 1633 
Q 3022 1394 3022 966 
Q 3022 478 2636 193 
Q 2250 -91 1575 -91 
Q 1294 -91 989 -36 
Q 684 19 347 128 
L 347 722 
Q 666 556 975 473 
Q 1284 391 1588 391 
Q 1994 391 2212 530 
Q 2431 669 2431 922 
Q 2431 1156 2273 1281 
Q 2116 1406 1581 1522 
L 1381 1569 
Q 847 1681 609 1914 
Q 372 2147 372 2553 
Q 372 3047 722 3315 
Q 1072 3584 1716 3584 
Q 2034 3584 2315 3537 
Q 2597 3491 2834 3397 
z
" transform="scale(0.015625)"/>
       <path id="DejaVuSans-70" d="M 1159 525 
L 1159 -1331 
L 581 -1331 
L 581 3500 
L 1159 3500 
L 1159 2969 
Q 1341 3281 1617 3432 
Q 1894 3584 2278 3584 
Q 2916 3584 3314 3078 
Q 3713 2572 3713 1747 
Q 3713 922 3314 415 
Q 2916 -91 2278 -91 
Q 1894 -91 1617 61 
Q 1341 213 1159 525 
z
M 3116 1747 
Q 3116 2381 2855 2742 
Q 2594 3103 2138 3103 
Q 1681 3103 1420 2742 
Q 1159 2381 1159 1747 
Q 1159 1113 1420 752 
Q 1681 391 2138 391 
Q 2594 391 2855 752 
Q 3116 1113 3116 1747 
z
" transform="scale(0.015625)"/>
      </defs>
      <use xlink:href="#DejaVuSans-43"/>
      <use xlink:href="#DejaVuSans-68" x="69.824219"/>
      <use xlink:href="#DejaVuSans-61" x="133.203125"/>
      <use xlink:href="#DejaVuSans-72" x="194.482422"/>
      <use xlink:href="#DejaVuSans-6c" x="235.595703"/>
      <use xlink:href="#DejaVuSans-65" x="263.378906"/>
      <use xlink:href="#DejaVuSans-73" x="324.902344"/>
      <use xlink:href="#DejaVuSans-20" x="377.001953"/>
      <use xlink:href="#DejaVuSans-43" x="408.789062"/>
      <use xlink:href="#DejaVuSans-68" x="478.613281"/>
      <use xlink:href="#DejaVuSans-61" x="541.992188"/>
      <use xlink:href="#DejaVuSans-70" x="603.271484"/>
      <use xlink:href="#DejaVuSans-6c" x="666.748047"/>
      <use xlink:href="#DejaVuSans-69" x="694.53125"/>
      <use xlink:href="#DejaVuSans-6e" x="722.314453"/>
     </g>
    </g>
   </g>
   <g id="text_4">
    <g id="patch_5">
     <path d="M 319.265229 92.403594 
L 385.263354 92.403594 
L 385.263354 75.773281 
L 319.265229 75.773281 
z
" clip-path="url(#pc212a82f52)" style="fill: #ffffff; opacity: 0.7; stroke: #000000; stroke-linejoin: miter"/>
    </g>
    <g clip-path="url(#pc212a82f52)">
     <!-- Herbert Ross -->
     <g transform="translate(323.225229 86.571875)scale(0.09 -0.09)">
      <defs>
       <path id="DejaVuSans-48" d="M 628 4666 
L 1259 4666 
L 1259 2753 
L 3553 2753 
L 3553 4666 
L 4184 4666 
L 4184 0 
L 3553 0 
L 3553 2222 
L 1259 2222 
L 1259 0 
L 628 0 
L 628 4666 
z
" transform="scale(0.015625)"/>
       <path id="DejaVuSans-62" d="M 3116 1747 
Q 3116 2381 2855 2742 
Q 2594 3103 2138 3103 
Q 1681 3103 1420 2742 
Q 1159 2381 1159 1747 
Q 1159 1113 1420 752 
Q 1681 391 2138 391 
Q 2594 391 2855 752 
Q 3116 1113 3116 1747 
z
M 1159 2969 
Q 1341 3281 1617 3432 
Q 1894 3584 2278 3584 
Q 2916 3584 3314 3078 
Q 3713 2572 3713 1747 
Q 3713 922 3314 415 
Q 2916 -91 2278 -91 
Q 1894 -91 1617 61 
Q 1341 213 1159 525 
L 1159 0 
L 581 0 
L 581 4863 
L 1159 4863 
L 1159 2969 
z
" transform="scale(0.015625)"/>
       <path id="DejaVuSans-52" d="M 2841 2188 
Q 3044 2119 3236 1894 
Q 3428 1669 3622 1275 
L 4263 0 
L 3584 0 
L 2988 1197 
Q 2756 1666 2539 1819 
Q 2322 1972 1947 1972 
L 1259 1972 
L 1259 0 
L 628 0 
L 628 4666 
L 2053 4666 
Q 2853 4666 3247 4331 
Q 3641 3997 3641 3322 
Q 3641 2881 3436 2590 
Q 3231 2300 2841 2188 
z
M 1259 4147 
L 1259 2491 
L 2053 2491 
Q 2509 2491 2742 2702 
Q 2975 2913 2975 3322 
Q 2975 3731 2742 3939 
Q 2509 4147 2053 4147 
L 1259 4147 
z
" transform="scale(0.015625)"/>
       <path id="DejaVuSans-6f" d="M 1959 3097 
Q 1497 3097 1228 2736 
Q 959 2375 959 1747 
Q 959 1119 1226 758 
Q 1494 397 1959 397 
Q 2419 397 2687 759 
Q 2956 1122 2956 1747 
Q 2956 2369 2687 2733 
Q 2419 3097 1959 3097 
z
M 1959 3584 
Q 2709 3584 3137 3096 
Q 3566 2609 3566 1747 
Q 3566 888 3137 398 
Q 2709 -91 1959 -91 
Q 1206 -91 779 398 
Q 353 888 353 1747 
Q 353 2609 779 3096 
Q 1206 3584 1959 3584 
z
" transform="scale(0.015625)"/>
      </defs>
      <use xlink:href="#DejaVuSans-48"/>
      <use xlink:href="#DejaVuSans-65" x="75.195312"/>
      <use xlink:href="#DejaVuSans-72" x="136.71875"/>
      <use xlink:href="#DejaVuSans-62" x="177.832031"/>
      <use xlink:href="#DejaVuSans-65" x="241.308594"/>
      <use xlink:href="#DejaVuSans-72" x="302.832031"/>
      <use xlink:href="#DejaVuSans-74" x="343.945312"/>
      <use xlink:href="#DejaVuSans-20" x="383.154297"/>
      <use xlink:href="#DejaVuSans-52" x="414.941406"/>
      <use xlink:href="#DejaVuSans-6f" x="479.923828"/>
      <use xlink:href="#DejaVuSans-73" x="541.105469"/>
      <use xlink:href="#DejaVuSans-73" x="593.205078"/>
     </g>
    </g>
   </g>
   <g id="text_5">
    <g id="patch_6">
     <path d="M 231.484392 83.084387 
L 294.734705 83.084387 
L 294.734705 66.454075 
L 231.484392 66.454075 
z
" clip-path="url(#pc212a82f52)" style="fill: #ffffff; opacity: 0.7; stroke: #000000; stroke-linejoin: miter"/>
    </g>
    <g clip-path="url(#pc212a82f52)">
     <!-- Tamra Davis -->
     <g transform="translate(235.444392 77.252668)scale(0.09 -0.09)">
      <defs>
       <path id="DejaVuSans-54" d="M -19 4666 
L 3928 4666 
L 3928 4134 
L 2272 4134 
L 2272 0 
L 1638 0 
L 1638 4134 
L -19 4134 
L -19 4666 
z
" transform="scale(0.015625)"/>
       <path id="DejaVuSans-44" d="M 1259 4147 
L 1259 519 
L 2022 519 
Q 2988 519 3436 956 
Q 3884 1394 3884 2338 
Q 3884 3275 3436 3711 
Q 2988 4147 2022 4147 
L 1259 4147 
z
M 628 4666 
L 1925 4666 
Q 3281 4666 3915 4102 
Q 4550 3538 4550 2338 
Q 4550 1131 3912 565 
Q 3275 0 1925 0 
L 628 0 
L 628 4666 
z
" transform="scale(0.015625)"/>
      </defs>
      <use xlink:href="#DejaVuSans-54"/>
      <use xlink:href="#DejaVuSans-61" x="44.583984"/>
      <use xlink:href="#DejaVuSans-6d" x="105.863281"/>
      <use xlink:href="#DejaVuSans-72" x="203.275391"/>
      <use xlink:href="#DejaVuSans-61" x="244.388672"/>
      <use xlink:href="#DejaVuSans-20" x="305.667969"/>
      <use xlink:href="#DejaVuSans-44" x="337.455078"/>
      <use xlink:href="#DejaVuSans-61" x="414.457031"/>
      <use xlink:href="#DejaVuSans-76" x="475.736328"/>
      <use xlink:href="#DejaVuSans-69" x="534.916016"/>
      <use xlink:href="#DejaVuSans-73" x="562.699219"/>
     </g>
    </g>
   </g>
   <g id="text_6">
    <g id="patch_7">
     <path d="M 141.368251 110.634724 
L 214.334345 110.634724 
L 214.334345 94.004411 
L 141.368251 94.004411 
z
" clip-path="url(#pc212a82f52)" style="fill: #ffffff; opacity: 0.7; stroke: #000000; stroke-linejoin: miter"/>
    </g>
    <g clip-path="url(#pc212a82f52)">
     <!-- William Hanna -->
     <g transform="translate(145.328251 104.803005)scale(0.09 -0.09)">
      <defs>
       <path id="DejaVuSans-57" d="M 213 4666 
L 850 4666 
L 1831 722 
L 2809 4666 
L 3519 4666 
L 4500 722 
L 5478 4666 
L 6119 4666 
L 4947 0 
L 4153 0 
L 3169 4050 
L 2175 0 
L 1381 0 
L 213 4666 
z
" transform="scale(0.015625)"/>
      </defs>
      <use xlink:href="#DejaVuSans-57"/>
      <use xlink:href="#DejaVuSans-69" x="96.626953"/>
      <use xlink:href="#DejaVuSans-6c" x="124.410156"/>
      <use xlink:href="#DejaVuSans-6c" x="152.193359"/>
      <use xlink:href="#DejaVuSans-69" x="179.976562"/>
      <use xlink:href="#DejaVuSans-61" x="207.759766"/>
      <use xlink:href="#DejaVuSans-6d" x="269.039062"/>
      <use xlink:href="#DejaVuSans-20" x="366.451172"/>
      <use xlink:href="#DejaVuSans-48" x="398.238281"/>
      <use xlink:href="#DejaVuSans-61" x="473.433594"/>
      <use xlink:href="#DejaVuSans-6e" x="534.712891"/>
      <use xlink:href="#DejaVuSans-6e" x="598.091797"/>
      <use xlink:href="#DejaVuSans-61" x="661.470703"/>
     </g>
    </g>
   </g>
   <g id="text_7">
    <g id="patch_8">
     <path d="M 73.010305 170.290885 
L 149.452649 170.290885 
L 149.452649 153.660572 
L 73.010305 153.660572 
z
" clip-path="url(#pc212a82f52)" style="fill: #ffffff; opacity: 0.7; stroke: #000000; stroke-linejoin: miter"/>
    </g>
    <g clip-path="url(#pc212a82f52)">
     <!-- Joseph Barbera -->
     <g transform="translate(76.970305 164.459166)scale(0.09 -0.09)">
      <defs>
       <path id="DejaVuSans-4a" d="M 628 4666 
L 1259 4666 
L 1259 325 
Q 1259 -519 939 -900 
Q 619 -1281 -91 -1281 
L -331 -1281 
L -331 -750 
L -134 -750 
Q 284 -750 456 -515 
Q 628 -281 628 325 
L 628 4666 
z
" transform="scale(0.015625)"/>
       <path id="DejaVuSans-42" d="M 1259 2228 
L 1259 519 
L 2272 519 
Q 2781 519 3026 730 
Q 3272 941 3272 1375 
Q 3272 1813 3026 2020 
Q 2781 2228 2272 2228 
L 1259 2228 
z
M 1259 4147 
L 1259 2741 
L 2194 2741 
Q 2656 2741 2882 2914 
Q 3109 3088 3109 3444 
Q 3109 3797 2882 3972 
Q 2656 4147 2194 4147 
L 1259 4147 
z
M 628 4666 
L 2241 4666 
Q 2963 4666 3353 4366 
Q 3744 4066 3744 3513 
Q 3744 3084 3544 2831 
Q 3344 2578 2956 2516 
Q 3422 2416 3680 2098 
Q 3938 1781 3938 1306 
Q 3938 681 3513 340 
Q 3088 0 2303 0 
L 628 0 
L 628 4666 
z
" transform="scale(0.015625)"/>
      </defs>
      <use xlink:href="#DejaVuSans-4a"/>
      <use xlink:href="#DejaVuSans-6f" x="29.492188"/>
      <use xlink:href="#DejaVuSans-73" x="90.673828"/>
      <use xlink:href="#DejaVuSans-65" x="142.773438"/>
      <use xlink:href="#DejaVuSans-70" x="204.296875"/>
      <use xlink:href="#DejaVuSans-68" x="267.773438"/>
      <use xlink:href="#DejaVuSans-20" x="331.152344"/>
      <use xlink:href="#DejaVuSans-42" x="362.939453"/>
      <use xlink:href="#DejaVuSans-61" x="431.542969"/>
      <use xlink:href="#DejaVuSans-72" x="492.822266"/>
      <use xlink:href="#DejaVuSans-62" x="533.935547"/>
      <use xlink:href="#DejaVuSans-65" x="597.412109"/>
      <use xlink:href="#DejaVuSans-72" x="658.935547"/>
      <use xlink:href="#DejaVuSans-61" x="700.048828"/>
     </g>
    </g>
   </g>
   <g id="text_8">
    <g id="patch_9">
     <path d="M 34.626418 251.737805 
L 114.912043 251.737805 
L 114.912043 235.107493 
L 34.626418 235.107493 
z
" clip-path="url(#pc212a82f52)" style="fill: #ffffff; opacity: 0.7; stroke: #000000; stroke-linejoin: miter"/>
    </g>
    <g clip-path="url(#pc212a82f52)">
     <!-- Gordon Douglas -->
     <g transform="translate(38.586418 245.906086)scale(0.09 -0.09)">
      <defs>
       <path id="DejaVuSans-47" d="M 3809 666 
L 3809 1919 
L 2778 1919 
L 2778 2438 
L 4434 2438 
L 4434 434 
Q 4069 175 3628 42 
Q 3188 -91 2688 -91 
Q 1594 -91 976 548 
Q 359 1188 359 2328 
Q 359 3472 976 4111 
Q 1594 4750 2688 4750 
Q 3144 4750 3555 4637 
Q 3966 4525 4313 4306 
L 4313 3634 
Q 3963 3931 3569 4081 
Q 3175 4231 2741 4231 
Q 1884 4231 1454 3753 
Q 1025 3275 1025 2328 
Q 1025 1384 1454 906 
Q 1884 428 2741 428 
Q 3075 428 3337 486 
Q 3600 544 3809 666 
z
" transform="scale(0.015625)"/>
       <path id="DejaVuSans-64" d="M 2906 2969 
L 2906 4863 
L 3481 4863 
L 3481 0 
L 2906 0 
L 2906 525 
Q 2725 213 2448 61 
Q 2172 -91 1784 -91 
Q 1150 -91 751 415 
Q 353 922 353 1747 
Q 353 2572 751 3078 
Q 1150 3584 1784 3584 
Q 2172 3584 2448 3432 
Q 2725 3281 2906 2969 
z
M 947 1747 
Q 947 1113 1208 752 
Q 1469 391 1925 391 
Q 2381 391 2643 752 
Q 2906 1113 2906 1747 
Q 2906 2381 2643 2742 
Q 2381 3103 1925 3103 
Q 1469 3103 1208 2742 
Q 947 2381 947 1747 
z
" transform="scale(0.015625)"/>
       <path id="DejaVuSans-75" d="M 544 1381 
L 544 3500 
L 1119 3500 
L 1119 1403 
Q 1119 906 1312 657 
Q 1506 409 1894 409 
Q 2359 409 2629 706 
Q 2900 1003 2900 1516 
L 2900 3500 
L 3475 3500 
L 3475 0 
L 2900 0 
L 2900 538 
Q 2691 219 2414 64 
Q 2138 -91 1772 -91 
Q 1169 -91 856 284 
Q 544 659 544 1381 
z
M 1991 3584 
L 1991 3584 
z
" transform="scale(0.015625)"/>
      </defs>
      <use xlink:href="#DejaVuSans-47"/>
      <use xlink:href="#DejaVuSans-6f" x="77.490234"/>
      <use xlink:href="#DejaVuSans-72" x="138.671875"/>
      <use xlink:href="#DejaVuSans-64" x="178.035156"/>
      <use xlink:href="#DejaVuSans-6f" x="241.511719"/>
      <use xlink:href="#DejaVuSans-6e" x="302.693359"/>
      <use xlink:href="#DejaVuSans-20" x="366.072266"/>
      <use xlink:href="#DejaVuSans-44" x="397.859375"/>
      <use xlink:href="#DejaVuSans-6f" x="474.861328"/>
      <use xlink:href="#DejaVuSans-75" x="536.042969"/>
      <use xlink:href="#DejaVuSans-67" x="599.421875"/>
      <use xlink:href="#DejaVuSans-6c" x="662.898438"/>
      <use xlink:href="#DejaVuSans-61" x="690.681641"/>
      <use xlink:href="#DejaVuSans-73" x="751.960938"/>
     </g>
    </g>
   </g>
   <g id="text_9">
    <g id="patch_10">
     <path d="M 37.577447 340.892546 
L 111.96104 340.892546 
L 111.96104 324.262233 
L 37.577447 324.262233 
z
" clip-path="url(#pc212a82f52)" style="fill: #ffffff; opacity: 0.7; stroke: #000000; stroke-linejoin: miter"/>
    </g>
    <g clip-path="url(#pc212a82f52)">
     <!-- Dave Fleischer -->
     <g transform="translate(41.537447 335.060827)scale(0.09 -0.09)">
      <defs>
       <path id="DejaVuSans-46" d="M 628 4666 
L 3309 4666 
L 3309 4134 
L 1259 4134 
L 1259 2759 
L 3109 2759 
L 3109 2228 
L 1259 2228 
L 1259 0 
L 628 0 
L 628 4666 
z
" transform="scale(0.015625)"/>
       <path id="DejaVuSans-63" d="M 3122 3366 
L 3122 2828 
Q 2878 2963 2633 3030 
Q 2388 3097 2138 3097 
Q 1578 3097 1268 2742 
Q 959 2388 959 1747 
Q 959 1106 1268 751 
Q 1578 397 2138 397 
Q 2388 397 2633 464 
Q 2878 531 3122 666 
L 3122 134 
Q 2881 22 2623 -34 
Q 2366 -91 2075 -91 
Q 1284 -91 818 406 
Q 353 903 353 1747 
Q 353 2603 823 3093 
Q 1294 3584 2113 3584 
Q 2378 3584 2631 3529 
Q 2884 3475 3122 3366 
z
" transform="scale(0.015625)"/>
      </defs>
      <use xlink:href="#DejaVuSans-44"/>
      <use xlink:href="#DejaVuSans-61" x="77.001953"/>
      <use xlink:href="#DejaVuSans-76" x="138.28125"/>
      <use xlink:href="#DejaVuSans-65" x="197.460938"/>
      <use xlink:href="#DejaVuSans-20" x="258.984375"/>
      <use xlink:href="#DejaVuSans-46" x="290.771484"/>
      <use xlink:href="#DejaVuSans-6c" x="348.291016"/>
      <use xlink:href="#DejaVuSans-65" x="376.074219"/>
      <use xlink:href="#DejaVuSans-69" x="437.597656"/>
      <use xlink:href="#DejaVuSans-73" x="465.380859"/>
      <use xlink:href="#DejaVuSans-63" x="517.480469"/>
      <use xlink:href="#DejaVuSans-68" x="572.460938"/>
      <use xlink:href="#DejaVuSans-65" x="635.839844"/>
      <use xlink:href="#DejaVuSans-72" x="697.363281"/>
     </g>
    </g>
   </g>
   <g id="text_10">
    <g id="patch_11">
     <path d="M 68.241724 422.33944 
L 154.221255 422.33944 
L 154.221255 405.709128 
L 68.241724 405.709128 
z
" clip-path="url(#pc212a82f52)" style="fill: #ffffff; opacity: 0.7; stroke: #000000; stroke-linejoin: miter"/>
    </g>
    <g clip-path="url(#pc212a82f52)">
     <!-- Robert J. Flaherty -->
     <g transform="translate(72.201724 416.507722)scale(0.09 -0.09)">
      <use xlink:href="#DejaVuSans-52"/>
      <use xlink:href="#DejaVuSans-6f" x="64.982422"/>
      <use xlink:href="#DejaVuSans-62" x="126.164062"/>
      <use xlink:href="#DejaVuSans-65" x="189.640625"/>
      <use xlink:href="#DejaVuSans-72" x="251.164062"/>
      <use xlink:href="#DejaVuSans-74" x="292.277344"/>
      <use xlink:href="#DejaVuSans-20" x="331.486328"/>
      <use xlink:href="#DejaVuSans-4a" x="363.273438"/>
      <use xlink:href="#DejaVuSans-2e" x="392.765625"/>
      <use xlink:href="#DejaVuSans-20" x="424.552734"/>
      <use xlink:href="#DejaVuSans-46" x="456.339844"/>
      <use xlink:href="#DejaVuSans-6c" x="513.859375"/>
      <use xlink:href="#DejaVuSans-61" x="541.642578"/>
      <use xlink:href="#DejaVuSans-68" x="602.921875"/>
      <use xlink:href="#DejaVuSans-65" x="666.300781"/>
      <use xlink:href="#DejaVuSans-72" x="727.824219"/>
      <use xlink:href="#DejaVuSans-74" x="768.9375"/>
      <use xlink:href="#DejaVuSans-79" x="808.146484"/>
     </g>
    </g>
   </g>
   <g id="text_11">
    <g id="patch_12">
     <path d="M 149.373361 481.995602 
L 206.329299 481.995602 
L 206.329299 465.365289 
L 149.373361 465.365289 
z
" clip-path="url(#pc212a82f52)" style="fill: #ffffff; opacity: 0.7; stroke: #000000; stroke-linejoin: miter"/>
    </g>
    <g clip-path="url(#pc212a82f52)">
     <!-- Burt Gillett -->
     <g transform="translate(153.333361 476.163883)scale(0.09 -0.09)">
      <use xlink:href="#DejaVuSans-42"/>
      <use xlink:href="#DejaVuSans-75" x="68.603516"/>
      <use xlink:href="#DejaVuSans-72" x="131.982422"/>
      <use xlink:href="#DejaVuSans-74" x="173.095703"/>
      <use xlink:href="#DejaVuSans-20" x="212.304688"/>
      <use xlink:href="#DejaVuSans-47" x="244.091797"/>
      <use xlink:href="#DejaVuSans-69" x="321.582031"/>
      <use xlink:href="#DejaVuSans-6c" x="349.365234"/>
      <use xlink:href="#DejaVuSans-6c" x="377.148438"/>
      <use xlink:href="#DejaVuSans-65" x="404.931641"/>
      <use xlink:href="#DejaVuSans-74" x="466.455078"/>
      <use xlink:href="#DejaVuSans-74" x="505.664062"/>
     </g>
    </g>
   </g>
   <g id="text_12">
    <g id="patch_13">
     <path d="M 226.961228 509.545925 
L 299.257947 509.545925 
L 299.257947 492.915613 
L 226.961228 492.915613 
z
" clip-path="url(#pc212a82f52)" style="fill: #ffffff; opacity: 0.7; stroke: #000000; stroke-linejoin: miter"/>
    </g>
    <g clip-path="url(#pc212a82f52)">
     <!-- W.S. Van Dyke -->
     <g transform="translate(230.921228 503.714207)scale(0.09 -0.09)">
      <defs>
       <path id="DejaVuSans-56" d="M 1831 0 
L 50 4666 
L 709 4666 
L 2188 738 
L 3669 4666 
L 4325 4666 
L 2547 0 
L 1831 0 
z
" transform="scale(0.015625)"/>
       <path id="DejaVuSans-6b" d="M 581 4863 
L 1159 4863 
L 1159 1991 
L 2875 3500 
L 3609 3500 
L 1753 1863 
L 3688 0 
L 2938 0 
L 1159 1709 
L 1159 0 
L 581 0 
L 581 4863 
z
" transform="scale(0.015625)"/>
      </defs>
      <use xlink:href="#DejaVuSans-57"/>
      <use xlink:href="#DejaVuSans-2e" x="87.376953"/>
      <use xlink:href="#DejaVuSans-53" x="119.164062"/>
      <use xlink:href="#DejaVuSans-2e" x="182.640625"/>
      <use xlink:href="#DejaVuSans-20" x="214.427734"/>
      <use xlink:href="#DejaVuSans-56" x="246.214844"/>
      <use xlink:href="#DejaVuSans-61" x="306.873047"/>
      <use xlink:href="#DejaVuSans-6e" x="368.152344"/>
      <use xlink:href="#DejaVuSans-20" x="431.53125"/>
      <use xlink:href="#DejaVuSans-44" x="463.318359"/>
      <use xlink:href="#DejaVuSans-79" x="540.320312"/>
      <use xlink:href="#DejaVuSans-6b" x="599.5"/>
      <use xlink:href="#DejaVuSans-65" x="653.785156"/>
     </g>
    </g>
   </g>
   <g id="text_13">
    <g id="patch_14">
     <path d="M 309.06573 500.226706 
L 395.462917 500.226706 
L 395.462917 483.596393 
L 309.06573 483.596393 
z
" clip-path="url(#pc212a82f52)" style="fill: #ffffff; opacity: 0.7; stroke: #000000; stroke-linejoin: miter"/>
    </g>
    <g clip-path="url(#pc212a82f52)">
     <!-- Robert McKimson -->
     <g transform="translate(313.02573 494.394987)scale(0.09 -0.09)">
      <use xlink:href="#DejaVuSans-52"/>
      <use xlink:href="#DejaVuSans-6f" x="64.982422"/>
      <use xlink:href="#DejaVuSans-62" x="126.164062"/>
      <use xlink:href="#DejaVuSans-65" x="189.640625"/>
      <use xlink:href="#DejaVuSans-72" x="251.164062"/>
      <use xlink:href="#DejaVuSans-74" x="292.277344"/>
      <use xlink:href="#DejaVuSans-20" x="331.486328"/>
      <use xlink:href="#DejaVuSans-4d" x="363.273438"/>
      <use xlink:href="#DejaVuSans-63" x="449.552734"/>
      <use xlink:href="#DejaVuSans-4b" x="504.533203"/>
      <use xlink:href="#DejaVuSans-69" x="570.109375"/>
      <use xlink:href="#DejaVuSans-6d" x="597.892578"/>
      <use xlink:href="#DejaVuSans-73" x="695.304688"/>
      <use xlink:href="#DejaVuSans-6f" x="747.404297"/>
      <use xlink:href="#DejaVuSans-6e" x="808.585938"/>
     </g>
    </g>
   </g>
   <g id="text_14">
    <g id="patch_15">
     <path d="M 390.879967 455.649316 
L 468.91981 455.649316 
L 468.91981 439.019004 
L 390.879967 439.019004 
z
" clip-path="url(#pc212a82f52)" style="fill: #ffffff; opacity: 0.7; stroke: #000000; stroke-linejoin: miter"/>
    </g>
    <g clip-path="url(#pc212a82f52)">
     <!-- Richard Donner -->
     <g transform="translate(394.839967 449.817598)scale(0.09 -0.09)">
      <use xlink:href="#DejaVuSans-52"/>
      <use xlink:href="#DejaVuSans-69" x="69.482422"/>
      <use xlink:href="#DejaVuSans-63" x="97.265625"/>
      <use xlink:href="#DejaVuSans-68" x="152.246094"/>
      <use xlink:href="#DejaVuSans-61" x="215.625"/>
      <use xlink:href="#DejaVuSans-72" x="276.904297"/>
      <use xlink:href="#DejaVuSans-64" x="316.267578"/>
      <use xlink:href="#DejaVuSans-20" x="379.744141"/>
      <use xlink:href="#DejaVuSans-44" x="411.53125"/>
      <use xlink:href="#DejaVuSans-6f" x="488.533203"/>
      <use xlink:href="#DejaVuSans-6e" x="549.714844"/>
      <use xlink:href="#DejaVuSans-6e" x="613.09375"/>
      <use xlink:href="#DejaVuSans-65" x="676.472656"/>
      <use xlink:href="#DejaVuSans-72" x="737.996094"/>
     </g>
    </g>
   </g>
   <g id="text_15">
    <g id="patch_16">
     <path d="M 449.409795 383.521616 
L 515.774952 383.521616 
L 515.774952 366.891303 
L 449.409795 366.891303 
z
" clip-path="url(#pc212a82f52)" style="fill: #ffffff; opacity: 0.7; stroke: #000000; stroke-linejoin: miter"/>
    </g>
    <g clip-path="url(#pc212a82f52)">
     <!-- Steve Barron -->
     <g transform="translate(453.369795 377.689897)scale(0.09 -0.09)">
      <use xlink:href="#DejaVuSans-53"/>
      <use xlink:href="#DejaVuSans-74" x="63.476562"/>
      <use xlink:href="#DejaVuSans-65" x="102.685547"/>
      <use xlink:href="#DejaVuSans-76" x="164.208984"/>
      <use xlink:href="#DejaVuSans-65" x="223.388672"/>
      <use xlink:href="#DejaVuSans-20" x="284.912109"/>
      <use xlink:href="#DejaVuSans-42" x="316.699219"/>
      <use xlink:href="#DejaVuSans-61" x="385.302734"/>
      <use xlink:href="#DejaVuSans-72" x="446.582031"/>
      <use xlink:href="#DejaVuSans-72" x="485.945312"/>
      <use xlink:href="#DejaVuSans-6f" x="524.808594"/>
      <use xlink:href="#DejaVuSans-6e" x="585.990234"/>
     </g>
    </g>
   </g>
   <g id="text_16">
    <!-- Impactful directors for Silent film genre - Importance rank: 8 -->
    <g transform="translate(106.426875 4.8)scale(0.12 -0.12)">
     <defs>
      <path id="DejaVuSans-49" d="M 628 4666 
L 1259 4666 
L 1259 0 
L 628 0 
L 628 4666 
z
" transform="scale(0.015625)"/>
      <path id="DejaVuSans-66" d="M 2375 4863 
L 2375 4384 
L 1825 4384 
Q 1516 4384 1395 4259 
Q 1275 4134 1275 3809 
L 1275 3500 
L 2222 3500 
L 2222 3053 
L 1275 3053 
L 1275 0 
L 697 0 
L 697 3053 
L 147 3053 
L 147 3500 
L 697 3500 
L 697 3744 
Q 697 4328 969 4595 
Q 1241 4863 1831 4863 
L 2375 4863 
z
" transform="scale(0.015625)"/>
      <path id="DejaVuSans-2d" d="M 313 2009 
L 1997 2009 
L 1997 1497 
L 313 1497 
L 313 2009 
z
" transform="scale(0.015625)"/>
      <path id="DejaVuSans-3a" d="M 750 794 
L 1409 794 
L 1409 0 
L 750 0 
L 750 794 
z
M 750 3309 
L 1409 3309 
L 1409 2516 
L 750 2516 
L 750 3309 
z
" transform="scale(0.015625)"/>
      <path id="DejaVuSans-38" d="M 2034 2216 
Q 1584 2216 1326 1975 
Q 1069 1734 1069 1313 
Q 1069 891 1326 650 
Q 1584 409 2034 409 
Q 2484 409 2743 651 
Q 3003 894 3003 1313 
Q 3003 1734 2745 1975 
Q 2488 2216 2034 2216 
z
M 1403 2484 
Q 997 2584 770 2862 
Q 544 3141 544 3541 
Q 544 4100 942 4425 
Q 1341 4750 2034 4750 
Q 2731 4750 3128 4425 
Q 3525 4100 3525 3541 
Q 3525 3141 3298 2862 
Q 3072 2584 2669 2484 
Q 3125 2378 3379 2068 
Q 3634 1759 3634 1313 
Q 3634 634 3220 271 
Q 2806 -91 2034 -91 
Q 1263 -91 848 271 
Q 434 634 434 1313 
Q 434 1759 690 2068 
Q 947 2378 1403 2484 
z
M 1172 3481 
Q 1172 3119 1398 2916 
Q 1625 2713 2034 2713 
Q 2441 2713 2670 2916 
Q 2900 3119 2900 3481 
Q 2900 3844 2670 4047 
Q 2441 4250 2034 4250 
Q 1625 4250 1398 4047 
Q 1172 3844 1172 3481 
z
" transform="scale(0.015625)"/>
     </defs>
     <use xlink:href="#DejaVuSans-49"/>
     <use xlink:href="#DejaVuSans-6d" x="29.492188"/>
     <use xlink:href="#DejaVuSans-70" x="126.904297"/>
     <use xlink:href="#DejaVuSans-61" x="190.380859"/>
     <use xlink:href="#DejaVuSans-63" x="251.660156"/>
     <use xlink:href="#DejaVuSans-74" x="306.640625"/>
     <use xlink:href="#DejaVuSans-66" x="345.849609"/>
     <use xlink:href="#DejaVuSans-75" x="381.054688"/>
     <use xlink:href="#DejaVuSans-6c" x="444.433594"/>
     <use xlink:href="#DejaVuSans-20" x="472.216797"/>
     <use xlink:href="#DejaVuSans-64" x="504.003906"/>
     <use xlink:href="#DejaVuSans-69" x="567.480469"/>
     <use xlink:href="#DejaVuSans-72" x="595.263672"/>
     <use xlink:href="#DejaVuSans-65" x="634.126953"/>
     <use xlink:href="#DejaVuSans-63" x="695.650391"/>
     <use xlink:href="#DejaVuSans-74" x="750.630859"/>
     <use xlink:href="#DejaVuSans-6f" x="789.839844"/>
     <use xlink:href="#DejaVuSans-72" x="851.021484"/>
     <use xlink:href="#DejaVuSans-73" x="892.134766"/>
     <use xlink:href="#DejaVuSans-20" x="944.234375"/>
     <use xlink:href="#DejaVuSans-66" x="976.021484"/>
     <use xlink:href="#DejaVuSans-6f" x="1011.226562"/>
     <use xlink:href="#DejaVuSans-72" x="1072.408203"/>
     <use xlink:href="#DejaVuSans-20" x="1113.521484"/>
     <use xlink:href="#DejaVuSans-53" x="1145.308594"/>
     <use xlink:href="#DejaVuSans-69" x="1208.785156"/>
     <use xlink:href="#DejaVuSans-6c" x="1236.568359"/>
     <use xlink:href="#DejaVuSans-65" x="1264.351562"/>
     <use xlink:href="#DejaVuSans-6e" x="1325.875"/>
     <use xlink:href="#DejaVuSans-74" x="1389.253906"/>
     <use xlink:href="#DejaVuSans-20" x="1428.462891"/>
     <use xlink:href="#DejaVuSans-66" x="1460.25"/>
     <use xlink:href="#DejaVuSans-69" x="1495.455078"/>
     <use xlink:href="#DejaVuSans-6c" x="1523.238281"/>
     <use xlink:href="#DejaVuSans-6d" x="1551.021484"/>
     <use xlink:href="#DejaVuSans-20" x="1648.433594"/>
     <use xlink:href="#DejaVuSans-67" x="1680.220703"/>
     <use xlink:href="#DejaVuSans-65" x="1743.697266"/>
     <use xlink:href="#DejaVuSans-6e" x="1805.220703"/>
     <use xlink:href="#DejaVuSans-72" x="1868.599609"/>
     <use xlink:href="#DejaVuSans-65" x="1907.462891"/>
     <use xlink:href="#DejaVuSans-20" x="1968.986328"/>
     <use xlink:href="#DejaVuSans-2d" x="2000.773438"/>
     <use xlink:href="#DejaVuSans-20" x="2036.857422"/>
     <use xlink:href="#DejaVuSans-49" x="2068.644531"/>
     <use xlink:href="#DejaVuSans-6d" x="2098.136719"/>
     <use xlink:href="#DejaVuSans-70" x="2195.548828"/>
     <use xlink:href="#DejaVuSans-6f" x="2259.025391"/>
     <use xlink:href="#DejaVuSans-72" x="2320.207031"/>
     <use xlink:href="#DejaVuSans-74" x="2361.320312"/>
     <use xlink:href="#DejaVuSans-61" x="2400.529297"/>
     <use xlink:href="#DejaVuSans-6e" x="2461.808594"/>
     <use xlink:href="#DejaVuSans-63" x="2525.1875"/>
     <use xlink:href="#DejaVuSans-65" x="2580.167969"/>
     <use xlink:href="#DejaVuSans-20" x="2641.691406"/>
     <use xlink:href="#DejaVuSans-72" x="2673.478516"/>
     <use xlink:href="#DejaVuSans-61" x="2714.591797"/>
     <use xlink:href="#DejaVuSans-6e" x="2775.871094"/>
     <use xlink:href="#DejaVuSans-6b" x="2839.25"/>
     <use xlink:href="#DejaVuSans-3a" x="2897.160156"/>
     <use xlink:href="#DejaVuSans-20" x="2930.851562"/>
     <use xlink:href="#DejaVuSans-38" x="2962.638672"/>
    </g>
   </g>
  </g>
 </g>
 <defs>
  <clipPath id="pc212a82f52">
   <rect x="10.8" y="10.8" width="554.4" height="554.4"/>
  </clipPath>
 </defs>
</svg>
