<?xml version="1.0" encoding="utf-8" standalone="no"?>
<!DOCTYPE svg PUBLIC "-//W3C//DTD SVG 1.1//EN"
  "http://www.w3.org/Graphics/SVG/1.1/DTD/svg11.dtd">
<svg xmlns:xlink="http://www.w3.org/1999/xlink" width="576pt" height="576pt" viewBox="0 0 576 576" xmlns="http://www.w3.org/2000/svg" version="1.1">
 <metadata>
  <rdf:RDF xmlns:dc="http://purl.org/dc/elements/1.1/" xmlns:cc="http://creativecommons.org/ns#" xmlns:rdf="http://www.w3.org/1999/02/22-rdf-syntax-ns#">
   <cc:Work>
    <dc:type rdf:resource="http://purl.org/dc/dcmitype/StillImage"/>
    <dc:date>2022-12-22T16:13:38.222245</dc:date>
    <dc:format>image/svg+xml</dc:format>
    <dc:creator>
     <cc:Agent>
      <dc:title>Matplotlib v3.5.2, https://matplotlib.org/</dc:title>
     </cc:Agent>
    </dc:creator>
   </cc:Work>
  </rdf:RDF>
 </metadata>
 <defs>
  <style type="text/css">*{stroke-linejoin: round; stroke-linecap: butt}</style>
 </defs>
 <g id="figure_1">
  <g id="patch_1">
   <path d="M 0 576 
L 576 576 
L 576 0 
L 0 0 
z
" style="fill: #ffffff"/>
  </g>
  <g id="axes_1">
   <g id="LineCollection_1">
    <path d="M 482.592348 200.793508 
L 429.89985 128.665802 
" clip-path="url(#pfe94e23bf4)" style="fill: none; stroke: #000000; stroke-opacity: 0.3; stroke-width: 5"/>
   </g>
   <g id="PathCollection_1">
    <path d="M 501.230769 315.386128 
C 508.493655 315.386128 515.46005 312.500553 520.595686 307.364917 
C 525.731322 302.229281 528.616897 295.262886 528.616897 288 
C 528.616897 280.737114 525.731322 273.770719 520.595686 268.635083 
C 515.46005 263.499447 508.493655 260.613872 501.230769 260.613872 
C 493.967883 260.613872 487.001488 263.499447 481.865852 268.635083 
C 476.730217 273.770719 473.844641 280.737114 473.844641 288 
C 473.844641 295.262886 476.730217 302.229281 481.865852 307.364917 
C 487.001488 312.500553 493.967883 315.386128 501.230769 315.386128 
z
" clip-path="url(#pfe94e23bf4)" style="fill: #d62728; fill-opacity: 0.99; stroke: #d62728; stroke-opacity: 0.99"/>
    <path d="M 482.592348 224.453711 
C 488.867107 224.453711 494.885713 221.960723 499.322637 217.523798 
C 503.759562 213.086873 506.25255 207.068267 506.25255 200.793508 
C 506.25255 194.518749 503.759562 188.500143 499.322637 184.063219 
C 494.885713 179.626294 488.867107 177.133306 482.592348 177.133306 
C 476.317589 177.133306 470.298983 179.626294 465.862058 184.063219 
C 461.425133 188.500143 458.932145 194.518749 458.932145 200.793508 
C 458.932145 207.068267 461.425133 213.086873 465.862058 217.523798 
C 470.298983 221.960723 476.317589 224.453711 482.592348 224.453711 
z
" clip-path="url(#pfe94e23bf4)" style="fill: #d62728; fill-opacity: 0.99; stroke: #d62728; stroke-opacity: 0.99"/>
    <path d="M 429.89985 151.976275 
C 436.08186 151.976275 442.011502 149.520136 446.382843 145.148795 
C 450.754184 140.777454 453.210323 134.847811 453.210323 128.665802 
C 453.210323 122.483792 450.754184 116.554149 446.382843 112.182808 
C 442.011502 107.811467 436.08186 105.355329 429.89985 105.355329 
C 423.71784 105.355329 417.788197 107.811467 413.416856 112.182808 
C 409.045515 116.554149 406.589377 122.483792 406.589377 128.665802 
C 406.589377 134.847811 409.045515 140.777454 413.416856 145.148795 
C 417.788197 149.520136 423.71784 151.976275 429.89985 151.976275 
z
" clip-path="url(#pfe94e23bf4)" style="fill: #d62728; fill-opacity: 0.99; stroke: #d62728; stroke-opacity: 0.99"/>
    <path d="M 352.264291 106.457403 
C 358.19661 106.457403 363.886755 104.100467 368.081538 99.905684 
C 372.276321 95.710902 374.633256 90.020757 374.633256 84.088438 
C 374.633256 78.156119 372.276321 72.465974 368.081538 68.271191 
C 363.886755 64.076408 358.19661 61.719473 352.264291 61.719473 
C 346.331972 61.719473 340.641827 64.076408 336.447044 68.271191 
C 332.252262 72.465974 329.895326 78.156119 329.895326 84.088438 
C 329.895326 90.020757 332.252262 95.710902 336.447044 99.905684 
C 340.641827 104.100467 346.331972 106.457403 352.264291 106.457403 
z
" clip-path="url(#pfe94e23bf4)" style="fill: #d62728; fill-opacity: 0.99; stroke: #d62728; stroke-opacity: 0.99"/>
    <path d="M 263.109549 96.840655 
C 268.962959 96.840655 274.577416 94.51507 278.716402 90.376084 
C 282.855388 86.237098 285.180972 80.622641 285.180972 74.769231 
C 285.180972 68.915821 282.855388 63.301363 278.716402 59.162377 
C 274.577416 55.023391 268.962959 52.697807 263.109549 52.697807 
C 257.256139 52.697807 251.641681 55.023391 247.502695 59.162377 
C 243.363709 63.301363 241.038125 68.915821 241.038125 74.769231 
C 241.038125 80.622641 243.363709 86.237098 247.502695 90.376084 
C 251.641681 94.51507 257.256139 96.840655 263.109549 96.840655 
z
" clip-path="url(#pfe94e23bf4)" style="fill: #d62728; fill-opacity: 0.99; stroke: #d62728; stroke-opacity: 0.99"/>
    <path d="M 177.851298 123.890254 
C 183.571911 123.890254 189.058992 121.61743 193.104077 117.572346 
C 197.149161 113.527262 199.421984 108.04018 199.421984 102.319567 
C 199.421984 96.598954 197.149161 91.111873 193.104077 87.066789 
C 189.058992 83.021705 183.571911 80.748881 177.851298 80.748881 
C 172.130685 80.748881 166.643604 83.021705 162.59852 87.066789 
C 158.553435 91.111873 156.280612 96.598954 156.280612 102.319567 
C 156.280612 108.04018 158.553435 113.527262 162.59852 117.572346 
C 166.643604 121.61743 172.130685 123.890254 177.851298 123.890254 
z
" clip-path="url(#pfe94e23bf4)" style="fill: #d62728; fill-opacity: 0.99; stroke: #d62728; stroke-opacity: 0.99"/>
    <path d="M 111.231477 183.12471 
C 116.840252 183.12471 122.220062 180.89632 126.186065 176.930317 
C 130.152068 172.964314 132.380458 167.584504 132.380458 161.975729 
C 132.380458 156.366953 130.152068 150.987144 126.186065 147.021141 
C 122.220062 143.055137 116.840252 140.826747 111.231477 140.826747 
C 105.622702 140.826747 100.242892 143.055137 96.276889 147.021141 
C 92.310886 150.987144 90.082496 156.366953 90.082496 161.975729 
C 90.082496 167.584504 92.310886 172.964314 96.276889 176.930317 
C 100.242892 180.89632 105.622702 183.12471 111.231477 183.12471 
z
" clip-path="url(#pfe94e23bf4)" style="fill: #d62728; fill-opacity: 0.99; stroke: #d62728; stroke-opacity: 0.99"/>
    <path d="M 74.769231 264.422887 
C 80.338559 264.422887 85.680532 262.21017 89.618642 258.27206 
C 93.556752 254.33395 95.769469 248.991977 95.769469 243.422649 
C 95.769469 237.853321 93.556752 232.511348 89.618642 228.573238 
C 85.680532 224.635128 80.338559 222.42241 74.769231 222.42241 
C 69.199902 222.42241 63.85793 224.635128 59.91982 228.573238 
C 55.98171 232.511348 53.768992 237.853321 53.768992 243.422649 
C 53.768992 248.991977 55.98171 254.33395 59.91982 258.27206 
C 63.85793 262.21017 69.199902 264.422887 74.769231 264.422887 
z
" clip-path="url(#pfe94e23bf4)" style="fill: #d62728; fill-opacity: 0.99; stroke: #d62728; stroke-opacity: 0.99"/>
    <path d="M 74.769244 353.180437 
C 80.233236 353.180437 85.474172 351.00957 89.337798 347.145944 
C 93.201424 343.282318 95.372291 338.041381 95.372291 332.577389 
C 95.372291 327.113397 93.201424 321.872461 89.337798 318.008835 
C 85.474172 314.145209 80.233236 311.974342 74.769244 311.974342 
C 69.305252 311.974342 64.064315 314.145209 60.200689 318.008835 
C 56.337063 321.872461 54.166196 327.113397 54.166196 332.577389 
C 54.166196 338.041381 56.337063 343.282318 60.200689 347.145944 
C 64.064315 351.00957 69.305252 353.180437 74.769244 353.180437 
z
" clip-path="url(#pfe94e23bf4)" style="fill: #d62728; fill-opacity: 0.99; stroke: #d62728; stroke-opacity: 0.99"/>
    <path d="M 111.23149 434.280422 
C 116.60348 434.280422 121.756171 432.146107 125.554742 428.347537 
C 129.353313 424.548966 131.487628 419.396275 131.487628 414.024284 
C 131.487628 408.652293 129.353313 403.499603 125.554742 399.701032 
C 121.756171 395.902461 116.60348 393.768146 111.23149 393.768146 
C 105.859499 393.768146 100.706808 395.902461 96.908237 399.701032 
C 93.109666 403.499603 90.975352 408.652293 90.975352 414.024284 
C 90.975352 419.396275 93.109666 424.548966 96.908237 428.347537 
C 100.706808 432.146107 105.859499 434.280422 111.23149 434.280422 
z
" clip-path="url(#pfe94e23bf4)" style="fill: #d62728; fill-opacity: 0.99; stroke: #d62728; stroke-opacity: 0.99"/>
    <path d="M 177.85133 493.406238 
C 183.082672 493.406238 188.100455 491.327804 191.799572 487.628687 
C 195.498689 483.92957 197.577123 478.911787 197.577123 473.680446 
C 197.577123 468.449104 195.498689 463.431321 191.799572 459.732204 
C 188.100455 456.033087 183.082672 453.954653 177.85133 453.954653 
C 172.619989 453.954653 167.602205 456.033087 163.903088 459.732204 
C 160.203971 463.431321 158.125537 468.449104 158.125537 473.680446 
C 158.125537 478.911787 160.203971 483.92957 163.903088 487.628687 
C 167.602205 491.327804 172.619989 493.406238 177.85133 493.406238 
z
" clip-path="url(#pfe94e23bf4)" style="fill: #d62728; fill-opacity: 0.99; stroke: #d62728; stroke-opacity: 0.99"/>
    <path d="M 263.109587 520.673924 
C 268.265972 520.673924 273.211859 518.62527 276.857973 514.979155 
C 280.504088 511.333041 282.552741 506.387154 282.552741 501.230769 
C 282.552741 496.074384 280.504088 491.128498 276.857973 487.482383 
C 273.211859 483.836268 268.265972 481.787615 263.109587 481.787615 
C 257.953202 481.787615 253.007316 483.836268 249.361201 487.482383 
C 245.715086 491.128498 243.666433 496.074384 243.666433 501.230769 
C 243.666433 506.387154 245.715086 511.333041 249.361201 514.979155 
C 253.007316 518.62527 257.953202 520.673924 263.109587 520.673924 
z
" clip-path="url(#pfe94e23bf4)" style="fill: #d62728; fill-opacity: 0.99; stroke: #d62728; stroke-opacity: 0.99"/>
    <path d="M 352.264323 511.276641 
C 357.400006 511.276641 362.326035 509.236213 365.957511 505.604737 
C 369.588987 501.973261 371.629415 497.047232 371.629415 491.91155 
C 371.629415 486.775867 369.588987 481.849838 365.957511 478.218362 
C 362.326035 474.586886 357.400006 472.546458 352.264323 472.546458 
C 347.128641 472.546458 342.202611 474.586886 338.571136 478.218362 
C 334.93966 481.849838 332.899232 486.775867 332.899232 491.91155 
C 332.899232 497.047232 334.93966 501.973261 338.571136 505.604737 
C 342.202611 509.236213 347.128641 511.276641 352.264323 511.276641 
z
" clip-path="url(#pfe94e23bf4)" style="fill: #d62728; fill-opacity: 0.99; stroke: #d62728; stroke-opacity: 0.99"/>
    <path d="M 429.899888 466.699252 
C 435.035571 466.699252 439.9616 464.658824 443.593076 461.027348 
C 447.224552 457.395872 449.26498 452.469842 449.26498 447.33416 
C 449.26498 442.198478 447.224552 437.272448 443.593076 433.640972 
C 439.9616 430.009497 435.035571 427.969068 429.899888 427.969068 
C 424.764206 427.969068 419.838177 430.009497 416.206701 433.640972 
C 412.575225 437.272448 410.534797 442.198478 410.534797 447.33416 
C 410.534797 452.469842 412.575225 457.395872 416.206701 461.027348 
C 419.838177 464.658824 424.764206 466.699252 429.899888 466.699252 
z
" clip-path="url(#pfe94e23bf4)" style="fill: #d62728; fill-opacity: 0.99; stroke: #d62728; stroke-opacity: 0.99"/>
    <path d="M 482.592374 394.571376 
C 487.728009 394.571376 492.653994 392.530967 496.285437 388.899524 
C 499.91688 385.268081 501.95729 380.342096 501.95729 375.20646 
C 501.95729 370.070824 499.91688 365.144839 496.285437 361.513396 
C 492.653994 357.881953 487.728009 355.841543 482.592374 355.841543 
C 477.456738 355.841543 472.530753 357.881953 468.89931 361.513396 
C 465.267867 365.144839 463.227457 370.070824 463.227457 375.20646 
C 463.227457 380.342096 465.267867 385.268081 468.89931 388.899524 
C 472.530753 392.530967 477.456738 394.571376 482.592374 394.571376 
z
" clip-path="url(#pfe94e23bf4)" style="fill: #d62728; fill-opacity: 0.99; stroke: #d62728; stroke-opacity: 0.99"/>
   </g>
   <g id="text_1">
    <g id="patch_2">
     <path d="M 465.552097 296.315156 
L 536.909441 296.315156 
L 536.909441 279.684844 
L 465.552097 279.684844 
z
" clip-path="url(#pfe94e23bf4)" style="fill: #ffffff; opacity: 0.7; stroke: #000000; stroke-linejoin: miter"/>
    </g>
    <g clip-path="url(#pfe94e23bf4)">
     <!-- Buster Keaton -->
     <g transform="translate(469.512097 290.483437)scale(0.09 -0.09)">
      <defs>
       <path id="DejaVuSans-42" d="M 1259 2228 
L 1259 519 
L 2272 519 
Q 2781 519 3026 730 
Q 3272 941 3272 1375 
Q 3272 1813 3026 2020 
Q 2781 2228 2272 2228 
L 1259 2228 
z
M 1259 4147 
L 1259 2741 
L 2194 2741 
Q 2656 2741 2882 2914 
Q 3109 3088 3109 3444 
Q 3109 3797 2882 3972 
Q 2656 4147 2194 4147 
L 1259 4147 
z
M 628 4666 
L 2241 4666 
Q 2963 4666 3353 4366 
Q 3744 4066 3744 3513 
Q 3744 3084 3544 2831 
Q 3344 2578 2956 2516 
Q 3422 2416 3680 2098 
Q 3938 1781 3938 1306 
Q 3938 681 3513 340 
Q 3088 0 2303 0 
L 628 0 
L 628 4666 
z
" transform="scale(0.015625)"/>
       <path id="DejaVuSans-75" d="M 544 1381 
L 544 3500 
L 1119 3500 
L 1119 1403 
Q 1119 906 1312 657 
Q 1506 409 1894 409 
Q 2359 409 2629 706 
Q 2900 1003 2900 1516 
L 2900 3500 
L 3475 3500 
L 3475 0 
L 2900 0 
L 2900 538 
Q 2691 219 2414 64 
Q 2138 -91 1772 -91 
Q 1169 -91 856 284 
Q 544 659 544 1381 
z
M 1991 3584 
L 1991 3584 
z
" transform="scale(0.015625)"/>
       <path id="DejaVuSans-73" d="M 2834 3397 
L 2834 2853 
Q 2591 2978 2328 3040 
Q 2066 3103 1784 3103 
Q 1356 3103 1142 2972 
Q 928 2841 928 2578 
Q 928 2378 1081 2264 
Q 1234 2150 1697 2047 
L 1894 2003 
Q 2506 1872 2764 1633 
Q 3022 1394 3022 966 
Q 3022 478 2636 193 
Q 2250 -91 1575 -91 
Q 1294 -91 989 -36 
Q 684 19 347 128 
L 347 722 
Q 666 556 975 473 
Q 1284 391 1588 391 
Q 1994 391 2212 530 
Q 2431 669 2431 922 
Q 2431 1156 2273 1281 
Q 2116 1406 1581 1522 
L 1381 1569 
Q 847 1681 609 1914 
Q 372 2147 372 2553 
Q 372 3047 722 3315 
Q 1072 3584 1716 3584 
Q 2034 3584 2315 3537 
Q 2597 3491 2834 3397 
z
" transform="scale(0.015625)"/>
       <path id="DejaVuSans-74" d="M 1172 4494 
L 1172 3500 
L 2356 3500 
L 2356 3053 
L 1172 3053 
L 1172 1153 
Q 1172 725 1289 603 
Q 1406 481 1766 481 
L 2356 481 
L 2356 0 
L 1766 0 
Q 1100 0 847 248 
Q 594 497 594 1153 
L 594 3053 
L 172 3053 
L 172 3500 
L 594 3500 
L 594 4494 
L 1172 4494 
z
" transform="scale(0.015625)"/>
       <path id="DejaVuSans-65" d="M 3597 1894 
L 3597 1613 
L 953 1613 
Q 991 1019 1311 708 
Q 1631 397 2203 397 
Q 2534 397 2845 478 
Q 3156 559 3463 722 
L 3463 178 
Q 3153 47 2828 -22 
Q 2503 -91 2169 -91 
Q 1331 -91 842 396 
Q 353 884 353 1716 
Q 353 2575 817 3079 
Q 1281 3584 2069 3584 
Q 2775 3584 3186 3129 
Q 3597 2675 3597 1894 
z
M 3022 2063 
Q 3016 2534 2758 2815 
Q 2500 3097 2075 3097 
Q 1594 3097 1305 2825 
Q 1016 2553 972 2059 
L 3022 2063 
z
" transform="scale(0.015625)"/>
       <path id="DejaVuSans-72" d="M 2631 2963 
Q 2534 3019 2420 3045 
Q 2306 3072 2169 3072 
Q 1681 3072 1420 2755 
Q 1159 2438 1159 1844 
L 1159 0 
L 581 0 
L 581 3500 
L 1159 3500 
L 1159 2956 
Q 1341 3275 1631 3429 
Q 1922 3584 2338 3584 
Q 2397 3584 2469 3576 
Q 2541 3569 2628 3553 
L 2631 2963 
z
" transform="scale(0.015625)"/>
       <path id="DejaVuSans-20" transform="scale(0.015625)"/>
       <path id="DejaVuSans-4b" d="M 628 4666 
L 1259 4666 
L 1259 2694 
L 3353 4666 
L 4166 4666 
L 1850 2491 
L 4331 0 
L 3500 0 
L 1259 2247 
L 1259 0 
L 628 0 
L 628 4666 
z
" transform="scale(0.015625)"/>
       <path id="DejaVuSans-61" d="M 2194 1759 
Q 1497 1759 1228 1600 
Q 959 1441 959 1056 
Q 959 750 1161 570 
Q 1363 391 1709 391 
Q 2188 391 2477 730 
Q 2766 1069 2766 1631 
L 2766 1759 
L 2194 1759 
z
M 3341 1997 
L 3341 0 
L 2766 0 
L 2766 531 
Q 2569 213 2275 61 
Q 1981 -91 1556 -91 
Q 1019 -91 701 211 
Q 384 513 384 1019 
Q 384 1609 779 1909 
Q 1175 2209 1959 2209 
L 2766 2209 
L 2766 2266 
Q 2766 2663 2505 2880 
Q 2244 3097 1772 3097 
Q 1472 3097 1187 3025 
Q 903 2953 641 2809 
L 641 3341 
Q 956 3463 1253 3523 
Q 1550 3584 1831 3584 
Q 2591 3584 2966 3190 
Q 3341 2797 3341 1997 
z
" transform="scale(0.015625)"/>
       <path id="DejaVuSans-6f" d="M 1959 3097 
Q 1497 3097 1228 2736 
Q 959 2375 959 1747 
Q 959 1119 1226 758 
Q 1494 397 1959 397 
Q 2419 397 2687 759 
Q 2956 1122 2956 1747 
Q 2956 2369 2687 2733 
Q 2419 3097 1959 3097 
z
M 1959 3584 
Q 2709 3584 3137 3096 
Q 3566 2609 3566 1747 
Q 3566 888 3137 398 
Q 2709 -91 1959 -91 
Q 1206 -91 779 398 
Q 353 888 353 1747 
Q 353 2609 779 3096 
Q 1206 3584 1959 3584 
z
" transform="scale(0.015625)"/>
       <path id="DejaVuSans-6e" d="M 3513 2113 
L 3513 0 
L 2938 0 
L 2938 2094 
Q 2938 2591 2744 2837 
Q 2550 3084 2163 3084 
Q 1697 3084 1428 2787 
Q 1159 2491 1159 1978 
L 1159 0 
L 581 0 
L 581 3500 
L 1159 3500 
L 1159 2956 
Q 1366 3272 1645 3428 
Q 1925 3584 2291 3584 
Q 2894 3584 3203 3211 
Q 3513 2838 3513 2113 
z
" transform="scale(0.015625)"/>
      </defs>
      <use xlink:href="#DejaVuSans-42"/>
      <use xlink:href="#DejaVuSans-75" x="68.603516"/>
      <use xlink:href="#DejaVuSans-73" x="131.982422"/>
      <use xlink:href="#DejaVuSans-74" x="184.082031"/>
      <use xlink:href="#DejaVuSans-65" x="223.291016"/>
      <use xlink:href="#DejaVuSans-72" x="284.814453"/>
      <use xlink:href="#DejaVuSans-20" x="325.927734"/>
      <use xlink:href="#DejaVuSans-4b" x="357.714844"/>
      <use xlink:href="#DejaVuSans-65" x="418.291016"/>
      <use xlink:href="#DejaVuSans-61" x="479.814453"/>
      <use xlink:href="#DejaVuSans-74" x="541.09375"/>
      <use xlink:href="#DejaVuSans-6f" x="580.302734"/>
      <use xlink:href="#DejaVuSans-6e" x="641.484375"/>
     </g>
    </g>
   </g>
   <g id="text_2">
    <g id="patch_3">
     <path d="M 453.923832 209.108665 
L 511.260863 209.108665 
L 511.260863 192.478352 
L 453.923832 192.478352 
z
" clip-path="url(#pfe94e23bf4)" style="fill: #ffffff; opacity: 0.7; stroke: #000000; stroke-linejoin: miter"/>
    </g>
    <g clip-path="url(#pfe94e23bf4)">
     <!-- Sam Taylor -->
     <g transform="translate(457.883832 203.276946)scale(0.09 -0.09)">
      <defs>
       <path id="DejaVuSans-53" d="M 3425 4513 
L 3425 3897 
Q 3066 4069 2747 4153 
Q 2428 4238 2131 4238 
Q 1616 4238 1336 4038 
Q 1056 3838 1056 3469 
Q 1056 3159 1242 3001 
Q 1428 2844 1947 2747 
L 2328 2669 
Q 3034 2534 3370 2195 
Q 3706 1856 3706 1288 
Q 3706 609 3251 259 
Q 2797 -91 1919 -91 
Q 1588 -91 1214 -16 
Q 841 59 441 206 
L 441 856 
Q 825 641 1194 531 
Q 1563 422 1919 422 
Q 2459 422 2753 634 
Q 3047 847 3047 1241 
Q 3047 1584 2836 1778 
Q 2625 1972 2144 2069 
L 1759 2144 
Q 1053 2284 737 2584 
Q 422 2884 422 3419 
Q 422 4038 858 4394 
Q 1294 4750 2059 4750 
Q 2388 4750 2728 4690 
Q 3069 4631 3425 4513 
z
" transform="scale(0.015625)"/>
       <path id="DejaVuSans-6d" d="M 3328 2828 
Q 3544 3216 3844 3400 
Q 4144 3584 4550 3584 
Q 5097 3584 5394 3201 
Q 5691 2819 5691 2113 
L 5691 0 
L 5113 0 
L 5113 2094 
Q 5113 2597 4934 2840 
Q 4756 3084 4391 3084 
Q 3944 3084 3684 2787 
Q 3425 2491 3425 1978 
L 3425 0 
L 2847 0 
L 2847 2094 
Q 2847 2600 2669 2842 
Q 2491 3084 2119 3084 
Q 1678 3084 1418 2786 
Q 1159 2488 1159 1978 
L 1159 0 
L 581 0 
L 581 3500 
L 1159 3500 
L 1159 2956 
Q 1356 3278 1631 3431 
Q 1906 3584 2284 3584 
Q 2666 3584 2933 3390 
Q 3200 3197 3328 2828 
z
" transform="scale(0.015625)"/>
       <path id="DejaVuSans-54" d="M -19 4666 
L 3928 4666 
L 3928 4134 
L 2272 4134 
L 2272 0 
L 1638 0 
L 1638 4134 
L -19 4134 
L -19 4666 
z
" transform="scale(0.015625)"/>
       <path id="DejaVuSans-79" d="M 2059 -325 
Q 1816 -950 1584 -1140 
Q 1353 -1331 966 -1331 
L 506 -1331 
L 506 -850 
L 844 -850 
Q 1081 -850 1212 -737 
Q 1344 -625 1503 -206 
L 1606 56 
L 191 3500 
L 800 3500 
L 1894 763 
L 2988 3500 
L 3597 3500 
L 2059 -325 
z
" transform="scale(0.015625)"/>
       <path id="DejaVuSans-6c" d="M 603 4863 
L 1178 4863 
L 1178 0 
L 603 0 
L 603 4863 
z
" transform="scale(0.015625)"/>
      </defs>
      <use xlink:href="#DejaVuSans-53"/>
      <use xlink:href="#DejaVuSans-61" x="63.476562"/>
      <use xlink:href="#DejaVuSans-6d" x="124.755859"/>
      <use xlink:href="#DejaVuSans-20" x="222.167969"/>
      <use xlink:href="#DejaVuSans-54" x="253.955078"/>
      <use xlink:href="#DejaVuSans-61" x="298.539062"/>
      <use xlink:href="#DejaVuSans-79" x="359.818359"/>
      <use xlink:href="#DejaVuSans-6c" x="418.998047"/>
      <use xlink:href="#DejaVuSans-6f" x="446.78125"/>
      <use xlink:href="#DejaVuSans-72" x="507.962891"/>
     </g>
    </g>
   </g>
   <g id="text_3">
    <g id="patch_4">
     <path d="M 384.620709 136.980958 
L 475.17899 136.980958 
L 475.17899 120.350645 
L 384.620709 120.350645 
z
" clip-path="url(#pfe94e23bf4)" style="fill: #ffffff; opacity: 0.7; stroke: #000000; stroke-linejoin: miter"/>
    </g>
    <g clip-path="url(#pfe94e23bf4)">
     <!-- Fred C. Newmeyer -->
     <g transform="translate(388.580709 131.149239)scale(0.09 -0.09)">
      <defs>
       <path id="DejaVuSans-46" d="M 628 4666 
L 3309 4666 
L 3309 4134 
L 1259 4134 
L 1259 2759 
L 3109 2759 
L 3109 2228 
L 1259 2228 
L 1259 0 
L 628 0 
L 628 4666 
z
" transform="scale(0.015625)"/>
       <path id="DejaVuSans-64" d="M 2906 2969 
L 2906 4863 
L 3481 4863 
L 3481 0 
L 2906 0 
L 2906 525 
Q 2725 213 2448 61 
Q 2172 -91 1784 -91 
Q 1150 -91 751 415 
Q 353 922 353 1747 
Q 353 2572 751 3078 
Q 1150 3584 1784 3584 
Q 2172 3584 2448 3432 
Q 2725 3281 2906 2969 
z
M 947 1747 
Q 947 1113 1208 752 
Q 1469 391 1925 391 
Q 2381 391 2643 752 
Q 2906 1113 2906 1747 
Q 2906 2381 2643 2742 
Q 2381 3103 1925 3103 
Q 1469 3103 1208 2742 
Q 947 2381 947 1747 
z
" transform="scale(0.015625)"/>
       <path id="DejaVuSans-43" d="M 4122 4306 
L 4122 3641 
Q 3803 3938 3442 4084 
Q 3081 4231 2675 4231 
Q 1875 4231 1450 3742 
Q 1025 3253 1025 2328 
Q 1025 1406 1450 917 
Q 1875 428 2675 428 
Q 3081 428 3442 575 
Q 3803 722 4122 1019 
L 4122 359 
Q 3791 134 3420 21 
Q 3050 -91 2638 -91 
Q 1578 -91 968 557 
Q 359 1206 359 2328 
Q 359 3453 968 4101 
Q 1578 4750 2638 4750 
Q 3056 4750 3426 4639 
Q 3797 4528 4122 4306 
z
" transform="scale(0.015625)"/>
       <path id="DejaVuSans-2e" d="M 684 794 
L 1344 794 
L 1344 0 
L 684 0 
L 684 794 
z
" transform="scale(0.015625)"/>
       <path id="DejaVuSans-4e" d="M 628 4666 
L 1478 4666 
L 3547 763 
L 3547 4666 
L 4159 4666 
L 4159 0 
L 3309 0 
L 1241 3903 
L 1241 0 
L 628 0 
L 628 4666 
z
" transform="scale(0.015625)"/>
       <path id="DejaVuSans-77" d="M 269 3500 
L 844 3500 
L 1563 769 
L 2278 3500 
L 2956 3500 
L 3675 769 
L 4391 3500 
L 4966 3500 
L 4050 0 
L 3372 0 
L 2619 2869 
L 1863 0 
L 1184 0 
L 269 3500 
z
" transform="scale(0.015625)"/>
      </defs>
      <use xlink:href="#DejaVuSans-46"/>
      <use xlink:href="#DejaVuSans-72" x="50.269531"/>
      <use xlink:href="#DejaVuSans-65" x="89.132812"/>
      <use xlink:href="#DejaVuSans-64" x="150.65625"/>
      <use xlink:href="#DejaVuSans-20" x="214.132812"/>
      <use xlink:href="#DejaVuSans-43" x="245.919922"/>
      <use xlink:href="#DejaVuSans-2e" x="315.744141"/>
      <use xlink:href="#DejaVuSans-20" x="347.53125"/>
      <use xlink:href="#DejaVuSans-4e" x="379.318359"/>
      <use xlink:href="#DejaVuSans-65" x="454.123047"/>
      <use xlink:href="#DejaVuSans-77" x="515.646484"/>
      <use xlink:href="#DejaVuSans-6d" x="597.433594"/>
      <use xlink:href="#DejaVuSans-65" x="694.845703"/>
      <use xlink:href="#DejaVuSans-79" x="756.369141"/>
      <use xlink:href="#DejaVuSans-65" x="815.548828"/>
      <use xlink:href="#DejaVuSans-72" x="877.072266"/>
     </g>
    </g>
   </g>
   <g id="text_4">
    <g id="patch_5">
     <path d="M 313.95101 92.403594 
L 390.577572 92.403594 
L 390.577572 75.773281 
L 313.95101 75.773281 
z
" clip-path="url(#pfe94e23bf4)" style="fill: #ffffff; opacity: 0.7; stroke: #000000; stroke-linejoin: miter"/>
    </g>
    <g clip-path="url(#pfe94e23bf4)">
     <!-- Victor Sjöström -->
     <g transform="translate(317.91101 86.571875)scale(0.09 -0.09)">
      <defs>
       <path id="DejaVuSans-56" d="M 1831 0 
L 50 4666 
L 709 4666 
L 2188 738 
L 3669 4666 
L 4325 4666 
L 2547 0 
L 1831 0 
z
" transform="scale(0.015625)"/>
       <path id="DejaVuSans-69" d="M 603 3500 
L 1178 3500 
L 1178 0 
L 603 0 
L 603 3500 
z
M 603 4863 
L 1178 4863 
L 1178 4134 
L 603 4134 
L 603 4863 
z
" transform="scale(0.015625)"/>
       <path id="DejaVuSans-63" d="M 3122 3366 
L 3122 2828 
Q 2878 2963 2633 3030 
Q 2388 3097 2138 3097 
Q 1578 3097 1268 2742 
Q 959 2388 959 1747 
Q 959 1106 1268 751 
Q 1578 397 2138 397 
Q 2388 397 2633 464 
Q 2878 531 3122 666 
L 3122 134 
Q 2881 22 2623 -34 
Q 2366 -91 2075 -91 
Q 1284 -91 818 406 
Q 353 903 353 1747 
Q 353 2603 823 3093 
Q 1294 3584 2113 3584 
Q 2378 3584 2631 3529 
Q 2884 3475 3122 3366 
z
" transform="scale(0.015625)"/>
       <path id="DejaVuSans-6a" d="M 603 3500 
L 1178 3500 
L 1178 -63 
Q 1178 -731 923 -1031 
Q 669 -1331 103 -1331 
L -116 -1331 
L -116 -844 
L 38 -844 
Q 366 -844 484 -692 
Q 603 -541 603 -63 
L 603 3500 
z
M 603 4863 
L 1178 4863 
L 1178 4134 
L 603 4134 
L 603 4863 
z
" transform="scale(0.015625)"/>
       <path id="DejaVuSans-f6" d="M 1959 3097 
Q 1497 3097 1228 2736 
Q 959 2375 959 1747 
Q 959 1119 1226 758 
Q 1494 397 1959 397 
Q 2419 397 2687 759 
Q 2956 1122 2956 1747 
Q 2956 2369 2687 2733 
Q 2419 3097 1959 3097 
z
M 1959 3584 
Q 2709 3584 3137 3096 
Q 3566 2609 3566 1747 
Q 3566 888 3137 398 
Q 2709 -91 1959 -91 
Q 1206 -91 779 398 
Q 353 888 353 1747 
Q 353 2609 779 3096 
Q 1206 3584 1959 3584 
z
M 2253 4850 
L 2888 4850 
L 2888 4219 
L 2253 4219 
L 2253 4850 
z
M 1031 4850 
L 1666 4850 
L 1666 4219 
L 1031 4219 
L 1031 4850 
z
" transform="scale(0.015625)"/>
      </defs>
      <use xlink:href="#DejaVuSans-56"/>
      <use xlink:href="#DejaVuSans-69" x="66.158203"/>
      <use xlink:href="#DejaVuSans-63" x="93.941406"/>
      <use xlink:href="#DejaVuSans-74" x="148.921875"/>
      <use xlink:href="#DejaVuSans-6f" x="188.130859"/>
      <use xlink:href="#DejaVuSans-72" x="249.3125"/>
      <use xlink:href="#DejaVuSans-20" x="290.425781"/>
      <use xlink:href="#DejaVuSans-53" x="322.212891"/>
      <use xlink:href="#DejaVuSans-6a" x="385.689453"/>
      <use xlink:href="#DejaVuSans-f6" x="413.472656"/>
      <use xlink:href="#DejaVuSans-73" x="474.654297"/>
      <use xlink:href="#DejaVuSans-74" x="526.753906"/>
      <use xlink:href="#DejaVuSans-72" x="565.962891"/>
      <use xlink:href="#DejaVuSans-f6" x="604.826172"/>
      <use xlink:href="#DejaVuSans-6d" x="666.007812"/>
     </g>
    </g>
   </g>
   <g id="text_5">
    <g id="patch_6">
     <path d="M 222.599002 83.084387 
L 303.620095 83.084387 
L 303.620095 66.454075 
L 222.599002 66.454075 
z
" clip-path="url(#pfe94e23bf4)" style="fill: #ffffff; opacity: 0.7; stroke: #000000; stroke-linejoin: miter"/>
    </g>
    <g clip-path="url(#pfe94e23bf4)">
     <!-- Arthur Berthelet -->
     <g transform="translate(226.559002 77.252668)scale(0.09 -0.09)">
      <defs>
       <path id="DejaVuSans-41" d="M 2188 4044 
L 1331 1722 
L 3047 1722 
L 2188 4044 
z
M 1831 4666 
L 2547 4666 
L 4325 0 
L 3669 0 
L 3244 1197 
L 1141 1197 
L 716 0 
L 50 0 
L 1831 4666 
z
" transform="scale(0.015625)"/>
       <path id="DejaVuSans-68" d="M 3513 2113 
L 3513 0 
L 2938 0 
L 2938 2094 
Q 2938 2591 2744 2837 
Q 2550 3084 2163 3084 
Q 1697 3084 1428 2787 
Q 1159 2491 1159 1978 
L 1159 0 
L 581 0 
L 581 4863 
L 1159 4863 
L 1159 2956 
Q 1366 3272 1645 3428 
Q 1925 3584 2291 3584 
Q 2894 3584 3203 3211 
Q 3513 2838 3513 2113 
z
" transform="scale(0.015625)"/>
      </defs>
      <use xlink:href="#DejaVuSans-41"/>
      <use xlink:href="#DejaVuSans-72" x="68.408203"/>
      <use xlink:href="#DejaVuSans-74" x="109.521484"/>
      <use xlink:href="#DejaVuSans-68" x="148.730469"/>
      <use xlink:href="#DejaVuSans-75" x="212.109375"/>
      <use xlink:href="#DejaVuSans-72" x="275.488281"/>
      <use xlink:href="#DejaVuSans-20" x="316.601562"/>
      <use xlink:href="#DejaVuSans-42" x="348.388672"/>
      <use xlink:href="#DejaVuSans-65" x="416.992188"/>
      <use xlink:href="#DejaVuSans-72" x="478.515625"/>
      <use xlink:href="#DejaVuSans-74" x="519.628906"/>
      <use xlink:href="#DejaVuSans-68" x="558.837891"/>
      <use xlink:href="#DejaVuSans-65" x="622.216797"/>
      <use xlink:href="#DejaVuSans-6c" x="683.740234"/>
      <use xlink:href="#DejaVuSans-65" x="711.523438"/>
      <use xlink:href="#DejaVuSans-74" x="773.046875"/>
     </g>
    </g>
   </g>
   <g id="text_6">
    <g id="patch_7">
     <path d="M 130.851611 110.634724 
L 224.850986 110.634724 
L 224.850986 94.004411 
L 130.851611 94.004411 
z
" clip-path="url(#pfe94e23bf4)" style="fill: #ffffff; opacity: 0.7; stroke: #000000; stroke-linejoin: miter"/>
    </g>
    <g clip-path="url(#pfe94e23bf4)">
     <!-- Henri Desfontaines -->
     <g transform="translate(134.811611 104.803005)scale(0.09 -0.09)">
      <defs>
       <path id="DejaVuSans-48" d="M 628 4666 
L 1259 4666 
L 1259 2753 
L 3553 2753 
L 3553 4666 
L 4184 4666 
L 4184 0 
L 3553 0 
L 3553 2222 
L 1259 2222 
L 1259 0 
L 628 0 
L 628 4666 
z
" transform="scale(0.015625)"/>
       <path id="DejaVuSans-44" d="M 1259 4147 
L 1259 519 
L 2022 519 
Q 2988 519 3436 956 
Q 3884 1394 3884 2338 
Q 3884 3275 3436 3711 
Q 2988 4147 2022 4147 
L 1259 4147 
z
M 628 4666 
L 1925 4666 
Q 3281 4666 3915 4102 
Q 4550 3538 4550 2338 
Q 4550 1131 3912 565 
Q 3275 0 1925 0 
L 628 0 
L 628 4666 
z
" transform="scale(0.015625)"/>
       <path id="DejaVuSans-66" d="M 2375 4863 
L 2375 4384 
L 1825 4384 
Q 1516 4384 1395 4259 
Q 1275 4134 1275 3809 
L 1275 3500 
L 2222 3500 
L 2222 3053 
L 1275 3053 
L 1275 0 
L 697 0 
L 697 3053 
L 147 3053 
L 147 3500 
L 697 3500 
L 697 3744 
Q 697 4328 969 4595 
Q 1241 4863 1831 4863 
L 2375 4863 
z
" transform="scale(0.015625)"/>
      </defs>
      <use xlink:href="#DejaVuSans-48"/>
      <use xlink:href="#DejaVuSans-65" x="75.195312"/>
      <use xlink:href="#DejaVuSans-6e" x="136.71875"/>
      <use xlink:href="#DejaVuSans-72" x="200.097656"/>
      <use xlink:href="#DejaVuSans-69" x="241.210938"/>
      <use xlink:href="#DejaVuSans-20" x="268.994141"/>
      <use xlink:href="#DejaVuSans-44" x="300.78125"/>
      <use xlink:href="#DejaVuSans-65" x="377.783203"/>
      <use xlink:href="#DejaVuSans-73" x="439.306641"/>
      <use xlink:href="#DejaVuSans-66" x="491.40625"/>
      <use xlink:href="#DejaVuSans-6f" x="526.611328"/>
      <use xlink:href="#DejaVuSans-6e" x="587.792969"/>
      <use xlink:href="#DejaVuSans-74" x="651.171875"/>
      <use xlink:href="#DejaVuSans-61" x="690.380859"/>
      <use xlink:href="#DejaVuSans-69" x="751.660156"/>
      <use xlink:href="#DejaVuSans-6e" x="779.443359"/>
      <use xlink:href="#DejaVuSans-65" x="842.822266"/>
      <use xlink:href="#DejaVuSans-73" x="904.345703"/>
     </g>
    </g>
   </g>
   <g id="text_7">
    <g id="patch_8">
     <path d="M 72.101165 170.290885 
L 150.36179 170.290885 
L 150.36179 153.660572 
L 72.101165 153.660572 
z
" clip-path="url(#pfe94e23bf4)" style="fill: #ffffff; opacity: 0.7; stroke: #000000; stroke-linejoin: miter"/>
    </g>
    <g clip-path="url(#pfe94e23bf4)">
     <!-- Fred W. Durrant -->
     <g transform="translate(76.061165 164.459166)scale(0.09 -0.09)">
      <defs>
       <path id="DejaVuSans-57" d="M 213 4666 
L 850 4666 
L 1831 722 
L 2809 4666 
L 3519 4666 
L 4500 722 
L 5478 4666 
L 6119 4666 
L 4947 0 
L 4153 0 
L 3169 4050 
L 2175 0 
L 1381 0 
L 213 4666 
z
" transform="scale(0.015625)"/>
      </defs>
      <use xlink:href="#DejaVuSans-46"/>
      <use xlink:href="#DejaVuSans-72" x="50.269531"/>
      <use xlink:href="#DejaVuSans-65" x="89.132812"/>
      <use xlink:href="#DejaVuSans-64" x="150.65625"/>
      <use xlink:href="#DejaVuSans-20" x="214.132812"/>
      <use xlink:href="#DejaVuSans-57" x="245.919922"/>
      <use xlink:href="#DejaVuSans-2e" x="333.296875"/>
      <use xlink:href="#DejaVuSans-20" x="365.083984"/>
      <use xlink:href="#DejaVuSans-44" x="396.871094"/>
      <use xlink:href="#DejaVuSans-75" x="473.873047"/>
      <use xlink:href="#DejaVuSans-72" x="537.251953"/>
      <use xlink:href="#DejaVuSans-72" x="576.615234"/>
      <use xlink:href="#DejaVuSans-61" x="617.728516"/>
      <use xlink:href="#DejaVuSans-6e" x="679.007812"/>
      <use xlink:href="#DejaVuSans-74" x="742.386719"/>
     </g>
    </g>
   </g>
   <g id="text_8">
    <g id="patch_9">
     <path d="M 40.922903 251.737805 
L 108.615559 251.737805 
L 108.615559 235.107493 
L 40.922903 235.107493 
z
" clip-path="url(#pfe94e23bf4)" style="fill: #ffffff; opacity: 0.7; stroke: #000000; stroke-linejoin: miter"/>
    </g>
    <g clip-path="url(#pfe94e23bf4)">
     <!-- James Durkin -->
     <g transform="translate(44.882903 245.906086)scale(0.09 -0.09)">
      <defs>
       <path id="DejaVuSans-4a" d="M 628 4666 
L 1259 4666 
L 1259 325 
Q 1259 -519 939 -900 
Q 619 -1281 -91 -1281 
L -331 -1281 
L -331 -750 
L -134 -750 
Q 284 -750 456 -515 
Q 628 -281 628 325 
L 628 4666 
z
" transform="scale(0.015625)"/>
       <path id="DejaVuSans-6b" d="M 581 4863 
L 1159 4863 
L 1159 1991 
L 2875 3500 
L 3609 3500 
L 1753 1863 
L 3688 0 
L 2938 0 
L 1159 1709 
L 1159 0 
L 581 0 
L 581 4863 
z
" transform="scale(0.015625)"/>
      </defs>
      <use xlink:href="#DejaVuSans-4a"/>
      <use xlink:href="#DejaVuSans-61" x="29.492188"/>
      <use xlink:href="#DejaVuSans-6d" x="90.771484"/>
      <use xlink:href="#DejaVuSans-65" x="188.183594"/>
      <use xlink:href="#DejaVuSans-73" x="249.707031"/>
      <use xlink:href="#DejaVuSans-20" x="301.806641"/>
      <use xlink:href="#DejaVuSans-44" x="333.59375"/>
      <use xlink:href="#DejaVuSans-75" x="410.595703"/>
      <use xlink:href="#DejaVuSans-72" x="473.974609"/>
      <use xlink:href="#DejaVuSans-6b" x="515.087891"/>
      <use xlink:href="#DejaVuSans-69" x="572.998047"/>
      <use xlink:href="#DejaVuSans-6e" x="600.78125"/>
     </g>
    </g>
   </g>
   <g id="text_9">
    <g id="patch_10">
     <path d="M 42.170259 340.892546 
L 107.368228 340.892546 
L 107.368228 324.262233 
L 42.170259 324.262233 
z
" clip-path="url(#pfe94e23bf4)" style="fill: #ffffff; opacity: 0.7; stroke: #000000; stroke-linejoin: miter"/>
    </g>
    <g clip-path="url(#pfe94e23bf4)">
     <!-- Ashley Miller -->
     <g transform="translate(46.130259 335.060827)scale(0.09 -0.09)">
      <defs>
       <path id="DejaVuSans-4d" d="M 628 4666 
L 1569 4666 
L 2759 1491 
L 3956 4666 
L 4897 4666 
L 4897 0 
L 4281 0 
L 4281 4097 
L 3078 897 
L 2444 897 
L 1241 4097 
L 1241 0 
L 628 0 
L 628 4666 
z
" transform="scale(0.015625)"/>
      </defs>
      <use xlink:href="#DejaVuSans-41"/>
      <use xlink:href="#DejaVuSans-73" x="68.408203"/>
      <use xlink:href="#DejaVuSans-68" x="120.507812"/>
      <use xlink:href="#DejaVuSans-6c" x="183.886719"/>
      <use xlink:href="#DejaVuSans-65" x="211.669922"/>
      <use xlink:href="#DejaVuSans-79" x="273.193359"/>
      <use xlink:href="#DejaVuSans-20" x="332.373047"/>
      <use xlink:href="#DejaVuSans-4d" x="364.160156"/>
      <use xlink:href="#DejaVuSans-69" x="450.439453"/>
      <use xlink:href="#DejaVuSans-6c" x="478.222656"/>
      <use xlink:href="#DejaVuSans-6c" x="506.005859"/>
      <use xlink:href="#DejaVuSans-65" x="533.789062"/>
      <use xlink:href="#DejaVuSans-72" x="595.3125"/>
     </g>
    </g>
   </g>
   <g id="text_10">
    <g id="patch_11">
     <path d="M 65.842662 422.33944 
L 156.620318 422.33944 
L 156.620318 405.709128 
L 65.842662 405.709128 
z
" clip-path="url(#pfe94e23bf4)" style="fill: #ffffff; opacity: 0.7; stroke: #000000; stroke-linejoin: miter"/>
    </g>
    <g clip-path="url(#pfe94e23bf4)">
     <!-- William Humphrey -->
     <g transform="translate(69.802662 416.507722)scale(0.09 -0.09)">
      <defs>
       <path id="DejaVuSans-70" d="M 1159 525 
L 1159 -1331 
L 581 -1331 
L 581 3500 
L 1159 3500 
L 1159 2969 
Q 1341 3281 1617 3432 
Q 1894 3584 2278 3584 
Q 2916 3584 3314 3078 
Q 3713 2572 3713 1747 
Q 3713 922 3314 415 
Q 2916 -91 2278 -91 
Q 1894 -91 1617 61 
Q 1341 213 1159 525 
z
M 3116 1747 
Q 3116 2381 2855 2742 
Q 2594 3103 2138 3103 
Q 1681 3103 1420 2742 
Q 1159 2381 1159 1747 
Q 1159 1113 1420 752 
Q 1681 391 2138 391 
Q 2594 391 2855 752 
Q 3116 1113 3116 1747 
z
" transform="scale(0.015625)"/>
      </defs>
      <use xlink:href="#DejaVuSans-57"/>
      <use xlink:href="#DejaVuSans-69" x="96.626953"/>
      <use xlink:href="#DejaVuSans-6c" x="124.410156"/>
      <use xlink:href="#DejaVuSans-6c" x="152.193359"/>
      <use xlink:href="#DejaVuSans-69" x="179.976562"/>
      <use xlink:href="#DejaVuSans-61" x="207.759766"/>
      <use xlink:href="#DejaVuSans-6d" x="269.039062"/>
      <use xlink:href="#DejaVuSans-20" x="366.451172"/>
      <use xlink:href="#DejaVuSans-48" x="398.238281"/>
      <use xlink:href="#DejaVuSans-75" x="473.433594"/>
      <use xlink:href="#DejaVuSans-6d" x="536.8125"/>
      <use xlink:href="#DejaVuSans-70" x="634.224609"/>
      <use xlink:href="#DejaVuSans-68" x="697.701172"/>
      <use xlink:href="#DejaVuSans-72" x="761.080078"/>
      <use xlink:href="#DejaVuSans-65" x="799.943359"/>
      <use xlink:href="#DejaVuSans-79" x="861.466797"/>
     </g>
    </g>
   </g>
   <g id="text_11">
    <g id="patch_12">
     <path d="M 135.593518 481.995602 
L 220.109143 481.995602 
L 220.109143 465.365289 
L 135.593518 465.365289 
z
" clip-path="url(#pfe94e23bf4)" style="fill: #ffffff; opacity: 0.7; stroke: #000000; stroke-linejoin: miter"/>
    </g>
    <g clip-path="url(#pfe94e23bf4)">
     <!-- Joseph W. Smiley -->
     <g transform="translate(139.553518 476.163883)scale(0.09 -0.09)">
      <use xlink:href="#DejaVuSans-4a"/>
      <use xlink:href="#DejaVuSans-6f" x="29.492188"/>
      <use xlink:href="#DejaVuSans-73" x="90.673828"/>
      <use xlink:href="#DejaVuSans-65" x="142.773438"/>
      <use xlink:href="#DejaVuSans-70" x="204.296875"/>
      <use xlink:href="#DejaVuSans-68" x="267.773438"/>
      <use xlink:href="#DejaVuSans-20" x="331.152344"/>
      <use xlink:href="#DejaVuSans-57" x="362.939453"/>
      <use xlink:href="#DejaVuSans-2e" x="450.316406"/>
      <use xlink:href="#DejaVuSans-20" x="482.103516"/>
      <use xlink:href="#DejaVuSans-53" x="513.890625"/>
      <use xlink:href="#DejaVuSans-6d" x="577.367188"/>
      <use xlink:href="#DejaVuSans-69" x="674.779297"/>
      <use xlink:href="#DejaVuSans-6c" x="702.5625"/>
      <use xlink:href="#DejaVuSans-65" x="730.345703"/>
      <use xlink:href="#DejaVuSans-79" x="791.869141"/>
     </g>
    </g>
   </g>
   <g id="text_12">
    <g id="patch_13">
     <path d="M 233.23029 509.545925 
L 292.988884 509.545925 
L 292.988884 492.915613 
L 233.23029 492.915613 
z
" clip-path="url(#pfe94e23bf4)" style="fill: #ffffff; opacity: 0.7; stroke: #000000; stroke-linejoin: miter"/>
    </g>
    <g clip-path="url(#pfe94e23bf4)">
     <!-- David Miles -->
     <g transform="translate(237.19029 503.714207)scale(0.09 -0.09)">
      <defs>
       <path id="DejaVuSans-76" d="M 191 3500 
L 800 3500 
L 1894 563 
L 2988 3500 
L 3597 3500 
L 2284 0 
L 1503 0 
L 191 3500 
z
" transform="scale(0.015625)"/>
      </defs>
      <use xlink:href="#DejaVuSans-44"/>
      <use xlink:href="#DejaVuSans-61" x="77.001953"/>
      <use xlink:href="#DejaVuSans-76" x="138.28125"/>
      <use xlink:href="#DejaVuSans-69" x="197.460938"/>
      <use xlink:href="#DejaVuSans-64" x="225.244141"/>
      <use xlink:href="#DejaVuSans-20" x="288.720703"/>
      <use xlink:href="#DejaVuSans-4d" x="320.507812"/>
      <use xlink:href="#DejaVuSans-69" x="406.787109"/>
      <use xlink:href="#DejaVuSans-6c" x="434.570312"/>
      <use xlink:href="#DejaVuSans-65" x="462.353516"/>
      <use xlink:href="#DejaVuSans-73" x="523.876953"/>
     </g>
    </g>
   </g>
   <g id="text_13">
    <g id="patch_14">
     <path d="M 323.864401 500.226706 
L 380.664245 500.226706 
L 380.664245 483.596393 
L 323.864401 483.596393 
z
" clip-path="url(#pfe94e23bf4)" style="fill: #ffffff; opacity: 0.7; stroke: #000000; stroke-linejoin: miter"/>
    </g>
    <g clip-path="url(#pfe94e23bf4)">
     <!-- Teuvo Puro -->
     <g transform="translate(327.824401 494.394987)scale(0.09 -0.09)">
      <defs>
       <path id="DejaVuSans-50" d="M 1259 4147 
L 1259 2394 
L 2053 2394 
Q 2494 2394 2734 2622 
Q 2975 2850 2975 3272 
Q 2975 3691 2734 3919 
Q 2494 4147 2053 4147 
L 1259 4147 
z
M 628 4666 
L 2053 4666 
Q 2838 4666 3239 4311 
Q 3641 3956 3641 3272 
Q 3641 2581 3239 2228 
Q 2838 1875 2053 1875 
L 1259 1875 
L 1259 0 
L 628 0 
L 628 4666 
z
" transform="scale(0.015625)"/>
      </defs>
      <use xlink:href="#DejaVuSans-54"/>
      <use xlink:href="#DejaVuSans-65" x="44.083984"/>
      <use xlink:href="#DejaVuSans-75" x="105.607422"/>
      <use xlink:href="#DejaVuSans-76" x="168.986328"/>
      <use xlink:href="#DejaVuSans-6f" x="228.166016"/>
      <use xlink:href="#DejaVuSans-20" x="289.347656"/>
      <use xlink:href="#DejaVuSans-50" x="321.134766"/>
      <use xlink:href="#DejaVuSans-75" x="379.6875"/>
      <use xlink:href="#DejaVuSans-72" x="443.066406"/>
      <use xlink:href="#DejaVuSans-6f" x="481.929688"/>
     </g>
    </g>
   </g>
   <g id="text_14">
    <g id="patch_15">
     <path d="M 398.121451 455.649316 
L 461.678326 455.649316 
L 461.678326 439.019004 
L 398.121451 439.019004 
z
" clip-path="url(#pfe94e23bf4)" style="fill: #ffffff; opacity: 0.7; stroke: #000000; stroke-linejoin: miter"/>
    </g>
    <g clip-path="url(#pfe94e23bf4)">
     <!-- Louis Sparre -->
     <g transform="translate(402.081451 449.817598)scale(0.09 -0.09)">
      <defs>
       <path id="DejaVuSans-4c" d="M 628 4666 
L 1259 4666 
L 1259 531 
L 3531 531 
L 3531 0 
L 628 0 
L 628 4666 
z
" transform="scale(0.015625)"/>
      </defs>
      <use xlink:href="#DejaVuSans-4c"/>
      <use xlink:href="#DejaVuSans-6f" x="53.962891"/>
      <use xlink:href="#DejaVuSans-75" x="115.144531"/>
      <use xlink:href="#DejaVuSans-69" x="178.523438"/>
      <use xlink:href="#DejaVuSans-73" x="206.306641"/>
      <use xlink:href="#DejaVuSans-20" x="258.40625"/>
      <use xlink:href="#DejaVuSans-53" x="290.193359"/>
      <use xlink:href="#DejaVuSans-70" x="353.669922"/>
      <use xlink:href="#DejaVuSans-61" x="417.146484"/>
      <use xlink:href="#DejaVuSans-72" x="478.425781"/>
      <use xlink:href="#DejaVuSans-72" x="517.789062"/>
      <use xlink:href="#DejaVuSans-65" x="556.652344"/>
     </g>
    </g>
   </g>
   <g id="text_15">
    <g id="patch_16">
     <path d="M 454.00753 383.521616 
L 511.177217 383.521616 
L 511.177217 366.891303 
L 454.00753 366.891303 
z
" clip-path="url(#pfe94e23bf4)" style="fill: #ffffff; opacity: 0.7; stroke: #000000; stroke-linejoin: miter"/>
    </g>
    <g clip-path="url(#pfe94e23bf4)">
     <!-- Mel Brooks -->
     <g transform="translate(457.96753 377.689897)scale(0.09 -0.09)">
      <use xlink:href="#DejaVuSans-4d"/>
      <use xlink:href="#DejaVuSans-65" x="86.279297"/>
      <use xlink:href="#DejaVuSans-6c" x="147.802734"/>
      <use xlink:href="#DejaVuSans-20" x="175.585938"/>
      <use xlink:href="#DejaVuSans-42" x="207.373047"/>
      <use xlink:href="#DejaVuSans-72" x="275.976562"/>
      <use xlink:href="#DejaVuSans-6f" x="314.839844"/>
      <use xlink:href="#DejaVuSans-6f" x="376.021484"/>
      <use xlink:href="#DejaVuSans-6b" x="437.203125"/>
      <use xlink:href="#DejaVuSans-73" x="495.113281"/>
     </g>
    </g>
   </g>
   <g id="text_16">
    <!-- Impactful directors for Silent film genre -->
    <g transform="translate(169.861875 4.8)scale(0.12 -0.12)">
     <defs>
      <path id="DejaVuSans-49" d="M 628 4666 
L 1259 4666 
L 1259 0 
L 628 0 
L 628 4666 
z
" transform="scale(0.015625)"/>
      <path id="DejaVuSans-67" d="M 2906 1791 
Q 2906 2416 2648 2759 
Q 2391 3103 1925 3103 
Q 1463 3103 1205 2759 
Q 947 2416 947 1791 
Q 947 1169 1205 825 
Q 1463 481 1925 481 
Q 2391 481 2648 825 
Q 2906 1169 2906 1791 
z
M 3481 434 
Q 3481 -459 3084 -895 
Q 2688 -1331 1869 -1331 
Q 1566 -1331 1297 -1286 
Q 1028 -1241 775 -1147 
L 775 -588 
Q 1028 -725 1275 -790 
Q 1522 -856 1778 -856 
Q 2344 -856 2625 -561 
Q 2906 -266 2906 331 
L 2906 616 
Q 2728 306 2450 153 
Q 2172 0 1784 0 
Q 1141 0 747 490 
Q 353 981 353 1791 
Q 353 2603 747 3093 
Q 1141 3584 1784 3584 
Q 2172 3584 2450 3431 
Q 2728 3278 2906 2969 
L 2906 3500 
L 3481 3500 
L 3481 434 
z
" transform="scale(0.015625)"/>
     </defs>
     <use xlink:href="#DejaVuSans-49"/>
     <use xlink:href="#DejaVuSans-6d" x="29.492188"/>
     <use xlink:href="#DejaVuSans-70" x="126.904297"/>
     <use xlink:href="#DejaVuSans-61" x="190.380859"/>
     <use xlink:href="#DejaVuSans-63" x="251.660156"/>
     <use xlink:href="#DejaVuSans-74" x="306.640625"/>
     <use xlink:href="#DejaVuSans-66" x="345.849609"/>
     <use xlink:href="#DejaVuSans-75" x="381.054688"/>
     <use xlink:href="#DejaVuSans-6c" x="444.433594"/>
     <use xlink:href="#DejaVuSans-20" x="472.216797"/>
     <use xlink:href="#DejaVuSans-64" x="504.003906"/>
     <use xlink:href="#DejaVuSans-69" x="567.480469"/>
     <use xlink:href="#DejaVuSans-72" x="595.263672"/>
     <use xlink:href="#DejaVuSans-65" x="634.126953"/>
     <use xlink:href="#DejaVuSans-63" x="695.650391"/>
     <use xlink:href="#DejaVuSans-74" x="750.630859"/>
     <use xlink:href="#DejaVuSans-6f" x="789.839844"/>
     <use xlink:href="#DejaVuSans-72" x="851.021484"/>
     <use xlink:href="#DejaVuSans-73" x="892.134766"/>
     <use xlink:href="#DejaVuSans-20" x="944.234375"/>
     <use xlink:href="#DejaVuSans-66" x="976.021484"/>
     <use xlink:href="#DejaVuSans-6f" x="1011.226562"/>
     <use xlink:href="#DejaVuSans-72" x="1072.408203"/>
     <use xlink:href="#DejaVuSans-20" x="1113.521484"/>
     <use xlink:href="#DejaVuSans-53" x="1145.308594"/>
     <use xlink:href="#DejaVuSans-69" x="1208.785156"/>
     <use xlink:href="#DejaVuSans-6c" x="1236.568359"/>
     <use xlink:href="#DejaVuSans-65" x="1264.351562"/>
     <use xlink:href="#DejaVuSans-6e" x="1325.875"/>
     <use xlink:href="#DejaVuSans-74" x="1389.253906"/>
     <use xlink:href="#DejaVuSans-20" x="1428.462891"/>
     <use xlink:href="#DejaVuSans-66" x="1460.25"/>
     <use xlink:href="#DejaVuSans-69" x="1495.455078"/>
     <use xlink:href="#DejaVuSans-6c" x="1523.238281"/>
     <use xlink:href="#DejaVuSans-6d" x="1551.021484"/>
     <use xlink:href="#DejaVuSans-20" x="1648.433594"/>
     <use xlink:href="#DejaVuSans-67" x="1680.220703"/>
     <use xlink:href="#DejaVuSans-65" x="1743.697266"/>
     <use xlink:href="#DejaVuSans-6e" x="1805.220703"/>
     <use xlink:href="#DejaVuSans-72" x="1868.599609"/>
     <use xlink:href="#DejaVuSans-65" x="1907.462891"/>
    </g>
   </g>
  </g>
 </g>
 <defs>
  <clipPath id="pfe94e23bf4">
   <rect x="10.8" y="10.8" width="554.4" height="554.4"/>
  </clipPath>
 </defs>
</svg>
