<?xml version="1.0" encoding="utf-8" standalone="no"?>
<!DOCTYPE svg PUBLIC "-//W3C//DTD SVG 1.1//EN"
  "http://www.w3.org/Graphics/SVG/1.1/DTD/svg11.dtd">
<svg xmlns:xlink="http://www.w3.org/1999/xlink" width="568.8pt" height="583.918125pt" viewBox="0 0 568.8 583.918125" xmlns="http://www.w3.org/2000/svg" version="1.1">
 <metadata>
  <rdf:RDF xmlns:dc="http://purl.org/dc/elements/1.1/" xmlns:cc="http://creativecommons.org/ns#" xmlns:rdf="http://www.w3.org/1999/02/22-rdf-syntax-ns#">
   <cc:Work>
    <dc:type rdf:resource="http://purl.org/dc/dcmitype/StillImage"/>
    <dc:date>2022-12-23T20:57:06.362781</dc:date>
    <dc:format>image/svg+xml</dc:format>
    <dc:creator>
     <cc:Agent>
      <dc:title>Matplotlib v3.5.3, https://matplotlib.org/</dc:title>
     </cc:Agent>
    </dc:creator>
   </cc:Work>
  </rdf:RDF>
 </metadata>
 <defs>
  <style type="text/css">*{stroke-linejoin: round; stroke-linecap: butt}</style>
 </defs>
 <g id="figure_1">
  <g id="patch_1">
   <path d="M 0 583.918125 
L 568.8 583.918125 
L 568.8 0 
L 0 0 
z
" style="fill: #ffffff"/>
  </g>
  <g id="axes_1">
   <g id="LineCollection_1">
    <path d="M 496.70088 299.518125 
L 478.103099 212.311633 
" clip-path="url(#pfc40f64603)" style="fill: none; stroke: #000000; stroke-opacity: 0.3; stroke-width: 5"/>
    <path d="M 496.70088 299.518125 
L 478.103125 386.724585 
" clip-path="url(#pfc40f64603)" style="fill: none; stroke: #000000; stroke-opacity: 0.3; stroke-width: 10"/>
   </g>
   <g id="PathCollection_1">
    <path d="M 496.70088 326.904253 
C 503.963766 326.904253 510.930161 324.018678 516.065797 318.883042 
C 521.201433 313.747406 524.087008 306.781011 524.087008 299.518125 
C 524.087008 292.255239 521.201433 285.288844 516.065797 280.153208 
C 510.930161 275.017572 503.963766 272.131997 496.70088 272.131997 
C 489.437994 272.131997 482.471599 275.017572 477.335963 280.153208 
C 472.200328 285.288844 469.314752 292.255239 469.314752 299.518125 
C 469.314752 306.781011 472.200328 313.747406 477.335963 318.883042 
C 482.471599 324.018678 489.437994 326.904253 496.70088 326.904253 
z
" clip-path="url(#pfc40f64603)" style="fill: #c70039; fill-opacity: 0.99; stroke: #c70039; stroke-opacity: 0.99"/>
    <path d="M 478.103099 237.181223 
C 484.698592 237.181223 491.024838 234.560806 495.688555 229.897089 
C 500.352272 225.233372 502.972689 218.907126 502.972689 212.311633 
C 502.972689 205.716141 500.352272 199.389895 495.688555 194.726178 
C 491.024838 190.06246 484.698592 187.442044 478.103099 187.442044 
C 471.507607 187.442044 465.181361 190.06246 460.517644 194.726178 
C 455.853926 199.389895 453.23351 205.716141 453.23351 212.311633 
C 453.23351 218.907126 455.853926 225.233372 460.517644 229.897089 
C 465.181361 234.560806 471.507607 237.181223 478.103099 237.181223 
z
" clip-path="url(#pfc40f64603)" style="fill: #c70039; fill-opacity: 0.99; stroke: #c70039; stroke-opacity: 0.99"/>
    <path d="M 425.525496 164.839054 
C 432.064112 164.839054 438.335804 162.241234 442.959304 157.617734 
C 447.582804 152.994235 450.180624 146.722543 450.180624 140.183927 
C 450.180624 133.64531 447.582804 127.373619 442.959304 122.750119 
C 438.335804 118.126619 432.064112 115.528799 425.525496 115.528799 
C 418.98688 115.528799 412.715188 118.126619 408.091688 122.750119 
C 403.468188 127.373619 400.870369 133.64531 400.870369 140.183927 
C 400.870369 146.722543 403.468188 152.994235 408.091688 157.617734 
C 412.715188 162.241234 418.98688 164.839054 425.525496 164.839054 
z
" clip-path="url(#pfc40f64603)" style="fill: #c70039; fill-opacity: 0.99; stroke: #c70039; stroke-opacity: 0.99"/>
    <path d="M 348.05922 120.066502 
C 354.546072 120.066502 360.768112 117.489249 365.355009 112.902352 
C 369.941906 108.315455 372.51916 102.093415 372.51916 95.606563 
C 372.51916 89.119711 369.941906 82.89767 365.355009 78.310773 
C 360.768112 73.723877 354.546072 71.146623 348.05922 71.146623 
C 341.572368 71.146623 335.350328 73.723877 330.763431 78.310773 
C 326.176534 82.89767 323.59928 89.119711 323.59928 95.606563 
C 323.59928 102.093415 326.176534 108.315455 330.763431 112.902352 
C 335.350328 117.489249 341.572368 120.066502 348.05922 120.066502 
z
" clip-path="url(#pfc40f64603)" style="fill: #c70039; fill-opacity: 0.99; stroke: #c70039; stroke-opacity: 0.99"/>
    <path d="M 259.098877 110.712582 
C 265.576523 110.712582 271.789733 108.138986 276.37012 103.558599 
C 280.950508 98.978212 283.524104 92.765002 283.524104 86.287356 
C 283.524104 79.80971 280.950508 73.5965 276.37012 69.016112 
C 271.789733 64.435725 265.576523 61.862129 259.098877 61.862129 
C 252.621231 61.862129 246.408021 64.435725 241.827634 69.016112 
C 237.247247 73.5965 234.673651 79.80971 234.673651 86.287356 
C 234.673651 92.765002 237.247247 98.978212 241.827634 103.558599 
C 246.408021 108.138986 252.621231 110.712582 259.098877 110.712582 
z
" clip-path="url(#pfc40f64603)" style="fill: #c70039; fill-opacity: 0.99; stroke: #c70039; stroke-opacity: 0.99"/>
    <path d="M 174.02653 136.29982 
C 179.983556 136.29982 185.697399 133.933068 189.909653 129.720815 
C 194.121906 125.508562 196.488658 119.794718 196.488658 113.837692 
C 196.488658 107.880666 194.121906 102.166823 189.909653 97.95457 
C 185.697399 93.742316 179.983556 91.375565 174.02653 91.375565 
C 168.069504 91.375565 162.355661 93.742316 158.143407 97.95457 
C 153.931154 102.166823 151.564403 107.880666 151.564403 113.837692 
C 151.564403 119.794718 153.931154 125.508562 158.143407 129.720815 
C 162.355661 133.933068 168.069504 136.29982 174.02653 136.29982 
z
" clip-path="url(#pfc40f64603)" style="fill: #c70039; fill-opacity: 0.99; stroke: #c70039; stroke-opacity: 0.99"/>
    <path d="M 107.551972 195.159911 
C 113.297877 195.159911 118.809219 192.877038 122.872188 188.81407 
C 126.935157 184.751101 129.218029 179.239759 129.218029 173.493854 
C 129.218029 167.747948 126.935157 162.236607 122.872188 158.173638 
C 118.809219 154.110669 113.297877 151.827797 107.551972 151.827797 
C 101.806066 151.827797 96.294725 154.110669 92.231756 158.173638 
C 88.168787 162.236607 85.885915 167.747948 85.885915 173.493854 
C 85.885915 179.239759 88.168787 184.751101 92.231756 188.81407 
C 96.294725 192.877038 101.806066 195.159911 107.551972 195.159911 
z
" clip-path="url(#pfc40f64603)" style="fill: #c70039; fill-opacity: 0.99; stroke: #c70039; stroke-opacity: 0.99"/>
    <path d="M 71.169231 276.42968 
C 76.868155 276.42968 82.334434 274.165474 86.364182 270.135725 
C 90.39393 266.105977 92.658137 260.639698 92.658137 254.940774 
C 92.658137 249.241849 90.39393 243.775571 86.364182 239.745822 
C 82.334434 235.716074 76.868155 233.451867 71.169231 233.451867 
C 65.470306 233.451867 60.004028 235.716074 55.974279 239.745822 
C 51.944531 243.775571 49.680324 249.241849 49.680324 254.940774 
C 49.680324 260.639698 51.944531 266.105977 55.974279 270.135725 
C 60.004028 274.165474 65.470306 276.42968 71.169231 276.42968 
z
" clip-path="url(#pfc40f64603)" style="fill: #c70039; fill-opacity: 0.99; stroke: #c70039; stroke-opacity: 0.99"/>
    <path d="M 71.169244 365.310708 
C 76.795579 365.310708 82.192231 363.075341 86.170651 359.096922 
C 90.14907 355.118502 92.384437 349.72185 92.384437 344.095514 
C 92.384437 338.469179 90.14907 333.072527 86.170651 329.094107 
C 82.192231 325.115688 76.795579 322.880321 71.169244 322.880321 
C 65.542909 322.880321 60.146256 325.115688 56.167836 329.094107 
C 52.189417 333.072527 49.95405 338.469179 49.95405 344.095514 
C 49.95405 349.72185 52.189417 355.118502 56.167836 359.096922 
C 60.146256 363.075341 65.542909 365.310708 71.169244 365.310708 
z
" clip-path="url(#pfc40f64603)" style="fill: #c70039; fill-opacity: 0.99; stroke: #c70039; stroke-opacity: 0.99"/>
    <path d="M 107.551985 446.732585 
C 113.171685 446.732585 118.561974 444.499855 122.535702 440.526126 
C 126.50943 436.552398 128.742161 431.16211 128.742161 425.542409 
C 128.742161 419.922709 126.50943 414.53242 122.535702 410.558692 
C 118.561974 406.584963 113.171685 404.352233 107.551985 404.352233 
C 101.932284 404.352233 96.541996 406.584963 92.568267 410.558692 
C 88.594539 414.53242 86.361808 419.922709 86.361808 425.542409 
C 86.361808 431.16211 88.594539 436.552398 92.568267 440.526126 
C 96.541996 444.499855 101.932284 446.732585 107.551985 446.732585 
z
" clip-path="url(#pfc40f64603)" style="fill: #c70039; fill-opacity: 0.99; stroke: #c70039; stroke-opacity: 0.99"/>
    <path d="M 174.026562 506.277311 
C 179.61671 506.277311 184.978651 504.056322 188.931483 500.103491 
C 192.884314 496.15066 195.105303 490.788718 195.105303 485.198571 
C 195.105303 479.608423 192.884314 474.246481 188.931483 470.29365 
C 184.978651 466.340819 179.61671 464.11983 174.026562 464.11983 
C 168.436415 464.11983 163.074473 466.340819 159.121642 470.29365 
C 155.168811 474.246481 152.947822 479.608423 152.947822 485.198571 
C 152.947822 490.788718 155.168811 496.15066 159.121642 500.103491 
C 163.074473 504.056322 168.436415 506.277311 174.026562 506.277311 
z
" clip-path="url(#pfc40f64603)" style="fill: #c70039; fill-opacity: 0.99; stroke: #c70039; stroke-opacity: 0.99"/>
    <path d="M 259.098916 532.755188 
C 264.404647 532.755188 269.493783 530.647198 273.245501 526.89548 
C 276.99722 523.143762 279.105209 518.054625 279.105209 512.748894 
C 279.105209 507.443163 276.99722 502.354027 273.245501 498.602309 
C 269.493783 494.85059 264.404647 492.742601 259.098916 492.742601 
C 253.793185 492.742601 248.704048 494.85059 244.95233 498.602309 
C 241.200612 502.354027 239.092622 507.443163 239.092622 512.748894 
C 239.092622 518.054625 241.200612 523.143762 244.95233 526.89548 
C 248.704048 530.647198 253.793185 532.755188 259.098916 532.755188 
z
" clip-path="url(#pfc40f64603)" style="fill: #c70039; fill-opacity: 0.99; stroke: #c70039; stroke-opacity: 0.99"/>
    <path d="M 348.059252 523.289242 
C 353.326071 523.289242 358.377884 521.196713 362.102087 517.472509 
C 365.82629 513.748306 367.91882 508.696493 367.91882 503.429675 
C 367.91882 498.162856 365.82629 493.111043 362.102087 489.38684 
C 358.377884 485.662636 353.326071 483.570107 348.059252 483.570107 
C 342.792433 483.570107 337.740621 485.662636 334.016417 489.38684 
C 330.292214 493.111043 328.199685 498.162856 328.199685 503.429675 
C 328.199685 508.696493 330.292214 513.748306 334.016417 517.472509 
C 337.740621 521.196713 342.792433 523.289242 348.059252 523.289242 
z
" clip-path="url(#pfc40f64603)" style="fill: #c70039; fill-opacity: 0.99; stroke: #c70039; stroke-opacity: 0.99"/>
    <path d="M 425.525535 478.468894 
C 430.72792 478.468894 435.71793 476.401964 439.396572 472.723322 
C 443.075214 469.04468 445.142143 464.05467 445.142143 458.852285 
C 445.142143 453.6499 443.075214 448.65989 439.396572 444.981248 
C 435.71793 441.302606 430.72792 439.235676 425.525535 439.235676 
C 420.323149 439.235676 415.33314 441.302606 411.654498 444.981248 
C 407.975856 448.65989 405.908926 453.6499 405.908926 458.852285 
C 405.908926 464.05467 407.975856 469.04468 411.654498 472.723322 
C 415.33314 476.401964 420.323149 478.468894 425.525535 478.468894 
z
" clip-path="url(#pfc40f64603)" style="fill: #c70039; fill-opacity: 0.99; stroke: #c70039; stroke-opacity: 0.99"/>
    <path d="M 478.103125 406.089501 
C 483.238761 406.089501 488.164746 404.049092 491.796189 400.417649 
C 495.427632 396.786206 497.468042 391.860221 497.468042 386.724585 
C 497.468042 381.588949 495.427632 376.662964 491.796189 373.031521 
C 488.164746 369.400078 483.238761 367.359668 478.103125 367.359668 
C 472.967489 367.359668 468.041504 369.400078 464.410061 373.031521 
C 460.778618 376.662964 458.738208 381.588949 458.738208 386.724585 
C 458.738208 391.860221 460.778618 396.786206 464.410061 400.417649 
C 468.041504 404.049092 472.967489 406.089501 478.103125 406.089501 
z
" clip-path="url(#pfc40f64603)" style="fill: #c70039; fill-opacity: 0.99; stroke: #c70039; stroke-opacity: 0.99"/>
   </g>
   <g id="text_1">
    <g id="patch_2">
     <path d="M 465.338693 307.833281 
L 528.063068 307.833281 
L 528.063068 291.202969 
L 465.338693 291.202969 
z
" clip-path="url(#pfc40f64603)" style="fill: #ffffff; opacity: 0.7; stroke: #000000; stroke-linejoin: miter"/>
    </g>
    <g clip-path="url(#pfc40f64603)">
     <!-- Chuck Jones -->
     <g transform="translate(469.298693 302.001562)scale(0.09 -0.09)">
      <defs>
       <path id="DejaVuSans-43" d="M 4122 4306 
L 4122 3641 
Q 3803 3938 3442 4084 
Q 3081 4231 2675 4231 
Q 1875 4231 1450 3742 
Q 1025 3253 1025 2328 
Q 1025 1406 1450 917 
Q 1875 428 2675 428 
Q 3081 428 3442 575 
Q 3803 722 4122 1019 
L 4122 359 
Q 3791 134 3420 21 
Q 3050 -91 2638 -91 
Q 1578 -91 968 557 
Q 359 1206 359 2328 
Q 359 3453 968 4101 
Q 1578 4750 2638 4750 
Q 3056 4750 3426 4639 
Q 3797 4528 4122 4306 
z
" transform="scale(0.015625)"/>
       <path id="DejaVuSans-68" d="M 3513 2113 
L 3513 0 
L 2938 0 
L 2938 2094 
Q 2938 2591 2744 2837 
Q 2550 3084 2163 3084 
Q 1697 3084 1428 2787 
Q 1159 2491 1159 1978 
L 1159 0 
L 581 0 
L 581 4863 
L 1159 4863 
L 1159 2956 
Q 1366 3272 1645 3428 
Q 1925 3584 2291 3584 
Q 2894 3584 3203 3211 
Q 3513 2838 3513 2113 
z
" transform="scale(0.015625)"/>
       <path id="DejaVuSans-75" d="M 544 1381 
L 544 3500 
L 1119 3500 
L 1119 1403 
Q 1119 906 1312 657 
Q 1506 409 1894 409 
Q 2359 409 2629 706 
Q 2900 1003 2900 1516 
L 2900 3500 
L 3475 3500 
L 3475 0 
L 2900 0 
L 2900 538 
Q 2691 219 2414 64 
Q 2138 -91 1772 -91 
Q 1169 -91 856 284 
Q 544 659 544 1381 
z
M 1991 3584 
L 1991 3584 
z
" transform="scale(0.015625)"/>
       <path id="DejaVuSans-63" d="M 3122 3366 
L 3122 2828 
Q 2878 2963 2633 3030 
Q 2388 3097 2138 3097 
Q 1578 3097 1268 2742 
Q 959 2388 959 1747 
Q 959 1106 1268 751 
Q 1578 397 2138 397 
Q 2388 397 2633 464 
Q 2878 531 3122 666 
L 3122 134 
Q 2881 22 2623 -34 
Q 2366 -91 2075 -91 
Q 1284 -91 818 406 
Q 353 903 353 1747 
Q 353 2603 823 3093 
Q 1294 3584 2113 3584 
Q 2378 3584 2631 3529 
Q 2884 3475 3122 3366 
z
" transform="scale(0.015625)"/>
       <path id="DejaVuSans-6b" d="M 581 4863 
L 1159 4863 
L 1159 1991 
L 2875 3500 
L 3609 3500 
L 1753 1863 
L 3688 0 
L 2938 0 
L 1159 1709 
L 1159 0 
L 581 0 
L 581 4863 
z
" transform="scale(0.015625)"/>
       <path id="DejaVuSans-20" transform="scale(0.015625)"/>
       <path id="DejaVuSans-4a" d="M 628 4666 
L 1259 4666 
L 1259 325 
Q 1259 -519 939 -900 
Q 619 -1281 -91 -1281 
L -331 -1281 
L -331 -750 
L -134 -750 
Q 284 -750 456 -515 
Q 628 -281 628 325 
L 628 4666 
z
" transform="scale(0.015625)"/>
       <path id="DejaVuSans-6f" d="M 1959 3097 
Q 1497 3097 1228 2736 
Q 959 2375 959 1747 
Q 959 1119 1226 758 
Q 1494 397 1959 397 
Q 2419 397 2687 759 
Q 2956 1122 2956 1747 
Q 2956 2369 2687 2733 
Q 2419 3097 1959 3097 
z
M 1959 3584 
Q 2709 3584 3137 3096 
Q 3566 2609 3566 1747 
Q 3566 888 3137 398 
Q 2709 -91 1959 -91 
Q 1206 -91 779 398 
Q 353 888 353 1747 
Q 353 2609 779 3096 
Q 1206 3584 1959 3584 
z
" transform="scale(0.015625)"/>
       <path id="DejaVuSans-6e" d="M 3513 2113 
L 3513 0 
L 2938 0 
L 2938 2094 
Q 2938 2591 2744 2837 
Q 2550 3084 2163 3084 
Q 1697 3084 1428 2787 
Q 1159 2491 1159 1978 
L 1159 0 
L 581 0 
L 581 3500 
L 1159 3500 
L 1159 2956 
Q 1366 3272 1645 3428 
Q 1925 3584 2291 3584 
Q 2894 3584 3203 3211 
Q 3513 2838 3513 2113 
z
" transform="scale(0.015625)"/>
       <path id="DejaVuSans-65" d="M 3597 1894 
L 3597 1613 
L 953 1613 
Q 991 1019 1311 708 
Q 1631 397 2203 397 
Q 2534 397 2845 478 
Q 3156 559 3463 722 
L 3463 178 
Q 3153 47 2828 -22 
Q 2503 -91 2169 -91 
Q 1331 -91 842 396 
Q 353 884 353 1716 
Q 353 2575 817 3079 
Q 1281 3584 2069 3584 
Q 2775 3584 3186 3129 
Q 3597 2675 3597 1894 
z
M 3022 2063 
Q 3016 2534 2758 2815 
Q 2500 3097 2075 3097 
Q 1594 3097 1305 2825 
Q 1016 2553 972 2059 
L 3022 2063 
z
" transform="scale(0.015625)"/>
       <path id="DejaVuSans-73" d="M 2834 3397 
L 2834 2853 
Q 2591 2978 2328 3040 
Q 2066 3103 1784 3103 
Q 1356 3103 1142 2972 
Q 928 2841 928 2578 
Q 928 2378 1081 2264 
Q 1234 2150 1697 2047 
L 1894 2003 
Q 2506 1872 2764 1633 
Q 3022 1394 3022 966 
Q 3022 478 2636 193 
Q 2250 -91 1575 -91 
Q 1294 -91 989 -36 
Q 684 19 347 128 
L 347 722 
Q 666 556 975 473 
Q 1284 391 1588 391 
Q 1994 391 2212 530 
Q 2431 669 2431 922 
Q 2431 1156 2273 1281 
Q 2116 1406 1581 1522 
L 1381 1569 
Q 847 1681 609 1914 
Q 372 2147 372 2553 
Q 372 3047 722 3315 
Q 1072 3584 1716 3584 
Q 2034 3584 2315 3537 
Q 2597 3491 2834 3397 
z
" transform="scale(0.015625)"/>
      </defs>
      <use xlink:href="#DejaVuSans-43"/>
      <use xlink:href="#DejaVuSans-68" x="69.824219"/>
      <use xlink:href="#DejaVuSans-75" x="133.203125"/>
      <use xlink:href="#DejaVuSans-63" x="196.582031"/>
      <use xlink:href="#DejaVuSans-6b" x="251.5625"/>
      <use xlink:href="#DejaVuSans-20" x="309.472656"/>
      <use xlink:href="#DejaVuSans-4a" x="341.259766"/>
      <use xlink:href="#DejaVuSans-6f" x="370.751953"/>
      <use xlink:href="#DejaVuSans-6e" x="431.933594"/>
      <use xlink:href="#DejaVuSans-65" x="495.3125"/>
      <use xlink:href="#DejaVuSans-73" x="556.835938"/>
     </g>
    </g>
   </g>
   <g id="text_2">
    <g id="patch_3">
     <path d="M 448.481849 220.62679 
L 507.724349 220.62679 
L 507.724349 203.996477 
L 448.481849 203.996477 
z
" clip-path="url(#pfc40f64603)" style="fill: #ffffff; opacity: 0.7; stroke: #000000; stroke-linejoin: miter"/>
    </g>
    <g clip-path="url(#pfc40f64603)">
     <!-- Friz Freleng -->
     <g transform="translate(452.441849 214.795071)scale(0.09 -0.09)">
      <defs>
       <path id="DejaVuSans-46" d="M 628 4666 
L 3309 4666 
L 3309 4134 
L 1259 4134 
L 1259 2759 
L 3109 2759 
L 3109 2228 
L 1259 2228 
L 1259 0 
L 628 0 
L 628 4666 
z
" transform="scale(0.015625)"/>
       <path id="DejaVuSans-72" d="M 2631 2963 
Q 2534 3019 2420 3045 
Q 2306 3072 2169 3072 
Q 1681 3072 1420 2755 
Q 1159 2438 1159 1844 
L 1159 0 
L 581 0 
L 581 3500 
L 1159 3500 
L 1159 2956 
Q 1341 3275 1631 3429 
Q 1922 3584 2338 3584 
Q 2397 3584 2469 3576 
Q 2541 3569 2628 3553 
L 2631 2963 
z
" transform="scale(0.015625)"/>
       <path id="DejaVuSans-69" d="M 603 3500 
L 1178 3500 
L 1178 0 
L 603 0 
L 603 3500 
z
M 603 4863 
L 1178 4863 
L 1178 4134 
L 603 4134 
L 603 4863 
z
" transform="scale(0.015625)"/>
       <path id="DejaVuSans-7a" d="M 353 3500 
L 3084 3500 
L 3084 2975 
L 922 459 
L 3084 459 
L 3084 0 
L 275 0 
L 275 525 
L 2438 3041 
L 353 3041 
L 353 3500 
z
" transform="scale(0.015625)"/>
       <path id="DejaVuSans-6c" d="M 603 4863 
L 1178 4863 
L 1178 0 
L 603 0 
L 603 4863 
z
" transform="scale(0.015625)"/>
       <path id="DejaVuSans-67" d="M 2906 1791 
Q 2906 2416 2648 2759 
Q 2391 3103 1925 3103 
Q 1463 3103 1205 2759 
Q 947 2416 947 1791 
Q 947 1169 1205 825 
Q 1463 481 1925 481 
Q 2391 481 2648 825 
Q 2906 1169 2906 1791 
z
M 3481 434 
Q 3481 -459 3084 -895 
Q 2688 -1331 1869 -1331 
Q 1566 -1331 1297 -1286 
Q 1028 -1241 775 -1147 
L 775 -588 
Q 1028 -725 1275 -790 
Q 1522 -856 1778 -856 
Q 2344 -856 2625 -561 
Q 2906 -266 2906 331 
L 2906 616 
Q 2728 306 2450 153 
Q 2172 0 1784 0 
Q 1141 0 747 490 
Q 353 981 353 1791 
Q 353 2603 747 3093 
Q 1141 3584 1784 3584 
Q 2172 3584 2450 3431 
Q 2728 3278 2906 2969 
L 2906 3500 
L 3481 3500 
L 3481 434 
z
" transform="scale(0.015625)"/>
      </defs>
      <use xlink:href="#DejaVuSans-46"/>
      <use xlink:href="#DejaVuSans-72" x="50.269531"/>
      <use xlink:href="#DejaVuSans-69" x="91.382812"/>
      <use xlink:href="#DejaVuSans-7a" x="119.166016"/>
      <use xlink:href="#DejaVuSans-20" x="171.65625"/>
      <use xlink:href="#DejaVuSans-46" x="203.443359"/>
      <use xlink:href="#DejaVuSans-72" x="253.712891"/>
      <use xlink:href="#DejaVuSans-65" x="292.576172"/>
      <use xlink:href="#DejaVuSans-6c" x="354.099609"/>
      <use xlink:href="#DejaVuSans-65" x="381.882812"/>
      <use xlink:href="#DejaVuSans-6e" x="443.40625"/>
      <use xlink:href="#DejaVuSans-67" x="506.785156"/>
     </g>
    </g>
   </g>
   <g id="text_3">
    <g id="patch_4">
     <path d="M 384.815965 148.499083 
L 466.235027 148.499083 
L 466.235027 131.86877 
L 384.815965 131.86877 
z
" clip-path="url(#pfc40f64603)" style="fill: #ffffff; opacity: 0.7; stroke: #000000; stroke-linejoin: miter"/>
    </g>
    <g clip-path="url(#pfc40f64603)">
     <!-- Alfred Hitchcock -->
     <g transform="translate(388.775965 142.667364)scale(0.09 -0.09)">
      <defs>
       <path id="DejaVuSans-41" d="M 2188 4044 
L 1331 1722 
L 3047 1722 
L 2188 4044 
z
M 1831 4666 
L 2547 4666 
L 4325 0 
L 3669 0 
L 3244 1197 
L 1141 1197 
L 716 0 
L 50 0 
L 1831 4666 
z
" transform="scale(0.015625)"/>
       <path id="DejaVuSans-66" d="M 2375 4863 
L 2375 4384 
L 1825 4384 
Q 1516 4384 1395 4259 
Q 1275 4134 1275 3809 
L 1275 3500 
L 2222 3500 
L 2222 3053 
L 1275 3053 
L 1275 0 
L 697 0 
L 697 3053 
L 147 3053 
L 147 3500 
L 697 3500 
L 697 3744 
Q 697 4328 969 4595 
Q 1241 4863 1831 4863 
L 2375 4863 
z
" transform="scale(0.015625)"/>
       <path id="DejaVuSans-64" d="M 2906 2969 
L 2906 4863 
L 3481 4863 
L 3481 0 
L 2906 0 
L 2906 525 
Q 2725 213 2448 61 
Q 2172 -91 1784 -91 
Q 1150 -91 751 415 
Q 353 922 353 1747 
Q 353 2572 751 3078 
Q 1150 3584 1784 3584 
Q 2172 3584 2448 3432 
Q 2725 3281 2906 2969 
z
M 947 1747 
Q 947 1113 1208 752 
Q 1469 391 1925 391 
Q 2381 391 2643 752 
Q 2906 1113 2906 1747 
Q 2906 2381 2643 2742 
Q 2381 3103 1925 3103 
Q 1469 3103 1208 2742 
Q 947 2381 947 1747 
z
" transform="scale(0.015625)"/>
       <path id="DejaVuSans-48" d="M 628 4666 
L 1259 4666 
L 1259 2753 
L 3553 2753 
L 3553 4666 
L 4184 4666 
L 4184 0 
L 3553 0 
L 3553 2222 
L 1259 2222 
L 1259 0 
L 628 0 
L 628 4666 
z
" transform="scale(0.015625)"/>
       <path id="DejaVuSans-74" d="M 1172 4494 
L 1172 3500 
L 2356 3500 
L 2356 3053 
L 1172 3053 
L 1172 1153 
Q 1172 725 1289 603 
Q 1406 481 1766 481 
L 2356 481 
L 2356 0 
L 1766 0 
Q 1100 0 847 248 
Q 594 497 594 1153 
L 594 3053 
L 172 3053 
L 172 3500 
L 594 3500 
L 594 4494 
L 1172 4494 
z
" transform="scale(0.015625)"/>
      </defs>
      <use xlink:href="#DejaVuSans-41"/>
      <use xlink:href="#DejaVuSans-6c" x="68.408203"/>
      <use xlink:href="#DejaVuSans-66" x="96.191406"/>
      <use xlink:href="#DejaVuSans-72" x="131.396484"/>
      <use xlink:href="#DejaVuSans-65" x="170.259766"/>
      <use xlink:href="#DejaVuSans-64" x="231.783203"/>
      <use xlink:href="#DejaVuSans-20" x="295.259766"/>
      <use xlink:href="#DejaVuSans-48" x="327.046875"/>
      <use xlink:href="#DejaVuSans-69" x="402.242188"/>
      <use xlink:href="#DejaVuSans-74" x="430.025391"/>
      <use xlink:href="#DejaVuSans-63" x="469.234375"/>
      <use xlink:href="#DejaVuSans-68" x="524.214844"/>
      <use xlink:href="#DejaVuSans-63" x="587.59375"/>
      <use xlink:href="#DejaVuSans-6f" x="642.574219"/>
      <use xlink:href="#DejaVuSans-63" x="703.755859"/>
      <use xlink:href="#DejaVuSans-6b" x="758.736328"/>
     </g>
    </g>
   </g>
   <g id="text_4">
    <g id="patch_5">
     <path d="M 313.276329 103.921719 
L 382.842111 103.921719 
L 382.842111 87.291406 
L 313.276329 87.291406 
z
" clip-path="url(#pfc40f64603)" style="fill: #ffffff; opacity: 0.7; stroke: #000000; stroke-linejoin: miter"/>
    </g>
    <g clip-path="url(#pfc40f64603)">
     <!-- William Wyler -->
     <g transform="translate(317.236329 98.09)scale(0.09 -0.09)">
      <defs>
       <path id="DejaVuSans-57" d="M 213 4666 
L 850 4666 
L 1831 722 
L 2809 4666 
L 3519 4666 
L 4500 722 
L 5478 4666 
L 6119 4666 
L 4947 0 
L 4153 0 
L 3169 4050 
L 2175 0 
L 1381 0 
L 213 4666 
z
" transform="scale(0.015625)"/>
       <path id="DejaVuSans-61" d="M 2194 1759 
Q 1497 1759 1228 1600 
Q 959 1441 959 1056 
Q 959 750 1161 570 
Q 1363 391 1709 391 
Q 2188 391 2477 730 
Q 2766 1069 2766 1631 
L 2766 1759 
L 2194 1759 
z
M 3341 1997 
L 3341 0 
L 2766 0 
L 2766 531 
Q 2569 213 2275 61 
Q 1981 -91 1556 -91 
Q 1019 -91 701 211 
Q 384 513 384 1019 
Q 384 1609 779 1909 
Q 1175 2209 1959 2209 
L 2766 2209 
L 2766 2266 
Q 2766 2663 2505 2880 
Q 2244 3097 1772 3097 
Q 1472 3097 1187 3025 
Q 903 2953 641 2809 
L 641 3341 
Q 956 3463 1253 3523 
Q 1550 3584 1831 3584 
Q 2591 3584 2966 3190 
Q 3341 2797 3341 1997 
z
" transform="scale(0.015625)"/>
       <path id="DejaVuSans-6d" d="M 3328 2828 
Q 3544 3216 3844 3400 
Q 4144 3584 4550 3584 
Q 5097 3584 5394 3201 
Q 5691 2819 5691 2113 
L 5691 0 
L 5113 0 
L 5113 2094 
Q 5113 2597 4934 2840 
Q 4756 3084 4391 3084 
Q 3944 3084 3684 2787 
Q 3425 2491 3425 1978 
L 3425 0 
L 2847 0 
L 2847 2094 
Q 2847 2600 2669 2842 
Q 2491 3084 2119 3084 
Q 1678 3084 1418 2786 
Q 1159 2488 1159 1978 
L 1159 0 
L 581 0 
L 581 3500 
L 1159 3500 
L 1159 2956 
Q 1356 3278 1631 3431 
Q 1906 3584 2284 3584 
Q 2666 3584 2933 3390 
Q 3200 3197 3328 2828 
z
" transform="scale(0.015625)"/>
       <path id="DejaVuSans-79" d="M 2059 -325 
Q 1816 -950 1584 -1140 
Q 1353 -1331 966 -1331 
L 506 -1331 
L 506 -850 
L 844 -850 
Q 1081 -850 1212 -737 
Q 1344 -625 1503 -206 
L 1606 56 
L 191 3500 
L 800 3500 
L 1894 763 
L 2988 3500 
L 3597 3500 
L 2059 -325 
z
" transform="scale(0.015625)"/>
      </defs>
      <use xlink:href="#DejaVuSans-57"/>
      <use xlink:href="#DejaVuSans-69" x="96.626953"/>
      <use xlink:href="#DejaVuSans-6c" x="124.410156"/>
      <use xlink:href="#DejaVuSans-6c" x="152.193359"/>
      <use xlink:href="#DejaVuSans-69" x="179.976562"/>
      <use xlink:href="#DejaVuSans-61" x="207.759766"/>
      <use xlink:href="#DejaVuSans-6d" x="269.039062"/>
      <use xlink:href="#DejaVuSans-20" x="366.451172"/>
      <use xlink:href="#DejaVuSans-57" x="398.238281"/>
      <use xlink:href="#DejaVuSans-79" x="495.365234"/>
      <use xlink:href="#DejaVuSans-6c" x="554.544922"/>
      <use xlink:href="#DejaVuSans-65" x="582.328125"/>
      <use xlink:href="#DejaVuSans-72" x="643.851562"/>
     </g>
    </g>
   </g>
   <g id="text_5">
    <g id="patch_6">
     <path d="M 225.713096 94.602512 
L 292.484658 94.602512 
L 292.484658 77.9722 
L 225.713096 77.9722 
z
" clip-path="url(#pfc40f64603)" style="fill: #ffffff; opacity: 0.7; stroke: #000000; stroke-linejoin: miter"/>
    </g>
    <g clip-path="url(#pfc40f64603)">
     <!-- Priyadarshan -->
     <g transform="translate(229.673096 88.770793)scale(0.09 -0.09)">
      <defs>
       <path id="DejaVuSans-50" d="M 1259 4147 
L 1259 2394 
L 2053 2394 
Q 2494 2394 2734 2622 
Q 2975 2850 2975 3272 
Q 2975 3691 2734 3919 
Q 2494 4147 2053 4147 
L 1259 4147 
z
M 628 4666 
L 2053 4666 
Q 2838 4666 3239 4311 
Q 3641 3956 3641 3272 
Q 3641 2581 3239 2228 
Q 2838 1875 2053 1875 
L 1259 1875 
L 1259 0 
L 628 0 
L 628 4666 
z
" transform="scale(0.015625)"/>
      </defs>
      <use xlink:href="#DejaVuSans-50"/>
      <use xlink:href="#DejaVuSans-72" x="58.552734"/>
      <use xlink:href="#DejaVuSans-69" x="99.666016"/>
      <use xlink:href="#DejaVuSans-79" x="127.449219"/>
      <use xlink:href="#DejaVuSans-61" x="186.628906"/>
      <use xlink:href="#DejaVuSans-64" x="247.908203"/>
      <use xlink:href="#DejaVuSans-61" x="311.384766"/>
      <use xlink:href="#DejaVuSans-72" x="372.664062"/>
      <use xlink:href="#DejaVuSans-73" x="413.777344"/>
      <use xlink:href="#DejaVuSans-68" x="465.876953"/>
      <use xlink:href="#DejaVuSans-61" x="529.255859"/>
      <use xlink:href="#DejaVuSans-6e" x="590.535156"/>
     </g>
    </g>
   </g>
   <g id="text_6">
    <g id="patch_7">
     <path d="M 137.633483 122.152849 
L 210.419577 122.152849 
L 210.419577 105.522536 
L 137.633483 105.522536 
z
" clip-path="url(#pfc40f64603)" style="fill: #ffffff; opacity: 0.7; stroke: #000000; stroke-linejoin: miter"/>
    </g>
    <g clip-path="url(#pfc40f64603)">
     <!-- Robert Altman -->
     <g transform="translate(141.593483 116.32113)scale(0.09 -0.09)">
      <defs>
       <path id="DejaVuSans-52" d="M 2841 2188 
Q 3044 2119 3236 1894 
Q 3428 1669 3622 1275 
L 4263 0 
L 3584 0 
L 2988 1197 
Q 2756 1666 2539 1819 
Q 2322 1972 1947 1972 
L 1259 1972 
L 1259 0 
L 628 0 
L 628 4666 
L 2053 4666 
Q 2853 4666 3247 4331 
Q 3641 3997 3641 3322 
Q 3641 2881 3436 2590 
Q 3231 2300 2841 2188 
z
M 1259 4147 
L 1259 2491 
L 2053 2491 
Q 2509 2491 2742 2702 
Q 2975 2913 2975 3322 
Q 2975 3731 2742 3939 
Q 2509 4147 2053 4147 
L 1259 4147 
z
" transform="scale(0.015625)"/>
       <path id="DejaVuSans-62" d="M 3116 1747 
Q 3116 2381 2855 2742 
Q 2594 3103 2138 3103 
Q 1681 3103 1420 2742 
Q 1159 2381 1159 1747 
Q 1159 1113 1420 752 
Q 1681 391 2138 391 
Q 2594 391 2855 752 
Q 3116 1113 3116 1747 
z
M 1159 2969 
Q 1341 3281 1617 3432 
Q 1894 3584 2278 3584 
Q 2916 3584 3314 3078 
Q 3713 2572 3713 1747 
Q 3713 922 3314 415 
Q 2916 -91 2278 -91 
Q 1894 -91 1617 61 
Q 1341 213 1159 525 
L 1159 0 
L 581 0 
L 581 4863 
L 1159 4863 
L 1159 2969 
z
" transform="scale(0.015625)"/>
      </defs>
      <use xlink:href="#DejaVuSans-52"/>
      <use xlink:href="#DejaVuSans-6f" x="64.982422"/>
      <use xlink:href="#DejaVuSans-62" x="126.164062"/>
      <use xlink:href="#DejaVuSans-65" x="189.640625"/>
      <use xlink:href="#DejaVuSans-72" x="251.164062"/>
      <use xlink:href="#DejaVuSans-74" x="292.277344"/>
      <use xlink:href="#DejaVuSans-20" x="331.486328"/>
      <use xlink:href="#DejaVuSans-41" x="363.273438"/>
      <use xlink:href="#DejaVuSans-6c" x="431.681641"/>
      <use xlink:href="#DejaVuSans-74" x="459.464844"/>
      <use xlink:href="#DejaVuSans-6d" x="498.673828"/>
      <use xlink:href="#DejaVuSans-61" x="596.085938"/>
      <use xlink:href="#DejaVuSans-6e" x="657.365234"/>
     </g>
    </g>
   </g>
   <g id="text_7">
    <g id="patch_8">
     <path d="M 70.119706 181.80901 
L 144.984238 181.80901 
L 144.984238 165.178697 
L 70.119706 165.178697 
z
" clip-path="url(#pfc40f64603)" style="fill: #ffffff; opacity: 0.7; stroke: #000000; stroke-linejoin: miter"/>
    </g>
    <g clip-path="url(#pfc40f64603)">
     <!-- Barry Levinson -->
     <g transform="translate(74.079706 175.977291)scale(0.09 -0.09)">
      <defs>
       <path id="DejaVuSans-42" d="M 1259 2228 
L 1259 519 
L 2272 519 
Q 2781 519 3026 730 
Q 3272 941 3272 1375 
Q 3272 1813 3026 2020 
Q 2781 2228 2272 2228 
L 1259 2228 
z
M 1259 4147 
L 1259 2741 
L 2194 2741 
Q 2656 2741 2882 2914 
Q 3109 3088 3109 3444 
Q 3109 3797 2882 3972 
Q 2656 4147 2194 4147 
L 1259 4147 
z
M 628 4666 
L 2241 4666 
Q 2963 4666 3353 4366 
Q 3744 4066 3744 3513 
Q 3744 3084 3544 2831 
Q 3344 2578 2956 2516 
Q 3422 2416 3680 2098 
Q 3938 1781 3938 1306 
Q 3938 681 3513 340 
Q 3088 0 2303 0 
L 628 0 
L 628 4666 
z
" transform="scale(0.015625)"/>
       <path id="DejaVuSans-4c" d="M 628 4666 
L 1259 4666 
L 1259 531 
L 3531 531 
L 3531 0 
L 628 0 
L 628 4666 
z
" transform="scale(0.015625)"/>
       <path id="DejaVuSans-76" d="M 191 3500 
L 800 3500 
L 1894 563 
L 2988 3500 
L 3597 3500 
L 2284 0 
L 1503 0 
L 191 3500 
z
" transform="scale(0.015625)"/>
      </defs>
      <use xlink:href="#DejaVuSans-42"/>
      <use xlink:href="#DejaVuSans-61" x="68.603516"/>
      <use xlink:href="#DejaVuSans-72" x="129.882812"/>
      <use xlink:href="#DejaVuSans-72" x="169.246094"/>
      <use xlink:href="#DejaVuSans-79" x="210.359375"/>
      <use xlink:href="#DejaVuSans-20" x="269.539062"/>
      <use xlink:href="#DejaVuSans-4c" x="301.326172"/>
      <use xlink:href="#DejaVuSans-65" x="355.289062"/>
      <use xlink:href="#DejaVuSans-76" x="416.8125"/>
      <use xlink:href="#DejaVuSans-69" x="475.992188"/>
      <use xlink:href="#DejaVuSans-6e" x="503.775391"/>
      <use xlink:href="#DejaVuSans-73" x="567.154297"/>
      <use xlink:href="#DejaVuSans-6f" x="619.253906"/>
      <use xlink:href="#DejaVuSans-6e" x="680.435547"/>
     </g>
    </g>
   </g>
   <g id="text_8">
    <g id="patch_9">
     <path d="M 47.547746 263.25593 
L 94.790715 263.25593 
L 94.790715 246.625618 
L 47.547746 246.625618 
z
" clip-path="url(#pfc40f64603)" style="fill: #ffffff; opacity: 0.7; stroke: #000000; stroke-linejoin: miter"/>
    </g>
    <g clip-path="url(#pfc40f64603)">
     <!-- Frank Oz -->
     <g transform="translate(51.507746 257.424211)scale(0.09 -0.09)">
      <defs>
       <path id="DejaVuSans-4f" d="M 2522 4238 
Q 1834 4238 1429 3725 
Q 1025 3213 1025 2328 
Q 1025 1447 1429 934 
Q 1834 422 2522 422 
Q 3209 422 3611 934 
Q 4013 1447 4013 2328 
Q 4013 3213 3611 3725 
Q 3209 4238 2522 4238 
z
M 2522 4750 
Q 3503 4750 4090 4092 
Q 4678 3434 4678 2328 
Q 4678 1225 4090 567 
Q 3503 -91 2522 -91 
Q 1538 -91 948 565 
Q 359 1222 359 2328 
Q 359 3434 948 4092 
Q 1538 4750 2522 4750 
z
" transform="scale(0.015625)"/>
      </defs>
      <use xlink:href="#DejaVuSans-46"/>
      <use xlink:href="#DejaVuSans-72" x="50.269531"/>
      <use xlink:href="#DejaVuSans-61" x="91.382812"/>
      <use xlink:href="#DejaVuSans-6e" x="152.662109"/>
      <use xlink:href="#DejaVuSans-6b" x="216.041016"/>
      <use xlink:href="#DejaVuSans-20" x="273.951172"/>
      <use xlink:href="#DejaVuSans-4f" x="305.738281"/>
      <use xlink:href="#DejaVuSans-7a" x="384.449219"/>
     </g>
    </g>
   </g>
   <g id="text_9">
    <g id="patch_10">
     <path d="M 40.150181 352.410671 
L 102.188306 352.410671 
L 102.188306 335.780358 
L 40.150181 335.780358 
z
" clip-path="url(#pfc40f64603)" style="fill: #ffffff; opacity: 0.7; stroke: #000000; stroke-linejoin: miter"/>
    </g>
    <g clip-path="url(#pfc40f64603)">
     <!-- Robert Wise -->
     <g transform="translate(44.110181 346.578952)scale(0.09 -0.09)">
      <use xlink:href="#DejaVuSans-52"/>
      <use xlink:href="#DejaVuSans-6f" x="64.982422"/>
      <use xlink:href="#DejaVuSans-62" x="126.164062"/>
      <use xlink:href="#DejaVuSans-65" x="189.640625"/>
      <use xlink:href="#DejaVuSans-72" x="251.164062"/>
      <use xlink:href="#DejaVuSans-74" x="292.277344"/>
      <use xlink:href="#DejaVuSans-20" x="331.486328"/>
      <use xlink:href="#DejaVuSans-57" x="363.273438"/>
      <use xlink:href="#DejaVuSans-69" x="459.900391"/>
      <use xlink:href="#DejaVuSans-73" x="487.683594"/>
      <use xlink:href="#DejaVuSans-65" x="539.783203"/>
     </g>
    </g>
   </g>
   <g id="text_10">
    <g id="patch_11">
     <path d="M 64.926438 433.857565 
L 150.177532 433.857565 
L 150.177532 417.227253 
L 64.926438 417.227253 
z
" clip-path="url(#pfc40f64603)" style="fill: #ffffff; opacity: 0.7; stroke: #000000; stroke-linejoin: miter"/>
    </g>
    <g clip-path="url(#pfc40f64603)">
     <!-- Richard Fleischer -->
     <g transform="translate(68.886438 428.025847)scale(0.09 -0.09)">
      <use xlink:href="#DejaVuSans-52"/>
      <use xlink:href="#DejaVuSans-69" x="69.482422"/>
      <use xlink:href="#DejaVuSans-63" x="97.265625"/>
      <use xlink:href="#DejaVuSans-68" x="152.246094"/>
      <use xlink:href="#DejaVuSans-61" x="215.625"/>
      <use xlink:href="#DejaVuSans-72" x="276.904297"/>
      <use xlink:href="#DejaVuSans-64" x="316.267578"/>
      <use xlink:href="#DejaVuSans-20" x="379.744141"/>
      <use xlink:href="#DejaVuSans-46" x="411.53125"/>
      <use xlink:href="#DejaVuSans-6c" x="469.050781"/>
      <use xlink:href="#DejaVuSans-65" x="496.833984"/>
      <use xlink:href="#DejaVuSans-69" x="558.357422"/>
      <use xlink:href="#DejaVuSans-73" x="586.140625"/>
      <use xlink:href="#DejaVuSans-63" x="638.240234"/>
      <use xlink:href="#DejaVuSans-68" x="693.220703"/>
      <use xlink:href="#DejaVuSans-65" x="756.599609"/>
      <use xlink:href="#DejaVuSans-72" x="818.123047"/>
     </g>
    </g>
   </g>
   <g id="text_11">
    <g id="patch_12">
     <path d="M 142.224922 493.513727 
L 205.828203 493.513727 
L 205.828203 476.883414 
L 142.224922 476.883414 
z
" clip-path="url(#pfc40f64603)" style="fill: #ffffff; opacity: 0.7; stroke: #000000; stroke-linejoin: miter"/>
    </g>
    <g clip-path="url(#pfc40f64603)">
     <!-- Woody Allen -->
     <g transform="translate(146.184922 487.682008)scale(0.09 -0.09)">
      <use xlink:href="#DejaVuSans-57"/>
      <use xlink:href="#DejaVuSans-6f" x="93.001953"/>
      <use xlink:href="#DejaVuSans-6f" x="154.183594"/>
      <use xlink:href="#DejaVuSans-64" x="215.365234"/>
      <use xlink:href="#DejaVuSans-79" x="278.841797"/>
      <use xlink:href="#DejaVuSans-20" x="338.021484"/>
      <use xlink:href="#DejaVuSans-41" x="369.808594"/>
      <use xlink:href="#DejaVuSans-6c" x="438.216797"/>
      <use xlink:href="#DejaVuSans-6c" x="466"/>
      <use xlink:href="#DejaVuSans-65" x="493.783203"/>
      <use xlink:href="#DejaVuSans-6e" x="555.306641"/>
     </g>
    </g>
   </g>
   <g id="text_12">
    <g id="patch_13">
     <path d="M 211.912197 521.06405 
L 306.285634 521.06405 
L 306.285634 504.433738 
L 211.912197 504.433738 
z
" clip-path="url(#pfc40f64603)" style="fill: #ffffff; opacity: 0.7; stroke: #000000; stroke-linejoin: miter"/>
    </g>
    <g clip-path="url(#pfc40f64603)">
     <!-- William A. Wellman -->
     <g transform="translate(215.872197 515.232332)scale(0.09 -0.09)">
      <defs>
       <path id="DejaVuSans-2e" d="M 684 794 
L 1344 794 
L 1344 0 
L 684 0 
L 684 794 
z
" transform="scale(0.015625)"/>
      </defs>
      <use xlink:href="#DejaVuSans-57"/>
      <use xlink:href="#DejaVuSans-69" x="96.626953"/>
      <use xlink:href="#DejaVuSans-6c" x="124.410156"/>
      <use xlink:href="#DejaVuSans-6c" x="152.193359"/>
      <use xlink:href="#DejaVuSans-69" x="179.976562"/>
      <use xlink:href="#DejaVuSans-61" x="207.759766"/>
      <use xlink:href="#DejaVuSans-6d" x="269.039062"/>
      <use xlink:href="#DejaVuSans-20" x="366.451172"/>
      <use xlink:href="#DejaVuSans-41" x="398.238281"/>
      <use xlink:href="#DejaVuSans-2e" x="464.896484"/>
      <use xlink:href="#DejaVuSans-20" x="496.683594"/>
      <use xlink:href="#DejaVuSans-57" x="528.470703"/>
      <use xlink:href="#DejaVuSans-65" x="621.472656"/>
      <use xlink:href="#DejaVuSans-6c" x="682.996094"/>
      <use xlink:href="#DejaVuSans-6c" x="710.779297"/>
      <use xlink:href="#DejaVuSans-6d" x="738.5625"/>
      <use xlink:href="#DejaVuSans-61" x="835.974609"/>
      <use xlink:href="#DejaVuSans-6e" x="897.253906"/>
     </g>
    </g>
   </g>
   <g id="text_13">
    <g id="patch_14">
     <path d="M 309.947065 511.744831 
L 386.17144 511.744831 
L 386.17144 495.114518 
L 309.947065 495.114518 
z
" clip-path="url(#pfc40f64603)" style="fill: #ffffff; opacity: 0.7; stroke: #000000; stroke-linejoin: miter"/>
    </g>
    <g clip-path="url(#pfc40f64603)">
     <!-- Michael Ritchie -->
     <g transform="translate(313.907065 505.913112)scale(0.09 -0.09)">
      <defs>
       <path id="DejaVuSans-4d" d="M 628 4666 
L 1569 4666 
L 2759 1491 
L 3956 4666 
L 4897 4666 
L 4897 0 
L 4281 0 
L 4281 4097 
L 3078 897 
L 2444 897 
L 1241 4097 
L 1241 0 
L 628 0 
L 628 4666 
z
" transform="scale(0.015625)"/>
      </defs>
      <use xlink:href="#DejaVuSans-4d"/>
      <use xlink:href="#DejaVuSans-69" x="86.279297"/>
      <use xlink:href="#DejaVuSans-63" x="114.0625"/>
      <use xlink:href="#DejaVuSans-68" x="169.042969"/>
      <use xlink:href="#DejaVuSans-61" x="232.421875"/>
      <use xlink:href="#DejaVuSans-65" x="293.701172"/>
      <use xlink:href="#DejaVuSans-6c" x="355.224609"/>
      <use xlink:href="#DejaVuSans-20" x="383.007812"/>
      <use xlink:href="#DejaVuSans-52" x="414.794922"/>
      <use xlink:href="#DejaVuSans-69" x="484.277344"/>
      <use xlink:href="#DejaVuSans-74" x="512.060547"/>
      <use xlink:href="#DejaVuSans-63" x="551.269531"/>
      <use xlink:href="#DejaVuSans-68" x="606.25"/>
      <use xlink:href="#DejaVuSans-69" x="669.628906"/>
      <use xlink:href="#DejaVuSans-65" x="697.412109"/>
     </g>
    </g>
   </g>
   <g id="text_14">
    <g id="patch_15">
     <path d="M 384.000378 467.167441 
L 467.050691 467.167441 
L 467.050691 450.537129 
L 384.000378 450.537129 
z
" clip-path="url(#pfc40f64603)" style="fill: #ffffff; opacity: 0.7; stroke: #000000; stroke-linejoin: miter"/>
    </g>
    <g clip-path="url(#pfc40f64603)">
     <!-- Henry Hathaway -->
     <g transform="translate(387.960378 461.335723)scale(0.09 -0.09)">
      <defs>
       <path id="DejaVuSans-77" d="M 269 3500 
L 844 3500 
L 1563 769 
L 2278 3500 
L 2956 3500 
L 3675 769 
L 4391 3500 
L 4966 3500 
L 4050 0 
L 3372 0 
L 2619 2869 
L 1863 0 
L 1184 0 
L 269 3500 
z
" transform="scale(0.015625)"/>
      </defs>
      <use xlink:href="#DejaVuSans-48"/>
      <use xlink:href="#DejaVuSans-65" x="75.195312"/>
      <use xlink:href="#DejaVuSans-6e" x="136.71875"/>
      <use xlink:href="#DejaVuSans-72" x="200.097656"/>
      <use xlink:href="#DejaVuSans-79" x="241.210938"/>
      <use xlink:href="#DejaVuSans-20" x="300.390625"/>
      <use xlink:href="#DejaVuSans-48" x="332.177734"/>
      <use xlink:href="#DejaVuSans-61" x="407.373047"/>
      <use xlink:href="#DejaVuSans-74" x="468.652344"/>
      <use xlink:href="#DejaVuSans-68" x="507.861328"/>
      <use xlink:href="#DejaVuSans-61" x="571.240234"/>
      <use xlink:href="#DejaVuSans-77" x="632.519531"/>
      <use xlink:href="#DejaVuSans-61" x="714.306641"/>
      <use xlink:href="#DejaVuSans-79" x="775.585938"/>
     </g>
    </g>
   </g>
   <g id="text_15">
    <g id="patch_16">
     <path d="M 441.881641 395.039741 
L 514.324609 395.039741 
L 514.324609 378.409428 
L 441.881641 378.409428 
z
" clip-path="url(#pfc40f64603)" style="fill: #ffffff; opacity: 0.7; stroke: #000000; stroke-linejoin: miter"/>
    </g>
    <g clip-path="url(#pfc40f64603)">
     <!-- Maurice Noble -->
     <g transform="translate(445.841641 389.208022)scale(0.09 -0.09)">
      <defs>
       <path id="DejaVuSans-4e" d="M 628 4666 
L 1478 4666 
L 3547 763 
L 3547 4666 
L 4159 4666 
L 4159 0 
L 3309 0 
L 1241 3903 
L 1241 0 
L 628 0 
L 628 4666 
z
" transform="scale(0.015625)"/>
      </defs>
      <use xlink:href="#DejaVuSans-4d"/>
      <use xlink:href="#DejaVuSans-61" x="86.279297"/>
      <use xlink:href="#DejaVuSans-75" x="147.558594"/>
      <use xlink:href="#DejaVuSans-72" x="210.9375"/>
      <use xlink:href="#DejaVuSans-69" x="252.050781"/>
      <use xlink:href="#DejaVuSans-63" x="279.833984"/>
      <use xlink:href="#DejaVuSans-65" x="334.814453"/>
      <use xlink:href="#DejaVuSans-20" x="396.337891"/>
      <use xlink:href="#DejaVuSans-4e" x="428.125"/>
      <use xlink:href="#DejaVuSans-6f" x="502.929688"/>
      <use xlink:href="#DejaVuSans-62" x="564.111328"/>
      <use xlink:href="#DejaVuSans-6c" x="627.587891"/>
      <use xlink:href="#DejaVuSans-65" x="655.371094"/>
     </g>
    </g>
   </g>
   <g id="text_16">
    <!-- Impactful directors for Silent film genre - Importance rank: 1 -->
    <g transform="translate(102.826875 16.318125)scale(0.12 -0.12)">
     <defs>
      <path id="DejaVuSans-49" d="M 628 4666 
L 1259 4666 
L 1259 0 
L 628 0 
L 628 4666 
z
" transform="scale(0.015625)"/>
      <path id="DejaVuSans-70" d="M 1159 525 
L 1159 -1331 
L 581 -1331 
L 581 3500 
L 1159 3500 
L 1159 2969 
Q 1341 3281 1617 3432 
Q 1894 3584 2278 3584 
Q 2916 3584 3314 3078 
Q 3713 2572 3713 1747 
Q 3713 922 3314 415 
Q 2916 -91 2278 -91 
Q 1894 -91 1617 61 
Q 1341 213 1159 525 
z
M 3116 1747 
Q 3116 2381 2855 2742 
Q 2594 3103 2138 3103 
Q 1681 3103 1420 2742 
Q 1159 2381 1159 1747 
Q 1159 1113 1420 752 
Q 1681 391 2138 391 
Q 2594 391 2855 752 
Q 3116 1113 3116 1747 
z
" transform="scale(0.015625)"/>
      <path id="DejaVuSans-53" d="M 3425 4513 
L 3425 3897 
Q 3066 4069 2747 4153 
Q 2428 4238 2131 4238 
Q 1616 4238 1336 4038 
Q 1056 3838 1056 3469 
Q 1056 3159 1242 3001 
Q 1428 2844 1947 2747 
L 2328 2669 
Q 3034 2534 3370 2195 
Q 3706 1856 3706 1288 
Q 3706 609 3251 259 
Q 2797 -91 1919 -91 
Q 1588 -91 1214 -16 
Q 841 59 441 206 
L 441 856 
Q 825 641 1194 531 
Q 1563 422 1919 422 
Q 2459 422 2753 634 
Q 3047 847 3047 1241 
Q 3047 1584 2836 1778 
Q 2625 1972 2144 2069 
L 1759 2144 
Q 1053 2284 737 2584 
Q 422 2884 422 3419 
Q 422 4038 858 4394 
Q 1294 4750 2059 4750 
Q 2388 4750 2728 4690 
Q 3069 4631 3425 4513 
z
" transform="scale(0.015625)"/>
      <path id="DejaVuSans-2d" d="M 313 2009 
L 1997 2009 
L 1997 1497 
L 313 1497 
L 313 2009 
z
" transform="scale(0.015625)"/>
      <path id="DejaVuSans-3a" d="M 750 794 
L 1409 794 
L 1409 0 
L 750 0 
L 750 794 
z
M 750 3309 
L 1409 3309 
L 1409 2516 
L 750 2516 
L 750 3309 
z
" transform="scale(0.015625)"/>
      <path id="DejaVuSans-31" d="M 794 531 
L 1825 531 
L 1825 4091 
L 703 3866 
L 703 4441 
L 1819 4666 
L 2450 4666 
L 2450 531 
L 3481 531 
L 3481 0 
L 794 0 
L 794 531 
z
" transform="scale(0.015625)"/>
     </defs>
     <use xlink:href="#DejaVuSans-49"/>
     <use xlink:href="#DejaVuSans-6d" x="29.492188"/>
     <use xlink:href="#DejaVuSans-70" x="126.904297"/>
     <use xlink:href="#DejaVuSans-61" x="190.380859"/>
     <use xlink:href="#DejaVuSans-63" x="251.660156"/>
     <use xlink:href="#DejaVuSans-74" x="306.640625"/>
     <use xlink:href="#DejaVuSans-66" x="345.849609"/>
     <use xlink:href="#DejaVuSans-75" x="381.054688"/>
     <use xlink:href="#DejaVuSans-6c" x="444.433594"/>
     <use xlink:href="#DejaVuSans-20" x="472.216797"/>
     <use xlink:href="#DejaVuSans-64" x="504.003906"/>
     <use xlink:href="#DejaVuSans-69" x="567.480469"/>
     <use xlink:href="#DejaVuSans-72" x="595.263672"/>
     <use xlink:href="#DejaVuSans-65" x="634.126953"/>
     <use xlink:href="#DejaVuSans-63" x="695.650391"/>
     <use xlink:href="#DejaVuSans-74" x="750.630859"/>
     <use xlink:href="#DejaVuSans-6f" x="789.839844"/>
     <use xlink:href="#DejaVuSans-72" x="851.021484"/>
     <use xlink:href="#DejaVuSans-73" x="892.134766"/>
     <use xlink:href="#DejaVuSans-20" x="944.234375"/>
     <use xlink:href="#DejaVuSans-66" x="976.021484"/>
     <use xlink:href="#DejaVuSans-6f" x="1011.226562"/>
     <use xlink:href="#DejaVuSans-72" x="1072.408203"/>
     <use xlink:href="#DejaVuSans-20" x="1113.521484"/>
     <use xlink:href="#DejaVuSans-53" x="1145.308594"/>
     <use xlink:href="#DejaVuSans-69" x="1208.785156"/>
     <use xlink:href="#DejaVuSans-6c" x="1236.568359"/>
     <use xlink:href="#DejaVuSans-65" x="1264.351562"/>
     <use xlink:href="#DejaVuSans-6e" x="1325.875"/>
     <use xlink:href="#DejaVuSans-74" x="1389.253906"/>
     <use xlink:href="#DejaVuSans-20" x="1428.462891"/>
     <use xlink:href="#DejaVuSans-66" x="1460.25"/>
     <use xlink:href="#DejaVuSans-69" x="1495.455078"/>
     <use xlink:href="#DejaVuSans-6c" x="1523.238281"/>
     <use xlink:href="#DejaVuSans-6d" x="1551.021484"/>
     <use xlink:href="#DejaVuSans-20" x="1648.433594"/>
     <use xlink:href="#DejaVuSans-67" x="1680.220703"/>
     <use xlink:href="#DejaVuSans-65" x="1743.697266"/>
     <use xlink:href="#DejaVuSans-6e" x="1805.220703"/>
     <use xlink:href="#DejaVuSans-72" x="1868.599609"/>
     <use xlink:href="#DejaVuSans-65" x="1907.462891"/>
     <use xlink:href="#DejaVuSans-20" x="1968.986328"/>
     <use xlink:href="#DejaVuSans-2d" x="2000.773438"/>
     <use xlink:href="#DejaVuSans-20" x="2036.857422"/>
     <use xlink:href="#DejaVuSans-49" x="2068.644531"/>
     <use xlink:href="#DejaVuSans-6d" x="2098.136719"/>
     <use xlink:href="#DejaVuSans-70" x="2195.548828"/>
     <use xlink:href="#DejaVuSans-6f" x="2259.025391"/>
     <use xlink:href="#DejaVuSans-72" x="2320.207031"/>
     <use xlink:href="#DejaVuSans-74" x="2361.320312"/>
     <use xlink:href="#DejaVuSans-61" x="2400.529297"/>
     <use xlink:href="#DejaVuSans-6e" x="2461.808594"/>
     <use xlink:href="#DejaVuSans-63" x="2525.1875"/>
     <use xlink:href="#DejaVuSans-65" x="2580.167969"/>
     <use xlink:href="#DejaVuSans-20" x="2641.691406"/>
     <use xlink:href="#DejaVuSans-72" x="2673.478516"/>
     <use xlink:href="#DejaVuSans-61" x="2714.591797"/>
     <use xlink:href="#DejaVuSans-6e" x="2775.871094"/>
     <use xlink:href="#DejaVuSans-6b" x="2839.25"/>
     <use xlink:href="#DejaVuSans-3a" x="2897.160156"/>
     <use xlink:href="#DejaVuSans-20" x="2930.851562"/>
     <use xlink:href="#DejaVuSans-31" x="2962.638672"/>
    </g>
   </g>
  </g>
 </g>
 <defs>
  <clipPath id="pfc40f64603">
   <rect x="7.2" y="22.318125" width="554.4" height="554.4"/>
  </clipPath>
 </defs>
</svg>
