<?xml version="1.0" encoding="utf-8" standalone="no"?>
<!DOCTYPE svg PUBLIC "-//W3C//DTD SVG 1.1//EN"
  "http://www.w3.org/Graphics/SVG/1.1/DTD/svg11.dtd">
<svg xmlns:xlink="http://www.w3.org/1999/xlink" width="576pt" height="576pt" viewBox="0 0 576 576" xmlns="http://www.w3.org/2000/svg" version="1.1">
 <metadata>
  <rdf:RDF xmlns:dc="http://purl.org/dc/elements/1.1/" xmlns:cc="http://creativecommons.org/ns#" xmlns:rdf="http://www.w3.org/1999/02/22-rdf-syntax-ns#">
   <cc:Work>
    <dc:type rdf:resource="http://purl.org/dc/dcmitype/StillImage"/>
    <dc:date>2022-12-22T16:12:59.423035</dc:date>
    <dc:format>image/svg+xml</dc:format>
    <dc:creator>
     <cc:Agent>
      <dc:title>Matplotlib v3.5.2, https://matplotlib.org/</dc:title>
     </cc:Agent>
    </dc:creator>
   </cc:Work>
  </rdf:RDF>
 </metadata>
 <defs>
  <style type="text/css">*{stroke-linejoin: round; stroke-linecap: butt}</style>
 </defs>
 <g id="figure_1">
  <g id="patch_1">
   <path d="M 0 576 
L 576 576 
L 576 0 
L 0 0 
z
" style="fill: #ffffff"/>
  </g>
  <g id="axes_1">
   <g id="PathCollection_1">
    <path d="M 501.230769 315.386128 
C 508.493655 315.386128 515.46005 312.500553 520.595686 307.364917 
C 525.731322 302.229281 528.616897 295.262886 528.616897 288 
C 528.616897 280.737114 525.731322 273.770719 520.595686 268.635083 
C 515.46005 263.499447 508.493655 260.613872 501.230769 260.613872 
C 493.967883 260.613872 487.001488 263.499447 481.865852 268.635083 
C 476.730217 273.770719 473.844641 280.737114 473.844641 288 
C 473.844641 295.262886 476.730217 302.229281 481.865852 307.364917 
C 487.001488 312.500553 493.967883 315.386128 501.230769 315.386128 
z
" clip-path="url(#p37b1c302cc)" style="fill: #d62728; fill-opacity: 0.99; stroke: #d62728; stroke-opacity: 0.99"/>
    <path d="M 482.592348 227.949584 
C 489.794223 227.949584 496.702098 225.088248 501.794593 219.995753 
C 506.887088 214.903258 509.748423 207.995384 509.748423 200.793508 
C 509.748423 193.591633 506.887088 186.683758 501.794593 181.591264 
C 496.702098 176.498769 489.794223 173.637433 482.592348 173.637433 
C 475.390473 173.637433 468.482598 176.498769 463.390103 181.591264 
C 458.297608 186.683758 455.436273 193.591633 455.436273 200.793508 
C 455.436273 207.995384 458.297608 214.903258 463.390103 219.995753 
C 468.482598 225.088248 475.390473 227.949584 482.592348 227.949584 
z
" clip-path="url(#p37b1c302cc)" style="fill: #d62728; fill-opacity: 0.99; stroke: #d62728; stroke-opacity: 0.99"/>
    <path d="M 429.89985 154.158409 
C 436.660568 154.158409 443.145295 151.472347 447.925845 146.691797 
C 452.706395 141.911247 455.392457 135.42652 455.392457 128.665802 
C 455.392457 121.905083 452.706395 115.420356 447.925845 110.639806 
C 443.145295 105.859256 436.660568 103.173194 429.89985 103.173194 
C 423.139131 103.173194 416.654404 105.859256 411.873854 110.639806 
C 407.093305 115.420356 404.407243 121.905083 404.407243 128.665802 
C 404.407243 135.42652 407.093305 141.911247 411.873854 146.691797 
C 416.654404 151.472347 423.139131 154.158409 429.89985 154.158409 
z
" clip-path="url(#p37b1c302cc)" style="fill: #d62728; fill-opacity: 0.99; stroke: #d62728; stroke-opacity: 0.99"/>
    <path d="M 352.264291 109.319217 
C 358.955572 109.319217 365.373696 106.660743 370.105146 101.929293 
C 374.836596 97.197843 377.49507 90.779718 377.49507 84.088438 
C 377.49507 77.397157 374.836596 70.979033 370.105146 66.247583 
C 365.373696 61.516133 358.955572 58.857659 352.264291 58.857659 
C 345.57301 58.857659 339.154886 61.516133 334.423436 66.247583 
C 329.691986 70.979033 327.033512 77.397157 327.033512 84.088438 
C 327.033512 90.779718 329.691986 97.197843 334.423436 101.929293 
C 339.154886 106.660743 345.57301 109.319217 352.264291 109.319217 
z
" clip-path="url(#p37b1c302cc)" style="fill: #d62728; fill-opacity: 0.99; stroke: #d62728; stroke-opacity: 0.99"/>
    <path d="M 263.109549 98.402363 
C 269.377128 98.402363 275.388848 95.912227 279.820696 91.480379 
C 284.252545 87.04853 286.74268 81.036811 286.74268 74.769231 
C 286.74268 68.501651 284.252545 62.489931 279.820696 58.058083 
C 275.388848 53.626235 269.377128 51.136099 263.109549 51.136099 
C 256.841969 51.136099 250.830249 53.626235 246.398401 58.058083 
C 241.966553 62.489931 239.476417 68.501651 239.476417 74.769231 
C 239.476417 81.036811 241.966553 87.04853 246.398401 91.480379 
C 250.830249 95.912227 256.841969 98.402363 263.109549 98.402363 
z
" clip-path="url(#p37b1c302cc)" style="fill: #d62728; fill-opacity: 0.99; stroke: #d62728; stroke-opacity: 0.99"/>
    <path d="M 177.851298 125.508061 
C 184.000959 125.508061 189.899573 123.064775 194.248039 118.716308 
C 198.596506 114.367842 201.039792 108.469228 201.039792 102.319567 
C 201.039792 96.169907 198.596506 90.271293 194.248039 85.922826 
C 189.899573 81.57436 184.000959 79.131074 177.851298 79.131074 
C 171.701638 79.131074 165.803024 81.57436 161.454557 85.922826 
C 157.10609 90.271293 154.662804 96.169907 154.662804 102.319567 
C 154.662804 108.469228 157.10609 114.367842 161.454557 118.716308 
C 165.803024 123.064775 171.701638 125.508061 177.851298 125.508061 
z
" clip-path="url(#p37b1c302cc)" style="fill: #d62728; fill-opacity: 0.99; stroke: #d62728; stroke-opacity: 0.99"/>
    <path d="M 111.231477 185.055398 
C 117.352277 185.055398 123.223209 182.623579 127.551268 178.29552 
C 131.879327 173.967461 134.311147 168.096529 134.311147 161.975729 
C 134.311147 155.854929 131.879327 149.983997 127.551268 145.655938 
C 123.223209 141.327879 117.352277 138.896059 111.231477 138.896059 
C 105.110677 138.896059 99.239745 141.327879 94.911686 145.655938 
C 90.583627 149.983997 88.151807 155.854929 88.151807 161.975729 
C 88.151807 168.096529 90.583627 173.967461 94.911686 178.29552 
C 99.239745 182.623579 105.110677 185.055398 111.231477 185.055398 
z
" clip-path="url(#p37b1c302cc)" style="fill: #d62728; fill-opacity: 0.99; stroke: #d62728; stroke-opacity: 0.99"/>
    <path d="M 74.769231 265.857233 
C 80.718952 265.857233 86.425789 263.493384 90.632877 259.286295 
C 94.839966 255.079207 97.203815 249.37237 97.203815 243.422649 
C 97.203815 237.472928 94.839966 231.766091 90.632877 227.559002 
C 86.425789 223.351914 80.718952 220.988065 74.769231 220.988065 
C 68.81951 220.988065 63.112672 223.351914 58.905584 227.559002 
C 54.698496 231.766091 52.334647 237.472928 52.334647 243.422649 
C 52.334647 249.37237 54.698496 255.079207 58.905584 259.286295 
C 63.112672 263.493384 68.81951 265.857233 74.769231 265.857233 
z
" clip-path="url(#p37b1c302cc)" style="fill: #d62728; fill-opacity: 0.99; stroke: #d62728; stroke-opacity: 0.99"/>
    <path d="M 74.769244 354.820754 
C 80.668253 354.820754 86.326448 352.477053 90.497677 348.305823 
C 94.668907 344.134594 97.012608 338.476399 97.012608 332.577389 
C 97.012608 326.67838 94.668907 321.020185 90.497677 316.848956 
C 86.326448 312.677726 80.668253 310.334025 74.769244 310.334025 
C 68.870234 310.334025 63.212039 312.677726 59.04081 316.848956 
C 54.86958 321.020185 52.525879 326.67838 52.525879 332.577389 
C 52.525879 338.476399 54.86958 344.134594 59.04081 348.305823 
C 63.212039 352.477053 68.870234 354.820754 74.769244 354.820754 
z
" clip-path="url(#p37b1c302cc)" style="fill: #d62728; fill-opacity: 0.99; stroke: #d62728; stroke-opacity: 0.99"/>
    <path d="M 111.23149 435.698683 
C 116.979608 435.698683 122.493071 433.414932 126.557605 429.350399 
C 130.622138 425.285866 132.905889 419.772402 132.905889 414.024284 
C 132.905889 408.276166 130.622138 402.762702 126.557605 398.698169 
C 122.493071 394.633636 116.979608 392.349885 111.23149 392.349885 
C 105.483372 392.349885 99.969908 394.633636 95.905375 398.698169 
C 91.840842 402.762702 89.557091 408.276166 89.557091 414.024284 
C 89.557091 419.772402 91.840842 425.285866 95.905375 429.350399 
C 99.969908 433.414932 105.483372 435.698683 111.23149 435.698683 
z
" clip-path="url(#p37b1c302cc)" style="fill: #d62728; fill-opacity: 0.99; stroke: #d62728; stroke-opacity: 0.99"/>
    <path d="M 177.85133 495.061919 
C 183.521763 495.061919 188.960713 492.809032 192.970315 488.79943 
C 196.979916 484.789828 199.232803 479.350878 199.232803 473.680446 
C 199.232803 468.010013 196.979916 462.571063 192.970315 458.561461 
C 188.960713 454.551859 183.521763 452.298973 177.85133 452.298973 
C 172.180897 452.298973 166.741947 454.551859 162.732346 458.561461 
C 158.722744 462.571063 156.469857 468.010013 156.469857 473.680446 
C 156.469857 479.350878 158.722744 484.789828 162.732346 488.79943 
C 166.741947 492.809032 172.180897 495.061919 177.85133 495.061919 
z
" clip-path="url(#p37b1c302cc)" style="fill: #d62728; fill-opacity: 0.99; stroke: #d62728; stroke-opacity: 0.99"/>
    <path d="M 263.109587 521.246003 
C 268.417689 521.246003 273.5091 519.137072 277.262495 515.383677 
C 281.01589 511.630282 283.124821 506.538871 283.124821 501.230769 
C 283.124821 495.922667 281.01589 490.831256 277.262495 487.077861 
C 273.5091 483.324466 268.417689 481.215535 263.109587 481.215535 
C 257.801485 481.215535 252.710074 483.324466 248.956679 487.077861 
C 245.203284 490.831256 243.094353 495.922667 243.094353 501.230769 
C 243.094353 506.538871 245.203284 511.630282 248.956679 515.383677 
C 252.710074 519.137072 257.801485 521.246003 263.109587 521.246003 
z
" clip-path="url(#p37b1c302cc)" style="fill: #d62728; fill-opacity: 0.99; stroke: #d62728; stroke-opacity: 0.99"/>
    <path d="M 352.264323 511.792182 
C 357.536729 511.792182 362.5939 509.697433 366.322053 505.96928 
C 370.050207 502.241126 372.144956 497.183955 372.144956 491.91155 
C 372.144956 486.639144 370.050207 481.581973 366.322053 477.853819 
C 362.5939 474.125666 357.536729 472.030917 352.264323 472.030917 
C 346.991918 472.030917 341.934747 474.125666 338.206593 477.853819 
C 334.47844 481.581973 332.383691 486.639144 332.383691 491.91155 
C 332.383691 497.183955 334.47844 502.241126 338.206593 505.96928 
C 341.934747 509.697433 346.991918 511.792182 352.264323 511.792182 
z
" clip-path="url(#p37b1c302cc)" style="fill: #d62728; fill-opacity: 0.99; stroke: #d62728; stroke-opacity: 0.99"/>
    <path d="M 429.899888 467.000612 
C 435.115492 467.000612 440.118181 464.928431 443.80617 461.240442 
C 447.494159 457.552453 449.56634 452.549764 449.56634 447.33416 
C 449.56634 442.118556 447.494159 437.115867 443.80617 433.427879 
C 440.118181 429.73989 435.115492 427.667708 429.899888 427.667708 
C 424.684284 427.667708 419.681596 429.73989 415.993607 433.427879 
C 412.305618 437.115867 410.233436 442.118556 410.233436 447.33416 
C 410.233436 452.549764 412.305618 457.552453 415.993607 461.240442 
C 419.681596 464.928431 424.684284 467.000612 429.899888 467.000612 
z
" clip-path="url(#p37b1c302cc)" style="fill: #d62728; fill-opacity: 0.99; stroke: #d62728; stroke-opacity: 0.99"/>
    <path d="M 482.592374 394.571376 
C 487.728009 394.571376 492.653994 392.530967 496.285437 388.899524 
C 499.91688 385.268081 501.95729 380.342096 501.95729 375.20646 
C 501.95729 370.070824 499.91688 365.144839 496.285437 361.513396 
C 492.653994 357.881953 487.728009 355.841543 482.592374 355.841543 
C 477.456738 355.841543 472.530753 357.881953 468.89931 361.513396 
C 465.267867 365.144839 463.227457 370.070824 463.227457 375.20646 
C 463.227457 380.342096 465.267867 385.268081 468.89931 388.899524 
C 472.530753 392.530967 477.456738 394.571376 482.592374 394.571376 
z
" clip-path="url(#p37b1c302cc)" style="fill: #d62728; fill-opacity: 0.99; stroke: #d62728; stroke-opacity: 0.99"/>
   </g>
   <g id="text_1">
    <g id="patch_2">
     <path d="M 462.71991 296.315156 
L 539.741629 296.315156 
L 539.741629 279.684844 
L 462.71991 279.684844 
z
" clip-path="url(#p37b1c302cc)" style="fill: #ffffff; opacity: 0.7; stroke: #000000; stroke-linejoin: miter"/>
    </g>
    <g clip-path="url(#p37b1c302cc)">
     <!-- Brian De Palma -->
     <g transform="translate(466.67991 290.483437)scale(0.09 -0.09)">
      <defs>
       <path id="DejaVuSans-42" d="M 1259 2228 
L 1259 519 
L 2272 519 
Q 2781 519 3026 730 
Q 3272 941 3272 1375 
Q 3272 1813 3026 2020 
Q 2781 2228 2272 2228 
L 1259 2228 
z
M 1259 4147 
L 1259 2741 
L 2194 2741 
Q 2656 2741 2882 2914 
Q 3109 3088 3109 3444 
Q 3109 3797 2882 3972 
Q 2656 4147 2194 4147 
L 1259 4147 
z
M 628 4666 
L 2241 4666 
Q 2963 4666 3353 4366 
Q 3744 4066 3744 3513 
Q 3744 3084 3544 2831 
Q 3344 2578 2956 2516 
Q 3422 2416 3680 2098 
Q 3938 1781 3938 1306 
Q 3938 681 3513 340 
Q 3088 0 2303 0 
L 628 0 
L 628 4666 
z
" transform="scale(0.015625)"/>
       <path id="DejaVuSans-72" d="M 2631 2963 
Q 2534 3019 2420 3045 
Q 2306 3072 2169 3072 
Q 1681 3072 1420 2755 
Q 1159 2438 1159 1844 
L 1159 0 
L 581 0 
L 581 3500 
L 1159 3500 
L 1159 2956 
Q 1341 3275 1631 3429 
Q 1922 3584 2338 3584 
Q 2397 3584 2469 3576 
Q 2541 3569 2628 3553 
L 2631 2963 
z
" transform="scale(0.015625)"/>
       <path id="DejaVuSans-69" d="M 603 3500 
L 1178 3500 
L 1178 0 
L 603 0 
L 603 3500 
z
M 603 4863 
L 1178 4863 
L 1178 4134 
L 603 4134 
L 603 4863 
z
" transform="scale(0.015625)"/>
       <path id="DejaVuSans-61" d="M 2194 1759 
Q 1497 1759 1228 1600 
Q 959 1441 959 1056 
Q 959 750 1161 570 
Q 1363 391 1709 391 
Q 2188 391 2477 730 
Q 2766 1069 2766 1631 
L 2766 1759 
L 2194 1759 
z
M 3341 1997 
L 3341 0 
L 2766 0 
L 2766 531 
Q 2569 213 2275 61 
Q 1981 -91 1556 -91 
Q 1019 -91 701 211 
Q 384 513 384 1019 
Q 384 1609 779 1909 
Q 1175 2209 1959 2209 
L 2766 2209 
L 2766 2266 
Q 2766 2663 2505 2880 
Q 2244 3097 1772 3097 
Q 1472 3097 1187 3025 
Q 903 2953 641 2809 
L 641 3341 
Q 956 3463 1253 3523 
Q 1550 3584 1831 3584 
Q 2591 3584 2966 3190 
Q 3341 2797 3341 1997 
z
" transform="scale(0.015625)"/>
       <path id="DejaVuSans-6e" d="M 3513 2113 
L 3513 0 
L 2938 0 
L 2938 2094 
Q 2938 2591 2744 2837 
Q 2550 3084 2163 3084 
Q 1697 3084 1428 2787 
Q 1159 2491 1159 1978 
L 1159 0 
L 581 0 
L 581 3500 
L 1159 3500 
L 1159 2956 
Q 1366 3272 1645 3428 
Q 1925 3584 2291 3584 
Q 2894 3584 3203 3211 
Q 3513 2838 3513 2113 
z
" transform="scale(0.015625)"/>
       <path id="DejaVuSans-20" transform="scale(0.015625)"/>
       <path id="DejaVuSans-44" d="M 1259 4147 
L 1259 519 
L 2022 519 
Q 2988 519 3436 956 
Q 3884 1394 3884 2338 
Q 3884 3275 3436 3711 
Q 2988 4147 2022 4147 
L 1259 4147 
z
M 628 4666 
L 1925 4666 
Q 3281 4666 3915 4102 
Q 4550 3538 4550 2338 
Q 4550 1131 3912 565 
Q 3275 0 1925 0 
L 628 0 
L 628 4666 
z
" transform="scale(0.015625)"/>
       <path id="DejaVuSans-65" d="M 3597 1894 
L 3597 1613 
L 953 1613 
Q 991 1019 1311 708 
Q 1631 397 2203 397 
Q 2534 397 2845 478 
Q 3156 559 3463 722 
L 3463 178 
Q 3153 47 2828 -22 
Q 2503 -91 2169 -91 
Q 1331 -91 842 396 
Q 353 884 353 1716 
Q 353 2575 817 3079 
Q 1281 3584 2069 3584 
Q 2775 3584 3186 3129 
Q 3597 2675 3597 1894 
z
M 3022 2063 
Q 3016 2534 2758 2815 
Q 2500 3097 2075 3097 
Q 1594 3097 1305 2825 
Q 1016 2553 972 2059 
L 3022 2063 
z
" transform="scale(0.015625)"/>
       <path id="DejaVuSans-50" d="M 1259 4147 
L 1259 2394 
L 2053 2394 
Q 2494 2394 2734 2622 
Q 2975 2850 2975 3272 
Q 2975 3691 2734 3919 
Q 2494 4147 2053 4147 
L 1259 4147 
z
M 628 4666 
L 2053 4666 
Q 2838 4666 3239 4311 
Q 3641 3956 3641 3272 
Q 3641 2581 3239 2228 
Q 2838 1875 2053 1875 
L 1259 1875 
L 1259 0 
L 628 0 
L 628 4666 
z
" transform="scale(0.015625)"/>
       <path id="DejaVuSans-6c" d="M 603 4863 
L 1178 4863 
L 1178 0 
L 603 0 
L 603 4863 
z
" transform="scale(0.015625)"/>
       <path id="DejaVuSans-6d" d="M 3328 2828 
Q 3544 3216 3844 3400 
Q 4144 3584 4550 3584 
Q 5097 3584 5394 3201 
Q 5691 2819 5691 2113 
L 5691 0 
L 5113 0 
L 5113 2094 
Q 5113 2597 4934 2840 
Q 4756 3084 4391 3084 
Q 3944 3084 3684 2787 
Q 3425 2491 3425 1978 
L 3425 0 
L 2847 0 
L 2847 2094 
Q 2847 2600 2669 2842 
Q 2491 3084 2119 3084 
Q 1678 3084 1418 2786 
Q 1159 2488 1159 1978 
L 1159 0 
L 581 0 
L 581 3500 
L 1159 3500 
L 1159 2956 
Q 1356 3278 1631 3431 
Q 1906 3584 2284 3584 
Q 2666 3584 2933 3390 
Q 3200 3197 3328 2828 
z
" transform="scale(0.015625)"/>
      </defs>
      <use xlink:href="#DejaVuSans-42"/>
      <use xlink:href="#DejaVuSans-72" x="68.603516"/>
      <use xlink:href="#DejaVuSans-69" x="109.716797"/>
      <use xlink:href="#DejaVuSans-61" x="137.5"/>
      <use xlink:href="#DejaVuSans-6e" x="198.779297"/>
      <use xlink:href="#DejaVuSans-20" x="262.158203"/>
      <use xlink:href="#DejaVuSans-44" x="293.945312"/>
      <use xlink:href="#DejaVuSans-65" x="370.947266"/>
      <use xlink:href="#DejaVuSans-20" x="432.470703"/>
      <use xlink:href="#DejaVuSans-50" x="464.257812"/>
      <use xlink:href="#DejaVuSans-61" x="520.060547"/>
      <use xlink:href="#DejaVuSans-6c" x="581.339844"/>
      <use xlink:href="#DejaVuSans-6d" x="609.123047"/>
      <use xlink:href="#DejaVuSans-61" x="706.535156"/>
     </g>
    </g>
   </g>
   <g id="text_2">
    <g id="patch_3">
     <path d="M 445.190317 209.108665 
L 519.994379 209.108665 
L 519.994379 192.478352 
L 445.190317 192.478352 
z
" clip-path="url(#p37b1c302cc)" style="fill: #ffffff; opacity: 0.7; stroke: #000000; stroke-linejoin: miter"/>
    </g>
    <g clip-path="url(#p37b1c302cc)">
     <!-- Clint Eastwood -->
     <g transform="translate(449.150317 203.276946)scale(0.09 -0.09)">
      <defs>
       <path id="DejaVuSans-43" d="M 4122 4306 
L 4122 3641 
Q 3803 3938 3442 4084 
Q 3081 4231 2675 4231 
Q 1875 4231 1450 3742 
Q 1025 3253 1025 2328 
Q 1025 1406 1450 917 
Q 1875 428 2675 428 
Q 3081 428 3442 575 
Q 3803 722 4122 1019 
L 4122 359 
Q 3791 134 3420 21 
Q 3050 -91 2638 -91 
Q 1578 -91 968 557 
Q 359 1206 359 2328 
Q 359 3453 968 4101 
Q 1578 4750 2638 4750 
Q 3056 4750 3426 4639 
Q 3797 4528 4122 4306 
z
" transform="scale(0.015625)"/>
       <path id="DejaVuSans-74" d="M 1172 4494 
L 1172 3500 
L 2356 3500 
L 2356 3053 
L 1172 3053 
L 1172 1153 
Q 1172 725 1289 603 
Q 1406 481 1766 481 
L 2356 481 
L 2356 0 
L 1766 0 
Q 1100 0 847 248 
Q 594 497 594 1153 
L 594 3053 
L 172 3053 
L 172 3500 
L 594 3500 
L 594 4494 
L 1172 4494 
z
" transform="scale(0.015625)"/>
       <path id="DejaVuSans-45" d="M 628 4666 
L 3578 4666 
L 3578 4134 
L 1259 4134 
L 1259 2753 
L 3481 2753 
L 3481 2222 
L 1259 2222 
L 1259 531 
L 3634 531 
L 3634 0 
L 628 0 
L 628 4666 
z
" transform="scale(0.015625)"/>
       <path id="DejaVuSans-73" d="M 2834 3397 
L 2834 2853 
Q 2591 2978 2328 3040 
Q 2066 3103 1784 3103 
Q 1356 3103 1142 2972 
Q 928 2841 928 2578 
Q 928 2378 1081 2264 
Q 1234 2150 1697 2047 
L 1894 2003 
Q 2506 1872 2764 1633 
Q 3022 1394 3022 966 
Q 3022 478 2636 193 
Q 2250 -91 1575 -91 
Q 1294 -91 989 -36 
Q 684 19 347 128 
L 347 722 
Q 666 556 975 473 
Q 1284 391 1588 391 
Q 1994 391 2212 530 
Q 2431 669 2431 922 
Q 2431 1156 2273 1281 
Q 2116 1406 1581 1522 
L 1381 1569 
Q 847 1681 609 1914 
Q 372 2147 372 2553 
Q 372 3047 722 3315 
Q 1072 3584 1716 3584 
Q 2034 3584 2315 3537 
Q 2597 3491 2834 3397 
z
" transform="scale(0.015625)"/>
       <path id="DejaVuSans-77" d="M 269 3500 
L 844 3500 
L 1563 769 
L 2278 3500 
L 2956 3500 
L 3675 769 
L 4391 3500 
L 4966 3500 
L 4050 0 
L 3372 0 
L 2619 2869 
L 1863 0 
L 1184 0 
L 269 3500 
z
" transform="scale(0.015625)"/>
       <path id="DejaVuSans-6f" d="M 1959 3097 
Q 1497 3097 1228 2736 
Q 959 2375 959 1747 
Q 959 1119 1226 758 
Q 1494 397 1959 397 
Q 2419 397 2687 759 
Q 2956 1122 2956 1747 
Q 2956 2369 2687 2733 
Q 2419 3097 1959 3097 
z
M 1959 3584 
Q 2709 3584 3137 3096 
Q 3566 2609 3566 1747 
Q 3566 888 3137 398 
Q 2709 -91 1959 -91 
Q 1206 -91 779 398 
Q 353 888 353 1747 
Q 353 2609 779 3096 
Q 1206 3584 1959 3584 
z
" transform="scale(0.015625)"/>
       <path id="DejaVuSans-64" d="M 2906 2969 
L 2906 4863 
L 3481 4863 
L 3481 0 
L 2906 0 
L 2906 525 
Q 2725 213 2448 61 
Q 2172 -91 1784 -91 
Q 1150 -91 751 415 
Q 353 922 353 1747 
Q 353 2572 751 3078 
Q 1150 3584 1784 3584 
Q 2172 3584 2448 3432 
Q 2725 3281 2906 2969 
z
M 947 1747 
Q 947 1113 1208 752 
Q 1469 391 1925 391 
Q 2381 391 2643 752 
Q 2906 1113 2906 1747 
Q 2906 2381 2643 2742 
Q 2381 3103 1925 3103 
Q 1469 3103 1208 2742 
Q 947 2381 947 1747 
z
" transform="scale(0.015625)"/>
      </defs>
      <use xlink:href="#DejaVuSans-43"/>
      <use xlink:href="#DejaVuSans-6c" x="69.824219"/>
      <use xlink:href="#DejaVuSans-69" x="97.607422"/>
      <use xlink:href="#DejaVuSans-6e" x="125.390625"/>
      <use xlink:href="#DejaVuSans-74" x="188.769531"/>
      <use xlink:href="#DejaVuSans-20" x="227.978516"/>
      <use xlink:href="#DejaVuSans-45" x="259.765625"/>
      <use xlink:href="#DejaVuSans-61" x="322.949219"/>
      <use xlink:href="#DejaVuSans-73" x="384.228516"/>
      <use xlink:href="#DejaVuSans-74" x="436.328125"/>
      <use xlink:href="#DejaVuSans-77" x="475.537109"/>
      <use xlink:href="#DejaVuSans-6f" x="557.324219"/>
      <use xlink:href="#DejaVuSans-6f" x="618.505859"/>
      <use xlink:href="#DejaVuSans-64" x="679.6875"/>
     </g>
    </g>
   </g>
   <g id="text_3">
    <g id="patch_4">
     <path d="M 385.24649 136.980958 
L 474.553209 136.980958 
L 474.553209 120.350645 
L 385.24649 120.350645 
z
" clip-path="url(#p37b1c302cc)" style="fill: #ffffff; opacity: 0.7; stroke: #000000; stroke-linejoin: miter"/>
    </g>
    <g clip-path="url(#p37b1c302cc)">
     <!-- Christopher Nolan -->
     <g transform="translate(389.20649 131.149239)scale(0.09 -0.09)">
      <defs>
       <path id="DejaVuSans-68" d="M 3513 2113 
L 3513 0 
L 2938 0 
L 2938 2094 
Q 2938 2591 2744 2837 
Q 2550 3084 2163 3084 
Q 1697 3084 1428 2787 
Q 1159 2491 1159 1978 
L 1159 0 
L 581 0 
L 581 4863 
L 1159 4863 
L 1159 2956 
Q 1366 3272 1645 3428 
Q 1925 3584 2291 3584 
Q 2894 3584 3203 3211 
Q 3513 2838 3513 2113 
z
" transform="scale(0.015625)"/>
       <path id="DejaVuSans-70" d="M 1159 525 
L 1159 -1331 
L 581 -1331 
L 581 3500 
L 1159 3500 
L 1159 2969 
Q 1341 3281 1617 3432 
Q 1894 3584 2278 3584 
Q 2916 3584 3314 3078 
Q 3713 2572 3713 1747 
Q 3713 922 3314 415 
Q 2916 -91 2278 -91 
Q 1894 -91 1617 61 
Q 1341 213 1159 525 
z
M 3116 1747 
Q 3116 2381 2855 2742 
Q 2594 3103 2138 3103 
Q 1681 3103 1420 2742 
Q 1159 2381 1159 1747 
Q 1159 1113 1420 752 
Q 1681 391 2138 391 
Q 2594 391 2855 752 
Q 3116 1113 3116 1747 
z
" transform="scale(0.015625)"/>
       <path id="DejaVuSans-4e" d="M 628 4666 
L 1478 4666 
L 3547 763 
L 3547 4666 
L 4159 4666 
L 4159 0 
L 3309 0 
L 1241 3903 
L 1241 0 
L 628 0 
L 628 4666 
z
" transform="scale(0.015625)"/>
      </defs>
      <use xlink:href="#DejaVuSans-43"/>
      <use xlink:href="#DejaVuSans-68" x="69.824219"/>
      <use xlink:href="#DejaVuSans-72" x="133.203125"/>
      <use xlink:href="#DejaVuSans-69" x="174.316406"/>
      <use xlink:href="#DejaVuSans-73" x="202.099609"/>
      <use xlink:href="#DejaVuSans-74" x="254.199219"/>
      <use xlink:href="#DejaVuSans-6f" x="293.408203"/>
      <use xlink:href="#DejaVuSans-70" x="354.589844"/>
      <use xlink:href="#DejaVuSans-68" x="418.066406"/>
      <use xlink:href="#DejaVuSans-65" x="481.445312"/>
      <use xlink:href="#DejaVuSans-72" x="542.96875"/>
      <use xlink:href="#DejaVuSans-20" x="584.082031"/>
      <use xlink:href="#DejaVuSans-4e" x="615.869141"/>
      <use xlink:href="#DejaVuSans-6f" x="690.673828"/>
      <use xlink:href="#DejaVuSans-6c" x="751.855469"/>
      <use xlink:href="#DejaVuSans-61" x="779.638672"/>
      <use xlink:href="#DejaVuSans-6e" x="840.917969"/>
     </g>
    </g>
   </g>
   <g id="text_4">
    <g id="patch_5">
     <path d="M 321.129916 92.403594 
L 383.398666 92.403594 
L 383.398666 75.773281 
L 321.129916 75.773281 
z
" clip-path="url(#p37b1c302cc)" style="fill: #ffffff; opacity: 0.7; stroke: #000000; stroke-linejoin: miter"/>
    </g>
    <g clip-path="url(#p37b1c302cc)">
     <!-- Michael Bay -->
     <g transform="translate(325.089916 86.571875)scale(0.09 -0.09)">
      <defs>
       <path id="DejaVuSans-4d" d="M 628 4666 
L 1569 4666 
L 2759 1491 
L 3956 4666 
L 4897 4666 
L 4897 0 
L 4281 0 
L 4281 4097 
L 3078 897 
L 2444 897 
L 1241 4097 
L 1241 0 
L 628 0 
L 628 4666 
z
" transform="scale(0.015625)"/>
       <path id="DejaVuSans-63" d="M 3122 3366 
L 3122 2828 
Q 2878 2963 2633 3030 
Q 2388 3097 2138 3097 
Q 1578 3097 1268 2742 
Q 959 2388 959 1747 
Q 959 1106 1268 751 
Q 1578 397 2138 397 
Q 2388 397 2633 464 
Q 2878 531 3122 666 
L 3122 134 
Q 2881 22 2623 -34 
Q 2366 -91 2075 -91 
Q 1284 -91 818 406 
Q 353 903 353 1747 
Q 353 2603 823 3093 
Q 1294 3584 2113 3584 
Q 2378 3584 2631 3529 
Q 2884 3475 3122 3366 
z
" transform="scale(0.015625)"/>
       <path id="DejaVuSans-79" d="M 2059 -325 
Q 1816 -950 1584 -1140 
Q 1353 -1331 966 -1331 
L 506 -1331 
L 506 -850 
L 844 -850 
Q 1081 -850 1212 -737 
Q 1344 -625 1503 -206 
L 1606 56 
L 191 3500 
L 800 3500 
L 1894 763 
L 2988 3500 
L 3597 3500 
L 2059 -325 
z
" transform="scale(0.015625)"/>
      </defs>
      <use xlink:href="#DejaVuSans-4d"/>
      <use xlink:href="#DejaVuSans-69" x="86.279297"/>
      <use xlink:href="#DejaVuSans-63" x="114.0625"/>
      <use xlink:href="#DejaVuSans-68" x="169.042969"/>
      <use xlink:href="#DejaVuSans-61" x="232.421875"/>
      <use xlink:href="#DejaVuSans-65" x="293.701172"/>
      <use xlink:href="#DejaVuSans-6c" x="355.224609"/>
      <use xlink:href="#DejaVuSans-20" x="383.007812"/>
      <use xlink:href="#DejaVuSans-42" x="414.794922"/>
      <use xlink:href="#DejaVuSans-61" x="483.398438"/>
      <use xlink:href="#DejaVuSans-79" x="544.677734"/>
     </g>
    </g>
   </g>
   <g id="text_5">
    <g id="patch_6">
     <path d="M 215.853924 83.084387 
L 310.365174 83.084387 
L 310.365174 66.454075 
L 215.853924 66.454075 
z
" clip-path="url(#p37b1c302cc)" style="fill: #ffffff; opacity: 0.7; stroke: #000000; stroke-linejoin: miter"/>
    </g>
    <g clip-path="url(#p37b1c302cc)">
     <!-- Steven Soderbergh -->
     <g transform="translate(219.813924 77.252668)scale(0.09 -0.09)">
      <defs>
       <path id="DejaVuSans-53" d="M 3425 4513 
L 3425 3897 
Q 3066 4069 2747 4153 
Q 2428 4238 2131 4238 
Q 1616 4238 1336 4038 
Q 1056 3838 1056 3469 
Q 1056 3159 1242 3001 
Q 1428 2844 1947 2747 
L 2328 2669 
Q 3034 2534 3370 2195 
Q 3706 1856 3706 1288 
Q 3706 609 3251 259 
Q 2797 -91 1919 -91 
Q 1588 -91 1214 -16 
Q 841 59 441 206 
L 441 856 
Q 825 641 1194 531 
Q 1563 422 1919 422 
Q 2459 422 2753 634 
Q 3047 847 3047 1241 
Q 3047 1584 2836 1778 
Q 2625 1972 2144 2069 
L 1759 2144 
Q 1053 2284 737 2584 
Q 422 2884 422 3419 
Q 422 4038 858 4394 
Q 1294 4750 2059 4750 
Q 2388 4750 2728 4690 
Q 3069 4631 3425 4513 
z
" transform="scale(0.015625)"/>
       <path id="DejaVuSans-76" d="M 191 3500 
L 800 3500 
L 1894 563 
L 2988 3500 
L 3597 3500 
L 2284 0 
L 1503 0 
L 191 3500 
z
" transform="scale(0.015625)"/>
       <path id="DejaVuSans-62" d="M 3116 1747 
Q 3116 2381 2855 2742 
Q 2594 3103 2138 3103 
Q 1681 3103 1420 2742 
Q 1159 2381 1159 1747 
Q 1159 1113 1420 752 
Q 1681 391 2138 391 
Q 2594 391 2855 752 
Q 3116 1113 3116 1747 
z
M 1159 2969 
Q 1341 3281 1617 3432 
Q 1894 3584 2278 3584 
Q 2916 3584 3314 3078 
Q 3713 2572 3713 1747 
Q 3713 922 3314 415 
Q 2916 -91 2278 -91 
Q 1894 -91 1617 61 
Q 1341 213 1159 525 
L 1159 0 
L 581 0 
L 581 4863 
L 1159 4863 
L 1159 2969 
z
" transform="scale(0.015625)"/>
       <path id="DejaVuSans-67" d="M 2906 1791 
Q 2906 2416 2648 2759 
Q 2391 3103 1925 3103 
Q 1463 3103 1205 2759 
Q 947 2416 947 1791 
Q 947 1169 1205 825 
Q 1463 481 1925 481 
Q 2391 481 2648 825 
Q 2906 1169 2906 1791 
z
M 3481 434 
Q 3481 -459 3084 -895 
Q 2688 -1331 1869 -1331 
Q 1566 -1331 1297 -1286 
Q 1028 -1241 775 -1147 
L 775 -588 
Q 1028 -725 1275 -790 
Q 1522 -856 1778 -856 
Q 2344 -856 2625 -561 
Q 2906 -266 2906 331 
L 2906 616 
Q 2728 306 2450 153 
Q 2172 0 1784 0 
Q 1141 0 747 490 
Q 353 981 353 1791 
Q 353 2603 747 3093 
Q 1141 3584 1784 3584 
Q 2172 3584 2450 3431 
Q 2728 3278 2906 2969 
L 2906 3500 
L 3481 3500 
L 3481 434 
z
" transform="scale(0.015625)"/>
      </defs>
      <use xlink:href="#DejaVuSans-53"/>
      <use xlink:href="#DejaVuSans-74" x="63.476562"/>
      <use xlink:href="#DejaVuSans-65" x="102.685547"/>
      <use xlink:href="#DejaVuSans-76" x="164.208984"/>
      <use xlink:href="#DejaVuSans-65" x="223.388672"/>
      <use xlink:href="#DejaVuSans-6e" x="284.912109"/>
      <use xlink:href="#DejaVuSans-20" x="348.291016"/>
      <use xlink:href="#DejaVuSans-53" x="380.078125"/>
      <use xlink:href="#DejaVuSans-6f" x="443.554688"/>
      <use xlink:href="#DejaVuSans-64" x="504.736328"/>
      <use xlink:href="#DejaVuSans-65" x="568.212891"/>
      <use xlink:href="#DejaVuSans-72" x="629.736328"/>
      <use xlink:href="#DejaVuSans-62" x="670.849609"/>
      <use xlink:href="#DejaVuSans-65" x="734.326172"/>
      <use xlink:href="#DejaVuSans-72" x="795.849609"/>
      <use xlink:href="#DejaVuSans-67" x="835.212891"/>
      <use xlink:href="#DejaVuSans-68" x="898.689453"/>
     </g>
    </g>
   </g>
   <g id="text_6">
    <g id="patch_7">
     <path d="M 138.473486 110.634724 
L 217.229111 110.634724 
L 217.229111 94.004411 
L 138.473486 94.004411 
z
" clip-path="url(#p37b1c302cc)" style="fill: #ffffff; opacity: 0.7; stroke: #000000; stroke-linejoin: miter"/>
    </g>
    <g clip-path="url(#p37b1c302cc)">
     <!-- James Cameron -->
     <g transform="translate(142.433486 104.803005)scale(0.09 -0.09)">
      <defs>
       <path id="DejaVuSans-4a" d="M 628 4666 
L 1259 4666 
L 1259 325 
Q 1259 -519 939 -900 
Q 619 -1281 -91 -1281 
L -331 -1281 
L -331 -750 
L -134 -750 
Q 284 -750 456 -515 
Q 628 -281 628 325 
L 628 4666 
z
" transform="scale(0.015625)"/>
      </defs>
      <use xlink:href="#DejaVuSans-4a"/>
      <use xlink:href="#DejaVuSans-61" x="29.492188"/>
      <use xlink:href="#DejaVuSans-6d" x="90.771484"/>
      <use xlink:href="#DejaVuSans-65" x="188.183594"/>
      <use xlink:href="#DejaVuSans-73" x="249.707031"/>
      <use xlink:href="#DejaVuSans-20" x="301.806641"/>
      <use xlink:href="#DejaVuSans-43" x="333.59375"/>
      <use xlink:href="#DejaVuSans-61" x="403.417969"/>
      <use xlink:href="#DejaVuSans-6d" x="464.697266"/>
      <use xlink:href="#DejaVuSans-65" x="562.109375"/>
      <use xlink:href="#DejaVuSans-72" x="623.632812"/>
      <use xlink:href="#DejaVuSans-6f" x="662.496094"/>
      <use xlink:href="#DejaVuSans-6e" x="723.677734"/>
     </g>
    </g>
   </g>
   <g id="text_7">
    <g id="patch_8">
     <path d="M 67.117415 170.290885 
L 155.34554 170.290885 
L 155.34554 153.660572 
L 67.117415 153.660572 
z
" clip-path="url(#p37b1c302cc)" style="fill: #ffffff; opacity: 0.7; stroke: #000000; stroke-linejoin: miter"/>
    </g>
    <g clip-path="url(#p37b1c302cc)">
     <!-- Quentin Tarantino -->
     <g transform="translate(71.077415 164.459166)scale(0.09 -0.09)">
      <defs>
       <path id="DejaVuSans-51" d="M 2522 4238 
Q 1834 4238 1429 3725 
Q 1025 3213 1025 2328 
Q 1025 1447 1429 934 
Q 1834 422 2522 422 
Q 3209 422 3611 934 
Q 4013 1447 4013 2328 
Q 4013 3213 3611 3725 
Q 3209 4238 2522 4238 
z
M 3406 84 
L 4238 -825 
L 3475 -825 
L 2784 -78 
Q 2681 -84 2626 -87 
Q 2572 -91 2522 -91 
Q 1538 -91 948 567 
Q 359 1225 359 2328 
Q 359 3434 948 4092 
Q 1538 4750 2522 4750 
Q 3503 4750 4090 4092 
Q 4678 3434 4678 2328 
Q 4678 1516 4351 937 
Q 4025 359 3406 84 
z
" transform="scale(0.015625)"/>
       <path id="DejaVuSans-75" d="M 544 1381 
L 544 3500 
L 1119 3500 
L 1119 1403 
Q 1119 906 1312 657 
Q 1506 409 1894 409 
Q 2359 409 2629 706 
Q 2900 1003 2900 1516 
L 2900 3500 
L 3475 3500 
L 3475 0 
L 2900 0 
L 2900 538 
Q 2691 219 2414 64 
Q 2138 -91 1772 -91 
Q 1169 -91 856 284 
Q 544 659 544 1381 
z
M 1991 3584 
L 1991 3584 
z
" transform="scale(0.015625)"/>
       <path id="DejaVuSans-54" d="M -19 4666 
L 3928 4666 
L 3928 4134 
L 2272 4134 
L 2272 0 
L 1638 0 
L 1638 4134 
L -19 4134 
L -19 4666 
z
" transform="scale(0.015625)"/>
      </defs>
      <use xlink:href="#DejaVuSans-51"/>
      <use xlink:href="#DejaVuSans-75" x="78.710938"/>
      <use xlink:href="#DejaVuSans-65" x="142.089844"/>
      <use xlink:href="#DejaVuSans-6e" x="203.613281"/>
      <use xlink:href="#DejaVuSans-74" x="266.992188"/>
      <use xlink:href="#DejaVuSans-69" x="306.201172"/>
      <use xlink:href="#DejaVuSans-6e" x="333.984375"/>
      <use xlink:href="#DejaVuSans-20" x="397.363281"/>
      <use xlink:href="#DejaVuSans-54" x="429.150391"/>
      <use xlink:href="#DejaVuSans-61" x="473.734375"/>
      <use xlink:href="#DejaVuSans-72" x="535.013672"/>
      <use xlink:href="#DejaVuSans-61" x="576.126953"/>
      <use xlink:href="#DejaVuSans-6e" x="637.40625"/>
      <use xlink:href="#DejaVuSans-74" x="700.785156"/>
      <use xlink:href="#DejaVuSans-69" x="739.994141"/>
      <use xlink:href="#DejaVuSans-6e" x="767.777344"/>
      <use xlink:href="#DejaVuSans-6f" x="831.15625"/>
     </g>
    </g>
   </g>
   <g id="text_8">
    <g id="patch_9">
     <path d="M 45.979075 251.737805 
L 103.559387 251.737805 
L 103.559387 235.107493 
L 45.979075 235.107493 
z
" clip-path="url(#p37b1c302cc)" style="fill: #ffffff; opacity: 0.7; stroke: #000000; stroke-linejoin: miter"/>
    </g>
    <g clip-path="url(#p37b1c302cc)">
     <!-- Tim Burton -->
     <g transform="translate(49.939075 245.906086)scale(0.09 -0.09)">
      <use xlink:href="#DejaVuSans-54"/>
      <use xlink:href="#DejaVuSans-69" x="57.958984"/>
      <use xlink:href="#DejaVuSans-6d" x="85.742188"/>
      <use xlink:href="#DejaVuSans-20" x="183.154297"/>
      <use xlink:href="#DejaVuSans-42" x="214.941406"/>
      <use xlink:href="#DejaVuSans-75" x="283.544922"/>
      <use xlink:href="#DejaVuSans-72" x="346.923828"/>
      <use xlink:href="#DejaVuSans-74" x="388.037109"/>
      <use xlink:href="#DejaVuSans-6f" x="427.246094"/>
      <use xlink:href="#DejaVuSans-6e" x="488.427734"/>
     </g>
    </g>
   </g>
   <g id="text_9">
    <g id="patch_10">
     <path d="M 25.416197 340.892546 
L 124.12229 340.892546 
L 124.12229 324.262233 
L 25.416197 324.262233 
z
" clip-path="url(#p37b1c302cc)" style="fill: #ffffff; opacity: 0.7; stroke: #000000; stroke-linejoin: miter"/>
    </g>
    <g clip-path="url(#p37b1c302cc)">
     <!-- M. Night Shyamalan -->
     <g transform="translate(29.376197 335.060827)scale(0.09 -0.09)">
      <defs>
       <path id="DejaVuSans-2e" d="M 684 794 
L 1344 794 
L 1344 0 
L 684 0 
L 684 794 
z
" transform="scale(0.015625)"/>
      </defs>
      <use xlink:href="#DejaVuSans-4d"/>
      <use xlink:href="#DejaVuSans-2e" x="86.279297"/>
      <use xlink:href="#DejaVuSans-20" x="118.066406"/>
      <use xlink:href="#DejaVuSans-4e" x="149.853516"/>
      <use xlink:href="#DejaVuSans-69" x="224.658203"/>
      <use xlink:href="#DejaVuSans-67" x="252.441406"/>
      <use xlink:href="#DejaVuSans-68" x="315.917969"/>
      <use xlink:href="#DejaVuSans-74" x="379.296875"/>
      <use xlink:href="#DejaVuSans-20" x="418.505859"/>
      <use xlink:href="#DejaVuSans-53" x="450.292969"/>
      <use xlink:href="#DejaVuSans-68" x="513.769531"/>
      <use xlink:href="#DejaVuSans-79" x="577.148438"/>
      <use xlink:href="#DejaVuSans-61" x="636.328125"/>
      <use xlink:href="#DejaVuSans-6d" x="697.607422"/>
      <use xlink:href="#DejaVuSans-61" x="795.019531"/>
      <use xlink:href="#DejaVuSans-6c" x="856.298828"/>
      <use xlink:href="#DejaVuSans-61" x="884.082031"/>
      <use xlink:href="#DejaVuSans-6e" x="945.361328"/>
     </g>
    </g>
   </g>
   <g id="text_10">
    <g id="patch_11">
     <path d="M 70.521959 422.33944 
L 151.941021 422.33944 
L 151.941021 405.709128 
L 70.521959 405.709128 
z
" clip-path="url(#p37b1c302cc)" style="fill: #ffffff; opacity: 0.7; stroke: #000000; stroke-linejoin: miter"/>
    </g>
    <g clip-path="url(#p37b1c302cc)">
     <!-- Alfred Hitchcock -->
     <g transform="translate(74.481959 416.507722)scale(0.09 -0.09)">
      <defs>
       <path id="DejaVuSans-41" d="M 2188 4044 
L 1331 1722 
L 3047 1722 
L 2188 4044 
z
M 1831 4666 
L 2547 4666 
L 4325 0 
L 3669 0 
L 3244 1197 
L 1141 1197 
L 716 0 
L 50 0 
L 1831 4666 
z
" transform="scale(0.015625)"/>
       <path id="DejaVuSans-66" d="M 2375 4863 
L 2375 4384 
L 1825 4384 
Q 1516 4384 1395 4259 
Q 1275 4134 1275 3809 
L 1275 3500 
L 2222 3500 
L 2222 3053 
L 1275 3053 
L 1275 0 
L 697 0 
L 697 3053 
L 147 3053 
L 147 3500 
L 697 3500 
L 697 3744 
Q 697 4328 969 4595 
Q 1241 4863 1831 4863 
L 2375 4863 
z
" transform="scale(0.015625)"/>
       <path id="DejaVuSans-48" d="M 628 4666 
L 1259 4666 
L 1259 2753 
L 3553 2753 
L 3553 4666 
L 4184 4666 
L 4184 0 
L 3553 0 
L 3553 2222 
L 1259 2222 
L 1259 0 
L 628 0 
L 628 4666 
z
" transform="scale(0.015625)"/>
       <path id="DejaVuSans-6b" d="M 581 4863 
L 1159 4863 
L 1159 1991 
L 2875 3500 
L 3609 3500 
L 1753 1863 
L 3688 0 
L 2938 0 
L 1159 1709 
L 1159 0 
L 581 0 
L 581 4863 
z
" transform="scale(0.015625)"/>
      </defs>
      <use xlink:href="#DejaVuSans-41"/>
      <use xlink:href="#DejaVuSans-6c" x="68.408203"/>
      <use xlink:href="#DejaVuSans-66" x="96.191406"/>
      <use xlink:href="#DejaVuSans-72" x="131.396484"/>
      <use xlink:href="#DejaVuSans-65" x="170.259766"/>
      <use xlink:href="#DejaVuSans-64" x="231.783203"/>
      <use xlink:href="#DejaVuSans-20" x="295.259766"/>
      <use xlink:href="#DejaVuSans-48" x="327.046875"/>
      <use xlink:href="#DejaVuSans-69" x="402.242188"/>
      <use xlink:href="#DejaVuSans-74" x="430.025391"/>
      <use xlink:href="#DejaVuSans-63" x="469.234375"/>
      <use xlink:href="#DejaVuSans-68" x="524.214844"/>
      <use xlink:href="#DejaVuSans-63" x="587.59375"/>
      <use xlink:href="#DejaVuSans-6f" x="642.574219"/>
      <use xlink:href="#DejaVuSans-63" x="703.755859"/>
      <use xlink:href="#DejaVuSans-6b" x="758.736328"/>
     </g>
    </g>
   </g>
   <g id="text_11">
    <g id="patch_12">
     <path d="M 135.06969 481.995602 
L 220.632971 481.995602 
L 220.632971 465.365289 
L 135.06969 465.365289 
z
" clip-path="url(#p37b1c302cc)" style="fill: #ffffff; opacity: 0.7; stroke: #000000; stroke-linejoin: miter"/>
    </g>
    <g clip-path="url(#p37b1c302cc)">
     <!-- Robert Rodriguez -->
     <g transform="translate(139.02969 476.163883)scale(0.09 -0.09)">
      <defs>
       <path id="DejaVuSans-52" d="M 2841 2188 
Q 3044 2119 3236 1894 
Q 3428 1669 3622 1275 
L 4263 0 
L 3584 0 
L 2988 1197 
Q 2756 1666 2539 1819 
Q 2322 1972 1947 1972 
L 1259 1972 
L 1259 0 
L 628 0 
L 628 4666 
L 2053 4666 
Q 2853 4666 3247 4331 
Q 3641 3997 3641 3322 
Q 3641 2881 3436 2590 
Q 3231 2300 2841 2188 
z
M 1259 4147 
L 1259 2491 
L 2053 2491 
Q 2509 2491 2742 2702 
Q 2975 2913 2975 3322 
Q 2975 3731 2742 3939 
Q 2509 4147 2053 4147 
L 1259 4147 
z
" transform="scale(0.015625)"/>
       <path id="DejaVuSans-7a" d="M 353 3500 
L 3084 3500 
L 3084 2975 
L 922 459 
L 3084 459 
L 3084 0 
L 275 0 
L 275 525 
L 2438 3041 
L 353 3041 
L 353 3500 
z
" transform="scale(0.015625)"/>
      </defs>
      <use xlink:href="#DejaVuSans-52"/>
      <use xlink:href="#DejaVuSans-6f" x="64.982422"/>
      <use xlink:href="#DejaVuSans-62" x="126.164062"/>
      <use xlink:href="#DejaVuSans-65" x="189.640625"/>
      <use xlink:href="#DejaVuSans-72" x="251.164062"/>
      <use xlink:href="#DejaVuSans-74" x="292.277344"/>
      <use xlink:href="#DejaVuSans-20" x="331.486328"/>
      <use xlink:href="#DejaVuSans-52" x="363.273438"/>
      <use xlink:href="#DejaVuSans-6f" x="428.255859"/>
      <use xlink:href="#DejaVuSans-64" x="489.4375"/>
      <use xlink:href="#DejaVuSans-72" x="552.914062"/>
      <use xlink:href="#DejaVuSans-69" x="594.027344"/>
      <use xlink:href="#DejaVuSans-67" x="621.810547"/>
      <use xlink:href="#DejaVuSans-75" x="685.287109"/>
      <use xlink:href="#DejaVuSans-65" x="748.666016"/>
      <use xlink:href="#DejaVuSans-7a" x="810.189453"/>
     </g>
    </g>
   </g>
   <g id="text_12">
    <g id="patch_13">
     <path d="M 219.520056 509.545925 
L 306.699118 509.545925 
L 306.699118 492.915613 
L 219.520056 492.915613 
z
" clip-path="url(#p37b1c302cc)" style="fill: #ffffff; opacity: 0.7; stroke: #000000; stroke-linejoin: miter"/>
    </g>
    <g clip-path="url(#p37b1c302cc)">
     <!-- Roland Emmerich -->
     <g transform="translate(223.480056 503.714207)scale(0.09 -0.09)">
      <use xlink:href="#DejaVuSans-52"/>
      <use xlink:href="#DejaVuSans-6f" x="64.982422"/>
      <use xlink:href="#DejaVuSans-6c" x="126.164062"/>
      <use xlink:href="#DejaVuSans-61" x="153.947266"/>
      <use xlink:href="#DejaVuSans-6e" x="215.226562"/>
      <use xlink:href="#DejaVuSans-64" x="278.605469"/>
      <use xlink:href="#DejaVuSans-20" x="342.082031"/>
      <use xlink:href="#DejaVuSans-45" x="373.869141"/>
      <use xlink:href="#DejaVuSans-6d" x="437.052734"/>
      <use xlink:href="#DejaVuSans-6d" x="534.464844"/>
      <use xlink:href="#DejaVuSans-65" x="631.876953"/>
      <use xlink:href="#DejaVuSans-72" x="693.400391"/>
      <use xlink:href="#DejaVuSans-69" x="734.513672"/>
      <use xlink:href="#DejaVuSans-63" x="762.296875"/>
      <use xlink:href="#DejaVuSans-68" x="817.277344"/>
     </g>
    </g>
   </g>
   <g id="text_13">
    <g id="patch_14">
     <path d="M 320.722839 500.226706 
L 383.805808 500.226706 
L 383.805808 483.596393 
L 320.722839 483.596393 
z
" clip-path="url(#p37b1c302cc)" style="fill: #ffffff; opacity: 0.7; stroke: #000000; stroke-linejoin: miter"/>
    </g>
    <g clip-path="url(#p37b1c302cc)">
     <!-- Brett Ratner -->
     <g transform="translate(324.682839 494.394987)scale(0.09 -0.09)">
      <use xlink:href="#DejaVuSans-42"/>
      <use xlink:href="#DejaVuSans-72" x="68.603516"/>
      <use xlink:href="#DejaVuSans-65" x="107.466797"/>
      <use xlink:href="#DejaVuSans-74" x="168.990234"/>
      <use xlink:href="#DejaVuSans-74" x="208.199219"/>
      <use xlink:href="#DejaVuSans-20" x="247.408203"/>
      <use xlink:href="#DejaVuSans-52" x="279.195312"/>
      <use xlink:href="#DejaVuSans-61" x="346.427734"/>
      <use xlink:href="#DejaVuSans-74" x="407.707031"/>
      <use xlink:href="#DejaVuSans-6e" x="446.916016"/>
      <use xlink:href="#DejaVuSans-65" x="510.294922"/>
      <use xlink:href="#DejaVuSans-72" x="571.818359"/>
     </g>
    </g>
   </g>
   <g id="text_14">
    <g id="patch_15">
     <path d="M 383.746763 455.649316 
L 476.053013 455.649316 
L 476.053013 439.019004 
L 383.746763 439.019004 
z
" clip-path="url(#p37b1c302cc)" style="fill: #ffffff; opacity: 0.7; stroke: #000000; stroke-linejoin: miter"/>
    </g>
    <g clip-path="url(#p37b1c302cc)">
     <!-- Wolfgang Petersen -->
     <g transform="translate(387.706763 449.817598)scale(0.09 -0.09)">
      <defs>
       <path id="DejaVuSans-57" d="M 213 4666 
L 850 4666 
L 1831 722 
L 2809 4666 
L 3519 4666 
L 4500 722 
L 5478 4666 
L 6119 4666 
L 4947 0 
L 4153 0 
L 3169 4050 
L 2175 0 
L 1381 0 
L 213 4666 
z
" transform="scale(0.015625)"/>
      </defs>
      <use xlink:href="#DejaVuSans-57"/>
      <use xlink:href="#DejaVuSans-6f" x="93.001953"/>
      <use xlink:href="#DejaVuSans-6c" x="154.183594"/>
      <use xlink:href="#DejaVuSans-66" x="181.966797"/>
      <use xlink:href="#DejaVuSans-67" x="217.171875"/>
      <use xlink:href="#DejaVuSans-61" x="280.648438"/>
      <use xlink:href="#DejaVuSans-6e" x="341.927734"/>
      <use xlink:href="#DejaVuSans-67" x="405.306641"/>
      <use xlink:href="#DejaVuSans-20" x="468.783203"/>
      <use xlink:href="#DejaVuSans-50" x="500.570312"/>
      <use xlink:href="#DejaVuSans-65" x="557.248047"/>
      <use xlink:href="#DejaVuSans-74" x="618.771484"/>
      <use xlink:href="#DejaVuSans-65" x="657.980469"/>
      <use xlink:href="#DejaVuSans-72" x="719.503906"/>
      <use xlink:href="#DejaVuSans-73" x="760.617188"/>
      <use xlink:href="#DejaVuSans-65" x="812.716797"/>
      <use xlink:href="#DejaVuSans-6e" x="874.240234"/>
     </g>
    </g>
   </g>
   <g id="text_15">
    <g id="patch_16">
     <path d="M 443.903624 383.521616 
L 521.281124 383.521616 
L 521.281124 366.891303 
L 443.903624 366.891303 
z
" clip-path="url(#p37b1c302cc)" style="fill: #ffffff; opacity: 0.7; stroke: #000000; stroke-linejoin: miter"/>
    </g>
    <g clip-path="url(#p37b1c302cc)">
     <!-- Paul Verhoeven -->
     <g transform="translate(447.863624 377.689897)scale(0.09 -0.09)">
      <defs>
       <path id="DejaVuSans-56" d="M 1831 0 
L 50 4666 
L 709 4666 
L 2188 738 
L 3669 4666 
L 4325 4666 
L 2547 0 
L 1831 0 
z
" transform="scale(0.015625)"/>
      </defs>
      <use xlink:href="#DejaVuSans-50"/>
      <use xlink:href="#DejaVuSans-61" x="55.802734"/>
      <use xlink:href="#DejaVuSans-75" x="117.082031"/>
      <use xlink:href="#DejaVuSans-6c" x="180.460938"/>
      <use xlink:href="#DejaVuSans-20" x="208.244141"/>
      <use xlink:href="#DejaVuSans-56" x="240.03125"/>
      <use xlink:href="#DejaVuSans-65" x="300.689453"/>
      <use xlink:href="#DejaVuSans-72" x="362.212891"/>
      <use xlink:href="#DejaVuSans-68" x="401.576172"/>
      <use xlink:href="#DejaVuSans-6f" x="464.955078"/>
      <use xlink:href="#DejaVuSans-65" x="526.136719"/>
      <use xlink:href="#DejaVuSans-76" x="587.660156"/>
      <use xlink:href="#DejaVuSans-65" x="646.839844"/>
      <use xlink:href="#DejaVuSans-6e" x="708.363281"/>
     </g>
    </g>
   </g>
   <g id="text_16">
    <!-- Impactful directors for Thriller genre -->
    <g transform="translate(178.955625 4.8)scale(0.12 -0.12)">
     <defs>
      <path id="DejaVuSans-49" d="M 628 4666 
L 1259 4666 
L 1259 0 
L 628 0 
L 628 4666 
z
" transform="scale(0.015625)"/>
     </defs>
     <use xlink:href="#DejaVuSans-49"/>
     <use xlink:href="#DejaVuSans-6d" x="29.492188"/>
     <use xlink:href="#DejaVuSans-70" x="126.904297"/>
     <use xlink:href="#DejaVuSans-61" x="190.380859"/>
     <use xlink:href="#DejaVuSans-63" x="251.660156"/>
     <use xlink:href="#DejaVuSans-74" x="306.640625"/>
     <use xlink:href="#DejaVuSans-66" x="345.849609"/>
     <use xlink:href="#DejaVuSans-75" x="381.054688"/>
     <use xlink:href="#DejaVuSans-6c" x="444.433594"/>
     <use xlink:href="#DejaVuSans-20" x="472.216797"/>
     <use xlink:href="#DejaVuSans-64" x="504.003906"/>
     <use xlink:href="#DejaVuSans-69" x="567.480469"/>
     <use xlink:href="#DejaVuSans-72" x="595.263672"/>
     <use xlink:href="#DejaVuSans-65" x="634.126953"/>
     <use xlink:href="#DejaVuSans-63" x="695.650391"/>
     <use xlink:href="#DejaVuSans-74" x="750.630859"/>
     <use xlink:href="#DejaVuSans-6f" x="789.839844"/>
     <use xlink:href="#DejaVuSans-72" x="851.021484"/>
     <use xlink:href="#DejaVuSans-73" x="892.134766"/>
     <use xlink:href="#DejaVuSans-20" x="944.234375"/>
     <use xlink:href="#DejaVuSans-66" x="976.021484"/>
     <use xlink:href="#DejaVuSans-6f" x="1011.226562"/>
     <use xlink:href="#DejaVuSans-72" x="1072.408203"/>
     <use xlink:href="#DejaVuSans-20" x="1113.521484"/>
     <use xlink:href="#DejaVuSans-54" x="1145.308594"/>
     <use xlink:href="#DejaVuSans-68" x="1206.392578"/>
     <use xlink:href="#DejaVuSans-72" x="1269.771484"/>
     <use xlink:href="#DejaVuSans-69" x="1310.884766"/>
     <use xlink:href="#DejaVuSans-6c" x="1338.667969"/>
     <use xlink:href="#DejaVuSans-6c" x="1366.451172"/>
     <use xlink:href="#DejaVuSans-65" x="1394.234375"/>
     <use xlink:href="#DejaVuSans-72" x="1455.757812"/>
     <use xlink:href="#DejaVuSans-20" x="1496.871094"/>
     <use xlink:href="#DejaVuSans-67" x="1528.658203"/>
     <use xlink:href="#DejaVuSans-65" x="1592.134766"/>
     <use xlink:href="#DejaVuSans-6e" x="1653.658203"/>
     <use xlink:href="#DejaVuSans-72" x="1717.037109"/>
     <use xlink:href="#DejaVuSans-65" x="1755.900391"/>
    </g>
   </g>
  </g>
 </g>
 <defs>
  <clipPath id="p37b1c302cc">
   <rect x="10.8" y="10.8" width="554.4" height="554.4"/>
  </clipPath>
 </defs>
</svg>
