<?xml version="1.0" encoding="utf-8" standalone="no"?>
<!DOCTYPE svg PUBLIC "-//W3C//DTD SVG 1.1//EN"
  "http://www.w3.org/Graphics/SVG/1.1/DTD/svg11.dtd">
<svg xmlns:xlink="http://www.w3.org/1999/xlink" width="568.8pt" height="583.918125pt" viewBox="0 0 568.8 583.918125" xmlns="http://www.w3.org/2000/svg" version="1.1">
 <metadata>
  <rdf:RDF xmlns:dc="http://purl.org/dc/elements/1.1/" xmlns:cc="http://creativecommons.org/ns#" xmlns:rdf="http://www.w3.org/1999/02/22-rdf-syntax-ns#">
   <cc:Work>
    <dc:type rdf:resource="http://purl.org/dc/dcmitype/StillImage"/>
    <dc:date>2022-12-23T20:56:46.266288</dc:date>
    <dc:format>image/svg+xml</dc:format>
    <dc:creator>
     <cc:Agent>
      <dc:title>Matplotlib v3.5.3, https://matplotlib.org/</dc:title>
     </cc:Agent>
    </dc:creator>
   </cc:Work>
  </rdf:RDF>
 </metadata>
 <defs>
  <style type="text/css">*{stroke-linejoin: round; stroke-linecap: butt}</style>
 </defs>
 <g id="figure_1">
  <g id="patch_1">
   <path d="M 0 583.918125 
L 568.8 583.918125 
L 568.8 0 
L 0 0 
z
" style="fill: #ffffff"/>
  </g>
  <g id="axes_1">
   <g id="LineCollection_1">
    <path d="M 478.246154 299.518125 
L 461.302134 212.311633 
" clip-path="url(#p304fe00613)" style="fill: none; stroke: #000000; stroke-opacity: 0.3; stroke-width: 5"/>
    <path d="M 90.553846 254.940774 
L 90.553858 344.095514 
" clip-path="url(#p304fe00613)" style="fill: none; stroke: #000000; stroke-opacity: 0.3; stroke-width: 10"/>
   </g>
   <g id="PathCollection_1">
    <path d="M 478.246154 326.904253 
C 485.50904 326.904253 492.475435 324.018678 497.611071 318.883042 
C 502.746707 313.747406 505.632282 306.781011 505.632282 299.518125 
C 505.632282 292.255239 502.746707 285.288844 497.611071 280.153208 
C 492.475435 275.017572 485.50904 272.131997 478.246154 272.131997 
C 470.983268 272.131997 464.016873 275.017572 458.881237 280.153208 
C 453.745601 285.288844 450.860026 292.255239 450.860026 299.518125 
C 450.860026 306.781011 453.745601 313.747406 458.881237 318.883042 
C 464.016873 324.018678 470.983268 326.904253 478.246154 326.904253 
z
" clip-path="url(#p304fe00613)" style="fill: #c70039; fill-opacity: 0.99; stroke: #c70039; stroke-opacity: 0.99"/>
    <path d="M 461.302134 239.087194 
C 468.403096 239.087194 475.214177 236.265952 480.235315 231.244814 
C 485.256453 226.223676 488.077695 219.412595 488.077695 212.311633 
C 488.077695 205.210672 485.256453 198.399591 480.235315 193.378453 
C 475.214177 188.357315 468.403096 185.536073 461.302134 185.536073 
C 454.201173 185.536073 447.390092 188.357315 442.368954 193.378453 
C 437.347816 198.399591 434.526574 205.210672 434.526574 212.311633 
C 434.526574 219.412595 437.347816 226.223676 442.368954 231.244814 
C 447.390092 236.265952 454.201173 239.087194 461.302134 239.087194 
z
" clip-path="url(#p304fe00613)" style="fill: #c70039; fill-opacity: 0.99; stroke: #c70039; stroke-opacity: 0.99"/>
    <path d="M 413.399864 165.755419 
C 420.181502 165.755419 426.686296 163.061045 431.481639 158.265702 
C 436.276982 153.470359 438.971355 146.965566 438.971355 140.183927 
C 438.971355 133.402288 436.276982 126.897494 431.481639 122.102151 
C 426.686296 117.306808 420.181502 114.612435 413.399864 114.612435 
C 406.618225 114.612435 400.113431 117.306808 395.318088 122.102151 
C 390.522745 126.897494 387.828372 133.402288 387.828372 140.183927 
C 387.828372 146.965566 390.522745 153.470359 395.318088 158.265702 
C 400.113431 163.061045 406.618225 165.755419 413.399864 165.755419 
z
" clip-path="url(#p304fe00613)" style="fill: #c70039; fill-opacity: 0.99; stroke: #c70039; stroke-opacity: 0.99"/>
    <path d="M 342.822083 121.143815 
C 349.594641 121.143815 356.090725 118.453049 360.879647 113.664127 
C 365.668569 108.875205 368.359335 102.379121 368.359335 95.606563 
C 368.359335 88.834004 365.668569 82.33792 360.879647 77.548998 
C 356.090725 72.760076 349.594641 70.06931 342.822083 70.06931 
C 336.049524 70.06931 329.553441 72.760076 324.764519 77.548998 
C 319.975597 82.33792 317.284831 88.834004 317.284831 95.606563 
C 317.284831 102.379121 319.975597 108.875205 324.764519 113.664127 
C 329.553441 118.453049 336.049524 121.143815 342.822083 121.143815 
z
" clip-path="url(#p304fe00613)" style="fill: #c70039; fill-opacity: 0.99; stroke: #c70039; stroke-opacity: 0.99"/>
    <path d="M 261.772317 111.498464 
C 268.458381 111.498464 274.871501 108.842063 279.599263 104.114301 
C 284.327024 99.38654 286.983425 92.97342 286.983425 86.287356 
C 286.983425 79.601292 284.327024 73.188171 279.599263 68.46041 
C 274.871501 63.732649 268.458381 61.076247 261.772317 61.076247 
C 255.086253 61.076247 248.673133 63.732649 243.945371 68.46041 
C 239.21761 73.188171 236.561209 79.601292 236.561209 86.287356 
C 236.561209 92.97342 239.21761 99.38654 243.945371 104.114301 
C 248.673133 108.842063 255.086253 111.498464 261.772317 111.498464 
z
" clip-path="url(#p304fe00613)" style="fill: #c70039; fill-opacity: 0.99; stroke: #c70039; stroke-opacity: 0.99"/>
    <path d="M 184.264816 138.83824 
C 190.895039 138.83824 197.254598 136.204024 201.942873 131.515749 
C 206.631149 126.827473 209.265364 120.467915 209.265364 113.837692 
C 209.265364 107.20747 206.631149 100.847911 201.942873 96.159636 
C 197.254598 91.47136 190.895039 88.837145 184.264816 88.837145 
C 177.634594 88.837145 171.275035 91.47136 166.58676 96.159636 
C 161.898484 100.847911 159.264269 107.20747 159.264269 113.837692 
C 159.264269 120.467915 161.898484 126.827473 166.58676 131.515749 
C 171.275035 136.204024 177.634594 138.83824 184.264816 138.83824 
z
" clip-path="url(#p304fe00613)" style="fill: #c70039; fill-opacity: 0.99; stroke: #c70039; stroke-opacity: 0.99"/>
    <path d="M 123.701343 197.032889 
C 129.943968 197.032889 135.931752 194.552668 140.345954 190.138465 
C 144.760157 185.724263 147.240378 179.736479 147.240378 173.493854 
C 147.240378 167.251229 144.760157 161.263445 140.345954 156.849242 
C 135.931752 152.43504 129.943968 149.954818 123.701343 149.954818 
C 117.458718 149.954818 111.470934 152.43504 107.056731 156.849242 
C 102.642529 161.263445 100.162307 167.251229 100.162307 173.493854 
C 100.162307 179.736479 102.642529 185.724263 107.056731 190.138465 
C 111.470934 194.552668 117.458718 197.032889 123.701343 197.032889 
z
" clip-path="url(#p304fe00613)" style="fill: #c70039; fill-opacity: 0.99; stroke: #c70039; stroke-opacity: 0.99"/>
    <path d="M 90.553846 278.479809 
C 96.796471 278.479809 102.784255 275.999588 107.198458 271.585385 
C 111.61266 267.171183 114.092881 261.183399 114.092881 254.940774 
C 114.092881 248.698149 111.61266 242.710365 107.198458 238.296162 
C 102.784255 233.88196 96.796471 231.401739 90.553846 231.401739 
C 84.311221 231.401739 78.323437 233.88196 73.909235 238.296162 
C 69.495032 242.710365 67.014811 248.698149 67.014811 254.940774 
C 67.014811 261.183399 69.495032 267.171183 73.909235 271.585385 
C 78.323437 275.999588 84.311221 278.479809 90.553846 278.479809 
z
" clip-path="url(#p304fe00613)" style="fill: #c70039; fill-opacity: 0.99; stroke: #c70039; stroke-opacity: 0.99"/>
    <path d="M 90.553858 366.759752 
C 96.564484 366.759752 102.329739 364.371705 106.579894 360.121551 
C 110.830048 355.871396 113.218095 350.106141 113.218095 344.095514 
C 113.218095 338.084888 110.830048 332.319633 106.579894 328.069478 
C 102.329739 323.819324 96.564484 321.431277 90.553858 321.431277 
C 84.543232 321.431277 78.777976 323.819324 74.527822 328.069478 
C 70.277667 332.319633 67.88962 338.084888 67.88962 344.095514 
C 67.88962 350.106141 70.277667 355.871396 74.527822 360.121551 
C 78.777976 364.371705 84.543232 366.759752 90.553858 366.759752 
z
" clip-path="url(#p304fe00613)" style="fill: #c70039; fill-opacity: 0.99; stroke: #c70039; stroke-opacity: 0.99"/>
    <path d="M 123.701354 447.543357 
C 129.536074 447.543357 135.132604 445.225198 139.258374 441.099429 
C 143.384144 436.973659 145.702302 431.377129 145.702302 425.542409 
C 145.702302 419.707689 143.384144 414.111159 139.258374 409.98539 
C 135.132604 405.85962 129.536074 403.541461 123.701354 403.541461 
C 117.866635 403.541461 112.270105 405.85962 108.144335 409.98539 
C 104.018565 414.111159 101.700406 419.707689 101.700406 425.542409 
C 101.700406 431.377129 104.018565 436.973659 108.144335 441.099429 
C 112.270105 445.225198 117.866635 447.543357 123.701354 447.543357 
z
" clip-path="url(#p304fe00613)" style="fill: #c70039; fill-opacity: 0.99; stroke: #c70039; stroke-opacity: 0.99"/>
    <path d="M 184.264846 505.8302 
C 189.736418 505.8302 194.984625 503.656321 198.853611 499.787335 
C 202.722596 495.91835 204.896475 490.670143 204.896475 485.198571 
C 204.896475 479.726998 202.722596 474.478791 198.853611 470.609806 
C 194.984625 466.74082 189.736418 464.566941 184.264846 464.566941 
C 178.793274 464.566941 173.545066 466.74082 169.676081 470.609806 
C 165.807095 474.478791 163.633216 479.726998 163.633216 485.198571 
C 163.633216 490.670143 165.807095 495.91835 169.676081 499.787335 
C 173.545066 503.656321 178.793274 505.8302 184.264846 505.8302 
z
" clip-path="url(#p304fe00613)" style="fill: #c70039; fill-opacity: 0.99; stroke: #c70039; stroke-opacity: 0.99"/>
    <path d="M 261.772352 533.316096 
C 267.226838 533.316096 272.458656 531.149006 276.31556 527.292102 
C 280.172463 523.435198 282.339553 518.20338 282.339553 512.748894 
C 282.339553 507.294409 280.172463 502.06259 276.31556 498.205687 
C 272.458656 494.348783 267.226838 492.181693 261.772352 492.181693 
C 256.317866 492.181693 251.086048 494.348783 247.229144 498.205687 
C 243.372241 502.06259 241.205151 507.294409 241.205151 512.748894 
C 241.205151 518.20338 243.372241 523.435198 247.229144 527.292102 
C 251.086048 531.149006 256.317866 533.316096 261.772352 533.316096 
z
" clip-path="url(#p304fe00613)" style="fill: #c70039; fill-opacity: 0.99; stroke: #c70039; stroke-opacity: 0.99"/>
    <path d="M 342.822112 523.198061 
C 348.06475 523.198061 353.093368 521.115139 356.800472 517.408035 
C 360.507577 513.70093 362.590499 508.672312 362.590499 503.429675 
C 362.590499 498.187037 360.507577 493.158419 356.800472 489.451314 
C 353.093368 485.74421 348.06475 483.661288 342.822112 483.661288 
C 337.579475 483.661288 332.550856 485.74421 328.843752 489.451314 
C 325.136647 493.158419 323.053725 498.187037 323.053725 503.429675 
C 323.053725 508.672312 325.136647 513.70093 328.843752 517.408035 
C 332.550856 521.115139 337.579475 523.198061 342.822112 523.198061 
z
" clip-path="url(#p304fe00613)" style="fill: #c70039; fill-opacity: 0.99; stroke: #c70039; stroke-opacity: 0.99"/>
    <path d="M 413.399899 478.326028 
C 418.564396 478.326028 423.518064 476.274152 427.169914 472.622301 
C 430.821765 468.97045 432.873642 464.016782 432.873642 458.852285 
C 432.873642 453.687788 430.821765 448.73412 427.169914 445.082269 
C 423.518064 441.430418 418.564396 439.378542 413.399899 439.378542 
C 408.235401 439.378542 403.281734 441.430418 399.629883 445.082269 
C 395.978032 448.73412 393.926155 453.687788 393.926155 458.852285 
C 393.926155 464.016782 395.978032 468.97045 399.629883 472.622301 
C 403.281734 476.274152 408.235401 478.326028 413.399899 478.326028 
z
" clip-path="url(#p304fe00613)" style="fill: #c70039; fill-opacity: 0.99; stroke: #c70039; stroke-opacity: 0.99"/>
    <path d="M 461.302158 406.089501 
C 466.437794 406.089501 471.363779 404.049092 474.995222 400.417649 
C 478.626665 396.786206 480.667074 391.860221 480.667074 386.724585 
C 480.667074 381.588949 478.626665 376.662964 474.995222 373.031521 
C 471.363779 369.400078 466.437794 367.359668 461.302158 367.359668 
C 456.166522 367.359668 451.240537 369.400078 447.609094 373.031521 
C 443.977651 376.662964 441.937241 381.588949 441.937241 386.724585 
C 441.937241 391.860221 443.977651 396.786206 447.609094 400.417649 
C 451.240537 404.049092 456.166522 406.089501 461.302158 406.089501 
z
" clip-path="url(#p304fe00613)" style="fill: #c70039; fill-opacity: 0.99; stroke: #c70039; stroke-opacity: 0.99"/>
   </g>
   <g id="text_1">
    <g id="patch_2">
     <path d="M 446.883966 307.833281 
L 509.608341 307.833281 
L 509.608341 291.202969 
L 446.883966 291.202969 
z
" clip-path="url(#p304fe00613)" style="fill: #ffffff; opacity: 0.7; stroke: #000000; stroke-linejoin: miter"/>
    </g>
    <g clip-path="url(#p304fe00613)">
     <!-- Chuck Jones -->
     <g transform="translate(450.843966 302.001562)scale(0.09 -0.09)">
      <defs>
       <path id="DejaVuSans-43" d="M 4122 4306 
L 4122 3641 
Q 3803 3938 3442 4084 
Q 3081 4231 2675 4231 
Q 1875 4231 1450 3742 
Q 1025 3253 1025 2328 
Q 1025 1406 1450 917 
Q 1875 428 2675 428 
Q 3081 428 3442 575 
Q 3803 722 4122 1019 
L 4122 359 
Q 3791 134 3420 21 
Q 3050 -91 2638 -91 
Q 1578 -91 968 557 
Q 359 1206 359 2328 
Q 359 3453 968 4101 
Q 1578 4750 2638 4750 
Q 3056 4750 3426 4639 
Q 3797 4528 4122 4306 
z
" transform="scale(0.015625)"/>
       <path id="DejaVuSans-68" d="M 3513 2113 
L 3513 0 
L 2938 0 
L 2938 2094 
Q 2938 2591 2744 2837 
Q 2550 3084 2163 3084 
Q 1697 3084 1428 2787 
Q 1159 2491 1159 1978 
L 1159 0 
L 581 0 
L 581 4863 
L 1159 4863 
L 1159 2956 
Q 1366 3272 1645 3428 
Q 1925 3584 2291 3584 
Q 2894 3584 3203 3211 
Q 3513 2838 3513 2113 
z
" transform="scale(0.015625)"/>
       <path id="DejaVuSans-75" d="M 544 1381 
L 544 3500 
L 1119 3500 
L 1119 1403 
Q 1119 906 1312 657 
Q 1506 409 1894 409 
Q 2359 409 2629 706 
Q 2900 1003 2900 1516 
L 2900 3500 
L 3475 3500 
L 3475 0 
L 2900 0 
L 2900 538 
Q 2691 219 2414 64 
Q 2138 -91 1772 -91 
Q 1169 -91 856 284 
Q 544 659 544 1381 
z
M 1991 3584 
L 1991 3584 
z
" transform="scale(0.015625)"/>
       <path id="DejaVuSans-63" d="M 3122 3366 
L 3122 2828 
Q 2878 2963 2633 3030 
Q 2388 3097 2138 3097 
Q 1578 3097 1268 2742 
Q 959 2388 959 1747 
Q 959 1106 1268 751 
Q 1578 397 2138 397 
Q 2388 397 2633 464 
Q 2878 531 3122 666 
L 3122 134 
Q 2881 22 2623 -34 
Q 2366 -91 2075 -91 
Q 1284 -91 818 406 
Q 353 903 353 1747 
Q 353 2603 823 3093 
Q 1294 3584 2113 3584 
Q 2378 3584 2631 3529 
Q 2884 3475 3122 3366 
z
" transform="scale(0.015625)"/>
       <path id="DejaVuSans-6b" d="M 581 4863 
L 1159 4863 
L 1159 1991 
L 2875 3500 
L 3609 3500 
L 1753 1863 
L 3688 0 
L 2938 0 
L 1159 1709 
L 1159 0 
L 581 0 
L 581 4863 
z
" transform="scale(0.015625)"/>
       <path id="DejaVuSans-20" transform="scale(0.015625)"/>
       <path id="DejaVuSans-4a" d="M 628 4666 
L 1259 4666 
L 1259 325 
Q 1259 -519 939 -900 
Q 619 -1281 -91 -1281 
L -331 -1281 
L -331 -750 
L -134 -750 
Q 284 -750 456 -515 
Q 628 -281 628 325 
L 628 4666 
z
" transform="scale(0.015625)"/>
       <path id="DejaVuSans-6f" d="M 1959 3097 
Q 1497 3097 1228 2736 
Q 959 2375 959 1747 
Q 959 1119 1226 758 
Q 1494 397 1959 397 
Q 2419 397 2687 759 
Q 2956 1122 2956 1747 
Q 2956 2369 2687 2733 
Q 2419 3097 1959 3097 
z
M 1959 3584 
Q 2709 3584 3137 3096 
Q 3566 2609 3566 1747 
Q 3566 888 3137 398 
Q 2709 -91 1959 -91 
Q 1206 -91 779 398 
Q 353 888 353 1747 
Q 353 2609 779 3096 
Q 1206 3584 1959 3584 
z
" transform="scale(0.015625)"/>
       <path id="DejaVuSans-6e" d="M 3513 2113 
L 3513 0 
L 2938 0 
L 2938 2094 
Q 2938 2591 2744 2837 
Q 2550 3084 2163 3084 
Q 1697 3084 1428 2787 
Q 1159 2491 1159 1978 
L 1159 0 
L 581 0 
L 581 3500 
L 1159 3500 
L 1159 2956 
Q 1366 3272 1645 3428 
Q 1925 3584 2291 3584 
Q 2894 3584 3203 3211 
Q 3513 2838 3513 2113 
z
" transform="scale(0.015625)"/>
       <path id="DejaVuSans-65" d="M 3597 1894 
L 3597 1613 
L 953 1613 
Q 991 1019 1311 708 
Q 1631 397 2203 397 
Q 2534 397 2845 478 
Q 3156 559 3463 722 
L 3463 178 
Q 3153 47 2828 -22 
Q 2503 -91 2169 -91 
Q 1331 -91 842 396 
Q 353 884 353 1716 
Q 353 2575 817 3079 
Q 1281 3584 2069 3584 
Q 2775 3584 3186 3129 
Q 3597 2675 3597 1894 
z
M 3022 2063 
Q 3016 2534 2758 2815 
Q 2500 3097 2075 3097 
Q 1594 3097 1305 2825 
Q 1016 2553 972 2059 
L 3022 2063 
z
" transform="scale(0.015625)"/>
       <path id="DejaVuSans-73" d="M 2834 3397 
L 2834 2853 
Q 2591 2978 2328 3040 
Q 2066 3103 1784 3103 
Q 1356 3103 1142 2972 
Q 928 2841 928 2578 
Q 928 2378 1081 2264 
Q 1234 2150 1697 2047 
L 1894 2003 
Q 2506 1872 2764 1633 
Q 3022 1394 3022 966 
Q 3022 478 2636 193 
Q 2250 -91 1575 -91 
Q 1294 -91 989 -36 
Q 684 19 347 128 
L 347 722 
Q 666 556 975 473 
Q 1284 391 1588 391 
Q 1994 391 2212 530 
Q 2431 669 2431 922 
Q 2431 1156 2273 1281 
Q 2116 1406 1581 1522 
L 1381 1569 
Q 847 1681 609 1914 
Q 372 2147 372 2553 
Q 372 3047 722 3315 
Q 1072 3584 1716 3584 
Q 2034 3584 2315 3537 
Q 2597 3491 2834 3397 
z
" transform="scale(0.015625)"/>
      </defs>
      <use xlink:href="#DejaVuSans-43"/>
      <use xlink:href="#DejaVuSans-68" x="69.824219"/>
      <use xlink:href="#DejaVuSans-75" x="133.203125"/>
      <use xlink:href="#DejaVuSans-63" x="196.582031"/>
      <use xlink:href="#DejaVuSans-6b" x="251.5625"/>
      <use xlink:href="#DejaVuSans-20" x="309.472656"/>
      <use xlink:href="#DejaVuSans-4a" x="341.259766"/>
      <use xlink:href="#DejaVuSans-6f" x="370.751953"/>
      <use xlink:href="#DejaVuSans-6e" x="431.933594"/>
      <use xlink:href="#DejaVuSans-65" x="495.3125"/>
      <use xlink:href="#DejaVuSans-73" x="556.835938"/>
     </g>
    </g>
   </g>
   <g id="text_2">
    <g id="patch_3">
     <path d="M 431.680884 220.62679 
L 490.923384 220.62679 
L 490.923384 203.996477 
L 431.680884 203.996477 
z
" clip-path="url(#p304fe00613)" style="fill: #ffffff; opacity: 0.7; stroke: #000000; stroke-linejoin: miter"/>
    </g>
    <g clip-path="url(#p304fe00613)">
     <!-- Friz Freleng -->
     <g transform="translate(435.640884 214.795071)scale(0.09 -0.09)">
      <defs>
       <path id="DejaVuSans-46" d="M 628 4666 
L 3309 4666 
L 3309 4134 
L 1259 4134 
L 1259 2759 
L 3109 2759 
L 3109 2228 
L 1259 2228 
L 1259 0 
L 628 0 
L 628 4666 
z
" transform="scale(0.015625)"/>
       <path id="DejaVuSans-72" d="M 2631 2963 
Q 2534 3019 2420 3045 
Q 2306 3072 2169 3072 
Q 1681 3072 1420 2755 
Q 1159 2438 1159 1844 
L 1159 0 
L 581 0 
L 581 3500 
L 1159 3500 
L 1159 2956 
Q 1341 3275 1631 3429 
Q 1922 3584 2338 3584 
Q 2397 3584 2469 3576 
Q 2541 3569 2628 3553 
L 2631 2963 
z
" transform="scale(0.015625)"/>
       <path id="DejaVuSans-69" d="M 603 3500 
L 1178 3500 
L 1178 0 
L 603 0 
L 603 3500 
z
M 603 4863 
L 1178 4863 
L 1178 4134 
L 603 4134 
L 603 4863 
z
" transform="scale(0.015625)"/>
       <path id="DejaVuSans-7a" d="M 353 3500 
L 3084 3500 
L 3084 2975 
L 922 459 
L 3084 459 
L 3084 0 
L 275 0 
L 275 525 
L 2438 3041 
L 353 3041 
L 353 3500 
z
" transform="scale(0.015625)"/>
       <path id="DejaVuSans-6c" d="M 603 4863 
L 1178 4863 
L 1178 0 
L 603 0 
L 603 4863 
z
" transform="scale(0.015625)"/>
       <path id="DejaVuSans-67" d="M 2906 1791 
Q 2906 2416 2648 2759 
Q 2391 3103 1925 3103 
Q 1463 3103 1205 2759 
Q 947 2416 947 1791 
Q 947 1169 1205 825 
Q 1463 481 1925 481 
Q 2391 481 2648 825 
Q 2906 1169 2906 1791 
z
M 3481 434 
Q 3481 -459 3084 -895 
Q 2688 -1331 1869 -1331 
Q 1566 -1331 1297 -1286 
Q 1028 -1241 775 -1147 
L 775 -588 
Q 1028 -725 1275 -790 
Q 1522 -856 1778 -856 
Q 2344 -856 2625 -561 
Q 2906 -266 2906 331 
L 2906 616 
Q 2728 306 2450 153 
Q 2172 0 1784 0 
Q 1141 0 747 490 
Q 353 981 353 1791 
Q 353 2603 747 3093 
Q 1141 3584 1784 3584 
Q 2172 3584 2450 3431 
Q 2728 3278 2906 2969 
L 2906 3500 
L 3481 3500 
L 3481 434 
z
" transform="scale(0.015625)"/>
      </defs>
      <use xlink:href="#DejaVuSans-46"/>
      <use xlink:href="#DejaVuSans-72" x="50.269531"/>
      <use xlink:href="#DejaVuSans-69" x="91.382812"/>
      <use xlink:href="#DejaVuSans-7a" x="119.166016"/>
      <use xlink:href="#DejaVuSans-20" x="171.65625"/>
      <use xlink:href="#DejaVuSans-46" x="203.443359"/>
      <use xlink:href="#DejaVuSans-72" x="253.712891"/>
      <use xlink:href="#DejaVuSans-65" x="292.576172"/>
      <use xlink:href="#DejaVuSans-6c" x="354.099609"/>
      <use xlink:href="#DejaVuSans-65" x="381.882812"/>
      <use xlink:href="#DejaVuSans-6e" x="443.40625"/>
      <use xlink:href="#DejaVuSans-67" x="506.785156"/>
     </g>
    </g>
   </g>
   <g id="text_3">
    <g id="patch_4">
     <path d="M 375.997832 148.499083 
L 450.801895 148.499083 
L 450.801895 131.86877 
L 375.997832 131.86877 
z
" clip-path="url(#p304fe00613)" style="fill: #ffffff; opacity: 0.7; stroke: #000000; stroke-linejoin: miter"/>
    </g>
    <g clip-path="url(#p304fe00613)">
     <!-- Clint Eastwood -->
     <g transform="translate(379.957832 142.667364)scale(0.09 -0.09)">
      <defs>
       <path id="DejaVuSans-74" d="M 1172 4494 
L 1172 3500 
L 2356 3500 
L 2356 3053 
L 1172 3053 
L 1172 1153 
Q 1172 725 1289 603 
Q 1406 481 1766 481 
L 2356 481 
L 2356 0 
L 1766 0 
Q 1100 0 847 248 
Q 594 497 594 1153 
L 594 3053 
L 172 3053 
L 172 3500 
L 594 3500 
L 594 4494 
L 1172 4494 
z
" transform="scale(0.015625)"/>
       <path id="DejaVuSans-45" d="M 628 4666 
L 3578 4666 
L 3578 4134 
L 1259 4134 
L 1259 2753 
L 3481 2753 
L 3481 2222 
L 1259 2222 
L 1259 531 
L 3634 531 
L 3634 0 
L 628 0 
L 628 4666 
z
" transform="scale(0.015625)"/>
       <path id="DejaVuSans-61" d="M 2194 1759 
Q 1497 1759 1228 1600 
Q 959 1441 959 1056 
Q 959 750 1161 570 
Q 1363 391 1709 391 
Q 2188 391 2477 730 
Q 2766 1069 2766 1631 
L 2766 1759 
L 2194 1759 
z
M 3341 1997 
L 3341 0 
L 2766 0 
L 2766 531 
Q 2569 213 2275 61 
Q 1981 -91 1556 -91 
Q 1019 -91 701 211 
Q 384 513 384 1019 
Q 384 1609 779 1909 
Q 1175 2209 1959 2209 
L 2766 2209 
L 2766 2266 
Q 2766 2663 2505 2880 
Q 2244 3097 1772 3097 
Q 1472 3097 1187 3025 
Q 903 2953 641 2809 
L 641 3341 
Q 956 3463 1253 3523 
Q 1550 3584 1831 3584 
Q 2591 3584 2966 3190 
Q 3341 2797 3341 1997 
z
" transform="scale(0.015625)"/>
       <path id="DejaVuSans-77" d="M 269 3500 
L 844 3500 
L 1563 769 
L 2278 3500 
L 2956 3500 
L 3675 769 
L 4391 3500 
L 4966 3500 
L 4050 0 
L 3372 0 
L 2619 2869 
L 1863 0 
L 1184 0 
L 269 3500 
z
" transform="scale(0.015625)"/>
       <path id="DejaVuSans-64" d="M 2906 2969 
L 2906 4863 
L 3481 4863 
L 3481 0 
L 2906 0 
L 2906 525 
Q 2725 213 2448 61 
Q 2172 -91 1784 -91 
Q 1150 -91 751 415 
Q 353 922 353 1747 
Q 353 2572 751 3078 
Q 1150 3584 1784 3584 
Q 2172 3584 2448 3432 
Q 2725 3281 2906 2969 
z
M 947 1747 
Q 947 1113 1208 752 
Q 1469 391 1925 391 
Q 2381 391 2643 752 
Q 2906 1113 2906 1747 
Q 2906 2381 2643 2742 
Q 2381 3103 1925 3103 
Q 1469 3103 1208 2742 
Q 947 2381 947 1747 
z
" transform="scale(0.015625)"/>
      </defs>
      <use xlink:href="#DejaVuSans-43"/>
      <use xlink:href="#DejaVuSans-6c" x="69.824219"/>
      <use xlink:href="#DejaVuSans-69" x="97.607422"/>
      <use xlink:href="#DejaVuSans-6e" x="125.390625"/>
      <use xlink:href="#DejaVuSans-74" x="188.769531"/>
      <use xlink:href="#DejaVuSans-20" x="227.978516"/>
      <use xlink:href="#DejaVuSans-45" x="259.765625"/>
      <use xlink:href="#DejaVuSans-61" x="322.949219"/>
      <use xlink:href="#DejaVuSans-73" x="384.228516"/>
      <use xlink:href="#DejaVuSans-74" x="436.328125"/>
      <use xlink:href="#DejaVuSans-77" x="475.537109"/>
      <use xlink:href="#DejaVuSans-6f" x="557.324219"/>
      <use xlink:href="#DejaVuSans-6f" x="618.505859"/>
      <use xlink:href="#DejaVuSans-64" x="679.6875"/>
     </g>
    </g>
   </g>
   <g id="text_4">
    <g id="patch_5">
     <path d="M 311.697552 103.921719 
L 373.946614 103.921719 
L 373.946614 87.291406 
L 311.697552 87.291406 
z
" clip-path="url(#p304fe00613)" style="fill: #ffffff; opacity: 0.7; stroke: #000000; stroke-linejoin: miter"/>
    </g>
    <g clip-path="url(#p304fe00613)">
     <!-- John Huston -->
     <g transform="translate(315.657552 98.09)scale(0.09 -0.09)">
      <defs>
       <path id="DejaVuSans-48" d="M 628 4666 
L 1259 4666 
L 1259 2753 
L 3553 2753 
L 3553 4666 
L 4184 4666 
L 4184 0 
L 3553 0 
L 3553 2222 
L 1259 2222 
L 1259 0 
L 628 0 
L 628 4666 
z
" transform="scale(0.015625)"/>
      </defs>
      <use xlink:href="#DejaVuSans-4a"/>
      <use xlink:href="#DejaVuSans-6f" x="29.492188"/>
      <use xlink:href="#DejaVuSans-68" x="90.673828"/>
      <use xlink:href="#DejaVuSans-6e" x="154.052734"/>
      <use xlink:href="#DejaVuSans-20" x="217.431641"/>
      <use xlink:href="#DejaVuSans-48" x="249.21875"/>
      <use xlink:href="#DejaVuSans-75" x="324.414062"/>
      <use xlink:href="#DejaVuSans-73" x="387.792969"/>
      <use xlink:href="#DejaVuSans-74" x="439.892578"/>
      <use xlink:href="#DejaVuSans-6f" x="479.101562"/>
      <use xlink:href="#DejaVuSans-6e" x="540.283203"/>
     </g>
    </g>
   </g>
   <g id="text_5">
    <g id="patch_6">
     <path d="M 220.161379 94.602512 
L 303.383254 94.602512 
L 303.383254 77.9722 
L 220.161379 77.9722 
z
" clip-path="url(#p304fe00613)" style="fill: #ffffff; opacity: 0.7; stroke: #000000; stroke-linejoin: miter"/>
    </g>
    <g clip-path="url(#p304fe00613)">
     <!-- Joel Schumacher -->
     <g transform="translate(224.121379 88.770793)scale(0.09 -0.09)">
      <defs>
       <path id="DejaVuSans-53" d="M 3425 4513 
L 3425 3897 
Q 3066 4069 2747 4153 
Q 2428 4238 2131 4238 
Q 1616 4238 1336 4038 
Q 1056 3838 1056 3469 
Q 1056 3159 1242 3001 
Q 1428 2844 1947 2747 
L 2328 2669 
Q 3034 2534 3370 2195 
Q 3706 1856 3706 1288 
Q 3706 609 3251 259 
Q 2797 -91 1919 -91 
Q 1588 -91 1214 -16 
Q 841 59 441 206 
L 441 856 
Q 825 641 1194 531 
Q 1563 422 1919 422 
Q 2459 422 2753 634 
Q 3047 847 3047 1241 
Q 3047 1584 2836 1778 
Q 2625 1972 2144 2069 
L 1759 2144 
Q 1053 2284 737 2584 
Q 422 2884 422 3419 
Q 422 4038 858 4394 
Q 1294 4750 2059 4750 
Q 2388 4750 2728 4690 
Q 3069 4631 3425 4513 
z
" transform="scale(0.015625)"/>
       <path id="DejaVuSans-6d" d="M 3328 2828 
Q 3544 3216 3844 3400 
Q 4144 3584 4550 3584 
Q 5097 3584 5394 3201 
Q 5691 2819 5691 2113 
L 5691 0 
L 5113 0 
L 5113 2094 
Q 5113 2597 4934 2840 
Q 4756 3084 4391 3084 
Q 3944 3084 3684 2787 
Q 3425 2491 3425 1978 
L 3425 0 
L 2847 0 
L 2847 2094 
Q 2847 2600 2669 2842 
Q 2491 3084 2119 3084 
Q 1678 3084 1418 2786 
Q 1159 2488 1159 1978 
L 1159 0 
L 581 0 
L 581 3500 
L 1159 3500 
L 1159 2956 
Q 1356 3278 1631 3431 
Q 1906 3584 2284 3584 
Q 2666 3584 2933 3390 
Q 3200 3197 3328 2828 
z
" transform="scale(0.015625)"/>
      </defs>
      <use xlink:href="#DejaVuSans-4a"/>
      <use xlink:href="#DejaVuSans-6f" x="29.492188"/>
      <use xlink:href="#DejaVuSans-65" x="90.673828"/>
      <use xlink:href="#DejaVuSans-6c" x="152.197266"/>
      <use xlink:href="#DejaVuSans-20" x="179.980469"/>
      <use xlink:href="#DejaVuSans-53" x="211.767578"/>
      <use xlink:href="#DejaVuSans-63" x="275.244141"/>
      <use xlink:href="#DejaVuSans-68" x="330.224609"/>
      <use xlink:href="#DejaVuSans-75" x="393.603516"/>
      <use xlink:href="#DejaVuSans-6d" x="456.982422"/>
      <use xlink:href="#DejaVuSans-61" x="554.394531"/>
      <use xlink:href="#DejaVuSans-63" x="615.673828"/>
      <use xlink:href="#DejaVuSans-68" x="670.654297"/>
      <use xlink:href="#DejaVuSans-65" x="734.033203"/>
      <use xlink:href="#DejaVuSans-72" x="795.556641"/>
     </g>
    </g>
   </g>
   <g id="text_6">
    <g id="patch_7">
     <path d="M 149.428488 122.152849 
L 219.101145 122.152849 
L 219.101145 105.522536 
L 149.428488 105.522536 
z
" clip-path="url(#p304fe00613)" style="fill: #ffffff; opacity: 0.7; stroke: #000000; stroke-linejoin: miter"/>
    </g>
    <g clip-path="url(#p304fe00613)">
     <!-- George Cukor -->
     <g transform="translate(153.388488 116.32113)scale(0.09 -0.09)">
      <defs>
       <path id="DejaVuSans-47" d="M 3809 666 
L 3809 1919 
L 2778 1919 
L 2778 2438 
L 4434 2438 
L 4434 434 
Q 4069 175 3628 42 
Q 3188 -91 2688 -91 
Q 1594 -91 976 548 
Q 359 1188 359 2328 
Q 359 3472 976 4111 
Q 1594 4750 2688 4750 
Q 3144 4750 3555 4637 
Q 3966 4525 4313 4306 
L 4313 3634 
Q 3963 3931 3569 4081 
Q 3175 4231 2741 4231 
Q 1884 4231 1454 3753 
Q 1025 3275 1025 2328 
Q 1025 1384 1454 906 
Q 1884 428 2741 428 
Q 3075 428 3337 486 
Q 3600 544 3809 666 
z
" transform="scale(0.015625)"/>
      </defs>
      <use xlink:href="#DejaVuSans-47"/>
      <use xlink:href="#DejaVuSans-65" x="77.490234"/>
      <use xlink:href="#DejaVuSans-6f" x="139.013672"/>
      <use xlink:href="#DejaVuSans-72" x="200.195312"/>
      <use xlink:href="#DejaVuSans-67" x="239.558594"/>
      <use xlink:href="#DejaVuSans-65" x="303.035156"/>
      <use xlink:href="#DejaVuSans-20" x="364.558594"/>
      <use xlink:href="#DejaVuSans-43" x="396.345703"/>
      <use xlink:href="#DejaVuSans-75" x="466.169922"/>
      <use xlink:href="#DejaVuSans-6b" x="529.548828"/>
      <use xlink:href="#DejaVuSans-6f" x="583.833984"/>
      <use xlink:href="#DejaVuSans-72" x="645.015625"/>
     </g>
    </g>
   </g>
   <g id="text_7">
    <g id="patch_8">
     <path d="M 83.88689 181.80901 
L 163.515796 181.80901 
L 163.515796 165.178697 
L 83.88689 165.178697 
z
" clip-path="url(#p304fe00613)" style="fill: #ffffff; opacity: 0.7; stroke: #000000; stroke-linejoin: miter"/>
    </g>
    <g clip-path="url(#p304fe00613)">
     <!-- George Stevens -->
     <g transform="translate(87.84689 175.977291)scale(0.09 -0.09)">
      <defs>
       <path id="DejaVuSans-76" d="M 191 3500 
L 800 3500 
L 1894 563 
L 2988 3500 
L 3597 3500 
L 2284 0 
L 1503 0 
L 191 3500 
z
" transform="scale(0.015625)"/>
      </defs>
      <use xlink:href="#DejaVuSans-47"/>
      <use xlink:href="#DejaVuSans-65" x="77.490234"/>
      <use xlink:href="#DejaVuSans-6f" x="139.013672"/>
      <use xlink:href="#DejaVuSans-72" x="200.195312"/>
      <use xlink:href="#DejaVuSans-67" x="239.558594"/>
      <use xlink:href="#DejaVuSans-65" x="303.035156"/>
      <use xlink:href="#DejaVuSans-20" x="364.558594"/>
      <use xlink:href="#DejaVuSans-53" x="396.345703"/>
      <use xlink:href="#DejaVuSans-74" x="459.822266"/>
      <use xlink:href="#DejaVuSans-65" x="499.03125"/>
      <use xlink:href="#DejaVuSans-76" x="560.554688"/>
      <use xlink:href="#DejaVuSans-65" x="619.734375"/>
      <use xlink:href="#DejaVuSans-6e" x="681.257812"/>
      <use xlink:href="#DejaVuSans-73" x="744.636719"/>
     </g>
    </g>
   </g>
   <g id="text_8">
    <g id="patch_9">
     <path d="M 60.578221 263.25593 
L 120.529471 263.25593 
L 120.529471 246.625618 
L 60.578221 246.625618 
z
" clip-path="url(#p304fe00613)" style="fill: #ffffff; opacity: 0.7; stroke: #000000; stroke-linejoin: miter"/>
    </g>
    <g clip-path="url(#p304fe00613)">
     <!-- Ethan Coen -->
     <g transform="translate(64.538221 257.424211)scale(0.09 -0.09)">
      <use xlink:href="#DejaVuSans-45"/>
      <use xlink:href="#DejaVuSans-74" x="63.183594"/>
      <use xlink:href="#DejaVuSans-68" x="102.392578"/>
      <use xlink:href="#DejaVuSans-61" x="165.771484"/>
      <use xlink:href="#DejaVuSans-6e" x="227.050781"/>
      <use xlink:href="#DejaVuSans-20" x="290.429688"/>
      <use xlink:href="#DejaVuSans-43" x="322.216797"/>
      <use xlink:href="#DejaVuSans-6f" x="392.041016"/>
      <use xlink:href="#DejaVuSans-65" x="453.222656"/>
      <use xlink:href="#DejaVuSans-6e" x="514.746094"/>
     </g>
    </g>
   </g>
   <g id="text_9">
    <g id="patch_10">
     <path d="M 65.547217 352.410671 
L 115.560498 352.410671 
L 115.560498 335.780358 
L 65.547217 335.780358 
z
" clip-path="url(#p304fe00613)" style="fill: #ffffff; opacity: 0.7; stroke: #000000; stroke-linejoin: miter"/>
    </g>
    <g clip-path="url(#p304fe00613)">
     <!-- Joel Coen -->
     <g transform="translate(69.507217 346.578952)scale(0.09 -0.09)">
      <use xlink:href="#DejaVuSans-4a"/>
      <use xlink:href="#DejaVuSans-6f" x="29.492188"/>
      <use xlink:href="#DejaVuSans-65" x="90.673828"/>
      <use xlink:href="#DejaVuSans-6c" x="152.197266"/>
      <use xlink:href="#DejaVuSans-20" x="179.980469"/>
      <use xlink:href="#DejaVuSans-43" x="211.767578"/>
      <use xlink:href="#DejaVuSans-6f" x="281.591797"/>
      <use xlink:href="#DejaVuSans-65" x="342.773438"/>
      <use xlink:href="#DejaVuSans-6e" x="404.296875"/>
     </g>
    </g>
   </g>
   <g id="text_10">
    <g id="patch_11">
     <path d="M 84.385417 433.857565 
L 163.017292 433.857565 
L 163.017292 417.227253 
L 84.385417 417.227253 
z
" clip-path="url(#p304fe00613)" style="fill: #ffffff; opacity: 0.7; stroke: #000000; stroke-linejoin: miter"/>
    </g>
    <g clip-path="url(#p304fe00613)">
     <!-- Charles Chaplin -->
     <g transform="translate(88.345417 428.025847)scale(0.09 -0.09)">
      <defs>
       <path id="DejaVuSans-70" d="M 1159 525 
L 1159 -1331 
L 581 -1331 
L 581 3500 
L 1159 3500 
L 1159 2969 
Q 1341 3281 1617 3432 
Q 1894 3584 2278 3584 
Q 2916 3584 3314 3078 
Q 3713 2572 3713 1747 
Q 3713 922 3314 415 
Q 2916 -91 2278 -91 
Q 1894 -91 1617 61 
Q 1341 213 1159 525 
z
M 3116 1747 
Q 3116 2381 2855 2742 
Q 2594 3103 2138 3103 
Q 1681 3103 1420 2742 
Q 1159 2381 1159 1747 
Q 1159 1113 1420 752 
Q 1681 391 2138 391 
Q 2594 391 2855 752 
Q 3116 1113 3116 1747 
z
" transform="scale(0.015625)"/>
      </defs>
      <use xlink:href="#DejaVuSans-43"/>
      <use xlink:href="#DejaVuSans-68" x="69.824219"/>
      <use xlink:href="#DejaVuSans-61" x="133.203125"/>
      <use xlink:href="#DejaVuSans-72" x="194.482422"/>
      <use xlink:href="#DejaVuSans-6c" x="235.595703"/>
      <use xlink:href="#DejaVuSans-65" x="263.378906"/>
      <use xlink:href="#DejaVuSans-73" x="324.902344"/>
      <use xlink:href="#DejaVuSans-20" x="377.001953"/>
      <use xlink:href="#DejaVuSans-43" x="408.789062"/>
      <use xlink:href="#DejaVuSans-68" x="478.613281"/>
      <use xlink:href="#DejaVuSans-61" x="541.992188"/>
      <use xlink:href="#DejaVuSans-70" x="603.271484"/>
      <use xlink:href="#DejaVuSans-6c" x="666.748047"/>
      <use xlink:href="#DejaVuSans-69" x="694.53125"/>
      <use xlink:href="#DejaVuSans-6e" x="722.314453"/>
     </g>
    </g>
   </g>
   <g id="text_11">
    <g id="patch_12">
     <path d="M 147.401408 493.513727 
L 221.128283 493.513727 
L 221.128283 476.883414 
L 147.401408 476.883414 
z
" clip-path="url(#p304fe00613)" style="fill: #ffffff; opacity: 0.7; stroke: #000000; stroke-linejoin: miter"/>
    </g>
    <g clip-path="url(#p304fe00613)">
     <!-- Garry Marshall -->
     <g transform="translate(151.361408 487.682008)scale(0.09 -0.09)">
      <defs>
       <path id="DejaVuSans-79" d="M 2059 -325 
Q 1816 -950 1584 -1140 
Q 1353 -1331 966 -1331 
L 506 -1331 
L 506 -850 
L 844 -850 
Q 1081 -850 1212 -737 
Q 1344 -625 1503 -206 
L 1606 56 
L 191 3500 
L 800 3500 
L 1894 763 
L 2988 3500 
L 3597 3500 
L 2059 -325 
z
" transform="scale(0.015625)"/>
       <path id="DejaVuSans-4d" d="M 628 4666 
L 1569 4666 
L 2759 1491 
L 3956 4666 
L 4897 4666 
L 4897 0 
L 4281 0 
L 4281 4097 
L 3078 897 
L 2444 897 
L 1241 4097 
L 1241 0 
L 628 0 
L 628 4666 
z
" transform="scale(0.015625)"/>
      </defs>
      <use xlink:href="#DejaVuSans-47"/>
      <use xlink:href="#DejaVuSans-61" x="77.490234"/>
      <use xlink:href="#DejaVuSans-72" x="138.769531"/>
      <use xlink:href="#DejaVuSans-72" x="178.132812"/>
      <use xlink:href="#DejaVuSans-79" x="219.246094"/>
      <use xlink:href="#DejaVuSans-20" x="278.425781"/>
      <use xlink:href="#DejaVuSans-4d" x="310.212891"/>
      <use xlink:href="#DejaVuSans-61" x="396.492188"/>
      <use xlink:href="#DejaVuSans-72" x="457.771484"/>
      <use xlink:href="#DejaVuSans-73" x="498.884766"/>
      <use xlink:href="#DejaVuSans-68" x="550.984375"/>
      <use xlink:href="#DejaVuSans-61" x="614.363281"/>
      <use xlink:href="#DejaVuSans-6c" x="675.642578"/>
      <use xlink:href="#DejaVuSans-6c" x="703.425781"/>
     </g>
    </g>
   </g>
   <g id="text_12">
    <g id="patch_13">
     <path d="M 232.755086 521.06405 
L 290.789618 521.06405 
L 290.789618 504.433738 
L 232.755086 504.433738 
z
" clip-path="url(#p304fe00613)" style="fill: #ffffff; opacity: 0.7; stroke: #000000; stroke-linejoin: miter"/>
    </g>
    <g clip-path="url(#p304fe00613)">
     <!-- Jules White -->
     <g transform="translate(236.715086 515.232332)scale(0.09 -0.09)">
      <defs>
       <path id="DejaVuSans-57" d="M 213 4666 
L 850 4666 
L 1831 722 
L 2809 4666 
L 3519 4666 
L 4500 722 
L 5478 4666 
L 6119 4666 
L 4947 0 
L 4153 0 
L 3169 4050 
L 2175 0 
L 1381 0 
L 213 4666 
z
" transform="scale(0.015625)"/>
      </defs>
      <use xlink:href="#DejaVuSans-4a"/>
      <use xlink:href="#DejaVuSans-75" x="29.492188"/>
      <use xlink:href="#DejaVuSans-6c" x="92.871094"/>
      <use xlink:href="#DejaVuSans-65" x="120.654297"/>
      <use xlink:href="#DejaVuSans-73" x="182.177734"/>
      <use xlink:href="#DejaVuSans-20" x="234.277344"/>
      <use xlink:href="#DejaVuSans-57" x="266.064453"/>
      <use xlink:href="#DejaVuSans-68" x="364.941406"/>
      <use xlink:href="#DejaVuSans-69" x="428.320312"/>
      <use xlink:href="#DejaVuSans-74" x="456.103516"/>
      <use xlink:href="#DejaVuSans-65" x="495.3125"/>
     </g>
    </g>
   </g>
   <g id="text_13">
    <g id="patch_14">
     <path d="M 300.368831 511.744831 
L 385.275393 511.744831 
L 385.275393 495.114518 
L 300.368831 495.114518 
z
" clip-path="url(#p304fe00613)" style="fill: #ffffff; opacity: 0.7; stroke: #000000; stroke-linejoin: miter"/>
    </g>
    <g clip-path="url(#p304fe00613)">
     <!-- Vincente Minnelli -->
     <g transform="translate(304.328831 505.913112)scale(0.09 -0.09)">
      <defs>
       <path id="DejaVuSans-56" d="M 1831 0 
L 50 4666 
L 709 4666 
L 2188 738 
L 3669 4666 
L 4325 4666 
L 2547 0 
L 1831 0 
z
" transform="scale(0.015625)"/>
      </defs>
      <use xlink:href="#DejaVuSans-56"/>
      <use xlink:href="#DejaVuSans-69" x="66.158203"/>
      <use xlink:href="#DejaVuSans-6e" x="93.941406"/>
      <use xlink:href="#DejaVuSans-63" x="157.320312"/>
      <use xlink:href="#DejaVuSans-65" x="212.300781"/>
      <use xlink:href="#DejaVuSans-6e" x="273.824219"/>
      <use xlink:href="#DejaVuSans-74" x="337.203125"/>
      <use xlink:href="#DejaVuSans-65" x="376.412109"/>
      <use xlink:href="#DejaVuSans-20" x="437.935547"/>
      <use xlink:href="#DejaVuSans-4d" x="469.722656"/>
      <use xlink:href="#DejaVuSans-69" x="556.001953"/>
      <use xlink:href="#DejaVuSans-6e" x="583.785156"/>
      <use xlink:href="#DejaVuSans-6e" x="647.164062"/>
      <use xlink:href="#DejaVuSans-65" x="710.542969"/>
      <use xlink:href="#DejaVuSans-6c" x="772.066406"/>
      <use xlink:href="#DejaVuSans-6c" x="799.849609"/>
      <use xlink:href="#DejaVuSans-69" x="827.632812"/>
     </g>
    </g>
   </g>
   <g id="text_14">
    <g id="patch_15">
     <path d="M 380.28482 467.167441 
L 446.514977 467.167441 
L 446.514977 450.537129 
L 380.28482 450.537129 
z
" clip-path="url(#p304fe00613)" style="fill: #ffffff; opacity: 0.7; stroke: #000000; stroke-linejoin: miter"/>
    </g>
    <g clip-path="url(#p304fe00613)">
     <!-- Henry Koster -->
     <g transform="translate(384.24482 461.335723)scale(0.09 -0.09)">
      <defs>
       <path id="DejaVuSans-4b" d="M 628 4666 
L 1259 4666 
L 1259 2694 
L 3353 4666 
L 4166 4666 
L 1850 2491 
L 4331 0 
L 3500 0 
L 1259 2247 
L 1259 0 
L 628 0 
L 628 4666 
z
" transform="scale(0.015625)"/>
      </defs>
      <use xlink:href="#DejaVuSans-48"/>
      <use xlink:href="#DejaVuSans-65" x="75.195312"/>
      <use xlink:href="#DejaVuSans-6e" x="136.71875"/>
      <use xlink:href="#DejaVuSans-72" x="200.097656"/>
      <use xlink:href="#DejaVuSans-79" x="241.210938"/>
      <use xlink:href="#DejaVuSans-20" x="300.390625"/>
      <use xlink:href="#DejaVuSans-4b" x="332.177734"/>
      <use xlink:href="#DejaVuSans-6f" x="392.753906"/>
      <use xlink:href="#DejaVuSans-73" x="453.935547"/>
      <use xlink:href="#DejaVuSans-74" x="506.035156"/>
      <use xlink:href="#DejaVuSans-65" x="545.244141"/>
      <use xlink:href="#DejaVuSans-72" x="606.767578"/>
     </g>
    </g>
   </g>
   <g id="text_15">
    <g id="patch_16">
     <path d="M 426.519267 395.039741 
L 496.085048 395.039741 
L 496.085048 378.409428 
L 426.519267 378.409428 
z
" clip-path="url(#p304fe00613)" style="fill: #ffffff; opacity: 0.7; stroke: #000000; stroke-linejoin: miter"/>
    </g>
    <g clip-path="url(#p304fe00613)">
     <!-- William Wyler -->
     <g transform="translate(430.479267 389.208022)scale(0.09 -0.09)">
      <use xlink:href="#DejaVuSans-57"/>
      <use xlink:href="#DejaVuSans-69" x="96.626953"/>
      <use xlink:href="#DejaVuSans-6c" x="124.410156"/>
      <use xlink:href="#DejaVuSans-6c" x="152.193359"/>
      <use xlink:href="#DejaVuSans-69" x="179.976562"/>
      <use xlink:href="#DejaVuSans-61" x="207.759766"/>
      <use xlink:href="#DejaVuSans-6d" x="269.039062"/>
      <use xlink:href="#DejaVuSans-20" x="366.451172"/>
      <use xlink:href="#DejaVuSans-57" x="398.238281"/>
      <use xlink:href="#DejaVuSans-79" x="495.365234"/>
      <use xlink:href="#DejaVuSans-6c" x="554.544922"/>
      <use xlink:href="#DejaVuSans-65" x="582.328125"/>
      <use xlink:href="#DejaVuSans-72" x="643.851562"/>
     </g>
    </g>
   </g>
   <g id="text_16">
    <!-- Impactful directors for Thriller genre - Importance rank: 1 -->
    <g transform="translate(111.920625 16.318125)scale(0.12 -0.12)">
     <defs>
      <path id="DejaVuSans-49" d="M 628 4666 
L 1259 4666 
L 1259 0 
L 628 0 
L 628 4666 
z
" transform="scale(0.015625)"/>
      <path id="DejaVuSans-66" d="M 2375 4863 
L 2375 4384 
L 1825 4384 
Q 1516 4384 1395 4259 
Q 1275 4134 1275 3809 
L 1275 3500 
L 2222 3500 
L 2222 3053 
L 1275 3053 
L 1275 0 
L 697 0 
L 697 3053 
L 147 3053 
L 147 3500 
L 697 3500 
L 697 3744 
Q 697 4328 969 4595 
Q 1241 4863 1831 4863 
L 2375 4863 
z
" transform="scale(0.015625)"/>
      <path id="DejaVuSans-54" d="M -19 4666 
L 3928 4666 
L 3928 4134 
L 2272 4134 
L 2272 0 
L 1638 0 
L 1638 4134 
L -19 4134 
L -19 4666 
z
" transform="scale(0.015625)"/>
      <path id="DejaVuSans-2d" d="M 313 2009 
L 1997 2009 
L 1997 1497 
L 313 1497 
L 313 2009 
z
" transform="scale(0.015625)"/>
      <path id="DejaVuSans-3a" d="M 750 794 
L 1409 794 
L 1409 0 
L 750 0 
L 750 794 
z
M 750 3309 
L 1409 3309 
L 1409 2516 
L 750 2516 
L 750 3309 
z
" transform="scale(0.015625)"/>
      <path id="DejaVuSans-31" d="M 794 531 
L 1825 531 
L 1825 4091 
L 703 3866 
L 703 4441 
L 1819 4666 
L 2450 4666 
L 2450 531 
L 3481 531 
L 3481 0 
L 794 0 
L 794 531 
z
" transform="scale(0.015625)"/>
     </defs>
     <use xlink:href="#DejaVuSans-49"/>
     <use xlink:href="#DejaVuSans-6d" x="29.492188"/>
     <use xlink:href="#DejaVuSans-70" x="126.904297"/>
     <use xlink:href="#DejaVuSans-61" x="190.380859"/>
     <use xlink:href="#DejaVuSans-63" x="251.660156"/>
     <use xlink:href="#DejaVuSans-74" x="306.640625"/>
     <use xlink:href="#DejaVuSans-66" x="345.849609"/>
     <use xlink:href="#DejaVuSans-75" x="381.054688"/>
     <use xlink:href="#DejaVuSans-6c" x="444.433594"/>
     <use xlink:href="#DejaVuSans-20" x="472.216797"/>
     <use xlink:href="#DejaVuSans-64" x="504.003906"/>
     <use xlink:href="#DejaVuSans-69" x="567.480469"/>
     <use xlink:href="#DejaVuSans-72" x="595.263672"/>
     <use xlink:href="#DejaVuSans-65" x="634.126953"/>
     <use xlink:href="#DejaVuSans-63" x="695.650391"/>
     <use xlink:href="#DejaVuSans-74" x="750.630859"/>
     <use xlink:href="#DejaVuSans-6f" x="789.839844"/>
     <use xlink:href="#DejaVuSans-72" x="851.021484"/>
     <use xlink:href="#DejaVuSans-73" x="892.134766"/>
     <use xlink:href="#DejaVuSans-20" x="944.234375"/>
     <use xlink:href="#DejaVuSans-66" x="976.021484"/>
     <use xlink:href="#DejaVuSans-6f" x="1011.226562"/>
     <use xlink:href="#DejaVuSans-72" x="1072.408203"/>
     <use xlink:href="#DejaVuSans-20" x="1113.521484"/>
     <use xlink:href="#DejaVuSans-54" x="1145.308594"/>
     <use xlink:href="#DejaVuSans-68" x="1206.392578"/>
     <use xlink:href="#DejaVuSans-72" x="1269.771484"/>
     <use xlink:href="#DejaVuSans-69" x="1310.884766"/>
     <use xlink:href="#DejaVuSans-6c" x="1338.667969"/>
     <use xlink:href="#DejaVuSans-6c" x="1366.451172"/>
     <use xlink:href="#DejaVuSans-65" x="1394.234375"/>
     <use xlink:href="#DejaVuSans-72" x="1455.757812"/>
     <use xlink:href="#DejaVuSans-20" x="1496.871094"/>
     <use xlink:href="#DejaVuSans-67" x="1528.658203"/>
     <use xlink:href="#DejaVuSans-65" x="1592.134766"/>
     <use xlink:href="#DejaVuSans-6e" x="1653.658203"/>
     <use xlink:href="#DejaVuSans-72" x="1717.037109"/>
     <use xlink:href="#DejaVuSans-65" x="1755.900391"/>
     <use xlink:href="#DejaVuSans-20" x="1817.423828"/>
     <use xlink:href="#DejaVuSans-2d" x="1849.210938"/>
     <use xlink:href="#DejaVuSans-20" x="1885.294922"/>
     <use xlink:href="#DejaVuSans-49" x="1917.082031"/>
     <use xlink:href="#DejaVuSans-6d" x="1946.574219"/>
     <use xlink:href="#DejaVuSans-70" x="2043.986328"/>
     <use xlink:href="#DejaVuSans-6f" x="2107.462891"/>
     <use xlink:href="#DejaVuSans-72" x="2168.644531"/>
     <use xlink:href="#DejaVuSans-74" x="2209.757812"/>
     <use xlink:href="#DejaVuSans-61" x="2248.966797"/>
     <use xlink:href="#DejaVuSans-6e" x="2310.246094"/>
     <use xlink:href="#DejaVuSans-63" x="2373.625"/>
     <use xlink:href="#DejaVuSans-65" x="2428.605469"/>
     <use xlink:href="#DejaVuSans-20" x="2490.128906"/>
     <use xlink:href="#DejaVuSans-72" x="2521.916016"/>
     <use xlink:href="#DejaVuSans-61" x="2563.029297"/>
     <use xlink:href="#DejaVuSans-6e" x="2624.308594"/>
     <use xlink:href="#DejaVuSans-6b" x="2687.6875"/>
     <use xlink:href="#DejaVuSans-3a" x="2745.597656"/>
     <use xlink:href="#DejaVuSans-20" x="2779.289062"/>
     <use xlink:href="#DejaVuSans-31" x="2811.076172"/>
    </g>
   </g>
  </g>
 </g>
 <defs>
  <clipPath id="p304fe00613">
   <rect x="7.2" y="22.318125" width="554.4" height="554.4"/>
  </clipPath>
 </defs>
</svg>
