<?xml version="1.0" encoding="utf-8" standalone="no"?>
<!DOCTYPE svg PUBLIC "-//W3C//DTD SVG 1.1//EN"
  "http://www.w3.org/Graphics/SVG/1.1/DTD/svg11.dtd">
<svg xmlns:xlink="http://www.w3.org/1999/xlink" width="568.8pt" height="583.918125pt" viewBox="0 0 568.8 583.918125" xmlns="http://www.w3.org/2000/svg" version="1.1">
 <metadata>
  <rdf:RDF xmlns:dc="http://purl.org/dc/elements/1.1/" xmlns:cc="http://creativecommons.org/ns#" xmlns:rdf="http://www.w3.org/1999/02/22-rdf-syntax-ns#">
   <cc:Work>
    <dc:type rdf:resource="http://purl.org/dc/dcmitype/StillImage"/>
    <dc:date>2022-12-23T20:56:53.049566</dc:date>
    <dc:format>image/svg+xml</dc:format>
    <dc:creator>
     <cc:Agent>
      <dc:title>Matplotlib v3.5.3, https://matplotlib.org/</dc:title>
     </cc:Agent>
    </dc:creator>
   </cc:Work>
  </rdf:RDF>
 </metadata>
 <defs>
  <style type="text/css">*{stroke-linejoin: round; stroke-linecap: butt}</style>
 </defs>
 <g id="figure_1">
  <g id="patch_1">
   <path d="M 0 583.918125 
L 568.8 583.918125 
L 568.8 0 
L 0 0 
z
" style="fill: #ffffff"/>
  </g>
  <g id="axes_1">
   <g id="LineCollection_1">
    <path d="M 478.983454 304.480103 
L 336.530635 105.313657 
" clip-path="url(#p9156a415d8)" style="fill: none; stroke: #000000; stroke-opacity: 0.3; stroke-width: 5"/>
    <path d="M 106.037153 427.571744 
L 169.743997 485.839679 
" clip-path="url(#p9156a415d8)" style="fill: none; stroke: #000000; stroke-opacity: 0.3; stroke-width: 10"/>
   </g>
   <g id="PathCollection_1">
    <path d="M 478.983454 331.866231 
C 486.24634 331.866231 493.212735 328.980656 498.348371 323.84502 
C 503.484007 318.709384 506.369582 311.742989 506.369582 304.480103 
C 506.369582 297.217217 503.484007 290.250822 498.348371 285.115186 
C 493.212735 279.979551 486.24634 277.093975 478.983454 277.093975 
C 471.720568 277.093975 464.754173 279.979551 459.618537 285.115186 
C 454.482902 290.250822 451.597326 297.217217 451.597326 304.480103 
C 451.597326 311.742989 454.482902 318.709384 459.618537 323.84502 
C 464.754173 328.980656 471.720568 331.866231 478.983454 331.866231 
z
" clip-path="url(#p9156a415d8)" style="fill: #c70039; fill-opacity: 0.99; stroke: #c70039; stroke-opacity: 0.99"/>
    <path d="M 461.16001 245.570658 
C 468.126289 245.570658 474.808184 242.802926 479.734087 237.877023 
C 484.659989 232.951121 487.427721 226.269225 487.427721 219.302947 
C 487.427721 212.336668 484.659989 205.654773 479.734087 200.72887 
C 474.808184 195.802968 468.126289 193.035236 461.16001 193.035236 
C 454.193732 193.035236 447.511836 195.802968 442.585934 200.72887 
C 437.660031 205.654773 434.892299 212.336668 434.892299 219.302947 
C 434.892299 226.269225 437.660031 232.951121 442.585934 237.877023 
C 447.511836 242.802926 454.193732 245.570658 461.16001 245.570658 
z
" clip-path="url(#p9156a415d8)" style="fill: #c70039; fill-opacity: 0.99; stroke: #c70039; stroke-opacity: 0.99"/>
    <path d="M 410.771527 173.362532 
C 417.271349 173.362532 423.50583 170.780125 428.101899 166.184057 
C 432.697967 161.587988 435.280374 155.353507 435.280374 148.853685 
C 435.280374 142.353863 432.697967 136.119382 428.101899 131.523313 
C 423.50583 126.927245 417.271349 124.344838 410.771527 124.344838 
C 404.271705 124.344838 398.037223 126.927245 393.441155 131.523313 
C 388.845087 136.119382 386.26268 142.353863 386.26268 148.853685 
C 386.26268 155.353507 388.845087 161.587988 393.441155 166.184057 
C 398.037223 170.780125 404.271705 173.362532 410.771527 173.362532 
z
" clip-path="url(#p9156a415d8)" style="fill: #c70039; fill-opacity: 0.99; stroke: #c70039; stroke-opacity: 0.99"/>
    <path d="M 336.530635 129.699512 
C 342.997839 129.699512 349.201034 127.130064 353.774038 122.55706 
C 358.347042 117.984056 360.916489 111.780861 360.916489 105.313657 
C 360.916489 98.846453 358.347042 92.643258 353.774038 88.070254 
C 349.201034 83.49725 342.997839 80.927802 336.530635 80.927802 
C 330.06343 80.927802 323.860235 83.49725 319.287231 88.070254 
C 314.714228 92.643258 312.14478 98.846453 312.14478 105.313657 
C 312.14478 111.780861 314.714228 117.984056 319.287231 122.55706 
C 323.860235 127.130064 330.06343 129.699512 336.530635 129.699512 
z
" clip-path="url(#p9156a415d8)" style="fill: #c70039; fill-opacity: 0.99; stroke: #c70039; stroke-opacity: 0.99"/>
    <path d="M 251.274243 119.505726 
C 257.451993 119.505726 263.377551 117.051279 267.74588 112.68295 
C 272.11421 108.314621 274.568656 102.389063 274.568656 96.211312 
C 274.568656 90.033562 272.11421 84.108004 267.74588 79.739674 
C 263.377551 75.371345 257.451993 72.916899 251.274243 72.916899 
C 245.096492 72.916899 239.170934 75.371345 234.802605 79.739674 
C 230.434275 84.108004 227.979829 90.033562 227.979829 96.211312 
C 227.979829 102.389063 230.434275 108.314621 234.802605 112.68295 
C 239.170934 117.051279 245.096492 119.505726 251.274243 119.505726 
z
" clip-path="url(#p9156a415d8)" style="fill: #c70039; fill-opacity: 0.99; stroke: #c70039; stroke-opacity: 0.99"/>
    <path d="M 169.743966 146.115376 
C 175.842268 146.115376 181.69162 143.692495 186.003771 139.380345 
C 190.315922 135.068194 192.738803 129.218842 192.738803 123.12054 
C 192.738803 117.022238 190.315922 111.172885 186.003771 106.860735 
C 181.69162 102.548584 175.842268 100.125703 169.743966 100.125703 
C 163.645664 100.125703 157.796312 102.548584 153.484161 106.860735 
C 149.17201 111.172885 146.749129 117.022238 146.749129 123.12054 
C 146.749129 129.218842 149.17201 135.068194 153.484161 139.380345 
C 157.796312 143.692495 163.645664 146.115376 169.743966 146.115376 
z
" clip-path="url(#p9156a415d8)" style="fill: #c70039; fill-opacity: 0.99; stroke: #c70039; stroke-opacity: 0.99"/>
    <path d="M 106.037141 202.764718 
C 111.706187 202.764718 117.143807 200.512382 121.152428 196.503761 
C 125.161049 192.495141 127.413384 187.057521 127.413384 181.388475 
C 127.413384 175.719429 125.161049 170.281809 121.152428 166.273188 
C 117.143807 162.264567 111.706187 160.012231 106.037141 160.012231 
C 100.368095 160.012231 94.930475 162.264567 90.921854 166.273188 
C 86.913233 170.281809 84.660898 175.719429 84.660898 181.388475 
C 84.660898 187.057521 86.913233 192.495141 90.921854 196.503761 
C 94.930475 200.512382 100.368095 202.764718 106.037141 202.764718 
z
" clip-path="url(#p9156a415d8)" style="fill: #c70039; fill-opacity: 0.99; stroke: #c70039; stroke-opacity: 0.99"/>
    <path d="M 71.169231 282.244292 
C 76.819172 282.244292 82.238467 279.999547 86.233578 276.004435 
C 90.22869 272.009323 92.473435 266.590029 92.473435 260.940088 
C 92.473435 255.290146 90.22869 249.870852 86.233578 245.87574 
C 82.238467 241.880628 76.819172 239.635883 71.169231 239.635883 
C 65.51929 239.635883 60.099995 241.880628 56.104883 245.87574 
C 52.109772 249.870852 49.865026 255.290146 49.865026 260.940088 
C 49.865026 266.590029 52.109772 272.009323 56.104883 276.004435 
C 60.099995 279.999547 65.51929 282.244292 71.169231 282.244292 
z
" clip-path="url(#p9156a415d8)" style="fill: #c70039; fill-opacity: 0.99; stroke: #c70039; stroke-opacity: 0.99"/>
    <path d="M 71.169243 369.114649 
C 76.763568 369.114649 82.129517 366.892 86.085302 362.936215 
C 90.041087 358.98043 92.263735 353.614481 92.263735 348.020156 
C 92.263735 342.425832 90.041087 337.059883 86.085302 333.104098 
C 82.129517 329.148313 76.763568 326.925664 71.169243 326.925664 
C 65.574918 326.925664 60.208969 329.148313 56.253184 333.104098 
C 52.297399 337.059883 50.074751 342.425832 50.074751 348.020156 
C 50.074751 353.614481 52.297399 358.98043 56.253184 362.936215 
C 60.208969 366.892 65.574918 369.114649 71.169243 369.114649 
z
" clip-path="url(#p9156a415d8)" style="fill: #c70039; fill-opacity: 0.99; stroke: #c70039; stroke-opacity: 0.99"/>
    <path d="M 106.037153 448.303093 
C 111.535171 448.303093 116.808745 446.118708 120.696431 442.231022 
C 124.584117 438.343336 126.768503 433.069762 126.768503 427.571744 
C 126.768503 422.073726 124.584117 416.800152 120.696431 412.912466 
C 116.808745 409.024781 111.535171 406.840395 106.037153 406.840395 
C 100.539135 406.840395 95.265562 409.024781 91.377876 412.912466 
C 87.49019 416.800152 85.305804 422.073726 85.305804 427.571744 
C 85.305804 433.069762 87.49019 438.343336 91.377876 442.231022 
C 95.265562 446.118708 100.539135 448.303093 106.037153 448.303093 
z
" clip-path="url(#p9156a415d8)" style="fill: #c70039; fill-opacity: 0.99; stroke: #c70039; stroke-opacity: 0.99"/>
    <path d="M 169.743997 506.571028 
C 175.242015 506.571028 180.515588 504.386643 184.403274 500.498957 
C 188.29096 496.611271 190.475346 491.337697 190.475346 485.839679 
C 190.475346 480.341661 188.29096 475.068087 184.403274 471.180402 
C 180.515588 467.292716 175.242015 465.10833 169.743997 465.10833 
C 164.245979 465.10833 158.972405 467.292716 155.084719 471.180402 
C 151.197033 475.068087 149.012647 480.341661 149.012647 485.839679 
C 149.012647 491.337697 151.197033 496.611271 155.084719 500.498957 
C 158.972405 504.386643 164.245979 506.571028 169.743997 506.571028 
z
" clip-path="url(#p9156a415d8)" style="fill: #c70039; fill-opacity: 0.99; stroke: #c70039; stroke-opacity: 0.99"/>
    <path d="M 251.27428 533.210137 
C 256.700665 533.210137 261.905529 531.054211 265.742563 527.217178 
C 269.579597 523.380144 271.735522 518.175279 271.735522 512.748894 
C 271.735522 507.322509 269.579597 502.117644 265.742563 498.280611 
C 261.905529 494.443577 256.700665 492.287651 251.27428 492.287651 
C 245.847895 492.287651 240.64303 494.443577 236.805996 498.280611 
C 232.968962 502.117644 230.813037 507.322509 230.813037 512.748894 
C 230.813037 518.175279 232.968962 523.380144 236.805996 527.217178 
C 240.64303 531.054211 245.847895 533.210137 251.27428 533.210137 
z
" clip-path="url(#p9156a415d8)" style="fill: #c70039; fill-opacity: 0.99; stroke: #c70039; stroke-opacity: 0.99"/>
    <path d="M 336.530665 523.818714 
C 341.880389 523.818714 347.011723 521.693246 350.794549 517.91042 
C 354.577375 514.127594 356.702843 508.996261 356.702843 503.646537 
C 356.702843 498.296813 354.577375 493.16548 350.794549 489.382654 
C 347.011723 485.599828 341.880389 483.47436 336.530665 483.47436 
C 331.180941 483.47436 326.049608 485.599828 322.266782 489.382654 
C 318.483956 493.16548 316.358488 498.296813 316.358488 503.646537 
C 316.358488 508.996261 318.483956 514.127594 322.266782 517.91042 
C 326.049608 521.693246 331.180941 523.818714 336.530665 523.818714 
z
" clip-path="url(#p9156a415d8)" style="fill: #c70039; fill-opacity: 0.99; stroke: #c70039; stroke-opacity: 0.99"/>
    <path d="M 410.771564 479.647249 
C 415.953835 479.647249 420.924552 477.588311 424.588971 473.923891 
C 428.25339 470.259472 430.312329 465.288755 430.312329 460.106484 
C 430.312329 454.924213 428.25339 449.953496 424.588971 446.289077 
C 420.924552 442.624657 415.953835 440.565719 410.771564 440.565719 
C 405.589292 440.565719 400.618576 442.624657 396.954156 446.289077 
C 393.289737 449.953496 391.230799 454.924213 391.230799 460.106484 
C 391.230799 465.288755 393.289737 470.259472 396.954156 473.923891 
C 400.618576 477.588311 405.589292 479.647249 410.771564 479.647249 
z
" clip-path="url(#p9156a415d8)" style="fill: #c70039; fill-opacity: 0.99; stroke: #c70039; stroke-opacity: 0.99"/>
    <path d="M 461.160035 409.022145 
C 466.295671 409.022145 471.221656 406.981735 474.853099 403.350292 
C 478.484542 399.718849 480.524951 394.792864 480.524951 389.657228 
C 480.524951 384.521592 478.484542 379.595607 474.853099 375.964164 
C 471.221656 372.332721 466.295671 370.292312 461.160035 370.292312 
C 456.024399 370.292312 451.098414 372.332721 447.466971 375.964164 
C 443.835528 379.595607 441.795118 384.521592 441.795118 389.657228 
C 441.795118 394.792864 443.835528 399.718849 447.466971 403.350292 
C 451.098414 406.981735 456.024399 409.022145 461.160035 409.022145 
z
" clip-path="url(#p9156a415d8)" style="fill: #c70039; fill-opacity: 0.99; stroke: #c70039; stroke-opacity: 0.99"/>
   </g>
   <g id="text_1">
    <g id="patch_2">
     <path d="M 435.78486 312.795259 
L 522.182048 312.795259 
L 522.182048 296.164947 
L 435.78486 296.164947 
z
" clip-path="url(#p9156a415d8)" style="fill: #ffffff; opacity: 0.7; stroke: #000000; stroke-linejoin: miter"/>
    </g>
    <g clip-path="url(#p9156a415d8)">
     <!-- Robert McKimson -->
     <g transform="translate(439.74486 306.963541)scale(0.09 -0.09)">
      <defs>
       <path id="DejaVuSans-52" d="M 2841 2188 
Q 3044 2119 3236 1894 
Q 3428 1669 3622 1275 
L 4263 0 
L 3584 0 
L 2988 1197 
Q 2756 1666 2539 1819 
Q 2322 1972 1947 1972 
L 1259 1972 
L 1259 0 
L 628 0 
L 628 4666 
L 2053 4666 
Q 2853 4666 3247 4331 
Q 3641 3997 3641 3322 
Q 3641 2881 3436 2590 
Q 3231 2300 2841 2188 
z
M 1259 4147 
L 1259 2491 
L 2053 2491 
Q 2509 2491 2742 2702 
Q 2975 2913 2975 3322 
Q 2975 3731 2742 3939 
Q 2509 4147 2053 4147 
L 1259 4147 
z
" transform="scale(0.015625)"/>
       <path id="DejaVuSans-6f" d="M 1959 3097 
Q 1497 3097 1228 2736 
Q 959 2375 959 1747 
Q 959 1119 1226 758 
Q 1494 397 1959 397 
Q 2419 397 2687 759 
Q 2956 1122 2956 1747 
Q 2956 2369 2687 2733 
Q 2419 3097 1959 3097 
z
M 1959 3584 
Q 2709 3584 3137 3096 
Q 3566 2609 3566 1747 
Q 3566 888 3137 398 
Q 2709 -91 1959 -91 
Q 1206 -91 779 398 
Q 353 888 353 1747 
Q 353 2609 779 3096 
Q 1206 3584 1959 3584 
z
" transform="scale(0.015625)"/>
       <path id="DejaVuSans-62" d="M 3116 1747 
Q 3116 2381 2855 2742 
Q 2594 3103 2138 3103 
Q 1681 3103 1420 2742 
Q 1159 2381 1159 1747 
Q 1159 1113 1420 752 
Q 1681 391 2138 391 
Q 2594 391 2855 752 
Q 3116 1113 3116 1747 
z
M 1159 2969 
Q 1341 3281 1617 3432 
Q 1894 3584 2278 3584 
Q 2916 3584 3314 3078 
Q 3713 2572 3713 1747 
Q 3713 922 3314 415 
Q 2916 -91 2278 -91 
Q 1894 -91 1617 61 
Q 1341 213 1159 525 
L 1159 0 
L 581 0 
L 581 4863 
L 1159 4863 
L 1159 2969 
z
" transform="scale(0.015625)"/>
       <path id="DejaVuSans-65" d="M 3597 1894 
L 3597 1613 
L 953 1613 
Q 991 1019 1311 708 
Q 1631 397 2203 397 
Q 2534 397 2845 478 
Q 3156 559 3463 722 
L 3463 178 
Q 3153 47 2828 -22 
Q 2503 -91 2169 -91 
Q 1331 -91 842 396 
Q 353 884 353 1716 
Q 353 2575 817 3079 
Q 1281 3584 2069 3584 
Q 2775 3584 3186 3129 
Q 3597 2675 3597 1894 
z
M 3022 2063 
Q 3016 2534 2758 2815 
Q 2500 3097 2075 3097 
Q 1594 3097 1305 2825 
Q 1016 2553 972 2059 
L 3022 2063 
z
" transform="scale(0.015625)"/>
       <path id="DejaVuSans-72" d="M 2631 2963 
Q 2534 3019 2420 3045 
Q 2306 3072 2169 3072 
Q 1681 3072 1420 2755 
Q 1159 2438 1159 1844 
L 1159 0 
L 581 0 
L 581 3500 
L 1159 3500 
L 1159 2956 
Q 1341 3275 1631 3429 
Q 1922 3584 2338 3584 
Q 2397 3584 2469 3576 
Q 2541 3569 2628 3553 
L 2631 2963 
z
" transform="scale(0.015625)"/>
       <path id="DejaVuSans-74" d="M 1172 4494 
L 1172 3500 
L 2356 3500 
L 2356 3053 
L 1172 3053 
L 1172 1153 
Q 1172 725 1289 603 
Q 1406 481 1766 481 
L 2356 481 
L 2356 0 
L 1766 0 
Q 1100 0 847 248 
Q 594 497 594 1153 
L 594 3053 
L 172 3053 
L 172 3500 
L 594 3500 
L 594 4494 
L 1172 4494 
z
" transform="scale(0.015625)"/>
       <path id="DejaVuSans-20" transform="scale(0.015625)"/>
       <path id="DejaVuSans-4d" d="M 628 4666 
L 1569 4666 
L 2759 1491 
L 3956 4666 
L 4897 4666 
L 4897 0 
L 4281 0 
L 4281 4097 
L 3078 897 
L 2444 897 
L 1241 4097 
L 1241 0 
L 628 0 
L 628 4666 
z
" transform="scale(0.015625)"/>
       <path id="DejaVuSans-63" d="M 3122 3366 
L 3122 2828 
Q 2878 2963 2633 3030 
Q 2388 3097 2138 3097 
Q 1578 3097 1268 2742 
Q 959 2388 959 1747 
Q 959 1106 1268 751 
Q 1578 397 2138 397 
Q 2388 397 2633 464 
Q 2878 531 3122 666 
L 3122 134 
Q 2881 22 2623 -34 
Q 2366 -91 2075 -91 
Q 1284 -91 818 406 
Q 353 903 353 1747 
Q 353 2603 823 3093 
Q 1294 3584 2113 3584 
Q 2378 3584 2631 3529 
Q 2884 3475 3122 3366 
z
" transform="scale(0.015625)"/>
       <path id="DejaVuSans-4b" d="M 628 4666 
L 1259 4666 
L 1259 2694 
L 3353 4666 
L 4166 4666 
L 1850 2491 
L 4331 0 
L 3500 0 
L 1259 2247 
L 1259 0 
L 628 0 
L 628 4666 
z
" transform="scale(0.015625)"/>
       <path id="DejaVuSans-69" d="M 603 3500 
L 1178 3500 
L 1178 0 
L 603 0 
L 603 3500 
z
M 603 4863 
L 1178 4863 
L 1178 4134 
L 603 4134 
L 603 4863 
z
" transform="scale(0.015625)"/>
       <path id="DejaVuSans-6d" d="M 3328 2828 
Q 3544 3216 3844 3400 
Q 4144 3584 4550 3584 
Q 5097 3584 5394 3201 
Q 5691 2819 5691 2113 
L 5691 0 
L 5113 0 
L 5113 2094 
Q 5113 2597 4934 2840 
Q 4756 3084 4391 3084 
Q 3944 3084 3684 2787 
Q 3425 2491 3425 1978 
L 3425 0 
L 2847 0 
L 2847 2094 
Q 2847 2600 2669 2842 
Q 2491 3084 2119 3084 
Q 1678 3084 1418 2786 
Q 1159 2488 1159 1978 
L 1159 0 
L 581 0 
L 581 3500 
L 1159 3500 
L 1159 2956 
Q 1356 3278 1631 3431 
Q 1906 3584 2284 3584 
Q 2666 3584 2933 3390 
Q 3200 3197 3328 2828 
z
" transform="scale(0.015625)"/>
       <path id="DejaVuSans-73" d="M 2834 3397 
L 2834 2853 
Q 2591 2978 2328 3040 
Q 2066 3103 1784 3103 
Q 1356 3103 1142 2972 
Q 928 2841 928 2578 
Q 928 2378 1081 2264 
Q 1234 2150 1697 2047 
L 1894 2003 
Q 2506 1872 2764 1633 
Q 3022 1394 3022 966 
Q 3022 478 2636 193 
Q 2250 -91 1575 -91 
Q 1294 -91 989 -36 
Q 684 19 347 128 
L 347 722 
Q 666 556 975 473 
Q 1284 391 1588 391 
Q 1994 391 2212 530 
Q 2431 669 2431 922 
Q 2431 1156 2273 1281 
Q 2116 1406 1581 1522 
L 1381 1569 
Q 847 1681 609 1914 
Q 372 2147 372 2553 
Q 372 3047 722 3315 
Q 1072 3584 1716 3584 
Q 2034 3584 2315 3537 
Q 2597 3491 2834 3397 
z
" transform="scale(0.015625)"/>
       <path id="DejaVuSans-6e" d="M 3513 2113 
L 3513 0 
L 2938 0 
L 2938 2094 
Q 2938 2591 2744 2837 
Q 2550 3084 2163 3084 
Q 1697 3084 1428 2787 
Q 1159 2491 1159 1978 
L 1159 0 
L 581 0 
L 581 3500 
L 1159 3500 
L 1159 2956 
Q 1366 3272 1645 3428 
Q 1925 3584 2291 3584 
Q 2894 3584 3203 3211 
Q 3513 2838 3513 2113 
z
" transform="scale(0.015625)"/>
      </defs>
      <use xlink:href="#DejaVuSans-52"/>
      <use xlink:href="#DejaVuSans-6f" x="64.982422"/>
      <use xlink:href="#DejaVuSans-62" x="126.164062"/>
      <use xlink:href="#DejaVuSans-65" x="189.640625"/>
      <use xlink:href="#DejaVuSans-72" x="251.164062"/>
      <use xlink:href="#DejaVuSans-74" x="292.277344"/>
      <use xlink:href="#DejaVuSans-20" x="331.486328"/>
      <use xlink:href="#DejaVuSans-4d" x="363.273438"/>
      <use xlink:href="#DejaVuSans-63" x="449.552734"/>
      <use xlink:href="#DejaVuSans-4b" x="504.533203"/>
      <use xlink:href="#DejaVuSans-69" x="570.109375"/>
      <use xlink:href="#DejaVuSans-6d" x="597.892578"/>
      <use xlink:href="#DejaVuSans-73" x="695.304688"/>
      <use xlink:href="#DejaVuSans-6f" x="747.404297"/>
      <use xlink:href="#DejaVuSans-6e" x="808.585938"/>
     </g>
    </g>
   </g>
   <g id="text_2">
    <g id="patch_3">
     <path d="M 435.628135 227.618103 
L 486.691885 227.618103 
L 486.691885 210.987791 
L 435.628135 210.987791 
z
" clip-path="url(#p9156a415d8)" style="fill: #ffffff; opacity: 0.7; stroke: #000000; stroke-linejoin: miter"/>
    </g>
    <g clip-path="url(#p9156a415d8)">
     <!-- Spike Lee -->
     <g transform="translate(439.588135 221.786384)scale(0.09 -0.09)">
      <defs>
       <path id="DejaVuSans-53" d="M 3425 4513 
L 3425 3897 
Q 3066 4069 2747 4153 
Q 2428 4238 2131 4238 
Q 1616 4238 1336 4038 
Q 1056 3838 1056 3469 
Q 1056 3159 1242 3001 
Q 1428 2844 1947 2747 
L 2328 2669 
Q 3034 2534 3370 2195 
Q 3706 1856 3706 1288 
Q 3706 609 3251 259 
Q 2797 -91 1919 -91 
Q 1588 -91 1214 -16 
Q 841 59 441 206 
L 441 856 
Q 825 641 1194 531 
Q 1563 422 1919 422 
Q 2459 422 2753 634 
Q 3047 847 3047 1241 
Q 3047 1584 2836 1778 
Q 2625 1972 2144 2069 
L 1759 2144 
Q 1053 2284 737 2584 
Q 422 2884 422 3419 
Q 422 4038 858 4394 
Q 1294 4750 2059 4750 
Q 2388 4750 2728 4690 
Q 3069 4631 3425 4513 
z
" transform="scale(0.015625)"/>
       <path id="DejaVuSans-70" d="M 1159 525 
L 1159 -1331 
L 581 -1331 
L 581 3500 
L 1159 3500 
L 1159 2969 
Q 1341 3281 1617 3432 
Q 1894 3584 2278 3584 
Q 2916 3584 3314 3078 
Q 3713 2572 3713 1747 
Q 3713 922 3314 415 
Q 2916 -91 2278 -91 
Q 1894 -91 1617 61 
Q 1341 213 1159 525 
z
M 3116 1747 
Q 3116 2381 2855 2742 
Q 2594 3103 2138 3103 
Q 1681 3103 1420 2742 
Q 1159 2381 1159 1747 
Q 1159 1113 1420 752 
Q 1681 391 2138 391 
Q 2594 391 2855 752 
Q 3116 1113 3116 1747 
z
" transform="scale(0.015625)"/>
       <path id="DejaVuSans-6b" d="M 581 4863 
L 1159 4863 
L 1159 1991 
L 2875 3500 
L 3609 3500 
L 1753 1863 
L 3688 0 
L 2938 0 
L 1159 1709 
L 1159 0 
L 581 0 
L 581 4863 
z
" transform="scale(0.015625)"/>
       <path id="DejaVuSans-4c" d="M 628 4666 
L 1259 4666 
L 1259 531 
L 3531 531 
L 3531 0 
L 628 0 
L 628 4666 
z
" transform="scale(0.015625)"/>
      </defs>
      <use xlink:href="#DejaVuSans-53"/>
      <use xlink:href="#DejaVuSans-70" x="63.476562"/>
      <use xlink:href="#DejaVuSans-69" x="126.953125"/>
      <use xlink:href="#DejaVuSans-6b" x="154.736328"/>
      <use xlink:href="#DejaVuSans-65" x="209.021484"/>
      <use xlink:href="#DejaVuSans-20" x="270.544922"/>
      <use xlink:href="#DejaVuSans-4c" x="302.332031"/>
      <use xlink:href="#DejaVuSans-65" x="356.294922"/>
      <use xlink:href="#DejaVuSans-65" x="417.818359"/>
     </g>
    </g>
   </g>
   <g id="text_3">
    <g id="patch_4">
     <path d="M 369.683714 157.168841 
L 451.859339 157.168841 
L 451.859339 140.538529 
L 369.683714 140.538529 
z
" clip-path="url(#p9156a415d8)" style="fill: #ffffff; opacity: 0.7; stroke: #000000; stroke-linejoin: miter"/>
    </g>
    <g clip-path="url(#p9156a415d8)">
     <!-- J. Lee Thompson -->
     <g transform="translate(373.643714 151.337123)scale(0.09 -0.09)">
      <defs>
       <path id="DejaVuSans-4a" d="M 628 4666 
L 1259 4666 
L 1259 325 
Q 1259 -519 939 -900 
Q 619 -1281 -91 -1281 
L -331 -1281 
L -331 -750 
L -134 -750 
Q 284 -750 456 -515 
Q 628 -281 628 325 
L 628 4666 
z
" transform="scale(0.015625)"/>
       <path id="DejaVuSans-2e" d="M 684 794 
L 1344 794 
L 1344 0 
L 684 0 
L 684 794 
z
" transform="scale(0.015625)"/>
       <path id="DejaVuSans-54" d="M -19 4666 
L 3928 4666 
L 3928 4134 
L 2272 4134 
L 2272 0 
L 1638 0 
L 1638 4134 
L -19 4134 
L -19 4666 
z
" transform="scale(0.015625)"/>
       <path id="DejaVuSans-68" d="M 3513 2113 
L 3513 0 
L 2938 0 
L 2938 2094 
Q 2938 2591 2744 2837 
Q 2550 3084 2163 3084 
Q 1697 3084 1428 2787 
Q 1159 2491 1159 1978 
L 1159 0 
L 581 0 
L 581 4863 
L 1159 4863 
L 1159 2956 
Q 1366 3272 1645 3428 
Q 1925 3584 2291 3584 
Q 2894 3584 3203 3211 
Q 3513 2838 3513 2113 
z
" transform="scale(0.015625)"/>
      </defs>
      <use xlink:href="#DejaVuSans-4a"/>
      <use xlink:href="#DejaVuSans-2e" x="29.492188"/>
      <use xlink:href="#DejaVuSans-20" x="61.279297"/>
      <use xlink:href="#DejaVuSans-4c" x="93.066406"/>
      <use xlink:href="#DejaVuSans-65" x="147.029297"/>
      <use xlink:href="#DejaVuSans-65" x="208.552734"/>
      <use xlink:href="#DejaVuSans-20" x="270.076172"/>
      <use xlink:href="#DejaVuSans-54" x="301.863281"/>
      <use xlink:href="#DejaVuSans-68" x="362.947266"/>
      <use xlink:href="#DejaVuSans-6f" x="426.326172"/>
      <use xlink:href="#DejaVuSans-6d" x="487.507812"/>
      <use xlink:href="#DejaVuSans-70" x="584.919922"/>
      <use xlink:href="#DejaVuSans-73" x="648.396484"/>
      <use xlink:href="#DejaVuSans-6f" x="700.496094"/>
      <use xlink:href="#DejaVuSans-6e" x="761.677734"/>
     </g>
    </g>
   </g>
   <g id="text_4">
    <g id="patch_5">
     <path d="M 305.168447 113.628813 
L 367.892822 113.628813 
L 367.892822 96.998501 
L 305.168447 96.998501 
z
" clip-path="url(#p9156a415d8)" style="fill: #ffffff; opacity: 0.7; stroke: #000000; stroke-linejoin: miter"/>
    </g>
    <g clip-path="url(#p9156a415d8)">
     <!-- Chuck Jones -->
     <g transform="translate(309.128447 107.797094)scale(0.09 -0.09)">
      <defs>
       <path id="DejaVuSans-43" d="M 4122 4306 
L 4122 3641 
Q 3803 3938 3442 4084 
Q 3081 4231 2675 4231 
Q 1875 4231 1450 3742 
Q 1025 3253 1025 2328 
Q 1025 1406 1450 917 
Q 1875 428 2675 428 
Q 3081 428 3442 575 
Q 3803 722 4122 1019 
L 4122 359 
Q 3791 134 3420 21 
Q 3050 -91 2638 -91 
Q 1578 -91 968 557 
Q 359 1206 359 2328 
Q 359 3453 968 4101 
Q 1578 4750 2638 4750 
Q 3056 4750 3426 4639 
Q 3797 4528 4122 4306 
z
" transform="scale(0.015625)"/>
       <path id="DejaVuSans-75" d="M 544 1381 
L 544 3500 
L 1119 3500 
L 1119 1403 
Q 1119 906 1312 657 
Q 1506 409 1894 409 
Q 2359 409 2629 706 
Q 2900 1003 2900 1516 
L 2900 3500 
L 3475 3500 
L 3475 0 
L 2900 0 
L 2900 538 
Q 2691 219 2414 64 
Q 2138 -91 1772 -91 
Q 1169 -91 856 284 
Q 544 659 544 1381 
z
M 1991 3584 
L 1991 3584 
z
" transform="scale(0.015625)"/>
      </defs>
      <use xlink:href="#DejaVuSans-43"/>
      <use xlink:href="#DejaVuSans-68" x="69.824219"/>
      <use xlink:href="#DejaVuSans-75" x="133.203125"/>
      <use xlink:href="#DejaVuSans-63" x="196.582031"/>
      <use xlink:href="#DejaVuSans-6b" x="251.5625"/>
      <use xlink:href="#DejaVuSans-20" x="309.472656"/>
      <use xlink:href="#DejaVuSans-4a" x="341.259766"/>
      <use xlink:href="#DejaVuSans-6f" x="370.751953"/>
      <use xlink:href="#DejaVuSans-6e" x="431.933594"/>
      <use xlink:href="#DejaVuSans-65" x="495.3125"/>
      <use xlink:href="#DejaVuSans-73" x="556.835938"/>
     </g>
    </g>
   </g>
   <g id="text_5">
    <g id="patch_6">
     <path d="M 220.149711 104.526468 
L 282.398774 104.526468 
L 282.398774 87.896156 
L 220.149711 87.896156 
z
" clip-path="url(#p9156a415d8)" style="fill: #ffffff; opacity: 0.7; stroke: #000000; stroke-linejoin: miter"/>
    </g>
    <g clip-path="url(#p9156a415d8)">
     <!-- John Huston -->
     <g transform="translate(224.109711 98.69475)scale(0.09 -0.09)">
      <defs>
       <path id="DejaVuSans-48" d="M 628 4666 
L 1259 4666 
L 1259 2753 
L 3553 2753 
L 3553 4666 
L 4184 4666 
L 4184 0 
L 3553 0 
L 3553 2222 
L 1259 2222 
L 1259 0 
L 628 0 
L 628 4666 
z
" transform="scale(0.015625)"/>
      </defs>
      <use xlink:href="#DejaVuSans-4a"/>
      <use xlink:href="#DejaVuSans-6f" x="29.492188"/>
      <use xlink:href="#DejaVuSans-68" x="90.673828"/>
      <use xlink:href="#DejaVuSans-6e" x="154.052734"/>
      <use xlink:href="#DejaVuSans-20" x="217.431641"/>
      <use xlink:href="#DejaVuSans-48" x="249.21875"/>
      <use xlink:href="#DejaVuSans-75" x="324.414062"/>
      <use xlink:href="#DejaVuSans-73" x="387.792969"/>
      <use xlink:href="#DejaVuSans-74" x="439.892578"/>
      <use xlink:href="#DejaVuSans-6f" x="479.101562"/>
      <use xlink:href="#DejaVuSans-6e" x="540.283203"/>
     </g>
    </g>
   </g>
   <g id="text_6">
    <g id="patch_7">
     <path d="M 130.428028 131.435696 
L 209.059903 131.435696 
L 209.059903 114.805383 
L 130.428028 114.805383 
z
" clip-path="url(#p9156a415d8)" style="fill: #ffffff; opacity: 0.7; stroke: #000000; stroke-linejoin: miter"/>
    </g>
    <g clip-path="url(#p9156a415d8)">
     <!-- Charles Chaplin -->
     <g transform="translate(134.388028 125.603977)scale(0.09 -0.09)">
      <defs>
       <path id="DejaVuSans-61" d="M 2194 1759 
Q 1497 1759 1228 1600 
Q 959 1441 959 1056 
Q 959 750 1161 570 
Q 1363 391 1709 391 
Q 2188 391 2477 730 
Q 2766 1069 2766 1631 
L 2766 1759 
L 2194 1759 
z
M 3341 1997 
L 3341 0 
L 2766 0 
L 2766 531 
Q 2569 213 2275 61 
Q 1981 -91 1556 -91 
Q 1019 -91 701 211 
Q 384 513 384 1019 
Q 384 1609 779 1909 
Q 1175 2209 1959 2209 
L 2766 2209 
L 2766 2266 
Q 2766 2663 2505 2880 
Q 2244 3097 1772 3097 
Q 1472 3097 1187 3025 
Q 903 2953 641 2809 
L 641 3341 
Q 956 3463 1253 3523 
Q 1550 3584 1831 3584 
Q 2591 3584 2966 3190 
Q 3341 2797 3341 1997 
z
" transform="scale(0.015625)"/>
       <path id="DejaVuSans-6c" d="M 603 4863 
L 1178 4863 
L 1178 0 
L 603 0 
L 603 4863 
z
" transform="scale(0.015625)"/>
      </defs>
      <use xlink:href="#DejaVuSans-43"/>
      <use xlink:href="#DejaVuSans-68" x="69.824219"/>
      <use xlink:href="#DejaVuSans-61" x="133.203125"/>
      <use xlink:href="#DejaVuSans-72" x="194.482422"/>
      <use xlink:href="#DejaVuSans-6c" x="235.595703"/>
      <use xlink:href="#DejaVuSans-65" x="263.378906"/>
      <use xlink:href="#DejaVuSans-73" x="324.902344"/>
      <use xlink:href="#DejaVuSans-20" x="377.001953"/>
      <use xlink:href="#DejaVuSans-43" x="408.789062"/>
      <use xlink:href="#DejaVuSans-68" x="478.613281"/>
      <use xlink:href="#DejaVuSans-61" x="541.992188"/>
      <use xlink:href="#DejaVuSans-70" x="603.271484"/>
      <use xlink:href="#DejaVuSans-6c" x="666.748047"/>
      <use xlink:href="#DejaVuSans-69" x="694.53125"/>
      <use xlink:href="#DejaVuSans-6e" x="722.314453"/>
     </g>
    </g>
   </g>
   <g id="text_7">
    <g id="patch_8">
     <path d="M 77.246985 189.703631 
L 134.827297 189.703631 
L 134.827297 173.073319 
L 77.246985 173.073319 
z
" clip-path="url(#p9156a415d8)" style="fill: #ffffff; opacity: 0.7; stroke: #000000; stroke-linejoin: miter"/>
    </g>
    <g clip-path="url(#p9156a415d8)">
     <!-- Tim Burton -->
     <g transform="translate(81.206985 183.871912)scale(0.09 -0.09)">
      <defs>
       <path id="DejaVuSans-42" d="M 1259 2228 
L 1259 519 
L 2272 519 
Q 2781 519 3026 730 
Q 3272 941 3272 1375 
Q 3272 1813 3026 2020 
Q 2781 2228 2272 2228 
L 1259 2228 
z
M 1259 4147 
L 1259 2741 
L 2194 2741 
Q 2656 2741 2882 2914 
Q 3109 3088 3109 3444 
Q 3109 3797 2882 3972 
Q 2656 4147 2194 4147 
L 1259 4147 
z
M 628 4666 
L 2241 4666 
Q 2963 4666 3353 4366 
Q 3744 4066 3744 3513 
Q 3744 3084 3544 2831 
Q 3344 2578 2956 2516 
Q 3422 2416 3680 2098 
Q 3938 1781 3938 1306 
Q 3938 681 3513 340 
Q 3088 0 2303 0 
L 628 0 
L 628 4666 
z
" transform="scale(0.015625)"/>
      </defs>
      <use xlink:href="#DejaVuSans-54"/>
      <use xlink:href="#DejaVuSans-69" x="57.958984"/>
      <use xlink:href="#DejaVuSans-6d" x="85.742188"/>
      <use xlink:href="#DejaVuSans-20" x="183.154297"/>
      <use xlink:href="#DejaVuSans-42" x="214.941406"/>
      <use xlink:href="#DejaVuSans-75" x="283.544922"/>
      <use xlink:href="#DejaVuSans-72" x="346.923828"/>
      <use xlink:href="#DejaVuSans-74" x="388.037109"/>
      <use xlink:href="#DejaVuSans-6f" x="427.246094"/>
      <use xlink:href="#DejaVuSans-6e" x="488.427734"/>
     </g>
    </g>
   </g>
   <g id="text_8">
    <g id="patch_9">
     <path d="M 41.242121 269.255244 
L 101.09634 269.255244 
L 101.09634 252.624931 
L 41.242121 252.624931 
z
" clip-path="url(#p9156a415d8)" style="fill: #ffffff; opacity: 0.7; stroke: #000000; stroke-linejoin: miter"/>
    </g>
    <g clip-path="url(#p9156a415d8)">
     <!-- Luis Buñuel -->
     <g transform="translate(45.202121 263.423525)scale(0.09 -0.09)">
      <defs>
       <path id="DejaVuSans-f1" d="M 3513 2113 
L 3513 0 
L 2938 0 
L 2938 2094 
Q 2938 2591 2744 2837 
Q 2550 3084 2163 3084 
Q 1697 3084 1428 2787 
Q 1159 2491 1159 1978 
L 1159 0 
L 581 0 
L 581 3500 
L 1159 3500 
L 1159 2956 
Q 1366 3272 1645 3428 
Q 1925 3584 2291 3584 
Q 2894 3584 3203 3211 
Q 3513 2838 3513 2113 
z
M 2063 4281 
L 1884 4453 
Q 1816 4516 1764 4545 
Q 1713 4575 1672 4575 
Q 1553 4575 1497 4461 
Q 1441 4347 1434 4091 
L 1044 4091 
Q 1050 4513 1209 4742 
Q 1369 4972 1653 4972 
Q 1772 4972 1872 4928 
Q 1972 4884 2088 4781 
L 2266 4609 
Q 2334 4547 2386 4517 
Q 2438 4488 2478 4488 
Q 2597 4488 2653 4602 
Q 2709 4716 2716 4972 
L 3106 4972 
Q 3100 4550 2940 4320 
Q 2781 4091 2497 4091 
Q 2378 4091 2278 4134 
Q 2178 4178 2063 4281 
z
" transform="scale(0.015625)"/>
      </defs>
      <use xlink:href="#DejaVuSans-4c"/>
      <use xlink:href="#DejaVuSans-75" x="53.962891"/>
      <use xlink:href="#DejaVuSans-69" x="117.341797"/>
      <use xlink:href="#DejaVuSans-73" x="145.125"/>
      <use xlink:href="#DejaVuSans-20" x="197.224609"/>
      <use xlink:href="#DejaVuSans-42" x="229.011719"/>
      <use xlink:href="#DejaVuSans-75" x="297.615234"/>
      <use xlink:href="#DejaVuSans-f1" x="360.994141"/>
      <use xlink:href="#DejaVuSans-75" x="424.373047"/>
      <use xlink:href="#DejaVuSans-65" x="487.751953"/>
      <use xlink:href="#DejaVuSans-6c" x="549.275391"/>
     </g>
    </g>
   </g>
   <g id="text_9">
    <g id="patch_10">
     <path d="M 27.055181 356.335313 
L 115.283306 356.335313 
L 115.283306 339.705 
L 27.055181 339.705 
z
" clip-path="url(#p9156a415d8)" style="fill: #ffffff; opacity: 0.7; stroke: #000000; stroke-linejoin: miter"/>
    </g>
    <g clip-path="url(#p9156a415d8)">
     <!-- Quentin Tarantino -->
     <g transform="translate(31.015181 350.503594)scale(0.09 -0.09)">
      <defs>
       <path id="DejaVuSans-51" d="M 2522 4238 
Q 1834 4238 1429 3725 
Q 1025 3213 1025 2328 
Q 1025 1447 1429 934 
Q 1834 422 2522 422 
Q 3209 422 3611 934 
Q 4013 1447 4013 2328 
Q 4013 3213 3611 3725 
Q 3209 4238 2522 4238 
z
M 3406 84 
L 4238 -825 
L 3475 -825 
L 2784 -78 
Q 2681 -84 2626 -87 
Q 2572 -91 2522 -91 
Q 1538 -91 948 567 
Q 359 1225 359 2328 
Q 359 3434 948 4092 
Q 1538 4750 2522 4750 
Q 3503 4750 4090 4092 
Q 4678 3434 4678 2328 
Q 4678 1516 4351 937 
Q 4025 359 3406 84 
z
" transform="scale(0.015625)"/>
      </defs>
      <use xlink:href="#DejaVuSans-51"/>
      <use xlink:href="#DejaVuSans-75" x="78.710938"/>
      <use xlink:href="#DejaVuSans-65" x="142.089844"/>
      <use xlink:href="#DejaVuSans-6e" x="203.613281"/>
      <use xlink:href="#DejaVuSans-74" x="266.992188"/>
      <use xlink:href="#DejaVuSans-69" x="306.201172"/>
      <use xlink:href="#DejaVuSans-6e" x="333.984375"/>
      <use xlink:href="#DejaVuSans-20" x="397.363281"/>
      <use xlink:href="#DejaVuSans-54" x="429.150391"/>
      <use xlink:href="#DejaVuSans-61" x="473.734375"/>
      <use xlink:href="#DejaVuSans-72" x="535.013672"/>
      <use xlink:href="#DejaVuSans-61" x="576.126953"/>
      <use xlink:href="#DejaVuSans-6e" x="637.40625"/>
      <use xlink:href="#DejaVuSans-74" x="700.785156"/>
      <use xlink:href="#DejaVuSans-69" x="739.994141"/>
      <use xlink:href="#DejaVuSans-6e" x="767.777344"/>
      <use xlink:href="#DejaVuSans-6f" x="831.15625"/>
     </g>
    </g>
   </g>
   <g id="text_10">
    <g id="patch_11">
     <path d="M 67.815981 435.8869 
L 144.258325 435.8869 
L 144.258325 419.256588 
L 67.815981 419.256588 
z
" clip-path="url(#p9156a415d8)" style="fill: #ffffff; opacity: 0.7; stroke: #000000; stroke-linejoin: miter"/>
    </g>
    <g clip-path="url(#p9156a415d8)">
     <!-- Joseph Barbera -->
     <g transform="translate(71.775981 430.055182)scale(0.09 -0.09)">
      <use xlink:href="#DejaVuSans-4a"/>
      <use xlink:href="#DejaVuSans-6f" x="29.492188"/>
      <use xlink:href="#DejaVuSans-73" x="90.673828"/>
      <use xlink:href="#DejaVuSans-65" x="142.773438"/>
      <use xlink:href="#DejaVuSans-70" x="204.296875"/>
      <use xlink:href="#DejaVuSans-68" x="267.773438"/>
      <use xlink:href="#DejaVuSans-20" x="331.152344"/>
      <use xlink:href="#DejaVuSans-42" x="362.939453"/>
      <use xlink:href="#DejaVuSans-61" x="431.542969"/>
      <use xlink:href="#DejaVuSans-72" x="492.822266"/>
      <use xlink:href="#DejaVuSans-62" x="533.935547"/>
      <use xlink:href="#DejaVuSans-65" x="597.412109"/>
      <use xlink:href="#DejaVuSans-72" x="658.935547"/>
      <use xlink:href="#DejaVuSans-61" x="700.048828"/>
     </g>
    </g>
   </g>
   <g id="text_11">
    <g id="patch_12">
     <path d="M 133.26095 494.154835 
L 206.227044 494.154835 
L 206.227044 477.524523 
L 133.26095 477.524523 
z
" clip-path="url(#p9156a415d8)" style="fill: #ffffff; opacity: 0.7; stroke: #000000; stroke-linejoin: miter"/>
    </g>
    <g clip-path="url(#p9156a415d8)">
     <!-- William Hanna -->
     <g transform="translate(137.22095 488.323117)scale(0.09 -0.09)">
      <defs>
       <path id="DejaVuSans-57" d="M 213 4666 
L 850 4666 
L 1831 722 
L 2809 4666 
L 3519 4666 
L 4500 722 
L 5478 4666 
L 6119 4666 
L 4947 0 
L 4153 0 
L 3169 4050 
L 2175 0 
L 1381 0 
L 213 4666 
z
" transform="scale(0.015625)"/>
      </defs>
      <use xlink:href="#DejaVuSans-57"/>
      <use xlink:href="#DejaVuSans-69" x="96.626953"/>
      <use xlink:href="#DejaVuSans-6c" x="124.410156"/>
      <use xlink:href="#DejaVuSans-6c" x="152.193359"/>
      <use xlink:href="#DejaVuSans-69" x="179.976562"/>
      <use xlink:href="#DejaVuSans-61" x="207.759766"/>
      <use xlink:href="#DejaVuSans-6d" x="269.039062"/>
      <use xlink:href="#DejaVuSans-20" x="366.451172"/>
      <use xlink:href="#DejaVuSans-48" x="398.238281"/>
      <use xlink:href="#DejaVuSans-61" x="473.433594"/>
      <use xlink:href="#DejaVuSans-6e" x="534.712891"/>
      <use xlink:href="#DejaVuSans-6e" x="598.091797"/>
      <use xlink:href="#DejaVuSans-61" x="661.470703"/>
     </g>
    </g>
   </g>
   <g id="text_12">
    <g id="patch_13">
     <path d="M 220.441545 521.06405 
L 282.107014 521.06405 
L 282.107014 504.433738 
L 220.441545 504.433738 
z
" clip-path="url(#p9156a415d8)" style="fill: #ffffff; opacity: 0.7; stroke: #000000; stroke-linejoin: miter"/>
    </g>
    <g clip-path="url(#p9156a415d8)">
     <!-- James Foley -->
     <g transform="translate(224.401545 515.232332)scale(0.09 -0.09)">
      <defs>
       <path id="DejaVuSans-46" d="M 628 4666 
L 3309 4666 
L 3309 4134 
L 1259 4134 
L 1259 2759 
L 3109 2759 
L 3109 2228 
L 1259 2228 
L 1259 0 
L 628 0 
L 628 4666 
z
" transform="scale(0.015625)"/>
       <path id="DejaVuSans-79" d="M 2059 -325 
Q 1816 -950 1584 -1140 
Q 1353 -1331 966 -1331 
L 506 -1331 
L 506 -850 
L 844 -850 
Q 1081 -850 1212 -737 
Q 1344 -625 1503 -206 
L 1606 56 
L 191 3500 
L 800 3500 
L 1894 763 
L 2988 3500 
L 3597 3500 
L 2059 -325 
z
" transform="scale(0.015625)"/>
      </defs>
      <use xlink:href="#DejaVuSans-4a"/>
      <use xlink:href="#DejaVuSans-61" x="29.492188"/>
      <use xlink:href="#DejaVuSans-6d" x="90.771484"/>
      <use xlink:href="#DejaVuSans-65" x="188.183594"/>
      <use xlink:href="#DejaVuSans-73" x="249.707031"/>
      <use xlink:href="#DejaVuSans-20" x="301.806641"/>
      <use xlink:href="#DejaVuSans-46" x="333.59375"/>
      <use xlink:href="#DejaVuSans-6f" x="387.488281"/>
      <use xlink:href="#DejaVuSans-6c" x="448.669922"/>
      <use xlink:href="#DejaVuSans-65" x="476.453125"/>
      <use xlink:href="#DejaVuSans-79" x="537.976562"/>
     </g>
    </g>
   </g>
   <g id="text_13">
    <g id="patch_14">
     <path d="M 305.40754 511.961693 
L 367.65379 511.961693 
L 367.65379 495.331381 
L 305.40754 495.331381 
z
" clip-path="url(#p9156a415d8)" style="fill: #ffffff; opacity: 0.7; stroke: #000000; stroke-linejoin: miter"/>
    </g>
    <g clip-path="url(#p9156a415d8)">
     <!-- Ron Howard -->
     <g transform="translate(309.36754 506.129975)scale(0.09 -0.09)">
      <defs>
       <path id="DejaVuSans-77" d="M 269 3500 
L 844 3500 
L 1563 769 
L 2278 3500 
L 2956 3500 
L 3675 769 
L 4391 3500 
L 4966 3500 
L 4050 0 
L 3372 0 
L 2619 2869 
L 1863 0 
L 1184 0 
L 269 3500 
z
" transform="scale(0.015625)"/>
       <path id="DejaVuSans-64" d="M 2906 2969 
L 2906 4863 
L 3481 4863 
L 3481 0 
L 2906 0 
L 2906 525 
Q 2725 213 2448 61 
Q 2172 -91 1784 -91 
Q 1150 -91 751 415 
Q 353 922 353 1747 
Q 353 2572 751 3078 
Q 1150 3584 1784 3584 
Q 2172 3584 2448 3432 
Q 2725 3281 2906 2969 
z
M 947 1747 
Q 947 1113 1208 752 
Q 1469 391 1925 391 
Q 2381 391 2643 752 
Q 2906 1113 2906 1747 
Q 2906 2381 2643 2742 
Q 2381 3103 1925 3103 
Q 1469 3103 1208 2742 
Q 947 2381 947 1747 
z
" transform="scale(0.015625)"/>
      </defs>
      <use xlink:href="#DejaVuSans-52"/>
      <use xlink:href="#DejaVuSans-6f" x="64.982422"/>
      <use xlink:href="#DejaVuSans-6e" x="126.164062"/>
      <use xlink:href="#DejaVuSans-20" x="189.542969"/>
      <use xlink:href="#DejaVuSans-48" x="221.330078"/>
      <use xlink:href="#DejaVuSans-6f" x="296.525391"/>
      <use xlink:href="#DejaVuSans-77" x="357.707031"/>
      <use xlink:href="#DejaVuSans-61" x="439.494141"/>
      <use xlink:href="#DejaVuSans-72" x="500.773438"/>
      <use xlink:href="#DejaVuSans-64" x="540.136719"/>
     </g>
    </g>
   </g>
   <g id="text_14">
    <g id="patch_15">
     <path d="M 375.935236 468.42164 
L 445.607892 468.42164 
L 445.607892 451.791328 
L 375.935236 451.791328 
z
" clip-path="url(#p9156a415d8)" style="fill: #ffffff; opacity: 0.7; stroke: #000000; stroke-linejoin: miter"/>
    </g>
    <g clip-path="url(#p9156a415d8)">
     <!-- George Cukor -->
     <g transform="translate(379.895236 462.589921)scale(0.09 -0.09)">
      <defs>
       <path id="DejaVuSans-47" d="M 3809 666 
L 3809 1919 
L 2778 1919 
L 2778 2438 
L 4434 2438 
L 4434 434 
Q 4069 175 3628 42 
Q 3188 -91 2688 -91 
Q 1594 -91 976 548 
Q 359 1188 359 2328 
Q 359 3472 976 4111 
Q 1594 4750 2688 4750 
Q 3144 4750 3555 4637 
Q 3966 4525 4313 4306 
L 4313 3634 
Q 3963 3931 3569 4081 
Q 3175 4231 2741 4231 
Q 1884 4231 1454 3753 
Q 1025 3275 1025 2328 
Q 1025 1384 1454 906 
Q 1884 428 2741 428 
Q 3075 428 3337 486 
Q 3600 544 3809 666 
z
" transform="scale(0.015625)"/>
       <path id="DejaVuSans-67" d="M 2906 1791 
Q 2906 2416 2648 2759 
Q 2391 3103 1925 3103 
Q 1463 3103 1205 2759 
Q 947 2416 947 1791 
Q 947 1169 1205 825 
Q 1463 481 1925 481 
Q 2391 481 2648 825 
Q 2906 1169 2906 1791 
z
M 3481 434 
Q 3481 -459 3084 -895 
Q 2688 -1331 1869 -1331 
Q 1566 -1331 1297 -1286 
Q 1028 -1241 775 -1147 
L 775 -588 
Q 1028 -725 1275 -790 
Q 1522 -856 1778 -856 
Q 2344 -856 2625 -561 
Q 2906 -266 2906 331 
L 2906 616 
Q 2728 306 2450 153 
Q 2172 0 1784 0 
Q 1141 0 747 490 
Q 353 981 353 1791 
Q 353 2603 747 3093 
Q 1141 3584 1784 3584 
Q 2172 3584 2450 3431 
Q 2728 3278 2906 2969 
L 2906 3500 
L 3481 3500 
L 3481 434 
z
" transform="scale(0.015625)"/>
      </defs>
      <use xlink:href="#DejaVuSans-47"/>
      <use xlink:href="#DejaVuSans-65" x="77.490234"/>
      <use xlink:href="#DejaVuSans-6f" x="139.013672"/>
      <use xlink:href="#DejaVuSans-72" x="200.195312"/>
      <use xlink:href="#DejaVuSans-67" x="239.558594"/>
      <use xlink:href="#DejaVuSans-65" x="303.035156"/>
      <use xlink:href="#DejaVuSans-20" x="364.558594"/>
      <use xlink:href="#DejaVuSans-43" x="396.345703"/>
      <use xlink:href="#DejaVuSans-75" x="466.169922"/>
      <use xlink:href="#DejaVuSans-6b" x="529.548828"/>
      <use xlink:href="#DejaVuSans-6f" x="583.833984"/>
      <use xlink:href="#DejaVuSans-72" x="645.015625"/>
     </g>
    </g>
   </g>
   <g id="text_15">
    <g id="patch_16">
     <path d="M 423.2398 397.972385 
L 499.080269 397.972385 
L 499.080269 381.342072 
L 423.2398 381.342072 
z
" clip-path="url(#p9156a415d8)" style="fill: #ffffff; opacity: 0.7; stroke: #000000; stroke-linejoin: miter"/>
    </g>
    <g clip-path="url(#p9156a415d8)">
     <!-- Joseph Sargent -->
     <g transform="translate(427.1998 392.140666)scale(0.09 -0.09)">
      <use xlink:href="#DejaVuSans-4a"/>
      <use xlink:href="#DejaVuSans-6f" x="29.492188"/>
      <use xlink:href="#DejaVuSans-73" x="90.673828"/>
      <use xlink:href="#DejaVuSans-65" x="142.773438"/>
      <use xlink:href="#DejaVuSans-70" x="204.296875"/>
      <use xlink:href="#DejaVuSans-68" x="267.773438"/>
      <use xlink:href="#DejaVuSans-20" x="331.152344"/>
      <use xlink:href="#DejaVuSans-53" x="362.939453"/>
      <use xlink:href="#DejaVuSans-61" x="426.416016"/>
      <use xlink:href="#DejaVuSans-72" x="487.695312"/>
      <use xlink:href="#DejaVuSans-67" x="527.058594"/>
      <use xlink:href="#DejaVuSans-65" x="590.535156"/>
      <use xlink:href="#DejaVuSans-6e" x="652.058594"/>
      <use xlink:href="#DejaVuSans-74" x="715.4375"/>
     </g>
    </g>
   </g>
   <g id="text_16">
    <!-- Impactful directors for World cinema genre - Importance rank: 2 -->
    <g transform="translate(91.93125 16.318125)scale(0.12 -0.12)">
     <defs>
      <path id="DejaVuSans-49" d="M 628 4666 
L 1259 4666 
L 1259 0 
L 628 0 
L 628 4666 
z
" transform="scale(0.015625)"/>
      <path id="DejaVuSans-66" d="M 2375 4863 
L 2375 4384 
L 1825 4384 
Q 1516 4384 1395 4259 
Q 1275 4134 1275 3809 
L 1275 3500 
L 2222 3500 
L 2222 3053 
L 1275 3053 
L 1275 0 
L 697 0 
L 697 3053 
L 147 3053 
L 147 3500 
L 697 3500 
L 697 3744 
Q 697 4328 969 4595 
Q 1241 4863 1831 4863 
L 2375 4863 
z
" transform="scale(0.015625)"/>
      <path id="DejaVuSans-2d" d="M 313 2009 
L 1997 2009 
L 1997 1497 
L 313 1497 
L 313 2009 
z
" transform="scale(0.015625)"/>
      <path id="DejaVuSans-3a" d="M 750 794 
L 1409 794 
L 1409 0 
L 750 0 
L 750 794 
z
M 750 3309 
L 1409 3309 
L 1409 2516 
L 750 2516 
L 750 3309 
z
" transform="scale(0.015625)"/>
      <path id="DejaVuSans-32" d="M 1228 531 
L 3431 531 
L 3431 0 
L 469 0 
L 469 531 
Q 828 903 1448 1529 
Q 2069 2156 2228 2338 
Q 2531 2678 2651 2914 
Q 2772 3150 2772 3378 
Q 2772 3750 2511 3984 
Q 2250 4219 1831 4219 
Q 1534 4219 1204 4116 
Q 875 4013 500 3803 
L 500 4441 
Q 881 4594 1212 4672 
Q 1544 4750 1819 4750 
Q 2544 4750 2975 4387 
Q 3406 4025 3406 3419 
Q 3406 3131 3298 2873 
Q 3191 2616 2906 2266 
Q 2828 2175 2409 1742 
Q 1991 1309 1228 531 
z
" transform="scale(0.015625)"/>
     </defs>
     <use xlink:href="#DejaVuSans-49"/>
     <use xlink:href="#DejaVuSans-6d" x="29.492188"/>
     <use xlink:href="#DejaVuSans-70" x="126.904297"/>
     <use xlink:href="#DejaVuSans-61" x="190.380859"/>
     <use xlink:href="#DejaVuSans-63" x="251.660156"/>
     <use xlink:href="#DejaVuSans-74" x="306.640625"/>
     <use xlink:href="#DejaVuSans-66" x="345.849609"/>
     <use xlink:href="#DejaVuSans-75" x="381.054688"/>
     <use xlink:href="#DejaVuSans-6c" x="444.433594"/>
     <use xlink:href="#DejaVuSans-20" x="472.216797"/>
     <use xlink:href="#DejaVuSans-64" x="504.003906"/>
     <use xlink:href="#DejaVuSans-69" x="567.480469"/>
     <use xlink:href="#DejaVuSans-72" x="595.263672"/>
     <use xlink:href="#DejaVuSans-65" x="634.126953"/>
     <use xlink:href="#DejaVuSans-63" x="695.650391"/>
     <use xlink:href="#DejaVuSans-74" x="750.630859"/>
     <use xlink:href="#DejaVuSans-6f" x="789.839844"/>
     <use xlink:href="#DejaVuSans-72" x="851.021484"/>
     <use xlink:href="#DejaVuSans-73" x="892.134766"/>
     <use xlink:href="#DejaVuSans-20" x="944.234375"/>
     <use xlink:href="#DejaVuSans-66" x="976.021484"/>
     <use xlink:href="#DejaVuSans-6f" x="1011.226562"/>
     <use xlink:href="#DejaVuSans-72" x="1072.408203"/>
     <use xlink:href="#DejaVuSans-20" x="1113.521484"/>
     <use xlink:href="#DejaVuSans-57" x="1145.308594"/>
     <use xlink:href="#DejaVuSans-6f" x="1238.310547"/>
     <use xlink:href="#DejaVuSans-72" x="1299.492188"/>
     <use xlink:href="#DejaVuSans-6c" x="1340.605469"/>
     <use xlink:href="#DejaVuSans-64" x="1368.388672"/>
     <use xlink:href="#DejaVuSans-20" x="1431.865234"/>
     <use xlink:href="#DejaVuSans-63" x="1463.652344"/>
     <use xlink:href="#DejaVuSans-69" x="1518.632812"/>
     <use xlink:href="#DejaVuSans-6e" x="1546.416016"/>
     <use xlink:href="#DejaVuSans-65" x="1609.794922"/>
     <use xlink:href="#DejaVuSans-6d" x="1671.318359"/>
     <use xlink:href="#DejaVuSans-61" x="1768.730469"/>
     <use xlink:href="#DejaVuSans-20" x="1830.009766"/>
     <use xlink:href="#DejaVuSans-67" x="1861.796875"/>
     <use xlink:href="#DejaVuSans-65" x="1925.273438"/>
     <use xlink:href="#DejaVuSans-6e" x="1986.796875"/>
     <use xlink:href="#DejaVuSans-72" x="2050.175781"/>
     <use xlink:href="#DejaVuSans-65" x="2089.039062"/>
     <use xlink:href="#DejaVuSans-20" x="2150.5625"/>
     <use xlink:href="#DejaVuSans-2d" x="2182.349609"/>
     <use xlink:href="#DejaVuSans-20" x="2218.433594"/>
     <use xlink:href="#DejaVuSans-49" x="2250.220703"/>
     <use xlink:href="#DejaVuSans-6d" x="2279.712891"/>
     <use xlink:href="#DejaVuSans-70" x="2377.125"/>
     <use xlink:href="#DejaVuSans-6f" x="2440.601562"/>
     <use xlink:href="#DejaVuSans-72" x="2501.783203"/>
     <use xlink:href="#DejaVuSans-74" x="2542.896484"/>
     <use xlink:href="#DejaVuSans-61" x="2582.105469"/>
     <use xlink:href="#DejaVuSans-6e" x="2643.384766"/>
     <use xlink:href="#DejaVuSans-63" x="2706.763672"/>
     <use xlink:href="#DejaVuSans-65" x="2761.744141"/>
     <use xlink:href="#DejaVuSans-20" x="2823.267578"/>
     <use xlink:href="#DejaVuSans-72" x="2855.054688"/>
     <use xlink:href="#DejaVuSans-61" x="2896.167969"/>
     <use xlink:href="#DejaVuSans-6e" x="2957.447266"/>
     <use xlink:href="#DejaVuSans-6b" x="3020.826172"/>
     <use xlink:href="#DejaVuSans-3a" x="3078.736328"/>
     <use xlink:href="#DejaVuSans-20" x="3112.427734"/>
     <use xlink:href="#DejaVuSans-32" x="3144.214844"/>
    </g>
   </g>
  </g>
 </g>
 <defs>
  <clipPath id="p9156a415d8">
   <rect x="7.2" y="22.318125" width="554.4" height="554.4"/>
  </clipPath>
 </defs>
</svg>
