<?xml version="1.0" encoding="utf-8" standalone="no"?>
<!DOCTYPE svg PUBLIC "-//W3C//DTD SVG 1.1//EN"
  "http://www.w3.org/Graphics/SVG/1.1/DTD/svg11.dtd">
<svg xmlns:xlink="http://www.w3.org/1999/xlink" width="576pt" height="576pt" viewBox="0 0 576 576" xmlns="http://www.w3.org/2000/svg" version="1.1">
 <metadata>
  <rdf:RDF xmlns:dc="http://purl.org/dc/elements/1.1/" xmlns:cc="http://creativecommons.org/ns#" xmlns:rdf="http://www.w3.org/1999/02/22-rdf-syntax-ns#">
   <cc:Work>
    <dc:type rdf:resource="http://purl.org/dc/dcmitype/StillImage"/>
    <dc:date>2022-12-23T17:29:39.762193</dc:date>
    <dc:format>image/svg+xml</dc:format>
    <dc:creator>
     <cc:Agent>
      <dc:title>Matplotlib v3.5.2, https://matplotlib.org/</dc:title>
     </cc:Agent>
    </dc:creator>
   </cc:Work>
  </rdf:RDF>
 </metadata>
 <defs>
  <style type="text/css">*{stroke-linejoin: round; stroke-linecap: butt}</style>
 </defs>
 <g id="figure_1">
  <g id="patch_1">
   <path d="M 0 576 
L 576 576 
L 576 0 
L 0 0 
z
" style="fill: #ffffff"/>
  </g>
  <g id="axes_1">
   <g id="LineCollection_1">
    <path d="M 482.583454 288 
L 464.76001 200.793508 
" clip-path="url(#pc223082055)" style="fill: none; stroke: #000000; stroke-opacity: 0.3; stroke-width: 5"/>
    <path d="M 482.583454 288 
L 414.371564 447.33416 
" clip-path="url(#pc223082055)" style="fill: none; stroke: #000000; stroke-opacity: 0.3; stroke-width: 5.068324"/>
    <path d="M 109.637153 414.024284 
L 173.343997 473.680446 
" clip-path="url(#pc223082055)" style="fill: none; stroke: #000000; stroke-opacity: 0.3; stroke-width: 10"/>
   </g>
   <g id="PathCollection_1">
    <path d="M 482.583454 315.386128 
C 489.84634 315.386128 496.812735 312.500553 501.948371 307.364917 
C 507.084007 302.229281 509.969582 295.262886 509.969582 288 
C 509.969582 280.737114 507.084007 273.770719 501.948371 268.635083 
C 496.812735 263.499447 489.84634 260.613872 482.583454 260.613872 
C 475.320568 260.613872 468.354173 263.499447 463.218537 268.635083 
C 458.082902 273.770719 455.197326 280.737114 455.197326 288 
C 455.197326 295.262886 458.082902 302.229281 463.218537 307.364917 
C 468.354173 312.500553 475.320568 315.386128 482.583454 315.386128 
z
" clip-path="url(#pc223082055)" style="fill: #c70039; fill-opacity: 0.99; stroke: #c70039; stroke-opacity: 0.99"/>
    <path d="M 464.76001 223.970038 
C 470.906498 223.970038 476.802068 221.528012 481.148291 217.181789 
C 485.494514 212.835566 487.936539 206.939996 487.936539 200.793508 
C 487.936539 194.647021 485.494514 188.75145 481.148291 184.405228 
C 476.802068 180.059005 470.906498 177.616979 464.76001 177.616979 
C 458.613523 177.616979 452.717952 180.059005 448.371729 184.405228 
C 444.025506 188.75145 441.583481 194.647021 441.583481 200.793508 
C 441.583481 206.939996 444.025506 212.835566 448.371729 217.181789 
C 452.717952 221.528012 458.613523 223.970038 464.76001 223.970038 
z
" clip-path="url(#pc223082055)" style="fill: #c70039; fill-opacity: 0.99; stroke: #c70039; stroke-opacity: 0.99"/>
    <path d="M 414.371527 151.16831 
C 420.339262 151.16831 426.063377 148.797303 430.283203 144.577478 
C 434.503029 140.357652 436.874035 134.633537 436.874035 128.665802 
C 436.874035 122.698067 434.503029 116.973951 430.283203 112.754126 
C 426.063377 108.5343 420.339262 106.163294 414.371527 106.163294 
C 408.403792 106.163294 402.679677 108.5343 398.459851 112.754126 
C 394.240025 116.973951 391.869019 122.698067 391.869019 128.665802 
C 391.869019 134.633537 394.240025 140.357652 398.459851 144.577478 
C 402.679677 148.797303 408.403792 151.16831 414.371527 151.16831 
z
" clip-path="url(#pc223082055)" style="fill: #c70039; fill-opacity: 0.99; stroke: #c70039; stroke-opacity: 0.99"/>
    <path d="M 340.130635 106.198639 
C 345.994329 106.198639 351.61865 103.868969 355.764908 99.722711 
C 359.911166 95.576453 362.240836 89.952132 362.240836 84.088438 
C 362.240836 78.224744 359.911166 72.600422 355.764908 68.454164 
C 351.61865 64.307906 345.994329 61.978236 340.130635 61.978236 
C 334.266941 61.978236 328.642619 64.307906 324.496361 68.454164 
C 320.350103 72.600422 318.020433 78.224744 318.020433 84.088438 
C 318.020433 89.952132 320.350103 95.576453 324.496361 99.722711 
C 328.642619 103.868969 334.266941 106.198639 340.130635 106.198639 
z
" clip-path="url(#pc223082055)" style="fill: #c70039; fill-opacity: 0.99; stroke: #c70039; stroke-opacity: 0.99"/>
    <path d="M 254.874243 96.86294 
C 260.733563 96.86294 266.353689 94.535007 270.496854 90.391842 
C 274.640019 86.248677 276.967952 80.628551 276.967952 74.769231 
C 276.967952 68.909911 274.640019 63.289784 270.496854 59.146619 
C 266.353689 55.003454 260.733563 52.675522 254.874243 52.675522 
C 249.014923 52.675522 243.394796 55.003454 239.251631 59.146619 
C 235.108466 63.289784 232.780534 68.909911 232.780534 74.769231 
C 232.780534 80.628551 235.108466 86.248677 239.251631 90.391842 
C 243.394796 94.535007 249.014923 96.86294 254.874243 96.86294 
z
" clip-path="url(#pc223082055)" style="fill: #c70039; fill-opacity: 0.99; stroke: #c70039; stroke-opacity: 0.99"/>
    <path d="M 173.343966 123.385913 
C 178.930826 123.385913 184.289615 121.16623 188.240122 117.215723 
C 192.190629 113.265217 194.410312 107.906428 194.410312 102.319567 
C 194.410312 96.732707 192.190629 91.373918 188.240122 87.423411 
C 184.289615 83.472904 178.930826 81.253221 173.343966 81.253221 
C 167.757106 81.253221 162.398317 83.472904 158.44781 87.423411 
C 154.497303 91.373918 152.27762 96.732707 152.27762 102.319567 
C 152.27762 107.906428 154.497303 113.265217 158.44781 117.215723 
C 162.398317 121.16623 167.757106 123.385913 173.343966 123.385913 
z
" clip-path="url(#pc223082055)" style="fill: #c70039; fill-opacity: 0.99; stroke: #c70039; stroke-opacity: 0.99"/>
    <path d="M 109.637141 182.365282 
C 115.044514 182.365282 120.231142 180.21691 124.054732 176.39332 
C 127.878322 172.56973 130.026694 167.383101 130.026694 161.975729 
C 130.026694 156.568356 127.878322 151.381727 124.054732 147.558138 
C 120.231142 143.734548 115.044514 141.586176 109.637141 141.586176 
C 104.229768 141.586176 99.04314 143.734548 95.21955 147.558138 
C 91.39596 151.381727 89.247588 156.568356 89.247588 161.975729 
C 89.247588 167.383101 91.39596 172.56973 95.21955 176.39332 
C 99.04314 180.21691 104.229768 182.365282 109.637141 182.365282 
z
" clip-path="url(#pc223082055)" style="fill: #c70039; fill-opacity: 0.99; stroke: #c70039; stroke-opacity: 0.99"/>
    <path d="M 74.769231 263.713488 
C 80.150424 263.713488 85.311943 261.575518 89.117021 257.770439 
C 92.922099 253.965361 95.06007 248.803842 95.06007 243.422649 
C 95.06007 238.041455 92.922099 232.879937 89.117021 229.074859 
C 85.311943 225.26978 80.150424 223.131809 74.769231 223.131809 
C 69.388037 223.131809 64.226519 225.26978 60.421441 229.074859 
C 56.616362 232.879937 54.478391 238.041455 54.478391 243.422649 
C 54.478391 248.803842 56.616362 253.965361 60.421441 257.770439 
C 64.226519 261.575518 69.388037 263.713488 74.769231 263.713488 
z
" clip-path="url(#pc223082055)" style="fill: #c70039; fill-opacity: 0.99; stroke: #c70039; stroke-opacity: 0.99"/>
    <path d="M 74.769243 352.47482 
C 80.046103 352.47482 85.107547 350.378301 88.838851 346.646998 
C 92.570155 342.915694 94.666674 337.85425 94.666674 332.577389 
C 94.666674 327.300529 92.570155 322.239085 88.838851 318.507781 
C 85.107547 314.776478 80.046103 312.679959 74.769243 312.679959 
C 69.492383 312.679959 64.430939 314.776478 60.699635 318.507781 
C 56.968331 322.239085 54.871813 327.300529 54.871813 332.577389 
C 54.871813 337.85425 56.968331 342.915694 60.699635 346.646998 
C 64.430939 350.378301 69.492383 352.47482 74.769243 352.47482 
z
" clip-path="url(#pc223082055)" style="fill: #c70039; fill-opacity: 0.99; stroke: #c70039; stroke-opacity: 0.99"/>
    <path d="M 109.637153 433.748359 
C 114.868039 433.748359 119.885386 431.670106 123.58418 427.971311 
C 127.282975 424.272516 129.361228 419.25517 129.361228 414.024284 
C 129.361228 408.793398 127.282975 403.776052 123.58418 400.077257 
C 119.885386 396.378462 114.868039 394.300209 109.637153 394.300209 
C 104.406267 394.300209 99.388921 396.378462 95.690126 400.077257 
C 91.991331 403.776052 89.913078 408.793398 89.913078 414.024284 
C 89.913078 419.25517 91.991331 424.272516 95.690126 427.971311 
C 99.388921 431.670106 104.406267 433.748359 109.637153 433.748359 
z
" clip-path="url(#pc223082055)" style="fill: #c70039; fill-opacity: 0.99; stroke: #c70039; stroke-opacity: 0.99"/>
    <path d="M 173.343997 493.40452 
C 178.574883 493.40452 183.592229 491.326268 187.291024 487.627473 
C 190.989819 483.928678 193.068072 478.911331 193.068072 473.680446 
C 193.068072 468.44956 190.989819 463.432213 187.291024 459.733418 
C 183.592229 456.034624 178.574883 453.956371 173.343997 453.956371 
C 168.113111 453.956371 163.095764 456.034624 159.39697 459.733418 
C 155.698175 463.432213 153.619922 468.44956 153.619922 473.680446 
C 153.619922 478.911331 155.698175 483.928678 159.39697 487.627473 
C 163.095764 491.326268 168.113111 493.40452 173.343997 493.40452 
z
" clip-path="url(#pc223082055)" style="fill: #c70039; fill-opacity: 0.99; stroke: #c70039; stroke-opacity: 0.99"/>
    <path d="M 254.87428 520.877469 
C 260.084645 520.877469 265.082309 518.807369 268.766594 515.123084 
C 272.450879 511.438799 274.520979 506.441135 274.520979 501.230769 
C 274.520979 496.020404 272.450879 491.022739 268.766594 487.338455 
C 265.082309 483.65417 260.084645 481.584069 254.87428 481.584069 
C 249.663914 481.584069 244.66625 483.65417 240.981965 487.338455 
C 237.29768 491.022739 235.22758 496.020404 235.22758 501.230769 
C 235.22758 506.441135 237.29768 511.438799 240.981965 515.123084 
C 244.66625 518.807369 249.663914 520.877469 254.87428 520.877469 
z
" clip-path="url(#pc223082055)" style="fill: #c70039; fill-opacity: 0.99; stroke: #c70039; stroke-opacity: 0.99"/>
    <path d="M 340.130665 511.440216 
C 345.309728 511.440216 350.277367 509.382552 353.939518 505.720402 
C 357.601668 502.058251 359.659332 497.090612 359.659332 491.91155 
C 359.659332 486.732487 357.601668 481.764848 353.939518 478.102697 
C 350.277367 474.440547 345.309728 472.382883 340.130665 472.382883 
C 334.951603 472.382883 329.983964 474.440547 326.321813 478.102697 
C 322.659663 481.764848 320.601999 486.732487 320.601999 491.91155 
C 320.601999 497.090612 322.659663 502.058251 326.321813 505.720402 
C 329.983964 509.382552 334.951603 511.440216 340.130665 511.440216 
z
" clip-path="url(#pc223082055)" style="fill: #c70039; fill-opacity: 0.99; stroke: #c70039; stroke-opacity: 0.99"/>
    <path d="M 414.371564 466.764297 
C 419.524496 466.764297 424.467072 464.717015 428.110745 461.073342 
C 431.754419 457.429668 433.801701 452.487093 433.801701 447.33416 
C 433.801701 442.181227 431.754419 437.238652 428.110745 433.594978 
C 424.467072 429.951305 419.524496 427.904023 414.371564 427.904023 
C 409.218631 427.904023 404.276055 429.951305 400.632382 433.594978 
C 396.988708 437.238652 394.941426 442.181227 394.941426 447.33416 
C 394.941426 452.487093 396.988708 457.429668 400.632382 461.073342 
C 404.276055 464.717015 409.218631 466.764297 414.371564 466.764297 
z
" clip-path="url(#pc223082055)" style="fill: #c70039; fill-opacity: 0.99; stroke: #c70039; stroke-opacity: 0.99"/>
    <path d="M 464.760035 394.571376 
C 469.895671 394.571376 474.821656 392.530967 478.453099 388.899524 
C 482.084542 385.268081 484.124951 380.342096 484.124951 375.20646 
C 484.124951 370.070824 482.084542 365.144839 478.453099 361.513396 
C 474.821656 357.881953 469.895671 355.841543 464.760035 355.841543 
C 459.624399 355.841543 454.698414 357.881953 451.066971 361.513396 
C 447.435528 365.144839 445.395118 370.070824 445.395118 375.20646 
C 445.395118 380.342096 447.435528 385.268081 451.066971 388.899524 
C 454.698414 392.530967 459.624399 394.571376 464.760035 394.571376 
z
" clip-path="url(#pc223082055)" style="fill: #c70039; fill-opacity: 0.99; stroke: #c70039; stroke-opacity: 0.99"/>
   </g>
   <g id="text_1">
    <g id="patch_2">
     <path d="M 451.221267 296.315156 
L 513.945642 296.315156 
L 513.945642 279.684844 
L 451.221267 279.684844 
z
" clip-path="url(#pc223082055)" style="fill: #ffffff; opacity: 0.7; stroke: #000000; stroke-linejoin: miter"/>
    </g>
    <g clip-path="url(#pc223082055)">
     <!-- Chuck Jones -->
     <g transform="translate(455.181267 290.483437)scale(0.09 -0.09)">
      <defs>
       <path id="DejaVuSans-43" d="M 4122 4306 
L 4122 3641 
Q 3803 3938 3442 4084 
Q 3081 4231 2675 4231 
Q 1875 4231 1450 3742 
Q 1025 3253 1025 2328 
Q 1025 1406 1450 917 
Q 1875 428 2675 428 
Q 3081 428 3442 575 
Q 3803 722 4122 1019 
L 4122 359 
Q 3791 134 3420 21 
Q 3050 -91 2638 -91 
Q 1578 -91 968 557 
Q 359 1206 359 2328 
Q 359 3453 968 4101 
Q 1578 4750 2638 4750 
Q 3056 4750 3426 4639 
Q 3797 4528 4122 4306 
z
" transform="scale(0.015625)"/>
       <path id="DejaVuSans-68" d="M 3513 2113 
L 3513 0 
L 2938 0 
L 2938 2094 
Q 2938 2591 2744 2837 
Q 2550 3084 2163 3084 
Q 1697 3084 1428 2787 
Q 1159 2491 1159 1978 
L 1159 0 
L 581 0 
L 581 4863 
L 1159 4863 
L 1159 2956 
Q 1366 3272 1645 3428 
Q 1925 3584 2291 3584 
Q 2894 3584 3203 3211 
Q 3513 2838 3513 2113 
z
" transform="scale(0.015625)"/>
       <path id="DejaVuSans-75" d="M 544 1381 
L 544 3500 
L 1119 3500 
L 1119 1403 
Q 1119 906 1312 657 
Q 1506 409 1894 409 
Q 2359 409 2629 706 
Q 2900 1003 2900 1516 
L 2900 3500 
L 3475 3500 
L 3475 0 
L 2900 0 
L 2900 538 
Q 2691 219 2414 64 
Q 2138 -91 1772 -91 
Q 1169 -91 856 284 
Q 544 659 544 1381 
z
M 1991 3584 
L 1991 3584 
z
" transform="scale(0.015625)"/>
       <path id="DejaVuSans-63" d="M 3122 3366 
L 3122 2828 
Q 2878 2963 2633 3030 
Q 2388 3097 2138 3097 
Q 1578 3097 1268 2742 
Q 959 2388 959 1747 
Q 959 1106 1268 751 
Q 1578 397 2138 397 
Q 2388 397 2633 464 
Q 2878 531 3122 666 
L 3122 134 
Q 2881 22 2623 -34 
Q 2366 -91 2075 -91 
Q 1284 -91 818 406 
Q 353 903 353 1747 
Q 353 2603 823 3093 
Q 1294 3584 2113 3584 
Q 2378 3584 2631 3529 
Q 2884 3475 3122 3366 
z
" transform="scale(0.015625)"/>
       <path id="DejaVuSans-6b" d="M 581 4863 
L 1159 4863 
L 1159 1991 
L 2875 3500 
L 3609 3500 
L 1753 1863 
L 3688 0 
L 2938 0 
L 1159 1709 
L 1159 0 
L 581 0 
L 581 4863 
z
" transform="scale(0.015625)"/>
       <path id="DejaVuSans-20" transform="scale(0.015625)"/>
       <path id="DejaVuSans-4a" d="M 628 4666 
L 1259 4666 
L 1259 325 
Q 1259 -519 939 -900 
Q 619 -1281 -91 -1281 
L -331 -1281 
L -331 -750 
L -134 -750 
Q 284 -750 456 -515 
Q 628 -281 628 325 
L 628 4666 
z
" transform="scale(0.015625)"/>
       <path id="DejaVuSans-6f" d="M 1959 3097 
Q 1497 3097 1228 2736 
Q 959 2375 959 1747 
Q 959 1119 1226 758 
Q 1494 397 1959 397 
Q 2419 397 2687 759 
Q 2956 1122 2956 1747 
Q 2956 2369 2687 2733 
Q 2419 3097 1959 3097 
z
M 1959 3584 
Q 2709 3584 3137 3096 
Q 3566 2609 3566 1747 
Q 3566 888 3137 398 
Q 2709 -91 1959 -91 
Q 1206 -91 779 398 
Q 353 888 353 1747 
Q 353 2609 779 3096 
Q 1206 3584 1959 3584 
z
" transform="scale(0.015625)"/>
       <path id="DejaVuSans-6e" d="M 3513 2113 
L 3513 0 
L 2938 0 
L 2938 2094 
Q 2938 2591 2744 2837 
Q 2550 3084 2163 3084 
Q 1697 3084 1428 2787 
Q 1159 2491 1159 1978 
L 1159 0 
L 581 0 
L 581 3500 
L 1159 3500 
L 1159 2956 
Q 1366 3272 1645 3428 
Q 1925 3584 2291 3584 
Q 2894 3584 3203 3211 
Q 3513 2838 3513 2113 
z
" transform="scale(0.015625)"/>
       <path id="DejaVuSans-65" d="M 3597 1894 
L 3597 1613 
L 953 1613 
Q 991 1019 1311 708 
Q 1631 397 2203 397 
Q 2534 397 2845 478 
Q 3156 559 3463 722 
L 3463 178 
Q 3153 47 2828 -22 
Q 2503 -91 2169 -91 
Q 1331 -91 842 396 
Q 353 884 353 1716 
Q 353 2575 817 3079 
Q 1281 3584 2069 3584 
Q 2775 3584 3186 3129 
Q 3597 2675 3597 1894 
z
M 3022 2063 
Q 3016 2534 2758 2815 
Q 2500 3097 2075 3097 
Q 1594 3097 1305 2825 
Q 1016 2553 972 2059 
L 3022 2063 
z
" transform="scale(0.015625)"/>
       <path id="DejaVuSans-73" d="M 2834 3397 
L 2834 2853 
Q 2591 2978 2328 3040 
Q 2066 3103 1784 3103 
Q 1356 3103 1142 2972 
Q 928 2841 928 2578 
Q 928 2378 1081 2264 
Q 1234 2150 1697 2047 
L 1894 2003 
Q 2506 1872 2764 1633 
Q 3022 1394 3022 966 
Q 3022 478 2636 193 
Q 2250 -91 1575 -91 
Q 1294 -91 989 -36 
Q 684 19 347 128 
L 347 722 
Q 666 556 975 473 
Q 1284 391 1588 391 
Q 1994 391 2212 530 
Q 2431 669 2431 922 
Q 2431 1156 2273 1281 
Q 2116 1406 1581 1522 
L 1381 1569 
Q 847 1681 609 1914 
Q 372 2147 372 2553 
Q 372 3047 722 3315 
Q 1072 3584 1716 3584 
Q 2034 3584 2315 3537 
Q 2597 3491 2834 3397 
z
" transform="scale(0.015625)"/>
      </defs>
      <use xlink:href="#DejaVuSans-43"/>
      <use xlink:href="#DejaVuSans-68" x="69.824219"/>
      <use xlink:href="#DejaVuSans-75" x="133.203125"/>
      <use xlink:href="#DejaVuSans-63" x="196.582031"/>
      <use xlink:href="#DejaVuSans-6b" x="251.5625"/>
      <use xlink:href="#DejaVuSans-20" x="309.472656"/>
      <use xlink:href="#DejaVuSans-4a" x="341.259766"/>
      <use xlink:href="#DejaVuSans-6f" x="370.751953"/>
      <use xlink:href="#DejaVuSans-6e" x="431.933594"/>
      <use xlink:href="#DejaVuSans-65" x="495.3125"/>
      <use xlink:href="#DejaVuSans-73" x="556.835938"/>
     </g>
    </g>
   </g>
   <g id="text_2">
    <g id="patch_3">
     <path d="M 435.13876 209.108665 
L 494.38126 209.108665 
L 494.38126 192.478352 
L 435.13876 192.478352 
z
" clip-path="url(#pc223082055)" style="fill: #ffffff; opacity: 0.7; stroke: #000000; stroke-linejoin: miter"/>
    </g>
    <g clip-path="url(#pc223082055)">
     <!-- Friz Freleng -->
     <g transform="translate(439.09876 203.276946)scale(0.09 -0.09)">
      <defs>
       <path id="DejaVuSans-46" d="M 628 4666 
L 3309 4666 
L 3309 4134 
L 1259 4134 
L 1259 2759 
L 3109 2759 
L 3109 2228 
L 1259 2228 
L 1259 0 
L 628 0 
L 628 4666 
z
" transform="scale(0.015625)"/>
       <path id="DejaVuSans-72" d="M 2631 2963 
Q 2534 3019 2420 3045 
Q 2306 3072 2169 3072 
Q 1681 3072 1420 2755 
Q 1159 2438 1159 1844 
L 1159 0 
L 581 0 
L 581 3500 
L 1159 3500 
L 1159 2956 
Q 1341 3275 1631 3429 
Q 1922 3584 2338 3584 
Q 2397 3584 2469 3576 
Q 2541 3569 2628 3553 
L 2631 2963 
z
" transform="scale(0.015625)"/>
       <path id="DejaVuSans-69" d="M 603 3500 
L 1178 3500 
L 1178 0 
L 603 0 
L 603 3500 
z
M 603 4863 
L 1178 4863 
L 1178 4134 
L 603 4134 
L 603 4863 
z
" transform="scale(0.015625)"/>
       <path id="DejaVuSans-7a" d="M 353 3500 
L 3084 3500 
L 3084 2975 
L 922 459 
L 3084 459 
L 3084 0 
L 275 0 
L 275 525 
L 2438 3041 
L 353 3041 
L 353 3500 
z
" transform="scale(0.015625)"/>
       <path id="DejaVuSans-6c" d="M 603 4863 
L 1178 4863 
L 1178 0 
L 603 0 
L 603 4863 
z
" transform="scale(0.015625)"/>
       <path id="DejaVuSans-67" d="M 2906 1791 
Q 2906 2416 2648 2759 
Q 2391 3103 1925 3103 
Q 1463 3103 1205 2759 
Q 947 2416 947 1791 
Q 947 1169 1205 825 
Q 1463 481 1925 481 
Q 2391 481 2648 825 
Q 2906 1169 2906 1791 
z
M 3481 434 
Q 3481 -459 3084 -895 
Q 2688 -1331 1869 -1331 
Q 1566 -1331 1297 -1286 
Q 1028 -1241 775 -1147 
L 775 -588 
Q 1028 -725 1275 -790 
Q 1522 -856 1778 -856 
Q 2344 -856 2625 -561 
Q 2906 -266 2906 331 
L 2906 616 
Q 2728 306 2450 153 
Q 2172 0 1784 0 
Q 1141 0 747 490 
Q 353 981 353 1791 
Q 353 2603 747 3093 
Q 1141 3584 1784 3584 
Q 2172 3584 2450 3431 
Q 2728 3278 2906 2969 
L 2906 3500 
L 3481 3500 
L 3481 434 
z
" transform="scale(0.015625)"/>
      </defs>
      <use xlink:href="#DejaVuSans-46"/>
      <use xlink:href="#DejaVuSans-72" x="50.269531"/>
      <use xlink:href="#DejaVuSans-69" x="91.382812"/>
      <use xlink:href="#DejaVuSans-7a" x="119.166016"/>
      <use xlink:href="#DejaVuSans-20" x="171.65625"/>
      <use xlink:href="#DejaVuSans-46" x="203.443359"/>
      <use xlink:href="#DejaVuSans-72" x="253.712891"/>
      <use xlink:href="#DejaVuSans-65" x="292.576172"/>
      <use xlink:href="#DejaVuSans-6c" x="354.099609"/>
      <use xlink:href="#DejaVuSans-65" x="381.882812"/>
      <use xlink:href="#DejaVuSans-6e" x="443.40625"/>
      <use xlink:href="#DejaVuSans-67" x="506.785156"/>
     </g>
    </g>
   </g>
   <g id="text_3">
    <g id="patch_4">
     <path d="M 378.525511 136.980958 
L 450.217542 136.980958 
L 450.217542 120.350645 
L 378.525511 120.350645 
z
" clip-path="url(#pc223082055)" style="fill: #ffffff; opacity: 0.7; stroke: #000000; stroke-linejoin: miter"/>
    </g>
    <g clip-path="url(#pc223082055)">
     <!-- Michael Curtiz -->
     <g transform="translate(382.485511 131.149239)scale(0.09 -0.09)">
      <defs>
       <path id="DejaVuSans-4d" d="M 628 4666 
L 1569 4666 
L 2759 1491 
L 3956 4666 
L 4897 4666 
L 4897 0 
L 4281 0 
L 4281 4097 
L 3078 897 
L 2444 897 
L 1241 4097 
L 1241 0 
L 628 0 
L 628 4666 
z
" transform="scale(0.015625)"/>
       <path id="DejaVuSans-61" d="M 2194 1759 
Q 1497 1759 1228 1600 
Q 959 1441 959 1056 
Q 959 750 1161 570 
Q 1363 391 1709 391 
Q 2188 391 2477 730 
Q 2766 1069 2766 1631 
L 2766 1759 
L 2194 1759 
z
M 3341 1997 
L 3341 0 
L 2766 0 
L 2766 531 
Q 2569 213 2275 61 
Q 1981 -91 1556 -91 
Q 1019 -91 701 211 
Q 384 513 384 1019 
Q 384 1609 779 1909 
Q 1175 2209 1959 2209 
L 2766 2209 
L 2766 2266 
Q 2766 2663 2505 2880 
Q 2244 3097 1772 3097 
Q 1472 3097 1187 3025 
Q 903 2953 641 2809 
L 641 3341 
Q 956 3463 1253 3523 
Q 1550 3584 1831 3584 
Q 2591 3584 2966 3190 
Q 3341 2797 3341 1997 
z
" transform="scale(0.015625)"/>
       <path id="DejaVuSans-74" d="M 1172 4494 
L 1172 3500 
L 2356 3500 
L 2356 3053 
L 1172 3053 
L 1172 1153 
Q 1172 725 1289 603 
Q 1406 481 1766 481 
L 2356 481 
L 2356 0 
L 1766 0 
Q 1100 0 847 248 
Q 594 497 594 1153 
L 594 3053 
L 172 3053 
L 172 3500 
L 594 3500 
L 594 4494 
L 1172 4494 
z
" transform="scale(0.015625)"/>
      </defs>
      <use xlink:href="#DejaVuSans-4d"/>
      <use xlink:href="#DejaVuSans-69" x="86.279297"/>
      <use xlink:href="#DejaVuSans-63" x="114.0625"/>
      <use xlink:href="#DejaVuSans-68" x="169.042969"/>
      <use xlink:href="#DejaVuSans-61" x="232.421875"/>
      <use xlink:href="#DejaVuSans-65" x="293.701172"/>
      <use xlink:href="#DejaVuSans-6c" x="355.224609"/>
      <use xlink:href="#DejaVuSans-20" x="383.007812"/>
      <use xlink:href="#DejaVuSans-43" x="414.794922"/>
      <use xlink:href="#DejaVuSans-75" x="484.619141"/>
      <use xlink:href="#DejaVuSans-72" x="547.998047"/>
      <use xlink:href="#DejaVuSans-74" x="589.111328"/>
      <use xlink:href="#DejaVuSans-69" x="628.320312"/>
      <use xlink:href="#DejaVuSans-7a" x="656.103516"/>
     </g>
    </g>
   </g>
   <g id="text_4">
    <g id="patch_5">
     <path d="M 308.328994 92.403594 
L 371.932275 92.403594 
L 371.932275 75.773281 
L 308.328994 75.773281 
z
" clip-path="url(#pc223082055)" style="fill: #ffffff; opacity: 0.7; stroke: #000000; stroke-linejoin: miter"/>
    </g>
    <g clip-path="url(#pc223082055)">
     <!-- Woody Allen -->
     <g transform="translate(312.288994 86.571875)scale(0.09 -0.09)">
      <defs>
       <path id="DejaVuSans-57" d="M 213 4666 
L 850 4666 
L 1831 722 
L 2809 4666 
L 3519 4666 
L 4500 722 
L 5478 4666 
L 6119 4666 
L 4947 0 
L 4153 0 
L 3169 4050 
L 2175 0 
L 1381 0 
L 213 4666 
z
" transform="scale(0.015625)"/>
       <path id="DejaVuSans-64" d="M 2906 2969 
L 2906 4863 
L 3481 4863 
L 3481 0 
L 2906 0 
L 2906 525 
Q 2725 213 2448 61 
Q 2172 -91 1784 -91 
Q 1150 -91 751 415 
Q 353 922 353 1747 
Q 353 2572 751 3078 
Q 1150 3584 1784 3584 
Q 2172 3584 2448 3432 
Q 2725 3281 2906 2969 
z
M 947 1747 
Q 947 1113 1208 752 
Q 1469 391 1925 391 
Q 2381 391 2643 752 
Q 2906 1113 2906 1747 
Q 2906 2381 2643 2742 
Q 2381 3103 1925 3103 
Q 1469 3103 1208 2742 
Q 947 2381 947 1747 
z
" transform="scale(0.015625)"/>
       <path id="DejaVuSans-79" d="M 2059 -325 
Q 1816 -950 1584 -1140 
Q 1353 -1331 966 -1331 
L 506 -1331 
L 506 -850 
L 844 -850 
Q 1081 -850 1212 -737 
Q 1344 -625 1503 -206 
L 1606 56 
L 191 3500 
L 800 3500 
L 1894 763 
L 2988 3500 
L 3597 3500 
L 2059 -325 
z
" transform="scale(0.015625)"/>
       <path id="DejaVuSans-41" d="M 2188 4044 
L 1331 1722 
L 3047 1722 
L 2188 4044 
z
M 1831 4666 
L 2547 4666 
L 4325 0 
L 3669 0 
L 3244 1197 
L 1141 1197 
L 716 0 
L 50 0 
L 1831 4666 
z
" transform="scale(0.015625)"/>
      </defs>
      <use xlink:href="#DejaVuSans-57"/>
      <use xlink:href="#DejaVuSans-6f" x="93.001953"/>
      <use xlink:href="#DejaVuSans-6f" x="154.183594"/>
      <use xlink:href="#DejaVuSans-64" x="215.365234"/>
      <use xlink:href="#DejaVuSans-79" x="278.841797"/>
      <use xlink:href="#DejaVuSans-20" x="338.021484"/>
      <use xlink:href="#DejaVuSans-41" x="369.808594"/>
      <use xlink:href="#DejaVuSans-6c" x="438.216797"/>
      <use xlink:href="#DejaVuSans-6c" x="466"/>
      <use xlink:href="#DejaVuSans-65" x="493.783203"/>
      <use xlink:href="#DejaVuSans-6e" x="555.306641"/>
     </g>
    </g>
   </g>
   <g id="text_5">
    <g id="patch_6">
     <path d="M 215.558305 83.084387 
L 294.19018 83.084387 
L 294.19018 66.454075 
L 215.558305 66.454075 
z
" clip-path="url(#pc223082055)" style="fill: #ffffff; opacity: 0.7; stroke: #000000; stroke-linejoin: miter"/>
    </g>
    <g clip-path="url(#pc223082055)">
     <!-- Charles Chaplin -->
     <g transform="translate(219.518305 77.252668)scale(0.09 -0.09)">
      <defs>
       <path id="DejaVuSans-70" d="M 1159 525 
L 1159 -1331 
L 581 -1331 
L 581 3500 
L 1159 3500 
L 1159 2969 
Q 1341 3281 1617 3432 
Q 1894 3584 2278 3584 
Q 2916 3584 3314 3078 
Q 3713 2572 3713 1747 
Q 3713 922 3314 415 
Q 2916 -91 2278 -91 
Q 1894 -91 1617 61 
Q 1341 213 1159 525 
z
M 3116 1747 
Q 3116 2381 2855 2742 
Q 2594 3103 2138 3103 
Q 1681 3103 1420 2742 
Q 1159 2381 1159 1747 
Q 1159 1113 1420 752 
Q 1681 391 2138 391 
Q 2594 391 2855 752 
Q 3116 1113 3116 1747 
z
" transform="scale(0.015625)"/>
      </defs>
      <use xlink:href="#DejaVuSans-43"/>
      <use xlink:href="#DejaVuSans-68" x="69.824219"/>
      <use xlink:href="#DejaVuSans-61" x="133.203125"/>
      <use xlink:href="#DejaVuSans-72" x="194.482422"/>
      <use xlink:href="#DejaVuSans-6c" x="235.595703"/>
      <use xlink:href="#DejaVuSans-65" x="263.378906"/>
      <use xlink:href="#DejaVuSans-73" x="324.902344"/>
      <use xlink:href="#DejaVuSans-20" x="377.001953"/>
      <use xlink:href="#DejaVuSans-43" x="408.789062"/>
      <use xlink:href="#DejaVuSans-68" x="478.613281"/>
      <use xlink:href="#DejaVuSans-61" x="541.992188"/>
      <use xlink:href="#DejaVuSans-70" x="603.271484"/>
      <use xlink:href="#DejaVuSans-6c" x="666.748047"/>
      <use xlink:href="#DejaVuSans-69" x="694.53125"/>
      <use xlink:href="#DejaVuSans-6e" x="722.314453"/>
     </g>
    </g>
   </g>
   <g id="text_6">
    <g id="patch_7">
     <path d="M 131.81881 110.634724 
L 214.869122 110.634724 
L 214.869122 94.004411 
L 131.81881 94.004411 
z
" clip-path="url(#pc223082055)" style="fill: #ffffff; opacity: 0.7; stroke: #000000; stroke-linejoin: miter"/>
    </g>
    <g clip-path="url(#pc223082055)">
     <!-- Henry Hathaway -->
     <g transform="translate(135.77881 104.803005)scale(0.09 -0.09)">
      <defs>
       <path id="DejaVuSans-48" d="M 628 4666 
L 1259 4666 
L 1259 2753 
L 3553 2753 
L 3553 4666 
L 4184 4666 
L 4184 0 
L 3553 0 
L 3553 2222 
L 1259 2222 
L 1259 0 
L 628 0 
L 628 4666 
z
" transform="scale(0.015625)"/>
       <path id="DejaVuSans-77" d="M 269 3500 
L 844 3500 
L 1563 769 
L 2278 3500 
L 2956 3500 
L 3675 769 
L 4391 3500 
L 4966 3500 
L 4050 0 
L 3372 0 
L 2619 2869 
L 1863 0 
L 1184 0 
L 269 3500 
z
" transform="scale(0.015625)"/>
      </defs>
      <use xlink:href="#DejaVuSans-48"/>
      <use xlink:href="#DejaVuSans-65" x="75.195312"/>
      <use xlink:href="#DejaVuSans-6e" x="136.71875"/>
      <use xlink:href="#DejaVuSans-72" x="200.097656"/>
      <use xlink:href="#DejaVuSans-79" x="241.210938"/>
      <use xlink:href="#DejaVuSans-20" x="300.390625"/>
      <use xlink:href="#DejaVuSans-48" x="332.177734"/>
      <use xlink:href="#DejaVuSans-61" x="407.373047"/>
      <use xlink:href="#DejaVuSans-74" x="468.652344"/>
      <use xlink:href="#DejaVuSans-68" x="507.861328"/>
      <use xlink:href="#DejaVuSans-61" x="571.240234"/>
      <use xlink:href="#DejaVuSans-77" x="632.519531"/>
      <use xlink:href="#DejaVuSans-61" x="714.306641"/>
      <use xlink:href="#DejaVuSans-79" x="775.585938"/>
     </g>
    </g>
   </g>
   <g id="text_7">
    <g id="patch_8">
     <path d="M 78.5555 170.290885 
L 140.718782 170.290885 
L 140.718782 153.660572 
L 78.5555 153.660572 
z
" clip-path="url(#pc223082055)" style="fill: #ffffff; opacity: 0.7; stroke: #000000; stroke-linejoin: miter"/>
    </g>
    <g clip-path="url(#pc223082055)">
     <!-- Frank Capra -->
     <g transform="translate(82.5155 164.459166)scale(0.09 -0.09)">
      <use xlink:href="#DejaVuSans-46"/>
      <use xlink:href="#DejaVuSans-72" x="50.269531"/>
      <use xlink:href="#DejaVuSans-61" x="91.382812"/>
      <use xlink:href="#DejaVuSans-6e" x="152.662109"/>
      <use xlink:href="#DejaVuSans-6b" x="216.041016"/>
      <use xlink:href="#DejaVuSans-20" x="273.951172"/>
      <use xlink:href="#DejaVuSans-43" x="305.738281"/>
      <use xlink:href="#DejaVuSans-61" x="375.5625"/>
      <use xlink:href="#DejaVuSans-70" x="436.841797"/>
      <use xlink:href="#DejaVuSans-72" x="500.318359"/>
      <use xlink:href="#DejaVuSans-61" x="541.431641"/>
     </g>
    </g>
   </g>
   <g id="text_8">
    <g id="patch_9">
     <path d="M 32.199231 251.737805 
L 117.339231 251.737805 
L 117.339231 235.107493 
L 32.199231 235.107493 
z
" clip-path="url(#pc223082055)" style="fill: #ffffff; opacity: 0.7; stroke: #000000; stroke-linejoin: miter"/>
    </g>
    <g clip-path="url(#pc223082055)">
     <!-- Vincent Sherman -->
     <g transform="translate(36.159231 245.906086)scale(0.09 -0.09)">
      <defs>
       <path id="DejaVuSans-56" d="M 1831 0 
L 50 4666 
L 709 4666 
L 2188 738 
L 3669 4666 
L 4325 4666 
L 2547 0 
L 1831 0 
z
" transform="scale(0.015625)"/>
       <path id="DejaVuSans-53" d="M 3425 4513 
L 3425 3897 
Q 3066 4069 2747 4153 
Q 2428 4238 2131 4238 
Q 1616 4238 1336 4038 
Q 1056 3838 1056 3469 
Q 1056 3159 1242 3001 
Q 1428 2844 1947 2747 
L 2328 2669 
Q 3034 2534 3370 2195 
Q 3706 1856 3706 1288 
Q 3706 609 3251 259 
Q 2797 -91 1919 -91 
Q 1588 -91 1214 -16 
Q 841 59 441 206 
L 441 856 
Q 825 641 1194 531 
Q 1563 422 1919 422 
Q 2459 422 2753 634 
Q 3047 847 3047 1241 
Q 3047 1584 2836 1778 
Q 2625 1972 2144 2069 
L 1759 2144 
Q 1053 2284 737 2584 
Q 422 2884 422 3419 
Q 422 4038 858 4394 
Q 1294 4750 2059 4750 
Q 2388 4750 2728 4690 
Q 3069 4631 3425 4513 
z
" transform="scale(0.015625)"/>
       <path id="DejaVuSans-6d" d="M 3328 2828 
Q 3544 3216 3844 3400 
Q 4144 3584 4550 3584 
Q 5097 3584 5394 3201 
Q 5691 2819 5691 2113 
L 5691 0 
L 5113 0 
L 5113 2094 
Q 5113 2597 4934 2840 
Q 4756 3084 4391 3084 
Q 3944 3084 3684 2787 
Q 3425 2491 3425 1978 
L 3425 0 
L 2847 0 
L 2847 2094 
Q 2847 2600 2669 2842 
Q 2491 3084 2119 3084 
Q 1678 3084 1418 2786 
Q 1159 2488 1159 1978 
L 1159 0 
L 581 0 
L 581 3500 
L 1159 3500 
L 1159 2956 
Q 1356 3278 1631 3431 
Q 1906 3584 2284 3584 
Q 2666 3584 2933 3390 
Q 3200 3197 3328 2828 
z
" transform="scale(0.015625)"/>
      </defs>
      <use xlink:href="#DejaVuSans-56"/>
      <use xlink:href="#DejaVuSans-69" x="66.158203"/>
      <use xlink:href="#DejaVuSans-6e" x="93.941406"/>
      <use xlink:href="#DejaVuSans-63" x="157.320312"/>
      <use xlink:href="#DejaVuSans-65" x="212.300781"/>
      <use xlink:href="#DejaVuSans-6e" x="273.824219"/>
      <use xlink:href="#DejaVuSans-74" x="337.203125"/>
      <use xlink:href="#DejaVuSans-20" x="376.412109"/>
      <use xlink:href="#DejaVuSans-53" x="408.199219"/>
      <use xlink:href="#DejaVuSans-68" x="471.675781"/>
      <use xlink:href="#DejaVuSans-65" x="535.054688"/>
      <use xlink:href="#DejaVuSans-72" x="596.578125"/>
      <use xlink:href="#DejaVuSans-6d" x="635.941406"/>
      <use xlink:href="#DejaVuSans-61" x="733.353516"/>
      <use xlink:href="#DejaVuSans-6e" x="794.632812"/>
     </g>
    </g>
   </g>
   <g id="text_9">
    <g id="patch_10">
     <path d="M 39.932915 340.892546 
L 109.605571 340.892546 
L 109.605571 324.262233 
L 39.932915 324.262233 
z
" clip-path="url(#pc223082055)" style="fill: #ffffff; opacity: 0.7; stroke: #000000; stroke-linejoin: miter"/>
    </g>
    <g clip-path="url(#pc223082055)">
     <!-- George Cukor -->
     <g transform="translate(43.892915 335.060827)scale(0.09 -0.09)">
      <defs>
       <path id="DejaVuSans-47" d="M 3809 666 
L 3809 1919 
L 2778 1919 
L 2778 2438 
L 4434 2438 
L 4434 434 
Q 4069 175 3628 42 
Q 3188 -91 2688 -91 
Q 1594 -91 976 548 
Q 359 1188 359 2328 
Q 359 3472 976 4111 
Q 1594 4750 2688 4750 
Q 3144 4750 3555 4637 
Q 3966 4525 4313 4306 
L 4313 3634 
Q 3963 3931 3569 4081 
Q 3175 4231 2741 4231 
Q 1884 4231 1454 3753 
Q 1025 3275 1025 2328 
Q 1025 1384 1454 906 
Q 1884 428 2741 428 
Q 3075 428 3337 486 
Q 3600 544 3809 666 
z
" transform="scale(0.015625)"/>
      </defs>
      <use xlink:href="#DejaVuSans-47"/>
      <use xlink:href="#DejaVuSans-65" x="77.490234"/>
      <use xlink:href="#DejaVuSans-6f" x="139.013672"/>
      <use xlink:href="#DejaVuSans-72" x="200.195312"/>
      <use xlink:href="#DejaVuSans-67" x="239.558594"/>
      <use xlink:href="#DejaVuSans-65" x="303.035156"/>
      <use xlink:href="#DejaVuSans-20" x="364.558594"/>
      <use xlink:href="#DejaVuSans-43" x="396.345703"/>
      <use xlink:href="#DejaVuSans-75" x="466.169922"/>
      <use xlink:href="#DejaVuSans-6b" x="529.548828"/>
      <use xlink:href="#DejaVuSans-6f" x="583.833984"/>
      <use xlink:href="#DejaVuSans-72" x="645.015625"/>
     </g>
    </g>
   </g>
   <g id="text_10">
    <g id="patch_11">
     <path d="M 71.415981 422.33944 
L 147.858325 422.33944 
L 147.858325 405.709128 
L 71.415981 405.709128 
z
" clip-path="url(#pc223082055)" style="fill: #ffffff; opacity: 0.7; stroke: #000000; stroke-linejoin: miter"/>
    </g>
    <g clip-path="url(#pc223082055)">
     <!-- Joseph Barbera -->
     <g transform="translate(75.375981 416.507722)scale(0.09 -0.09)">
      <defs>
       <path id="DejaVuSans-42" d="M 1259 2228 
L 1259 519 
L 2272 519 
Q 2781 519 3026 730 
Q 3272 941 3272 1375 
Q 3272 1813 3026 2020 
Q 2781 2228 2272 2228 
L 1259 2228 
z
M 1259 4147 
L 1259 2741 
L 2194 2741 
Q 2656 2741 2882 2914 
Q 3109 3088 3109 3444 
Q 3109 3797 2882 3972 
Q 2656 4147 2194 4147 
L 1259 4147 
z
M 628 4666 
L 2241 4666 
Q 2963 4666 3353 4366 
Q 3744 4066 3744 3513 
Q 3744 3084 3544 2831 
Q 3344 2578 2956 2516 
Q 3422 2416 3680 2098 
Q 3938 1781 3938 1306 
Q 3938 681 3513 340 
Q 3088 0 2303 0 
L 628 0 
L 628 4666 
z
" transform="scale(0.015625)"/>
       <path id="DejaVuSans-62" d="M 3116 1747 
Q 3116 2381 2855 2742 
Q 2594 3103 2138 3103 
Q 1681 3103 1420 2742 
Q 1159 2381 1159 1747 
Q 1159 1113 1420 752 
Q 1681 391 2138 391 
Q 2594 391 2855 752 
Q 3116 1113 3116 1747 
z
M 1159 2969 
Q 1341 3281 1617 3432 
Q 1894 3584 2278 3584 
Q 2916 3584 3314 3078 
Q 3713 2572 3713 1747 
Q 3713 922 3314 415 
Q 2916 -91 2278 -91 
Q 1894 -91 1617 61 
Q 1341 213 1159 525 
L 1159 0 
L 581 0 
L 581 4863 
L 1159 4863 
L 1159 2969 
z
" transform="scale(0.015625)"/>
      </defs>
      <use xlink:href="#DejaVuSans-4a"/>
      <use xlink:href="#DejaVuSans-6f" x="29.492188"/>
      <use xlink:href="#DejaVuSans-73" x="90.673828"/>
      <use xlink:href="#DejaVuSans-65" x="142.773438"/>
      <use xlink:href="#DejaVuSans-70" x="204.296875"/>
      <use xlink:href="#DejaVuSans-68" x="267.773438"/>
      <use xlink:href="#DejaVuSans-20" x="331.152344"/>
      <use xlink:href="#DejaVuSans-42" x="362.939453"/>
      <use xlink:href="#DejaVuSans-61" x="431.542969"/>
      <use xlink:href="#DejaVuSans-72" x="492.822266"/>
      <use xlink:href="#DejaVuSans-62" x="533.935547"/>
      <use xlink:href="#DejaVuSans-65" x="597.412109"/>
      <use xlink:href="#DejaVuSans-72" x="658.935547"/>
      <use xlink:href="#DejaVuSans-61" x="700.048828"/>
     </g>
    </g>
   </g>
   <g id="text_11">
    <g id="patch_12">
     <path d="M 136.86095 481.995602 
L 209.827044 481.995602 
L 209.827044 465.365289 
L 136.86095 465.365289 
z
" clip-path="url(#pc223082055)" style="fill: #ffffff; opacity: 0.7; stroke: #000000; stroke-linejoin: miter"/>
    </g>
    <g clip-path="url(#pc223082055)">
     <!-- William Hanna -->
     <g transform="translate(140.82095 476.163883)scale(0.09 -0.09)">
      <use xlink:href="#DejaVuSans-57"/>
      <use xlink:href="#DejaVuSans-69" x="96.626953"/>
      <use xlink:href="#DejaVuSans-6c" x="124.410156"/>
      <use xlink:href="#DejaVuSans-6c" x="152.193359"/>
      <use xlink:href="#DejaVuSans-69" x="179.976562"/>
      <use xlink:href="#DejaVuSans-61" x="207.759766"/>
      <use xlink:href="#DejaVuSans-6d" x="269.039062"/>
      <use xlink:href="#DejaVuSans-20" x="366.451172"/>
      <use xlink:href="#DejaVuSans-48" x="398.238281"/>
      <use xlink:href="#DejaVuSans-61" x="473.433594"/>
      <use xlink:href="#DejaVuSans-6e" x="534.712891"/>
      <use xlink:href="#DejaVuSans-6e" x="598.091797"/>
      <use xlink:href="#DejaVuSans-61" x="661.470703"/>
     </g>
    </g>
   </g>
   <g id="text_12">
    <g id="patch_13">
     <path d="M 217.033498 509.545925 
L 292.715061 509.545925 
L 292.715061 492.915613 
L 217.033498 492.915613 
z
" clip-path="url(#pc223082055)" style="fill: #ffffff; opacity: 0.7; stroke: #000000; stroke-linejoin: miter"/>
    </g>
    <g clip-path="url(#pc223082055)">
     <!-- Stephen Frears -->
     <g transform="translate(220.993498 503.714207)scale(0.09 -0.09)">
      <use xlink:href="#DejaVuSans-53"/>
      <use xlink:href="#DejaVuSans-74" x="63.476562"/>
      <use xlink:href="#DejaVuSans-65" x="102.685547"/>
      <use xlink:href="#DejaVuSans-70" x="164.208984"/>
      <use xlink:href="#DejaVuSans-68" x="227.685547"/>
      <use xlink:href="#DejaVuSans-65" x="291.064453"/>
      <use xlink:href="#DejaVuSans-6e" x="352.587891"/>
      <use xlink:href="#DejaVuSans-20" x="415.966797"/>
      <use xlink:href="#DejaVuSans-46" x="447.753906"/>
      <use xlink:href="#DejaVuSans-72" x="498.023438"/>
      <use xlink:href="#DejaVuSans-65" x="536.886719"/>
      <use xlink:href="#DejaVuSans-61" x="598.410156"/>
      <use xlink:href="#DejaVuSans-72" x="659.689453"/>
      <use xlink:href="#DejaVuSans-73" x="700.802734"/>
     </g>
    </g>
   </g>
   <g id="text_13">
    <g id="patch_14">
     <path d="M 298.579494 500.226706 
L 381.681837 500.226706 
L 381.681837 483.596393 
L 298.579494 483.596393 
z
" clip-path="url(#pc223082055)" style="fill: #ffffff; opacity: 0.7; stroke: #000000; stroke-linejoin: miter"/>
    </g>
    <g clip-path="url(#pc223082055)">
     <!-- Edward Dmytryk -->
     <g transform="translate(302.539494 494.394987)scale(0.09 -0.09)">
      <defs>
       <path id="DejaVuSans-45" d="M 628 4666 
L 3578 4666 
L 3578 4134 
L 1259 4134 
L 1259 2753 
L 3481 2753 
L 3481 2222 
L 1259 2222 
L 1259 531 
L 3634 531 
L 3634 0 
L 628 0 
L 628 4666 
z
" transform="scale(0.015625)"/>
       <path id="DejaVuSans-44" d="M 1259 4147 
L 1259 519 
L 2022 519 
Q 2988 519 3436 956 
Q 3884 1394 3884 2338 
Q 3884 3275 3436 3711 
Q 2988 4147 2022 4147 
L 1259 4147 
z
M 628 4666 
L 1925 4666 
Q 3281 4666 3915 4102 
Q 4550 3538 4550 2338 
Q 4550 1131 3912 565 
Q 3275 0 1925 0 
L 628 0 
L 628 4666 
z
" transform="scale(0.015625)"/>
      </defs>
      <use xlink:href="#DejaVuSans-45"/>
      <use xlink:href="#DejaVuSans-64" x="63.183594"/>
      <use xlink:href="#DejaVuSans-77" x="126.660156"/>
      <use xlink:href="#DejaVuSans-61" x="208.447266"/>
      <use xlink:href="#DejaVuSans-72" x="269.726562"/>
      <use xlink:href="#DejaVuSans-64" x="309.089844"/>
      <use xlink:href="#DejaVuSans-20" x="372.566406"/>
      <use xlink:href="#DejaVuSans-44" x="404.353516"/>
      <use xlink:href="#DejaVuSans-6d" x="481.355469"/>
      <use xlink:href="#DejaVuSans-79" x="578.767578"/>
      <use xlink:href="#DejaVuSans-74" x="637.947266"/>
      <use xlink:href="#DejaVuSans-72" x="677.15625"/>
      <use xlink:href="#DejaVuSans-79" x="718.269531"/>
      <use xlink:href="#DejaVuSans-6b" x="777.449219"/>
     </g>
    </g>
   </g>
   <g id="text_14">
    <g id="patch_15">
     <path d="M 371.17297 455.649316 
L 457.570157 455.649316 
L 457.570157 439.019004 
L 371.17297 439.019004 
z
" clip-path="url(#pc223082055)" style="fill: #ffffff; opacity: 0.7; stroke: #000000; stroke-linejoin: miter"/>
    </g>
    <g clip-path="url(#pc223082055)">
     <!-- Robert McKimson -->
     <g transform="translate(375.13297 449.817598)scale(0.09 -0.09)">
      <defs>
       <path id="DejaVuSans-52" d="M 2841 2188 
Q 3044 2119 3236 1894 
Q 3428 1669 3622 1275 
L 4263 0 
L 3584 0 
L 2988 1197 
Q 2756 1666 2539 1819 
Q 2322 1972 1947 1972 
L 1259 1972 
L 1259 0 
L 628 0 
L 628 4666 
L 2053 4666 
Q 2853 4666 3247 4331 
Q 3641 3997 3641 3322 
Q 3641 2881 3436 2590 
Q 3231 2300 2841 2188 
z
M 1259 4147 
L 1259 2491 
L 2053 2491 
Q 2509 2491 2742 2702 
Q 2975 2913 2975 3322 
Q 2975 3731 2742 3939 
Q 2509 4147 2053 4147 
L 1259 4147 
z
" transform="scale(0.015625)"/>
       <path id="DejaVuSans-4b" d="M 628 4666 
L 1259 4666 
L 1259 2694 
L 3353 4666 
L 4166 4666 
L 1850 2491 
L 4331 0 
L 3500 0 
L 1259 2247 
L 1259 0 
L 628 0 
L 628 4666 
z
" transform="scale(0.015625)"/>
      </defs>
      <use xlink:href="#DejaVuSans-52"/>
      <use xlink:href="#DejaVuSans-6f" x="64.982422"/>
      <use xlink:href="#DejaVuSans-62" x="126.164062"/>
      <use xlink:href="#DejaVuSans-65" x="189.640625"/>
      <use xlink:href="#DejaVuSans-72" x="251.164062"/>
      <use xlink:href="#DejaVuSans-74" x="292.277344"/>
      <use xlink:href="#DejaVuSans-20" x="331.486328"/>
      <use xlink:href="#DejaVuSans-4d" x="363.273438"/>
      <use xlink:href="#DejaVuSans-63" x="449.552734"/>
      <use xlink:href="#DejaVuSans-4b" x="504.533203"/>
      <use xlink:href="#DejaVuSans-69" x="570.109375"/>
      <use xlink:href="#DejaVuSans-6d" x="597.892578"/>
      <use xlink:href="#DejaVuSans-73" x="695.304688"/>
      <use xlink:href="#DejaVuSans-6f" x="747.404297"/>
      <use xlink:href="#DejaVuSans-6e" x="808.585938"/>
     </g>
    </g>
   </g>
   <g id="text_15">
    <g id="patch_16">
     <path d="M 439.778707 383.521616 
L 489.741363 383.521616 
L 489.741363 366.891303 
L 439.778707 366.891303 
z
" clip-path="url(#pc223082055)" style="fill: #ffffff; opacity: 0.7; stroke: #000000; stroke-linejoin: miter"/>
    </g>
    <g clip-path="url(#pc223082055)">
     <!-- John Ford -->
     <g transform="translate(443.738707 377.689897)scale(0.09 -0.09)">
      <use xlink:href="#DejaVuSans-4a"/>
      <use xlink:href="#DejaVuSans-6f" x="29.492188"/>
      <use xlink:href="#DejaVuSans-68" x="90.673828"/>
      <use xlink:href="#DejaVuSans-6e" x="154.052734"/>
      <use xlink:href="#DejaVuSans-20" x="217.431641"/>
      <use xlink:href="#DejaVuSans-46" x="249.21875"/>
      <use xlink:href="#DejaVuSans-6f" x="303.113281"/>
      <use xlink:href="#DejaVuSans-72" x="364.294922"/>
      <use xlink:href="#DejaVuSans-64" x="403.658203"/>
     </g>
    </g>
   </g>
   <g id="text_16">
    <!-- Impactful directors for World cinema genre - Importance rank: 7 -->
    <g transform="translate(95.53125 4.8)scale(0.12 -0.12)">
     <defs>
      <path id="DejaVuSans-49" d="M 628 4666 
L 1259 4666 
L 1259 0 
L 628 0 
L 628 4666 
z
" transform="scale(0.015625)"/>
      <path id="DejaVuSans-66" d="M 2375 4863 
L 2375 4384 
L 1825 4384 
Q 1516 4384 1395 4259 
Q 1275 4134 1275 3809 
L 1275 3500 
L 2222 3500 
L 2222 3053 
L 1275 3053 
L 1275 0 
L 697 0 
L 697 3053 
L 147 3053 
L 147 3500 
L 697 3500 
L 697 3744 
Q 697 4328 969 4595 
Q 1241 4863 1831 4863 
L 2375 4863 
z
" transform="scale(0.015625)"/>
      <path id="DejaVuSans-2d" d="M 313 2009 
L 1997 2009 
L 1997 1497 
L 313 1497 
L 313 2009 
z
" transform="scale(0.015625)"/>
      <path id="DejaVuSans-3a" d="M 750 794 
L 1409 794 
L 1409 0 
L 750 0 
L 750 794 
z
M 750 3309 
L 1409 3309 
L 1409 2516 
L 750 2516 
L 750 3309 
z
" transform="scale(0.015625)"/>
      <path id="DejaVuSans-37" d="M 525 4666 
L 3525 4666 
L 3525 4397 
L 1831 0 
L 1172 0 
L 2766 4134 
L 525 4134 
L 525 4666 
z
" transform="scale(0.015625)"/>
     </defs>
     <use xlink:href="#DejaVuSans-49"/>
     <use xlink:href="#DejaVuSans-6d" x="29.492188"/>
     <use xlink:href="#DejaVuSans-70" x="126.904297"/>
     <use xlink:href="#DejaVuSans-61" x="190.380859"/>
     <use xlink:href="#DejaVuSans-63" x="251.660156"/>
     <use xlink:href="#DejaVuSans-74" x="306.640625"/>
     <use xlink:href="#DejaVuSans-66" x="345.849609"/>
     <use xlink:href="#DejaVuSans-75" x="381.054688"/>
     <use xlink:href="#DejaVuSans-6c" x="444.433594"/>
     <use xlink:href="#DejaVuSans-20" x="472.216797"/>
     <use xlink:href="#DejaVuSans-64" x="504.003906"/>
     <use xlink:href="#DejaVuSans-69" x="567.480469"/>
     <use xlink:href="#DejaVuSans-72" x="595.263672"/>
     <use xlink:href="#DejaVuSans-65" x="634.126953"/>
     <use xlink:href="#DejaVuSans-63" x="695.650391"/>
     <use xlink:href="#DejaVuSans-74" x="750.630859"/>
     <use xlink:href="#DejaVuSans-6f" x="789.839844"/>
     <use xlink:href="#DejaVuSans-72" x="851.021484"/>
     <use xlink:href="#DejaVuSans-73" x="892.134766"/>
     <use xlink:href="#DejaVuSans-20" x="944.234375"/>
     <use xlink:href="#DejaVuSans-66" x="976.021484"/>
     <use xlink:href="#DejaVuSans-6f" x="1011.226562"/>
     <use xlink:href="#DejaVuSans-72" x="1072.408203"/>
     <use xlink:href="#DejaVuSans-20" x="1113.521484"/>
     <use xlink:href="#DejaVuSans-57" x="1145.308594"/>
     <use xlink:href="#DejaVuSans-6f" x="1238.310547"/>
     <use xlink:href="#DejaVuSans-72" x="1299.492188"/>
     <use xlink:href="#DejaVuSans-6c" x="1340.605469"/>
     <use xlink:href="#DejaVuSans-64" x="1368.388672"/>
     <use xlink:href="#DejaVuSans-20" x="1431.865234"/>
     <use xlink:href="#DejaVuSans-63" x="1463.652344"/>
     <use xlink:href="#DejaVuSans-69" x="1518.632812"/>
     <use xlink:href="#DejaVuSans-6e" x="1546.416016"/>
     <use xlink:href="#DejaVuSans-65" x="1609.794922"/>
     <use xlink:href="#DejaVuSans-6d" x="1671.318359"/>
     <use xlink:href="#DejaVuSans-61" x="1768.730469"/>
     <use xlink:href="#DejaVuSans-20" x="1830.009766"/>
     <use xlink:href="#DejaVuSans-67" x="1861.796875"/>
     <use xlink:href="#DejaVuSans-65" x="1925.273438"/>
     <use xlink:href="#DejaVuSans-6e" x="1986.796875"/>
     <use xlink:href="#DejaVuSans-72" x="2050.175781"/>
     <use xlink:href="#DejaVuSans-65" x="2089.039062"/>
     <use xlink:href="#DejaVuSans-20" x="2150.5625"/>
     <use xlink:href="#DejaVuSans-2d" x="2182.349609"/>
     <use xlink:href="#DejaVuSans-20" x="2218.433594"/>
     <use xlink:href="#DejaVuSans-49" x="2250.220703"/>
     <use xlink:href="#DejaVuSans-6d" x="2279.712891"/>
     <use xlink:href="#DejaVuSans-70" x="2377.125"/>
     <use xlink:href="#DejaVuSans-6f" x="2440.601562"/>
     <use xlink:href="#DejaVuSans-72" x="2501.783203"/>
     <use xlink:href="#DejaVuSans-74" x="2542.896484"/>
     <use xlink:href="#DejaVuSans-61" x="2582.105469"/>
     <use xlink:href="#DejaVuSans-6e" x="2643.384766"/>
     <use xlink:href="#DejaVuSans-63" x="2706.763672"/>
     <use xlink:href="#DejaVuSans-65" x="2761.744141"/>
     <use xlink:href="#DejaVuSans-20" x="2823.267578"/>
     <use xlink:href="#DejaVuSans-72" x="2855.054688"/>
     <use xlink:href="#DejaVuSans-61" x="2896.167969"/>
     <use xlink:href="#DejaVuSans-6e" x="2957.447266"/>
     <use xlink:href="#DejaVuSans-6b" x="3020.826172"/>
     <use xlink:href="#DejaVuSans-3a" x="3078.736328"/>
     <use xlink:href="#DejaVuSans-20" x="3112.427734"/>
     <use xlink:href="#DejaVuSans-37" x="3144.214844"/>
    </g>
   </g>
  </g>
 </g>
 <defs>
  <clipPath id="pc223082055">
   <rect x="10.8" y="10.8" width="554.4" height="554.4"/>
  </clipPath>
 </defs>
</svg>
