<?xml version="1.0" encoding="utf-8" standalone="no"?>
<!DOCTYPE svg PUBLIC "-//W3C//DTD SVG 1.1//EN"
  "http://www.w3.org/Graphics/SVG/1.1/DTD/svg11.dtd">
<svg xmlns:xlink="http://www.w3.org/1999/xlink" width="576pt" height="576pt" viewBox="0 0 576 576" xmlns="http://www.w3.org/2000/svg" version="1.1">
 <metadata>
  <rdf:RDF xmlns:dc="http://purl.org/dc/elements/1.1/" xmlns:cc="http://creativecommons.org/ns#" xmlns:rdf="http://www.w3.org/1999/02/22-rdf-syntax-ns#">
   <cc:Work>
    <dc:type rdf:resource="http://purl.org/dc/dcmitype/StillImage"/>
    <dc:date>2022-12-22T16:13:08.896989</dc:date>
    <dc:format>image/svg+xml</dc:format>
    <dc:creator>
     <cc:Agent>
      <dc:title>Matplotlib v3.5.2, https://matplotlib.org/</dc:title>
     </cc:Agent>
    </dc:creator>
   </cc:Work>
  </rdf:RDF>
 </metadata>
 <defs>
  <style type="text/css">*{stroke-linejoin: round; stroke-linecap: butt}</style>
 </defs>
 <g id="figure_1">
  <g id="patch_1">
   <path d="M 0 576 
L 576 576 
L 576 0 
L 0 0 
z
" style="fill: #ffffff"/>
  </g>
  <g id="axes_1">
   <g id="PathCollection_1">
    <path d="M 501.230769 315.386128 
C 508.493655 315.386128 515.46005 312.500553 520.595686 307.364917 
C 525.731322 302.229281 528.616897 295.262886 528.616897 288 
C 528.616897 280.737114 525.731322 273.770719 520.595686 268.635083 
C 515.46005 263.499447 508.493655 260.613872 501.230769 260.613872 
C 493.967883 260.613872 487.001488 263.499447 481.865852 268.635083 
C 476.730217 273.770719 473.844641 280.737114 473.844641 288 
C 473.844641 295.262886 476.730217 302.229281 481.865852 307.364917 
C 487.001488 312.500553 493.967883 315.386128 501.230769 315.386128 
z
" clip-path="url(#p8f04d4704d)" style="fill: #d62728; fill-opacity: 0.99; stroke: #d62728; stroke-opacity: 0.99"/>
    <path d="M 482.592348 225.190061 
C 489.062389 225.190061 495.268305 222.619486 499.843315 218.044476 
C 504.418325 213.469466 506.9889 207.26355 506.9889 200.793508 
C 506.9889 194.323467 504.418325 188.117551 499.843315 183.542541 
C 495.268305 178.967531 489.062389 176.396956 482.592348 176.396956 
C 476.122307 176.396956 469.91639 178.967531 465.34138 183.542541 
C 460.76637 188.117551 458.195796 194.323467 458.195796 200.793508 
C 458.195796 207.26355 460.76637 213.469466 465.34138 218.044476 
C 469.91639 222.619486 476.122307 225.190061 482.592348 225.190061 
z
" clip-path="url(#p8f04d4704d)" style="fill: #d62728; fill-opacity: 0.99; stroke: #d62728; stroke-opacity: 0.99"/>
    <path d="M 429.89985 151.795301 
C 436.033865 151.795301 441.917472 149.358231 446.254875 145.020827 
C 450.592279 140.683424 453.029349 134.799816 453.029349 128.665802 
C 453.029349 122.531787 450.592279 116.64818 446.254875 112.310776 
C 441.917472 107.973373 436.033865 105.536303 429.89985 105.536303 
C 423.765835 105.536303 417.882228 107.973373 413.544824 112.310776 
C 409.207421 116.64818 406.770351 122.531787 406.770351 128.665802 
C 406.770351 134.799816 409.207421 140.683424 413.544824 145.020827 
C 417.882228 149.358231 423.765835 151.795301 429.89985 151.795301 
z
" clip-path="url(#p8f04d4704d)" style="fill: #d62728; fill-opacity: 0.99; stroke: #d62728; stroke-opacity: 0.99"/>
    <path d="M 352.264291 106.851974 
C 358.301252 106.851974 364.091766 104.453464 368.360542 100.184689 
C 372.629318 95.915913 375.027827 90.125398 375.027827 84.088438 
C 375.027827 78.051477 372.629318 72.260962 368.360542 67.992187 
C 364.091766 63.723411 358.301252 61.324901 352.264291 61.324901 
C 346.227331 61.324901 340.436816 63.723411 336.16804 67.992187 
C 331.899265 72.260962 329.500755 78.051477 329.500755 84.088438 
C 329.500755 90.125398 331.899265 95.915913 336.16804 100.184689 
C 340.436816 104.453464 346.227331 106.851974 352.264291 106.851974 
z
" clip-path="url(#p8f04d4704d)" style="fill: #d62728; fill-opacity: 0.99; stroke: #d62728; stroke-opacity: 0.99"/>
    <path d="M 263.109549 97.524817 
C 269.144401 97.524817 274.932893 95.127145 279.200178 90.85986 
C 283.467463 86.592575 285.865135 80.804083 285.865135 74.769231 
C 285.865135 68.734379 283.467463 62.945886 279.200178 58.678602 
C 274.932893 54.411317 269.144401 52.013645 263.109549 52.013645 
C 257.074697 52.013645 251.286204 54.411317 247.018919 58.678602 
C 242.751635 62.945886 240.353963 68.734379 240.353963 74.769231 
C 240.353963 80.804083 242.751635 86.592575 247.018919 90.85986 
C 251.286204 95.127145 257.074697 97.524817 263.109549 97.524817 
z
" clip-path="url(#p8f04d4704d)" style="fill: #d62728; fill-opacity: 0.99; stroke: #d62728; stroke-opacity: 0.99"/>
    <path d="M 177.851298 124.013518 
C 183.604601 124.013518 189.123038 121.727707 193.191238 117.659507 
C 197.259438 113.591308 199.545249 108.07287 199.545249 102.319567 
C 199.545249 96.566264 197.259438 91.047827 193.191238 86.979627 
C 189.123038 82.911428 183.604601 80.625616 177.851298 80.625616 
C 172.097995 80.625616 166.579558 82.911428 162.511358 86.979627 
C 158.443158 91.047827 156.157347 96.566264 156.157347 102.319567 
C 156.157347 108.07287 158.443158 113.591308 162.511358 117.659507 
C 166.579558 121.727707 172.097995 124.013518 177.851298 124.013518 
z
" clip-path="url(#p8f04d4704d)" style="fill: #d62728; fill-opacity: 0.99; stroke: #d62728; stroke-opacity: 0.99"/>
    <path d="M 111.231477 182.919821 
C 116.785915 182.919821 122.113606 180.71302 126.041187 176.785439 
C 129.968768 172.857858 132.17557 167.530167 132.17557 161.975729 
C 132.17557 156.42129 129.968768 151.0936 126.041187 147.166019 
C 122.113606 143.238438 116.785915 141.031636 111.231477 141.031636 
C 105.677039 141.031636 100.349348 143.238438 96.421767 147.166019 
C 92.494186 151.0936 90.287384 156.42129 90.287384 161.975729 
C 90.287384 167.530167 92.494186 172.857858 96.421767 176.785439 
C 100.349348 180.71302 105.677039 182.919821 111.231477 182.919821 
z
" clip-path="url(#p8f04d4704d)" style="fill: #d62728; fill-opacity: 0.99; stroke: #d62728; stroke-opacity: 0.99"/>
    <path d="M 74.769231 264.087251 
C 80.249547 264.087251 85.506142 261.909898 89.381311 258.034729 
C 93.25648 254.15956 95.433833 248.902965 95.433833 243.422649 
C 95.433833 237.942332 93.25648 232.685738 89.381311 228.810569 
C 85.506142 224.9354 80.249547 222.758047 74.769231 222.758047 
C 69.288914 222.758047 64.03232 224.9354 60.157151 228.810569 
C 56.281982 232.685738 54.104629 237.942332 54.104629 243.422649 
C 54.104629 248.902965 56.281982 254.15956 60.157151 258.034729 
C 64.03232 261.909898 69.288914 264.087251 74.769231 264.087251 
z
" clip-path="url(#p8f04d4704d)" style="fill: #d62728; fill-opacity: 0.99; stroke: #d62728; stroke-opacity: 0.99"/>
    <path d="M 74.769244 352.971651 
C 80.177865 352.971651 85.365691 350.822783 89.190164 346.99831 
C 93.014637 343.173837 95.163505 337.986011 95.163505 332.577389 
C 95.163505 327.168768 93.014637 321.980942 89.190164 318.156469 
C 85.365691 314.331996 80.177865 312.183128 74.769244 312.183128 
C 69.360622 312.183128 64.172796 314.331996 60.348323 318.156469 
C 56.52385 321.980942 54.374982 327.168768 54.374982 332.577389 
C 54.374982 337.986011 56.52385 343.173837 60.348323 346.99831 
C 64.172796 350.822783 69.360622 352.971651 74.769244 352.971651 
z
" clip-path="url(#p8f04d4704d)" style="fill: #d62728; fill-opacity: 0.99; stroke: #d62728; stroke-opacity: 0.99"/>
    <path d="M 111.23149 434.306422 
C 116.610376 434.306422 121.76968 432.169368 125.573127 428.365921 
C 129.376573 424.562474 131.513627 419.40317 131.513627 414.024284 
C 131.513627 408.645398 129.376573 403.486094 125.573127 399.682647 
C 121.76968 395.8792 116.610376 393.742147 111.23149 393.742147 
C 105.852604 393.742147 100.693299 395.8792 96.889853 399.682647 
C 93.086406 403.486094 90.949352 408.645398 90.949352 414.024284 
C 90.949352 419.40317 93.086406 424.562474 96.889853 428.365921 
C 100.693299 432.169368 105.852604 434.306422 111.23149 434.306422 
z
" clip-path="url(#p8f04d4704d)" style="fill: #d62728; fill-opacity: 0.99; stroke: #d62728; stroke-opacity: 0.99"/>
    <path d="M 177.85133 493.898387 
C 183.213191 493.898387 188.356165 491.768097 192.147573 487.976689 
C 195.938982 484.185281 198.069271 479.042306 198.069271 473.680446 
C 198.069271 468.318585 195.938982 463.17561 192.147573 459.384202 
C 188.356165 455.592794 183.213191 453.462504 177.85133 453.462504 
C 172.48947 453.462504 167.346495 455.592794 163.555087 459.384202 
C 159.763679 463.17561 157.633389 468.318585 157.633389 473.680446 
C 157.633389 479.042306 159.763679 484.185281 163.555087 487.976689 
C 167.346495 491.768097 172.48947 493.898387 177.85133 493.898387 
z
" clip-path="url(#p8f04d4704d)" style="fill: #d62728; fill-opacity: 0.99; stroke: #d62728; stroke-opacity: 0.99"/>
    <path d="M 263.109587 521.297459 
C 268.431335 521.297459 273.535835 519.183106 277.298879 515.420062 
C 281.061924 511.657017 283.176277 506.552518 283.176277 501.230769 
C 283.176277 495.909021 281.061924 490.804521 277.298879 487.041477 
C 273.535835 483.278433 268.431335 481.16408 263.109587 481.16408 
C 257.787839 481.16408 252.683339 483.278433 248.920295 487.041477 
C 245.157251 490.804521 243.042898 495.909021 243.042898 501.230769 
C 243.042898 506.552518 245.157251 511.657017 248.920295 515.420062 
C 252.683339 519.183106 257.787839 521.297459 263.109587 521.297459 
z
" clip-path="url(#p8f04d4704d)" style="fill: #d62728; fill-opacity: 0.99; stroke: #d62728; stroke-opacity: 0.99"/>
    <path d="M 352.264323 511.782108 
C 357.534057 511.782108 362.588666 509.688421 366.31493 505.962156 
C 370.041195 502.235892 372.134882 497.181283 372.134882 491.91155 
C 372.134882 486.641816 370.041195 481.587207 366.31493 477.860943 
C 362.588666 474.134678 357.534057 472.040991 352.264323 472.040991 
C 346.99459 472.040991 341.939981 474.134678 338.213717 477.860943 
C 334.487452 481.587207 332.393765 486.641816 332.393765 491.91155 
C 332.393765 497.181283 334.487452 502.235892 338.213717 505.962156 
C 341.939981 509.688421 346.99459 511.782108 352.264323 511.782108 
z
" clip-path="url(#p8f04d4704d)" style="fill: #d62728; fill-opacity: 0.99; stroke: #d62728; stroke-opacity: 0.99"/>
    <path d="M 429.899888 466.700792 
C 435.035979 466.700792 439.9624 464.660201 443.594165 461.028436 
C 447.225929 457.396672 449.26652 452.470251 449.26652 447.33416 
C 449.26652 442.198069 447.225929 437.271648 443.594165 433.639884 
C 439.9624 430.008119 435.035979 427.967529 429.899888 427.967529 
C 424.763798 427.967529 419.837377 430.008119 416.205612 433.639884 
C 412.573847 437.271648 410.533257 442.198069 410.533257 447.33416 
C 410.533257 452.470251 412.573847 457.396672 416.205612 461.028436 
C 419.837377 464.660201 424.763798 466.700792 429.899888 466.700792 
z
" clip-path="url(#p8f04d4704d)" style="fill: #d62728; fill-opacity: 0.99; stroke: #d62728; stroke-opacity: 0.99"/>
    <path d="M 482.592374 394.571376 
C 487.728009 394.571376 492.653994 392.530967 496.285437 388.899524 
C 499.91688 385.268081 501.95729 380.342096 501.95729 375.20646 
C 501.95729 370.070824 499.91688 365.144839 496.285437 361.513396 
C 492.653994 357.881953 487.728009 355.841543 482.592374 355.841543 
C 477.456738 355.841543 472.530753 357.881953 468.89931 361.513396 
C 465.267867 365.144839 463.227457 370.070824 463.227457 375.20646 
C 463.227457 380.342096 465.267867 385.268081 468.89931 388.899524 
C 472.530753 392.530967 477.456738 394.571376 482.592374 394.571376 
z
" clip-path="url(#p8f04d4704d)" style="fill: #d62728; fill-opacity: 0.99; stroke: #d62728; stroke-opacity: 0.99"/>
   </g>
   <g id="text_1">
    <g id="patch_2">
     <path d="M 470.329832 296.315156 
L 532.131707 296.315156 
L 532.131707 279.684844 
L 470.329832 279.684844 
z
" clip-path="url(#p8f04d4704d)" style="fill: #ffffff; opacity: 0.7; stroke: #000000; stroke-linejoin: miter"/>
    </g>
    <g clip-path="url(#p8f04d4704d)">
     <!-- Satyajit Ray -->
     <g transform="translate(474.289832 290.483437)scale(0.09 -0.09)">
      <defs>
       <path id="DejaVuSans-53" d="M 3425 4513 
L 3425 3897 
Q 3066 4069 2747 4153 
Q 2428 4238 2131 4238 
Q 1616 4238 1336 4038 
Q 1056 3838 1056 3469 
Q 1056 3159 1242 3001 
Q 1428 2844 1947 2747 
L 2328 2669 
Q 3034 2534 3370 2195 
Q 3706 1856 3706 1288 
Q 3706 609 3251 259 
Q 2797 -91 1919 -91 
Q 1588 -91 1214 -16 
Q 841 59 441 206 
L 441 856 
Q 825 641 1194 531 
Q 1563 422 1919 422 
Q 2459 422 2753 634 
Q 3047 847 3047 1241 
Q 3047 1584 2836 1778 
Q 2625 1972 2144 2069 
L 1759 2144 
Q 1053 2284 737 2584 
Q 422 2884 422 3419 
Q 422 4038 858 4394 
Q 1294 4750 2059 4750 
Q 2388 4750 2728 4690 
Q 3069 4631 3425 4513 
z
" transform="scale(0.015625)"/>
       <path id="DejaVuSans-61" d="M 2194 1759 
Q 1497 1759 1228 1600 
Q 959 1441 959 1056 
Q 959 750 1161 570 
Q 1363 391 1709 391 
Q 2188 391 2477 730 
Q 2766 1069 2766 1631 
L 2766 1759 
L 2194 1759 
z
M 3341 1997 
L 3341 0 
L 2766 0 
L 2766 531 
Q 2569 213 2275 61 
Q 1981 -91 1556 -91 
Q 1019 -91 701 211 
Q 384 513 384 1019 
Q 384 1609 779 1909 
Q 1175 2209 1959 2209 
L 2766 2209 
L 2766 2266 
Q 2766 2663 2505 2880 
Q 2244 3097 1772 3097 
Q 1472 3097 1187 3025 
Q 903 2953 641 2809 
L 641 3341 
Q 956 3463 1253 3523 
Q 1550 3584 1831 3584 
Q 2591 3584 2966 3190 
Q 3341 2797 3341 1997 
z
" transform="scale(0.015625)"/>
       <path id="DejaVuSans-74" d="M 1172 4494 
L 1172 3500 
L 2356 3500 
L 2356 3053 
L 1172 3053 
L 1172 1153 
Q 1172 725 1289 603 
Q 1406 481 1766 481 
L 2356 481 
L 2356 0 
L 1766 0 
Q 1100 0 847 248 
Q 594 497 594 1153 
L 594 3053 
L 172 3053 
L 172 3500 
L 594 3500 
L 594 4494 
L 1172 4494 
z
" transform="scale(0.015625)"/>
       <path id="DejaVuSans-79" d="M 2059 -325 
Q 1816 -950 1584 -1140 
Q 1353 -1331 966 -1331 
L 506 -1331 
L 506 -850 
L 844 -850 
Q 1081 -850 1212 -737 
Q 1344 -625 1503 -206 
L 1606 56 
L 191 3500 
L 800 3500 
L 1894 763 
L 2988 3500 
L 3597 3500 
L 2059 -325 
z
" transform="scale(0.015625)"/>
       <path id="DejaVuSans-6a" d="M 603 3500 
L 1178 3500 
L 1178 -63 
Q 1178 -731 923 -1031 
Q 669 -1331 103 -1331 
L -116 -1331 
L -116 -844 
L 38 -844 
Q 366 -844 484 -692 
Q 603 -541 603 -63 
L 603 3500 
z
M 603 4863 
L 1178 4863 
L 1178 4134 
L 603 4134 
L 603 4863 
z
" transform="scale(0.015625)"/>
       <path id="DejaVuSans-69" d="M 603 3500 
L 1178 3500 
L 1178 0 
L 603 0 
L 603 3500 
z
M 603 4863 
L 1178 4863 
L 1178 4134 
L 603 4134 
L 603 4863 
z
" transform="scale(0.015625)"/>
       <path id="DejaVuSans-20" transform="scale(0.015625)"/>
       <path id="DejaVuSans-52" d="M 2841 2188 
Q 3044 2119 3236 1894 
Q 3428 1669 3622 1275 
L 4263 0 
L 3584 0 
L 2988 1197 
Q 2756 1666 2539 1819 
Q 2322 1972 1947 1972 
L 1259 1972 
L 1259 0 
L 628 0 
L 628 4666 
L 2053 4666 
Q 2853 4666 3247 4331 
Q 3641 3997 3641 3322 
Q 3641 2881 3436 2590 
Q 3231 2300 2841 2188 
z
M 1259 4147 
L 1259 2491 
L 2053 2491 
Q 2509 2491 2742 2702 
Q 2975 2913 2975 3322 
Q 2975 3731 2742 3939 
Q 2509 4147 2053 4147 
L 1259 4147 
z
" transform="scale(0.015625)"/>
      </defs>
      <use xlink:href="#DejaVuSans-53"/>
      <use xlink:href="#DejaVuSans-61" x="63.476562"/>
      <use xlink:href="#DejaVuSans-74" x="124.755859"/>
      <use xlink:href="#DejaVuSans-79" x="163.964844"/>
      <use xlink:href="#DejaVuSans-61" x="223.144531"/>
      <use xlink:href="#DejaVuSans-6a" x="284.423828"/>
      <use xlink:href="#DejaVuSans-69" x="312.207031"/>
      <use xlink:href="#DejaVuSans-74" x="339.990234"/>
      <use xlink:href="#DejaVuSans-20" x="379.199219"/>
      <use xlink:href="#DejaVuSans-52" x="410.986328"/>
      <use xlink:href="#DejaVuSans-61" x="478.21875"/>
      <use xlink:href="#DejaVuSans-79" x="539.498047"/>
     </g>
    </g>
   </g>
   <g id="text_2">
    <g id="patch_3">
     <path d="M 464.074145 209.108665 
L 501.110551 209.108665 
L 501.110551 192.478352 
L 464.074145 192.478352 
z
" clip-path="url(#p8f04d4704d)" style="fill: #ffffff; opacity: 0.7; stroke: #000000; stroke-linejoin: miter"/>
    </g>
    <g clip-path="url(#p8f04d4704d)">
     <!-- Gulzar -->
     <g transform="translate(468.034145 203.276946)scale(0.09 -0.09)">
      <defs>
       <path id="DejaVuSans-47" d="M 3809 666 
L 3809 1919 
L 2778 1919 
L 2778 2438 
L 4434 2438 
L 4434 434 
Q 4069 175 3628 42 
Q 3188 -91 2688 -91 
Q 1594 -91 976 548 
Q 359 1188 359 2328 
Q 359 3472 976 4111 
Q 1594 4750 2688 4750 
Q 3144 4750 3555 4637 
Q 3966 4525 4313 4306 
L 4313 3634 
Q 3963 3931 3569 4081 
Q 3175 4231 2741 4231 
Q 1884 4231 1454 3753 
Q 1025 3275 1025 2328 
Q 1025 1384 1454 906 
Q 1884 428 2741 428 
Q 3075 428 3337 486 
Q 3600 544 3809 666 
z
" transform="scale(0.015625)"/>
       <path id="DejaVuSans-75" d="M 544 1381 
L 544 3500 
L 1119 3500 
L 1119 1403 
Q 1119 906 1312 657 
Q 1506 409 1894 409 
Q 2359 409 2629 706 
Q 2900 1003 2900 1516 
L 2900 3500 
L 3475 3500 
L 3475 0 
L 2900 0 
L 2900 538 
Q 2691 219 2414 64 
Q 2138 -91 1772 -91 
Q 1169 -91 856 284 
Q 544 659 544 1381 
z
M 1991 3584 
L 1991 3584 
z
" transform="scale(0.015625)"/>
       <path id="DejaVuSans-6c" d="M 603 4863 
L 1178 4863 
L 1178 0 
L 603 0 
L 603 4863 
z
" transform="scale(0.015625)"/>
       <path id="DejaVuSans-7a" d="M 353 3500 
L 3084 3500 
L 3084 2975 
L 922 459 
L 3084 459 
L 3084 0 
L 275 0 
L 275 525 
L 2438 3041 
L 353 3041 
L 353 3500 
z
" transform="scale(0.015625)"/>
       <path id="DejaVuSans-72" d="M 2631 2963 
Q 2534 3019 2420 3045 
Q 2306 3072 2169 3072 
Q 1681 3072 1420 2755 
Q 1159 2438 1159 1844 
L 1159 0 
L 581 0 
L 581 3500 
L 1159 3500 
L 1159 2956 
Q 1341 3275 1631 3429 
Q 1922 3584 2338 3584 
Q 2397 3584 2469 3576 
Q 2541 3569 2628 3553 
L 2631 2963 
z
" transform="scale(0.015625)"/>
      </defs>
      <use xlink:href="#DejaVuSans-47"/>
      <use xlink:href="#DejaVuSans-75" x="77.490234"/>
      <use xlink:href="#DejaVuSans-6c" x="140.869141"/>
      <use xlink:href="#DejaVuSans-7a" x="168.652344"/>
      <use xlink:href="#DejaVuSans-61" x="221.142578"/>
      <use xlink:href="#DejaVuSans-72" x="282.421875"/>
     </g>
    </g>
   </g>
   <g id="text_3">
    <g id="patch_4">
     <path d="M 391.348209 136.980958 
L 468.45149 136.980958 
L 468.45149 120.350645 
L 391.348209 120.350645 
z
" clip-path="url(#p8f04d4704d)" style="fill: #ffffff; opacity: 0.7; stroke: #000000; stroke-linejoin: miter"/>
    </g>
    <g clip-path="url(#p8f04d4704d)">
     <!-- Akira Kurosawa -->
     <g transform="translate(395.308209 131.149239)scale(0.09 -0.09)">
      <defs>
       <path id="DejaVuSans-41" d="M 2188 4044 
L 1331 1722 
L 3047 1722 
L 2188 4044 
z
M 1831 4666 
L 2547 4666 
L 4325 0 
L 3669 0 
L 3244 1197 
L 1141 1197 
L 716 0 
L 50 0 
L 1831 4666 
z
" transform="scale(0.015625)"/>
       <path id="DejaVuSans-6b" d="M 581 4863 
L 1159 4863 
L 1159 1991 
L 2875 3500 
L 3609 3500 
L 1753 1863 
L 3688 0 
L 2938 0 
L 1159 1709 
L 1159 0 
L 581 0 
L 581 4863 
z
" transform="scale(0.015625)"/>
       <path id="DejaVuSans-4b" d="M 628 4666 
L 1259 4666 
L 1259 2694 
L 3353 4666 
L 4166 4666 
L 1850 2491 
L 4331 0 
L 3500 0 
L 1259 2247 
L 1259 0 
L 628 0 
L 628 4666 
z
" transform="scale(0.015625)"/>
       <path id="DejaVuSans-6f" d="M 1959 3097 
Q 1497 3097 1228 2736 
Q 959 2375 959 1747 
Q 959 1119 1226 758 
Q 1494 397 1959 397 
Q 2419 397 2687 759 
Q 2956 1122 2956 1747 
Q 2956 2369 2687 2733 
Q 2419 3097 1959 3097 
z
M 1959 3584 
Q 2709 3584 3137 3096 
Q 3566 2609 3566 1747 
Q 3566 888 3137 398 
Q 2709 -91 1959 -91 
Q 1206 -91 779 398 
Q 353 888 353 1747 
Q 353 2609 779 3096 
Q 1206 3584 1959 3584 
z
" transform="scale(0.015625)"/>
       <path id="DejaVuSans-73" d="M 2834 3397 
L 2834 2853 
Q 2591 2978 2328 3040 
Q 2066 3103 1784 3103 
Q 1356 3103 1142 2972 
Q 928 2841 928 2578 
Q 928 2378 1081 2264 
Q 1234 2150 1697 2047 
L 1894 2003 
Q 2506 1872 2764 1633 
Q 3022 1394 3022 966 
Q 3022 478 2636 193 
Q 2250 -91 1575 -91 
Q 1294 -91 989 -36 
Q 684 19 347 128 
L 347 722 
Q 666 556 975 473 
Q 1284 391 1588 391 
Q 1994 391 2212 530 
Q 2431 669 2431 922 
Q 2431 1156 2273 1281 
Q 2116 1406 1581 1522 
L 1381 1569 
Q 847 1681 609 1914 
Q 372 2147 372 2553 
Q 372 3047 722 3315 
Q 1072 3584 1716 3584 
Q 2034 3584 2315 3537 
Q 2597 3491 2834 3397 
z
" transform="scale(0.015625)"/>
       <path id="DejaVuSans-77" d="M 269 3500 
L 844 3500 
L 1563 769 
L 2278 3500 
L 2956 3500 
L 3675 769 
L 4391 3500 
L 4966 3500 
L 4050 0 
L 3372 0 
L 2619 2869 
L 1863 0 
L 1184 0 
L 269 3500 
z
" transform="scale(0.015625)"/>
      </defs>
      <use xlink:href="#DejaVuSans-41"/>
      <use xlink:href="#DejaVuSans-6b" x="68.408203"/>
      <use xlink:href="#DejaVuSans-69" x="126.318359"/>
      <use xlink:href="#DejaVuSans-72" x="154.101562"/>
      <use xlink:href="#DejaVuSans-61" x="195.214844"/>
      <use xlink:href="#DejaVuSans-20" x="256.494141"/>
      <use xlink:href="#DejaVuSans-4b" x="288.28125"/>
      <use xlink:href="#DejaVuSans-75" x="348.857422"/>
      <use xlink:href="#DejaVuSans-72" x="412.236328"/>
      <use xlink:href="#DejaVuSans-6f" x="451.099609"/>
      <use xlink:href="#DejaVuSans-73" x="512.28125"/>
      <use xlink:href="#DejaVuSans-61" x="564.380859"/>
      <use xlink:href="#DejaVuSans-77" x="625.660156"/>
      <use xlink:href="#DejaVuSans-61" x="707.447266"/>
     </g>
    </g>
   </g>
   <g id="text_4">
    <g id="patch_5">
     <path d="M 299.937026 92.403594 
L 404.591557 92.403594 
L 404.591557 75.773281 
L 299.937026 75.773281 
z
" clip-path="url(#p8f04d4704d)" style="fill: #ffffff; opacity: 0.7; stroke: #000000; stroke-linejoin: miter"/>
    </g>
    <g clip-path="url(#p8f04d4704d)">
     <!-- Hrishikesh Mukherjee -->
     <g transform="translate(303.897026 86.571875)scale(0.09 -0.09)">
      <defs>
       <path id="DejaVuSans-48" d="M 628 4666 
L 1259 4666 
L 1259 2753 
L 3553 2753 
L 3553 4666 
L 4184 4666 
L 4184 0 
L 3553 0 
L 3553 2222 
L 1259 2222 
L 1259 0 
L 628 0 
L 628 4666 
z
" transform="scale(0.015625)"/>
       <path id="DejaVuSans-68" d="M 3513 2113 
L 3513 0 
L 2938 0 
L 2938 2094 
Q 2938 2591 2744 2837 
Q 2550 3084 2163 3084 
Q 1697 3084 1428 2787 
Q 1159 2491 1159 1978 
L 1159 0 
L 581 0 
L 581 4863 
L 1159 4863 
L 1159 2956 
Q 1366 3272 1645 3428 
Q 1925 3584 2291 3584 
Q 2894 3584 3203 3211 
Q 3513 2838 3513 2113 
z
" transform="scale(0.015625)"/>
       <path id="DejaVuSans-65" d="M 3597 1894 
L 3597 1613 
L 953 1613 
Q 991 1019 1311 708 
Q 1631 397 2203 397 
Q 2534 397 2845 478 
Q 3156 559 3463 722 
L 3463 178 
Q 3153 47 2828 -22 
Q 2503 -91 2169 -91 
Q 1331 -91 842 396 
Q 353 884 353 1716 
Q 353 2575 817 3079 
Q 1281 3584 2069 3584 
Q 2775 3584 3186 3129 
Q 3597 2675 3597 1894 
z
M 3022 2063 
Q 3016 2534 2758 2815 
Q 2500 3097 2075 3097 
Q 1594 3097 1305 2825 
Q 1016 2553 972 2059 
L 3022 2063 
z
" transform="scale(0.015625)"/>
       <path id="DejaVuSans-4d" d="M 628 4666 
L 1569 4666 
L 2759 1491 
L 3956 4666 
L 4897 4666 
L 4897 0 
L 4281 0 
L 4281 4097 
L 3078 897 
L 2444 897 
L 1241 4097 
L 1241 0 
L 628 0 
L 628 4666 
z
" transform="scale(0.015625)"/>
      </defs>
      <use xlink:href="#DejaVuSans-48"/>
      <use xlink:href="#DejaVuSans-72" x="75.195312"/>
      <use xlink:href="#DejaVuSans-69" x="116.308594"/>
      <use xlink:href="#DejaVuSans-73" x="144.091797"/>
      <use xlink:href="#DejaVuSans-68" x="196.191406"/>
      <use xlink:href="#DejaVuSans-69" x="259.570312"/>
      <use xlink:href="#DejaVuSans-6b" x="287.353516"/>
      <use xlink:href="#DejaVuSans-65" x="341.638672"/>
      <use xlink:href="#DejaVuSans-73" x="403.162109"/>
      <use xlink:href="#DejaVuSans-68" x="455.261719"/>
      <use xlink:href="#DejaVuSans-20" x="518.640625"/>
      <use xlink:href="#DejaVuSans-4d" x="550.427734"/>
      <use xlink:href="#DejaVuSans-75" x="636.707031"/>
      <use xlink:href="#DejaVuSans-6b" x="700.085938"/>
      <use xlink:href="#DejaVuSans-68" x="757.996094"/>
      <use xlink:href="#DejaVuSans-65" x="821.375"/>
      <use xlink:href="#DejaVuSans-72" x="882.898438"/>
      <use xlink:href="#DejaVuSans-6a" x="924.011719"/>
      <use xlink:href="#DejaVuSans-65" x="951.794922"/>
      <use xlink:href="#DejaVuSans-65" x="1013.318359"/>
     </g>
    </g>
   </g>
   <g id="text_5">
    <g id="patch_6">
     <path d="M 228.902517 83.084387 
L 297.31658 83.084387 
L 297.31658 66.454075 
L 228.902517 66.454075 
z
" clip-path="url(#p8f04d4704d)" style="fill: #ffffff; opacity: 0.7; stroke: #000000; stroke-linejoin: miter"/>
    </g>
    <g clip-path="url(#p8f04d4704d)">
     <!-- Peter Jackson -->
     <g transform="translate(232.862517 77.252668)scale(0.09 -0.09)">
      <defs>
       <path id="DejaVuSans-50" d="M 1259 4147 
L 1259 2394 
L 2053 2394 
Q 2494 2394 2734 2622 
Q 2975 2850 2975 3272 
Q 2975 3691 2734 3919 
Q 2494 4147 2053 4147 
L 1259 4147 
z
M 628 4666 
L 2053 4666 
Q 2838 4666 3239 4311 
Q 3641 3956 3641 3272 
Q 3641 2581 3239 2228 
Q 2838 1875 2053 1875 
L 1259 1875 
L 1259 0 
L 628 0 
L 628 4666 
z
" transform="scale(0.015625)"/>
       <path id="DejaVuSans-4a" d="M 628 4666 
L 1259 4666 
L 1259 325 
Q 1259 -519 939 -900 
Q 619 -1281 -91 -1281 
L -331 -1281 
L -331 -750 
L -134 -750 
Q 284 -750 456 -515 
Q 628 -281 628 325 
L 628 4666 
z
" transform="scale(0.015625)"/>
       <path id="DejaVuSans-63" d="M 3122 3366 
L 3122 2828 
Q 2878 2963 2633 3030 
Q 2388 3097 2138 3097 
Q 1578 3097 1268 2742 
Q 959 2388 959 1747 
Q 959 1106 1268 751 
Q 1578 397 2138 397 
Q 2388 397 2633 464 
Q 2878 531 3122 666 
L 3122 134 
Q 2881 22 2623 -34 
Q 2366 -91 2075 -91 
Q 1284 -91 818 406 
Q 353 903 353 1747 
Q 353 2603 823 3093 
Q 1294 3584 2113 3584 
Q 2378 3584 2631 3529 
Q 2884 3475 3122 3366 
z
" transform="scale(0.015625)"/>
       <path id="DejaVuSans-6e" d="M 3513 2113 
L 3513 0 
L 2938 0 
L 2938 2094 
Q 2938 2591 2744 2837 
Q 2550 3084 2163 3084 
Q 1697 3084 1428 2787 
Q 1159 2491 1159 1978 
L 1159 0 
L 581 0 
L 581 3500 
L 1159 3500 
L 1159 2956 
Q 1366 3272 1645 3428 
Q 1925 3584 2291 3584 
Q 2894 3584 3203 3211 
Q 3513 2838 3513 2113 
z
" transform="scale(0.015625)"/>
      </defs>
      <use xlink:href="#DejaVuSans-50"/>
      <use xlink:href="#DejaVuSans-65" x="56.677734"/>
      <use xlink:href="#DejaVuSans-74" x="118.201172"/>
      <use xlink:href="#DejaVuSans-65" x="157.410156"/>
      <use xlink:href="#DejaVuSans-72" x="218.933594"/>
      <use xlink:href="#DejaVuSans-20" x="260.046875"/>
      <use xlink:href="#DejaVuSans-4a" x="291.833984"/>
      <use xlink:href="#DejaVuSans-61" x="321.326172"/>
      <use xlink:href="#DejaVuSans-63" x="382.605469"/>
      <use xlink:href="#DejaVuSans-6b" x="437.585938"/>
      <use xlink:href="#DejaVuSans-73" x="495.496094"/>
      <use xlink:href="#DejaVuSans-6f" x="547.595703"/>
      <use xlink:href="#DejaVuSans-6e" x="608.777344"/>
     </g>
    </g>
   </g>
   <g id="text_6">
    <g id="patch_7">
     <path d="M 149.721376 110.634724 
L 205.98122 110.634724 
L 205.98122 94.004411 
L 149.721376 94.004411 
z
" clip-path="url(#p8f04d4704d)" style="fill: #ffffff; opacity: 0.7; stroke: #000000; stroke-linejoin: miter"/>
    </g>
    <g clip-path="url(#p8f04d4704d)">
     <!-- S. Shankar -->
     <g transform="translate(153.681376 104.803005)scale(0.09 -0.09)">
      <defs>
       <path id="DejaVuSans-2e" d="M 684 794 
L 1344 794 
L 1344 0 
L 684 0 
L 684 794 
z
" transform="scale(0.015625)"/>
      </defs>
      <use xlink:href="#DejaVuSans-53"/>
      <use xlink:href="#DejaVuSans-2e" x="63.476562"/>
      <use xlink:href="#DejaVuSans-20" x="95.263672"/>
      <use xlink:href="#DejaVuSans-53" x="127.050781"/>
      <use xlink:href="#DejaVuSans-68" x="190.527344"/>
      <use xlink:href="#DejaVuSans-61" x="253.90625"/>
      <use xlink:href="#DejaVuSans-6e" x="315.185547"/>
      <use xlink:href="#DejaVuSans-6b" x="378.564453"/>
      <use xlink:href="#DejaVuSans-61" x="434.724609"/>
      <use xlink:href="#DejaVuSans-72" x="496.003906"/>
     </g>
    </g>
   </g>
   <g id="text_7">
    <g id="patch_8">
     <path d="M 86.876633 170.290885 
L 135.586321 170.290885 
L 135.586321 153.660572 
L 86.876633 153.660572 
z
" clip-path="url(#p8f04d4704d)" style="fill: #ffffff; opacity: 0.7; stroke: #000000; stroke-linejoin: miter"/>
    </g>
    <g clip-path="url(#p8f04d4704d)">
     <!-- Mira Nair -->
     <g transform="translate(90.836633 164.459166)scale(0.09 -0.09)">
      <defs>
       <path id="DejaVuSans-4e" d="M 628 4666 
L 1478 4666 
L 3547 763 
L 3547 4666 
L 4159 4666 
L 4159 0 
L 3309 0 
L 1241 3903 
L 1241 0 
L 628 0 
L 628 4666 
z
" transform="scale(0.015625)"/>
      </defs>
      <use xlink:href="#DejaVuSans-4d"/>
      <use xlink:href="#DejaVuSans-69" x="86.279297"/>
      <use xlink:href="#DejaVuSans-72" x="114.0625"/>
      <use xlink:href="#DejaVuSans-61" x="155.175781"/>
      <use xlink:href="#DejaVuSans-20" x="216.455078"/>
      <use xlink:href="#DejaVuSans-4e" x="248.242188"/>
      <use xlink:href="#DejaVuSans-61" x="323.046875"/>
      <use xlink:href="#DejaVuSans-69" x="384.326172"/>
      <use xlink:href="#DejaVuSans-72" x="412.109375"/>
     </g>
    </g>
   </g>
   <g id="text_8">
    <g id="patch_9">
     <path d="M 60.95634 251.737805 
L 88.582121 251.737805 
L 88.582121 235.107493 
L 60.95634 235.107493 
z
" clip-path="url(#p8f04d4704d)" style="fill: #ffffff; opacity: 0.7; stroke: #000000; stroke-linejoin: miter"/>
    </g>
    <g clip-path="url(#p8f04d4704d)">
     <!-- Bala -->
     <g transform="translate(64.91634 245.906086)scale(0.09 -0.09)">
      <defs>
       <path id="DejaVuSans-42" d="M 1259 2228 
L 1259 519 
L 2272 519 
Q 2781 519 3026 730 
Q 3272 941 3272 1375 
Q 3272 1813 3026 2020 
Q 2781 2228 2272 2228 
L 1259 2228 
z
M 1259 4147 
L 1259 2741 
L 2194 2741 
Q 2656 2741 2882 2914 
Q 3109 3088 3109 3444 
Q 3109 3797 2882 3972 
Q 2656 4147 2194 4147 
L 1259 4147 
z
M 628 4666 
L 2241 4666 
Q 2963 4666 3353 4366 
Q 3744 4066 3744 3513 
Q 3744 3084 3544 2831 
Q 3344 2578 2956 2516 
Q 3422 2416 3680 2098 
Q 3938 1781 3938 1306 
Q 3938 681 3513 340 
Q 3088 0 2303 0 
L 628 0 
L 628 4666 
z
" transform="scale(0.015625)"/>
      </defs>
      <use xlink:href="#DejaVuSans-42"/>
      <use xlink:href="#DejaVuSans-61" x="68.603516"/>
      <use xlink:href="#DejaVuSans-6c" x="129.882812"/>
      <use xlink:href="#DejaVuSans-61" x="157.666016"/>
     </g>
    </g>
   </g>
   <g id="text_9">
    <g id="patch_10">
     <path d="M 37.208306 340.892546 
L 112.330181 340.892546 
L 112.330181 324.262233 
L 37.208306 324.262233 
z
" clip-path="url(#p8f04d4704d)" style="fill: #ffffff; opacity: 0.7; stroke: #000000; stroke-linejoin: miter"/>
    </g>
    <g clip-path="url(#p8f04d4704d)">
     <!-- Werner Herzog -->
     <g transform="translate(41.168306 335.060827)scale(0.09 -0.09)">
      <defs>
       <path id="DejaVuSans-57" d="M 213 4666 
L 850 4666 
L 1831 722 
L 2809 4666 
L 3519 4666 
L 4500 722 
L 5478 4666 
L 6119 4666 
L 4947 0 
L 4153 0 
L 3169 4050 
L 2175 0 
L 1381 0 
L 213 4666 
z
" transform="scale(0.015625)"/>
       <path id="DejaVuSans-67" d="M 2906 1791 
Q 2906 2416 2648 2759 
Q 2391 3103 1925 3103 
Q 1463 3103 1205 2759 
Q 947 2416 947 1791 
Q 947 1169 1205 825 
Q 1463 481 1925 481 
Q 2391 481 2648 825 
Q 2906 1169 2906 1791 
z
M 3481 434 
Q 3481 -459 3084 -895 
Q 2688 -1331 1869 -1331 
Q 1566 -1331 1297 -1286 
Q 1028 -1241 775 -1147 
L 775 -588 
Q 1028 -725 1275 -790 
Q 1522 -856 1778 -856 
Q 2344 -856 2625 -561 
Q 2906 -266 2906 331 
L 2906 616 
Q 2728 306 2450 153 
Q 2172 0 1784 0 
Q 1141 0 747 490 
Q 353 981 353 1791 
Q 353 2603 747 3093 
Q 1141 3584 1784 3584 
Q 2172 3584 2450 3431 
Q 2728 3278 2906 2969 
L 2906 3500 
L 3481 3500 
L 3481 434 
z
" transform="scale(0.015625)"/>
      </defs>
      <use xlink:href="#DejaVuSans-57"/>
      <use xlink:href="#DejaVuSans-65" x="93.001953"/>
      <use xlink:href="#DejaVuSans-72" x="154.525391"/>
      <use xlink:href="#DejaVuSans-6e" x="193.888672"/>
      <use xlink:href="#DejaVuSans-65" x="257.267578"/>
      <use xlink:href="#DejaVuSans-72" x="318.791016"/>
      <use xlink:href="#DejaVuSans-20" x="359.904297"/>
      <use xlink:href="#DejaVuSans-48" x="391.691406"/>
      <use xlink:href="#DejaVuSans-65" x="466.886719"/>
      <use xlink:href="#DejaVuSans-72" x="528.410156"/>
      <use xlink:href="#DejaVuSans-7a" x="569.523438"/>
      <use xlink:href="#DejaVuSans-6f" x="622.013672"/>
      <use xlink:href="#DejaVuSans-67" x="683.195312"/>
     </g>
    </g>
   </g>
   <g id="text_10">
    <g id="patch_11">
     <path d="M 75.337662 422.33944 
L 147.125318 422.33944 
L 147.125318 405.709128 
L 75.337662 405.709128 
z
" clip-path="url(#p8f04d4704d)" style="fill: #ffffff; opacity: 0.7; stroke: #000000; stroke-linejoin: miter"/>
    </g>
    <g clip-path="url(#p8f04d4704d)">
     <!-- Aditya Chopra -->
     <g transform="translate(79.297662 416.507722)scale(0.09 -0.09)">
      <defs>
       <path id="DejaVuSans-64" d="M 2906 2969 
L 2906 4863 
L 3481 4863 
L 3481 0 
L 2906 0 
L 2906 525 
Q 2725 213 2448 61 
Q 2172 -91 1784 -91 
Q 1150 -91 751 415 
Q 353 922 353 1747 
Q 353 2572 751 3078 
Q 1150 3584 1784 3584 
Q 2172 3584 2448 3432 
Q 2725 3281 2906 2969 
z
M 947 1747 
Q 947 1113 1208 752 
Q 1469 391 1925 391 
Q 2381 391 2643 752 
Q 2906 1113 2906 1747 
Q 2906 2381 2643 2742 
Q 2381 3103 1925 3103 
Q 1469 3103 1208 2742 
Q 947 2381 947 1747 
z
" transform="scale(0.015625)"/>
       <path id="DejaVuSans-43" d="M 4122 4306 
L 4122 3641 
Q 3803 3938 3442 4084 
Q 3081 4231 2675 4231 
Q 1875 4231 1450 3742 
Q 1025 3253 1025 2328 
Q 1025 1406 1450 917 
Q 1875 428 2675 428 
Q 3081 428 3442 575 
Q 3803 722 4122 1019 
L 4122 359 
Q 3791 134 3420 21 
Q 3050 -91 2638 -91 
Q 1578 -91 968 557 
Q 359 1206 359 2328 
Q 359 3453 968 4101 
Q 1578 4750 2638 4750 
Q 3056 4750 3426 4639 
Q 3797 4528 4122 4306 
z
" transform="scale(0.015625)"/>
       <path id="DejaVuSans-70" d="M 1159 525 
L 1159 -1331 
L 581 -1331 
L 581 3500 
L 1159 3500 
L 1159 2969 
Q 1341 3281 1617 3432 
Q 1894 3584 2278 3584 
Q 2916 3584 3314 3078 
Q 3713 2572 3713 1747 
Q 3713 922 3314 415 
Q 2916 -91 2278 -91 
Q 1894 -91 1617 61 
Q 1341 213 1159 525 
z
M 3116 1747 
Q 3116 2381 2855 2742 
Q 2594 3103 2138 3103 
Q 1681 3103 1420 2742 
Q 1159 2381 1159 1747 
Q 1159 1113 1420 752 
Q 1681 391 2138 391 
Q 2594 391 2855 752 
Q 3116 1113 3116 1747 
z
" transform="scale(0.015625)"/>
      </defs>
      <use xlink:href="#DejaVuSans-41"/>
      <use xlink:href="#DejaVuSans-64" x="66.658203"/>
      <use xlink:href="#DejaVuSans-69" x="130.134766"/>
      <use xlink:href="#DejaVuSans-74" x="157.917969"/>
      <use xlink:href="#DejaVuSans-79" x="197.126953"/>
      <use xlink:href="#DejaVuSans-61" x="256.306641"/>
      <use xlink:href="#DejaVuSans-20" x="317.585938"/>
      <use xlink:href="#DejaVuSans-43" x="349.373047"/>
      <use xlink:href="#DejaVuSans-68" x="419.197266"/>
      <use xlink:href="#DejaVuSans-6f" x="482.576172"/>
      <use xlink:href="#DejaVuSans-70" x="543.757812"/>
      <use xlink:href="#DejaVuSans-72" x="607.234375"/>
      <use xlink:href="#DejaVuSans-61" x="648.347656"/>
     </g>
    </g>
   </g>
   <g id="text_11">
    <g id="patch_12">
     <path d="M 137.776018 481.995602 
L 217.926643 481.995602 
L 217.926643 465.365289 
L 137.776018 465.365289 
z
" clip-path="url(#p8f04d4704d)" style="fill: #ffffff; opacity: 0.7; stroke: #000000; stroke-linejoin: miter"/>
    </g>
    <g clip-path="url(#p8f04d4704d)">
     <!-- Rajkumar Hirani -->
     <g transform="translate(141.736018 476.163883)scale(0.09 -0.09)">
      <defs>
       <path id="DejaVuSans-6d" d="M 3328 2828 
Q 3544 3216 3844 3400 
Q 4144 3584 4550 3584 
Q 5097 3584 5394 3201 
Q 5691 2819 5691 2113 
L 5691 0 
L 5113 0 
L 5113 2094 
Q 5113 2597 4934 2840 
Q 4756 3084 4391 3084 
Q 3944 3084 3684 2787 
Q 3425 2491 3425 1978 
L 3425 0 
L 2847 0 
L 2847 2094 
Q 2847 2600 2669 2842 
Q 2491 3084 2119 3084 
Q 1678 3084 1418 2786 
Q 1159 2488 1159 1978 
L 1159 0 
L 581 0 
L 581 3500 
L 1159 3500 
L 1159 2956 
Q 1356 3278 1631 3431 
Q 1906 3584 2284 3584 
Q 2666 3584 2933 3390 
Q 3200 3197 3328 2828 
z
" transform="scale(0.015625)"/>
      </defs>
      <use xlink:href="#DejaVuSans-52"/>
      <use xlink:href="#DejaVuSans-61" x="67.232422"/>
      <use xlink:href="#DejaVuSans-6a" x="128.511719"/>
      <use xlink:href="#DejaVuSans-6b" x="156.294922"/>
      <use xlink:href="#DejaVuSans-75" x="211.080078"/>
      <use xlink:href="#DejaVuSans-6d" x="274.458984"/>
      <use xlink:href="#DejaVuSans-61" x="371.871094"/>
      <use xlink:href="#DejaVuSans-72" x="433.150391"/>
      <use xlink:href="#DejaVuSans-20" x="474.263672"/>
      <use xlink:href="#DejaVuSans-48" x="506.050781"/>
      <use xlink:href="#DejaVuSans-69" x="581.246094"/>
      <use xlink:href="#DejaVuSans-72" x="609.029297"/>
      <use xlink:href="#DejaVuSans-61" x="650.142578"/>
      <use xlink:href="#DejaVuSans-6e" x="711.421875"/>
      <use xlink:href="#DejaVuSans-69" x="774.800781"/>
     </g>
    </g>
   </g>
   <g id="text_12">
    <g id="patch_13">
     <path d="M 220.772322 509.545925 
L 305.446853 509.545925 
L 305.446853 492.915613 
L 220.772322 492.915613 
z
" clip-path="url(#p8f04d4704d)" style="fill: #ffffff; opacity: 0.7; stroke: #000000; stroke-linejoin: miter"/>
    </g>
    <g clip-path="url(#p8f04d4704d)">
     <!-- Sekhar Kammula -->
     <g transform="translate(224.732322 503.714207)scale(0.09 -0.09)">
      <use xlink:href="#DejaVuSans-53"/>
      <use xlink:href="#DejaVuSans-65" x="63.476562"/>
      <use xlink:href="#DejaVuSans-6b" x="125"/>
      <use xlink:href="#DejaVuSans-68" x="182.910156"/>
      <use xlink:href="#DejaVuSans-61" x="246.289062"/>
      <use xlink:href="#DejaVuSans-72" x="307.568359"/>
      <use xlink:href="#DejaVuSans-20" x="348.681641"/>
      <use xlink:href="#DejaVuSans-4b" x="380.46875"/>
      <use xlink:href="#DejaVuSans-61" x="444.294922"/>
      <use xlink:href="#DejaVuSans-6d" x="505.574219"/>
      <use xlink:href="#DejaVuSans-6d" x="602.986328"/>
      <use xlink:href="#DejaVuSans-75" x="700.398438"/>
      <use xlink:href="#DejaVuSans-6c" x="763.777344"/>
      <use xlink:href="#DejaVuSans-61" x="791.560547"/>
     </g>
    </g>
   </g>
   <g id="text_13">
    <g id="patch_14">
     <path d="M 316.268542 500.226706 
L 388.260105 500.226706 
L 388.260105 483.596393 
L 316.268542 483.596393 
z
" clip-path="url(#p8f04d4704d)" style="fill: #ffffff; opacity: 0.7; stroke: #000000; stroke-linejoin: miter"/>
    </g>
    <g clip-path="url(#p8f04d4704d)">
     <!-- Mansoor Khan -->
     <g transform="translate(320.228542 494.394987)scale(0.09 -0.09)">
      <use xlink:href="#DejaVuSans-4d"/>
      <use xlink:href="#DejaVuSans-61" x="86.279297"/>
      <use xlink:href="#DejaVuSans-6e" x="147.558594"/>
      <use xlink:href="#DejaVuSans-73" x="210.9375"/>
      <use xlink:href="#DejaVuSans-6f" x="263.037109"/>
      <use xlink:href="#DejaVuSans-6f" x="324.21875"/>
      <use xlink:href="#DejaVuSans-72" x="385.400391"/>
      <use xlink:href="#DejaVuSans-20" x="426.513672"/>
      <use xlink:href="#DejaVuSans-4b" x="458.300781"/>
      <use xlink:href="#DejaVuSans-68" x="523.876953"/>
      <use xlink:href="#DejaVuSans-61" x="587.255859"/>
      <use xlink:href="#DejaVuSans-6e" x="648.535156"/>
     </g>
    </g>
   </g>
   <g id="text_14">
    <g id="patch_15">
     <path d="M 393.635513 455.649316 
L 466.164263 455.649316 
L 466.164263 439.019004 
L 393.635513 439.019004 
z
" clip-path="url(#p8f04d4704d)" style="fill: #ffffff; opacity: 0.7; stroke: #000000; stroke-linejoin: miter"/>
    </g>
    <g clip-path="url(#p8f04d4704d)">
     <!-- Kamal Haasan -->
     <g transform="translate(397.595513 449.817598)scale(0.09 -0.09)">
      <use xlink:href="#DejaVuSans-4b"/>
      <use xlink:href="#DejaVuSans-61" x="63.826172"/>
      <use xlink:href="#DejaVuSans-6d" x="125.105469"/>
      <use xlink:href="#DejaVuSans-61" x="222.517578"/>
      <use xlink:href="#DejaVuSans-6c" x="283.796875"/>
      <use xlink:href="#DejaVuSans-20" x="311.580078"/>
      <use xlink:href="#DejaVuSans-48" x="343.367188"/>
      <use xlink:href="#DejaVuSans-61" x="418.5625"/>
      <use xlink:href="#DejaVuSans-61" x="479.841797"/>
      <use xlink:href="#DejaVuSans-73" x="541.121094"/>
      <use xlink:href="#DejaVuSans-61" x="593.220703"/>
      <use xlink:href="#DejaVuSans-6e" x="654.5"/>
     </g>
    </g>
   </g>
   <g id="text_15">
    <g id="patch_16">
     <path d="M 440.724092 383.521616 
L 524.460655 383.521616 
L 524.460655 366.891303 
L 440.724092 366.891303 
z
" clip-path="url(#p8f04d4704d)" style="fill: #ffffff; opacity: 0.7; stroke: #000000; stroke-linejoin: miter"/>
    </g>
    <g clip-path="url(#p8f04d4704d)">
     <!-- Andrei Tarkovsky -->
     <g transform="translate(444.684092 377.689897)scale(0.09 -0.09)">
      <defs>
       <path id="DejaVuSans-54" d="M -19 4666 
L 3928 4666 
L 3928 4134 
L 2272 4134 
L 2272 0 
L 1638 0 
L 1638 4134 
L -19 4134 
L -19 4666 
z
" transform="scale(0.015625)"/>
       <path id="DejaVuSans-76" d="M 191 3500 
L 800 3500 
L 1894 563 
L 2988 3500 
L 3597 3500 
L 2284 0 
L 1503 0 
L 191 3500 
z
" transform="scale(0.015625)"/>
      </defs>
      <use xlink:href="#DejaVuSans-41"/>
      <use xlink:href="#DejaVuSans-6e" x="68.408203"/>
      <use xlink:href="#DejaVuSans-64" x="131.787109"/>
      <use xlink:href="#DejaVuSans-72" x="195.263672"/>
      <use xlink:href="#DejaVuSans-65" x="234.126953"/>
      <use xlink:href="#DejaVuSans-69" x="295.650391"/>
      <use xlink:href="#DejaVuSans-20" x="323.433594"/>
      <use xlink:href="#DejaVuSans-54" x="355.220703"/>
      <use xlink:href="#DejaVuSans-61" x="399.804688"/>
      <use xlink:href="#DejaVuSans-72" x="461.083984"/>
      <use xlink:href="#DejaVuSans-6b" x="502.197266"/>
      <use xlink:href="#DejaVuSans-6f" x="556.482422"/>
      <use xlink:href="#DejaVuSans-76" x="617.664062"/>
      <use xlink:href="#DejaVuSans-73" x="676.84375"/>
      <use xlink:href="#DejaVuSans-6b" x="728.943359"/>
      <use xlink:href="#DejaVuSans-79" x="783.228516"/>
     </g>
    </g>
   </g>
   <g id="text_16">
    <!-- Impactful directors for World cinema genre -->
    <g transform="translate(158.96625 4.8)scale(0.12 -0.12)">
     <defs>
      <path id="DejaVuSans-49" d="M 628 4666 
L 1259 4666 
L 1259 0 
L 628 0 
L 628 4666 
z
" transform="scale(0.015625)"/>
      <path id="DejaVuSans-66" d="M 2375 4863 
L 2375 4384 
L 1825 4384 
Q 1516 4384 1395 4259 
Q 1275 4134 1275 3809 
L 1275 3500 
L 2222 3500 
L 2222 3053 
L 1275 3053 
L 1275 0 
L 697 0 
L 697 3053 
L 147 3053 
L 147 3500 
L 697 3500 
L 697 3744 
Q 697 4328 969 4595 
Q 1241 4863 1831 4863 
L 2375 4863 
z
" transform="scale(0.015625)"/>
     </defs>
     <use xlink:href="#DejaVuSans-49"/>
     <use xlink:href="#DejaVuSans-6d" x="29.492188"/>
     <use xlink:href="#DejaVuSans-70" x="126.904297"/>
     <use xlink:href="#DejaVuSans-61" x="190.380859"/>
     <use xlink:href="#DejaVuSans-63" x="251.660156"/>
     <use xlink:href="#DejaVuSans-74" x="306.640625"/>
     <use xlink:href="#DejaVuSans-66" x="345.849609"/>
     <use xlink:href="#DejaVuSans-75" x="381.054688"/>
     <use xlink:href="#DejaVuSans-6c" x="444.433594"/>
     <use xlink:href="#DejaVuSans-20" x="472.216797"/>
     <use xlink:href="#DejaVuSans-64" x="504.003906"/>
     <use xlink:href="#DejaVuSans-69" x="567.480469"/>
     <use xlink:href="#DejaVuSans-72" x="595.263672"/>
     <use xlink:href="#DejaVuSans-65" x="634.126953"/>
     <use xlink:href="#DejaVuSans-63" x="695.650391"/>
     <use xlink:href="#DejaVuSans-74" x="750.630859"/>
     <use xlink:href="#DejaVuSans-6f" x="789.839844"/>
     <use xlink:href="#DejaVuSans-72" x="851.021484"/>
     <use xlink:href="#DejaVuSans-73" x="892.134766"/>
     <use xlink:href="#DejaVuSans-20" x="944.234375"/>
     <use xlink:href="#DejaVuSans-66" x="976.021484"/>
     <use xlink:href="#DejaVuSans-6f" x="1011.226562"/>
     <use xlink:href="#DejaVuSans-72" x="1072.408203"/>
     <use xlink:href="#DejaVuSans-20" x="1113.521484"/>
     <use xlink:href="#DejaVuSans-57" x="1145.308594"/>
     <use xlink:href="#DejaVuSans-6f" x="1238.310547"/>
     <use xlink:href="#DejaVuSans-72" x="1299.492188"/>
     <use xlink:href="#DejaVuSans-6c" x="1340.605469"/>
     <use xlink:href="#DejaVuSans-64" x="1368.388672"/>
     <use xlink:href="#DejaVuSans-20" x="1431.865234"/>
     <use xlink:href="#DejaVuSans-63" x="1463.652344"/>
     <use xlink:href="#DejaVuSans-69" x="1518.632812"/>
     <use xlink:href="#DejaVuSans-6e" x="1546.416016"/>
     <use xlink:href="#DejaVuSans-65" x="1609.794922"/>
     <use xlink:href="#DejaVuSans-6d" x="1671.318359"/>
     <use xlink:href="#DejaVuSans-61" x="1768.730469"/>
     <use xlink:href="#DejaVuSans-20" x="1830.009766"/>
     <use xlink:href="#DejaVuSans-67" x="1861.796875"/>
     <use xlink:href="#DejaVuSans-65" x="1925.273438"/>
     <use xlink:href="#DejaVuSans-6e" x="1986.796875"/>
     <use xlink:href="#DejaVuSans-72" x="2050.175781"/>
     <use xlink:href="#DejaVuSans-65" x="2089.039062"/>
    </g>
   </g>
  </g>
 </g>
 <defs>
  <clipPath id="p8f04d4704d">
   <rect x="10.8" y="10.8" width="554.4" height="554.4"/>
  </clipPath>
 </defs>
</svg>
