<?xml version="1.0" encoding="utf-8" standalone="no"?>
<!DOCTYPE svg PUBLIC "-//W3C//DTD SVG 1.1//EN"
  "http://www.w3.org/Graphics/SVG/1.1/DTD/svg11.dtd">
<svg xmlns:xlink="http://www.w3.org/1999/xlink" width="432.649687pt" height="448.017911pt" viewBox="0 0 432.649687 448.017911" xmlns="http://www.w3.org/2000/svg" version="1.1">
 <metadata>
  <rdf:RDF xmlns:dc="http://purl.org/dc/elements/1.1/" xmlns:cc="http://creativecommons.org/ns#" xmlns:rdf="http://www.w3.org/1999/02/22-rdf-syntax-ns#">
   <cc:Work>
    <dc:type rdf:resource="http://purl.org/dc/dcmitype/StillImage"/>
    <dc:date>2022-12-23T18:24:06.949774</dc:date>
    <dc:format>image/svg+xml</dc:format>
    <dc:creator>
     <cc:Agent>
      <dc:title>Matplotlib v3.5.2, https://matplotlib.org/</dc:title>
     </cc:Agent>
    </dc:creator>
   </cc:Work>
  </rdf:RDF>
 </metadata>
 <defs>
  <style type="text/css">*{stroke-linejoin: round; stroke-linecap: butt}</style>
 </defs>
 <g id="figure_1">
  <g id="patch_1">
   <path d="M 0 448.017911 
L 432.649687 448.017911 
L 432.649687 0 
L 0 0 
z
" style="fill: #ffffff"/>
  </g>
  <g id="axes_1">
   <g id="patch_2">
    <path d="M 52.160938 410.461661 
L 361.45733 410.461661 
L 361.45733 96.318125 
L 52.160938 96.318125 
z
" style="fill: #ffffff"/>
   </g>
   <g id="PathCollection_1">
    <defs>
     <path id="m95baea93a5" d="M 0 3 
C 0.795609 3 1.55874 2.683901 2.12132 2.12132 
C 2.683901 1.55874 3 0.795609 3 0 
C 3 -0.795609 2.683901 -1.55874 2.12132 -2.12132 
C 1.55874 -2.683901 0.795609 -3 0 -3 
C -0.795609 -3 -1.55874 -2.683901 -2.12132 -2.12132 
C -2.683901 -1.55874 -3 -0.795609 -3 0 
C -3 0.795609 -2.683901 1.55874 -2.12132 2.12132 
C -1.55874 2.683901 -0.795609 3 0 3 
z
" style="stroke: #dc143c; stroke-opacity: 0.8"/>
    </defs>
    <g clip-path="url(#p9bbde46b4a)">
     <use xlink:href="#m95baea93a5" x="347.398403" y="133.319484" style="fill: #dc143c; fill-opacity: 0.8; stroke: #dc143c; stroke-opacity: 0.8"/>
     <use xlink:href="#m95baea93a5" x="266.730532" y="317.438727" style="fill: #dc143c; fill-opacity: 0.8; stroke: #dc143c; stroke-opacity: 0.8"/>
     <use xlink:href="#m95baea93a5" x="97.064103" y="110.597377" style="fill: #dc143c; fill-opacity: 0.8; stroke: #dc143c; stroke-opacity: 0.8"/>
     <use xlink:href="#m95baea93a5" x="78.211852" y="331.434668" style="fill: #dc143c; fill-opacity: 0.8; stroke: #dc143c; stroke-opacity: 0.8"/>
     <use xlink:href="#m95baea93a5" x="86.31497" y="296.656679" style="fill: #dc143c; fill-opacity: 0.8; stroke: #dc143c; stroke-opacity: 0.8"/>
     <use xlink:href="#m95baea93a5" x="66.611788" y="261.765145" style="fill: #dc143c; fill-opacity: 0.8; stroke: #dc143c; stroke-opacity: 0.8"/>
     <use xlink:href="#m95baea93a5" x="82.457199" y="318.082739" style="fill: #dc143c; fill-opacity: 0.8; stroke: #dc143c; stroke-opacity: 0.8"/>
     <use xlink:href="#m95baea93a5" x="72.029674" y="317.594979" style="fill: #dc143c; fill-opacity: 0.8; stroke: #dc143c; stroke-opacity: 0.8"/>
     <use xlink:href="#m95baea93a5" x="197.620502" y="352.735789" style="fill: #dc143c; fill-opacity: 0.8; stroke: #dc143c; stroke-opacity: 0.8"/>
     <use xlink:href="#m95baea93a5" x="67.261211" y="329.384109" style="fill: #dc143c; fill-opacity: 0.8; stroke: #dc143c; stroke-opacity: 0.8"/>
     <use xlink:href="#m95baea93a5" x="85.231772" y="284.396269" style="fill: #dc143c; fill-opacity: 0.8; stroke: #dc143c; stroke-opacity: 0.8"/>
     <use xlink:href="#m95baea93a5" x="76.908053" y="330.372266" style="fill: #dc143c; fill-opacity: 0.8; stroke: #dc143c; stroke-opacity: 0.8"/>
     <use xlink:href="#m95baea93a5" x="79.4799" y="322.606547" style="fill: #dc143c; fill-opacity: 0.8; stroke: #dc143c; stroke-opacity: 0.8"/>
     <use xlink:href="#m95baea93a5" x="69.496682" y="330.14759" style="fill: #dc143c; fill-opacity: 0.8; stroke: #dc143c; stroke-opacity: 0.8"/>
     <use xlink:href="#m95baea93a5" x="79.4799" y="319.930467" style="fill: #dc143c; fill-opacity: 0.8; stroke: #dc143c; stroke-opacity: 0.8"/>
     <use xlink:href="#m95baea93a5" x="66.925987" y="313.413317" style="fill: #dc143c; fill-opacity: 0.8; stroke: #dc143c; stroke-opacity: 0.8"/>
     <use xlink:href="#m95baea93a5" x="79.682626" y="319.61893" style="fill: #dc143c; fill-opacity: 0.8; stroke: #dc143c; stroke-opacity: 0.8"/>
     <use xlink:href="#m95baea93a5" x="68.529556" y="328.941146" style="fill: #dc143c; fill-opacity: 0.8; stroke: #dc143c; stroke-opacity: 0.8"/>
     <use xlink:href="#m95baea93a5" x="66.408205" y="327.592122" style="fill: #dc143c; fill-opacity: 0.8; stroke: #dc143c; stroke-opacity: 0.8"/>
     <use xlink:href="#m95baea93a5" x="291.080675" y="375.262227" style="fill: #dc143c; fill-opacity: 0.8; stroke: #dc143c; stroke-opacity: 0.8"/>
     <use xlink:href="#m95baea93a5" x="68.21833" y="329.331319" style="fill: #dc143c; fill-opacity: 0.8; stroke: #dc143c; stroke-opacity: 0.8"/>
     <use xlink:href="#m95baea93a5" x="66.907058" y="329.085266" style="fill: #dc143c; fill-opacity: 0.8; stroke: #dc143c; stroke-opacity: 0.8"/>
     <use xlink:href="#m95baea93a5" x="153.683588" y="343.71554" style="fill: #dc143c; fill-opacity: 0.8; stroke: #dc143c; stroke-opacity: 0.8"/>
     <use xlink:href="#m95baea93a5" x="192.52465" y="358.697544" style="fill: #dc143c; fill-opacity: 0.8; stroke: #dc143c; stroke-opacity: 0.8"/>
    </g>
   </g>
   <g id="PolyCollection_1">
    <path d="M 66.408205 287.079062 
L 66.408205 333.632267 
L 69.24649 332.692897 
L 72.084774 331.807821 
L 74.923059 331.01235 
L 77.761344 330.244806 
L 80.599629 329.254758 
L 83.437914 328.261632 
L 86.276199 327.890196 
L 89.114483 327.479485 
L 91.952768 327.471774 
L 94.791053 327.229029 
L 97.629338 327.514719 
L 100.467623 327.839692 
L 103.305908 328.434184 
L 106.144192 328.887461 
L 108.982477 329.552973 
L 111.820762 330.138476 
L 114.659047 330.862927 
L 117.497332 331.534507 
L 120.335617 332.214856 
L 123.173901 332.775318 
L 126.012186 333.35989 
L 128.850471 334.129475 
L 131.688756 334.872592 
L 134.527041 335.375882 
L 137.365326 336.089186 
L 140.20361 336.85752 
L 143.041895 337.562278 
L 145.88018 338.259315 
L 148.718465 339.073032 
L 151.55675 339.885948 
L 154.395035 340.629077 
L 157.233319 341.475295 
L 160.071604 342.153206 
L 162.909889 342.810605 
L 165.748174 343.468004 
L 168.586459 344.268489 
L 171.424744 345.116143 
L 174.263028 345.952742 
L 177.101313 346.666461 
L 179.939598 347.360604 
L 182.777883 348.054746 
L 185.616168 348.828969 
L 188.454453 349.551285 
L 191.292737 350.27187 
L 194.131022 351.101157 
L 196.969307 351.933535 
L 199.807592 352.765913 
L 202.645877 353.521145 
L 205.484162 354.256746 
L 208.322446 354.992347 
L 211.160731 355.72311 
L 213.999016 356.453762 
L 216.837301 357.184414 
L 219.675586 357.844537 
L 222.513871 358.663854 
L 225.352155 359.897749 
L 228.19044 360.735999 
L 231.028725 361.516411 
L 233.86701 362.212354 
L 236.705295 362.908296 
L 239.54358 363.603197 
L 242.381864 364.297831 
L 245.220149 364.992464 
L 248.058434 365.687097 
L 250.896719 366.395896 
L 253.735004 367.213638 
L 256.573289 368.03138 
L 259.411574 368.851978 
L 262.249858 369.67747 
L 265.088143 370.504684 
L 267.926428 371.47561 
L 270.764713 372.324405 
L 273.602998 373.093883 
L 276.441283 373.842135 
L 279.279567 374.59155 
L 282.117852 375.314431 
L 284.956137 376.036236 
L 287.794422 376.830795 
L 290.632707 377.719189 
L 293.470992 378.567785 
L 296.309276 379.514168 
L 299.147561 380.337838 
L 301.985846 381.337299 
L 304.824131 382.34085 
L 307.662416 383.26298 
L 310.500701 384.106951 
L 313.338985 384.831212 
L 316.17727 385.555473 
L 319.015555 386.535169 
L 321.85384 387.561086 
L 324.692125 388.584315 
L 327.53041 389.612919 
L 330.368694 390.611508 
L 333.206979 391.668301 
L 336.045264 392.69816 
L 338.883549 393.663324 
L 341.721834 394.478639 
L 344.560119 395.293954 
L 347.398403 396.182409 
L 347.398403 162.374224 
L 347.398403 162.374224 
L 344.560119 163.961704 
L 341.721834 165.549183 
L 338.883549 167.136662 
L 336.045264 168.688773 
L 333.206979 170.240257 
L 330.368694 171.791741 
L 327.53041 173.343224 
L 324.692125 174.894708 
L 321.85384 176.446191 
L 319.015555 178.000477 
L 316.17727 179.5581 
L 313.338985 181.211896 
L 310.500701 182.910011 
L 307.662416 184.412933 
L 304.824131 185.915856 
L 301.985846 187.418778 
L 299.147561 188.9217 
L 296.309276 190.424623 
L 293.470992 191.972197 
L 290.632707 193.522407 
L 287.794422 195.072617 
L 284.956137 196.624082 
L 282.117852 198.178116 
L 279.279567 199.72917 
L 276.441283 201.197519 
L 273.602998 202.635598 
L 270.764713 204.120118 
L 267.926428 205.687617 
L 265.088143 207.44641 
L 262.249858 209.032029 
L 259.411574 210.585258 
L 256.573289 212.138487 
L 253.735004 213.691717 
L 250.896719 215.244946 
L 248.058434 216.856456 
L 245.220149 218.477132 
L 242.381864 220.024044 
L 239.54358 221.530122 
L 236.705295 223.0362 
L 233.86701 224.553615 
L 231.028725 226.103906 
L 228.19044 227.656526 
L 225.352155 229.204487 
L 222.513871 230.754778 
L 219.675586 232.305069 
L 216.837301 233.85536 
L 213.999016 235.405651 
L 211.160731 236.955942 
L 208.322446 238.506233 
L 205.484162 240.01856 
L 202.645877 241.161769 
L 199.807592 242.713198 
L 196.969307 244.264628 
L 194.131022 245.816057 
L 191.292737 247.099068 
L 188.454453 248.592304 
L 185.616168 249.807144 
L 182.777883 250.886559 
L 179.939598 251.992781 
L 177.101313 253.613102 
L 174.263028 255.520245 
L 171.424744 257.321165 
L 168.586459 258.14147 
L 165.748174 259.490474 
L 162.909889 260.991718 
L 160.071604 262.492963 
L 157.233319 263.997627 
L 154.395035 265.504411 
L 151.55675 266.753006 
L 148.718465 267.94419 
L 145.88018 269.4324 
L 143.041895 270.91138 
L 140.20361 271.889518 
L 137.365326 272.705696 
L 134.527041 273.88304 
L 131.688756 275.467726 
L 128.850471 277.061618 
L 126.012186 278.574785 
L 123.173901 279.336945 
L 120.335617 280.352889 
L 117.497332 281.38769 
L 114.659047 282.306186 
L 111.820762 283.476437 
L 108.982477 284.430053 
L 106.144192 285.833142 
L 103.305908 286.268036 
L 100.467623 286.394941 
L 97.629338 287.203059 
L 94.791053 288.210605 
L 91.952768 288.716546 
L 89.114483 288.666867 
L 86.276199 288.487976 
L 83.437914 288.293637 
L 80.599629 288.605563 
L 77.761344 288.709641 
L 74.923059 288.752978 
L 72.084774 288.145361 
L 69.24649 287.855319 
L 66.408205 287.079062 
z
" clip-path="url(#p9bbde46b4a)" style="fill: #dc143c; fill-opacity: 0.15"/>
   </g>
   <g id="matplotlib.axis_1">
    <g id="xtick_1">
     <g id="line2d_1">
      <defs>
       <path id="m19e145be84" d="M 0 0 
L 0 3.5 
" style="stroke: #000000; stroke-width: 0.8"/>
      </defs>
      <g>
       <use xlink:href="#m19e145be84" x="65.80976" y="410.461661" style="stroke: #000000; stroke-width: 0.8"/>
      </g>
     </g>
     <g id="text_1">
      <!-- 0 -->
      <g transform="translate(62.62851 425.060098)scale(0.1 -0.1)">
       <defs>
        <path id="DejaVuSans-30" d="M 2034 4250 
Q 1547 4250 1301 3770 
Q 1056 3291 1056 2328 
Q 1056 1369 1301 889 
Q 1547 409 2034 409 
Q 2525 409 2770 889 
Q 3016 1369 3016 2328 
Q 3016 3291 2770 3770 
Q 2525 4250 2034 4250 
z
M 2034 4750 
Q 2819 4750 3233 4129 
Q 3647 3509 3647 2328 
Q 3647 1150 3233 529 
Q 2819 -91 2034 -91 
Q 1250 -91 836 529 
Q 422 1150 422 2328 
Q 422 3509 836 4129 
Q 1250 4750 2034 4750 
z
" transform="scale(0.015625)"/>
       </defs>
       <use xlink:href="#DejaVuSans-30"/>
      </g>
     </g>
    </g>
    <g id="xtick_2">
     <g id="line2d_2">
      <g>
       <use xlink:href="#m19e145be84" x="120.674666" y="410.461661" style="stroke: #000000; stroke-width: 0.8"/>
      </g>
     </g>
     <g id="text_2">
      <!-- 1 -->
      <g transform="translate(117.493416 425.060098)scale(0.1 -0.1)">
       <defs>
        <path id="DejaVuSans-31" d="M 794 531 
L 1825 531 
L 1825 4091 
L 703 3866 
L 703 4441 
L 1819 4666 
L 2450 4666 
L 2450 531 
L 3481 531 
L 3481 0 
L 794 0 
L 794 531 
z
" transform="scale(0.015625)"/>
       </defs>
       <use xlink:href="#DejaVuSans-31"/>
      </g>
     </g>
    </g>
    <g id="xtick_3">
     <g id="line2d_3">
      <g>
       <use xlink:href="#m19e145be84" x="175.539572" y="410.461661" style="stroke: #000000; stroke-width: 0.8"/>
      </g>
     </g>
     <g id="text_3">
      <!-- 2 -->
      <g transform="translate(172.358322 425.060098)scale(0.1 -0.1)">
       <defs>
        <path id="DejaVuSans-32" d="M 1228 531 
L 3431 531 
L 3431 0 
L 469 0 
L 469 531 
Q 828 903 1448 1529 
Q 2069 2156 2228 2338 
Q 2531 2678 2651 2914 
Q 2772 3150 2772 3378 
Q 2772 3750 2511 3984 
Q 2250 4219 1831 4219 
Q 1534 4219 1204 4116 
Q 875 4013 500 3803 
L 500 4441 
Q 881 4594 1212 4672 
Q 1544 4750 1819 4750 
Q 2544 4750 2975 4387 
Q 3406 4025 3406 3419 
Q 3406 3131 3298 2873 
Q 3191 2616 2906 2266 
Q 2828 2175 2409 1742 
Q 1991 1309 1228 531 
z
" transform="scale(0.015625)"/>
       </defs>
       <use xlink:href="#DejaVuSans-32"/>
      </g>
     </g>
    </g>
    <g id="xtick_4">
     <g id="line2d_4">
      <g>
       <use xlink:href="#m19e145be84" x="230.404478" y="410.461661" style="stroke: #000000; stroke-width: 0.8"/>
      </g>
     </g>
     <g id="text_4">
      <!-- 3 -->
      <g transform="translate(227.223228 425.060098)scale(0.1 -0.1)">
       <defs>
        <path id="DejaVuSans-33" d="M 2597 2516 
Q 3050 2419 3304 2112 
Q 3559 1806 3559 1356 
Q 3559 666 3084 287 
Q 2609 -91 1734 -91 
Q 1441 -91 1130 -33 
Q 819 25 488 141 
L 488 750 
Q 750 597 1062 519 
Q 1375 441 1716 441 
Q 2309 441 2620 675 
Q 2931 909 2931 1356 
Q 2931 1769 2642 2001 
Q 2353 2234 1838 2234 
L 1294 2234 
L 1294 2753 
L 1863 2753 
Q 2328 2753 2575 2939 
Q 2822 3125 2822 3475 
Q 2822 3834 2567 4026 
Q 2313 4219 1838 4219 
Q 1578 4219 1281 4162 
Q 984 4106 628 3988 
L 628 4550 
Q 988 4650 1302 4700 
Q 1616 4750 1894 4750 
Q 2613 4750 3031 4423 
Q 3450 4097 3450 3541 
Q 3450 3153 3228 2886 
Q 3006 2619 2597 2516 
z
" transform="scale(0.015625)"/>
       </defs>
       <use xlink:href="#DejaVuSans-33"/>
      </g>
     </g>
    </g>
    <g id="xtick_5">
     <g id="line2d_5">
      <g>
       <use xlink:href="#m19e145be84" x="285.269384" y="410.461661" style="stroke: #000000; stroke-width: 0.8"/>
      </g>
     </g>
     <g id="text_5">
      <!-- 4 -->
      <g transform="translate(282.088134 425.060098)scale(0.1 -0.1)">
       <defs>
        <path id="DejaVuSans-34" d="M 2419 4116 
L 825 1625 
L 2419 1625 
L 2419 4116 
z
M 2253 4666 
L 3047 4666 
L 3047 1625 
L 3713 1625 
L 3713 1100 
L 3047 1100 
L 3047 0 
L 2419 0 
L 2419 1100 
L 313 1100 
L 313 1709 
L 2253 4666 
z
" transform="scale(0.015625)"/>
       </defs>
       <use xlink:href="#DejaVuSans-34"/>
      </g>
     </g>
    </g>
    <g id="xtick_6">
     <g id="line2d_6">
      <g>
       <use xlink:href="#m19e145be84" x="340.13429" y="410.461661" style="stroke: #000000; stroke-width: 0.8"/>
      </g>
     </g>
     <g id="text_6">
      <!-- 5 -->
      <g transform="translate(336.95304 425.060098)scale(0.1 -0.1)">
       <defs>
        <path id="DejaVuSans-35" d="M 691 4666 
L 3169 4666 
L 3169 4134 
L 1269 4134 
L 1269 2991 
Q 1406 3038 1543 3061 
Q 1681 3084 1819 3084 
Q 2600 3084 3056 2656 
Q 3513 2228 3513 1497 
Q 3513 744 3044 326 
Q 2575 -91 1722 -91 
Q 1428 -91 1123 -41 
Q 819 9 494 109 
L 494 744 
Q 775 591 1075 516 
Q 1375 441 1709 441 
Q 2250 441 2565 725 
Q 2881 1009 2881 1497 
Q 2881 1984 2565 2268 
Q 2250 2553 1709 2553 
Q 1456 2553 1204 2497 
Q 953 2441 691 2322 
L 691 4666 
z
" transform="scale(0.015625)"/>
       </defs>
       <use xlink:href="#DejaVuSans-35"/>
      </g>
     </g>
    </g>
    <g id="text_7">
     <!-- Production budget [$] -->
     <g transform="translate(152.220853 438.738223)scale(0.1 -0.1)">
      <defs>
       <path id="DejaVuSans-50" d="M 1259 4147 
L 1259 2394 
L 2053 2394 
Q 2494 2394 2734 2622 
Q 2975 2850 2975 3272 
Q 2975 3691 2734 3919 
Q 2494 4147 2053 4147 
L 1259 4147 
z
M 628 4666 
L 2053 4666 
Q 2838 4666 3239 4311 
Q 3641 3956 3641 3272 
Q 3641 2581 3239 2228 
Q 2838 1875 2053 1875 
L 1259 1875 
L 1259 0 
L 628 0 
L 628 4666 
z
" transform="scale(0.015625)"/>
       <path id="DejaVuSans-72" d="M 2631 2963 
Q 2534 3019 2420 3045 
Q 2306 3072 2169 3072 
Q 1681 3072 1420 2755 
Q 1159 2438 1159 1844 
L 1159 0 
L 581 0 
L 581 3500 
L 1159 3500 
L 1159 2956 
Q 1341 3275 1631 3429 
Q 1922 3584 2338 3584 
Q 2397 3584 2469 3576 
Q 2541 3569 2628 3553 
L 2631 2963 
z
" transform="scale(0.015625)"/>
       <path id="DejaVuSans-6f" d="M 1959 3097 
Q 1497 3097 1228 2736 
Q 959 2375 959 1747 
Q 959 1119 1226 758 
Q 1494 397 1959 397 
Q 2419 397 2687 759 
Q 2956 1122 2956 1747 
Q 2956 2369 2687 2733 
Q 2419 3097 1959 3097 
z
M 1959 3584 
Q 2709 3584 3137 3096 
Q 3566 2609 3566 1747 
Q 3566 888 3137 398 
Q 2709 -91 1959 -91 
Q 1206 -91 779 398 
Q 353 888 353 1747 
Q 353 2609 779 3096 
Q 1206 3584 1959 3584 
z
" transform="scale(0.015625)"/>
       <path id="DejaVuSans-64" d="M 2906 2969 
L 2906 4863 
L 3481 4863 
L 3481 0 
L 2906 0 
L 2906 525 
Q 2725 213 2448 61 
Q 2172 -91 1784 -91 
Q 1150 -91 751 415 
Q 353 922 353 1747 
Q 353 2572 751 3078 
Q 1150 3584 1784 3584 
Q 2172 3584 2448 3432 
Q 2725 3281 2906 2969 
z
M 947 1747 
Q 947 1113 1208 752 
Q 1469 391 1925 391 
Q 2381 391 2643 752 
Q 2906 1113 2906 1747 
Q 2906 2381 2643 2742 
Q 2381 3103 1925 3103 
Q 1469 3103 1208 2742 
Q 947 2381 947 1747 
z
" transform="scale(0.015625)"/>
       <path id="DejaVuSans-75" d="M 544 1381 
L 544 3500 
L 1119 3500 
L 1119 1403 
Q 1119 906 1312 657 
Q 1506 409 1894 409 
Q 2359 409 2629 706 
Q 2900 1003 2900 1516 
L 2900 3500 
L 3475 3500 
L 3475 0 
L 2900 0 
L 2900 538 
Q 2691 219 2414 64 
Q 2138 -91 1772 -91 
Q 1169 -91 856 284 
Q 544 659 544 1381 
z
M 1991 3584 
L 1991 3584 
z
" transform="scale(0.015625)"/>
       <path id="DejaVuSans-63" d="M 3122 3366 
L 3122 2828 
Q 2878 2963 2633 3030 
Q 2388 3097 2138 3097 
Q 1578 3097 1268 2742 
Q 959 2388 959 1747 
Q 959 1106 1268 751 
Q 1578 397 2138 397 
Q 2388 397 2633 464 
Q 2878 531 3122 666 
L 3122 134 
Q 2881 22 2623 -34 
Q 2366 -91 2075 -91 
Q 1284 -91 818 406 
Q 353 903 353 1747 
Q 353 2603 823 3093 
Q 1294 3584 2113 3584 
Q 2378 3584 2631 3529 
Q 2884 3475 3122 3366 
z
" transform="scale(0.015625)"/>
       <path id="DejaVuSans-74" d="M 1172 4494 
L 1172 3500 
L 2356 3500 
L 2356 3053 
L 1172 3053 
L 1172 1153 
Q 1172 725 1289 603 
Q 1406 481 1766 481 
L 2356 481 
L 2356 0 
L 1766 0 
Q 1100 0 847 248 
Q 594 497 594 1153 
L 594 3053 
L 172 3053 
L 172 3500 
L 594 3500 
L 594 4494 
L 1172 4494 
z
" transform="scale(0.015625)"/>
       <path id="DejaVuSans-69" d="M 603 3500 
L 1178 3500 
L 1178 0 
L 603 0 
L 603 3500 
z
M 603 4863 
L 1178 4863 
L 1178 4134 
L 603 4134 
L 603 4863 
z
" transform="scale(0.015625)"/>
       <path id="DejaVuSans-6e" d="M 3513 2113 
L 3513 0 
L 2938 0 
L 2938 2094 
Q 2938 2591 2744 2837 
Q 2550 3084 2163 3084 
Q 1697 3084 1428 2787 
Q 1159 2491 1159 1978 
L 1159 0 
L 581 0 
L 581 3500 
L 1159 3500 
L 1159 2956 
Q 1366 3272 1645 3428 
Q 1925 3584 2291 3584 
Q 2894 3584 3203 3211 
Q 3513 2838 3513 2113 
z
" transform="scale(0.015625)"/>
       <path id="DejaVuSans-20" transform="scale(0.015625)"/>
       <path id="DejaVuSans-62" d="M 3116 1747 
Q 3116 2381 2855 2742 
Q 2594 3103 2138 3103 
Q 1681 3103 1420 2742 
Q 1159 2381 1159 1747 
Q 1159 1113 1420 752 
Q 1681 391 2138 391 
Q 2594 391 2855 752 
Q 3116 1113 3116 1747 
z
M 1159 2969 
Q 1341 3281 1617 3432 
Q 1894 3584 2278 3584 
Q 2916 3584 3314 3078 
Q 3713 2572 3713 1747 
Q 3713 922 3314 415 
Q 2916 -91 2278 -91 
Q 1894 -91 1617 61 
Q 1341 213 1159 525 
L 1159 0 
L 581 0 
L 581 4863 
L 1159 4863 
L 1159 2969 
z
" transform="scale(0.015625)"/>
       <path id="DejaVuSans-67" d="M 2906 1791 
Q 2906 2416 2648 2759 
Q 2391 3103 1925 3103 
Q 1463 3103 1205 2759 
Q 947 2416 947 1791 
Q 947 1169 1205 825 
Q 1463 481 1925 481 
Q 2391 481 2648 825 
Q 2906 1169 2906 1791 
z
M 3481 434 
Q 3481 -459 3084 -895 
Q 2688 -1331 1869 -1331 
Q 1566 -1331 1297 -1286 
Q 1028 -1241 775 -1147 
L 775 -588 
Q 1028 -725 1275 -790 
Q 1522 -856 1778 -856 
Q 2344 -856 2625 -561 
Q 2906 -266 2906 331 
L 2906 616 
Q 2728 306 2450 153 
Q 2172 0 1784 0 
Q 1141 0 747 490 
Q 353 981 353 1791 
Q 353 2603 747 3093 
Q 1141 3584 1784 3584 
Q 2172 3584 2450 3431 
Q 2728 3278 2906 2969 
L 2906 3500 
L 3481 3500 
L 3481 434 
z
" transform="scale(0.015625)"/>
       <path id="DejaVuSans-65" d="M 3597 1894 
L 3597 1613 
L 953 1613 
Q 991 1019 1311 708 
Q 1631 397 2203 397 
Q 2534 397 2845 478 
Q 3156 559 3463 722 
L 3463 178 
Q 3153 47 2828 -22 
Q 2503 -91 2169 -91 
Q 1331 -91 842 396 
Q 353 884 353 1716 
Q 353 2575 817 3079 
Q 1281 3584 2069 3584 
Q 2775 3584 3186 3129 
Q 3597 2675 3597 1894 
z
M 3022 2063 
Q 3016 2534 2758 2815 
Q 2500 3097 2075 3097 
Q 1594 3097 1305 2825 
Q 1016 2553 972 2059 
L 3022 2063 
z
" transform="scale(0.015625)"/>
       <path id="DejaVuSans-5b" d="M 550 4863 
L 1875 4863 
L 1875 4416 
L 1125 4416 
L 1125 -397 
L 1875 -397 
L 1875 -844 
L 550 -844 
L 550 4863 
z
" transform="scale(0.015625)"/>
       <path id="DejaVuSans-24" d="M 2163 -941 
L 1850 -941 
L 1847 0 
Q 1519 6 1191 76 
Q 863 147 531 288 
L 531 850 
Q 850 650 1176 548 
Q 1503 447 1850 444 
L 1850 1869 
Q 1159 1981 845 2250 
Q 531 2519 531 2988 
Q 531 3497 872 3790 
Q 1213 4084 1850 4128 
L 1850 4863 
L 2163 4863 
L 2163 4138 
Q 2453 4125 2725 4076 
Q 2997 4028 3256 3944 
L 3256 3397 
Q 2997 3528 2723 3600 
Q 2450 3672 2163 3684 
L 2163 2350 
Q 2872 2241 3206 1959 
Q 3541 1678 3541 1191 
Q 3541 663 3186 358 
Q 2831 53 2163 6 
L 2163 -941 
z
M 1850 2406 
L 1850 3688 
Q 1488 3647 1297 3481 
Q 1106 3316 1106 3041 
Q 1106 2772 1282 2622 
Q 1459 2472 1850 2406 
z
M 2163 1806 
L 2163 453 
Q 2559 506 2761 678 
Q 2963 850 2963 1131 
Q 2963 1406 2770 1568 
Q 2578 1731 2163 1806 
z
" transform="scale(0.015625)"/>
       <path id="DejaVuSans-5d" d="M 1947 4863 
L 1947 -844 
L 622 -844 
L 622 -397 
L 1369 -397 
L 1369 4416 
L 622 4416 
L 622 4863 
L 1947 4863 
z
" transform="scale(0.015625)"/>
      </defs>
      <use xlink:href="#DejaVuSans-50"/>
      <use xlink:href="#DejaVuSans-72" x="58.552734"/>
      <use xlink:href="#DejaVuSans-6f" x="97.416016"/>
      <use xlink:href="#DejaVuSans-64" x="158.597656"/>
      <use xlink:href="#DejaVuSans-75" x="222.074219"/>
      <use xlink:href="#DejaVuSans-63" x="285.453125"/>
      <use xlink:href="#DejaVuSans-74" x="340.433594"/>
      <use xlink:href="#DejaVuSans-69" x="379.642578"/>
      <use xlink:href="#DejaVuSans-6f" x="407.425781"/>
      <use xlink:href="#DejaVuSans-6e" x="468.607422"/>
      <use xlink:href="#DejaVuSans-20" x="531.986328"/>
      <use xlink:href="#DejaVuSans-62" x="563.773438"/>
      <use xlink:href="#DejaVuSans-75" x="627.25"/>
      <use xlink:href="#DejaVuSans-64" x="690.628906"/>
      <use xlink:href="#DejaVuSans-67" x="754.105469"/>
      <use xlink:href="#DejaVuSans-65" x="817.582031"/>
      <use xlink:href="#DejaVuSans-74" x="879.105469"/>
      <use xlink:href="#DejaVuSans-20" x="918.314453"/>
      <use xlink:href="#DejaVuSans-5b" x="950.101562"/>
      <use xlink:href="#DejaVuSans-24" x="989.115234"/>
      <use xlink:href="#DejaVuSans-5d" x="1052.738281"/>
     </g>
    </g>
    <g id="text_8">
     <!-- 1e7 -->
     <g transform="translate(342.579205 437.738223)scale(0.1 -0.1)">
      <defs>
       <path id="DejaVuSans-37" d="M 525 4666 
L 3525 4666 
L 3525 4397 
L 1831 0 
L 1172 0 
L 2766 4134 
L 525 4134 
L 525 4666 
z
" transform="scale(0.015625)"/>
      </defs>
      <use xlink:href="#DejaVuSans-31"/>
      <use xlink:href="#DejaVuSans-65" x="63.623047"/>
      <use xlink:href="#DejaVuSans-37" x="125.146484"/>
     </g>
    </g>
   </g>
   <g id="matplotlib.axis_2">
    <g id="ytick_1">
     <g id="line2d_7">
      <defs>
       <path id="m3b467e7f04" d="M 0 0 
L -3.5 0 
" style="stroke: #000000; stroke-width: 0.8"/>
      </defs>
      <g>
       <use xlink:href="#m3b467e7f04" x="52.160938" y="396.782384" style="stroke: #000000; stroke-width: 0.8"/>
      </g>
     </g>
     <g id="text_9">
      <!-- −0.5 -->
      <g transform="translate(20.878125 400.581603)scale(0.1 -0.1)">
       <defs>
        <path id="DejaVuSans-2212" d="M 678 2272 
L 4684 2272 
L 4684 1741 
L 678 1741 
L 678 2272 
z
" transform="scale(0.015625)"/>
        <path id="DejaVuSans-2e" d="M 684 794 
L 1344 794 
L 1344 0 
L 684 0 
L 684 794 
z
" transform="scale(0.015625)"/>
       </defs>
       <use xlink:href="#DejaVuSans-2212"/>
       <use xlink:href="#DejaVuSans-30" x="83.789062"/>
       <use xlink:href="#DejaVuSans-2e" x="147.412109"/>
       <use xlink:href="#DejaVuSans-35" x="179.199219"/>
      </g>
     </g>
    </g>
    <g id="ytick_2">
     <g id="line2d_8">
      <g>
       <use xlink:href="#m3b467e7f04" x="52.160938" y="331.689001" style="stroke: #000000; stroke-width: 0.8"/>
      </g>
     </g>
     <g id="text_10">
      <!-- 0.0 -->
      <g transform="translate(29.257812 335.48822)scale(0.1 -0.1)">
       <use xlink:href="#DejaVuSans-30"/>
       <use xlink:href="#DejaVuSans-2e" x="63.623047"/>
       <use xlink:href="#DejaVuSans-30" x="95.410156"/>
      </g>
     </g>
    </g>
    <g id="ytick_3">
     <g id="line2d_9">
      <g>
       <use xlink:href="#m3b467e7f04" x="52.160938" y="266.595617" style="stroke: #000000; stroke-width: 0.8"/>
      </g>
     </g>
     <g id="text_11">
      <!-- 0.5 -->
      <g transform="translate(29.257812 270.394836)scale(0.1 -0.1)">
       <use xlink:href="#DejaVuSans-30"/>
       <use xlink:href="#DejaVuSans-2e" x="63.623047"/>
       <use xlink:href="#DejaVuSans-35" x="95.410156"/>
      </g>
     </g>
    </g>
    <g id="ytick_4">
     <g id="line2d_10">
      <g>
       <use xlink:href="#m3b467e7f04" x="52.160938" y="201.502234" style="stroke: #000000; stroke-width: 0.8"/>
      </g>
     </g>
     <g id="text_12">
      <!-- 1.0 -->
      <g transform="translate(29.257812 205.301453)scale(0.1 -0.1)">
       <use xlink:href="#DejaVuSans-31"/>
       <use xlink:href="#DejaVuSans-2e" x="63.623047"/>
       <use xlink:href="#DejaVuSans-30" x="95.410156"/>
      </g>
     </g>
    </g>
    <g id="ytick_5">
     <g id="line2d_11">
      <g>
       <use xlink:href="#m3b467e7f04" x="52.160938" y="136.408851" style="stroke: #000000; stroke-width: 0.8"/>
      </g>
     </g>
     <g id="text_13">
      <!-- 1.5 -->
      <g transform="translate(29.257812 140.208069)scale(0.1 -0.1)">
       <use xlink:href="#DejaVuSans-31"/>
       <use xlink:href="#DejaVuSans-2e" x="63.623047"/>
       <use xlink:href="#DejaVuSans-35" x="95.410156"/>
      </g>
     </g>
    </g>
    <g id="text_14">
     <!-- Profit [$] -->
     <g transform="translate(14.798437 275.10083)rotate(-90)scale(0.1 -0.1)">
      <defs>
       <path id="DejaVuSans-66" d="M 2375 4863 
L 2375 4384 
L 1825 4384 
Q 1516 4384 1395 4259 
Q 1275 4134 1275 3809 
L 1275 3500 
L 2222 3500 
L 2222 3053 
L 1275 3053 
L 1275 0 
L 697 0 
L 697 3053 
L 147 3053 
L 147 3500 
L 697 3500 
L 697 3744 
Q 697 4328 969 4595 
Q 1241 4863 1831 4863 
L 2375 4863 
z
" transform="scale(0.015625)"/>
      </defs>
      <use xlink:href="#DejaVuSans-50"/>
      <use xlink:href="#DejaVuSans-72" x="58.552734"/>
      <use xlink:href="#DejaVuSans-6f" x="97.416016"/>
      <use xlink:href="#DejaVuSans-66" x="158.597656"/>
      <use xlink:href="#DejaVuSans-69" x="193.802734"/>
      <use xlink:href="#DejaVuSans-74" x="221.585938"/>
      <use xlink:href="#DejaVuSans-20" x="260.794922"/>
      <use xlink:href="#DejaVuSans-5b" x="292.582031"/>
      <use xlink:href="#DejaVuSans-24" x="331.595703"/>
      <use xlink:href="#DejaVuSans-5d" x="395.21875"/>
     </g>
    </g>
    <g id="text_15">
     <!-- 1e8 -->
     <g transform="translate(52.160938 93.318125)scale(0.1 -0.1)">
      <defs>
       <path id="DejaVuSans-38" d="M 2034 2216 
Q 1584 2216 1326 1975 
Q 1069 1734 1069 1313 
Q 1069 891 1326 650 
Q 1584 409 2034 409 
Q 2484 409 2743 651 
Q 3003 894 3003 1313 
Q 3003 1734 2745 1975 
Q 2488 2216 2034 2216 
z
M 1403 2484 
Q 997 2584 770 2862 
Q 544 3141 544 3541 
Q 544 4100 942 4425 
Q 1341 4750 2034 4750 
Q 2731 4750 3128 4425 
Q 3525 4100 3525 3541 
Q 3525 3141 3298 2862 
Q 3072 2584 2669 2484 
Q 3125 2378 3379 2068 
Q 3634 1759 3634 1313 
Q 3634 634 3220 271 
Q 2806 -91 2034 -91 
Q 1263 -91 848 271 
Q 434 634 434 1313 
Q 434 1759 690 2068 
Q 947 2378 1403 2484 
z
M 1172 3481 
Q 1172 3119 1398 2916 
Q 1625 2713 2034 2713 
Q 2441 2713 2670 2916 
Q 2900 3119 2900 3481 
Q 2900 3844 2670 4047 
Q 2441 4250 2034 4250 
Q 1625 4250 1398 4047 
Q 1172 3844 1172 3481 
z
" transform="scale(0.015625)"/>
      </defs>
      <use xlink:href="#DejaVuSans-31"/>
      <use xlink:href="#DejaVuSans-65" x="63.623047"/>
      <use xlink:href="#DejaVuSans-38" x="125.146484"/>
     </g>
    </g>
   </g>
   <g id="line2d_12">
    <path d="M 66.408205 314.749724 
L 69.24649 314.347381 
L 72.084774 313.945038 
L 74.923059 313.542695 
L 77.761344 313.140352 
L 80.599629 312.738009 
L 83.437914 312.335666 
L 86.276199 311.933323 
L 89.114483 311.53098 
L 91.952768 311.128637 
L 94.791053 310.726294 
L 97.629338 310.323951 
L 100.467623 309.921608 
L 103.305908 309.519265 
L 106.144192 309.116922 
L 108.982477 308.714579 
L 111.820762 308.312236 
L 114.659047 307.909893 
L 117.497332 307.50755 
L 120.335617 307.105207 
L 123.173901 306.702864 
L 126.012186 306.300521 
L 128.850471 305.898178 
L 131.688756 305.495836 
L 134.527041 305.093493 
L 137.365326 304.69115 
L 140.20361 304.288807 
L 143.041895 303.886464 
L 145.88018 303.484121 
L 148.718465 303.081778 
L 151.55675 302.679435 
L 154.395035 302.277092 
L 157.233319 301.874749 
L 160.071604 301.472406 
L 162.909889 301.070063 
L 165.748174 300.66772 
L 168.586459 300.265377 
L 171.424744 299.863034 
L 174.263028 299.460691 
L 177.101313 299.058348 
L 179.939598 298.656005 
L 182.777883 298.253662 
L 185.616168 297.851319 
L 188.454453 297.448976 
L 191.292737 297.046633 
L 194.131022 296.64429 
L 196.969307 296.241947 
L 199.807592 295.839605 
L 202.645877 295.437262 
L 205.484162 295.034919 
L 208.322446 294.632576 
L 211.160731 294.230233 
L 213.999016 293.82789 
L 216.837301 293.425547 
L 219.675586 293.023204 
L 222.513871 292.620861 
L 225.352155 292.218518 
L 228.19044 291.816175 
L 231.028725 291.413832 
L 233.86701 291.011489 
L 236.705295 290.609146 
L 239.54358 290.206803 
L 242.381864 289.80446 
L 245.220149 289.402117 
L 248.058434 288.999774 
L 250.896719 288.597431 
L 253.735004 288.195088 
L 256.573289 287.792745 
L 259.411574 287.390402 
L 262.249858 286.988059 
L 265.088143 286.585716 
L 267.926428 286.183374 
L 270.764713 285.781031 
L 273.602998 285.378688 
L 276.441283 284.976345 
L 279.279567 284.574002 
L 282.117852 284.171659 
L 284.956137 283.769316 
L 287.794422 283.366973 
L 290.632707 282.96463 
L 293.470992 282.562287 
L 296.309276 282.159944 
L 299.147561 281.757601 
L 301.985846 281.355258 
L 304.824131 280.952915 
L 307.662416 280.550572 
L 310.500701 280.148229 
L 313.338985 279.745886 
L 316.17727 279.343543 
L 319.015555 278.9412 
L 321.85384 278.538857 
L 324.692125 278.136514 
L 327.53041 277.734171 
L 330.368694 277.331828 
L 333.206979 276.929485 
L 336.045264 276.527143 
L 338.883549 276.1248 
L 341.721834 275.722457 
L 344.560119 275.320114 
L 347.398403 274.917771 
" clip-path="url(#p9bbde46b4a)" style="fill: none; stroke: #dc143c; stroke-width: 2.25; stroke-linecap: square"/>
   </g>
   <g id="patch_3">
    <path d="M 52.160938 410.461661 
L 52.160938 96.318125 
" style="fill: none; stroke: #000000; stroke-width: 0.8; stroke-linejoin: miter; stroke-linecap: square"/>
   </g>
   <g id="patch_4">
    <path d="M 52.160938 410.461661 
L 361.45733 410.461661 
" style="fill: none; stroke: #000000; stroke-width: 0.8; stroke-linejoin: miter; stroke-linecap: square"/>
   </g>
  </g>
  <g id="axes_2">
   <g id="patch_5">
    <path d="M 52.160938 85.485589 
L 361.45733 85.485589 
L 361.45733 31.322911 
L 52.160938 31.322911 
z
" style="fill: #ffffff"/>
   </g>
   <g id="patch_6">
    <path d="M 66.219864 85.485589 
L 81.840894 85.485589 
L 81.840894 33.902086 
L 66.219864 33.902086 
z
" clip-path="url(#p97b551d99c)" style="fill: #dc143c; fill-opacity: 0.5; stroke: #000000; stroke-linejoin: miter"/>
   </g>
   <g id="patch_7">
    <path d="M 81.840894 85.485589 
L 97.461924 85.485589 
L 97.461924 65.425338 
L 81.840894 65.425338 
z
" clip-path="url(#p97b551d99c)" style="fill: #dc143c; fill-opacity: 0.5; stroke: #000000; stroke-linejoin: miter"/>
   </g>
   <g id="patch_8">
    <path d="M 97.461924 85.485589 
L 113.082954 85.485589 
L 113.082954 85.485589 
L 97.461924 85.485589 
z
" clip-path="url(#p97b551d99c)" style="fill: #dc143c; fill-opacity: 0.5; stroke: #000000; stroke-linejoin: miter"/>
   </g>
   <g id="patch_9">
    <path d="M 113.082954 85.485589 
L 128.703984 85.485589 
L 128.703984 85.485589 
L 113.082954 85.485589 
z
" clip-path="url(#p97b551d99c)" style="fill: #dc143c; fill-opacity: 0.5; stroke: #000000; stroke-linejoin: miter"/>
   </g>
   <g id="patch_10">
    <path d="M 128.703984 85.485589 
L 144.325014 85.485589 
L 144.325014 82.619839 
L 128.703984 82.619839 
z
" clip-path="url(#p97b551d99c)" style="fill: #dc143c; fill-opacity: 0.5; stroke: #000000; stroke-linejoin: miter"/>
   </g>
   <g id="patch_11">
    <path d="M 144.325014 85.485589 
L 159.946044 85.485589 
L 159.946044 82.619839 
L 144.325014 82.619839 
z
" clip-path="url(#p97b551d99c)" style="fill: #dc143c; fill-opacity: 0.5; stroke: #000000; stroke-linejoin: miter"/>
   </g>
   <g id="patch_12">
    <path d="M 159.946044 85.485589 
L 175.567074 85.485589 
L 175.567074 85.485589 
L 159.946044 85.485589 
z
" clip-path="url(#p97b551d99c)" style="fill: #dc143c; fill-opacity: 0.5; stroke: #000000; stroke-linejoin: miter"/>
   </g>
   <g id="patch_13">
    <path d="M 175.567074 85.485589 
L 191.188104 85.485589 
L 191.188104 85.485589 
L 175.567074 85.485589 
z
" clip-path="url(#p97b551d99c)" style="fill: #dc143c; fill-opacity: 0.5; stroke: #000000; stroke-linejoin: miter"/>
   </g>
   <g id="patch_14">
    <path d="M 191.188104 85.485589 
L 206.809134 85.485589 
L 206.809134 79.754089 
L 191.188104 79.754089 
z
" clip-path="url(#p97b551d99c)" style="fill: #dc143c; fill-opacity: 0.5; stroke: #000000; stroke-linejoin: miter"/>
   </g>
   <g id="patch_15">
    <path d="M 206.809134 85.485589 
L 222.430164 85.485589 
L 222.430164 85.485589 
L 206.809134 85.485589 
z
" clip-path="url(#p97b551d99c)" style="fill: #dc143c; fill-opacity: 0.5; stroke: #000000; stroke-linejoin: miter"/>
   </g>
   <g id="patch_16">
    <path d="M 222.430164 85.485589 
L 238.051194 85.485589 
L 238.051194 85.485589 
L 222.430164 85.485589 
z
" clip-path="url(#p97b551d99c)" style="fill: #dc143c; fill-opacity: 0.5; stroke: #000000; stroke-linejoin: miter"/>
   </g>
   <g id="patch_17">
    <path d="M 238.051194 85.485589 
L 253.672224 85.485589 
L 253.672224 85.485589 
L 238.051194 85.485589 
z
" clip-path="url(#p97b551d99c)" style="fill: #dc143c; fill-opacity: 0.5; stroke: #000000; stroke-linejoin: miter"/>
   </g>
   <g id="patch_18">
    <path d="M 253.672224 85.485589 
L 269.293254 85.485589 
L 269.293254 82.619839 
L 253.672224 82.619839 
z
" clip-path="url(#p97b551d99c)" style="fill: #dc143c; fill-opacity: 0.5; stroke: #000000; stroke-linejoin: miter"/>
   </g>
   <g id="patch_19">
    <path d="M 269.293254 85.485589 
L 284.914284 85.485589 
L 284.914284 85.485589 
L 269.293254 85.485589 
z
" clip-path="url(#p97b551d99c)" style="fill: #dc143c; fill-opacity: 0.5; stroke: #000000; stroke-linejoin: miter"/>
   </g>
   <g id="patch_20">
    <path d="M 284.914284 85.485589 
L 300.535314 85.485589 
L 300.535314 82.619839 
L 284.914284 82.619839 
z
" clip-path="url(#p97b551d99c)" style="fill: #dc143c; fill-opacity: 0.5; stroke: #000000; stroke-linejoin: miter"/>
   </g>
   <g id="patch_21">
    <path d="M 300.535314 85.485589 
L 316.156344 85.485589 
L 316.156344 85.485589 
L 300.535314 85.485589 
z
" clip-path="url(#p97b551d99c)" style="fill: #dc143c; fill-opacity: 0.5; stroke: #000000; stroke-linejoin: miter"/>
   </g>
   <g id="patch_22">
    <path d="M 316.156344 85.485589 
L 331.777373 85.485589 
L 331.777373 85.485589 
L 316.156344 85.485589 
z
" clip-path="url(#p97b551d99c)" style="fill: #dc143c; fill-opacity: 0.5; stroke: #000000; stroke-linejoin: miter"/>
   </g>
   <g id="patch_23">
    <path d="M 331.777373 85.485589 
L 347.398403 85.485589 
L 347.398403 82.619839 
L 331.777373 82.619839 
z
" clip-path="url(#p97b551d99c)" style="fill: #dc143c; fill-opacity: 0.5; stroke: #000000; stroke-linejoin: miter"/>
   </g>
   <g id="matplotlib.axis_3">
    <g id="xtick_7">
     <g id="line2d_13">
      <g>
       <use xlink:href="#m19e145be84" x="65.80976" y="85.485589" style="stroke: #000000; stroke-width: 0.8"/>
      </g>
     </g>
    </g>
    <g id="xtick_8">
     <g id="line2d_14">
      <g>
       <use xlink:href="#m19e145be84" x="120.674666" y="85.485589" style="stroke: #000000; stroke-width: 0.8"/>
      </g>
     </g>
    </g>
    <g id="xtick_9">
     <g id="line2d_15">
      <g>
       <use xlink:href="#m19e145be84" x="175.539572" y="85.485589" style="stroke: #000000; stroke-width: 0.8"/>
      </g>
     </g>
    </g>
    <g id="xtick_10">
     <g id="line2d_16">
      <g>
       <use xlink:href="#m19e145be84" x="230.404478" y="85.485589" style="stroke: #000000; stroke-width: 0.8"/>
      </g>
     </g>
    </g>
    <g id="xtick_11">
     <g id="line2d_17">
      <g>
       <use xlink:href="#m19e145be84" x="285.269384" y="85.485589" style="stroke: #000000; stroke-width: 0.8"/>
      </g>
     </g>
    </g>
    <g id="xtick_12">
     <g id="line2d_18">
      <g>
       <use xlink:href="#m19e145be84" x="340.13429" y="85.485589" style="stroke: #000000; stroke-width: 0.8"/>
      </g>
     </g>
    </g>
    <g id="text_16">
     <!-- 1e7 -->
     <g transform="translate(342.579205 96.084027)scale(0.1 -0.1)">
      <use xlink:href="#DejaVuSans-31"/>
      <use xlink:href="#DejaVuSans-65" x="63.623047"/>
      <use xlink:href="#DejaVuSans-37" x="125.146484"/>
     </g>
    </g>
   </g>
   <g id="matplotlib.axis_4">
    <g id="ytick_6"/>
    <g id="ytick_7"/>
   </g>
   <g id="line2d_19">
    <path d="M 66.219864 73.798295 
L 71.871694 73.411872 
L 77.523524 73.287275 
L 83.175354 73.428378 
L 88.827184 73.820494 
L 94.479014 74.432156 
L 101.543802 75.436633 
L 111.434504 77.102533 
L 126.977036 79.719075 
L 135.454781 80.905423 
L 143.932526 81.846971 
L 152.410271 82.546231 
L 162.300973 83.104463 
L 173.604633 83.503433 
L 191.97308 83.884611 
L 225.88406 84.341974 
L 249.904337 84.439337 
L 309.248551 84.51234 
L 347.398403 84.803268 
L 347.398403 84.803268 
" clip-path="url(#p97b551d99c)" style="fill: none; stroke: #dc143c; stroke-width: 1.5; stroke-linecap: square"/>
   </g>
   <g id="patch_24">
    <path d="M 52.160938 85.485589 
L 361.45733 85.485589 
" style="fill: none; stroke: #000000; stroke-width: 0.8; stroke-linejoin: miter; stroke-linecap: square"/>
   </g>
  </g>
  <g id="axes_3">
   <g id="patch_25">
    <path d="M 372.122723 410.461661 
L 425.449687 410.461661 
L 425.449687 96.318125 
L 372.122723 96.318125 
z
" style="fill: #ffffff"/>
   </g>
   <g id="patch_26">
    <path d="M 372.122723 375.262227 
L 379.378093 375.262227 
L 379.378093 365.809911 
L 372.122723 365.809911 
z
" clip-path="url(#pfe5f5a35b8)" style="fill: #dc143c; fill-opacity: 0.5; stroke: #000000; stroke-linejoin: miter"/>
   </g>
   <g id="patch_27">
    <path d="M 372.122723 365.809911 
L 379.378093 365.809911 
L 379.378093 356.357595 
L 372.122723 356.357595 
z
" clip-path="url(#pfe5f5a35b8)" style="fill: #dc143c; fill-opacity: 0.5; stroke: #000000; stroke-linejoin: miter"/>
   </g>
   <g id="patch_28">
    <path d="M 372.122723 356.357595 
L 379.378093 356.357595 
L 379.378093 346.905279 
L 372.122723 346.905279 
z
" clip-path="url(#pfe5f5a35b8)" style="fill: #dc143c; fill-opacity: 0.5; stroke: #000000; stroke-linejoin: miter"/>
   </g>
   <g id="patch_29">
    <path d="M 372.122723 346.905279 
L 379.378093 346.905279 
L 379.378093 337.452963 
L 372.122723 337.452963 
z
" clip-path="url(#pfe5f5a35b8)" style="fill: #dc143c; fill-opacity: 0.5; stroke: #000000; stroke-linejoin: miter"/>
   </g>
   <g id="patch_30">
    <path d="M 372.122723 337.452963 
L 422.910308 337.452963 
L 422.910308 328.000647 
L 372.122723 328.000647 
z
" clip-path="url(#pfe5f5a35b8)" style="fill: #dc143c; fill-opacity: 0.5; stroke: #000000; stroke-linejoin: miter"/>
   </g>
   <g id="patch_31">
    <path d="M 372.122723 328.000647 
L 401.1442 328.000647 
L 401.1442 318.548331 
L 372.122723 318.548331 
z
" clip-path="url(#pfe5f5a35b8)" style="fill: #dc143c; fill-opacity: 0.5; stroke: #000000; stroke-linejoin: miter"/>
   </g>
   <g id="patch_32">
    <path d="M 372.122723 318.548331 
L 401.1442 318.548331 
L 401.1442 309.096015 
L 372.122723 309.096015 
z
" clip-path="url(#pfe5f5a35b8)" style="fill: #dc143c; fill-opacity: 0.5; stroke: #000000; stroke-linejoin: miter"/>
   </g>
   <g id="patch_33">
    <path d="M 372.122723 309.096015 
L 372.122723 309.096015 
L 372.122723 299.643699 
L 372.122723 299.643699 
z
" clip-path="url(#pfe5f5a35b8)" style="fill: #dc143c; fill-opacity: 0.5; stroke: #000000; stroke-linejoin: miter"/>
   </g>
   <g id="patch_34">
    <path d="M 372.122723 299.643699 
L 379.378093 299.643699 
L 379.378093 290.191382 
L 372.122723 290.191382 
z
" clip-path="url(#pfe5f5a35b8)" style="fill: #dc143c; fill-opacity: 0.5; stroke: #000000; stroke-linejoin: miter"/>
   </g>
   <g id="patch_35">
    <path d="M 372.122723 290.191382 
L 379.378093 290.191382 
L 379.378093 280.739066 
L 372.122723 280.739066 
z
" clip-path="url(#pfe5f5a35b8)" style="fill: #dc143c; fill-opacity: 0.5; stroke: #000000; stroke-linejoin: miter"/>
   </g>
   <g id="patch_36">
    <path d="M 372.122723 280.739066 
L 372.122723 280.739066 
L 372.122723 271.28675 
L 372.122723 271.28675 
z
" clip-path="url(#pfe5f5a35b8)" style="fill: #dc143c; fill-opacity: 0.5; stroke: #000000; stroke-linejoin: miter"/>
   </g>
   <g id="patch_37">
    <path d="M 372.122723 271.28675 
L 372.122723 271.28675 
L 372.122723 261.834434 
L 372.122723 261.834434 
z
" clip-path="url(#pfe5f5a35b8)" style="fill: #dc143c; fill-opacity: 0.5; stroke: #000000; stroke-linejoin: miter"/>
   </g>
   <g id="patch_38">
    <path d="M 372.122723 261.834434 
L 379.378093 261.834434 
L 379.378093 252.382118 
L 372.122723 252.382118 
z
" clip-path="url(#pfe5f5a35b8)" style="fill: #dc143c; fill-opacity: 0.5; stroke: #000000; stroke-linejoin: miter"/>
   </g>
   <g id="patch_39">
    <path d="M 372.122723 252.382118 
L 372.122723 252.382118 
L 372.122723 242.929802 
L 372.122723 242.929802 
z
" clip-path="url(#pfe5f5a35b8)" style="fill: #dc143c; fill-opacity: 0.5; stroke: #000000; stroke-linejoin: miter"/>
   </g>
   <g id="patch_40">
    <path d="M 372.122723 242.929802 
L 372.122723 242.929802 
L 372.122723 233.477486 
L 372.122723 233.477486 
z
" clip-path="url(#pfe5f5a35b8)" style="fill: #dc143c; fill-opacity: 0.5; stroke: #000000; stroke-linejoin: miter"/>
   </g>
   <g id="patch_41">
    <path d="M 372.122723 233.477486 
L 372.122723 233.477486 
L 372.122723 224.02517 
L 372.122723 224.02517 
z
" clip-path="url(#pfe5f5a35b8)" style="fill: #dc143c; fill-opacity: 0.5; stroke: #000000; stroke-linejoin: miter"/>
   </g>
   <g id="patch_42">
    <path d="M 372.122723 224.02517 
L 372.122723 224.02517 
L 372.122723 214.572854 
L 372.122723 214.572854 
z
" clip-path="url(#pfe5f5a35b8)" style="fill: #dc143c; fill-opacity: 0.5; stroke: #000000; stroke-linejoin: miter"/>
   </g>
   <g id="patch_43">
    <path d="M 372.122723 214.572854 
L 372.122723 214.572854 
L 372.122723 205.120538 
L 372.122723 205.120538 
z
" clip-path="url(#pfe5f5a35b8)" style="fill: #dc143c; fill-opacity: 0.5; stroke: #000000; stroke-linejoin: miter"/>
   </g>
   <g id="patch_44">
    <path d="M 372.122723 205.120538 
L 372.122723 205.120538 
L 372.122723 195.668221 
L 372.122723 195.668221 
z
" clip-path="url(#pfe5f5a35b8)" style="fill: #dc143c; fill-opacity: 0.5; stroke: #000000; stroke-linejoin: miter"/>
   </g>
   <g id="patch_45">
    <path d="M 372.122723 195.668221 
L 372.122723 195.668221 
L 372.122723 186.215905 
L 372.122723 186.215905 
z
" clip-path="url(#pfe5f5a35b8)" style="fill: #dc143c; fill-opacity: 0.5; stroke: #000000; stroke-linejoin: miter"/>
   </g>
   <g id="patch_46">
    <path d="M 372.122723 186.215905 
L 372.122723 186.215905 
L 372.122723 176.763589 
L 372.122723 176.763589 
z
" clip-path="url(#pfe5f5a35b8)" style="fill: #dc143c; fill-opacity: 0.5; stroke: #000000; stroke-linejoin: miter"/>
   </g>
   <g id="patch_47">
    <path d="M 372.122723 176.763589 
L 372.122723 176.763589 
L 372.122723 167.311273 
L 372.122723 167.311273 
z
" clip-path="url(#pfe5f5a35b8)" style="fill: #dc143c; fill-opacity: 0.5; stroke: #000000; stroke-linejoin: miter"/>
   </g>
   <g id="patch_48">
    <path d="M 372.122723 167.311273 
L 372.122723 167.311273 
L 372.122723 157.858957 
L 372.122723 157.858957 
z
" clip-path="url(#pfe5f5a35b8)" style="fill: #dc143c; fill-opacity: 0.5; stroke: #000000; stroke-linejoin: miter"/>
   </g>
   <g id="patch_49">
    <path d="M 372.122723 157.858957 
L 372.122723 157.858957 
L 372.122723 148.406641 
L 372.122723 148.406641 
z
" clip-path="url(#pfe5f5a35b8)" style="fill: #dc143c; fill-opacity: 0.5; stroke: #000000; stroke-linejoin: miter"/>
   </g>
   <g id="patch_50">
    <path d="M 372.122723 148.406641 
L 372.122723 148.406641 
L 372.122723 138.954325 
L 372.122723 138.954325 
z
" clip-path="url(#pfe5f5a35b8)" style="fill: #dc143c; fill-opacity: 0.5; stroke: #000000; stroke-linejoin: miter"/>
   </g>
   <g id="patch_51">
    <path d="M 372.122723 138.954325 
L 379.378093 138.954325 
L 379.378093 129.502009 
L 372.122723 129.502009 
z
" clip-path="url(#pfe5f5a35b8)" style="fill: #dc143c; fill-opacity: 0.5; stroke: #000000; stroke-linejoin: miter"/>
   </g>
   <g id="patch_52">
    <path d="M 372.122723 129.502009 
L 372.122723 129.502009 
L 372.122723 120.049693 
L 372.122723 120.049693 
z
" clip-path="url(#pfe5f5a35b8)" style="fill: #dc143c; fill-opacity: 0.5; stroke: #000000; stroke-linejoin: miter"/>
   </g>
   <g id="patch_53">
    <path d="M 372.122723 120.049693 
L 379.378093 120.049693 
L 379.378093 110.597377 
L 372.122723 110.597377 
z
" clip-path="url(#pfe5f5a35b8)" style="fill: #dc143c; fill-opacity: 0.5; stroke: #000000; stroke-linejoin: miter"/>
   </g>
   <g id="matplotlib.axis_5">
    <g id="xtick_13"/>
    <g id="xtick_14"/>
   </g>
   <g id="matplotlib.axis_6">
    <g id="ytick_8">
     <g id="line2d_20">
      <g>
       <use xlink:href="#m3b467e7f04" x="372.122723" y="396.782384" style="stroke: #000000; stroke-width: 0.8"/>
      </g>
     </g>
    </g>
    <g id="ytick_9">
     <g id="line2d_21">
      <g>
       <use xlink:href="#m3b467e7f04" x="372.122723" y="331.689001" style="stroke: #000000; stroke-width: 0.8"/>
      </g>
     </g>
    </g>
    <g id="ytick_10">
     <g id="line2d_22">
      <g>
       <use xlink:href="#m3b467e7f04" x="372.122723" y="266.595617" style="stroke: #000000; stroke-width: 0.8"/>
      </g>
     </g>
    </g>
    <g id="ytick_11">
     <g id="line2d_23">
      <g>
       <use xlink:href="#m3b467e7f04" x="372.122723" y="201.502234" style="stroke: #000000; stroke-width: 0.8"/>
      </g>
     </g>
    </g>
    <g id="ytick_12">
     <g id="line2d_24">
      <g>
       <use xlink:href="#m3b467e7f04" x="372.122723" y="136.408851" style="stroke: #000000; stroke-width: 0.8"/>
      </g>
     </g>
    </g>
    <g id="text_17">
     <!-- 1e8 -->
     <g transform="translate(372.122723 93.318125)scale(0.1 -0.1)">
      <use xlink:href="#DejaVuSans-31"/>
      <use xlink:href="#DejaVuSans-65" x="63.623047"/>
      <use xlink:href="#DejaVuSans-38" x="125.146484"/>
     </g>
    </g>
   </g>
   <g id="line2d_25">
    <path d="M 378.754593 375.262227 
L 380.946566 365.952408 
L 384.748477 349.992719 
L 386.048921 343.342848 
L 386.851491 338.022952 
L 387.389489 332.703055 
L 387.598568 328.713133 
L 387.632385 324.723211 
L 387.490216 320.733288 
L 387.037939 315.413392 
L 386.314643 310.093495 
L 385.36697 304.773599 
L 383.954793 298.123728 
L 377.688306 270.194271 
L 376.314196 262.214427 
L 375.205339 254.234582 
L 374.34112 246.254737 
L 373.686176 238.274893 
L 373.136676 228.965074 
L 372.729814 218.325281 
L 372.488551 206.355514 
L 372.431746 193.055772 
L 372.579715 178.426057 
L 373.001754 159.806419 
L 373.62186 133.206937 
L 373.699267 119.907195 
L 373.619927 110.597377 
L 373.619927 110.597377 
" clip-path="url(#pfe5f5a35b8)" style="fill: none; stroke: #dc143c; stroke-width: 1.5; stroke-linecap: square"/>
   </g>
   <g id="patch_54">
    <path d="M 372.122723 410.461661 
L 372.122723 96.318125 
" style="fill: none; stroke: #000000; stroke-width: 0.8; stroke-linejoin: miter; stroke-linecap: square"/>
   </g>
   <g id="text_18">
    <!-- relationship between budget and profit for Black-and-white movies -->
    <g transform="translate(23.175937 16.318125)scale(0.12 -0.12)">
     <defs>
      <path id="DejaVuSans-6c" d="M 603 4863 
L 1178 4863 
L 1178 0 
L 603 0 
L 603 4863 
z
" transform="scale(0.015625)"/>
      <path id="DejaVuSans-61" d="M 2194 1759 
Q 1497 1759 1228 1600 
Q 959 1441 959 1056 
Q 959 750 1161 570 
Q 1363 391 1709 391 
Q 2188 391 2477 730 
Q 2766 1069 2766 1631 
L 2766 1759 
L 2194 1759 
z
M 3341 1997 
L 3341 0 
L 2766 0 
L 2766 531 
Q 2569 213 2275 61 
Q 1981 -91 1556 -91 
Q 1019 -91 701 211 
Q 384 513 384 1019 
Q 384 1609 779 1909 
Q 1175 2209 1959 2209 
L 2766 2209 
L 2766 2266 
Q 2766 2663 2505 2880 
Q 2244 3097 1772 3097 
Q 1472 3097 1187 3025 
Q 903 2953 641 2809 
L 641 3341 
Q 956 3463 1253 3523 
Q 1550 3584 1831 3584 
Q 2591 3584 2966 3190 
Q 3341 2797 3341 1997 
z
" transform="scale(0.015625)"/>
      <path id="DejaVuSans-73" d="M 2834 3397 
L 2834 2853 
Q 2591 2978 2328 3040 
Q 2066 3103 1784 3103 
Q 1356 3103 1142 2972 
Q 928 2841 928 2578 
Q 928 2378 1081 2264 
Q 1234 2150 1697 2047 
L 1894 2003 
Q 2506 1872 2764 1633 
Q 3022 1394 3022 966 
Q 3022 478 2636 193 
Q 2250 -91 1575 -91 
Q 1294 -91 989 -36 
Q 684 19 347 128 
L 347 722 
Q 666 556 975 473 
Q 1284 391 1588 391 
Q 1994 391 2212 530 
Q 2431 669 2431 922 
Q 2431 1156 2273 1281 
Q 2116 1406 1581 1522 
L 1381 1569 
Q 847 1681 609 1914 
Q 372 2147 372 2553 
Q 372 3047 722 3315 
Q 1072 3584 1716 3584 
Q 2034 3584 2315 3537 
Q 2597 3491 2834 3397 
z
" transform="scale(0.015625)"/>
      <path id="DejaVuSans-68" d="M 3513 2113 
L 3513 0 
L 2938 0 
L 2938 2094 
Q 2938 2591 2744 2837 
Q 2550 3084 2163 3084 
Q 1697 3084 1428 2787 
Q 1159 2491 1159 1978 
L 1159 0 
L 581 0 
L 581 4863 
L 1159 4863 
L 1159 2956 
Q 1366 3272 1645 3428 
Q 1925 3584 2291 3584 
Q 2894 3584 3203 3211 
Q 3513 2838 3513 2113 
z
" transform="scale(0.015625)"/>
      <path id="DejaVuSans-70" d="M 1159 525 
L 1159 -1331 
L 581 -1331 
L 581 3500 
L 1159 3500 
L 1159 2969 
Q 1341 3281 1617 3432 
Q 1894 3584 2278 3584 
Q 2916 3584 3314 3078 
Q 3713 2572 3713 1747 
Q 3713 922 3314 415 
Q 2916 -91 2278 -91 
Q 1894 -91 1617 61 
Q 1341 213 1159 525 
z
M 3116 1747 
Q 3116 2381 2855 2742 
Q 2594 3103 2138 3103 
Q 1681 3103 1420 2742 
Q 1159 2381 1159 1747 
Q 1159 1113 1420 752 
Q 1681 391 2138 391 
Q 2594 391 2855 752 
Q 3116 1113 3116 1747 
z
" transform="scale(0.015625)"/>
      <path id="DejaVuSans-77" d="M 269 3500 
L 844 3500 
L 1563 769 
L 2278 3500 
L 2956 3500 
L 3675 769 
L 4391 3500 
L 4966 3500 
L 4050 0 
L 3372 0 
L 2619 2869 
L 1863 0 
L 1184 0 
L 269 3500 
z
" transform="scale(0.015625)"/>
      <path id="DejaVuSans-42" d="M 1259 2228 
L 1259 519 
L 2272 519 
Q 2781 519 3026 730 
Q 3272 941 3272 1375 
Q 3272 1813 3026 2020 
Q 2781 2228 2272 2228 
L 1259 2228 
z
M 1259 4147 
L 1259 2741 
L 2194 2741 
Q 2656 2741 2882 2914 
Q 3109 3088 3109 3444 
Q 3109 3797 2882 3972 
Q 2656 4147 2194 4147 
L 1259 4147 
z
M 628 4666 
L 2241 4666 
Q 2963 4666 3353 4366 
Q 3744 4066 3744 3513 
Q 3744 3084 3544 2831 
Q 3344 2578 2956 2516 
Q 3422 2416 3680 2098 
Q 3938 1781 3938 1306 
Q 3938 681 3513 340 
Q 3088 0 2303 0 
L 628 0 
L 628 4666 
z
" transform="scale(0.015625)"/>
      <path id="DejaVuSans-6b" d="M 581 4863 
L 1159 4863 
L 1159 1991 
L 2875 3500 
L 3609 3500 
L 1753 1863 
L 3688 0 
L 2938 0 
L 1159 1709 
L 1159 0 
L 581 0 
L 581 4863 
z
" transform="scale(0.015625)"/>
      <path id="DejaVuSans-2d" d="M 313 2009 
L 1997 2009 
L 1997 1497 
L 313 1497 
L 313 2009 
z
" transform="scale(0.015625)"/>
      <path id="DejaVuSans-6d" d="M 3328 2828 
Q 3544 3216 3844 3400 
Q 4144 3584 4550 3584 
Q 5097 3584 5394 3201 
Q 5691 2819 5691 2113 
L 5691 0 
L 5113 0 
L 5113 2094 
Q 5113 2597 4934 2840 
Q 4756 3084 4391 3084 
Q 3944 3084 3684 2787 
Q 3425 2491 3425 1978 
L 3425 0 
L 2847 0 
L 2847 2094 
Q 2847 2600 2669 2842 
Q 2491 3084 2119 3084 
Q 1678 3084 1418 2786 
Q 1159 2488 1159 1978 
L 1159 0 
L 581 0 
L 581 3500 
L 1159 3500 
L 1159 2956 
Q 1356 3278 1631 3431 
Q 1906 3584 2284 3584 
Q 2666 3584 2933 3390 
Q 3200 3197 3328 2828 
z
" transform="scale(0.015625)"/>
      <path id="DejaVuSans-76" d="M 191 3500 
L 800 3500 
L 1894 563 
L 2988 3500 
L 3597 3500 
L 2284 0 
L 1503 0 
L 191 3500 
z
" transform="scale(0.015625)"/>
     </defs>
     <use xlink:href="#DejaVuSans-72"/>
     <use xlink:href="#DejaVuSans-65" x="38.863281"/>
     <use xlink:href="#DejaVuSans-6c" x="100.386719"/>
     <use xlink:href="#DejaVuSans-61" x="128.169922"/>
     <use xlink:href="#DejaVuSans-74" x="189.449219"/>
     <use xlink:href="#DejaVuSans-69" x="228.658203"/>
     <use xlink:href="#DejaVuSans-6f" x="256.441406"/>
     <use xlink:href="#DejaVuSans-6e" x="317.623047"/>
     <use xlink:href="#DejaVuSans-73" x="381.001953"/>
     <use xlink:href="#DejaVuSans-68" x="433.101562"/>
     <use xlink:href="#DejaVuSans-69" x="496.480469"/>
     <use xlink:href="#DejaVuSans-70" x="524.263672"/>
     <use xlink:href="#DejaVuSans-20" x="587.740234"/>
     <use xlink:href="#DejaVuSans-62" x="619.527344"/>
     <use xlink:href="#DejaVuSans-65" x="683.003906"/>
     <use xlink:href="#DejaVuSans-74" x="744.527344"/>
     <use xlink:href="#DejaVuSans-77" x="783.736328"/>
     <use xlink:href="#DejaVuSans-65" x="865.523438"/>
     <use xlink:href="#DejaVuSans-65" x="927.046875"/>
     <use xlink:href="#DejaVuSans-6e" x="988.570312"/>
     <use xlink:href="#DejaVuSans-20" x="1051.949219"/>
     <use xlink:href="#DejaVuSans-62" x="1083.736328"/>
     <use xlink:href="#DejaVuSans-75" x="1147.212891"/>
     <use xlink:href="#DejaVuSans-64" x="1210.591797"/>
     <use xlink:href="#DejaVuSans-67" x="1274.068359"/>
     <use xlink:href="#DejaVuSans-65" x="1337.544922"/>
     <use xlink:href="#DejaVuSans-74" x="1399.068359"/>
     <use xlink:href="#DejaVuSans-20" x="1438.277344"/>
     <use xlink:href="#DejaVuSans-61" x="1470.064453"/>
     <use xlink:href="#DejaVuSans-6e" x="1531.34375"/>
     <use xlink:href="#DejaVuSans-64" x="1594.722656"/>
     <use xlink:href="#DejaVuSans-20" x="1658.199219"/>
     <use xlink:href="#DejaVuSans-70" x="1689.986328"/>
     <use xlink:href="#DejaVuSans-72" x="1753.462891"/>
     <use xlink:href="#DejaVuSans-6f" x="1792.326172"/>
     <use xlink:href="#DejaVuSans-66" x="1853.507812"/>
     <use xlink:href="#DejaVuSans-69" x="1888.712891"/>
     <use xlink:href="#DejaVuSans-74" x="1916.496094"/>
     <use xlink:href="#DejaVuSans-20" x="1955.705078"/>
     <use xlink:href="#DejaVuSans-66" x="1987.492188"/>
     <use xlink:href="#DejaVuSans-6f" x="2022.697266"/>
     <use xlink:href="#DejaVuSans-72" x="2083.878906"/>
     <use xlink:href="#DejaVuSans-20" x="2124.992188"/>
     <use xlink:href="#DejaVuSans-42" x="2156.779297"/>
     <use xlink:href="#DejaVuSans-6c" x="2225.382812"/>
     <use xlink:href="#DejaVuSans-61" x="2253.166016"/>
     <use xlink:href="#DejaVuSans-63" x="2314.445312"/>
     <use xlink:href="#DejaVuSans-6b" x="2369.425781"/>
     <use xlink:href="#DejaVuSans-2d" x="2427.335938"/>
     <use xlink:href="#DejaVuSans-61" x="2463.419922"/>
     <use xlink:href="#DejaVuSans-6e" x="2524.699219"/>
     <use xlink:href="#DejaVuSans-64" x="2588.078125"/>
     <use xlink:href="#DejaVuSans-2d" x="2651.554688"/>
     <use xlink:href="#DejaVuSans-77" x="2687.638672"/>
     <use xlink:href="#DejaVuSans-68" x="2769.425781"/>
     <use xlink:href="#DejaVuSans-69" x="2832.804688"/>
     <use xlink:href="#DejaVuSans-74" x="2860.587891"/>
     <use xlink:href="#DejaVuSans-65" x="2899.796875"/>
     <use xlink:href="#DejaVuSans-20" x="2961.320312"/>
     <use xlink:href="#DejaVuSans-6d" x="2993.107422"/>
     <use xlink:href="#DejaVuSans-6f" x="3090.519531"/>
     <use xlink:href="#DejaVuSans-76" x="3151.701172"/>
     <use xlink:href="#DejaVuSans-69" x="3210.880859"/>
     <use xlink:href="#DejaVuSans-65" x="3238.664062"/>
     <use xlink:href="#DejaVuSans-73" x="3300.1875"/>
    </g>
   </g>
  </g>
 </g>
 <defs>
  <clipPath id="p9bbde46b4a">
   <rect x="52.160938" y="96.318125" width="309.296393" height="314.143536"/>
  </clipPath>
  <clipPath id="p97b551d99c">
   <rect x="52.160938" y="31.322911" width="309.296393" height="54.162679"/>
  </clipPath>
  <clipPath id="pfe5f5a35b8">
   <rect x="372.122723" y="96.318125" width="53.326964" height="314.143536"/>
  </clipPath>
 </defs>
</svg>
