<?xml version="1.0" encoding="utf-8" standalone="no"?>
<!DOCTYPE svg PUBLIC "-//W3C//DTD SVG 1.1//EN"
  "http://www.w3.org/Graphics/SVG/1.1/DTD/svg11.dtd">
<svg xmlns:xlink="http://www.w3.org/1999/xlink" width="414.729375pt" height="448.017911pt" viewBox="0 0 414.729375 448.017911" xmlns="http://www.w3.org/2000/svg" version="1.1">
 <metadata>
  <rdf:RDF xmlns:dc="http://purl.org/dc/elements/1.1/" xmlns:cc="http://creativecommons.org/ns#" xmlns:rdf="http://www.w3.org/1999/02/22-rdf-syntax-ns#">
   <cc:Work>
    <dc:type rdf:resource="http://purl.org/dc/dcmitype/StillImage"/>
    <dc:date>2022-12-23T18:24:05.345990</dc:date>
    <dc:format>image/svg+xml</dc:format>
    <dc:creator>
     <cc:Agent>
      <dc:title>Matplotlib v3.5.2, https://matplotlib.org/</dc:title>
     </cc:Agent>
    </dc:creator>
   </cc:Work>
  </rdf:RDF>
 </metadata>
 <defs>
  <style type="text/css">*{stroke-linejoin: round; stroke-linecap: butt}</style>
 </defs>
 <g id="figure_1">
  <g id="patch_1">
   <path d="M -0 448.017911 
L 414.729375 448.017911 
L 414.729375 0 
L -0 0 
z
" style="fill: #ffffff"/>
  </g>
  <g id="axes_1">
   <g id="patch_2">
    <path d="M 34.240625 410.461661 
L 343.537018 410.461661 
L 343.537018 96.318125 
L 34.240625 96.318125 
z
" style="fill: #ffffff"/>
   </g>
   <g id="PathCollection_1">
    <defs>
     <path id="mf0fd09dbcd" d="M 0 3 
C 0.795609 3 1.55874 2.683901 2.12132 2.12132 
C 2.683901 1.55874 3 0.795609 3 0 
C 3 -0.795609 2.683901 -1.55874 2.12132 -2.12132 
C 1.55874 -2.683901 0.795609 -3 0 -3 
C -0.795609 -3 -1.55874 -2.683901 -2.12132 -2.12132 
C -2.683901 -1.55874 -3 -0.795609 -3 0 
C -3 0.795609 -2.683901 1.55874 -2.12132 2.12132 
C -1.55874 2.683901 -0.795609 3 0 3 
z
" style="stroke: #dc143c; stroke-opacity: 0.8"/>
    </defs>
    <g clip-path="url(#p727257bc43)">
     <use xlink:href="#mf0fd09dbcd" x="329.478091" y="205.862228" style="fill: #dc143c; fill-opacity: 0.8; stroke: #dc143c; stroke-opacity: 0.8"/>
     <use xlink:href="#mf0fd09dbcd" x="48.299552" y="337.824991" style="fill: #dc143c; fill-opacity: 0.8; stroke: #dc143c; stroke-opacity: 0.8"/>
     <use xlink:href="#mf0fd09dbcd" x="113.120026" y="299.068202" style="fill: #dc143c; fill-opacity: 0.8; stroke: #dc143c; stroke-opacity: 0.8"/>
     <use xlink:href="#mf0fd09dbcd" x="160.882481" y="356.39896" style="fill: #dc143c; fill-opacity: 0.8; stroke: #dc143c; stroke-opacity: 0.8"/>
     <use xlink:href="#mf0fd09dbcd" x="58.534364" y="362.871222" style="fill: #dc143c; fill-opacity: 0.8; stroke: #dc143c; stroke-opacity: 0.8"/>
     <use xlink:href="#mf0fd09dbcd" x="77.513155" y="363.869369" style="fill: #dc143c; fill-opacity: 0.8; stroke: #dc143c; stroke-opacity: 0.8"/>
    </g>
   </g>
   <g id="PolyCollection_1">
    <path d="M 48.299552 330.646829 
L 48.299552 396.182409 
L 51.139739 394.37647 
L 53.979926 392.570531 
L 56.820114 390.764592 
L 59.660301 388.958653 
L 62.500488 387.152714 
L 65.340676 385.346775 
L 68.180863 383.540835 
L 71.02105 381.734896 
L 73.861237 379.928957 
L 76.701425 378.123018 
L 79.541612 376.317079 
L 82.381799 375.99881 
L 85.221986 376.640419 
L 88.062174 375.797511 
L 90.902361 375.939067 
L 93.742548 378.338123 
L 96.582735 376.877946 
L 99.422923 375.052358 
L 102.26311 373.195989 
L 105.103297 371.339619 
L 107.943484 369.48325 
L 110.783672 367.62688 
L 113.623859 365.788997 
L 116.464046 365.917903 
L 119.304234 363.960704 
L 122.144421 361.899798 
L 124.984608 360.057607 
L 127.824795 360.141929 
L 130.664983 360.509862 
L 133.50517 360.890547 
L 136.345357 361.271231 
L 139.185544 361.651916 
L 142.025732 362.032601 
L 144.865919 362.413285 
L 147.706106 362.79397 
L 150.546293 363.174654 
L 153.386481 363.10362 
L 156.226668 362.982645 
L 159.066855 363.457825 
L 161.907042 363.933004 
L 164.74723 364.408184 
L 167.587417 364.883364 
L 170.427604 365.839446 
L 173.267791 366.220131 
L 176.107979 366.600816 
L 178.948166 366.9815 
L 181.788353 367.362185 
L 184.628541 367.742869 
L 187.468728 368.123554 
L 190.308915 368.504239 
L 193.149102 368.884923 
L 195.98929 369.265608 
L 198.829477 369.646292 
L 201.669664 370.026977 
L 204.509851 370.407662 
L 207.350039 370.70011 
L 210.190226 370.855266 
L 213.030413 371.010422 
L 215.8706 371.165578 
L 218.710788 371.320734 
L 221.550975 371.712026 
L 224.391162 372.210634 
L 227.231349 372.709242 
L 230.071537 373.20785 
L 232.911724 373.706457 
L 235.751911 374.205065 
L 238.592099 374.703673 
L 241.432286 375.202281 
L 244.272473 375.700888 
L 247.11266 376.11793 
L 249.952848 376.498615 
L 252.793035 376.8793 
L 255.633222 377.259984 
L 258.473409 377.640669 
L 261.313597 378.021353 
L 264.153784 378.402038 
L 266.993971 378.782723 
L 269.834158 379.168311 
L 272.674346 379.558115 
L 275.514533 379.947919 
L 278.35472 380.337724 
L 281.194907 380.724521 
L 284.035095 381.108229 
L 286.875282 381.491938 
L 289.715469 382.315407 
L 292.555657 383.142291 
L 295.395844 383.969174 
L 298.236031 384.796058 
L 301.076218 385.622942 
L 303.916406 386.239745 
L 306.756593 386.749717 
L 309.59678 387.259688 
L 312.436967 387.769659 
L 315.277155 388.277323 
L 318.117342 388.778354 
L 320.957529 389.279384 
L 323.797716 389.780415 
L 326.637904 390.281446 
L 329.478091 390.782477 
L 329.478091 110.597377 
L 329.478091 110.597377 
L 326.637904 113.162995 
L 323.797716 115.728614 
L 320.957529 118.294232 
L 318.117342 120.85985 
L 315.277155 123.425469 
L 312.436967 125.991087 
L 309.59678 128.556706 
L 306.756593 131.122324 
L 303.916406 133.687943 
L 301.076218 136.253561 
L 298.236031 138.819179 
L 295.395844 141.384798 
L 292.555657 143.950416 
L 289.715469 146.516035 
L 286.875282 149.081653 
L 284.035095 151.647272 
L 281.194907 154.21289 
L 278.35472 156.778509 
L 275.514533 159.344127 
L 272.674346 161.909745 
L 269.834158 164.475364 
L 266.993971 167.040982 
L 264.153784 169.606601 
L 261.313597 172.172219 
L 258.473409 174.737838 
L 255.633222 177.303456 
L 252.793035 179.869075 
L 249.952848 182.434693 
L 247.11266 185.000311 
L 244.272473 187.56593 
L 241.432286 190.131548 
L 238.592099 192.697167 
L 235.751911 195.262785 
L 232.911724 197.828404 
L 230.071537 200.394022 
L 227.231349 202.959641 
L 224.391162 205.525259 
L 221.550975 208.090877 
L 218.710788 210.656496 
L 215.8706 213.222114 
L 213.030413 215.787733 
L 210.190226 218.353351 
L 207.350039 220.91897 
L 204.509851 223.484588 
L 201.669664 226.050207 
L 198.829477 228.615825 
L 195.98929 231.181443 
L 193.149102 233.747062 
L 190.308915 236.31268 
L 187.468728 238.878299 
L 184.628541 241.443917 
L 181.788353 244.009536 
L 178.948166 246.575154 
L 176.107979 249.140773 
L 173.267791 251.706391 
L 170.427604 254.272009 
L 167.587417 256.837628 
L 164.74723 259.403246 
L 161.907042 261.968865 
L 159.066855 264.534483 
L 156.226668 267.100102 
L 153.386481 269.66572 
L 150.546293 272.231339 
L 147.706106 274.793666 
L 144.865919 277.157931 
L 142.025732 279.229494 
L 139.185544 281.37436 
L 136.345357 284.320088 
L 133.50517 287.286616 
L 130.664983 290.190668 
L 127.824795 292.73346 
L 124.984608 293.956999 
L 122.144421 295.755595 
L 119.304234 298.303673 
L 116.464046 300.840589 
L 113.623859 303.273243 
L 110.783672 305.925583 
L 107.943484 308.885747 
L 105.103297 311.911916 
L 102.26311 314.670823 
L 99.422923 316.676376 
L 96.582735 318.455766 
L 93.742548 319.726328 
L 90.902361 321.700477 
L 88.062174 323.129952 
L 85.221986 324.559428 
L 82.381799 325.988904 
L 79.541612 327.418379 
L 76.701425 327.946397 
L 73.861237 328.681413 
L 71.02105 328.940283 
L 68.180863 329.197997 
L 65.340676 329.208374 
L 62.500488 329.284609 
L 59.660301 329.42384 
L 56.820114 329.999306 
L 53.979926 330.057273 
L 51.139739 330.343947 
L 48.299552 330.646829 
z
" clip-path="url(#p727257bc43)" style="fill: #dc143c; fill-opacity: 0.15"/>
   </g>
   <g id="matplotlib.axis_1">
    <g id="xtick_1">
     <g id="line2d_1">
      <defs>
       <path id="m3088636518" d="M 0 0 
L 0 3.5 
" style="stroke: #000000; stroke-width: 0.8"/>
      </defs>
      <g>
       <use xlink:href="#m3088636518" x="81.00745" y="410.461661" style="stroke: #000000; stroke-width: 0.8"/>
      </g>
     </g>
     <g id="text_1">
      <!-- 0.2 -->
      <g transform="translate(73.055888 425.060098)scale(0.1 -0.1)">
       <defs>
        <path id="DejaVuSans-30" d="M 2034 4250 
Q 1547 4250 1301 3770 
Q 1056 3291 1056 2328 
Q 1056 1369 1301 889 
Q 1547 409 2034 409 
Q 2525 409 2770 889 
Q 3016 1369 3016 2328 
Q 3016 3291 2770 3770 
Q 2525 4250 2034 4250 
z
M 2034 4750 
Q 2819 4750 3233 4129 
Q 3647 3509 3647 2328 
Q 3647 1150 3233 529 
Q 2819 -91 2034 -91 
Q 1250 -91 836 529 
Q 422 1150 422 2328 
Q 422 3509 836 4129 
Q 1250 4750 2034 4750 
z
" transform="scale(0.015625)"/>
        <path id="DejaVuSans-2e" d="M 684 794 
L 1344 794 
L 1344 0 
L 684 0 
L 684 794 
z
" transform="scale(0.015625)"/>
        <path id="DejaVuSans-32" d="M 1228 531 
L 3431 531 
L 3431 0 
L 469 0 
L 469 531 
Q 828 903 1448 1529 
Q 2069 2156 2228 2338 
Q 2531 2678 2651 2914 
Q 2772 3150 2772 3378 
Q 2772 3750 2511 3984 
Q 2250 4219 1831 4219 
Q 1534 4219 1204 4116 
Q 875 4013 500 3803 
L 500 4441 
Q 881 4594 1212 4672 
Q 1544 4750 1819 4750 
Q 2544 4750 2975 4387 
Q 3406 4025 3406 3419 
Q 3406 3131 3298 2873 
Q 3191 2616 2906 2266 
Q 2828 2175 2409 1742 
Q 1991 1309 1228 531 
z
" transform="scale(0.015625)"/>
       </defs>
       <use xlink:href="#DejaVuSans-30"/>
       <use xlink:href="#DejaVuSans-2e" x="63.623047"/>
       <use xlink:href="#DejaVuSans-32" x="95.410156"/>
      </g>
     </g>
    </g>
    <g id="xtick_2">
     <g id="line2d_2">
      <g>
       <use xlink:href="#m3088636518" x="134.184972" y="410.461661" style="stroke: #000000; stroke-width: 0.8"/>
      </g>
     </g>
     <g id="text_2">
      <!-- 0.4 -->
      <g transform="translate(126.233409 425.060098)scale(0.1 -0.1)">
       <defs>
        <path id="DejaVuSans-34" d="M 2419 4116 
L 825 1625 
L 2419 1625 
L 2419 4116 
z
M 2253 4666 
L 3047 4666 
L 3047 1625 
L 3713 1625 
L 3713 1100 
L 3047 1100 
L 3047 0 
L 2419 0 
L 2419 1100 
L 313 1100 
L 313 1709 
L 2253 4666 
z
" transform="scale(0.015625)"/>
       </defs>
       <use xlink:href="#DejaVuSans-30"/>
       <use xlink:href="#DejaVuSans-2e" x="63.623047"/>
       <use xlink:href="#DejaVuSans-34" x="95.410156"/>
      </g>
     </g>
    </g>
    <g id="xtick_3">
     <g id="line2d_3">
      <g>
       <use xlink:href="#m3088636518" x="187.362494" y="410.461661" style="stroke: #000000; stroke-width: 0.8"/>
      </g>
     </g>
     <g id="text_3">
      <!-- 0.6 -->
      <g transform="translate(179.410931 425.060098)scale(0.1 -0.1)">
       <defs>
        <path id="DejaVuSans-36" d="M 2113 2584 
Q 1688 2584 1439 2293 
Q 1191 2003 1191 1497 
Q 1191 994 1439 701 
Q 1688 409 2113 409 
Q 2538 409 2786 701 
Q 3034 994 3034 1497 
Q 3034 2003 2786 2293 
Q 2538 2584 2113 2584 
z
M 3366 4563 
L 3366 3988 
Q 3128 4100 2886 4159 
Q 2644 4219 2406 4219 
Q 1781 4219 1451 3797 
Q 1122 3375 1075 2522 
Q 1259 2794 1537 2939 
Q 1816 3084 2150 3084 
Q 2853 3084 3261 2657 
Q 3669 2231 3669 1497 
Q 3669 778 3244 343 
Q 2819 -91 2113 -91 
Q 1303 -91 875 529 
Q 447 1150 447 2328 
Q 447 3434 972 4092 
Q 1497 4750 2381 4750 
Q 2619 4750 2861 4703 
Q 3103 4656 3366 4563 
z
" transform="scale(0.015625)"/>
       </defs>
       <use xlink:href="#DejaVuSans-30"/>
       <use xlink:href="#DejaVuSans-2e" x="63.623047"/>
       <use xlink:href="#DejaVuSans-36" x="95.410156"/>
      </g>
     </g>
    </g>
    <g id="xtick_4">
     <g id="line2d_4">
      <g>
       <use xlink:href="#m3088636518" x="240.540015" y="410.461661" style="stroke: #000000; stroke-width: 0.8"/>
      </g>
     </g>
     <g id="text_4">
      <!-- 0.8 -->
      <g transform="translate(232.588453 425.060098)scale(0.1 -0.1)">
       <defs>
        <path id="DejaVuSans-38" d="M 2034 2216 
Q 1584 2216 1326 1975 
Q 1069 1734 1069 1313 
Q 1069 891 1326 650 
Q 1584 409 2034 409 
Q 2484 409 2743 651 
Q 3003 894 3003 1313 
Q 3003 1734 2745 1975 
Q 2488 2216 2034 2216 
z
M 1403 2484 
Q 997 2584 770 2862 
Q 544 3141 544 3541 
Q 544 4100 942 4425 
Q 1341 4750 2034 4750 
Q 2731 4750 3128 4425 
Q 3525 4100 3525 3541 
Q 3525 3141 3298 2862 
Q 3072 2584 2669 2484 
Q 3125 2378 3379 2068 
Q 3634 1759 3634 1313 
Q 3634 634 3220 271 
Q 2806 -91 2034 -91 
Q 1263 -91 848 271 
Q 434 634 434 1313 
Q 434 1759 690 2068 
Q 947 2378 1403 2484 
z
M 1172 3481 
Q 1172 3119 1398 2916 
Q 1625 2713 2034 2713 
Q 2441 2713 2670 2916 
Q 2900 3119 2900 3481 
Q 2900 3844 2670 4047 
Q 2441 4250 2034 4250 
Q 1625 4250 1398 4047 
Q 1172 3844 1172 3481 
z
" transform="scale(0.015625)"/>
       </defs>
       <use xlink:href="#DejaVuSans-30"/>
       <use xlink:href="#DejaVuSans-2e" x="63.623047"/>
       <use xlink:href="#DejaVuSans-38" x="95.410156"/>
      </g>
     </g>
    </g>
    <g id="xtick_5">
     <g id="line2d_5">
      <g>
       <use xlink:href="#m3088636518" x="293.717537" y="410.461661" style="stroke: #000000; stroke-width: 0.8"/>
      </g>
     </g>
     <g id="text_5">
      <!-- 1.0 -->
      <g transform="translate(285.765975 425.060098)scale(0.1 -0.1)">
       <defs>
        <path id="DejaVuSans-31" d="M 794 531 
L 1825 531 
L 1825 4091 
L 703 3866 
L 703 4441 
L 1819 4666 
L 2450 4666 
L 2450 531 
L 3481 531 
L 3481 0 
L 794 0 
L 794 531 
z
" transform="scale(0.015625)"/>
       </defs>
       <use xlink:href="#DejaVuSans-31"/>
       <use xlink:href="#DejaVuSans-2e" x="63.623047"/>
       <use xlink:href="#DejaVuSans-30" x="95.410156"/>
      </g>
     </g>
    </g>
    <g id="text_6">
     <!-- Production budget [$] -->
     <g transform="translate(134.30054 438.738223)scale(0.1 -0.1)">
      <defs>
       <path id="DejaVuSans-50" d="M 1259 4147 
L 1259 2394 
L 2053 2394 
Q 2494 2394 2734 2622 
Q 2975 2850 2975 3272 
Q 2975 3691 2734 3919 
Q 2494 4147 2053 4147 
L 1259 4147 
z
M 628 4666 
L 2053 4666 
Q 2838 4666 3239 4311 
Q 3641 3956 3641 3272 
Q 3641 2581 3239 2228 
Q 2838 1875 2053 1875 
L 1259 1875 
L 1259 0 
L 628 0 
L 628 4666 
z
" transform="scale(0.015625)"/>
       <path id="DejaVuSans-72" d="M 2631 2963 
Q 2534 3019 2420 3045 
Q 2306 3072 2169 3072 
Q 1681 3072 1420 2755 
Q 1159 2438 1159 1844 
L 1159 0 
L 581 0 
L 581 3500 
L 1159 3500 
L 1159 2956 
Q 1341 3275 1631 3429 
Q 1922 3584 2338 3584 
Q 2397 3584 2469 3576 
Q 2541 3569 2628 3553 
L 2631 2963 
z
" transform="scale(0.015625)"/>
       <path id="DejaVuSans-6f" d="M 1959 3097 
Q 1497 3097 1228 2736 
Q 959 2375 959 1747 
Q 959 1119 1226 758 
Q 1494 397 1959 397 
Q 2419 397 2687 759 
Q 2956 1122 2956 1747 
Q 2956 2369 2687 2733 
Q 2419 3097 1959 3097 
z
M 1959 3584 
Q 2709 3584 3137 3096 
Q 3566 2609 3566 1747 
Q 3566 888 3137 398 
Q 2709 -91 1959 -91 
Q 1206 -91 779 398 
Q 353 888 353 1747 
Q 353 2609 779 3096 
Q 1206 3584 1959 3584 
z
" transform="scale(0.015625)"/>
       <path id="DejaVuSans-64" d="M 2906 2969 
L 2906 4863 
L 3481 4863 
L 3481 0 
L 2906 0 
L 2906 525 
Q 2725 213 2448 61 
Q 2172 -91 1784 -91 
Q 1150 -91 751 415 
Q 353 922 353 1747 
Q 353 2572 751 3078 
Q 1150 3584 1784 3584 
Q 2172 3584 2448 3432 
Q 2725 3281 2906 2969 
z
M 947 1747 
Q 947 1113 1208 752 
Q 1469 391 1925 391 
Q 2381 391 2643 752 
Q 2906 1113 2906 1747 
Q 2906 2381 2643 2742 
Q 2381 3103 1925 3103 
Q 1469 3103 1208 2742 
Q 947 2381 947 1747 
z
" transform="scale(0.015625)"/>
       <path id="DejaVuSans-75" d="M 544 1381 
L 544 3500 
L 1119 3500 
L 1119 1403 
Q 1119 906 1312 657 
Q 1506 409 1894 409 
Q 2359 409 2629 706 
Q 2900 1003 2900 1516 
L 2900 3500 
L 3475 3500 
L 3475 0 
L 2900 0 
L 2900 538 
Q 2691 219 2414 64 
Q 2138 -91 1772 -91 
Q 1169 -91 856 284 
Q 544 659 544 1381 
z
M 1991 3584 
L 1991 3584 
z
" transform="scale(0.015625)"/>
       <path id="DejaVuSans-63" d="M 3122 3366 
L 3122 2828 
Q 2878 2963 2633 3030 
Q 2388 3097 2138 3097 
Q 1578 3097 1268 2742 
Q 959 2388 959 1747 
Q 959 1106 1268 751 
Q 1578 397 2138 397 
Q 2388 397 2633 464 
Q 2878 531 3122 666 
L 3122 134 
Q 2881 22 2623 -34 
Q 2366 -91 2075 -91 
Q 1284 -91 818 406 
Q 353 903 353 1747 
Q 353 2603 823 3093 
Q 1294 3584 2113 3584 
Q 2378 3584 2631 3529 
Q 2884 3475 3122 3366 
z
" transform="scale(0.015625)"/>
       <path id="DejaVuSans-74" d="M 1172 4494 
L 1172 3500 
L 2356 3500 
L 2356 3053 
L 1172 3053 
L 1172 1153 
Q 1172 725 1289 603 
Q 1406 481 1766 481 
L 2356 481 
L 2356 0 
L 1766 0 
Q 1100 0 847 248 
Q 594 497 594 1153 
L 594 3053 
L 172 3053 
L 172 3500 
L 594 3500 
L 594 4494 
L 1172 4494 
z
" transform="scale(0.015625)"/>
       <path id="DejaVuSans-69" d="M 603 3500 
L 1178 3500 
L 1178 0 
L 603 0 
L 603 3500 
z
M 603 4863 
L 1178 4863 
L 1178 4134 
L 603 4134 
L 603 4863 
z
" transform="scale(0.015625)"/>
       <path id="DejaVuSans-6e" d="M 3513 2113 
L 3513 0 
L 2938 0 
L 2938 2094 
Q 2938 2591 2744 2837 
Q 2550 3084 2163 3084 
Q 1697 3084 1428 2787 
Q 1159 2491 1159 1978 
L 1159 0 
L 581 0 
L 581 3500 
L 1159 3500 
L 1159 2956 
Q 1366 3272 1645 3428 
Q 1925 3584 2291 3584 
Q 2894 3584 3203 3211 
Q 3513 2838 3513 2113 
z
" transform="scale(0.015625)"/>
       <path id="DejaVuSans-20" transform="scale(0.015625)"/>
       <path id="DejaVuSans-62" d="M 3116 1747 
Q 3116 2381 2855 2742 
Q 2594 3103 2138 3103 
Q 1681 3103 1420 2742 
Q 1159 2381 1159 1747 
Q 1159 1113 1420 752 
Q 1681 391 2138 391 
Q 2594 391 2855 752 
Q 3116 1113 3116 1747 
z
M 1159 2969 
Q 1341 3281 1617 3432 
Q 1894 3584 2278 3584 
Q 2916 3584 3314 3078 
Q 3713 2572 3713 1747 
Q 3713 922 3314 415 
Q 2916 -91 2278 -91 
Q 1894 -91 1617 61 
Q 1341 213 1159 525 
L 1159 0 
L 581 0 
L 581 4863 
L 1159 4863 
L 1159 2969 
z
" transform="scale(0.015625)"/>
       <path id="DejaVuSans-67" d="M 2906 1791 
Q 2906 2416 2648 2759 
Q 2391 3103 1925 3103 
Q 1463 3103 1205 2759 
Q 947 2416 947 1791 
Q 947 1169 1205 825 
Q 1463 481 1925 481 
Q 2391 481 2648 825 
Q 2906 1169 2906 1791 
z
M 3481 434 
Q 3481 -459 3084 -895 
Q 2688 -1331 1869 -1331 
Q 1566 -1331 1297 -1286 
Q 1028 -1241 775 -1147 
L 775 -588 
Q 1028 -725 1275 -790 
Q 1522 -856 1778 -856 
Q 2344 -856 2625 -561 
Q 2906 -266 2906 331 
L 2906 616 
Q 2728 306 2450 153 
Q 2172 0 1784 0 
Q 1141 0 747 490 
Q 353 981 353 1791 
Q 353 2603 747 3093 
Q 1141 3584 1784 3584 
Q 2172 3584 2450 3431 
Q 2728 3278 2906 2969 
L 2906 3500 
L 3481 3500 
L 3481 434 
z
" transform="scale(0.015625)"/>
       <path id="DejaVuSans-65" d="M 3597 1894 
L 3597 1613 
L 953 1613 
Q 991 1019 1311 708 
Q 1631 397 2203 397 
Q 2534 397 2845 478 
Q 3156 559 3463 722 
L 3463 178 
Q 3153 47 2828 -22 
Q 2503 -91 2169 -91 
Q 1331 -91 842 396 
Q 353 884 353 1716 
Q 353 2575 817 3079 
Q 1281 3584 2069 3584 
Q 2775 3584 3186 3129 
Q 3597 2675 3597 1894 
z
M 3022 2063 
Q 3016 2534 2758 2815 
Q 2500 3097 2075 3097 
Q 1594 3097 1305 2825 
Q 1016 2553 972 2059 
L 3022 2063 
z
" transform="scale(0.015625)"/>
       <path id="DejaVuSans-5b" d="M 550 4863 
L 1875 4863 
L 1875 4416 
L 1125 4416 
L 1125 -397 
L 1875 -397 
L 1875 -844 
L 550 -844 
L 550 4863 
z
" transform="scale(0.015625)"/>
       <path id="DejaVuSans-24" d="M 2163 -941 
L 1850 -941 
L 1847 0 
Q 1519 6 1191 76 
Q 863 147 531 288 
L 531 850 
Q 850 650 1176 548 
Q 1503 447 1850 444 
L 1850 1869 
Q 1159 1981 845 2250 
Q 531 2519 531 2988 
Q 531 3497 872 3790 
Q 1213 4084 1850 4128 
L 1850 4863 
L 2163 4863 
L 2163 4138 
Q 2453 4125 2725 4076 
Q 2997 4028 3256 3944 
L 3256 3397 
Q 2997 3528 2723 3600 
Q 2450 3672 2163 3684 
L 2163 2350 
Q 2872 2241 3206 1959 
Q 3541 1678 3541 1191 
Q 3541 663 3186 358 
Q 2831 53 2163 6 
L 2163 -941 
z
M 1850 2406 
L 1850 3688 
Q 1488 3647 1297 3481 
Q 1106 3316 1106 3041 
Q 1106 2772 1282 2622 
Q 1459 2472 1850 2406 
z
M 2163 1806 
L 2163 453 
Q 2559 506 2761 678 
Q 2963 850 2963 1131 
Q 2963 1406 2770 1568 
Q 2578 1731 2163 1806 
z
" transform="scale(0.015625)"/>
       <path id="DejaVuSans-5d" d="M 1947 4863 
L 1947 -844 
L 622 -844 
L 622 -397 
L 1369 -397 
L 1369 4416 
L 622 4416 
L 622 4863 
L 1947 4863 
z
" transform="scale(0.015625)"/>
      </defs>
      <use xlink:href="#DejaVuSans-50"/>
      <use xlink:href="#DejaVuSans-72" x="58.552734"/>
      <use xlink:href="#DejaVuSans-6f" x="97.416016"/>
      <use xlink:href="#DejaVuSans-64" x="158.597656"/>
      <use xlink:href="#DejaVuSans-75" x="222.074219"/>
      <use xlink:href="#DejaVuSans-63" x="285.453125"/>
      <use xlink:href="#DejaVuSans-74" x="340.433594"/>
      <use xlink:href="#DejaVuSans-69" x="379.642578"/>
      <use xlink:href="#DejaVuSans-6f" x="407.425781"/>
      <use xlink:href="#DejaVuSans-6e" x="468.607422"/>
      <use xlink:href="#DejaVuSans-20" x="531.986328"/>
      <use xlink:href="#DejaVuSans-62" x="563.773438"/>
      <use xlink:href="#DejaVuSans-75" x="627.25"/>
      <use xlink:href="#DejaVuSans-64" x="690.628906"/>
      <use xlink:href="#DejaVuSans-67" x="754.105469"/>
      <use xlink:href="#DejaVuSans-65" x="817.582031"/>
      <use xlink:href="#DejaVuSans-74" x="879.105469"/>
      <use xlink:href="#DejaVuSans-20" x="918.314453"/>
      <use xlink:href="#DejaVuSans-5b" x="950.101562"/>
      <use xlink:href="#DejaVuSans-24" x="989.115234"/>
      <use xlink:href="#DejaVuSans-5d" x="1052.738281"/>
     </g>
    </g>
    <g id="text_7">
     <!-- 1e8 -->
     <g transform="translate(324.658893 437.738223)scale(0.1 -0.1)">
      <use xlink:href="#DejaVuSans-31"/>
      <use xlink:href="#DejaVuSans-65" x="63.623047"/>
      <use xlink:href="#DejaVuSans-38" x="125.146484"/>
     </g>
    </g>
   </g>
   <g id="matplotlib.axis_2">
    <g id="ytick_1">
     <g id="line2d_6">
      <defs>
       <path id="mce3bcdf4da" d="M 0 0 
L -3.5 0 
" style="stroke: #000000; stroke-width: 0.8"/>
      </defs>
      <g>
       <use xlink:href="#mce3bcdf4da" x="34.240625" y="363.272316" style="stroke: #000000; stroke-width: 0.8"/>
      </g>
     </g>
     <g id="text_8">
      <!-- 0 -->
      <g transform="translate(20.878125 367.071535)scale(0.1 -0.1)">
       <use xlink:href="#DejaVuSans-30"/>
      </g>
     </g>
    </g>
    <g id="ytick_2">
     <g id="line2d_7">
      <g>
       <use xlink:href="#mce3bcdf4da" x="34.240625" y="312.030345" style="stroke: #000000; stroke-width: 0.8"/>
      </g>
     </g>
     <g id="text_9">
      <!-- 1 -->
      <g transform="translate(20.878125 315.829563)scale(0.1 -0.1)">
       <use xlink:href="#DejaVuSans-31"/>
      </g>
     </g>
    </g>
    <g id="ytick_3">
     <g id="line2d_8">
      <g>
       <use xlink:href="#mce3bcdf4da" x="34.240625" y="260.788373" style="stroke: #000000; stroke-width: 0.8"/>
      </g>
     </g>
     <g id="text_10">
      <!-- 2 -->
      <g transform="translate(20.878125 264.587592)scale(0.1 -0.1)">
       <use xlink:href="#DejaVuSans-32"/>
      </g>
     </g>
    </g>
    <g id="ytick_4">
     <g id="line2d_9">
      <g>
       <use xlink:href="#mce3bcdf4da" x="34.240625" y="209.546402" style="stroke: #000000; stroke-width: 0.8"/>
      </g>
     </g>
     <g id="text_11">
      <!-- 3 -->
      <g transform="translate(20.878125 213.345621)scale(0.1 -0.1)">
       <defs>
        <path id="DejaVuSans-33" d="M 2597 2516 
Q 3050 2419 3304 2112 
Q 3559 1806 3559 1356 
Q 3559 666 3084 287 
Q 2609 -91 1734 -91 
Q 1441 -91 1130 -33 
Q 819 25 488 141 
L 488 750 
Q 750 597 1062 519 
Q 1375 441 1716 441 
Q 2309 441 2620 675 
Q 2931 909 2931 1356 
Q 2931 1769 2642 2001 
Q 2353 2234 1838 2234 
L 1294 2234 
L 1294 2753 
L 1863 2753 
Q 2328 2753 2575 2939 
Q 2822 3125 2822 3475 
Q 2822 3834 2567 4026 
Q 2313 4219 1838 4219 
Q 1578 4219 1281 4162 
Q 984 4106 628 3988 
L 628 4550 
Q 988 4650 1302 4700 
Q 1616 4750 1894 4750 
Q 2613 4750 3031 4423 
Q 3450 4097 3450 3541 
Q 3450 3153 3228 2886 
Q 3006 2619 2597 2516 
z
" transform="scale(0.015625)"/>
       </defs>
       <use xlink:href="#DejaVuSans-33"/>
      </g>
     </g>
    </g>
    <g id="ytick_5">
     <g id="line2d_10">
      <g>
       <use xlink:href="#mce3bcdf4da" x="34.240625" y="158.30443" style="stroke: #000000; stroke-width: 0.8"/>
      </g>
     </g>
     <g id="text_12">
      <!-- 4 -->
      <g transform="translate(20.878125 162.103649)scale(0.1 -0.1)">
       <use xlink:href="#DejaVuSans-34"/>
      </g>
     </g>
    </g>
    <g id="ytick_6">
     <g id="line2d_11">
      <g>
       <use xlink:href="#mce3bcdf4da" x="34.240625" y="107.062459" style="stroke: #000000; stroke-width: 0.8"/>
      </g>
     </g>
     <g id="text_13">
      <!-- 5 -->
      <g transform="translate(20.878125 110.861678)scale(0.1 -0.1)">
       <defs>
        <path id="DejaVuSans-35" d="M 691 4666 
L 3169 4666 
L 3169 4134 
L 1269 4134 
L 1269 2991 
Q 1406 3038 1543 3061 
Q 1681 3084 1819 3084 
Q 2600 3084 3056 2656 
Q 3513 2228 3513 1497 
Q 3513 744 3044 326 
Q 2575 -91 1722 -91 
Q 1428 -91 1123 -41 
Q 819 9 494 109 
L 494 744 
Q 775 591 1075 516 
Q 1375 441 1709 441 
Q 2250 441 2565 725 
Q 2881 1009 2881 1497 
Q 2881 1984 2565 2268 
Q 2250 2553 1709 2553 
Q 1456 2553 1204 2497 
Q 953 2441 691 2322 
L 691 4666 
z
" transform="scale(0.015625)"/>
       </defs>
       <use xlink:href="#DejaVuSans-35"/>
      </g>
     </g>
    </g>
    <g id="text_14">
     <!-- Profit [$] -->
     <g transform="translate(14.798437 275.10083)rotate(-90)scale(0.1 -0.1)">
      <defs>
       <path id="DejaVuSans-66" d="M 2375 4863 
L 2375 4384 
L 1825 4384 
Q 1516 4384 1395 4259 
Q 1275 4134 1275 3809 
L 1275 3500 
L 2222 3500 
L 2222 3053 
L 1275 3053 
L 1275 0 
L 697 0 
L 697 3053 
L 147 3053 
L 147 3500 
L 697 3500 
L 697 3744 
Q 697 4328 969 4595 
Q 1241 4863 1831 4863 
L 2375 4863 
z
" transform="scale(0.015625)"/>
      </defs>
      <use xlink:href="#DejaVuSans-50"/>
      <use xlink:href="#DejaVuSans-72" x="58.552734"/>
      <use xlink:href="#DejaVuSans-6f" x="97.416016"/>
      <use xlink:href="#DejaVuSans-66" x="158.597656"/>
      <use xlink:href="#DejaVuSans-69" x="193.802734"/>
      <use xlink:href="#DejaVuSans-74" x="221.585938"/>
      <use xlink:href="#DejaVuSans-20" x="260.794922"/>
      <use xlink:href="#DejaVuSans-5b" x="292.582031"/>
      <use xlink:href="#DejaVuSans-24" x="331.595703"/>
      <use xlink:href="#DejaVuSans-5d" x="395.21875"/>
     </g>
    </g>
    <g id="text_15">
     <!-- 1e8 -->
     <g transform="translate(34.240625 93.318125)scale(0.1 -0.1)">
      <use xlink:href="#DejaVuSans-31"/>
      <use xlink:href="#DejaVuSans-65" x="63.623047"/>
      <use xlink:href="#DejaVuSans-38" x="125.146484"/>
     </g>
    </g>
   </g>
   <g id="line2d_12">
    <path d="M 48.299552 362.996568 
L 51.139739 361.558971 
L 53.979926 360.121374 
L 56.820114 358.683777 
L 59.660301 357.24618 
L 62.500488 355.808583 
L 65.340676 354.370986 
L 68.180863 352.933389 
L 71.02105 351.495791 
L 73.861237 350.058194 
L 76.701425 348.620597 
L 79.541612 347.183 
L 82.381799 345.745403 
L 85.221986 344.307806 
L 88.062174 342.870209 
L 90.902361 341.432611 
L 93.742548 339.995014 
L 96.582735 338.557417 
L 99.422923 337.11982 
L 102.26311 335.682223 
L 105.103297 334.244626 
L 107.943484 332.807029 
L 110.783672 331.369432 
L 113.623859 329.931834 
L 116.464046 328.494237 
L 119.304234 327.05664 
L 122.144421 325.619043 
L 124.984608 324.181446 
L 127.824795 322.743849 
L 130.664983 321.306252 
L 133.50517 319.868655 
L 136.345357 318.431057 
L 139.185544 316.99346 
L 142.025732 315.555863 
L 144.865919 314.118266 
L 147.706106 312.680669 
L 150.546293 311.243072 
L 153.386481 309.805475 
L 156.226668 308.367877 
L 159.066855 306.93028 
L 161.907042 305.492683 
L 164.74723 304.055086 
L 167.587417 302.617489 
L 170.427604 301.179892 
L 173.267791 299.742295 
L 176.107979 298.304698 
L 178.948166 296.8671 
L 181.788353 295.429503 
L 184.628541 293.991906 
L 187.468728 292.554309 
L 190.308915 291.116712 
L 193.149102 289.679115 
L 195.98929 288.241518 
L 198.829477 286.80392 
L 201.669664 285.366323 
L 204.509851 283.928726 
L 207.350039 282.491129 
L 210.190226 281.053532 
L 213.030413 279.615935 
L 215.8706 278.178338 
L 218.710788 276.740741 
L 221.550975 275.303143 
L 224.391162 273.865546 
L 227.231349 272.427949 
L 230.071537 270.990352 
L 232.911724 269.552755 
L 235.751911 268.115158 
L 238.592099 266.677561 
L 241.432286 265.239963 
L 244.272473 263.802366 
L 247.11266 262.364769 
L 249.952848 260.927172 
L 252.793035 259.489575 
L 255.633222 258.051978 
L 258.473409 256.614381 
L 261.313597 255.176784 
L 264.153784 253.739186 
L 266.993971 252.301589 
L 269.834158 250.863992 
L 272.674346 249.426395 
L 275.514533 247.988798 
L 278.35472 246.551201 
L 281.194907 245.113604 
L 284.035095 243.676006 
L 286.875282 242.238409 
L 289.715469 240.800812 
L 292.555657 239.363215 
L 295.395844 237.925618 
L 298.236031 236.488021 
L 301.076218 235.050424 
L 303.916406 233.612827 
L 306.756593 232.175229 
L 309.59678 230.737632 
L 312.436967 229.300035 
L 315.277155 227.862438 
L 318.117342 226.424841 
L 320.957529 224.987244 
L 323.797716 223.549647 
L 326.637904 222.11205 
L 329.478091 220.674452 
" clip-path="url(#p727257bc43)" style="fill: none; stroke: #dc143c; stroke-width: 2.25; stroke-linecap: square"/>
   </g>
   <g id="patch_3">
    <path d="M 34.240625 410.461661 
L 34.240625 96.318125 
" style="fill: none; stroke: #000000; stroke-width: 0.8; stroke-linejoin: miter; stroke-linecap: square"/>
   </g>
   <g id="patch_4">
    <path d="M 34.240625 410.461661 
L 343.537018 410.461661 
" style="fill: none; stroke: #000000; stroke-width: 0.8; stroke-linejoin: miter; stroke-linecap: square"/>
   </g>
  </g>
  <g id="axes_2">
   <g id="patch_5">
    <path d="M 34.240625 85.485589 
L 343.537018 85.485589 
L 343.537018 31.322911 
L 34.240625 31.322911 
z
" style="fill: #ffffff"/>
   </g>
   <g id="patch_6">
    <path d="M 48.299552 85.485589 
L 118.594187 85.485589 
L 118.594187 33.902086 
L 48.299552 33.902086 
z
" clip-path="url(#p72acc8905b)" style="fill: #dc143c; fill-opacity: 0.5; stroke: #000000; stroke-linejoin: miter"/>
   </g>
   <g id="patch_7">
    <path d="M 118.594187 85.485589 
L 188.888821 85.485589 
L 188.888821 59.693838 
L 118.594187 59.693838 
z
" clip-path="url(#p72acc8905b)" style="fill: #dc143c; fill-opacity: 0.5; stroke: #000000; stroke-linejoin: miter"/>
   </g>
   <g id="patch_8">
    <path d="M 188.888821 85.485589 
L 259.183456 85.485589 
L 259.183456 72.589713 
L 188.888821 72.589713 
z
" clip-path="url(#p72acc8905b)" style="fill: #dc143c; fill-opacity: 0.5; stroke: #000000; stroke-linejoin: miter"/>
   </g>
   <g id="patch_9">
    <path d="M 259.183456 85.485589 
L 329.478091 85.485589 
L 329.478091 72.589713 
L 259.183456 72.589713 
z
" clip-path="url(#p72acc8905b)" style="fill: #dc143c; fill-opacity: 0.5; stroke: #000000; stroke-linejoin: miter"/>
   </g>
   <g id="matplotlib.axis_3">
    <g id="xtick_6">
     <g id="line2d_13">
      <g>
       <use xlink:href="#m3088636518" x="81.00745" y="85.485589" style="stroke: #000000; stroke-width: 0.8"/>
      </g>
     </g>
    </g>
    <g id="xtick_7">
     <g id="line2d_14">
      <g>
       <use xlink:href="#m3088636518" x="134.184972" y="85.485589" style="stroke: #000000; stroke-width: 0.8"/>
      </g>
     </g>
    </g>
    <g id="xtick_8">
     <g id="line2d_15">
      <g>
       <use xlink:href="#m3088636518" x="187.362494" y="85.485589" style="stroke: #000000; stroke-width: 0.8"/>
      </g>
     </g>
    </g>
    <g id="xtick_9">
     <g id="line2d_16">
      <g>
       <use xlink:href="#m3088636518" x="240.540015" y="85.485589" style="stroke: #000000; stroke-width: 0.8"/>
      </g>
     </g>
    </g>
    <g id="xtick_10">
     <g id="line2d_17">
      <g>
       <use xlink:href="#m3088636518" x="293.717537" y="85.485589" style="stroke: #000000; stroke-width: 0.8"/>
      </g>
     </g>
    </g>
    <g id="text_16">
     <!-- 1e8 -->
     <g transform="translate(324.658893 96.084027)scale(0.1 -0.1)">
      <use xlink:href="#DejaVuSans-31"/>
      <use xlink:href="#DejaVuSans-65" x="63.623047"/>
      <use xlink:href="#DejaVuSans-38" x="125.146484"/>
     </g>
    </g>
   </g>
   <g id="matplotlib.axis_4">
    <g id="ytick_7"/>
    <g id="ytick_8"/>
   </g>
   <g id="line2d_18">
    <path d="M 48.299552 62.26843 
L 58.190254 60.411913 
L 66.667999 59.039325 
L 75.145744 57.893069 
L 83.623489 56.987018 
L 92.101234 56.327121 
L 100.578979 55.913017 
L 109.056724 55.739924 
L 117.534469 55.800413 
L 126.012213 56.085768 
L 134.489958 56.58667 
L 142.967703 57.293156 
L 152.858406 58.361996 
L 162.749108 59.672642 
L 172.63981 61.195102 
L 185.356428 63.398704 
L 203.724875 66.855042 
L 223.50628 70.516222 
L 234.80994 72.389163 
L 244.700642 73.821995 
L 254.591344 75.03083 
L 264.482047 76.006046 
L 274.372749 76.758469 
L 285.676409 77.3837 
L 299.805984 77.911288 
L 329.478091 78.732938 
L 329.478091 78.732938 
" clip-path="url(#p72acc8905b)" style="fill: none; stroke: #dc143c; stroke-width: 1.5; stroke-linecap: square"/>
   </g>
   <g id="patch_10">
    <path d="M 34.240625 85.485589 
L 343.537018 85.485589 
" style="fill: none; stroke: #000000; stroke-width: 0.8; stroke-linejoin: miter; stroke-linecap: square"/>
   </g>
  </g>
  <g id="axes_3">
   <g id="patch_11">
    <path d="M 354.202411 410.461661 
L 407.529375 410.461661 
L 407.529375 96.318125 
L 354.202411 96.318125 
z
" style="fill: #ffffff"/>
   </g>
   <g id="patch_12">
    <path d="M 354.202411 363.869369 
L 404.989996 363.869369 
L 404.989996 324.367584 
L 354.202411 324.367584 
z
" clip-path="url(#p5f9b06df68)" style="fill: #dc143c; fill-opacity: 0.5; stroke: #000000; stroke-linejoin: miter"/>
   </g>
   <g id="patch_13">
    <path d="M 354.202411 324.367584 
L 366.899307 324.367584 
L 366.899307 284.865798 
L 354.202411 284.865798 
z
" clip-path="url(#p5f9b06df68)" style="fill: #dc143c; fill-opacity: 0.5; stroke: #000000; stroke-linejoin: miter"/>
   </g>
   <g id="patch_14">
    <path d="M 354.202411 284.865798 
L 354.202411 284.865798 
L 354.202411 245.364013 
L 354.202411 245.364013 
z
" clip-path="url(#p5f9b06df68)" style="fill: #dc143c; fill-opacity: 0.5; stroke: #000000; stroke-linejoin: miter"/>
   </g>
   <g id="patch_15">
    <path d="M 354.202411 245.364013 
L 366.899307 245.364013 
L 366.899307 205.862228 
L 354.202411 205.862228 
z
" clip-path="url(#p5f9b06df68)" style="fill: #dc143c; fill-opacity: 0.5; stroke: #000000; stroke-linejoin: miter"/>
   </g>
   <g id="matplotlib.axis_5">
    <g id="xtick_11"/>
    <g id="xtick_12"/>
   </g>
   <g id="matplotlib.axis_6">
    <g id="ytick_9">
     <g id="line2d_19">
      <g>
       <use xlink:href="#mce3bcdf4da" x="354.202411" y="363.272316" style="stroke: #000000; stroke-width: 0.8"/>
      </g>
     </g>
    </g>
    <g id="ytick_10">
     <g id="line2d_20">
      <g>
       <use xlink:href="#mce3bcdf4da" x="354.202411" y="312.030345" style="stroke: #000000; stroke-width: 0.8"/>
      </g>
     </g>
    </g>
    <g id="ytick_11">
     <g id="line2d_21">
      <g>
       <use xlink:href="#mce3bcdf4da" x="354.202411" y="260.788373" style="stroke: #000000; stroke-width: 0.8"/>
      </g>
     </g>
    </g>
    <g id="ytick_12">
     <g id="line2d_22">
      <g>
       <use xlink:href="#mce3bcdf4da" x="354.202411" y="209.546402" style="stroke: #000000; stroke-width: 0.8"/>
      </g>
     </g>
    </g>
    <g id="ytick_13">
     <g id="line2d_23">
      <g>
       <use xlink:href="#mce3bcdf4da" x="354.202411" y="158.30443" style="stroke: #000000; stroke-width: 0.8"/>
      </g>
     </g>
    </g>
    <g id="ytick_14">
     <g id="line2d_24">
      <g>
       <use xlink:href="#mce3bcdf4da" x="354.202411" y="107.062459" style="stroke: #000000; stroke-width: 0.8"/>
      </g>
     </g>
    </g>
    <g id="text_17">
     <!-- 1e8 -->
     <g transform="translate(354.202411 93.318125)scale(0.1 -0.1)">
      <use xlink:href="#DejaVuSans-31"/>
      <use xlink:href="#DejaVuSans-65" x="63.623047"/>
      <use xlink:href="#DejaVuSans-38" x="125.146484"/>
     </g>
    </g>
   </g>
   <g id="line2d_25">
    <path d="M 373.489743 363.869369 
L 374.083249 358.311329 
L 374.421822 352.753289 
L 374.504398 347.989254 
L 374.362527 342.431214 
L 373.978097 336.873174 
L 373.374618 331.315134 
L 372.456548 324.963088 
L 371.197697 317.817036 
L 369.120994 307.494962 
L 365.073901 287.644818 
L 363.549791 278.910755 
L 362.389102 270.970698 
L 361.465598 263.030641 
L 360.777759 255.090583 
L 360.265526 246.35652 
L 359.934989 236.828451 
L 359.670314 221.742342 
L 359.367444 205.862228 
L 359.367444 205.862228 
" clip-path="url(#p5f9b06df68)" style="fill: none; stroke: #dc143c; stroke-width: 1.5; stroke-linecap: square"/>
   </g>
   <g id="patch_16">
    <path d="M 354.202411 410.461661 
L 354.202411 96.318125 
" style="fill: none; stroke: #000000; stroke-width: 0.8; stroke-linejoin: miter; stroke-linecap: square"/>
   </g>
   <g id="text_18">
    <!-- relationship between budget and profit for Short Film movies -->
    <g transform="translate(41.394375 16.318125)scale(0.12 -0.12)">
     <defs>
      <path id="DejaVuSans-6c" d="M 603 4863 
L 1178 4863 
L 1178 0 
L 603 0 
L 603 4863 
z
" transform="scale(0.015625)"/>
      <path id="DejaVuSans-61" d="M 2194 1759 
Q 1497 1759 1228 1600 
Q 959 1441 959 1056 
Q 959 750 1161 570 
Q 1363 391 1709 391 
Q 2188 391 2477 730 
Q 2766 1069 2766 1631 
L 2766 1759 
L 2194 1759 
z
M 3341 1997 
L 3341 0 
L 2766 0 
L 2766 531 
Q 2569 213 2275 61 
Q 1981 -91 1556 -91 
Q 1019 -91 701 211 
Q 384 513 384 1019 
Q 384 1609 779 1909 
Q 1175 2209 1959 2209 
L 2766 2209 
L 2766 2266 
Q 2766 2663 2505 2880 
Q 2244 3097 1772 3097 
Q 1472 3097 1187 3025 
Q 903 2953 641 2809 
L 641 3341 
Q 956 3463 1253 3523 
Q 1550 3584 1831 3584 
Q 2591 3584 2966 3190 
Q 3341 2797 3341 1997 
z
" transform="scale(0.015625)"/>
      <path id="DejaVuSans-73" d="M 2834 3397 
L 2834 2853 
Q 2591 2978 2328 3040 
Q 2066 3103 1784 3103 
Q 1356 3103 1142 2972 
Q 928 2841 928 2578 
Q 928 2378 1081 2264 
Q 1234 2150 1697 2047 
L 1894 2003 
Q 2506 1872 2764 1633 
Q 3022 1394 3022 966 
Q 3022 478 2636 193 
Q 2250 -91 1575 -91 
Q 1294 -91 989 -36 
Q 684 19 347 128 
L 347 722 
Q 666 556 975 473 
Q 1284 391 1588 391 
Q 1994 391 2212 530 
Q 2431 669 2431 922 
Q 2431 1156 2273 1281 
Q 2116 1406 1581 1522 
L 1381 1569 
Q 847 1681 609 1914 
Q 372 2147 372 2553 
Q 372 3047 722 3315 
Q 1072 3584 1716 3584 
Q 2034 3584 2315 3537 
Q 2597 3491 2834 3397 
z
" transform="scale(0.015625)"/>
      <path id="DejaVuSans-68" d="M 3513 2113 
L 3513 0 
L 2938 0 
L 2938 2094 
Q 2938 2591 2744 2837 
Q 2550 3084 2163 3084 
Q 1697 3084 1428 2787 
Q 1159 2491 1159 1978 
L 1159 0 
L 581 0 
L 581 4863 
L 1159 4863 
L 1159 2956 
Q 1366 3272 1645 3428 
Q 1925 3584 2291 3584 
Q 2894 3584 3203 3211 
Q 3513 2838 3513 2113 
z
" transform="scale(0.015625)"/>
      <path id="DejaVuSans-70" d="M 1159 525 
L 1159 -1331 
L 581 -1331 
L 581 3500 
L 1159 3500 
L 1159 2969 
Q 1341 3281 1617 3432 
Q 1894 3584 2278 3584 
Q 2916 3584 3314 3078 
Q 3713 2572 3713 1747 
Q 3713 922 3314 415 
Q 2916 -91 2278 -91 
Q 1894 -91 1617 61 
Q 1341 213 1159 525 
z
M 3116 1747 
Q 3116 2381 2855 2742 
Q 2594 3103 2138 3103 
Q 1681 3103 1420 2742 
Q 1159 2381 1159 1747 
Q 1159 1113 1420 752 
Q 1681 391 2138 391 
Q 2594 391 2855 752 
Q 3116 1113 3116 1747 
z
" transform="scale(0.015625)"/>
      <path id="DejaVuSans-77" d="M 269 3500 
L 844 3500 
L 1563 769 
L 2278 3500 
L 2956 3500 
L 3675 769 
L 4391 3500 
L 4966 3500 
L 4050 0 
L 3372 0 
L 2619 2869 
L 1863 0 
L 1184 0 
L 269 3500 
z
" transform="scale(0.015625)"/>
      <path id="DejaVuSans-53" d="M 3425 4513 
L 3425 3897 
Q 3066 4069 2747 4153 
Q 2428 4238 2131 4238 
Q 1616 4238 1336 4038 
Q 1056 3838 1056 3469 
Q 1056 3159 1242 3001 
Q 1428 2844 1947 2747 
L 2328 2669 
Q 3034 2534 3370 2195 
Q 3706 1856 3706 1288 
Q 3706 609 3251 259 
Q 2797 -91 1919 -91 
Q 1588 -91 1214 -16 
Q 841 59 441 206 
L 441 856 
Q 825 641 1194 531 
Q 1563 422 1919 422 
Q 2459 422 2753 634 
Q 3047 847 3047 1241 
Q 3047 1584 2836 1778 
Q 2625 1972 2144 2069 
L 1759 2144 
Q 1053 2284 737 2584 
Q 422 2884 422 3419 
Q 422 4038 858 4394 
Q 1294 4750 2059 4750 
Q 2388 4750 2728 4690 
Q 3069 4631 3425 4513 
z
" transform="scale(0.015625)"/>
      <path id="DejaVuSans-46" d="M 628 4666 
L 3309 4666 
L 3309 4134 
L 1259 4134 
L 1259 2759 
L 3109 2759 
L 3109 2228 
L 1259 2228 
L 1259 0 
L 628 0 
L 628 4666 
z
" transform="scale(0.015625)"/>
      <path id="DejaVuSans-6d" d="M 3328 2828 
Q 3544 3216 3844 3400 
Q 4144 3584 4550 3584 
Q 5097 3584 5394 3201 
Q 5691 2819 5691 2113 
L 5691 0 
L 5113 0 
L 5113 2094 
Q 5113 2597 4934 2840 
Q 4756 3084 4391 3084 
Q 3944 3084 3684 2787 
Q 3425 2491 3425 1978 
L 3425 0 
L 2847 0 
L 2847 2094 
Q 2847 2600 2669 2842 
Q 2491 3084 2119 3084 
Q 1678 3084 1418 2786 
Q 1159 2488 1159 1978 
L 1159 0 
L 581 0 
L 581 3500 
L 1159 3500 
L 1159 2956 
Q 1356 3278 1631 3431 
Q 1906 3584 2284 3584 
Q 2666 3584 2933 3390 
Q 3200 3197 3328 2828 
z
" transform="scale(0.015625)"/>
      <path id="DejaVuSans-76" d="M 191 3500 
L 800 3500 
L 1894 563 
L 2988 3500 
L 3597 3500 
L 2284 0 
L 1503 0 
L 191 3500 
z
" transform="scale(0.015625)"/>
     </defs>
     <use xlink:href="#DejaVuSans-72"/>
     <use xlink:href="#DejaVuSans-65" x="38.863281"/>
     <use xlink:href="#DejaVuSans-6c" x="100.386719"/>
     <use xlink:href="#DejaVuSans-61" x="128.169922"/>
     <use xlink:href="#DejaVuSans-74" x="189.449219"/>
     <use xlink:href="#DejaVuSans-69" x="228.658203"/>
     <use xlink:href="#DejaVuSans-6f" x="256.441406"/>
     <use xlink:href="#DejaVuSans-6e" x="317.623047"/>
     <use xlink:href="#DejaVuSans-73" x="381.001953"/>
     <use xlink:href="#DejaVuSans-68" x="433.101562"/>
     <use xlink:href="#DejaVuSans-69" x="496.480469"/>
     <use xlink:href="#DejaVuSans-70" x="524.263672"/>
     <use xlink:href="#DejaVuSans-20" x="587.740234"/>
     <use xlink:href="#DejaVuSans-62" x="619.527344"/>
     <use xlink:href="#DejaVuSans-65" x="683.003906"/>
     <use xlink:href="#DejaVuSans-74" x="744.527344"/>
     <use xlink:href="#DejaVuSans-77" x="783.736328"/>
     <use xlink:href="#DejaVuSans-65" x="865.523438"/>
     <use xlink:href="#DejaVuSans-65" x="927.046875"/>
     <use xlink:href="#DejaVuSans-6e" x="988.570312"/>
     <use xlink:href="#DejaVuSans-20" x="1051.949219"/>
     <use xlink:href="#DejaVuSans-62" x="1083.736328"/>
     <use xlink:href="#DejaVuSans-75" x="1147.212891"/>
     <use xlink:href="#DejaVuSans-64" x="1210.591797"/>
     <use xlink:href="#DejaVuSans-67" x="1274.068359"/>
     <use xlink:href="#DejaVuSans-65" x="1337.544922"/>
     <use xlink:href="#DejaVuSans-74" x="1399.068359"/>
     <use xlink:href="#DejaVuSans-20" x="1438.277344"/>
     <use xlink:href="#DejaVuSans-61" x="1470.064453"/>
     <use xlink:href="#DejaVuSans-6e" x="1531.34375"/>
     <use xlink:href="#DejaVuSans-64" x="1594.722656"/>
     <use xlink:href="#DejaVuSans-20" x="1658.199219"/>
     <use xlink:href="#DejaVuSans-70" x="1689.986328"/>
     <use xlink:href="#DejaVuSans-72" x="1753.462891"/>
     <use xlink:href="#DejaVuSans-6f" x="1792.326172"/>
     <use xlink:href="#DejaVuSans-66" x="1853.507812"/>
     <use xlink:href="#DejaVuSans-69" x="1888.712891"/>
     <use xlink:href="#DejaVuSans-74" x="1916.496094"/>
     <use xlink:href="#DejaVuSans-20" x="1955.705078"/>
     <use xlink:href="#DejaVuSans-66" x="1987.492188"/>
     <use xlink:href="#DejaVuSans-6f" x="2022.697266"/>
     <use xlink:href="#DejaVuSans-72" x="2083.878906"/>
     <use xlink:href="#DejaVuSans-20" x="2124.992188"/>
     <use xlink:href="#DejaVuSans-53" x="2156.779297"/>
     <use xlink:href="#DejaVuSans-68" x="2220.255859"/>
     <use xlink:href="#DejaVuSans-6f" x="2283.634766"/>
     <use xlink:href="#DejaVuSans-72" x="2344.816406"/>
     <use xlink:href="#DejaVuSans-74" x="2385.929688"/>
     <use xlink:href="#DejaVuSans-20" x="2425.138672"/>
     <use xlink:href="#DejaVuSans-46" x="2456.925781"/>
     <use xlink:href="#DejaVuSans-69" x="2507.195312"/>
     <use xlink:href="#DejaVuSans-6c" x="2534.978516"/>
     <use xlink:href="#DejaVuSans-6d" x="2562.761719"/>
     <use xlink:href="#DejaVuSans-20" x="2660.173828"/>
     <use xlink:href="#DejaVuSans-6d" x="2691.960938"/>
     <use xlink:href="#DejaVuSans-6f" x="2789.373047"/>
     <use xlink:href="#DejaVuSans-76" x="2850.554688"/>
     <use xlink:href="#DejaVuSans-69" x="2909.734375"/>
     <use xlink:href="#DejaVuSans-65" x="2937.517578"/>
     <use xlink:href="#DejaVuSans-73" x="2999.041016"/>
    </g>
   </g>
  </g>
 </g>
 <defs>
  <clipPath id="p727257bc43">
   <rect x="34.240625" y="96.318125" width="309.296393" height="314.143536"/>
  </clipPath>
  <clipPath id="p72acc8905b">
   <rect x="34.240625" y="31.322911" width="309.296393" height="54.162679"/>
  </clipPath>
  <clipPath id="p5f9b06df68">
   <rect x="354.202411" y="96.318125" width="53.326964" height="314.143536"/>
  </clipPath>
 </defs>
</svg>
