<?xml version="1.0" encoding="utf-8" standalone="no"?>
<!DOCTYPE svg PUBLIC "-//W3C//DTD SVG 1.1//EN"
  "http://www.w3.org/Graphics/SVG/1.1/DTD/svg11.dtd">
<svg xmlns:xlink="http://www.w3.org/1999/xlink" width="414.729375pt" height="448.017911pt" viewBox="0 0 414.729375 448.017911" xmlns="http://www.w3.org/2000/svg" version="1.1">
 <metadata>
  <rdf:RDF xmlns:dc="http://purl.org/dc/elements/1.1/" xmlns:cc="http://creativecommons.org/ns#" xmlns:rdf="http://www.w3.org/1999/02/22-rdf-syntax-ns#">
   <cc:Work>
    <dc:type rdf:resource="http://purl.org/dc/dcmitype/StillImage"/>
    <dc:date>2022-12-23T18:24:06.165317</dc:date>
    <dc:format>image/svg+xml</dc:format>
    <dc:creator>
     <cc:Agent>
      <dc:title>Matplotlib v3.5.2, https://matplotlib.org/</dc:title>
     </cc:Agent>
    </dc:creator>
   </cc:Work>
  </rdf:RDF>
 </metadata>
 <defs>
  <style type="text/css">*{stroke-linejoin: round; stroke-linecap: butt}</style>
 </defs>
 <g id="figure_1">
  <g id="patch_1">
   <path d="M -0 448.017911 
L 414.729375 448.017911 
L 414.729375 0 
L -0 0 
z
" style="fill: #ffffff"/>
  </g>
  <g id="axes_1">
   <g id="patch_2">
    <path d="M 34.240625 410.461661 
L 343.537018 410.461661 
L 343.537018 96.318125 
L 34.240625 96.318125 
z
" style="fill: #ffffff"/>
   </g>
   <g id="PathCollection_1">
    <defs>
     <path id="m333fc4b84e" d="M 0 3 
C 0.795609 3 1.55874 2.683901 2.12132 2.12132 
C 2.683901 1.55874 3 0.795609 3 0 
C 3 -0.795609 2.683901 -1.55874 2.12132 -2.12132 
C 1.55874 -2.683901 0.795609 -3 0 -3 
C -0.795609 -3 -1.55874 -2.683901 -2.12132 -2.12132 
C -2.683901 -1.55874 -3 -0.795609 -3 0 
C -3 0.795609 -2.683901 1.55874 -2.12132 2.12132 
C -1.55874 2.683901 -0.795609 3 0 3 
z
" style="stroke: #dc143c; stroke-opacity: 0.8"/>
    </defs>
    <g clip-path="url(#pe3621c0e3c)">
     <use xlink:href="#m333fc4b84e" x="48.299552" y="396.182409" style="fill: #dc143c; fill-opacity: 0.8; stroke: #dc143c; stroke-opacity: 0.8"/>
     <use xlink:href="#m333fc4b84e" x="329.478091" y="110.597377" style="fill: #dc143c; fill-opacity: 0.8; stroke: #dc143c; stroke-opacity: 0.8"/>
    </g>
   </g>
   <g id="PolyCollection_1">
    <path d="M 48.299552 381.706278 
L 48.299552 396.182409 
L 51.139739 394.369754 
L 53.979926 392.5571 
L 56.820114 390.744445 
L 59.660301 388.93179 
L 62.500488 387.119135 
L 65.340676 385.306481 
L 68.180863 383.493826 
L 71.02105 381.681171 
L 73.861237 379.868516 
L 76.701425 378.055862 
L 79.541612 376.243207 
L 82.381799 374.430552 
L 85.221986 372.617897 
L 88.062174 370.805243 
L 90.902361 368.992588 
L 93.742548 367.179933 
L 96.582735 365.367278 
L 99.422923 363.554624 
L 102.26311 361.741969 
L 105.103297 359.929314 
L 107.943484 358.116659 
L 110.783672 356.304005 
L 113.623859 354.49135 
L 116.464046 352.678695 
L 119.304234 350.86604 
L 122.144421 349.053386 
L 124.984608 347.240731 
L 127.824795 345.428076 
L 130.664983 343.615421 
L 133.50517 341.802767 
L 136.345357 339.990112 
L 139.185544 338.177457 
L 142.025732 336.364802 
L 144.865919 334.552148 
L 147.706106 332.739493 
L 150.546293 330.926838 
L 153.386481 329.114183 
L 156.226668 327.301529 
L 159.066855 325.488874 
L 161.907042 323.676219 
L 164.74723 321.863564 
L 167.587417 320.05091 
L 170.427604 318.238255 
L 173.267791 316.4256 
L 176.107979 314.612945 
L 178.948166 312.800291 
L 181.788353 310.987636 
L 184.628541 309.174981 
L 187.468728 307.362326 
L 190.308915 305.549672 
L 193.149102 303.737017 
L 195.98929 301.924362 
L 198.829477 300.111707 
L 201.669664 298.299053 
L 204.509851 296.486398 
L 207.350039 294.673743 
L 210.190226 292.861088 
L 213.030413 291.048433 
L 215.8706 289.235779 
L 218.710788 287.423124 
L 221.550975 285.610469 
L 224.391162 283.797814 
L 227.231349 281.98516 
L 230.071537 280.172505 
L 232.911724 278.35985 
L 235.751911 276.547195 
L 238.592099 274.734541 
L 241.432286 272.921886 
L 244.272473 271.109231 
L 247.11266 269.296576 
L 249.952848 267.483922 
L 252.793035 265.671267 
L 255.633222 263.858612 
L 258.473409 262.045957 
L 261.313597 260.233303 
L 264.153784 258.420648 
L 266.993971 256.607993 
L 269.834158 254.795338 
L 272.674346 252.982684 
L 275.514533 251.170029 
L 278.35472 249.357374 
L 281.194907 247.544719 
L 284.035095 245.732065 
L 286.875282 243.91941 
L 289.715469 242.106755 
L 292.555657 240.2941 
L 295.395844 238.481446 
L 298.236031 236.668791 
L 301.076218 234.856136 
L 303.916406 233.043481 
L 306.756593 231.230827 
L 309.59678 229.418172 
L 312.436967 227.605517 
L 315.277155 225.792862 
L 318.117342 223.980208 
L 320.957529 222.167553 
L 323.797716 220.354898 
L 326.637904 218.542243 
L 329.478091 216.729589 
L 329.478091 110.597377 
L 329.478091 110.597377 
L 326.637904 113.33585 
L 323.797716 116.074324 
L 320.957529 118.812798 
L 318.117342 121.551272 
L 315.277155 124.289745 
L 312.436967 127.028219 
L 309.59678 129.766693 
L 306.756593 132.505167 
L 303.916406 135.24364 
L 301.076218 137.982114 
L 298.236031 140.720588 
L 295.395844 143.459062 
L 292.555657 146.197535 
L 289.715469 148.936009 
L 286.875282 151.674483 
L 284.035095 154.412957 
L 281.194907 157.15143 
L 278.35472 159.889904 
L 275.514533 162.628378 
L 272.674346 165.366852 
L 269.834158 168.105325 
L 266.993971 170.843799 
L 264.153784 173.582273 
L 261.313597 176.320747 
L 258.473409 179.05922 
L 255.633222 181.797694 
L 252.793035 184.536168 
L 249.952848 187.274642 
L 247.11266 190.013115 
L 244.272473 192.751589 
L 241.432286 195.490063 
L 238.592099 198.228537 
L 235.751911 200.96701 
L 232.911724 203.705484 
L 230.071537 206.443958 
L 227.231349 209.182432 
L 224.391162 211.920905 
L 221.550975 214.659379 
L 218.710788 217.397853 
L 215.8706 220.136327 
L 213.030413 222.8748 
L 210.190226 225.613274 
L 207.350039 228.351748 
L 204.509851 231.090222 
L 201.669664 233.828695 
L 198.829477 236.567169 
L 195.98929 239.305643 
L 193.149102 242.044117 
L 190.308915 244.78259 
L 187.468728 247.521064 
L 184.628541 250.259538 
L 181.788353 252.998012 
L 178.948166 255.736485 
L 176.107979 258.474959 
L 173.267791 261.213433 
L 170.427604 263.951907 
L 167.587417 266.69038 
L 164.74723 269.428854 
L 161.907042 272.167328 
L 159.066855 274.905802 
L 156.226668 277.644275 
L 153.386481 280.382749 
L 150.546293 283.121223 
L 147.706106 285.859697 
L 144.865919 288.59817 
L 142.025732 291.336644 
L 139.185544 294.075118 
L 136.345357 296.813592 
L 133.50517 299.552065 
L 130.664983 302.290539 
L 127.824795 305.029013 
L 124.984608 307.767487 
L 122.144421 310.50596 
L 119.304234 313.244434 
L 116.464046 315.982908 
L 113.623859 318.721382 
L 110.783672 321.459855 
L 107.943484 324.198329 
L 105.103297 326.936803 
L 102.26311 329.675277 
L 99.422923 332.41375 
L 96.582735 335.152224 
L 93.742548 337.890698 
L 90.902361 340.629172 
L 88.062174 343.367645 
L 85.221986 346.106119 
L 82.381799 348.844593 
L 79.541612 351.583067 
L 76.701425 354.32154 
L 73.861237 357.060014 
L 71.02105 359.798488 
L 68.180863 362.536962 
L 65.340676 365.275435 
L 62.500488 368.013909 
L 59.660301 370.752383 
L 56.820114 373.490857 
L 53.979926 376.22933 
L 51.139739 378.967804 
L 48.299552 381.706278 
z
" clip-path="url(#pe3621c0e3c)" style="fill: #dc143c; fill-opacity: 0.15"/>
   </g>
   <g id="matplotlib.axis_1">
    <g id="xtick_1">
     <g id="line2d_1">
      <defs>
       <path id="mb924522522" d="M 0 0 
L 0 3.5 
" style="stroke: #000000; stroke-width: 0.8"/>
      </defs>
      <g>
       <use xlink:href="#mb924522522" x="40.261515" y="410.461661" style="stroke: #000000; stroke-width: 0.8"/>
      </g>
     </g>
     <g id="text_1">
      <!-- 1 -->
      <g transform="translate(37.080265 425.060098)scale(0.1 -0.1)">
       <defs>
        <path id="DejaVuSans-31" d="M 794 531 
L 1825 531 
L 1825 4091 
L 703 3866 
L 703 4441 
L 1819 4666 
L 2450 4666 
L 2450 531 
L 3481 531 
L 3481 0 
L 794 0 
L 794 531 
z
" transform="scale(0.015625)"/>
       </defs>
       <use xlink:href="#DejaVuSans-31"/>
      </g>
     </g>
    </g>
    <g id="xtick_2">
     <g id="line2d_2">
      <g>
       <use xlink:href="#mb924522522" x="76.632723" y="410.461661" style="stroke: #000000; stroke-width: 0.8"/>
      </g>
     </g>
     <g id="text_2">
      <!-- 2 -->
      <g transform="translate(73.451473 425.060098)scale(0.1 -0.1)">
       <defs>
        <path id="DejaVuSans-32" d="M 1228 531 
L 3431 531 
L 3431 0 
L 469 0 
L 469 531 
Q 828 903 1448 1529 
Q 2069 2156 2228 2338 
Q 2531 2678 2651 2914 
Q 2772 3150 2772 3378 
Q 2772 3750 2511 3984 
Q 2250 4219 1831 4219 
Q 1534 4219 1204 4116 
Q 875 4013 500 3803 
L 500 4441 
Q 881 4594 1212 4672 
Q 1544 4750 1819 4750 
Q 2544 4750 2975 4387 
Q 3406 4025 3406 3419 
Q 3406 3131 3298 2873 
Q 3191 2616 2906 2266 
Q 2828 2175 2409 1742 
Q 1991 1309 1228 531 
z
" transform="scale(0.015625)"/>
       </defs>
       <use xlink:href="#DejaVuSans-32"/>
      </g>
     </g>
    </g>
    <g id="xtick_3">
     <g id="line2d_3">
      <g>
       <use xlink:href="#mb924522522" x="113.003932" y="410.461661" style="stroke: #000000; stroke-width: 0.8"/>
      </g>
     </g>
     <g id="text_3">
      <!-- 3 -->
      <g transform="translate(109.822682 425.060098)scale(0.1 -0.1)">
       <defs>
        <path id="DejaVuSans-33" d="M 2597 2516 
Q 3050 2419 3304 2112 
Q 3559 1806 3559 1356 
Q 3559 666 3084 287 
Q 2609 -91 1734 -91 
Q 1441 -91 1130 -33 
Q 819 25 488 141 
L 488 750 
Q 750 597 1062 519 
Q 1375 441 1716 441 
Q 2309 441 2620 675 
Q 2931 909 2931 1356 
Q 2931 1769 2642 2001 
Q 2353 2234 1838 2234 
L 1294 2234 
L 1294 2753 
L 1863 2753 
Q 2328 2753 2575 2939 
Q 2822 3125 2822 3475 
Q 2822 3834 2567 4026 
Q 2313 4219 1838 4219 
Q 1578 4219 1281 4162 
Q 984 4106 628 3988 
L 628 4550 
Q 988 4650 1302 4700 
Q 1616 4750 1894 4750 
Q 2613 4750 3031 4423 
Q 3450 4097 3450 3541 
Q 3450 3153 3228 2886 
Q 3006 2619 2597 2516 
z
" transform="scale(0.015625)"/>
       </defs>
       <use xlink:href="#DejaVuSans-33"/>
      </g>
     </g>
    </g>
    <g id="xtick_4">
     <g id="line2d_4">
      <g>
       <use xlink:href="#mb924522522" x="149.37514" y="410.461661" style="stroke: #000000; stroke-width: 0.8"/>
      </g>
     </g>
     <g id="text_4">
      <!-- 4 -->
      <g transform="translate(146.19389 425.060098)scale(0.1 -0.1)">
       <defs>
        <path id="DejaVuSans-34" d="M 2419 4116 
L 825 1625 
L 2419 1625 
L 2419 4116 
z
M 2253 4666 
L 3047 4666 
L 3047 1625 
L 3713 1625 
L 3713 1100 
L 3047 1100 
L 3047 0 
L 2419 0 
L 2419 1100 
L 313 1100 
L 313 1709 
L 2253 4666 
z
" transform="scale(0.015625)"/>
       </defs>
       <use xlink:href="#DejaVuSans-34"/>
      </g>
     </g>
    </g>
    <g id="xtick_5">
     <g id="line2d_5">
      <g>
       <use xlink:href="#mb924522522" x="185.746349" y="410.461661" style="stroke: #000000; stroke-width: 0.8"/>
      </g>
     </g>
     <g id="text_5">
      <!-- 5 -->
      <g transform="translate(182.565099 425.060098)scale(0.1 -0.1)">
       <defs>
        <path id="DejaVuSans-35" d="M 691 4666 
L 3169 4666 
L 3169 4134 
L 1269 4134 
L 1269 2991 
Q 1406 3038 1543 3061 
Q 1681 3084 1819 3084 
Q 2600 3084 3056 2656 
Q 3513 2228 3513 1497 
Q 3513 744 3044 326 
Q 2575 -91 1722 -91 
Q 1428 -91 1123 -41 
Q 819 9 494 109 
L 494 744 
Q 775 591 1075 516 
Q 1375 441 1709 441 
Q 2250 441 2565 725 
Q 2881 1009 2881 1497 
Q 2881 1984 2565 2268 
Q 2250 2553 1709 2553 
Q 1456 2553 1204 2497 
Q 953 2441 691 2322 
L 691 4666 
z
" transform="scale(0.015625)"/>
       </defs>
       <use xlink:href="#DejaVuSans-35"/>
      </g>
     </g>
    </g>
    <g id="xtick_6">
     <g id="line2d_6">
      <g>
       <use xlink:href="#mb924522522" x="222.117558" y="410.461661" style="stroke: #000000; stroke-width: 0.8"/>
      </g>
     </g>
     <g id="text_6">
      <!-- 6 -->
      <g transform="translate(218.936308 425.060098)scale(0.1 -0.1)">
       <defs>
        <path id="DejaVuSans-36" d="M 2113 2584 
Q 1688 2584 1439 2293 
Q 1191 2003 1191 1497 
Q 1191 994 1439 701 
Q 1688 409 2113 409 
Q 2538 409 2786 701 
Q 3034 994 3034 1497 
Q 3034 2003 2786 2293 
Q 2538 2584 2113 2584 
z
M 3366 4563 
L 3366 3988 
Q 3128 4100 2886 4159 
Q 2644 4219 2406 4219 
Q 1781 4219 1451 3797 
Q 1122 3375 1075 2522 
Q 1259 2794 1537 2939 
Q 1816 3084 2150 3084 
Q 2853 3084 3261 2657 
Q 3669 2231 3669 1497 
Q 3669 778 3244 343 
Q 2819 -91 2113 -91 
Q 1303 -91 875 529 
Q 447 1150 447 2328 
Q 447 3434 972 4092 
Q 1497 4750 2381 4750 
Q 2619 4750 2861 4703 
Q 3103 4656 3366 4563 
z
" transform="scale(0.015625)"/>
       </defs>
       <use xlink:href="#DejaVuSans-36"/>
      </g>
     </g>
    </g>
    <g id="xtick_7">
     <g id="line2d_7">
      <g>
       <use xlink:href="#mb924522522" x="258.488766" y="410.461661" style="stroke: #000000; stroke-width: 0.8"/>
      </g>
     </g>
     <g id="text_7">
      <!-- 7 -->
      <g transform="translate(255.307516 425.060098)scale(0.1 -0.1)">
       <defs>
        <path id="DejaVuSans-37" d="M 525 4666 
L 3525 4666 
L 3525 4397 
L 1831 0 
L 1172 0 
L 2766 4134 
L 525 4134 
L 525 4666 
z
" transform="scale(0.015625)"/>
       </defs>
       <use xlink:href="#DejaVuSans-37"/>
      </g>
     </g>
    </g>
    <g id="xtick_8">
     <g id="line2d_8">
      <g>
       <use xlink:href="#mb924522522" x="294.859975" y="410.461661" style="stroke: #000000; stroke-width: 0.8"/>
      </g>
     </g>
     <g id="text_8">
      <!-- 8 -->
      <g transform="translate(291.678725 425.060098)scale(0.1 -0.1)">
       <defs>
        <path id="DejaVuSans-38" d="M 2034 2216 
Q 1584 2216 1326 1975 
Q 1069 1734 1069 1313 
Q 1069 891 1326 650 
Q 1584 409 2034 409 
Q 2484 409 2743 651 
Q 3003 894 3003 1313 
Q 3003 1734 2745 1975 
Q 2488 2216 2034 2216 
z
M 1403 2484 
Q 997 2584 770 2862 
Q 544 3141 544 3541 
Q 544 4100 942 4425 
Q 1341 4750 2034 4750 
Q 2731 4750 3128 4425 
Q 3525 4100 3525 3541 
Q 3525 3141 3298 2862 
Q 3072 2584 2669 2484 
Q 3125 2378 3379 2068 
Q 3634 1759 3634 1313 
Q 3634 634 3220 271 
Q 2806 -91 2034 -91 
Q 1263 -91 848 271 
Q 434 634 434 1313 
Q 434 1759 690 2068 
Q 947 2378 1403 2484 
z
M 1172 3481 
Q 1172 3119 1398 2916 
Q 1625 2713 2034 2713 
Q 2441 2713 2670 2916 
Q 2900 3119 2900 3481 
Q 2900 3844 2670 4047 
Q 2441 4250 2034 4250 
Q 1625 4250 1398 4047 
Q 1172 3844 1172 3481 
z
" transform="scale(0.015625)"/>
       </defs>
       <use xlink:href="#DejaVuSans-38"/>
      </g>
     </g>
    </g>
    <g id="xtick_9">
     <g id="line2d_9">
      <g>
       <use xlink:href="#mb924522522" x="331.231183" y="410.461661" style="stroke: #000000; stroke-width: 0.8"/>
      </g>
     </g>
     <g id="text_9">
      <!-- 9 -->
      <g transform="translate(328.049933 425.060098)scale(0.1 -0.1)">
       <defs>
        <path id="DejaVuSans-39" d="M 703 97 
L 703 672 
Q 941 559 1184 500 
Q 1428 441 1663 441 
Q 2288 441 2617 861 
Q 2947 1281 2994 2138 
Q 2813 1869 2534 1725 
Q 2256 1581 1919 1581 
Q 1219 1581 811 2004 
Q 403 2428 403 3163 
Q 403 3881 828 4315 
Q 1253 4750 1959 4750 
Q 2769 4750 3195 4129 
Q 3622 3509 3622 2328 
Q 3622 1225 3098 567 
Q 2575 -91 1691 -91 
Q 1453 -91 1209 -44 
Q 966 3 703 97 
z
M 1959 2075 
Q 2384 2075 2632 2365 
Q 2881 2656 2881 3163 
Q 2881 3666 2632 3958 
Q 2384 4250 1959 4250 
Q 1534 4250 1286 3958 
Q 1038 3666 1038 3163 
Q 1038 2656 1286 2365 
Q 1534 2075 1959 2075 
z
" transform="scale(0.015625)"/>
       </defs>
       <use xlink:href="#DejaVuSans-39"/>
      </g>
     </g>
    </g>
    <g id="text_10">
     <!-- Production budget [$] -->
     <g transform="translate(134.30054 438.738223)scale(0.1 -0.1)">
      <defs>
       <path id="DejaVuSans-50" d="M 1259 4147 
L 1259 2394 
L 2053 2394 
Q 2494 2394 2734 2622 
Q 2975 2850 2975 3272 
Q 2975 3691 2734 3919 
Q 2494 4147 2053 4147 
L 1259 4147 
z
M 628 4666 
L 2053 4666 
Q 2838 4666 3239 4311 
Q 3641 3956 3641 3272 
Q 3641 2581 3239 2228 
Q 2838 1875 2053 1875 
L 1259 1875 
L 1259 0 
L 628 0 
L 628 4666 
z
" transform="scale(0.015625)"/>
       <path id="DejaVuSans-72" d="M 2631 2963 
Q 2534 3019 2420 3045 
Q 2306 3072 2169 3072 
Q 1681 3072 1420 2755 
Q 1159 2438 1159 1844 
L 1159 0 
L 581 0 
L 581 3500 
L 1159 3500 
L 1159 2956 
Q 1341 3275 1631 3429 
Q 1922 3584 2338 3584 
Q 2397 3584 2469 3576 
Q 2541 3569 2628 3553 
L 2631 2963 
z
" transform="scale(0.015625)"/>
       <path id="DejaVuSans-6f" d="M 1959 3097 
Q 1497 3097 1228 2736 
Q 959 2375 959 1747 
Q 959 1119 1226 758 
Q 1494 397 1959 397 
Q 2419 397 2687 759 
Q 2956 1122 2956 1747 
Q 2956 2369 2687 2733 
Q 2419 3097 1959 3097 
z
M 1959 3584 
Q 2709 3584 3137 3096 
Q 3566 2609 3566 1747 
Q 3566 888 3137 398 
Q 2709 -91 1959 -91 
Q 1206 -91 779 398 
Q 353 888 353 1747 
Q 353 2609 779 3096 
Q 1206 3584 1959 3584 
z
" transform="scale(0.015625)"/>
       <path id="DejaVuSans-64" d="M 2906 2969 
L 2906 4863 
L 3481 4863 
L 3481 0 
L 2906 0 
L 2906 525 
Q 2725 213 2448 61 
Q 2172 -91 1784 -91 
Q 1150 -91 751 415 
Q 353 922 353 1747 
Q 353 2572 751 3078 
Q 1150 3584 1784 3584 
Q 2172 3584 2448 3432 
Q 2725 3281 2906 2969 
z
M 947 1747 
Q 947 1113 1208 752 
Q 1469 391 1925 391 
Q 2381 391 2643 752 
Q 2906 1113 2906 1747 
Q 2906 2381 2643 2742 
Q 2381 3103 1925 3103 
Q 1469 3103 1208 2742 
Q 947 2381 947 1747 
z
" transform="scale(0.015625)"/>
       <path id="DejaVuSans-75" d="M 544 1381 
L 544 3500 
L 1119 3500 
L 1119 1403 
Q 1119 906 1312 657 
Q 1506 409 1894 409 
Q 2359 409 2629 706 
Q 2900 1003 2900 1516 
L 2900 3500 
L 3475 3500 
L 3475 0 
L 2900 0 
L 2900 538 
Q 2691 219 2414 64 
Q 2138 -91 1772 -91 
Q 1169 -91 856 284 
Q 544 659 544 1381 
z
M 1991 3584 
L 1991 3584 
z
" transform="scale(0.015625)"/>
       <path id="DejaVuSans-63" d="M 3122 3366 
L 3122 2828 
Q 2878 2963 2633 3030 
Q 2388 3097 2138 3097 
Q 1578 3097 1268 2742 
Q 959 2388 959 1747 
Q 959 1106 1268 751 
Q 1578 397 2138 397 
Q 2388 397 2633 464 
Q 2878 531 3122 666 
L 3122 134 
Q 2881 22 2623 -34 
Q 2366 -91 2075 -91 
Q 1284 -91 818 406 
Q 353 903 353 1747 
Q 353 2603 823 3093 
Q 1294 3584 2113 3584 
Q 2378 3584 2631 3529 
Q 2884 3475 3122 3366 
z
" transform="scale(0.015625)"/>
       <path id="DejaVuSans-74" d="M 1172 4494 
L 1172 3500 
L 2356 3500 
L 2356 3053 
L 1172 3053 
L 1172 1153 
Q 1172 725 1289 603 
Q 1406 481 1766 481 
L 2356 481 
L 2356 0 
L 1766 0 
Q 1100 0 847 248 
Q 594 497 594 1153 
L 594 3053 
L 172 3053 
L 172 3500 
L 594 3500 
L 594 4494 
L 1172 4494 
z
" transform="scale(0.015625)"/>
       <path id="DejaVuSans-69" d="M 603 3500 
L 1178 3500 
L 1178 0 
L 603 0 
L 603 3500 
z
M 603 4863 
L 1178 4863 
L 1178 4134 
L 603 4134 
L 603 4863 
z
" transform="scale(0.015625)"/>
       <path id="DejaVuSans-6e" d="M 3513 2113 
L 3513 0 
L 2938 0 
L 2938 2094 
Q 2938 2591 2744 2837 
Q 2550 3084 2163 3084 
Q 1697 3084 1428 2787 
Q 1159 2491 1159 1978 
L 1159 0 
L 581 0 
L 581 3500 
L 1159 3500 
L 1159 2956 
Q 1366 3272 1645 3428 
Q 1925 3584 2291 3584 
Q 2894 3584 3203 3211 
Q 3513 2838 3513 2113 
z
" transform="scale(0.015625)"/>
       <path id="DejaVuSans-20" transform="scale(0.015625)"/>
       <path id="DejaVuSans-62" d="M 3116 1747 
Q 3116 2381 2855 2742 
Q 2594 3103 2138 3103 
Q 1681 3103 1420 2742 
Q 1159 2381 1159 1747 
Q 1159 1113 1420 752 
Q 1681 391 2138 391 
Q 2594 391 2855 752 
Q 3116 1113 3116 1747 
z
M 1159 2969 
Q 1341 3281 1617 3432 
Q 1894 3584 2278 3584 
Q 2916 3584 3314 3078 
Q 3713 2572 3713 1747 
Q 3713 922 3314 415 
Q 2916 -91 2278 -91 
Q 1894 -91 1617 61 
Q 1341 213 1159 525 
L 1159 0 
L 581 0 
L 581 4863 
L 1159 4863 
L 1159 2969 
z
" transform="scale(0.015625)"/>
       <path id="DejaVuSans-67" d="M 2906 1791 
Q 2906 2416 2648 2759 
Q 2391 3103 1925 3103 
Q 1463 3103 1205 2759 
Q 947 2416 947 1791 
Q 947 1169 1205 825 
Q 1463 481 1925 481 
Q 2391 481 2648 825 
Q 2906 1169 2906 1791 
z
M 3481 434 
Q 3481 -459 3084 -895 
Q 2688 -1331 1869 -1331 
Q 1566 -1331 1297 -1286 
Q 1028 -1241 775 -1147 
L 775 -588 
Q 1028 -725 1275 -790 
Q 1522 -856 1778 -856 
Q 2344 -856 2625 -561 
Q 2906 -266 2906 331 
L 2906 616 
Q 2728 306 2450 153 
Q 2172 0 1784 0 
Q 1141 0 747 490 
Q 353 981 353 1791 
Q 353 2603 747 3093 
Q 1141 3584 1784 3584 
Q 2172 3584 2450 3431 
Q 2728 3278 2906 2969 
L 2906 3500 
L 3481 3500 
L 3481 434 
z
" transform="scale(0.015625)"/>
       <path id="DejaVuSans-65" d="M 3597 1894 
L 3597 1613 
L 953 1613 
Q 991 1019 1311 708 
Q 1631 397 2203 397 
Q 2534 397 2845 478 
Q 3156 559 3463 722 
L 3463 178 
Q 3153 47 2828 -22 
Q 2503 -91 2169 -91 
Q 1331 -91 842 396 
Q 353 884 353 1716 
Q 353 2575 817 3079 
Q 1281 3584 2069 3584 
Q 2775 3584 3186 3129 
Q 3597 2675 3597 1894 
z
M 3022 2063 
Q 3016 2534 2758 2815 
Q 2500 3097 2075 3097 
Q 1594 3097 1305 2825 
Q 1016 2553 972 2059 
L 3022 2063 
z
" transform="scale(0.015625)"/>
       <path id="DejaVuSans-5b" d="M 550 4863 
L 1875 4863 
L 1875 4416 
L 1125 4416 
L 1125 -397 
L 1875 -397 
L 1875 -844 
L 550 -844 
L 550 4863 
z
" transform="scale(0.015625)"/>
       <path id="DejaVuSans-24" d="M 2163 -941 
L 1850 -941 
L 1847 0 
Q 1519 6 1191 76 
Q 863 147 531 288 
L 531 850 
Q 850 650 1176 548 
Q 1503 447 1850 444 
L 1850 1869 
Q 1159 1981 845 2250 
Q 531 2519 531 2988 
Q 531 3497 872 3790 
Q 1213 4084 1850 4128 
L 1850 4863 
L 2163 4863 
L 2163 4138 
Q 2453 4125 2725 4076 
Q 2997 4028 3256 3944 
L 3256 3397 
Q 2997 3528 2723 3600 
Q 2450 3672 2163 3684 
L 2163 2350 
Q 2872 2241 3206 1959 
Q 3541 1678 3541 1191 
Q 3541 663 3186 358 
Q 2831 53 2163 6 
L 2163 -941 
z
M 1850 2406 
L 1850 3688 
Q 1488 3647 1297 3481 
Q 1106 3316 1106 3041 
Q 1106 2772 1282 2622 
Q 1459 2472 1850 2406 
z
M 2163 1806 
L 2163 453 
Q 2559 506 2761 678 
Q 2963 850 2963 1131 
Q 2963 1406 2770 1568 
Q 2578 1731 2163 1806 
z
" transform="scale(0.015625)"/>
       <path id="DejaVuSans-5d" d="M 1947 4863 
L 1947 -844 
L 622 -844 
L 622 -397 
L 1369 -397 
L 1369 4416 
L 622 4416 
L 622 4863 
L 1947 4863 
z
" transform="scale(0.015625)"/>
      </defs>
      <use xlink:href="#DejaVuSans-50"/>
      <use xlink:href="#DejaVuSans-72" x="58.552734"/>
      <use xlink:href="#DejaVuSans-6f" x="97.416016"/>
      <use xlink:href="#DejaVuSans-64" x="158.597656"/>
      <use xlink:href="#DejaVuSans-75" x="222.074219"/>
      <use xlink:href="#DejaVuSans-63" x="285.453125"/>
      <use xlink:href="#DejaVuSans-74" x="340.433594"/>
      <use xlink:href="#DejaVuSans-69" x="379.642578"/>
      <use xlink:href="#DejaVuSans-6f" x="407.425781"/>
      <use xlink:href="#DejaVuSans-6e" x="468.607422"/>
      <use xlink:href="#DejaVuSans-20" x="531.986328"/>
      <use xlink:href="#DejaVuSans-62" x="563.773438"/>
      <use xlink:href="#DejaVuSans-75" x="627.25"/>
      <use xlink:href="#DejaVuSans-64" x="690.628906"/>
      <use xlink:href="#DejaVuSans-67" x="754.105469"/>
      <use xlink:href="#DejaVuSans-65" x="817.582031"/>
      <use xlink:href="#DejaVuSans-74" x="879.105469"/>
      <use xlink:href="#DejaVuSans-20" x="918.314453"/>
      <use xlink:href="#DejaVuSans-5b" x="950.101562"/>
      <use xlink:href="#DejaVuSans-24" x="989.115234"/>
      <use xlink:href="#DejaVuSans-5d" x="1052.738281"/>
     </g>
    </g>
    <g id="text_11">
     <!-- 1e6 -->
     <g transform="translate(324.658893 437.738223)scale(0.1 -0.1)">
      <use xlink:href="#DejaVuSans-31"/>
      <use xlink:href="#DejaVuSans-65" x="63.623047"/>
      <use xlink:href="#DejaVuSans-36" x="125.146484"/>
     </g>
    </g>
   </g>
   <g id="matplotlib.axis_2">
    <g id="ytick_1">
     <g id="line2d_10">
      <defs>
       <path id="m460dbeb76c" d="M 0 0 
L -3.5 0 
" style="stroke: #000000; stroke-width: 0.8"/>
      </defs>
      <g>
       <use xlink:href="#m460dbeb76c" x="34.240625" y="375.919431" style="stroke: #000000; stroke-width: 0.8"/>
      </g>
     </g>
     <g id="text_12">
      <!-- 1 -->
      <g transform="translate(20.878125 379.71865)scale(0.1 -0.1)">
       <use xlink:href="#DejaVuSans-31"/>
      </g>
     </g>
    </g>
    <g id="ytick_2">
     <g id="line2d_11">
      <g>
       <use xlink:href="#m460dbeb76c" x="34.240625" y="327.313734" style="stroke: #000000; stroke-width: 0.8"/>
      </g>
     </g>
     <g id="text_13">
      <!-- 2 -->
      <g transform="translate(20.878125 331.112953)scale(0.1 -0.1)">
       <use xlink:href="#DejaVuSans-32"/>
      </g>
     </g>
    </g>
    <g id="ytick_3">
     <g id="line2d_12">
      <g>
       <use xlink:href="#m460dbeb76c" x="34.240625" y="278.708037" style="stroke: #000000; stroke-width: 0.8"/>
      </g>
     </g>
     <g id="text_14">
      <!-- 3 -->
      <g transform="translate(20.878125 282.507256)scale(0.1 -0.1)">
       <use xlink:href="#DejaVuSans-33"/>
      </g>
     </g>
    </g>
    <g id="ytick_4">
     <g id="line2d_13">
      <g>
       <use xlink:href="#m460dbeb76c" x="34.240625" y="230.10234" style="stroke: #000000; stroke-width: 0.8"/>
      </g>
     </g>
     <g id="text_15">
      <!-- 4 -->
      <g transform="translate(20.878125 233.901559)scale(0.1 -0.1)">
       <use xlink:href="#DejaVuSans-34"/>
      </g>
     </g>
    </g>
    <g id="ytick_5">
     <g id="line2d_14">
      <g>
       <use xlink:href="#m460dbeb76c" x="34.240625" y="181.496643" style="stroke: #000000; stroke-width: 0.8"/>
      </g>
     </g>
     <g id="text_16">
      <!-- 5 -->
      <g transform="translate(20.878125 185.295862)scale(0.1 -0.1)">
       <use xlink:href="#DejaVuSans-35"/>
      </g>
     </g>
    </g>
    <g id="ytick_6">
     <g id="line2d_15">
      <g>
       <use xlink:href="#m460dbeb76c" x="34.240625" y="132.890946" style="stroke: #000000; stroke-width: 0.8"/>
      </g>
     </g>
     <g id="text_17">
      <!-- 6 -->
      <g transform="translate(20.878125 136.690164)scale(0.1 -0.1)">
       <use xlink:href="#DejaVuSans-36"/>
      </g>
     </g>
    </g>
    <g id="text_18">
     <!-- Profit [$] -->
     <g transform="translate(14.798437 275.10083)rotate(-90)scale(0.1 -0.1)">
      <defs>
       <path id="DejaVuSans-66" d="M 2375 4863 
L 2375 4384 
L 1825 4384 
Q 1516 4384 1395 4259 
Q 1275 4134 1275 3809 
L 1275 3500 
L 2222 3500 
L 2222 3053 
L 1275 3053 
L 1275 0 
L 697 0 
L 697 3053 
L 147 3053 
L 147 3500 
L 697 3500 
L 697 3744 
Q 697 4328 969 4595 
Q 1241 4863 1831 4863 
L 2375 4863 
z
" transform="scale(0.015625)"/>
      </defs>
      <use xlink:href="#DejaVuSans-50"/>
      <use xlink:href="#DejaVuSans-72" x="58.552734"/>
      <use xlink:href="#DejaVuSans-6f" x="97.416016"/>
      <use xlink:href="#DejaVuSans-66" x="158.597656"/>
      <use xlink:href="#DejaVuSans-69" x="193.802734"/>
      <use xlink:href="#DejaVuSans-74" x="221.585938"/>
      <use xlink:href="#DejaVuSans-20" x="260.794922"/>
      <use xlink:href="#DejaVuSans-5b" x="292.582031"/>
      <use xlink:href="#DejaVuSans-24" x="331.595703"/>
      <use xlink:href="#DejaVuSans-5d" x="395.21875"/>
     </g>
    </g>
    <g id="text_19">
     <!-- 1e7 -->
     <g transform="translate(34.240625 93.318125)scale(0.1 -0.1)">
      <use xlink:href="#DejaVuSans-31"/>
      <use xlink:href="#DejaVuSans-65" x="63.623047"/>
      <use xlink:href="#DejaVuSans-37" x="125.146484"/>
     </g>
    </g>
   </g>
   <g id="line2d_16">
    <path d="M 48.299552 396.182409 
L 51.139739 393.297712 
L 53.979926 390.413014 
L 56.820114 387.528317 
L 59.660301 384.64362 
L 62.500488 381.758923 
L 65.340676 378.874225 
L 68.180863 375.989528 
L 71.02105 373.104831 
L 73.861237 370.220133 
L 76.701425 367.335436 
L 79.541612 364.450739 
L 82.381799 361.566042 
L 85.221986 358.681344 
L 88.062174 355.796647 
L 90.902361 352.91195 
L 93.742548 350.027252 
L 96.582735 347.142555 
L 99.422923 344.257858 
L 102.26311 341.37316 
L 105.103297 338.488463 
L 107.943484 335.603766 
L 110.783672 332.719069 
L 113.623859 329.834371 
L 116.464046 326.949674 
L 119.304234 324.064977 
L 122.144421 321.180279 
L 124.984608 318.295582 
L 127.824795 315.410885 
L 130.664983 312.526187 
L 133.50517 309.64149 
L 136.345357 306.756793 
L 139.185544 303.872096 
L 142.025732 300.987398 
L 144.865919 298.102701 
L 147.706106 295.218004 
L 150.546293 292.333306 
L 153.386481 289.448609 
L 156.226668 286.563912 
L 159.066855 283.679214 
L 161.907042 280.794517 
L 164.74723 277.90982 
L 167.587417 275.025123 
L 170.427604 272.140425 
L 173.267791 269.255728 
L 176.107979 266.371031 
L 178.948166 263.486333 
L 181.788353 260.601636 
L 184.628541 257.716939 
L 187.468728 254.832242 
L 190.308915 251.947544 
L 193.149102 249.062847 
L 195.98929 246.17815 
L 198.829477 243.293452 
L 201.669664 240.408755 
L 204.509851 237.524058 
L 207.350039 234.63936 
L 210.190226 231.754663 
L 213.030413 228.869966 
L 215.8706 225.985269 
L 218.710788 223.100571 
L 221.550975 220.215874 
L 224.391162 217.331177 
L 227.231349 214.446479 
L 230.071537 211.561782 
L 232.911724 208.677085 
L 235.751911 205.792387 
L 238.592099 202.90769 
L 241.432286 200.022993 
L 244.272473 197.138296 
L 247.11266 194.253598 
L 249.952848 191.368901 
L 252.793035 188.484204 
L 255.633222 185.599506 
L 258.473409 182.714809 
L 261.313597 179.830112 
L 264.153784 176.945414 
L 266.993971 174.060717 
L 269.834158 171.17602 
L 272.674346 168.291323 
L 275.514533 165.406625 
L 278.35472 162.521928 
L 281.194907 159.637231 
L 284.035095 156.752533 
L 286.875282 153.867836 
L 289.715469 150.983139 
L 292.555657 148.098441 
L 295.395844 145.213744 
L 298.236031 142.329047 
L 301.076218 139.44435 
L 303.916406 136.559652 
L 306.756593 133.674955 
L 309.59678 130.790258 
L 312.436967 127.90556 
L 315.277155 125.020863 
L 318.117342 122.136166 
L 320.957529 119.251469 
L 323.797716 116.366771 
L 326.637904 113.482074 
L 329.478091 110.597377 
" clip-path="url(#pe3621c0e3c)" style="fill: none; stroke: #dc143c; stroke-width: 2.25; stroke-linecap: square"/>
   </g>
   <g id="patch_3">
    <path d="M 34.240625 410.461661 
L 34.240625 96.318125 
" style="fill: none; stroke: #000000; stroke-width: 0.8; stroke-linejoin: miter; stroke-linecap: square"/>
   </g>
   <g id="patch_4">
    <path d="M 34.240625 410.461661 
L 343.537018 410.461661 
" style="fill: none; stroke: #000000; stroke-width: 0.8; stroke-linejoin: miter; stroke-linecap: square"/>
   </g>
  </g>
  <g id="axes_2">
   <g id="patch_5">
    <path d="M 34.240625 85.485589 
L 343.537018 85.485589 
L 343.537018 31.322911 
L 34.240625 31.322911 
z
" style="fill: #ffffff"/>
   </g>
   <g id="patch_6">
    <path d="M 48.299552 85.485589 
L 142.025732 85.485589 
L 142.025732 33.902086 
L 48.299552 33.902086 
z
" clip-path="url(#p7465b241fb)" style="fill: #dc143c; fill-opacity: 0.5; stroke: #000000; stroke-linejoin: miter"/>
   </g>
   <g id="patch_7">
    <path d="M 142.025732 85.485589 
L 235.751911 85.485589 
L 235.751911 85.485589 
L 142.025732 85.485589 
z
" clip-path="url(#p7465b241fb)" style="fill: #dc143c; fill-opacity: 0.5; stroke: #000000; stroke-linejoin: miter"/>
   </g>
   <g id="patch_8">
    <path d="M 235.751911 85.485589 
L 329.478091 85.485589 
L 329.478091 59.693838 
L 235.751911 59.693838 
z
" clip-path="url(#p7465b241fb)" style="fill: #dc143c; fill-opacity: 0.5; stroke: #000000; stroke-linejoin: miter"/>
   </g>
   <g id="matplotlib.axis_3">
    <g id="xtick_10">
     <g id="line2d_17">
      <g>
       <use xlink:href="#mb924522522" x="40.261515" y="85.485589" style="stroke: #000000; stroke-width: 0.8"/>
      </g>
     </g>
    </g>
    <g id="xtick_11">
     <g id="line2d_18">
      <g>
       <use xlink:href="#mb924522522" x="76.632723" y="85.485589" style="stroke: #000000; stroke-width: 0.8"/>
      </g>
     </g>
    </g>
    <g id="xtick_12">
     <g id="line2d_19">
      <g>
       <use xlink:href="#mb924522522" x="113.003932" y="85.485589" style="stroke: #000000; stroke-width: 0.8"/>
      </g>
     </g>
    </g>
    <g id="xtick_13">
     <g id="line2d_20">
      <g>
       <use xlink:href="#mb924522522" x="149.37514" y="85.485589" style="stroke: #000000; stroke-width: 0.8"/>
      </g>
     </g>
    </g>
    <g id="xtick_14">
     <g id="line2d_21">
      <g>
       <use xlink:href="#mb924522522" x="185.746349" y="85.485589" style="stroke: #000000; stroke-width: 0.8"/>
      </g>
     </g>
    </g>
    <g id="xtick_15">
     <g id="line2d_22">
      <g>
       <use xlink:href="#mb924522522" x="222.117558" y="85.485589" style="stroke: #000000; stroke-width: 0.8"/>
      </g>
     </g>
    </g>
    <g id="xtick_16">
     <g id="line2d_23">
      <g>
       <use xlink:href="#mb924522522" x="258.488766" y="85.485589" style="stroke: #000000; stroke-width: 0.8"/>
      </g>
     </g>
    </g>
    <g id="xtick_17">
     <g id="line2d_24">
      <g>
       <use xlink:href="#mb924522522" x="294.859975" y="85.485589" style="stroke: #000000; stroke-width: 0.8"/>
      </g>
     </g>
    </g>
    <g id="xtick_18">
     <g id="line2d_25">
      <g>
       <use xlink:href="#mb924522522" x="331.231183" y="85.485589" style="stroke: #000000; stroke-width: 0.8"/>
      </g>
     </g>
    </g>
    <g id="text_20">
     <!-- 1e6 -->
     <g transform="translate(324.658893 96.084027)scale(0.1 -0.1)">
      <use xlink:href="#DejaVuSans-31"/>
      <use xlink:href="#DejaVuSans-65" x="63.623047"/>
      <use xlink:href="#DejaVuSans-36" x="125.146484"/>
     </g>
    </g>
   </g>
   <g id="matplotlib.axis_4">
    <g id="ytick_7"/>
    <g id="ytick_8"/>
   </g>
   <g id="line2d_26">
    <path d="M 48.299552 69.548497 
L 65.255042 69.215913 
L 82.210532 69.115116 
L 99.166021 69.231161 
L 118.947426 69.602773 
L 141.554746 70.263289 
L 176.878683 71.558599 
L 224.919237 73.290171 
L 260.243174 74.32359 
L 329.478091 76.076476 
L 329.478091 76.076476 
" clip-path="url(#p7465b241fb)" style="fill: none; stroke: #dc143c; stroke-width: 1.5; stroke-linecap: square"/>
   </g>
   <g id="patch_9">
    <path d="M 34.240625 85.485589 
L 343.537018 85.485589 
" style="fill: none; stroke: #000000; stroke-width: 0.8; stroke-linejoin: miter; stroke-linecap: square"/>
   </g>
  </g>
  <g id="axes_3">
   <g id="patch_10">
    <path d="M 354.202411 410.461661 
L 407.529375 410.461661 
L 407.529375 96.318125 
L 354.202411 96.318125 
z
" style="fill: #ffffff"/>
   </g>
   <g id="patch_11">
    <path d="M 354.202411 396.182409 
L 404.989996 396.182409 
L 404.989996 253.389893 
L 354.202411 253.389893 
z
" clip-path="url(#p42fb775b49)" style="fill: #dc143c; fill-opacity: 0.5; stroke: #000000; stroke-linejoin: miter"/>
   </g>
   <g id="patch_12">
    <path d="M 354.202411 253.389893 
L 404.989996 253.389893 
L 404.989996 110.597377 
L 354.202411 110.597377 
z
" clip-path="url(#p42fb775b49)" style="fill: #dc143c; fill-opacity: 0.5; stroke: #000000; stroke-linejoin: miter"/>
   </g>
   <g id="matplotlib.axis_5">
    <g id="xtick_19"/>
    <g id="xtick_20"/>
   </g>
   <g id="matplotlib.axis_6">
    <g id="ytick_9">
     <g id="line2d_27">
      <g>
       <use xlink:href="#m460dbeb76c" x="354.202411" y="375.919431" style="stroke: #000000; stroke-width: 0.8"/>
      </g>
     </g>
    </g>
    <g id="ytick_10">
     <g id="line2d_28">
      <g>
       <use xlink:href="#m460dbeb76c" x="354.202411" y="327.313734" style="stroke: #000000; stroke-width: 0.8"/>
      </g>
     </g>
    </g>
    <g id="ytick_11">
     <g id="line2d_29">
      <g>
       <use xlink:href="#m460dbeb76c" x="354.202411" y="278.708037" style="stroke: #000000; stroke-width: 0.8"/>
      </g>
     </g>
    </g>
    <g id="ytick_12">
     <g id="line2d_30">
      <g>
       <use xlink:href="#m460dbeb76c" x="354.202411" y="230.10234" style="stroke: #000000; stroke-width: 0.8"/>
      </g>
     </g>
    </g>
    <g id="ytick_13">
     <g id="line2d_31">
      <g>
       <use xlink:href="#m460dbeb76c" x="354.202411" y="181.496643" style="stroke: #000000; stroke-width: 0.8"/>
      </g>
     </g>
    </g>
    <g id="ytick_14">
     <g id="line2d_32">
      <g>
       <use xlink:href="#m460dbeb76c" x="354.202411" y="132.890946" style="stroke: #000000; stroke-width: 0.8"/>
      </g>
     </g>
    </g>
    <g id="text_21">
     <!-- 1e7 -->
     <g transform="translate(354.202411 93.318125)scale(0.1 -0.1)">
      <use xlink:href="#DejaVuSans-31"/>
      <use xlink:href="#DejaVuSans-65" x="63.623047"/>
      <use xlink:href="#DejaVuSans-37" x="125.146484"/>
     </g>
    </g>
   </g>
   <g id="line2d_33">
    <path d="M 375.058203 396.182409 
L 376.05417 368.915496 
L 376.82509 341.648584 
L 377.376789 314.381671 
L 377.732007 285.679658 
L 377.866734 256.977645 
L 377.786031 228.275631 
L 377.486805 199.573618 
L 376.959141 170.871605 
L 376.235087 143.604692 
L 375.286579 116.337779 
L 375.058203 110.597377 
L 375.058203 110.597377 
" clip-path="url(#p42fb775b49)" style="fill: none; stroke: #dc143c; stroke-width: 1.5; stroke-linecap: square"/>
   </g>
   <g id="patch_13">
    <path d="M 354.202411 410.461661 
L 354.202411 96.318125 
" style="fill: none; stroke: #000000; stroke-width: 0.8; stroke-linejoin: miter; stroke-linecap: square"/>
   </g>
   <g id="text_22">
    <!-- relationship between budget and profit for Silent film movies -->
    <g transform="translate(41.42625 16.318125)scale(0.12 -0.12)">
     <defs>
      <path id="DejaVuSans-6c" d="M 603 4863 
L 1178 4863 
L 1178 0 
L 603 0 
L 603 4863 
z
" transform="scale(0.015625)"/>
      <path id="DejaVuSans-61" d="M 2194 1759 
Q 1497 1759 1228 1600 
Q 959 1441 959 1056 
Q 959 750 1161 570 
Q 1363 391 1709 391 
Q 2188 391 2477 730 
Q 2766 1069 2766 1631 
L 2766 1759 
L 2194 1759 
z
M 3341 1997 
L 3341 0 
L 2766 0 
L 2766 531 
Q 2569 213 2275 61 
Q 1981 -91 1556 -91 
Q 1019 -91 701 211 
Q 384 513 384 1019 
Q 384 1609 779 1909 
Q 1175 2209 1959 2209 
L 2766 2209 
L 2766 2266 
Q 2766 2663 2505 2880 
Q 2244 3097 1772 3097 
Q 1472 3097 1187 3025 
Q 903 2953 641 2809 
L 641 3341 
Q 956 3463 1253 3523 
Q 1550 3584 1831 3584 
Q 2591 3584 2966 3190 
Q 3341 2797 3341 1997 
z
" transform="scale(0.015625)"/>
      <path id="DejaVuSans-73" d="M 2834 3397 
L 2834 2853 
Q 2591 2978 2328 3040 
Q 2066 3103 1784 3103 
Q 1356 3103 1142 2972 
Q 928 2841 928 2578 
Q 928 2378 1081 2264 
Q 1234 2150 1697 2047 
L 1894 2003 
Q 2506 1872 2764 1633 
Q 3022 1394 3022 966 
Q 3022 478 2636 193 
Q 2250 -91 1575 -91 
Q 1294 -91 989 -36 
Q 684 19 347 128 
L 347 722 
Q 666 556 975 473 
Q 1284 391 1588 391 
Q 1994 391 2212 530 
Q 2431 669 2431 922 
Q 2431 1156 2273 1281 
Q 2116 1406 1581 1522 
L 1381 1569 
Q 847 1681 609 1914 
Q 372 2147 372 2553 
Q 372 3047 722 3315 
Q 1072 3584 1716 3584 
Q 2034 3584 2315 3537 
Q 2597 3491 2834 3397 
z
" transform="scale(0.015625)"/>
      <path id="DejaVuSans-68" d="M 3513 2113 
L 3513 0 
L 2938 0 
L 2938 2094 
Q 2938 2591 2744 2837 
Q 2550 3084 2163 3084 
Q 1697 3084 1428 2787 
Q 1159 2491 1159 1978 
L 1159 0 
L 581 0 
L 581 4863 
L 1159 4863 
L 1159 2956 
Q 1366 3272 1645 3428 
Q 1925 3584 2291 3584 
Q 2894 3584 3203 3211 
Q 3513 2838 3513 2113 
z
" transform="scale(0.015625)"/>
      <path id="DejaVuSans-70" d="M 1159 525 
L 1159 -1331 
L 581 -1331 
L 581 3500 
L 1159 3500 
L 1159 2969 
Q 1341 3281 1617 3432 
Q 1894 3584 2278 3584 
Q 2916 3584 3314 3078 
Q 3713 2572 3713 1747 
Q 3713 922 3314 415 
Q 2916 -91 2278 -91 
Q 1894 -91 1617 61 
Q 1341 213 1159 525 
z
M 3116 1747 
Q 3116 2381 2855 2742 
Q 2594 3103 2138 3103 
Q 1681 3103 1420 2742 
Q 1159 2381 1159 1747 
Q 1159 1113 1420 752 
Q 1681 391 2138 391 
Q 2594 391 2855 752 
Q 3116 1113 3116 1747 
z
" transform="scale(0.015625)"/>
      <path id="DejaVuSans-77" d="M 269 3500 
L 844 3500 
L 1563 769 
L 2278 3500 
L 2956 3500 
L 3675 769 
L 4391 3500 
L 4966 3500 
L 4050 0 
L 3372 0 
L 2619 2869 
L 1863 0 
L 1184 0 
L 269 3500 
z
" transform="scale(0.015625)"/>
      <path id="DejaVuSans-53" d="M 3425 4513 
L 3425 3897 
Q 3066 4069 2747 4153 
Q 2428 4238 2131 4238 
Q 1616 4238 1336 4038 
Q 1056 3838 1056 3469 
Q 1056 3159 1242 3001 
Q 1428 2844 1947 2747 
L 2328 2669 
Q 3034 2534 3370 2195 
Q 3706 1856 3706 1288 
Q 3706 609 3251 259 
Q 2797 -91 1919 -91 
Q 1588 -91 1214 -16 
Q 841 59 441 206 
L 441 856 
Q 825 641 1194 531 
Q 1563 422 1919 422 
Q 2459 422 2753 634 
Q 3047 847 3047 1241 
Q 3047 1584 2836 1778 
Q 2625 1972 2144 2069 
L 1759 2144 
Q 1053 2284 737 2584 
Q 422 2884 422 3419 
Q 422 4038 858 4394 
Q 1294 4750 2059 4750 
Q 2388 4750 2728 4690 
Q 3069 4631 3425 4513 
z
" transform="scale(0.015625)"/>
      <path id="DejaVuSans-6d" d="M 3328 2828 
Q 3544 3216 3844 3400 
Q 4144 3584 4550 3584 
Q 5097 3584 5394 3201 
Q 5691 2819 5691 2113 
L 5691 0 
L 5113 0 
L 5113 2094 
Q 5113 2597 4934 2840 
Q 4756 3084 4391 3084 
Q 3944 3084 3684 2787 
Q 3425 2491 3425 1978 
L 3425 0 
L 2847 0 
L 2847 2094 
Q 2847 2600 2669 2842 
Q 2491 3084 2119 3084 
Q 1678 3084 1418 2786 
Q 1159 2488 1159 1978 
L 1159 0 
L 581 0 
L 581 3500 
L 1159 3500 
L 1159 2956 
Q 1356 3278 1631 3431 
Q 1906 3584 2284 3584 
Q 2666 3584 2933 3390 
Q 3200 3197 3328 2828 
z
" transform="scale(0.015625)"/>
      <path id="DejaVuSans-76" d="M 191 3500 
L 800 3500 
L 1894 563 
L 2988 3500 
L 3597 3500 
L 2284 0 
L 1503 0 
L 191 3500 
z
" transform="scale(0.015625)"/>
     </defs>
     <use xlink:href="#DejaVuSans-72"/>
     <use xlink:href="#DejaVuSans-65" x="38.863281"/>
     <use xlink:href="#DejaVuSans-6c" x="100.386719"/>
     <use xlink:href="#DejaVuSans-61" x="128.169922"/>
     <use xlink:href="#DejaVuSans-74" x="189.449219"/>
     <use xlink:href="#DejaVuSans-69" x="228.658203"/>
     <use xlink:href="#DejaVuSans-6f" x="256.441406"/>
     <use xlink:href="#DejaVuSans-6e" x="317.623047"/>
     <use xlink:href="#DejaVuSans-73" x="381.001953"/>
     <use xlink:href="#DejaVuSans-68" x="433.101562"/>
     <use xlink:href="#DejaVuSans-69" x="496.480469"/>
     <use xlink:href="#DejaVuSans-70" x="524.263672"/>
     <use xlink:href="#DejaVuSans-20" x="587.740234"/>
     <use xlink:href="#DejaVuSans-62" x="619.527344"/>
     <use xlink:href="#DejaVuSans-65" x="683.003906"/>
     <use xlink:href="#DejaVuSans-74" x="744.527344"/>
     <use xlink:href="#DejaVuSans-77" x="783.736328"/>
     <use xlink:href="#DejaVuSans-65" x="865.523438"/>
     <use xlink:href="#DejaVuSans-65" x="927.046875"/>
     <use xlink:href="#DejaVuSans-6e" x="988.570312"/>
     <use xlink:href="#DejaVuSans-20" x="1051.949219"/>
     <use xlink:href="#DejaVuSans-62" x="1083.736328"/>
     <use xlink:href="#DejaVuSans-75" x="1147.212891"/>
     <use xlink:href="#DejaVuSans-64" x="1210.591797"/>
     <use xlink:href="#DejaVuSans-67" x="1274.068359"/>
     <use xlink:href="#DejaVuSans-65" x="1337.544922"/>
     <use xlink:href="#DejaVuSans-74" x="1399.068359"/>
     <use xlink:href="#DejaVuSans-20" x="1438.277344"/>
     <use xlink:href="#DejaVuSans-61" x="1470.064453"/>
     <use xlink:href="#DejaVuSans-6e" x="1531.34375"/>
     <use xlink:href="#DejaVuSans-64" x="1594.722656"/>
     <use xlink:href="#DejaVuSans-20" x="1658.199219"/>
     <use xlink:href="#DejaVuSans-70" x="1689.986328"/>
     <use xlink:href="#DejaVuSans-72" x="1753.462891"/>
     <use xlink:href="#DejaVuSans-6f" x="1792.326172"/>
     <use xlink:href="#DejaVuSans-66" x="1853.507812"/>
     <use xlink:href="#DejaVuSans-69" x="1888.712891"/>
     <use xlink:href="#DejaVuSans-74" x="1916.496094"/>
     <use xlink:href="#DejaVuSans-20" x="1955.705078"/>
     <use xlink:href="#DejaVuSans-66" x="1987.492188"/>
     <use xlink:href="#DejaVuSans-6f" x="2022.697266"/>
     <use xlink:href="#DejaVuSans-72" x="2083.878906"/>
     <use xlink:href="#DejaVuSans-20" x="2124.992188"/>
     <use xlink:href="#DejaVuSans-53" x="2156.779297"/>
     <use xlink:href="#DejaVuSans-69" x="2220.255859"/>
     <use xlink:href="#DejaVuSans-6c" x="2248.039062"/>
     <use xlink:href="#DejaVuSans-65" x="2275.822266"/>
     <use xlink:href="#DejaVuSans-6e" x="2337.345703"/>
     <use xlink:href="#DejaVuSans-74" x="2400.724609"/>
     <use xlink:href="#DejaVuSans-20" x="2439.933594"/>
     <use xlink:href="#DejaVuSans-66" x="2471.720703"/>
     <use xlink:href="#DejaVuSans-69" x="2506.925781"/>
     <use xlink:href="#DejaVuSans-6c" x="2534.708984"/>
     <use xlink:href="#DejaVuSans-6d" x="2562.492188"/>
     <use xlink:href="#DejaVuSans-20" x="2659.904297"/>
     <use xlink:href="#DejaVuSans-6d" x="2691.691406"/>
     <use xlink:href="#DejaVuSans-6f" x="2789.103516"/>
     <use xlink:href="#DejaVuSans-76" x="2850.285156"/>
     <use xlink:href="#DejaVuSans-69" x="2909.464844"/>
     <use xlink:href="#DejaVuSans-65" x="2937.248047"/>
     <use xlink:href="#DejaVuSans-73" x="2998.771484"/>
    </g>
   </g>
  </g>
 </g>
 <defs>
  <clipPath id="pe3621c0e3c">
   <rect x="34.240625" y="96.318125" width="309.296393" height="314.143536"/>
  </clipPath>
  <clipPath id="p7465b241fb">
   <rect x="34.240625" y="31.322911" width="309.296393" height="54.162679"/>
  </clipPath>
  <clipPath id="p42fb775b49">
   <rect x="354.202411" y="96.318125" width="53.326964" height="314.143536"/>
  </clipPath>
 </defs>
</svg>
