<?xml version="1.0" encoding="utf-8" standalone="no"?>
<!DOCTYPE svg PUBLIC "-//W3C//DTD SVG 1.1//EN"
  "http://www.w3.org/Graphics/SVG/1.1/DTD/svg11.dtd">
<svg xmlns:xlink="http://www.w3.org/1999/xlink" width="423.109062pt" height="448.017911pt" viewBox="0 0 423.109062 448.017911" xmlns="http://www.w3.org/2000/svg" version="1.1">
 <metadata>
  <rdf:RDF xmlns:dc="http://purl.org/dc/elements/1.1/" xmlns:cc="http://creativecommons.org/ns#" xmlns:rdf="http://www.w3.org/1999/02/22-rdf-syntax-ns#">
   <cc:Work>
    <dc:type rdf:resource="http://purl.org/dc/dcmitype/StillImage"/>
    <dc:date>2022-12-23T18:24:03.307480</dc:date>
    <dc:format>image/svg+xml</dc:format>
    <dc:creator>
     <cc:Agent>
      <dc:title>Matplotlib v3.5.2, https://matplotlib.org/</dc:title>
     </cc:Agent>
    </dc:creator>
   </cc:Work>
  </rdf:RDF>
 </metadata>
 <defs>
  <style type="text/css">*{stroke-linejoin: round; stroke-linecap: butt}</style>
 </defs>
 <g id="figure_1">
  <g id="patch_1">
   <path d="M 0 448.017911 
L 423.109062 448.017911 
L 423.109062 0 
L 0 0 
z
" style="fill: #ffffff"/>
  </g>
  <g id="axes_1">
   <g id="patch_2">
    <path d="M 42.620313 410.461661 
L 351.916705 410.461661 
L 351.916705 96.318125 
L 42.620313 96.318125 
z
" style="fill: #ffffff"/>
   </g>
   <g id="PathCollection_1">
    <defs>
     <path id="mc7a5016a96" d="M 0 3 
C 0.795609 3 1.55874 2.683901 2.12132 2.12132 
C 2.683901 1.55874 3 0.795609 3 0 
C 3 -0.795609 2.683901 -1.55874 2.12132 -2.12132 
C 1.55874 -2.683901 0.795609 -3 0 -3 
C -0.795609 -3 -1.55874 -2.683901 -2.12132 -2.12132 
C -2.683901 -1.55874 -3 -0.795609 -3 0 
C -3 0.795609 -2.683901 1.55874 -2.12132 2.12132 
C -1.55874 2.683901 -0.795609 3 0 3 
z
" style="stroke: #dc143c; stroke-opacity: 0.8"/>
    </defs>
    <g clip-path="url(#pcab1c81973)">
     <use xlink:href="#mc7a5016a96" x="337.857778" y="148.49551" style="fill: #dc143c; fill-opacity: 0.8; stroke: #dc143c; stroke-opacity: 0.8"/>
     <use xlink:href="#mc7a5016a96" x="71.242973" y="110.597377" style="fill: #dc143c; fill-opacity: 0.8; stroke: #dc143c; stroke-opacity: 0.8"/>
     <use xlink:href="#mc7a5016a96" x="96.748915" y="242.240893" style="fill: #dc143c; fill-opacity: 0.8; stroke: #dc143c; stroke-opacity: 0.8"/>
     <use xlink:href="#mc7a5016a96" x="134.209331" y="208.873283" style="fill: #dc143c; fill-opacity: 0.8; stroke: #dc143c; stroke-opacity: 0.8"/>
     <use xlink:href="#mc7a5016a96" x="73.591566" y="314.353645" style="fill: #dc143c; fill-opacity: 0.8; stroke: #dc143c; stroke-opacity: 0.8"/>
     <use xlink:href="#mc7a5016a96" x="142.654953" y="305.325812" style="fill: #dc143c; fill-opacity: 0.8; stroke: #dc143c; stroke-opacity: 0.8"/>
     <use xlink:href="#mc7a5016a96" x="61.550917" y="329.633344" style="fill: #dc143c; fill-opacity: 0.8; stroke: #dc143c; stroke-opacity: 0.8"/>
     <use xlink:href="#mc7a5016a96" x="123.992854" y="300.684237" style="fill: #dc143c; fill-opacity: 0.8; stroke: #dc143c; stroke-opacity: 0.8"/>
     <use xlink:href="#mc7a5016a96" x="65.827043" y="337.530561" style="fill: #dc143c; fill-opacity: 0.8; stroke: #dc143c; stroke-opacity: 0.8"/>
     <use xlink:href="#mc7a5016a96" x="73.337514" y="327.067373" style="fill: #dc143c; fill-opacity: 0.8; stroke: #dc143c; stroke-opacity: 0.8"/>
     <use xlink:href="#mc7a5016a96" x="63.676384" y="328.217281" style="fill: #dc143c; fill-opacity: 0.8; stroke: #dc143c; stroke-opacity: 0.8"/>
     <use xlink:href="#mc7a5016a96" x="89.93793" y="350.297049" style="fill: #dc143c; fill-opacity: 0.8; stroke: #dc143c; stroke-opacity: 0.8"/>
     <use xlink:href="#mc7a5016a96" x="185.291718" y="347.229391" style="fill: #dc143c; fill-opacity: 0.8; stroke: #dc143c; stroke-opacity: 0.8"/>
     <use xlink:href="#mc7a5016a96" x="64.056187" y="339.737564" style="fill: #dc143c; fill-opacity: 0.8; stroke: #dc143c; stroke-opacity: 0.8"/>
     <use xlink:href="#mc7a5016a96" x="126.731899" y="336.259062" style="fill: #dc143c; fill-opacity: 0.8; stroke: #dc143c; stroke-opacity: 0.8"/>
     <use xlink:href="#mc7a5016a96" x="169.241235" y="352.949491" style="fill: #dc143c; fill-opacity: 0.8; stroke: #dc143c; stroke-opacity: 0.8"/>
     <use xlink:href="#mc7a5016a96" x="60.242036" y="341.021359" style="fill: #dc143c; fill-opacity: 0.8; stroke: #dc143c; stroke-opacity: 0.8"/>
     <use xlink:href="#mc7a5016a96" x="91.307452" y="337.780167" style="fill: #dc143c; fill-opacity: 0.8; stroke: #dc143c; stroke-opacity: 0.8"/>
     <use xlink:href="#mc7a5016a96" x="81.900968" y="354.670903" style="fill: #dc143c; fill-opacity: 0.8; stroke: #dc143c; stroke-opacity: 0.8"/>
     <use xlink:href="#mc7a5016a96" x="58.537119" y="343.189307" style="fill: #dc143c; fill-opacity: 0.8; stroke: #dc143c; stroke-opacity: 0.8"/>
     <use xlink:href="#mc7a5016a96" x="62.967895" y="339.455826" style="fill: #dc143c; fill-opacity: 0.8; stroke: #dc143c; stroke-opacity: 0.8"/>
     <use xlink:href="#mc7a5016a96" x="73.595229" y="333.885004" style="fill: #dc143c; fill-opacity: 0.8; stroke: #dc143c; stroke-opacity: 0.8"/>
     <use xlink:href="#mc7a5016a96" x="64.163838" y="339.859499" style="fill: #dc143c; fill-opacity: 0.8; stroke: #dc143c; stroke-opacity: 0.8"/>
     <use xlink:href="#mc7a5016a96" x="144.425809" y="358.48245" style="fill: #dc143c; fill-opacity: 0.8; stroke: #dc143c; stroke-opacity: 0.8"/>
     <use xlink:href="#mc7a5016a96" x="93.040588" y="348.943677" style="fill: #dc143c; fill-opacity: 0.8; stroke: #dc143c; stroke-opacity: 0.8"/>
     <use xlink:href="#mc7a5016a96" x="113.095278" y="364.248017" style="fill: #dc143c; fill-opacity: 0.8; stroke: #dc143c; stroke-opacity: 0.8"/>
     <use xlink:href="#mc7a5016a96" x="83.126945" y="353.475213" style="fill: #dc143c; fill-opacity: 0.8; stroke: #dc143c; stroke-opacity: 0.8"/>
     <use xlink:href="#mc7a5016a96" x="105.477231" y="357.321006" style="fill: #dc143c; fill-opacity: 0.8; stroke: #dc143c; stroke-opacity: 0.8"/>
     <use xlink:href="#mc7a5016a96" x="63.314522" y="343.372888" style="fill: #dc143c; fill-opacity: 0.8; stroke: #dc143c; stroke-opacity: 0.8"/>
     <use xlink:href="#mc7a5016a96" x="68.135134" y="351.264719" style="fill: #dc143c; fill-opacity: 0.8; stroke: #dc143c; stroke-opacity: 0.8"/>
     <use xlink:href="#mc7a5016a96" x="57.108983" y="346.691882" style="fill: #dc143c; fill-opacity: 0.8; stroke: #dc143c; stroke-opacity: 0.8"/>
     <use xlink:href="#mc7a5016a96" x="105.477231" y="366.082628" style="fill: #dc143c; fill-opacity: 0.8; stroke: #dc143c; stroke-opacity: 0.8"/>
    </g>
   </g>
   <g id="PolyCollection_1">
    <path d="M 57.108983 305.074487 
L 57.108983 359.062694 
L 59.944829 357.389658 
L 62.780676 355.870033 
L 65.616522 353.947313 
L 68.452368 352.372841 
L 71.288215 350.764416 
L 74.124061 349.226579 
L 76.959908 347.65302 
L 79.795754 346.082443 
L 82.631601 344.454193 
L 85.467447 343.344159 
L 88.303293 342.255886 
L 91.13914 341.049647 
L 93.974986 340.610658 
L 96.810833 339.872285 
L 99.646679 339.550297 
L 102.482526 339.390435 
L 105.318372 339.225373 
L 108.154218 339.03132 
L 110.990065 339.02871 
L 113.825911 339.192133 
L 116.661758 339.372907 
L 119.497604 339.827208 
L 122.33345 339.955131 
L 125.169297 340.167643 
L 128.005143 340.567358 
L 130.84099 341.138793 
L 133.676836 341.253512 
L 136.512683 342.14061 
L 139.348529 342.684408 
L 142.184375 343.168388 
L 145.020222 343.338868 
L 147.856068 343.700596 
L 150.691915 344.702741 
L 153.527761 345.439236 
L 156.363608 346.167603 
L 159.199454 346.892949 
L 162.0353 347.512714 
L 164.871147 348.2762 
L 167.706993 348.979308 
L 170.54284 349.857132 
L 173.378686 350.734298 
L 176.214532 351.312819 
L 179.050379 351.983478 
L 181.886225 352.348155 
L 184.722072 352.998118 
L 187.557918 353.920981 
L 190.393765 354.825811 
L 193.229611 355.634343 
L 196.065457 356.366997 
L 198.901304 357.09965 
L 201.73715 357.832303 
L 204.572997 358.564956 
L 207.408843 359.297609 
L 210.24469 360.027724 
L 213.080536 360.989302 
L 215.916382 362.311956 
L 218.752229 363.063936 
L 221.588075 363.77553 
L 224.423922 364.48603 
L 227.259768 365.19653 
L 230.095614 365.905385 
L 232.931461 366.611178 
L 235.767307 367.316971 
L 238.603154 368.095897 
L 241.439 369.279235 
L 244.274847 370.462573 
L 247.110693 371.374743 
L 249.946539 372.076507 
L 252.782386 372.773633 
L 255.618232 373.470759 
L 258.454079 374.258738 
L 261.289925 375.020211 
L 264.125771 375.656515 
L 266.961618 376.292818 
L 269.797464 376.94953 
L 272.633311 377.589258 
L 275.469157 378.228987 
L 278.305004 378.868715 
L 281.14085 379.508443 
L 283.976696 380.452828 
L 286.812543 381.152003 
L 289.648389 381.849495 
L 292.484236 382.546987 
L 295.320082 383.213875 
L 298.155929 383.865963 
L 300.991775 384.518051 
L 303.827621 385.170139 
L 306.663468 385.863305 
L 309.499314 386.741757 
L 312.335161 387.48804 
L 315.171007 388.454081 
L 318.006853 389.420122 
L 320.8427 390.386163 
L 323.678546 391.352204 
L 326.514393 392.318245 
L 329.350239 393.284286 
L 332.186086 394.250327 
L 335.021932 395.216368 
L 337.857778 396.182409 
L 337.857778 156.699102 
L 337.857778 156.699102 
L 335.021932 158.616357 
L 332.186086 160.533611 
L 329.350239 162.451538 
L 326.514393 164.373005 
L 323.678546 166.294472 
L 320.8427 168.215939 
L 318.006853 170.137406 
L 315.171007 172.058873 
L 312.335161 173.980339 
L 309.499314 175.802825 
L 306.663468 177.648897 
L 303.827621 179.451493 
L 300.991775 181.254089 
L 298.155929 183.056685 
L 295.320082 184.859281 
L 292.484236 186.661878 
L 289.648389 188.464474 
L 286.812543 190.271235 
L 283.976696 192.07908 
L 281.14085 193.854098 
L 278.305004 195.687592 
L 275.469157 197.485897 
L 272.633311 199.303637 
L 269.797464 201.266733 
L 266.961618 203.231106 
L 264.125771 205.199587 
L 261.289925 207.168068 
L 258.454079 209.110013 
L 255.618232 210.947395 
L 252.782386 212.786049 
L 249.946539 214.466772 
L 247.110693 216.302651 
L 244.274847 218.020875 
L 241.439 219.7391 
L 238.603154 221.461127 
L 235.767307 223.188349 
L 232.931461 224.998804 
L 230.095614 226.962282 
L 227.259768 228.532905 
L 224.423922 230.367462 
L 221.588075 232.234115 
L 218.752229 234.102293 
L 215.916382 235.971024 
L 213.080536 237.839755 
L 210.24469 239.384983 
L 207.408843 241.009129 
L 204.572997 242.746276 
L 201.73715 244.529536 
L 198.901304 246.205247 
L 196.065457 248.003084 
L 193.229611 249.800921 
L 190.393765 251.598757 
L 187.557918 253.158156 
L 184.722072 254.170284 
L 181.886225 255.934978 
L 179.050379 257.741675 
L 176.214532 259.553432 
L 173.378686 261.23438 
L 170.54284 262.928452 
L 167.706993 264.962359 
L 164.871147 266.841828 
L 162.0353 268.141987 
L 159.199454 270.007452 
L 156.363608 271.508958 
L 153.527761 273.087903 
L 150.691915 274.802931 
L 147.856068 276.510116 
L 145.020222 277.94237 
L 142.184375 279.633199 
L 139.348529 281.495726 
L 136.512683 282.760479 
L 133.676836 284.402587 
L 130.84099 285.598651 
L 128.005143 287.163625 
L 125.169297 288.436882 
L 122.33345 290.081482 
L 119.497604 291.672929 
L 116.661758 293.233781 
L 113.825911 294.236134 
L 110.990065 294.992542 
L 108.154218 295.941532 
L 105.318372 297.305369 
L 102.482526 298.853897 
L 99.646679 300.072247 
L 96.810833 301.540104 
L 93.974986 303.000985 
L 91.13914 303.410878 
L 88.303293 304.013876 
L 85.467447 304.23422 
L 82.631601 304.817018 
L 79.795754 304.675022 
L 76.959908 305.05423 
L 74.124061 304.618213 
L 71.288215 305.000199 
L 68.452368 304.669026 
L 65.616522 304.867571 
L 62.780676 304.431192 
L 59.944829 305.15669 
L 57.108983 305.074487 
z
" clip-path="url(#pcab1c81973)" style="fill: #dc143c; fill-opacity: 0.15"/>
   </g>
   <g id="matplotlib.axis_1">
    <g id="xtick_1">
     <g id="line2d_1">
      <defs>
       <path id="m005a8b63b6" d="M 0 0 
L 0 3.5 
" style="stroke: #000000; stroke-width: 0.8"/>
      </defs>
      <g>
       <use xlink:href="#m005a8b63b6" x="55.883006" y="410.461661" style="stroke: #000000; stroke-width: 0.8"/>
      </g>
     </g>
     <g id="text_1">
      <!-- 0.0 -->
      <g transform="translate(47.931443 425.060098)scale(0.1 -0.1)">
       <defs>
        <path id="DejaVuSans-30" d="M 2034 4250 
Q 1547 4250 1301 3770 
Q 1056 3291 1056 2328 
Q 1056 1369 1301 889 
Q 1547 409 2034 409 
Q 2525 409 2770 889 
Q 3016 1369 3016 2328 
Q 3016 3291 2770 3770 
Q 2525 4250 2034 4250 
z
M 2034 4750 
Q 2819 4750 3233 4129 
Q 3647 3509 3647 2328 
Q 3647 1150 3233 529 
Q 2819 -91 2034 -91 
Q 1250 -91 836 529 
Q 422 1150 422 2328 
Q 422 3509 836 4129 
Q 1250 4750 2034 4750 
z
" transform="scale(0.015625)"/>
        <path id="DejaVuSans-2e" d="M 684 794 
L 1344 794 
L 1344 0 
L 684 0 
L 684 794 
z
" transform="scale(0.015625)"/>
       </defs>
       <use xlink:href="#DejaVuSans-30"/>
       <use xlink:href="#DejaVuSans-2e" x="63.623047"/>
       <use xlink:href="#DejaVuSans-30" x="95.410156"/>
      </g>
     </g>
    </g>
    <g id="xtick_2">
     <g id="line2d_2">
      <g>
       <use xlink:href="#m005a8b63b6" x="108.965266" y="410.461661" style="stroke: #000000; stroke-width: 0.8"/>
      </g>
     </g>
     <g id="text_2">
      <!-- 0.5 -->
      <g transform="translate(101.013704 425.060098)scale(0.1 -0.1)">
       <defs>
        <path id="DejaVuSans-35" d="M 691 4666 
L 3169 4666 
L 3169 4134 
L 1269 4134 
L 1269 2991 
Q 1406 3038 1543 3061 
Q 1681 3084 1819 3084 
Q 2600 3084 3056 2656 
Q 3513 2228 3513 1497 
Q 3513 744 3044 326 
Q 2575 -91 1722 -91 
Q 1428 -91 1123 -41 
Q 819 9 494 109 
L 494 744 
Q 775 591 1075 516 
Q 1375 441 1709 441 
Q 2250 441 2565 725 
Q 2881 1009 2881 1497 
Q 2881 1984 2565 2268 
Q 2250 2553 1709 2553 
Q 1456 2553 1204 2497 
Q 953 2441 691 2322 
L 691 4666 
z
" transform="scale(0.015625)"/>
       </defs>
       <use xlink:href="#DejaVuSans-30"/>
       <use xlink:href="#DejaVuSans-2e" x="63.623047"/>
       <use xlink:href="#DejaVuSans-35" x="95.410156"/>
      </g>
     </g>
    </g>
    <g id="xtick_3">
     <g id="line2d_3">
      <g>
       <use xlink:href="#m005a8b63b6" x="162.047527" y="410.461661" style="stroke: #000000; stroke-width: 0.8"/>
      </g>
     </g>
     <g id="text_3">
      <!-- 1.0 -->
      <g transform="translate(154.095964 425.060098)scale(0.1 -0.1)">
       <defs>
        <path id="DejaVuSans-31" d="M 794 531 
L 1825 531 
L 1825 4091 
L 703 3866 
L 703 4441 
L 1819 4666 
L 2450 4666 
L 2450 531 
L 3481 531 
L 3481 0 
L 794 0 
L 794 531 
z
" transform="scale(0.015625)"/>
       </defs>
       <use xlink:href="#DejaVuSans-31"/>
       <use xlink:href="#DejaVuSans-2e" x="63.623047"/>
       <use xlink:href="#DejaVuSans-30" x="95.410156"/>
      </g>
     </g>
    </g>
    <g id="xtick_4">
     <g id="line2d_4">
      <g>
       <use xlink:href="#m005a8b63b6" x="215.129787" y="410.461661" style="stroke: #000000; stroke-width: 0.8"/>
      </g>
     </g>
     <g id="text_4">
      <!-- 1.5 -->
      <g transform="translate(207.178225 425.060098)scale(0.1 -0.1)">
       <use xlink:href="#DejaVuSans-31"/>
       <use xlink:href="#DejaVuSans-2e" x="63.623047"/>
       <use xlink:href="#DejaVuSans-35" x="95.410156"/>
      </g>
     </g>
    </g>
    <g id="xtick_5">
     <g id="line2d_5">
      <g>
       <use xlink:href="#m005a8b63b6" x="268.212048" y="410.461661" style="stroke: #000000; stroke-width: 0.8"/>
      </g>
     </g>
     <g id="text_5">
      <!-- 2.0 -->
      <g transform="translate(260.260485 425.060098)scale(0.1 -0.1)">
       <defs>
        <path id="DejaVuSans-32" d="M 1228 531 
L 3431 531 
L 3431 0 
L 469 0 
L 469 531 
Q 828 903 1448 1529 
Q 2069 2156 2228 2338 
Q 2531 2678 2651 2914 
Q 2772 3150 2772 3378 
Q 2772 3750 2511 3984 
Q 2250 4219 1831 4219 
Q 1534 4219 1204 4116 
Q 875 4013 500 3803 
L 500 4441 
Q 881 4594 1212 4672 
Q 1544 4750 1819 4750 
Q 2544 4750 2975 4387 
Q 3406 4025 3406 3419 
Q 3406 3131 3298 2873 
Q 3191 2616 2906 2266 
Q 2828 2175 2409 1742 
Q 1991 1309 1228 531 
z
" transform="scale(0.015625)"/>
       </defs>
       <use xlink:href="#DejaVuSans-32"/>
       <use xlink:href="#DejaVuSans-2e" x="63.623047"/>
       <use xlink:href="#DejaVuSans-30" x="95.410156"/>
      </g>
     </g>
    </g>
    <g id="xtick_6">
     <g id="line2d_6">
      <g>
       <use xlink:href="#m005a8b63b6" x="321.294308" y="410.461661" style="stroke: #000000; stroke-width: 0.8"/>
      </g>
     </g>
     <g id="text_6">
      <!-- 2.5 -->
      <g transform="translate(313.342746 425.060098)scale(0.1 -0.1)">
       <use xlink:href="#DejaVuSans-32"/>
       <use xlink:href="#DejaVuSans-2e" x="63.623047"/>
       <use xlink:href="#DejaVuSans-35" x="95.410156"/>
      </g>
     </g>
    </g>
    <g id="text_7">
     <!-- Production budget [$] -->
     <g transform="translate(142.680228 438.738223)scale(0.1 -0.1)">
      <defs>
       <path id="DejaVuSans-50" d="M 1259 4147 
L 1259 2394 
L 2053 2394 
Q 2494 2394 2734 2622 
Q 2975 2850 2975 3272 
Q 2975 3691 2734 3919 
Q 2494 4147 2053 4147 
L 1259 4147 
z
M 628 4666 
L 2053 4666 
Q 2838 4666 3239 4311 
Q 3641 3956 3641 3272 
Q 3641 2581 3239 2228 
Q 2838 1875 2053 1875 
L 1259 1875 
L 1259 0 
L 628 0 
L 628 4666 
z
" transform="scale(0.015625)"/>
       <path id="DejaVuSans-72" d="M 2631 2963 
Q 2534 3019 2420 3045 
Q 2306 3072 2169 3072 
Q 1681 3072 1420 2755 
Q 1159 2438 1159 1844 
L 1159 0 
L 581 0 
L 581 3500 
L 1159 3500 
L 1159 2956 
Q 1341 3275 1631 3429 
Q 1922 3584 2338 3584 
Q 2397 3584 2469 3576 
Q 2541 3569 2628 3553 
L 2631 2963 
z
" transform="scale(0.015625)"/>
       <path id="DejaVuSans-6f" d="M 1959 3097 
Q 1497 3097 1228 2736 
Q 959 2375 959 1747 
Q 959 1119 1226 758 
Q 1494 397 1959 397 
Q 2419 397 2687 759 
Q 2956 1122 2956 1747 
Q 2956 2369 2687 2733 
Q 2419 3097 1959 3097 
z
M 1959 3584 
Q 2709 3584 3137 3096 
Q 3566 2609 3566 1747 
Q 3566 888 3137 398 
Q 2709 -91 1959 -91 
Q 1206 -91 779 398 
Q 353 888 353 1747 
Q 353 2609 779 3096 
Q 1206 3584 1959 3584 
z
" transform="scale(0.015625)"/>
       <path id="DejaVuSans-64" d="M 2906 2969 
L 2906 4863 
L 3481 4863 
L 3481 0 
L 2906 0 
L 2906 525 
Q 2725 213 2448 61 
Q 2172 -91 1784 -91 
Q 1150 -91 751 415 
Q 353 922 353 1747 
Q 353 2572 751 3078 
Q 1150 3584 1784 3584 
Q 2172 3584 2448 3432 
Q 2725 3281 2906 2969 
z
M 947 1747 
Q 947 1113 1208 752 
Q 1469 391 1925 391 
Q 2381 391 2643 752 
Q 2906 1113 2906 1747 
Q 2906 2381 2643 2742 
Q 2381 3103 1925 3103 
Q 1469 3103 1208 2742 
Q 947 2381 947 1747 
z
" transform="scale(0.015625)"/>
       <path id="DejaVuSans-75" d="M 544 1381 
L 544 3500 
L 1119 3500 
L 1119 1403 
Q 1119 906 1312 657 
Q 1506 409 1894 409 
Q 2359 409 2629 706 
Q 2900 1003 2900 1516 
L 2900 3500 
L 3475 3500 
L 3475 0 
L 2900 0 
L 2900 538 
Q 2691 219 2414 64 
Q 2138 -91 1772 -91 
Q 1169 -91 856 284 
Q 544 659 544 1381 
z
M 1991 3584 
L 1991 3584 
z
" transform="scale(0.015625)"/>
       <path id="DejaVuSans-63" d="M 3122 3366 
L 3122 2828 
Q 2878 2963 2633 3030 
Q 2388 3097 2138 3097 
Q 1578 3097 1268 2742 
Q 959 2388 959 1747 
Q 959 1106 1268 751 
Q 1578 397 2138 397 
Q 2388 397 2633 464 
Q 2878 531 3122 666 
L 3122 134 
Q 2881 22 2623 -34 
Q 2366 -91 2075 -91 
Q 1284 -91 818 406 
Q 353 903 353 1747 
Q 353 2603 823 3093 
Q 1294 3584 2113 3584 
Q 2378 3584 2631 3529 
Q 2884 3475 3122 3366 
z
" transform="scale(0.015625)"/>
       <path id="DejaVuSans-74" d="M 1172 4494 
L 1172 3500 
L 2356 3500 
L 2356 3053 
L 1172 3053 
L 1172 1153 
Q 1172 725 1289 603 
Q 1406 481 1766 481 
L 2356 481 
L 2356 0 
L 1766 0 
Q 1100 0 847 248 
Q 594 497 594 1153 
L 594 3053 
L 172 3053 
L 172 3500 
L 594 3500 
L 594 4494 
L 1172 4494 
z
" transform="scale(0.015625)"/>
       <path id="DejaVuSans-69" d="M 603 3500 
L 1178 3500 
L 1178 0 
L 603 0 
L 603 3500 
z
M 603 4863 
L 1178 4863 
L 1178 4134 
L 603 4134 
L 603 4863 
z
" transform="scale(0.015625)"/>
       <path id="DejaVuSans-6e" d="M 3513 2113 
L 3513 0 
L 2938 0 
L 2938 2094 
Q 2938 2591 2744 2837 
Q 2550 3084 2163 3084 
Q 1697 3084 1428 2787 
Q 1159 2491 1159 1978 
L 1159 0 
L 581 0 
L 581 3500 
L 1159 3500 
L 1159 2956 
Q 1366 3272 1645 3428 
Q 1925 3584 2291 3584 
Q 2894 3584 3203 3211 
Q 3513 2838 3513 2113 
z
" transform="scale(0.015625)"/>
       <path id="DejaVuSans-20" transform="scale(0.015625)"/>
       <path id="DejaVuSans-62" d="M 3116 1747 
Q 3116 2381 2855 2742 
Q 2594 3103 2138 3103 
Q 1681 3103 1420 2742 
Q 1159 2381 1159 1747 
Q 1159 1113 1420 752 
Q 1681 391 2138 391 
Q 2594 391 2855 752 
Q 3116 1113 3116 1747 
z
M 1159 2969 
Q 1341 3281 1617 3432 
Q 1894 3584 2278 3584 
Q 2916 3584 3314 3078 
Q 3713 2572 3713 1747 
Q 3713 922 3314 415 
Q 2916 -91 2278 -91 
Q 1894 -91 1617 61 
Q 1341 213 1159 525 
L 1159 0 
L 581 0 
L 581 4863 
L 1159 4863 
L 1159 2969 
z
" transform="scale(0.015625)"/>
       <path id="DejaVuSans-67" d="M 2906 1791 
Q 2906 2416 2648 2759 
Q 2391 3103 1925 3103 
Q 1463 3103 1205 2759 
Q 947 2416 947 1791 
Q 947 1169 1205 825 
Q 1463 481 1925 481 
Q 2391 481 2648 825 
Q 2906 1169 2906 1791 
z
M 3481 434 
Q 3481 -459 3084 -895 
Q 2688 -1331 1869 -1331 
Q 1566 -1331 1297 -1286 
Q 1028 -1241 775 -1147 
L 775 -588 
Q 1028 -725 1275 -790 
Q 1522 -856 1778 -856 
Q 2344 -856 2625 -561 
Q 2906 -266 2906 331 
L 2906 616 
Q 2728 306 2450 153 
Q 2172 0 1784 0 
Q 1141 0 747 490 
Q 353 981 353 1791 
Q 353 2603 747 3093 
Q 1141 3584 1784 3584 
Q 2172 3584 2450 3431 
Q 2728 3278 2906 2969 
L 2906 3500 
L 3481 3500 
L 3481 434 
z
" transform="scale(0.015625)"/>
       <path id="DejaVuSans-65" d="M 3597 1894 
L 3597 1613 
L 953 1613 
Q 991 1019 1311 708 
Q 1631 397 2203 397 
Q 2534 397 2845 478 
Q 3156 559 3463 722 
L 3463 178 
Q 3153 47 2828 -22 
Q 2503 -91 2169 -91 
Q 1331 -91 842 396 
Q 353 884 353 1716 
Q 353 2575 817 3079 
Q 1281 3584 2069 3584 
Q 2775 3584 3186 3129 
Q 3597 2675 3597 1894 
z
M 3022 2063 
Q 3016 2534 2758 2815 
Q 2500 3097 2075 3097 
Q 1594 3097 1305 2825 
Q 1016 2553 972 2059 
L 3022 2063 
z
" transform="scale(0.015625)"/>
       <path id="DejaVuSans-5b" d="M 550 4863 
L 1875 4863 
L 1875 4416 
L 1125 4416 
L 1125 -397 
L 1875 -397 
L 1875 -844 
L 550 -844 
L 550 4863 
z
" transform="scale(0.015625)"/>
       <path id="DejaVuSans-24" d="M 2163 -941 
L 1850 -941 
L 1847 0 
Q 1519 6 1191 76 
Q 863 147 531 288 
L 531 850 
Q 850 650 1176 548 
Q 1503 447 1850 444 
L 1850 1869 
Q 1159 1981 845 2250 
Q 531 2519 531 2988 
Q 531 3497 872 3790 
Q 1213 4084 1850 4128 
L 1850 4863 
L 2163 4863 
L 2163 4138 
Q 2453 4125 2725 4076 
Q 2997 4028 3256 3944 
L 3256 3397 
Q 2997 3528 2723 3600 
Q 2450 3672 2163 3684 
L 2163 2350 
Q 2872 2241 3206 1959 
Q 3541 1678 3541 1191 
Q 3541 663 3186 358 
Q 2831 53 2163 6 
L 2163 -941 
z
M 1850 2406 
L 1850 3688 
Q 1488 3647 1297 3481 
Q 1106 3316 1106 3041 
Q 1106 2772 1282 2622 
Q 1459 2472 1850 2406 
z
M 2163 1806 
L 2163 453 
Q 2559 506 2761 678 
Q 2963 850 2963 1131 
Q 2963 1406 2770 1568 
Q 2578 1731 2163 1806 
z
" transform="scale(0.015625)"/>
       <path id="DejaVuSans-5d" d="M 1947 4863 
L 1947 -844 
L 622 -844 
L 622 -397 
L 1369 -397 
L 1369 4416 
L 622 4416 
L 622 4863 
L 1947 4863 
z
" transform="scale(0.015625)"/>
      </defs>
      <use xlink:href="#DejaVuSans-50"/>
      <use xlink:href="#DejaVuSans-72" x="58.552734"/>
      <use xlink:href="#DejaVuSans-6f" x="97.416016"/>
      <use xlink:href="#DejaVuSans-64" x="158.597656"/>
      <use xlink:href="#DejaVuSans-75" x="222.074219"/>
      <use xlink:href="#DejaVuSans-63" x="285.453125"/>
      <use xlink:href="#DejaVuSans-74" x="340.433594"/>
      <use xlink:href="#DejaVuSans-69" x="379.642578"/>
      <use xlink:href="#DejaVuSans-6f" x="407.425781"/>
      <use xlink:href="#DejaVuSans-6e" x="468.607422"/>
      <use xlink:href="#DejaVuSans-20" x="531.986328"/>
      <use xlink:href="#DejaVuSans-62" x="563.773438"/>
      <use xlink:href="#DejaVuSans-75" x="627.25"/>
      <use xlink:href="#DejaVuSans-64" x="690.628906"/>
      <use xlink:href="#DejaVuSans-67" x="754.105469"/>
      <use xlink:href="#DejaVuSans-65" x="817.582031"/>
      <use xlink:href="#DejaVuSans-74" x="879.105469"/>
      <use xlink:href="#DejaVuSans-20" x="918.314453"/>
      <use xlink:href="#DejaVuSans-5b" x="950.101562"/>
      <use xlink:href="#DejaVuSans-24" x="989.115234"/>
      <use xlink:href="#DejaVuSans-5d" x="1052.738281"/>
     </g>
    </g>
    <g id="text_8">
     <!-- 1e8 -->
     <g transform="translate(333.03858 437.738223)scale(0.1 -0.1)">
      <defs>
       <path id="DejaVuSans-38" d="M 2034 2216 
Q 1584 2216 1326 1975 
Q 1069 1734 1069 1313 
Q 1069 891 1326 650 
Q 1584 409 2034 409 
Q 2484 409 2743 651 
Q 3003 894 3003 1313 
Q 3003 1734 2745 1975 
Q 2488 2216 2034 2216 
z
M 1403 2484 
Q 997 2584 770 2862 
Q 544 3141 544 3541 
Q 544 4100 942 4425 
Q 1341 4750 2034 4750 
Q 2731 4750 3128 4425 
Q 3525 4100 3525 3541 
Q 3525 3141 3298 2862 
Q 3072 2584 2669 2484 
Q 3125 2378 3379 2068 
Q 3634 1759 3634 1313 
Q 3634 634 3220 271 
Q 2806 -91 2034 -91 
Q 1263 -91 848 271 
Q 434 634 434 1313 
Q 434 1759 690 2068 
Q 947 2378 1403 2484 
z
M 1172 3481 
Q 1172 3119 1398 2916 
Q 1625 2713 2034 2713 
Q 2441 2713 2670 2916 
Q 2900 3119 2900 3481 
Q 2900 3844 2670 4047 
Q 2441 4250 2034 4250 
Q 1625 4250 1398 4047 
Q 1172 3844 1172 3481 
z
" transform="scale(0.015625)"/>
      </defs>
      <use xlink:href="#DejaVuSans-31"/>
      <use xlink:href="#DejaVuSans-65" x="63.623047"/>
      <use xlink:href="#DejaVuSans-38" x="125.146484"/>
     </g>
    </g>
   </g>
   <g id="matplotlib.axis_2">
    <g id="ytick_1">
     <g id="line2d_7">
      <defs>
       <path id="ma61f8ec6ca" d="M 0 0 
L -3.5 0 
" style="stroke: #000000; stroke-width: 0.8"/>
      </defs>
      <g>
       <use xlink:href="#ma61f8ec6ca" x="42.620313" y="391.345157" style="stroke: #000000; stroke-width: 0.8"/>
      </g>
     </g>
     <g id="text_9">
      <!-- −1 -->
      <g transform="translate(20.878125 395.144376)scale(0.1 -0.1)">
       <defs>
        <path id="DejaVuSans-2212" d="M 678 2272 
L 4684 2272 
L 4684 1741 
L 678 1741 
L 678 2272 
z
" transform="scale(0.015625)"/>
       </defs>
       <use xlink:href="#DejaVuSans-2212"/>
       <use xlink:href="#DejaVuSans-31" x="83.789062"/>
      </g>
     </g>
    </g>
    <g id="ytick_2">
     <g id="line2d_8">
      <g>
       <use xlink:href="#ma61f8ec6ca" x="42.620313" y="346.434948" style="stroke: #000000; stroke-width: 0.8"/>
      </g>
     </g>
     <g id="text_10">
      <!-- 0 -->
      <g transform="translate(29.257813 350.234166)scale(0.1 -0.1)">
       <use xlink:href="#DejaVuSans-30"/>
      </g>
     </g>
    </g>
    <g id="ytick_3">
     <g id="line2d_9">
      <g>
       <use xlink:href="#ma61f8ec6ca" x="42.620313" y="301.524738" style="stroke: #000000; stroke-width: 0.8"/>
      </g>
     </g>
     <g id="text_11">
      <!-- 1 -->
      <g transform="translate(29.257813 305.323956)scale(0.1 -0.1)">
       <use xlink:href="#DejaVuSans-31"/>
      </g>
     </g>
    </g>
    <g id="ytick_4">
     <g id="line2d_10">
      <g>
       <use xlink:href="#ma61f8ec6ca" x="42.620313" y="256.614528" style="stroke: #000000; stroke-width: 0.8"/>
      </g>
     </g>
     <g id="text_12">
      <!-- 2 -->
      <g transform="translate(29.257813 260.413747)scale(0.1 -0.1)">
       <use xlink:href="#DejaVuSans-32"/>
      </g>
     </g>
    </g>
    <g id="ytick_5">
     <g id="line2d_11">
      <g>
       <use xlink:href="#ma61f8ec6ca" x="42.620313" y="211.704318" style="stroke: #000000; stroke-width: 0.8"/>
      </g>
     </g>
     <g id="text_13">
      <!-- 3 -->
      <g transform="translate(29.257813 215.503537)scale(0.1 -0.1)">
       <defs>
        <path id="DejaVuSans-33" d="M 2597 2516 
Q 3050 2419 3304 2112 
Q 3559 1806 3559 1356 
Q 3559 666 3084 287 
Q 2609 -91 1734 -91 
Q 1441 -91 1130 -33 
Q 819 25 488 141 
L 488 750 
Q 750 597 1062 519 
Q 1375 441 1716 441 
Q 2309 441 2620 675 
Q 2931 909 2931 1356 
Q 2931 1769 2642 2001 
Q 2353 2234 1838 2234 
L 1294 2234 
L 1294 2753 
L 1863 2753 
Q 2328 2753 2575 2939 
Q 2822 3125 2822 3475 
Q 2822 3834 2567 4026 
Q 2313 4219 1838 4219 
Q 1578 4219 1281 4162 
Q 984 4106 628 3988 
L 628 4550 
Q 988 4650 1302 4700 
Q 1616 4750 1894 4750 
Q 2613 4750 3031 4423 
Q 3450 4097 3450 3541 
Q 3450 3153 3228 2886 
Q 3006 2619 2597 2516 
z
" transform="scale(0.015625)"/>
       </defs>
       <use xlink:href="#DejaVuSans-33"/>
      </g>
     </g>
    </g>
    <g id="ytick_6">
     <g id="line2d_12">
      <g>
       <use xlink:href="#ma61f8ec6ca" x="42.620313" y="166.794108" style="stroke: #000000; stroke-width: 0.8"/>
      </g>
     </g>
     <g id="text_14">
      <!-- 4 -->
      <g transform="translate(29.257813 170.593327)scale(0.1 -0.1)">
       <defs>
        <path id="DejaVuSans-34" d="M 2419 4116 
L 825 1625 
L 2419 1625 
L 2419 4116 
z
M 2253 4666 
L 3047 4666 
L 3047 1625 
L 3713 1625 
L 3713 1100 
L 3047 1100 
L 3047 0 
L 2419 0 
L 2419 1100 
L 313 1100 
L 313 1709 
L 2253 4666 
z
" transform="scale(0.015625)"/>
       </defs>
       <use xlink:href="#DejaVuSans-34"/>
      </g>
     </g>
    </g>
    <g id="ytick_7">
     <g id="line2d_13">
      <g>
       <use xlink:href="#ma61f8ec6ca" x="42.620313" y="121.883898" style="stroke: #000000; stroke-width: 0.8"/>
      </g>
     </g>
     <g id="text_15">
      <!-- 5 -->
      <g transform="translate(29.257813 125.683117)scale(0.1 -0.1)">
       <use xlink:href="#DejaVuSans-35"/>
      </g>
     </g>
    </g>
    <g id="text_16">
     <!-- Profit [$] -->
     <g transform="translate(14.798438 275.10083)rotate(-90)scale(0.1 -0.1)">
      <defs>
       <path id="DejaVuSans-66" d="M 2375 4863 
L 2375 4384 
L 1825 4384 
Q 1516 4384 1395 4259 
Q 1275 4134 1275 3809 
L 1275 3500 
L 2222 3500 
L 2222 3053 
L 1275 3053 
L 1275 0 
L 697 0 
L 697 3053 
L 147 3053 
L 147 3500 
L 697 3500 
L 697 3744 
Q 697 4328 969 4595 
Q 1241 4863 1831 4863 
L 2375 4863 
z
" transform="scale(0.015625)"/>
      </defs>
      <use xlink:href="#DejaVuSans-50"/>
      <use xlink:href="#DejaVuSans-72" x="58.552734"/>
      <use xlink:href="#DejaVuSans-6f" x="97.416016"/>
      <use xlink:href="#DejaVuSans-66" x="158.597656"/>
      <use xlink:href="#DejaVuSans-69" x="193.802734"/>
      <use xlink:href="#DejaVuSans-74" x="221.585938"/>
      <use xlink:href="#DejaVuSans-20" x="260.794922"/>
      <use xlink:href="#DejaVuSans-5b" x="292.582031"/>
      <use xlink:href="#DejaVuSans-24" x="331.595703"/>
      <use xlink:href="#DejaVuSans-5d" x="395.21875"/>
     </g>
    </g>
    <g id="text_17">
     <!-- 1e8 -->
     <g transform="translate(42.620313 93.318125)scale(0.1 -0.1)">
      <use xlink:href="#DejaVuSans-31"/>
      <use xlink:href="#DejaVuSans-65" x="63.623047"/>
      <use xlink:href="#DejaVuSans-38" x="125.146484"/>
     </g>
    </g>
   </g>
   <g id="line2d_14">
    <path d="M 57.108983 339.823804 
L 59.944829 338.558258 
L 62.780676 337.292712 
L 65.616522 336.027166 
L 68.452368 334.76162 
L 71.288215 333.496074 
L 74.124061 332.230528 
L 76.959908 330.964981 
L 79.795754 329.699435 
L 82.631601 328.433889 
L 85.467447 327.168343 
L 88.303293 325.902797 
L 91.13914 324.637251 
L 93.974986 323.371705 
L 96.810833 322.106159 
L 99.646679 320.840612 
L 102.482526 319.575066 
L 105.318372 318.30952 
L 108.154218 317.043974 
L 110.990065 315.778428 
L 113.825911 314.512882 
L 116.661758 313.247336 
L 119.497604 311.98179 
L 122.33345 310.716244 
L 125.169297 309.450697 
L 128.005143 308.185151 
L 130.84099 306.919605 
L 133.676836 305.654059 
L 136.512683 304.388513 
L 139.348529 303.122967 
L 142.184375 301.857421 
L 145.020222 300.591875 
L 147.856068 299.326328 
L 150.691915 298.060782 
L 153.527761 296.795236 
L 156.363608 295.52969 
L 159.199454 294.264144 
L 162.0353 292.998598 
L 164.871147 291.733052 
L 167.706993 290.467506 
L 170.54284 289.20196 
L 173.378686 287.936413 
L 176.214532 286.670867 
L 179.050379 285.405321 
L 181.886225 284.139775 
L 184.722072 282.874229 
L 187.557918 281.608683 
L 190.393765 280.343137 
L 193.229611 279.077591 
L 196.065457 277.812044 
L 198.901304 276.546498 
L 201.73715 275.280952 
L 204.572997 274.015406 
L 207.408843 272.74986 
L 210.24469 271.484314 
L 213.080536 270.218768 
L 215.916382 268.953222 
L 218.752229 267.687676 
L 221.588075 266.422129 
L 224.423922 265.156583 
L 227.259768 263.891037 
L 230.095614 262.625491 
L 232.931461 261.359945 
L 235.767307 260.094399 
L 238.603154 258.828853 
L 241.439 257.563307 
L 244.274847 256.29776 
L 247.110693 255.032214 
L 249.946539 253.766668 
L 252.782386 252.501122 
L 255.618232 251.235576 
L 258.454079 249.97003 
L 261.289925 248.704484 
L 264.125771 247.438938 
L 266.961618 246.173392 
L 269.797464 244.907845 
L 272.633311 243.642299 
L 275.469157 242.376753 
L 278.305004 241.111207 
L 281.14085 239.845661 
L 283.976696 238.580115 
L 286.812543 237.314569 
L 289.648389 236.049023 
L 292.484236 234.783476 
L 295.320082 233.51793 
L 298.155929 232.252384 
L 300.991775 230.986838 
L 303.827621 229.721292 
L 306.663468 228.455746 
L 309.499314 227.1902 
L 312.335161 225.924654 
L 315.171007 224.659108 
L 318.006853 223.393561 
L 320.8427 222.128015 
L 323.678546 220.862469 
L 326.514393 219.596923 
L 329.350239 218.331377 
L 332.186086 217.065831 
L 335.021932 215.800285 
L 337.857778 214.534739 
" clip-path="url(#pcab1c81973)" style="fill: none; stroke: #dc143c; stroke-width: 2.25; stroke-linecap: square"/>
   </g>
   <g id="patch_3">
    <path d="M 42.620313 410.461661 
L 42.620313 96.318125 
" style="fill: none; stroke: #000000; stroke-width: 0.8; stroke-linejoin: miter; stroke-linecap: square"/>
   </g>
   <g id="patch_4">
    <path d="M 42.620312 410.461661 
L 351.916705 410.461661 
" style="fill: none; stroke: #000000; stroke-width: 0.8; stroke-linejoin: miter; stroke-linecap: square"/>
   </g>
  </g>
  <g id="axes_2">
   <g id="patch_5">
    <path d="M 42.620313 85.485589 
L 351.916705 85.485589 
L 351.916705 31.322911 
L 42.620313 31.322911 
z
" style="fill: #ffffff"/>
   </g>
   <g id="patch_6">
    <path d="M 56.679239 85.485589 
L 75.424475 85.485589 
L 75.424475 33.902086 
L 56.679239 33.902086 
z
" clip-path="url(#pcf855ae4aa)" style="fill: #dc143c; fill-opacity: 0.5; stroke: #000000; stroke-linejoin: miter"/>
   </g>
   <g id="patch_7">
    <path d="M 75.424475 85.485589 
L 94.169711 85.485589 
L 94.169711 73.105548 
L 75.424475 73.105548 
z
" clip-path="url(#pcf855ae4aa)" style="fill: #dc143c; fill-opacity: 0.5; stroke: #000000; stroke-linejoin: miter"/>
   </g>
   <g id="patch_8">
    <path d="M 94.169711 85.485589 
L 112.914947 85.485589 
L 112.914947 77.232229 
L 94.169711 77.232229 
z
" clip-path="url(#pcf855ae4aa)" style="fill: #dc143c; fill-opacity: 0.5; stroke: #000000; stroke-linejoin: miter"/>
   </g>
   <g id="patch_9">
    <path d="M 112.914947 85.485589 
L 131.660183 85.485589 
L 131.660183 79.295569 
L 112.914947 79.295569 
z
" clip-path="url(#pcf855ae4aa)" style="fill: #dc143c; fill-opacity: 0.5; stroke: #000000; stroke-linejoin: miter"/>
   </g>
   <g id="patch_10">
    <path d="M 131.660183 85.485589 
L 150.405419 85.485589 
L 150.405419 79.295569 
L 131.660183 79.295569 
z
" clip-path="url(#pcf855ae4aa)" style="fill: #dc143c; fill-opacity: 0.5; stroke: #000000; stroke-linejoin: miter"/>
   </g>
   <g id="patch_11">
    <path d="M 150.405419 85.485589 
L 169.150655 85.485589 
L 169.150655 85.485589 
L 150.405419 85.485589 
z
" clip-path="url(#pcf855ae4aa)" style="fill: #dc143c; fill-opacity: 0.5; stroke: #000000; stroke-linejoin: miter"/>
   </g>
   <g id="patch_12">
    <path d="M 169.150655 85.485589 
L 187.895891 85.485589 
L 187.895891 81.358909 
L 169.150655 81.358909 
z
" clip-path="url(#pcf855ae4aa)" style="fill: #dc143c; fill-opacity: 0.5; stroke: #000000; stroke-linejoin: miter"/>
   </g>
   <g id="patch_13">
    <path d="M 187.895891 85.485589 
L 206.641127 85.485589 
L 206.641127 85.485589 
L 187.895891 85.485589 
z
" clip-path="url(#pcf855ae4aa)" style="fill: #dc143c; fill-opacity: 0.5; stroke: #000000; stroke-linejoin: miter"/>
   </g>
   <g id="patch_14">
    <path d="M 206.641127 85.485589 
L 225.386363 85.485589 
L 225.386363 85.485589 
L 206.641127 85.485589 
z
" clip-path="url(#pcf855ae4aa)" style="fill: #dc143c; fill-opacity: 0.5; stroke: #000000; stroke-linejoin: miter"/>
   </g>
   <g id="patch_15">
    <path d="M 225.386363 85.485589 
L 244.131599 85.485589 
L 244.131599 85.485589 
L 225.386363 85.485589 
z
" clip-path="url(#pcf855ae4aa)" style="fill: #dc143c; fill-opacity: 0.5; stroke: #000000; stroke-linejoin: miter"/>
   </g>
   <g id="patch_16">
    <path d="M 244.131599 85.485589 
L 262.876835 85.485589 
L 262.876835 85.485589 
L 244.131599 85.485589 
z
" clip-path="url(#pcf855ae4aa)" style="fill: #dc143c; fill-opacity: 0.5; stroke: #000000; stroke-linejoin: miter"/>
   </g>
   <g id="patch_17">
    <path d="M 262.876835 85.485589 
L 281.622071 85.485589 
L 281.622071 85.485589 
L 262.876835 85.485589 
z
" clip-path="url(#pcf855ae4aa)" style="fill: #dc143c; fill-opacity: 0.5; stroke: #000000; stroke-linejoin: miter"/>
   </g>
   <g id="patch_18">
    <path d="M 281.622071 85.485589 
L 300.367307 85.485589 
L 300.367307 85.485589 
L 281.622071 85.485589 
z
" clip-path="url(#pcf855ae4aa)" style="fill: #dc143c; fill-opacity: 0.5; stroke: #000000; stroke-linejoin: miter"/>
   </g>
   <g id="patch_19">
    <path d="M 300.367307 85.485589 
L 319.112542 85.485589 
L 319.112542 85.485589 
L 300.367307 85.485589 
z
" clip-path="url(#pcf855ae4aa)" style="fill: #dc143c; fill-opacity: 0.5; stroke: #000000; stroke-linejoin: miter"/>
   </g>
   <g id="patch_20">
    <path d="M 319.112542 85.485589 
L 337.857778 85.485589 
L 337.857778 83.422249 
L 319.112542 83.422249 
z
" clip-path="url(#pcf855ae4aa)" style="fill: #dc143c; fill-opacity: 0.5; stroke: #000000; stroke-linejoin: miter"/>
   </g>
   <g id="matplotlib.axis_3">
    <g id="xtick_7">
     <g id="line2d_15">
      <g>
       <use xlink:href="#m005a8b63b6" x="55.883006" y="85.485589" style="stroke: #000000; stroke-width: 0.8"/>
      </g>
     </g>
    </g>
    <g id="xtick_8">
     <g id="line2d_16">
      <g>
       <use xlink:href="#m005a8b63b6" x="108.965266" y="85.485589" style="stroke: #000000; stroke-width: 0.8"/>
      </g>
     </g>
    </g>
    <g id="xtick_9">
     <g id="line2d_17">
      <g>
       <use xlink:href="#m005a8b63b6" x="162.047527" y="85.485589" style="stroke: #000000; stroke-width: 0.8"/>
      </g>
     </g>
    </g>
    <g id="xtick_10">
     <g id="line2d_18">
      <g>
       <use xlink:href="#m005a8b63b6" x="215.129787" y="85.485589" style="stroke: #000000; stroke-width: 0.8"/>
      </g>
     </g>
    </g>
    <g id="xtick_11">
     <g id="line2d_19">
      <g>
       <use xlink:href="#m005a8b63b6" x="268.212048" y="85.485589" style="stroke: #000000; stroke-width: 0.8"/>
      </g>
     </g>
    </g>
    <g id="xtick_12">
     <g id="line2d_20">
      <g>
       <use xlink:href="#m005a8b63b6" x="321.294308" y="85.485589" style="stroke: #000000; stroke-width: 0.8"/>
      </g>
     </g>
    </g>
    <g id="text_18">
     <!-- 1e8 -->
     <g transform="translate(333.03858 96.084027)scale(0.1 -0.1)">
      <use xlink:href="#DejaVuSans-31"/>
      <use xlink:href="#DejaVuSans-65" x="63.623047"/>
      <use xlink:href="#DejaVuSans-38" x="125.146484"/>
     </g>
    </g>
   </g>
   <g id="matplotlib.axis_4">
    <g id="ytick_8"/>
    <g id="ytick_9"/>
   </g>
   <g id="line2d_21">
    <path d="M 56.679239 68.056396 
L 59.505154 67.116007 
L 62.331069 66.353106 
L 65.156984 65.78697 
L 67.982899 65.429243 
L 70.808814 65.283459 
L 73.634729 65.345132 
L 76.460644 65.602354 
L 79.286559 66.036857 
L 83.525432 66.9692 
L 87.764304 68.156352 
L 94.829091 70.443192 
L 104.719794 73.668089 
L 110.371624 75.29374 
L 116.023454 76.695891 
L 121.675284 77.876199 
L 128.740071 79.084017 
L 135.804858 80.065632 
L 145.695561 81.182565 
L 156.999221 82.201141 
L 168.302881 82.997808 
L 183.845413 83.84632 
L 205.039775 84.772115 
L 219.16935 85.185446 
L 234.711882 85.405058 
L 258.732159 85.479041 
L 292.643139 85.387139 
L 313.837501 85.096566 
L 335.031863 84.82277 
L 337.857778 84.817794 
L 337.857778 84.817794 
" clip-path="url(#pcf855ae4aa)" style="fill: none; stroke: #dc143c; stroke-width: 1.5; stroke-linecap: square"/>
   </g>
   <g id="patch_21">
    <path d="M 42.620312 85.485589 
L 351.916705 85.485589 
" style="fill: none; stroke: #000000; stroke-width: 0.8; stroke-linejoin: miter; stroke-linecap: square"/>
   </g>
  </g>
  <g id="axes_3">
   <g id="patch_22">
    <path d="M 362.582098 410.461661 
L 415.909062 410.461661 
L 415.909062 96.318125 
L 362.582098 96.318125 
z
" style="fill: #ffffff"/>
   </g>
   <g id="patch_23">
    <path d="M 362.582098 366.082628 
L 392.208189 366.082628 
L 392.208189 351.889003 
L 362.582098 351.889003 
z
" clip-path="url(#p066cf42590)" style="fill: #dc143c; fill-opacity: 0.5; stroke: #000000; stroke-linejoin: miter"/>
   </g>
   <g id="patch_24">
    <path d="M 362.582098 351.889003 
L 413.369683 351.889003 
L 413.369683 337.695377 
L 362.582098 337.695377 
z
" clip-path="url(#p066cf42590)" style="fill: #dc143c; fill-opacity: 0.5; stroke: #000000; stroke-linejoin: miter"/>
   </g>
   <g id="patch_25">
    <path d="M 362.582098 337.695377 
L 387.975891 337.695377 
L 387.975891 323.501752 
L 362.582098 323.501752 
z
" clip-path="url(#p066cf42590)" style="fill: #dc143c; fill-opacity: 0.5; stroke: #000000; stroke-linejoin: miter"/>
   </g>
   <g id="patch_26">
    <path d="M 362.582098 323.501752 
L 366.814397 323.501752 
L 366.814397 309.308127 
L 362.582098 309.308127 
z
" clip-path="url(#p066cf42590)" style="fill: #dc143c; fill-opacity: 0.5; stroke: #000000; stroke-linejoin: miter"/>
   </g>
   <g id="patch_27">
    <path d="M 362.582098 309.308127 
L 371.046696 309.308127 
L 371.046696 295.114502 
L 362.582098 295.114502 
z
" clip-path="url(#p066cf42590)" style="fill: #dc143c; fill-opacity: 0.5; stroke: #000000; stroke-linejoin: miter"/>
   </g>
   <g id="patch_28">
    <path d="M 362.582098 295.114502 
L 362.582098 295.114502 
L 362.582098 280.920877 
L 362.582098 280.920877 
z
" clip-path="url(#p066cf42590)" style="fill: #dc143c; fill-opacity: 0.5; stroke: #000000; stroke-linejoin: miter"/>
   </g>
   <g id="patch_29">
    <path d="M 362.582098 280.920877 
L 362.582098 280.920877 
L 362.582098 266.727252 
L 362.582098 266.727252 
z
" clip-path="url(#p066cf42590)" style="fill: #dc143c; fill-opacity: 0.5; stroke: #000000; stroke-linejoin: miter"/>
   </g>
   <g id="patch_30">
    <path d="M 362.582098 266.727252 
L 362.582098 266.727252 
L 362.582098 252.533627 
L 362.582098 252.533627 
z
" clip-path="url(#p066cf42590)" style="fill: #dc143c; fill-opacity: 0.5; stroke: #000000; stroke-linejoin: miter"/>
   </g>
   <g id="patch_31">
    <path d="M 362.582098 252.533627 
L 366.814397 252.533627 
L 366.814397 238.340002 
L 362.582098 238.340002 
z
" clip-path="url(#p066cf42590)" style="fill: #dc143c; fill-opacity: 0.5; stroke: #000000; stroke-linejoin: miter"/>
   </g>
   <g id="patch_32">
    <path d="M 362.582098 238.340002 
L 362.582098 238.340002 
L 362.582098 224.146377 
L 362.582098 224.146377 
z
" clip-path="url(#p066cf42590)" style="fill: #dc143c; fill-opacity: 0.5; stroke: #000000; stroke-linejoin: miter"/>
   </g>
   <g id="patch_33">
    <path d="M 362.582098 224.146377 
L 362.582098 224.146377 
L 362.582098 209.952752 
L 362.582098 209.952752 
z
" clip-path="url(#p066cf42590)" style="fill: #dc143c; fill-opacity: 0.5; stroke: #000000; stroke-linejoin: miter"/>
   </g>
   <g id="patch_34">
    <path d="M 362.582098 209.952752 
L 366.814397 209.952752 
L 366.814397 195.759127 
L 362.582098 195.759127 
z
" clip-path="url(#p066cf42590)" style="fill: #dc143c; fill-opacity: 0.5; stroke: #000000; stroke-linejoin: miter"/>
   </g>
   <g id="patch_35">
    <path d="M 362.582098 195.759127 
L 362.582098 195.759127 
L 362.582098 181.565502 
L 362.582098 181.565502 
z
" clip-path="url(#p066cf42590)" style="fill: #dc143c; fill-opacity: 0.5; stroke: #000000; stroke-linejoin: miter"/>
   </g>
   <g id="patch_36">
    <path d="M 362.582098 181.565502 
L 362.582098 181.565502 
L 362.582098 167.371877 
L 362.582098 167.371877 
z
" clip-path="url(#p066cf42590)" style="fill: #dc143c; fill-opacity: 0.5; stroke: #000000; stroke-linejoin: miter"/>
   </g>
   <g id="patch_37">
    <path d="M 362.582098 167.371877 
L 362.582098 167.371877 
L 362.582098 153.178252 
L 362.582098 153.178252 
z
" clip-path="url(#p066cf42590)" style="fill: #dc143c; fill-opacity: 0.5; stroke: #000000; stroke-linejoin: miter"/>
   </g>
   <g id="patch_38">
    <path d="M 362.582098 153.178252 
L 366.814397 153.178252 
L 366.814397 138.984627 
L 362.582098 138.984627 
z
" clip-path="url(#p066cf42590)" style="fill: #dc143c; fill-opacity: 0.5; stroke: #000000; stroke-linejoin: miter"/>
   </g>
   <g id="patch_39">
    <path d="M 362.582098 138.984627 
L 362.582098 138.984627 
L 362.582098 124.791002 
L 362.582098 124.791002 
z
" clip-path="url(#p066cf42590)" style="fill: #dc143c; fill-opacity: 0.5; stroke: #000000; stroke-linejoin: miter"/>
   </g>
   <g id="patch_40">
    <path d="M 362.582098 124.791002 
L 366.814397 124.791002 
L 366.814397 110.597377 
L 362.582098 110.597377 
z
" clip-path="url(#p066cf42590)" style="fill: #dc143c; fill-opacity: 0.5; stroke: #000000; stroke-linejoin: miter"/>
   </g>
   <g id="matplotlib.axis_5">
    <g id="xtick_13"/>
    <g id="xtick_14"/>
   </g>
   <g id="matplotlib.axis_6">
    <g id="ytick_10">
     <g id="line2d_22">
      <g>
       <use xlink:href="#ma61f8ec6ca" x="362.582098" y="391.345157" style="stroke: #000000; stroke-width: 0.8"/>
      </g>
     </g>
    </g>
    <g id="ytick_11">
     <g id="line2d_23">
      <g>
       <use xlink:href="#ma61f8ec6ca" x="362.582098" y="346.434948" style="stroke: #000000; stroke-width: 0.8"/>
      </g>
     </g>
    </g>
    <g id="ytick_12">
     <g id="line2d_24">
      <g>
       <use xlink:href="#ma61f8ec6ca" x="362.582098" y="301.524738" style="stroke: #000000; stroke-width: 0.8"/>
      </g>
     </g>
    </g>
    <g id="ytick_13">
     <g id="line2d_25">
      <g>
       <use xlink:href="#ma61f8ec6ca" x="362.582098" y="256.614528" style="stroke: #000000; stroke-width: 0.8"/>
      </g>
     </g>
    </g>
    <g id="ytick_14">
     <g id="line2d_26">
      <g>
       <use xlink:href="#ma61f8ec6ca" x="362.582098" y="211.704318" style="stroke: #000000; stroke-width: 0.8"/>
      </g>
     </g>
    </g>
    <g id="ytick_15">
     <g id="line2d_27">
      <g>
       <use xlink:href="#ma61f8ec6ca" x="362.582098" y="166.794108" style="stroke: #000000; stroke-width: 0.8"/>
      </g>
     </g>
    </g>
    <g id="ytick_16">
     <g id="line2d_28">
      <g>
       <use xlink:href="#ma61f8ec6ca" x="362.582098" y="121.883898" style="stroke: #000000; stroke-width: 0.8"/>
      </g>
     </g>
    </g>
    <g id="text_19">
     <!-- 1e8 -->
     <g transform="translate(362.582098 93.318125)scale(0.1 -0.1)">
      <use xlink:href="#DejaVuSans-31"/>
      <use xlink:href="#DejaVuSans-65" x="63.623047"/>
      <use xlink:href="#DejaVuSans-38" x="125.146484"/>
     </g>
    </g>
   </g>
   <g id="line2d_29">
    <path d="M 378.113178 366.082628 
L 379.740847 360.947246 
L 380.773086 357.095709 
L 381.601465 353.244173 
L 382.195525 349.392636 
L 382.533918 345.5411 
L 382.605751 341.689563 
L 382.411192 337.838027 
L 381.961308 333.986491 
L 381.277149 330.134954 
L 380.388201 326.283418 
L 378.947015 321.148036 
L 376.869362 314.728808 
L 371.274102 298.038817 
L 369.434353 291.61959 
L 368.173829 286.484208 
L 367.115187 281.348826 
L 366.256202 276.213444 
L 365.442587 269.794216 
L 364.878942 263.374989 
L 364.461665 255.671916 
L 364.219853 246.684998 
L 364.096216 232.562697 
L 363.84592 200.46656 
L 363.687275 176.073496 
L 363.806654 154.248123 
L 363.915563 128.571213 
L 363.746383 110.597377 
L 363.746383 110.597377 
" clip-path="url(#p066cf42590)" style="fill: none; stroke: #dc143c; stroke-width: 1.5; stroke-linecap: square"/>
   </g>
   <g id="patch_41">
    <path d="M 362.582098 410.461661 
L 362.582098 96.318125 
" style="fill: none; stroke: #000000; stroke-width: 0.8; stroke-linejoin: miter; stroke-linecap: square"/>
   </g>
   <g id="text_20">
    <!-- relationship between budget and profit for World cinema movies -->
    <g transform="translate(28.014687 16.318125)scale(0.12 -0.12)">
     <defs>
      <path id="DejaVuSans-6c" d="M 603 4863 
L 1178 4863 
L 1178 0 
L 603 0 
L 603 4863 
z
" transform="scale(0.015625)"/>
      <path id="DejaVuSans-61" d="M 2194 1759 
Q 1497 1759 1228 1600 
Q 959 1441 959 1056 
Q 959 750 1161 570 
Q 1363 391 1709 391 
Q 2188 391 2477 730 
Q 2766 1069 2766 1631 
L 2766 1759 
L 2194 1759 
z
M 3341 1997 
L 3341 0 
L 2766 0 
L 2766 531 
Q 2569 213 2275 61 
Q 1981 -91 1556 -91 
Q 1019 -91 701 211 
Q 384 513 384 1019 
Q 384 1609 779 1909 
Q 1175 2209 1959 2209 
L 2766 2209 
L 2766 2266 
Q 2766 2663 2505 2880 
Q 2244 3097 1772 3097 
Q 1472 3097 1187 3025 
Q 903 2953 641 2809 
L 641 3341 
Q 956 3463 1253 3523 
Q 1550 3584 1831 3584 
Q 2591 3584 2966 3190 
Q 3341 2797 3341 1997 
z
" transform="scale(0.015625)"/>
      <path id="DejaVuSans-73" d="M 2834 3397 
L 2834 2853 
Q 2591 2978 2328 3040 
Q 2066 3103 1784 3103 
Q 1356 3103 1142 2972 
Q 928 2841 928 2578 
Q 928 2378 1081 2264 
Q 1234 2150 1697 2047 
L 1894 2003 
Q 2506 1872 2764 1633 
Q 3022 1394 3022 966 
Q 3022 478 2636 193 
Q 2250 -91 1575 -91 
Q 1294 -91 989 -36 
Q 684 19 347 128 
L 347 722 
Q 666 556 975 473 
Q 1284 391 1588 391 
Q 1994 391 2212 530 
Q 2431 669 2431 922 
Q 2431 1156 2273 1281 
Q 2116 1406 1581 1522 
L 1381 1569 
Q 847 1681 609 1914 
Q 372 2147 372 2553 
Q 372 3047 722 3315 
Q 1072 3584 1716 3584 
Q 2034 3584 2315 3537 
Q 2597 3491 2834 3397 
z
" transform="scale(0.015625)"/>
      <path id="DejaVuSans-68" d="M 3513 2113 
L 3513 0 
L 2938 0 
L 2938 2094 
Q 2938 2591 2744 2837 
Q 2550 3084 2163 3084 
Q 1697 3084 1428 2787 
Q 1159 2491 1159 1978 
L 1159 0 
L 581 0 
L 581 4863 
L 1159 4863 
L 1159 2956 
Q 1366 3272 1645 3428 
Q 1925 3584 2291 3584 
Q 2894 3584 3203 3211 
Q 3513 2838 3513 2113 
z
" transform="scale(0.015625)"/>
      <path id="DejaVuSans-70" d="M 1159 525 
L 1159 -1331 
L 581 -1331 
L 581 3500 
L 1159 3500 
L 1159 2969 
Q 1341 3281 1617 3432 
Q 1894 3584 2278 3584 
Q 2916 3584 3314 3078 
Q 3713 2572 3713 1747 
Q 3713 922 3314 415 
Q 2916 -91 2278 -91 
Q 1894 -91 1617 61 
Q 1341 213 1159 525 
z
M 3116 1747 
Q 3116 2381 2855 2742 
Q 2594 3103 2138 3103 
Q 1681 3103 1420 2742 
Q 1159 2381 1159 1747 
Q 1159 1113 1420 752 
Q 1681 391 2138 391 
Q 2594 391 2855 752 
Q 3116 1113 3116 1747 
z
" transform="scale(0.015625)"/>
      <path id="DejaVuSans-77" d="M 269 3500 
L 844 3500 
L 1563 769 
L 2278 3500 
L 2956 3500 
L 3675 769 
L 4391 3500 
L 4966 3500 
L 4050 0 
L 3372 0 
L 2619 2869 
L 1863 0 
L 1184 0 
L 269 3500 
z
" transform="scale(0.015625)"/>
      <path id="DejaVuSans-57" d="M 213 4666 
L 850 4666 
L 1831 722 
L 2809 4666 
L 3519 4666 
L 4500 722 
L 5478 4666 
L 6119 4666 
L 4947 0 
L 4153 0 
L 3169 4050 
L 2175 0 
L 1381 0 
L 213 4666 
z
" transform="scale(0.015625)"/>
      <path id="DejaVuSans-6d" d="M 3328 2828 
Q 3544 3216 3844 3400 
Q 4144 3584 4550 3584 
Q 5097 3584 5394 3201 
Q 5691 2819 5691 2113 
L 5691 0 
L 5113 0 
L 5113 2094 
Q 5113 2597 4934 2840 
Q 4756 3084 4391 3084 
Q 3944 3084 3684 2787 
Q 3425 2491 3425 1978 
L 3425 0 
L 2847 0 
L 2847 2094 
Q 2847 2600 2669 2842 
Q 2491 3084 2119 3084 
Q 1678 3084 1418 2786 
Q 1159 2488 1159 1978 
L 1159 0 
L 581 0 
L 581 3500 
L 1159 3500 
L 1159 2956 
Q 1356 3278 1631 3431 
Q 1906 3584 2284 3584 
Q 2666 3584 2933 3390 
Q 3200 3197 3328 2828 
z
" transform="scale(0.015625)"/>
      <path id="DejaVuSans-76" d="M 191 3500 
L 800 3500 
L 1894 563 
L 2988 3500 
L 3597 3500 
L 2284 0 
L 1503 0 
L 191 3500 
z
" transform="scale(0.015625)"/>
     </defs>
     <use xlink:href="#DejaVuSans-72"/>
     <use xlink:href="#DejaVuSans-65" x="38.863281"/>
     <use xlink:href="#DejaVuSans-6c" x="100.386719"/>
     <use xlink:href="#DejaVuSans-61" x="128.169922"/>
     <use xlink:href="#DejaVuSans-74" x="189.449219"/>
     <use xlink:href="#DejaVuSans-69" x="228.658203"/>
     <use xlink:href="#DejaVuSans-6f" x="256.441406"/>
     <use xlink:href="#DejaVuSans-6e" x="317.623047"/>
     <use xlink:href="#DejaVuSans-73" x="381.001953"/>
     <use xlink:href="#DejaVuSans-68" x="433.101562"/>
     <use xlink:href="#DejaVuSans-69" x="496.480469"/>
     <use xlink:href="#DejaVuSans-70" x="524.263672"/>
     <use xlink:href="#DejaVuSans-20" x="587.740234"/>
     <use xlink:href="#DejaVuSans-62" x="619.527344"/>
     <use xlink:href="#DejaVuSans-65" x="683.003906"/>
     <use xlink:href="#DejaVuSans-74" x="744.527344"/>
     <use xlink:href="#DejaVuSans-77" x="783.736328"/>
     <use xlink:href="#DejaVuSans-65" x="865.523438"/>
     <use xlink:href="#DejaVuSans-65" x="927.046875"/>
     <use xlink:href="#DejaVuSans-6e" x="988.570312"/>
     <use xlink:href="#DejaVuSans-20" x="1051.949219"/>
     <use xlink:href="#DejaVuSans-62" x="1083.736328"/>
     <use xlink:href="#DejaVuSans-75" x="1147.212891"/>
     <use xlink:href="#DejaVuSans-64" x="1210.591797"/>
     <use xlink:href="#DejaVuSans-67" x="1274.068359"/>
     <use xlink:href="#DejaVuSans-65" x="1337.544922"/>
     <use xlink:href="#DejaVuSans-74" x="1399.068359"/>
     <use xlink:href="#DejaVuSans-20" x="1438.277344"/>
     <use xlink:href="#DejaVuSans-61" x="1470.064453"/>
     <use xlink:href="#DejaVuSans-6e" x="1531.34375"/>
     <use xlink:href="#DejaVuSans-64" x="1594.722656"/>
     <use xlink:href="#DejaVuSans-20" x="1658.199219"/>
     <use xlink:href="#DejaVuSans-70" x="1689.986328"/>
     <use xlink:href="#DejaVuSans-72" x="1753.462891"/>
     <use xlink:href="#DejaVuSans-6f" x="1792.326172"/>
     <use xlink:href="#DejaVuSans-66" x="1853.507812"/>
     <use xlink:href="#DejaVuSans-69" x="1888.712891"/>
     <use xlink:href="#DejaVuSans-74" x="1916.496094"/>
     <use xlink:href="#DejaVuSans-20" x="1955.705078"/>
     <use xlink:href="#DejaVuSans-66" x="1987.492188"/>
     <use xlink:href="#DejaVuSans-6f" x="2022.697266"/>
     <use xlink:href="#DejaVuSans-72" x="2083.878906"/>
     <use xlink:href="#DejaVuSans-20" x="2124.992188"/>
     <use xlink:href="#DejaVuSans-57" x="2156.779297"/>
     <use xlink:href="#DejaVuSans-6f" x="2249.78125"/>
     <use xlink:href="#DejaVuSans-72" x="2310.962891"/>
     <use xlink:href="#DejaVuSans-6c" x="2352.076172"/>
     <use xlink:href="#DejaVuSans-64" x="2379.859375"/>
     <use xlink:href="#DejaVuSans-20" x="2443.335938"/>
     <use xlink:href="#DejaVuSans-63" x="2475.123047"/>
     <use xlink:href="#DejaVuSans-69" x="2530.103516"/>
     <use xlink:href="#DejaVuSans-6e" x="2557.886719"/>
     <use xlink:href="#DejaVuSans-65" x="2621.265625"/>
     <use xlink:href="#DejaVuSans-6d" x="2682.789062"/>
     <use xlink:href="#DejaVuSans-61" x="2780.201172"/>
     <use xlink:href="#DejaVuSans-20" x="2841.480469"/>
     <use xlink:href="#DejaVuSans-6d" x="2873.267578"/>
     <use xlink:href="#DejaVuSans-6f" x="2970.679688"/>
     <use xlink:href="#DejaVuSans-76" x="3031.861328"/>
     <use xlink:href="#DejaVuSans-69" x="3091.041016"/>
     <use xlink:href="#DejaVuSans-65" x="3118.824219"/>
     <use xlink:href="#DejaVuSans-73" x="3180.347656"/>
    </g>
   </g>
  </g>
 </g>
 <defs>
  <clipPath id="pcab1c81973">
   <rect x="42.620313" y="96.318125" width="309.296393" height="314.143536"/>
  </clipPath>
  <clipPath id="pcf855ae4aa">
   <rect x="42.620313" y="31.322911" width="309.296393" height="54.162679"/>
  </clipPath>
  <clipPath id="p066cf42590">
   <rect x="362.582098" y="96.318125" width="53.326964" height="314.143536"/>
  </clipPath>
 </defs>
</svg>
