<?xml version="1.0" encoding="utf-8" standalone="no"?>
<!DOCTYPE svg PUBLIC "-//W3C//DTD SVG 1.1//EN"
  "http://www.w3.org/Graphics/SVG/1.1/DTD/svg11.dtd">
<svg xmlns:xlink="http://www.w3.org/1999/xlink" width="568.8pt" height="583.918125pt" viewBox="0 0 568.8 583.918125" xmlns="http://www.w3.org/2000/svg" version="1.1">
 <metadata>
  <rdf:RDF xmlns:dc="http://purl.org/dc/elements/1.1/" xmlns:cc="http://creativecommons.org/ns#" xmlns:rdf="http://www.w3.org/1999/02/22-rdf-syntax-ns#">
   <cc:Work>
    <dc:type rdf:resource="http://purl.org/dc/dcmitype/StillImage"/>
    <dc:date>2022-12-23T18:52:47.725720</dc:date>
    <dc:format>image/svg+xml</dc:format>
    <dc:creator>
     <cc:Agent>
      <dc:title>Matplotlib v3.5.2, https://matplotlib.org/</dc:title>
     </cc:Agent>
    </dc:creator>
   </cc:Work>
  </rdf:RDF>
 </metadata>
 <defs>
  <style type="text/css">*{stroke-linejoin: round; stroke-linecap: butt}</style>
 </defs>
 <g id="figure_1">
  <g id="patch_1">
   <path d="M 0 583.918125 
L 568.8 583.918125 
L 568.8 0 
L 0 0 
z
" style="fill: #ffffff"/>
  </g>
  <g id="axes_1">
   <g id="PathCollection_1">
    <path d="M 497.630769 326.904253 
C 504.893655 326.904253 511.86005 324.018678 516.995686 318.883042 
C 522.131322 313.747406 525.016897 306.781011 525.016897 299.518125 
C 525.016897 292.255239 522.131322 285.288844 516.995686 280.153208 
C 511.86005 275.017572 504.893655 272.131997 497.630769 272.131997 
C 490.367883 272.131997 483.401488 275.017572 478.265852 280.153208 
C 473.130217 285.288844 470.244641 292.255239 470.244641 299.518125 
C 470.244641 306.781011 473.130217 313.747406 478.265852 318.883042 
C 483.401488 324.018678 490.367883 326.904253 497.630769 326.904253 
z
" clip-path="url(#pb1b799def4)" style="fill: #c70039; fill-opacity: 0.99; stroke: #c70039; stroke-opacity: 0.99"/>
    <path d="M 478.992348 239.149177 
C 486.109748 239.149177 492.936595 236.321404 497.969357 231.288642 
C 503.002118 226.255881 505.829891 219.429033 505.829891 212.311633 
C 505.829891 205.194234 503.002118 198.367386 497.969357 193.334625 
C 492.936595 188.301863 486.109748 185.47409 478.992348 185.47409 
C 471.874948 185.47409 465.048101 188.301863 460.015339 193.334625 
C 454.982577 198.367386 452.154805 205.194234 452.154805 212.311633 
C 452.154805 219.429033 454.982577 226.255881 460.015339 231.288642 
C 465.048101 236.321404 471.874948 239.149177 478.992348 239.149177 
z
" clip-path="url(#pb1b799def4)" style="fill: #c70039; fill-opacity: 0.99; stroke: #c70039; stroke-opacity: 0.99"/>
    <path d="M 426.29985 164.714772 
C 432.805506 164.714772 439.045583 162.130047 443.645777 157.529854 
C 448.245971 152.92966 450.830695 146.689583 450.830695 140.183927 
C 450.830695 133.67827 448.245971 127.438193 443.645777 122.838 
C 439.045583 118.237806 432.805506 115.653081 426.29985 115.653081 
C 419.794194 115.653081 413.554116 118.237806 408.953923 122.838 
C 404.353729 127.438193 401.769005 133.67827 401.769005 140.183927 
C 401.769005 146.689583 404.353729 152.92966 408.953923 157.529854 
C 413.554116 162.130047 419.794194 164.714772 426.29985 164.714772 
z
" clip-path="url(#pb1b799def4)" style="fill: #c70039; fill-opacity: 0.99; stroke: #c70039; stroke-opacity: 0.99"/>
    <path d="M 348.664291 119.805891 
C 355.082028 119.805891 361.237775 117.256097 365.7758 112.718072 
C 370.313826 108.180047 372.86362 102.0243 372.86362 95.606563 
C 372.86362 89.188826 370.313826 83.033079 365.7758 78.495054 
C 361.237775 73.957028 355.082028 71.407234 348.664291 71.407234 
C 342.246554 71.407234 336.090807 73.957028 331.552782 78.495054 
C 327.014757 83.033079 324.464963 89.188826 324.464963 95.606563 
C 324.464963 102.0243 327.014757 108.180047 331.552782 112.718072 
C 336.090807 117.256097 342.246554 119.805891 348.664291 119.805891 
z
" clip-path="url(#pb1b799def4)" style="fill: #c70039; fill-opacity: 0.99; stroke: #c70039; stroke-opacity: 0.99"/>
    <path d="M 259.509549 110.167034 
C 265.842513 110.167034 271.916949 107.65092 276.395031 103.172838 
C 280.873113 98.694756 283.389227 92.62032 283.389227 86.287356 
C 283.389227 79.954391 280.873113 73.879956 276.395031 69.401874 
C 271.916949 64.923791 265.842513 62.407678 259.509549 62.407678 
C 253.176584 62.407678 247.102149 64.923791 242.624066 69.401874 
C 238.145984 73.879956 235.629871 79.954391 235.629871 86.287356 
C 235.629871 92.62032 238.145984 98.694756 242.624066 103.172838 
C 247.102149 107.65092 253.176584 110.167034 259.509549 110.167034 
z
" clip-path="url(#pb1b799def4)" style="fill: #c70039; fill-opacity: 0.99; stroke: #c70039; stroke-opacity: 0.99"/>
    <path d="M 174.251298 137.546489 
C 180.538945 137.546489 186.569912 135.048381 191.015949 130.602343 
C 195.461987 126.156306 197.960095 120.125339 197.960095 113.837692 
C 197.960095 107.550046 195.461987 101.519079 191.015949 97.073041 
C 186.569912 92.627004 180.538945 90.128895 174.251298 90.128895 
C 167.963652 90.128895 161.932684 92.627004 157.486647 97.073041 
C 153.040609 101.519079 150.542501 107.550046 150.542501 113.837692 
C 150.542501 120.125339 153.040609 126.156306 157.486647 130.602343 
C 161.932684 135.048381 167.963652 137.546489 174.251298 137.546489 
z
" clip-path="url(#pb1b799def4)" style="fill: #c70039; fill-opacity: 0.99; stroke: #c70039; stroke-opacity: 0.99"/>
    <path d="M 107.631477 197.158781 
C 113.907489 197.158781 119.927297 194.665295 124.365108 190.227484 
C 128.802918 185.789674 131.296404 179.769866 131.296404 173.493854 
C 131.296404 167.217842 128.802918 161.198034 124.365108 156.760223 
C 119.927297 152.322413 113.907489 149.828926 107.631477 149.828926 
C 101.355465 149.828926 95.335657 152.322413 90.897846 156.760223 
C 86.460036 161.198034 83.96655 167.217842 83.96655 173.493854 
C 83.96655 179.769866 86.460036 185.789674 90.897846 190.227484 
C 95.335657 194.665295 101.355465 197.158781 107.631477 197.158781 
z
" clip-path="url(#pb1b799def4)" style="fill: #c70039; fill-opacity: 0.99; stroke: #c70039; stroke-opacity: 0.99"/>
    <path d="M 71.169231 278.181499 
C 77.332743 278.181499 83.244644 275.732709 87.602905 271.374448 
C 91.961166 267.016187 94.409956 261.104286 94.409956 254.940774 
C 94.409956 248.777262 91.961166 242.865361 87.602905 238.5071 
C 83.244644 234.148838 77.332743 231.700049 71.169231 231.700049 
C 65.005719 231.700049 59.093818 234.148838 54.735557 238.5071 
C 50.377295 242.865361 47.928506 248.777262 47.928506 254.940774 
C 47.928506 261.104286 50.377295 267.016187 54.735557 271.374448 
C 59.093818 275.732709 65.005719 278.181499 71.169231 278.181499 
z
" clip-path="url(#pb1b799def4)" style="fill: #c70039; fill-opacity: 0.99; stroke: #c70039; stroke-opacity: 0.99"/>
    <path d="M 71.169244 367.141799 
C 77.28119 367.141799 83.143629 364.713497 87.465428 360.391699 
C 91.787226 356.0699 94.215528 350.207461 94.215528 344.095514 
C 94.215528 337.983568 91.787226 332.121129 87.465428 327.79933 
C 83.143629 323.477532 77.28119 321.04923 71.169244 321.04923 
C 65.057297 321.04923 59.194858 323.477532 54.873059 327.79933 
C 50.551261 332.121129 48.122959 337.983568 48.122959 344.095514 
C 48.122959 350.207461 50.551261 356.0699 54.873059 360.391699 
C 59.194858 364.713497 65.057297 367.141799 71.169244 367.141799 
z
" clip-path="url(#pb1b799def4)" style="fill: #c70039; fill-opacity: 0.99; stroke: #c70039; stroke-opacity: 0.99"/>
    <path d="M 107.63149 446.447175 
C 113.175498 446.447175 118.493185 444.244517 122.413391 440.324311 
C 126.333597 436.404104 128.536255 431.086418 128.536255 425.542409 
C 128.536255 419.9984 126.333597 414.680714 122.413391 410.760508 
C 118.493185 406.840301 113.175498 404.637644 107.63149 404.637644 
C 102.087481 404.637644 96.769794 406.840301 92.849588 410.760508 
C 88.929382 414.680714 86.726724 419.9984 86.726724 425.542409 
C 86.726724 431.086418 88.929382 436.404104 92.849588 440.324311 
C 96.769794 444.244517 102.087481 446.447175 107.63149 446.447175 
z
" clip-path="url(#pb1b799def4)" style="fill: #c70039; fill-opacity: 0.99; stroke: #c70039; stroke-opacity: 0.99"/>
    <path d="M 174.25133 505.571721 
C 179.654353 505.571721 184.836809 503.425077 188.657323 499.604563 
C 192.477837 495.784049 194.624481 490.601593 194.624481 485.198571 
C 194.624481 479.795548 192.477837 474.613092 188.657323 470.792578 
C 184.836809 466.972064 179.654353 464.82542 174.25133 464.82542 
C 168.848308 464.82542 163.665851 466.972064 159.845337 470.792578 
C 156.024823 474.613092 153.87818 479.795548 153.87818 485.198571 
C 153.87818 490.601593 156.024823 495.784049 159.845337 499.604563 
C 163.665851 503.425077 168.848308 505.571721 174.25133 505.571721 
z
" clip-path="url(#pb1b799def4)" style="fill: #c70039; fill-opacity: 0.99; stroke: #c70039; stroke-opacity: 0.99"/>
    <path d="M 259.509587 533.010351 
C 264.882988 533.010351 270.037032 530.875476 273.836601 527.075908 
C 277.636169 523.276339 279.771044 518.122295 279.771044 512.748894 
C 279.771044 507.375493 277.636169 502.221449 273.836601 498.421881 
C 270.037032 494.622312 264.882988 492.487437 259.509587 492.487437 
C 254.136186 492.487437 248.982142 494.622312 245.182573 498.421881 
C 241.383005 502.221449 239.24813 507.375493 239.24813 512.748894 
C 239.24813 518.122295 241.383005 523.276339 245.182573 527.075908 
C 248.982142 530.875476 254.136186 533.010351 259.509587 533.010351 
z
" clip-path="url(#pb1b799def4)" style="fill: #c70039; fill-opacity: 0.99; stroke: #c70039; stroke-opacity: 0.99"/>
    <path d="M 348.664323 523.411358 
C 353.963528 523.411358 359.046404 521.305962 362.793507 517.558858 
C 366.54061 513.811755 368.646007 508.728879 368.646007 503.429675 
C 368.646007 498.13047 366.54061 493.047594 362.793507 489.300491 
C 359.046404 485.553387 353.963528 483.447991 348.664323 483.447991 
C 343.365119 483.447991 338.282243 485.553387 334.53514 489.300491 
C 330.788036 493.047594 328.68264 498.13047 328.68264 503.429675 
C 328.68264 508.728879 330.788036 513.811755 334.53514 517.558858 
C 338.282243 521.305962 343.365119 523.411358 348.664323 523.411358 
z
" clip-path="url(#pb1b799def4)" style="fill: #c70039; fill-opacity: 0.99; stroke: #c70039; stroke-opacity: 0.99"/>
    <path d="M 426.299888 478.586937 
C 431.533579 478.586937 436.553616 476.50757 440.254395 472.806791 
C 443.955173 469.106013 446.03454 464.085976 446.03454 458.852285 
C 446.03454 453.618594 443.955173 448.598557 440.254395 444.897779 
C 436.553616 441.197 431.533579 439.117633 426.299888 439.117633 
C 421.066198 439.117633 416.04616 441.197 412.345382 444.897779 
C 408.644604 448.598557 406.565236 453.618594 406.565236 458.852285 
C 406.565236 464.085976 408.644604 469.106013 412.345382 472.806791 
C 416.04616 476.50757 421.066198 478.586937 426.299888 478.586937 
z
" clip-path="url(#pb1b799def4)" style="fill: #c70039; fill-opacity: 0.99; stroke: #c70039; stroke-opacity: 0.99"/>
    <path d="M 478.992374 406.089501 
C 484.128009 406.089501 489.053994 404.049092 492.685437 400.417649 
C 496.31688 396.786206 498.35729 391.860221 498.35729 386.724585 
C 498.35729 381.588949 496.31688 376.662964 492.685437 373.031521 
C 489.053994 369.400078 484.128009 367.359668 478.992374 367.359668 
C 473.856738 367.359668 468.930753 369.400078 465.29931 373.031521 
C 461.667867 376.662964 459.627457 381.588949 459.627457 386.724585 
C 459.627457 391.860221 461.667867 396.786206 465.29931 400.417649 
C 468.930753 404.049092 473.856738 406.089501 478.992374 406.089501 
z
" clip-path="url(#pb1b799def4)" style="fill: #c70039; fill-opacity: 0.99; stroke: #c70039; stroke-opacity: 0.99"/>
   </g>
   <g id="text_1">
    <g id="patch_2">
     <path d="M 460.258269 307.833281 
L 535.003269 307.833281 
L 535.003269 291.202969 
L 460.258269 291.202969 
z
" clip-path="url(#pb1b799def4)" style="fill: #ffffff; opacity: 0.7; stroke: #000000; stroke-linejoin: miter"/>
    </g>
    <g clip-path="url(#pb1b799def4)">
     <!-- Steve Buscemi -->
     <g transform="translate(464.218269 302.001562)scale(0.09 -0.09)">
      <defs>
       <path id="DejaVuSans-53" d="M 3425 4513 
L 3425 3897 
Q 3066 4069 2747 4153 
Q 2428 4238 2131 4238 
Q 1616 4238 1336 4038 
Q 1056 3838 1056 3469 
Q 1056 3159 1242 3001 
Q 1428 2844 1947 2747 
L 2328 2669 
Q 3034 2534 3370 2195 
Q 3706 1856 3706 1288 
Q 3706 609 3251 259 
Q 2797 -91 1919 -91 
Q 1588 -91 1214 -16 
Q 841 59 441 206 
L 441 856 
Q 825 641 1194 531 
Q 1563 422 1919 422 
Q 2459 422 2753 634 
Q 3047 847 3047 1241 
Q 3047 1584 2836 1778 
Q 2625 1972 2144 2069 
L 1759 2144 
Q 1053 2284 737 2584 
Q 422 2884 422 3419 
Q 422 4038 858 4394 
Q 1294 4750 2059 4750 
Q 2388 4750 2728 4690 
Q 3069 4631 3425 4513 
z
" transform="scale(0.015625)"/>
       <path id="DejaVuSans-74" d="M 1172 4494 
L 1172 3500 
L 2356 3500 
L 2356 3053 
L 1172 3053 
L 1172 1153 
Q 1172 725 1289 603 
Q 1406 481 1766 481 
L 2356 481 
L 2356 0 
L 1766 0 
Q 1100 0 847 248 
Q 594 497 594 1153 
L 594 3053 
L 172 3053 
L 172 3500 
L 594 3500 
L 594 4494 
L 1172 4494 
z
" transform="scale(0.015625)"/>
       <path id="DejaVuSans-65" d="M 3597 1894 
L 3597 1613 
L 953 1613 
Q 991 1019 1311 708 
Q 1631 397 2203 397 
Q 2534 397 2845 478 
Q 3156 559 3463 722 
L 3463 178 
Q 3153 47 2828 -22 
Q 2503 -91 2169 -91 
Q 1331 -91 842 396 
Q 353 884 353 1716 
Q 353 2575 817 3079 
Q 1281 3584 2069 3584 
Q 2775 3584 3186 3129 
Q 3597 2675 3597 1894 
z
M 3022 2063 
Q 3016 2534 2758 2815 
Q 2500 3097 2075 3097 
Q 1594 3097 1305 2825 
Q 1016 2553 972 2059 
L 3022 2063 
z
" transform="scale(0.015625)"/>
       <path id="DejaVuSans-76" d="M 191 3500 
L 800 3500 
L 1894 563 
L 2988 3500 
L 3597 3500 
L 2284 0 
L 1503 0 
L 191 3500 
z
" transform="scale(0.015625)"/>
       <path id="DejaVuSans-20" transform="scale(0.015625)"/>
       <path id="DejaVuSans-42" d="M 1259 2228 
L 1259 519 
L 2272 519 
Q 2781 519 3026 730 
Q 3272 941 3272 1375 
Q 3272 1813 3026 2020 
Q 2781 2228 2272 2228 
L 1259 2228 
z
M 1259 4147 
L 1259 2741 
L 2194 2741 
Q 2656 2741 2882 2914 
Q 3109 3088 3109 3444 
Q 3109 3797 2882 3972 
Q 2656 4147 2194 4147 
L 1259 4147 
z
M 628 4666 
L 2241 4666 
Q 2963 4666 3353 4366 
Q 3744 4066 3744 3513 
Q 3744 3084 3544 2831 
Q 3344 2578 2956 2516 
Q 3422 2416 3680 2098 
Q 3938 1781 3938 1306 
Q 3938 681 3513 340 
Q 3088 0 2303 0 
L 628 0 
L 628 4666 
z
" transform="scale(0.015625)"/>
       <path id="DejaVuSans-75" d="M 544 1381 
L 544 3500 
L 1119 3500 
L 1119 1403 
Q 1119 906 1312 657 
Q 1506 409 1894 409 
Q 2359 409 2629 706 
Q 2900 1003 2900 1516 
L 2900 3500 
L 3475 3500 
L 3475 0 
L 2900 0 
L 2900 538 
Q 2691 219 2414 64 
Q 2138 -91 1772 -91 
Q 1169 -91 856 284 
Q 544 659 544 1381 
z
M 1991 3584 
L 1991 3584 
z
" transform="scale(0.015625)"/>
       <path id="DejaVuSans-73" d="M 2834 3397 
L 2834 2853 
Q 2591 2978 2328 3040 
Q 2066 3103 1784 3103 
Q 1356 3103 1142 2972 
Q 928 2841 928 2578 
Q 928 2378 1081 2264 
Q 1234 2150 1697 2047 
L 1894 2003 
Q 2506 1872 2764 1633 
Q 3022 1394 3022 966 
Q 3022 478 2636 193 
Q 2250 -91 1575 -91 
Q 1294 -91 989 -36 
Q 684 19 347 128 
L 347 722 
Q 666 556 975 473 
Q 1284 391 1588 391 
Q 1994 391 2212 530 
Q 2431 669 2431 922 
Q 2431 1156 2273 1281 
Q 2116 1406 1581 1522 
L 1381 1569 
Q 847 1681 609 1914 
Q 372 2147 372 2553 
Q 372 3047 722 3315 
Q 1072 3584 1716 3584 
Q 2034 3584 2315 3537 
Q 2597 3491 2834 3397 
z
" transform="scale(0.015625)"/>
       <path id="DejaVuSans-63" d="M 3122 3366 
L 3122 2828 
Q 2878 2963 2633 3030 
Q 2388 3097 2138 3097 
Q 1578 3097 1268 2742 
Q 959 2388 959 1747 
Q 959 1106 1268 751 
Q 1578 397 2138 397 
Q 2388 397 2633 464 
Q 2878 531 3122 666 
L 3122 134 
Q 2881 22 2623 -34 
Q 2366 -91 2075 -91 
Q 1284 -91 818 406 
Q 353 903 353 1747 
Q 353 2603 823 3093 
Q 1294 3584 2113 3584 
Q 2378 3584 2631 3529 
Q 2884 3475 3122 3366 
z
" transform="scale(0.015625)"/>
       <path id="DejaVuSans-6d" d="M 3328 2828 
Q 3544 3216 3844 3400 
Q 4144 3584 4550 3584 
Q 5097 3584 5394 3201 
Q 5691 2819 5691 2113 
L 5691 0 
L 5113 0 
L 5113 2094 
Q 5113 2597 4934 2840 
Q 4756 3084 4391 3084 
Q 3944 3084 3684 2787 
Q 3425 2491 3425 1978 
L 3425 0 
L 2847 0 
L 2847 2094 
Q 2847 2600 2669 2842 
Q 2491 3084 2119 3084 
Q 1678 3084 1418 2786 
Q 1159 2488 1159 1978 
L 1159 0 
L 581 0 
L 581 3500 
L 1159 3500 
L 1159 2956 
Q 1356 3278 1631 3431 
Q 1906 3584 2284 3584 
Q 2666 3584 2933 3390 
Q 3200 3197 3328 2828 
z
" transform="scale(0.015625)"/>
       <path id="DejaVuSans-69" d="M 603 3500 
L 1178 3500 
L 1178 0 
L 603 0 
L 603 3500 
z
M 603 4863 
L 1178 4863 
L 1178 4134 
L 603 4134 
L 603 4863 
z
" transform="scale(0.015625)"/>
      </defs>
      <use xlink:href="#DejaVuSans-53"/>
      <use xlink:href="#DejaVuSans-74" x="63.476562"/>
      <use xlink:href="#DejaVuSans-65" x="102.685547"/>
      <use xlink:href="#DejaVuSans-76" x="164.208984"/>
      <use xlink:href="#DejaVuSans-65" x="223.388672"/>
      <use xlink:href="#DejaVuSans-20" x="284.912109"/>
      <use xlink:href="#DejaVuSans-42" x="316.699219"/>
      <use xlink:href="#DejaVuSans-75" x="385.302734"/>
      <use xlink:href="#DejaVuSans-73" x="448.681641"/>
      <use xlink:href="#DejaVuSans-63" x="500.78125"/>
      <use xlink:href="#DejaVuSans-65" x="555.761719"/>
      <use xlink:href="#DejaVuSans-6d" x="617.285156"/>
      <use xlink:href="#DejaVuSans-69" x="714.697266"/>
     </g>
    </g>
   </g>
   <g id="text_2">
    <g id="patch_3">
     <path d="M 434.251098 220.62679 
L 523.733598 220.62679 
L 523.733598 203.996477 
L 434.251098 203.996477 
z
" clip-path="url(#pb1b799def4)" style="fill: #ffffff; opacity: 0.7; stroke: #000000; stroke-linejoin: miter"/>
    </g>
    <g clip-path="url(#pb1b799def4)">
     <!-- Samuel L. Jackson -->
     <g transform="translate(438.211098 214.795071)scale(0.09 -0.09)">
      <defs>
       <path id="DejaVuSans-61" d="M 2194 1759 
Q 1497 1759 1228 1600 
Q 959 1441 959 1056 
Q 959 750 1161 570 
Q 1363 391 1709 391 
Q 2188 391 2477 730 
Q 2766 1069 2766 1631 
L 2766 1759 
L 2194 1759 
z
M 3341 1997 
L 3341 0 
L 2766 0 
L 2766 531 
Q 2569 213 2275 61 
Q 1981 -91 1556 -91 
Q 1019 -91 701 211 
Q 384 513 384 1019 
Q 384 1609 779 1909 
Q 1175 2209 1959 2209 
L 2766 2209 
L 2766 2266 
Q 2766 2663 2505 2880 
Q 2244 3097 1772 3097 
Q 1472 3097 1187 3025 
Q 903 2953 641 2809 
L 641 3341 
Q 956 3463 1253 3523 
Q 1550 3584 1831 3584 
Q 2591 3584 2966 3190 
Q 3341 2797 3341 1997 
z
" transform="scale(0.015625)"/>
       <path id="DejaVuSans-6c" d="M 603 4863 
L 1178 4863 
L 1178 0 
L 603 0 
L 603 4863 
z
" transform="scale(0.015625)"/>
       <path id="DejaVuSans-4c" d="M 628 4666 
L 1259 4666 
L 1259 531 
L 3531 531 
L 3531 0 
L 628 0 
L 628 4666 
z
" transform="scale(0.015625)"/>
       <path id="DejaVuSans-2e" d="M 684 794 
L 1344 794 
L 1344 0 
L 684 0 
L 684 794 
z
" transform="scale(0.015625)"/>
       <path id="DejaVuSans-4a" d="M 628 4666 
L 1259 4666 
L 1259 325 
Q 1259 -519 939 -900 
Q 619 -1281 -91 -1281 
L -331 -1281 
L -331 -750 
L -134 -750 
Q 284 -750 456 -515 
Q 628 -281 628 325 
L 628 4666 
z
" transform="scale(0.015625)"/>
       <path id="DejaVuSans-6b" d="M 581 4863 
L 1159 4863 
L 1159 1991 
L 2875 3500 
L 3609 3500 
L 1753 1863 
L 3688 0 
L 2938 0 
L 1159 1709 
L 1159 0 
L 581 0 
L 581 4863 
z
" transform="scale(0.015625)"/>
       <path id="DejaVuSans-6f" d="M 1959 3097 
Q 1497 3097 1228 2736 
Q 959 2375 959 1747 
Q 959 1119 1226 758 
Q 1494 397 1959 397 
Q 2419 397 2687 759 
Q 2956 1122 2956 1747 
Q 2956 2369 2687 2733 
Q 2419 3097 1959 3097 
z
M 1959 3584 
Q 2709 3584 3137 3096 
Q 3566 2609 3566 1747 
Q 3566 888 3137 398 
Q 2709 -91 1959 -91 
Q 1206 -91 779 398 
Q 353 888 353 1747 
Q 353 2609 779 3096 
Q 1206 3584 1959 3584 
z
" transform="scale(0.015625)"/>
       <path id="DejaVuSans-6e" d="M 3513 2113 
L 3513 0 
L 2938 0 
L 2938 2094 
Q 2938 2591 2744 2837 
Q 2550 3084 2163 3084 
Q 1697 3084 1428 2787 
Q 1159 2491 1159 1978 
L 1159 0 
L 581 0 
L 581 3500 
L 1159 3500 
L 1159 2956 
Q 1366 3272 1645 3428 
Q 1925 3584 2291 3584 
Q 2894 3584 3203 3211 
Q 3513 2838 3513 2113 
z
" transform="scale(0.015625)"/>
      </defs>
      <use xlink:href="#DejaVuSans-53"/>
      <use xlink:href="#DejaVuSans-61" x="63.476562"/>
      <use xlink:href="#DejaVuSans-6d" x="124.755859"/>
      <use xlink:href="#DejaVuSans-75" x="222.167969"/>
      <use xlink:href="#DejaVuSans-65" x="285.546875"/>
      <use xlink:href="#DejaVuSans-6c" x="347.070312"/>
      <use xlink:href="#DejaVuSans-20" x="374.853516"/>
      <use xlink:href="#DejaVuSans-4c" x="406.640625"/>
      <use xlink:href="#DejaVuSans-2e" x="462.353516"/>
      <use xlink:href="#DejaVuSans-20" x="494.140625"/>
      <use xlink:href="#DejaVuSans-4a" x="525.927734"/>
      <use xlink:href="#DejaVuSans-61" x="555.419922"/>
      <use xlink:href="#DejaVuSans-63" x="616.699219"/>
      <use xlink:href="#DejaVuSans-6b" x="671.679688"/>
      <use xlink:href="#DejaVuSans-73" x="729.589844"/>
      <use xlink:href="#DejaVuSans-6f" x="781.689453"/>
      <use xlink:href="#DejaVuSans-6e" x="842.871094"/>
     </g>
    </g>
   </g>
   <g id="text_3">
    <g id="patch_4">
     <path d="M 389.209303 148.499083 
L 463.390397 148.499083 
L 463.390397 131.86877 
L 389.209303 131.86877 
z
" clip-path="url(#pb1b799def4)" style="fill: #ffffff; opacity: 0.7; stroke: #000000; stroke-linejoin: miter"/>
    </g>
    <g clip-path="url(#pb1b799def4)">
     <!-- Robert De Niro -->
     <g transform="translate(393.169303 142.667364)scale(0.09 -0.09)">
      <defs>
       <path id="DejaVuSans-52" d="M 2841 2188 
Q 3044 2119 3236 1894 
Q 3428 1669 3622 1275 
L 4263 0 
L 3584 0 
L 2988 1197 
Q 2756 1666 2539 1819 
Q 2322 1972 1947 1972 
L 1259 1972 
L 1259 0 
L 628 0 
L 628 4666 
L 2053 4666 
Q 2853 4666 3247 4331 
Q 3641 3997 3641 3322 
Q 3641 2881 3436 2590 
Q 3231 2300 2841 2188 
z
M 1259 4147 
L 1259 2491 
L 2053 2491 
Q 2509 2491 2742 2702 
Q 2975 2913 2975 3322 
Q 2975 3731 2742 3939 
Q 2509 4147 2053 4147 
L 1259 4147 
z
" transform="scale(0.015625)"/>
       <path id="DejaVuSans-62" d="M 3116 1747 
Q 3116 2381 2855 2742 
Q 2594 3103 2138 3103 
Q 1681 3103 1420 2742 
Q 1159 2381 1159 1747 
Q 1159 1113 1420 752 
Q 1681 391 2138 391 
Q 2594 391 2855 752 
Q 3116 1113 3116 1747 
z
M 1159 2969 
Q 1341 3281 1617 3432 
Q 1894 3584 2278 3584 
Q 2916 3584 3314 3078 
Q 3713 2572 3713 1747 
Q 3713 922 3314 415 
Q 2916 -91 2278 -91 
Q 1894 -91 1617 61 
Q 1341 213 1159 525 
L 1159 0 
L 581 0 
L 581 4863 
L 1159 4863 
L 1159 2969 
z
" transform="scale(0.015625)"/>
       <path id="DejaVuSans-72" d="M 2631 2963 
Q 2534 3019 2420 3045 
Q 2306 3072 2169 3072 
Q 1681 3072 1420 2755 
Q 1159 2438 1159 1844 
L 1159 0 
L 581 0 
L 581 3500 
L 1159 3500 
L 1159 2956 
Q 1341 3275 1631 3429 
Q 1922 3584 2338 3584 
Q 2397 3584 2469 3576 
Q 2541 3569 2628 3553 
L 2631 2963 
z
" transform="scale(0.015625)"/>
       <path id="DejaVuSans-44" d="M 1259 4147 
L 1259 519 
L 2022 519 
Q 2988 519 3436 956 
Q 3884 1394 3884 2338 
Q 3884 3275 3436 3711 
Q 2988 4147 2022 4147 
L 1259 4147 
z
M 628 4666 
L 1925 4666 
Q 3281 4666 3915 4102 
Q 4550 3538 4550 2338 
Q 4550 1131 3912 565 
Q 3275 0 1925 0 
L 628 0 
L 628 4666 
z
" transform="scale(0.015625)"/>
       <path id="DejaVuSans-4e" d="M 628 4666 
L 1478 4666 
L 3547 763 
L 3547 4666 
L 4159 4666 
L 4159 0 
L 3309 0 
L 1241 3903 
L 1241 0 
L 628 0 
L 628 4666 
z
" transform="scale(0.015625)"/>
      </defs>
      <use xlink:href="#DejaVuSans-52"/>
      <use xlink:href="#DejaVuSans-6f" x="64.982422"/>
      <use xlink:href="#DejaVuSans-62" x="126.164062"/>
      <use xlink:href="#DejaVuSans-65" x="189.640625"/>
      <use xlink:href="#DejaVuSans-72" x="251.164062"/>
      <use xlink:href="#DejaVuSans-74" x="292.277344"/>
      <use xlink:href="#DejaVuSans-20" x="331.486328"/>
      <use xlink:href="#DejaVuSans-44" x="363.273438"/>
      <use xlink:href="#DejaVuSans-65" x="440.275391"/>
      <use xlink:href="#DejaVuSans-20" x="501.798828"/>
      <use xlink:href="#DejaVuSans-4e" x="533.585938"/>
      <use xlink:href="#DejaVuSans-69" x="608.390625"/>
      <use xlink:href="#DejaVuSans-72" x="636.173828"/>
      <use xlink:href="#DejaVuSans-6f" x="675.037109"/>
     </g>
    </g>
   </g>
   <g id="text_4">
    <g id="patch_5">
     <path d="M 315.681401 103.921719 
L 381.647182 103.921719 
L 381.647182 87.291406 
L 315.681401 87.291406 
z
" clip-path="url(#pb1b799def4)" style="fill: #ffffff; opacity: 0.7; stroke: #000000; stroke-linejoin: miter"/>
    </g>
    <g clip-path="url(#pb1b799def4)">
     <!-- Frank Welker -->
     <g transform="translate(319.641401 98.09)scale(0.09 -0.09)">
      <defs>
       <path id="DejaVuSans-46" d="M 628 4666 
L 3309 4666 
L 3309 4134 
L 1259 4134 
L 1259 2759 
L 3109 2759 
L 3109 2228 
L 1259 2228 
L 1259 0 
L 628 0 
L 628 4666 
z
" transform="scale(0.015625)"/>
       <path id="DejaVuSans-57" d="M 213 4666 
L 850 4666 
L 1831 722 
L 2809 4666 
L 3519 4666 
L 4500 722 
L 5478 4666 
L 6119 4666 
L 4947 0 
L 4153 0 
L 3169 4050 
L 2175 0 
L 1381 0 
L 213 4666 
z
" transform="scale(0.015625)"/>
      </defs>
      <use xlink:href="#DejaVuSans-46"/>
      <use xlink:href="#DejaVuSans-72" x="50.269531"/>
      <use xlink:href="#DejaVuSans-61" x="91.382812"/>
      <use xlink:href="#DejaVuSans-6e" x="152.662109"/>
      <use xlink:href="#DejaVuSans-6b" x="216.041016"/>
      <use xlink:href="#DejaVuSans-20" x="273.951172"/>
      <use xlink:href="#DejaVuSans-57" x="305.738281"/>
      <use xlink:href="#DejaVuSans-65" x="398.740234"/>
      <use xlink:href="#DejaVuSans-6c" x="460.263672"/>
      <use xlink:href="#DejaVuSans-6b" x="488.046875"/>
      <use xlink:href="#DejaVuSans-65" x="542.332031"/>
      <use xlink:href="#DejaVuSans-72" x="603.855469"/>
     </g>
    </g>
   </g>
   <g id="text_5">
    <g id="patch_6">
     <path d="M 224.586736 94.602512 
L 294.432361 94.602512 
L 294.432361 77.9722 
L 224.586736 77.9722 
z
" clip-path="url(#pb1b799def4)" style="fill: #ffffff; opacity: 0.7; stroke: #000000; stroke-linejoin: miter"/>
    </g>
    <g clip-path="url(#pb1b799def4)">
     <!-- Eddie Murphy -->
     <g transform="translate(228.546736 88.770793)scale(0.09 -0.09)">
      <defs>
       <path id="DejaVuSans-45" d="M 628 4666 
L 3578 4666 
L 3578 4134 
L 1259 4134 
L 1259 2753 
L 3481 2753 
L 3481 2222 
L 1259 2222 
L 1259 531 
L 3634 531 
L 3634 0 
L 628 0 
L 628 4666 
z
" transform="scale(0.015625)"/>
       <path id="DejaVuSans-64" d="M 2906 2969 
L 2906 4863 
L 3481 4863 
L 3481 0 
L 2906 0 
L 2906 525 
Q 2725 213 2448 61 
Q 2172 -91 1784 -91 
Q 1150 -91 751 415 
Q 353 922 353 1747 
Q 353 2572 751 3078 
Q 1150 3584 1784 3584 
Q 2172 3584 2448 3432 
Q 2725 3281 2906 2969 
z
M 947 1747 
Q 947 1113 1208 752 
Q 1469 391 1925 391 
Q 2381 391 2643 752 
Q 2906 1113 2906 1747 
Q 2906 2381 2643 2742 
Q 2381 3103 1925 3103 
Q 1469 3103 1208 2742 
Q 947 2381 947 1747 
z
" transform="scale(0.015625)"/>
       <path id="DejaVuSans-4d" d="M 628 4666 
L 1569 4666 
L 2759 1491 
L 3956 4666 
L 4897 4666 
L 4897 0 
L 4281 0 
L 4281 4097 
L 3078 897 
L 2444 897 
L 1241 4097 
L 1241 0 
L 628 0 
L 628 4666 
z
" transform="scale(0.015625)"/>
       <path id="DejaVuSans-70" d="M 1159 525 
L 1159 -1331 
L 581 -1331 
L 581 3500 
L 1159 3500 
L 1159 2969 
Q 1341 3281 1617 3432 
Q 1894 3584 2278 3584 
Q 2916 3584 3314 3078 
Q 3713 2572 3713 1747 
Q 3713 922 3314 415 
Q 2916 -91 2278 -91 
Q 1894 -91 1617 61 
Q 1341 213 1159 525 
z
M 3116 1747 
Q 3116 2381 2855 2742 
Q 2594 3103 2138 3103 
Q 1681 3103 1420 2742 
Q 1159 2381 1159 1747 
Q 1159 1113 1420 752 
Q 1681 391 2138 391 
Q 2594 391 2855 752 
Q 3116 1113 3116 1747 
z
" transform="scale(0.015625)"/>
       <path id="DejaVuSans-68" d="M 3513 2113 
L 3513 0 
L 2938 0 
L 2938 2094 
Q 2938 2591 2744 2837 
Q 2550 3084 2163 3084 
Q 1697 3084 1428 2787 
Q 1159 2491 1159 1978 
L 1159 0 
L 581 0 
L 581 4863 
L 1159 4863 
L 1159 2956 
Q 1366 3272 1645 3428 
Q 1925 3584 2291 3584 
Q 2894 3584 3203 3211 
Q 3513 2838 3513 2113 
z
" transform="scale(0.015625)"/>
       <path id="DejaVuSans-79" d="M 2059 -325 
Q 1816 -950 1584 -1140 
Q 1353 -1331 966 -1331 
L 506 -1331 
L 506 -850 
L 844 -850 
Q 1081 -850 1212 -737 
Q 1344 -625 1503 -206 
L 1606 56 
L 191 3500 
L 800 3500 
L 1894 763 
L 2988 3500 
L 3597 3500 
L 2059 -325 
z
" transform="scale(0.015625)"/>
      </defs>
      <use xlink:href="#DejaVuSans-45"/>
      <use xlink:href="#DejaVuSans-64" x="63.183594"/>
      <use xlink:href="#DejaVuSans-64" x="126.660156"/>
      <use xlink:href="#DejaVuSans-69" x="190.136719"/>
      <use xlink:href="#DejaVuSans-65" x="217.919922"/>
      <use xlink:href="#DejaVuSans-20" x="279.443359"/>
      <use xlink:href="#DejaVuSans-4d" x="311.230469"/>
      <use xlink:href="#DejaVuSans-75" x="397.509766"/>
      <use xlink:href="#DejaVuSans-72" x="460.888672"/>
      <use xlink:href="#DejaVuSans-70" x="502.001953"/>
      <use xlink:href="#DejaVuSans-68" x="565.478516"/>
      <use xlink:href="#DejaVuSans-79" x="628.857422"/>
     </g>
    </g>
   </g>
   <g id="text_6">
    <g id="patch_7">
     <path d="M 140.829657 122.152849 
L 207.672939 122.152849 
L 207.672939 105.522536 
L 140.829657 105.522536 
z
" clip-path="url(#pb1b799def4)" style="fill: #ffffff; opacity: 0.7; stroke: #000000; stroke-linejoin: miter"/>
    </g>
    <g clip-path="url(#pb1b799def4)">
     <!-- Stanley Tucci -->
     <g transform="translate(144.789657 116.32113)scale(0.09 -0.09)">
      <defs>
       <path id="DejaVuSans-54" d="M -19 4666 
L 3928 4666 
L 3928 4134 
L 2272 4134 
L 2272 0 
L 1638 0 
L 1638 4134 
L -19 4134 
L -19 4666 
z
" transform="scale(0.015625)"/>
      </defs>
      <use xlink:href="#DejaVuSans-53"/>
      <use xlink:href="#DejaVuSans-74" x="63.476562"/>
      <use xlink:href="#DejaVuSans-61" x="102.685547"/>
      <use xlink:href="#DejaVuSans-6e" x="163.964844"/>
      <use xlink:href="#DejaVuSans-6c" x="227.34375"/>
      <use xlink:href="#DejaVuSans-65" x="255.126953"/>
      <use xlink:href="#DejaVuSans-79" x="316.650391"/>
      <use xlink:href="#DejaVuSans-20" x="375.830078"/>
      <use xlink:href="#DejaVuSans-54" x="407.617188"/>
      <use xlink:href="#DejaVuSans-75" x="453.576172"/>
      <use xlink:href="#DejaVuSans-63" x="516.955078"/>
      <use xlink:href="#DejaVuSans-63" x="571.935547"/>
      <use xlink:href="#DejaVuSans-69" x="626.916016"/>
     </g>
    </g>
   </g>
   <g id="text_7">
    <g id="patch_8">
     <path d="M 77.51593 181.80901 
L 137.747024 181.80901 
L 137.747024 165.178697 
L 77.51593 165.178697 
z
" clip-path="url(#pb1b799def4)" style="fill: #ffffff; opacity: 0.7; stroke: #000000; stroke-linejoin: miter"/>
    </g>
    <g clip-path="url(#pb1b799def4)">
     <!-- Bruce Willis -->
     <g transform="translate(81.47593 175.977291)scale(0.09 -0.09)">
      <use xlink:href="#DejaVuSans-42"/>
      <use xlink:href="#DejaVuSans-72" x="68.603516"/>
      <use xlink:href="#DejaVuSans-75" x="109.716797"/>
      <use xlink:href="#DejaVuSans-63" x="173.095703"/>
      <use xlink:href="#DejaVuSans-65" x="228.076172"/>
      <use xlink:href="#DejaVuSans-20" x="289.599609"/>
      <use xlink:href="#DejaVuSans-57" x="321.386719"/>
      <use xlink:href="#DejaVuSans-69" x="418.013672"/>
      <use xlink:href="#DejaVuSans-6c" x="445.796875"/>
      <use xlink:href="#DejaVuSans-6c" x="473.580078"/>
      <use xlink:href="#DejaVuSans-69" x="501.363281"/>
      <use xlink:href="#DejaVuSans-73" x="529.146484"/>
     </g>
    </g>
   </g>
   <g id="text_8">
    <g id="patch_9">
     <path d="M 47.836731 263.25593 
L 94.501731 263.25593 
L 94.501731 246.625618 
L 47.836731 246.625618 
z
" clip-path="url(#pb1b799def4)" style="fill: #ffffff; opacity: 0.7; stroke: #000000; stroke-linejoin: miter"/>
    </g>
    <g clip-path="url(#pb1b799def4)">
     <!-- Brad Pitt -->
     <g transform="translate(51.796731 257.424211)scale(0.09 -0.09)">
      <defs>
       <path id="DejaVuSans-50" d="M 1259 4147 
L 1259 2394 
L 2053 2394 
Q 2494 2394 2734 2622 
Q 2975 2850 2975 3272 
Q 2975 3691 2734 3919 
Q 2494 4147 2053 4147 
L 1259 4147 
z
M 628 4666 
L 2053 4666 
Q 2838 4666 3239 4311 
Q 3641 3956 3641 3272 
Q 3641 2581 3239 2228 
Q 2838 1875 2053 1875 
L 1259 1875 
L 1259 0 
L 628 0 
L 628 4666 
z
" transform="scale(0.015625)"/>
      </defs>
      <use xlink:href="#DejaVuSans-42"/>
      <use xlink:href="#DejaVuSans-72" x="68.603516"/>
      <use xlink:href="#DejaVuSans-61" x="109.716797"/>
      <use xlink:href="#DejaVuSans-64" x="170.996094"/>
      <use xlink:href="#DejaVuSans-20" x="234.472656"/>
      <use xlink:href="#DejaVuSans-50" x="266.259766"/>
      <use xlink:href="#DejaVuSans-69" x="324.3125"/>
      <use xlink:href="#DejaVuSans-74" x="352.095703"/>
      <use xlink:href="#DejaVuSans-74" x="391.304688"/>
     </g>
    </g>
   </g>
   <g id="text_9">
    <g id="patch_10">
     <path d="M 36.210572 352.410671 
L 106.127915 352.410671 
L 106.127915 335.780358 
L 36.210572 335.780358 
z
" clip-path="url(#pb1b799def4)" style="fill: #ffffff; opacity: 0.7; stroke: #000000; stroke-linejoin: miter"/>
    </g>
    <g clip-path="url(#pb1b799def4)">
     <!-- Danny DeVito -->
     <g transform="translate(40.170572 346.578952)scale(0.09 -0.09)">
      <defs>
       <path id="DejaVuSans-56" d="M 1831 0 
L 50 4666 
L 709 4666 
L 2188 738 
L 3669 4666 
L 4325 4666 
L 2547 0 
L 1831 0 
z
" transform="scale(0.015625)"/>
      </defs>
      <use xlink:href="#DejaVuSans-44"/>
      <use xlink:href="#DejaVuSans-61" x="77.001953"/>
      <use xlink:href="#DejaVuSans-6e" x="138.28125"/>
      <use xlink:href="#DejaVuSans-6e" x="201.660156"/>
      <use xlink:href="#DejaVuSans-79" x="265.039062"/>
      <use xlink:href="#DejaVuSans-20" x="324.21875"/>
      <use xlink:href="#DejaVuSans-44" x="356.005859"/>
      <use xlink:href="#DejaVuSans-65" x="433.007812"/>
      <use xlink:href="#DejaVuSans-56" x="494.53125"/>
      <use xlink:href="#DejaVuSans-69" x="560.689453"/>
      <use xlink:href="#DejaVuSans-74" x="588.472656"/>
      <use xlink:href="#DejaVuSans-6f" x="627.681641"/>
     </g>
    </g>
   </g>
   <g id="text_10">
    <g id="patch_11">
     <path d="M 65.82649 433.857565 
L 149.43649 433.857565 
L 149.43649 417.227253 
L 65.82649 417.227253 
z
" clip-path="url(#pb1b799def4)" style="fill: #ffffff; opacity: 0.7; stroke: #000000; stroke-linejoin: miter"/>
    </g>
    <g clip-path="url(#pb1b799def4)">
     <!-- Morgan Freeman -->
     <g transform="translate(69.78649 428.025847)scale(0.09 -0.09)">
      <defs>
       <path id="DejaVuSans-67" d="M 2906 1791 
Q 2906 2416 2648 2759 
Q 2391 3103 1925 3103 
Q 1463 3103 1205 2759 
Q 947 2416 947 1791 
Q 947 1169 1205 825 
Q 1463 481 1925 481 
Q 2391 481 2648 825 
Q 2906 1169 2906 1791 
z
M 3481 434 
Q 3481 -459 3084 -895 
Q 2688 -1331 1869 -1331 
Q 1566 -1331 1297 -1286 
Q 1028 -1241 775 -1147 
L 775 -588 
Q 1028 -725 1275 -790 
Q 1522 -856 1778 -856 
Q 2344 -856 2625 -561 
Q 2906 -266 2906 331 
L 2906 616 
Q 2728 306 2450 153 
Q 2172 0 1784 0 
Q 1141 0 747 490 
Q 353 981 353 1791 
Q 353 2603 747 3093 
Q 1141 3584 1784 3584 
Q 2172 3584 2450 3431 
Q 2728 3278 2906 2969 
L 2906 3500 
L 3481 3500 
L 3481 434 
z
" transform="scale(0.015625)"/>
      </defs>
      <use xlink:href="#DejaVuSans-4d"/>
      <use xlink:href="#DejaVuSans-6f" x="86.279297"/>
      <use xlink:href="#DejaVuSans-72" x="147.460938"/>
      <use xlink:href="#DejaVuSans-67" x="186.824219"/>
      <use xlink:href="#DejaVuSans-61" x="250.300781"/>
      <use xlink:href="#DejaVuSans-6e" x="311.580078"/>
      <use xlink:href="#DejaVuSans-20" x="374.958984"/>
      <use xlink:href="#DejaVuSans-46" x="406.746094"/>
      <use xlink:href="#DejaVuSans-72" x="457.015625"/>
      <use xlink:href="#DejaVuSans-65" x="495.878906"/>
      <use xlink:href="#DejaVuSans-65" x="557.402344"/>
      <use xlink:href="#DejaVuSans-6d" x="618.925781"/>
      <use xlink:href="#DejaVuSans-61" x="716.337891"/>
      <use xlink:href="#DejaVuSans-6e" x="777.617188"/>
     </g>
    </g>
   </g>
   <g id="text_11">
    <g id="patch_12">
     <path d="M 141.613674 493.513727 
L 206.888986 493.513727 
L 206.888986 476.883414 
L 141.613674 476.883414 
z
" clip-path="url(#pb1b799def4)" style="fill: #ffffff; opacity: 0.7; stroke: #000000; stroke-linejoin: miter"/>
    </g>
    <g clip-path="url(#pb1b799def4)">
     <!-- Johnny Depp -->
     <g transform="translate(145.573674 487.682008)scale(0.09 -0.09)">
      <use xlink:href="#DejaVuSans-4a"/>
      <use xlink:href="#DejaVuSans-6f" x="29.492188"/>
      <use xlink:href="#DejaVuSans-68" x="90.673828"/>
      <use xlink:href="#DejaVuSans-6e" x="154.052734"/>
      <use xlink:href="#DejaVuSans-6e" x="217.431641"/>
      <use xlink:href="#DejaVuSans-79" x="280.810547"/>
      <use xlink:href="#DejaVuSans-20" x="339.990234"/>
      <use xlink:href="#DejaVuSans-44" x="371.777344"/>
      <use xlink:href="#DejaVuSans-65" x="448.779297"/>
      <use xlink:href="#DejaVuSans-70" x="510.302734"/>
      <use xlink:href="#DejaVuSans-70" x="573.779297"/>
     </g>
    </g>
   </g>
   <g id="text_12">
    <g id="patch_13">
     <path d="M 231.504822 521.06405 
L 287.514353 521.06405 
L 287.514353 504.433738 
L 231.504822 504.433738 
z
" clip-path="url(#pb1b799def4)" style="fill: #ffffff; opacity: 0.7; stroke: #000000; stroke-linejoin: miter"/>
    </g>
    <g clip-path="url(#pb1b799def4)">
     <!-- Bill Murray -->
     <g transform="translate(235.464822 515.232332)scale(0.09 -0.09)">
      <use xlink:href="#DejaVuSans-42"/>
      <use xlink:href="#DejaVuSans-69" x="68.603516"/>
      <use xlink:href="#DejaVuSans-6c" x="96.386719"/>
      <use xlink:href="#DejaVuSans-6c" x="124.169922"/>
      <use xlink:href="#DejaVuSans-20" x="151.953125"/>
      <use xlink:href="#DejaVuSans-4d" x="183.740234"/>
      <use xlink:href="#DejaVuSans-75" x="270.019531"/>
      <use xlink:href="#DejaVuSans-72" x="333.398438"/>
      <use xlink:href="#DejaVuSans-72" x="372.761719"/>
      <use xlink:href="#DejaVuSans-61" x="413.875"/>
      <use xlink:href="#DejaVuSans-79" x="475.154297"/>
     </g>
    </g>
   </g>
   <g id="text_13">
    <g id="patch_14">
     <path d="M 322.951042 511.744831 
L 374.377605 511.744831 
L 374.377605 495.114518 
L 322.951042 495.114518 
z
" clip-path="url(#pb1b799def4)" style="fill: #ffffff; opacity: 0.7; stroke: #000000; stroke-linejoin: miter"/>
    </g>
    <g clip-path="url(#pb1b799def4)">
     <!-- Mel Blanc -->
     <g transform="translate(326.911042 505.913112)scale(0.09 -0.09)">
      <use xlink:href="#DejaVuSans-4d"/>
      <use xlink:href="#DejaVuSans-65" x="86.279297"/>
      <use xlink:href="#DejaVuSans-6c" x="147.802734"/>
      <use xlink:href="#DejaVuSans-20" x="175.585938"/>
      <use xlink:href="#DejaVuSans-42" x="207.373047"/>
      <use xlink:href="#DejaVuSans-6c" x="275.976562"/>
      <use xlink:href="#DejaVuSans-61" x="303.759766"/>
      <use xlink:href="#DejaVuSans-6e" x="365.039062"/>
      <use xlink:href="#DejaVuSans-63" x="428.417969"/>
     </g>
    </g>
   </g>
   <g id="text_14">
    <g id="patch_15">
     <path d="M 399.211295 467.167441 
L 453.388482 467.167441 
L 453.388482 450.537129 
L 399.211295 450.537129 
z
" clip-path="url(#pb1b799def4)" style="fill: #ffffff; opacity: 0.7; stroke: #000000; stroke-linejoin: miter"/>
    </g>
    <g clip-path="url(#pb1b799def4)">
     <!-- Ben Stiller -->
     <g transform="translate(403.171295 461.335723)scale(0.09 -0.09)">
      <use xlink:href="#DejaVuSans-42"/>
      <use xlink:href="#DejaVuSans-65" x="68.603516"/>
      <use xlink:href="#DejaVuSans-6e" x="130.126953"/>
      <use xlink:href="#DejaVuSans-20" x="193.505859"/>
      <use xlink:href="#DejaVuSans-53" x="225.292969"/>
      <use xlink:href="#DejaVuSans-74" x="288.769531"/>
      <use xlink:href="#DejaVuSans-69" x="327.978516"/>
      <use xlink:href="#DejaVuSans-6c" x="355.761719"/>
      <use xlink:href="#DejaVuSans-6c" x="383.544922"/>
      <use xlink:href="#DejaVuSans-65" x="411.328125"/>
      <use xlink:href="#DejaVuSans-72" x="472.851562"/>
     </g>
    </g>
   </g>
   <g id="text_15">
    <g id="patch_16">
     <path d="M 434.41917 395.039741 
L 523.565577 395.039741 
L 523.565577 378.409428 
L 434.41917 378.409428 
z
" clip-path="url(#pb1b799def4)" style="fill: #ffffff; opacity: 0.7; stroke: #000000; stroke-linejoin: miter"/>
    </g>
    <g clip-path="url(#pb1b799def4)">
     <!-- Sylvester Stallone -->
     <g transform="translate(438.37917 389.208022)scale(0.09 -0.09)">
      <use xlink:href="#DejaVuSans-53"/>
      <use xlink:href="#DejaVuSans-79" x="63.476562"/>
      <use xlink:href="#DejaVuSans-6c" x="122.65625"/>
      <use xlink:href="#DejaVuSans-76" x="150.439453"/>
      <use xlink:href="#DejaVuSans-65" x="209.619141"/>
      <use xlink:href="#DejaVuSans-73" x="271.142578"/>
      <use xlink:href="#DejaVuSans-74" x="323.242188"/>
      <use xlink:href="#DejaVuSans-65" x="362.451172"/>
      <use xlink:href="#DejaVuSans-72" x="423.974609"/>
      <use xlink:href="#DejaVuSans-20" x="465.087891"/>
      <use xlink:href="#DejaVuSans-53" x="496.875"/>
      <use xlink:href="#DejaVuSans-74" x="560.351562"/>
      <use xlink:href="#DejaVuSans-61" x="599.560547"/>
      <use xlink:href="#DejaVuSans-6c" x="660.839844"/>
      <use xlink:href="#DejaVuSans-6c" x="688.623047"/>
      <use xlink:href="#DejaVuSans-6f" x="716.40625"/>
      <use xlink:href="#DejaVuSans-6e" x="777.587891"/>
      <use xlink:href="#DejaVuSans-65" x="840.966797"/>
     </g>
    </g>
   </g>
   <g id="text_16">
    <!-- Impactful actors for Action genre - Importance rank: 6 -->
    <g transform="translate(122.044687 16.318125)scale(0.12 -0.12)">
     <defs>
      <path id="DejaVuSans-49" d="M 628 4666 
L 1259 4666 
L 1259 0 
L 628 0 
L 628 4666 
z
" transform="scale(0.015625)"/>
      <path id="DejaVuSans-66" d="M 2375 4863 
L 2375 4384 
L 1825 4384 
Q 1516 4384 1395 4259 
Q 1275 4134 1275 3809 
L 1275 3500 
L 2222 3500 
L 2222 3053 
L 1275 3053 
L 1275 0 
L 697 0 
L 697 3053 
L 147 3053 
L 147 3500 
L 697 3500 
L 697 3744 
Q 697 4328 969 4595 
Q 1241 4863 1831 4863 
L 2375 4863 
z
" transform="scale(0.015625)"/>
      <path id="DejaVuSans-41" d="M 2188 4044 
L 1331 1722 
L 3047 1722 
L 2188 4044 
z
M 1831 4666 
L 2547 4666 
L 4325 0 
L 3669 0 
L 3244 1197 
L 1141 1197 
L 716 0 
L 50 0 
L 1831 4666 
z
" transform="scale(0.015625)"/>
      <path id="DejaVuSans-2d" d="M 313 2009 
L 1997 2009 
L 1997 1497 
L 313 1497 
L 313 2009 
z
" transform="scale(0.015625)"/>
      <path id="DejaVuSans-3a" d="M 750 794 
L 1409 794 
L 1409 0 
L 750 0 
L 750 794 
z
M 750 3309 
L 1409 3309 
L 1409 2516 
L 750 2516 
L 750 3309 
z
" transform="scale(0.015625)"/>
      <path id="DejaVuSans-36" d="M 2113 2584 
Q 1688 2584 1439 2293 
Q 1191 2003 1191 1497 
Q 1191 994 1439 701 
Q 1688 409 2113 409 
Q 2538 409 2786 701 
Q 3034 994 3034 1497 
Q 3034 2003 2786 2293 
Q 2538 2584 2113 2584 
z
M 3366 4563 
L 3366 3988 
Q 3128 4100 2886 4159 
Q 2644 4219 2406 4219 
Q 1781 4219 1451 3797 
Q 1122 3375 1075 2522 
Q 1259 2794 1537 2939 
Q 1816 3084 2150 3084 
Q 2853 3084 3261 2657 
Q 3669 2231 3669 1497 
Q 3669 778 3244 343 
Q 2819 -91 2113 -91 
Q 1303 -91 875 529 
Q 447 1150 447 2328 
Q 447 3434 972 4092 
Q 1497 4750 2381 4750 
Q 2619 4750 2861 4703 
Q 3103 4656 3366 4563 
z
" transform="scale(0.015625)"/>
     </defs>
     <use xlink:href="#DejaVuSans-49"/>
     <use xlink:href="#DejaVuSans-6d" x="29.492188"/>
     <use xlink:href="#DejaVuSans-70" x="126.904297"/>
     <use xlink:href="#DejaVuSans-61" x="190.380859"/>
     <use xlink:href="#DejaVuSans-63" x="251.660156"/>
     <use xlink:href="#DejaVuSans-74" x="306.640625"/>
     <use xlink:href="#DejaVuSans-66" x="345.849609"/>
     <use xlink:href="#DejaVuSans-75" x="381.054688"/>
     <use xlink:href="#DejaVuSans-6c" x="444.433594"/>
     <use xlink:href="#DejaVuSans-20" x="472.216797"/>
     <use xlink:href="#DejaVuSans-61" x="504.003906"/>
     <use xlink:href="#DejaVuSans-63" x="565.283203"/>
     <use xlink:href="#DejaVuSans-74" x="620.263672"/>
     <use xlink:href="#DejaVuSans-6f" x="659.472656"/>
     <use xlink:href="#DejaVuSans-72" x="720.654297"/>
     <use xlink:href="#DejaVuSans-73" x="761.767578"/>
     <use xlink:href="#DejaVuSans-20" x="813.867188"/>
     <use xlink:href="#DejaVuSans-66" x="845.654297"/>
     <use xlink:href="#DejaVuSans-6f" x="880.859375"/>
     <use xlink:href="#DejaVuSans-72" x="942.041016"/>
     <use xlink:href="#DejaVuSans-20" x="983.154297"/>
     <use xlink:href="#DejaVuSans-41" x="1014.941406"/>
     <use xlink:href="#DejaVuSans-63" x="1081.599609"/>
     <use xlink:href="#DejaVuSans-74" x="1136.580078"/>
     <use xlink:href="#DejaVuSans-69" x="1175.789062"/>
     <use xlink:href="#DejaVuSans-6f" x="1203.572266"/>
     <use xlink:href="#DejaVuSans-6e" x="1264.753906"/>
     <use xlink:href="#DejaVuSans-20" x="1328.132812"/>
     <use xlink:href="#DejaVuSans-67" x="1359.919922"/>
     <use xlink:href="#DejaVuSans-65" x="1423.396484"/>
     <use xlink:href="#DejaVuSans-6e" x="1484.919922"/>
     <use xlink:href="#DejaVuSans-72" x="1548.298828"/>
     <use xlink:href="#DejaVuSans-65" x="1587.162109"/>
     <use xlink:href="#DejaVuSans-20" x="1648.685547"/>
     <use xlink:href="#DejaVuSans-2d" x="1680.472656"/>
     <use xlink:href="#DejaVuSans-20" x="1716.556641"/>
     <use xlink:href="#DejaVuSans-49" x="1748.34375"/>
     <use xlink:href="#DejaVuSans-6d" x="1777.835938"/>
     <use xlink:href="#DejaVuSans-70" x="1875.248047"/>
     <use xlink:href="#DejaVuSans-6f" x="1938.724609"/>
     <use xlink:href="#DejaVuSans-72" x="1999.90625"/>
     <use xlink:href="#DejaVuSans-74" x="2041.019531"/>
     <use xlink:href="#DejaVuSans-61" x="2080.228516"/>
     <use xlink:href="#DejaVuSans-6e" x="2141.507812"/>
     <use xlink:href="#DejaVuSans-63" x="2204.886719"/>
     <use xlink:href="#DejaVuSans-65" x="2259.867188"/>
     <use xlink:href="#DejaVuSans-20" x="2321.390625"/>
     <use xlink:href="#DejaVuSans-72" x="2353.177734"/>
     <use xlink:href="#DejaVuSans-61" x="2394.291016"/>
     <use xlink:href="#DejaVuSans-6e" x="2455.570312"/>
     <use xlink:href="#DejaVuSans-6b" x="2518.949219"/>
     <use xlink:href="#DejaVuSans-3a" x="2576.859375"/>
     <use xlink:href="#DejaVuSans-20" x="2610.550781"/>
     <use xlink:href="#DejaVuSans-36" x="2642.337891"/>
    </g>
   </g>
  </g>
 </g>
 <defs>
  <clipPath id="pb1b799def4">
   <rect x="7.2" y="22.318125" width="554.4" height="554.4"/>
  </clipPath>
 </defs>
</svg>
