<?xml version="1.0" encoding="utf-8" standalone="no"?>
<!DOCTYPE svg PUBLIC "-//W3C//DTD SVG 1.1//EN"
  "http://www.w3.org/Graphics/SVG/1.1/DTD/svg11.dtd">
<svg xmlns:xlink="http://www.w3.org/1999/xlink" width="576pt" height="576pt" viewBox="0 0 576 576" xmlns="http://www.w3.org/2000/svg" version="1.1">
 <metadata>
  <rdf:RDF xmlns:dc="http://purl.org/dc/elements/1.1/" xmlns:cc="http://creativecommons.org/ns#" xmlns:rdf="http://www.w3.org/1999/02/22-rdf-syntax-ns#">
   <cc:Work>
    <dc:type rdf:resource="http://purl.org/dc/dcmitype/StillImage"/>
    <dc:date>2022-12-22T16:13:45.089014</dc:date>
    <dc:format>image/svg+xml</dc:format>
    <dc:creator>
     <cc:Agent>
      <dc:title>Matplotlib v3.5.2, https://matplotlib.org/</dc:title>
     </cc:Agent>
    </dc:creator>
   </cc:Work>
  </rdf:RDF>
 </metadata>
 <defs>
  <style type="text/css">*{stroke-linejoin: round; stroke-linecap: butt}</style>
 </defs>
 <g id="figure_1">
  <g id="patch_1">
   <path d="M 0 576 
L 576 576 
L 576 0 
L 0 0 
z
" style="fill: #ffffff"/>
  </g>
  <g id="axes_1">
   <g id="LineCollection_1">
    <path d="M 481.846154 292.330644 
L 464.902134 211.280881 
" clip-path="url(#p3bd23fc0cc)" style="fill: none; stroke: #000000; stroke-opacity: 0.3; stroke-width: 5.061911"/>
    <path d="M 464.902134 211.280881 
L 265.372317 94.153846 
" clip-path="url(#p3bd23fc0cc)" style="fill: none; stroke: #000000; stroke-opacity: 0.3; stroke-width: 6.355282"/>
    <path d="M 416.999864 144.24535 
L 346.422083 102.815122 
" clip-path="url(#p3bd23fc0cc)" style="fill: none; stroke: #000000; stroke-opacity: 0.3; stroke-width: 5"/>
    <path d="M 127.301343 175.203615 
L 346.422112 481.846154 
" clip-path="url(#p3bd23fc0cc)" style="fill: none; stroke: #000000; stroke-opacity: 0.3; stroke-width: 10"/>
    <path d="M 127.301343 175.203615 
L 464.902158 373.380377 
" clip-path="url(#p3bd23fc0cc)" style="fill: none; stroke: #000000; stroke-opacity: 0.3; stroke-width: 7.491931"/>
    <path d="M 127.301343 175.203615 
L 416.999899 440.415903 
" clip-path="url(#p3bd23fc0cc)" style="fill: none; stroke: #000000; stroke-opacity: 0.3; stroke-width: 10"/>
    <path d="M 94.153846 250.900429 
L 187.864846 464.902155 
" clip-path="url(#p3bd23fc0cc)" style="fill: none; stroke: #000000; stroke-opacity: 0.3; stroke-width: 6.168497"/>
    <path d="M 346.422112 481.846154 
L 416.999899 440.415903 
" clip-path="url(#p3bd23fc0cc)" style="fill: none; stroke: #000000; stroke-opacity: 0.3; stroke-width: 10"/>
    <path d="M 346.422112 481.846154 
L 464.902158 373.380377 
" clip-path="url(#p3bd23fc0cc)" style="fill: none; stroke: #000000; stroke-opacity: 0.3; stroke-width: 7.491931"/>
    <path d="M 416.999899 440.415903 
L 464.902158 373.380377 
" clip-path="url(#p3bd23fc0cc)" style="fill: none; stroke: #000000; stroke-opacity: 0.3; stroke-width: 7.491931"/>
   </g>
   <g id="PathCollection_1">
    <path d="M 481.846154 319.716772 
C 489.10904 319.716772 496.075435 316.831197 501.211071 311.695561 
C 506.346707 306.559925 509.232282 299.59353 509.232282 292.330644 
C 509.232282 285.067758 506.346707 278.101363 501.211071 272.965727 
C 496.075435 267.830091 489.10904 264.944516 481.846154 264.944516 
C 474.583268 264.944516 467.616873 267.830091 462.481237 272.965727 
C 457.345601 278.101363 454.460026 285.067758 454.460026 292.330644 
C 454.460026 299.59353 457.345601 306.559925 462.481237 311.695561 
C 467.616873 316.831197 474.583268 319.716772 481.846154 319.716772 
z
" clip-path="url(#p3bd23fc0cc)" style="fill: #d62728; fill-opacity: 0.99; stroke: #d62728; stroke-opacity: 0.99"/>
    <path d="M 464.902134 238.664682 
C 472.164403 238.664682 479.130206 235.779352 484.265405 230.644152 
C 489.400605 225.508953 492.285935 218.54315 492.285935 211.280881 
C 492.285935 204.018613 489.400605 197.05281 484.265405 191.91761 
C 479.130206 186.782411 472.164403 183.897081 464.902134 183.897081 
C 457.639866 183.897081 450.674063 186.782411 445.538863 191.91761 
C 440.403664 197.05281 437.518334 204.018613 437.518334 211.280881 
C 437.518334 218.54315 440.403664 225.508953 445.538863 230.644152 
C 450.674063 235.779352 457.639866 238.664682 464.902134 238.664682 
z
" clip-path="url(#p3bd23fc0cc)" style="fill: #d62728; fill-opacity: 0.99; stroke: #d62728; stroke-opacity: 0.99"/>
    <path d="M 416.999864 169.843858 
C 423.788667 169.843858 430.300333 167.146638 435.100742 162.346229 
C 439.901152 157.545819 442.598372 151.034153 442.598372 144.24535 
C 442.598372 137.456546 439.901152 130.94488 435.100742 126.144471 
C 430.300333 121.344062 423.788667 118.646841 416.999864 118.646841 
C 410.21106 118.646841 403.699394 121.344062 398.898985 126.144471 
C 394.098575 130.94488 391.401355 137.456546 391.401355 144.24535 
C 391.401355 151.034153 394.098575 157.545819 398.898985 162.346229 
C 403.699394 167.146638 410.21106 169.843858 416.999864 169.843858 
z
" clip-path="url(#p3bd23fc0cc)" style="fill: #d62728; fill-opacity: 0.99; stroke: #d62728; stroke-opacity: 0.99"/>
    <path d="M 346.422083 127.738453 
C 353.031828 127.738453 359.371744 125.112374 364.045539 120.438579 
C 368.719334 115.764783 371.345414 109.424867 371.345414 102.815122 
C 371.345414 96.205378 368.719334 89.865461 364.045539 85.191666 
C 359.371744 80.517871 353.031828 77.891792 346.422083 77.891792 
C 339.812338 77.891792 333.472422 80.517871 328.798627 85.191666 
C 324.124831 89.865461 321.498752 96.205378 321.498752 102.815122 
C 321.498752 109.424867 324.124831 115.764783 328.798627 120.438579 
C 333.472422 125.112374 339.812338 127.738453 346.422083 127.738453 
z
" clip-path="url(#p3bd23fc0cc)" style="fill: #d62728; fill-opacity: 0.99; stroke: #d62728; stroke-opacity: 0.99"/>
    <path d="M 265.372317 118.110738 
C 271.725759 118.110738 277.819836 115.586489 282.312397 111.093927 
C 286.804959 106.601365 289.329209 100.507288 289.329209 94.153846 
C 289.329209 87.800404 286.804959 81.706327 282.312397 77.213766 
C 277.819836 72.721204 271.725759 70.196955 265.372317 70.196955 
C 259.018875 70.196955 252.924798 72.721204 248.432236 77.213766 
C 243.939675 81.706327 241.415425 87.800404 241.415425 94.153846 
C 241.415425 100.507288 243.939675 106.601365 248.432236 111.093927 
C 252.924798 115.586489 259.018875 118.110738 265.372317 118.110738 
z
" clip-path="url(#p3bd23fc0cc)" style="fill: #d62728; fill-opacity: 0.99; stroke: #d62728; stroke-opacity: 0.99"/>
    <path d="M 187.864816 143.663728 
C 194.204386 143.663728 200.285157 141.14499 204.76791 136.662238 
C 209.250662 132.179485 211.7694 126.098714 211.7694 119.759145 
C 211.7694 113.419575 209.250662 107.338804 204.76791 102.856051 
C 200.285157 98.373299 194.204386 95.854561 187.864816 95.854561 
C 181.525247 95.854561 175.444476 98.373299 170.961723 102.856051 
C 166.478971 107.338804 163.960233 113.419575 163.960233 119.759145 
C 163.960233 126.098714 166.478971 132.179485 170.961723 136.662238 
C 175.444476 141.14499 181.525247 143.663728 187.864816 143.663728 
z
" clip-path="url(#p3bd23fc0cc)" style="fill: #d62728; fill-opacity: 0.99; stroke: #d62728; stroke-opacity: 0.99"/>
    <path d="M 127.301343 197.933528 
C 133.329386 197.933528 139.111348 195.538561 143.373818 191.27609 
C 147.636289 187.01362 150.031256 181.231658 150.031256 175.203615 
C 150.031256 169.175571 147.636289 163.39361 143.373818 159.131139 
C 139.111348 154.868669 133.329386 152.473702 127.301343 152.473702 
C 121.273299 152.473702 115.491338 154.868669 111.228867 159.131139 
C 106.966397 163.39361 104.57143 169.175571 104.57143 175.203615 
C 104.57143 181.231658 106.966397 187.01362 111.228867 191.27609 
C 115.491338 195.538561 121.273299 197.933528 127.301343 197.933528 
z
" clip-path="url(#p3bd23fc0cc)" style="fill: #d62728; fill-opacity: 0.99; stroke: #d62728; stroke-opacity: 0.99"/>
    <path d="M 94.153846 272.808379 
C 99.963903 272.808379 105.536776 270.500019 109.645107 266.391689 
C 113.753437 262.283359 116.061797 256.710485 116.061797 250.900429 
C 116.061797 245.090372 113.753437 239.517499 109.645107 235.409168 
C 105.536776 231.300838 99.963903 228.992478 94.153846 228.992478 
C 88.34379 228.992478 82.770916 231.300838 78.662586 235.409168 
C 74.554256 239.517499 72.245896 245.090372 72.245896 250.900429 
C 72.245896 256.710485 74.554256 262.283359 78.662586 266.391689 
C 82.770916 270.500019 88.34379 272.808379 94.153846 272.808379 
z
" clip-path="url(#p3bd23fc0cc)" style="fill: #d62728; fill-opacity: 0.99; stroke: #d62728; stroke-opacity: 0.99"/>
    <path d="M 94.153858 354.602061 
C 99.681 354.602061 104.982508 352.406104 108.890787 348.497825 
C 112.799067 344.589545 114.995024 339.288037 114.995024 333.760895 
C 114.995024 328.233753 112.799067 322.932245 108.890787 319.023966 
C 104.982508 315.115686 99.681 312.919729 94.153858 312.919729 
C 88.626716 312.919729 83.325208 315.115686 79.416928 319.023966 
C 75.508649 322.932245 73.312692 328.233753 73.312692 333.760895 
C 73.312692 339.288037 75.508649 344.589545 79.416928 348.497825 
C 83.325208 352.406104 88.626716 354.602061 94.153858 354.602061 
z
" clip-path="url(#p3bd23fc0cc)" style="fill: #d62728; fill-opacity: 0.99; stroke: #d62728; stroke-opacity: 0.99"/>
    <path d="M 127.301354 430.028991 
C 132.756929 430.028991 137.989791 427.861469 141.847464 424.003795 
C 145.705138 420.146122 147.87266 414.913259 147.87266 409.457685 
C 147.87266 404.002111 145.705138 398.769249 141.847464 394.911575 
C 137.989791 391.053902 132.756929 388.886379 127.301354 388.886379 
C 121.84578 388.886379 116.612918 391.053902 112.755244 394.911575 
C 108.897571 398.769249 106.730048 404.002111 106.730048 409.457685 
C 106.730048 414.913259 108.897571 420.146122 112.755244 424.003795 
C 116.612918 427.861469 121.84578 430.028991 127.301354 430.028991 
z
" clip-path="url(#p3bd23fc0cc)" style="fill: #d62728; fill-opacity: 0.99; stroke: #d62728; stroke-opacity: 0.99"/>
    <path d="M 187.864846 485.052501 
C 193.20878 485.052501 198.33456 482.929334 202.113292 479.150602 
C 205.892024 475.37187 208.015192 470.24609 208.015192 464.902155 
C 208.015192 459.558221 205.892024 454.432441 202.113292 450.653709 
C 198.33456 446.874977 193.20878 444.751809 187.864846 444.751809 
C 182.520911 444.751809 177.395131 446.874977 173.616399 450.653709 
C 169.837667 454.432441 167.7145 459.558221 167.7145 464.902155 
C 167.7145 470.24609 169.837667 475.37187 173.616399 479.150602 
C 177.395131 482.929334 182.520911 485.052501 187.864846 485.052501 
z
" clip-path="url(#p3bd23fc0cc)" style="fill: #d62728; fill-opacity: 0.99; stroke: #d62728; stroke-opacity: 0.99"/>
    <path d="M 265.372352 510.508382 
C 270.676663 510.508382 275.764438 508.400957 279.515152 504.650242 
C 283.265867 500.899528 285.373292 495.811753 285.373292 490.507442 
C 285.373292 485.203131 283.265867 480.115356 279.515152 476.364642 
C 275.764438 472.613927 270.676663 470.506502 265.372352 470.506502 
C 260.068041 470.506502 254.980266 472.613927 251.229552 476.364642 
C 247.478837 480.115356 245.371412 485.203131 245.371412 490.507442 
C 245.371412 495.811753 247.478837 500.899528 251.229552 504.650242 
C 254.980266 508.400957 260.068041 510.508382 265.372352 510.508382 
z
" clip-path="url(#p3bd23fc0cc)" style="fill: #d62728; fill-opacity: 0.99; stroke: #d62728; stroke-opacity: 0.99"/>
    <path d="M 346.422112 501.846622 
C 351.726298 501.846622 356.813953 499.739247 360.564579 495.988621 
C 364.315205 492.237995 366.422581 487.15034 366.422581 481.846154 
C 366.422581 476.541968 364.315205 471.454313 360.564579 467.703687 
C 356.813953 463.953061 351.726298 461.845685 346.422112 461.845685 
C 341.117926 461.845685 336.030271 463.953061 332.279645 467.703687 
C 328.529019 471.454313 326.421644 476.541968 326.421644 481.846154 
C 326.421644 487.15034 328.529019 492.237995 332.279645 495.988621 
C 336.030271 499.739247 341.117926 501.846622 346.422112 501.846622 
z
" clip-path="url(#p3bd23fc0cc)" style="fill: #d62728; fill-opacity: 0.99; stroke: #d62728; stroke-opacity: 0.99"/>
    <path d="M 416.999899 459.892674 
C 422.165199 459.892674 427.119637 457.840478 430.772055 454.18806 
C 434.424474 450.535641 436.476669 445.581203 436.476669 440.415903 
C 436.476669 435.250603 434.424474 430.296165 430.772055 426.643746 
C 427.119637 422.991327 422.165199 420.939132 416.999899 420.939132 
C 411.834599 420.939132 406.88016 422.991327 403.227742 426.643746 
C 399.575323 430.296165 397.523128 435.250603 397.523128 440.415903 
C 397.523128 445.581203 399.575323 450.535641 403.227742 454.18806 
C 406.88016 457.840478 411.834599 459.892674 416.999899 459.892674 
z
" clip-path="url(#p3bd23fc0cc)" style="fill: #d62728; fill-opacity: 0.99; stroke: #d62728; stroke-opacity: 0.99"/>
    <path d="M 464.902158 392.745294 
C 470.037794 392.745294 474.963779 390.704884 478.595222 387.073441 
C 482.226665 383.441998 484.267074 378.516013 484.267074 373.380377 
C 484.267074 368.244741 482.226665 363.318756 478.595222 359.687313 
C 474.963779 356.05587 470.037794 354.01546 464.902158 354.01546 
C 459.766522 354.01546 454.840537 356.05587 451.209094 359.687313 
C 447.577651 363.318756 445.537241 368.244741 445.537241 373.380377 
C 445.537241 378.516013 447.577651 383.441998 451.209094 387.073441 
C 454.840537 390.704884 459.766522 392.745294 464.902158 392.745294 
z
" clip-path="url(#p3bd23fc0cc)" style="fill: #d62728; fill-opacity: 0.99; stroke: #d62728; stroke-opacity: 0.99"/>
   </g>
   <g id="text_1">
    <g id="patch_2">
     <path d="M 451.627951 300.6458 
L 512.064357 300.6458 
L 512.064357 284.015488 
L 451.627951 284.015488 
z
" clip-path="url(#p3bd23fc0cc)" style="fill: #ffffff; opacity: 0.7; stroke: #000000; stroke-linejoin: miter"/>
    </g>
    <g clip-path="url(#p3bd23fc0cc)">
     <!-- John Cleese -->
     <g transform="translate(455.587951 294.814082)scale(0.09 -0.09)">
      <defs>
       <path id="DejaVuSans-4a" d="M 628 4666 
L 1259 4666 
L 1259 325 
Q 1259 -519 939 -900 
Q 619 -1281 -91 -1281 
L -331 -1281 
L -331 -750 
L -134 -750 
Q 284 -750 456 -515 
Q 628 -281 628 325 
L 628 4666 
z
" transform="scale(0.015625)"/>
       <path id="DejaVuSans-6f" d="M 1959 3097 
Q 1497 3097 1228 2736 
Q 959 2375 959 1747 
Q 959 1119 1226 758 
Q 1494 397 1959 397 
Q 2419 397 2687 759 
Q 2956 1122 2956 1747 
Q 2956 2369 2687 2733 
Q 2419 3097 1959 3097 
z
M 1959 3584 
Q 2709 3584 3137 3096 
Q 3566 2609 3566 1747 
Q 3566 888 3137 398 
Q 2709 -91 1959 -91 
Q 1206 -91 779 398 
Q 353 888 353 1747 
Q 353 2609 779 3096 
Q 1206 3584 1959 3584 
z
" transform="scale(0.015625)"/>
       <path id="DejaVuSans-68" d="M 3513 2113 
L 3513 0 
L 2938 0 
L 2938 2094 
Q 2938 2591 2744 2837 
Q 2550 3084 2163 3084 
Q 1697 3084 1428 2787 
Q 1159 2491 1159 1978 
L 1159 0 
L 581 0 
L 581 4863 
L 1159 4863 
L 1159 2956 
Q 1366 3272 1645 3428 
Q 1925 3584 2291 3584 
Q 2894 3584 3203 3211 
Q 3513 2838 3513 2113 
z
" transform="scale(0.015625)"/>
       <path id="DejaVuSans-6e" d="M 3513 2113 
L 3513 0 
L 2938 0 
L 2938 2094 
Q 2938 2591 2744 2837 
Q 2550 3084 2163 3084 
Q 1697 3084 1428 2787 
Q 1159 2491 1159 1978 
L 1159 0 
L 581 0 
L 581 3500 
L 1159 3500 
L 1159 2956 
Q 1366 3272 1645 3428 
Q 1925 3584 2291 3584 
Q 2894 3584 3203 3211 
Q 3513 2838 3513 2113 
z
" transform="scale(0.015625)"/>
       <path id="DejaVuSans-20" transform="scale(0.015625)"/>
       <path id="DejaVuSans-43" d="M 4122 4306 
L 4122 3641 
Q 3803 3938 3442 4084 
Q 3081 4231 2675 4231 
Q 1875 4231 1450 3742 
Q 1025 3253 1025 2328 
Q 1025 1406 1450 917 
Q 1875 428 2675 428 
Q 3081 428 3442 575 
Q 3803 722 4122 1019 
L 4122 359 
Q 3791 134 3420 21 
Q 3050 -91 2638 -91 
Q 1578 -91 968 557 
Q 359 1206 359 2328 
Q 359 3453 968 4101 
Q 1578 4750 2638 4750 
Q 3056 4750 3426 4639 
Q 3797 4528 4122 4306 
z
" transform="scale(0.015625)"/>
       <path id="DejaVuSans-6c" d="M 603 4863 
L 1178 4863 
L 1178 0 
L 603 0 
L 603 4863 
z
" transform="scale(0.015625)"/>
       <path id="DejaVuSans-65" d="M 3597 1894 
L 3597 1613 
L 953 1613 
Q 991 1019 1311 708 
Q 1631 397 2203 397 
Q 2534 397 2845 478 
Q 3156 559 3463 722 
L 3463 178 
Q 3153 47 2828 -22 
Q 2503 -91 2169 -91 
Q 1331 -91 842 396 
Q 353 884 353 1716 
Q 353 2575 817 3079 
Q 1281 3584 2069 3584 
Q 2775 3584 3186 3129 
Q 3597 2675 3597 1894 
z
M 3022 2063 
Q 3016 2534 2758 2815 
Q 2500 3097 2075 3097 
Q 1594 3097 1305 2825 
Q 1016 2553 972 2059 
L 3022 2063 
z
" transform="scale(0.015625)"/>
       <path id="DejaVuSans-73" d="M 2834 3397 
L 2834 2853 
Q 2591 2978 2328 3040 
Q 2066 3103 1784 3103 
Q 1356 3103 1142 2972 
Q 928 2841 928 2578 
Q 928 2378 1081 2264 
Q 1234 2150 1697 2047 
L 1894 2003 
Q 2506 1872 2764 1633 
Q 3022 1394 3022 966 
Q 3022 478 2636 193 
Q 2250 -91 1575 -91 
Q 1294 -91 989 -36 
Q 684 19 347 128 
L 347 722 
Q 666 556 975 473 
Q 1284 391 1588 391 
Q 1994 391 2212 530 
Q 2431 669 2431 922 
Q 2431 1156 2273 1281 
Q 2116 1406 1581 1522 
L 1381 1569 
Q 847 1681 609 1914 
Q 372 2147 372 2553 
Q 372 3047 722 3315 
Q 1072 3584 1716 3584 
Q 2034 3584 2315 3537 
Q 2597 3491 2834 3397 
z
" transform="scale(0.015625)"/>
      </defs>
      <use xlink:href="#DejaVuSans-4a"/>
      <use xlink:href="#DejaVuSans-6f" x="29.492188"/>
      <use xlink:href="#DejaVuSans-68" x="90.673828"/>
      <use xlink:href="#DejaVuSans-6e" x="154.052734"/>
      <use xlink:href="#DejaVuSans-20" x="217.431641"/>
      <use xlink:href="#DejaVuSans-43" x="249.21875"/>
      <use xlink:href="#DejaVuSans-6c" x="319.042969"/>
      <use xlink:href="#DejaVuSans-65" x="346.826172"/>
      <use xlink:href="#DejaVuSans-65" x="408.349609"/>
      <use xlink:href="#DejaVuSans-73" x="469.873047"/>
      <use xlink:href="#DejaVuSans-65" x="521.972656"/>
     </g>
    </g>
   </g>
   <g id="text_2">
    <g id="patch_3">
     <path d="M 420.934322 219.596038 
L 508.869947 219.596038 
L 508.869947 202.965725 
L 420.934322 202.965725 
z
" clip-path="url(#p3bd23fc0cc)" style="fill: #ffffff; opacity: 0.7; stroke: #000000; stroke-linejoin: miter"/>
    </g>
    <g clip-path="url(#p3bd23fc0cc)">
     <!-- Antonio Banderas -->
     <g transform="translate(424.894322 213.764319)scale(0.09 -0.09)">
      <defs>
       <path id="DejaVuSans-41" d="M 2188 4044 
L 1331 1722 
L 3047 1722 
L 2188 4044 
z
M 1831 4666 
L 2547 4666 
L 4325 0 
L 3669 0 
L 3244 1197 
L 1141 1197 
L 716 0 
L 50 0 
L 1831 4666 
z
" transform="scale(0.015625)"/>
       <path id="DejaVuSans-74" d="M 1172 4494 
L 1172 3500 
L 2356 3500 
L 2356 3053 
L 1172 3053 
L 1172 1153 
Q 1172 725 1289 603 
Q 1406 481 1766 481 
L 2356 481 
L 2356 0 
L 1766 0 
Q 1100 0 847 248 
Q 594 497 594 1153 
L 594 3053 
L 172 3053 
L 172 3500 
L 594 3500 
L 594 4494 
L 1172 4494 
z
" transform="scale(0.015625)"/>
       <path id="DejaVuSans-69" d="M 603 3500 
L 1178 3500 
L 1178 0 
L 603 0 
L 603 3500 
z
M 603 4863 
L 1178 4863 
L 1178 4134 
L 603 4134 
L 603 4863 
z
" transform="scale(0.015625)"/>
       <path id="DejaVuSans-42" d="M 1259 2228 
L 1259 519 
L 2272 519 
Q 2781 519 3026 730 
Q 3272 941 3272 1375 
Q 3272 1813 3026 2020 
Q 2781 2228 2272 2228 
L 1259 2228 
z
M 1259 4147 
L 1259 2741 
L 2194 2741 
Q 2656 2741 2882 2914 
Q 3109 3088 3109 3444 
Q 3109 3797 2882 3972 
Q 2656 4147 2194 4147 
L 1259 4147 
z
M 628 4666 
L 2241 4666 
Q 2963 4666 3353 4366 
Q 3744 4066 3744 3513 
Q 3744 3084 3544 2831 
Q 3344 2578 2956 2516 
Q 3422 2416 3680 2098 
Q 3938 1781 3938 1306 
Q 3938 681 3513 340 
Q 3088 0 2303 0 
L 628 0 
L 628 4666 
z
" transform="scale(0.015625)"/>
       <path id="DejaVuSans-61" d="M 2194 1759 
Q 1497 1759 1228 1600 
Q 959 1441 959 1056 
Q 959 750 1161 570 
Q 1363 391 1709 391 
Q 2188 391 2477 730 
Q 2766 1069 2766 1631 
L 2766 1759 
L 2194 1759 
z
M 3341 1997 
L 3341 0 
L 2766 0 
L 2766 531 
Q 2569 213 2275 61 
Q 1981 -91 1556 -91 
Q 1019 -91 701 211 
Q 384 513 384 1019 
Q 384 1609 779 1909 
Q 1175 2209 1959 2209 
L 2766 2209 
L 2766 2266 
Q 2766 2663 2505 2880 
Q 2244 3097 1772 3097 
Q 1472 3097 1187 3025 
Q 903 2953 641 2809 
L 641 3341 
Q 956 3463 1253 3523 
Q 1550 3584 1831 3584 
Q 2591 3584 2966 3190 
Q 3341 2797 3341 1997 
z
" transform="scale(0.015625)"/>
       <path id="DejaVuSans-64" d="M 2906 2969 
L 2906 4863 
L 3481 4863 
L 3481 0 
L 2906 0 
L 2906 525 
Q 2725 213 2448 61 
Q 2172 -91 1784 -91 
Q 1150 -91 751 415 
Q 353 922 353 1747 
Q 353 2572 751 3078 
Q 1150 3584 1784 3584 
Q 2172 3584 2448 3432 
Q 2725 3281 2906 2969 
z
M 947 1747 
Q 947 1113 1208 752 
Q 1469 391 1925 391 
Q 2381 391 2643 752 
Q 2906 1113 2906 1747 
Q 2906 2381 2643 2742 
Q 2381 3103 1925 3103 
Q 1469 3103 1208 2742 
Q 947 2381 947 1747 
z
" transform="scale(0.015625)"/>
       <path id="DejaVuSans-72" d="M 2631 2963 
Q 2534 3019 2420 3045 
Q 2306 3072 2169 3072 
Q 1681 3072 1420 2755 
Q 1159 2438 1159 1844 
L 1159 0 
L 581 0 
L 581 3500 
L 1159 3500 
L 1159 2956 
Q 1341 3275 1631 3429 
Q 1922 3584 2338 3584 
Q 2397 3584 2469 3576 
Q 2541 3569 2628 3553 
L 2631 2963 
z
" transform="scale(0.015625)"/>
      </defs>
      <use xlink:href="#DejaVuSans-41"/>
      <use xlink:href="#DejaVuSans-6e" x="68.408203"/>
      <use xlink:href="#DejaVuSans-74" x="131.787109"/>
      <use xlink:href="#DejaVuSans-6f" x="170.996094"/>
      <use xlink:href="#DejaVuSans-6e" x="232.177734"/>
      <use xlink:href="#DejaVuSans-69" x="295.556641"/>
      <use xlink:href="#DejaVuSans-6f" x="323.339844"/>
      <use xlink:href="#DejaVuSans-20" x="384.521484"/>
      <use xlink:href="#DejaVuSans-42" x="416.308594"/>
      <use xlink:href="#DejaVuSans-61" x="484.912109"/>
      <use xlink:href="#DejaVuSans-6e" x="546.191406"/>
      <use xlink:href="#DejaVuSans-64" x="609.570312"/>
      <use xlink:href="#DejaVuSans-65" x="673.046875"/>
      <use xlink:href="#DejaVuSans-72" x="734.570312"/>
      <use xlink:href="#DejaVuSans-61" x="775.683594"/>
      <use xlink:href="#DejaVuSans-73" x="836.962891"/>
     </g>
    </g>
   </g>
   <g id="text_3">
    <g id="patch_4">
     <path d="M 393.378379 152.560506 
L 440.621348 152.560506 
L 440.621348 135.930193 
L 393.378379 135.930193 
z
" clip-path="url(#p3bd23fc0cc)" style="fill: #ffffff; opacity: 0.7; stroke: #000000; stroke-linejoin: miter"/>
    </g>
    <g clip-path="url(#p3bd23fc0cc)">
     <!-- Frank Oz -->
     <g transform="translate(397.338379 146.728787)scale(0.09 -0.09)">
      <defs>
       <path id="DejaVuSans-46" d="M 628 4666 
L 3309 4666 
L 3309 4134 
L 1259 4134 
L 1259 2759 
L 3109 2759 
L 3109 2228 
L 1259 2228 
L 1259 0 
L 628 0 
L 628 4666 
z
" transform="scale(0.015625)"/>
       <path id="DejaVuSans-6b" d="M 581 4863 
L 1159 4863 
L 1159 1991 
L 2875 3500 
L 3609 3500 
L 1753 1863 
L 3688 0 
L 2938 0 
L 1159 1709 
L 1159 0 
L 581 0 
L 581 4863 
z
" transform="scale(0.015625)"/>
       <path id="DejaVuSans-4f" d="M 2522 4238 
Q 1834 4238 1429 3725 
Q 1025 3213 1025 2328 
Q 1025 1447 1429 934 
Q 1834 422 2522 422 
Q 3209 422 3611 934 
Q 4013 1447 4013 2328 
Q 4013 3213 3611 3725 
Q 3209 4238 2522 4238 
z
M 2522 4750 
Q 3503 4750 4090 4092 
Q 4678 3434 4678 2328 
Q 4678 1225 4090 567 
Q 3503 -91 2522 -91 
Q 1538 -91 948 565 
Q 359 1222 359 2328 
Q 359 3434 948 4092 
Q 1538 4750 2522 4750 
z
" transform="scale(0.015625)"/>
       <path id="DejaVuSans-7a" d="M 353 3500 
L 3084 3500 
L 3084 2975 
L 922 459 
L 3084 459 
L 3084 0 
L 275 0 
L 275 525 
L 2438 3041 
L 353 3041 
L 353 3500 
z
" transform="scale(0.015625)"/>
      </defs>
      <use xlink:href="#DejaVuSans-46"/>
      <use xlink:href="#DejaVuSans-72" x="50.269531"/>
      <use xlink:href="#DejaVuSans-61" x="91.382812"/>
      <use xlink:href="#DejaVuSans-6e" x="152.662109"/>
      <use xlink:href="#DejaVuSans-6b" x="216.041016"/>
      <use xlink:href="#DejaVuSans-20" x="273.951172"/>
      <use xlink:href="#DejaVuSans-4f" x="305.738281"/>
      <use xlink:href="#DejaVuSans-7a" x="384.449219"/>
     </g>
    </g>
   </g>
   <g id="text_4">
    <g id="patch_5">
     <path d="M 301.680833 111.130279 
L 391.163333 111.130279 
L 391.163333 94.499966 
L 301.680833 94.499966 
z
" clip-path="url(#p3bd23fc0cc)" style="fill: #ffffff; opacity: 0.7; stroke: #000000; stroke-linejoin: miter"/>
    </g>
    <g clip-path="url(#p3bd23fc0cc)">
     <!-- Samuel L. Jackson -->
     <g transform="translate(305.640833 105.29856)scale(0.09 -0.09)">
      <defs>
       <path id="DejaVuSans-53" d="M 3425 4513 
L 3425 3897 
Q 3066 4069 2747 4153 
Q 2428 4238 2131 4238 
Q 1616 4238 1336 4038 
Q 1056 3838 1056 3469 
Q 1056 3159 1242 3001 
Q 1428 2844 1947 2747 
L 2328 2669 
Q 3034 2534 3370 2195 
Q 3706 1856 3706 1288 
Q 3706 609 3251 259 
Q 2797 -91 1919 -91 
Q 1588 -91 1214 -16 
Q 841 59 441 206 
L 441 856 
Q 825 641 1194 531 
Q 1563 422 1919 422 
Q 2459 422 2753 634 
Q 3047 847 3047 1241 
Q 3047 1584 2836 1778 
Q 2625 1972 2144 2069 
L 1759 2144 
Q 1053 2284 737 2584 
Q 422 2884 422 3419 
Q 422 4038 858 4394 
Q 1294 4750 2059 4750 
Q 2388 4750 2728 4690 
Q 3069 4631 3425 4513 
z
" transform="scale(0.015625)"/>
       <path id="DejaVuSans-6d" d="M 3328 2828 
Q 3544 3216 3844 3400 
Q 4144 3584 4550 3584 
Q 5097 3584 5394 3201 
Q 5691 2819 5691 2113 
L 5691 0 
L 5113 0 
L 5113 2094 
Q 5113 2597 4934 2840 
Q 4756 3084 4391 3084 
Q 3944 3084 3684 2787 
Q 3425 2491 3425 1978 
L 3425 0 
L 2847 0 
L 2847 2094 
Q 2847 2600 2669 2842 
Q 2491 3084 2119 3084 
Q 1678 3084 1418 2786 
Q 1159 2488 1159 1978 
L 1159 0 
L 581 0 
L 581 3500 
L 1159 3500 
L 1159 2956 
Q 1356 3278 1631 3431 
Q 1906 3584 2284 3584 
Q 2666 3584 2933 3390 
Q 3200 3197 3328 2828 
z
" transform="scale(0.015625)"/>
       <path id="DejaVuSans-75" d="M 544 1381 
L 544 3500 
L 1119 3500 
L 1119 1403 
Q 1119 906 1312 657 
Q 1506 409 1894 409 
Q 2359 409 2629 706 
Q 2900 1003 2900 1516 
L 2900 3500 
L 3475 3500 
L 3475 0 
L 2900 0 
L 2900 538 
Q 2691 219 2414 64 
Q 2138 -91 1772 -91 
Q 1169 -91 856 284 
Q 544 659 544 1381 
z
M 1991 3584 
L 1991 3584 
z
" transform="scale(0.015625)"/>
       <path id="DejaVuSans-4c" d="M 628 4666 
L 1259 4666 
L 1259 531 
L 3531 531 
L 3531 0 
L 628 0 
L 628 4666 
z
" transform="scale(0.015625)"/>
       <path id="DejaVuSans-2e" d="M 684 794 
L 1344 794 
L 1344 0 
L 684 0 
L 684 794 
z
" transform="scale(0.015625)"/>
       <path id="DejaVuSans-63" d="M 3122 3366 
L 3122 2828 
Q 2878 2963 2633 3030 
Q 2388 3097 2138 3097 
Q 1578 3097 1268 2742 
Q 959 2388 959 1747 
Q 959 1106 1268 751 
Q 1578 397 2138 397 
Q 2388 397 2633 464 
Q 2878 531 3122 666 
L 3122 134 
Q 2881 22 2623 -34 
Q 2366 -91 2075 -91 
Q 1284 -91 818 406 
Q 353 903 353 1747 
Q 353 2603 823 3093 
Q 1294 3584 2113 3584 
Q 2378 3584 2631 3529 
Q 2884 3475 3122 3366 
z
" transform="scale(0.015625)"/>
      </defs>
      <use xlink:href="#DejaVuSans-53"/>
      <use xlink:href="#DejaVuSans-61" x="63.476562"/>
      <use xlink:href="#DejaVuSans-6d" x="124.755859"/>
      <use xlink:href="#DejaVuSans-75" x="222.167969"/>
      <use xlink:href="#DejaVuSans-65" x="285.546875"/>
      <use xlink:href="#DejaVuSans-6c" x="347.070312"/>
      <use xlink:href="#DejaVuSans-20" x="374.853516"/>
      <use xlink:href="#DejaVuSans-4c" x="406.640625"/>
      <use xlink:href="#DejaVuSans-2e" x="462.353516"/>
      <use xlink:href="#DejaVuSans-20" x="494.140625"/>
      <use xlink:href="#DejaVuSans-4a" x="525.927734"/>
      <use xlink:href="#DejaVuSans-61" x="555.419922"/>
      <use xlink:href="#DejaVuSans-63" x="616.699219"/>
      <use xlink:href="#DejaVuSans-6b" x="671.679688"/>
      <use xlink:href="#DejaVuSans-73" x="729.589844"/>
      <use xlink:href="#DejaVuSans-6f" x="781.689453"/>
      <use xlink:href="#DejaVuSans-6e" x="842.871094"/>
     </g>
    </g>
   </g>
   <g id="text_5">
    <g id="patch_6">
     <path d="M 228.043411 102.469002 
L 302.701223 102.469002 
L 302.701223 85.83869 
L 228.043411 85.83869 
z
" clip-path="url(#p3bd23fc0cc)" style="fill: #ffffff; opacity: 0.7; stroke: #000000; stroke-linejoin: miter"/>
    </g>
    <g clip-path="url(#p3bd23fc0cc)">
     <!-- Conrad Vernon -->
     <g transform="translate(232.003411 96.637284)scale(0.09 -0.09)">
      <defs>
       <path id="DejaVuSans-56" d="M 1831 0 
L 50 4666 
L 709 4666 
L 2188 738 
L 3669 4666 
L 4325 4666 
L 2547 0 
L 1831 0 
z
" transform="scale(0.015625)"/>
      </defs>
      <use xlink:href="#DejaVuSans-43"/>
      <use xlink:href="#DejaVuSans-6f" x="69.824219"/>
      <use xlink:href="#DejaVuSans-6e" x="131.005859"/>
      <use xlink:href="#DejaVuSans-72" x="194.384766"/>
      <use xlink:href="#DejaVuSans-61" x="235.498047"/>
      <use xlink:href="#DejaVuSans-64" x="296.777344"/>
      <use xlink:href="#DejaVuSans-20" x="360.253906"/>
      <use xlink:href="#DejaVuSans-56" x="392.041016"/>
      <use xlink:href="#DejaVuSans-65" x="452.699219"/>
      <use xlink:href="#DejaVuSans-72" x="514.222656"/>
      <use xlink:href="#DejaVuSans-6e" x="553.585938"/>
      <use xlink:href="#DejaVuSans-6f" x="616.964844"/>
      <use xlink:href="#DejaVuSans-6e" x="678.146484"/>
     </g>
    </g>
   </g>
   <g id="text_6">
    <g id="patch_7">
     <path d="M 150.492316 128.074301 
L 225.237316 128.074301 
L 225.237316 111.443988 
L 150.492316 111.443988 
z
" clip-path="url(#p3bd23fc0cc)" style="fill: #ffffff; opacity: 0.7; stroke: #000000; stroke-linejoin: miter"/>
    </g>
    <g clip-path="url(#p3bd23fc0cc)">
     <!-- Steve Buscemi -->
     <g transform="translate(154.452316 122.242582)scale(0.09 -0.09)">
      <defs>
       <path id="DejaVuSans-76" d="M 191 3500 
L 800 3500 
L 1894 563 
L 2988 3500 
L 3597 3500 
L 2284 0 
L 1503 0 
L 191 3500 
z
" transform="scale(0.015625)"/>
      </defs>
      <use xlink:href="#DejaVuSans-53"/>
      <use xlink:href="#DejaVuSans-74" x="63.476562"/>
      <use xlink:href="#DejaVuSans-65" x="102.685547"/>
      <use xlink:href="#DejaVuSans-76" x="164.208984"/>
      <use xlink:href="#DejaVuSans-65" x="223.388672"/>
      <use xlink:href="#DejaVuSans-20" x="284.912109"/>
      <use xlink:href="#DejaVuSans-42" x="316.699219"/>
      <use xlink:href="#DejaVuSans-75" x="385.302734"/>
      <use xlink:href="#DejaVuSans-73" x="448.681641"/>
      <use xlink:href="#DejaVuSans-63" x="500.78125"/>
      <use xlink:href="#DejaVuSans-65" x="555.761719"/>
      <use xlink:href="#DejaVuSans-6d" x="617.285156"/>
      <use xlink:href="#DejaVuSans-69" x="714.697266"/>
     </g>
    </g>
   </g>
   <g id="text_7">
    <g id="patch_8">
     <path d="M 92.523374 183.518771 
L 162.079311 183.518771 
L 162.079311 166.888459 
L 92.523374 166.888459 
z
" clip-path="url(#p3bd23fc0cc)" style="fill: #ffffff; opacity: 0.7; stroke: #000000; stroke-linejoin: miter"/>
    </g>
    <g clip-path="url(#p3bd23fc0cc)">
     <!-- Alan Rickman -->
     <g transform="translate(96.483374 177.687052)scale(0.09 -0.09)">
      <defs>
       <path id="DejaVuSans-52" d="M 2841 2188 
Q 3044 2119 3236 1894 
Q 3428 1669 3622 1275 
L 4263 0 
L 3584 0 
L 2988 1197 
Q 2756 1666 2539 1819 
Q 2322 1972 1947 1972 
L 1259 1972 
L 1259 0 
L 628 0 
L 628 4666 
L 2053 4666 
Q 2853 4666 3247 4331 
Q 3641 3997 3641 3322 
Q 3641 2881 3436 2590 
Q 3231 2300 2841 2188 
z
M 1259 4147 
L 1259 2491 
L 2053 2491 
Q 2509 2491 2742 2702 
Q 2975 2913 2975 3322 
Q 2975 3731 2742 3939 
Q 2509 4147 2053 4147 
L 1259 4147 
z
" transform="scale(0.015625)"/>
      </defs>
      <use xlink:href="#DejaVuSans-41"/>
      <use xlink:href="#DejaVuSans-6c" x="68.408203"/>
      <use xlink:href="#DejaVuSans-61" x="96.191406"/>
      <use xlink:href="#DejaVuSans-6e" x="157.470703"/>
      <use xlink:href="#DejaVuSans-20" x="220.849609"/>
      <use xlink:href="#DejaVuSans-52" x="252.636719"/>
      <use xlink:href="#DejaVuSans-69" x="322.119141"/>
      <use xlink:href="#DejaVuSans-63" x="349.902344"/>
      <use xlink:href="#DejaVuSans-6b" x="404.882812"/>
      <use xlink:href="#DejaVuSans-6d" x="462.792969"/>
      <use xlink:href="#DejaVuSans-61" x="560.205078"/>
      <use xlink:href="#DejaVuSans-6e" x="621.484375"/>
     </g>
    </g>
   </g>
   <g id="text_8">
    <g id="patch_9">
     <path d="M 57.583612 259.215585 
L 130.724081 259.215585 
L 130.724081 242.585272 
L 57.583612 242.585272 
z
" clip-path="url(#p3bd23fc0cc)" style="fill: #ffffff; opacity: 0.7; stroke: #000000; stroke-linejoin: miter"/>
    </g>
    <g clip-path="url(#p3bd23fc0cc)">
     <!-- Hugo Weaving -->
     <g transform="translate(61.543612 253.383866)scale(0.09 -0.09)">
      <defs>
       <path id="DejaVuSans-48" d="M 628 4666 
L 1259 4666 
L 1259 2753 
L 3553 2753 
L 3553 4666 
L 4184 4666 
L 4184 0 
L 3553 0 
L 3553 2222 
L 1259 2222 
L 1259 0 
L 628 0 
L 628 4666 
z
" transform="scale(0.015625)"/>
       <path id="DejaVuSans-67" d="M 2906 1791 
Q 2906 2416 2648 2759 
Q 2391 3103 1925 3103 
Q 1463 3103 1205 2759 
Q 947 2416 947 1791 
Q 947 1169 1205 825 
Q 1463 481 1925 481 
Q 2391 481 2648 825 
Q 2906 1169 2906 1791 
z
M 3481 434 
Q 3481 -459 3084 -895 
Q 2688 -1331 1869 -1331 
Q 1566 -1331 1297 -1286 
Q 1028 -1241 775 -1147 
L 775 -588 
Q 1028 -725 1275 -790 
Q 1522 -856 1778 -856 
Q 2344 -856 2625 -561 
Q 2906 -266 2906 331 
L 2906 616 
Q 2728 306 2450 153 
Q 2172 0 1784 0 
Q 1141 0 747 490 
Q 353 981 353 1791 
Q 353 2603 747 3093 
Q 1141 3584 1784 3584 
Q 2172 3584 2450 3431 
Q 2728 3278 2906 2969 
L 2906 3500 
L 3481 3500 
L 3481 434 
z
" transform="scale(0.015625)"/>
       <path id="DejaVuSans-57" d="M 213 4666 
L 850 4666 
L 1831 722 
L 2809 4666 
L 3519 4666 
L 4500 722 
L 5478 4666 
L 6119 4666 
L 4947 0 
L 4153 0 
L 3169 4050 
L 2175 0 
L 1381 0 
L 213 4666 
z
" transform="scale(0.015625)"/>
      </defs>
      <use xlink:href="#DejaVuSans-48"/>
      <use xlink:href="#DejaVuSans-75" x="75.195312"/>
      <use xlink:href="#DejaVuSans-67" x="138.574219"/>
      <use xlink:href="#DejaVuSans-6f" x="202.050781"/>
      <use xlink:href="#DejaVuSans-20" x="263.232422"/>
      <use xlink:href="#DejaVuSans-57" x="295.019531"/>
      <use xlink:href="#DejaVuSans-65" x="388.021484"/>
      <use xlink:href="#DejaVuSans-61" x="449.544922"/>
      <use xlink:href="#DejaVuSans-76" x="510.824219"/>
      <use xlink:href="#DejaVuSans-69" x="570.003906"/>
      <use xlink:href="#DejaVuSans-6e" x="597.787109"/>
      <use xlink:href="#DejaVuSans-67" x="661.166016"/>
     </g>
    </g>
   </g>
   <g id="text_9">
    <g id="patch_10">
     <path d="M 58.734639 342.076051 
L 129.573077 342.076051 
L 129.573077 325.445739 
L 58.734639 325.445739 
z
" clip-path="url(#p3bd23fc0cc)" style="fill: #ffffff; opacity: 0.7; stroke: #000000; stroke-linejoin: miter"/>
    </g>
    <g clip-path="url(#p3bd23fc0cc)">
     <!-- Harry Shearer -->
     <g transform="translate(62.694639 336.244333)scale(0.09 -0.09)">
      <defs>
       <path id="DejaVuSans-79" d="M 2059 -325 
Q 1816 -950 1584 -1140 
Q 1353 -1331 966 -1331 
L 506 -1331 
L 506 -850 
L 844 -850 
Q 1081 -850 1212 -737 
Q 1344 -625 1503 -206 
L 1606 56 
L 191 3500 
L 800 3500 
L 1894 763 
L 2988 3500 
L 3597 3500 
L 2059 -325 
z
" transform="scale(0.015625)"/>
      </defs>
      <use xlink:href="#DejaVuSans-48"/>
      <use xlink:href="#DejaVuSans-61" x="75.195312"/>
      <use xlink:href="#DejaVuSans-72" x="136.474609"/>
      <use xlink:href="#DejaVuSans-72" x="175.837891"/>
      <use xlink:href="#DejaVuSans-79" x="216.951172"/>
      <use xlink:href="#DejaVuSans-20" x="276.130859"/>
      <use xlink:href="#DejaVuSans-53" x="307.917969"/>
      <use xlink:href="#DejaVuSans-68" x="371.394531"/>
      <use xlink:href="#DejaVuSans-65" x="434.773438"/>
      <use xlink:href="#DejaVuSans-61" x="496.296875"/>
      <use xlink:href="#DejaVuSans-72" x="557.576172"/>
      <use xlink:href="#DejaVuSans-65" x="596.439453"/>
      <use xlink:href="#DejaVuSans-72" x="657.962891"/>
     </g>
    </g>
   </g>
   <g id="text_10">
    <g id="patch_11">
     <path d="M 91.560104 417.772841 
L 163.042604 417.772841 
L 163.042604 401.142529 
L 91.560104 401.142529 
z
" clip-path="url(#p3bd23fc0cc)" style="fill: #ffffff; opacity: 0.7; stroke: #000000; stroke-linejoin: miter"/>
    </g>
    <g clip-path="url(#p3bd23fc0cc)">
     <!-- Joe Pantoliano -->
     <g transform="translate(95.520104 411.941123)scale(0.09 -0.09)">
      <defs>
       <path id="DejaVuSans-50" d="M 1259 4147 
L 1259 2394 
L 2053 2394 
Q 2494 2394 2734 2622 
Q 2975 2850 2975 3272 
Q 2975 3691 2734 3919 
Q 2494 4147 2053 4147 
L 1259 4147 
z
M 628 4666 
L 2053 4666 
Q 2838 4666 3239 4311 
Q 3641 3956 3641 3272 
Q 3641 2581 3239 2228 
Q 2838 1875 2053 1875 
L 1259 1875 
L 1259 0 
L 628 0 
L 628 4666 
z
" transform="scale(0.015625)"/>
      </defs>
      <use xlink:href="#DejaVuSans-4a"/>
      <use xlink:href="#DejaVuSans-6f" x="29.492188"/>
      <use xlink:href="#DejaVuSans-65" x="90.673828"/>
      <use xlink:href="#DejaVuSans-20" x="152.197266"/>
      <use xlink:href="#DejaVuSans-50" x="183.984375"/>
      <use xlink:href="#DejaVuSans-61" x="239.787109"/>
      <use xlink:href="#DejaVuSans-6e" x="301.066406"/>
      <use xlink:href="#DejaVuSans-74" x="364.445312"/>
      <use xlink:href="#DejaVuSans-6f" x="403.654297"/>
      <use xlink:href="#DejaVuSans-6c" x="464.835938"/>
      <use xlink:href="#DejaVuSans-69" x="492.619141"/>
      <use xlink:href="#DejaVuSans-61" x="520.402344"/>
      <use xlink:href="#DejaVuSans-6e" x="581.681641"/>
      <use xlink:href="#DejaVuSans-6f" x="645.060547"/>
     </g>
    </g>
   </g>
   <g id="text_11">
    <g id="patch_12">
     <path d="M 150.384768 473.217312 
L 225.344924 473.217312 
L 225.344924 456.586999 
L 150.384768 456.586999 
z
" clip-path="url(#p3bd23fc0cc)" style="fill: #ffffff; opacity: 0.7; stroke: #000000; stroke-linejoin: miter"/>
    </g>
    <g clip-path="url(#p3bd23fc0cc)">
     <!-- Orlando Bloom -->
     <g transform="translate(154.344768 467.385593)scale(0.09 -0.09)">
      <use xlink:href="#DejaVuSans-4f"/>
      <use xlink:href="#DejaVuSans-72" x="78.710938"/>
      <use xlink:href="#DejaVuSans-6c" x="119.824219"/>
      <use xlink:href="#DejaVuSans-61" x="147.607422"/>
      <use xlink:href="#DejaVuSans-6e" x="208.886719"/>
      <use xlink:href="#DejaVuSans-64" x="272.265625"/>
      <use xlink:href="#DejaVuSans-6f" x="335.742188"/>
      <use xlink:href="#DejaVuSans-20" x="396.923828"/>
      <use xlink:href="#DejaVuSans-42" x="428.710938"/>
      <use xlink:href="#DejaVuSans-6c" x="497.314453"/>
      <use xlink:href="#DejaVuSans-6f" x="525.097656"/>
      <use xlink:href="#DejaVuSans-6f" x="586.279297"/>
      <use xlink:href="#DejaVuSans-6d" x="647.460938"/>
     </g>
    </g>
   </g>
   <g id="text_12">
    <g id="patch_13">
     <path d="M 230.249149 498.822598 
L 300.495555 498.822598 
L 300.495555 482.192286 
L 230.249149 482.192286 
z
" clip-path="url(#p3bd23fc0cc)" style="fill: #ffffff; opacity: 0.7; stroke: #000000; stroke-linejoin: miter"/>
    </g>
    <g clip-path="url(#p3bd23fc0cc)">
     <!-- Peter Facinelli -->
     <g transform="translate(234.209149 492.990879)scale(0.09 -0.09)">
      <use xlink:href="#DejaVuSans-50"/>
      <use xlink:href="#DejaVuSans-65" x="56.677734"/>
      <use xlink:href="#DejaVuSans-74" x="118.201172"/>
      <use xlink:href="#DejaVuSans-65" x="157.410156"/>
      <use xlink:href="#DejaVuSans-72" x="218.933594"/>
      <use xlink:href="#DejaVuSans-20" x="260.046875"/>
      <use xlink:href="#DejaVuSans-46" x="291.833984"/>
      <use xlink:href="#DejaVuSans-61" x="340.228516"/>
      <use xlink:href="#DejaVuSans-63" x="401.507812"/>
      <use xlink:href="#DejaVuSans-69" x="456.488281"/>
      <use xlink:href="#DejaVuSans-6e" x="484.271484"/>
      <use xlink:href="#DejaVuSans-65" x="547.650391"/>
      <use xlink:href="#DejaVuSans-6c" x="609.173828"/>
      <use xlink:href="#DejaVuSans-6c" x="636.957031"/>
      <use xlink:href="#DejaVuSans-69" x="664.740234"/>
     </g>
    </g>
   </g>
   <g id="text_13">
    <g id="patch_14">
     <path d="M 318.182503 490.16131 
L 374.661721 490.16131 
L 374.661721 473.530998 
L 318.182503 473.530998 
z
" clip-path="url(#p3bd23fc0cc)" style="fill: #ffffff; opacity: 0.7; stroke: #000000; stroke-linejoin: miter"/>
    </g>
    <g clip-path="url(#p3bd23fc0cc)">
     <!-- Tom Felton -->
     <g transform="translate(322.142503 484.329591)scale(0.09 -0.09)">
      <defs>
       <path id="DejaVuSans-54" d="M -19 4666 
L 3928 4666 
L 3928 4134 
L 2272 4134 
L 2272 0 
L 1638 0 
L 1638 4134 
L -19 4134 
L -19 4666 
z
" transform="scale(0.015625)"/>
      </defs>
      <use xlink:href="#DejaVuSans-54"/>
      <use xlink:href="#DejaVuSans-6f" x="44.083984"/>
      <use xlink:href="#DejaVuSans-6d" x="105.265625"/>
      <use xlink:href="#DejaVuSans-20" x="202.677734"/>
      <use xlink:href="#DejaVuSans-46" x="234.464844"/>
      <use xlink:href="#DejaVuSans-65" x="286.484375"/>
      <use xlink:href="#DejaVuSans-6c" x="348.007812"/>
      <use xlink:href="#DejaVuSans-74" x="375.791016"/>
      <use xlink:href="#DejaVuSans-6f" x="415"/>
      <use xlink:href="#DejaVuSans-6e" x="476.181641"/>
     </g>
    </g>
   </g>
   <g id="text_14">
    <g id="patch_15">
     <path d="M 380.608258 448.731059 
L 453.391539 448.731059 
L 453.391539 432.100747 
L 380.608258 432.100747 
z
" clip-path="url(#p3bd23fc0cc)" style="fill: #ffffff; opacity: 0.7; stroke: #000000; stroke-linejoin: miter"/>
    </g>
    <g clip-path="url(#p3bd23fc0cc)">
     <!-- Emma Watson -->
     <g transform="translate(384.568258 442.89934)scale(0.09 -0.09)">
      <defs>
       <path id="DejaVuSans-45" d="M 628 4666 
L 3578 4666 
L 3578 4134 
L 1259 4134 
L 1259 2753 
L 3481 2753 
L 3481 2222 
L 1259 2222 
L 1259 531 
L 3634 531 
L 3634 0 
L 628 0 
L 628 4666 
z
" transform="scale(0.015625)"/>
      </defs>
      <use xlink:href="#DejaVuSans-45"/>
      <use xlink:href="#DejaVuSans-6d" x="63.183594"/>
      <use xlink:href="#DejaVuSans-6d" x="160.595703"/>
      <use xlink:href="#DejaVuSans-61" x="258.007812"/>
      <use xlink:href="#DejaVuSans-20" x="319.287109"/>
      <use xlink:href="#DejaVuSans-57" x="351.074219"/>
      <use xlink:href="#DejaVuSans-61" x="443.576172"/>
      <use xlink:href="#DejaVuSans-74" x="504.855469"/>
      <use xlink:href="#DejaVuSans-73" x="544.064453"/>
      <use xlink:href="#DejaVuSans-6f" x="596.164062"/>
      <use xlink:href="#DejaVuSans-6e" x="657.345703"/>
     </g>
    </g>
   </g>
   <g id="text_15">
    <g id="patch_16">
     <path d="M 433.471767 381.695533 
L 496.332548 381.695533 
L 496.332548 365.065221 
L 433.471767 365.065221 
z
" clip-path="url(#p3bd23fc0cc)" style="fill: #ffffff; opacity: 0.7; stroke: #000000; stroke-linejoin: miter"/>
    </g>
    <g clip-path="url(#p3bd23fc0cc)">
     <!-- Jason Isaacs -->
     <g transform="translate(437.431767 375.863815)scale(0.09 -0.09)">
      <defs>
       <path id="DejaVuSans-49" d="M 628 4666 
L 1259 4666 
L 1259 0 
L 628 0 
L 628 4666 
z
" transform="scale(0.015625)"/>
      </defs>
      <use xlink:href="#DejaVuSans-4a"/>
      <use xlink:href="#DejaVuSans-61" x="29.492188"/>
      <use xlink:href="#DejaVuSans-73" x="90.771484"/>
      <use xlink:href="#DejaVuSans-6f" x="142.871094"/>
      <use xlink:href="#DejaVuSans-6e" x="204.052734"/>
      <use xlink:href="#DejaVuSans-20" x="267.431641"/>
      <use xlink:href="#DejaVuSans-49" x="299.21875"/>
      <use xlink:href="#DejaVuSans-73" x="328.710938"/>
      <use xlink:href="#DejaVuSans-61" x="380.810547"/>
      <use xlink:href="#DejaVuSans-61" x="442.089844"/>
      <use xlink:href="#DejaVuSans-63" x="503.369141"/>
      <use xlink:href="#DejaVuSans-73" x="558.349609"/>
     </g>
    </g>
   </g>
   <g id="text_16">
    <!-- Impactful actors for Adventure genre -->
    <g transform="translate(176.83875 4.8)scale(0.12 -0.12)">
     <defs>
      <path id="DejaVuSans-70" d="M 1159 525 
L 1159 -1331 
L 581 -1331 
L 581 3500 
L 1159 3500 
L 1159 2969 
Q 1341 3281 1617 3432 
Q 1894 3584 2278 3584 
Q 2916 3584 3314 3078 
Q 3713 2572 3713 1747 
Q 3713 922 3314 415 
Q 2916 -91 2278 -91 
Q 1894 -91 1617 61 
Q 1341 213 1159 525 
z
M 3116 1747 
Q 3116 2381 2855 2742 
Q 2594 3103 2138 3103 
Q 1681 3103 1420 2742 
Q 1159 2381 1159 1747 
Q 1159 1113 1420 752 
Q 1681 391 2138 391 
Q 2594 391 2855 752 
Q 3116 1113 3116 1747 
z
" transform="scale(0.015625)"/>
      <path id="DejaVuSans-66" d="M 2375 4863 
L 2375 4384 
L 1825 4384 
Q 1516 4384 1395 4259 
Q 1275 4134 1275 3809 
L 1275 3500 
L 2222 3500 
L 2222 3053 
L 1275 3053 
L 1275 0 
L 697 0 
L 697 3053 
L 147 3053 
L 147 3500 
L 697 3500 
L 697 3744 
Q 697 4328 969 4595 
Q 1241 4863 1831 4863 
L 2375 4863 
z
" transform="scale(0.015625)"/>
     </defs>
     <use xlink:href="#DejaVuSans-49"/>
     <use xlink:href="#DejaVuSans-6d" x="29.492188"/>
     <use xlink:href="#DejaVuSans-70" x="126.904297"/>
     <use xlink:href="#DejaVuSans-61" x="190.380859"/>
     <use xlink:href="#DejaVuSans-63" x="251.660156"/>
     <use xlink:href="#DejaVuSans-74" x="306.640625"/>
     <use xlink:href="#DejaVuSans-66" x="345.849609"/>
     <use xlink:href="#DejaVuSans-75" x="381.054688"/>
     <use xlink:href="#DejaVuSans-6c" x="444.433594"/>
     <use xlink:href="#DejaVuSans-20" x="472.216797"/>
     <use xlink:href="#DejaVuSans-61" x="504.003906"/>
     <use xlink:href="#DejaVuSans-63" x="565.283203"/>
     <use xlink:href="#DejaVuSans-74" x="620.263672"/>
     <use xlink:href="#DejaVuSans-6f" x="659.472656"/>
     <use xlink:href="#DejaVuSans-72" x="720.654297"/>
     <use xlink:href="#DejaVuSans-73" x="761.767578"/>
     <use xlink:href="#DejaVuSans-20" x="813.867188"/>
     <use xlink:href="#DejaVuSans-66" x="845.654297"/>
     <use xlink:href="#DejaVuSans-6f" x="880.859375"/>
     <use xlink:href="#DejaVuSans-72" x="942.041016"/>
     <use xlink:href="#DejaVuSans-20" x="983.154297"/>
     <use xlink:href="#DejaVuSans-41" x="1014.941406"/>
     <use xlink:href="#DejaVuSans-64" x="1081.599609"/>
     <use xlink:href="#DejaVuSans-76" x="1145.076172"/>
     <use xlink:href="#DejaVuSans-65" x="1204.255859"/>
     <use xlink:href="#DejaVuSans-6e" x="1265.779297"/>
     <use xlink:href="#DejaVuSans-74" x="1329.158203"/>
     <use xlink:href="#DejaVuSans-75" x="1368.367188"/>
     <use xlink:href="#DejaVuSans-72" x="1431.746094"/>
     <use xlink:href="#DejaVuSans-65" x="1470.609375"/>
     <use xlink:href="#DejaVuSans-20" x="1532.132812"/>
     <use xlink:href="#DejaVuSans-67" x="1563.919922"/>
     <use xlink:href="#DejaVuSans-65" x="1627.396484"/>
     <use xlink:href="#DejaVuSans-6e" x="1688.919922"/>
     <use xlink:href="#DejaVuSans-72" x="1752.298828"/>
     <use xlink:href="#DejaVuSans-65" x="1791.162109"/>
    </g>
   </g>
  </g>
 </g>
 <defs>
  <clipPath id="p3bd23fc0cc">
   <rect x="10.8" y="10.8" width="554.4" height="554.4"/>
  </clipPath>
 </defs>
</svg>
