<?xml version="1.0" encoding="utf-8" standalone="no"?>
<!DOCTYPE svg PUBLIC "-//W3C//DTD SVG 1.1//EN"
  "http://www.w3.org/Graphics/SVG/1.1/DTD/svg11.dtd">
<svg xmlns:xlink="http://www.w3.org/1999/xlink" width="568.8pt" height="583.918125pt" viewBox="0 0 568.8 583.918125" xmlns="http://www.w3.org/2000/svg" version="1.1">
 <metadata>
  <rdf:RDF xmlns:dc="http://purl.org/dc/elements/1.1/" xmlns:cc="http://creativecommons.org/ns#" xmlns:rdf="http://www.w3.org/1999/02/22-rdf-syntax-ns#">
   <cc:Work>
    <dc:type rdf:resource="http://purl.org/dc/dcmitype/StillImage"/>
    <dc:date>2022-12-23T17:29:23.335846</dc:date>
    <dc:format>image/svg+xml</dc:format>
    <dc:creator>
     <cc:Agent>
      <dc:title>Matplotlib v3.5.2, https://matplotlib.org/</dc:title>
     </cc:Agent>
    </dc:creator>
   </cc:Work>
  </rdf:RDF>
 </metadata>
 <defs>
  <style type="text/css">*{stroke-linejoin: round; stroke-linecap: butt}</style>
 </defs>
 <g id="figure_1">
  <g id="patch_1">
   <path d="M 0 583.918125 
L 568.8 583.918125 
L 568.8 0 
L 0 0 
z
" style="fill: #ffffff"/>
  </g>
  <g id="axes_1">
   <g id="PathCollection_1">
    <path d="M 497.630769 326.904253 
C 504.893655 326.904253 511.86005 324.018678 516.995686 318.883042 
C 522.131322 313.747406 525.016897 306.781011 525.016897 299.518125 
C 525.016897 292.255239 522.131322 285.288844 516.995686 280.153208 
C 511.86005 275.017572 504.893655 272.131997 497.630769 272.131997 
C 490.367883 272.131997 483.401488 275.017572 478.265852 280.153208 
C 473.130217 285.288844 470.244641 292.255239 470.244641 299.518125 
C 470.244641 306.781011 473.130217 313.747406 478.265852 318.883042 
C 483.401488 324.018678 490.367883 326.904253 497.630769 326.904253 
z
" clip-path="url(#p18aacd4a8e)" style="fill: #c70039; fill-opacity: 0.99; stroke: #c70039; stroke-opacity: 0.99"/>
    <path d="M 478.992348 238.329335 
C 485.892323 238.329335 492.510622 235.587946 497.389641 230.708927 
C 502.268661 225.829908 505.01005 219.211609 505.01005 212.311633 
C 505.01005 205.411658 502.268661 198.793359 497.389641 193.91434 
C 492.510622 189.035321 485.892323 186.293931 478.992348 186.293931 
C 472.092373 186.293931 465.474074 189.035321 460.595054 193.91434 
C 455.716035 198.793359 452.974646 205.411658 452.974646 212.311633 
C 452.974646 219.211609 455.716035 225.829908 460.595054 230.708927 
C 465.474074 235.587946 472.092373 238.329335 478.992348 238.329335 
z
" clip-path="url(#p18aacd4a8e)" style="fill: #c70039; fill-opacity: 0.99; stroke: #c70039; stroke-opacity: 0.99"/>
    <path d="M 426.29985 164.81458 
C 432.831976 164.81458 439.097442 162.219339 443.716352 157.600429 
C 448.335263 152.981518 450.930504 146.716052 450.930504 140.183927 
C 450.930504 133.651801 448.335263 127.386335 443.716352 122.767424 
C 439.097442 118.148514 432.831976 115.553273 426.29985 115.553273 
C 419.767724 115.553273 413.502258 118.148514 408.883348 122.767424 
C 404.264437 127.386335 401.669196 133.651801 401.669196 140.183927 
C 401.669196 146.716052 404.264437 152.981518 408.883348 157.600429 
C 413.502258 162.219339 419.767724 164.81458 426.29985 164.81458 
z
" clip-path="url(#p18aacd4a8e)" style="fill: #c70039; fill-opacity: 0.99; stroke: #c70039; stroke-opacity: 0.99"/>
    <path d="M 348.664291 119.27641 
C 354.941608 119.27641 360.962667 116.782406 365.401401 112.343672 
C 369.840134 107.904939 372.334138 101.88388 372.334138 95.606563 
C 372.334138 89.329246 369.840134 83.308187 365.401401 78.869453 
C 360.962667 74.43072 354.941608 71.936715 348.664291 71.936715 
C 342.386974 71.936715 336.365915 74.43072 331.927182 78.869453 
C 327.488448 83.308187 324.994444 89.329246 324.994444 95.606563 
C 324.994444 101.88388 327.488448 107.904939 331.927182 112.343672 
C 336.365915 116.782406 342.386974 119.27641 348.664291 119.27641 
z
" clip-path="url(#p18aacd4a8e)" style="fill: #c70039; fill-opacity: 0.99; stroke: #c70039; stroke-opacity: 0.99"/>
    <path d="M 259.509549 109.039048 
C 265.543368 109.039048 271.33087 106.641786 275.597424 102.375232 
C 279.863979 98.108677 282.261241 92.321175 282.261241 86.287356 
C 282.261241 80.253537 279.863979 74.466035 275.597424 70.19948 
C 271.33087 65.932926 265.543368 63.535664 259.509549 63.535664 
C 253.475729 63.535664 247.688227 65.932926 243.421673 70.19948 
C 239.155118 74.466035 236.757857 80.253537 236.757857 86.287356 
C 236.757857 92.321175 239.155118 98.108677 243.421673 102.375232 
C 247.688227 106.641786 253.475729 109.039048 259.509549 109.039048 
z
" clip-path="url(#p18aacd4a8e)" style="fill: #c70039; fill-opacity: 0.99; stroke: #c70039; stroke-opacity: 0.99"/>
    <path d="M 174.251298 136.277076 
C 180.202292 136.277076 185.91035 133.912721 190.118339 129.704733 
C 194.326327 125.496744 196.690682 119.788686 196.690682 113.837692 
C 196.690682 107.886698 194.326327 102.17864 190.118339 97.970652 
C 185.91035 93.762663 180.202292 91.398308 174.251298 91.398308 
C 168.300304 91.398308 162.592246 93.762663 158.384258 97.970652 
C 154.176269 102.17864 151.811914 107.886698 151.811914 113.837692 
C 151.811914 119.788686 154.176269 125.496744 158.384258 129.704733 
C 162.592246 133.912721 168.300304 136.277076 174.251298 136.277076 
z
" clip-path="url(#p18aacd4a8e)" style="fill: #c70039; fill-opacity: 0.99; stroke: #c70039; stroke-opacity: 0.99"/>
    <path d="M 107.631477 195.802331 
C 113.547754 195.802331 119.222513 193.451769 123.405952 189.268329 
C 127.589392 185.084889 129.939954 179.410131 129.939954 173.493854 
C 129.939954 167.577576 127.589392 161.902818 123.405952 157.719378 
C 119.222513 153.535939 113.547754 151.185377 107.631477 151.185377 
C 101.7152 151.185377 96.040441 153.535939 91.857002 157.719378 
C 87.673562 161.902818 85.323 167.577576 85.323 173.493854 
C 85.323 179.410131 87.673562 185.084889 91.857002 189.268329 
C 96.040441 193.451769 101.7152 195.802331 107.631477 195.802331 
z
" clip-path="url(#p18aacd4a8e)" style="fill: #c70039; fill-opacity: 0.99; stroke: #c70039; stroke-opacity: 0.99"/>
    <path d="M 71.169231 277.240782 
C 77.083262 277.240782 82.755866 274.891112 86.937718 270.709261 
C 91.119569 266.527409 93.469239 260.854805 93.469239 254.940774 
C 93.469239 249.026743 91.119569 243.354139 86.937718 239.172287 
C 82.755866 234.990436 77.083262 232.640766 71.169231 232.640766 
C 65.2552 232.640766 59.582596 234.990436 55.400744 239.172287 
C 51.218892 243.354139 48.869223 249.026743 48.869223 254.940774 
C 48.869223 260.854805 51.218892 266.527409 55.400744 270.709261 
C 59.582596 274.891112 65.2552 277.240782 71.169231 277.240782 
z
" clip-path="url(#p18aacd4a8e)" style="fill: #c70039; fill-opacity: 0.99; stroke: #c70039; stroke-opacity: 0.99"/>
    <path d="M 71.169244 365.977373 
C 76.97238 365.977373 82.538617 363.671763 86.642054 359.568325 
C 90.745492 355.464888 93.051102 349.898651 93.051102 344.095514 
C 93.051102 338.292378 90.745492 332.726141 86.642054 328.622704 
C 82.538617 324.519266 76.97238 322.213656 71.169244 322.213656 
C 65.366107 322.213656 59.79987 324.519266 55.696433 328.622704 
C 51.592995 332.726141 49.287385 338.292378 49.287385 344.095514 
C 49.287385 349.898651 51.592995 355.464888 55.696433 359.568325 
C 59.79987 363.671763 65.366107 365.977373 71.169244 365.977373 
z
" clip-path="url(#p18aacd4a8e)" style="fill: #c70039; fill-opacity: 0.99; stroke: #c70039; stroke-opacity: 0.99"/>
    <path d="M 107.63149 446.234471 
C 113.119089 446.234471 118.382669 444.054224 122.262987 440.173906 
C 126.143305 436.293588 128.323551 431.030008 128.323551 425.542409 
C 128.323551 420.05481 126.143305 414.79123 122.262987 410.910912 
C 118.382669 407.030594 113.119089 404.850348 107.63149 404.850348 
C 102.143891 404.850348 96.880311 407.030594 92.999993 410.910912 
C 89.119674 414.79123 86.939428 420.05481 86.939428 425.542409 
C 86.939428 431.030008 89.119674 436.293588 92.999993 440.173906 
C 96.880311 444.054224 102.143891 446.234471 107.63149 446.234471 
z
" clip-path="url(#p18aacd4a8e)" style="fill: #c70039; fill-opacity: 0.99; stroke: #c70039; stroke-opacity: 0.99"/>
    <path d="M 174.25133 505.815026 
C 179.718878 505.815026 184.963226 503.642746 188.829366 499.776606 
C 192.695506 495.910466 194.867786 490.666119 194.867786 485.198571 
C 194.867786 479.731023 192.695506 474.486675 188.829366 470.620535 
C 184.963226 466.754395 179.718878 464.582115 174.25133 464.582115 
C 168.783782 464.582115 163.539435 466.754395 159.673294 470.620535 
C 155.807154 474.486675 153.634874 479.731023 153.634874 485.198571 
C 153.634874 490.666119 155.807154 495.910466 159.673294 499.776606 
C 163.539435 503.642746 168.783782 505.815026 174.25133 505.815026 
z
" clip-path="url(#p18aacd4a8e)" style="fill: #c70039; fill-opacity: 0.99; stroke: #c70039; stroke-opacity: 0.99"/>
    <path d="M 259.509587 533.321427 
C 264.965487 533.321427 270.198661 531.153775 274.056564 527.295871 
C 277.914468 523.437968 280.082119 518.204794 280.082119 512.748894 
C 280.082119 507.292995 277.914468 502.059821 274.056564 498.201917 
C 270.198661 494.344014 264.965487 492.176362 259.509587 492.176362 
C 254.053688 492.176362 248.820513 494.344014 244.96261 498.201917 
C 241.104707 502.059821 238.937055 507.292995 238.937055 512.748894 
C 238.937055 518.204794 241.104707 523.437968 244.96261 527.295871 
C 248.820513 531.153775 254.053688 533.321427 259.509587 533.321427 
z
" clip-path="url(#p18aacd4a8e)" style="fill: #c70039; fill-opacity: 0.99; stroke: #c70039; stroke-opacity: 0.99"/>
    <path d="M 348.664323 523.164259 
C 353.897996 523.164259 358.918016 521.084899 362.618782 517.384133 
C 366.319548 513.683367 368.398908 508.663348 368.398908 503.429675 
C 368.398908 498.196001 366.319548 493.175982 362.618782 489.475216 
C 358.918016 485.77445 353.897996 483.69509 348.664323 483.69509 
C 343.43065 483.69509 338.41063 485.77445 334.709865 489.475216 
C 331.009099 493.175982 328.929739 498.196001 328.929739 503.429675 
C 328.929739 508.663348 331.009099 513.683367 334.709865 517.384133 
C 338.41063 521.084899 343.43065 523.164259 348.664323 523.164259 
z
" clip-path="url(#p18aacd4a8e)" style="fill: #c70039; fill-opacity: 0.99; stroke: #c70039; stroke-opacity: 0.99"/>
    <path d="M 426.299888 478.563247 
C 431.527297 478.563247 436.541307 476.486376 440.237643 472.79004 
C 443.933979 469.093704 446.01085 464.079693 446.01085 458.852285 
C 446.01085 453.624877 443.933979 448.610866 440.237643 444.91453 
C 436.541307 441.218194 431.527297 439.141323 426.299888 439.141323 
C 421.07248 439.141323 416.058469 441.218194 412.362134 444.91453 
C 408.665798 448.610866 406.588926 453.624877 406.588926 458.852285 
C 406.588926 464.079693 408.665798 469.093704 412.362134 472.79004 
C 416.058469 476.486376 421.07248 478.563247 426.299888 478.563247 
z
" clip-path="url(#p18aacd4a8e)" style="fill: #c70039; fill-opacity: 0.99; stroke: #c70039; stroke-opacity: 0.99"/>
    <path d="M 478.992374 406.089501 
C 484.128009 406.089501 489.053994 404.049092 492.685437 400.417649 
C 496.31688 396.786206 498.35729 391.860221 498.35729 386.724585 
C 498.35729 381.588949 496.31688 376.662964 492.685437 373.031521 
C 489.053994 369.400078 484.128009 367.359668 478.992374 367.359668 
C 473.856738 367.359668 468.930753 369.400078 465.29931 373.031521 
C 461.667867 376.662964 459.627457 381.588949 459.627457 386.724585 
C 459.627457 391.860221 461.667867 396.786206 465.29931 400.417649 
C 468.930753 404.049092 473.856738 406.089501 478.992374 406.089501 
z
" clip-path="url(#p18aacd4a8e)" style="fill: #c70039; fill-opacity: 0.99; stroke: #c70039; stroke-opacity: 0.99"/>
   </g>
   <g id="text_1">
    <g id="patch_2">
     <path d="M 471.917488 307.833281 
L 523.34405 307.833281 
L 523.34405 291.202969 
L 471.917488 291.202969 
z
" clip-path="url(#p18aacd4a8e)" style="fill: #ffffff; opacity: 0.7; stroke: #000000; stroke-linejoin: miter"/>
    </g>
    <g clip-path="url(#p18aacd4a8e)">
     <!-- Mel Blanc -->
     <g transform="translate(475.877488 302.001562)scale(0.09 -0.09)">
      <defs>
       <path id="DejaVuSans-4d" d="M 628 4666 
L 1569 4666 
L 2759 1491 
L 3956 4666 
L 4897 4666 
L 4897 0 
L 4281 0 
L 4281 4097 
L 3078 897 
L 2444 897 
L 1241 4097 
L 1241 0 
L 628 0 
L 628 4666 
z
" transform="scale(0.015625)"/>
       <path id="DejaVuSans-65" d="M 3597 1894 
L 3597 1613 
L 953 1613 
Q 991 1019 1311 708 
Q 1631 397 2203 397 
Q 2534 397 2845 478 
Q 3156 559 3463 722 
L 3463 178 
Q 3153 47 2828 -22 
Q 2503 -91 2169 -91 
Q 1331 -91 842 396 
Q 353 884 353 1716 
Q 353 2575 817 3079 
Q 1281 3584 2069 3584 
Q 2775 3584 3186 3129 
Q 3597 2675 3597 1894 
z
M 3022 2063 
Q 3016 2534 2758 2815 
Q 2500 3097 2075 3097 
Q 1594 3097 1305 2825 
Q 1016 2553 972 2059 
L 3022 2063 
z
" transform="scale(0.015625)"/>
       <path id="DejaVuSans-6c" d="M 603 4863 
L 1178 4863 
L 1178 0 
L 603 0 
L 603 4863 
z
" transform="scale(0.015625)"/>
       <path id="DejaVuSans-20" transform="scale(0.015625)"/>
       <path id="DejaVuSans-42" d="M 1259 2228 
L 1259 519 
L 2272 519 
Q 2781 519 3026 730 
Q 3272 941 3272 1375 
Q 3272 1813 3026 2020 
Q 2781 2228 2272 2228 
L 1259 2228 
z
M 1259 4147 
L 1259 2741 
L 2194 2741 
Q 2656 2741 2882 2914 
Q 3109 3088 3109 3444 
Q 3109 3797 2882 3972 
Q 2656 4147 2194 4147 
L 1259 4147 
z
M 628 4666 
L 2241 4666 
Q 2963 4666 3353 4366 
Q 3744 4066 3744 3513 
Q 3744 3084 3544 2831 
Q 3344 2578 2956 2516 
Q 3422 2416 3680 2098 
Q 3938 1781 3938 1306 
Q 3938 681 3513 340 
Q 3088 0 2303 0 
L 628 0 
L 628 4666 
z
" transform="scale(0.015625)"/>
       <path id="DejaVuSans-61" d="M 2194 1759 
Q 1497 1759 1228 1600 
Q 959 1441 959 1056 
Q 959 750 1161 570 
Q 1363 391 1709 391 
Q 2188 391 2477 730 
Q 2766 1069 2766 1631 
L 2766 1759 
L 2194 1759 
z
M 3341 1997 
L 3341 0 
L 2766 0 
L 2766 531 
Q 2569 213 2275 61 
Q 1981 -91 1556 -91 
Q 1019 -91 701 211 
Q 384 513 384 1019 
Q 384 1609 779 1909 
Q 1175 2209 1959 2209 
L 2766 2209 
L 2766 2266 
Q 2766 2663 2505 2880 
Q 2244 3097 1772 3097 
Q 1472 3097 1187 3025 
Q 903 2953 641 2809 
L 641 3341 
Q 956 3463 1253 3523 
Q 1550 3584 1831 3584 
Q 2591 3584 2966 3190 
Q 3341 2797 3341 1997 
z
" transform="scale(0.015625)"/>
       <path id="DejaVuSans-6e" d="M 3513 2113 
L 3513 0 
L 2938 0 
L 2938 2094 
Q 2938 2591 2744 2837 
Q 2550 3084 2163 3084 
Q 1697 3084 1428 2787 
Q 1159 2491 1159 1978 
L 1159 0 
L 581 0 
L 581 3500 
L 1159 3500 
L 1159 2956 
Q 1366 3272 1645 3428 
Q 1925 3584 2291 3584 
Q 2894 3584 3203 3211 
Q 3513 2838 3513 2113 
z
" transform="scale(0.015625)"/>
       <path id="DejaVuSans-63" d="M 3122 3366 
L 3122 2828 
Q 2878 2963 2633 3030 
Q 2388 3097 2138 3097 
Q 1578 3097 1268 2742 
Q 959 2388 959 1747 
Q 959 1106 1268 751 
Q 1578 397 2138 397 
Q 2388 397 2633 464 
Q 2878 531 3122 666 
L 3122 134 
Q 2881 22 2623 -34 
Q 2366 -91 2075 -91 
Q 1284 -91 818 406 
Q 353 903 353 1747 
Q 353 2603 823 3093 
Q 1294 3584 2113 3584 
Q 2378 3584 2631 3529 
Q 2884 3475 3122 3366 
z
" transform="scale(0.015625)"/>
      </defs>
      <use xlink:href="#DejaVuSans-4d"/>
      <use xlink:href="#DejaVuSans-65" x="86.279297"/>
      <use xlink:href="#DejaVuSans-6c" x="147.802734"/>
      <use xlink:href="#DejaVuSans-20" x="175.585938"/>
      <use xlink:href="#DejaVuSans-42" x="207.373047"/>
      <use xlink:href="#DejaVuSans-6c" x="275.976562"/>
      <use xlink:href="#DejaVuSans-61" x="303.759766"/>
      <use xlink:href="#DejaVuSans-6e" x="365.039062"/>
      <use xlink:href="#DejaVuSans-63" x="428.417969"/>
     </g>
    </g>
   </g>
   <g id="text_2">
    <g id="patch_3">
     <path d="M 434.419145 220.62679 
L 523.565551 220.62679 
L 523.565551 203.996477 
L 434.419145 203.996477 
z
" clip-path="url(#p18aacd4a8e)" style="fill: #ffffff; opacity: 0.7; stroke: #000000; stroke-linejoin: miter"/>
    </g>
    <g clip-path="url(#p18aacd4a8e)">
     <!-- Sylvester Stallone -->
     <g transform="translate(438.379145 214.795071)scale(0.09 -0.09)">
      <defs>
       <path id="DejaVuSans-53" d="M 3425 4513 
L 3425 3897 
Q 3066 4069 2747 4153 
Q 2428 4238 2131 4238 
Q 1616 4238 1336 4038 
Q 1056 3838 1056 3469 
Q 1056 3159 1242 3001 
Q 1428 2844 1947 2747 
L 2328 2669 
Q 3034 2534 3370 2195 
Q 3706 1856 3706 1288 
Q 3706 609 3251 259 
Q 2797 -91 1919 -91 
Q 1588 -91 1214 -16 
Q 841 59 441 206 
L 441 856 
Q 825 641 1194 531 
Q 1563 422 1919 422 
Q 2459 422 2753 634 
Q 3047 847 3047 1241 
Q 3047 1584 2836 1778 
Q 2625 1972 2144 2069 
L 1759 2144 
Q 1053 2284 737 2584 
Q 422 2884 422 3419 
Q 422 4038 858 4394 
Q 1294 4750 2059 4750 
Q 2388 4750 2728 4690 
Q 3069 4631 3425 4513 
z
" transform="scale(0.015625)"/>
       <path id="DejaVuSans-79" d="M 2059 -325 
Q 1816 -950 1584 -1140 
Q 1353 -1331 966 -1331 
L 506 -1331 
L 506 -850 
L 844 -850 
Q 1081 -850 1212 -737 
Q 1344 -625 1503 -206 
L 1606 56 
L 191 3500 
L 800 3500 
L 1894 763 
L 2988 3500 
L 3597 3500 
L 2059 -325 
z
" transform="scale(0.015625)"/>
       <path id="DejaVuSans-76" d="M 191 3500 
L 800 3500 
L 1894 563 
L 2988 3500 
L 3597 3500 
L 2284 0 
L 1503 0 
L 191 3500 
z
" transform="scale(0.015625)"/>
       <path id="DejaVuSans-73" d="M 2834 3397 
L 2834 2853 
Q 2591 2978 2328 3040 
Q 2066 3103 1784 3103 
Q 1356 3103 1142 2972 
Q 928 2841 928 2578 
Q 928 2378 1081 2264 
Q 1234 2150 1697 2047 
L 1894 2003 
Q 2506 1872 2764 1633 
Q 3022 1394 3022 966 
Q 3022 478 2636 193 
Q 2250 -91 1575 -91 
Q 1294 -91 989 -36 
Q 684 19 347 128 
L 347 722 
Q 666 556 975 473 
Q 1284 391 1588 391 
Q 1994 391 2212 530 
Q 2431 669 2431 922 
Q 2431 1156 2273 1281 
Q 2116 1406 1581 1522 
L 1381 1569 
Q 847 1681 609 1914 
Q 372 2147 372 2553 
Q 372 3047 722 3315 
Q 1072 3584 1716 3584 
Q 2034 3584 2315 3537 
Q 2597 3491 2834 3397 
z
" transform="scale(0.015625)"/>
       <path id="DejaVuSans-74" d="M 1172 4494 
L 1172 3500 
L 2356 3500 
L 2356 3053 
L 1172 3053 
L 1172 1153 
Q 1172 725 1289 603 
Q 1406 481 1766 481 
L 2356 481 
L 2356 0 
L 1766 0 
Q 1100 0 847 248 
Q 594 497 594 1153 
L 594 3053 
L 172 3053 
L 172 3500 
L 594 3500 
L 594 4494 
L 1172 4494 
z
" transform="scale(0.015625)"/>
       <path id="DejaVuSans-72" d="M 2631 2963 
Q 2534 3019 2420 3045 
Q 2306 3072 2169 3072 
Q 1681 3072 1420 2755 
Q 1159 2438 1159 1844 
L 1159 0 
L 581 0 
L 581 3500 
L 1159 3500 
L 1159 2956 
Q 1341 3275 1631 3429 
Q 1922 3584 2338 3584 
Q 2397 3584 2469 3576 
Q 2541 3569 2628 3553 
L 2631 2963 
z
" transform="scale(0.015625)"/>
       <path id="DejaVuSans-6f" d="M 1959 3097 
Q 1497 3097 1228 2736 
Q 959 2375 959 1747 
Q 959 1119 1226 758 
Q 1494 397 1959 397 
Q 2419 397 2687 759 
Q 2956 1122 2956 1747 
Q 2956 2369 2687 2733 
Q 2419 3097 1959 3097 
z
M 1959 3584 
Q 2709 3584 3137 3096 
Q 3566 2609 3566 1747 
Q 3566 888 3137 398 
Q 2709 -91 1959 -91 
Q 1206 -91 779 398 
Q 353 888 353 1747 
Q 353 2609 779 3096 
Q 1206 3584 1959 3584 
z
" transform="scale(0.015625)"/>
      </defs>
      <use xlink:href="#DejaVuSans-53"/>
      <use xlink:href="#DejaVuSans-79" x="63.476562"/>
      <use xlink:href="#DejaVuSans-6c" x="122.65625"/>
      <use xlink:href="#DejaVuSans-76" x="150.439453"/>
      <use xlink:href="#DejaVuSans-65" x="209.619141"/>
      <use xlink:href="#DejaVuSans-73" x="271.142578"/>
      <use xlink:href="#DejaVuSans-74" x="323.242188"/>
      <use xlink:href="#DejaVuSans-65" x="362.451172"/>
      <use xlink:href="#DejaVuSans-72" x="423.974609"/>
      <use xlink:href="#DejaVuSans-20" x="465.087891"/>
      <use xlink:href="#DejaVuSans-53" x="496.875"/>
      <use xlink:href="#DejaVuSans-74" x="560.351562"/>
      <use xlink:href="#DejaVuSans-61" x="599.560547"/>
      <use xlink:href="#DejaVuSans-6c" x="660.839844"/>
      <use xlink:href="#DejaVuSans-6c" x="688.623047"/>
      <use xlink:href="#DejaVuSans-6f" x="716.40625"/>
      <use xlink:href="#DejaVuSans-6e" x="777.587891"/>
      <use xlink:href="#DejaVuSans-65" x="840.966797"/>
     </g>
    </g>
   </g>
   <g id="text_3">
    <g id="patch_4">
     <path d="M 393.1011 148.499083 
L 459.4986 148.499083 
L 459.4986 131.86877 
L 393.1011 131.86877 
z
" clip-path="url(#p18aacd4a8e)" style="fill: #ffffff; opacity: 0.7; stroke: #000000; stroke-linejoin: miter"/>
    </g>
    <g clip-path="url(#p18aacd4a8e)">
     <!-- Carla Gugino -->
     <g transform="translate(397.0611 142.667364)scale(0.09 -0.09)">
      <defs>
       <path id="DejaVuSans-43" d="M 4122 4306 
L 4122 3641 
Q 3803 3938 3442 4084 
Q 3081 4231 2675 4231 
Q 1875 4231 1450 3742 
Q 1025 3253 1025 2328 
Q 1025 1406 1450 917 
Q 1875 428 2675 428 
Q 3081 428 3442 575 
Q 3803 722 4122 1019 
L 4122 359 
Q 3791 134 3420 21 
Q 3050 -91 2638 -91 
Q 1578 -91 968 557 
Q 359 1206 359 2328 
Q 359 3453 968 4101 
Q 1578 4750 2638 4750 
Q 3056 4750 3426 4639 
Q 3797 4528 4122 4306 
z
" transform="scale(0.015625)"/>
       <path id="DejaVuSans-47" d="M 3809 666 
L 3809 1919 
L 2778 1919 
L 2778 2438 
L 4434 2438 
L 4434 434 
Q 4069 175 3628 42 
Q 3188 -91 2688 -91 
Q 1594 -91 976 548 
Q 359 1188 359 2328 
Q 359 3472 976 4111 
Q 1594 4750 2688 4750 
Q 3144 4750 3555 4637 
Q 3966 4525 4313 4306 
L 4313 3634 
Q 3963 3931 3569 4081 
Q 3175 4231 2741 4231 
Q 1884 4231 1454 3753 
Q 1025 3275 1025 2328 
Q 1025 1384 1454 906 
Q 1884 428 2741 428 
Q 3075 428 3337 486 
Q 3600 544 3809 666 
z
" transform="scale(0.015625)"/>
       <path id="DejaVuSans-75" d="M 544 1381 
L 544 3500 
L 1119 3500 
L 1119 1403 
Q 1119 906 1312 657 
Q 1506 409 1894 409 
Q 2359 409 2629 706 
Q 2900 1003 2900 1516 
L 2900 3500 
L 3475 3500 
L 3475 0 
L 2900 0 
L 2900 538 
Q 2691 219 2414 64 
Q 2138 -91 1772 -91 
Q 1169 -91 856 284 
Q 544 659 544 1381 
z
M 1991 3584 
L 1991 3584 
z
" transform="scale(0.015625)"/>
       <path id="DejaVuSans-67" d="M 2906 1791 
Q 2906 2416 2648 2759 
Q 2391 3103 1925 3103 
Q 1463 3103 1205 2759 
Q 947 2416 947 1791 
Q 947 1169 1205 825 
Q 1463 481 1925 481 
Q 2391 481 2648 825 
Q 2906 1169 2906 1791 
z
M 3481 434 
Q 3481 -459 3084 -895 
Q 2688 -1331 1869 -1331 
Q 1566 -1331 1297 -1286 
Q 1028 -1241 775 -1147 
L 775 -588 
Q 1028 -725 1275 -790 
Q 1522 -856 1778 -856 
Q 2344 -856 2625 -561 
Q 2906 -266 2906 331 
L 2906 616 
Q 2728 306 2450 153 
Q 2172 0 1784 0 
Q 1141 0 747 490 
Q 353 981 353 1791 
Q 353 2603 747 3093 
Q 1141 3584 1784 3584 
Q 2172 3584 2450 3431 
Q 2728 3278 2906 2969 
L 2906 3500 
L 3481 3500 
L 3481 434 
z
" transform="scale(0.015625)"/>
       <path id="DejaVuSans-69" d="M 603 3500 
L 1178 3500 
L 1178 0 
L 603 0 
L 603 3500 
z
M 603 4863 
L 1178 4863 
L 1178 4134 
L 603 4134 
L 603 4863 
z
" transform="scale(0.015625)"/>
      </defs>
      <use xlink:href="#DejaVuSans-43"/>
      <use xlink:href="#DejaVuSans-61" x="69.824219"/>
      <use xlink:href="#DejaVuSans-72" x="131.103516"/>
      <use xlink:href="#DejaVuSans-6c" x="172.216797"/>
      <use xlink:href="#DejaVuSans-61" x="200"/>
      <use xlink:href="#DejaVuSans-20" x="261.279297"/>
      <use xlink:href="#DejaVuSans-47" x="293.066406"/>
      <use xlink:href="#DejaVuSans-75" x="370.556641"/>
      <use xlink:href="#DejaVuSans-67" x="433.935547"/>
      <use xlink:href="#DejaVuSans-69" x="497.412109"/>
      <use xlink:href="#DejaVuSans-6e" x="525.195312"/>
      <use xlink:href="#DejaVuSans-6f" x="588.574219"/>
     </g>
    </g>
   </g>
   <g id="text_4">
    <g id="patch_5">
     <path d="M 313.932729 103.921719 
L 383.395854 103.921719 
L 383.395854 87.291406 
L 313.932729 87.291406 
z
" clip-path="url(#p18aacd4a8e)" style="fill: #ffffff; opacity: 0.7; stroke: #000000; stroke-linejoin: miter"/>
    </g>
    <g clip-path="url(#p18aacd4a8e)">
     <!-- Joe Mantegna -->
     <g transform="translate(317.892729 98.09)scale(0.09 -0.09)">
      <defs>
       <path id="DejaVuSans-4a" d="M 628 4666 
L 1259 4666 
L 1259 325 
Q 1259 -519 939 -900 
Q 619 -1281 -91 -1281 
L -331 -1281 
L -331 -750 
L -134 -750 
Q 284 -750 456 -515 
Q 628 -281 628 325 
L 628 4666 
z
" transform="scale(0.015625)"/>
      </defs>
      <use xlink:href="#DejaVuSans-4a"/>
      <use xlink:href="#DejaVuSans-6f" x="29.492188"/>
      <use xlink:href="#DejaVuSans-65" x="90.673828"/>
      <use xlink:href="#DejaVuSans-20" x="152.197266"/>
      <use xlink:href="#DejaVuSans-4d" x="183.984375"/>
      <use xlink:href="#DejaVuSans-61" x="270.263672"/>
      <use xlink:href="#DejaVuSans-6e" x="331.542969"/>
      <use xlink:href="#DejaVuSans-74" x="394.921875"/>
      <use xlink:href="#DejaVuSans-65" x="434.130859"/>
      <use xlink:href="#DejaVuSans-67" x="495.654297"/>
      <use xlink:href="#DejaVuSans-6e" x="559.130859"/>
      <use xlink:href="#DejaVuSans-61" x="622.509766"/>
     </g>
    </g>
   </g>
   <g id="text_5">
    <g id="patch_6">
     <path d="M 225.640017 94.602512 
L 293.37908 94.602512 
L 293.37908 77.9722 
L 225.640017 77.9722 
z
" clip-path="url(#p18aacd4a8e)" style="fill: #ffffff; opacity: 0.7; stroke: #000000; stroke-linejoin: miter"/>
    </g>
    <g clip-path="url(#p18aacd4a8e)">
     <!-- Dom DeLuise -->
     <g transform="translate(229.600017 88.770793)scale(0.09 -0.09)">
      <defs>
       <path id="DejaVuSans-44" d="M 1259 4147 
L 1259 519 
L 2022 519 
Q 2988 519 3436 956 
Q 3884 1394 3884 2338 
Q 3884 3275 3436 3711 
Q 2988 4147 2022 4147 
L 1259 4147 
z
M 628 4666 
L 1925 4666 
Q 3281 4666 3915 4102 
Q 4550 3538 4550 2338 
Q 4550 1131 3912 565 
Q 3275 0 1925 0 
L 628 0 
L 628 4666 
z
" transform="scale(0.015625)"/>
       <path id="DejaVuSans-6d" d="M 3328 2828 
Q 3544 3216 3844 3400 
Q 4144 3584 4550 3584 
Q 5097 3584 5394 3201 
Q 5691 2819 5691 2113 
L 5691 0 
L 5113 0 
L 5113 2094 
Q 5113 2597 4934 2840 
Q 4756 3084 4391 3084 
Q 3944 3084 3684 2787 
Q 3425 2491 3425 1978 
L 3425 0 
L 2847 0 
L 2847 2094 
Q 2847 2600 2669 2842 
Q 2491 3084 2119 3084 
Q 1678 3084 1418 2786 
Q 1159 2488 1159 1978 
L 1159 0 
L 581 0 
L 581 3500 
L 1159 3500 
L 1159 2956 
Q 1356 3278 1631 3431 
Q 1906 3584 2284 3584 
Q 2666 3584 2933 3390 
Q 3200 3197 3328 2828 
z
" transform="scale(0.015625)"/>
       <path id="DejaVuSans-4c" d="M 628 4666 
L 1259 4666 
L 1259 531 
L 3531 531 
L 3531 0 
L 628 0 
L 628 4666 
z
" transform="scale(0.015625)"/>
      </defs>
      <use xlink:href="#DejaVuSans-44"/>
      <use xlink:href="#DejaVuSans-6f" x="77.001953"/>
      <use xlink:href="#DejaVuSans-6d" x="138.183594"/>
      <use xlink:href="#DejaVuSans-20" x="235.595703"/>
      <use xlink:href="#DejaVuSans-44" x="267.382812"/>
      <use xlink:href="#DejaVuSans-65" x="344.384766"/>
      <use xlink:href="#DejaVuSans-4c" x="405.908203"/>
      <use xlink:href="#DejaVuSans-75" x="459.871094"/>
      <use xlink:href="#DejaVuSans-69" x="523.25"/>
      <use xlink:href="#DejaVuSans-73" x="551.033203"/>
      <use xlink:href="#DejaVuSans-65" x="603.132812"/>
     </g>
    </g>
   </g>
   <g id="text_6">
    <g id="patch_7">
     <path d="M 148.341142 122.152849 
L 200.161454 122.152849 
L 200.161454 105.522536 
L 148.341142 105.522536 
z
" clip-path="url(#p18aacd4a8e)" style="fill: #ffffff; opacity: 0.7; stroke: #000000; stroke-linejoin: miter"/>
    </g>
    <g clip-path="url(#p18aacd4a8e)">
     <!-- Tim Curry -->
     <g transform="translate(152.301142 116.32113)scale(0.09 -0.09)">
      <defs>
       <path id="DejaVuSans-54" d="M -19 4666 
L 3928 4666 
L 3928 4134 
L 2272 4134 
L 2272 0 
L 1638 0 
L 1638 4134 
L -19 4134 
L -19 4666 
z
" transform="scale(0.015625)"/>
      </defs>
      <use xlink:href="#DejaVuSans-54"/>
      <use xlink:href="#DejaVuSans-69" x="57.958984"/>
      <use xlink:href="#DejaVuSans-6d" x="85.742188"/>
      <use xlink:href="#DejaVuSans-20" x="183.154297"/>
      <use xlink:href="#DejaVuSans-43" x="214.941406"/>
      <use xlink:href="#DejaVuSans-75" x="284.765625"/>
      <use xlink:href="#DejaVuSans-72" x="348.144531"/>
      <use xlink:href="#DejaVuSans-72" x="387.507812"/>
      <use xlink:href="#DejaVuSans-79" x="428.621094"/>
     </g>
    </g>
   </g>
   <g id="text_7">
    <g id="patch_8">
     <path d="M 71.180071 181.80901 
L 144.082883 181.80901 
L 144.082883 165.178697 
L 71.180071 165.178697 
z
" clip-path="url(#p18aacd4a8e)" style="fill: #ffffff; opacity: 0.7; stroke: #000000; stroke-linejoin: miter"/>
    </g>
    <g clip-path="url(#p18aacd4a8e)">
     <!-- Jack Nicholson -->
     <g transform="translate(75.140071 175.977291)scale(0.09 -0.09)">
      <defs>
       <path id="DejaVuSans-6b" d="M 581 4863 
L 1159 4863 
L 1159 1991 
L 2875 3500 
L 3609 3500 
L 1753 1863 
L 3688 0 
L 2938 0 
L 1159 1709 
L 1159 0 
L 581 0 
L 581 4863 
z
" transform="scale(0.015625)"/>
       <path id="DejaVuSans-4e" d="M 628 4666 
L 1478 4666 
L 3547 763 
L 3547 4666 
L 4159 4666 
L 4159 0 
L 3309 0 
L 1241 3903 
L 1241 0 
L 628 0 
L 628 4666 
z
" transform="scale(0.015625)"/>
       <path id="DejaVuSans-68" d="M 3513 2113 
L 3513 0 
L 2938 0 
L 2938 2094 
Q 2938 2591 2744 2837 
Q 2550 3084 2163 3084 
Q 1697 3084 1428 2787 
Q 1159 2491 1159 1978 
L 1159 0 
L 581 0 
L 581 4863 
L 1159 4863 
L 1159 2956 
Q 1366 3272 1645 3428 
Q 1925 3584 2291 3584 
Q 2894 3584 3203 3211 
Q 3513 2838 3513 2113 
z
" transform="scale(0.015625)"/>
      </defs>
      <use xlink:href="#DejaVuSans-4a"/>
      <use xlink:href="#DejaVuSans-61" x="29.492188"/>
      <use xlink:href="#DejaVuSans-63" x="90.771484"/>
      <use xlink:href="#DejaVuSans-6b" x="145.751953"/>
      <use xlink:href="#DejaVuSans-20" x="203.662109"/>
      <use xlink:href="#DejaVuSans-4e" x="235.449219"/>
      <use xlink:href="#DejaVuSans-69" x="310.253906"/>
      <use xlink:href="#DejaVuSans-63" x="338.037109"/>
      <use xlink:href="#DejaVuSans-68" x="393.017578"/>
      <use xlink:href="#DejaVuSans-6f" x="456.396484"/>
      <use xlink:href="#DejaVuSans-6c" x="517.578125"/>
      <use xlink:href="#DejaVuSans-73" x="545.361328"/>
      <use xlink:href="#DejaVuSans-6f" x="597.460938"/>
      <use xlink:href="#DejaVuSans-6e" x="658.642578"/>
     </g>
    </g>
   </g>
   <g id="text_8">
    <g id="patch_9">
     <path d="M 36.210559 263.25593 
L 106.127903 263.25593 
L 106.127903 246.625618 
L 36.210559 246.625618 
z
" clip-path="url(#p18aacd4a8e)" style="fill: #ffffff; opacity: 0.7; stroke: #000000; stroke-linejoin: miter"/>
    </g>
    <g clip-path="url(#p18aacd4a8e)">
     <!-- Danny DeVito -->
     <g transform="translate(40.170559 257.424211)scale(0.09 -0.09)">
      <defs>
       <path id="DejaVuSans-56" d="M 1831 0 
L 50 4666 
L 709 4666 
L 2188 738 
L 3669 4666 
L 4325 4666 
L 2547 0 
L 1831 0 
z
" transform="scale(0.015625)"/>
      </defs>
      <use xlink:href="#DejaVuSans-44"/>
      <use xlink:href="#DejaVuSans-61" x="77.001953"/>
      <use xlink:href="#DejaVuSans-6e" x="138.28125"/>
      <use xlink:href="#DejaVuSans-6e" x="201.660156"/>
      <use xlink:href="#DejaVuSans-79" x="265.039062"/>
      <use xlink:href="#DejaVuSans-20" x="324.21875"/>
      <use xlink:href="#DejaVuSans-44" x="356.005859"/>
      <use xlink:href="#DejaVuSans-65" x="433.007812"/>
      <use xlink:href="#DejaVuSans-56" x="494.53125"/>
      <use xlink:href="#DejaVuSans-69" x="560.689453"/>
      <use xlink:href="#DejaVuSans-74" x="588.472656"/>
      <use xlink:href="#DejaVuSans-6f" x="627.681641"/>
     </g>
    </g>
   </g>
   <g id="text_9">
    <g id="patch_10">
     <path d="M 33.796744 352.410671 
L 108.541744 352.410671 
L 108.541744 335.780358 
L 33.796744 335.780358 
z
" clip-path="url(#p18aacd4a8e)" style="fill: #ffffff; opacity: 0.7; stroke: #000000; stroke-linejoin: miter"/>
    </g>
    <g clip-path="url(#p18aacd4a8e)">
     <!-- Steve Buscemi -->
     <g transform="translate(37.756744 346.578952)scale(0.09 -0.09)">
      <use xlink:href="#DejaVuSans-53"/>
      <use xlink:href="#DejaVuSans-74" x="63.476562"/>
      <use xlink:href="#DejaVuSans-65" x="102.685547"/>
      <use xlink:href="#DejaVuSans-76" x="164.208984"/>
      <use xlink:href="#DejaVuSans-65" x="223.388672"/>
      <use xlink:href="#DejaVuSans-20" x="284.912109"/>
      <use xlink:href="#DejaVuSans-42" x="316.699219"/>
      <use xlink:href="#DejaVuSans-75" x="385.302734"/>
      <use xlink:href="#DejaVuSans-73" x="448.681641"/>
      <use xlink:href="#DejaVuSans-63" x="500.78125"/>
      <use xlink:href="#DejaVuSans-65" x="555.761719"/>
      <use xlink:href="#DejaVuSans-6d" x="617.285156"/>
      <use xlink:href="#DejaVuSans-69" x="714.697266"/>
     </g>
    </g>
   </g>
   <g id="text_10">
    <g id="patch_11">
     <path d="M 74.069927 433.857565 
L 141.193052 433.857565 
L 141.193052 417.227253 
L 74.069927 417.227253 
z
" clip-path="url(#p18aacd4a8e)" style="fill: #ffffff; opacity: 0.7; stroke: #000000; stroke-linejoin: miter"/>
    </g>
    <g clip-path="url(#p18aacd4a8e)">
     <!-- James Mason -->
     <g transform="translate(78.029927 428.025847)scale(0.09 -0.09)">
      <use xlink:href="#DejaVuSans-4a"/>
      <use xlink:href="#DejaVuSans-61" x="29.492188"/>
      <use xlink:href="#DejaVuSans-6d" x="90.771484"/>
      <use xlink:href="#DejaVuSans-65" x="188.183594"/>
      <use xlink:href="#DejaVuSans-73" x="249.707031"/>
      <use xlink:href="#DejaVuSans-20" x="301.806641"/>
      <use xlink:href="#DejaVuSans-4d" x="333.59375"/>
      <use xlink:href="#DejaVuSans-61" x="419.873047"/>
      <use xlink:href="#DejaVuSans-73" x="481.152344"/>
      <use xlink:href="#DejaVuSans-6f" x="533.251953"/>
      <use xlink:href="#DejaVuSans-6e" x="594.433594"/>
     </g>
    </g>
   </g>
   <g id="text_11">
    <g id="patch_12">
     <path d="M 147.617658 493.513727 
L 200.885002 493.513727 
L 200.885002 476.883414 
L 147.617658 476.883414 
z
" clip-path="url(#p18aacd4a8e)" style="fill: #ffffff; opacity: 0.7; stroke: #000000; stroke-linejoin: miter"/>
    </g>
    <g clip-path="url(#p18aacd4a8e)">
     <!-- Ray Liotta -->
     <g transform="translate(151.577658 487.682008)scale(0.09 -0.09)">
      <defs>
       <path id="DejaVuSans-52" d="M 2841 2188 
Q 3044 2119 3236 1894 
Q 3428 1669 3622 1275 
L 4263 0 
L 3584 0 
L 2988 1197 
Q 2756 1666 2539 1819 
Q 2322 1972 1947 1972 
L 1259 1972 
L 1259 0 
L 628 0 
L 628 4666 
L 2053 4666 
Q 2853 4666 3247 4331 
Q 3641 3997 3641 3322 
Q 3641 2881 3436 2590 
Q 3231 2300 2841 2188 
z
M 1259 4147 
L 1259 2491 
L 2053 2491 
Q 2509 2491 2742 2702 
Q 2975 2913 2975 3322 
Q 2975 3731 2742 3939 
Q 2509 4147 2053 4147 
L 1259 4147 
z
" transform="scale(0.015625)"/>
      </defs>
      <use xlink:href="#DejaVuSans-52"/>
      <use xlink:href="#DejaVuSans-61" x="67.232422"/>
      <use xlink:href="#DejaVuSans-79" x="128.511719"/>
      <use xlink:href="#DejaVuSans-20" x="187.691406"/>
      <use xlink:href="#DejaVuSans-4c" x="219.478516"/>
      <use xlink:href="#DejaVuSans-69" x="275.191406"/>
      <use xlink:href="#DejaVuSans-6f" x="302.974609"/>
      <use xlink:href="#DejaVuSans-74" x="364.15625"/>
      <use xlink:href="#DejaVuSans-74" x="403.365234"/>
      <use xlink:href="#DejaVuSans-61" x="442.574219"/>
     </g>
    </g>
   </g>
   <g id="text_12">
    <g id="patch_13">
     <path d="M 217.258103 521.06405 
L 301.761072 521.06405 
L 301.761072 504.433738 
L 217.258103 504.433738 
z
" clip-path="url(#p18aacd4a8e)" style="fill: #ffffff; opacity: 0.7; stroke: #000000; stroke-linejoin: miter"/>
    </g>
    <g clip-path="url(#p18aacd4a8e)">
     <!-- Anthony Hopkins -->
     <g transform="translate(221.218103 515.232332)scale(0.09 -0.09)">
      <defs>
       <path id="DejaVuSans-41" d="M 2188 4044 
L 1331 1722 
L 3047 1722 
L 2188 4044 
z
M 1831 4666 
L 2547 4666 
L 4325 0 
L 3669 0 
L 3244 1197 
L 1141 1197 
L 716 0 
L 50 0 
L 1831 4666 
z
" transform="scale(0.015625)"/>
       <path id="DejaVuSans-48" d="M 628 4666 
L 1259 4666 
L 1259 2753 
L 3553 2753 
L 3553 4666 
L 4184 4666 
L 4184 0 
L 3553 0 
L 3553 2222 
L 1259 2222 
L 1259 0 
L 628 0 
L 628 4666 
z
" transform="scale(0.015625)"/>
       <path id="DejaVuSans-70" d="M 1159 525 
L 1159 -1331 
L 581 -1331 
L 581 3500 
L 1159 3500 
L 1159 2969 
Q 1341 3281 1617 3432 
Q 1894 3584 2278 3584 
Q 2916 3584 3314 3078 
Q 3713 2572 3713 1747 
Q 3713 922 3314 415 
Q 2916 -91 2278 -91 
Q 1894 -91 1617 61 
Q 1341 213 1159 525 
z
M 3116 1747 
Q 3116 2381 2855 2742 
Q 2594 3103 2138 3103 
Q 1681 3103 1420 2742 
Q 1159 2381 1159 1747 
Q 1159 1113 1420 752 
Q 1681 391 2138 391 
Q 2594 391 2855 752 
Q 3116 1113 3116 1747 
z
" transform="scale(0.015625)"/>
      </defs>
      <use xlink:href="#DejaVuSans-41"/>
      <use xlink:href="#DejaVuSans-6e" x="68.408203"/>
      <use xlink:href="#DejaVuSans-74" x="131.787109"/>
      <use xlink:href="#DejaVuSans-68" x="170.996094"/>
      <use xlink:href="#DejaVuSans-6f" x="234.375"/>
      <use xlink:href="#DejaVuSans-6e" x="295.556641"/>
      <use xlink:href="#DejaVuSans-79" x="358.935547"/>
      <use xlink:href="#DejaVuSans-20" x="418.115234"/>
      <use xlink:href="#DejaVuSans-48" x="449.902344"/>
      <use xlink:href="#DejaVuSans-6f" x="525.097656"/>
      <use xlink:href="#DejaVuSans-70" x="586.279297"/>
      <use xlink:href="#DejaVuSans-6b" x="649.755859"/>
      <use xlink:href="#DejaVuSans-69" x="707.666016"/>
      <use xlink:href="#DejaVuSans-6e" x="735.449219"/>
      <use xlink:href="#DejaVuSans-73" x="798.828125"/>
     </g>
    </g>
   </g>
   <g id="text_13">
    <g id="patch_14">
     <path d="M 306.097839 511.744831 
L 391.230808 511.744831 
L 391.230808 495.114518 
L 306.097839 495.114518 
z
" clip-path="url(#p18aacd4a8e)" style="fill: #ffffff; opacity: 0.7; stroke: #000000; stroke-linejoin: miter"/>
    </g>
    <g clip-path="url(#p18aacd4a8e)">
     <!-- Janeane Garofalo -->
     <g transform="translate(310.057839 505.913112)scale(0.09 -0.09)">
      <defs>
       <path id="DejaVuSans-66" d="M 2375 4863 
L 2375 4384 
L 1825 4384 
Q 1516 4384 1395 4259 
Q 1275 4134 1275 3809 
L 1275 3500 
L 2222 3500 
L 2222 3053 
L 1275 3053 
L 1275 0 
L 697 0 
L 697 3053 
L 147 3053 
L 147 3500 
L 697 3500 
L 697 3744 
Q 697 4328 969 4595 
Q 1241 4863 1831 4863 
L 2375 4863 
z
" transform="scale(0.015625)"/>
      </defs>
      <use xlink:href="#DejaVuSans-4a"/>
      <use xlink:href="#DejaVuSans-61" x="29.492188"/>
      <use xlink:href="#DejaVuSans-6e" x="90.771484"/>
      <use xlink:href="#DejaVuSans-65" x="154.150391"/>
      <use xlink:href="#DejaVuSans-61" x="215.673828"/>
      <use xlink:href="#DejaVuSans-6e" x="276.953125"/>
      <use xlink:href="#DejaVuSans-65" x="340.332031"/>
      <use xlink:href="#DejaVuSans-20" x="401.855469"/>
      <use xlink:href="#DejaVuSans-47" x="433.642578"/>
      <use xlink:href="#DejaVuSans-61" x="511.132812"/>
      <use xlink:href="#DejaVuSans-72" x="572.412109"/>
      <use xlink:href="#DejaVuSans-6f" x="611.275391"/>
      <use xlink:href="#DejaVuSans-66" x="672.457031"/>
      <use xlink:href="#DejaVuSans-61" x="707.662109"/>
      <use xlink:href="#DejaVuSans-6c" x="768.941406"/>
      <use xlink:href="#DejaVuSans-6f" x="796.724609"/>
     </g>
    </g>
   </g>
   <g id="text_14">
    <g id="patch_15">
     <path d="M 389.118638 467.167441 
L 463.481138 467.167441 
L 463.481138 450.537129 
L 389.118638 450.537129 
z
" clip-path="url(#p18aacd4a8e)" style="fill: #ffffff; opacity: 0.7; stroke: #000000; stroke-linejoin: miter"/>
    </g>
    <g clip-path="url(#p18aacd4a8e)">
     <!-- John Carradine -->
     <g transform="translate(393.078638 461.335723)scale(0.09 -0.09)">
      <defs>
       <path id="DejaVuSans-64" d="M 2906 2969 
L 2906 4863 
L 3481 4863 
L 3481 0 
L 2906 0 
L 2906 525 
Q 2725 213 2448 61 
Q 2172 -91 1784 -91 
Q 1150 -91 751 415 
Q 353 922 353 1747 
Q 353 2572 751 3078 
Q 1150 3584 1784 3584 
Q 2172 3584 2448 3432 
Q 2725 3281 2906 2969 
z
M 947 1747 
Q 947 1113 1208 752 
Q 1469 391 1925 391 
Q 2381 391 2643 752 
Q 2906 1113 2906 1747 
Q 2906 2381 2643 2742 
Q 2381 3103 1925 3103 
Q 1469 3103 1208 2742 
Q 947 2381 947 1747 
z
" transform="scale(0.015625)"/>
      </defs>
      <use xlink:href="#DejaVuSans-4a"/>
      <use xlink:href="#DejaVuSans-6f" x="29.492188"/>
      <use xlink:href="#DejaVuSans-68" x="90.673828"/>
      <use xlink:href="#DejaVuSans-6e" x="154.052734"/>
      <use xlink:href="#DejaVuSans-20" x="217.431641"/>
      <use xlink:href="#DejaVuSans-43" x="249.21875"/>
      <use xlink:href="#DejaVuSans-61" x="319.042969"/>
      <use xlink:href="#DejaVuSans-72" x="380.322266"/>
      <use xlink:href="#DejaVuSans-72" x="419.685547"/>
      <use xlink:href="#DejaVuSans-61" x="460.798828"/>
      <use xlink:href="#DejaVuSans-64" x="522.078125"/>
      <use xlink:href="#DejaVuSans-69" x="585.554688"/>
      <use xlink:href="#DejaVuSans-6e" x="613.337891"/>
      <use xlink:href="#DejaVuSans-65" x="676.716797"/>
     </g>
    </g>
   </g>
   <g id="text_15">
    <g id="patch_16">
     <path d="M 444.446436 395.039741 
L 513.538311 395.039741 
L 513.538311 378.409428 
L 444.446436 378.409428 
z
" clip-path="url(#p18aacd4a8e)" style="fill: #ffffff; opacity: 0.7; stroke: #000000; stroke-linejoin: miter"/>
    </g>
    <g clip-path="url(#p18aacd4a8e)">
     <!-- Robert Duvall -->
     <g transform="translate(448.406436 389.208022)scale(0.09 -0.09)">
      <defs>
       <path id="DejaVuSans-62" d="M 3116 1747 
Q 3116 2381 2855 2742 
Q 2594 3103 2138 3103 
Q 1681 3103 1420 2742 
Q 1159 2381 1159 1747 
Q 1159 1113 1420 752 
Q 1681 391 2138 391 
Q 2594 391 2855 752 
Q 3116 1113 3116 1747 
z
M 1159 2969 
Q 1341 3281 1617 3432 
Q 1894 3584 2278 3584 
Q 2916 3584 3314 3078 
Q 3713 2572 3713 1747 
Q 3713 922 3314 415 
Q 2916 -91 2278 -91 
Q 1894 -91 1617 61 
Q 1341 213 1159 525 
L 1159 0 
L 581 0 
L 581 4863 
L 1159 4863 
L 1159 2969 
z
" transform="scale(0.015625)"/>
      </defs>
      <use xlink:href="#DejaVuSans-52"/>
      <use xlink:href="#DejaVuSans-6f" x="64.982422"/>
      <use xlink:href="#DejaVuSans-62" x="126.164062"/>
      <use xlink:href="#DejaVuSans-65" x="189.640625"/>
      <use xlink:href="#DejaVuSans-72" x="251.164062"/>
      <use xlink:href="#DejaVuSans-74" x="292.277344"/>
      <use xlink:href="#DejaVuSans-20" x="331.486328"/>
      <use xlink:href="#DejaVuSans-44" x="363.273438"/>
      <use xlink:href="#DejaVuSans-75" x="440.275391"/>
      <use xlink:href="#DejaVuSans-76" x="503.654297"/>
      <use xlink:href="#DejaVuSans-61" x="562.833984"/>
      <use xlink:href="#DejaVuSans-6c" x="624.113281"/>
      <use xlink:href="#DejaVuSans-6c" x="651.896484"/>
     </g>
    </g>
   </g>
   <g id="text_16">
    <!-- Impactful actors for Black-and-white genre - Importance rank: 8 -->
    <g transform="translate(92.564062 16.318125)scale(0.12 -0.12)">
     <defs>
      <path id="DejaVuSans-49" d="M 628 4666 
L 1259 4666 
L 1259 0 
L 628 0 
L 628 4666 
z
" transform="scale(0.015625)"/>
      <path id="DejaVuSans-2d" d="M 313 2009 
L 1997 2009 
L 1997 1497 
L 313 1497 
L 313 2009 
z
" transform="scale(0.015625)"/>
      <path id="DejaVuSans-77" d="M 269 3500 
L 844 3500 
L 1563 769 
L 2278 3500 
L 2956 3500 
L 3675 769 
L 4391 3500 
L 4966 3500 
L 4050 0 
L 3372 0 
L 2619 2869 
L 1863 0 
L 1184 0 
L 269 3500 
z
" transform="scale(0.015625)"/>
      <path id="DejaVuSans-3a" d="M 750 794 
L 1409 794 
L 1409 0 
L 750 0 
L 750 794 
z
M 750 3309 
L 1409 3309 
L 1409 2516 
L 750 2516 
L 750 3309 
z
" transform="scale(0.015625)"/>
      <path id="DejaVuSans-38" d="M 2034 2216 
Q 1584 2216 1326 1975 
Q 1069 1734 1069 1313 
Q 1069 891 1326 650 
Q 1584 409 2034 409 
Q 2484 409 2743 651 
Q 3003 894 3003 1313 
Q 3003 1734 2745 1975 
Q 2488 2216 2034 2216 
z
M 1403 2484 
Q 997 2584 770 2862 
Q 544 3141 544 3541 
Q 544 4100 942 4425 
Q 1341 4750 2034 4750 
Q 2731 4750 3128 4425 
Q 3525 4100 3525 3541 
Q 3525 3141 3298 2862 
Q 3072 2584 2669 2484 
Q 3125 2378 3379 2068 
Q 3634 1759 3634 1313 
Q 3634 634 3220 271 
Q 2806 -91 2034 -91 
Q 1263 -91 848 271 
Q 434 634 434 1313 
Q 434 1759 690 2068 
Q 947 2378 1403 2484 
z
M 1172 3481 
Q 1172 3119 1398 2916 
Q 1625 2713 2034 2713 
Q 2441 2713 2670 2916 
Q 2900 3119 2900 3481 
Q 2900 3844 2670 4047 
Q 2441 4250 2034 4250 
Q 1625 4250 1398 4047 
Q 1172 3844 1172 3481 
z
" transform="scale(0.015625)"/>
     </defs>
     <use xlink:href="#DejaVuSans-49"/>
     <use xlink:href="#DejaVuSans-6d" x="29.492188"/>
     <use xlink:href="#DejaVuSans-70" x="126.904297"/>
     <use xlink:href="#DejaVuSans-61" x="190.380859"/>
     <use xlink:href="#DejaVuSans-63" x="251.660156"/>
     <use xlink:href="#DejaVuSans-74" x="306.640625"/>
     <use xlink:href="#DejaVuSans-66" x="345.849609"/>
     <use xlink:href="#DejaVuSans-75" x="381.054688"/>
     <use xlink:href="#DejaVuSans-6c" x="444.433594"/>
     <use xlink:href="#DejaVuSans-20" x="472.216797"/>
     <use xlink:href="#DejaVuSans-61" x="504.003906"/>
     <use xlink:href="#DejaVuSans-63" x="565.283203"/>
     <use xlink:href="#DejaVuSans-74" x="620.263672"/>
     <use xlink:href="#DejaVuSans-6f" x="659.472656"/>
     <use xlink:href="#DejaVuSans-72" x="720.654297"/>
     <use xlink:href="#DejaVuSans-73" x="761.767578"/>
     <use xlink:href="#DejaVuSans-20" x="813.867188"/>
     <use xlink:href="#DejaVuSans-66" x="845.654297"/>
     <use xlink:href="#DejaVuSans-6f" x="880.859375"/>
     <use xlink:href="#DejaVuSans-72" x="942.041016"/>
     <use xlink:href="#DejaVuSans-20" x="983.154297"/>
     <use xlink:href="#DejaVuSans-42" x="1014.941406"/>
     <use xlink:href="#DejaVuSans-6c" x="1083.544922"/>
     <use xlink:href="#DejaVuSans-61" x="1111.328125"/>
     <use xlink:href="#DejaVuSans-63" x="1172.607422"/>
     <use xlink:href="#DejaVuSans-6b" x="1227.587891"/>
     <use xlink:href="#DejaVuSans-2d" x="1285.498047"/>
     <use xlink:href="#DejaVuSans-61" x="1321.582031"/>
     <use xlink:href="#DejaVuSans-6e" x="1382.861328"/>
     <use xlink:href="#DejaVuSans-64" x="1446.240234"/>
     <use xlink:href="#DejaVuSans-2d" x="1509.716797"/>
     <use xlink:href="#DejaVuSans-77" x="1545.800781"/>
     <use xlink:href="#DejaVuSans-68" x="1627.587891"/>
     <use xlink:href="#DejaVuSans-69" x="1690.966797"/>
     <use xlink:href="#DejaVuSans-74" x="1718.75"/>
     <use xlink:href="#DejaVuSans-65" x="1757.958984"/>
     <use xlink:href="#DejaVuSans-20" x="1819.482422"/>
     <use xlink:href="#DejaVuSans-67" x="1851.269531"/>
     <use xlink:href="#DejaVuSans-65" x="1914.746094"/>
     <use xlink:href="#DejaVuSans-6e" x="1976.269531"/>
     <use xlink:href="#DejaVuSans-72" x="2039.648438"/>
     <use xlink:href="#DejaVuSans-65" x="2078.511719"/>
     <use xlink:href="#DejaVuSans-20" x="2140.035156"/>
     <use xlink:href="#DejaVuSans-2d" x="2171.822266"/>
     <use xlink:href="#DejaVuSans-20" x="2207.90625"/>
     <use xlink:href="#DejaVuSans-49" x="2239.693359"/>
     <use xlink:href="#DejaVuSans-6d" x="2269.185547"/>
     <use xlink:href="#DejaVuSans-70" x="2366.597656"/>
     <use xlink:href="#DejaVuSans-6f" x="2430.074219"/>
     <use xlink:href="#DejaVuSans-72" x="2491.255859"/>
     <use xlink:href="#DejaVuSans-74" x="2532.369141"/>
     <use xlink:href="#DejaVuSans-61" x="2571.578125"/>
     <use xlink:href="#DejaVuSans-6e" x="2632.857422"/>
     <use xlink:href="#DejaVuSans-63" x="2696.236328"/>
     <use xlink:href="#DejaVuSans-65" x="2751.216797"/>
     <use xlink:href="#DejaVuSans-20" x="2812.740234"/>
     <use xlink:href="#DejaVuSans-72" x="2844.527344"/>
     <use xlink:href="#DejaVuSans-61" x="2885.640625"/>
     <use xlink:href="#DejaVuSans-6e" x="2946.919922"/>
     <use xlink:href="#DejaVuSans-6b" x="3010.298828"/>
     <use xlink:href="#DejaVuSans-3a" x="3068.208984"/>
     <use xlink:href="#DejaVuSans-20" x="3101.900391"/>
     <use xlink:href="#DejaVuSans-38" x="3133.6875"/>
    </g>
   </g>
  </g>
 </g>
 <defs>
  <clipPath id="p18aacd4a8e">
   <rect x="7.2" y="22.318125" width="554.4" height="554.4"/>
  </clipPath>
 </defs>
</svg>
