<?xml version="1.0" encoding="utf-8" standalone="no"?>
<!DOCTYPE svg PUBLIC "-//W3C//DTD SVG 1.1//EN"
  "http://www.w3.org/Graphics/SVG/1.1/DTD/svg11.dtd">
<svg xmlns:xlink="http://www.w3.org/1999/xlink" width="576pt" height="576pt" viewBox="0 0 576 576" xmlns="http://www.w3.org/2000/svg" version="1.1">
 <metadata>
  <rdf:RDF xmlns:dc="http://purl.org/dc/elements/1.1/" xmlns:cc="http://creativecommons.org/ns#" xmlns:rdf="http://www.w3.org/1999/02/22-rdf-syntax-ns#">
   <cc:Work>
    <dc:type rdf:resource="http://purl.org/dc/dcmitype/StillImage"/>
    <dc:date>2022-12-22T16:12:51.639762</dc:date>
    <dc:format>image/svg+xml</dc:format>
    <dc:creator>
     <cc:Agent>
      <dc:title>Matplotlib v3.5.2, https://matplotlib.org/</dc:title>
     </cc:Agent>
    </dc:creator>
   </cc:Work>
  </rdf:RDF>
 </metadata>
 <defs>
  <style type="text/css">*{stroke-linejoin: round; stroke-linecap: butt}</style>
 </defs>
 <g id="figure_1">
  <g id="patch_1">
   <path d="M 0 576 
L 576 576 
L 576 0 
L 0 0 
z
" style="fill: #ffffff"/>
  </g>
  <g id="axes_1">
   <g id="LineCollection_1">
    <path d="M 481.846154 288.437287 
L 464.902134 201.409636 
" clip-path="url(#p1ed63c4a99)" style="fill: none; stroke: #000000; stroke-opacity: 0.3; stroke-width: 10"/>
    <path d="M 346.422083 84.9439 
L 94.153846 243.951354 
" clip-path="url(#p1ed63c4a99)" style="fill: none; stroke: #000000; stroke-opacity: 0.3; stroke-width: 5"/>
   </g>
   <g id="PathCollection_1">
    <path d="M 481.846154 315.823415 
C 489.10904 315.823415 496.075435 312.93784 501.211071 307.802204 
C 506.346707 302.666568 509.232282 295.700173 509.232282 288.437287 
C 509.232282 281.174401 506.346707 274.208006 501.211071 269.07237 
C 496.075435 263.936734 489.10904 261.051159 481.846154 261.051159 
C 474.583268 261.051159 467.616873 263.936734 462.481237 269.07237 
C 457.345601 274.208006 454.460026 281.174401 454.460026 288.437287 
C 454.460026 295.700173 457.345601 302.666568 462.481237 307.802204 
C 467.616873 312.93784 474.583268 315.823415 481.846154 315.823415 
z
" clip-path="url(#p1ed63c4a99)" style="fill: #d62728; fill-opacity: 0.99; stroke: #d62728; stroke-opacity: 0.99"/>
    <path d="M 464.902134 228.514158 
C 472.090338 228.514158 478.985098 225.658254 484.067926 220.575427 
C 489.150753 215.4926 492.006656 208.597839 492.006656 201.409636 
C 492.006656 194.221432 489.150753 187.326672 484.067926 182.243844 
C 478.985098 177.161017 472.090338 174.305114 464.902134 174.305114 
C 457.713931 174.305114 450.81917 177.161017 445.736343 182.243844 
C 440.653516 187.326672 437.797612 194.221432 437.797612 201.409636 
C 437.797612 208.597839 440.653516 215.4926 445.736343 220.575427 
C 450.81917 225.658254 457.713931 228.514158 464.902134 228.514158 
z
" clip-path="url(#p1ed63c4a99)" style="fill: #d62728; fill-opacity: 0.99; stroke: #d62728; stroke-opacity: 0.99"/>
    <path d="M 416.999864 155.86635 
C 424.010906 155.86635 430.735739 153.080833 435.693295 148.123277 
C 440.650851 143.165722 443.436368 136.440889 443.436368 129.429846 
C 443.436368 122.418803 440.650851 115.693971 435.693295 110.736415 
C 430.735739 105.778859 424.010906 102.993342 416.999864 102.993342 
C 409.988821 102.993342 403.263988 105.778859 398.306432 110.736415 
C 393.348876 115.693971 390.563359 122.418803 390.563359 129.429846 
C 390.563359 136.440889 393.348876 143.165722 398.306432 148.123277 
C 403.263988 153.080833 409.988821 155.86635 416.999864 155.86635 
z
" clip-path="url(#p1ed63c4a99)" style="fill: #d62728; fill-opacity: 0.99; stroke: #d62728; stroke-opacity: 0.99"/>
    <path d="M 346.422083 111.216945 
C 353.389776 111.216945 360.073028 108.448651 364.999931 103.521748 
C 369.926834 98.594845 372.695127 91.911593 372.695127 84.9439 
C 372.695127 77.976207 369.926834 71.292955 364.999931 66.366052 
C 360.073028 61.439149 353.389776 58.670856 346.422083 58.670856 
C 339.45439 58.670856 332.771138 61.439149 327.844235 66.366052 
C 322.917332 71.292955 320.149039 77.976207 320.149039 84.9439 
C 320.149039 91.911593 322.917332 98.594845 327.844235 103.521748 
C 332.771138 108.448651 339.45439 111.216945 346.422083 111.216945 
z
" clip-path="url(#p1ed63c4a99)" style="fill: #d62728; fill-opacity: 0.99; stroke: #d62728; stroke-opacity: 0.99"/>
    <path d="M 265.372317 101.477706 
C 272.223548 101.477706 278.795092 98.755683 283.639644 93.911131 
C 288.484195 89.06658 291.206218 82.495035 291.206218 75.643805 
C 291.206218 68.792574 288.484195 62.22103 283.639644 57.376478 
C 278.795092 52.531926 272.223548 49.809904 265.372317 49.809904 
C 258.521086 49.809904 251.949542 52.531926 247.10499 57.376478 
C 242.260439 62.22103 239.538416 68.792574 239.538416 75.643805 
C 239.538416 82.495035 242.260439 89.06658 247.10499 93.911131 
C 251.949542 98.755683 258.521086 101.477706 265.372317 101.477706 
z
" clip-path="url(#p1ed63c4a99)" style="fill: #d62728; fill-opacity: 0.99; stroke: #d62728; stroke-opacity: 0.99"/>
    <path d="M 187.864816 126.219157 
C 193.986106 126.219157 199.857507 123.787143 204.185912 119.458738 
C 208.514317 115.130332 210.946331 109.258931 210.946331 103.137642 
C 210.946331 97.016353 208.514317 91.144951 204.185912 86.816546 
C 199.857507 82.488141 193.986106 80.056127 187.864816 80.056127 
C 181.743527 80.056127 175.872126 82.488141 171.543721 86.816546 
C 167.215316 91.144951 164.783302 97.016353 164.783302 103.137642 
C 164.783302 109.258931 167.215316 115.130332 171.543721 119.458738 
C 175.872126 123.787143 181.743527 126.219157 187.864816 126.219157 
z
" clip-path="url(#p1ed63c4a99)" style="fill: #d62728; fill-opacity: 0.99; stroke: #d62728; stroke-opacity: 0.99"/>
    <path d="M 127.301343 185.079069 
C 133.243909 185.079069 138.943884 182.718062 143.145913 178.516033 
C 147.347943 174.314004 149.708949 168.614029 149.708949 162.671462 
C 149.708949 156.728896 147.347943 151.028921 143.145913 146.826892 
C 138.943884 142.624862 133.243909 140.263856 127.301343 140.263856 
C 121.358776 140.263856 115.658801 142.624862 111.456772 146.826892 
C 107.254743 151.028921 104.893736 156.728896 104.893736 162.671462 
C 104.893736 168.614029 107.254743 174.314004 111.456772 178.516033 
C 115.658801 182.718062 121.358776 185.079069 127.301343 185.079069 
z
" clip-path="url(#p1ed63c4a99)" style="fill: #d62728; fill-opacity: 0.99; stroke: #d62728; stroke-opacity: 0.99"/>
    <path d="M 94.153846 265.223722 
C 99.795344 265.223722 105.206541 262.982332 109.195682 258.99319 
C 113.184824 255.004048 115.426215 249.592852 115.426215 243.951354 
C 115.426215 238.309856 113.184824 232.898659 109.195682 228.909517 
C 105.206541 224.920376 99.795344 222.678985 94.153846 222.678985 
C 88.512348 222.678985 83.101152 224.920376 79.11201 228.909517 
C 75.122868 232.898659 72.881477 238.309856 72.881477 243.951354 
C 72.881477 249.592852 75.122868 255.004048 79.11201 258.99319 
C 83.101152 262.982332 88.512348 265.223722 94.153846 265.223722 
z
" clip-path="url(#p1ed63c4a99)" style="fill: #d62728; fill-opacity: 0.99; stroke: #d62728; stroke-opacity: 0.99"/>
    <path d="M 94.153858 353.792812 
C 99.688528 353.792812 104.997258 351.593864 108.910861 347.680261 
C 112.824464 343.766659 115.023412 338.457929 115.023412 332.923259 
C 115.023412 327.388588 112.824464 322.079859 108.910861 318.166256 
C 104.997258 314.252653 99.688528 312.053705 94.153858 312.053705 
C 88.619188 312.053705 83.310458 314.252653 79.396855 318.166256 
C 75.483252 322.079859 73.284304 327.388588 73.284304 332.923259 
C 73.284304 338.457929 75.483252 343.766659 79.396855 347.680261 
C 83.310458 351.593864 88.619188 353.792812 94.153858 353.792812 
z
" clip-path="url(#p1ed63c4a99)" style="fill: #d62728; fill-opacity: 0.99; stroke: #d62728; stroke-opacity: 0.99"/>
    <path d="M 127.301354 434.952699 
C 132.804206 434.952699 138.082416 432.766393 141.973519 428.875289 
C 145.864623 424.984186 148.050929 419.705976 148.050929 414.203124 
C 148.050929 408.700273 145.864623 403.422063 141.973519 399.53096 
C 138.082416 395.639856 132.804206 393.45355 127.301354 393.45355 
C 121.798503 393.45355 116.520293 395.639856 112.62919 399.53096 
C 108.738086 403.422063 106.55178 408.700273 106.55178 414.203124 
C 106.55178 419.705976 108.738086 424.984186 112.62919 428.875289 
C 116.520293 432.766393 121.798503 434.952699 127.301354 434.952699 
z
" clip-path="url(#p1ed63c4a99)" style="fill: #d62728; fill-opacity: 0.99; stroke: #d62728; stroke-opacity: 0.99"/>
    <path d="M 187.864846 494.203097 
C 193.292533 494.203097 198.498647 492.046654 202.336601 488.2087 
C 206.174555 484.370746 208.330998 479.164632 208.330998 473.736945 
C 208.330998 468.309258 206.174555 463.103144 202.336601 459.26519 
C 198.498647 455.427235 193.292533 453.270792 187.864846 453.270792 
C 182.437159 453.270792 177.231045 455.427235 173.39309 459.26519 
C 169.555136 463.103144 167.398693 468.309258 167.398693 473.736945 
C 167.398693 479.164632 169.555136 484.370746 173.39309 488.2087 
C 177.231045 492.046654 182.437159 494.203097 187.864846 494.203097 
z
" clip-path="url(#p1ed63c4a99)" style="fill: #d62728; fill-opacity: 0.99; stroke: #d62728; stroke-opacity: 0.99"/>
    <path d="M 265.372352 521.696922 
C 270.800039 521.696922 276.006153 519.540479 279.844107 515.702525 
C 283.682062 511.86457 285.838505 506.658456 285.838505 501.230769 
C 285.838505 495.803082 283.682062 490.596968 279.844107 486.759014 
C 276.006153 482.92106 270.800039 480.764617 265.372352 480.764617 
C 259.944665 480.764617 254.738551 482.92106 250.900597 486.759014 
C 247.062642 490.596968 244.906199 495.803082 244.906199 501.230769 
C 244.906199 506.658456 247.062642 511.86457 250.900597 515.702525 
C 254.738551 519.540479 259.944665 521.696922 265.372352 521.696922 
z
" clip-path="url(#p1ed63c4a99)" style="fill: #d62728; fill-opacity: 0.99; stroke: #d62728; stroke-opacity: 0.99"/>
    <path d="M 346.422112 512.19457 
C 351.796164 512.19457 356.950832 510.059437 360.75086 506.259409 
C 364.550888 502.45938 366.686021 497.304713 366.686021 491.930661 
C 366.686021 486.556609 364.550888 481.401942 360.75086 477.601913 
C 356.950832 473.801885 351.796164 471.666752 346.422112 471.666752 
C 341.048061 471.666752 335.893393 473.801885 332.093364 477.601913 
C 328.293336 481.401942 326.158203 486.556609 326.158203 491.930661 
C 326.158203 497.304713 328.293336 502.45938 332.093364 506.259409 
C 335.893393 510.059437 341.048061 512.19457 346.422112 512.19457 
z
" clip-path="url(#p1ed63c4a99)" style="fill: #d62728; fill-opacity: 0.99; stroke: #d62728; stroke-opacity: 0.99"/>
    <path d="M 416.999899 467.610158 
C 422.347843 467.610158 427.47747 465.485397 431.259038 461.703829 
C 435.040606 457.922261 437.165367 452.792634 437.165367 447.44469 
C 437.165367 442.096745 435.040606 436.967118 431.259038 433.18555 
C 427.47747 429.403982 422.347843 427.279221 416.999899 427.279221 
C 411.651954 427.279221 406.522327 429.403982 402.740759 433.18555 
C 398.959191 436.967118 396.83443 442.096745 396.83443 447.44469 
C 396.83443 452.792634 398.959191 457.922261 402.740759 461.703829 
C 406.522327 465.485397 411.651954 467.610158 416.999899 467.610158 
z
" clip-path="url(#p1ed63c4a99)" style="fill: #d62728; fill-opacity: 0.99; stroke: #d62728; stroke-opacity: 0.99"/>
    <path d="M 464.902158 394.829823 
C 470.037794 394.829823 474.963779 392.789413 478.595222 389.15797 
C 482.226665 385.526527 484.267074 380.600542 484.267074 375.464906 
C 484.267074 370.32927 482.226665 365.403285 478.595222 361.771842 
C 474.963779 358.140399 470.037794 356.09999 464.902158 356.09999 
C 459.766522 356.09999 454.840537 358.140399 451.209094 361.771842 
C 447.577651 365.403285 445.537241 370.32927 445.537241 375.464906 
C 445.537241 380.600542 447.577651 385.526527 451.209094 389.15797 
C 454.840537 392.789413 459.766522 394.829823 464.902158 394.829823 
z
" clip-path="url(#p1ed63c4a99)" style="fill: #d62728; fill-opacity: 0.99; stroke: #d62728; stroke-opacity: 0.99"/>
   </g>
   <g id="text_1">
    <g id="patch_2">
     <path d="M 446.571076 296.752443 
L 517.121232 296.752443 
L 517.121232 280.122131 
L 446.571076 280.122131 
z
" clip-path="url(#p1ed63c4a99)" style="fill: #ffffff; opacity: 0.7; stroke: #000000; stroke-linejoin: miter"/>
    </g>
    <g clip-path="url(#p1ed63c4a99)">
     <!-- Una O'Connor -->
     <g transform="translate(450.531076 290.920724)scale(0.09 -0.09)">
      <defs>
       <path id="DejaVuSans-55" d="M 556 4666 
L 1191 4666 
L 1191 1831 
Q 1191 1081 1462 751 
Q 1734 422 2344 422 
Q 2950 422 3222 751 
Q 3494 1081 3494 1831 
L 3494 4666 
L 4128 4666 
L 4128 1753 
Q 4128 841 3676 375 
Q 3225 -91 2344 -91 
Q 1459 -91 1007 375 
Q 556 841 556 1753 
L 556 4666 
z
" transform="scale(0.015625)"/>
       <path id="DejaVuSans-6e" d="M 3513 2113 
L 3513 0 
L 2938 0 
L 2938 2094 
Q 2938 2591 2744 2837 
Q 2550 3084 2163 3084 
Q 1697 3084 1428 2787 
Q 1159 2491 1159 1978 
L 1159 0 
L 581 0 
L 581 3500 
L 1159 3500 
L 1159 2956 
Q 1366 3272 1645 3428 
Q 1925 3584 2291 3584 
Q 2894 3584 3203 3211 
Q 3513 2838 3513 2113 
z
" transform="scale(0.015625)"/>
       <path id="DejaVuSans-61" d="M 2194 1759 
Q 1497 1759 1228 1600 
Q 959 1441 959 1056 
Q 959 750 1161 570 
Q 1363 391 1709 391 
Q 2188 391 2477 730 
Q 2766 1069 2766 1631 
L 2766 1759 
L 2194 1759 
z
M 3341 1997 
L 3341 0 
L 2766 0 
L 2766 531 
Q 2569 213 2275 61 
Q 1981 -91 1556 -91 
Q 1019 -91 701 211 
Q 384 513 384 1019 
Q 384 1609 779 1909 
Q 1175 2209 1959 2209 
L 2766 2209 
L 2766 2266 
Q 2766 2663 2505 2880 
Q 2244 3097 1772 3097 
Q 1472 3097 1187 3025 
Q 903 2953 641 2809 
L 641 3341 
Q 956 3463 1253 3523 
Q 1550 3584 1831 3584 
Q 2591 3584 2966 3190 
Q 3341 2797 3341 1997 
z
" transform="scale(0.015625)"/>
       <path id="DejaVuSans-20" transform="scale(0.015625)"/>
       <path id="DejaVuSans-4f" d="M 2522 4238 
Q 1834 4238 1429 3725 
Q 1025 3213 1025 2328 
Q 1025 1447 1429 934 
Q 1834 422 2522 422 
Q 3209 422 3611 934 
Q 4013 1447 4013 2328 
Q 4013 3213 3611 3725 
Q 3209 4238 2522 4238 
z
M 2522 4750 
Q 3503 4750 4090 4092 
Q 4678 3434 4678 2328 
Q 4678 1225 4090 567 
Q 3503 -91 2522 -91 
Q 1538 -91 948 565 
Q 359 1222 359 2328 
Q 359 3434 948 4092 
Q 1538 4750 2522 4750 
z
" transform="scale(0.015625)"/>
       <path id="DejaVuSans-27" d="M 1147 4666 
L 1147 2931 
L 616 2931 
L 616 4666 
L 1147 4666 
z
" transform="scale(0.015625)"/>
       <path id="DejaVuSans-43" d="M 4122 4306 
L 4122 3641 
Q 3803 3938 3442 4084 
Q 3081 4231 2675 4231 
Q 1875 4231 1450 3742 
Q 1025 3253 1025 2328 
Q 1025 1406 1450 917 
Q 1875 428 2675 428 
Q 3081 428 3442 575 
Q 3803 722 4122 1019 
L 4122 359 
Q 3791 134 3420 21 
Q 3050 -91 2638 -91 
Q 1578 -91 968 557 
Q 359 1206 359 2328 
Q 359 3453 968 4101 
Q 1578 4750 2638 4750 
Q 3056 4750 3426 4639 
Q 3797 4528 4122 4306 
z
" transform="scale(0.015625)"/>
       <path id="DejaVuSans-6f" d="M 1959 3097 
Q 1497 3097 1228 2736 
Q 959 2375 959 1747 
Q 959 1119 1226 758 
Q 1494 397 1959 397 
Q 2419 397 2687 759 
Q 2956 1122 2956 1747 
Q 2956 2369 2687 2733 
Q 2419 3097 1959 3097 
z
M 1959 3584 
Q 2709 3584 3137 3096 
Q 3566 2609 3566 1747 
Q 3566 888 3137 398 
Q 2709 -91 1959 -91 
Q 1206 -91 779 398 
Q 353 888 353 1747 
Q 353 2609 779 3096 
Q 1206 3584 1959 3584 
z
" transform="scale(0.015625)"/>
       <path id="DejaVuSans-72" d="M 2631 2963 
Q 2534 3019 2420 3045 
Q 2306 3072 2169 3072 
Q 1681 3072 1420 2755 
Q 1159 2438 1159 1844 
L 1159 0 
L 581 0 
L 581 3500 
L 1159 3500 
L 1159 2956 
Q 1341 3275 1631 3429 
Q 1922 3584 2338 3584 
Q 2397 3584 2469 3576 
Q 2541 3569 2628 3553 
L 2631 2963 
z
" transform="scale(0.015625)"/>
      </defs>
      <use xlink:href="#DejaVuSans-55"/>
      <use xlink:href="#DejaVuSans-6e" x="73.193359"/>
      <use xlink:href="#DejaVuSans-61" x="136.572266"/>
      <use xlink:href="#DejaVuSans-20" x="197.851562"/>
      <use xlink:href="#DejaVuSans-4f" x="229.638672"/>
      <use xlink:href="#DejaVuSans-27" x="308.349609"/>
      <use xlink:href="#DejaVuSans-43" x="335.839844"/>
      <use xlink:href="#DejaVuSans-6f" x="405.664062"/>
      <use xlink:href="#DejaVuSans-6e" x="466.845703"/>
      <use xlink:href="#DejaVuSans-6e" x="530.224609"/>
      <use xlink:href="#DejaVuSans-6f" x="593.603516"/>
      <use xlink:href="#DejaVuSans-72" x="654.785156"/>
     </g>
    </g>
   </g>
   <g id="text_2">
    <g id="patch_3">
     <path d="M 429.674869 209.724792 
L 500.1294 209.724792 
L 500.1294 193.094479 
L 429.674869 193.094479 
z
" clip-path="url(#p1ed63c4a99)" style="fill: #ffffff; opacity: 0.7; stroke: #000000; stroke-linejoin: miter"/>
    </g>
    <g clip-path="url(#p1ed63c4a99)">
     <!-- Henry Travers -->
     <g transform="translate(433.634869 203.893073)scale(0.09 -0.09)">
      <defs>
       <path id="DejaVuSans-48" d="M 628 4666 
L 1259 4666 
L 1259 2753 
L 3553 2753 
L 3553 4666 
L 4184 4666 
L 4184 0 
L 3553 0 
L 3553 2222 
L 1259 2222 
L 1259 0 
L 628 0 
L 628 4666 
z
" transform="scale(0.015625)"/>
       <path id="DejaVuSans-65" d="M 3597 1894 
L 3597 1613 
L 953 1613 
Q 991 1019 1311 708 
Q 1631 397 2203 397 
Q 2534 397 2845 478 
Q 3156 559 3463 722 
L 3463 178 
Q 3153 47 2828 -22 
Q 2503 -91 2169 -91 
Q 1331 -91 842 396 
Q 353 884 353 1716 
Q 353 2575 817 3079 
Q 1281 3584 2069 3584 
Q 2775 3584 3186 3129 
Q 3597 2675 3597 1894 
z
M 3022 2063 
Q 3016 2534 2758 2815 
Q 2500 3097 2075 3097 
Q 1594 3097 1305 2825 
Q 1016 2553 972 2059 
L 3022 2063 
z
" transform="scale(0.015625)"/>
       <path id="DejaVuSans-79" d="M 2059 -325 
Q 1816 -950 1584 -1140 
Q 1353 -1331 966 -1331 
L 506 -1331 
L 506 -850 
L 844 -850 
Q 1081 -850 1212 -737 
Q 1344 -625 1503 -206 
L 1606 56 
L 191 3500 
L 800 3500 
L 1894 763 
L 2988 3500 
L 3597 3500 
L 2059 -325 
z
" transform="scale(0.015625)"/>
       <path id="DejaVuSans-54" d="M -19 4666 
L 3928 4666 
L 3928 4134 
L 2272 4134 
L 2272 0 
L 1638 0 
L 1638 4134 
L -19 4134 
L -19 4666 
z
" transform="scale(0.015625)"/>
       <path id="DejaVuSans-76" d="M 191 3500 
L 800 3500 
L 1894 563 
L 2988 3500 
L 3597 3500 
L 2284 0 
L 1503 0 
L 191 3500 
z
" transform="scale(0.015625)"/>
       <path id="DejaVuSans-73" d="M 2834 3397 
L 2834 2853 
Q 2591 2978 2328 3040 
Q 2066 3103 1784 3103 
Q 1356 3103 1142 2972 
Q 928 2841 928 2578 
Q 928 2378 1081 2264 
Q 1234 2150 1697 2047 
L 1894 2003 
Q 2506 1872 2764 1633 
Q 3022 1394 3022 966 
Q 3022 478 2636 193 
Q 2250 -91 1575 -91 
Q 1294 -91 989 -36 
Q 684 19 347 128 
L 347 722 
Q 666 556 975 473 
Q 1284 391 1588 391 
Q 1994 391 2212 530 
Q 2431 669 2431 922 
Q 2431 1156 2273 1281 
Q 2116 1406 1581 1522 
L 1381 1569 
Q 847 1681 609 1914 
Q 372 2147 372 2553 
Q 372 3047 722 3315 
Q 1072 3584 1716 3584 
Q 2034 3584 2315 3537 
Q 2597 3491 2834 3397 
z
" transform="scale(0.015625)"/>
      </defs>
      <use xlink:href="#DejaVuSans-48"/>
      <use xlink:href="#DejaVuSans-65" x="75.195312"/>
      <use xlink:href="#DejaVuSans-6e" x="136.71875"/>
      <use xlink:href="#DejaVuSans-72" x="200.097656"/>
      <use xlink:href="#DejaVuSans-79" x="241.210938"/>
      <use xlink:href="#DejaVuSans-20" x="300.390625"/>
      <use xlink:href="#DejaVuSans-54" x="332.177734"/>
      <use xlink:href="#DejaVuSans-72" x="378.511719"/>
      <use xlink:href="#DejaVuSans-61" x="419.625"/>
      <use xlink:href="#DejaVuSans-76" x="480.904297"/>
      <use xlink:href="#DejaVuSans-65" x="540.083984"/>
      <use xlink:href="#DejaVuSans-72" x="601.607422"/>
      <use xlink:href="#DejaVuSans-73" x="642.720703"/>
     </g>
    </g>
   </g>
   <g id="text_3">
    <g id="patch_4">
     <path d="M 382.311895 137.745002 
L 451.687832 137.745002 
L 451.687832 121.11469 
L 382.311895 121.11469 
z
" clip-path="url(#p1ed63c4a99)" style="fill: #ffffff; opacity: 0.7; stroke: #000000; stroke-linejoin: miter"/>
    </g>
    <g clip-path="url(#p1ed63c4a99)">
     <!-- Minoru Chiaki -->
     <g transform="translate(386.271895 131.913284)scale(0.09 -0.09)">
      <defs>
       <path id="DejaVuSans-4d" d="M 628 4666 
L 1569 4666 
L 2759 1491 
L 3956 4666 
L 4897 4666 
L 4897 0 
L 4281 0 
L 4281 4097 
L 3078 897 
L 2444 897 
L 1241 4097 
L 1241 0 
L 628 0 
L 628 4666 
z
" transform="scale(0.015625)"/>
       <path id="DejaVuSans-69" d="M 603 3500 
L 1178 3500 
L 1178 0 
L 603 0 
L 603 3500 
z
M 603 4863 
L 1178 4863 
L 1178 4134 
L 603 4134 
L 603 4863 
z
" transform="scale(0.015625)"/>
       <path id="DejaVuSans-75" d="M 544 1381 
L 544 3500 
L 1119 3500 
L 1119 1403 
Q 1119 906 1312 657 
Q 1506 409 1894 409 
Q 2359 409 2629 706 
Q 2900 1003 2900 1516 
L 2900 3500 
L 3475 3500 
L 3475 0 
L 2900 0 
L 2900 538 
Q 2691 219 2414 64 
Q 2138 -91 1772 -91 
Q 1169 -91 856 284 
Q 544 659 544 1381 
z
M 1991 3584 
L 1991 3584 
z
" transform="scale(0.015625)"/>
       <path id="DejaVuSans-68" d="M 3513 2113 
L 3513 0 
L 2938 0 
L 2938 2094 
Q 2938 2591 2744 2837 
Q 2550 3084 2163 3084 
Q 1697 3084 1428 2787 
Q 1159 2491 1159 1978 
L 1159 0 
L 581 0 
L 581 4863 
L 1159 4863 
L 1159 2956 
Q 1366 3272 1645 3428 
Q 1925 3584 2291 3584 
Q 2894 3584 3203 3211 
Q 3513 2838 3513 2113 
z
" transform="scale(0.015625)"/>
       <path id="DejaVuSans-6b" d="M 581 4863 
L 1159 4863 
L 1159 1991 
L 2875 3500 
L 3609 3500 
L 1753 1863 
L 3688 0 
L 2938 0 
L 1159 1709 
L 1159 0 
L 581 0 
L 581 4863 
z
" transform="scale(0.015625)"/>
      </defs>
      <use xlink:href="#DejaVuSans-4d"/>
      <use xlink:href="#DejaVuSans-69" x="86.279297"/>
      <use xlink:href="#DejaVuSans-6e" x="114.0625"/>
      <use xlink:href="#DejaVuSans-6f" x="177.441406"/>
      <use xlink:href="#DejaVuSans-72" x="238.623047"/>
      <use xlink:href="#DejaVuSans-75" x="279.736328"/>
      <use xlink:href="#DejaVuSans-20" x="343.115234"/>
      <use xlink:href="#DejaVuSans-43" x="374.902344"/>
      <use xlink:href="#DejaVuSans-68" x="444.726562"/>
      <use xlink:href="#DejaVuSans-69" x="508.105469"/>
      <use xlink:href="#DejaVuSans-61" x="535.888672"/>
      <use xlink:href="#DejaVuSans-6b" x="597.167969"/>
      <use xlink:href="#DejaVuSans-69" x="655.078125"/>
     </g>
    </g>
   </g>
   <g id="text_4">
    <g id="patch_5">
     <path d="M 302.453567 93.259056 
L 390.390599 93.259056 
L 390.390599 76.628744 
L 302.453567 76.628744 
z
" clip-path="url(#p1ed63c4a99)" style="fill: #ffffff; opacity: 0.7; stroke: #000000; stroke-linejoin: miter"/>
    </g>
    <g clip-path="url(#p1ed63c4a99)">
     <!-- Humphrey Bogart -->
     <g transform="translate(306.413567 87.427338)scale(0.09 -0.09)">
      <defs>
       <path id="DejaVuSans-6d" d="M 3328 2828 
Q 3544 3216 3844 3400 
Q 4144 3584 4550 3584 
Q 5097 3584 5394 3201 
Q 5691 2819 5691 2113 
L 5691 0 
L 5113 0 
L 5113 2094 
Q 5113 2597 4934 2840 
Q 4756 3084 4391 3084 
Q 3944 3084 3684 2787 
Q 3425 2491 3425 1978 
L 3425 0 
L 2847 0 
L 2847 2094 
Q 2847 2600 2669 2842 
Q 2491 3084 2119 3084 
Q 1678 3084 1418 2786 
Q 1159 2488 1159 1978 
L 1159 0 
L 581 0 
L 581 3500 
L 1159 3500 
L 1159 2956 
Q 1356 3278 1631 3431 
Q 1906 3584 2284 3584 
Q 2666 3584 2933 3390 
Q 3200 3197 3328 2828 
z
" transform="scale(0.015625)"/>
       <path id="DejaVuSans-70" d="M 1159 525 
L 1159 -1331 
L 581 -1331 
L 581 3500 
L 1159 3500 
L 1159 2969 
Q 1341 3281 1617 3432 
Q 1894 3584 2278 3584 
Q 2916 3584 3314 3078 
Q 3713 2572 3713 1747 
Q 3713 922 3314 415 
Q 2916 -91 2278 -91 
Q 1894 -91 1617 61 
Q 1341 213 1159 525 
z
M 3116 1747 
Q 3116 2381 2855 2742 
Q 2594 3103 2138 3103 
Q 1681 3103 1420 2742 
Q 1159 2381 1159 1747 
Q 1159 1113 1420 752 
Q 1681 391 2138 391 
Q 2594 391 2855 752 
Q 3116 1113 3116 1747 
z
" transform="scale(0.015625)"/>
       <path id="DejaVuSans-42" d="M 1259 2228 
L 1259 519 
L 2272 519 
Q 2781 519 3026 730 
Q 3272 941 3272 1375 
Q 3272 1813 3026 2020 
Q 2781 2228 2272 2228 
L 1259 2228 
z
M 1259 4147 
L 1259 2741 
L 2194 2741 
Q 2656 2741 2882 2914 
Q 3109 3088 3109 3444 
Q 3109 3797 2882 3972 
Q 2656 4147 2194 4147 
L 1259 4147 
z
M 628 4666 
L 2241 4666 
Q 2963 4666 3353 4366 
Q 3744 4066 3744 3513 
Q 3744 3084 3544 2831 
Q 3344 2578 2956 2516 
Q 3422 2416 3680 2098 
Q 3938 1781 3938 1306 
Q 3938 681 3513 340 
Q 3088 0 2303 0 
L 628 0 
L 628 4666 
z
" transform="scale(0.015625)"/>
       <path id="DejaVuSans-67" d="M 2906 1791 
Q 2906 2416 2648 2759 
Q 2391 3103 1925 3103 
Q 1463 3103 1205 2759 
Q 947 2416 947 1791 
Q 947 1169 1205 825 
Q 1463 481 1925 481 
Q 2391 481 2648 825 
Q 2906 1169 2906 1791 
z
M 3481 434 
Q 3481 -459 3084 -895 
Q 2688 -1331 1869 -1331 
Q 1566 -1331 1297 -1286 
Q 1028 -1241 775 -1147 
L 775 -588 
Q 1028 -725 1275 -790 
Q 1522 -856 1778 -856 
Q 2344 -856 2625 -561 
Q 2906 -266 2906 331 
L 2906 616 
Q 2728 306 2450 153 
Q 2172 0 1784 0 
Q 1141 0 747 490 
Q 353 981 353 1791 
Q 353 2603 747 3093 
Q 1141 3584 1784 3584 
Q 2172 3584 2450 3431 
Q 2728 3278 2906 2969 
L 2906 3500 
L 3481 3500 
L 3481 434 
z
" transform="scale(0.015625)"/>
       <path id="DejaVuSans-74" d="M 1172 4494 
L 1172 3500 
L 2356 3500 
L 2356 3053 
L 1172 3053 
L 1172 1153 
Q 1172 725 1289 603 
Q 1406 481 1766 481 
L 2356 481 
L 2356 0 
L 1766 0 
Q 1100 0 847 248 
Q 594 497 594 1153 
L 594 3053 
L 172 3053 
L 172 3500 
L 594 3500 
L 594 4494 
L 1172 4494 
z
" transform="scale(0.015625)"/>
      </defs>
      <use xlink:href="#DejaVuSans-48"/>
      <use xlink:href="#DejaVuSans-75" x="75.195312"/>
      <use xlink:href="#DejaVuSans-6d" x="138.574219"/>
      <use xlink:href="#DejaVuSans-70" x="235.986328"/>
      <use xlink:href="#DejaVuSans-68" x="299.462891"/>
      <use xlink:href="#DejaVuSans-72" x="362.841797"/>
      <use xlink:href="#DejaVuSans-65" x="401.705078"/>
      <use xlink:href="#DejaVuSans-79" x="463.228516"/>
      <use xlink:href="#DejaVuSans-20" x="522.408203"/>
      <use xlink:href="#DejaVuSans-42" x="554.195312"/>
      <use xlink:href="#DejaVuSans-6f" x="622.798828"/>
      <use xlink:href="#DejaVuSans-67" x="683.980469"/>
      <use xlink:href="#DejaVuSans-61" x="747.457031"/>
      <use xlink:href="#DejaVuSans-72" x="808.736328"/>
      <use xlink:href="#DejaVuSans-74" x="849.849609"/>
     </g>
    </g>
   </g>
   <g id="text_5">
    <g id="patch_6">
     <path d="M 232.125051 83.958961 
L 298.619583 83.958961 
L 298.619583 67.328648 
L 232.125051 67.328648 
z
" clip-path="url(#p1ed63c4a99)" style="fill: #ffffff; opacity: 0.7; stroke: #000000; stroke-linejoin: miter"/>
    </g>
    <g clip-path="url(#p1ed63c4a99)">
     <!-- Claude Rains -->
     <g transform="translate(236.085051 78.127242)scale(0.09 -0.09)">
      <defs>
       <path id="DejaVuSans-6c" d="M 603 4863 
L 1178 4863 
L 1178 0 
L 603 0 
L 603 4863 
z
" transform="scale(0.015625)"/>
       <path id="DejaVuSans-64" d="M 2906 2969 
L 2906 4863 
L 3481 4863 
L 3481 0 
L 2906 0 
L 2906 525 
Q 2725 213 2448 61 
Q 2172 -91 1784 -91 
Q 1150 -91 751 415 
Q 353 922 353 1747 
Q 353 2572 751 3078 
Q 1150 3584 1784 3584 
Q 2172 3584 2448 3432 
Q 2725 3281 2906 2969 
z
M 947 1747 
Q 947 1113 1208 752 
Q 1469 391 1925 391 
Q 2381 391 2643 752 
Q 2906 1113 2906 1747 
Q 2906 2381 2643 2742 
Q 2381 3103 1925 3103 
Q 1469 3103 1208 2742 
Q 947 2381 947 1747 
z
" transform="scale(0.015625)"/>
       <path id="DejaVuSans-52" d="M 2841 2188 
Q 3044 2119 3236 1894 
Q 3428 1669 3622 1275 
L 4263 0 
L 3584 0 
L 2988 1197 
Q 2756 1666 2539 1819 
Q 2322 1972 1947 1972 
L 1259 1972 
L 1259 0 
L 628 0 
L 628 4666 
L 2053 4666 
Q 2853 4666 3247 4331 
Q 3641 3997 3641 3322 
Q 3641 2881 3436 2590 
Q 3231 2300 2841 2188 
z
M 1259 4147 
L 1259 2491 
L 2053 2491 
Q 2509 2491 2742 2702 
Q 2975 2913 2975 3322 
Q 2975 3731 2742 3939 
Q 2509 4147 2053 4147 
L 1259 4147 
z
" transform="scale(0.015625)"/>
      </defs>
      <use xlink:href="#DejaVuSans-43"/>
      <use xlink:href="#DejaVuSans-6c" x="69.824219"/>
      <use xlink:href="#DejaVuSans-61" x="97.607422"/>
      <use xlink:href="#DejaVuSans-75" x="158.886719"/>
      <use xlink:href="#DejaVuSans-64" x="222.265625"/>
      <use xlink:href="#DejaVuSans-65" x="285.742188"/>
      <use xlink:href="#DejaVuSans-20" x="347.265625"/>
      <use xlink:href="#DejaVuSans-52" x="379.052734"/>
      <use xlink:href="#DejaVuSans-61" x="446.285156"/>
      <use xlink:href="#DejaVuSans-69" x="507.564453"/>
      <use xlink:href="#DejaVuSans-6e" x="535.347656"/>
      <use xlink:href="#DejaVuSans-73" x="598.726562"/>
     </g>
    </g>
   </g>
   <g id="text_6">
    <g id="patch_7">
     <path d="M 159.185754 111.452798 
L 216.543879 111.452798 
L 216.543879 94.822486 
L 159.185754 94.822486 
z
" clip-path="url(#p1ed63c4a99)" style="fill: #ffffff; opacity: 0.7; stroke: #000000; stroke-linejoin: miter"/>
    </g>
    <g clip-path="url(#p1ed63c4a99)">
     <!-- Ray Collins -->
     <g transform="translate(163.145754 105.621079)scale(0.09 -0.09)">
      <use xlink:href="#DejaVuSans-52"/>
      <use xlink:href="#DejaVuSans-61" x="67.232422"/>
      <use xlink:href="#DejaVuSans-79" x="128.511719"/>
      <use xlink:href="#DejaVuSans-20" x="187.691406"/>
      <use xlink:href="#DejaVuSans-43" x="219.478516"/>
      <use xlink:href="#DejaVuSans-6f" x="289.302734"/>
      <use xlink:href="#DejaVuSans-6c" x="350.484375"/>
      <use xlink:href="#DejaVuSans-6c" x="378.267578"/>
      <use xlink:href="#DejaVuSans-69" x="406.050781"/>
      <use xlink:href="#DejaVuSans-6e" x="433.833984"/>
      <use xlink:href="#DejaVuSans-73" x="497.212891"/>
     </g>
    </g>
   </g>
   <g id="text_7">
    <g id="patch_8">
     <path d="M 89.729155 170.986619 
L 164.87353 170.986619 
L 164.87353 154.356306 
L 89.729155 154.356306 
z
" clip-path="url(#p1ed63c4a99)" style="fill: #ffffff; opacity: 0.7; stroke: #000000; stroke-linejoin: miter"/>
    </g>
    <g clip-path="url(#p1ed63c4a99)">
     <!-- Leonid Kinskey -->
     <g transform="translate(93.689155 165.1549)scale(0.09 -0.09)">
      <defs>
       <path id="DejaVuSans-4c" d="M 628 4666 
L 1259 4666 
L 1259 531 
L 3531 531 
L 3531 0 
L 628 0 
L 628 4666 
z
" transform="scale(0.015625)"/>
       <path id="DejaVuSans-4b" d="M 628 4666 
L 1259 4666 
L 1259 2694 
L 3353 4666 
L 4166 4666 
L 1850 2491 
L 4331 0 
L 3500 0 
L 1259 2247 
L 1259 0 
L 628 0 
L 628 4666 
z
" transform="scale(0.015625)"/>
      </defs>
      <use xlink:href="#DejaVuSans-4c"/>
      <use xlink:href="#DejaVuSans-65" x="53.962891"/>
      <use xlink:href="#DejaVuSans-6f" x="115.486328"/>
      <use xlink:href="#DejaVuSans-6e" x="176.667969"/>
      <use xlink:href="#DejaVuSans-69" x="240.046875"/>
      <use xlink:href="#DejaVuSans-64" x="267.830078"/>
      <use xlink:href="#DejaVuSans-20" x="331.306641"/>
      <use xlink:href="#DejaVuSans-4b" x="363.09375"/>
      <use xlink:href="#DejaVuSans-69" x="428.669922"/>
      <use xlink:href="#DejaVuSans-6e" x="456.453125"/>
      <use xlink:href="#DejaVuSans-73" x="519.832031"/>
      <use xlink:href="#DejaVuSans-6b" x="571.931641"/>
      <use xlink:href="#DejaVuSans-65" x="626.216797"/>
      <use xlink:href="#DejaVuSans-79" x="687.740234"/>
     </g>
    </g>
   </g>
   <g id="text_8">
    <g id="patch_9">
     <path d="M 64.129706 252.26651 
L 124.177987 252.26651 
L 124.177987 235.636197 
L 64.129706 235.636197 
z
" clip-path="url(#p1ed63c4a99)" style="fill: #ffffff; opacity: 0.7; stroke: #000000; stroke-linejoin: miter"/>
    </g>
    <g clip-path="url(#p1ed63c4a99)">
     <!-- Bette Davis -->
     <g transform="translate(68.089706 246.434791)scale(0.09 -0.09)">
      <defs>
       <path id="DejaVuSans-44" d="M 1259 4147 
L 1259 519 
L 2022 519 
Q 2988 519 3436 956 
Q 3884 1394 3884 2338 
Q 3884 3275 3436 3711 
Q 2988 4147 2022 4147 
L 1259 4147 
z
M 628 4666 
L 1925 4666 
Q 3281 4666 3915 4102 
Q 4550 3538 4550 2338 
Q 4550 1131 3912 565 
Q 3275 0 1925 0 
L 628 0 
L 628 4666 
z
" transform="scale(0.015625)"/>
      </defs>
      <use xlink:href="#DejaVuSans-42"/>
      <use xlink:href="#DejaVuSans-65" x="68.603516"/>
      <use xlink:href="#DejaVuSans-74" x="130.126953"/>
      <use xlink:href="#DejaVuSans-74" x="169.335938"/>
      <use xlink:href="#DejaVuSans-65" x="208.544922"/>
      <use xlink:href="#DejaVuSans-20" x="270.068359"/>
      <use xlink:href="#DejaVuSans-44" x="301.855469"/>
      <use xlink:href="#DejaVuSans-61" x="378.857422"/>
      <use xlink:href="#DejaVuSans-76" x="440.136719"/>
      <use xlink:href="#DejaVuSans-69" x="499.316406"/>
      <use xlink:href="#DejaVuSans-73" x="527.099609"/>
     </g>
    </g>
   </g>
   <g id="text_9">
    <g id="patch_10">
     <path d="M 67.711436 341.238415 
L 120.59628 341.238415 
L 120.59628 324.608102 
L 67.711436 324.608102 
z
" clip-path="url(#p1ed63c4a99)" style="fill: #ffffff; opacity: 0.7; stroke: #000000; stroke-linejoin: miter"/>
    </g>
    <g clip-path="url(#p1ed63c4a99)">
     <!-- E. E. Clive -->
     <g transform="translate(71.671436 335.406696)scale(0.09 -0.09)">
      <defs>
       <path id="DejaVuSans-45" d="M 628 4666 
L 3578 4666 
L 3578 4134 
L 1259 4134 
L 1259 2753 
L 3481 2753 
L 3481 2222 
L 1259 2222 
L 1259 531 
L 3634 531 
L 3634 0 
L 628 0 
L 628 4666 
z
" transform="scale(0.015625)"/>
       <path id="DejaVuSans-2e" d="M 684 794 
L 1344 794 
L 1344 0 
L 684 0 
L 684 794 
z
" transform="scale(0.015625)"/>
      </defs>
      <use xlink:href="#DejaVuSans-45"/>
      <use xlink:href="#DejaVuSans-2e" x="63.183594"/>
      <use xlink:href="#DejaVuSans-20" x="94.970703"/>
      <use xlink:href="#DejaVuSans-45" x="126.757812"/>
      <use xlink:href="#DejaVuSans-2e" x="189.941406"/>
      <use xlink:href="#DejaVuSans-20" x="221.728516"/>
      <use xlink:href="#DejaVuSans-43" x="253.515625"/>
      <use xlink:href="#DejaVuSans-6c" x="323.339844"/>
      <use xlink:href="#DejaVuSans-69" x="351.123047"/>
      <use xlink:href="#DejaVuSans-76" x="378.90625"/>
      <use xlink:href="#DejaVuSans-65" x="438.085938"/>
     </g>
    </g>
   </g>
   <g id="text_10">
    <g id="patch_11">
     <path d="M 92.747683 422.518281 
L 161.855026 422.518281 
L 161.855026 405.887968 
L 92.747683 405.887968 
z
" clip-path="url(#p1ed63c4a99)" style="fill: #ffffff; opacity: 0.7; stroke: #000000; stroke-linejoin: miter"/>
    </g>
    <g clip-path="url(#p1ed63c4a99)">
     <!-- Robert Arthur -->
     <g transform="translate(96.707683 416.686562)scale(0.09 -0.09)">
      <defs>
       <path id="DejaVuSans-62" d="M 3116 1747 
Q 3116 2381 2855 2742 
Q 2594 3103 2138 3103 
Q 1681 3103 1420 2742 
Q 1159 2381 1159 1747 
Q 1159 1113 1420 752 
Q 1681 391 2138 391 
Q 2594 391 2855 752 
Q 3116 1113 3116 1747 
z
M 1159 2969 
Q 1341 3281 1617 3432 
Q 1894 3584 2278 3584 
Q 2916 3584 3314 3078 
Q 3713 2572 3713 1747 
Q 3713 922 3314 415 
Q 2916 -91 2278 -91 
Q 1894 -91 1617 61 
Q 1341 213 1159 525 
L 1159 0 
L 581 0 
L 581 4863 
L 1159 4863 
L 1159 2969 
z
" transform="scale(0.015625)"/>
       <path id="DejaVuSans-41" d="M 2188 4044 
L 1331 1722 
L 3047 1722 
L 2188 4044 
z
M 1831 4666 
L 2547 4666 
L 4325 0 
L 3669 0 
L 3244 1197 
L 1141 1197 
L 716 0 
L 50 0 
L 1831 4666 
z
" transform="scale(0.015625)"/>
      </defs>
      <use xlink:href="#DejaVuSans-52"/>
      <use xlink:href="#DejaVuSans-6f" x="64.982422"/>
      <use xlink:href="#DejaVuSans-62" x="126.164062"/>
      <use xlink:href="#DejaVuSans-65" x="189.640625"/>
      <use xlink:href="#DejaVuSans-72" x="251.164062"/>
      <use xlink:href="#DejaVuSans-74" x="292.277344"/>
      <use xlink:href="#DejaVuSans-20" x="331.486328"/>
      <use xlink:href="#DejaVuSans-41" x="363.273438"/>
      <use xlink:href="#DejaVuSans-72" x="431.681641"/>
      <use xlink:href="#DejaVuSans-74" x="472.794922"/>
      <use xlink:href="#DejaVuSans-68" x="512.003906"/>
      <use xlink:href="#DejaVuSans-75" x="575.382812"/>
      <use xlink:href="#DejaVuSans-72" x="638.761719"/>
     </g>
    </g>
   </g>
   <g id="text_11">
    <g id="patch_12">
     <path d="M 160.077346 482.052101 
L 215.652346 482.052101 
L 215.652346 465.421789 
L 160.077346 465.421789 
z
" clip-path="url(#p1ed63c4a99)" style="fill: #ffffff; opacity: 0.7; stroke: #000000; stroke-linejoin: miter"/>
    </g>
    <g clip-path="url(#p1ed63c4a99)">
     <!-- Jaime King -->
     <g transform="translate(164.037346 476.220382)scale(0.09 -0.09)">
      <defs>
       <path id="DejaVuSans-4a" d="M 628 4666 
L 1259 4666 
L 1259 325 
Q 1259 -519 939 -900 
Q 619 -1281 -91 -1281 
L -331 -1281 
L -331 -750 
L -134 -750 
Q 284 -750 456 -515 
Q 628 -281 628 325 
L 628 4666 
z
" transform="scale(0.015625)"/>
      </defs>
      <use xlink:href="#DejaVuSans-4a"/>
      <use xlink:href="#DejaVuSans-61" x="29.492188"/>
      <use xlink:href="#DejaVuSans-69" x="90.771484"/>
      <use xlink:href="#DejaVuSans-6d" x="118.554688"/>
      <use xlink:href="#DejaVuSans-65" x="215.966797"/>
      <use xlink:href="#DejaVuSans-20" x="277.490234"/>
      <use xlink:href="#DejaVuSans-4b" x="309.277344"/>
      <use xlink:href="#DejaVuSans-69" x="374.853516"/>
      <use xlink:href="#DejaVuSans-6e" x="402.636719"/>
      <use xlink:href="#DejaVuSans-67" x="466.015625"/>
     </g>
    </g>
   </g>
   <g id="text_12">
    <g id="patch_13">
     <path d="M 232.173602 509.545925 
L 298.571102 509.545925 
L 298.571102 492.915613 
L 232.173602 492.915613 
z
" clip-path="url(#p1ed63c4a99)" style="fill: #ffffff; opacity: 0.7; stroke: #000000; stroke-linejoin: miter"/>
    </g>
    <g clip-path="url(#p1ed63c4a99)">
     <!-- Carla Gugino -->
     <g transform="translate(236.133602 503.714207)scale(0.09 -0.09)">
      <defs>
       <path id="DejaVuSans-47" d="M 3809 666 
L 3809 1919 
L 2778 1919 
L 2778 2438 
L 4434 2438 
L 4434 434 
Q 4069 175 3628 42 
Q 3188 -91 2688 -91 
Q 1594 -91 976 548 
Q 359 1188 359 2328 
Q 359 3472 976 4111 
Q 1594 4750 2688 4750 
Q 3144 4750 3555 4637 
Q 3966 4525 4313 4306 
L 4313 3634 
Q 3963 3931 3569 4081 
Q 3175 4231 2741 4231 
Q 1884 4231 1454 3753 
Q 1025 3275 1025 2328 
Q 1025 1384 1454 906 
Q 1884 428 2741 428 
Q 3075 428 3337 486 
Q 3600 544 3809 666 
z
" transform="scale(0.015625)"/>
      </defs>
      <use xlink:href="#DejaVuSans-43"/>
      <use xlink:href="#DejaVuSans-61" x="69.824219"/>
      <use xlink:href="#DejaVuSans-72" x="131.103516"/>
      <use xlink:href="#DejaVuSans-6c" x="172.216797"/>
      <use xlink:href="#DejaVuSans-61" x="200"/>
      <use xlink:href="#DejaVuSans-20" x="261.279297"/>
      <use xlink:href="#DejaVuSans-47" x="293.066406"/>
      <use xlink:href="#DejaVuSans-75" x="370.556641"/>
      <use xlink:href="#DejaVuSans-67" x="433.935547"/>
      <use xlink:href="#DejaVuSans-69" x="497.412109"/>
      <use xlink:href="#DejaVuSans-6e" x="525.195312"/>
      <use xlink:href="#DejaVuSans-6f" x="588.574219"/>
     </g>
    </g>
   </g>
   <g id="text_13">
    <g id="patch_14">
     <path d="M 305.167659 500.245817 
L 387.676565 500.245817 
L 387.676565 483.615505 
L 305.167659 483.615505 
z
" clip-path="url(#p1ed63c4a99)" style="fill: #ffffff; opacity: 0.7; stroke: #000000; stroke-linejoin: miter"/>
    </g>
    <g clip-path="url(#p1ed63c4a99)">
     <!-- Cloris Leachman -->
     <g transform="translate(309.127659 494.414099)scale(0.09 -0.09)">
      <defs>
       <path id="DejaVuSans-63" d="M 3122 3366 
L 3122 2828 
Q 2878 2963 2633 3030 
Q 2388 3097 2138 3097 
Q 1578 3097 1268 2742 
Q 959 2388 959 1747 
Q 959 1106 1268 751 
Q 1578 397 2138 397 
Q 2388 397 2633 464 
Q 2878 531 3122 666 
L 3122 134 
Q 2881 22 2623 -34 
Q 2366 -91 2075 -91 
Q 1284 -91 818 406 
Q 353 903 353 1747 
Q 353 2603 823 3093 
Q 1294 3584 2113 3584 
Q 2378 3584 2631 3529 
Q 2884 3475 3122 3366 
z
" transform="scale(0.015625)"/>
      </defs>
      <use xlink:href="#DejaVuSans-43"/>
      <use xlink:href="#DejaVuSans-6c" x="69.824219"/>
      <use xlink:href="#DejaVuSans-6f" x="97.607422"/>
      <use xlink:href="#DejaVuSans-72" x="158.789062"/>
      <use xlink:href="#DejaVuSans-69" x="199.902344"/>
      <use xlink:href="#DejaVuSans-73" x="227.685547"/>
      <use xlink:href="#DejaVuSans-20" x="279.785156"/>
      <use xlink:href="#DejaVuSans-4c" x="311.572266"/>
      <use xlink:href="#DejaVuSans-65" x="365.535156"/>
      <use xlink:href="#DejaVuSans-61" x="427.058594"/>
      <use xlink:href="#DejaVuSans-63" x="488.337891"/>
      <use xlink:href="#DejaVuSans-68" x="543.318359"/>
      <use xlink:href="#DejaVuSans-6d" x="606.697266"/>
      <use xlink:href="#DejaVuSans-61" x="704.109375"/>
      <use xlink:href="#DejaVuSans-6e" x="765.388672"/>
     </g>
    </g>
   </g>
   <g id="text_14">
    <g id="patch_15">
     <path d="M 386.548961 455.759846 
L 447.450836 455.759846 
L 447.450836 439.129533 
L 386.548961 439.129533 
z
" clip-path="url(#p1ed63c4a99)" style="fill: #ffffff; opacity: 0.7; stroke: #000000; stroke-linejoin: miter"/>
    </g>
    <g clip-path="url(#p1ed63c4a99)">
     <!-- Edie Adams -->
     <g transform="translate(390.508961 449.928127)scale(0.09 -0.09)">
      <use xlink:href="#DejaVuSans-45"/>
      <use xlink:href="#DejaVuSans-64" x="63.183594"/>
      <use xlink:href="#DejaVuSans-69" x="126.660156"/>
      <use xlink:href="#DejaVuSans-65" x="154.443359"/>
      <use xlink:href="#DejaVuSans-20" x="215.966797"/>
      <use xlink:href="#DejaVuSans-41" x="247.753906"/>
      <use xlink:href="#DejaVuSans-64" x="314.412109"/>
      <use xlink:href="#DejaVuSans-61" x="377.888672"/>
      <use xlink:href="#DejaVuSans-6d" x="439.167969"/>
      <use xlink:href="#DejaVuSans-73" x="536.580078"/>
     </g>
    </g>
   </g>
   <g id="text_15">
    <g id="patch_16">
     <path d="M 430.984814 383.780063 
L 498.819502 383.780063 
L 498.819502 367.14975 
L 430.984814 367.14975 
z
" clip-path="url(#p1ed63c4a99)" style="fill: #ffffff; opacity: 0.7; stroke: #000000; stroke-linejoin: miter"/>
    </g>
    <g clip-path="url(#p1ed63c4a99)">
     <!-- Gregory Peck -->
     <g transform="translate(434.944814 377.948344)scale(0.09 -0.09)">
      <defs>
       <path id="DejaVuSans-50" d="M 1259 4147 
L 1259 2394 
L 2053 2394 
Q 2494 2394 2734 2622 
Q 2975 2850 2975 3272 
Q 2975 3691 2734 3919 
Q 2494 4147 2053 4147 
L 1259 4147 
z
M 628 4666 
L 2053 4666 
Q 2838 4666 3239 4311 
Q 3641 3956 3641 3272 
Q 3641 2581 3239 2228 
Q 2838 1875 2053 1875 
L 1259 1875 
L 1259 0 
L 628 0 
L 628 4666 
z
" transform="scale(0.015625)"/>
      </defs>
      <use xlink:href="#DejaVuSans-47"/>
      <use xlink:href="#DejaVuSans-72" x="77.490234"/>
      <use xlink:href="#DejaVuSans-65" x="116.353516"/>
      <use xlink:href="#DejaVuSans-67" x="177.876953"/>
      <use xlink:href="#DejaVuSans-6f" x="241.353516"/>
      <use xlink:href="#DejaVuSans-72" x="302.535156"/>
      <use xlink:href="#DejaVuSans-79" x="343.648438"/>
      <use xlink:href="#DejaVuSans-20" x="402.828125"/>
      <use xlink:href="#DejaVuSans-50" x="434.615234"/>
      <use xlink:href="#DejaVuSans-65" x="491.292969"/>
      <use xlink:href="#DejaVuSans-63" x="552.816406"/>
      <use xlink:href="#DejaVuSans-6b" x="607.796875"/>
     </g>
    </g>
   </g>
   <g id="text_16">
    <!-- Impactful actors for Black-and-white genre -->
    <g transform="translate(159.599063 4.8)scale(0.12 -0.12)">
     <defs>
      <path id="DejaVuSans-49" d="M 628 4666 
L 1259 4666 
L 1259 0 
L 628 0 
L 628 4666 
z
" transform="scale(0.015625)"/>
      <path id="DejaVuSans-66" d="M 2375 4863 
L 2375 4384 
L 1825 4384 
Q 1516 4384 1395 4259 
Q 1275 4134 1275 3809 
L 1275 3500 
L 2222 3500 
L 2222 3053 
L 1275 3053 
L 1275 0 
L 697 0 
L 697 3053 
L 147 3053 
L 147 3500 
L 697 3500 
L 697 3744 
Q 697 4328 969 4595 
Q 1241 4863 1831 4863 
L 2375 4863 
z
" transform="scale(0.015625)"/>
      <path id="DejaVuSans-2d" d="M 313 2009 
L 1997 2009 
L 1997 1497 
L 313 1497 
L 313 2009 
z
" transform="scale(0.015625)"/>
      <path id="DejaVuSans-77" d="M 269 3500 
L 844 3500 
L 1563 769 
L 2278 3500 
L 2956 3500 
L 3675 769 
L 4391 3500 
L 4966 3500 
L 4050 0 
L 3372 0 
L 2619 2869 
L 1863 0 
L 1184 0 
L 269 3500 
z
" transform="scale(0.015625)"/>
     </defs>
     <use xlink:href="#DejaVuSans-49"/>
     <use xlink:href="#DejaVuSans-6d" x="29.492188"/>
     <use xlink:href="#DejaVuSans-70" x="126.904297"/>
     <use xlink:href="#DejaVuSans-61" x="190.380859"/>
     <use xlink:href="#DejaVuSans-63" x="251.660156"/>
     <use xlink:href="#DejaVuSans-74" x="306.640625"/>
     <use xlink:href="#DejaVuSans-66" x="345.849609"/>
     <use xlink:href="#DejaVuSans-75" x="381.054688"/>
     <use xlink:href="#DejaVuSans-6c" x="444.433594"/>
     <use xlink:href="#DejaVuSans-20" x="472.216797"/>
     <use xlink:href="#DejaVuSans-61" x="504.003906"/>
     <use xlink:href="#DejaVuSans-63" x="565.283203"/>
     <use xlink:href="#DejaVuSans-74" x="620.263672"/>
     <use xlink:href="#DejaVuSans-6f" x="659.472656"/>
     <use xlink:href="#DejaVuSans-72" x="720.654297"/>
     <use xlink:href="#DejaVuSans-73" x="761.767578"/>
     <use xlink:href="#DejaVuSans-20" x="813.867188"/>
     <use xlink:href="#DejaVuSans-66" x="845.654297"/>
     <use xlink:href="#DejaVuSans-6f" x="880.859375"/>
     <use xlink:href="#DejaVuSans-72" x="942.041016"/>
     <use xlink:href="#DejaVuSans-20" x="983.154297"/>
     <use xlink:href="#DejaVuSans-42" x="1014.941406"/>
     <use xlink:href="#DejaVuSans-6c" x="1083.544922"/>
     <use xlink:href="#DejaVuSans-61" x="1111.328125"/>
     <use xlink:href="#DejaVuSans-63" x="1172.607422"/>
     <use xlink:href="#DejaVuSans-6b" x="1227.587891"/>
     <use xlink:href="#DejaVuSans-2d" x="1285.498047"/>
     <use xlink:href="#DejaVuSans-61" x="1321.582031"/>
     <use xlink:href="#DejaVuSans-6e" x="1382.861328"/>
     <use xlink:href="#DejaVuSans-64" x="1446.240234"/>
     <use xlink:href="#DejaVuSans-2d" x="1509.716797"/>
     <use xlink:href="#DejaVuSans-77" x="1545.800781"/>
     <use xlink:href="#DejaVuSans-68" x="1627.587891"/>
     <use xlink:href="#DejaVuSans-69" x="1690.966797"/>
     <use xlink:href="#DejaVuSans-74" x="1718.75"/>
     <use xlink:href="#DejaVuSans-65" x="1757.958984"/>
     <use xlink:href="#DejaVuSans-20" x="1819.482422"/>
     <use xlink:href="#DejaVuSans-67" x="1851.269531"/>
     <use xlink:href="#DejaVuSans-65" x="1914.746094"/>
     <use xlink:href="#DejaVuSans-6e" x="1976.269531"/>
     <use xlink:href="#DejaVuSans-72" x="2039.648438"/>
     <use xlink:href="#DejaVuSans-65" x="2078.511719"/>
    </g>
   </g>
  </g>
 </g>
 <defs>
  <clipPath id="p1ed63c4a99">
   <rect x="10.8" y="10.8" width="554.4" height="554.4"/>
  </clipPath>
 </defs>
</svg>
