<?xml version="1.0" encoding="utf-8" standalone="no"?>
<!DOCTYPE svg PUBLIC "-//W3C//DTD SVG 1.1//EN"
  "http://www.w3.org/Graphics/SVG/1.1/DTD/svg11.dtd">
<svg xmlns:xlink="http://www.w3.org/1999/xlink" width="568.8pt" height="583.918125pt" viewBox="0 0 568.8 583.918125" xmlns="http://www.w3.org/2000/svg" version="1.1">
 <metadata>
  <rdf:RDF xmlns:dc="http://purl.org/dc/elements/1.1/" xmlns:cc="http://creativecommons.org/ns#" xmlns:rdf="http://www.w3.org/1999/02/22-rdf-syntax-ns#">
   <cc:Work>
    <dc:type rdf:resource="http://purl.org/dc/dcmitype/StillImage"/>
    <dc:date>2022-12-23T17:29:05.453070</dc:date>
    <dc:format>image/svg+xml</dc:format>
    <dc:creator>
     <cc:Agent>
      <dc:title>Matplotlib v3.5.2, https://matplotlib.org/</dc:title>
     </cc:Agent>
    </dc:creator>
   </cc:Work>
  </rdf:RDF>
 </metadata>
 <defs>
  <style type="text/css">*{stroke-linejoin: round; stroke-linecap: butt}</style>
 </defs>
 <g id="figure_1">
  <g id="patch_1">
   <path d="M 0 583.918125 
L 568.8 583.918125 
L 568.8 0 
L 0 0 
z
" style="fill: #ffffff"/>
  </g>
  <g id="axes_1">
   <g id="LineCollection_1">
    <path d="M 478.246154 304.718875 
L 184.264816 123.567234 
" clip-path="url(#p18670d09d6)" style="fill: none; stroke: #000000; stroke-opacity: 0.3; stroke-width: 6.701197"/>
    <path d="M 342.822083 105.780766 
L 261.772317 96.688857 
" clip-path="url(#p18670d09d6)" style="fill: none; stroke: #000000; stroke-opacity: 0.3; stroke-width: 10"/>
    <path d="M 342.822083 105.780766 
L 90.553846 261.228777 
" clip-path="url(#p18670d09d6)" style="fill: none; stroke: #000000; stroke-opacity: 0.3; stroke-width: 5"/>
   </g>
   <g id="PathCollection_1">
    <path d="M 478.246154 332.105003 
C 485.50904 332.105003 492.475435 329.219428 497.611071 324.083792 
C 502.746707 318.948156 505.632282 311.981761 505.632282 304.718875 
C 505.632282 297.455989 502.746707 290.489595 497.611071 285.353959 
C 492.475435 280.218323 485.50904 277.332748 478.246154 277.332748 
C 470.983268 277.332748 464.016873 280.218323 458.881237 285.353959 
C 453.745601 290.489595 450.860026 297.455989 450.860026 304.718875 
C 450.860026 311.981761 453.745601 318.948156 458.881237 324.083792 
C 464.016873 329.219428 470.983268 332.105003 478.246154 332.105003 
z
" clip-path="url(#p18670d09d6)" style="fill: #c70039; fill-opacity: 0.99; stroke: #c70039; stroke-opacity: 0.99"/>
    <path d="M 461.302134 247.009375 
C 468.560744 247.009375 475.523037 244.125499 480.655649 238.992887 
C 485.788262 233.860274 488.672138 226.897981 488.672138 219.639372 
C 488.672138 212.380762 485.788262 205.418469 480.655649 200.285856 
C 475.523037 195.153244 468.560744 192.269368 461.302134 192.269368 
C 454.043525 192.269368 447.081231 195.153244 441.948619 200.285856 
C 436.816007 205.418469 433.932131 212.380762 433.932131 219.639372 
C 433.932131 226.897981 436.816007 233.860274 441.948619 238.992887 
C 447.081231 244.125499 454.043525 247.009375 461.302134 247.009375 
z
" clip-path="url(#p18670d09d6)" style="fill: #c70039; fill-opacity: 0.99; stroke: #c70039; stroke-opacity: 0.99"/>
    <path d="M 413.399864 176.304638 
C 420.569301 176.304638 427.446062 173.456191 432.515619 168.386633 
C 437.585177 163.317075 440.433625 156.440314 440.433625 149.270877 
C 440.433625 142.10144 437.585177 135.224679 432.515619 130.155121 
C 427.446062 125.085564 420.569301 122.237116 413.399864 122.237116 
C 406.230426 122.237116 399.353665 125.085564 394.284108 130.155121 
C 389.21455 135.224679 386.366102 142.10144 386.366102 149.270877 
C 386.366102 156.440314 389.21455 163.317075 394.284108 168.386633 
C 399.353665 173.456191 406.230426 176.304638 413.399864 176.304638 
z
" clip-path="url(#p18670d09d6)" style="fill: #c70039; fill-opacity: 0.99; stroke: #c70039; stroke-opacity: 0.99"/>
    <path d="M 342.822083 131.984174 
C 349.771308 131.984174 356.436846 129.223217 361.35069 124.309373 
C 366.264534 119.395529 369.025491 112.729991 369.025491 105.780766 
C 369.025491 98.831541 366.264534 92.166003 361.35069 87.252159 
C 356.436846 82.338315 349.771308 79.577358 342.822083 79.577358 
C 335.872858 79.577358 329.20732 82.338315 324.293476 87.252159 
C 319.379632 92.166003 316.618675 98.831541 316.618675 105.780766 
C 316.618675 112.729991 319.379632 119.395529 324.293476 124.309373 
C 329.20732 129.223217 335.872858 131.984174 342.822083 131.984174 
z
" clip-path="url(#p18670d09d6)" style="fill: #c70039; fill-opacity: 0.99; stroke: #c70039; stroke-opacity: 0.99"/>
    <path d="M 261.772317 121.892117 
C 268.4563 121.892117 274.867423 119.236542 279.593713 114.510253 
C 284.320002 109.783963 286.975577 103.372839 286.975577 96.688857 
C 286.975577 90.004874 284.320002 83.59375 279.593713 78.867461 
C 274.867423 74.141171 268.4563 71.485597 261.772317 71.485597 
C 255.088334 71.485597 248.67721 74.141171 243.950921 78.867461 
C 239.224631 83.59375 236.569057 90.004874 236.569057 96.688857 
C 236.569057 103.372839 239.224631 109.783963 243.950921 114.510253 
C 248.67721 119.236542 255.088334 121.892117 261.772317 121.892117 
z
" clip-path="url(#p18670d09d6)" style="fill: #c70039; fill-opacity: 0.99; stroke: #c70039; stroke-opacity: 0.99"/>
    <path d="M 184.264816 147.013606 
C 190.482867 147.013606 196.44708 144.543148 200.843905 140.146323 
C 205.240731 135.749497 207.711189 129.785284 207.711189 123.567234 
C 207.711189 117.349183 205.240731 111.384971 200.843905 106.988145 
C 196.44708 102.591319 190.482867 100.120861 184.264816 100.120861 
C 178.046766 100.120861 172.082553 102.591319 167.685728 106.988145 
C 163.288902 111.384971 160.818444 117.349183 160.818444 123.567234 
C 160.818444 129.785284 163.288902 135.749497 167.685728 140.146323 
C 172.082553 144.543148 178.046766 147.013606 184.264816 147.013606 
z
" clip-path="url(#p18670d09d6)" style="fill: #c70039; fill-opacity: 0.99; stroke: #c70039; stroke-opacity: 0.99"/>
    <path d="M 123.701343 204.429729 
C 129.711206 204.429729 135.47573 202.041985 139.725346 197.79237 
C 143.974961 193.542755 146.362705 187.77823 146.362705 181.768367 
C 146.362705 175.758503 143.974961 169.993979 139.725346 165.744364 
C 135.47573 161.494749 129.711206 159.107005 123.701343 159.107005 
C 117.691479 159.107005 111.926955 161.494749 107.67734 165.744364 
C 103.427725 169.993979 101.03998 175.758503 101.03998 181.768367 
C 101.03998 187.77823 103.427725 193.542755 107.67734 197.79237 
C 111.926955 202.041985 117.691479 204.429729 123.701343 204.429729 
z
" clip-path="url(#p18670d09d6)" style="fill: #c70039; fill-opacity: 0.99; stroke: #c70039; stroke-opacity: 0.99"/>
    <path d="M 90.553846 283.481786 
C 96.455413 283.481786 102.116062 281.137068 106.2891 276.96403 
C 110.462138 272.790992 112.806855 267.130344 112.806855 261.228777 
C 112.806855 255.32721 110.462138 249.666561 106.2891 245.493523 
C 102.116062 241.320485 96.455413 238.975768 90.553846 238.975768 
C 84.652279 238.975768 78.991631 241.320485 74.818593 245.493523 
C 70.645555 249.666561 68.300837 255.32721 68.300837 261.228777 
C 68.300837 267.130344 70.645555 272.790992 74.818593 276.96403 
C 78.991631 281.137068 84.652279 283.481786 90.553846 283.481786 
z
" clip-path="url(#p18670d09d6)" style="fill: #c70039; fill-opacity: 0.99; stroke: #c70039; stroke-opacity: 0.99"/>
    <path d="M 90.553858 369.080235 
C 96.088971 369.080235 101.398125 366.881111 105.312041 362.967195 
C 109.225957 359.053279 111.425081 353.744125 111.425081 348.209012 
C 111.425081 342.673898 109.225957 337.364744 105.312041 333.450828 
C 101.398125 329.536912 96.088971 327.337788 90.553858 327.337788 
C 85.018745 327.337788 79.70959 329.536912 75.795674 333.450828 
C 71.881758 337.364744 69.682635 342.673898 69.682635 348.209012 
C 69.682635 353.744125 71.881758 359.053279 75.795674 362.967195 
C 79.70959 366.881111 85.018745 369.080235 90.553858 369.080235 
z
" clip-path="url(#p18670d09d6)" style="fill: #c70039; fill-opacity: 0.99; stroke: #c70039; stroke-opacity: 0.99"/>
    <path d="M 123.701354 447.552843 
C 128.974506 447.552843 134.032393 445.457798 137.761074 441.729116 
C 141.489755 438.000435 143.584801 432.942548 143.584801 427.669396 
C 143.584801 422.396245 141.489755 417.338358 137.761074 413.609677 
C 134.032393 409.880995 128.974506 407.78595 123.701354 407.78595 
C 118.428203 407.78595 113.370316 409.880995 109.641635 413.609677 
C 105.912953 417.338358 103.817908 422.396245 103.817908 427.669396 
C 103.817908 432.942548 105.912953 438.000435 109.641635 441.729116 
C 113.370316 445.457798 118.428203 447.552843 123.701354 447.552843 
z
" clip-path="url(#p18670d09d6)" style="fill: #c70039; fill-opacity: 0.99; stroke: #c70039; stroke-opacity: 0.99"/>
    <path d="M 184.264846 505.745572 
C 189.535769 505.745572 194.591518 503.651412 198.318623 499.924307 
C 202.045728 496.197202 204.139888 491.141452 204.139888 485.87053 
C 204.139888 480.599607 202.045728 475.543858 198.318623 471.816752 
C 194.591518 468.089647 189.535769 465.995487 184.264846 465.995487 
C 178.993923 465.995487 173.938174 468.089647 170.211068 471.816752 
C 166.483963 475.543858 164.389803 480.599607 164.389803 485.87053 
C 164.389803 491.141452 166.483963 496.197202 170.211068 499.924307 
C 173.938174 503.651412 178.993923 505.745572 184.264846 505.745572 
z
" clip-path="url(#p18670d09d6)" style="fill: #c70039; fill-opacity: 0.99; stroke: #c70039; stroke-opacity: 0.99"/>
    <path d="M 261.772352 532.593334 
C 267.035159 532.593334 272.083123 530.502398 275.80449 526.781032 
C 279.525856 523.059666 281.616791 518.011701 281.616791 512.748894 
C 281.616791 507.486087 279.525856 502.438123 275.80449 498.716757 
C 272.083123 494.99539 267.035159 492.904455 261.772352 492.904455 
C 256.509545 492.904455 251.461581 494.99539 247.740214 498.716757 
C 244.018848 502.438123 241.927913 507.486087 241.927913 512.748894 
C 241.927913 518.011701 244.018848 523.059666 247.740214 526.781032 
C 251.461581 530.502398 256.509545 532.593334 261.772352 532.593334 
z
" clip-path="url(#p18670d09d6)" style="fill: #c70039; fill-opacity: 0.99; stroke: #c70039; stroke-opacity: 0.99"/>
    <path d="M 342.822112 523.325501 
C 348.038267 523.325501 353.041484 521.253101 356.729862 517.564722 
C 360.41824 513.876344 362.490641 508.873127 362.490641 503.656973 
C 362.490641 498.440818 360.41824 493.437601 356.729862 489.749223 
C 353.041484 486.060844 348.038267 483.988444 342.822112 483.988444 
C 337.605957 483.988444 332.602741 486.060844 328.914362 489.749223 
C 325.225984 493.437601 323.153584 498.440818 323.153584 503.656973 
C 323.153584 508.873127 325.225984 513.876344 328.914362 517.564722 
C 332.602741 521.253101 337.605957 523.325501 342.822112 523.325501 
z
" clip-path="url(#p18670d09d6)" style="fill: #c70039; fill-opacity: 0.99; stroke: #c70039; stroke-opacity: 0.99"/>
    <path d="M 413.399899 479.566527 
C 418.544757 479.566527 423.479587 477.522454 427.117552 473.884489 
C 430.755516 470.246525 432.799589 465.311695 432.799589 460.166836 
C 432.799589 455.021978 430.755516 450.087148 427.117552 446.449183 
C 423.479587 442.811219 418.544757 440.767146 413.399899 440.767146 
C 408.25504 440.767146 403.32021 442.811219 399.682246 446.449183 
C 396.044281 450.087148 394.000208 455.021978 394.000208 460.166836 
C 394.000208 465.311695 396.044281 470.246525 399.682246 473.884489 
C 403.32021 477.522454 408.25504 479.566527 413.399899 479.566527 
z
" clip-path="url(#p18670d09d6)" style="fill: #c70039; fill-opacity: 0.99; stroke: #c70039; stroke-opacity: 0.99"/>
    <path d="M 461.302158 409.163265 
C 466.437794 409.163265 471.363779 407.122855 474.995222 403.491412 
C 478.626665 399.859969 480.667074 394.933984 480.667074 389.798348 
C 480.667074 384.662712 478.626665 379.736727 474.995222 376.105284 
C 471.363779 372.473841 466.437794 370.433432 461.302158 370.433432 
C 456.166522 370.433432 451.240537 372.473841 447.609094 376.105284 
C 443.977651 379.736727 441.937241 384.662712 441.937241 389.798348 
C 441.937241 394.933984 443.977651 399.859969 447.609094 403.491412 
C 451.240537 407.122855 456.166522 409.163265 461.302158 409.163265 
z
" clip-path="url(#p18670d09d6)" style="fill: #c70039; fill-opacity: 0.99; stroke: #c70039; stroke-opacity: 0.99"/>
   </g>
   <g id="text_1">
    <g id="patch_2">
     <path d="M 443.287482 313.034032 
L 513.204826 313.034032 
L 513.204826 296.403719 
L 443.287482 296.403719 
z
" clip-path="url(#p18670d09d6)" style="fill: #ffffff; opacity: 0.7; stroke: #000000; stroke-linejoin: miter"/>
    </g>
    <g clip-path="url(#p18670d09d6)">
     <!-- Danny DeVito -->
     <g transform="translate(447.247482 307.202313)scale(0.09 -0.09)">
      <defs>
       <path id="DejaVuSans-44" d="M 1259 4147 
L 1259 519 
L 2022 519 
Q 2988 519 3436 956 
Q 3884 1394 3884 2338 
Q 3884 3275 3436 3711 
Q 2988 4147 2022 4147 
L 1259 4147 
z
M 628 4666 
L 1925 4666 
Q 3281 4666 3915 4102 
Q 4550 3538 4550 2338 
Q 4550 1131 3912 565 
Q 3275 0 1925 0 
L 628 0 
L 628 4666 
z
" transform="scale(0.015625)"/>
       <path id="DejaVuSans-61" d="M 2194 1759 
Q 1497 1759 1228 1600 
Q 959 1441 959 1056 
Q 959 750 1161 570 
Q 1363 391 1709 391 
Q 2188 391 2477 730 
Q 2766 1069 2766 1631 
L 2766 1759 
L 2194 1759 
z
M 3341 1997 
L 3341 0 
L 2766 0 
L 2766 531 
Q 2569 213 2275 61 
Q 1981 -91 1556 -91 
Q 1019 -91 701 211 
Q 384 513 384 1019 
Q 384 1609 779 1909 
Q 1175 2209 1959 2209 
L 2766 2209 
L 2766 2266 
Q 2766 2663 2505 2880 
Q 2244 3097 1772 3097 
Q 1472 3097 1187 3025 
Q 903 2953 641 2809 
L 641 3341 
Q 956 3463 1253 3523 
Q 1550 3584 1831 3584 
Q 2591 3584 2966 3190 
Q 3341 2797 3341 1997 
z
" transform="scale(0.015625)"/>
       <path id="DejaVuSans-6e" d="M 3513 2113 
L 3513 0 
L 2938 0 
L 2938 2094 
Q 2938 2591 2744 2837 
Q 2550 3084 2163 3084 
Q 1697 3084 1428 2787 
Q 1159 2491 1159 1978 
L 1159 0 
L 581 0 
L 581 3500 
L 1159 3500 
L 1159 2956 
Q 1366 3272 1645 3428 
Q 1925 3584 2291 3584 
Q 2894 3584 3203 3211 
Q 3513 2838 3513 2113 
z
" transform="scale(0.015625)"/>
       <path id="DejaVuSans-79" d="M 2059 -325 
Q 1816 -950 1584 -1140 
Q 1353 -1331 966 -1331 
L 506 -1331 
L 506 -850 
L 844 -850 
Q 1081 -850 1212 -737 
Q 1344 -625 1503 -206 
L 1606 56 
L 191 3500 
L 800 3500 
L 1894 763 
L 2988 3500 
L 3597 3500 
L 2059 -325 
z
" transform="scale(0.015625)"/>
       <path id="DejaVuSans-20" transform="scale(0.015625)"/>
       <path id="DejaVuSans-65" d="M 3597 1894 
L 3597 1613 
L 953 1613 
Q 991 1019 1311 708 
Q 1631 397 2203 397 
Q 2534 397 2845 478 
Q 3156 559 3463 722 
L 3463 178 
Q 3153 47 2828 -22 
Q 2503 -91 2169 -91 
Q 1331 -91 842 396 
Q 353 884 353 1716 
Q 353 2575 817 3079 
Q 1281 3584 2069 3584 
Q 2775 3584 3186 3129 
Q 3597 2675 3597 1894 
z
M 3022 2063 
Q 3016 2534 2758 2815 
Q 2500 3097 2075 3097 
Q 1594 3097 1305 2825 
Q 1016 2553 972 2059 
L 3022 2063 
z
" transform="scale(0.015625)"/>
       <path id="DejaVuSans-56" d="M 1831 0 
L 50 4666 
L 709 4666 
L 2188 738 
L 3669 4666 
L 4325 4666 
L 2547 0 
L 1831 0 
z
" transform="scale(0.015625)"/>
       <path id="DejaVuSans-69" d="M 603 3500 
L 1178 3500 
L 1178 0 
L 603 0 
L 603 3500 
z
M 603 4863 
L 1178 4863 
L 1178 4134 
L 603 4134 
L 603 4863 
z
" transform="scale(0.015625)"/>
       <path id="DejaVuSans-74" d="M 1172 4494 
L 1172 3500 
L 2356 3500 
L 2356 3053 
L 1172 3053 
L 1172 1153 
Q 1172 725 1289 603 
Q 1406 481 1766 481 
L 2356 481 
L 2356 0 
L 1766 0 
Q 1100 0 847 248 
Q 594 497 594 1153 
L 594 3053 
L 172 3053 
L 172 3500 
L 594 3500 
L 594 4494 
L 1172 4494 
z
" transform="scale(0.015625)"/>
       <path id="DejaVuSans-6f" d="M 1959 3097 
Q 1497 3097 1228 2736 
Q 959 2375 959 1747 
Q 959 1119 1226 758 
Q 1494 397 1959 397 
Q 2419 397 2687 759 
Q 2956 1122 2956 1747 
Q 2956 2369 2687 2733 
Q 2419 3097 1959 3097 
z
M 1959 3584 
Q 2709 3584 3137 3096 
Q 3566 2609 3566 1747 
Q 3566 888 3137 398 
Q 2709 -91 1959 -91 
Q 1206 -91 779 398 
Q 353 888 353 1747 
Q 353 2609 779 3096 
Q 1206 3584 1959 3584 
z
" transform="scale(0.015625)"/>
      </defs>
      <use xlink:href="#DejaVuSans-44"/>
      <use xlink:href="#DejaVuSans-61" x="77.001953"/>
      <use xlink:href="#DejaVuSans-6e" x="138.28125"/>
      <use xlink:href="#DejaVuSans-6e" x="201.660156"/>
      <use xlink:href="#DejaVuSans-79" x="265.039062"/>
      <use xlink:href="#DejaVuSans-20" x="324.21875"/>
      <use xlink:href="#DejaVuSans-44" x="356.005859"/>
      <use xlink:href="#DejaVuSans-65" x="433.007812"/>
      <use xlink:href="#DejaVuSans-56" x="494.53125"/>
      <use xlink:href="#DejaVuSans-69" x="560.689453"/>
      <use xlink:href="#DejaVuSans-74" x="588.472656"/>
      <use xlink:href="#DejaVuSans-6f" x="627.681641"/>
     </g>
    </g>
   </g>
   <g id="text_2">
    <g id="patch_3">
     <path d="M 423.929634 227.954528 
L 498.674634 227.954528 
L 498.674634 211.324215 
L 423.929634 211.324215 
z
" clip-path="url(#p18670d09d6)" style="fill: #ffffff; opacity: 0.7; stroke: #000000; stroke-linejoin: miter"/>
    </g>
    <g clip-path="url(#p18670d09d6)">
     <!-- Steve Buscemi -->
     <g transform="translate(427.889634 222.122809)scale(0.09 -0.09)">
      <defs>
       <path id="DejaVuSans-53" d="M 3425 4513 
L 3425 3897 
Q 3066 4069 2747 4153 
Q 2428 4238 2131 4238 
Q 1616 4238 1336 4038 
Q 1056 3838 1056 3469 
Q 1056 3159 1242 3001 
Q 1428 2844 1947 2747 
L 2328 2669 
Q 3034 2534 3370 2195 
Q 3706 1856 3706 1288 
Q 3706 609 3251 259 
Q 2797 -91 1919 -91 
Q 1588 -91 1214 -16 
Q 841 59 441 206 
L 441 856 
Q 825 641 1194 531 
Q 1563 422 1919 422 
Q 2459 422 2753 634 
Q 3047 847 3047 1241 
Q 3047 1584 2836 1778 
Q 2625 1972 2144 2069 
L 1759 2144 
Q 1053 2284 737 2584 
Q 422 2884 422 3419 
Q 422 4038 858 4394 
Q 1294 4750 2059 4750 
Q 2388 4750 2728 4690 
Q 3069 4631 3425 4513 
z
" transform="scale(0.015625)"/>
       <path id="DejaVuSans-76" d="M 191 3500 
L 800 3500 
L 1894 563 
L 2988 3500 
L 3597 3500 
L 2284 0 
L 1503 0 
L 191 3500 
z
" transform="scale(0.015625)"/>
       <path id="DejaVuSans-42" d="M 1259 2228 
L 1259 519 
L 2272 519 
Q 2781 519 3026 730 
Q 3272 941 3272 1375 
Q 3272 1813 3026 2020 
Q 2781 2228 2272 2228 
L 1259 2228 
z
M 1259 4147 
L 1259 2741 
L 2194 2741 
Q 2656 2741 2882 2914 
Q 3109 3088 3109 3444 
Q 3109 3797 2882 3972 
Q 2656 4147 2194 4147 
L 1259 4147 
z
M 628 4666 
L 2241 4666 
Q 2963 4666 3353 4366 
Q 3744 4066 3744 3513 
Q 3744 3084 3544 2831 
Q 3344 2578 2956 2516 
Q 3422 2416 3680 2098 
Q 3938 1781 3938 1306 
Q 3938 681 3513 340 
Q 3088 0 2303 0 
L 628 0 
L 628 4666 
z
" transform="scale(0.015625)"/>
       <path id="DejaVuSans-75" d="M 544 1381 
L 544 3500 
L 1119 3500 
L 1119 1403 
Q 1119 906 1312 657 
Q 1506 409 1894 409 
Q 2359 409 2629 706 
Q 2900 1003 2900 1516 
L 2900 3500 
L 3475 3500 
L 3475 0 
L 2900 0 
L 2900 538 
Q 2691 219 2414 64 
Q 2138 -91 1772 -91 
Q 1169 -91 856 284 
Q 544 659 544 1381 
z
M 1991 3584 
L 1991 3584 
z
" transform="scale(0.015625)"/>
       <path id="DejaVuSans-73" d="M 2834 3397 
L 2834 2853 
Q 2591 2978 2328 3040 
Q 2066 3103 1784 3103 
Q 1356 3103 1142 2972 
Q 928 2841 928 2578 
Q 928 2378 1081 2264 
Q 1234 2150 1697 2047 
L 1894 2003 
Q 2506 1872 2764 1633 
Q 3022 1394 3022 966 
Q 3022 478 2636 193 
Q 2250 -91 1575 -91 
Q 1294 -91 989 -36 
Q 684 19 347 128 
L 347 722 
Q 666 556 975 473 
Q 1284 391 1588 391 
Q 1994 391 2212 530 
Q 2431 669 2431 922 
Q 2431 1156 2273 1281 
Q 2116 1406 1581 1522 
L 1381 1569 
Q 847 1681 609 1914 
Q 372 2147 372 2553 
Q 372 3047 722 3315 
Q 1072 3584 1716 3584 
Q 2034 3584 2315 3537 
Q 2597 3491 2834 3397 
z
" transform="scale(0.015625)"/>
       <path id="DejaVuSans-63" d="M 3122 3366 
L 3122 2828 
Q 2878 2963 2633 3030 
Q 2388 3097 2138 3097 
Q 1578 3097 1268 2742 
Q 959 2388 959 1747 
Q 959 1106 1268 751 
Q 1578 397 2138 397 
Q 2388 397 2633 464 
Q 2878 531 3122 666 
L 3122 134 
Q 2881 22 2623 -34 
Q 2366 -91 2075 -91 
Q 1284 -91 818 406 
Q 353 903 353 1747 
Q 353 2603 823 3093 
Q 1294 3584 2113 3584 
Q 2378 3584 2631 3529 
Q 2884 3475 3122 3366 
z
" transform="scale(0.015625)"/>
       <path id="DejaVuSans-6d" d="M 3328 2828 
Q 3544 3216 3844 3400 
Q 4144 3584 4550 3584 
Q 5097 3584 5394 3201 
Q 5691 2819 5691 2113 
L 5691 0 
L 5113 0 
L 5113 2094 
Q 5113 2597 4934 2840 
Q 4756 3084 4391 3084 
Q 3944 3084 3684 2787 
Q 3425 2491 3425 1978 
L 3425 0 
L 2847 0 
L 2847 2094 
Q 2847 2600 2669 2842 
Q 2491 3084 2119 3084 
Q 1678 3084 1418 2786 
Q 1159 2488 1159 1978 
L 1159 0 
L 581 0 
L 581 3500 
L 1159 3500 
L 1159 2956 
Q 1356 3278 1631 3431 
Q 1906 3584 2284 3584 
Q 2666 3584 2933 3390 
Q 3200 3197 3328 2828 
z
" transform="scale(0.015625)"/>
      </defs>
      <use xlink:href="#DejaVuSans-53"/>
      <use xlink:href="#DejaVuSans-74" x="63.476562"/>
      <use xlink:href="#DejaVuSans-65" x="102.685547"/>
      <use xlink:href="#DejaVuSans-76" x="164.208984"/>
      <use xlink:href="#DejaVuSans-65" x="223.388672"/>
      <use xlink:href="#DejaVuSans-20" x="284.912109"/>
      <use xlink:href="#DejaVuSans-42" x="316.699219"/>
      <use xlink:href="#DejaVuSans-75" x="385.302734"/>
      <use xlink:href="#DejaVuSans-73" x="448.681641"/>
      <use xlink:href="#DejaVuSans-63" x="500.78125"/>
      <use xlink:href="#DejaVuSans-65" x="555.761719"/>
      <use xlink:href="#DejaVuSans-6d" x="617.285156"/>
      <use xlink:href="#DejaVuSans-69" x="714.697266"/>
     </g>
    </g>
   </g>
   <g id="text_3">
    <g id="patch_4">
     <path d="M 376.309317 157.586033 
L 450.49041 157.586033 
L 450.49041 140.955721 
L 376.309317 140.955721 
z
" clip-path="url(#p18670d09d6)" style="fill: #ffffff; opacity: 0.7; stroke: #000000; stroke-linejoin: miter"/>
    </g>
    <g clip-path="url(#p18670d09d6)">
     <!-- Robert De Niro -->
     <g transform="translate(380.269317 151.754315)scale(0.09 -0.09)">
      <defs>
       <path id="DejaVuSans-52" d="M 2841 2188 
Q 3044 2119 3236 1894 
Q 3428 1669 3622 1275 
L 4263 0 
L 3584 0 
L 2988 1197 
Q 2756 1666 2539 1819 
Q 2322 1972 1947 1972 
L 1259 1972 
L 1259 0 
L 628 0 
L 628 4666 
L 2053 4666 
Q 2853 4666 3247 4331 
Q 3641 3997 3641 3322 
Q 3641 2881 3436 2590 
Q 3231 2300 2841 2188 
z
M 1259 4147 
L 1259 2491 
L 2053 2491 
Q 2509 2491 2742 2702 
Q 2975 2913 2975 3322 
Q 2975 3731 2742 3939 
Q 2509 4147 2053 4147 
L 1259 4147 
z
" transform="scale(0.015625)"/>
       <path id="DejaVuSans-62" d="M 3116 1747 
Q 3116 2381 2855 2742 
Q 2594 3103 2138 3103 
Q 1681 3103 1420 2742 
Q 1159 2381 1159 1747 
Q 1159 1113 1420 752 
Q 1681 391 2138 391 
Q 2594 391 2855 752 
Q 3116 1113 3116 1747 
z
M 1159 2969 
Q 1341 3281 1617 3432 
Q 1894 3584 2278 3584 
Q 2916 3584 3314 3078 
Q 3713 2572 3713 1747 
Q 3713 922 3314 415 
Q 2916 -91 2278 -91 
Q 1894 -91 1617 61 
Q 1341 213 1159 525 
L 1159 0 
L 581 0 
L 581 4863 
L 1159 4863 
L 1159 2969 
z
" transform="scale(0.015625)"/>
       <path id="DejaVuSans-72" d="M 2631 2963 
Q 2534 3019 2420 3045 
Q 2306 3072 2169 3072 
Q 1681 3072 1420 2755 
Q 1159 2438 1159 1844 
L 1159 0 
L 581 0 
L 581 3500 
L 1159 3500 
L 1159 2956 
Q 1341 3275 1631 3429 
Q 1922 3584 2338 3584 
Q 2397 3584 2469 3576 
Q 2541 3569 2628 3553 
L 2631 2963 
z
" transform="scale(0.015625)"/>
       <path id="DejaVuSans-4e" d="M 628 4666 
L 1478 4666 
L 3547 763 
L 3547 4666 
L 4159 4666 
L 4159 0 
L 3309 0 
L 1241 3903 
L 1241 0 
L 628 0 
L 628 4666 
z
" transform="scale(0.015625)"/>
      </defs>
      <use xlink:href="#DejaVuSans-52"/>
      <use xlink:href="#DejaVuSans-6f" x="64.982422"/>
      <use xlink:href="#DejaVuSans-62" x="126.164062"/>
      <use xlink:href="#DejaVuSans-65" x="189.640625"/>
      <use xlink:href="#DejaVuSans-72" x="251.164062"/>
      <use xlink:href="#DejaVuSans-74" x="292.277344"/>
      <use xlink:href="#DejaVuSans-20" x="331.486328"/>
      <use xlink:href="#DejaVuSans-44" x="363.273438"/>
      <use xlink:href="#DejaVuSans-65" x="440.275391"/>
      <use xlink:href="#DejaVuSans-20" x="501.798828"/>
      <use xlink:href="#DejaVuSans-4e" x="533.585938"/>
      <use xlink:href="#DejaVuSans-69" x="608.390625"/>
      <use xlink:href="#DejaVuSans-72" x="636.173828"/>
      <use xlink:href="#DejaVuSans-6f" x="675.037109"/>
     </g>
    </g>
   </g>
   <g id="text_4">
    <g id="patch_5">
     <path d="M 309.839192 114.095922 
L 375.804974 114.095922 
L 375.804974 97.46561 
L 309.839192 97.46561 
z
" clip-path="url(#p18670d09d6)" style="fill: #ffffff; opacity: 0.7; stroke: #000000; stroke-linejoin: miter"/>
    </g>
    <g clip-path="url(#p18670d09d6)">
     <!-- Frank Welker -->
     <g transform="translate(313.799192 108.264203)scale(0.09 -0.09)">
      <defs>
       <path id="DejaVuSans-46" d="M 628 4666 
L 3309 4666 
L 3309 4134 
L 1259 4134 
L 1259 2759 
L 3109 2759 
L 3109 2228 
L 1259 2228 
L 1259 0 
L 628 0 
L 628 4666 
z
" transform="scale(0.015625)"/>
       <path id="DejaVuSans-6b" d="M 581 4863 
L 1159 4863 
L 1159 1991 
L 2875 3500 
L 3609 3500 
L 1753 1863 
L 3688 0 
L 2938 0 
L 1159 1709 
L 1159 0 
L 581 0 
L 581 4863 
z
" transform="scale(0.015625)"/>
       <path id="DejaVuSans-57" d="M 213 4666 
L 850 4666 
L 1831 722 
L 2809 4666 
L 3519 4666 
L 4500 722 
L 5478 4666 
L 6119 4666 
L 4947 0 
L 4153 0 
L 3169 4050 
L 2175 0 
L 1381 0 
L 213 4666 
z
" transform="scale(0.015625)"/>
       <path id="DejaVuSans-6c" d="M 603 4863 
L 1178 4863 
L 1178 0 
L 603 0 
L 603 4863 
z
" transform="scale(0.015625)"/>
      </defs>
      <use xlink:href="#DejaVuSans-46"/>
      <use xlink:href="#DejaVuSans-72" x="50.269531"/>
      <use xlink:href="#DejaVuSans-61" x="91.382812"/>
      <use xlink:href="#DejaVuSans-6e" x="152.662109"/>
      <use xlink:href="#DejaVuSans-6b" x="216.041016"/>
      <use xlink:href="#DejaVuSans-20" x="273.951172"/>
      <use xlink:href="#DejaVuSans-57" x="305.738281"/>
      <use xlink:href="#DejaVuSans-65" x="398.740234"/>
      <use xlink:href="#DejaVuSans-6c" x="460.263672"/>
      <use xlink:href="#DejaVuSans-6b" x="488.046875"/>
      <use xlink:href="#DejaVuSans-65" x="542.332031"/>
      <use xlink:href="#DejaVuSans-72" x="603.855469"/>
     </g>
    </g>
   </g>
   <g id="text_5">
    <g id="patch_6">
     <path d="M 225.357473 105.004013 
L 298.187161 105.004013 
L 298.187161 88.3737 
L 225.357473 88.3737 
z
" clip-path="url(#p18670d09d6)" style="fill: #ffffff; opacity: 0.7; stroke: #000000; stroke-linejoin: miter"/>
    </g>
    <g clip-path="url(#p18670d09d6)">
     <!-- Jim Cummings -->
     <g transform="translate(229.317473 99.172294)scale(0.09 -0.09)">
      <defs>
       <path id="DejaVuSans-4a" d="M 628 4666 
L 1259 4666 
L 1259 325 
Q 1259 -519 939 -900 
Q 619 -1281 -91 -1281 
L -331 -1281 
L -331 -750 
L -134 -750 
Q 284 -750 456 -515 
Q 628 -281 628 325 
L 628 4666 
z
" transform="scale(0.015625)"/>
       <path id="DejaVuSans-43" d="M 4122 4306 
L 4122 3641 
Q 3803 3938 3442 4084 
Q 3081 4231 2675 4231 
Q 1875 4231 1450 3742 
Q 1025 3253 1025 2328 
Q 1025 1406 1450 917 
Q 1875 428 2675 428 
Q 3081 428 3442 575 
Q 3803 722 4122 1019 
L 4122 359 
Q 3791 134 3420 21 
Q 3050 -91 2638 -91 
Q 1578 -91 968 557 
Q 359 1206 359 2328 
Q 359 3453 968 4101 
Q 1578 4750 2638 4750 
Q 3056 4750 3426 4639 
Q 3797 4528 4122 4306 
z
" transform="scale(0.015625)"/>
       <path id="DejaVuSans-67" d="M 2906 1791 
Q 2906 2416 2648 2759 
Q 2391 3103 1925 3103 
Q 1463 3103 1205 2759 
Q 947 2416 947 1791 
Q 947 1169 1205 825 
Q 1463 481 1925 481 
Q 2391 481 2648 825 
Q 2906 1169 2906 1791 
z
M 3481 434 
Q 3481 -459 3084 -895 
Q 2688 -1331 1869 -1331 
Q 1566 -1331 1297 -1286 
Q 1028 -1241 775 -1147 
L 775 -588 
Q 1028 -725 1275 -790 
Q 1522 -856 1778 -856 
Q 2344 -856 2625 -561 
Q 2906 -266 2906 331 
L 2906 616 
Q 2728 306 2450 153 
Q 2172 0 1784 0 
Q 1141 0 747 490 
Q 353 981 353 1791 
Q 353 2603 747 3093 
Q 1141 3584 1784 3584 
Q 2172 3584 2450 3431 
Q 2728 3278 2906 2969 
L 2906 3500 
L 3481 3500 
L 3481 434 
z
" transform="scale(0.015625)"/>
      </defs>
      <use xlink:href="#DejaVuSans-4a"/>
      <use xlink:href="#DejaVuSans-69" x="29.492188"/>
      <use xlink:href="#DejaVuSans-6d" x="57.275391"/>
      <use xlink:href="#DejaVuSans-20" x="154.6875"/>
      <use xlink:href="#DejaVuSans-43" x="186.474609"/>
      <use xlink:href="#DejaVuSans-75" x="256.298828"/>
      <use xlink:href="#DejaVuSans-6d" x="319.677734"/>
      <use xlink:href="#DejaVuSans-6d" x="417.089844"/>
      <use xlink:href="#DejaVuSans-69" x="514.501953"/>
      <use xlink:href="#DejaVuSans-6e" x="542.285156"/>
      <use xlink:href="#DejaVuSans-67" x="605.664062"/>
      <use xlink:href="#DejaVuSans-73" x="669.140625"/>
     </g>
    </g>
   </g>
   <g id="text_6">
    <g id="patch_7">
     <path d="M 147.81341 131.88239 
L 220.716223 131.88239 
L 220.716223 115.252078 
L 147.81341 115.252078 
z
" clip-path="url(#p18670d09d6)" style="fill: #ffffff; opacity: 0.7; stroke: #000000; stroke-linejoin: miter"/>
    </g>
    <g clip-path="url(#p18670d09d6)">
     <!-- Jack Nicholson -->
     <g transform="translate(151.77341 126.050671)scale(0.09 -0.09)">
      <defs>
       <path id="DejaVuSans-68" d="M 3513 2113 
L 3513 0 
L 2938 0 
L 2938 2094 
Q 2938 2591 2744 2837 
Q 2550 3084 2163 3084 
Q 1697 3084 1428 2787 
Q 1159 2491 1159 1978 
L 1159 0 
L 581 0 
L 581 4863 
L 1159 4863 
L 1159 2956 
Q 1366 3272 1645 3428 
Q 1925 3584 2291 3584 
Q 2894 3584 3203 3211 
Q 3513 2838 3513 2113 
z
" transform="scale(0.015625)"/>
      </defs>
      <use xlink:href="#DejaVuSans-4a"/>
      <use xlink:href="#DejaVuSans-61" x="29.492188"/>
      <use xlink:href="#DejaVuSans-63" x="90.771484"/>
      <use xlink:href="#DejaVuSans-6b" x="145.751953"/>
      <use xlink:href="#DejaVuSans-20" x="203.662109"/>
      <use xlink:href="#DejaVuSans-4e" x="235.449219"/>
      <use xlink:href="#DejaVuSans-69" x="310.253906"/>
      <use xlink:href="#DejaVuSans-63" x="338.037109"/>
      <use xlink:href="#DejaVuSans-68" x="393.017578"/>
      <use xlink:href="#DejaVuSans-6f" x="456.396484"/>
      <use xlink:href="#DejaVuSans-6c" x="517.578125"/>
      <use xlink:href="#DejaVuSans-73" x="545.361328"/>
      <use xlink:href="#DejaVuSans-6f" x="597.460938"/>
      <use xlink:href="#DejaVuSans-6e" x="658.642578"/>
     </g>
    </g>
   </g>
   <g id="text_7">
    <g id="patch_8">
     <path d="M 90.279702 190.083523 
L 157.122983 190.083523 
L 157.122983 173.453211 
L 90.279702 173.453211 
z
" clip-path="url(#p18670d09d6)" style="fill: #ffffff; opacity: 0.7; stroke: #000000; stroke-linejoin: miter"/>
    </g>
    <g clip-path="url(#p18670d09d6)">
     <!-- Stanley Tucci -->
     <g transform="translate(94.239702 184.251804)scale(0.09 -0.09)">
      <defs>
       <path id="DejaVuSans-54" d="M -19 4666 
L 3928 4666 
L 3928 4134 
L 2272 4134 
L 2272 0 
L 1638 0 
L 1638 4134 
L -19 4134 
L -19 4666 
z
" transform="scale(0.015625)"/>
      </defs>
      <use xlink:href="#DejaVuSans-53"/>
      <use xlink:href="#DejaVuSans-74" x="63.476562"/>
      <use xlink:href="#DejaVuSans-61" x="102.685547"/>
      <use xlink:href="#DejaVuSans-6e" x="163.964844"/>
      <use xlink:href="#DejaVuSans-6c" x="227.34375"/>
      <use xlink:href="#DejaVuSans-65" x="255.126953"/>
      <use xlink:href="#DejaVuSans-79" x="316.650391"/>
      <use xlink:href="#DejaVuSans-20" x="375.830078"/>
      <use xlink:href="#DejaVuSans-54" x="407.617188"/>
      <use xlink:href="#DejaVuSans-75" x="453.576172"/>
      <use xlink:href="#DejaVuSans-63" x="516.955078"/>
      <use xlink:href="#DejaVuSans-63" x="571.935547"/>
      <use xlink:href="#DejaVuSans-69" x="626.916016"/>
     </g>
    </g>
   </g>
   <g id="text_8">
    <g id="patch_9">
     <path d="M 64.840565 269.543933 
L 116.267127 269.543933 
L 116.267127 252.913621 
L 64.840565 252.913621 
z
" clip-path="url(#p18670d09d6)" style="fill: #ffffff; opacity: 0.7; stroke: #000000; stroke-linejoin: miter"/>
    </g>
    <g clip-path="url(#p18670d09d6)">
     <!-- Mel Blanc -->
     <g transform="translate(68.800565 263.712214)scale(0.09 -0.09)">
      <defs>
       <path id="DejaVuSans-4d" d="M 628 4666 
L 1569 4666 
L 2759 1491 
L 3956 4666 
L 4897 4666 
L 4897 0 
L 4281 0 
L 4281 4097 
L 3078 897 
L 2444 897 
L 1241 4097 
L 1241 0 
L 628 0 
L 628 4666 
z
" transform="scale(0.015625)"/>
      </defs>
      <use xlink:href="#DejaVuSans-4d"/>
      <use xlink:href="#DejaVuSans-65" x="86.279297"/>
      <use xlink:href="#DejaVuSans-6c" x="147.802734"/>
      <use xlink:href="#DejaVuSans-20" x="175.585938"/>
      <use xlink:href="#DejaVuSans-42" x="207.373047"/>
      <use xlink:href="#DejaVuSans-6c" x="275.976562"/>
      <use xlink:href="#DejaVuSans-61" x="303.759766"/>
      <use xlink:href="#DejaVuSans-6e" x="365.039062"/>
      <use xlink:href="#DejaVuSans-63" x="428.417969"/>
     </g>
    </g>
   </g>
   <g id="text_9">
    <g id="patch_10">
     <path d="M 51.016436 356.524168 
L 130.09128 356.524168 
L 130.09128 339.893855 
L 51.016436 339.893855 
z
" clip-path="url(#p18670d09d6)" style="fill: #ffffff; opacity: 0.7; stroke: #000000; stroke-linejoin: miter"/>
    </g>
    <g clip-path="url(#p18670d09d6)">
     <!-- Jennifer Aniston -->
     <g transform="translate(54.976436 350.692449)scale(0.09 -0.09)">
      <defs>
       <path id="DejaVuSans-66" d="M 2375 4863 
L 2375 4384 
L 1825 4384 
Q 1516 4384 1395 4259 
Q 1275 4134 1275 3809 
L 1275 3500 
L 2222 3500 
L 2222 3053 
L 1275 3053 
L 1275 0 
L 697 0 
L 697 3053 
L 147 3053 
L 147 3500 
L 697 3500 
L 697 3744 
Q 697 4328 969 4595 
Q 1241 4863 1831 4863 
L 2375 4863 
z
" transform="scale(0.015625)"/>
       <path id="DejaVuSans-41" d="M 2188 4044 
L 1331 1722 
L 3047 1722 
L 2188 4044 
z
M 1831 4666 
L 2547 4666 
L 4325 0 
L 3669 0 
L 3244 1197 
L 1141 1197 
L 716 0 
L 50 0 
L 1831 4666 
z
" transform="scale(0.015625)"/>
      </defs>
      <use xlink:href="#DejaVuSans-4a"/>
      <use xlink:href="#DejaVuSans-65" x="29.492188"/>
      <use xlink:href="#DejaVuSans-6e" x="91.015625"/>
      <use xlink:href="#DejaVuSans-6e" x="154.394531"/>
      <use xlink:href="#DejaVuSans-69" x="217.773438"/>
      <use xlink:href="#DejaVuSans-66" x="245.556641"/>
      <use xlink:href="#DejaVuSans-65" x="280.761719"/>
      <use xlink:href="#DejaVuSans-72" x="342.285156"/>
      <use xlink:href="#DejaVuSans-20" x="383.398438"/>
      <use xlink:href="#DejaVuSans-41" x="415.185547"/>
      <use xlink:href="#DejaVuSans-6e" x="483.59375"/>
      <use xlink:href="#DejaVuSans-69" x="546.972656"/>
      <use xlink:href="#DejaVuSans-73" x="574.755859"/>
      <use xlink:href="#DejaVuSans-74" x="626.855469"/>
      <use xlink:href="#DejaVuSans-6f" x="666.064453"/>
      <use xlink:href="#DejaVuSans-6e" x="727.246094"/>
     </g>
    </g>
   </g>
   <g id="text_10">
    <g id="patch_11">
     <path d="M 99.384479 435.984553 
L 148.018229 435.984553 
L 148.018229 419.35424 
L 99.384479 419.35424 
z
" clip-path="url(#p18670d09d6)" style="fill: #ffffff; opacity: 0.7; stroke: #000000; stroke-linejoin: miter"/>
    </g>
    <g clip-path="url(#p18670d09d6)">
     <!-- Al Pacino -->
     <g transform="translate(103.344479 430.152834)scale(0.09 -0.09)">
      <defs>
       <path id="DejaVuSans-50" d="M 1259 4147 
L 1259 2394 
L 2053 2394 
Q 2494 2394 2734 2622 
Q 2975 2850 2975 3272 
Q 2975 3691 2734 3919 
Q 2494 4147 2053 4147 
L 1259 4147 
z
M 628 4666 
L 2053 4666 
Q 2838 4666 3239 4311 
Q 3641 3956 3641 3272 
Q 3641 2581 3239 2228 
Q 2838 1875 2053 1875 
L 1259 1875 
L 1259 0 
L 628 0 
L 628 4666 
z
" transform="scale(0.015625)"/>
      </defs>
      <use xlink:href="#DejaVuSans-41"/>
      <use xlink:href="#DejaVuSans-6c" x="68.408203"/>
      <use xlink:href="#DejaVuSans-20" x="96.191406"/>
      <use xlink:href="#DejaVuSans-50" x="127.978516"/>
      <use xlink:href="#DejaVuSans-61" x="183.78125"/>
      <use xlink:href="#DejaVuSans-63" x="245.060547"/>
      <use xlink:href="#DejaVuSans-69" x="300.041016"/>
      <use xlink:href="#DejaVuSans-6e" x="327.824219"/>
      <use xlink:href="#DejaVuSans-6f" x="391.203125"/>
     </g>
    </g>
   </g>
   <g id="text_11">
    <g id="patch_12">
     <path d="M 139.523596 494.185686 
L 229.006096 494.185686 
L 229.006096 477.555373 
L 139.523596 477.555373 
z
" clip-path="url(#p18670d09d6)" style="fill: #ffffff; opacity: 0.7; stroke: #000000; stroke-linejoin: miter"/>
    </g>
    <g clip-path="url(#p18670d09d6)">
     <!-- Samuel L. Jackson -->
     <g transform="translate(143.483596 488.353967)scale(0.09 -0.09)">
      <defs>
       <path id="DejaVuSans-4c" d="M 628 4666 
L 1259 4666 
L 1259 531 
L 3531 531 
L 3531 0 
L 628 0 
L 628 4666 
z
" transform="scale(0.015625)"/>
       <path id="DejaVuSans-2e" d="M 684 794 
L 1344 794 
L 1344 0 
L 684 0 
L 684 794 
z
" transform="scale(0.015625)"/>
      </defs>
      <use xlink:href="#DejaVuSans-53"/>
      <use xlink:href="#DejaVuSans-61" x="63.476562"/>
      <use xlink:href="#DejaVuSans-6d" x="124.755859"/>
      <use xlink:href="#DejaVuSans-75" x="222.167969"/>
      <use xlink:href="#DejaVuSans-65" x="285.546875"/>
      <use xlink:href="#DejaVuSans-6c" x="347.070312"/>
      <use xlink:href="#DejaVuSans-20" x="374.853516"/>
      <use xlink:href="#DejaVuSans-4c" x="406.640625"/>
      <use xlink:href="#DejaVuSans-2e" x="462.353516"/>
      <use xlink:href="#DejaVuSans-20" x="494.140625"/>
      <use xlink:href="#DejaVuSans-4a" x="525.927734"/>
      <use xlink:href="#DejaVuSans-61" x="555.419922"/>
      <use xlink:href="#DejaVuSans-63" x="616.699219"/>
      <use xlink:href="#DejaVuSans-6b" x="671.679688"/>
      <use xlink:href="#DejaVuSans-73" x="729.589844"/>
      <use xlink:href="#DejaVuSans-6f" x="781.689453"/>
      <use xlink:href="#DejaVuSans-6e" x="842.871094"/>
     </g>
    </g>
   </g>
   <g id="text_12">
    <g id="patch_13">
     <path d="M 228.660086 521.06405 
L 294.884618 521.06405 
L 294.884618 504.433738 
L 228.660086 504.433738 
z
" clip-path="url(#p18670d09d6)" style="fill: #ffffff; opacity: 0.7; stroke: #000000; stroke-linejoin: miter"/>
    </g>
    <g clip-path="url(#p18670d09d6)">
     <!-- Nicolas Cage -->
     <g transform="translate(232.620086 515.232332)scale(0.09 -0.09)">
      <use xlink:href="#DejaVuSans-4e"/>
      <use xlink:href="#DejaVuSans-69" x="74.804688"/>
      <use xlink:href="#DejaVuSans-63" x="102.587891"/>
      <use xlink:href="#DejaVuSans-6f" x="157.568359"/>
      <use xlink:href="#DejaVuSans-6c" x="218.75"/>
      <use xlink:href="#DejaVuSans-61" x="246.533203"/>
      <use xlink:href="#DejaVuSans-73" x="307.8125"/>
      <use xlink:href="#DejaVuSans-20" x="359.912109"/>
      <use xlink:href="#DejaVuSans-43" x="391.699219"/>
      <use xlink:href="#DejaVuSans-61" x="461.523438"/>
      <use xlink:href="#DejaVuSans-67" x="522.802734"/>
      <use xlink:href="#DejaVuSans-65" x="586.279297"/>
     </g>
    </g>
   </g>
   <g id="text_13">
    <g id="patch_14">
     <path d="M 305.961487 511.972129 
L 379.682737 511.972129 
L 379.682737 495.341816 
L 305.961487 495.341816 
z
" clip-path="url(#p18670d09d6)" style="fill: #ffffff; opacity: 0.7; stroke: #000000; stroke-linejoin: miter"/>
    </g>
    <g clip-path="url(#p18670d09d6)">
     <!-- Robin Williams -->
     <g transform="translate(309.921487 506.14041)scale(0.09 -0.09)">
      <use xlink:href="#DejaVuSans-52"/>
      <use xlink:href="#DejaVuSans-6f" x="64.982422"/>
      <use xlink:href="#DejaVuSans-62" x="126.164062"/>
      <use xlink:href="#DejaVuSans-69" x="189.640625"/>
      <use xlink:href="#DejaVuSans-6e" x="217.423828"/>
      <use xlink:href="#DejaVuSans-20" x="280.802734"/>
      <use xlink:href="#DejaVuSans-57" x="312.589844"/>
      <use xlink:href="#DejaVuSans-69" x="409.216797"/>
      <use xlink:href="#DejaVuSans-6c" x="437"/>
      <use xlink:href="#DejaVuSans-6c" x="464.783203"/>
      <use xlink:href="#DejaVuSans-69" x="492.566406"/>
      <use xlink:href="#DejaVuSans-61" x="520.349609"/>
      <use xlink:href="#DejaVuSans-6d" x="581.628906"/>
      <use xlink:href="#DejaVuSans-73" x="679.041016"/>
     </g>
    </g>
   </g>
   <g id="text_14">
    <g id="patch_15">
     <path d="M 376.381774 468.481993 
L 450.418024 468.481993 
L 450.418024 451.85168 
L 376.381774 451.85168 
z
" clip-path="url(#p18670d09d6)" style="fill: #ffffff; opacity: 0.7; stroke: #000000; stroke-linejoin: miter"/>
    </g>
    <g clip-path="url(#p18670d09d6)">
     <!-- John Goodman -->
     <g transform="translate(380.341774 462.650274)scale(0.09 -0.09)">
      <defs>
       <path id="DejaVuSans-47" d="M 3809 666 
L 3809 1919 
L 2778 1919 
L 2778 2438 
L 4434 2438 
L 4434 434 
Q 4069 175 3628 42 
Q 3188 -91 2688 -91 
Q 1594 -91 976 548 
Q 359 1188 359 2328 
Q 359 3472 976 4111 
Q 1594 4750 2688 4750 
Q 3144 4750 3555 4637 
Q 3966 4525 4313 4306 
L 4313 3634 
Q 3963 3931 3569 4081 
Q 3175 4231 2741 4231 
Q 1884 4231 1454 3753 
Q 1025 3275 1025 2328 
Q 1025 1384 1454 906 
Q 1884 428 2741 428 
Q 3075 428 3337 486 
Q 3600 544 3809 666 
z
" transform="scale(0.015625)"/>
       <path id="DejaVuSans-64" d="M 2906 2969 
L 2906 4863 
L 3481 4863 
L 3481 0 
L 2906 0 
L 2906 525 
Q 2725 213 2448 61 
Q 2172 -91 1784 -91 
Q 1150 -91 751 415 
Q 353 922 353 1747 
Q 353 2572 751 3078 
Q 1150 3584 1784 3584 
Q 2172 3584 2448 3432 
Q 2725 3281 2906 2969 
z
M 947 1747 
Q 947 1113 1208 752 
Q 1469 391 1925 391 
Q 2381 391 2643 752 
Q 2906 1113 2906 1747 
Q 2906 2381 2643 2742 
Q 2381 3103 1925 3103 
Q 1469 3103 1208 2742 
Q 947 2381 947 1747 
z
" transform="scale(0.015625)"/>
      </defs>
      <use xlink:href="#DejaVuSans-4a"/>
      <use xlink:href="#DejaVuSans-6f" x="29.492188"/>
      <use xlink:href="#DejaVuSans-68" x="90.673828"/>
      <use xlink:href="#DejaVuSans-6e" x="154.052734"/>
      <use xlink:href="#DejaVuSans-20" x="217.431641"/>
      <use xlink:href="#DejaVuSans-47" x="249.21875"/>
      <use xlink:href="#DejaVuSans-6f" x="326.708984"/>
      <use xlink:href="#DejaVuSans-6f" x="387.890625"/>
      <use xlink:href="#DejaVuSans-64" x="449.072266"/>
      <use xlink:href="#DejaVuSans-6d" x="512.548828"/>
      <use xlink:href="#DejaVuSans-61" x="609.960938"/>
      <use xlink:href="#DejaVuSans-6e" x="671.240234"/>
     </g>
    </g>
   </g>
   <g id="text_15">
    <g id="patch_16">
     <path d="M 434.668486 398.113505 
L 487.93583 398.113505 
L 487.93583 381.483192 
L 434.668486 381.483192 
z
" clip-path="url(#p18670d09d6)" style="fill: #ffffff; opacity: 0.7; stroke: #000000; stroke-linejoin: miter"/>
    </g>
    <g clip-path="url(#p18670d09d6)">
     <!-- Ray Liotta -->
     <g transform="translate(438.628486 392.281786)scale(0.09 -0.09)">
      <use xlink:href="#DejaVuSans-52"/>
      <use xlink:href="#DejaVuSans-61" x="67.232422"/>
      <use xlink:href="#DejaVuSans-79" x="128.511719"/>
      <use xlink:href="#DejaVuSans-20" x="187.691406"/>
      <use xlink:href="#DejaVuSans-4c" x="219.478516"/>
      <use xlink:href="#DejaVuSans-69" x="275.191406"/>
      <use xlink:href="#DejaVuSans-6f" x="302.974609"/>
      <use xlink:href="#DejaVuSans-74" x="364.15625"/>
      <use xlink:href="#DejaVuSans-74" x="403.365234"/>
      <use xlink:href="#DejaVuSans-61" x="442.574219"/>
     </g>
    </g>
   </g>
   <g id="text_16">
    <!-- Impactful actors for Comedy genre - Importance rank: 5 -->
    <g transform="translate(116.078437 16.318125)scale(0.12 -0.12)">
     <defs>
      <path id="DejaVuSans-49" d="M 628 4666 
L 1259 4666 
L 1259 0 
L 628 0 
L 628 4666 
z
" transform="scale(0.015625)"/>
      <path id="DejaVuSans-70" d="M 1159 525 
L 1159 -1331 
L 581 -1331 
L 581 3500 
L 1159 3500 
L 1159 2969 
Q 1341 3281 1617 3432 
Q 1894 3584 2278 3584 
Q 2916 3584 3314 3078 
Q 3713 2572 3713 1747 
Q 3713 922 3314 415 
Q 2916 -91 2278 -91 
Q 1894 -91 1617 61 
Q 1341 213 1159 525 
z
M 3116 1747 
Q 3116 2381 2855 2742 
Q 2594 3103 2138 3103 
Q 1681 3103 1420 2742 
Q 1159 2381 1159 1747 
Q 1159 1113 1420 752 
Q 1681 391 2138 391 
Q 2594 391 2855 752 
Q 3116 1113 3116 1747 
z
" transform="scale(0.015625)"/>
      <path id="DejaVuSans-2d" d="M 313 2009 
L 1997 2009 
L 1997 1497 
L 313 1497 
L 313 2009 
z
" transform="scale(0.015625)"/>
      <path id="DejaVuSans-3a" d="M 750 794 
L 1409 794 
L 1409 0 
L 750 0 
L 750 794 
z
M 750 3309 
L 1409 3309 
L 1409 2516 
L 750 2516 
L 750 3309 
z
" transform="scale(0.015625)"/>
      <path id="DejaVuSans-35" d="M 691 4666 
L 3169 4666 
L 3169 4134 
L 1269 4134 
L 1269 2991 
Q 1406 3038 1543 3061 
Q 1681 3084 1819 3084 
Q 2600 3084 3056 2656 
Q 3513 2228 3513 1497 
Q 3513 744 3044 326 
Q 2575 -91 1722 -91 
Q 1428 -91 1123 -41 
Q 819 9 494 109 
L 494 744 
Q 775 591 1075 516 
Q 1375 441 1709 441 
Q 2250 441 2565 725 
Q 2881 1009 2881 1497 
Q 2881 1984 2565 2268 
Q 2250 2553 1709 2553 
Q 1456 2553 1204 2497 
Q 953 2441 691 2322 
L 691 4666 
z
" transform="scale(0.015625)"/>
     </defs>
     <use xlink:href="#DejaVuSans-49"/>
     <use xlink:href="#DejaVuSans-6d" x="29.492188"/>
     <use xlink:href="#DejaVuSans-70" x="126.904297"/>
     <use xlink:href="#DejaVuSans-61" x="190.380859"/>
     <use xlink:href="#DejaVuSans-63" x="251.660156"/>
     <use xlink:href="#DejaVuSans-74" x="306.640625"/>
     <use xlink:href="#DejaVuSans-66" x="345.849609"/>
     <use xlink:href="#DejaVuSans-75" x="381.054688"/>
     <use xlink:href="#DejaVuSans-6c" x="444.433594"/>
     <use xlink:href="#DejaVuSans-20" x="472.216797"/>
     <use xlink:href="#DejaVuSans-61" x="504.003906"/>
     <use xlink:href="#DejaVuSans-63" x="565.283203"/>
     <use xlink:href="#DejaVuSans-74" x="620.263672"/>
     <use xlink:href="#DejaVuSans-6f" x="659.472656"/>
     <use xlink:href="#DejaVuSans-72" x="720.654297"/>
     <use xlink:href="#DejaVuSans-73" x="761.767578"/>
     <use xlink:href="#DejaVuSans-20" x="813.867188"/>
     <use xlink:href="#DejaVuSans-66" x="845.654297"/>
     <use xlink:href="#DejaVuSans-6f" x="880.859375"/>
     <use xlink:href="#DejaVuSans-72" x="942.041016"/>
     <use xlink:href="#DejaVuSans-20" x="983.154297"/>
     <use xlink:href="#DejaVuSans-43" x="1014.941406"/>
     <use xlink:href="#DejaVuSans-6f" x="1084.765625"/>
     <use xlink:href="#DejaVuSans-6d" x="1145.947266"/>
     <use xlink:href="#DejaVuSans-65" x="1243.359375"/>
     <use xlink:href="#DejaVuSans-64" x="1304.882812"/>
     <use xlink:href="#DejaVuSans-79" x="1368.359375"/>
     <use xlink:href="#DejaVuSans-20" x="1427.539062"/>
     <use xlink:href="#DejaVuSans-67" x="1459.326172"/>
     <use xlink:href="#DejaVuSans-65" x="1522.802734"/>
     <use xlink:href="#DejaVuSans-6e" x="1584.326172"/>
     <use xlink:href="#DejaVuSans-72" x="1647.705078"/>
     <use xlink:href="#DejaVuSans-65" x="1686.568359"/>
     <use xlink:href="#DejaVuSans-20" x="1748.091797"/>
     <use xlink:href="#DejaVuSans-2d" x="1779.878906"/>
     <use xlink:href="#DejaVuSans-20" x="1815.962891"/>
     <use xlink:href="#DejaVuSans-49" x="1847.75"/>
     <use xlink:href="#DejaVuSans-6d" x="1877.242188"/>
     <use xlink:href="#DejaVuSans-70" x="1974.654297"/>
     <use xlink:href="#DejaVuSans-6f" x="2038.130859"/>
     <use xlink:href="#DejaVuSans-72" x="2099.3125"/>
     <use xlink:href="#DejaVuSans-74" x="2140.425781"/>
     <use xlink:href="#DejaVuSans-61" x="2179.634766"/>
     <use xlink:href="#DejaVuSans-6e" x="2240.914062"/>
     <use xlink:href="#DejaVuSans-63" x="2304.292969"/>
     <use xlink:href="#DejaVuSans-65" x="2359.273438"/>
     <use xlink:href="#DejaVuSans-20" x="2420.796875"/>
     <use xlink:href="#DejaVuSans-72" x="2452.583984"/>
     <use xlink:href="#DejaVuSans-61" x="2493.697266"/>
     <use xlink:href="#DejaVuSans-6e" x="2554.976562"/>
     <use xlink:href="#DejaVuSans-6b" x="2618.355469"/>
     <use xlink:href="#DejaVuSans-3a" x="2676.265625"/>
     <use xlink:href="#DejaVuSans-20" x="2709.957031"/>
     <use xlink:href="#DejaVuSans-35" x="2741.744141"/>
    </g>
   </g>
  </g>
 </g>
 <defs>
  <clipPath id="p18670d09d6">
   <rect x="7.2" y="22.318125" width="554.4" height="554.4"/>
  </clipPath>
 </defs>
</svg>
