<?xml version="1.0" encoding="utf-8" standalone="no"?>
<!DOCTYPE svg PUBLIC "-//W3C//DTD SVG 1.1//EN"
  "http://www.w3.org/Graphics/SVG/1.1/DTD/svg11.dtd">
<svg xmlns:xlink="http://www.w3.org/1999/xlink" width="576pt" height="576pt" viewBox="0 0 576 576" xmlns="http://www.w3.org/2000/svg" version="1.1">
 <metadata>
  <rdf:RDF xmlns:dc="http://purl.org/dc/elements/1.1/" xmlns:cc="http://creativecommons.org/ns#" xmlns:rdf="http://www.w3.org/1999/02/22-rdf-syntax-ns#">
   <cc:Work>
    <dc:type rdf:resource="http://purl.org/dc/dcmitype/StillImage"/>
    <dc:date>2022-12-22T16:12:24.353135</dc:date>
    <dc:format>image/svg+xml</dc:format>
    <dc:creator>
     <cc:Agent>
      <dc:title>Matplotlib v3.5.2, https://matplotlib.org/</dc:title>
     </cc:Agent>
    </dc:creator>
   </cc:Work>
  </rdf:RDF>
 </metadata>
 <defs>
  <style type="text/css">*{stroke-linejoin: round; stroke-linecap: butt}</style>
 </defs>
 <g id="figure_1">
  <g id="patch_1">
   <path d="M 0 576 
L 576 576 
L 576 0 
L 0 0 
z
" style="fill: #ffffff"/>
  </g>
  <g id="axes_1">
   <g id="LineCollection_1">
    <path d="M 482.583454 292.330644 
L 464.76001 211.280881 
" clip-path="url(#p9d37cffbb9)" style="fill: none; stroke: #000000; stroke-opacity: 0.3; stroke-width: 9.918713"/>
    <path d="M 482.583454 292.330644 
L 414.371526 144.24535 
" clip-path="url(#p9d37cffbb9)" style="fill: none; stroke: #000000; stroke-opacity: 0.3; stroke-width: 8.061454"/>
    <path d="M 482.583454 292.330644 
L 340.130634 102.815122 
" clip-path="url(#p9d37cffbb9)" style="fill: none; stroke: #000000; stroke-opacity: 0.3; stroke-width: 7.594814"/>
    <path d="M 482.583454 292.330644 
L 340.130665 481.846154 
" clip-path="url(#p9d37cffbb9)" style="fill: none; stroke: #000000; stroke-opacity: 0.3; stroke-width: 10"/>
    <path d="M 464.76001 211.280881 
L 414.371526 144.24535 
" clip-path="url(#p9d37cffbb9)" style="fill: none; stroke: #000000; stroke-opacity: 0.3; stroke-width: 7.674739"/>
    <path d="M 464.76001 211.280881 
L 340.130665 481.846154 
" clip-path="url(#p9d37cffbb9)" style="fill: none; stroke: #000000; stroke-opacity: 0.3; stroke-width: 8.198109"/>
    <path d="M 340.130634 102.815122 
L 254.874242 94.153846 
" clip-path="url(#p9d37cffbb9)" style="fill: none; stroke: #000000; stroke-opacity: 0.3; stroke-width: 8.326246"/>
    <path d="M 340.130634 102.815122 
L 109.637141 175.203615 
" clip-path="url(#p9d37cffbb9)" style="fill: none; stroke: #000000; stroke-opacity: 0.3; stroke-width: 8.662191"/>
    <path d="M 254.874242 94.153846 
L 173.343966 119.759145 
" clip-path="url(#p9d37cffbb9)" style="fill: none; stroke: #000000; stroke-opacity: 0.3; stroke-width: 7.352677"/>
    <path d="M 254.874242 94.153846 
L 109.637141 175.203615 
" clip-path="url(#p9d37cffbb9)" style="fill: none; stroke: #000000; stroke-opacity: 0.3; stroke-width: 5"/>
    <path d="M 173.343966 119.759145 
L 109.637141 175.203615 
" clip-path="url(#p9d37cffbb9)" style="fill: none; stroke: #000000; stroke-opacity: 0.3; stroke-width: 7.352677"/>
   </g>
   <g id="PathCollection_1">
    <path d="M 482.583454 319.716772 
C 489.84634 319.716772 496.812734 316.831197 501.94837 311.695561 
C 507.084006 306.559925 509.969581 299.59353 509.969581 292.330644 
C 509.969581 285.067758 507.084006 278.101363 501.94837 272.965727 
C 496.812734 267.830091 489.84634 264.944516 482.583454 264.944516 
C 475.320568 264.944516 468.354173 267.830091 463.218537 272.965727 
C 458.082901 278.101363 455.197326 285.067758 455.197326 292.330644 
C 455.197326 299.59353 458.082901 306.559925 463.218537 311.695561 
C 468.354173 316.831197 475.320568 319.716772 482.583454 319.716772 
z
" clip-path="url(#p9d37cffbb9)" style="fill: #d62728; fill-opacity: 0.99; stroke: #d62728; stroke-opacity: 0.99"/>
    <path d="M 464.76001 236.433061 
C 471.430446 236.433061 477.828576 233.782869 482.545286 229.066158 
C 487.261997 224.349448 489.912189 217.951317 489.912189 211.280881 
C 489.912189 204.610445 487.261997 198.212315 482.545286 193.495605 
C 477.828576 188.778894 471.430446 186.128702 464.76001 186.128702 
C 458.089574 186.128702 451.691443 188.778894 446.974733 193.495605 
C 442.258022 198.212315 439.60783 204.610445 439.60783 211.280881 
C 439.60783 217.951317 442.258022 224.349448 446.974733 229.066158 
C 451.691443 233.782869 458.089574 236.433061 464.76001 236.433061 
z
" clip-path="url(#p9d37cffbb9)" style="fill: #d62728; fill-opacity: 0.99; stroke: #d62728; stroke-opacity: 0.99"/>
    <path d="M 414.371526 167.235247 
C 420.468518 167.235247 426.316614 164.812886 430.627839 160.501662 
C 434.939063 156.190438 437.361424 150.342342 437.361424 144.24535 
C 437.361424 138.148358 434.939063 132.300262 430.627839 127.989037 
C 426.316614 123.677813 420.468518 121.255452 414.371526 121.255452 
C 408.274534 121.255452 402.426438 123.677813 398.115214 127.989037 
C 393.80399 132.300262 391.381629 138.148358 391.381629 144.24535 
C 391.381629 150.342342 393.80399 156.190438 398.115214 160.501662 
C 402.426438 164.812886 408.274534 167.235247 414.371526 167.235247 
z
" clip-path="url(#p9d37cffbb9)" style="fill: #d62728; fill-opacity: 0.99; stroke: #d62728; stroke-opacity: 0.99"/>
    <path d="M 340.130634 125.626269 
C 346.180221 125.626269 351.982847 123.222743 356.260551 118.945039 
C 360.538255 114.667335 362.941781 108.864709 362.941781 102.815122 
C 362.941781 96.765535 360.538255 90.96291 356.260551 86.685206 
C 351.982847 82.407502 346.180221 80.003975 340.130634 80.003975 
C 334.081047 80.003975 328.278421 82.407502 324.000718 86.685206 
C 319.723014 90.96291 317.319487 96.765535 317.319487 102.815122 
C 317.319487 108.864709 319.723014 114.667335 324.000718 118.945039 
C 328.278421 123.222743 334.081047 125.626269 340.130634 125.626269 
z
" clip-path="url(#p9d37cffbb9)" style="fill: #d62728; fill-opacity: 0.99; stroke: #d62728; stroke-opacity: 0.99"/>
    <path d="M 254.874242 115.976994 
C 260.661809 115.976994 266.213111 113.677569 270.305538 109.585142 
C 274.397965 105.492714 276.69739 99.941413 276.69739 94.153846 
C 276.69739 88.36628 274.397965 82.814978 270.305538 78.722551 
C 266.213111 74.630123 260.661809 72.330699 254.874242 72.330699 
C 249.086676 72.330699 243.535374 74.630123 239.442947 78.722551 
C 235.350519 82.814978 233.051095 88.36628 233.051095 94.153846 
C 233.051095 99.941413 235.350519 105.492714 239.442947 109.585142 
C 243.535374 113.677569 249.086676 115.976994 254.874242 115.976994 
z
" clip-path="url(#p9d37cffbb9)" style="fill: #d62728; fill-opacity: 0.99; stroke: #d62728; stroke-opacity: 0.99"/>
    <path d="M 173.343966 140.963924 
C 178.967539 140.963924 184.361543 138.729655 188.338009 134.753188 
C 192.314476 130.776721 194.548746 125.382718 194.548746 119.759145 
C 194.548746 114.135571 192.314476 108.741568 188.338009 104.765101 
C 184.361543 100.788634 178.967539 98.554365 173.343966 98.554365 
C 167.720392 98.554365 162.326389 100.788634 158.349922 104.765101 
C 154.373455 108.741568 152.139186 114.135571 152.139186 119.759145 
C 152.139186 125.382718 154.373455 130.776721 158.349922 134.753188 
C 162.326389 138.729655 167.720392 140.963924 173.343966 140.963924 
z
" clip-path="url(#p9d37cffbb9)" style="fill: #d62728; fill-opacity: 0.99; stroke: #d62728; stroke-opacity: 0.99"/>
    <path d="M 109.637141 196.367684 
C 115.249918 196.367684 120.633565 194.137704 124.602398 190.168872 
C 128.57123 186.200039 130.80121 180.816392 130.80121 175.203615 
C 130.80121 169.590838 128.57123 164.207191 124.602398 160.238358 
C 120.633565 156.269526 115.249918 154.039546 109.637141 154.039546 
C 104.024364 154.039546 98.640717 156.269526 94.671884 160.238358 
C 90.703052 164.207191 88.473072 169.590838 88.473072 175.203615 
C 88.473072 180.816392 90.703052 186.200039 94.671884 190.168872 
C 98.640717 194.137704 104.024364 196.367684 109.637141 196.367684 
z
" clip-path="url(#p9d37cffbb9)" style="fill: #d62728; fill-opacity: 0.99; stroke: #d62728; stroke-opacity: 0.99"/>
    <path d="M 74.769231 271.883059 
C 80.333889 271.883059 85.671383 269.672197 89.606191 265.737389 
C 93.540999 261.802581 95.751861 256.465087 95.751861 250.900429 
C 95.751861 245.33577 93.540999 239.998276 89.606191 236.063468 
C 85.671383 232.12866 80.333889 229.917798 74.769231 229.917798 
C 69.204572 229.917798 63.867078 232.12866 59.93227 236.063468 
C 55.997463 239.998276 53.7866 245.33577 53.7866 250.900429 
C 53.7866 256.465087 55.997463 261.802581 59.93227 265.737389 
C 63.867078 269.672197 69.204572 271.883059 74.769231 271.883059 
z
" clip-path="url(#p9d37cffbb9)" style="fill: #d62728; fill-opacity: 0.99; stroke: #d62728; stroke-opacity: 0.99"/>
    <path d="M 74.769243 354.668525 
C 80.314011 354.668525 85.632426 352.465565 89.55317 348.544822 
C 93.473913 344.624079 95.676872 339.305663 95.676872 333.760895 
C 95.676872 328.216127 93.473913 322.897712 89.55317 318.976969 
C 85.632426 315.056225 80.314011 312.853266 74.769243 312.853266 
C 69.224475 312.853266 63.90606 315.056225 59.985317 318.976969 
C 56.064573 322.897712 53.861614 328.216127 53.861614 333.760895 
C 53.861614 339.305663 56.064573 344.624079 59.985317 348.544822 
C 63.90606 352.465565 69.224475 354.668525 74.769243 354.668525 
z
" clip-path="url(#p9d37cffbb9)" style="fill: #d62728; fill-opacity: 0.99; stroke: #d62728; stroke-opacity: 0.99"/>
    <path d="M 109.637153 429.959842 
C 115.074389 429.959842 120.289661 427.799605 124.134367 423.954899 
C 127.979074 420.110193 130.13931 414.894921 130.13931 409.457685 
C 130.13931 404.02045 127.979074 398.805177 124.134367 394.960471 
C 120.289661 391.115765 115.074389 388.955528 109.637153 388.955528 
C 104.199918 388.955528 98.984645 391.115765 95.139939 394.960471 
C 91.295233 398.805177 89.134996 404.02045 89.134996 409.457685 
C 89.134996 414.894921 91.295233 420.110193 95.139939 423.954899 
C 98.984645 427.799605 104.199918 429.959842 109.637153 429.959842 
z
" clip-path="url(#p9d37cffbb9)" style="fill: #d62728; fill-opacity: 0.99; stroke: #d62728; stroke-opacity: 0.99"/>
    <path d="M 173.343997 485.384173 
C 178.775891 485.384173 183.98604 483.226058 187.82697 479.385129 
C 191.667899 475.544199 193.826014 470.33405 193.826014 464.902155 
C 193.826014 459.470261 191.667899 454.260112 187.82697 450.419182 
C 183.98604 446.578253 178.775891 444.420138 173.343997 444.420138 
C 167.912102 444.420138 162.701953 446.578253 158.861023 450.419182 
C 155.020094 454.260112 152.861979 459.470261 152.861979 464.902155 
C 152.861979 470.33405 155.020094 475.544199 158.861023 479.385129 
C 162.701953 483.226058 167.912102 485.384173 173.343997 485.384173 
z
" clip-path="url(#p9d37cffbb9)" style="fill: #d62728; fill-opacity: 0.99; stroke: #d62728; stroke-opacity: 0.99"/>
    <path d="M 254.874279 510.907426 
C 260.284418 510.907426 265.4737 508.757955 269.299246 504.932409 
C 273.124792 501.106863 275.274263 495.917581 275.274263 490.507442 
C 275.274263 485.097303 273.124792 479.908021 269.299246 476.082475 
C 265.4737 472.256929 260.284418 470.107458 254.874279 470.107458 
C 249.46414 470.107458 244.274858 472.256929 240.449312 476.082475 
C 236.623766 479.908021 234.474295 485.097303 234.474295 490.507442 
C 234.474295 495.917581 236.623766 501.106863 240.449312 504.932409 
C 244.274858 508.757955 249.46414 510.907426 254.874279 510.907426 
z
" clip-path="url(#p9d37cffbb9)" style="fill: #d62728; fill-opacity: 0.99; stroke: #d62728; stroke-opacity: 0.99"/>
    <path d="M 340.130665 501.96924 
C 345.46737 501.96924 350.586216 499.848945 354.359836 496.075325 
C 358.133456 492.301704 360.253751 487.182859 360.253751 481.846154 
C 360.253751 476.509449 358.133456 471.390603 354.359836 467.616983 
C 350.586216 463.843363 345.46737 461.723068 340.130665 461.723068 
C 334.79396 461.723068 329.675115 463.843363 325.901494 467.616983 
C 322.127874 471.390603 320.007579 476.509449 320.007579 481.846154 
C 320.007579 487.182859 322.127874 492.301704 325.901494 496.075325 
C 329.675115 499.848945 334.79396 501.96924 340.130665 501.96924 
z
" clip-path="url(#p9d37cffbb9)" style="fill: #d62728; fill-opacity: 0.99; stroke: #d62728; stroke-opacity: 0.99"/>
    <path d="M 414.371563 459.785396 
C 419.508413 459.785396 424.435562 457.744504 428.067863 454.112203 
C 431.700164 450.479902 433.741056 445.552752 433.741056 440.415903 
C 433.741056 435.279053 431.700164 430.351904 428.067863 426.719603 
C 424.435562 423.087302 419.508413 421.04641 414.371563 421.04641 
C 409.234714 421.04641 404.307564 423.087302 400.675263 426.719603 
C 397.042962 430.351904 395.00207 435.279053 395.00207 440.415903 
C 395.00207 445.552752 397.042962 450.479902 400.675263 454.112203 
C 404.307564 457.744504 409.234714 459.785396 414.371563 459.785396 
z
" clip-path="url(#p9d37cffbb9)" style="fill: #d62728; fill-opacity: 0.99; stroke: #d62728; stroke-opacity: 0.99"/>
    <path d="M 464.760034 392.745294 
C 469.89567 392.745294 474.821655 390.704884 478.453098 387.073441 
C 482.084541 383.441998 484.124951 378.516013 484.124951 373.380377 
C 484.124951 368.244741 482.084541 363.318756 478.453098 359.687313 
C 474.821655 356.05587 469.89567 354.01546 464.760034 354.01546 
C 459.624398 354.01546 454.698413 356.05587 451.06697 359.687313 
C 447.435527 363.318756 445.395117 368.244741 445.395117 373.380377 
C 445.395117 378.516013 447.435527 383.441998 451.06697 387.073441 
C 454.698413 390.704884 459.624398 392.745294 464.760034 392.745294 
z
" clip-path="url(#p9d37cffbb9)" style="fill: #d62728; fill-opacity: 0.99; stroke: #d62728; stroke-opacity: 0.99"/>
   </g>
   <g id="text_1">
    <g id="patch_2">
     <path d="M 447.003922 300.6458 
L 518.162985 300.6458 
L 518.162985 284.015488 
L 447.003922 284.015488 
z
" clip-path="url(#p9d37cffbb9)" style="fill: #ffffff; opacity: 0.7; stroke: #000000; stroke-linejoin: miter"/>
    </g>
    <g clip-path="url(#p9d37cffbb9)">
     <!-- Adam Sandler -->
     <g transform="translate(450.963922 294.814082)scale(0.09 -0.09)">
      <defs>
       <path id="DejaVuSans-41" d="M 2188 4044 
L 1331 1722 
L 3047 1722 
L 2188 4044 
z
M 1831 4666 
L 2547 4666 
L 4325 0 
L 3669 0 
L 3244 1197 
L 1141 1197 
L 716 0 
L 50 0 
L 1831 4666 
z
" transform="scale(0.015625)"/>
       <path id="DejaVuSans-64" d="M 2906 2969 
L 2906 4863 
L 3481 4863 
L 3481 0 
L 2906 0 
L 2906 525 
Q 2725 213 2448 61 
Q 2172 -91 1784 -91 
Q 1150 -91 751 415 
Q 353 922 353 1747 
Q 353 2572 751 3078 
Q 1150 3584 1784 3584 
Q 2172 3584 2448 3432 
Q 2725 3281 2906 2969 
z
M 947 1747 
Q 947 1113 1208 752 
Q 1469 391 1925 391 
Q 2381 391 2643 752 
Q 2906 1113 2906 1747 
Q 2906 2381 2643 2742 
Q 2381 3103 1925 3103 
Q 1469 3103 1208 2742 
Q 947 2381 947 1747 
z
" transform="scale(0.015625)"/>
       <path id="DejaVuSans-61" d="M 2194 1759 
Q 1497 1759 1228 1600 
Q 959 1441 959 1056 
Q 959 750 1161 570 
Q 1363 391 1709 391 
Q 2188 391 2477 730 
Q 2766 1069 2766 1631 
L 2766 1759 
L 2194 1759 
z
M 3341 1997 
L 3341 0 
L 2766 0 
L 2766 531 
Q 2569 213 2275 61 
Q 1981 -91 1556 -91 
Q 1019 -91 701 211 
Q 384 513 384 1019 
Q 384 1609 779 1909 
Q 1175 2209 1959 2209 
L 2766 2209 
L 2766 2266 
Q 2766 2663 2505 2880 
Q 2244 3097 1772 3097 
Q 1472 3097 1187 3025 
Q 903 2953 641 2809 
L 641 3341 
Q 956 3463 1253 3523 
Q 1550 3584 1831 3584 
Q 2591 3584 2966 3190 
Q 3341 2797 3341 1997 
z
" transform="scale(0.015625)"/>
       <path id="DejaVuSans-6d" d="M 3328 2828 
Q 3544 3216 3844 3400 
Q 4144 3584 4550 3584 
Q 5097 3584 5394 3201 
Q 5691 2819 5691 2113 
L 5691 0 
L 5113 0 
L 5113 2094 
Q 5113 2597 4934 2840 
Q 4756 3084 4391 3084 
Q 3944 3084 3684 2787 
Q 3425 2491 3425 1978 
L 3425 0 
L 2847 0 
L 2847 2094 
Q 2847 2600 2669 2842 
Q 2491 3084 2119 3084 
Q 1678 3084 1418 2786 
Q 1159 2488 1159 1978 
L 1159 0 
L 581 0 
L 581 3500 
L 1159 3500 
L 1159 2956 
Q 1356 3278 1631 3431 
Q 1906 3584 2284 3584 
Q 2666 3584 2933 3390 
Q 3200 3197 3328 2828 
z
" transform="scale(0.015625)"/>
       <path id="DejaVuSans-20" transform="scale(0.015625)"/>
       <path id="DejaVuSans-53" d="M 3425 4513 
L 3425 3897 
Q 3066 4069 2747 4153 
Q 2428 4238 2131 4238 
Q 1616 4238 1336 4038 
Q 1056 3838 1056 3469 
Q 1056 3159 1242 3001 
Q 1428 2844 1947 2747 
L 2328 2669 
Q 3034 2534 3370 2195 
Q 3706 1856 3706 1288 
Q 3706 609 3251 259 
Q 2797 -91 1919 -91 
Q 1588 -91 1214 -16 
Q 841 59 441 206 
L 441 856 
Q 825 641 1194 531 
Q 1563 422 1919 422 
Q 2459 422 2753 634 
Q 3047 847 3047 1241 
Q 3047 1584 2836 1778 
Q 2625 1972 2144 2069 
L 1759 2144 
Q 1053 2284 737 2584 
Q 422 2884 422 3419 
Q 422 4038 858 4394 
Q 1294 4750 2059 4750 
Q 2388 4750 2728 4690 
Q 3069 4631 3425 4513 
z
" transform="scale(0.015625)"/>
       <path id="DejaVuSans-6e" d="M 3513 2113 
L 3513 0 
L 2938 0 
L 2938 2094 
Q 2938 2591 2744 2837 
Q 2550 3084 2163 3084 
Q 1697 3084 1428 2787 
Q 1159 2491 1159 1978 
L 1159 0 
L 581 0 
L 581 3500 
L 1159 3500 
L 1159 2956 
Q 1366 3272 1645 3428 
Q 1925 3584 2291 3584 
Q 2894 3584 3203 3211 
Q 3513 2838 3513 2113 
z
" transform="scale(0.015625)"/>
       <path id="DejaVuSans-6c" d="M 603 4863 
L 1178 4863 
L 1178 0 
L 603 0 
L 603 4863 
z
" transform="scale(0.015625)"/>
       <path id="DejaVuSans-65" d="M 3597 1894 
L 3597 1613 
L 953 1613 
Q 991 1019 1311 708 
Q 1631 397 2203 397 
Q 2534 397 2845 478 
Q 3156 559 3463 722 
L 3463 178 
Q 3153 47 2828 -22 
Q 2503 -91 2169 -91 
Q 1331 -91 842 396 
Q 353 884 353 1716 
Q 353 2575 817 3079 
Q 1281 3584 2069 3584 
Q 2775 3584 3186 3129 
Q 3597 2675 3597 1894 
z
M 3022 2063 
Q 3016 2534 2758 2815 
Q 2500 3097 2075 3097 
Q 1594 3097 1305 2825 
Q 1016 2553 972 2059 
L 3022 2063 
z
" transform="scale(0.015625)"/>
       <path id="DejaVuSans-72" d="M 2631 2963 
Q 2534 3019 2420 3045 
Q 2306 3072 2169 3072 
Q 1681 3072 1420 2755 
Q 1159 2438 1159 1844 
L 1159 0 
L 581 0 
L 581 3500 
L 1159 3500 
L 1159 2956 
Q 1341 3275 1631 3429 
Q 1922 3584 2338 3584 
Q 2397 3584 2469 3576 
Q 2541 3569 2628 3553 
L 2631 2963 
z
" transform="scale(0.015625)"/>
      </defs>
      <use xlink:href="#DejaVuSans-41"/>
      <use xlink:href="#DejaVuSans-64" x="66.658203"/>
      <use xlink:href="#DejaVuSans-61" x="130.134766"/>
      <use xlink:href="#DejaVuSans-6d" x="191.414062"/>
      <use xlink:href="#DejaVuSans-20" x="288.826172"/>
      <use xlink:href="#DejaVuSans-53" x="320.613281"/>
      <use xlink:href="#DejaVuSans-61" x="384.089844"/>
      <use xlink:href="#DejaVuSans-6e" x="445.369141"/>
      <use xlink:href="#DejaVuSans-64" x="508.748047"/>
      <use xlink:href="#DejaVuSans-6c" x="572.224609"/>
      <use xlink:href="#DejaVuSans-65" x="600.007812"/>
      <use xlink:href="#DejaVuSans-72" x="661.53125"/>
     </g>
    </g>
   </g>
   <g id="text_2">
    <g id="patch_3">
     <path d="M 433.228369 219.596038 
L 496.29165 219.596038 
L 496.29165 202.965725 
L 433.228369 202.965725 
z
" clip-path="url(#p9d37cffbb9)" style="fill: #ffffff; opacity: 0.7; stroke: #000000; stroke-linejoin: miter"/>
    </g>
    <g clip-path="url(#p9d37cffbb9)">
     <!-- Allen Covert -->
     <g transform="translate(437.188369 213.764319)scale(0.09 -0.09)">
      <defs>
       <path id="DejaVuSans-43" d="M 4122 4306 
L 4122 3641 
Q 3803 3938 3442 4084 
Q 3081 4231 2675 4231 
Q 1875 4231 1450 3742 
Q 1025 3253 1025 2328 
Q 1025 1406 1450 917 
Q 1875 428 2675 428 
Q 3081 428 3442 575 
Q 3803 722 4122 1019 
L 4122 359 
Q 3791 134 3420 21 
Q 3050 -91 2638 -91 
Q 1578 -91 968 557 
Q 359 1206 359 2328 
Q 359 3453 968 4101 
Q 1578 4750 2638 4750 
Q 3056 4750 3426 4639 
Q 3797 4528 4122 4306 
z
" transform="scale(0.015625)"/>
       <path id="DejaVuSans-6f" d="M 1959 3097 
Q 1497 3097 1228 2736 
Q 959 2375 959 1747 
Q 959 1119 1226 758 
Q 1494 397 1959 397 
Q 2419 397 2687 759 
Q 2956 1122 2956 1747 
Q 2956 2369 2687 2733 
Q 2419 3097 1959 3097 
z
M 1959 3584 
Q 2709 3584 3137 3096 
Q 3566 2609 3566 1747 
Q 3566 888 3137 398 
Q 2709 -91 1959 -91 
Q 1206 -91 779 398 
Q 353 888 353 1747 
Q 353 2609 779 3096 
Q 1206 3584 1959 3584 
z
" transform="scale(0.015625)"/>
       <path id="DejaVuSans-76" d="M 191 3500 
L 800 3500 
L 1894 563 
L 2988 3500 
L 3597 3500 
L 2284 0 
L 1503 0 
L 191 3500 
z
" transform="scale(0.015625)"/>
       <path id="DejaVuSans-74" d="M 1172 4494 
L 1172 3500 
L 2356 3500 
L 2356 3053 
L 1172 3053 
L 1172 1153 
Q 1172 725 1289 603 
Q 1406 481 1766 481 
L 2356 481 
L 2356 0 
L 1766 0 
Q 1100 0 847 248 
Q 594 497 594 1153 
L 594 3053 
L 172 3053 
L 172 3500 
L 594 3500 
L 594 4494 
L 1172 4494 
z
" transform="scale(0.015625)"/>
      </defs>
      <use xlink:href="#DejaVuSans-41"/>
      <use xlink:href="#DejaVuSans-6c" x="68.408203"/>
      <use xlink:href="#DejaVuSans-6c" x="96.191406"/>
      <use xlink:href="#DejaVuSans-65" x="123.974609"/>
      <use xlink:href="#DejaVuSans-6e" x="185.498047"/>
      <use xlink:href="#DejaVuSans-20" x="248.876953"/>
      <use xlink:href="#DejaVuSans-43" x="280.664062"/>
      <use xlink:href="#DejaVuSans-6f" x="350.488281"/>
      <use xlink:href="#DejaVuSans-76" x="411.669922"/>
      <use xlink:href="#DejaVuSans-65" x="470.849609"/>
      <use xlink:href="#DejaVuSans-72" x="532.373047"/>
      <use xlink:href="#DejaVuSans-74" x="573.486328"/>
     </g>
    </g>
   </g>
   <g id="text_3">
    <g id="patch_4">
     <path d="M 376.999026 152.560506 
L 451.744026 152.560506 
L 451.744026 135.930193 
L 376.999026 135.930193 
z
" clip-path="url(#p9d37cffbb9)" style="fill: #ffffff; opacity: 0.7; stroke: #000000; stroke-linejoin: miter"/>
    </g>
    <g clip-path="url(#p9d37cffbb9)">
     <!-- Steve Buscemi -->
     <g transform="translate(380.959026 146.728787)scale(0.09 -0.09)">
      <defs>
       <path id="DejaVuSans-42" d="M 1259 2228 
L 1259 519 
L 2272 519 
Q 2781 519 3026 730 
Q 3272 941 3272 1375 
Q 3272 1813 3026 2020 
Q 2781 2228 2272 2228 
L 1259 2228 
z
M 1259 4147 
L 1259 2741 
L 2194 2741 
Q 2656 2741 2882 2914 
Q 3109 3088 3109 3444 
Q 3109 3797 2882 3972 
Q 2656 4147 2194 4147 
L 1259 4147 
z
M 628 4666 
L 2241 4666 
Q 2963 4666 3353 4366 
Q 3744 4066 3744 3513 
Q 3744 3084 3544 2831 
Q 3344 2578 2956 2516 
Q 3422 2416 3680 2098 
Q 3938 1781 3938 1306 
Q 3938 681 3513 340 
Q 3088 0 2303 0 
L 628 0 
L 628 4666 
z
" transform="scale(0.015625)"/>
       <path id="DejaVuSans-75" d="M 544 1381 
L 544 3500 
L 1119 3500 
L 1119 1403 
Q 1119 906 1312 657 
Q 1506 409 1894 409 
Q 2359 409 2629 706 
Q 2900 1003 2900 1516 
L 2900 3500 
L 3475 3500 
L 3475 0 
L 2900 0 
L 2900 538 
Q 2691 219 2414 64 
Q 2138 -91 1772 -91 
Q 1169 -91 856 284 
Q 544 659 544 1381 
z
M 1991 3584 
L 1991 3584 
z
" transform="scale(0.015625)"/>
       <path id="DejaVuSans-73" d="M 2834 3397 
L 2834 2853 
Q 2591 2978 2328 3040 
Q 2066 3103 1784 3103 
Q 1356 3103 1142 2972 
Q 928 2841 928 2578 
Q 928 2378 1081 2264 
Q 1234 2150 1697 2047 
L 1894 2003 
Q 2506 1872 2764 1633 
Q 3022 1394 3022 966 
Q 3022 478 2636 193 
Q 2250 -91 1575 -91 
Q 1294 -91 989 -36 
Q 684 19 347 128 
L 347 722 
Q 666 556 975 473 
Q 1284 391 1588 391 
Q 1994 391 2212 530 
Q 2431 669 2431 922 
Q 2431 1156 2273 1281 
Q 2116 1406 1581 1522 
L 1381 1569 
Q 847 1681 609 1914 
Q 372 2147 372 2553 
Q 372 3047 722 3315 
Q 1072 3584 1716 3584 
Q 2034 3584 2315 3537 
Q 2597 3491 2834 3397 
z
" transform="scale(0.015625)"/>
       <path id="DejaVuSans-63" d="M 3122 3366 
L 3122 2828 
Q 2878 2963 2633 3030 
Q 2388 3097 2138 3097 
Q 1578 3097 1268 2742 
Q 959 2388 959 1747 
Q 959 1106 1268 751 
Q 1578 397 2138 397 
Q 2388 397 2633 464 
Q 2878 531 3122 666 
L 3122 134 
Q 2881 22 2623 -34 
Q 2366 -91 2075 -91 
Q 1284 -91 818 406 
Q 353 903 353 1747 
Q 353 2603 823 3093 
Q 1294 3584 2113 3584 
Q 2378 3584 2631 3529 
Q 2884 3475 3122 3366 
z
" transform="scale(0.015625)"/>
       <path id="DejaVuSans-69" d="M 603 3500 
L 1178 3500 
L 1178 0 
L 603 0 
L 603 3500 
z
M 603 4863 
L 1178 4863 
L 1178 4134 
L 603 4134 
L 603 4863 
z
" transform="scale(0.015625)"/>
      </defs>
      <use xlink:href="#DejaVuSans-53"/>
      <use xlink:href="#DejaVuSans-74" x="63.476562"/>
      <use xlink:href="#DejaVuSans-65" x="102.685547"/>
      <use xlink:href="#DejaVuSans-76" x="164.208984"/>
      <use xlink:href="#DejaVuSans-65" x="223.388672"/>
      <use xlink:href="#DejaVuSans-20" x="284.912109"/>
      <use xlink:href="#DejaVuSans-42" x="316.699219"/>
      <use xlink:href="#DejaVuSans-75" x="385.302734"/>
      <use xlink:href="#DejaVuSans-73" x="448.681641"/>
      <use xlink:href="#DejaVuSans-63" x="500.78125"/>
      <use xlink:href="#DejaVuSans-65" x="555.761719"/>
      <use xlink:href="#DejaVuSans-6d" x="617.285156"/>
      <use xlink:href="#DejaVuSans-69" x="714.697266"/>
     </g>
    </g>
   </g>
   <g id="text_4">
    <g id="patch_5">
     <path d="M 312.544228 111.130279 
L 367.717041 111.130279 
L 367.717041 94.499966 
L 312.544228 94.499966 
z
" clip-path="url(#p9d37cffbb9)" style="fill: #ffffff; opacity: 0.7; stroke: #000000; stroke-linejoin: miter"/>
    </g>
    <g clip-path="url(#p9d37cffbb9)">
     <!-- Chris Rock -->
     <g transform="translate(316.504228 105.29856)scale(0.09 -0.09)">
      <defs>
       <path id="DejaVuSans-68" d="M 3513 2113 
L 3513 0 
L 2938 0 
L 2938 2094 
Q 2938 2591 2744 2837 
Q 2550 3084 2163 3084 
Q 1697 3084 1428 2787 
Q 1159 2491 1159 1978 
L 1159 0 
L 581 0 
L 581 4863 
L 1159 4863 
L 1159 2956 
Q 1366 3272 1645 3428 
Q 1925 3584 2291 3584 
Q 2894 3584 3203 3211 
Q 3513 2838 3513 2113 
z
" transform="scale(0.015625)"/>
       <path id="DejaVuSans-52" d="M 2841 2188 
Q 3044 2119 3236 1894 
Q 3428 1669 3622 1275 
L 4263 0 
L 3584 0 
L 2988 1197 
Q 2756 1666 2539 1819 
Q 2322 1972 1947 1972 
L 1259 1972 
L 1259 0 
L 628 0 
L 628 4666 
L 2053 4666 
Q 2853 4666 3247 4331 
Q 3641 3997 3641 3322 
Q 3641 2881 3436 2590 
Q 3231 2300 2841 2188 
z
M 1259 4147 
L 1259 2491 
L 2053 2491 
Q 2509 2491 2742 2702 
Q 2975 2913 2975 3322 
Q 2975 3731 2742 3939 
Q 2509 4147 2053 4147 
L 1259 4147 
z
" transform="scale(0.015625)"/>
       <path id="DejaVuSans-6b" d="M 581 4863 
L 1159 4863 
L 1159 1991 
L 2875 3500 
L 3609 3500 
L 1753 1863 
L 3688 0 
L 2938 0 
L 1159 1709 
L 1159 0 
L 581 0 
L 581 4863 
z
" transform="scale(0.015625)"/>
      </defs>
      <use xlink:href="#DejaVuSans-43"/>
      <use xlink:href="#DejaVuSans-68" x="69.824219"/>
      <use xlink:href="#DejaVuSans-72" x="133.203125"/>
      <use xlink:href="#DejaVuSans-69" x="174.316406"/>
      <use xlink:href="#DejaVuSans-73" x="202.099609"/>
      <use xlink:href="#DejaVuSans-20" x="254.199219"/>
      <use xlink:href="#DejaVuSans-52" x="285.986328"/>
      <use xlink:href="#DejaVuSans-6f" x="350.96875"/>
      <use xlink:href="#DejaVuSans-63" x="412.150391"/>
      <use xlink:href="#DejaVuSans-6b" x="467.130859"/>
     </g>
    </g>
   </g>
   <g id="text_5">
    <g id="patch_6">
     <path d="M 219.95143 102.469002 
L 289.797055 102.469002 
L 289.797055 85.83869 
L 219.95143 85.83869 
z
" clip-path="url(#p9d37cffbb9)" style="fill: #ffffff; opacity: 0.7; stroke: #000000; stroke-linejoin: miter"/>
    </g>
    <g clip-path="url(#p9d37cffbb9)">
     <!-- Eddie Murphy -->
     <g transform="translate(223.91143 96.637284)scale(0.09 -0.09)">
      <defs>
       <path id="DejaVuSans-45" d="M 628 4666 
L 3578 4666 
L 3578 4134 
L 1259 4134 
L 1259 2753 
L 3481 2753 
L 3481 2222 
L 1259 2222 
L 1259 531 
L 3634 531 
L 3634 0 
L 628 0 
L 628 4666 
z
" transform="scale(0.015625)"/>
       <path id="DejaVuSans-4d" d="M 628 4666 
L 1569 4666 
L 2759 1491 
L 3956 4666 
L 4897 4666 
L 4897 0 
L 4281 0 
L 4281 4097 
L 3078 897 
L 2444 897 
L 1241 4097 
L 1241 0 
L 628 0 
L 628 4666 
z
" transform="scale(0.015625)"/>
       <path id="DejaVuSans-70" d="M 1159 525 
L 1159 -1331 
L 581 -1331 
L 581 3500 
L 1159 3500 
L 1159 2969 
Q 1341 3281 1617 3432 
Q 1894 3584 2278 3584 
Q 2916 3584 3314 3078 
Q 3713 2572 3713 1747 
Q 3713 922 3314 415 
Q 2916 -91 2278 -91 
Q 1894 -91 1617 61 
Q 1341 213 1159 525 
z
M 3116 1747 
Q 3116 2381 2855 2742 
Q 2594 3103 2138 3103 
Q 1681 3103 1420 2742 
Q 1159 2381 1159 1747 
Q 1159 1113 1420 752 
Q 1681 391 2138 391 
Q 2594 391 2855 752 
Q 3116 1113 3116 1747 
z
" transform="scale(0.015625)"/>
       <path id="DejaVuSans-79" d="M 2059 -325 
Q 1816 -950 1584 -1140 
Q 1353 -1331 966 -1331 
L 506 -1331 
L 506 -850 
L 844 -850 
Q 1081 -850 1212 -737 
Q 1344 -625 1503 -206 
L 1606 56 
L 191 3500 
L 800 3500 
L 1894 763 
L 2988 3500 
L 3597 3500 
L 2059 -325 
z
" transform="scale(0.015625)"/>
      </defs>
      <use xlink:href="#DejaVuSans-45"/>
      <use xlink:href="#DejaVuSans-64" x="63.183594"/>
      <use xlink:href="#DejaVuSans-64" x="126.660156"/>
      <use xlink:href="#DejaVuSans-69" x="190.136719"/>
      <use xlink:href="#DejaVuSans-65" x="217.919922"/>
      <use xlink:href="#DejaVuSans-20" x="279.443359"/>
      <use xlink:href="#DejaVuSans-4d" x="311.230469"/>
      <use xlink:href="#DejaVuSans-75" x="397.509766"/>
      <use xlink:href="#DejaVuSans-72" x="460.888672"/>
      <use xlink:href="#DejaVuSans-70" x="502.001953"/>
      <use xlink:href="#DejaVuSans-68" x="565.478516"/>
      <use xlink:href="#DejaVuSans-79" x="628.857422"/>
     </g>
    </g>
   </g>
   <g id="text_6">
    <g id="patch_7">
     <path d="M 144.100294 128.074301 
L 202.587638 128.074301 
L 202.587638 111.443988 
L 144.100294 111.443988 
z
" clip-path="url(#p9d37cffbb9)" style="fill: #ffffff; opacity: 0.7; stroke: #000000; stroke-linejoin: miter"/>
    </g>
    <g clip-path="url(#p9d37cffbb9)">
     <!-- Mike Myers -->
     <g transform="translate(148.060294 122.242582)scale(0.09 -0.09)">
      <use xlink:href="#DejaVuSans-4d"/>
      <use xlink:href="#DejaVuSans-69" x="86.279297"/>
      <use xlink:href="#DejaVuSans-6b" x="114.0625"/>
      <use xlink:href="#DejaVuSans-65" x="168.347656"/>
      <use xlink:href="#DejaVuSans-20" x="229.871094"/>
      <use xlink:href="#DejaVuSans-4d" x="261.658203"/>
      <use xlink:href="#DejaVuSans-79" x="347.9375"/>
      <use xlink:href="#DejaVuSans-65" x="407.117188"/>
      <use xlink:href="#DejaVuSans-72" x="468.640625"/>
      <use xlink:href="#DejaVuSans-73" x="509.753906"/>
     </g>
    </g>
   </g>
   <g id="text_7">
    <g id="patch_8">
     <path d="M 72.308235 183.518771 
L 146.966047 183.518771 
L 146.966047 166.888459 
L 72.308235 166.888459 
z
" clip-path="url(#p9d37cffbb9)" style="fill: #ffffff; opacity: 0.7; stroke: #000000; stroke-linejoin: miter"/>
    </g>
    <g clip-path="url(#p9d37cffbb9)">
     <!-- Conrad Vernon -->
     <g transform="translate(76.268235 177.687052)scale(0.09 -0.09)">
      <defs>
       <path id="DejaVuSans-56" d="M 1831 0 
L 50 4666 
L 709 4666 
L 2188 738 
L 3669 4666 
L 4325 4666 
L 2547 0 
L 1831 0 
z
" transform="scale(0.015625)"/>
      </defs>
      <use xlink:href="#DejaVuSans-43"/>
      <use xlink:href="#DejaVuSans-6f" x="69.824219"/>
      <use xlink:href="#DejaVuSans-6e" x="131.005859"/>
      <use xlink:href="#DejaVuSans-72" x="194.384766"/>
      <use xlink:href="#DejaVuSans-61" x="235.498047"/>
      <use xlink:href="#DejaVuSans-64" x="296.777344"/>
      <use xlink:href="#DejaVuSans-20" x="360.253906"/>
      <use xlink:href="#DejaVuSans-56" x="392.041016"/>
      <use xlink:href="#DejaVuSans-65" x="452.699219"/>
      <use xlink:href="#DejaVuSans-72" x="514.222656"/>
      <use xlink:href="#DejaVuSans-6e" x="553.585938"/>
      <use xlink:href="#DejaVuSans-6f" x="616.964844"/>
      <use xlink:href="#DejaVuSans-6e" x="678.146484"/>
     </g>
    </g>
   </g>
   <g id="text_8">
    <g id="patch_9">
     <path d="M 38.317825 259.215585 
L 111.220637 259.215585 
L 111.220637 242.585272 
L 38.317825 242.585272 
z
" clip-path="url(#p9d37cffbb9)" style="fill: #ffffff; opacity: 0.7; stroke: #000000; stroke-linejoin: miter"/>
    </g>
    <g clip-path="url(#p9d37cffbb9)">
     <!-- Jack Nicholson -->
     <g transform="translate(42.277825 253.383866)scale(0.09 -0.09)">
      <defs>
       <path id="DejaVuSans-4a" d="M 628 4666 
L 1259 4666 
L 1259 325 
Q 1259 -519 939 -900 
Q 619 -1281 -91 -1281 
L -331 -1281 
L -331 -750 
L -134 -750 
Q 284 -750 456 -515 
Q 628 -281 628 325 
L 628 4666 
z
" transform="scale(0.015625)"/>
       <path id="DejaVuSans-4e" d="M 628 4666 
L 1478 4666 
L 3547 763 
L 3547 4666 
L 4159 4666 
L 4159 0 
L 3309 0 
L 1241 3903 
L 1241 0 
L 628 0 
L 628 4666 
z
" transform="scale(0.015625)"/>
      </defs>
      <use xlink:href="#DejaVuSans-4a"/>
      <use xlink:href="#DejaVuSans-61" x="29.492188"/>
      <use xlink:href="#DejaVuSans-63" x="90.771484"/>
      <use xlink:href="#DejaVuSans-6b" x="145.751953"/>
      <use xlink:href="#DejaVuSans-20" x="203.662109"/>
      <use xlink:href="#DejaVuSans-4e" x="235.449219"/>
      <use xlink:href="#DejaVuSans-69" x="310.253906"/>
      <use xlink:href="#DejaVuSans-63" x="338.037109"/>
      <use xlink:href="#DejaVuSans-68" x="393.017578"/>
      <use xlink:href="#DejaVuSans-6f" x="456.396484"/>
      <use xlink:href="#DejaVuSans-6c" x="517.578125"/>
      <use xlink:href="#DejaVuSans-73" x="545.361328"/>
      <use xlink:href="#DejaVuSans-6f" x="597.460938"/>
      <use xlink:href="#DejaVuSans-6e" x="658.642578"/>
     </g>
    </g>
   </g>
   <g id="text_9">
    <g id="patch_10">
     <path d="M 40.464477 342.076051 
L 109.074009 342.076051 
L 109.074009 325.445739 
L 40.464477 325.445739 
z
" clip-path="url(#p9d37cffbb9)" style="fill: #ffffff; opacity: 0.7; stroke: #000000; stroke-linejoin: miter"/>
    </g>
    <g clip-path="url(#p9d37cffbb9)">
     <!-- Stephen Root -->
     <g transform="translate(44.424477 336.244333)scale(0.09 -0.09)">
      <use xlink:href="#DejaVuSans-53"/>
      <use xlink:href="#DejaVuSans-74" x="63.476562"/>
      <use xlink:href="#DejaVuSans-65" x="102.685547"/>
      <use xlink:href="#DejaVuSans-70" x="164.208984"/>
      <use xlink:href="#DejaVuSans-68" x="227.685547"/>
      <use xlink:href="#DejaVuSans-65" x="291.064453"/>
      <use xlink:href="#DejaVuSans-6e" x="352.587891"/>
      <use xlink:href="#DejaVuSans-20" x="415.966797"/>
      <use xlink:href="#DejaVuSans-52" x="447.753906"/>
      <use xlink:href="#DejaVuSans-6f" x="512.736328"/>
      <use xlink:href="#DejaVuSans-6f" x="573.917969"/>
      <use xlink:href="#DejaVuSans-74" x="635.099609"/>
     </g>
    </g>
   </g>
   <g id="text_10">
    <g id="patch_11">
     <path d="M 77.068403 417.772841 
L 142.205903 417.772841 
L 142.205903 401.142529 
L 77.068403 401.142529 
z
" clip-path="url(#p9d37cffbb9)" style="fill: #ffffff; opacity: 0.7; stroke: #000000; stroke-linejoin: miter"/>
    </g>
    <g clip-path="url(#p9d37cffbb9)">
     <!-- Steve Martin -->
     <g transform="translate(81.028403 411.941123)scale(0.09 -0.09)">
      <use xlink:href="#DejaVuSans-53"/>
      <use xlink:href="#DejaVuSans-74" x="63.476562"/>
      <use xlink:href="#DejaVuSans-65" x="102.685547"/>
      <use xlink:href="#DejaVuSans-76" x="164.208984"/>
      <use xlink:href="#DejaVuSans-65" x="223.388672"/>
      <use xlink:href="#DejaVuSans-20" x="284.912109"/>
      <use xlink:href="#DejaVuSans-4d" x="316.699219"/>
      <use xlink:href="#DejaVuSans-61" x="402.978516"/>
      <use xlink:href="#DejaVuSans-72" x="464.257812"/>
      <use xlink:href="#DejaVuSans-74" x="505.371094"/>
      <use xlink:href="#DejaVuSans-69" x="544.580078"/>
      <use xlink:href="#DejaVuSans-6e" x="572.363281"/>
     </g>
    </g>
   </g>
   <g id="text_11">
    <g id="patch_12">
     <path d="M 140.287981 473.217312 
L 206.400012 473.217312 
L 206.400012 456.586999 
L 140.287981 456.586999 
z
" clip-path="url(#p9d37cffbb9)" style="fill: #ffffff; opacity: 0.7; stroke: #000000; stroke-linejoin: miter"/>
    </g>
    <g clip-path="url(#p9d37cffbb9)">
     <!-- John Travolta -->
     <g transform="translate(144.247981 467.385593)scale(0.09 -0.09)">
      <defs>
       <path id="DejaVuSans-54" d="M -19 4666 
L 3928 4666 
L 3928 4134 
L 2272 4134 
L 2272 0 
L 1638 0 
L 1638 4134 
L -19 4134 
L -19 4666 
z
" transform="scale(0.015625)"/>
      </defs>
      <use xlink:href="#DejaVuSans-4a"/>
      <use xlink:href="#DejaVuSans-6f" x="29.492188"/>
      <use xlink:href="#DejaVuSans-68" x="90.673828"/>
      <use xlink:href="#DejaVuSans-6e" x="154.052734"/>
      <use xlink:href="#DejaVuSans-20" x="217.431641"/>
      <use xlink:href="#DejaVuSans-54" x="249.21875"/>
      <use xlink:href="#DejaVuSans-72" x="295.552734"/>
      <use xlink:href="#DejaVuSans-61" x="336.666016"/>
      <use xlink:href="#DejaVuSans-76" x="397.945312"/>
      <use xlink:href="#DejaVuSans-6f" x="457.125"/>
      <use xlink:href="#DejaVuSans-6c" x="518.306641"/>
      <use xlink:href="#DejaVuSans-74" x="546.089844"/>
      <use xlink:href="#DejaVuSans-61" x="585.298828"/>
     </g>
    </g>
   </g>
   <g id="text_12">
    <g id="patch_13">
     <path d="M 221.842873 498.822598 
L 287.905686 498.822598 
L 287.905686 482.192286 
L 221.842873 482.192286 
z
" clip-path="url(#p9d37cffbb9)" style="fill: #ffffff; opacity: 0.7; stroke: #000000; stroke-linejoin: miter"/>
    </g>
    <g clip-path="url(#p9d37cffbb9)">
     <!-- Owen Wilson -->
     <g transform="translate(225.802873 492.990879)scale(0.09 -0.09)">
      <defs>
       <path id="DejaVuSans-4f" d="M 2522 4238 
Q 1834 4238 1429 3725 
Q 1025 3213 1025 2328 
Q 1025 1447 1429 934 
Q 1834 422 2522 422 
Q 3209 422 3611 934 
Q 4013 1447 4013 2328 
Q 4013 3213 3611 3725 
Q 3209 4238 2522 4238 
z
M 2522 4750 
Q 3503 4750 4090 4092 
Q 4678 3434 4678 2328 
Q 4678 1225 4090 567 
Q 3503 -91 2522 -91 
Q 1538 -91 948 565 
Q 359 1222 359 2328 
Q 359 3434 948 4092 
Q 1538 4750 2522 4750 
z
" transform="scale(0.015625)"/>
       <path id="DejaVuSans-77" d="M 269 3500 
L 844 3500 
L 1563 769 
L 2278 3500 
L 2956 3500 
L 3675 769 
L 4391 3500 
L 4966 3500 
L 4050 0 
L 3372 0 
L 2619 2869 
L 1863 0 
L 1184 0 
L 269 3500 
z
" transform="scale(0.015625)"/>
       <path id="DejaVuSans-57" d="M 213 4666 
L 850 4666 
L 1831 722 
L 2809 4666 
L 3519 4666 
L 4500 722 
L 5478 4666 
L 6119 4666 
L 4947 0 
L 4153 0 
L 3169 4050 
L 2175 0 
L 1381 0 
L 213 4666 
z
" transform="scale(0.015625)"/>
      </defs>
      <use xlink:href="#DejaVuSans-4f"/>
      <use xlink:href="#DejaVuSans-77" x="78.710938"/>
      <use xlink:href="#DejaVuSans-65" x="160.498047"/>
      <use xlink:href="#DejaVuSans-6e" x="222.021484"/>
      <use xlink:href="#DejaVuSans-20" x="285.400391"/>
      <use xlink:href="#DejaVuSans-57" x="317.1875"/>
      <use xlink:href="#DejaVuSans-69" x="413.814453"/>
      <use xlink:href="#DejaVuSans-6c" x="441.597656"/>
      <use xlink:href="#DejaVuSans-73" x="469.380859"/>
      <use xlink:href="#DejaVuSans-6f" x="521.480469"/>
      <use xlink:href="#DejaVuSans-6e" x="582.662109"/>
     </g>
    </g>
   </g>
   <g id="text_13">
    <g id="patch_14">
     <path d="M 303.171603 490.16131 
L 377.089728 490.16131 
L 377.089728 473.530998 
L 303.171603 473.530998 
z
" clip-path="url(#p9d37cffbb9)" style="fill: #ffffff; opacity: 0.7; stroke: #000000; stroke-linejoin: miter"/>
    </g>
    <g clip-path="url(#p9d37cffbb9)">
     <!-- Nick Swardson -->
     <g transform="translate(307.131603 484.329591)scale(0.09 -0.09)">
      <use xlink:href="#DejaVuSans-4e"/>
      <use xlink:href="#DejaVuSans-69" x="74.804688"/>
      <use xlink:href="#DejaVuSans-63" x="102.587891"/>
      <use xlink:href="#DejaVuSans-6b" x="157.568359"/>
      <use xlink:href="#DejaVuSans-20" x="215.478516"/>
      <use xlink:href="#DejaVuSans-53" x="247.265625"/>
      <use xlink:href="#DejaVuSans-77" x="310.742188"/>
      <use xlink:href="#DejaVuSans-61" x="392.529297"/>
      <use xlink:href="#DejaVuSans-72" x="453.808594"/>
      <use xlink:href="#DejaVuSans-64" x="493.171875"/>
      <use xlink:href="#DejaVuSans-73" x="556.648438"/>
      <use xlink:href="#DejaVuSans-6f" x="608.748047"/>
      <use xlink:href="#DejaVuSans-6e" x="669.929688"/>
     </g>
    </g>
   </g>
   <g id="text_14">
    <g id="patch_15">
     <path d="M 374.834141 448.731059 
L 453.908985 448.731059 
L 453.908985 432.100747 
L 374.834141 432.100747 
z
" clip-path="url(#p9d37cffbb9)" style="fill: #ffffff; opacity: 0.7; stroke: #000000; stroke-linejoin: miter"/>
    </g>
    <g clip-path="url(#p9d37cffbb9)">
     <!-- Jennifer Aniston -->
     <g transform="translate(378.794141 442.89934)scale(0.09 -0.09)">
      <defs>
       <path id="DejaVuSans-66" d="M 2375 4863 
L 2375 4384 
L 1825 4384 
Q 1516 4384 1395 4259 
Q 1275 4134 1275 3809 
L 1275 3500 
L 2222 3500 
L 2222 3053 
L 1275 3053 
L 1275 0 
L 697 0 
L 697 3053 
L 147 3053 
L 147 3500 
L 697 3500 
L 697 3744 
Q 697 4328 969 4595 
Q 1241 4863 1831 4863 
L 2375 4863 
z
" transform="scale(0.015625)"/>
      </defs>
      <use xlink:href="#DejaVuSans-4a"/>
      <use xlink:href="#DejaVuSans-65" x="29.492188"/>
      <use xlink:href="#DejaVuSans-6e" x="91.015625"/>
      <use xlink:href="#DejaVuSans-6e" x="154.394531"/>
      <use xlink:href="#DejaVuSans-69" x="217.773438"/>
      <use xlink:href="#DejaVuSans-66" x="245.556641"/>
      <use xlink:href="#DejaVuSans-65" x="280.761719"/>
      <use xlink:href="#DejaVuSans-72" x="342.285156"/>
      <use xlink:href="#DejaVuSans-20" x="383.398438"/>
      <use xlink:href="#DejaVuSans-41" x="415.185547"/>
      <use xlink:href="#DejaVuSans-6e" x="483.59375"/>
      <use xlink:href="#DejaVuSans-69" x="546.972656"/>
      <use xlink:href="#DejaVuSans-73" x="574.755859"/>
      <use xlink:href="#DejaVuSans-74" x="626.855469"/>
      <use xlink:href="#DejaVuSans-6f" x="666.064453"/>
      <use xlink:href="#DejaVuSans-6e" x="727.246094"/>
     </g>
    </g>
   </g>
   <g id="text_15">
    <g id="patch_16">
     <path d="M 427.899409 381.695533 
L 501.620659 381.695533 
L 501.620659 365.065221 
L 427.899409 365.065221 
z
" clip-path="url(#p9d37cffbb9)" style="fill: #ffffff; opacity: 0.7; stroke: #000000; stroke-linejoin: miter"/>
    </g>
    <g clip-path="url(#p9d37cffbb9)">
     <!-- Robin Williams -->
     <g transform="translate(431.859409 375.863815)scale(0.09 -0.09)">
      <defs>
       <path id="DejaVuSans-62" d="M 3116 1747 
Q 3116 2381 2855 2742 
Q 2594 3103 2138 3103 
Q 1681 3103 1420 2742 
Q 1159 2381 1159 1747 
Q 1159 1113 1420 752 
Q 1681 391 2138 391 
Q 2594 391 2855 752 
Q 3116 1113 3116 1747 
z
M 1159 2969 
Q 1341 3281 1617 3432 
Q 1894 3584 2278 3584 
Q 2916 3584 3314 3078 
Q 3713 2572 3713 1747 
Q 3713 922 3314 415 
Q 2916 -91 2278 -91 
Q 1894 -91 1617 61 
Q 1341 213 1159 525 
L 1159 0 
L 581 0 
L 581 4863 
L 1159 4863 
L 1159 2969 
z
" transform="scale(0.015625)"/>
      </defs>
      <use xlink:href="#DejaVuSans-52"/>
      <use xlink:href="#DejaVuSans-6f" x="64.982422"/>
      <use xlink:href="#DejaVuSans-62" x="126.164062"/>
      <use xlink:href="#DejaVuSans-69" x="189.640625"/>
      <use xlink:href="#DejaVuSans-6e" x="217.423828"/>
      <use xlink:href="#DejaVuSans-20" x="280.802734"/>
      <use xlink:href="#DejaVuSans-57" x="312.589844"/>
      <use xlink:href="#DejaVuSans-69" x="409.216797"/>
      <use xlink:href="#DejaVuSans-6c" x="437"/>
      <use xlink:href="#DejaVuSans-6c" x="464.783203"/>
      <use xlink:href="#DejaVuSans-69" x="492.566406"/>
      <use xlink:href="#DejaVuSans-61" x="520.349609"/>
      <use xlink:href="#DejaVuSans-6d" x="581.628906"/>
      <use xlink:href="#DejaVuSans-73" x="679.041016"/>
     </g>
    </g>
   </g>
   <g id="text_16">
    <!-- Impactful actors for Comedy genre -->
    <g transform="translate(183.113438 4.8)scale(0.12 -0.12)">
     <defs>
      <path id="DejaVuSans-49" d="M 628 4666 
L 1259 4666 
L 1259 0 
L 628 0 
L 628 4666 
z
" transform="scale(0.015625)"/>
      <path id="DejaVuSans-67" d="M 2906 1791 
Q 2906 2416 2648 2759 
Q 2391 3103 1925 3103 
Q 1463 3103 1205 2759 
Q 947 2416 947 1791 
Q 947 1169 1205 825 
Q 1463 481 1925 481 
Q 2391 481 2648 825 
Q 2906 1169 2906 1791 
z
M 3481 434 
Q 3481 -459 3084 -895 
Q 2688 -1331 1869 -1331 
Q 1566 -1331 1297 -1286 
Q 1028 -1241 775 -1147 
L 775 -588 
Q 1028 -725 1275 -790 
Q 1522 -856 1778 -856 
Q 2344 -856 2625 -561 
Q 2906 -266 2906 331 
L 2906 616 
Q 2728 306 2450 153 
Q 2172 0 1784 0 
Q 1141 0 747 490 
Q 353 981 353 1791 
Q 353 2603 747 3093 
Q 1141 3584 1784 3584 
Q 2172 3584 2450 3431 
Q 2728 3278 2906 2969 
L 2906 3500 
L 3481 3500 
L 3481 434 
z
" transform="scale(0.015625)"/>
     </defs>
     <use xlink:href="#DejaVuSans-49"/>
     <use xlink:href="#DejaVuSans-6d" x="29.492188"/>
     <use xlink:href="#DejaVuSans-70" x="126.904297"/>
     <use xlink:href="#DejaVuSans-61" x="190.380859"/>
     <use xlink:href="#DejaVuSans-63" x="251.660156"/>
     <use xlink:href="#DejaVuSans-74" x="306.640625"/>
     <use xlink:href="#DejaVuSans-66" x="345.849609"/>
     <use xlink:href="#DejaVuSans-75" x="381.054688"/>
     <use xlink:href="#DejaVuSans-6c" x="444.433594"/>
     <use xlink:href="#DejaVuSans-20" x="472.216797"/>
     <use xlink:href="#DejaVuSans-61" x="504.003906"/>
     <use xlink:href="#DejaVuSans-63" x="565.283203"/>
     <use xlink:href="#DejaVuSans-74" x="620.263672"/>
     <use xlink:href="#DejaVuSans-6f" x="659.472656"/>
     <use xlink:href="#DejaVuSans-72" x="720.654297"/>
     <use xlink:href="#DejaVuSans-73" x="761.767578"/>
     <use xlink:href="#DejaVuSans-20" x="813.867188"/>
     <use xlink:href="#DejaVuSans-66" x="845.654297"/>
     <use xlink:href="#DejaVuSans-6f" x="880.859375"/>
     <use xlink:href="#DejaVuSans-72" x="942.041016"/>
     <use xlink:href="#DejaVuSans-20" x="983.154297"/>
     <use xlink:href="#DejaVuSans-43" x="1014.941406"/>
     <use xlink:href="#DejaVuSans-6f" x="1084.765625"/>
     <use xlink:href="#DejaVuSans-6d" x="1145.947266"/>
     <use xlink:href="#DejaVuSans-65" x="1243.359375"/>
     <use xlink:href="#DejaVuSans-64" x="1304.882812"/>
     <use xlink:href="#DejaVuSans-79" x="1368.359375"/>
     <use xlink:href="#DejaVuSans-20" x="1427.539062"/>
     <use xlink:href="#DejaVuSans-67" x="1459.326172"/>
     <use xlink:href="#DejaVuSans-65" x="1522.802734"/>
     <use xlink:href="#DejaVuSans-6e" x="1584.326172"/>
     <use xlink:href="#DejaVuSans-72" x="1647.705078"/>
     <use xlink:href="#DejaVuSans-65" x="1686.568359"/>
    </g>
   </g>
  </g>
 </g>
 <defs>
  <clipPath id="p9d37cffbb9">
   <rect x="10.8" y="10.8" width="554.4" height="554.4"/>
  </clipPath>
 </defs>
</svg>
