<?xml version="1.0" encoding="utf-8" standalone="no"?>
<!DOCTYPE svg PUBLIC "-//W3C//DTD SVG 1.1//EN"
  "http://www.w3.org/Graphics/SVG/1.1/DTD/svg11.dtd">
<svg xmlns:xlink="http://www.w3.org/1999/xlink" width="568.8pt" height="583.918125pt" viewBox="0 0 568.8 583.918125" xmlns="http://www.w3.org/2000/svg" version="1.1">
 <metadata>
  <rdf:RDF xmlns:dc="http://purl.org/dc/elements/1.1/" xmlns:cc="http://creativecommons.org/ns#" xmlns:rdf="http://www.w3.org/1999/02/22-rdf-syntax-ns#">
   <cc:Work>
    <dc:type rdf:resource="http://purl.org/dc/dcmitype/StillImage"/>
    <dc:date>2022-12-23T17:29:45.552244</dc:date>
    <dc:format>image/svg+xml</dc:format>
    <dc:creator>
     <cc:Agent>
      <dc:title>Matplotlib v3.5.2, https://matplotlib.org/</dc:title>
     </cc:Agent>
    </dc:creator>
   </cc:Work>
  </rdf:RDF>
 </metadata>
 <defs>
  <style type="text/css">*{stroke-linejoin: round; stroke-linecap: butt}</style>
 </defs>
 <g id="figure_1">
  <g id="patch_1">
   <path d="M 0 583.918125 
L 568.8 583.918125 
L 568.8 0 
L 0 0 
z
" style="fill: #ffffff"/>
  </g>
  <g id="axes_1">
   <g id="LineCollection_1">
    <path d="M 174.25133 483.914193 
L 259.509587 511.375813 
" clip-path="url(#p0d1c660a58)" style="fill: none; stroke: #000000; stroke-opacity: 0.3; stroke-width: 5"/>
   </g>
   <g id="PathCollection_1">
    <path d="M 497.630769 326.217712 
C 504.893655 326.217712 511.86005 323.332137 516.995686 318.196501 
C 522.131322 313.060865 525.016897 306.094471 525.016897 298.831585 
C 525.016897 291.568698 522.131322 284.602304 516.995686 279.466668 
C 511.86005 274.331032 504.893655 271.445457 497.630769 271.445457 
C 490.367883 271.445457 483.401488 274.331032 478.265852 279.466668 
C 473.130217 284.602304 470.244641 291.568698 470.244641 298.831585 
C 470.244641 306.094471 473.130217 313.060865 478.265852 318.196501 
C 483.401488 323.332137 490.367883 326.217712 497.630769 326.217712 
z
" clip-path="url(#p0d1c660a58)" style="fill: #c70039; fill-opacity: 0.99; stroke: #c70039; stroke-opacity: 0.99"/>
    <path d="M 478.992348 238.134244 
C 485.948193 238.134244 492.620082 235.370657 497.538607 230.452132 
C 502.457133 225.533606 505.220719 218.861718 505.220719 211.905872 
C 505.220719 204.950027 502.457133 198.278138 497.538607 193.359613 
C 492.620082 188.441087 485.948193 185.677501 478.992348 185.677501 
C 472.036502 185.677501 465.364614 188.441087 460.446088 193.359613 
C 455.527563 198.278138 452.763976 204.950027 452.763976 211.905872 
C 452.763976 218.861718 455.527563 225.533606 460.446088 230.452132 
C 465.364614 235.370657 472.036502 238.134244 478.992348 238.134244 
z
" clip-path="url(#p0d1c660a58)" style="fill: #c70039; fill-opacity: 0.99; stroke: #c70039; stroke-opacity: 0.99"/>
    <path d="M 426.29985 165.23748 
C 432.990151 165.23748 439.407335 162.579396 444.138093 157.848638 
C 448.86885 153.117881 451.526935 146.700697 451.526935 140.010395 
C 451.526935 133.320094 448.86885 126.90291 444.138093 122.172153 
C 439.407335 117.441395 432.990151 114.78331 426.29985 114.78331 
C 419.609549 114.78331 413.192364 117.441395 408.461607 122.172153 
C 403.73085 126.90291 401.072765 133.320094 401.072765 140.010395 
C 401.072765 146.700697 403.73085 153.117881 408.461607 157.848638 
C 413.192364 162.579396 419.609549 165.23748 426.29985 165.23748 
z
" clip-path="url(#p0d1c660a58)" style="fill: #c70039; fill-opacity: 0.99; stroke: #c70039; stroke-opacity: 0.99"/>
    <path d="M 348.664291 120.783992 
C 355.349381 120.783992 361.761567 118.127978 366.488639 113.400906 
C 371.215711 108.673833 373.871726 102.261647 373.871726 95.576558 
C 373.871726 88.891468 371.215711 82.479282 366.488639 77.75221 
C 361.761567 73.025137 355.349381 70.369123 348.664291 70.369123 
C 341.979201 70.369123 335.567016 73.025137 330.839943 77.75221 
C 326.112871 82.479282 323.456857 88.891468 323.456857 95.576558 
C 323.456857 102.261647 326.112871 108.673833 330.839943 113.400906 
C 335.567016 118.127978 341.979201 120.783992 348.664291 120.783992 
z
" clip-path="url(#p0d1c660a58)" style="fill: #c70039; fill-opacity: 0.99; stroke: #c70039; stroke-opacity: 0.99"/>
    <path d="M 259.509549 109.126302 
C 265.566508 109.126302 271.376205 106.719847 275.659123 102.43693 
C 279.94204 98.154013 282.348495 92.344315 282.348495 86.287356 
C 282.348495 80.230396 279.94204 74.420699 275.659123 70.137782 
C 271.376205 65.854865 265.566508 63.448409 259.509549 63.448409 
C 253.452589 63.448409 247.642892 65.854865 243.359975 70.137782 
C 239.077058 74.420699 236.670602 80.230396 236.670602 86.287356 
C 236.670602 92.344315 239.077058 98.154013 243.359975 102.43693 
C 247.642892 106.719847 253.452589 109.126302 259.509549 109.126302 
z
" clip-path="url(#p0d1c660a58)" style="fill: #c70039; fill-opacity: 0.99; stroke: #c70039; stroke-opacity: 0.99"/>
    <path d="M 174.251298 135.197279 
C 179.939451 135.197279 185.395398 132.937352 189.41753 128.91522 
C 193.439661 124.893088 195.699589 119.437141 195.699589 113.748988 
C 195.699589 108.060835 193.439661 102.604888 189.41753 98.582757 
C 185.395398 94.560625 179.939451 92.300698 174.251298 92.300698 
C 168.563145 92.300698 163.107198 94.560625 159.085066 98.582757 
C 155.062935 102.604888 152.803008 108.060835 152.803008 113.748988 
C 152.803008 119.437141 155.062935 124.893088 159.085066 128.91522 
C 163.107198 132.937352 168.563145 135.197279 174.251298 135.197279 
z
" clip-path="url(#p0d1c660a58)" style="fill: #c70039; fill-opacity: 0.99; stroke: #c70039; stroke-opacity: 0.99"/>
    <path d="M 107.631477 194.425434 
C 113.25706 194.425434 118.652992 192.190366 122.63088 188.212478 
C 126.608768 184.234589 128.843836 178.838658 128.843836 173.213074 
C 128.843836 167.587491 126.608768 162.191559 122.63088 158.213671 
C 118.652992 154.235783 113.25706 152.000715 107.631477 152.000715 
C 102.005894 152.000715 96.609962 154.235783 92.632074 158.213671 
C 88.654186 162.191559 86.419118 167.587491 86.419118 173.213074 
C 86.419118 178.838658 88.654186 184.234589 92.632074 188.212478 
C 96.609962 192.190366 102.005894 194.425434 107.631477 194.425434 
z
" clip-path="url(#p0d1c660a58)" style="fill: #c70039; fill-opacity: 0.99; stroke: #c70039; stroke-opacity: 0.99"/>
    <path d="M 71.169231 275.021881 
C 76.638812 275.021881 81.885109 272.848794 85.752687 268.981216 
C 89.620265 265.113638 91.793353 259.86734 91.793353 254.397759 
C 91.793353 248.928178 89.620265 243.681881 85.752687 239.814303 
C 81.885109 235.946725 76.638812 233.773638 71.169231 233.773638 
C 65.69965 233.773638 60.453352 235.946725 56.585774 239.814303 
C 52.718197 243.681881 50.545109 248.928178 50.545109 254.397759 
C 50.545109 259.86734 52.718197 265.113638 56.585774 268.981216 
C 60.453352 272.848794 65.69965 275.021881 71.169231 275.021881 
z
" clip-path="url(#p0d1c660a58)" style="fill: #c70039; fill-opacity: 0.99; stroke: #c70039; stroke-opacity: 0.99"/>
    <path d="M 71.169244 363.843745 
C 76.626672 363.843745 81.861313 361.675486 85.720297 357.816502 
C 89.579282 353.957517 91.747541 348.722876 91.747541 343.265448 
C 91.747541 337.80802 89.579282 332.573379 85.720297 328.714394 
C 81.861313 324.85541 76.626672 322.68715 71.169244 322.68715 
C 65.711815 322.68715 60.477174 324.85541 56.61819 328.714394 
C 52.759205 332.573379 50.590946 337.80802 50.590946 343.265448 
C 50.590946 348.722876 52.759205 353.957517 56.61819 357.816502 
C 60.477174 361.675486 65.711815 363.843745 71.169244 363.843745 
z
" clip-path="url(#p0d1c660a58)" style="fill: #c70039; fill-opacity: 0.99; stroke: #c70039; stroke-opacity: 0.99"/>
    <path d="M 107.63149 444.918797 
C 113.05985 444.918797 118.266609 442.762086 122.105039 438.923656 
C 125.943469 435.085226 128.100179 429.878467 128.100179 424.450107 
C 128.100179 419.021748 125.943469 413.814988 122.105039 409.976558 
C 118.266609 406.138128 113.05985 403.981418 107.63149 403.981418 
C 102.20313 403.981418 96.996371 406.138128 93.157941 409.976558 
C 89.319511 413.814988 87.162801 419.021748 87.162801 424.450107 
C 87.162801 429.878467 89.319511 435.085226 93.157941 438.923656 
C 96.996371 442.762086 102.20313 444.918797 107.63149 444.918797 
z
" clip-path="url(#p0d1c660a58)" style="fill: #c70039; fill-opacity: 0.99; stroke: #c70039; stroke-opacity: 0.99"/>
    <path d="M 174.25133 504.361455 
C 179.674007 504.361455 184.875316 502.207003 188.709728 498.372591 
C 192.544139 494.538179 194.698592 489.336871 194.698592 483.914193 
C 194.698592 478.491516 192.544139 473.290208 188.709728 469.455796 
C 184.875316 465.621384 179.674007 463.466932 174.25133 463.466932 
C 168.828653 463.466932 163.627345 465.621384 159.792933 469.455796 
C 155.958521 473.290208 153.804069 478.491516 153.804069 483.914193 
C 153.804069 489.336871 155.958521 494.538179 159.792933 498.372591 
C 163.627345 502.207003 168.828653 504.361455 174.25133 504.361455 
z
" clip-path="url(#p0d1c660a58)" style="fill: #c70039; fill-opacity: 0.99; stroke: #c70039; stroke-opacity: 0.99"/>
    <path d="M 259.509587 531.439888 
C 264.830642 531.439888 269.934476 529.32581 273.69703 525.563256 
C 277.459584 521.800703 279.573662 516.696868 279.573662 511.375813 
C 279.573662 506.054758 277.459584 500.950924 273.69703 497.18837 
C 269.934476 493.425816 264.830642 491.311739 259.509587 491.311739 
C 254.188532 491.311739 249.084698 493.425816 245.322144 497.18837 
C 241.55959 500.950924 239.445513 506.054758 239.445513 511.375813 
C 239.445513 516.696868 241.55959 521.800703 245.322144 525.563256 
C 249.084698 529.32581 254.188532 531.439888 259.509587 531.439888 
z
" clip-path="url(#p0d1c660a58)" style="fill: #c70039; fill-opacity: 0.99; stroke: #c70039; stroke-opacity: 0.99"/>
    <path d="M 348.664323 521.758845 
C 353.881464 521.758845 358.885627 519.686053 362.574702 515.996978 
C 366.263778 512.307902 368.33657 507.303739 368.33657 502.086599 
C 368.33657 496.869458 366.263778 491.865295 362.574702 488.17622 
C 358.885627 484.487144 353.881464 482.414352 348.664323 482.414352 
C 343.447183 482.414352 338.44302 484.487144 334.753944 488.17622 
C 331.064869 491.865295 328.992077 496.869458 328.992077 502.086599 
C 328.992077 507.303739 331.064869 512.307902 334.753944 515.996978 
C 338.44302 519.686053 343.447183 521.758845 348.664323 521.758845 
z
" clip-path="url(#p0d1c660a58)" style="fill: #c70039; fill-opacity: 0.99; stroke: #c70039; stroke-opacity: 0.99"/>
    <path d="M 426.299888 477.257153 
C 431.499041 477.257153 436.485949 475.191508 440.162305 471.515152 
C 443.838661 467.838796 445.904306 462.851888 445.904306 457.652735 
C 445.904306 452.453583 443.838661 447.466674 440.162305 443.790319 
C 436.485949 440.113963 431.499041 438.048317 426.299888 438.048317 
C 421.100736 438.048317 416.113828 440.113963 412.437472 443.790319 
C 408.761116 447.466674 406.695471 452.453583 406.695471 457.652735 
C 406.695471 462.851888 408.761116 467.838796 412.437472 471.515152 
C 416.113828 475.191508 421.100736 477.257153 426.299888 477.257153 
z
" clip-path="url(#p0d1c660a58)" style="fill: #c70039; fill-opacity: 0.99; stroke: #c70039; stroke-opacity: 0.99"/>
    <path d="M 478.992374 405.122182 
C 484.128009 405.122182 489.053994 403.081772 492.685437 399.450329 
C 496.31688 395.818886 498.35729 390.892901 498.35729 385.757265 
C 498.35729 380.621629 496.31688 375.695644 492.685437 372.064201 
C 489.053994 368.432758 484.128009 366.392348 478.992374 366.392348 
C 473.856738 366.392348 468.930753 368.432758 465.29931 372.064201 
C 461.667867 375.695644 459.627457 380.621629 459.627457 385.757265 
C 459.627457 390.892901 461.667867 395.818886 465.29931 399.450329 
C 468.930753 403.081772 473.856738 405.122182 478.992374 405.122182 
z
" clip-path="url(#p0d1c660a58)" style="fill: #c70039; fill-opacity: 0.99; stroke: #c70039; stroke-opacity: 0.99"/>
   </g>
   <g id="text_1">
    <g id="patch_2">
     <path d="M 460.540222 307.146741 
L 534.721316 307.146741 
L 534.721316 290.516428 
L 460.540222 290.516428 
z
" clip-path="url(#p0d1c660a58)" style="fill: #ffffff; opacity: 0.7; stroke: #000000; stroke-linejoin: miter"/>
    </g>
    <g clip-path="url(#p0d1c660a58)">
     <!-- Robert De Niro -->
     <g transform="translate(464.500222 301.315022)scale(0.09 -0.09)">
      <defs>
       <path id="DejaVuSans-52" d="M 2841 2188 
Q 3044 2119 3236 1894 
Q 3428 1669 3622 1275 
L 4263 0 
L 3584 0 
L 2988 1197 
Q 2756 1666 2539 1819 
Q 2322 1972 1947 1972 
L 1259 1972 
L 1259 0 
L 628 0 
L 628 4666 
L 2053 4666 
Q 2853 4666 3247 4331 
Q 3641 3997 3641 3322 
Q 3641 2881 3436 2590 
Q 3231 2300 2841 2188 
z
M 1259 4147 
L 1259 2491 
L 2053 2491 
Q 2509 2491 2742 2702 
Q 2975 2913 2975 3322 
Q 2975 3731 2742 3939 
Q 2509 4147 2053 4147 
L 1259 4147 
z
" transform="scale(0.015625)"/>
       <path id="DejaVuSans-6f" d="M 1959 3097 
Q 1497 3097 1228 2736 
Q 959 2375 959 1747 
Q 959 1119 1226 758 
Q 1494 397 1959 397 
Q 2419 397 2687 759 
Q 2956 1122 2956 1747 
Q 2956 2369 2687 2733 
Q 2419 3097 1959 3097 
z
M 1959 3584 
Q 2709 3584 3137 3096 
Q 3566 2609 3566 1747 
Q 3566 888 3137 398 
Q 2709 -91 1959 -91 
Q 1206 -91 779 398 
Q 353 888 353 1747 
Q 353 2609 779 3096 
Q 1206 3584 1959 3584 
z
" transform="scale(0.015625)"/>
       <path id="DejaVuSans-62" d="M 3116 1747 
Q 3116 2381 2855 2742 
Q 2594 3103 2138 3103 
Q 1681 3103 1420 2742 
Q 1159 2381 1159 1747 
Q 1159 1113 1420 752 
Q 1681 391 2138 391 
Q 2594 391 2855 752 
Q 3116 1113 3116 1747 
z
M 1159 2969 
Q 1341 3281 1617 3432 
Q 1894 3584 2278 3584 
Q 2916 3584 3314 3078 
Q 3713 2572 3713 1747 
Q 3713 922 3314 415 
Q 2916 -91 2278 -91 
Q 1894 -91 1617 61 
Q 1341 213 1159 525 
L 1159 0 
L 581 0 
L 581 4863 
L 1159 4863 
L 1159 2969 
z
" transform="scale(0.015625)"/>
       <path id="DejaVuSans-65" d="M 3597 1894 
L 3597 1613 
L 953 1613 
Q 991 1019 1311 708 
Q 1631 397 2203 397 
Q 2534 397 2845 478 
Q 3156 559 3463 722 
L 3463 178 
Q 3153 47 2828 -22 
Q 2503 -91 2169 -91 
Q 1331 -91 842 396 
Q 353 884 353 1716 
Q 353 2575 817 3079 
Q 1281 3584 2069 3584 
Q 2775 3584 3186 3129 
Q 3597 2675 3597 1894 
z
M 3022 2063 
Q 3016 2534 2758 2815 
Q 2500 3097 2075 3097 
Q 1594 3097 1305 2825 
Q 1016 2553 972 2059 
L 3022 2063 
z
" transform="scale(0.015625)"/>
       <path id="DejaVuSans-72" d="M 2631 2963 
Q 2534 3019 2420 3045 
Q 2306 3072 2169 3072 
Q 1681 3072 1420 2755 
Q 1159 2438 1159 1844 
L 1159 0 
L 581 0 
L 581 3500 
L 1159 3500 
L 1159 2956 
Q 1341 3275 1631 3429 
Q 1922 3584 2338 3584 
Q 2397 3584 2469 3576 
Q 2541 3569 2628 3553 
L 2631 2963 
z
" transform="scale(0.015625)"/>
       <path id="DejaVuSans-74" d="M 1172 4494 
L 1172 3500 
L 2356 3500 
L 2356 3053 
L 1172 3053 
L 1172 1153 
Q 1172 725 1289 603 
Q 1406 481 1766 481 
L 2356 481 
L 2356 0 
L 1766 0 
Q 1100 0 847 248 
Q 594 497 594 1153 
L 594 3053 
L 172 3053 
L 172 3500 
L 594 3500 
L 594 4494 
L 1172 4494 
z
" transform="scale(0.015625)"/>
       <path id="DejaVuSans-20" transform="scale(0.015625)"/>
       <path id="DejaVuSans-44" d="M 1259 4147 
L 1259 519 
L 2022 519 
Q 2988 519 3436 956 
Q 3884 1394 3884 2338 
Q 3884 3275 3436 3711 
Q 2988 4147 2022 4147 
L 1259 4147 
z
M 628 4666 
L 1925 4666 
Q 3281 4666 3915 4102 
Q 4550 3538 4550 2338 
Q 4550 1131 3912 565 
Q 3275 0 1925 0 
L 628 0 
L 628 4666 
z
" transform="scale(0.015625)"/>
       <path id="DejaVuSans-4e" d="M 628 4666 
L 1478 4666 
L 3547 763 
L 3547 4666 
L 4159 4666 
L 4159 0 
L 3309 0 
L 1241 3903 
L 1241 0 
L 628 0 
L 628 4666 
z
" transform="scale(0.015625)"/>
       <path id="DejaVuSans-69" d="M 603 3500 
L 1178 3500 
L 1178 0 
L 603 0 
L 603 3500 
z
M 603 4863 
L 1178 4863 
L 1178 4134 
L 603 4134 
L 603 4863 
z
" transform="scale(0.015625)"/>
      </defs>
      <use xlink:href="#DejaVuSans-52"/>
      <use xlink:href="#DejaVuSans-6f" x="64.982422"/>
      <use xlink:href="#DejaVuSans-62" x="126.164062"/>
      <use xlink:href="#DejaVuSans-65" x="189.640625"/>
      <use xlink:href="#DejaVuSans-72" x="251.164062"/>
      <use xlink:href="#DejaVuSans-74" x="292.277344"/>
      <use xlink:href="#DejaVuSans-20" x="331.486328"/>
      <use xlink:href="#DejaVuSans-44" x="363.273438"/>
      <use xlink:href="#DejaVuSans-65" x="440.275391"/>
      <use xlink:href="#DejaVuSans-20" x="501.798828"/>
      <use xlink:href="#DejaVuSans-4e" x="533.585938"/>
      <use xlink:href="#DejaVuSans-69" x="608.390625"/>
      <use xlink:href="#DejaVuSans-72" x="636.173828"/>
      <use xlink:href="#DejaVuSans-6f" x="675.037109"/>
     </g>
    </g>
   </g>
   <g id="text_2">
    <g id="patch_3">
     <path d="M 448.876801 220.221028 
L 509.107895 220.221028 
L 509.107895 203.590716 
L 448.876801 203.590716 
z
" clip-path="url(#p0d1c660a58)" style="fill: #ffffff; opacity: 0.7; stroke: #000000; stroke-linejoin: miter"/>
    </g>
    <g clip-path="url(#p0d1c660a58)">
     <!-- Bruce Willis -->
     <g transform="translate(452.836801 214.38931)scale(0.09 -0.09)">
      <defs>
       <path id="DejaVuSans-42" d="M 1259 2228 
L 1259 519 
L 2272 519 
Q 2781 519 3026 730 
Q 3272 941 3272 1375 
Q 3272 1813 3026 2020 
Q 2781 2228 2272 2228 
L 1259 2228 
z
M 1259 4147 
L 1259 2741 
L 2194 2741 
Q 2656 2741 2882 2914 
Q 3109 3088 3109 3444 
Q 3109 3797 2882 3972 
Q 2656 4147 2194 4147 
L 1259 4147 
z
M 628 4666 
L 2241 4666 
Q 2963 4666 3353 4366 
Q 3744 4066 3744 3513 
Q 3744 3084 3544 2831 
Q 3344 2578 2956 2516 
Q 3422 2416 3680 2098 
Q 3938 1781 3938 1306 
Q 3938 681 3513 340 
Q 3088 0 2303 0 
L 628 0 
L 628 4666 
z
" transform="scale(0.015625)"/>
       <path id="DejaVuSans-75" d="M 544 1381 
L 544 3500 
L 1119 3500 
L 1119 1403 
Q 1119 906 1312 657 
Q 1506 409 1894 409 
Q 2359 409 2629 706 
Q 2900 1003 2900 1516 
L 2900 3500 
L 3475 3500 
L 3475 0 
L 2900 0 
L 2900 538 
Q 2691 219 2414 64 
Q 2138 -91 1772 -91 
Q 1169 -91 856 284 
Q 544 659 544 1381 
z
M 1991 3584 
L 1991 3584 
z
" transform="scale(0.015625)"/>
       <path id="DejaVuSans-63" d="M 3122 3366 
L 3122 2828 
Q 2878 2963 2633 3030 
Q 2388 3097 2138 3097 
Q 1578 3097 1268 2742 
Q 959 2388 959 1747 
Q 959 1106 1268 751 
Q 1578 397 2138 397 
Q 2388 397 2633 464 
Q 2878 531 3122 666 
L 3122 134 
Q 2881 22 2623 -34 
Q 2366 -91 2075 -91 
Q 1284 -91 818 406 
Q 353 903 353 1747 
Q 353 2603 823 3093 
Q 1294 3584 2113 3584 
Q 2378 3584 2631 3529 
Q 2884 3475 3122 3366 
z
" transform="scale(0.015625)"/>
       <path id="DejaVuSans-57" d="M 213 4666 
L 850 4666 
L 1831 722 
L 2809 4666 
L 3519 4666 
L 4500 722 
L 5478 4666 
L 6119 4666 
L 4947 0 
L 4153 0 
L 3169 4050 
L 2175 0 
L 1381 0 
L 213 4666 
z
" transform="scale(0.015625)"/>
       <path id="DejaVuSans-6c" d="M 603 4863 
L 1178 4863 
L 1178 0 
L 603 0 
L 603 4863 
z
" transform="scale(0.015625)"/>
       <path id="DejaVuSans-73" d="M 2834 3397 
L 2834 2853 
Q 2591 2978 2328 3040 
Q 2066 3103 1784 3103 
Q 1356 3103 1142 2972 
Q 928 2841 928 2578 
Q 928 2378 1081 2264 
Q 1234 2150 1697 2047 
L 1894 2003 
Q 2506 1872 2764 1633 
Q 3022 1394 3022 966 
Q 3022 478 2636 193 
Q 2250 -91 1575 -91 
Q 1294 -91 989 -36 
Q 684 19 347 128 
L 347 722 
Q 666 556 975 473 
Q 1284 391 1588 391 
Q 1994 391 2212 530 
Q 2431 669 2431 922 
Q 2431 1156 2273 1281 
Q 2116 1406 1581 1522 
L 1381 1569 
Q 847 1681 609 1914 
Q 372 2147 372 2553 
Q 372 3047 722 3315 
Q 1072 3584 1716 3584 
Q 2034 3584 2315 3537 
Q 2597 3491 2834 3397 
z
" transform="scale(0.015625)"/>
      </defs>
      <use xlink:href="#DejaVuSans-42"/>
      <use xlink:href="#DejaVuSans-72" x="68.603516"/>
      <use xlink:href="#DejaVuSans-75" x="109.716797"/>
      <use xlink:href="#DejaVuSans-63" x="173.095703"/>
      <use xlink:href="#DejaVuSans-65" x="228.076172"/>
      <use xlink:href="#DejaVuSans-20" x="289.599609"/>
      <use xlink:href="#DejaVuSans-57" x="321.386719"/>
      <use xlink:href="#DejaVuSans-69" x="418.013672"/>
      <use xlink:href="#DejaVuSans-6c" x="445.796875"/>
      <use xlink:href="#DejaVuSans-6c" x="473.580078"/>
      <use xlink:href="#DejaVuSans-69" x="501.363281"/>
      <use xlink:href="#DejaVuSans-73" x="529.146484"/>
     </g>
    </g>
   </g>
   <g id="text_3">
    <g id="patch_4">
     <path d="M 388.92735 148.325552 
L 463.67235 148.325552 
L 463.67235 131.695239 
L 388.92735 131.695239 
z
" clip-path="url(#p0d1c660a58)" style="fill: #ffffff; opacity: 0.7; stroke: #000000; stroke-linejoin: miter"/>
    </g>
    <g clip-path="url(#p0d1c660a58)">
     <!-- Steve Buscemi -->
     <g transform="translate(392.88735 142.493833)scale(0.09 -0.09)">
      <defs>
       <path id="DejaVuSans-53" d="M 3425 4513 
L 3425 3897 
Q 3066 4069 2747 4153 
Q 2428 4238 2131 4238 
Q 1616 4238 1336 4038 
Q 1056 3838 1056 3469 
Q 1056 3159 1242 3001 
Q 1428 2844 1947 2747 
L 2328 2669 
Q 3034 2534 3370 2195 
Q 3706 1856 3706 1288 
Q 3706 609 3251 259 
Q 2797 -91 1919 -91 
Q 1588 -91 1214 -16 
Q 841 59 441 206 
L 441 856 
Q 825 641 1194 531 
Q 1563 422 1919 422 
Q 2459 422 2753 634 
Q 3047 847 3047 1241 
Q 3047 1584 2836 1778 
Q 2625 1972 2144 2069 
L 1759 2144 
Q 1053 2284 737 2584 
Q 422 2884 422 3419 
Q 422 4038 858 4394 
Q 1294 4750 2059 4750 
Q 2388 4750 2728 4690 
Q 3069 4631 3425 4513 
z
" transform="scale(0.015625)"/>
       <path id="DejaVuSans-76" d="M 191 3500 
L 800 3500 
L 1894 563 
L 2988 3500 
L 3597 3500 
L 2284 0 
L 1503 0 
L 191 3500 
z
" transform="scale(0.015625)"/>
       <path id="DejaVuSans-6d" d="M 3328 2828 
Q 3544 3216 3844 3400 
Q 4144 3584 4550 3584 
Q 5097 3584 5394 3201 
Q 5691 2819 5691 2113 
L 5691 0 
L 5113 0 
L 5113 2094 
Q 5113 2597 4934 2840 
Q 4756 3084 4391 3084 
Q 3944 3084 3684 2787 
Q 3425 2491 3425 1978 
L 3425 0 
L 2847 0 
L 2847 2094 
Q 2847 2600 2669 2842 
Q 2491 3084 2119 3084 
Q 1678 3084 1418 2786 
Q 1159 2488 1159 1978 
L 1159 0 
L 581 0 
L 581 3500 
L 1159 3500 
L 1159 2956 
Q 1356 3278 1631 3431 
Q 1906 3584 2284 3584 
Q 2666 3584 2933 3390 
Q 3200 3197 3328 2828 
z
" transform="scale(0.015625)"/>
      </defs>
      <use xlink:href="#DejaVuSans-53"/>
      <use xlink:href="#DejaVuSans-74" x="63.476562"/>
      <use xlink:href="#DejaVuSans-65" x="102.685547"/>
      <use xlink:href="#DejaVuSans-76" x="164.208984"/>
      <use xlink:href="#DejaVuSans-65" x="223.388672"/>
      <use xlink:href="#DejaVuSans-20" x="284.912109"/>
      <use xlink:href="#DejaVuSans-42" x="316.699219"/>
      <use xlink:href="#DejaVuSans-75" x="385.302734"/>
      <use xlink:href="#DejaVuSans-73" x="448.681641"/>
      <use xlink:href="#DejaVuSans-63" x="500.78125"/>
      <use xlink:href="#DejaVuSans-65" x="555.761719"/>
      <use xlink:href="#DejaVuSans-6d" x="617.285156"/>
      <use xlink:href="#DejaVuSans-69" x="714.697266"/>
     </g>
    </g>
   </g>
   <g id="text_4">
    <g id="patch_5">
     <path d="M 324.347416 103.891714 
L 372.981166 103.891714 
L 372.981166 87.261401 
L 324.347416 87.261401 
z
" clip-path="url(#p0d1c660a58)" style="fill: #ffffff; opacity: 0.7; stroke: #000000; stroke-linejoin: miter"/>
    </g>
    <g clip-path="url(#p0d1c660a58)">
     <!-- Al Pacino -->
     <g transform="translate(328.307416 98.059995)scale(0.09 -0.09)">
      <defs>
       <path id="DejaVuSans-41" d="M 2188 4044 
L 1331 1722 
L 3047 1722 
L 2188 4044 
z
M 1831 4666 
L 2547 4666 
L 4325 0 
L 3669 0 
L 3244 1197 
L 1141 1197 
L 716 0 
L 50 0 
L 1831 4666 
z
" transform="scale(0.015625)"/>
       <path id="DejaVuSans-50" d="M 1259 4147 
L 1259 2394 
L 2053 2394 
Q 2494 2394 2734 2622 
Q 2975 2850 2975 3272 
Q 2975 3691 2734 3919 
Q 2494 4147 2053 4147 
L 1259 4147 
z
M 628 4666 
L 2053 4666 
Q 2838 4666 3239 4311 
Q 3641 3956 3641 3272 
Q 3641 2581 3239 2228 
Q 2838 1875 2053 1875 
L 1259 1875 
L 1259 0 
L 628 0 
L 628 4666 
z
" transform="scale(0.015625)"/>
       <path id="DejaVuSans-61" d="M 2194 1759 
Q 1497 1759 1228 1600 
Q 959 1441 959 1056 
Q 959 750 1161 570 
Q 1363 391 1709 391 
Q 2188 391 2477 730 
Q 2766 1069 2766 1631 
L 2766 1759 
L 2194 1759 
z
M 3341 1997 
L 3341 0 
L 2766 0 
L 2766 531 
Q 2569 213 2275 61 
Q 1981 -91 1556 -91 
Q 1019 -91 701 211 
Q 384 513 384 1019 
Q 384 1609 779 1909 
Q 1175 2209 1959 2209 
L 2766 2209 
L 2766 2266 
Q 2766 2663 2505 2880 
Q 2244 3097 1772 3097 
Q 1472 3097 1187 3025 
Q 903 2953 641 2809 
L 641 3341 
Q 956 3463 1253 3523 
Q 1550 3584 1831 3584 
Q 2591 3584 2966 3190 
Q 3341 2797 3341 1997 
z
" transform="scale(0.015625)"/>
       <path id="DejaVuSans-6e" d="M 3513 2113 
L 3513 0 
L 2938 0 
L 2938 2094 
Q 2938 2591 2744 2837 
Q 2550 3084 2163 3084 
Q 1697 3084 1428 2787 
Q 1159 2491 1159 1978 
L 1159 0 
L 581 0 
L 581 3500 
L 1159 3500 
L 1159 2956 
Q 1366 3272 1645 3428 
Q 1925 3584 2291 3584 
Q 2894 3584 3203 3211 
Q 3513 2838 3513 2113 
z
" transform="scale(0.015625)"/>
      </defs>
      <use xlink:href="#DejaVuSans-41"/>
      <use xlink:href="#DejaVuSans-6c" x="68.408203"/>
      <use xlink:href="#DejaVuSans-20" x="96.191406"/>
      <use xlink:href="#DejaVuSans-50" x="127.978516"/>
      <use xlink:href="#DejaVuSans-61" x="183.78125"/>
      <use xlink:href="#DejaVuSans-63" x="245.060547"/>
      <use xlink:href="#DejaVuSans-69" x="300.041016"/>
      <use xlink:href="#DejaVuSans-6e" x="327.824219"/>
      <use xlink:href="#DejaVuSans-6f" x="391.203125"/>
     </g>
    </g>
   </g>
   <g id="text_5">
    <g id="patch_6">
     <path d="M 235.881736 94.602512 
L 283.137361 94.602512 
L 283.137361 77.9722 
L 235.881736 77.9722 
z
" clip-path="url(#p0d1c660a58)" style="fill: #ffffff; opacity: 0.7; stroke: #000000; stroke-linejoin: miter"/>
    </g>
    <g clip-path="url(#p0d1c660a58)">
     <!-- Joe Pesci -->
     <g transform="translate(239.841736 88.770793)scale(0.09 -0.09)">
      <defs>
       <path id="DejaVuSans-4a" d="M 628 4666 
L 1259 4666 
L 1259 325 
Q 1259 -519 939 -900 
Q 619 -1281 -91 -1281 
L -331 -1281 
L -331 -750 
L -134 -750 
Q 284 -750 456 -515 
Q 628 -281 628 325 
L 628 4666 
z
" transform="scale(0.015625)"/>
      </defs>
      <use xlink:href="#DejaVuSans-4a"/>
      <use xlink:href="#DejaVuSans-6f" x="29.492188"/>
      <use xlink:href="#DejaVuSans-65" x="90.673828"/>
      <use xlink:href="#DejaVuSans-20" x="152.197266"/>
      <use xlink:href="#DejaVuSans-50" x="183.984375"/>
      <use xlink:href="#DejaVuSans-65" x="240.662109"/>
      <use xlink:href="#DejaVuSans-73" x="302.185547"/>
      <use xlink:href="#DejaVuSans-63" x="354.285156"/>
      <use xlink:href="#DejaVuSans-69" x="409.265625"/>
     </g>
    </g>
   </g>
   <g id="text_6">
    <g id="patch_7">
     <path d="M 141.195282 122.064145 
L 207.307314 122.064145 
L 207.307314 105.433832 
L 141.195282 105.433832 
z
" clip-path="url(#p0d1c660a58)" style="fill: #ffffff; opacity: 0.7; stroke: #000000; stroke-linejoin: miter"/>
    </g>
    <g clip-path="url(#p0d1c660a58)">
     <!-- John Travolta -->
     <g transform="translate(145.155282 116.232426)scale(0.09 -0.09)">
      <defs>
       <path id="DejaVuSans-68" d="M 3513 2113 
L 3513 0 
L 2938 0 
L 2938 2094 
Q 2938 2591 2744 2837 
Q 2550 3084 2163 3084 
Q 1697 3084 1428 2787 
Q 1159 2491 1159 1978 
L 1159 0 
L 581 0 
L 581 4863 
L 1159 4863 
L 1159 2956 
Q 1366 3272 1645 3428 
Q 1925 3584 2291 3584 
Q 2894 3584 3203 3211 
Q 3513 2838 3513 2113 
z
" transform="scale(0.015625)"/>
       <path id="DejaVuSans-54" d="M -19 4666 
L 3928 4666 
L 3928 4134 
L 2272 4134 
L 2272 0 
L 1638 0 
L 1638 4134 
L -19 4134 
L -19 4666 
z
" transform="scale(0.015625)"/>
      </defs>
      <use xlink:href="#DejaVuSans-4a"/>
      <use xlink:href="#DejaVuSans-6f" x="29.492188"/>
      <use xlink:href="#DejaVuSans-68" x="90.673828"/>
      <use xlink:href="#DejaVuSans-6e" x="154.052734"/>
      <use xlink:href="#DejaVuSans-20" x="217.431641"/>
      <use xlink:href="#DejaVuSans-54" x="249.21875"/>
      <use xlink:href="#DejaVuSans-72" x="295.552734"/>
      <use xlink:href="#DejaVuSans-61" x="336.666016"/>
      <use xlink:href="#DejaVuSans-76" x="397.945312"/>
      <use xlink:href="#DejaVuSans-6f" x="457.125"/>
      <use xlink:href="#DejaVuSans-6c" x="518.306641"/>
      <use xlink:href="#DejaVuSans-74" x="546.089844"/>
      <use xlink:href="#DejaVuSans-61" x="585.298828"/>
     </g>
    </g>
   </g>
   <g id="text_7">
    <g id="patch_8">
     <path d="M 63.058274 181.528231 
L 152.20468 181.528231 
L 152.20468 164.897918 
L 63.058274 164.897918 
z
" clip-path="url(#p0d1c660a58)" style="fill: #ffffff; opacity: 0.7; stroke: #000000; stroke-linejoin: miter"/>
    </g>
    <g clip-path="url(#p0d1c660a58)">
     <!-- Sylvester Stallone -->
     <g transform="translate(67.018274 175.696512)scale(0.09 -0.09)">
      <defs>
       <path id="DejaVuSans-79" d="M 2059 -325 
Q 1816 -950 1584 -1140 
Q 1353 -1331 966 -1331 
L 506 -1331 
L 506 -850 
L 844 -850 
Q 1081 -850 1212 -737 
Q 1344 -625 1503 -206 
L 1606 56 
L 191 3500 
L 800 3500 
L 1894 763 
L 2988 3500 
L 3597 3500 
L 2059 -325 
z
" transform="scale(0.015625)"/>
      </defs>
      <use xlink:href="#DejaVuSans-53"/>
      <use xlink:href="#DejaVuSans-79" x="63.476562"/>
      <use xlink:href="#DejaVuSans-6c" x="122.65625"/>
      <use xlink:href="#DejaVuSans-76" x="150.439453"/>
      <use xlink:href="#DejaVuSans-65" x="209.619141"/>
      <use xlink:href="#DejaVuSans-73" x="271.142578"/>
      <use xlink:href="#DejaVuSans-74" x="323.242188"/>
      <use xlink:href="#DejaVuSans-65" x="362.451172"/>
      <use xlink:href="#DejaVuSans-72" x="423.974609"/>
      <use xlink:href="#DejaVuSans-20" x="465.087891"/>
      <use xlink:href="#DejaVuSans-53" x="496.875"/>
      <use xlink:href="#DejaVuSans-74" x="560.351562"/>
      <use xlink:href="#DejaVuSans-61" x="599.560547"/>
      <use xlink:href="#DejaVuSans-6c" x="660.839844"/>
      <use xlink:href="#DejaVuSans-6c" x="688.623047"/>
      <use xlink:href="#DejaVuSans-6f" x="716.40625"/>
      <use xlink:href="#DejaVuSans-6e" x="777.587891"/>
      <use xlink:href="#DejaVuSans-65" x="840.966797"/>
     </g>
    </g>
   </g>
   <g id="text_8">
    <g id="patch_9">
     <path d="M 45.45595 262.712916 
L 96.882512 262.712916 
L 96.882512 246.082603 
L 45.45595 246.082603 
z
" clip-path="url(#p0d1c660a58)" style="fill: #ffffff; opacity: 0.7; stroke: #000000; stroke-linejoin: miter"/>
    </g>
    <g clip-path="url(#p0d1c660a58)">
     <!-- Mel Blanc -->
     <g transform="translate(49.41595 256.881197)scale(0.09 -0.09)">
      <defs>
       <path id="DejaVuSans-4d" d="M 628 4666 
L 1569 4666 
L 2759 1491 
L 3956 4666 
L 4897 4666 
L 4897 0 
L 4281 0 
L 4281 4097 
L 3078 897 
L 2444 897 
L 1241 4097 
L 1241 0 
L 628 0 
L 628 4666 
z
" transform="scale(0.015625)"/>
      </defs>
      <use xlink:href="#DejaVuSans-4d"/>
      <use xlink:href="#DejaVuSans-65" x="86.279297"/>
      <use xlink:href="#DejaVuSans-6c" x="147.802734"/>
      <use xlink:href="#DejaVuSans-20" x="175.585938"/>
      <use xlink:href="#DejaVuSans-42" x="207.373047"/>
      <use xlink:href="#DejaVuSans-6c" x="275.976562"/>
      <use xlink:href="#DejaVuSans-61" x="303.759766"/>
      <use xlink:href="#DejaVuSans-6e" x="365.039062"/>
      <use xlink:href="#DejaVuSans-63" x="428.417969"/>
     </g>
    </g>
   </g>
   <g id="text_9">
    <g id="patch_10">
     <path d="M 26.427994 351.580604 
L 115.910494 351.580604 
L 115.910494 334.950292 
L 26.427994 334.950292 
z
" clip-path="url(#p0d1c660a58)" style="fill: #ffffff; opacity: 0.7; stroke: #000000; stroke-linejoin: miter"/>
    </g>
    <g clip-path="url(#p0d1c660a58)">
     <!-- Samuel L. Jackson -->
     <g transform="translate(30.387994 345.748885)scale(0.09 -0.09)">
      <defs>
       <path id="DejaVuSans-4c" d="M 628 4666 
L 1259 4666 
L 1259 531 
L 3531 531 
L 3531 0 
L 628 0 
L 628 4666 
z
" transform="scale(0.015625)"/>
       <path id="DejaVuSans-2e" d="M 684 794 
L 1344 794 
L 1344 0 
L 684 0 
L 684 794 
z
" transform="scale(0.015625)"/>
       <path id="DejaVuSans-6b" d="M 581 4863 
L 1159 4863 
L 1159 1991 
L 2875 3500 
L 3609 3500 
L 1753 1863 
L 3688 0 
L 2938 0 
L 1159 1709 
L 1159 0 
L 581 0 
L 581 4863 
z
" transform="scale(0.015625)"/>
      </defs>
      <use xlink:href="#DejaVuSans-53"/>
      <use xlink:href="#DejaVuSans-61" x="63.476562"/>
      <use xlink:href="#DejaVuSans-6d" x="124.755859"/>
      <use xlink:href="#DejaVuSans-75" x="222.167969"/>
      <use xlink:href="#DejaVuSans-65" x="285.546875"/>
      <use xlink:href="#DejaVuSans-6c" x="347.070312"/>
      <use xlink:href="#DejaVuSans-20" x="374.853516"/>
      <use xlink:href="#DejaVuSans-4c" x="406.640625"/>
      <use xlink:href="#DejaVuSans-2e" x="462.353516"/>
      <use xlink:href="#DejaVuSans-20" x="494.140625"/>
      <use xlink:href="#DejaVuSans-4a" x="525.927734"/>
      <use xlink:href="#DejaVuSans-61" x="555.419922"/>
      <use xlink:href="#DejaVuSans-63" x="616.699219"/>
      <use xlink:href="#DejaVuSans-6b" x="671.679688"/>
      <use xlink:href="#DejaVuSans-73" x="729.589844"/>
      <use xlink:href="#DejaVuSans-6f" x="781.689453"/>
      <use xlink:href="#DejaVuSans-6e" x="842.871094"/>
     </g>
    </g>
   </g>
   <g id="text_10">
    <g id="patch_11">
     <path d="M 60.330162 432.765264 
L 154.932818 432.765264 
L 154.932818 416.134951 
L 60.330162 416.134951 
z
" clip-path="url(#p0d1c660a58)" style="fill: #ffffff; opacity: 0.7; stroke: #000000; stroke-linejoin: miter"/>
    </g>
    <g clip-path="url(#p0d1c660a58)">
     <!-- Denzel Washington -->
     <g transform="translate(64.290162 426.933545)scale(0.09 -0.09)">
      <defs>
       <path id="DejaVuSans-7a" d="M 353 3500 
L 3084 3500 
L 3084 2975 
L 922 459 
L 3084 459 
L 3084 0 
L 275 0 
L 275 525 
L 2438 3041 
L 353 3041 
L 353 3500 
z
" transform="scale(0.015625)"/>
       <path id="DejaVuSans-67" d="M 2906 1791 
Q 2906 2416 2648 2759 
Q 2391 3103 1925 3103 
Q 1463 3103 1205 2759 
Q 947 2416 947 1791 
Q 947 1169 1205 825 
Q 1463 481 1925 481 
Q 2391 481 2648 825 
Q 2906 1169 2906 1791 
z
M 3481 434 
Q 3481 -459 3084 -895 
Q 2688 -1331 1869 -1331 
Q 1566 -1331 1297 -1286 
Q 1028 -1241 775 -1147 
L 775 -588 
Q 1028 -725 1275 -790 
Q 1522 -856 1778 -856 
Q 2344 -856 2625 -561 
Q 2906 -266 2906 331 
L 2906 616 
Q 2728 306 2450 153 
Q 2172 0 1784 0 
Q 1141 0 747 490 
Q 353 981 353 1791 
Q 353 2603 747 3093 
Q 1141 3584 1784 3584 
Q 2172 3584 2450 3431 
Q 2728 3278 2906 2969 
L 2906 3500 
L 3481 3500 
L 3481 434 
z
" transform="scale(0.015625)"/>
      </defs>
      <use xlink:href="#DejaVuSans-44"/>
      <use xlink:href="#DejaVuSans-65" x="77.001953"/>
      <use xlink:href="#DejaVuSans-6e" x="138.525391"/>
      <use xlink:href="#DejaVuSans-7a" x="201.904297"/>
      <use xlink:href="#DejaVuSans-65" x="254.394531"/>
      <use xlink:href="#DejaVuSans-6c" x="315.917969"/>
      <use xlink:href="#DejaVuSans-20" x="343.701172"/>
      <use xlink:href="#DejaVuSans-57" x="375.488281"/>
      <use xlink:href="#DejaVuSans-61" x="467.990234"/>
      <use xlink:href="#DejaVuSans-73" x="529.269531"/>
      <use xlink:href="#DejaVuSans-68" x="581.369141"/>
      <use xlink:href="#DejaVuSans-69" x="644.748047"/>
      <use xlink:href="#DejaVuSans-6e" x="672.53125"/>
      <use xlink:href="#DejaVuSans-67" x="735.910156"/>
      <use xlink:href="#DejaVuSans-74" x="799.386719"/>
      <use xlink:href="#DejaVuSans-6f" x="838.595703"/>
      <use xlink:href="#DejaVuSans-6e" x="899.777344"/>
     </g>
    </g>
   </g>
   <g id="text_11">
    <g id="patch_12">
     <path d="M 132.44633 492.22935 
L 216.05633 492.22935 
L 216.05633 475.599037 
L 132.44633 475.599037 
z
" clip-path="url(#p0d1c660a58)" style="fill: #ffffff; opacity: 0.7; stroke: #000000; stroke-linejoin: miter"/>
    </g>
    <g clip-path="url(#p0d1c660a58)">
     <!-- Morgan Freeman -->
     <g transform="translate(136.40633 486.397631)scale(0.09 -0.09)">
      <defs>
       <path id="DejaVuSans-46" d="M 628 4666 
L 3309 4666 
L 3309 4134 
L 1259 4134 
L 1259 2759 
L 3109 2759 
L 3109 2228 
L 1259 2228 
L 1259 0 
L 628 0 
L 628 4666 
z
" transform="scale(0.015625)"/>
      </defs>
      <use xlink:href="#DejaVuSans-4d"/>
      <use xlink:href="#DejaVuSans-6f" x="86.279297"/>
      <use xlink:href="#DejaVuSans-72" x="147.460938"/>
      <use xlink:href="#DejaVuSans-67" x="186.824219"/>
      <use xlink:href="#DejaVuSans-61" x="250.300781"/>
      <use xlink:href="#DejaVuSans-6e" x="311.580078"/>
      <use xlink:href="#DejaVuSans-20" x="374.958984"/>
      <use xlink:href="#DejaVuSans-46" x="406.746094"/>
      <use xlink:href="#DejaVuSans-72" x="457.015625"/>
      <use xlink:href="#DejaVuSans-65" x="495.878906"/>
      <use xlink:href="#DejaVuSans-65" x="557.402344"/>
      <use xlink:href="#DejaVuSans-6d" x="618.925781"/>
      <use xlink:href="#DejaVuSans-61" x="716.337891"/>
      <use xlink:href="#DejaVuSans-6e" x="777.617188"/>
     </g>
    </g>
   </g>
   <g id="text_12">
    <g id="patch_13">
     <path d="M 224.193025 519.690969 
L 294.82615 519.690969 
L 294.82615 503.060657 
L 224.193025 503.060657 
z
" clip-path="url(#p0d1c660a58)" style="fill: #ffffff; opacity: 0.7; stroke: #000000; stroke-linejoin: miter"/>
    </g>
    <g clip-path="url(#p0d1c660a58)">
     <!-- Christian Bale -->
     <g transform="translate(228.153025 513.859251)scale(0.09 -0.09)">
      <defs>
       <path id="DejaVuSans-43" d="M 4122 4306 
L 4122 3641 
Q 3803 3938 3442 4084 
Q 3081 4231 2675 4231 
Q 1875 4231 1450 3742 
Q 1025 3253 1025 2328 
Q 1025 1406 1450 917 
Q 1875 428 2675 428 
Q 3081 428 3442 575 
Q 3803 722 4122 1019 
L 4122 359 
Q 3791 134 3420 21 
Q 3050 -91 2638 -91 
Q 1578 -91 968 557 
Q 359 1206 359 2328 
Q 359 3453 968 4101 
Q 1578 4750 2638 4750 
Q 3056 4750 3426 4639 
Q 3797 4528 4122 4306 
z
" transform="scale(0.015625)"/>
      </defs>
      <use xlink:href="#DejaVuSans-43"/>
      <use xlink:href="#DejaVuSans-68" x="69.824219"/>
      <use xlink:href="#DejaVuSans-72" x="133.203125"/>
      <use xlink:href="#DejaVuSans-69" x="174.316406"/>
      <use xlink:href="#DejaVuSans-73" x="202.099609"/>
      <use xlink:href="#DejaVuSans-74" x="254.199219"/>
      <use xlink:href="#DejaVuSans-69" x="293.408203"/>
      <use xlink:href="#DejaVuSans-61" x="321.191406"/>
      <use xlink:href="#DejaVuSans-6e" x="382.470703"/>
      <use xlink:href="#DejaVuSans-20" x="445.849609"/>
      <use xlink:href="#DejaVuSans-42" x="477.636719"/>
      <use xlink:href="#DejaVuSans-61" x="546.240234"/>
      <use xlink:href="#DejaVuSans-6c" x="607.519531"/>
      <use xlink:href="#DejaVuSans-65" x="635.302734"/>
     </g>
    </g>
   </g>
   <g id="text_13">
    <g id="patch_14">
     <path d="M 315.632917 510.401755 
L 381.69573 510.401755 
L 381.69573 493.771442 
L 315.632917 493.771442 
z
" clip-path="url(#p0d1c660a58)" style="fill: #ffffff; opacity: 0.7; stroke: #000000; stroke-linejoin: miter"/>
    </g>
    <g clip-path="url(#p0d1c660a58)">
     <!-- Owen Wilson -->
     <g transform="translate(319.592917 504.570036)scale(0.09 -0.09)">
      <defs>
       <path id="DejaVuSans-4f" d="M 2522 4238 
Q 1834 4238 1429 3725 
Q 1025 3213 1025 2328 
Q 1025 1447 1429 934 
Q 1834 422 2522 422 
Q 3209 422 3611 934 
Q 4013 1447 4013 2328 
Q 4013 3213 3611 3725 
Q 3209 4238 2522 4238 
z
M 2522 4750 
Q 3503 4750 4090 4092 
Q 4678 3434 4678 2328 
Q 4678 1225 4090 567 
Q 3503 -91 2522 -91 
Q 1538 -91 948 565 
Q 359 1222 359 2328 
Q 359 3434 948 4092 
Q 1538 4750 2522 4750 
z
" transform="scale(0.015625)"/>
       <path id="DejaVuSans-77" d="M 269 3500 
L 844 3500 
L 1563 769 
L 2278 3500 
L 2956 3500 
L 3675 769 
L 4391 3500 
L 4966 3500 
L 4050 0 
L 3372 0 
L 2619 2869 
L 1863 0 
L 1184 0 
L 269 3500 
z
" transform="scale(0.015625)"/>
      </defs>
      <use xlink:href="#DejaVuSans-4f"/>
      <use xlink:href="#DejaVuSans-77" x="78.710938"/>
      <use xlink:href="#DejaVuSans-65" x="160.498047"/>
      <use xlink:href="#DejaVuSans-6e" x="222.021484"/>
      <use xlink:href="#DejaVuSans-20" x="285.400391"/>
      <use xlink:href="#DejaVuSans-57" x="317.1875"/>
      <use xlink:href="#DejaVuSans-69" x="413.814453"/>
      <use xlink:href="#DejaVuSans-6c" x="441.597656"/>
      <use xlink:href="#DejaVuSans-73" x="469.380859"/>
      <use xlink:href="#DejaVuSans-6f" x="521.480469"/>
      <use xlink:href="#DejaVuSans-6e" x="582.662109"/>
     </g>
    </g>
   </g>
   <g id="text_14">
    <g id="patch_15">
     <path d="M 392.32981 465.967892 
L 460.269967 465.967892 
L 460.269967 449.337579 
L 392.32981 449.337579 
z
" clip-path="url(#p0d1c660a58)" style="fill: #ffffff; opacity: 0.7; stroke: #000000; stroke-linejoin: miter"/>
    </g>
    <g clip-path="url(#p0d1c660a58)">
     <!-- Willem Dafoe -->
     <g transform="translate(396.28981 460.136173)scale(0.09 -0.09)">
      <defs>
       <path id="DejaVuSans-66" d="M 2375 4863 
L 2375 4384 
L 1825 4384 
Q 1516 4384 1395 4259 
Q 1275 4134 1275 3809 
L 1275 3500 
L 2222 3500 
L 2222 3053 
L 1275 3053 
L 1275 0 
L 697 0 
L 697 3053 
L 147 3053 
L 147 3500 
L 697 3500 
L 697 3744 
Q 697 4328 969 4595 
Q 1241 4863 1831 4863 
L 2375 4863 
z
" transform="scale(0.015625)"/>
      </defs>
      <use xlink:href="#DejaVuSans-57"/>
      <use xlink:href="#DejaVuSans-69" x="96.626953"/>
      <use xlink:href="#DejaVuSans-6c" x="124.410156"/>
      <use xlink:href="#DejaVuSans-6c" x="152.193359"/>
      <use xlink:href="#DejaVuSans-65" x="179.976562"/>
      <use xlink:href="#DejaVuSans-6d" x="241.5"/>
      <use xlink:href="#DejaVuSans-20" x="338.912109"/>
      <use xlink:href="#DejaVuSans-44" x="370.699219"/>
      <use xlink:href="#DejaVuSans-61" x="447.701172"/>
      <use xlink:href="#DejaVuSans-66" x="508.980469"/>
      <use xlink:href="#DejaVuSans-6f" x="544.185547"/>
      <use xlink:href="#DejaVuSans-65" x="605.367188"/>
     </g>
    </g>
   </g>
   <g id="text_15">
    <g id="patch_16">
     <path d="M 445.849874 394.072421 
L 512.134874 394.072421 
L 512.134874 377.442109 
L 445.849874 377.442109 
z
" clip-path="url(#p0d1c660a58)" style="fill: #ffffff; opacity: 0.7; stroke: #000000; stroke-linejoin: miter"/>
    </g>
    <g clip-path="url(#p0d1c660a58)">
     <!-- Liam Neeson -->
     <g transform="translate(449.809874 388.240702)scale(0.09 -0.09)">
      <use xlink:href="#DejaVuSans-4c"/>
      <use xlink:href="#DejaVuSans-69" x="55.712891"/>
      <use xlink:href="#DejaVuSans-61" x="83.496094"/>
      <use xlink:href="#DejaVuSans-6d" x="144.775391"/>
      <use xlink:href="#DejaVuSans-20" x="242.1875"/>
      <use xlink:href="#DejaVuSans-4e" x="273.974609"/>
      <use xlink:href="#DejaVuSans-65" x="348.779297"/>
      <use xlink:href="#DejaVuSans-65" x="410.302734"/>
      <use xlink:href="#DejaVuSans-73" x="471.826172"/>
      <use xlink:href="#DejaVuSans-6f" x="523.925781"/>
      <use xlink:href="#DejaVuSans-6e" x="585.107422"/>
     </g>
    </g>
   </g>
   <g id="text_16">
    <!-- Impactful actors for Crime Fiction genre - Importance rank: 2 -->
    <g transform="translate(101.595 16.318125)scale(0.12 -0.12)">
     <defs>
      <path id="DejaVuSans-49" d="M 628 4666 
L 1259 4666 
L 1259 0 
L 628 0 
L 628 4666 
z
" transform="scale(0.015625)"/>
      <path id="DejaVuSans-70" d="M 1159 525 
L 1159 -1331 
L 581 -1331 
L 581 3500 
L 1159 3500 
L 1159 2969 
Q 1341 3281 1617 3432 
Q 1894 3584 2278 3584 
Q 2916 3584 3314 3078 
Q 3713 2572 3713 1747 
Q 3713 922 3314 415 
Q 2916 -91 2278 -91 
Q 1894 -91 1617 61 
Q 1341 213 1159 525 
z
M 3116 1747 
Q 3116 2381 2855 2742 
Q 2594 3103 2138 3103 
Q 1681 3103 1420 2742 
Q 1159 2381 1159 1747 
Q 1159 1113 1420 752 
Q 1681 391 2138 391 
Q 2594 391 2855 752 
Q 3116 1113 3116 1747 
z
" transform="scale(0.015625)"/>
      <path id="DejaVuSans-2d" d="M 313 2009 
L 1997 2009 
L 1997 1497 
L 313 1497 
L 313 2009 
z
" transform="scale(0.015625)"/>
      <path id="DejaVuSans-3a" d="M 750 794 
L 1409 794 
L 1409 0 
L 750 0 
L 750 794 
z
M 750 3309 
L 1409 3309 
L 1409 2516 
L 750 2516 
L 750 3309 
z
" transform="scale(0.015625)"/>
      <path id="DejaVuSans-32" d="M 1228 531 
L 3431 531 
L 3431 0 
L 469 0 
L 469 531 
Q 828 903 1448 1529 
Q 2069 2156 2228 2338 
Q 2531 2678 2651 2914 
Q 2772 3150 2772 3378 
Q 2772 3750 2511 3984 
Q 2250 4219 1831 4219 
Q 1534 4219 1204 4116 
Q 875 4013 500 3803 
L 500 4441 
Q 881 4594 1212 4672 
Q 1544 4750 1819 4750 
Q 2544 4750 2975 4387 
Q 3406 4025 3406 3419 
Q 3406 3131 3298 2873 
Q 3191 2616 2906 2266 
Q 2828 2175 2409 1742 
Q 1991 1309 1228 531 
z
" transform="scale(0.015625)"/>
     </defs>
     <use xlink:href="#DejaVuSans-49"/>
     <use xlink:href="#DejaVuSans-6d" x="29.492188"/>
     <use xlink:href="#DejaVuSans-70" x="126.904297"/>
     <use xlink:href="#DejaVuSans-61" x="190.380859"/>
     <use xlink:href="#DejaVuSans-63" x="251.660156"/>
     <use xlink:href="#DejaVuSans-74" x="306.640625"/>
     <use xlink:href="#DejaVuSans-66" x="345.849609"/>
     <use xlink:href="#DejaVuSans-75" x="381.054688"/>
     <use xlink:href="#DejaVuSans-6c" x="444.433594"/>
     <use xlink:href="#DejaVuSans-20" x="472.216797"/>
     <use xlink:href="#DejaVuSans-61" x="504.003906"/>
     <use xlink:href="#DejaVuSans-63" x="565.283203"/>
     <use xlink:href="#DejaVuSans-74" x="620.263672"/>
     <use xlink:href="#DejaVuSans-6f" x="659.472656"/>
     <use xlink:href="#DejaVuSans-72" x="720.654297"/>
     <use xlink:href="#DejaVuSans-73" x="761.767578"/>
     <use xlink:href="#DejaVuSans-20" x="813.867188"/>
     <use xlink:href="#DejaVuSans-66" x="845.654297"/>
     <use xlink:href="#DejaVuSans-6f" x="880.859375"/>
     <use xlink:href="#DejaVuSans-72" x="942.041016"/>
     <use xlink:href="#DejaVuSans-20" x="983.154297"/>
     <use xlink:href="#DejaVuSans-43" x="1014.941406"/>
     <use xlink:href="#DejaVuSans-72" x="1084.765625"/>
     <use xlink:href="#DejaVuSans-69" x="1125.878906"/>
     <use xlink:href="#DejaVuSans-6d" x="1153.662109"/>
     <use xlink:href="#DejaVuSans-65" x="1251.074219"/>
     <use xlink:href="#DejaVuSans-20" x="1312.597656"/>
     <use xlink:href="#DejaVuSans-46" x="1344.384766"/>
     <use xlink:href="#DejaVuSans-69" x="1394.654297"/>
     <use xlink:href="#DejaVuSans-63" x="1422.4375"/>
     <use xlink:href="#DejaVuSans-74" x="1477.417969"/>
     <use xlink:href="#DejaVuSans-69" x="1516.626953"/>
     <use xlink:href="#DejaVuSans-6f" x="1544.410156"/>
     <use xlink:href="#DejaVuSans-6e" x="1605.591797"/>
     <use xlink:href="#DejaVuSans-20" x="1668.970703"/>
     <use xlink:href="#DejaVuSans-67" x="1700.757812"/>
     <use xlink:href="#DejaVuSans-65" x="1764.234375"/>
     <use xlink:href="#DejaVuSans-6e" x="1825.757812"/>
     <use xlink:href="#DejaVuSans-72" x="1889.136719"/>
     <use xlink:href="#DejaVuSans-65" x="1928"/>
     <use xlink:href="#DejaVuSans-20" x="1989.523438"/>
     <use xlink:href="#DejaVuSans-2d" x="2021.310547"/>
     <use xlink:href="#DejaVuSans-20" x="2057.394531"/>
     <use xlink:href="#DejaVuSans-49" x="2089.181641"/>
     <use xlink:href="#DejaVuSans-6d" x="2118.673828"/>
     <use xlink:href="#DejaVuSans-70" x="2216.085938"/>
     <use xlink:href="#DejaVuSans-6f" x="2279.5625"/>
     <use xlink:href="#DejaVuSans-72" x="2340.744141"/>
     <use xlink:href="#DejaVuSans-74" x="2381.857422"/>
     <use xlink:href="#DejaVuSans-61" x="2421.066406"/>
     <use xlink:href="#DejaVuSans-6e" x="2482.345703"/>
     <use xlink:href="#DejaVuSans-63" x="2545.724609"/>
     <use xlink:href="#DejaVuSans-65" x="2600.705078"/>
     <use xlink:href="#DejaVuSans-20" x="2662.228516"/>
     <use xlink:href="#DejaVuSans-72" x="2694.015625"/>
     <use xlink:href="#DejaVuSans-61" x="2735.128906"/>
     <use xlink:href="#DejaVuSans-6e" x="2796.408203"/>
     <use xlink:href="#DejaVuSans-6b" x="2859.787109"/>
     <use xlink:href="#DejaVuSans-3a" x="2917.697266"/>
     <use xlink:href="#DejaVuSans-20" x="2951.388672"/>
     <use xlink:href="#DejaVuSans-32" x="2983.175781"/>
    </g>
   </g>
  </g>
 </g>
 <defs>
  <clipPath id="p0d1c660a58">
   <rect x="7.2" y="22.318125" width="554.4" height="554.4"/>
  </clipPath>
 </defs>
</svg>
