<?xml version="1.0" encoding="utf-8" standalone="no"?>
<!DOCTYPE svg PUBLIC "-//W3C//DTD SVG 1.1//EN"
  "http://www.w3.org/Graphics/SVG/1.1/DTD/svg11.dtd">
<svg xmlns:xlink="http://www.w3.org/1999/xlink" width="576pt" height="576pt" viewBox="0 0 576 576" xmlns="http://www.w3.org/2000/svg" version="1.1">
 <metadata>
  <rdf:RDF xmlns:dc="http://purl.org/dc/elements/1.1/" xmlns:cc="http://creativecommons.org/ns#" xmlns:rdf="http://www.w3.org/1999/02/22-rdf-syntax-ns#">
   <cc:Work>
    <dc:type rdf:resource="http://purl.org/dc/dcmitype/StillImage"/>
    <dc:date>2022-12-22T16:11:49.874448</dc:date>
    <dc:format>image/svg+xml</dc:format>
    <dc:creator>
     <cc:Agent>
      <dc:title>Matplotlib v3.5.2, https://matplotlib.org/</dc:title>
     </cc:Agent>
    </dc:creator>
   </cc:Work>
  </rdf:RDF>
 </metadata>
 <defs>
  <style type="text/css">*{stroke-linejoin: round; stroke-linecap: butt}</style>
 </defs>
 <g id="figure_1">
  <g id="patch_1">
   <path d="M 0 576 
L 576 576 
L 576 0 
L 0 0 
z
" style="fill: #ffffff"/>
  </g>
  <g id="axes_1">
   <g id="PathCollection_1">
    <path d="M 501.230769 315.386128 
C 508.493655 315.386128 515.46005 312.500553 520.595686 307.364917 
C 525.731322 302.229281 528.616897 295.262886 528.616897 288 
C 528.616897 280.737114 525.731322 273.770719 520.595686 268.635083 
C 515.46005 263.499447 508.493655 260.613872 501.230769 260.613872 
C 493.967883 260.613872 487.001488 263.499447 481.865852 268.635083 
C 476.730217 273.770719 473.844641 280.737114 473.844641 288 
C 473.844641 295.262886 476.730217 302.229281 481.865852 307.364917 
C 487.001488 312.500553 493.967883 315.386128 501.230769 315.386128 
z
" clip-path="url(#p1d5453f4c2)" style="fill: #d62728; fill-opacity: 0.99; stroke: #d62728; stroke-opacity: 0.99"/>
    <path d="M 482.592348 228.179636 
C 489.855234 228.179636 496.821629 225.294061 501.957265 220.158425 
C 507.092901 215.022789 509.978476 208.056394 509.978476 200.793508 
C 509.978476 193.530622 507.092901 186.564228 501.957265 181.428592 
C 496.821629 176.292956 489.855234 173.407381 482.592348 173.407381 
C 475.329462 173.407381 468.363067 176.292956 463.227431 181.428592 
C 458.091795 186.564228 455.20622 193.530622 455.20622 200.793508 
C 455.20622 208.056394 458.091795 215.022789 463.227431 220.158425 
C 468.363067 225.294061 475.329462 228.179636 482.592348 228.179636 
z
" clip-path="url(#p1d5453f4c2)" style="fill: #d62728; fill-opacity: 0.99; stroke: #d62728; stroke-opacity: 0.99"/>
    <path d="M 429.89985 156.05193 
C 437.162736 156.05193 444.129131 153.166354 449.264767 148.030718 
C 454.400403 142.895082 457.285978 135.928688 457.285978 128.665802 
C 457.285978 121.402916 454.400403 114.436521 449.264767 109.300885 
C 444.129131 104.165249 437.162736 101.279674 429.89985 101.279674 
C 422.636964 101.279674 415.670569 104.165249 410.534933 109.300885 
C 405.399297 114.436521 402.513722 121.402916 402.513722 128.665802 
C 402.513722 135.928688 405.399297 142.895082 410.534933 148.030718 
C 415.670569 153.166354 422.636964 156.05193 429.89985 156.05193 
z
" clip-path="url(#p1d5453f4c2)" style="fill: #d62728; fill-opacity: 0.99; stroke: #d62728; stroke-opacity: 0.99"/>
    <path d="M 352.264291 111.474566 
C 359.527177 111.474566 366.493572 108.58899 371.629208 103.453354 
C 376.764844 98.317718 379.650419 91.351324 379.650419 84.088438 
C 379.650419 76.825552 376.764844 69.859157 371.629208 64.723521 
C 366.493572 59.587885 359.527177 56.70231 352.264291 56.70231 
C 345.001405 56.70231 338.03501 59.587885 332.899374 64.723521 
C 327.763739 69.859157 324.878163 76.825552 324.878163 84.088438 
C 324.878163 91.351324 327.763739 98.317718 332.899374 103.453354 
C 338.03501 108.58899 345.001405 111.474566 352.264291 111.474566 
z
" clip-path="url(#p1d5453f4c2)" style="fill: #d62728; fill-opacity: 0.99; stroke: #d62728; stroke-opacity: 0.99"/>
    <path d="M 263.109549 102.155359 
C 270.372435 102.155359 277.338829 99.269783 282.474465 94.134148 
C 287.610101 88.998512 290.495676 82.032117 290.495676 74.769231 
C 290.495676 67.506345 287.610101 60.53995 282.474465 55.404314 
C 277.338829 50.268678 270.372435 47.383103 263.109549 47.383103 
C 255.846663 47.383103 248.880268 50.268678 243.744632 55.404314 
C 238.608996 60.53995 235.723421 67.506345 235.723421 74.769231 
C 235.723421 82.032117 238.608996 88.998512 243.744632 94.134148 
C 248.880268 99.269783 255.846663 102.155359 263.109549 102.155359 
z
" clip-path="url(#p1d5453f4c2)" style="fill: #d62728; fill-opacity: 0.99; stroke: #d62728; stroke-opacity: 0.99"/>
    <path d="M 177.851298 129.705695 
C 185.114184 129.705695 192.080579 126.82012 197.216215 121.684484 
C 202.351851 116.548848 205.237426 109.582453 205.237426 102.319567 
C 205.237426 95.056681 202.351851 88.090286 197.216215 82.954651 
C 192.080579 77.819015 185.114184 74.933439 177.851298 74.933439 
C 170.588412 74.933439 163.622017 77.819015 158.486381 82.954651 
C 153.350745 88.090286 150.46517 95.056681 150.46517 102.319567 
C 150.46517 109.582453 153.350745 116.548848 158.486381 121.684484 
C 163.622017 126.82012 170.588412 129.705695 177.851298 129.705695 
z
" clip-path="url(#p1d5453f4c2)" style="fill: #d62728; fill-opacity: 0.99; stroke: #d62728; stroke-opacity: 0.99"/>
    <path d="M 111.231477 189.361857 
C 118.494363 189.361857 125.460758 186.476281 130.596394 181.340645 
C 135.73203 176.20501 138.617605 169.238615 138.617605 161.975729 
C 138.617605 154.712843 135.73203 147.746448 130.596394 142.610812 
C 125.460758 137.475176 118.494363 134.589601 111.231477 134.589601 
C 103.968591 134.589601 97.002196 137.475176 91.86656 142.610812 
C 86.730924 147.746448 83.845349 154.712843 83.845349 161.975729 
C 83.845349 169.238615 86.730924 176.20501 91.86656 181.340645 
C 97.002196 186.476281 103.968591 189.361857 111.231477 189.361857 
z
" clip-path="url(#p1d5453f4c2)" style="fill: #d62728; fill-opacity: 0.99; stroke: #d62728; stroke-opacity: 0.99"/>
    <path d="M 74.769231 270.808777 
C 82.032117 270.808777 88.998512 267.923202 94.134148 262.787566 
C 99.269783 257.65193 102.155359 250.685535 102.155359 243.422649 
C 102.155359 236.159763 99.269783 229.193368 94.134148 224.057732 
C 88.998512 218.922096 82.032117 216.036521 74.769231 216.036521 
C 67.506345 216.036521 60.53995 218.922096 55.404314 224.057732 
C 50.268678 229.193368 47.383103 236.159763 47.383103 243.422649 
C 47.383103 250.685535 50.268678 257.65193 55.404314 262.787566 
C 60.53995 267.923202 67.506345 270.808777 74.769231 270.808777 
z
" clip-path="url(#p1d5453f4c2)" style="fill: #d62728; fill-opacity: 0.99; stroke: #d62728; stroke-opacity: 0.99"/>
    <path d="M 74.769244 359.963517 
C 82.03213 359.963517 88.998524 357.077942 94.13416 351.942306 
C 99.269796 346.80667 102.155371 339.840275 102.155371 332.577389 
C 102.155371 325.314503 99.269796 318.348109 94.13416 313.212473 
C 88.998524 308.076837 82.03213 305.191262 74.769244 305.191262 
C 67.506358 305.191262 60.539963 308.076837 55.404327 313.212473 
C 50.268691 318.348109 47.383116 325.314503 47.383116 332.577389 
C 47.383116 339.840275 50.268691 346.80667 55.404327 351.942306 
C 60.539963 357.077942 67.506358 359.963517 74.769244 359.963517 
z
" clip-path="url(#p1d5453f4c2)" style="fill: #d62728; fill-opacity: 0.99; stroke: #d62728; stroke-opacity: 0.99"/>
    <path d="M 111.23149 441.410412 
C 118.494376 441.410412 125.460771 438.524837 130.596407 433.389201 
C 135.732043 428.253565 138.617618 421.28717 138.617618 414.024284 
C 138.617618 406.761398 135.732043 399.795003 130.596407 394.659367 
C 125.460771 389.523731 118.494376 386.638156 111.23149 386.638156 
C 103.968604 386.638156 97.002209 389.523731 91.866573 394.659367 
C 86.730937 399.795003 83.845362 406.761398 83.845362 414.024284 
C 83.845362 421.28717 86.730937 428.253565 91.866573 433.389201 
C 97.002209 438.524837 103.968604 441.410412 111.23149 441.410412 
z
" clip-path="url(#p1d5453f4c2)" style="fill: #d62728; fill-opacity: 0.99; stroke: #d62728; stroke-opacity: 0.99"/>
    <path d="M 177.85133 501.066573 
C 185.114216 501.066573 192.080611 498.180998 197.216247 493.045362 
C 202.351883 487.909726 205.237458 480.943332 205.237458 473.680446 
C 205.237458 466.41756 202.351883 459.451165 197.216247 454.315529 
C 192.080611 449.179893 185.114216 446.294318 177.85133 446.294318 
C 170.588444 446.294318 163.622049 449.179893 158.486413 454.315529 
C 153.350778 459.451165 150.465202 466.41756 150.465202 473.680446 
C 150.465202 480.943332 153.350778 487.909726 158.486413 493.045362 
C 163.622049 498.180998 170.588444 501.066573 177.85133 501.066573 
z
" clip-path="url(#p1d5453f4c2)" style="fill: #d62728; fill-opacity: 0.99; stroke: #d62728; stroke-opacity: 0.99"/>
    <path d="M 263.109587 528.616897 
C 270.372473 528.616897 277.338868 525.731322 282.474504 520.595686 
C 287.61014 515.46005 290.495715 508.493655 290.495715 501.230769 
C 290.495715 493.967883 287.61014 487.001488 282.474504 481.865852 
C 277.338868 476.730217 270.372473 473.844641 263.109587 473.844641 
C 255.846701 473.844641 248.880306 476.730217 243.74467 481.865852 
C 238.609034 487.001488 235.723459 493.967883 235.723459 501.230769 
C 235.723459 508.493655 238.609034 515.46005 243.74467 520.595686 
C 248.880306 525.731322 255.846701 528.616897 263.109587 528.616897 
z
" clip-path="url(#p1d5453f4c2)" style="fill: #d62728; fill-opacity: 0.99; stroke: #d62728; stroke-opacity: 0.99"/>
    <path d="M 352.264323 513.866626 
C 358.086878 513.866626 363.671739 511.553301 367.788907 507.436133 
C 371.906074 503.318965 374.2194 497.734104 374.2194 491.91155 
C 374.2194 486.088995 371.906074 480.504134 367.788907 476.386966 
C 363.671739 472.269798 358.086878 469.956473 352.264323 469.956473 
C 346.441769 469.956473 340.856908 472.269798 336.73974 476.386966 
C 332.622572 480.504134 330.309247 486.088995 330.309247 491.91155 
C 330.309247 497.734104 332.622572 503.318965 336.73974 507.436133 
C 340.856908 511.553301 346.441769 513.866626 352.264323 513.866626 
z
" clip-path="url(#p1d5453f4c2)" style="fill: #d62728; fill-opacity: 0.99; stroke: #d62728; stroke-opacity: 0.99"/>
    <path d="M 429.899888 466.699077 
C 435.035524 466.699077 439.961509 464.658667 443.592952 461.027224 
C 447.224395 457.395781 449.264805 452.469796 449.264805 447.33416 
C 449.264805 442.198524 447.224395 437.272539 443.592952 433.641096 
C 439.961509 430.009653 435.035524 427.969243 429.899888 427.969243 
C 424.764252 427.969243 419.838267 430.009653 416.206824 433.641096 
C 412.575381 437.272539 410.534972 442.198524 410.534972 447.33416 
C 410.534972 452.469796 412.575381 457.395781 416.206824 461.027224 
C 419.838267 464.658667 424.764252 466.699077 429.899888 466.699077 
z
" clip-path="url(#p1d5453f4c2)" style="fill: #d62728; fill-opacity: 0.99; stroke: #d62728; stroke-opacity: 0.99"/>
    <path d="M 482.592374 394.571376 
C 487.728009 394.571376 492.653994 392.530967 496.285437 388.899524 
C 499.91688 385.268081 501.95729 380.342096 501.95729 375.20646 
C 501.95729 370.070824 499.91688 365.144839 496.285437 361.513396 
C 492.653994 357.881953 487.728009 355.841543 482.592374 355.841543 
C 477.456738 355.841543 472.530753 357.881953 468.89931 361.513396 
C 465.267867 365.144839 463.227457 370.070824 463.227457 375.20646 
C 463.227457 380.342096 465.267867 385.268081 468.89931 388.899524 
C 472.530753 392.530967 477.456738 394.571376 482.592374 394.571376 
z
" clip-path="url(#p1d5453f4c2)" style="fill: #d62728; fill-opacity: 0.99; stroke: #d62728; stroke-opacity: 0.99"/>
   </g>
   <g id="text_1">
    <g id="patch_2">
     <path d="M 464.001004 296.315156 
L 538.460535 296.315156 
L 538.460535 279.684844 
L 464.001004 279.684844 
z
" clip-path="url(#p1d5453f4c2)" style="fill: #ffffff; opacity: 0.7; stroke: #000000; stroke-linejoin: miter"/>
    </g>
    <g clip-path="url(#p1d5453f4c2)">
     <!-- Michael Hogan -->
     <g transform="translate(467.961004 290.483437)scale(0.09 -0.09)">
      <defs>
       <path id="DejaVuSans-4d" d="M 628 4666 
L 1569 4666 
L 2759 1491 
L 3956 4666 
L 4897 4666 
L 4897 0 
L 4281 0 
L 4281 4097 
L 3078 897 
L 2444 897 
L 1241 4097 
L 1241 0 
L 628 0 
L 628 4666 
z
" transform="scale(0.015625)"/>
       <path id="DejaVuSans-69" d="M 603 3500 
L 1178 3500 
L 1178 0 
L 603 0 
L 603 3500 
z
M 603 4863 
L 1178 4863 
L 1178 4134 
L 603 4134 
L 603 4863 
z
" transform="scale(0.015625)"/>
       <path id="DejaVuSans-63" d="M 3122 3366 
L 3122 2828 
Q 2878 2963 2633 3030 
Q 2388 3097 2138 3097 
Q 1578 3097 1268 2742 
Q 959 2388 959 1747 
Q 959 1106 1268 751 
Q 1578 397 2138 397 
Q 2388 397 2633 464 
Q 2878 531 3122 666 
L 3122 134 
Q 2881 22 2623 -34 
Q 2366 -91 2075 -91 
Q 1284 -91 818 406 
Q 353 903 353 1747 
Q 353 2603 823 3093 
Q 1294 3584 2113 3584 
Q 2378 3584 2631 3529 
Q 2884 3475 3122 3366 
z
" transform="scale(0.015625)"/>
       <path id="DejaVuSans-68" d="M 3513 2113 
L 3513 0 
L 2938 0 
L 2938 2094 
Q 2938 2591 2744 2837 
Q 2550 3084 2163 3084 
Q 1697 3084 1428 2787 
Q 1159 2491 1159 1978 
L 1159 0 
L 581 0 
L 581 4863 
L 1159 4863 
L 1159 2956 
Q 1366 3272 1645 3428 
Q 1925 3584 2291 3584 
Q 2894 3584 3203 3211 
Q 3513 2838 3513 2113 
z
" transform="scale(0.015625)"/>
       <path id="DejaVuSans-61" d="M 2194 1759 
Q 1497 1759 1228 1600 
Q 959 1441 959 1056 
Q 959 750 1161 570 
Q 1363 391 1709 391 
Q 2188 391 2477 730 
Q 2766 1069 2766 1631 
L 2766 1759 
L 2194 1759 
z
M 3341 1997 
L 3341 0 
L 2766 0 
L 2766 531 
Q 2569 213 2275 61 
Q 1981 -91 1556 -91 
Q 1019 -91 701 211 
Q 384 513 384 1019 
Q 384 1609 779 1909 
Q 1175 2209 1959 2209 
L 2766 2209 
L 2766 2266 
Q 2766 2663 2505 2880 
Q 2244 3097 1772 3097 
Q 1472 3097 1187 3025 
Q 903 2953 641 2809 
L 641 3341 
Q 956 3463 1253 3523 
Q 1550 3584 1831 3584 
Q 2591 3584 2966 3190 
Q 3341 2797 3341 1997 
z
" transform="scale(0.015625)"/>
       <path id="DejaVuSans-65" d="M 3597 1894 
L 3597 1613 
L 953 1613 
Q 991 1019 1311 708 
Q 1631 397 2203 397 
Q 2534 397 2845 478 
Q 3156 559 3463 722 
L 3463 178 
Q 3153 47 2828 -22 
Q 2503 -91 2169 -91 
Q 1331 -91 842 396 
Q 353 884 353 1716 
Q 353 2575 817 3079 
Q 1281 3584 2069 3584 
Q 2775 3584 3186 3129 
Q 3597 2675 3597 1894 
z
M 3022 2063 
Q 3016 2534 2758 2815 
Q 2500 3097 2075 3097 
Q 1594 3097 1305 2825 
Q 1016 2553 972 2059 
L 3022 2063 
z
" transform="scale(0.015625)"/>
       <path id="DejaVuSans-6c" d="M 603 4863 
L 1178 4863 
L 1178 0 
L 603 0 
L 603 4863 
z
" transform="scale(0.015625)"/>
       <path id="DejaVuSans-20" transform="scale(0.015625)"/>
       <path id="DejaVuSans-48" d="M 628 4666 
L 1259 4666 
L 1259 2753 
L 3553 2753 
L 3553 4666 
L 4184 4666 
L 4184 0 
L 3553 0 
L 3553 2222 
L 1259 2222 
L 1259 0 
L 628 0 
L 628 4666 
z
" transform="scale(0.015625)"/>
       <path id="DejaVuSans-6f" d="M 1959 3097 
Q 1497 3097 1228 2736 
Q 959 2375 959 1747 
Q 959 1119 1226 758 
Q 1494 397 1959 397 
Q 2419 397 2687 759 
Q 2956 1122 2956 1747 
Q 2956 2369 2687 2733 
Q 2419 3097 1959 3097 
z
M 1959 3584 
Q 2709 3584 3137 3096 
Q 3566 2609 3566 1747 
Q 3566 888 3137 398 
Q 2709 -91 1959 -91 
Q 1206 -91 779 398 
Q 353 888 353 1747 
Q 353 2609 779 3096 
Q 1206 3584 1959 3584 
z
" transform="scale(0.015625)"/>
       <path id="DejaVuSans-67" d="M 2906 1791 
Q 2906 2416 2648 2759 
Q 2391 3103 1925 3103 
Q 1463 3103 1205 2759 
Q 947 2416 947 1791 
Q 947 1169 1205 825 
Q 1463 481 1925 481 
Q 2391 481 2648 825 
Q 2906 1169 2906 1791 
z
M 3481 434 
Q 3481 -459 3084 -895 
Q 2688 -1331 1869 -1331 
Q 1566 -1331 1297 -1286 
Q 1028 -1241 775 -1147 
L 775 -588 
Q 1028 -725 1275 -790 
Q 1522 -856 1778 -856 
Q 2344 -856 2625 -561 
Q 2906 -266 2906 331 
L 2906 616 
Q 2728 306 2450 153 
Q 2172 0 1784 0 
Q 1141 0 747 490 
Q 353 981 353 1791 
Q 353 2603 747 3093 
Q 1141 3584 1784 3584 
Q 2172 3584 2450 3431 
Q 2728 3278 2906 2969 
L 2906 3500 
L 3481 3500 
L 3481 434 
z
" transform="scale(0.015625)"/>
       <path id="DejaVuSans-6e" d="M 3513 2113 
L 3513 0 
L 2938 0 
L 2938 2094 
Q 2938 2591 2744 2837 
Q 2550 3084 2163 3084 
Q 1697 3084 1428 2787 
Q 1159 2491 1159 1978 
L 1159 0 
L 581 0 
L 581 3500 
L 1159 3500 
L 1159 2956 
Q 1366 3272 1645 3428 
Q 1925 3584 2291 3584 
Q 2894 3584 3203 3211 
Q 3513 2838 3513 2113 
z
" transform="scale(0.015625)"/>
      </defs>
      <use xlink:href="#DejaVuSans-4d"/>
      <use xlink:href="#DejaVuSans-69" x="86.279297"/>
      <use xlink:href="#DejaVuSans-63" x="114.0625"/>
      <use xlink:href="#DejaVuSans-68" x="169.042969"/>
      <use xlink:href="#DejaVuSans-61" x="232.421875"/>
      <use xlink:href="#DejaVuSans-65" x="293.701172"/>
      <use xlink:href="#DejaVuSans-6c" x="355.224609"/>
      <use xlink:href="#DejaVuSans-20" x="383.007812"/>
      <use xlink:href="#DejaVuSans-48" x="414.794922"/>
      <use xlink:href="#DejaVuSans-6f" x="489.990234"/>
      <use xlink:href="#DejaVuSans-67" x="551.171875"/>
      <use xlink:href="#DejaVuSans-61" x="614.648438"/>
      <use xlink:href="#DejaVuSans-6e" x="675.927734"/>
     </g>
    </g>
   </g>
   <g id="text_2">
    <g id="patch_3">
     <path d="M 448.317817 209.108665 
L 516.866879 209.108665 
L 516.866879 192.478352 
L 448.317817 192.478352 
z
" clip-path="url(#p1d5453f4c2)" style="fill: #ffffff; opacity: 0.7; stroke: #000000; stroke-linejoin: miter"/>
    </g>
    <g clip-path="url(#p1d5453f4c2)">
     <!-- Louis Ferreira -->
     <g transform="translate(452.277817 203.276946)scale(0.09 -0.09)">
      <defs>
       <path id="DejaVuSans-4c" d="M 628 4666 
L 1259 4666 
L 1259 531 
L 3531 531 
L 3531 0 
L 628 0 
L 628 4666 
z
" transform="scale(0.015625)"/>
       <path id="DejaVuSans-75" d="M 544 1381 
L 544 3500 
L 1119 3500 
L 1119 1403 
Q 1119 906 1312 657 
Q 1506 409 1894 409 
Q 2359 409 2629 706 
Q 2900 1003 2900 1516 
L 2900 3500 
L 3475 3500 
L 3475 0 
L 2900 0 
L 2900 538 
Q 2691 219 2414 64 
Q 2138 -91 1772 -91 
Q 1169 -91 856 284 
Q 544 659 544 1381 
z
M 1991 3584 
L 1991 3584 
z
" transform="scale(0.015625)"/>
       <path id="DejaVuSans-73" d="M 2834 3397 
L 2834 2853 
Q 2591 2978 2328 3040 
Q 2066 3103 1784 3103 
Q 1356 3103 1142 2972 
Q 928 2841 928 2578 
Q 928 2378 1081 2264 
Q 1234 2150 1697 2047 
L 1894 2003 
Q 2506 1872 2764 1633 
Q 3022 1394 3022 966 
Q 3022 478 2636 193 
Q 2250 -91 1575 -91 
Q 1294 -91 989 -36 
Q 684 19 347 128 
L 347 722 
Q 666 556 975 473 
Q 1284 391 1588 391 
Q 1994 391 2212 530 
Q 2431 669 2431 922 
Q 2431 1156 2273 1281 
Q 2116 1406 1581 1522 
L 1381 1569 
Q 847 1681 609 1914 
Q 372 2147 372 2553 
Q 372 3047 722 3315 
Q 1072 3584 1716 3584 
Q 2034 3584 2315 3537 
Q 2597 3491 2834 3397 
z
" transform="scale(0.015625)"/>
       <path id="DejaVuSans-46" d="M 628 4666 
L 3309 4666 
L 3309 4134 
L 1259 4134 
L 1259 2759 
L 3109 2759 
L 3109 2228 
L 1259 2228 
L 1259 0 
L 628 0 
L 628 4666 
z
" transform="scale(0.015625)"/>
       <path id="DejaVuSans-72" d="M 2631 2963 
Q 2534 3019 2420 3045 
Q 2306 3072 2169 3072 
Q 1681 3072 1420 2755 
Q 1159 2438 1159 1844 
L 1159 0 
L 581 0 
L 581 3500 
L 1159 3500 
L 1159 2956 
Q 1341 3275 1631 3429 
Q 1922 3584 2338 3584 
Q 2397 3584 2469 3576 
Q 2541 3569 2628 3553 
L 2631 2963 
z
" transform="scale(0.015625)"/>
      </defs>
      <use xlink:href="#DejaVuSans-4c"/>
      <use xlink:href="#DejaVuSans-6f" x="53.962891"/>
      <use xlink:href="#DejaVuSans-75" x="115.144531"/>
      <use xlink:href="#DejaVuSans-69" x="178.523438"/>
      <use xlink:href="#DejaVuSans-73" x="206.306641"/>
      <use xlink:href="#DejaVuSans-20" x="258.40625"/>
      <use xlink:href="#DejaVuSans-46" x="290.193359"/>
      <use xlink:href="#DejaVuSans-65" x="342.212891"/>
      <use xlink:href="#DejaVuSans-72" x="403.736328"/>
      <use xlink:href="#DejaVuSans-72" x="443.099609"/>
      <use xlink:href="#DejaVuSans-65" x="481.962891"/>
      <use xlink:href="#DejaVuSans-69" x="543.486328"/>
      <use xlink:href="#DejaVuSans-72" x="571.269531"/>
      <use xlink:href="#DejaVuSans-61" x="612.382812"/>
     </g>
    </g>
   </g>
   <g id="text_3">
    <g id="patch_4">
     <path d="M 386.01149 136.980958 
L 473.788209 136.980958 
L 473.788209 120.350645 
L 386.01149 120.350645 
z
" clip-path="url(#p1d5453f4c2)" style="fill: #ffffff; opacity: 0.7; stroke: #000000; stroke-linejoin: miter"/>
    </g>
    <g clip-path="url(#p1d5453f4c2)">
     <!-- Lubomir Mykytiuk -->
     <g transform="translate(389.97149 131.149239)scale(0.09 -0.09)">
      <defs>
       <path id="DejaVuSans-62" d="M 3116 1747 
Q 3116 2381 2855 2742 
Q 2594 3103 2138 3103 
Q 1681 3103 1420 2742 
Q 1159 2381 1159 1747 
Q 1159 1113 1420 752 
Q 1681 391 2138 391 
Q 2594 391 2855 752 
Q 3116 1113 3116 1747 
z
M 1159 2969 
Q 1341 3281 1617 3432 
Q 1894 3584 2278 3584 
Q 2916 3584 3314 3078 
Q 3713 2572 3713 1747 
Q 3713 922 3314 415 
Q 2916 -91 2278 -91 
Q 1894 -91 1617 61 
Q 1341 213 1159 525 
L 1159 0 
L 581 0 
L 581 4863 
L 1159 4863 
L 1159 2969 
z
" transform="scale(0.015625)"/>
       <path id="DejaVuSans-6d" d="M 3328 2828 
Q 3544 3216 3844 3400 
Q 4144 3584 4550 3584 
Q 5097 3584 5394 3201 
Q 5691 2819 5691 2113 
L 5691 0 
L 5113 0 
L 5113 2094 
Q 5113 2597 4934 2840 
Q 4756 3084 4391 3084 
Q 3944 3084 3684 2787 
Q 3425 2491 3425 1978 
L 3425 0 
L 2847 0 
L 2847 2094 
Q 2847 2600 2669 2842 
Q 2491 3084 2119 3084 
Q 1678 3084 1418 2786 
Q 1159 2488 1159 1978 
L 1159 0 
L 581 0 
L 581 3500 
L 1159 3500 
L 1159 2956 
Q 1356 3278 1631 3431 
Q 1906 3584 2284 3584 
Q 2666 3584 2933 3390 
Q 3200 3197 3328 2828 
z
" transform="scale(0.015625)"/>
       <path id="DejaVuSans-79" d="M 2059 -325 
Q 1816 -950 1584 -1140 
Q 1353 -1331 966 -1331 
L 506 -1331 
L 506 -850 
L 844 -850 
Q 1081 -850 1212 -737 
Q 1344 -625 1503 -206 
L 1606 56 
L 191 3500 
L 800 3500 
L 1894 763 
L 2988 3500 
L 3597 3500 
L 2059 -325 
z
" transform="scale(0.015625)"/>
       <path id="DejaVuSans-6b" d="M 581 4863 
L 1159 4863 
L 1159 1991 
L 2875 3500 
L 3609 3500 
L 1753 1863 
L 3688 0 
L 2938 0 
L 1159 1709 
L 1159 0 
L 581 0 
L 581 4863 
z
" transform="scale(0.015625)"/>
       <path id="DejaVuSans-74" d="M 1172 4494 
L 1172 3500 
L 2356 3500 
L 2356 3053 
L 1172 3053 
L 1172 1153 
Q 1172 725 1289 603 
Q 1406 481 1766 481 
L 2356 481 
L 2356 0 
L 1766 0 
Q 1100 0 847 248 
Q 594 497 594 1153 
L 594 3053 
L 172 3053 
L 172 3500 
L 594 3500 
L 594 4494 
L 1172 4494 
z
" transform="scale(0.015625)"/>
      </defs>
      <use xlink:href="#DejaVuSans-4c"/>
      <use xlink:href="#DejaVuSans-75" x="53.962891"/>
      <use xlink:href="#DejaVuSans-62" x="117.341797"/>
      <use xlink:href="#DejaVuSans-6f" x="180.818359"/>
      <use xlink:href="#DejaVuSans-6d" x="242"/>
      <use xlink:href="#DejaVuSans-69" x="339.412109"/>
      <use xlink:href="#DejaVuSans-72" x="367.195312"/>
      <use xlink:href="#DejaVuSans-20" x="408.308594"/>
      <use xlink:href="#DejaVuSans-4d" x="440.095703"/>
      <use xlink:href="#DejaVuSans-79" x="526.375"/>
      <use xlink:href="#DejaVuSans-6b" x="585.554688"/>
      <use xlink:href="#DejaVuSans-79" x="639.839844"/>
      <use xlink:href="#DejaVuSans-74" x="699.019531"/>
      <use xlink:href="#DejaVuSans-69" x="738.228516"/>
      <use xlink:href="#DejaVuSans-75" x="766.011719"/>
      <use xlink:href="#DejaVuSans-6b" x="829.390625"/>
     </g>
    </g>
   </g>
   <g id="text_4">
    <g id="patch_5">
     <path d="M 319.24976 92.403594 
L 385.278822 92.403594 
L 385.278822 75.773281 
L 319.24976 75.773281 
z
" clip-path="url(#p1d5453f4c2)" style="fill: #ffffff; opacity: 0.7; stroke: #000000; stroke-linejoin: miter"/>
    </g>
    <g clip-path="url(#p1d5453f4c2)">
     <!-- Joshua Satok -->
     <g transform="translate(323.20976 86.571875)scale(0.09 -0.09)">
      <defs>
       <path id="DejaVuSans-4a" d="M 628 4666 
L 1259 4666 
L 1259 325 
Q 1259 -519 939 -900 
Q 619 -1281 -91 -1281 
L -331 -1281 
L -331 -750 
L -134 -750 
Q 284 -750 456 -515 
Q 628 -281 628 325 
L 628 4666 
z
" transform="scale(0.015625)"/>
       <path id="DejaVuSans-53" d="M 3425 4513 
L 3425 3897 
Q 3066 4069 2747 4153 
Q 2428 4238 2131 4238 
Q 1616 4238 1336 4038 
Q 1056 3838 1056 3469 
Q 1056 3159 1242 3001 
Q 1428 2844 1947 2747 
L 2328 2669 
Q 3034 2534 3370 2195 
Q 3706 1856 3706 1288 
Q 3706 609 3251 259 
Q 2797 -91 1919 -91 
Q 1588 -91 1214 -16 
Q 841 59 441 206 
L 441 856 
Q 825 641 1194 531 
Q 1563 422 1919 422 
Q 2459 422 2753 634 
Q 3047 847 3047 1241 
Q 3047 1584 2836 1778 
Q 2625 1972 2144 2069 
L 1759 2144 
Q 1053 2284 737 2584 
Q 422 2884 422 3419 
Q 422 4038 858 4394 
Q 1294 4750 2059 4750 
Q 2388 4750 2728 4690 
Q 3069 4631 3425 4513 
z
" transform="scale(0.015625)"/>
      </defs>
      <use xlink:href="#DejaVuSans-4a"/>
      <use xlink:href="#DejaVuSans-6f" x="29.492188"/>
      <use xlink:href="#DejaVuSans-73" x="90.673828"/>
      <use xlink:href="#DejaVuSans-68" x="142.773438"/>
      <use xlink:href="#DejaVuSans-75" x="206.152344"/>
      <use xlink:href="#DejaVuSans-61" x="269.53125"/>
      <use xlink:href="#DejaVuSans-20" x="330.810547"/>
      <use xlink:href="#DejaVuSans-53" x="362.597656"/>
      <use xlink:href="#DejaVuSans-61" x="426.074219"/>
      <use xlink:href="#DejaVuSans-74" x="487.353516"/>
      <use xlink:href="#DejaVuSans-6f" x="526.5625"/>
      <use xlink:href="#DejaVuSans-6b" x="587.744141"/>
     </g>
    </g>
   </g>
   <g id="text_5">
    <g id="patch_6">
     <path d="M 235.840252 83.084387 
L 290.378845 83.084387 
L 290.378845 66.454075 
L 235.840252 66.454075 
z
" clip-path="url(#p1d5453f4c2)" style="fill: #ffffff; opacity: 0.7; stroke: #000000; stroke-linejoin: miter"/>
    </g>
    <g clip-path="url(#p1d5453f4c2)">
     <!-- Soo Garay -->
     <g transform="translate(239.800252 77.252668)scale(0.09 -0.09)">
      <defs>
       <path id="DejaVuSans-47" d="M 3809 666 
L 3809 1919 
L 2778 1919 
L 2778 2438 
L 4434 2438 
L 4434 434 
Q 4069 175 3628 42 
Q 3188 -91 2688 -91 
Q 1594 -91 976 548 
Q 359 1188 359 2328 
Q 359 3472 976 4111 
Q 1594 4750 2688 4750 
Q 3144 4750 3555 4637 
Q 3966 4525 4313 4306 
L 4313 3634 
Q 3963 3931 3569 4081 
Q 3175 4231 2741 4231 
Q 1884 4231 1454 3753 
Q 1025 3275 1025 2328 
Q 1025 1384 1454 906 
Q 1884 428 2741 428 
Q 3075 428 3337 486 
Q 3600 544 3809 666 
z
" transform="scale(0.015625)"/>
      </defs>
      <use xlink:href="#DejaVuSans-53"/>
      <use xlink:href="#DejaVuSans-6f" x="63.476562"/>
      <use xlink:href="#DejaVuSans-6f" x="124.658203"/>
      <use xlink:href="#DejaVuSans-20" x="185.839844"/>
      <use xlink:href="#DejaVuSans-47" x="217.626953"/>
      <use xlink:href="#DejaVuSans-61" x="295.117188"/>
      <use xlink:href="#DejaVuSans-72" x="356.396484"/>
      <use xlink:href="#DejaVuSans-61" x="397.509766"/>
      <use xlink:href="#DejaVuSans-79" x="458.789062"/>
     </g>
    </g>
   </g>
   <g id="text_6">
    <g id="patch_7">
     <path d="M 133.54247 110.634724 
L 222.160126 110.634724 
L 222.160126 94.004411 
L 133.54247 94.004411 
z
" clip-path="url(#p1d5453f4c2)" style="fill: #ffffff; opacity: 0.7; stroke: #000000; stroke-linejoin: miter"/>
    </g>
    <g clip-path="url(#p1d5453f4c2)">
     <!-- Peter Outerbridge -->
     <g transform="translate(137.50247 104.803005)scale(0.09 -0.09)">
      <defs>
       <path id="DejaVuSans-50" d="M 1259 4147 
L 1259 2394 
L 2053 2394 
Q 2494 2394 2734 2622 
Q 2975 2850 2975 3272 
Q 2975 3691 2734 3919 
Q 2494 4147 2053 4147 
L 1259 4147 
z
M 628 4666 
L 2053 4666 
Q 2838 4666 3239 4311 
Q 3641 3956 3641 3272 
Q 3641 2581 3239 2228 
Q 2838 1875 2053 1875 
L 1259 1875 
L 1259 0 
L 628 0 
L 628 4666 
z
" transform="scale(0.015625)"/>
       <path id="DejaVuSans-4f" d="M 2522 4238 
Q 1834 4238 1429 3725 
Q 1025 3213 1025 2328 
Q 1025 1447 1429 934 
Q 1834 422 2522 422 
Q 3209 422 3611 934 
Q 4013 1447 4013 2328 
Q 4013 3213 3611 3725 
Q 3209 4238 2522 4238 
z
M 2522 4750 
Q 3503 4750 4090 4092 
Q 4678 3434 4678 2328 
Q 4678 1225 4090 567 
Q 3503 -91 2522 -91 
Q 1538 -91 948 565 
Q 359 1222 359 2328 
Q 359 3434 948 4092 
Q 1538 4750 2522 4750 
z
" transform="scale(0.015625)"/>
       <path id="DejaVuSans-64" d="M 2906 2969 
L 2906 4863 
L 3481 4863 
L 3481 0 
L 2906 0 
L 2906 525 
Q 2725 213 2448 61 
Q 2172 -91 1784 -91 
Q 1150 -91 751 415 
Q 353 922 353 1747 
Q 353 2572 751 3078 
Q 1150 3584 1784 3584 
Q 2172 3584 2448 3432 
Q 2725 3281 2906 2969 
z
M 947 1747 
Q 947 1113 1208 752 
Q 1469 391 1925 391 
Q 2381 391 2643 752 
Q 2906 1113 2906 1747 
Q 2906 2381 2643 2742 
Q 2381 3103 1925 3103 
Q 1469 3103 1208 2742 
Q 947 2381 947 1747 
z
" transform="scale(0.015625)"/>
      </defs>
      <use xlink:href="#DejaVuSans-50"/>
      <use xlink:href="#DejaVuSans-65" x="56.677734"/>
      <use xlink:href="#DejaVuSans-74" x="118.201172"/>
      <use xlink:href="#DejaVuSans-65" x="157.410156"/>
      <use xlink:href="#DejaVuSans-72" x="218.933594"/>
      <use xlink:href="#DejaVuSans-20" x="260.046875"/>
      <use xlink:href="#DejaVuSans-4f" x="291.833984"/>
      <use xlink:href="#DejaVuSans-75" x="370.544922"/>
      <use xlink:href="#DejaVuSans-74" x="433.923828"/>
      <use xlink:href="#DejaVuSans-65" x="473.132812"/>
      <use xlink:href="#DejaVuSans-72" x="534.65625"/>
      <use xlink:href="#DejaVuSans-62" x="575.769531"/>
      <use xlink:href="#DejaVuSans-72" x="639.246094"/>
      <use xlink:href="#DejaVuSans-69" x="680.359375"/>
      <use xlink:href="#DejaVuSans-64" x="708.142578"/>
      <use xlink:href="#DejaVuSans-67" x="771.619141"/>
      <use xlink:href="#DejaVuSans-65" x="835.095703"/>
     </g>
    </g>
   </g>
   <g id="text_7">
    <g id="patch_8">
     <path d="M 68.857649 170.290885 
L 153.605305 170.290885 
L 153.605305 153.660572 
L 68.857649 153.660572 
z
" clip-path="url(#p1d5453f4c2)" style="fill: #ffffff; opacity: 0.7; stroke: #000000; stroke-linejoin: miter"/>
    </g>
    <g clip-path="url(#p1d5453f4c2)">
     <!-- Cynthia Eastman -->
     <g transform="translate(72.817649 164.459166)scale(0.09 -0.09)">
      <defs>
       <path id="DejaVuSans-43" d="M 4122 4306 
L 4122 3641 
Q 3803 3938 3442 4084 
Q 3081 4231 2675 4231 
Q 1875 4231 1450 3742 
Q 1025 3253 1025 2328 
Q 1025 1406 1450 917 
Q 1875 428 2675 428 
Q 3081 428 3442 575 
Q 3803 722 4122 1019 
L 4122 359 
Q 3791 134 3420 21 
Q 3050 -91 2638 -91 
Q 1578 -91 968 557 
Q 359 1206 359 2328 
Q 359 3453 968 4101 
Q 1578 4750 2638 4750 
Q 3056 4750 3426 4639 
Q 3797 4528 4122 4306 
z
" transform="scale(0.015625)"/>
       <path id="DejaVuSans-45" d="M 628 4666 
L 3578 4666 
L 3578 4134 
L 1259 4134 
L 1259 2753 
L 3481 2753 
L 3481 2222 
L 1259 2222 
L 1259 531 
L 3634 531 
L 3634 0 
L 628 0 
L 628 4666 
z
" transform="scale(0.015625)"/>
      </defs>
      <use xlink:href="#DejaVuSans-43"/>
      <use xlink:href="#DejaVuSans-79" x="69.824219"/>
      <use xlink:href="#DejaVuSans-6e" x="129.003906"/>
      <use xlink:href="#DejaVuSans-74" x="192.382812"/>
      <use xlink:href="#DejaVuSans-68" x="231.591797"/>
      <use xlink:href="#DejaVuSans-69" x="294.970703"/>
      <use xlink:href="#DejaVuSans-61" x="322.753906"/>
      <use xlink:href="#DejaVuSans-20" x="384.033203"/>
      <use xlink:href="#DejaVuSans-45" x="415.820312"/>
      <use xlink:href="#DejaVuSans-61" x="479.003906"/>
      <use xlink:href="#DejaVuSans-73" x="540.283203"/>
      <use xlink:href="#DejaVuSans-74" x="592.382812"/>
      <use xlink:href="#DejaVuSans-6d" x="631.591797"/>
      <use xlink:href="#DejaVuSans-61" x="729.003906"/>
      <use xlink:href="#DejaVuSans-6e" x="790.283203"/>
     </g>
    </g>
   </g>
   <g id="text_8">
    <g id="patch_9">
     <path d="M 38.707356 251.737805 
L 110.831106 251.737805 
L 110.831106 235.107493 
L 38.707356 235.107493 
z
" clip-path="url(#p1d5453f4c2)" style="fill: #ffffff; opacity: 0.7; stroke: #000000; stroke-linejoin: miter"/>
    </g>
    <g clip-path="url(#p1d5453f4c2)">
     <!-- Amos Crawley -->
     <g transform="translate(42.667356 245.906086)scale(0.09 -0.09)">
      <defs>
       <path id="DejaVuSans-41" d="M 2188 4044 
L 1331 1722 
L 3047 1722 
L 2188 4044 
z
M 1831 4666 
L 2547 4666 
L 4325 0 
L 3669 0 
L 3244 1197 
L 1141 1197 
L 716 0 
L 50 0 
L 1831 4666 
z
" transform="scale(0.015625)"/>
       <path id="DejaVuSans-77" d="M 269 3500 
L 844 3500 
L 1563 769 
L 2278 3500 
L 2956 3500 
L 3675 769 
L 4391 3500 
L 4966 3500 
L 4050 0 
L 3372 0 
L 2619 2869 
L 1863 0 
L 1184 0 
L 269 3500 
z
" transform="scale(0.015625)"/>
      </defs>
      <use xlink:href="#DejaVuSans-41"/>
      <use xlink:href="#DejaVuSans-6d" x="68.408203"/>
      <use xlink:href="#DejaVuSans-6f" x="165.820312"/>
      <use xlink:href="#DejaVuSans-73" x="227.001953"/>
      <use xlink:href="#DejaVuSans-20" x="279.101562"/>
      <use xlink:href="#DejaVuSans-43" x="310.888672"/>
      <use xlink:href="#DejaVuSans-72" x="380.712891"/>
      <use xlink:href="#DejaVuSans-61" x="421.826172"/>
      <use xlink:href="#DejaVuSans-77" x="483.105469"/>
      <use xlink:href="#DejaVuSans-6c" x="564.892578"/>
      <use xlink:href="#DejaVuSans-65" x="592.675781"/>
      <use xlink:href="#DejaVuSans-79" x="654.199219"/>
     </g>
    </g>
   </g>
   <g id="text_9">
    <g id="patch_10">
     <path d="M 37.707525 340.892546 
L 111.830962 340.892546 
L 111.830962 324.262233 
L 37.707525 324.262233 
z
" clip-path="url(#p1d5453f4c2)" style="fill: #ffffff; opacity: 0.7; stroke: #000000; stroke-linejoin: miter"/>
    </g>
    <g clip-path="url(#p1d5453f4c2)">
     <!-- Charmion King -->
     <g transform="translate(41.667525 335.060827)scale(0.09 -0.09)">
      <defs>
       <path id="DejaVuSans-4b" d="M 628 4666 
L 1259 4666 
L 1259 2694 
L 3353 4666 
L 4166 4666 
L 1850 2491 
L 4331 0 
L 3500 0 
L 1259 2247 
L 1259 0 
L 628 0 
L 628 4666 
z
" transform="scale(0.015625)"/>
      </defs>
      <use xlink:href="#DejaVuSans-43"/>
      <use xlink:href="#DejaVuSans-68" x="69.824219"/>
      <use xlink:href="#DejaVuSans-61" x="133.203125"/>
      <use xlink:href="#DejaVuSans-72" x="194.482422"/>
      <use xlink:href="#DejaVuSans-6d" x="233.845703"/>
      <use xlink:href="#DejaVuSans-69" x="331.257812"/>
      <use xlink:href="#DejaVuSans-6f" x="359.041016"/>
      <use xlink:href="#DejaVuSans-6e" x="420.222656"/>
      <use xlink:href="#DejaVuSans-20" x="483.601562"/>
      <use xlink:href="#DejaVuSans-4b" x="515.388672"/>
      <use xlink:href="#DejaVuSans-69" x="580.964844"/>
      <use xlink:href="#DejaVuSans-6e" x="608.748047"/>
      <use xlink:href="#DejaVuSans-67" x="672.126953"/>
     </g>
    </g>
   </g>
   <g id="text_10">
    <g id="patch_11">
     <path d="M 82.989771 422.33944 
L 139.473209 422.33944 
L 139.473209 405.709128 
L 82.989771 405.709128 
z
" clip-path="url(#p1d5453f4c2)" style="fill: #ffffff; opacity: 0.7; stroke: #000000; stroke-linejoin: miter"/>
    </g>
    <g clip-path="url(#p1d5453f4c2)">
     <!-- Will Lyman -->
     <g transform="translate(86.949771 416.507722)scale(0.09 -0.09)">
      <defs>
       <path id="DejaVuSans-57" d="M 213 4666 
L 850 4666 
L 1831 722 
L 2809 4666 
L 3519 4666 
L 4500 722 
L 5478 4666 
L 6119 4666 
L 4947 0 
L 4153 0 
L 3169 4050 
L 2175 0 
L 1381 0 
L 213 4666 
z
" transform="scale(0.015625)"/>
      </defs>
      <use xlink:href="#DejaVuSans-57"/>
      <use xlink:href="#DejaVuSans-69" x="96.626953"/>
      <use xlink:href="#DejaVuSans-6c" x="124.410156"/>
      <use xlink:href="#DejaVuSans-6c" x="152.193359"/>
      <use xlink:href="#DejaVuSans-20" x="179.976562"/>
      <use xlink:href="#DejaVuSans-4c" x="211.763672"/>
      <use xlink:href="#DejaVuSans-79" x="258.351562"/>
      <use xlink:href="#DejaVuSans-6d" x="317.53125"/>
      <use xlink:href="#DejaVuSans-61" x="414.943359"/>
      <use xlink:href="#DejaVuSans-6e" x="476.222656"/>
     </g>
    </g>
   </g>
   <g id="text_11">
    <g id="patch_12">
     <path d="M 143.541643 481.995602 
L 212.161018 481.995602 
L 212.161018 465.365289 
L 143.541643 465.365289 
z
" clip-path="url(#p1d5453f4c2)" style="fill: #ffffff; opacity: 0.7; stroke: #000000; stroke-linejoin: miter"/>
    </g>
    <g clip-path="url(#p1d5453f4c2)">
     <!-- Nancy Beatty -->
     <g transform="translate(147.501643 476.163883)scale(0.09 -0.09)">
      <defs>
       <path id="DejaVuSans-4e" d="M 628 4666 
L 1478 4666 
L 3547 763 
L 3547 4666 
L 4159 4666 
L 4159 0 
L 3309 0 
L 1241 3903 
L 1241 0 
L 628 0 
L 628 4666 
z
" transform="scale(0.015625)"/>
       <path id="DejaVuSans-42" d="M 1259 2228 
L 1259 519 
L 2272 519 
Q 2781 519 3026 730 
Q 3272 941 3272 1375 
Q 3272 1813 3026 2020 
Q 2781 2228 2272 2228 
L 1259 2228 
z
M 1259 4147 
L 1259 2741 
L 2194 2741 
Q 2656 2741 2882 2914 
Q 3109 3088 3109 3444 
Q 3109 3797 2882 3972 
Q 2656 4147 2194 4147 
L 1259 4147 
z
M 628 4666 
L 2241 4666 
Q 2963 4666 3353 4366 
Q 3744 4066 3744 3513 
Q 3744 3084 3544 2831 
Q 3344 2578 2956 2516 
Q 3422 2416 3680 2098 
Q 3938 1781 3938 1306 
Q 3938 681 3513 340 
Q 3088 0 2303 0 
L 628 0 
L 628 4666 
z
" transform="scale(0.015625)"/>
      </defs>
      <use xlink:href="#DejaVuSans-4e"/>
      <use xlink:href="#DejaVuSans-61" x="74.804688"/>
      <use xlink:href="#DejaVuSans-6e" x="136.083984"/>
      <use xlink:href="#DejaVuSans-63" x="199.462891"/>
      <use xlink:href="#DejaVuSans-79" x="254.443359"/>
      <use xlink:href="#DejaVuSans-20" x="313.623047"/>
      <use xlink:href="#DejaVuSans-42" x="345.410156"/>
      <use xlink:href="#DejaVuSans-65" x="414.013672"/>
      <use xlink:href="#DejaVuSans-61" x="475.537109"/>
      <use xlink:href="#DejaVuSans-74" x="536.816406"/>
      <use xlink:href="#DejaVuSans-74" x="576.025391"/>
      <use xlink:href="#DejaVuSans-79" x="615.234375"/>
     </g>
    </g>
   </g>
   <g id="text_12">
    <g id="patch_13">
     <path d="M 229.458728 509.545925 
L 296.760447 509.545925 
L 296.760447 492.915613 
L 229.458728 492.915613 
z
" clip-path="url(#p1d5453f4c2)" style="fill: #ffffff; opacity: 0.7; stroke: #000000; stroke-linejoin: miter"/>
    </g>
    <g clip-path="url(#p1d5453f4c2)">
     <!-- Damir Andrei -->
     <g transform="translate(233.418728 503.714207)scale(0.09 -0.09)">
      <defs>
       <path id="DejaVuSans-44" d="M 1259 4147 
L 1259 519 
L 2022 519 
Q 2988 519 3436 956 
Q 3884 1394 3884 2338 
Q 3884 3275 3436 3711 
Q 2988 4147 2022 4147 
L 1259 4147 
z
M 628 4666 
L 1925 4666 
Q 3281 4666 3915 4102 
Q 4550 3538 4550 2338 
Q 4550 1131 3912 565 
Q 3275 0 1925 0 
L 628 0 
L 628 4666 
z
" transform="scale(0.015625)"/>
      </defs>
      <use xlink:href="#DejaVuSans-44"/>
      <use xlink:href="#DejaVuSans-61" x="77.001953"/>
      <use xlink:href="#DejaVuSans-6d" x="138.28125"/>
      <use xlink:href="#DejaVuSans-69" x="235.693359"/>
      <use xlink:href="#DejaVuSans-72" x="263.476562"/>
      <use xlink:href="#DejaVuSans-20" x="304.589844"/>
      <use xlink:href="#DejaVuSans-41" x="336.376953"/>
      <use xlink:href="#DejaVuSans-6e" x="404.785156"/>
      <use xlink:href="#DejaVuSans-64" x="468.164062"/>
      <use xlink:href="#DejaVuSans-72" x="531.640625"/>
      <use xlink:href="#DejaVuSans-65" x="570.503906"/>
      <use xlink:href="#DejaVuSans-69" x="632.027344"/>
     </g>
    </g>
   </g>
   <g id="text_13">
    <g id="patch_14">
     <path d="M 319.703308 500.226706 
L 384.825339 500.226706 
L 384.825339 483.596393 
L 319.703308 483.596393 
z
" clip-path="url(#p1d5453f4c2)" style="fill: #ffffff; opacity: 0.7; stroke: #000000; stroke-linejoin: miter"/>
    </g>
    <g clip-path="url(#p1d5453f4c2)">
     <!-- Matthew Fox -->
     <g transform="translate(323.663308 494.394987)scale(0.09 -0.09)">
      <defs>
       <path id="DejaVuSans-78" d="M 3513 3500 
L 2247 1797 
L 3578 0 
L 2900 0 
L 1881 1375 
L 863 0 
L 184 0 
L 1544 1831 
L 300 3500 
L 978 3500 
L 1906 2253 
L 2834 3500 
L 3513 3500 
z
" transform="scale(0.015625)"/>
      </defs>
      <use xlink:href="#DejaVuSans-4d"/>
      <use xlink:href="#DejaVuSans-61" x="86.279297"/>
      <use xlink:href="#DejaVuSans-74" x="147.558594"/>
      <use xlink:href="#DejaVuSans-74" x="186.767578"/>
      <use xlink:href="#DejaVuSans-68" x="225.976562"/>
      <use xlink:href="#DejaVuSans-65" x="289.355469"/>
      <use xlink:href="#DejaVuSans-77" x="350.878906"/>
      <use xlink:href="#DejaVuSans-20" x="432.666016"/>
      <use xlink:href="#DejaVuSans-46" x="464.453125"/>
      <use xlink:href="#DejaVuSans-6f" x="518.347656"/>
      <use xlink:href="#DejaVuSans-78" x="576.404297"/>
     </g>
    </g>
   </g>
   <g id="text_14">
    <g id="patch_15">
     <path d="M 373.185123 455.649316 
L 486.614654 455.649316 
L 486.614654 439.019004 
L 373.185123 439.019004 
z
" clip-path="url(#p1d5453f4c2)" style="fill: #ffffff; opacity: 0.7; stroke: #000000; stroke-linejoin: miter"/>
    </g>
    <g clip-path="url(#p1d5453f4c2)">
     <!-- Matthew McConaughey -->
     <g transform="translate(377.145123 449.817598)scale(0.09 -0.09)">
      <use xlink:href="#DejaVuSans-4d"/>
      <use xlink:href="#DejaVuSans-61" x="86.279297"/>
      <use xlink:href="#DejaVuSans-74" x="147.558594"/>
      <use xlink:href="#DejaVuSans-74" x="186.767578"/>
      <use xlink:href="#DejaVuSans-68" x="225.976562"/>
      <use xlink:href="#DejaVuSans-65" x="289.355469"/>
      <use xlink:href="#DejaVuSans-77" x="350.878906"/>
      <use xlink:href="#DejaVuSans-20" x="432.666016"/>
      <use xlink:href="#DejaVuSans-4d" x="464.453125"/>
      <use xlink:href="#DejaVuSans-63" x="550.732422"/>
      <use xlink:href="#DejaVuSans-43" x="605.712891"/>
      <use xlink:href="#DejaVuSans-6f" x="675.537109"/>
      <use xlink:href="#DejaVuSans-6e" x="736.71875"/>
      <use xlink:href="#DejaVuSans-61" x="800.097656"/>
      <use xlink:href="#DejaVuSans-75" x="861.376953"/>
      <use xlink:href="#DejaVuSans-67" x="924.755859"/>
      <use xlink:href="#DejaVuSans-68" x="988.232422"/>
      <use xlink:href="#DejaVuSans-65" x="1051.611328"/>
      <use xlink:href="#DejaVuSans-79" x="1113.134766"/>
     </g>
    </g>
   </g>
   <g id="text_15">
    <g id="patch_16">
     <path d="M 457.525264 383.521616 
L 507.659483 383.521616 
L 507.659483 366.891303 
L 457.525264 366.891303 
z
" clip-path="url(#p1d5453f4c2)" style="fill: #ffffff; opacity: 0.7; stroke: #000000; stroke-linejoin: miter"/>
    </g>
    <g clip-path="url(#p1d5453f4c2)">
     <!-- Jonah Hill -->
     <g transform="translate(461.485264 377.689897)scale(0.09 -0.09)">
      <use xlink:href="#DejaVuSans-4a"/>
      <use xlink:href="#DejaVuSans-6f" x="29.492188"/>
      <use xlink:href="#DejaVuSans-6e" x="90.673828"/>
      <use xlink:href="#DejaVuSans-61" x="154.052734"/>
      <use xlink:href="#DejaVuSans-68" x="215.332031"/>
      <use xlink:href="#DejaVuSans-20" x="278.710938"/>
      <use xlink:href="#DejaVuSans-48" x="310.498047"/>
      <use xlink:href="#DejaVuSans-69" x="385.693359"/>
      <use xlink:href="#DejaVuSans-6c" x="413.476562"/>
      <use xlink:href="#DejaVuSans-6c" x="441.259766"/>
     </g>
    </g>
   </g>
   <g id="text_16">
    <!-- Impactful actors for Crime genre -->
    <g transform="translate(190.011562 4.8)scale(0.12 -0.12)">
     <defs>
      <path id="DejaVuSans-49" d="M 628 4666 
L 1259 4666 
L 1259 0 
L 628 0 
L 628 4666 
z
" transform="scale(0.015625)"/>
      <path id="DejaVuSans-70" d="M 1159 525 
L 1159 -1331 
L 581 -1331 
L 581 3500 
L 1159 3500 
L 1159 2969 
Q 1341 3281 1617 3432 
Q 1894 3584 2278 3584 
Q 2916 3584 3314 3078 
Q 3713 2572 3713 1747 
Q 3713 922 3314 415 
Q 2916 -91 2278 -91 
Q 1894 -91 1617 61 
Q 1341 213 1159 525 
z
M 3116 1747 
Q 3116 2381 2855 2742 
Q 2594 3103 2138 3103 
Q 1681 3103 1420 2742 
Q 1159 2381 1159 1747 
Q 1159 1113 1420 752 
Q 1681 391 2138 391 
Q 2594 391 2855 752 
Q 3116 1113 3116 1747 
z
" transform="scale(0.015625)"/>
      <path id="DejaVuSans-66" d="M 2375 4863 
L 2375 4384 
L 1825 4384 
Q 1516 4384 1395 4259 
Q 1275 4134 1275 3809 
L 1275 3500 
L 2222 3500 
L 2222 3053 
L 1275 3053 
L 1275 0 
L 697 0 
L 697 3053 
L 147 3053 
L 147 3500 
L 697 3500 
L 697 3744 
Q 697 4328 969 4595 
Q 1241 4863 1831 4863 
L 2375 4863 
z
" transform="scale(0.015625)"/>
     </defs>
     <use xlink:href="#DejaVuSans-49"/>
     <use xlink:href="#DejaVuSans-6d" x="29.492188"/>
     <use xlink:href="#DejaVuSans-70" x="126.904297"/>
     <use xlink:href="#DejaVuSans-61" x="190.380859"/>
     <use xlink:href="#DejaVuSans-63" x="251.660156"/>
     <use xlink:href="#DejaVuSans-74" x="306.640625"/>
     <use xlink:href="#DejaVuSans-66" x="345.849609"/>
     <use xlink:href="#DejaVuSans-75" x="381.054688"/>
     <use xlink:href="#DejaVuSans-6c" x="444.433594"/>
     <use xlink:href="#DejaVuSans-20" x="472.216797"/>
     <use xlink:href="#DejaVuSans-61" x="504.003906"/>
     <use xlink:href="#DejaVuSans-63" x="565.283203"/>
     <use xlink:href="#DejaVuSans-74" x="620.263672"/>
     <use xlink:href="#DejaVuSans-6f" x="659.472656"/>
     <use xlink:href="#DejaVuSans-72" x="720.654297"/>
     <use xlink:href="#DejaVuSans-73" x="761.767578"/>
     <use xlink:href="#DejaVuSans-20" x="813.867188"/>
     <use xlink:href="#DejaVuSans-66" x="845.654297"/>
     <use xlink:href="#DejaVuSans-6f" x="880.859375"/>
     <use xlink:href="#DejaVuSans-72" x="942.041016"/>
     <use xlink:href="#DejaVuSans-20" x="983.154297"/>
     <use xlink:href="#DejaVuSans-43" x="1014.941406"/>
     <use xlink:href="#DejaVuSans-72" x="1084.765625"/>
     <use xlink:href="#DejaVuSans-69" x="1125.878906"/>
     <use xlink:href="#DejaVuSans-6d" x="1153.662109"/>
     <use xlink:href="#DejaVuSans-65" x="1251.074219"/>
     <use xlink:href="#DejaVuSans-20" x="1312.597656"/>
     <use xlink:href="#DejaVuSans-67" x="1344.384766"/>
     <use xlink:href="#DejaVuSans-65" x="1407.861328"/>
     <use xlink:href="#DejaVuSans-6e" x="1469.384766"/>
     <use xlink:href="#DejaVuSans-72" x="1532.763672"/>
     <use xlink:href="#DejaVuSans-65" x="1571.626953"/>
    </g>
   </g>
  </g>
 </g>
 <defs>
  <clipPath id="p1d5453f4c2">
   <rect x="10.8" y="10.8" width="554.4" height="554.4"/>
  </clipPath>
 </defs>
</svg>
