<?xml version="1.0" encoding="utf-8" standalone="no"?>
<!DOCTYPE svg PUBLIC "-//W3C//DTD SVG 1.1//EN"
  "http://www.w3.org/Graphics/SVG/1.1/DTD/svg11.dtd">
<svg xmlns:xlink="http://www.w3.org/1999/xlink" width="576pt" height="576pt" viewBox="0 0 576 576" xmlns="http://www.w3.org/2000/svg" version="1.1">
 <metadata>
  <rdf:RDF xmlns:dc="http://purl.org/dc/elements/1.1/" xmlns:cc="http://creativecommons.org/ns#" xmlns:rdf="http://www.w3.org/1999/02/22-rdf-syntax-ns#">
   <cc:Work>
    <dc:type rdf:resource="http://purl.org/dc/dcmitype/StillImage"/>
    <dc:date>2022-12-22T16:13:24.966370</dc:date>
    <dc:format>image/svg+xml</dc:format>
    <dc:creator>
     <cc:Agent>
      <dc:title>Matplotlib v3.5.2, https://matplotlib.org/</dc:title>
     </cc:Agent>
    </dc:creator>
   </cc:Work>
  </rdf:RDF>
 </metadata>
 <defs>
  <style type="text/css">*{stroke-linejoin: round; stroke-linecap: butt}</style>
 </defs>
 <g id="figure_1">
  <g id="patch_1">
   <path d="M 0 576 
L 576 576 
L 576 0 
L 0 0 
z
" style="fill: #ffffff"/>
  </g>
  <g id="axes_1">
   <g id="PathCollection_1">
    <path d="M 501.230769 315.386128 
C 508.493655 315.386128 515.46005 312.500553 520.595686 307.364917 
C 525.731322 302.229281 528.616897 295.262886 528.616897 288 
C 528.616897 280.737114 525.731322 273.770719 520.595686 268.635083 
C 515.46005 263.499447 508.493655 260.613872 501.230769 260.613872 
C 493.967883 260.613872 487.001488 263.499447 481.865852 268.635083 
C 476.730217 273.770719 473.844641 280.737114 473.844641 288 
C 473.844641 295.262886 476.730217 302.229281 481.865852 307.364917 
C 487.001488 312.500553 493.967883 315.386128 501.230769 315.386128 
z
" clip-path="url(#pa697d390d7)" style="fill: #d62728; fill-opacity: 0.99; stroke: #d62728; stroke-opacity: 0.99"/>
    <path d="M 482.592348 225.040897 
C 489.02283 225.040897 495.190803 222.486039 499.737841 217.939001 
C 504.284879 213.391963 506.839736 207.223991 506.839736 200.793508 
C 506.839736 194.363026 504.284879 188.195053 499.737841 183.648016 
C 495.190803 179.100978 489.02283 176.54612 482.592348 176.54612 
C 476.161865 176.54612 469.993893 179.100978 465.446855 183.648016 
C 460.899817 188.195053 458.344959 194.363026 458.344959 200.793508 
C 458.344959 207.223991 460.899817 213.391963 465.446855 217.939001 
C 469.993893 222.486039 476.161865 225.040897 482.592348 225.040897 
z
" clip-path="url(#pa697d390d7)" style="fill: #d62728; fill-opacity: 0.99; stroke: #d62728; stroke-opacity: 0.99"/>
    <path d="M 429.89985 152.232991 
C 436.149941 152.232991 442.144887 149.749803 446.564369 145.330321 
C 450.983851 140.910839 453.467039 134.915893 453.467039 128.665802 
C 453.467039 122.41571 450.983851 116.420765 446.564369 112.001282 
C 442.144887 107.5818 436.149941 105.098613 429.89985 105.098613 
C 423.649758 105.098613 417.654813 107.5818 413.235331 112.001282 
C 408.815849 116.420765 406.332661 122.41571 406.332661 128.665802 
C 406.332661 134.915893 408.815849 140.910839 413.235331 145.330321 
C 417.654813 149.749803 423.649758 152.232991 429.89985 152.232991 
z
" clip-path="url(#pa697d390d7)" style="fill: #d62728; fill-opacity: 0.99; stroke: #d62728; stroke-opacity: 0.99"/>
    <path d="M 352.264291 106.750812 
C 358.274423 106.750812 364.039205 104.362961 368.289009 100.113156 
C 372.538814 95.863351 374.926665 90.09857 374.926665 84.088438 
C 374.926665 78.078306 372.538814 72.313524 368.289009 68.063719 
C 364.039205 63.813915 358.274423 61.426064 352.264291 61.426064 
C 346.254159 61.426064 340.489378 63.813915 336.239573 68.063719 
C 331.989768 72.313524 329.601917 78.078306 329.601917 84.088438 
C 329.601917 90.09857 331.989768 95.863351 336.239573 100.113156 
C 340.489378 104.362961 346.254159 106.750812 352.264291 106.750812 
z
" clip-path="url(#pa697d390d7)" style="fill: #d62728; fill-opacity: 0.99; stroke: #d62728; stroke-opacity: 0.99"/>
    <path d="M 263.109549 97.431605 
C 269.11968 97.431605 274.884462 95.043754 279.134267 90.793949 
C 283.384072 86.544144 285.771922 80.779363 285.771922 74.769231 
C 285.771922 68.759099 283.384072 62.994317 279.134267 58.744513 
C 274.884462 54.494708 269.11968 52.106857 263.109549 52.106857 
C 257.099417 52.106857 251.334635 54.494708 247.08483 58.744513 
C 242.835025 62.994317 240.447175 68.759099 240.447175 74.769231 
C 240.447175 80.779363 242.835025 86.544144 247.08483 90.793949 
C 251.334635 95.043754 257.099417 97.431605 263.109549 97.431605 
z
" clip-path="url(#pa697d390d7)" style="fill: #d62728; fill-opacity: 0.99; stroke: #d62728; stroke-opacity: 0.99"/>
    <path d="M 177.851298 124.618259 
C 183.76498 124.618259 189.437249 122.268728 193.618854 118.087123 
C 197.800459 113.905519 200.14999 108.233249 200.14999 102.319567 
C 200.14999 96.405885 197.800459 90.733616 193.618854 86.552011 
C 189.437249 82.370406 183.76498 80.020876 177.851298 80.020876 
C 171.937616 80.020876 166.265347 82.370406 162.083742 86.552011 
C 157.902137 90.733616 155.552606 96.405885 155.552606 102.319567 
C 155.552606 108.233249 157.902137 113.905519 162.083742 118.087123 
C 166.265347 122.268728 171.937616 124.618259 177.851298 124.618259 
z
" clip-path="url(#pa697d390d7)" style="fill: #d62728; fill-opacity: 0.99; stroke: #d62728; stroke-opacity: 0.99"/>
    <path d="M 111.231477 183.39984 
C 116.913218 183.39984 122.363014 181.14246 126.380611 177.124863 
C 130.398209 173.107266 132.655588 167.657469 132.655588 161.975729 
C 132.655588 156.293988 130.398209 150.844192 126.380611 146.826595 
C 122.363014 142.808997 116.913218 140.551618 111.231477 140.551618 
C 105.549736 140.551618 100.09994 142.808997 96.082343 146.826595 
C 92.064745 150.844192 89.807366 156.293988 89.807366 161.975729 
C 89.807366 167.657469 92.064745 173.107266 96.082343 177.124863 
C 100.09994 181.14246 105.549736 183.39984 111.231477 183.39984 
z
" clip-path="url(#pa697d390d7)" style="fill: #d62728; fill-opacity: 0.99; stroke: #d62728; stroke-opacity: 0.99"/>
    <path d="M 74.769231 263.759284 
C 80.162569 263.759284 85.335737 261.616488 89.149403 257.802822 
C 92.96307 253.989155 95.105866 248.815988 95.105866 243.422649 
C 95.105866 238.02931 92.96307 232.856143 89.149403 229.042476 
C 85.335737 225.22881 80.162569 223.086014 74.769231 223.086014 
C 69.375892 223.086014 64.202724 225.22881 60.389058 229.042476 
C 56.575392 232.856143 54.432596 238.02931 54.432596 243.422649 
C 54.432596 248.815988 56.575392 253.989155 60.389058 257.802822 
C 64.202724 261.616488 69.375892 263.759284 74.769231 263.759284 
z
" clip-path="url(#pa697d390d7)" style="fill: #d62728; fill-opacity: 0.99; stroke: #d62728; stroke-opacity: 0.99"/>
    <path d="M 74.769244 352.779261 
C 80.126843 352.779261 85.265729 350.650664 89.054124 346.86227 
C 92.842518 343.073875 94.971115 337.934988 94.971115 332.577389 
C 94.971115 327.219791 92.842518 322.080904 89.054124 318.292509 
C 85.265729 314.504115 80.126843 312.375518 74.769244 312.375518 
C 69.411645 312.375518 64.272758 314.504115 60.484363 318.292509 
C 56.695969 322.080904 54.567372 327.219791 54.567372 332.577389 
C 54.567372 337.934988 56.695969 343.073875 60.484363 346.86227 
C 64.272758 350.650664 69.411645 352.779261 74.769244 352.779261 
z
" clip-path="url(#pa697d390d7)" style="fill: #d62728; fill-opacity: 0.99; stroke: #d62728; stroke-opacity: 0.99"/>
    <path d="M 111.23149 434.19721 
C 116.581412 434.19721 121.712936 432.071663 125.495902 428.288697 
C 129.278869 424.50573 131.404415 419.374206 131.404415 414.024284 
C 131.404415 408.674362 129.278869 403.542838 125.495902 399.759872 
C 121.712936 395.976905 116.581412 393.851358 111.23149 393.851358 
C 105.881567 393.851358 100.750044 395.976905 96.967077 399.759872 
C 93.184111 403.542838 91.058564 408.674362 91.058564 414.024284 
C 91.058564 419.374206 93.184111 424.50573 96.967077 428.288697 
C 100.750044 432.071663 105.881567 434.19721 111.23149 434.19721 
z
" clip-path="url(#pa697d390d7)" style="fill: #d62728; fill-opacity: 0.99; stroke: #d62728; stroke-opacity: 0.99"/>
    <path d="M 177.85133 493.770537 
C 183.179285 493.770537 188.289737 491.653718 192.05717 487.886285 
C 195.824603 484.118852 197.941421 479.0084 197.941421 473.680446 
C 197.941421 468.352491 195.824603 463.242039 192.05717 459.474606 
C 188.289737 455.707173 183.179285 453.590354 177.85133 453.590354 
C 172.523376 453.590354 167.412923 455.707173 163.645491 459.474606 
C 159.878058 463.242039 157.761239 468.352491 157.761239 473.680446 
C 157.761239 479.0084 159.878058 484.118852 163.645491 487.886285 
C 167.412923 491.653718 172.523376 493.770537 177.85133 493.770537 
z
" clip-path="url(#pa697d390d7)" style="fill: #d62728; fill-opacity: 0.99; stroke: #d62728; stroke-opacity: 0.99"/>
    <path d="M 263.109587 520.98951 
C 268.349667 520.98951 273.375831 518.907605 277.081127 515.202309 
C 280.786423 511.497013 282.868328 506.470849 282.868328 501.230769 
C 282.868328 495.99069 280.786423 490.964525 277.081127 487.259229 
C 273.375831 483.553934 268.349667 481.472028 263.109587 481.472028 
C 257.869508 481.472028 252.843343 483.553934 249.138047 487.259229 
C 245.432752 490.964525 243.350846 495.99069 243.350846 501.230769 
C 243.350846 506.470849 245.432752 511.497013 249.138047 515.202309 
C 252.843343 518.907605 257.869508 520.98951 263.109587 520.98951 
z
" clip-path="url(#pa697d390d7)" style="fill: #d62728; fill-opacity: 0.99; stroke: #d62728; stroke-opacity: 0.99"/>
    <path d="M 352.264323 511.509543 
C 357.461772 511.509543 362.447046 509.444574 366.122197 505.769423 
C 369.797348 502.094272 371.862316 497.108998 371.862316 491.91155 
C 371.862316 486.714101 369.797348 481.728827 366.122197 478.053676 
C 362.447046 474.378525 357.461772 472.313556 352.264323 472.313556 
C 347.066875 472.313556 342.081601 474.378525 338.40645 478.053676 
C 334.731298 481.728827 332.66633 486.714101 332.66633 491.91155 
C 332.66633 497.108998 334.731298 502.094272 338.40645 505.769423 
C 342.081601 509.444574 347.066875 511.509543 352.264323 511.509543 
z
" clip-path="url(#pa697d390d7)" style="fill: #d62728; fill-opacity: 0.99; stroke: #d62728; stroke-opacity: 0.99"/>
    <path d="M 429.899888 466.860385 
C 435.078304 466.860385 440.045322 464.802979 443.707015 461.141286 
C 447.368707 457.479594 449.426114 452.512575 449.426114 447.33416 
C 449.426114 442.155745 447.368707 437.188726 443.707015 433.527034 
C 440.045322 429.865341 435.078304 427.807935 429.899888 427.807935 
C 424.721473 427.807935 419.754455 429.865341 416.092762 433.527034 
C 412.431069 437.188726 410.373663 442.155745 410.373663 447.33416 
C 410.373663 452.512575 412.431069 457.479594 416.092762 461.141286 
C 419.754455 464.802979 424.721473 466.860385 429.899888 466.860385 
z
" clip-path="url(#pa697d390d7)" style="fill: #d62728; fill-opacity: 0.99; stroke: #d62728; stroke-opacity: 0.99"/>
    <path d="M 482.592374 394.571376 
C 487.728009 394.571376 492.653994 392.530967 496.285437 388.899524 
C 499.91688 385.268081 501.95729 380.342096 501.95729 375.20646 
C 501.95729 370.070824 499.91688 365.144839 496.285437 361.513396 
C 492.653994 357.881953 487.728009 355.841543 482.592374 355.841543 
C 477.456738 355.841543 472.530753 357.881953 468.89931 361.513396 
C 465.267867 365.144839 463.227457 370.070824 463.227457 375.20646 
C 463.227457 380.342096 465.267867 385.268081 468.89931 388.899524 
C 472.530753 392.530967 477.456738 394.571376 482.592374 394.571376 
z
" clip-path="url(#pa697d390d7)" style="fill: #d62728; fill-opacity: 0.99; stroke: #d62728; stroke-opacity: 0.99"/>
   </g>
   <g id="text_1">
    <g id="patch_2">
     <path d="M 470.2553 296.315156 
L 532.206238 296.315156 
L 532.206238 279.684844 
L 470.2553 279.684844 
z
" clip-path="url(#pa697d390d7)" style="fill: #ffffff; opacity: 0.7; stroke: #000000; stroke-linejoin: miter"/>
    </g>
    <g clip-path="url(#pa697d390d7)">
     <!-- Philip Bosco -->
     <g transform="translate(474.2153 290.483437)scale(0.09 -0.09)">
      <defs>
       <path id="DejaVuSans-50" d="M 1259 4147 
L 1259 2394 
L 2053 2394 
Q 2494 2394 2734 2622 
Q 2975 2850 2975 3272 
Q 2975 3691 2734 3919 
Q 2494 4147 2053 4147 
L 1259 4147 
z
M 628 4666 
L 2053 4666 
Q 2838 4666 3239 4311 
Q 3641 3956 3641 3272 
Q 3641 2581 3239 2228 
Q 2838 1875 2053 1875 
L 1259 1875 
L 1259 0 
L 628 0 
L 628 4666 
z
" transform="scale(0.015625)"/>
       <path id="DejaVuSans-68" d="M 3513 2113 
L 3513 0 
L 2938 0 
L 2938 2094 
Q 2938 2591 2744 2837 
Q 2550 3084 2163 3084 
Q 1697 3084 1428 2787 
Q 1159 2491 1159 1978 
L 1159 0 
L 581 0 
L 581 4863 
L 1159 4863 
L 1159 2956 
Q 1366 3272 1645 3428 
Q 1925 3584 2291 3584 
Q 2894 3584 3203 3211 
Q 3513 2838 3513 2113 
z
" transform="scale(0.015625)"/>
       <path id="DejaVuSans-69" d="M 603 3500 
L 1178 3500 
L 1178 0 
L 603 0 
L 603 3500 
z
M 603 4863 
L 1178 4863 
L 1178 4134 
L 603 4134 
L 603 4863 
z
" transform="scale(0.015625)"/>
       <path id="DejaVuSans-6c" d="M 603 4863 
L 1178 4863 
L 1178 0 
L 603 0 
L 603 4863 
z
" transform="scale(0.015625)"/>
       <path id="DejaVuSans-70" d="M 1159 525 
L 1159 -1331 
L 581 -1331 
L 581 3500 
L 1159 3500 
L 1159 2969 
Q 1341 3281 1617 3432 
Q 1894 3584 2278 3584 
Q 2916 3584 3314 3078 
Q 3713 2572 3713 1747 
Q 3713 922 3314 415 
Q 2916 -91 2278 -91 
Q 1894 -91 1617 61 
Q 1341 213 1159 525 
z
M 3116 1747 
Q 3116 2381 2855 2742 
Q 2594 3103 2138 3103 
Q 1681 3103 1420 2742 
Q 1159 2381 1159 1747 
Q 1159 1113 1420 752 
Q 1681 391 2138 391 
Q 2594 391 2855 752 
Q 3116 1113 3116 1747 
z
" transform="scale(0.015625)"/>
       <path id="DejaVuSans-20" transform="scale(0.015625)"/>
       <path id="DejaVuSans-42" d="M 1259 2228 
L 1259 519 
L 2272 519 
Q 2781 519 3026 730 
Q 3272 941 3272 1375 
Q 3272 1813 3026 2020 
Q 2781 2228 2272 2228 
L 1259 2228 
z
M 1259 4147 
L 1259 2741 
L 2194 2741 
Q 2656 2741 2882 2914 
Q 3109 3088 3109 3444 
Q 3109 3797 2882 3972 
Q 2656 4147 2194 4147 
L 1259 4147 
z
M 628 4666 
L 2241 4666 
Q 2963 4666 3353 4366 
Q 3744 4066 3744 3513 
Q 3744 3084 3544 2831 
Q 3344 2578 2956 2516 
Q 3422 2416 3680 2098 
Q 3938 1781 3938 1306 
Q 3938 681 3513 340 
Q 3088 0 2303 0 
L 628 0 
L 628 4666 
z
" transform="scale(0.015625)"/>
       <path id="DejaVuSans-6f" d="M 1959 3097 
Q 1497 3097 1228 2736 
Q 959 2375 959 1747 
Q 959 1119 1226 758 
Q 1494 397 1959 397 
Q 2419 397 2687 759 
Q 2956 1122 2956 1747 
Q 2956 2369 2687 2733 
Q 2419 3097 1959 3097 
z
M 1959 3584 
Q 2709 3584 3137 3096 
Q 3566 2609 3566 1747 
Q 3566 888 3137 398 
Q 2709 -91 1959 -91 
Q 1206 -91 779 398 
Q 353 888 353 1747 
Q 353 2609 779 3096 
Q 1206 3584 1959 3584 
z
" transform="scale(0.015625)"/>
       <path id="DejaVuSans-73" d="M 2834 3397 
L 2834 2853 
Q 2591 2978 2328 3040 
Q 2066 3103 1784 3103 
Q 1356 3103 1142 2972 
Q 928 2841 928 2578 
Q 928 2378 1081 2264 
Q 1234 2150 1697 2047 
L 1894 2003 
Q 2506 1872 2764 1633 
Q 3022 1394 3022 966 
Q 3022 478 2636 193 
Q 2250 -91 1575 -91 
Q 1294 -91 989 -36 
Q 684 19 347 128 
L 347 722 
Q 666 556 975 473 
Q 1284 391 1588 391 
Q 1994 391 2212 530 
Q 2431 669 2431 922 
Q 2431 1156 2273 1281 
Q 2116 1406 1581 1522 
L 1381 1569 
Q 847 1681 609 1914 
Q 372 2147 372 2553 
Q 372 3047 722 3315 
Q 1072 3584 1716 3584 
Q 2034 3584 2315 3537 
Q 2597 3491 2834 3397 
z
" transform="scale(0.015625)"/>
       <path id="DejaVuSans-63" d="M 3122 3366 
L 3122 2828 
Q 2878 2963 2633 3030 
Q 2388 3097 2138 3097 
Q 1578 3097 1268 2742 
Q 959 2388 959 1747 
Q 959 1106 1268 751 
Q 1578 397 2138 397 
Q 2388 397 2633 464 
Q 2878 531 3122 666 
L 3122 134 
Q 2881 22 2623 -34 
Q 2366 -91 2075 -91 
Q 1284 -91 818 406 
Q 353 903 353 1747 
Q 353 2603 823 3093 
Q 1294 3584 2113 3584 
Q 2378 3584 2631 3529 
Q 2884 3475 3122 3366 
z
" transform="scale(0.015625)"/>
      </defs>
      <use xlink:href="#DejaVuSans-50"/>
      <use xlink:href="#DejaVuSans-68" x="60.302734"/>
      <use xlink:href="#DejaVuSans-69" x="123.681641"/>
      <use xlink:href="#DejaVuSans-6c" x="151.464844"/>
      <use xlink:href="#DejaVuSans-69" x="179.248047"/>
      <use xlink:href="#DejaVuSans-70" x="207.03125"/>
      <use xlink:href="#DejaVuSans-20" x="270.507812"/>
      <use xlink:href="#DejaVuSans-42" x="302.294922"/>
      <use xlink:href="#DejaVuSans-6f" x="370.898438"/>
      <use xlink:href="#DejaVuSans-73" x="432.080078"/>
      <use xlink:href="#DejaVuSans-63" x="484.179688"/>
      <use xlink:href="#DejaVuSans-6f" x="539.160156"/>
     </g>
    </g>
   </g>
   <g id="text_2">
    <g id="patch_3">
     <path d="M 444.18766 209.108665 
L 520.997035 209.108665 
L 520.997035 192.478352 
L 444.18766 192.478352 
z
" clip-path="url(#pa697d390d7)" style="fill: #ffffff; opacity: 0.7; stroke: #000000; stroke-linejoin: miter"/>
    </g>
    <g clip-path="url(#pa697d390d7)">
     <!-- Sam Waterston -->
     <g transform="translate(448.14766 203.276946)scale(0.09 -0.09)">
      <defs>
       <path id="DejaVuSans-53" d="M 3425 4513 
L 3425 3897 
Q 3066 4069 2747 4153 
Q 2428 4238 2131 4238 
Q 1616 4238 1336 4038 
Q 1056 3838 1056 3469 
Q 1056 3159 1242 3001 
Q 1428 2844 1947 2747 
L 2328 2669 
Q 3034 2534 3370 2195 
Q 3706 1856 3706 1288 
Q 3706 609 3251 259 
Q 2797 -91 1919 -91 
Q 1588 -91 1214 -16 
Q 841 59 441 206 
L 441 856 
Q 825 641 1194 531 
Q 1563 422 1919 422 
Q 2459 422 2753 634 
Q 3047 847 3047 1241 
Q 3047 1584 2836 1778 
Q 2625 1972 2144 2069 
L 1759 2144 
Q 1053 2284 737 2584 
Q 422 2884 422 3419 
Q 422 4038 858 4394 
Q 1294 4750 2059 4750 
Q 2388 4750 2728 4690 
Q 3069 4631 3425 4513 
z
" transform="scale(0.015625)"/>
       <path id="DejaVuSans-61" d="M 2194 1759 
Q 1497 1759 1228 1600 
Q 959 1441 959 1056 
Q 959 750 1161 570 
Q 1363 391 1709 391 
Q 2188 391 2477 730 
Q 2766 1069 2766 1631 
L 2766 1759 
L 2194 1759 
z
M 3341 1997 
L 3341 0 
L 2766 0 
L 2766 531 
Q 2569 213 2275 61 
Q 1981 -91 1556 -91 
Q 1019 -91 701 211 
Q 384 513 384 1019 
Q 384 1609 779 1909 
Q 1175 2209 1959 2209 
L 2766 2209 
L 2766 2266 
Q 2766 2663 2505 2880 
Q 2244 3097 1772 3097 
Q 1472 3097 1187 3025 
Q 903 2953 641 2809 
L 641 3341 
Q 956 3463 1253 3523 
Q 1550 3584 1831 3584 
Q 2591 3584 2966 3190 
Q 3341 2797 3341 1997 
z
" transform="scale(0.015625)"/>
       <path id="DejaVuSans-6d" d="M 3328 2828 
Q 3544 3216 3844 3400 
Q 4144 3584 4550 3584 
Q 5097 3584 5394 3201 
Q 5691 2819 5691 2113 
L 5691 0 
L 5113 0 
L 5113 2094 
Q 5113 2597 4934 2840 
Q 4756 3084 4391 3084 
Q 3944 3084 3684 2787 
Q 3425 2491 3425 1978 
L 3425 0 
L 2847 0 
L 2847 2094 
Q 2847 2600 2669 2842 
Q 2491 3084 2119 3084 
Q 1678 3084 1418 2786 
Q 1159 2488 1159 1978 
L 1159 0 
L 581 0 
L 581 3500 
L 1159 3500 
L 1159 2956 
Q 1356 3278 1631 3431 
Q 1906 3584 2284 3584 
Q 2666 3584 2933 3390 
Q 3200 3197 3328 2828 
z
" transform="scale(0.015625)"/>
       <path id="DejaVuSans-57" d="M 213 4666 
L 850 4666 
L 1831 722 
L 2809 4666 
L 3519 4666 
L 4500 722 
L 5478 4666 
L 6119 4666 
L 4947 0 
L 4153 0 
L 3169 4050 
L 2175 0 
L 1381 0 
L 213 4666 
z
" transform="scale(0.015625)"/>
       <path id="DejaVuSans-74" d="M 1172 4494 
L 1172 3500 
L 2356 3500 
L 2356 3053 
L 1172 3053 
L 1172 1153 
Q 1172 725 1289 603 
Q 1406 481 1766 481 
L 2356 481 
L 2356 0 
L 1766 0 
Q 1100 0 847 248 
Q 594 497 594 1153 
L 594 3053 
L 172 3053 
L 172 3500 
L 594 3500 
L 594 4494 
L 1172 4494 
z
" transform="scale(0.015625)"/>
       <path id="DejaVuSans-65" d="M 3597 1894 
L 3597 1613 
L 953 1613 
Q 991 1019 1311 708 
Q 1631 397 2203 397 
Q 2534 397 2845 478 
Q 3156 559 3463 722 
L 3463 178 
Q 3153 47 2828 -22 
Q 2503 -91 2169 -91 
Q 1331 -91 842 396 
Q 353 884 353 1716 
Q 353 2575 817 3079 
Q 1281 3584 2069 3584 
Q 2775 3584 3186 3129 
Q 3597 2675 3597 1894 
z
M 3022 2063 
Q 3016 2534 2758 2815 
Q 2500 3097 2075 3097 
Q 1594 3097 1305 2825 
Q 1016 2553 972 2059 
L 3022 2063 
z
" transform="scale(0.015625)"/>
       <path id="DejaVuSans-72" d="M 2631 2963 
Q 2534 3019 2420 3045 
Q 2306 3072 2169 3072 
Q 1681 3072 1420 2755 
Q 1159 2438 1159 1844 
L 1159 0 
L 581 0 
L 581 3500 
L 1159 3500 
L 1159 2956 
Q 1341 3275 1631 3429 
Q 1922 3584 2338 3584 
Q 2397 3584 2469 3576 
Q 2541 3569 2628 3553 
L 2631 2963 
z
" transform="scale(0.015625)"/>
       <path id="DejaVuSans-6e" d="M 3513 2113 
L 3513 0 
L 2938 0 
L 2938 2094 
Q 2938 2591 2744 2837 
Q 2550 3084 2163 3084 
Q 1697 3084 1428 2787 
Q 1159 2491 1159 1978 
L 1159 0 
L 581 0 
L 581 3500 
L 1159 3500 
L 1159 2956 
Q 1366 3272 1645 3428 
Q 1925 3584 2291 3584 
Q 2894 3584 3203 3211 
Q 3513 2838 3513 2113 
z
" transform="scale(0.015625)"/>
      </defs>
      <use xlink:href="#DejaVuSans-53"/>
      <use xlink:href="#DejaVuSans-61" x="63.476562"/>
      <use xlink:href="#DejaVuSans-6d" x="124.755859"/>
      <use xlink:href="#DejaVuSans-20" x="222.167969"/>
      <use xlink:href="#DejaVuSans-57" x="253.955078"/>
      <use xlink:href="#DejaVuSans-61" x="346.457031"/>
      <use xlink:href="#DejaVuSans-74" x="407.736328"/>
      <use xlink:href="#DejaVuSans-65" x="446.945312"/>
      <use xlink:href="#DejaVuSans-72" x="508.46875"/>
      <use xlink:href="#DejaVuSans-73" x="549.582031"/>
      <use xlink:href="#DejaVuSans-74" x="601.681641"/>
      <use xlink:href="#DejaVuSans-6f" x="640.890625"/>
      <use xlink:href="#DejaVuSans-6e" x="702.072266"/>
     </g>
    </g>
   </g>
   <g id="text_3">
    <g id="patch_4">
     <path d="M 398.160084 136.980958 
L 461.639615 136.980958 
L 461.639615 120.350645 
L 398.160084 120.350645 
z
" clip-path="url(#pa697d390d7)" style="fill: #ffffff; opacity: 0.7; stroke: #000000; stroke-linejoin: miter"/>
    </g>
    <g clip-path="url(#pa697d390d7)">
     <!-- Paul Sorvino -->
     <g transform="translate(402.120084 131.149239)scale(0.09 -0.09)">
      <defs>
       <path id="DejaVuSans-75" d="M 544 1381 
L 544 3500 
L 1119 3500 
L 1119 1403 
Q 1119 906 1312 657 
Q 1506 409 1894 409 
Q 2359 409 2629 706 
Q 2900 1003 2900 1516 
L 2900 3500 
L 3475 3500 
L 3475 0 
L 2900 0 
L 2900 538 
Q 2691 219 2414 64 
Q 2138 -91 1772 -91 
Q 1169 -91 856 284 
Q 544 659 544 1381 
z
M 1991 3584 
L 1991 3584 
z
" transform="scale(0.015625)"/>
       <path id="DejaVuSans-76" d="M 191 3500 
L 800 3500 
L 1894 563 
L 2988 3500 
L 3597 3500 
L 2284 0 
L 1503 0 
L 191 3500 
z
" transform="scale(0.015625)"/>
      </defs>
      <use xlink:href="#DejaVuSans-50"/>
      <use xlink:href="#DejaVuSans-61" x="55.802734"/>
      <use xlink:href="#DejaVuSans-75" x="117.082031"/>
      <use xlink:href="#DejaVuSans-6c" x="180.460938"/>
      <use xlink:href="#DejaVuSans-20" x="208.244141"/>
      <use xlink:href="#DejaVuSans-53" x="240.03125"/>
      <use xlink:href="#DejaVuSans-6f" x="303.507812"/>
      <use xlink:href="#DejaVuSans-72" x="364.689453"/>
      <use xlink:href="#DejaVuSans-76" x="405.802734"/>
      <use xlink:href="#DejaVuSans-69" x="464.982422"/>
      <use xlink:href="#DejaVuSans-6e" x="492.765625"/>
      <use xlink:href="#DejaVuSans-6f" x="556.144531"/>
     </g>
    </g>
   </g>
   <g id="text_4">
    <g id="patch_5">
     <path d="M 324.948588 92.403594 
L 379.579994 92.403594 
L 379.579994 75.773281 
L 324.948588 75.773281 
z
" clip-path="url(#pa697d390d7)" style="fill: #ffffff; opacity: 0.7; stroke: #000000; stroke-linejoin: miter"/>
    </g>
    <g clip-path="url(#pa697d390d7)">
     <!-- Alan Joyce -->
     <g transform="translate(328.908588 86.571875)scale(0.09 -0.09)">
      <defs>
       <path id="DejaVuSans-41" d="M 2188 4044 
L 1331 1722 
L 3047 1722 
L 2188 4044 
z
M 1831 4666 
L 2547 4666 
L 4325 0 
L 3669 0 
L 3244 1197 
L 1141 1197 
L 716 0 
L 50 0 
L 1831 4666 
z
" transform="scale(0.015625)"/>
       <path id="DejaVuSans-4a" d="M 628 4666 
L 1259 4666 
L 1259 325 
Q 1259 -519 939 -900 
Q 619 -1281 -91 -1281 
L -331 -1281 
L -331 -750 
L -134 -750 
Q 284 -750 456 -515 
Q 628 -281 628 325 
L 628 4666 
z
" transform="scale(0.015625)"/>
       <path id="DejaVuSans-79" d="M 2059 -325 
Q 1816 -950 1584 -1140 
Q 1353 -1331 966 -1331 
L 506 -1331 
L 506 -850 
L 844 -850 
Q 1081 -850 1212 -737 
Q 1344 -625 1503 -206 
L 1606 56 
L 191 3500 
L 800 3500 
L 1894 763 
L 2988 3500 
L 3597 3500 
L 2059 -325 
z
" transform="scale(0.015625)"/>
      </defs>
      <use xlink:href="#DejaVuSans-41"/>
      <use xlink:href="#DejaVuSans-6c" x="68.408203"/>
      <use xlink:href="#DejaVuSans-61" x="96.191406"/>
      <use xlink:href="#DejaVuSans-6e" x="157.470703"/>
      <use xlink:href="#DejaVuSans-20" x="220.849609"/>
      <use xlink:href="#DejaVuSans-4a" x="252.636719"/>
      <use xlink:href="#DejaVuSans-6f" x="282.128906"/>
      <use xlink:href="#DejaVuSans-79" x="343.310547"/>
      <use xlink:href="#DejaVuSans-63" x="402.490234"/>
      <use xlink:href="#DejaVuSans-65" x="457.470703"/>
     </g>
    </g>
   </g>
   <g id="text_5">
    <g id="patch_6">
     <path d="M 225.985252 83.084387 
L 300.233845 83.084387 
L 300.233845 66.454075 
L 225.985252 66.454075 
z
" clip-path="url(#pa697d390d7)" style="fill: #ffffff; opacity: 0.7; stroke: #000000; stroke-linejoin: miter"/>
    </g>
    <g clip-path="url(#pa697d390d7)">
     <!-- Stephen Wallis -->
     <g transform="translate(229.945252 77.252668)scale(0.09 -0.09)">
      <use xlink:href="#DejaVuSans-53"/>
      <use xlink:href="#DejaVuSans-74" x="63.476562"/>
      <use xlink:href="#DejaVuSans-65" x="102.685547"/>
      <use xlink:href="#DejaVuSans-70" x="164.208984"/>
      <use xlink:href="#DejaVuSans-68" x="227.685547"/>
      <use xlink:href="#DejaVuSans-65" x="291.064453"/>
      <use xlink:href="#DejaVuSans-6e" x="352.587891"/>
      <use xlink:href="#DejaVuSans-20" x="415.966797"/>
      <use xlink:href="#DejaVuSans-57" x="447.753906"/>
      <use xlink:href="#DejaVuSans-61" x="540.255859"/>
      <use xlink:href="#DejaVuSans-6c" x="601.535156"/>
      <use xlink:href="#DejaVuSans-6c" x="629.318359"/>
      <use xlink:href="#DejaVuSans-69" x="657.101562"/>
      <use xlink:href="#DejaVuSans-73" x="684.884766"/>
     </g>
    </g>
   </g>
   <g id="text_6">
    <g id="patch_7">
     <path d="M 139.582314 110.634724 
L 216.120282 110.634724 
L 216.120282 94.004411 
L 139.582314 94.004411 
z
" clip-path="url(#pa697d390d7)" style="fill: #ffffff; opacity: 0.7; stroke: #000000; stroke-linejoin: miter"/>
    </g>
    <g clip-path="url(#pa697d390d7)">
     <!-- Campbell Scott -->
     <g transform="translate(143.542314 104.803005)scale(0.09 -0.09)">
      <defs>
       <path id="DejaVuSans-43" d="M 4122 4306 
L 4122 3641 
Q 3803 3938 3442 4084 
Q 3081 4231 2675 4231 
Q 1875 4231 1450 3742 
Q 1025 3253 1025 2328 
Q 1025 1406 1450 917 
Q 1875 428 2675 428 
Q 3081 428 3442 575 
Q 3803 722 4122 1019 
L 4122 359 
Q 3791 134 3420 21 
Q 3050 -91 2638 -91 
Q 1578 -91 968 557 
Q 359 1206 359 2328 
Q 359 3453 968 4101 
Q 1578 4750 2638 4750 
Q 3056 4750 3426 4639 
Q 3797 4528 4122 4306 
z
" transform="scale(0.015625)"/>
       <path id="DejaVuSans-62" d="M 3116 1747 
Q 3116 2381 2855 2742 
Q 2594 3103 2138 3103 
Q 1681 3103 1420 2742 
Q 1159 2381 1159 1747 
Q 1159 1113 1420 752 
Q 1681 391 2138 391 
Q 2594 391 2855 752 
Q 3116 1113 3116 1747 
z
M 1159 2969 
Q 1341 3281 1617 3432 
Q 1894 3584 2278 3584 
Q 2916 3584 3314 3078 
Q 3713 2572 3713 1747 
Q 3713 922 3314 415 
Q 2916 -91 2278 -91 
Q 1894 -91 1617 61 
Q 1341 213 1159 525 
L 1159 0 
L 581 0 
L 581 4863 
L 1159 4863 
L 1159 2969 
z
" transform="scale(0.015625)"/>
      </defs>
      <use xlink:href="#DejaVuSans-43"/>
      <use xlink:href="#DejaVuSans-61" x="69.824219"/>
      <use xlink:href="#DejaVuSans-6d" x="131.103516"/>
      <use xlink:href="#DejaVuSans-70" x="228.515625"/>
      <use xlink:href="#DejaVuSans-62" x="291.992188"/>
      <use xlink:href="#DejaVuSans-65" x="355.46875"/>
      <use xlink:href="#DejaVuSans-6c" x="416.992188"/>
      <use xlink:href="#DejaVuSans-6c" x="444.775391"/>
      <use xlink:href="#DejaVuSans-20" x="472.558594"/>
      <use xlink:href="#DejaVuSans-53" x="504.345703"/>
      <use xlink:href="#DejaVuSans-63" x="567.822266"/>
      <use xlink:href="#DejaVuSans-6f" x="622.802734"/>
      <use xlink:href="#DejaVuSans-74" x="683.984375"/>
      <use xlink:href="#DejaVuSans-74" x="723.193359"/>
     </g>
    </g>
   </g>
   <g id="text_7">
    <g id="patch_8">
     <path d="M 80.372727 170.290885 
L 142.090227 170.290885 
L 142.090227 153.660572 
L 80.372727 153.660572 
z
" clip-path="url(#pa697d390d7)" style="fill: #ffffff; opacity: 0.7; stroke: #000000; stroke-linejoin: miter"/>
    </g>
    <g clip-path="url(#pa697d390d7)">
     <!-- Glenn Close -->
     <g transform="translate(84.332727 164.459166)scale(0.09 -0.09)">
      <defs>
       <path id="DejaVuSans-47" d="M 3809 666 
L 3809 1919 
L 2778 1919 
L 2778 2438 
L 4434 2438 
L 4434 434 
Q 4069 175 3628 42 
Q 3188 -91 2688 -91 
Q 1594 -91 976 548 
Q 359 1188 359 2328 
Q 359 3472 976 4111 
Q 1594 4750 2688 4750 
Q 3144 4750 3555 4637 
Q 3966 4525 4313 4306 
L 4313 3634 
Q 3963 3931 3569 4081 
Q 3175 4231 2741 4231 
Q 1884 4231 1454 3753 
Q 1025 3275 1025 2328 
Q 1025 1384 1454 906 
Q 1884 428 2741 428 
Q 3075 428 3337 486 
Q 3600 544 3809 666 
z
" transform="scale(0.015625)"/>
      </defs>
      <use xlink:href="#DejaVuSans-47"/>
      <use xlink:href="#DejaVuSans-6c" x="77.490234"/>
      <use xlink:href="#DejaVuSans-65" x="105.273438"/>
      <use xlink:href="#DejaVuSans-6e" x="166.796875"/>
      <use xlink:href="#DejaVuSans-6e" x="230.175781"/>
      <use xlink:href="#DejaVuSans-20" x="293.554688"/>
      <use xlink:href="#DejaVuSans-43" x="325.341797"/>
      <use xlink:href="#DejaVuSans-6c" x="395.166016"/>
      <use xlink:href="#DejaVuSans-6f" x="422.949219"/>
      <use xlink:href="#DejaVuSans-73" x="484.130859"/>
      <use xlink:href="#DejaVuSans-65" x="536.230469"/>
     </g>
    </g>
   </g>
   <g id="text_8">
    <g id="patch_9">
     <path d="M 32.964231 251.737805 
L 116.574231 251.737805 
L 116.574231 235.107493 
L 32.964231 235.107493 
z
" clip-path="url(#pa697d390d7)" style="fill: #ffffff; opacity: 0.7; stroke: #000000; stroke-linejoin: miter"/>
    </g>
    <g clip-path="url(#pa697d390d7)">
     <!-- Morgan Freeman -->
     <g transform="translate(36.924231 245.906086)scale(0.09 -0.09)">
      <defs>
       <path id="DejaVuSans-4d" d="M 628 4666 
L 1569 4666 
L 2759 1491 
L 3956 4666 
L 4897 4666 
L 4897 0 
L 4281 0 
L 4281 4097 
L 3078 897 
L 2444 897 
L 1241 4097 
L 1241 0 
L 628 0 
L 628 4666 
z
" transform="scale(0.015625)"/>
       <path id="DejaVuSans-67" d="M 2906 1791 
Q 2906 2416 2648 2759 
Q 2391 3103 1925 3103 
Q 1463 3103 1205 2759 
Q 947 2416 947 1791 
Q 947 1169 1205 825 
Q 1463 481 1925 481 
Q 2391 481 2648 825 
Q 2906 1169 2906 1791 
z
M 3481 434 
Q 3481 -459 3084 -895 
Q 2688 -1331 1869 -1331 
Q 1566 -1331 1297 -1286 
Q 1028 -1241 775 -1147 
L 775 -588 
Q 1028 -725 1275 -790 
Q 1522 -856 1778 -856 
Q 2344 -856 2625 -561 
Q 2906 -266 2906 331 
L 2906 616 
Q 2728 306 2450 153 
Q 2172 0 1784 0 
Q 1141 0 747 490 
Q 353 981 353 1791 
Q 353 2603 747 3093 
Q 1141 3584 1784 3584 
Q 2172 3584 2450 3431 
Q 2728 3278 2906 2969 
L 2906 3500 
L 3481 3500 
L 3481 434 
z
" transform="scale(0.015625)"/>
       <path id="DejaVuSans-46" d="M 628 4666 
L 3309 4666 
L 3309 4134 
L 1259 4134 
L 1259 2759 
L 3109 2759 
L 3109 2228 
L 1259 2228 
L 1259 0 
L 628 0 
L 628 4666 
z
" transform="scale(0.015625)"/>
      </defs>
      <use xlink:href="#DejaVuSans-4d"/>
      <use xlink:href="#DejaVuSans-6f" x="86.279297"/>
      <use xlink:href="#DejaVuSans-72" x="147.460938"/>
      <use xlink:href="#DejaVuSans-67" x="186.824219"/>
      <use xlink:href="#DejaVuSans-61" x="250.300781"/>
      <use xlink:href="#DejaVuSans-6e" x="311.580078"/>
      <use xlink:href="#DejaVuSans-20" x="374.958984"/>
      <use xlink:href="#DejaVuSans-46" x="406.746094"/>
      <use xlink:href="#DejaVuSans-72" x="457.015625"/>
      <use xlink:href="#DejaVuSans-65" x="495.878906"/>
      <use xlink:href="#DejaVuSans-65" x="557.402344"/>
      <use xlink:href="#DejaVuSans-6d" x="618.925781"/>
      <use xlink:href="#DejaVuSans-61" x="716.337891"/>
      <use xlink:href="#DejaVuSans-6e" x="777.617188"/>
     </g>
    </g>
   </g>
   <g id="text_9">
    <g id="patch_10">
     <path d="M 30.22065 340.892546 
L 119.317837 340.892546 
L 119.317837 324.262233 
L 30.22065 324.262233 
z
" clip-path="url(#pa697d390d7)" style="fill: #ffffff; opacity: 0.7; stroke: #000000; stroke-linejoin: miter"/>
    </g>
    <g clip-path="url(#pa697d390d7)">
     <!-- David McCullough -->
     <g transform="translate(34.18065 335.060827)scale(0.09 -0.09)">
      <defs>
       <path id="DejaVuSans-44" d="M 1259 4147 
L 1259 519 
L 2022 519 
Q 2988 519 3436 956 
Q 3884 1394 3884 2338 
Q 3884 3275 3436 3711 
Q 2988 4147 2022 4147 
L 1259 4147 
z
M 628 4666 
L 1925 4666 
Q 3281 4666 3915 4102 
Q 4550 3538 4550 2338 
Q 4550 1131 3912 565 
Q 3275 0 1925 0 
L 628 0 
L 628 4666 
z
" transform="scale(0.015625)"/>
       <path id="DejaVuSans-64" d="M 2906 2969 
L 2906 4863 
L 3481 4863 
L 3481 0 
L 2906 0 
L 2906 525 
Q 2725 213 2448 61 
Q 2172 -91 1784 -91 
Q 1150 -91 751 415 
Q 353 922 353 1747 
Q 353 2572 751 3078 
Q 1150 3584 1784 3584 
Q 2172 3584 2448 3432 
Q 2725 3281 2906 2969 
z
M 947 1747 
Q 947 1113 1208 752 
Q 1469 391 1925 391 
Q 2381 391 2643 752 
Q 2906 1113 2906 1747 
Q 2906 2381 2643 2742 
Q 2381 3103 1925 3103 
Q 1469 3103 1208 2742 
Q 947 2381 947 1747 
z
" transform="scale(0.015625)"/>
      </defs>
      <use xlink:href="#DejaVuSans-44"/>
      <use xlink:href="#DejaVuSans-61" x="77.001953"/>
      <use xlink:href="#DejaVuSans-76" x="138.28125"/>
      <use xlink:href="#DejaVuSans-69" x="197.460938"/>
      <use xlink:href="#DejaVuSans-64" x="225.244141"/>
      <use xlink:href="#DejaVuSans-20" x="288.720703"/>
      <use xlink:href="#DejaVuSans-4d" x="320.507812"/>
      <use xlink:href="#DejaVuSans-63" x="406.787109"/>
      <use xlink:href="#DejaVuSans-43" x="461.767578"/>
      <use xlink:href="#DejaVuSans-75" x="531.591797"/>
      <use xlink:href="#DejaVuSans-6c" x="594.970703"/>
      <use xlink:href="#DejaVuSans-6c" x="622.753906"/>
      <use xlink:href="#DejaVuSans-6f" x="650.537109"/>
      <use xlink:href="#DejaVuSans-75" x="711.71875"/>
      <use xlink:href="#DejaVuSans-67" x="775.097656"/>
      <use xlink:href="#DejaVuSans-68" x="838.574219"/>
     </g>
    </g>
   </g>
   <g id="text_10">
    <g id="patch_11">
     <path d="M 88.289927 422.33944 
L 134.173052 422.33944 
L 134.173052 405.709128 
L 88.289927 405.709128 
z
" clip-path="url(#pa697d390d7)" style="fill: #ffffff; opacity: 0.7; stroke: #000000; stroke-linejoin: miter"/>
    </g>
    <g clip-path="url(#pa697d390d7)">
     <!-- Jay Leno -->
     <g transform="translate(92.249927 416.507722)scale(0.09 -0.09)">
      <defs>
       <path id="DejaVuSans-4c" d="M 628 4666 
L 1259 4666 
L 1259 531 
L 3531 531 
L 3531 0 
L 628 0 
L 628 4666 
z
" transform="scale(0.015625)"/>
      </defs>
      <use xlink:href="#DejaVuSans-4a"/>
      <use xlink:href="#DejaVuSans-61" x="29.492188"/>
      <use xlink:href="#DejaVuSans-79" x="90.771484"/>
      <use xlink:href="#DejaVuSans-20" x="149.951172"/>
      <use xlink:href="#DejaVuSans-4c" x="181.738281"/>
      <use xlink:href="#DejaVuSans-65" x="235.701172"/>
      <use xlink:href="#DejaVuSans-6e" x="297.224609"/>
      <use xlink:href="#DejaVuSans-6f" x="360.603516"/>
     </g>
    </g>
   </g>
   <g id="text_11">
    <g id="patch_12">
     <path d="M 148.324299 481.995602 
L 207.378361 481.995602 
L 207.378361 465.365289 
L 148.324299 465.365289 
z
" clip-path="url(#pa697d390d7)" style="fill: #ffffff; opacity: 0.7; stroke: #000000; stroke-linejoin: miter"/>
    </g>
    <g clip-path="url(#pa697d390d7)">
     <!-- Scott Ritter -->
     <g transform="translate(152.284299 476.163883)scale(0.09 -0.09)">
      <defs>
       <path id="DejaVuSans-52" d="M 2841 2188 
Q 3044 2119 3236 1894 
Q 3428 1669 3622 1275 
L 4263 0 
L 3584 0 
L 2988 1197 
Q 2756 1666 2539 1819 
Q 2322 1972 1947 1972 
L 1259 1972 
L 1259 0 
L 628 0 
L 628 4666 
L 2053 4666 
Q 2853 4666 3247 4331 
Q 3641 3997 3641 3322 
Q 3641 2881 3436 2590 
Q 3231 2300 2841 2188 
z
M 1259 4147 
L 1259 2491 
L 2053 2491 
Q 2509 2491 2742 2702 
Q 2975 2913 2975 3322 
Q 2975 3731 2742 3939 
Q 2509 4147 2053 4147 
L 1259 4147 
z
" transform="scale(0.015625)"/>
      </defs>
      <use xlink:href="#DejaVuSans-53"/>
      <use xlink:href="#DejaVuSans-63" x="63.476562"/>
      <use xlink:href="#DejaVuSans-6f" x="118.457031"/>
      <use xlink:href="#DejaVuSans-74" x="179.638672"/>
      <use xlink:href="#DejaVuSans-74" x="218.847656"/>
      <use xlink:href="#DejaVuSans-20" x="258.056641"/>
      <use xlink:href="#DejaVuSans-52" x="289.84375"/>
      <use xlink:href="#DejaVuSans-69" x="359.326172"/>
      <use xlink:href="#DejaVuSans-74" x="387.109375"/>
      <use xlink:href="#DejaVuSans-74" x="426.318359"/>
      <use xlink:href="#DejaVuSans-65" x="465.527344"/>
      <use xlink:href="#DejaVuSans-72" x="527.050781"/>
     </g>
    </g>
   </g>
   <g id="text_12">
    <g id="patch_13">
     <path d="M 231.883103 509.545925 
L 294.336072 509.545925 
L 294.336072 492.915613 
L 231.883103 492.915613 
z
" clip-path="url(#pa697d390d7)" style="fill: #ffffff; opacity: 0.7; stroke: #000000; stroke-linejoin: miter"/>
    </g>
    <g clip-path="url(#pa697d390d7)">
     <!-- Jimi Hendrix -->
     <g transform="translate(235.843103 503.714207)scale(0.09 -0.09)">
      <defs>
       <path id="DejaVuSans-48" d="M 628 4666 
L 1259 4666 
L 1259 2753 
L 3553 2753 
L 3553 4666 
L 4184 4666 
L 4184 0 
L 3553 0 
L 3553 2222 
L 1259 2222 
L 1259 0 
L 628 0 
L 628 4666 
z
" transform="scale(0.015625)"/>
       <path id="DejaVuSans-78" d="M 3513 3500 
L 2247 1797 
L 3578 0 
L 2900 0 
L 1881 1375 
L 863 0 
L 184 0 
L 1544 1831 
L 300 3500 
L 978 3500 
L 1906 2253 
L 2834 3500 
L 3513 3500 
z
" transform="scale(0.015625)"/>
      </defs>
      <use xlink:href="#DejaVuSans-4a"/>
      <use xlink:href="#DejaVuSans-69" x="29.492188"/>
      <use xlink:href="#DejaVuSans-6d" x="57.275391"/>
      <use xlink:href="#DejaVuSans-69" x="154.6875"/>
      <use xlink:href="#DejaVuSans-20" x="182.470703"/>
      <use xlink:href="#DejaVuSans-48" x="214.257812"/>
      <use xlink:href="#DejaVuSans-65" x="289.453125"/>
      <use xlink:href="#DejaVuSans-6e" x="350.976562"/>
      <use xlink:href="#DejaVuSans-64" x="414.355469"/>
      <use xlink:href="#DejaVuSans-72" x="477.832031"/>
      <use xlink:href="#DejaVuSans-69" x="518.945312"/>
      <use xlink:href="#DejaVuSans-78" x="546.728516"/>
     </g>
    </g>
   </g>
   <g id="text_13">
    <g id="patch_14">
     <path d="M 318.724558 500.226706 
L 385.804089 500.226706 
L 385.804089 483.596393 
L 318.724558 483.596393 
z
" clip-path="url(#pa697d390d7)" style="fill: #ffffff; opacity: 0.7; stroke: #000000; stroke-linejoin: miter"/>
    </g>
    <g clip-path="url(#pa697d390d7)">
     <!-- Ravi Shankar -->
     <g transform="translate(322.684558 494.394987)scale(0.09 -0.09)">
      <defs>
       <path id="DejaVuSans-6b" d="M 581 4863 
L 1159 4863 
L 1159 1991 
L 2875 3500 
L 3609 3500 
L 1753 1863 
L 3688 0 
L 2938 0 
L 1159 1709 
L 1159 0 
L 581 0 
L 581 4863 
z
" transform="scale(0.015625)"/>
      </defs>
      <use xlink:href="#DejaVuSans-52"/>
      <use xlink:href="#DejaVuSans-61" x="67.232422"/>
      <use xlink:href="#DejaVuSans-76" x="128.511719"/>
      <use xlink:href="#DejaVuSans-69" x="187.691406"/>
      <use xlink:href="#DejaVuSans-20" x="215.474609"/>
      <use xlink:href="#DejaVuSans-53" x="247.261719"/>
      <use xlink:href="#DejaVuSans-68" x="310.738281"/>
      <use xlink:href="#DejaVuSans-61" x="374.117188"/>
      <use xlink:href="#DejaVuSans-6e" x="435.396484"/>
      <use xlink:href="#DejaVuSans-6b" x="498.775391"/>
      <use xlink:href="#DejaVuSans-61" x="554.935547"/>
      <use xlink:href="#DejaVuSans-72" x="616.214844"/>
     </g>
    </g>
   </g>
   <g id="text_14">
    <g id="patch_15">
     <path d="M 395.619732 455.649316 
L 464.180045 455.649316 
L 464.180045 439.019004 
L 395.619732 439.019004 
z
" clip-path="url(#pa697d390d7)" style="fill: #ffffff; opacity: 0.7; stroke: #000000; stroke-linejoin: miter"/>
    </g>
    <g clip-path="url(#pa697d390d7)">
     <!-- John Lasseter -->
     <g transform="translate(399.579732 449.817598)scale(0.09 -0.09)">
      <use xlink:href="#DejaVuSans-4a"/>
      <use xlink:href="#DejaVuSans-6f" x="29.492188"/>
      <use xlink:href="#DejaVuSans-68" x="90.673828"/>
      <use xlink:href="#DejaVuSans-6e" x="154.052734"/>
      <use xlink:href="#DejaVuSans-20" x="217.431641"/>
      <use xlink:href="#DejaVuSans-4c" x="249.21875"/>
      <use xlink:href="#DejaVuSans-61" x="304.931641"/>
      <use xlink:href="#DejaVuSans-73" x="366.210938"/>
      <use xlink:href="#DejaVuSans-73" x="418.310547"/>
      <use xlink:href="#DejaVuSans-65" x="470.410156"/>
      <use xlink:href="#DejaVuSans-74" x="531.933594"/>
      <use xlink:href="#DejaVuSans-65" x="571.142578"/>
      <use xlink:href="#DejaVuSans-72" x="632.666016"/>
     </g>
    </g>
   </g>
   <g id="text_15">
    <g id="patch_16">
     <path d="M 453.599717 383.521616 
L 511.58503 383.521616 
L 511.58503 366.891303 
L 453.599717 366.891303 
z
" clip-path="url(#pa697d390d7)" style="fill: #ffffff; opacity: 0.7; stroke: #000000; stroke-linejoin: miter"/>
    </g>
    <g clip-path="url(#pa697d390d7)">
     <!-- Keith Moon -->
     <g transform="translate(457.559717 377.689897)scale(0.09 -0.09)">
      <defs>
       <path id="DejaVuSans-4b" d="M 628 4666 
L 1259 4666 
L 1259 2694 
L 3353 4666 
L 4166 4666 
L 1850 2491 
L 4331 0 
L 3500 0 
L 1259 2247 
L 1259 0 
L 628 0 
L 628 4666 
z
" transform="scale(0.015625)"/>
      </defs>
      <use xlink:href="#DejaVuSans-4b"/>
      <use xlink:href="#DejaVuSans-65" x="60.576172"/>
      <use xlink:href="#DejaVuSans-69" x="122.099609"/>
      <use xlink:href="#DejaVuSans-74" x="149.882812"/>
      <use xlink:href="#DejaVuSans-68" x="189.091797"/>
      <use xlink:href="#DejaVuSans-20" x="252.470703"/>
      <use xlink:href="#DejaVuSans-4d" x="284.257812"/>
      <use xlink:href="#DejaVuSans-6f" x="370.537109"/>
      <use xlink:href="#DejaVuSans-6f" x="431.71875"/>
      <use xlink:href="#DejaVuSans-6e" x="492.900391"/>
     </g>
    </g>
   </g>
   <g id="text_16">
    <!-- Impactful actors for Documentary genre -->
    <g transform="translate(167.0925 4.8)scale(0.12 -0.12)">
     <defs>
      <path id="DejaVuSans-49" d="M 628 4666 
L 1259 4666 
L 1259 0 
L 628 0 
L 628 4666 
z
" transform="scale(0.015625)"/>
      <path id="DejaVuSans-66" d="M 2375 4863 
L 2375 4384 
L 1825 4384 
Q 1516 4384 1395 4259 
Q 1275 4134 1275 3809 
L 1275 3500 
L 2222 3500 
L 2222 3053 
L 1275 3053 
L 1275 0 
L 697 0 
L 697 3053 
L 147 3053 
L 147 3500 
L 697 3500 
L 697 3744 
Q 697 4328 969 4595 
Q 1241 4863 1831 4863 
L 2375 4863 
z
" transform="scale(0.015625)"/>
     </defs>
     <use xlink:href="#DejaVuSans-49"/>
     <use xlink:href="#DejaVuSans-6d" x="29.492188"/>
     <use xlink:href="#DejaVuSans-70" x="126.904297"/>
     <use xlink:href="#DejaVuSans-61" x="190.380859"/>
     <use xlink:href="#DejaVuSans-63" x="251.660156"/>
     <use xlink:href="#DejaVuSans-74" x="306.640625"/>
     <use xlink:href="#DejaVuSans-66" x="345.849609"/>
     <use xlink:href="#DejaVuSans-75" x="381.054688"/>
     <use xlink:href="#DejaVuSans-6c" x="444.433594"/>
     <use xlink:href="#DejaVuSans-20" x="472.216797"/>
     <use xlink:href="#DejaVuSans-61" x="504.003906"/>
     <use xlink:href="#DejaVuSans-63" x="565.283203"/>
     <use xlink:href="#DejaVuSans-74" x="620.263672"/>
     <use xlink:href="#DejaVuSans-6f" x="659.472656"/>
     <use xlink:href="#DejaVuSans-72" x="720.654297"/>
     <use xlink:href="#DejaVuSans-73" x="761.767578"/>
     <use xlink:href="#DejaVuSans-20" x="813.867188"/>
     <use xlink:href="#DejaVuSans-66" x="845.654297"/>
     <use xlink:href="#DejaVuSans-6f" x="880.859375"/>
     <use xlink:href="#DejaVuSans-72" x="942.041016"/>
     <use xlink:href="#DejaVuSans-20" x="983.154297"/>
     <use xlink:href="#DejaVuSans-44" x="1014.941406"/>
     <use xlink:href="#DejaVuSans-6f" x="1091.943359"/>
     <use xlink:href="#DejaVuSans-63" x="1153.125"/>
     <use xlink:href="#DejaVuSans-75" x="1208.105469"/>
     <use xlink:href="#DejaVuSans-6d" x="1271.484375"/>
     <use xlink:href="#DejaVuSans-65" x="1368.896484"/>
     <use xlink:href="#DejaVuSans-6e" x="1430.419922"/>
     <use xlink:href="#DejaVuSans-74" x="1493.798828"/>
     <use xlink:href="#DejaVuSans-61" x="1533.007812"/>
     <use xlink:href="#DejaVuSans-72" x="1594.287109"/>
     <use xlink:href="#DejaVuSans-79" x="1635.400391"/>
     <use xlink:href="#DejaVuSans-20" x="1694.580078"/>
     <use xlink:href="#DejaVuSans-67" x="1726.367188"/>
     <use xlink:href="#DejaVuSans-65" x="1789.84375"/>
     <use xlink:href="#DejaVuSans-6e" x="1851.367188"/>
     <use xlink:href="#DejaVuSans-72" x="1914.746094"/>
     <use xlink:href="#DejaVuSans-65" x="1953.609375"/>
    </g>
   </g>
  </g>
 </g>
 <defs>
  <clipPath id="pa697d390d7">
   <rect x="10.8" y="10.8" width="554.4" height="554.4"/>
  </clipPath>
 </defs>
</svg>
