<?xml version="1.0" encoding="utf-8" standalone="no"?>
<!DOCTYPE svg PUBLIC "-//W3C//DTD SVG 1.1//EN"
  "http://www.w3.org/Graphics/SVG/1.1/DTD/svg11.dtd">
<svg xmlns:xlink="http://www.w3.org/1999/xlink" width="568.8pt" height="583.918125pt" viewBox="0 0 568.8 583.918125" xmlns="http://www.w3.org/2000/svg" version="1.1">
 <metadata>
  <rdf:RDF xmlns:dc="http://purl.org/dc/elements/1.1/" xmlns:cc="http://creativecommons.org/ns#" xmlns:rdf="http://www.w3.org/1999/02/22-rdf-syntax-ns#">
   <cc:Work>
    <dc:type rdf:resource="http://purl.org/dc/dcmitype/StillImage"/>
    <dc:date>2022-12-23T17:29:54.975600</dc:date>
    <dc:format>image/svg+xml</dc:format>
    <dc:creator>
     <cc:Agent>
      <dc:title>Matplotlib v3.5.2, https://matplotlib.org/</dc:title>
     </cc:Agent>
    </dc:creator>
   </cc:Work>
  </rdf:RDF>
 </metadata>
 <defs>
  <style type="text/css">*{stroke-linejoin: round; stroke-linecap: butt}</style>
 </defs>
 <g id="figure_1">
  <g id="patch_1">
   <path d="M 0 583.918125 
L 568.8 583.918125 
L 568.8 0 
L 0 0 
z
" style="fill: #ffffff"/>
  </g>
  <g id="axes_1">
   <g id="LineCollection_1">
    <path d="M 348.664291 96.949639 
L 259.509549 87.660437 
" clip-path="url(#pda901501a8)" style="fill: none; stroke: #000000; stroke-opacity: 0.3; stroke-width: 5"/>
    <path d="M 348.664291 96.949639 
L 174.251298 115.12207 
" clip-path="url(#pda901501a8)" style="fill: none; stroke: #000000; stroke-opacity: 0.3; stroke-width: 10"/>
    <path d="M 259.509549 87.660437 
L 174.251298 115.12207 
" clip-path="url(#pda901501a8)" style="fill: none; stroke: #000000; stroke-opacity: 0.3; stroke-width: 5"/>
   </g>
   <g id="PathCollection_1">
    <path d="M 497.630769 327.590794 
C 504.893655 327.590794 511.86005 324.705218 516.995686 319.569583 
C 522.131322 314.433947 525.016897 307.467552 525.016897 300.204666 
C 525.016897 292.94178 522.131322 285.975385 516.995686 280.839749 
C 511.86005 275.704113 504.893655 272.818538 497.630769 272.818538 
C 490.367883 272.818538 483.401488 275.704113 478.265852 280.839749 
C 473.130217 285.975385 470.244641 292.94178 470.244641 300.204666 
C 470.244641 307.467552 473.130217 314.433947 478.265852 319.569583 
C 483.401488 324.705218 490.367883 327.590794 497.630769 327.590794 
z
" clip-path="url(#pda901501a8)" style="fill: #c70039; fill-opacity: 0.99; stroke: #c70039; stroke-opacity: 0.99"/>
    <path d="M 478.992348 234.887259 
C 484.722937 234.887259 490.219588 232.610471 494.271727 228.558333 
C 498.323866 224.506194 500.600653 219.009543 500.600653 213.278954 
C 500.600653 207.548364 498.323866 202.051713 494.271727 197.999575 
C 490.219588 193.947436 484.722937 191.670649 478.992348 191.670649 
C 473.261758 191.670649 467.765107 193.947436 463.712969 197.999575 
C 459.66083 202.051713 457.384043 207.548364 457.384043 213.278954 
C 457.384043 219.009543 459.66083 224.506194 463.712969 228.558333 
C 467.765107 232.610471 473.261758 234.887259 478.992348 234.887259 
z
" clip-path="url(#pda901501a8)" style="fill: #c70039; fill-opacity: 0.99; stroke: #c70039; stroke-opacity: 0.99"/>
    <path d="M 426.29985 162.69991 
C 431.953034 162.69991 437.37544 160.453876 441.372844 156.456472 
C 445.370249 152.459067 447.616283 147.036661 447.616283 141.383477 
C 447.616283 135.730293 445.370249 130.307887 441.372844 126.310482 
C 437.37544 122.313078 431.953034 120.067044 426.29985 120.067044 
C 420.646666 120.067044 415.22426 122.313078 411.226855 126.310482 
C 407.22945 130.307887 404.983417 135.730293 404.983417 141.383477 
C 404.983417 147.036661 407.22945 152.459067 411.226855 156.456472 
C 415.22426 160.453876 420.646666 162.69991 426.29985 162.69991 
z
" clip-path="url(#pda901501a8)" style="fill: #c70039; fill-opacity: 0.99; stroke: #c70039; stroke-opacity: 0.99"/>
    <path d="M 348.664291 117.918093 
C 354.22519 117.918093 359.559077 115.708724 363.491227 111.776575 
C 367.423376 107.844425 369.632745 102.510538 369.632745 96.949639 
C 369.632745 91.38874 367.423376 86.054853 363.491227 82.122704 
C 359.559077 78.190554 354.22519 75.981186 348.664291 75.981186 
C 343.103392 75.981186 337.769505 78.190554 333.837356 82.122704 
C 329.905206 86.054853 327.695838 91.38874 327.695838 96.949639 
C 327.695838 102.510538 329.905206 107.844425 333.837356 111.776575 
C 337.769505 115.708724 343.103392 117.918093 348.664291 117.918093 
z
" clip-path="url(#pda901501a8)" style="fill: #c70039; fill-opacity: 0.99; stroke: #c70039; stroke-opacity: 0.99"/>
    <path d="M 259.509549 108.628891 
C 265.070447 108.628891 270.404335 106.419522 274.336484 102.487373 
C 278.268633 98.555224 280.478002 93.221336 280.478002 87.660437 
C 280.478002 82.099539 278.268633 76.765651 274.336484 72.833502 
C 270.404335 68.901353 265.070447 66.691984 259.509549 66.691984 
C 253.94865 66.691984 248.614762 68.901353 244.682613 72.833502 
C 240.750464 76.765651 238.541095 82.099539 238.541095 87.660437 
C 238.541095 93.221336 240.750464 98.555224 244.682613 102.487373 
C 248.614762 106.419522 253.94865 108.628891 259.509549 108.628891 
z
" clip-path="url(#pda901501a8)" style="fill: #c70039; fill-opacity: 0.99; stroke: #c70039; stroke-opacity: 0.99"/>
    <path d="M 174.251298 135.817292 
C 179.739735 135.817292 185.004119 133.636713 188.88503 129.755802 
C 192.765941 125.874891 194.946521 120.610507 194.946521 115.12207 
C 194.946521 109.633633 192.765941 104.369249 188.88503 100.488338 
C 185.004119 96.607427 179.739735 94.426847 174.251298 94.426847 
C 168.762861 94.426847 163.498477 96.607427 159.617566 100.488338 
C 155.736655 104.369249 153.556076 109.633633 153.556076 115.12207 
C 153.556076 120.610507 155.736655 125.874891 159.617566 129.755802 
C 163.498477 133.636713 168.762861 135.817292 174.251298 135.817292 
z
" clip-path="url(#pda901501a8)" style="fill: #c70039; fill-opacity: 0.99; stroke: #c70039; stroke-opacity: 0.99"/>
    <path d="M 107.631477 194.929098 
C 113.026488 194.929098 118.20126 192.785638 122.016109 188.970788 
C 125.830959 185.155939 127.974419 179.981167 127.974419 174.586156 
C 127.974419 169.191145 125.830959 164.016373 122.016109 160.201523 
C 118.20126 156.386674 113.026488 154.243214 107.631477 154.243214 
C 102.236466 154.243214 97.061694 156.386674 93.246845 160.201523 
C 89.431995 164.016373 87.288535 169.191145 87.288535 174.586156 
C 87.288535 179.981167 89.431995 185.155939 93.246845 188.970788 
C 97.061694 192.785638 102.236466 194.929098 107.631477 194.929098 
z
" clip-path="url(#pda901501a8)" style="fill: #c70039; fill-opacity: 0.99; stroke: #c70039; stroke-opacity: 0.99"/>
    <path d="M 71.169231 275.983165 
C 76.529602 275.983165 81.671148 273.853467 85.461503 270.063113 
C 89.251857 266.272758 91.381555 261.131212 91.381555 255.770841 
C 91.381555 250.41047 89.251857 245.268924 85.461503 241.478569 
C 81.671148 237.688214 76.529602 235.558516 71.169231 235.558516 
C 65.80886 235.558516 60.667314 237.688214 56.876959 241.478569 
C 53.086604 245.268924 50.956906 250.41047 50.956906 255.770841 
C 50.956906 261.131212 53.086604 266.272758 56.876959 270.063113 
C 60.667314 273.853467 65.80886 275.983165 71.169231 275.983165 
z
" clip-path="url(#pda901501a8)" style="fill: #c70039; fill-opacity: 0.99; stroke: #c70039; stroke-opacity: 0.99"/>
    <path d="M 71.169244 364.774239 
C 76.509296 364.774239 81.631353 362.652614 85.407341 358.876626 
C 89.183328 355.100639 91.304954 349.978582 91.304954 344.638529 
C 91.304954 339.298476 89.183328 334.176419 85.407341 330.400432 
C 81.631353 326.624444 76.509296 324.502819 71.169244 324.502819 
C 65.829191 324.502819 60.707134 326.624444 56.931146 330.400432 
C 53.155159 334.176419 51.033533 339.298476 51.033533 344.638529 
C 51.033533 349.978582 53.155159 355.100639 56.931146 358.876626 
C 60.707134 362.652614 65.829191 364.774239 71.169244 364.774239 
z
" clip-path="url(#pda901501a8)" style="fill: #c70039; fill-opacity: 0.99; stroke: #c70039; stroke-opacity: 0.99"/>
    <path d="M 107.63149 445.942541 
C 112.967205 445.942541 118.085101 443.822639 121.858021 440.049719 
C 125.630941 436.276799 127.750843 431.158903 127.750843 425.823188 
C 127.750843 420.487474 125.630941 415.369578 121.858021 411.596658 
C 118.085101 407.823738 112.967205 405.703836 107.63149 405.703836 
C 102.295775 405.703836 97.177879 407.823738 93.404959 411.596658 
C 89.632039 415.369578 87.512137 420.487474 87.512137 425.823188 
C 87.512137 431.158903 89.632039 436.276799 93.404959 440.049719 
C 97.177879 443.822639 102.295775 445.942541 107.63149 445.942541 
z
" clip-path="url(#pda901501a8)" style="fill: #c70039; fill-opacity: 0.99; stroke: #c70039; stroke-opacity: 0.99"/>
    <path d="M 174.25133 505.393188 
C 179.583481 505.393188 184.697958 503.274702 188.468358 499.504302 
C 192.238757 495.733902 194.357243 490.619425 194.357243 485.287275 
C 194.357243 479.955124 192.238757 474.840647 188.468358 471.070247 
C 184.697958 467.299847 179.583481 465.181361 174.25133 465.181361 
C 168.91918 465.181361 163.804702 467.299847 160.034303 471.070247 
C 156.263903 474.840647 154.145417 479.955124 154.145417 485.287275 
C 154.145417 490.619425 156.263903 495.733902 160.034303 499.504302 
C 163.804702 503.274702 168.91918 505.393188 174.25133 505.393188 
z
" clip-path="url(#pda901501a8)" style="fill: #c70039; fill-opacity: 0.99; stroke: #c70039; stroke-opacity: 0.99"/>
    <path d="M 259.509587 532.696379 
C 264.799722 532.696379 269.873899 530.594587 273.614589 526.853896 
C 277.355279 523.113206 279.457072 518.039029 279.457072 512.748894 
C 279.457072 507.458759 277.355279 502.384582 273.614589 498.643892 
C 269.873899 494.903202 264.799722 492.801409 259.509587 492.801409 
C 254.219452 492.801409 249.145275 494.903202 245.404585 498.643892 
C 241.663895 502.384582 239.562102 507.458759 239.562102 512.748894 
C 239.562102 518.039029 241.663895 523.113206 245.404585 526.853896 
C 249.145275 530.594587 254.219452 532.696379 259.509587 532.696379 
z
" clip-path="url(#pda901501a8)" style="fill: #c70039; fill-opacity: 0.99; stroke: #c70039; stroke-opacity: 0.99"/>
    <path d="M 348.664323 523.310427 
C 353.928803 523.310427 358.978372 521.218827 362.700921 517.496277 
C 366.42347 513.773728 368.51507 508.724159 368.51507 503.45968 
C 368.51507 498.1952 366.42347 493.145631 362.700921 489.423082 
C 358.978372 485.700533 353.928803 483.608933 348.664323 483.608933 
C 343.399844 483.608933 338.350275 485.700533 334.627726 489.423082 
C 330.905176 493.145631 328.813576 498.1952 328.813576 503.45968 
C 328.813576 508.724159 330.905176 513.773728 334.627726 517.496277 
C 338.350275 521.218827 343.399844 523.310427 348.664323 523.310427 
z
" clip-path="url(#pda901501a8)" style="fill: #c70039; fill-opacity: 0.99; stroke: #c70039; stroke-opacity: 0.99"/>
    <path d="M 426.299888 478.854335 
C 431.558473 478.854335 436.602388 476.765077 440.320769 473.046697 
C 444.039149 469.328316 446.128407 464.284401 446.128407 459.025816 
C 446.128407 453.767232 444.039149 448.723317 440.320769 445.004936 
C 436.602388 441.286555 431.558473 439.197298 426.299888 439.197298 
C 421.041304 439.197298 415.997389 441.286555 412.279008 445.004936 
C 408.560627 448.723317 406.47137 453.767232 406.47137 459.025816 
C 406.47137 464.284401 408.560627 469.328316 412.279008 473.046697 
C 415.997389 476.765077 421.041304 478.854335 426.299888 478.854335 
z
" clip-path="url(#pda901501a8)" style="fill: #c70039; fill-opacity: 0.99; stroke: #c70039; stroke-opacity: 0.99"/>
    <path d="M 478.992374 406.495263 
C 484.128009 406.495263 489.053994 404.454853 492.685437 400.82341 
C 496.31688 397.191967 498.35729 392.265982 498.35729 387.130346 
C 498.35729 381.99471 496.31688 377.068725 492.685437 373.437282 
C 489.053994 369.805839 484.128009 367.765429 478.992374 367.765429 
C 473.856738 367.765429 468.930753 369.805839 465.29931 373.437282 
C 461.667867 377.068725 459.627457 381.99471 459.627457 387.130346 
C 459.627457 392.265982 461.667867 397.191967 465.29931 400.82341 
C 468.930753 404.454853 473.856738 406.495263 478.992374 406.495263 
z
" clip-path="url(#pda901501a8)" style="fill: #c70039; fill-opacity: 0.99; stroke: #c70039; stroke-opacity: 0.99"/>
   </g>
   <g id="text_1">
    <g id="patch_2">
     <path d="M 471.917488 308.519822 
L 523.34405 308.519822 
L 523.34405 291.88951 
L 471.917488 291.88951 
z
" clip-path="url(#pda901501a8)" style="fill: #ffffff; opacity: 0.7; stroke: #000000; stroke-linejoin: miter"/>
    </g>
    <g clip-path="url(#pda901501a8)">
     <!-- Mel Blanc -->
     <g transform="translate(475.877488 302.688103)scale(0.09 -0.09)">
      <defs>
       <path id="DejaVuSans-4d" d="M 628 4666 
L 1569 4666 
L 2759 1491 
L 3956 4666 
L 4897 4666 
L 4897 0 
L 4281 0 
L 4281 4097 
L 3078 897 
L 2444 897 
L 1241 4097 
L 1241 0 
L 628 0 
L 628 4666 
z
" transform="scale(0.015625)"/>
       <path id="DejaVuSans-65" d="M 3597 1894 
L 3597 1613 
L 953 1613 
Q 991 1019 1311 708 
Q 1631 397 2203 397 
Q 2534 397 2845 478 
Q 3156 559 3463 722 
L 3463 178 
Q 3153 47 2828 -22 
Q 2503 -91 2169 -91 
Q 1331 -91 842 396 
Q 353 884 353 1716 
Q 353 2575 817 3079 
Q 1281 3584 2069 3584 
Q 2775 3584 3186 3129 
Q 3597 2675 3597 1894 
z
M 3022 2063 
Q 3016 2534 2758 2815 
Q 2500 3097 2075 3097 
Q 1594 3097 1305 2825 
Q 1016 2553 972 2059 
L 3022 2063 
z
" transform="scale(0.015625)"/>
       <path id="DejaVuSans-6c" d="M 603 4863 
L 1178 4863 
L 1178 0 
L 603 0 
L 603 4863 
z
" transform="scale(0.015625)"/>
       <path id="DejaVuSans-20" transform="scale(0.015625)"/>
       <path id="DejaVuSans-42" d="M 1259 2228 
L 1259 519 
L 2272 519 
Q 2781 519 3026 730 
Q 3272 941 3272 1375 
Q 3272 1813 3026 2020 
Q 2781 2228 2272 2228 
L 1259 2228 
z
M 1259 4147 
L 1259 2741 
L 2194 2741 
Q 2656 2741 2882 2914 
Q 3109 3088 3109 3444 
Q 3109 3797 2882 3972 
Q 2656 4147 2194 4147 
L 1259 4147 
z
M 628 4666 
L 2241 4666 
Q 2963 4666 3353 4366 
Q 3744 4066 3744 3513 
Q 3744 3084 3544 2831 
Q 3344 2578 2956 2516 
Q 3422 2416 3680 2098 
Q 3938 1781 3938 1306 
Q 3938 681 3513 340 
Q 3088 0 2303 0 
L 628 0 
L 628 4666 
z
" transform="scale(0.015625)"/>
       <path id="DejaVuSans-61" d="M 2194 1759 
Q 1497 1759 1228 1600 
Q 959 1441 959 1056 
Q 959 750 1161 570 
Q 1363 391 1709 391 
Q 2188 391 2477 730 
Q 2766 1069 2766 1631 
L 2766 1759 
L 2194 1759 
z
M 3341 1997 
L 3341 0 
L 2766 0 
L 2766 531 
Q 2569 213 2275 61 
Q 1981 -91 1556 -91 
Q 1019 -91 701 211 
Q 384 513 384 1019 
Q 384 1609 779 1909 
Q 1175 2209 1959 2209 
L 2766 2209 
L 2766 2266 
Q 2766 2663 2505 2880 
Q 2244 3097 1772 3097 
Q 1472 3097 1187 3025 
Q 903 2953 641 2809 
L 641 3341 
Q 956 3463 1253 3523 
Q 1550 3584 1831 3584 
Q 2591 3584 2966 3190 
Q 3341 2797 3341 1997 
z
" transform="scale(0.015625)"/>
       <path id="DejaVuSans-6e" d="M 3513 2113 
L 3513 0 
L 2938 0 
L 2938 2094 
Q 2938 2591 2744 2837 
Q 2550 3084 2163 3084 
Q 1697 3084 1428 2787 
Q 1159 2491 1159 1978 
L 1159 0 
L 581 0 
L 581 3500 
L 1159 3500 
L 1159 2956 
Q 1366 3272 1645 3428 
Q 1925 3584 2291 3584 
Q 2894 3584 3203 3211 
Q 3513 2838 3513 2113 
z
" transform="scale(0.015625)"/>
       <path id="DejaVuSans-63" d="M 3122 3366 
L 3122 2828 
Q 2878 2963 2633 3030 
Q 2388 3097 2138 3097 
Q 1578 3097 1268 2742 
Q 959 2388 959 1747 
Q 959 1106 1268 751 
Q 1578 397 2138 397 
Q 2388 397 2633 464 
Q 2878 531 3122 666 
L 3122 134 
Q 2881 22 2623 -34 
Q 2366 -91 2075 -91 
Q 1284 -91 818 406 
Q 353 903 353 1747 
Q 353 2603 823 3093 
Q 1294 3584 2113 3584 
Q 2378 3584 2631 3529 
Q 2884 3475 3122 3366 
z
" transform="scale(0.015625)"/>
      </defs>
      <use xlink:href="#DejaVuSans-4d"/>
      <use xlink:href="#DejaVuSans-65" x="86.279297"/>
      <use xlink:href="#DejaVuSans-6c" x="147.802734"/>
      <use xlink:href="#DejaVuSans-20" x="175.585938"/>
      <use xlink:href="#DejaVuSans-42" x="207.373047"/>
      <use xlink:href="#DejaVuSans-6c" x="275.976562"/>
      <use xlink:href="#DejaVuSans-61" x="303.759766"/>
      <use xlink:href="#DejaVuSans-6e" x="365.039062"/>
      <use xlink:href="#DejaVuSans-63" x="428.417969"/>
     </g>
    </g>
   </g>
   <g id="text_2">
    <g id="patch_3">
     <path d="M 445.880082 221.59411 
L 512.104613 221.59411 
L 512.104613 204.963797 
L 445.880082 204.963797 
z
" clip-path="url(#pda901501a8)" style="fill: #ffffff; opacity: 0.7; stroke: #000000; stroke-linejoin: miter"/>
    </g>
    <g clip-path="url(#pda901501a8)">
     <!-- Nicolas Cage -->
     <g transform="translate(449.840082 215.762391)scale(0.09 -0.09)">
      <defs>
       <path id="DejaVuSans-4e" d="M 628 4666 
L 1478 4666 
L 3547 763 
L 3547 4666 
L 4159 4666 
L 4159 0 
L 3309 0 
L 1241 3903 
L 1241 0 
L 628 0 
L 628 4666 
z
" transform="scale(0.015625)"/>
       <path id="DejaVuSans-69" d="M 603 3500 
L 1178 3500 
L 1178 0 
L 603 0 
L 603 3500 
z
M 603 4863 
L 1178 4863 
L 1178 4134 
L 603 4134 
L 603 4863 
z
" transform="scale(0.015625)"/>
       <path id="DejaVuSans-6f" d="M 1959 3097 
Q 1497 3097 1228 2736 
Q 959 2375 959 1747 
Q 959 1119 1226 758 
Q 1494 397 1959 397 
Q 2419 397 2687 759 
Q 2956 1122 2956 1747 
Q 2956 2369 2687 2733 
Q 2419 3097 1959 3097 
z
M 1959 3584 
Q 2709 3584 3137 3096 
Q 3566 2609 3566 1747 
Q 3566 888 3137 398 
Q 2709 -91 1959 -91 
Q 1206 -91 779 398 
Q 353 888 353 1747 
Q 353 2609 779 3096 
Q 1206 3584 1959 3584 
z
" transform="scale(0.015625)"/>
       <path id="DejaVuSans-73" d="M 2834 3397 
L 2834 2853 
Q 2591 2978 2328 3040 
Q 2066 3103 1784 3103 
Q 1356 3103 1142 2972 
Q 928 2841 928 2578 
Q 928 2378 1081 2264 
Q 1234 2150 1697 2047 
L 1894 2003 
Q 2506 1872 2764 1633 
Q 3022 1394 3022 966 
Q 3022 478 2636 193 
Q 2250 -91 1575 -91 
Q 1294 -91 989 -36 
Q 684 19 347 128 
L 347 722 
Q 666 556 975 473 
Q 1284 391 1588 391 
Q 1994 391 2212 530 
Q 2431 669 2431 922 
Q 2431 1156 2273 1281 
Q 2116 1406 1581 1522 
L 1381 1569 
Q 847 1681 609 1914 
Q 372 2147 372 2553 
Q 372 3047 722 3315 
Q 1072 3584 1716 3584 
Q 2034 3584 2315 3537 
Q 2597 3491 2834 3397 
z
" transform="scale(0.015625)"/>
       <path id="DejaVuSans-43" d="M 4122 4306 
L 4122 3641 
Q 3803 3938 3442 4084 
Q 3081 4231 2675 4231 
Q 1875 4231 1450 3742 
Q 1025 3253 1025 2328 
Q 1025 1406 1450 917 
Q 1875 428 2675 428 
Q 3081 428 3442 575 
Q 3803 722 4122 1019 
L 4122 359 
Q 3791 134 3420 21 
Q 3050 -91 2638 -91 
Q 1578 -91 968 557 
Q 359 1206 359 2328 
Q 359 3453 968 4101 
Q 1578 4750 2638 4750 
Q 3056 4750 3426 4639 
Q 3797 4528 4122 4306 
z
" transform="scale(0.015625)"/>
       <path id="DejaVuSans-67" d="M 2906 1791 
Q 2906 2416 2648 2759 
Q 2391 3103 1925 3103 
Q 1463 3103 1205 2759 
Q 947 2416 947 1791 
Q 947 1169 1205 825 
Q 1463 481 1925 481 
Q 2391 481 2648 825 
Q 2906 1169 2906 1791 
z
M 3481 434 
Q 3481 -459 3084 -895 
Q 2688 -1331 1869 -1331 
Q 1566 -1331 1297 -1286 
Q 1028 -1241 775 -1147 
L 775 -588 
Q 1028 -725 1275 -790 
Q 1522 -856 1778 -856 
Q 2344 -856 2625 -561 
Q 2906 -266 2906 331 
L 2906 616 
Q 2728 306 2450 153 
Q 2172 0 1784 0 
Q 1141 0 747 490 
Q 353 981 353 1791 
Q 353 2603 747 3093 
Q 1141 3584 1784 3584 
Q 2172 3584 2450 3431 
Q 2728 3278 2906 2969 
L 2906 3500 
L 3481 3500 
L 3481 434 
z
" transform="scale(0.015625)"/>
      </defs>
      <use xlink:href="#DejaVuSans-4e"/>
      <use xlink:href="#DejaVuSans-69" x="74.804688"/>
      <use xlink:href="#DejaVuSans-63" x="102.587891"/>
      <use xlink:href="#DejaVuSans-6f" x="157.568359"/>
      <use xlink:href="#DejaVuSans-6c" x="218.75"/>
      <use xlink:href="#DejaVuSans-61" x="246.533203"/>
      <use xlink:href="#DejaVuSans-73" x="307.8125"/>
      <use xlink:href="#DejaVuSans-20" x="359.912109"/>
      <use xlink:href="#DejaVuSans-43" x="391.699219"/>
      <use xlink:href="#DejaVuSans-61" x="461.523438"/>
      <use xlink:href="#DejaVuSans-67" x="522.802734"/>
      <use xlink:href="#DejaVuSans-65" x="586.279297"/>
     </g>
    </g>
   </g>
   <g id="text_3">
    <g id="patch_4">
     <path d="M 393.243834 149.698633 
L 459.355865 149.698633 
L 459.355865 133.068321 
L 393.243834 133.068321 
z
" clip-path="url(#pda901501a8)" style="fill: #ffffff; opacity: 0.7; stroke: #000000; stroke-linejoin: miter"/>
    </g>
    <g clip-path="url(#pda901501a8)">
     <!-- John Travolta -->
     <g transform="translate(397.203834 143.866915)scale(0.09 -0.09)">
      <defs>
       <path id="DejaVuSans-4a" d="M 628 4666 
L 1259 4666 
L 1259 325 
Q 1259 -519 939 -900 
Q 619 -1281 -91 -1281 
L -331 -1281 
L -331 -750 
L -134 -750 
Q 284 -750 456 -515 
Q 628 -281 628 325 
L 628 4666 
z
" transform="scale(0.015625)"/>
       <path id="DejaVuSans-68" d="M 3513 2113 
L 3513 0 
L 2938 0 
L 2938 2094 
Q 2938 2591 2744 2837 
Q 2550 3084 2163 3084 
Q 1697 3084 1428 2787 
Q 1159 2491 1159 1978 
L 1159 0 
L 581 0 
L 581 4863 
L 1159 4863 
L 1159 2956 
Q 1366 3272 1645 3428 
Q 1925 3584 2291 3584 
Q 2894 3584 3203 3211 
Q 3513 2838 3513 2113 
z
" transform="scale(0.015625)"/>
       <path id="DejaVuSans-54" d="M -19 4666 
L 3928 4666 
L 3928 4134 
L 2272 4134 
L 2272 0 
L 1638 0 
L 1638 4134 
L -19 4134 
L -19 4666 
z
" transform="scale(0.015625)"/>
       <path id="DejaVuSans-72" d="M 2631 2963 
Q 2534 3019 2420 3045 
Q 2306 3072 2169 3072 
Q 1681 3072 1420 2755 
Q 1159 2438 1159 1844 
L 1159 0 
L 581 0 
L 581 3500 
L 1159 3500 
L 1159 2956 
Q 1341 3275 1631 3429 
Q 1922 3584 2338 3584 
Q 2397 3584 2469 3576 
Q 2541 3569 2628 3553 
L 2631 2963 
z
" transform="scale(0.015625)"/>
       <path id="DejaVuSans-76" d="M 191 3500 
L 800 3500 
L 1894 563 
L 2988 3500 
L 3597 3500 
L 2284 0 
L 1503 0 
L 191 3500 
z
" transform="scale(0.015625)"/>
       <path id="DejaVuSans-74" d="M 1172 4494 
L 1172 3500 
L 2356 3500 
L 2356 3053 
L 1172 3053 
L 1172 1153 
Q 1172 725 1289 603 
Q 1406 481 1766 481 
L 2356 481 
L 2356 0 
L 1766 0 
Q 1100 0 847 248 
Q 594 497 594 1153 
L 594 3053 
L 172 3053 
L 172 3500 
L 594 3500 
L 594 4494 
L 1172 4494 
z
" transform="scale(0.015625)"/>
      </defs>
      <use xlink:href="#DejaVuSans-4a"/>
      <use xlink:href="#DejaVuSans-6f" x="29.492188"/>
      <use xlink:href="#DejaVuSans-68" x="90.673828"/>
      <use xlink:href="#DejaVuSans-6e" x="154.052734"/>
      <use xlink:href="#DejaVuSans-20" x="217.431641"/>
      <use xlink:href="#DejaVuSans-54" x="249.21875"/>
      <use xlink:href="#DejaVuSans-72" x="295.552734"/>
      <use xlink:href="#DejaVuSans-61" x="336.666016"/>
      <use xlink:href="#DejaVuSans-76" x="397.945312"/>
      <use xlink:href="#DejaVuSans-6f" x="457.125"/>
      <use xlink:href="#DejaVuSans-6c" x="518.306641"/>
      <use xlink:href="#DejaVuSans-74" x="546.089844"/>
      <use xlink:href="#DejaVuSans-61" x="585.298828"/>
     </g>
    </g>
   </g>
   <g id="text_4">
    <g id="patch_5">
     <path d="M 322.591713 105.264795 
L 374.736869 105.264795 
L 374.736869 88.634483 
L 322.591713 88.634483 
z
" clip-path="url(#pda901501a8)" style="fill: #ffffff; opacity: 0.7; stroke: #000000; stroke-linejoin: miter"/>
    </g>
    <g clip-path="url(#pda901501a8)">
     <!-- Larry Fine -->
     <g transform="translate(326.551713 99.433077)scale(0.09 -0.09)">
      <defs>
       <path id="DejaVuSans-4c" d="M 628 4666 
L 1259 4666 
L 1259 531 
L 3531 531 
L 3531 0 
L 628 0 
L 628 4666 
z
" transform="scale(0.015625)"/>
       <path id="DejaVuSans-79" d="M 2059 -325 
Q 1816 -950 1584 -1140 
Q 1353 -1331 966 -1331 
L 506 -1331 
L 506 -850 
L 844 -850 
Q 1081 -850 1212 -737 
Q 1344 -625 1503 -206 
L 1606 56 
L 191 3500 
L 800 3500 
L 1894 763 
L 2988 3500 
L 3597 3500 
L 2059 -325 
z
" transform="scale(0.015625)"/>
       <path id="DejaVuSans-46" d="M 628 4666 
L 3309 4666 
L 3309 4134 
L 1259 4134 
L 1259 2759 
L 3109 2759 
L 3109 2228 
L 1259 2228 
L 1259 0 
L 628 0 
L 628 4666 
z
" transform="scale(0.015625)"/>
      </defs>
      <use xlink:href="#DejaVuSans-4c"/>
      <use xlink:href="#DejaVuSans-61" x="55.712891"/>
      <use xlink:href="#DejaVuSans-72" x="116.992188"/>
      <use xlink:href="#DejaVuSans-72" x="156.355469"/>
      <use xlink:href="#DejaVuSans-79" x="197.46875"/>
      <use xlink:href="#DejaVuSans-20" x="256.648438"/>
      <use xlink:href="#DejaVuSans-46" x="288.435547"/>
      <use xlink:href="#DejaVuSans-69" x="338.705078"/>
      <use xlink:href="#DejaVuSans-6e" x="366.488281"/>
      <use xlink:href="#DejaVuSans-65" x="429.867188"/>
     </g>
    </g>
   </g>
   <g id="text_5">
    <g id="patch_6">
     <path d="M 225.158377 95.975594 
L 293.86072 95.975594 
L 293.86072 79.345281 
L 225.158377 79.345281 
z
" clip-path="url(#pda901501a8)" style="fill: #ffffff; opacity: 0.7; stroke: #000000; stroke-linejoin: miter"/>
    </g>
    <g clip-path="url(#pda901501a8)">
     <!-- Curly Howard -->
     <g transform="translate(229.118377 90.143875)scale(0.09 -0.09)">
      <defs>
       <path id="DejaVuSans-75" d="M 544 1381 
L 544 3500 
L 1119 3500 
L 1119 1403 
Q 1119 906 1312 657 
Q 1506 409 1894 409 
Q 2359 409 2629 706 
Q 2900 1003 2900 1516 
L 2900 3500 
L 3475 3500 
L 3475 0 
L 2900 0 
L 2900 538 
Q 2691 219 2414 64 
Q 2138 -91 1772 -91 
Q 1169 -91 856 284 
Q 544 659 544 1381 
z
M 1991 3584 
L 1991 3584 
z
" transform="scale(0.015625)"/>
       <path id="DejaVuSans-48" d="M 628 4666 
L 1259 4666 
L 1259 2753 
L 3553 2753 
L 3553 4666 
L 4184 4666 
L 4184 0 
L 3553 0 
L 3553 2222 
L 1259 2222 
L 1259 0 
L 628 0 
L 628 4666 
z
" transform="scale(0.015625)"/>
       <path id="DejaVuSans-77" d="M 269 3500 
L 844 3500 
L 1563 769 
L 2278 3500 
L 2956 3500 
L 3675 769 
L 4391 3500 
L 4966 3500 
L 4050 0 
L 3372 0 
L 2619 2869 
L 1863 0 
L 1184 0 
L 269 3500 
z
" transform="scale(0.015625)"/>
       <path id="DejaVuSans-64" d="M 2906 2969 
L 2906 4863 
L 3481 4863 
L 3481 0 
L 2906 0 
L 2906 525 
Q 2725 213 2448 61 
Q 2172 -91 1784 -91 
Q 1150 -91 751 415 
Q 353 922 353 1747 
Q 353 2572 751 3078 
Q 1150 3584 1784 3584 
Q 2172 3584 2448 3432 
Q 2725 3281 2906 2969 
z
M 947 1747 
Q 947 1113 1208 752 
Q 1469 391 1925 391 
Q 2381 391 2643 752 
Q 2906 1113 2906 1747 
Q 2906 2381 2643 2742 
Q 2381 3103 1925 3103 
Q 1469 3103 1208 2742 
Q 947 2381 947 1747 
z
" transform="scale(0.015625)"/>
      </defs>
      <use xlink:href="#DejaVuSans-43"/>
      <use xlink:href="#DejaVuSans-75" x="69.824219"/>
      <use xlink:href="#DejaVuSans-72" x="133.203125"/>
      <use xlink:href="#DejaVuSans-6c" x="174.316406"/>
      <use xlink:href="#DejaVuSans-79" x="202.099609"/>
      <use xlink:href="#DejaVuSans-20" x="261.279297"/>
      <use xlink:href="#DejaVuSans-48" x="293.066406"/>
      <use xlink:href="#DejaVuSans-6f" x="368.261719"/>
      <use xlink:href="#DejaVuSans-77" x="429.443359"/>
      <use xlink:href="#DejaVuSans-61" x="511.230469"/>
      <use xlink:href="#DejaVuSans-72" x="572.509766"/>
      <use xlink:href="#DejaVuSans-64" x="611.873047"/>
     </g>
    </g>
   </g>
   <g id="text_6">
    <g id="patch_7">
     <path d="M 142.252782 123.437226 
L 206.249814 123.437226 
L 206.249814 106.806914 
L 142.252782 106.806914 
z
" clip-path="url(#pda901501a8)" style="fill: #ffffff; opacity: 0.7; stroke: #000000; stroke-linejoin: miter"/>
    </g>
    <g clip-path="url(#pda901501a8)">
     <!-- Moe Howard -->
     <g transform="translate(146.212782 117.605507)scale(0.09 -0.09)">
      <use xlink:href="#DejaVuSans-4d"/>
      <use xlink:href="#DejaVuSans-6f" x="86.279297"/>
      <use xlink:href="#DejaVuSans-65" x="147.460938"/>
      <use xlink:href="#DejaVuSans-20" x="208.984375"/>
      <use xlink:href="#DejaVuSans-48" x="240.771484"/>
      <use xlink:href="#DejaVuSans-6f" x="315.966797"/>
      <use xlink:href="#DejaVuSans-77" x="377.148438"/>
      <use xlink:href="#DejaVuSans-61" x="458.935547"/>
      <use xlink:href="#DejaVuSans-72" x="520.214844"/>
      <use xlink:href="#DejaVuSans-64" x="559.578125"/>
     </g>
    </g>
   </g>
   <g id="text_7">
    <g id="patch_8">
     <path d="M 70.130305 182.901312 
L 145.132649 182.901312 
L 145.132649 166.271 
L 70.130305 166.271 
z
" clip-path="url(#pda901501a8)" style="fill: #ffffff; opacity: 0.7; stroke: #000000; stroke-linejoin: miter"/>
    </g>
    <g clip-path="url(#pda901501a8)">
     <!-- John Malkovich -->
     <g transform="translate(74.090305 177.069593)scale(0.09 -0.09)">
      <defs>
       <path id="DejaVuSans-6b" d="M 581 4863 
L 1159 4863 
L 1159 1991 
L 2875 3500 
L 3609 3500 
L 1753 1863 
L 3688 0 
L 2938 0 
L 1159 1709 
L 1159 0 
L 581 0 
L 581 4863 
z
" transform="scale(0.015625)"/>
      </defs>
      <use xlink:href="#DejaVuSans-4a"/>
      <use xlink:href="#DejaVuSans-6f" x="29.492188"/>
      <use xlink:href="#DejaVuSans-68" x="90.673828"/>
      <use xlink:href="#DejaVuSans-6e" x="154.052734"/>
      <use xlink:href="#DejaVuSans-20" x="217.431641"/>
      <use xlink:href="#DejaVuSans-4d" x="249.21875"/>
      <use xlink:href="#DejaVuSans-61" x="335.498047"/>
      <use xlink:href="#DejaVuSans-6c" x="396.777344"/>
      <use xlink:href="#DejaVuSans-6b" x="424.560547"/>
      <use xlink:href="#DejaVuSans-6f" x="478.845703"/>
      <use xlink:href="#DejaVuSans-76" x="540.027344"/>
      <use xlink:href="#DejaVuSans-69" x="599.207031"/>
      <use xlink:href="#DejaVuSans-63" x="626.990234"/>
      <use xlink:href="#DejaVuSans-68" x="681.970703"/>
     </g>
    </g>
   </g>
   <g id="text_8">
    <g id="patch_9">
     <path d="M 35.772512 264.085997 
L 106.56595 264.085997 
L 106.56595 247.455684 
L 35.772512 247.455684 
z
" clip-path="url(#pda901501a8)" style="fill: #ffffff; opacity: 0.7; stroke: #000000; stroke-linejoin: miter"/>
    </g>
    <g clip-path="url(#pda901501a8)">
     <!-- Michael Caine -->
     <g transform="translate(39.732512 258.254278)scale(0.09 -0.09)">
      <use xlink:href="#DejaVuSans-4d"/>
      <use xlink:href="#DejaVuSans-69" x="86.279297"/>
      <use xlink:href="#DejaVuSans-63" x="114.0625"/>
      <use xlink:href="#DejaVuSans-68" x="169.042969"/>
      <use xlink:href="#DejaVuSans-61" x="232.421875"/>
      <use xlink:href="#DejaVuSans-65" x="293.701172"/>
      <use xlink:href="#DejaVuSans-6c" x="355.224609"/>
      <use xlink:href="#DejaVuSans-20" x="383.007812"/>
      <use xlink:href="#DejaVuSans-43" x="414.794922"/>
      <use xlink:href="#DejaVuSans-61" x="484.619141"/>
      <use xlink:href="#DejaVuSans-69" x="545.898438"/>
      <use xlink:href="#DejaVuSans-6e" x="573.681641"/>
      <use xlink:href="#DejaVuSans-65" x="637.060547"/>
     </g>
    </g>
   </g>
   <g id="text_9">
    <g id="patch_10">
     <path d="M 25.657369 352.953685 
L 116.681119 352.953685 
L 116.681119 336.323373 
L 25.657369 336.323373 
z
" clip-path="url(#pda901501a8)" style="fill: #ffffff; opacity: 0.7; stroke: #000000; stroke-linejoin: miter"/>
    </g>
    <g clip-path="url(#pda901501a8)">
     <!-- Mary Steenburgen -->
     <g transform="translate(29.617369 347.121967)scale(0.09 -0.09)">
      <defs>
       <path id="DejaVuSans-53" d="M 3425 4513 
L 3425 3897 
Q 3066 4069 2747 4153 
Q 2428 4238 2131 4238 
Q 1616 4238 1336 4038 
Q 1056 3838 1056 3469 
Q 1056 3159 1242 3001 
Q 1428 2844 1947 2747 
L 2328 2669 
Q 3034 2534 3370 2195 
Q 3706 1856 3706 1288 
Q 3706 609 3251 259 
Q 2797 -91 1919 -91 
Q 1588 -91 1214 -16 
Q 841 59 441 206 
L 441 856 
Q 825 641 1194 531 
Q 1563 422 1919 422 
Q 2459 422 2753 634 
Q 3047 847 3047 1241 
Q 3047 1584 2836 1778 
Q 2625 1972 2144 2069 
L 1759 2144 
Q 1053 2284 737 2584 
Q 422 2884 422 3419 
Q 422 4038 858 4394 
Q 1294 4750 2059 4750 
Q 2388 4750 2728 4690 
Q 3069 4631 3425 4513 
z
" transform="scale(0.015625)"/>
       <path id="DejaVuSans-62" d="M 3116 1747 
Q 3116 2381 2855 2742 
Q 2594 3103 2138 3103 
Q 1681 3103 1420 2742 
Q 1159 2381 1159 1747 
Q 1159 1113 1420 752 
Q 1681 391 2138 391 
Q 2594 391 2855 752 
Q 3116 1113 3116 1747 
z
M 1159 2969 
Q 1341 3281 1617 3432 
Q 1894 3584 2278 3584 
Q 2916 3584 3314 3078 
Q 3713 2572 3713 1747 
Q 3713 922 3314 415 
Q 2916 -91 2278 -91 
Q 1894 -91 1617 61 
Q 1341 213 1159 525 
L 1159 0 
L 581 0 
L 581 4863 
L 1159 4863 
L 1159 2969 
z
" transform="scale(0.015625)"/>
      </defs>
      <use xlink:href="#DejaVuSans-4d"/>
      <use xlink:href="#DejaVuSans-61" x="86.279297"/>
      <use xlink:href="#DejaVuSans-72" x="147.558594"/>
      <use xlink:href="#DejaVuSans-79" x="188.671875"/>
      <use xlink:href="#DejaVuSans-20" x="247.851562"/>
      <use xlink:href="#DejaVuSans-53" x="279.638672"/>
      <use xlink:href="#DejaVuSans-74" x="343.115234"/>
      <use xlink:href="#DejaVuSans-65" x="382.324219"/>
      <use xlink:href="#DejaVuSans-65" x="443.847656"/>
      <use xlink:href="#DejaVuSans-6e" x="505.371094"/>
      <use xlink:href="#DejaVuSans-62" x="568.75"/>
      <use xlink:href="#DejaVuSans-75" x="632.226562"/>
      <use xlink:href="#DejaVuSans-72" x="695.605469"/>
      <use xlink:href="#DejaVuSans-67" x="734.96875"/>
      <use xlink:href="#DejaVuSans-65" x="798.445312"/>
      <use xlink:href="#DejaVuSans-6e" x="859.96875"/>
     </g>
    </g>
   </g>
   <g id="text_10">
    <g id="patch_11">
     <path d="M 71.89024 434.138345 
L 143.37274 434.138345 
L 143.37274 417.508032 
L 71.89024 417.508032 
z
" clip-path="url(#pda901501a8)" style="fill: #ffffff; opacity: 0.7; stroke: #000000; stroke-linejoin: miter"/>
    </g>
    <g clip-path="url(#pda901501a8)">
     <!-- Joe Pantoliano -->
     <g transform="translate(75.85024 428.306626)scale(0.09 -0.09)">
      <defs>
       <path id="DejaVuSans-50" d="M 1259 4147 
L 1259 2394 
L 2053 2394 
Q 2494 2394 2734 2622 
Q 2975 2850 2975 3272 
Q 2975 3691 2734 3919 
Q 2494 4147 2053 4147 
L 1259 4147 
z
M 628 4666 
L 2053 4666 
Q 2838 4666 3239 4311 
Q 3641 3956 3641 3272 
Q 3641 2581 3239 2228 
Q 2838 1875 2053 1875 
L 1259 1875 
L 1259 0 
L 628 0 
L 628 4666 
z
" transform="scale(0.015625)"/>
      </defs>
      <use xlink:href="#DejaVuSans-4a"/>
      <use xlink:href="#DejaVuSans-6f" x="29.492188"/>
      <use xlink:href="#DejaVuSans-65" x="90.673828"/>
      <use xlink:href="#DejaVuSans-20" x="152.197266"/>
      <use xlink:href="#DejaVuSans-50" x="183.984375"/>
      <use xlink:href="#DejaVuSans-61" x="239.787109"/>
      <use xlink:href="#DejaVuSans-6e" x="301.066406"/>
      <use xlink:href="#DejaVuSans-74" x="364.445312"/>
      <use xlink:href="#DejaVuSans-6f" x="403.654297"/>
      <use xlink:href="#DejaVuSans-6c" x="464.835938"/>
      <use xlink:href="#DejaVuSans-69" x="492.619141"/>
      <use xlink:href="#DejaVuSans-61" x="520.402344"/>
      <use xlink:href="#DejaVuSans-6e" x="581.681641"/>
      <use xlink:href="#DejaVuSans-6f" x="645.060547"/>
     </g>
    </g>
   </g>
   <g id="text_11">
    <g id="patch_12">
     <path d="M 147.597971 493.602431 
L 200.90469 493.602431 
L 200.90469 476.972118 
L 147.597971 476.972118 
z
" clip-path="url(#pda901501a8)" style="fill: #ffffff; opacity: 0.7; stroke: #000000; stroke-linejoin: miter"/>
    </g>
    <g clip-path="url(#pda901501a8)">
     <!-- Paul Frees -->
     <g transform="translate(151.557971 487.770712)scale(0.09 -0.09)">
      <use xlink:href="#DejaVuSans-50"/>
      <use xlink:href="#DejaVuSans-61" x="55.802734"/>
      <use xlink:href="#DejaVuSans-75" x="117.082031"/>
      <use xlink:href="#DejaVuSans-6c" x="180.460938"/>
      <use xlink:href="#DejaVuSans-20" x="208.244141"/>
      <use xlink:href="#DejaVuSans-46" x="240.03125"/>
      <use xlink:href="#DejaVuSans-72" x="290.300781"/>
      <use xlink:href="#DejaVuSans-65" x="329.164062"/>
      <use xlink:href="#DejaVuSans-65" x="390.6875"/>
      <use xlink:href="#DejaVuSans-73" x="452.210938"/>
     </g>
    </g>
   </g>
   <g id="text_12">
    <g id="patch_13">
     <path d="M 220.18029 521.06405 
L 298.838884 521.06405 
L 298.838884 504.433738 
L 220.18029 504.433738 
z
" clip-path="url(#pda901501a8)" style="fill: #ffffff; opacity: 0.7; stroke: #000000; stroke-linejoin: miter"/>
    </g>
    <g clip-path="url(#pda901501a8)">
     <!-- Forest Whitaker -->
     <g transform="translate(224.14029 515.232332)scale(0.09 -0.09)">
      <defs>
       <path id="DejaVuSans-57" d="M 213 4666 
L 850 4666 
L 1831 722 
L 2809 4666 
L 3519 4666 
L 4500 722 
L 5478 4666 
L 6119 4666 
L 4947 0 
L 4153 0 
L 3169 4050 
L 2175 0 
L 1381 0 
L 213 4666 
z
" transform="scale(0.015625)"/>
      </defs>
      <use xlink:href="#DejaVuSans-46"/>
      <use xlink:href="#DejaVuSans-6f" x="53.894531"/>
      <use xlink:href="#DejaVuSans-72" x="115.076172"/>
      <use xlink:href="#DejaVuSans-65" x="153.939453"/>
      <use xlink:href="#DejaVuSans-73" x="215.462891"/>
      <use xlink:href="#DejaVuSans-74" x="267.5625"/>
      <use xlink:href="#DejaVuSans-20" x="306.771484"/>
      <use xlink:href="#DejaVuSans-57" x="338.558594"/>
      <use xlink:href="#DejaVuSans-68" x="437.435547"/>
      <use xlink:href="#DejaVuSans-69" x="500.814453"/>
      <use xlink:href="#DejaVuSans-74" x="528.597656"/>
      <use xlink:href="#DejaVuSans-61" x="567.806641"/>
      <use xlink:href="#DejaVuSans-6b" x="629.085938"/>
      <use xlink:href="#DejaVuSans-65" x="683.371094"/>
      <use xlink:href="#DejaVuSans-72" x="744.894531"/>
     </g>
    </g>
   </g>
   <g id="text_13">
    <g id="patch_14">
     <path d="M 318.548776 511.774836 
L 378.77987 511.774836 
L 378.77987 495.144523 
L 318.548776 495.144523 
z
" clip-path="url(#pda901501a8)" style="fill: #ffffff; opacity: 0.7; stroke: #000000; stroke-linejoin: miter"/>
    </g>
    <g clip-path="url(#pda901501a8)">
     <!-- Bruce Willis -->
     <g transform="translate(322.508776 505.943117)scale(0.09 -0.09)">
      <use xlink:href="#DejaVuSans-42"/>
      <use xlink:href="#DejaVuSans-72" x="68.603516"/>
      <use xlink:href="#DejaVuSans-75" x="109.716797"/>
      <use xlink:href="#DejaVuSans-63" x="173.095703"/>
      <use xlink:href="#DejaVuSans-65" x="228.076172"/>
      <use xlink:href="#DejaVuSans-20" x="289.599609"/>
      <use xlink:href="#DejaVuSans-57" x="321.386719"/>
      <use xlink:href="#DejaVuSans-69" x="418.013672"/>
      <use xlink:href="#DejaVuSans-6c" x="445.796875"/>
      <use xlink:href="#DejaVuSans-6c" x="473.580078"/>
      <use xlink:href="#DejaVuSans-69" x="501.363281"/>
      <use xlink:href="#DejaVuSans-73" x="529.146484"/>
     </g>
    </g>
   </g>
   <g id="text_14">
    <g id="patch_15">
     <path d="M 396.275748 467.340973 
L 456.324029 467.340973 
L 456.324029 450.71066 
L 396.275748 450.71066 
z
" clip-path="url(#pda901501a8)" style="fill: #ffffff; opacity: 0.7; stroke: #000000; stroke-linejoin: miter"/>
    </g>
    <g clip-path="url(#pda901501a8)">
     <!-- Bette Davis -->
     <g transform="translate(400.235748 461.509254)scale(0.09 -0.09)">
      <defs>
       <path id="DejaVuSans-44" d="M 1259 4147 
L 1259 519 
L 2022 519 
Q 2988 519 3436 956 
Q 3884 1394 3884 2338 
Q 3884 3275 3436 3711 
Q 2988 4147 2022 4147 
L 1259 4147 
z
M 628 4666 
L 1925 4666 
Q 3281 4666 3915 4102 
Q 4550 3538 4550 2338 
Q 4550 1131 3912 565 
Q 3275 0 1925 0 
L 628 0 
L 628 4666 
z
" transform="scale(0.015625)"/>
      </defs>
      <use xlink:href="#DejaVuSans-42"/>
      <use xlink:href="#DejaVuSans-65" x="68.603516"/>
      <use xlink:href="#DejaVuSans-74" x="130.126953"/>
      <use xlink:href="#DejaVuSans-74" x="169.335938"/>
      <use xlink:href="#DejaVuSans-65" x="208.544922"/>
      <use xlink:href="#DejaVuSans-20" x="270.068359"/>
      <use xlink:href="#DejaVuSans-44" x="301.855469"/>
      <use xlink:href="#DejaVuSans-61" x="378.857422"/>
      <use xlink:href="#DejaVuSans-76" x="440.136719"/>
      <use xlink:href="#DejaVuSans-69" x="499.316406"/>
      <use xlink:href="#DejaVuSans-73" x="527.099609"/>
     </g>
    </g>
   </g>
   <g id="text_15">
    <g id="patch_16">
     <path d="M 438.035342 395.445502 
L 519.949405 395.445502 
L 519.949405 378.81519 
L 438.035342 378.81519 
z
" clip-path="url(#pda901501a8)" style="fill: #ffffff; opacity: 0.7; stroke: #000000; stroke-linejoin: miter"/>
    </g>
    <g clip-path="url(#pda901501a8)">
     <!-- David Alan Grier -->
     <g transform="translate(441.995342 389.613784)scale(0.09 -0.09)">
      <defs>
       <path id="DejaVuSans-41" d="M 2188 4044 
L 1331 1722 
L 3047 1722 
L 2188 4044 
z
M 1831 4666 
L 2547 4666 
L 4325 0 
L 3669 0 
L 3244 1197 
L 1141 1197 
L 716 0 
L 50 0 
L 1831 4666 
z
" transform="scale(0.015625)"/>
       <path id="DejaVuSans-47" d="M 3809 666 
L 3809 1919 
L 2778 1919 
L 2778 2438 
L 4434 2438 
L 4434 434 
Q 4069 175 3628 42 
Q 3188 -91 2688 -91 
Q 1594 -91 976 548 
Q 359 1188 359 2328 
Q 359 3472 976 4111 
Q 1594 4750 2688 4750 
Q 3144 4750 3555 4637 
Q 3966 4525 4313 4306 
L 4313 3634 
Q 3963 3931 3569 4081 
Q 3175 4231 2741 4231 
Q 1884 4231 1454 3753 
Q 1025 3275 1025 2328 
Q 1025 1384 1454 906 
Q 1884 428 2741 428 
Q 3075 428 3337 486 
Q 3600 544 3809 666 
z
" transform="scale(0.015625)"/>
      </defs>
      <use xlink:href="#DejaVuSans-44"/>
      <use xlink:href="#DejaVuSans-61" x="77.001953"/>
      <use xlink:href="#DejaVuSans-76" x="138.28125"/>
      <use xlink:href="#DejaVuSans-69" x="197.460938"/>
      <use xlink:href="#DejaVuSans-64" x="225.244141"/>
      <use xlink:href="#DejaVuSans-20" x="288.720703"/>
      <use xlink:href="#DejaVuSans-41" x="320.507812"/>
      <use xlink:href="#DejaVuSans-6c" x="388.916016"/>
      <use xlink:href="#DejaVuSans-61" x="416.699219"/>
      <use xlink:href="#DejaVuSans-6e" x="477.978516"/>
      <use xlink:href="#DejaVuSans-20" x="541.357422"/>
      <use xlink:href="#DejaVuSans-47" x="573.144531"/>
      <use xlink:href="#DejaVuSans-72" x="650.634766"/>
      <use xlink:href="#DejaVuSans-69" x="691.748047"/>
      <use xlink:href="#DejaVuSans-65" x="719.53125"/>
      <use xlink:href="#DejaVuSans-72" x="781.054688"/>
     </g>
    </g>
   </g>
   <g id="text_16">
    <!-- Impactful actors for Documentary genre - Importance rank: 5 -->
    <g transform="translate(100.0575 16.318125)scale(0.12 -0.12)">
     <defs>
      <path id="DejaVuSans-49" d="M 628 4666 
L 1259 4666 
L 1259 0 
L 628 0 
L 628 4666 
z
" transform="scale(0.015625)"/>
      <path id="DejaVuSans-6d" d="M 3328 2828 
Q 3544 3216 3844 3400 
Q 4144 3584 4550 3584 
Q 5097 3584 5394 3201 
Q 5691 2819 5691 2113 
L 5691 0 
L 5113 0 
L 5113 2094 
Q 5113 2597 4934 2840 
Q 4756 3084 4391 3084 
Q 3944 3084 3684 2787 
Q 3425 2491 3425 1978 
L 3425 0 
L 2847 0 
L 2847 2094 
Q 2847 2600 2669 2842 
Q 2491 3084 2119 3084 
Q 1678 3084 1418 2786 
Q 1159 2488 1159 1978 
L 1159 0 
L 581 0 
L 581 3500 
L 1159 3500 
L 1159 2956 
Q 1356 3278 1631 3431 
Q 1906 3584 2284 3584 
Q 2666 3584 2933 3390 
Q 3200 3197 3328 2828 
z
" transform="scale(0.015625)"/>
      <path id="DejaVuSans-70" d="M 1159 525 
L 1159 -1331 
L 581 -1331 
L 581 3500 
L 1159 3500 
L 1159 2969 
Q 1341 3281 1617 3432 
Q 1894 3584 2278 3584 
Q 2916 3584 3314 3078 
Q 3713 2572 3713 1747 
Q 3713 922 3314 415 
Q 2916 -91 2278 -91 
Q 1894 -91 1617 61 
Q 1341 213 1159 525 
z
M 3116 1747 
Q 3116 2381 2855 2742 
Q 2594 3103 2138 3103 
Q 1681 3103 1420 2742 
Q 1159 2381 1159 1747 
Q 1159 1113 1420 752 
Q 1681 391 2138 391 
Q 2594 391 2855 752 
Q 3116 1113 3116 1747 
z
" transform="scale(0.015625)"/>
      <path id="DejaVuSans-66" d="M 2375 4863 
L 2375 4384 
L 1825 4384 
Q 1516 4384 1395 4259 
Q 1275 4134 1275 3809 
L 1275 3500 
L 2222 3500 
L 2222 3053 
L 1275 3053 
L 1275 0 
L 697 0 
L 697 3053 
L 147 3053 
L 147 3500 
L 697 3500 
L 697 3744 
Q 697 4328 969 4595 
Q 1241 4863 1831 4863 
L 2375 4863 
z
" transform="scale(0.015625)"/>
      <path id="DejaVuSans-2d" d="M 313 2009 
L 1997 2009 
L 1997 1497 
L 313 1497 
L 313 2009 
z
" transform="scale(0.015625)"/>
      <path id="DejaVuSans-3a" d="M 750 794 
L 1409 794 
L 1409 0 
L 750 0 
L 750 794 
z
M 750 3309 
L 1409 3309 
L 1409 2516 
L 750 2516 
L 750 3309 
z
" transform="scale(0.015625)"/>
      <path id="DejaVuSans-35" d="M 691 4666 
L 3169 4666 
L 3169 4134 
L 1269 4134 
L 1269 2991 
Q 1406 3038 1543 3061 
Q 1681 3084 1819 3084 
Q 2600 3084 3056 2656 
Q 3513 2228 3513 1497 
Q 3513 744 3044 326 
Q 2575 -91 1722 -91 
Q 1428 -91 1123 -41 
Q 819 9 494 109 
L 494 744 
Q 775 591 1075 516 
Q 1375 441 1709 441 
Q 2250 441 2565 725 
Q 2881 1009 2881 1497 
Q 2881 1984 2565 2268 
Q 2250 2553 1709 2553 
Q 1456 2553 1204 2497 
Q 953 2441 691 2322 
L 691 4666 
z
" transform="scale(0.015625)"/>
     </defs>
     <use xlink:href="#DejaVuSans-49"/>
     <use xlink:href="#DejaVuSans-6d" x="29.492188"/>
     <use xlink:href="#DejaVuSans-70" x="126.904297"/>
     <use xlink:href="#DejaVuSans-61" x="190.380859"/>
     <use xlink:href="#DejaVuSans-63" x="251.660156"/>
     <use xlink:href="#DejaVuSans-74" x="306.640625"/>
     <use xlink:href="#DejaVuSans-66" x="345.849609"/>
     <use xlink:href="#DejaVuSans-75" x="381.054688"/>
     <use xlink:href="#DejaVuSans-6c" x="444.433594"/>
     <use xlink:href="#DejaVuSans-20" x="472.216797"/>
     <use xlink:href="#DejaVuSans-61" x="504.003906"/>
     <use xlink:href="#DejaVuSans-63" x="565.283203"/>
     <use xlink:href="#DejaVuSans-74" x="620.263672"/>
     <use xlink:href="#DejaVuSans-6f" x="659.472656"/>
     <use xlink:href="#DejaVuSans-72" x="720.654297"/>
     <use xlink:href="#DejaVuSans-73" x="761.767578"/>
     <use xlink:href="#DejaVuSans-20" x="813.867188"/>
     <use xlink:href="#DejaVuSans-66" x="845.654297"/>
     <use xlink:href="#DejaVuSans-6f" x="880.859375"/>
     <use xlink:href="#DejaVuSans-72" x="942.041016"/>
     <use xlink:href="#DejaVuSans-20" x="983.154297"/>
     <use xlink:href="#DejaVuSans-44" x="1014.941406"/>
     <use xlink:href="#DejaVuSans-6f" x="1091.943359"/>
     <use xlink:href="#DejaVuSans-63" x="1153.125"/>
     <use xlink:href="#DejaVuSans-75" x="1208.105469"/>
     <use xlink:href="#DejaVuSans-6d" x="1271.484375"/>
     <use xlink:href="#DejaVuSans-65" x="1368.896484"/>
     <use xlink:href="#DejaVuSans-6e" x="1430.419922"/>
     <use xlink:href="#DejaVuSans-74" x="1493.798828"/>
     <use xlink:href="#DejaVuSans-61" x="1533.007812"/>
     <use xlink:href="#DejaVuSans-72" x="1594.287109"/>
     <use xlink:href="#DejaVuSans-79" x="1635.400391"/>
     <use xlink:href="#DejaVuSans-20" x="1694.580078"/>
     <use xlink:href="#DejaVuSans-67" x="1726.367188"/>
     <use xlink:href="#DejaVuSans-65" x="1789.84375"/>
     <use xlink:href="#DejaVuSans-6e" x="1851.367188"/>
     <use xlink:href="#DejaVuSans-72" x="1914.746094"/>
     <use xlink:href="#DejaVuSans-65" x="1953.609375"/>
     <use xlink:href="#DejaVuSans-20" x="2015.132812"/>
     <use xlink:href="#DejaVuSans-2d" x="2046.919922"/>
     <use xlink:href="#DejaVuSans-20" x="2083.003906"/>
     <use xlink:href="#DejaVuSans-49" x="2114.791016"/>
     <use xlink:href="#DejaVuSans-6d" x="2144.283203"/>
     <use xlink:href="#DejaVuSans-70" x="2241.695312"/>
     <use xlink:href="#DejaVuSans-6f" x="2305.171875"/>
     <use xlink:href="#DejaVuSans-72" x="2366.353516"/>
     <use xlink:href="#DejaVuSans-74" x="2407.466797"/>
     <use xlink:href="#DejaVuSans-61" x="2446.675781"/>
     <use xlink:href="#DejaVuSans-6e" x="2507.955078"/>
     <use xlink:href="#DejaVuSans-63" x="2571.333984"/>
     <use xlink:href="#DejaVuSans-65" x="2626.314453"/>
     <use xlink:href="#DejaVuSans-20" x="2687.837891"/>
     <use xlink:href="#DejaVuSans-72" x="2719.625"/>
     <use xlink:href="#DejaVuSans-61" x="2760.738281"/>
     <use xlink:href="#DejaVuSans-6e" x="2822.017578"/>
     <use xlink:href="#DejaVuSans-6b" x="2885.396484"/>
     <use xlink:href="#DejaVuSans-3a" x="2943.306641"/>
     <use xlink:href="#DejaVuSans-20" x="2976.998047"/>
     <use xlink:href="#DejaVuSans-35" x="3008.785156"/>
    </g>
   </g>
  </g>
 </g>
 <defs>
  <clipPath id="pda901501a8">
   <rect x="7.2" y="22.318125" width="554.4" height="554.4"/>
  </clipPath>
 </defs>
</svg>
