<?xml version="1.0" encoding="utf-8" standalone="no"?>
<!DOCTYPE svg PUBLIC "-//W3C//DTD SVG 1.1//EN"
  "http://www.w3.org/Graphics/SVG/1.1/DTD/svg11.dtd">
<svg xmlns:xlink="http://www.w3.org/1999/xlink" width="568.8pt" height="583.918125pt" viewBox="0 0 568.8 583.918125" xmlns="http://www.w3.org/2000/svg" version="1.1">
 <metadata>
  <rdf:RDF xmlns:dc="http://purl.org/dc/elements/1.1/" xmlns:cc="http://creativecommons.org/ns#" xmlns:rdf="http://www.w3.org/1999/02/22-rdf-syntax-ns#">
   <cc:Work>
    <dc:type rdf:resource="http://purl.org/dc/dcmitype/StillImage"/>
    <dc:date>2022-12-23T17:28:57.471916</dc:date>
    <dc:format>image/svg+xml</dc:format>
    <dc:creator>
     <cc:Agent>
      <dc:title>Matplotlib v3.5.2, https://matplotlib.org/</dc:title>
     </cc:Agent>
    </dc:creator>
   </cc:Work>
  </rdf:RDF>
 </metadata>
 <defs>
  <style type="text/css">*{stroke-linejoin: round; stroke-linecap: butt}</style>
 </defs>
 <g id="figure_1">
  <g id="patch_1">
   <path d="M 0 583.918125 
L 568.8 583.918125 
L 568.8 0 
L 0 0 
z
" style="fill: #ffffff"/>
  </g>
  <g id="axes_1">
   <g id="LineCollection_1">
    <path d="M 478.983454 309.045319 
L 169.743997 486.429525 
" clip-path="url(#p4affeb188d)" style="fill: none; stroke: #000000; stroke-opacity: 0.3; stroke-width: 5.071746"/>
    <path d="M 410.771526 156.830206 
L 251.274242 105.341745 
" clip-path="url(#p4affeb188d)" style="fill: none; stroke: #000000; stroke-opacity: 0.3; stroke-width: 10"/>
    <path d="M 336.530634 114.244568 
L 461.160034 392.355377 
" clip-path="url(#p4affeb188d)" style="fill: none; stroke: #000000; stroke-opacity: 0.3; stroke-width: 5"/>
    <path d="M 169.743966 131.661127 
L 106.037141 188.651839 
" clip-path="url(#p4affeb188d)" style="fill: none; stroke: #000000; stroke-opacity: 0.3; stroke-width: 5.041505"/>
    <path d="M 169.743966 131.661127 
L 410.771563 461.260397 
" clip-path="url(#p4affeb188d)" style="fill: none; stroke: #000000; stroke-opacity: 0.3; stroke-width: 6.845948"/>
   </g>
   <g id="PathCollection_1">
    <path d="M 478.983454 336.431447 
C 486.24634 336.431447 493.212734 333.545872 498.34837 328.410236 
C 503.484006 323.2746 506.369581 316.308206 506.369581 309.045319 
C 506.369581 301.782433 503.484006 294.816039 498.34837 289.680403 
C 493.212734 284.544767 486.24634 281.659192 478.983454 281.659192 
C 471.720568 281.659192 464.754173 284.544767 459.618537 289.680403 
C 454.482901 294.816039 451.597326 301.782433 451.597326 309.045319 
C 451.597326 316.308206 454.482901 323.2746 459.618537 328.410236 
C 464.754173 333.545872 471.720568 336.431447 478.983454 336.431447 
z
" clip-path="url(#p4affeb188d)" style="fill: #c70039; fill-opacity: 0.99; stroke: #c70039; stroke-opacity: 0.99"/>
    <path d="M 461.16001 251.961228 
C 468.115225 251.961228 474.786509 249.197892 479.70459 244.279812 
C 484.62267 239.361732 487.386006 232.690447 487.386006 225.735232 
C 487.386006 218.780016 484.62267 212.108732 479.70459 207.190652 
C 474.786509 202.272572 468.115225 199.509235 461.16001 199.509235 
C 454.204794 199.509235 447.53351 202.272572 442.61543 207.190652 
C 437.69735 212.108732 434.934013 218.780016 434.934013 225.735232 
C 434.934013 232.690447 437.69735 239.361732 442.61543 244.279812 
C 447.53351 249.197892 454.204794 251.961228 461.16001 251.961228 
z
" clip-path="url(#p4affeb188d)" style="fill: #c70039; fill-opacity: 0.99; stroke: #c70039; stroke-opacity: 0.99"/>
    <path d="M 410.771526 181.750151 
C 417.380373 181.750151 423.719428 179.124429 428.392589 174.451268 
C 433.065749 169.778108 435.691472 163.439053 435.691472 156.830206 
C 435.691472 150.221359 433.065749 143.882304 428.392589 139.209143 
C 423.719428 134.535983 417.380373 131.91026 410.771526 131.91026 
C 404.16268 131.91026 397.823624 134.535983 393.150464 139.209143 
C 388.477303 143.882304 385.851581 150.221359 385.851581 156.830206 
C 385.851581 163.439053 388.477303 169.778108 393.150464 174.451268 
C 397.823624 179.124429 404.16268 181.750151 410.771526 181.750151 
z
" clip-path="url(#p4affeb188d)" style="fill: #c70039; fill-opacity: 0.99; stroke: #c70039; stroke-opacity: 0.99"/>
    <path d="M 336.530634 138.558847 
C 342.978857 138.558847 349.163844 135.996941 353.723426 131.437359 
C 358.283008 126.877778 360.844913 120.69279 360.844913 114.244568 
C 360.844913 107.796345 358.283008 101.611358 353.723426 97.051776 
C 349.163844 92.492194 342.978857 89.930289 336.530634 89.930289 
C 330.082412 89.930289 323.897424 92.492194 319.337843 97.051776 
C 314.778261 101.611358 312.216355 107.796345 312.216355 114.244568 
C 312.216355 120.69279 314.778261 126.877778 319.337843 131.437359 
C 323.897424 135.996941 330.082412 138.558847 336.530634 138.558847 
z
" clip-path="url(#p4affeb188d)" style="fill: #c70039; fill-opacity: 0.99; stroke: #c70039; stroke-opacity: 0.99"/>
    <path d="M 251.274242 129.351268 
C 257.641642 129.351268 263.749107 126.821473 268.251539 122.319041 
C 272.753971 117.81661 275.283766 111.709145 275.283766 105.341745 
C 275.283766 98.974345 272.753971 92.86688 268.251539 88.364448 
C 263.749107 83.862016 257.641642 81.332222 251.274242 81.332222 
C 244.906842 81.332222 238.799377 83.862016 234.296946 88.364448 
C 229.794514 92.86688 227.264719 98.974345 227.264719 105.341745 
C 227.264719 111.709145 229.794514 117.81661 234.296946 122.319041 
C 238.799377 126.821473 244.906842 129.351268 251.274242 129.351268 
z
" clip-path="url(#p4affeb188d)" style="fill: #c70039; fill-opacity: 0.99; stroke: #c70039; stroke-opacity: 0.99"/>
    <path d="M 169.743966 153.752751 
C 175.602733 153.752751 181.222329 151.425038 185.365103 147.282264 
C 189.507877 143.13949 191.83559 137.519894 191.83559 131.661127 
C 191.83559 125.802359 189.507877 120.182763 185.365103 116.039989 
C 181.222329 111.897215 175.602733 109.569502 169.743966 109.569502 
C 163.885199 109.569502 158.265603 111.897215 154.122829 116.039989 
C 149.980055 120.182763 147.652342 125.802359 147.652342 131.661127 
C 147.652342 137.519894 149.980055 143.13949 154.122829 147.282264 
C 158.265603 151.425038 163.885199 153.752751 169.743966 153.752751 
z
" clip-path="url(#p4affeb188d)" style="fill: #c70039; fill-opacity: 0.99; stroke: #c70039; stroke-opacity: 0.99"/>
    <path d="M 106.037141 210.368555 
C 111.796482 210.368555 117.32071 208.080345 121.393179 204.007876 
C 125.465647 199.935407 127.753858 194.411179 127.753858 188.651839 
C 127.753858 182.892498 125.465647 177.36827 121.393179 173.295801 
C 117.32071 169.223332 111.796482 166.935122 106.037141 166.935122 
C 100.2778 166.935122 94.753572 169.223332 90.681103 173.295801 
C 86.608634 177.36827 84.320424 182.892498 84.320424 188.651839 
C 84.320424 194.411179 86.608634 199.935407 90.681103 204.007876 
C 94.753572 208.080345 100.2778 210.368555 106.037141 210.368555 
z
" clip-path="url(#p4affeb188d)" style="fill: #c70039; fill-opacity: 0.99; stroke: #c70039; stroke-opacity: 0.99"/>
    <path d="M 71.169231 287.376825 
C 76.716519 287.376825 82.037351 285.172864 85.959876 281.250339 
C 89.882401 277.327814 92.086362 272.006982 92.086362 266.459694 
C 92.086362 260.912406 89.882401 255.591573 85.959876 251.669048 
C 82.037351 247.746523 76.716519 245.542562 71.169231 245.542562 
C 65.621943 245.542562 60.30111 247.746523 56.378585 251.669048 
C 52.45606 255.591573 50.2521 260.912406 50.2521 266.459694 
C 50.2521 272.006982 52.45606 277.327814 56.378585 281.250339 
C 60.30111 285.172864 65.621943 287.376825 71.169231 287.376825 
z
" clip-path="url(#p4affeb188d)" style="fill: #c70039; fill-opacity: 0.99; stroke: #c70039; stroke-opacity: 0.99"/>
    <path d="M 71.169243 372.417815 
C 76.681976 372.417815 81.969663 370.227583 85.867754 366.329493 
C 89.765844 362.431402 91.956076 357.143715 91.956076 351.630982 
C 91.956076 346.11825 89.765844 340.830562 85.867754 336.932472 
C 81.969663 333.034381 76.681976 330.844149 71.169243 330.844149 
C 65.656511 330.844149 60.368823 333.034381 56.470733 336.932472 
C 52.572642 340.830562 50.38241 346.11825 50.38241 351.630982 
C 50.38241 357.143715 52.572642 362.431402 56.470733 366.329493 
C 60.368823 370.227583 65.656511 372.417815 71.169243 372.417815 
z
" clip-path="url(#p4affeb188d)" style="fill: #c70039; fill-opacity: 0.99; stroke: #c70039; stroke-opacity: 0.99"/>
    <path d="M 106.037153 450.15242 
C 111.530466 450.15242 116.799527 447.969904 120.683886 444.085545 
C 124.568244 440.201186 126.750761 434.932126 126.750761 429.438813 
C 126.750761 423.9455 124.568244 418.676439 120.683886 414.79208 
C 116.799527 410.907721 111.530466 408.725205 106.037153 408.725205 
C 100.54384 408.725205 95.27478 410.907721 91.390421 414.79208 
C 87.506062 418.676439 85.323546 423.9455 85.323546 429.438813 
C 85.323546 434.932126 87.506062 440.201186 91.390421 444.085545 
C 95.27478 447.969904 100.54384 450.15242 106.037153 450.15242 
z
" clip-path="url(#p4affeb188d)" style="fill: #c70039; fill-opacity: 0.99; stroke: #c70039; stroke-opacity: 0.99"/>
    <path d="M 169.743997 506.974146 
C 175.192494 506.974146 180.418568 504.809435 184.271238 500.956766 
C 188.123907 497.104096 190.288618 491.878022 190.288618 486.429525 
C 190.288618 480.981027 188.123907 475.754953 184.271238 471.902283 
C 180.418568 468.049614 175.192494 465.884903 169.743997 465.884903 
C 164.295499 465.884903 159.069425 468.049614 155.216755 471.902283 
C 151.364086 475.754953 149.199375 480.981027 149.199375 486.429525 
C 149.199375 491.878022 151.364086 497.104096 155.216755 500.956766 
C 159.069425 504.809435 164.295499 506.974146 169.743997 506.974146 
z
" clip-path="url(#p4affeb188d)" style="fill: #c70039; fill-opacity: 0.99; stroke: #c70039; stroke-opacity: 0.99"/>
    <path d="M 251.274279 533.186219 
C 256.694321 533.186219 261.893102 531.032813 265.72565 527.200265 
C 269.558198 523.367717 271.711604 518.168936 271.711604 512.748894 
C 271.711604 507.328852 269.558198 502.130072 265.72565 498.297523 
C 261.893102 494.464975 256.694321 492.31157 251.274279 492.31157 
C 245.854237 492.31157 240.655457 494.464975 236.822908 498.297523 
C 232.99036 502.130072 230.836955 507.328852 230.836955 512.748894 
C 230.836955 518.168936 232.99036 523.367717 236.822908 527.200265 
C 240.655457 531.032813 245.854237 533.186219 251.274279 533.186219 
z
" clip-path="url(#p4affeb188d)" style="fill: #c70039; fill-opacity: 0.99; stroke: #c70039; stroke-opacity: 0.99"/>
    <path d="M 336.530665 523.97588 
C 341.869156 523.97588 346.989715 521.854875 350.764598 518.079992 
C 354.539481 514.305109 356.660486 509.18455 356.660486 503.846059 
C 356.660486 498.507568 354.539481 493.387009 350.764598 489.612126 
C 346.989715 485.837243 341.869156 483.716238 336.530665 483.716238 
C 331.192174 483.716238 326.071615 485.837243 322.296732 489.612126 
C 318.521849 493.387009 316.400844 498.507568 316.400844 503.846059 
C 316.400844 509.18455 318.521849 514.305109 322.296732 518.079992 
C 326.071615 521.854875 331.192174 523.97588 336.530665 523.97588 
z
" clip-path="url(#p4affeb188d)" style="fill: #c70039; fill-opacity: 0.99; stroke: #c70039; stroke-opacity: 0.99"/>
    <path d="M 410.771563 481.31811 
C 416.090931 481.31811 421.193147 479.204703 424.954508 475.443342 
C 428.71587 471.681981 430.829277 466.579764 430.829277 461.260397 
C 430.829277 455.941029 428.71587 450.838812 424.954508 447.077451 
C 421.193147 443.31609 416.090931 441.202683 410.771563 441.202683 
C 405.452195 441.202683 400.349979 443.31609 396.588618 447.077451 
C 392.827257 450.838812 390.71385 455.941029 390.71385 461.260397 
C 390.71385 466.579764 392.827257 471.681981 396.588618 475.443342 
C 400.349979 479.204703 405.452195 481.31811 410.771563 481.31811 
z
" clip-path="url(#p4affeb188d)" style="fill: #c70039; fill-opacity: 0.99; stroke: #c70039; stroke-opacity: 0.99"/>
    <path d="M 461.160034 411.720293 
C 466.29567 411.720293 471.221655 409.679884 474.853098 406.048441 
C 478.484541 402.416998 480.524951 397.491013 480.524951 392.355377 
C 480.524951 387.219741 478.484541 382.293756 474.853098 378.662313 
C 471.221655 375.03087 466.29567 372.99046 461.160034 372.99046 
C 456.024398 372.99046 451.098413 375.03087 447.46697 378.662313 
C 443.835527 382.293756 441.795117 387.219741 441.795117 392.355377 
C 441.795117 397.491013 443.835527 402.416998 447.46697 406.048441 
C 451.098413 409.679884 456.024398 411.720293 461.160034 411.720293 
z
" clip-path="url(#p4affeb188d)" style="fill: #c70039; fill-opacity: 0.99; stroke: #c70039; stroke-opacity: 0.99"/>
   </g>
   <g id="text_1">
    <g id="patch_2">
     <path d="M 441.892907 317.360476 
L 516.074 317.360476 
L 516.074 300.730163 
L 441.892907 300.730163 
z
" clip-path="url(#p4affeb188d)" style="fill: #ffffff; opacity: 0.7; stroke: #000000; stroke-linejoin: miter"/>
    </g>
    <g clip-path="url(#p4affeb188d)">
     <!-- Robert De Niro -->
     <g transform="translate(445.852907 311.528757)scale(0.09 -0.09)">
      <defs>
       <path id="DejaVuSans-52" d="M 2841 2188 
Q 3044 2119 3236 1894 
Q 3428 1669 3622 1275 
L 4263 0 
L 3584 0 
L 2988 1197 
Q 2756 1666 2539 1819 
Q 2322 1972 1947 1972 
L 1259 1972 
L 1259 0 
L 628 0 
L 628 4666 
L 2053 4666 
Q 2853 4666 3247 4331 
Q 3641 3997 3641 3322 
Q 3641 2881 3436 2590 
Q 3231 2300 2841 2188 
z
M 1259 4147 
L 1259 2491 
L 2053 2491 
Q 2509 2491 2742 2702 
Q 2975 2913 2975 3322 
Q 2975 3731 2742 3939 
Q 2509 4147 2053 4147 
L 1259 4147 
z
" transform="scale(0.015625)"/>
       <path id="DejaVuSans-6f" d="M 1959 3097 
Q 1497 3097 1228 2736 
Q 959 2375 959 1747 
Q 959 1119 1226 758 
Q 1494 397 1959 397 
Q 2419 397 2687 759 
Q 2956 1122 2956 1747 
Q 2956 2369 2687 2733 
Q 2419 3097 1959 3097 
z
M 1959 3584 
Q 2709 3584 3137 3096 
Q 3566 2609 3566 1747 
Q 3566 888 3137 398 
Q 2709 -91 1959 -91 
Q 1206 -91 779 398 
Q 353 888 353 1747 
Q 353 2609 779 3096 
Q 1206 3584 1959 3584 
z
" transform="scale(0.015625)"/>
       <path id="DejaVuSans-62" d="M 3116 1747 
Q 3116 2381 2855 2742 
Q 2594 3103 2138 3103 
Q 1681 3103 1420 2742 
Q 1159 2381 1159 1747 
Q 1159 1113 1420 752 
Q 1681 391 2138 391 
Q 2594 391 2855 752 
Q 3116 1113 3116 1747 
z
M 1159 2969 
Q 1341 3281 1617 3432 
Q 1894 3584 2278 3584 
Q 2916 3584 3314 3078 
Q 3713 2572 3713 1747 
Q 3713 922 3314 415 
Q 2916 -91 2278 -91 
Q 1894 -91 1617 61 
Q 1341 213 1159 525 
L 1159 0 
L 581 0 
L 581 4863 
L 1159 4863 
L 1159 2969 
z
" transform="scale(0.015625)"/>
       <path id="DejaVuSans-65" d="M 3597 1894 
L 3597 1613 
L 953 1613 
Q 991 1019 1311 708 
Q 1631 397 2203 397 
Q 2534 397 2845 478 
Q 3156 559 3463 722 
L 3463 178 
Q 3153 47 2828 -22 
Q 2503 -91 2169 -91 
Q 1331 -91 842 396 
Q 353 884 353 1716 
Q 353 2575 817 3079 
Q 1281 3584 2069 3584 
Q 2775 3584 3186 3129 
Q 3597 2675 3597 1894 
z
M 3022 2063 
Q 3016 2534 2758 2815 
Q 2500 3097 2075 3097 
Q 1594 3097 1305 2825 
Q 1016 2553 972 2059 
L 3022 2063 
z
" transform="scale(0.015625)"/>
       <path id="DejaVuSans-72" d="M 2631 2963 
Q 2534 3019 2420 3045 
Q 2306 3072 2169 3072 
Q 1681 3072 1420 2755 
Q 1159 2438 1159 1844 
L 1159 0 
L 581 0 
L 581 3500 
L 1159 3500 
L 1159 2956 
Q 1341 3275 1631 3429 
Q 1922 3584 2338 3584 
Q 2397 3584 2469 3576 
Q 2541 3569 2628 3553 
L 2631 2963 
z
" transform="scale(0.015625)"/>
       <path id="DejaVuSans-74" d="M 1172 4494 
L 1172 3500 
L 2356 3500 
L 2356 3053 
L 1172 3053 
L 1172 1153 
Q 1172 725 1289 603 
Q 1406 481 1766 481 
L 2356 481 
L 2356 0 
L 1766 0 
Q 1100 0 847 248 
Q 594 497 594 1153 
L 594 3053 
L 172 3053 
L 172 3500 
L 594 3500 
L 594 4494 
L 1172 4494 
z
" transform="scale(0.015625)"/>
       <path id="DejaVuSans-20" transform="scale(0.015625)"/>
       <path id="DejaVuSans-44" d="M 1259 4147 
L 1259 519 
L 2022 519 
Q 2988 519 3436 956 
Q 3884 1394 3884 2338 
Q 3884 3275 3436 3711 
Q 2988 4147 2022 4147 
L 1259 4147 
z
M 628 4666 
L 1925 4666 
Q 3281 4666 3915 4102 
Q 4550 3538 4550 2338 
Q 4550 1131 3912 565 
Q 3275 0 1925 0 
L 628 0 
L 628 4666 
z
" transform="scale(0.015625)"/>
       <path id="DejaVuSans-4e" d="M 628 4666 
L 1478 4666 
L 3547 763 
L 3547 4666 
L 4159 4666 
L 4159 0 
L 3309 0 
L 1241 3903 
L 1241 0 
L 628 0 
L 628 4666 
z
" transform="scale(0.015625)"/>
       <path id="DejaVuSans-69" d="M 603 3500 
L 1178 3500 
L 1178 0 
L 603 0 
L 603 3500 
z
M 603 4863 
L 1178 4863 
L 1178 4134 
L 603 4134 
L 603 4863 
z
" transform="scale(0.015625)"/>
      </defs>
      <use xlink:href="#DejaVuSans-52"/>
      <use xlink:href="#DejaVuSans-6f" x="64.982422"/>
      <use xlink:href="#DejaVuSans-62" x="126.164062"/>
      <use xlink:href="#DejaVuSans-65" x="189.640625"/>
      <use xlink:href="#DejaVuSans-72" x="251.164062"/>
      <use xlink:href="#DejaVuSans-74" x="292.277344"/>
      <use xlink:href="#DejaVuSans-20" x="331.486328"/>
      <use xlink:href="#DejaVuSans-44" x="363.273438"/>
      <use xlink:href="#DejaVuSans-65" x="440.275391"/>
      <use xlink:href="#DejaVuSans-20" x="501.798828"/>
      <use xlink:href="#DejaVuSans-4e" x="533.585938"/>
      <use xlink:href="#DejaVuSans-69" x="608.390625"/>
      <use xlink:href="#DejaVuSans-72" x="636.173828"/>
      <use xlink:href="#DejaVuSans-6f" x="675.037109"/>
     </g>
    </g>
   </g>
   <g id="text_2">
    <g id="patch_3">
     <path d="M 435.446728 234.050388 
L 486.873291 234.050388 
L 486.873291 217.420076 
L 435.446728 217.420076 
z
" clip-path="url(#p4affeb188d)" style="fill: #ffffff; opacity: 0.7; stroke: #000000; stroke-linejoin: miter"/>
    </g>
    <g clip-path="url(#p4affeb188d)">
     <!-- Mel Blanc -->
     <g transform="translate(439.406728 228.218669)scale(0.09 -0.09)">
      <defs>
       <path id="DejaVuSans-4d" d="M 628 4666 
L 1569 4666 
L 2759 1491 
L 3956 4666 
L 4897 4666 
L 4897 0 
L 4281 0 
L 4281 4097 
L 3078 897 
L 2444 897 
L 1241 4097 
L 1241 0 
L 628 0 
L 628 4666 
z
" transform="scale(0.015625)"/>
       <path id="DejaVuSans-6c" d="M 603 4863 
L 1178 4863 
L 1178 0 
L 603 0 
L 603 4863 
z
" transform="scale(0.015625)"/>
       <path id="DejaVuSans-42" d="M 1259 2228 
L 1259 519 
L 2272 519 
Q 2781 519 3026 730 
Q 3272 941 3272 1375 
Q 3272 1813 3026 2020 
Q 2781 2228 2272 2228 
L 1259 2228 
z
M 1259 4147 
L 1259 2741 
L 2194 2741 
Q 2656 2741 2882 2914 
Q 3109 3088 3109 3444 
Q 3109 3797 2882 3972 
Q 2656 4147 2194 4147 
L 1259 4147 
z
M 628 4666 
L 2241 4666 
Q 2963 4666 3353 4366 
Q 3744 4066 3744 3513 
Q 3744 3084 3544 2831 
Q 3344 2578 2956 2516 
Q 3422 2416 3680 2098 
Q 3938 1781 3938 1306 
Q 3938 681 3513 340 
Q 3088 0 2303 0 
L 628 0 
L 628 4666 
z
" transform="scale(0.015625)"/>
       <path id="DejaVuSans-61" d="M 2194 1759 
Q 1497 1759 1228 1600 
Q 959 1441 959 1056 
Q 959 750 1161 570 
Q 1363 391 1709 391 
Q 2188 391 2477 730 
Q 2766 1069 2766 1631 
L 2766 1759 
L 2194 1759 
z
M 3341 1997 
L 3341 0 
L 2766 0 
L 2766 531 
Q 2569 213 2275 61 
Q 1981 -91 1556 -91 
Q 1019 -91 701 211 
Q 384 513 384 1019 
Q 384 1609 779 1909 
Q 1175 2209 1959 2209 
L 2766 2209 
L 2766 2266 
Q 2766 2663 2505 2880 
Q 2244 3097 1772 3097 
Q 1472 3097 1187 3025 
Q 903 2953 641 2809 
L 641 3341 
Q 956 3463 1253 3523 
Q 1550 3584 1831 3584 
Q 2591 3584 2966 3190 
Q 3341 2797 3341 1997 
z
" transform="scale(0.015625)"/>
       <path id="DejaVuSans-6e" d="M 3513 2113 
L 3513 0 
L 2938 0 
L 2938 2094 
Q 2938 2591 2744 2837 
Q 2550 3084 2163 3084 
Q 1697 3084 1428 2787 
Q 1159 2491 1159 1978 
L 1159 0 
L 581 0 
L 581 3500 
L 1159 3500 
L 1159 2956 
Q 1366 3272 1645 3428 
Q 1925 3584 2291 3584 
Q 2894 3584 3203 3211 
Q 3513 2838 3513 2113 
z
" transform="scale(0.015625)"/>
       <path id="DejaVuSans-63" d="M 3122 3366 
L 3122 2828 
Q 2878 2963 2633 3030 
Q 2388 3097 2138 3097 
Q 1578 3097 1268 2742 
Q 959 2388 959 1747 
Q 959 1106 1268 751 
Q 1578 397 2138 397 
Q 2388 397 2633 464 
Q 2878 531 3122 666 
L 3122 134 
Q 2881 22 2623 -34 
Q 2366 -91 2075 -91 
Q 1284 -91 818 406 
Q 353 903 353 1747 
Q 353 2603 823 3093 
Q 1294 3584 2113 3584 
Q 2378 3584 2631 3529 
Q 2884 3475 3122 3366 
z
" transform="scale(0.015625)"/>
      </defs>
      <use xlink:href="#DejaVuSans-4d"/>
      <use xlink:href="#DejaVuSans-65" x="86.279297"/>
      <use xlink:href="#DejaVuSans-6c" x="147.802734"/>
      <use xlink:href="#DejaVuSans-20" x="175.585938"/>
      <use xlink:href="#DejaVuSans-42" x="207.373047"/>
      <use xlink:href="#DejaVuSans-6c" x="275.976562"/>
      <use xlink:href="#DejaVuSans-61" x="303.759766"/>
      <use xlink:href="#DejaVuSans-6e" x="365.039062"/>
      <use xlink:href="#DejaVuSans-63" x="428.417969"/>
     </g>
    </g>
   </g>
   <g id="text_3">
    <g id="patch_4">
     <path d="M 375.812854 165.145362 
L 445.730198 165.145362 
L 445.730198 148.51505 
L 375.812854 148.51505 
z
" clip-path="url(#p4affeb188d)" style="fill: #ffffff; opacity: 0.7; stroke: #000000; stroke-linejoin: miter"/>
    </g>
    <g clip-path="url(#p4affeb188d)">
     <!-- Danny DeVito -->
     <g transform="translate(379.772854 159.313643)scale(0.09 -0.09)">
      <defs>
       <path id="DejaVuSans-79" d="M 2059 -325 
Q 1816 -950 1584 -1140 
Q 1353 -1331 966 -1331 
L 506 -1331 
L 506 -850 
L 844 -850 
Q 1081 -850 1212 -737 
Q 1344 -625 1503 -206 
L 1606 56 
L 191 3500 
L 800 3500 
L 1894 763 
L 2988 3500 
L 3597 3500 
L 2059 -325 
z
" transform="scale(0.015625)"/>
       <path id="DejaVuSans-56" d="M 1831 0 
L 50 4666 
L 709 4666 
L 2188 738 
L 3669 4666 
L 4325 4666 
L 2547 0 
L 1831 0 
z
" transform="scale(0.015625)"/>
      </defs>
      <use xlink:href="#DejaVuSans-44"/>
      <use xlink:href="#DejaVuSans-61" x="77.001953"/>
      <use xlink:href="#DejaVuSans-6e" x="138.28125"/>
      <use xlink:href="#DejaVuSans-6e" x="201.660156"/>
      <use xlink:href="#DejaVuSans-79" x="265.039062"/>
      <use xlink:href="#DejaVuSans-20" x="324.21875"/>
      <use xlink:href="#DejaVuSans-44" x="356.005859"/>
      <use xlink:href="#DejaVuSans-65" x="433.007812"/>
      <use xlink:href="#DejaVuSans-56" x="494.53125"/>
      <use xlink:href="#DejaVuSans-69" x="560.689453"/>
      <use xlink:href="#DejaVuSans-74" x="588.472656"/>
      <use xlink:href="#DejaVuSans-6f" x="627.681641"/>
     </g>
    </g>
   </g>
   <g id="text_4">
    <g id="patch_5">
     <path d="M 299.158134 122.559724 
L 373.903134 122.559724 
L 373.903134 105.929411 
L 299.158134 105.929411 
z
" clip-path="url(#p4affeb188d)" style="fill: #ffffff; opacity: 0.7; stroke: #000000; stroke-linejoin: miter"/>
    </g>
    <g clip-path="url(#p4affeb188d)">
     <!-- Steve Buscemi -->
     <g transform="translate(303.118134 116.728005)scale(0.09 -0.09)">
      <defs>
       <path id="DejaVuSans-53" d="M 3425 4513 
L 3425 3897 
Q 3066 4069 2747 4153 
Q 2428 4238 2131 4238 
Q 1616 4238 1336 4038 
Q 1056 3838 1056 3469 
Q 1056 3159 1242 3001 
Q 1428 2844 1947 2747 
L 2328 2669 
Q 3034 2534 3370 2195 
Q 3706 1856 3706 1288 
Q 3706 609 3251 259 
Q 2797 -91 1919 -91 
Q 1588 -91 1214 -16 
Q 841 59 441 206 
L 441 856 
Q 825 641 1194 531 
Q 1563 422 1919 422 
Q 2459 422 2753 634 
Q 3047 847 3047 1241 
Q 3047 1584 2836 1778 
Q 2625 1972 2144 2069 
L 1759 2144 
Q 1053 2284 737 2584 
Q 422 2884 422 3419 
Q 422 4038 858 4394 
Q 1294 4750 2059 4750 
Q 2388 4750 2728 4690 
Q 3069 4631 3425 4513 
z
" transform="scale(0.015625)"/>
       <path id="DejaVuSans-76" d="M 191 3500 
L 800 3500 
L 1894 563 
L 2988 3500 
L 3597 3500 
L 2284 0 
L 1503 0 
L 191 3500 
z
" transform="scale(0.015625)"/>
       <path id="DejaVuSans-75" d="M 544 1381 
L 544 3500 
L 1119 3500 
L 1119 1403 
Q 1119 906 1312 657 
Q 1506 409 1894 409 
Q 2359 409 2629 706 
Q 2900 1003 2900 1516 
L 2900 3500 
L 3475 3500 
L 3475 0 
L 2900 0 
L 2900 538 
Q 2691 219 2414 64 
Q 2138 -91 1772 -91 
Q 1169 -91 856 284 
Q 544 659 544 1381 
z
M 1991 3584 
L 1991 3584 
z
" transform="scale(0.015625)"/>
       <path id="DejaVuSans-73" d="M 2834 3397 
L 2834 2853 
Q 2591 2978 2328 3040 
Q 2066 3103 1784 3103 
Q 1356 3103 1142 2972 
Q 928 2841 928 2578 
Q 928 2378 1081 2264 
Q 1234 2150 1697 2047 
L 1894 2003 
Q 2506 1872 2764 1633 
Q 3022 1394 3022 966 
Q 3022 478 2636 193 
Q 2250 -91 1575 -91 
Q 1294 -91 989 -36 
Q 684 19 347 128 
L 347 722 
Q 666 556 975 473 
Q 1284 391 1588 391 
Q 1994 391 2212 530 
Q 2431 669 2431 922 
Q 2431 1156 2273 1281 
Q 2116 1406 1581 1522 
L 1381 1569 
Q 847 1681 609 1914 
Q 372 2147 372 2553 
Q 372 3047 722 3315 
Q 1072 3584 1716 3584 
Q 2034 3584 2315 3537 
Q 2597 3491 2834 3397 
z
" transform="scale(0.015625)"/>
       <path id="DejaVuSans-6d" d="M 3328 2828 
Q 3544 3216 3844 3400 
Q 4144 3584 4550 3584 
Q 5097 3584 5394 3201 
Q 5691 2819 5691 2113 
L 5691 0 
L 5113 0 
L 5113 2094 
Q 5113 2597 4934 2840 
Q 4756 3084 4391 3084 
Q 3944 3084 3684 2787 
Q 3425 2491 3425 1978 
L 3425 0 
L 2847 0 
L 2847 2094 
Q 2847 2600 2669 2842 
Q 2491 3084 2119 3084 
Q 1678 3084 1418 2786 
Q 1159 2488 1159 1978 
L 1159 0 
L 581 0 
L 581 3500 
L 1159 3500 
L 1159 2956 
Q 1356 3278 1631 3431 
Q 1906 3584 2284 3584 
Q 2666 3584 2933 3390 
Q 3200 3197 3328 2828 
z
" transform="scale(0.015625)"/>
      </defs>
      <use xlink:href="#DejaVuSans-53"/>
      <use xlink:href="#DejaVuSans-74" x="63.476562"/>
      <use xlink:href="#DejaVuSans-65" x="102.685547"/>
      <use xlink:href="#DejaVuSans-76" x="164.208984"/>
      <use xlink:href="#DejaVuSans-65" x="223.388672"/>
      <use xlink:href="#DejaVuSans-20" x="284.912109"/>
      <use xlink:href="#DejaVuSans-42" x="316.699219"/>
      <use xlink:href="#DejaVuSans-75" x="385.302734"/>
      <use xlink:href="#DejaVuSans-73" x="448.681641"/>
      <use xlink:href="#DejaVuSans-63" x="500.78125"/>
      <use xlink:href="#DejaVuSans-65" x="555.761719"/>
      <use xlink:href="#DejaVuSans-6d" x="617.285156"/>
      <use xlink:href="#DejaVuSans-69" x="714.697266"/>
     </g>
    </g>
   </g>
   <g id="text_5">
    <g id="patch_6">
     <path d="M 214.822836 113.656901 
L 287.725649 113.656901 
L 287.725649 97.026589 
L 214.822836 97.026589 
z
" clip-path="url(#p4affeb188d)" style="fill: #ffffff; opacity: 0.7; stroke: #000000; stroke-linejoin: miter"/>
    </g>
    <g clip-path="url(#p4affeb188d)">
     <!-- Jack Nicholson -->
     <g transform="translate(218.782836 107.825182)scale(0.09 -0.09)">
      <defs>
       <path id="DejaVuSans-4a" d="M 628 4666 
L 1259 4666 
L 1259 325 
Q 1259 -519 939 -900 
Q 619 -1281 -91 -1281 
L -331 -1281 
L -331 -750 
L -134 -750 
Q 284 -750 456 -515 
Q 628 -281 628 325 
L 628 4666 
z
" transform="scale(0.015625)"/>
       <path id="DejaVuSans-6b" d="M 581 4863 
L 1159 4863 
L 1159 1991 
L 2875 3500 
L 3609 3500 
L 1753 1863 
L 3688 0 
L 2938 0 
L 1159 1709 
L 1159 0 
L 581 0 
L 581 4863 
z
" transform="scale(0.015625)"/>
       <path id="DejaVuSans-68" d="M 3513 2113 
L 3513 0 
L 2938 0 
L 2938 2094 
Q 2938 2591 2744 2837 
Q 2550 3084 2163 3084 
Q 1697 3084 1428 2787 
Q 1159 2491 1159 1978 
L 1159 0 
L 581 0 
L 581 4863 
L 1159 4863 
L 1159 2956 
Q 1366 3272 1645 3428 
Q 1925 3584 2291 3584 
Q 2894 3584 3203 3211 
Q 3513 2838 3513 2113 
z
" transform="scale(0.015625)"/>
      </defs>
      <use xlink:href="#DejaVuSans-4a"/>
      <use xlink:href="#DejaVuSans-61" x="29.492188"/>
      <use xlink:href="#DejaVuSans-63" x="90.771484"/>
      <use xlink:href="#DejaVuSans-6b" x="145.751953"/>
      <use xlink:href="#DejaVuSans-20" x="203.662109"/>
      <use xlink:href="#DejaVuSans-4e" x="235.449219"/>
      <use xlink:href="#DejaVuSans-69" x="310.253906"/>
      <use xlink:href="#DejaVuSans-63" x="338.037109"/>
      <use xlink:href="#DejaVuSans-68" x="393.017578"/>
      <use xlink:href="#DejaVuSans-6f" x="456.396484"/>
      <use xlink:href="#DejaVuSans-6c" x="517.578125"/>
      <use xlink:href="#DejaVuSans-73" x="545.361328"/>
      <use xlink:href="#DejaVuSans-6f" x="597.460938"/>
      <use xlink:href="#DejaVuSans-6e" x="658.642578"/>
     </g>
    </g>
   </g>
   <g id="text_6">
    <g id="patch_7">
     <path d="M 125.002716 139.976283 
L 214.485216 139.976283 
L 214.485216 123.34597 
L 125.002716 123.34597 
z
" clip-path="url(#p4affeb188d)" style="fill: #ffffff; opacity: 0.7; stroke: #000000; stroke-linejoin: miter"/>
    </g>
    <g clip-path="url(#p4affeb188d)">
     <!-- Samuel L. Jackson -->
     <g transform="translate(128.962716 134.144564)scale(0.09 -0.09)">
      <defs>
       <path id="DejaVuSans-4c" d="M 628 4666 
L 1259 4666 
L 1259 531 
L 3531 531 
L 3531 0 
L 628 0 
L 628 4666 
z
" transform="scale(0.015625)"/>
       <path id="DejaVuSans-2e" d="M 684 794 
L 1344 794 
L 1344 0 
L 684 0 
L 684 794 
z
" transform="scale(0.015625)"/>
      </defs>
      <use xlink:href="#DejaVuSans-53"/>
      <use xlink:href="#DejaVuSans-61" x="63.476562"/>
      <use xlink:href="#DejaVuSans-6d" x="124.755859"/>
      <use xlink:href="#DejaVuSans-75" x="222.167969"/>
      <use xlink:href="#DejaVuSans-65" x="285.546875"/>
      <use xlink:href="#DejaVuSans-6c" x="347.070312"/>
      <use xlink:href="#DejaVuSans-20" x="374.853516"/>
      <use xlink:href="#DejaVuSans-4c" x="406.640625"/>
      <use xlink:href="#DejaVuSans-2e" x="462.353516"/>
      <use xlink:href="#DejaVuSans-20" x="494.140625"/>
      <use xlink:href="#DejaVuSans-4a" x="525.927734"/>
      <use xlink:href="#DejaVuSans-61" x="555.419922"/>
      <use xlink:href="#DejaVuSans-63" x="616.699219"/>
      <use xlink:href="#DejaVuSans-6b" x="671.679688"/>
      <use xlink:href="#DejaVuSans-73" x="729.589844"/>
      <use xlink:href="#DejaVuSans-6f" x="781.689453"/>
      <use xlink:href="#DejaVuSans-6e" x="842.871094"/>
     </g>
    </g>
   </g>
   <g id="text_7">
    <g id="patch_8">
     <path d="M 72.981125 196.966995 
L 139.093157 196.966995 
L 139.093157 180.336682 
L 72.981125 180.336682 
z
" clip-path="url(#p4affeb188d)" style="fill: #ffffff; opacity: 0.7; stroke: #000000; stroke-linejoin: miter"/>
    </g>
    <g clip-path="url(#p4affeb188d)">
     <!-- John Travolta -->
     <g transform="translate(76.941125 191.135276)scale(0.09 -0.09)">
      <defs>
       <path id="DejaVuSans-54" d="M -19 4666 
L 3928 4666 
L 3928 4134 
L 2272 4134 
L 2272 0 
L 1638 0 
L 1638 4134 
L -19 4134 
L -19 4666 
z
" transform="scale(0.015625)"/>
      </defs>
      <use xlink:href="#DejaVuSans-4a"/>
      <use xlink:href="#DejaVuSans-6f" x="29.492188"/>
      <use xlink:href="#DejaVuSans-68" x="90.673828"/>
      <use xlink:href="#DejaVuSans-6e" x="154.052734"/>
      <use xlink:href="#DejaVuSans-20" x="217.431641"/>
      <use xlink:href="#DejaVuSans-54" x="249.21875"/>
      <use xlink:href="#DejaVuSans-72" x="295.552734"/>
      <use xlink:href="#DejaVuSans-61" x="336.666016"/>
      <use xlink:href="#DejaVuSans-76" x="397.945312"/>
      <use xlink:href="#DejaVuSans-6f" x="457.125"/>
      <use xlink:href="#DejaVuSans-6c" x="518.306641"/>
      <use xlink:href="#DejaVuSans-74" x="546.089844"/>
      <use xlink:href="#DejaVuSans-61" x="585.298828"/>
     </g>
    </g>
   </g>
   <g id="text_8">
    <g id="patch_9">
     <path d="M 36.623293 274.77485 
L 105.715168 274.77485 
L 105.715168 258.144537 
L 36.623293 258.144537 
z
" clip-path="url(#p4affeb188d)" style="fill: #ffffff; opacity: 0.7; stroke: #000000; stroke-linejoin: miter"/>
    </g>
    <g clip-path="url(#p4affeb188d)">
     <!-- Robert Duvall -->
     <g transform="translate(40.583293 268.943131)scale(0.09 -0.09)">
      <use xlink:href="#DejaVuSans-52"/>
      <use xlink:href="#DejaVuSans-6f" x="64.982422"/>
      <use xlink:href="#DejaVuSans-62" x="126.164062"/>
      <use xlink:href="#DejaVuSans-65" x="189.640625"/>
      <use xlink:href="#DejaVuSans-72" x="251.164062"/>
      <use xlink:href="#DejaVuSans-74" x="292.277344"/>
      <use xlink:href="#DejaVuSans-20" x="331.486328"/>
      <use xlink:href="#DejaVuSans-44" x="363.273438"/>
      <use xlink:href="#DejaVuSans-75" x="440.275391"/>
      <use xlink:href="#DejaVuSans-76" x="503.654297"/>
      <use xlink:href="#DejaVuSans-61" x="562.833984"/>
      <use xlink:href="#DejaVuSans-6c" x="624.113281"/>
      <use xlink:href="#DejaVuSans-6c" x="651.896484"/>
     </g>
    </g>
   </g>
   <g id="text_9">
    <g id="patch_10">
     <path d="M 38.056977 359.946138 
L 104.281509 359.946138 
L 104.281509 343.315826 
L 38.056977 343.315826 
z
" clip-path="url(#p4affeb188d)" style="fill: #ffffff; opacity: 0.7; stroke: #000000; stroke-linejoin: miter"/>
    </g>
    <g clip-path="url(#p4affeb188d)">
     <!-- Nicolas Cage -->
     <g transform="translate(42.016977 354.11442)scale(0.09 -0.09)">
      <defs>
       <path id="DejaVuSans-43" d="M 4122 4306 
L 4122 3641 
Q 3803 3938 3442 4084 
Q 3081 4231 2675 4231 
Q 1875 4231 1450 3742 
Q 1025 3253 1025 2328 
Q 1025 1406 1450 917 
Q 1875 428 2675 428 
Q 3081 428 3442 575 
Q 3803 722 4122 1019 
L 4122 359 
Q 3791 134 3420 21 
Q 3050 -91 2638 -91 
Q 1578 -91 968 557 
Q 359 1206 359 2328 
Q 359 3453 968 4101 
Q 1578 4750 2638 4750 
Q 3056 4750 3426 4639 
Q 3797 4528 4122 4306 
z
" transform="scale(0.015625)"/>
       <path id="DejaVuSans-67" d="M 2906 1791 
Q 2906 2416 2648 2759 
Q 2391 3103 1925 3103 
Q 1463 3103 1205 2759 
Q 947 2416 947 1791 
Q 947 1169 1205 825 
Q 1463 481 1925 481 
Q 2391 481 2648 825 
Q 2906 1169 2906 1791 
z
M 3481 434 
Q 3481 -459 3084 -895 
Q 2688 -1331 1869 -1331 
Q 1566 -1331 1297 -1286 
Q 1028 -1241 775 -1147 
L 775 -588 
Q 1028 -725 1275 -790 
Q 1522 -856 1778 -856 
Q 2344 -856 2625 -561 
Q 2906 -266 2906 331 
L 2906 616 
Q 2728 306 2450 153 
Q 2172 0 1784 0 
Q 1141 0 747 490 
Q 353 981 353 1791 
Q 353 2603 747 3093 
Q 1141 3584 1784 3584 
Q 2172 3584 2450 3431 
Q 2728 3278 2906 2969 
L 2906 3500 
L 3481 3500 
L 3481 434 
z
" transform="scale(0.015625)"/>
      </defs>
      <use xlink:href="#DejaVuSans-4e"/>
      <use xlink:href="#DejaVuSans-69" x="74.804688"/>
      <use xlink:href="#DejaVuSans-63" x="102.587891"/>
      <use xlink:href="#DejaVuSans-6f" x="157.568359"/>
      <use xlink:href="#DejaVuSans-6c" x="218.75"/>
      <use xlink:href="#DejaVuSans-61" x="246.533203"/>
      <use xlink:href="#DejaVuSans-73" x="307.8125"/>
      <use xlink:href="#DejaVuSans-20" x="359.912109"/>
      <use xlink:href="#DejaVuSans-43" x="391.699219"/>
      <use xlink:href="#DejaVuSans-61" x="461.523438"/>
      <use xlink:href="#DejaVuSans-67" x="522.802734"/>
      <use xlink:href="#DejaVuSans-65" x="586.279297"/>
     </g>
    </g>
   </g>
   <g id="text_10">
    <g id="patch_11">
     <path d="M 72.615513 437.753969 
L 139.458794 437.753969 
L 139.458794 421.123656 
L 72.615513 421.123656 
z
" clip-path="url(#p4affeb188d)" style="fill: #ffffff; opacity: 0.7; stroke: #000000; stroke-linejoin: miter"/>
    </g>
    <g clip-path="url(#p4affeb188d)">
     <!-- Stanley Tucci -->
     <g transform="translate(76.575513 431.92225)scale(0.09 -0.09)">
      <use xlink:href="#DejaVuSans-53"/>
      <use xlink:href="#DejaVuSans-74" x="63.476562"/>
      <use xlink:href="#DejaVuSans-61" x="102.685547"/>
      <use xlink:href="#DejaVuSans-6e" x="163.964844"/>
      <use xlink:href="#DejaVuSans-6c" x="227.34375"/>
      <use xlink:href="#DejaVuSans-65" x="255.126953"/>
      <use xlink:href="#DejaVuSans-79" x="316.650391"/>
      <use xlink:href="#DejaVuSans-20" x="375.830078"/>
      <use xlink:href="#DejaVuSans-54" x="407.617188"/>
      <use xlink:href="#DejaVuSans-75" x="453.576172"/>
      <use xlink:href="#DejaVuSans-63" x="516.955078"/>
      <use xlink:href="#DejaVuSans-63" x="571.935547"/>
      <use xlink:href="#DejaVuSans-69" x="626.916016"/>
     </g>
    </g>
   </g>
   <g id="text_11">
    <g id="patch_12">
     <path d="M 145.427122 494.744681 
L 194.060872 494.744681 
L 194.060872 478.114368 
L 145.427122 478.114368 
z
" clip-path="url(#p4affeb188d)" style="fill: #ffffff; opacity: 0.7; stroke: #000000; stroke-linejoin: miter"/>
    </g>
    <g clip-path="url(#p4affeb188d)">
     <!-- Al Pacino -->
     <g transform="translate(149.387122 488.912962)scale(0.09 -0.09)">
      <defs>
       <path id="DejaVuSans-41" d="M 2188 4044 
L 1331 1722 
L 3047 1722 
L 2188 4044 
z
M 1831 4666 
L 2547 4666 
L 4325 0 
L 3669 0 
L 3244 1197 
L 1141 1197 
L 716 0 
L 50 0 
L 1831 4666 
z
" transform="scale(0.015625)"/>
       <path id="DejaVuSans-50" d="M 1259 4147 
L 1259 2394 
L 2053 2394 
Q 2494 2394 2734 2622 
Q 2975 2850 2975 3272 
Q 2975 3691 2734 3919 
Q 2494 4147 2053 4147 
L 1259 4147 
z
M 628 4666 
L 2053 4666 
Q 2838 4666 3239 4311 
Q 3641 3956 3641 3272 
Q 3641 2581 3239 2228 
Q 2838 1875 2053 1875 
L 1259 1875 
L 1259 0 
L 628 0 
L 628 4666 
z
" transform="scale(0.015625)"/>
      </defs>
      <use xlink:href="#DejaVuSans-41"/>
      <use xlink:href="#DejaVuSans-6c" x="68.408203"/>
      <use xlink:href="#DejaVuSans-20" x="96.191406"/>
      <use xlink:href="#DejaVuSans-50" x="127.978516"/>
      <use xlink:href="#DejaVuSans-61" x="183.78125"/>
      <use xlink:href="#DejaVuSans-63" x="245.060547"/>
      <use xlink:href="#DejaVuSans-69" x="300.041016"/>
      <use xlink:href="#DejaVuSans-6e" x="327.824219"/>
      <use xlink:href="#DejaVuSans-6f" x="391.203125"/>
     </g>
    </g>
   </g>
   <g id="text_12">
    <g id="patch_13">
     <path d="M 206.701076 521.06405 
L 295.847482 521.06405 
L 295.847482 504.433738 
L 206.701076 504.433738 
z
" clip-path="url(#p4affeb188d)" style="fill: #ffffff; opacity: 0.7; stroke: #000000; stroke-linejoin: miter"/>
    </g>
    <g clip-path="url(#p4affeb188d)">
     <!-- Sylvester Stallone -->
     <g transform="translate(210.661076 515.232332)scale(0.09 -0.09)">
      <use xlink:href="#DejaVuSans-53"/>
      <use xlink:href="#DejaVuSans-79" x="63.476562"/>
      <use xlink:href="#DejaVuSans-6c" x="122.65625"/>
      <use xlink:href="#DejaVuSans-76" x="150.439453"/>
      <use xlink:href="#DejaVuSans-65" x="209.619141"/>
      <use xlink:href="#DejaVuSans-73" x="271.142578"/>
      <use xlink:href="#DejaVuSans-74" x="323.242188"/>
      <use xlink:href="#DejaVuSans-65" x="362.451172"/>
      <use xlink:href="#DejaVuSans-72" x="423.974609"/>
      <use xlink:href="#DejaVuSans-20" x="465.087891"/>
      <use xlink:href="#DejaVuSans-53" x="496.875"/>
      <use xlink:href="#DejaVuSans-74" x="560.351562"/>
      <use xlink:href="#DejaVuSans-61" x="599.560547"/>
      <use xlink:href="#DejaVuSans-6c" x="660.839844"/>
      <use xlink:href="#DejaVuSans-6c" x="688.623047"/>
      <use xlink:href="#DejaVuSans-6f" x="716.40625"/>
      <use xlink:href="#DejaVuSans-6e" x="777.587891"/>
      <use xlink:href="#DejaVuSans-65" x="840.966797"/>
     </g>
    </g>
   </g>
   <g id="text_13">
    <g id="patch_14">
     <path d="M 294.725665 512.161215 
L 378.335665 512.161215 
L 378.335665 495.530903 
L 294.725665 495.530903 
z
" clip-path="url(#p4affeb188d)" style="fill: #ffffff; opacity: 0.7; stroke: #000000; stroke-linejoin: miter"/>
    </g>
    <g clip-path="url(#p4affeb188d)">
     <!-- Morgan Freeman -->
     <g transform="translate(298.685665 506.329497)scale(0.09 -0.09)">
      <defs>
       <path id="DejaVuSans-46" d="M 628 4666 
L 3309 4666 
L 3309 4134 
L 1259 4134 
L 1259 2759 
L 3109 2759 
L 3109 2228 
L 1259 2228 
L 1259 0 
L 628 0 
L 628 4666 
z
" transform="scale(0.015625)"/>
      </defs>
      <use xlink:href="#DejaVuSans-4d"/>
      <use xlink:href="#DejaVuSans-6f" x="86.279297"/>
      <use xlink:href="#DejaVuSans-72" x="147.460938"/>
      <use xlink:href="#DejaVuSans-67" x="186.824219"/>
      <use xlink:href="#DejaVuSans-61" x="250.300781"/>
      <use xlink:href="#DejaVuSans-6e" x="311.580078"/>
      <use xlink:href="#DejaVuSans-20" x="374.958984"/>
      <use xlink:href="#DejaVuSans-46" x="406.746094"/>
      <use xlink:href="#DejaVuSans-72" x="457.015625"/>
      <use xlink:href="#DejaVuSans-65" x="495.878906"/>
      <use xlink:href="#DejaVuSans-65" x="557.402344"/>
      <use xlink:href="#DejaVuSans-6d" x="618.925781"/>
      <use xlink:href="#DejaVuSans-61" x="716.337891"/>
      <use xlink:href="#DejaVuSans-6e" x="777.617188"/>
     </g>
    </g>
   </g>
   <g id="text_14">
    <g id="patch_15">
     <path d="M 380.656016 469.575553 
L 440.88711 469.575553 
L 440.88711 452.94524 
L 380.656016 452.94524 
z
" clip-path="url(#p4affeb188d)" style="fill: #ffffff; opacity: 0.7; stroke: #000000; stroke-linejoin: miter"/>
    </g>
    <g clip-path="url(#p4affeb188d)">
     <!-- Bruce Willis -->
     <g transform="translate(384.616016 463.743834)scale(0.09 -0.09)">
      <defs>
       <path id="DejaVuSans-57" d="M 213 4666 
L 850 4666 
L 1831 722 
L 2809 4666 
L 3519 4666 
L 4500 722 
L 5478 4666 
L 6119 4666 
L 4947 0 
L 4153 0 
L 3169 4050 
L 2175 0 
L 1381 0 
L 213 4666 
z
" transform="scale(0.015625)"/>
      </defs>
      <use xlink:href="#DejaVuSans-42"/>
      <use xlink:href="#DejaVuSans-72" x="68.603516"/>
      <use xlink:href="#DejaVuSans-75" x="109.716797"/>
      <use xlink:href="#DejaVuSans-63" x="173.095703"/>
      <use xlink:href="#DejaVuSans-65" x="228.076172"/>
      <use xlink:href="#DejaVuSans-20" x="289.599609"/>
      <use xlink:href="#DejaVuSans-57" x="321.386719"/>
      <use xlink:href="#DejaVuSans-69" x="418.013672"/>
      <use xlink:href="#DejaVuSans-6c" x="445.796875"/>
      <use xlink:href="#DejaVuSans-6c" x="473.580078"/>
      <use xlink:href="#DejaVuSans-69" x="501.363281"/>
      <use xlink:href="#DejaVuSans-73" x="529.146484"/>
     </g>
    </g>
   </g>
   <g id="text_15">
    <g id="patch_16">
     <path d="M 413.252612 400.670533 
L 509.067456 400.670533 
L 509.067456 384.04022 
L 413.252612 384.04022 
z
" clip-path="url(#p4affeb188d)" style="fill: #ffffff; opacity: 0.7; stroke: #000000; stroke-linejoin: miter"/>
    </g>
    <g clip-path="url(#p4affeb188d)">
     <!-- Christopher Walken -->
     <g transform="translate(417.212612 394.838814)scale(0.09 -0.09)">
      <defs>
       <path id="DejaVuSans-70" d="M 1159 525 
L 1159 -1331 
L 581 -1331 
L 581 3500 
L 1159 3500 
L 1159 2969 
Q 1341 3281 1617 3432 
Q 1894 3584 2278 3584 
Q 2916 3584 3314 3078 
Q 3713 2572 3713 1747 
Q 3713 922 3314 415 
Q 2916 -91 2278 -91 
Q 1894 -91 1617 61 
Q 1341 213 1159 525 
z
M 3116 1747 
Q 3116 2381 2855 2742 
Q 2594 3103 2138 3103 
Q 1681 3103 1420 2742 
Q 1159 2381 1159 1747 
Q 1159 1113 1420 752 
Q 1681 391 2138 391 
Q 2594 391 2855 752 
Q 3116 1113 3116 1747 
z
" transform="scale(0.015625)"/>
      </defs>
      <use xlink:href="#DejaVuSans-43"/>
      <use xlink:href="#DejaVuSans-68" x="69.824219"/>
      <use xlink:href="#DejaVuSans-72" x="133.203125"/>
      <use xlink:href="#DejaVuSans-69" x="174.316406"/>
      <use xlink:href="#DejaVuSans-73" x="202.099609"/>
      <use xlink:href="#DejaVuSans-74" x="254.199219"/>
      <use xlink:href="#DejaVuSans-6f" x="293.408203"/>
      <use xlink:href="#DejaVuSans-70" x="354.589844"/>
      <use xlink:href="#DejaVuSans-68" x="418.066406"/>
      <use xlink:href="#DejaVuSans-65" x="481.445312"/>
      <use xlink:href="#DejaVuSans-72" x="542.96875"/>
      <use xlink:href="#DejaVuSans-20" x="584.082031"/>
      <use xlink:href="#DejaVuSans-57" x="615.869141"/>
      <use xlink:href="#DejaVuSans-61" x="708.371094"/>
      <use xlink:href="#DejaVuSans-6c" x="769.650391"/>
      <use xlink:href="#DejaVuSans-6b" x="797.433594"/>
      <use xlink:href="#DejaVuSans-65" x="851.71875"/>
      <use xlink:href="#DejaVuSans-6e" x="913.242188"/>
     </g>
    </g>
   </g>
   <g id="text_16">
    <!-- Impactful actors for Drama genre - Importance rank: 6 -->
    <g transform="translate(120.55125 16.318125)scale(0.12 -0.12)">
     <defs>
      <path id="DejaVuSans-49" d="M 628 4666 
L 1259 4666 
L 1259 0 
L 628 0 
L 628 4666 
z
" transform="scale(0.015625)"/>
      <path id="DejaVuSans-66" d="M 2375 4863 
L 2375 4384 
L 1825 4384 
Q 1516 4384 1395 4259 
Q 1275 4134 1275 3809 
L 1275 3500 
L 2222 3500 
L 2222 3053 
L 1275 3053 
L 1275 0 
L 697 0 
L 697 3053 
L 147 3053 
L 147 3500 
L 697 3500 
L 697 3744 
Q 697 4328 969 4595 
Q 1241 4863 1831 4863 
L 2375 4863 
z
" transform="scale(0.015625)"/>
      <path id="DejaVuSans-2d" d="M 313 2009 
L 1997 2009 
L 1997 1497 
L 313 1497 
L 313 2009 
z
" transform="scale(0.015625)"/>
      <path id="DejaVuSans-3a" d="M 750 794 
L 1409 794 
L 1409 0 
L 750 0 
L 750 794 
z
M 750 3309 
L 1409 3309 
L 1409 2516 
L 750 2516 
L 750 3309 
z
" transform="scale(0.015625)"/>
      <path id="DejaVuSans-36" d="M 2113 2584 
Q 1688 2584 1439 2293 
Q 1191 2003 1191 1497 
Q 1191 994 1439 701 
Q 1688 409 2113 409 
Q 2538 409 2786 701 
Q 3034 994 3034 1497 
Q 3034 2003 2786 2293 
Q 2538 2584 2113 2584 
z
M 3366 4563 
L 3366 3988 
Q 3128 4100 2886 4159 
Q 2644 4219 2406 4219 
Q 1781 4219 1451 3797 
Q 1122 3375 1075 2522 
Q 1259 2794 1537 2939 
Q 1816 3084 2150 3084 
Q 2853 3084 3261 2657 
Q 3669 2231 3669 1497 
Q 3669 778 3244 343 
Q 2819 -91 2113 -91 
Q 1303 -91 875 529 
Q 447 1150 447 2328 
Q 447 3434 972 4092 
Q 1497 4750 2381 4750 
Q 2619 4750 2861 4703 
Q 3103 4656 3366 4563 
z
" transform="scale(0.015625)"/>
     </defs>
     <use xlink:href="#DejaVuSans-49"/>
     <use xlink:href="#DejaVuSans-6d" x="29.492188"/>
     <use xlink:href="#DejaVuSans-70" x="126.904297"/>
     <use xlink:href="#DejaVuSans-61" x="190.380859"/>
     <use xlink:href="#DejaVuSans-63" x="251.660156"/>
     <use xlink:href="#DejaVuSans-74" x="306.640625"/>
     <use xlink:href="#DejaVuSans-66" x="345.849609"/>
     <use xlink:href="#DejaVuSans-75" x="381.054688"/>
     <use xlink:href="#DejaVuSans-6c" x="444.433594"/>
     <use xlink:href="#DejaVuSans-20" x="472.216797"/>
     <use xlink:href="#DejaVuSans-61" x="504.003906"/>
     <use xlink:href="#DejaVuSans-63" x="565.283203"/>
     <use xlink:href="#DejaVuSans-74" x="620.263672"/>
     <use xlink:href="#DejaVuSans-6f" x="659.472656"/>
     <use xlink:href="#DejaVuSans-72" x="720.654297"/>
     <use xlink:href="#DejaVuSans-73" x="761.767578"/>
     <use xlink:href="#DejaVuSans-20" x="813.867188"/>
     <use xlink:href="#DejaVuSans-66" x="845.654297"/>
     <use xlink:href="#DejaVuSans-6f" x="880.859375"/>
     <use xlink:href="#DejaVuSans-72" x="942.041016"/>
     <use xlink:href="#DejaVuSans-20" x="983.154297"/>
     <use xlink:href="#DejaVuSans-44" x="1014.941406"/>
     <use xlink:href="#DejaVuSans-72" x="1091.943359"/>
     <use xlink:href="#DejaVuSans-61" x="1133.056641"/>
     <use xlink:href="#DejaVuSans-6d" x="1194.335938"/>
     <use xlink:href="#DejaVuSans-61" x="1291.748047"/>
     <use xlink:href="#DejaVuSans-20" x="1353.027344"/>
     <use xlink:href="#DejaVuSans-67" x="1384.814453"/>
     <use xlink:href="#DejaVuSans-65" x="1448.291016"/>
     <use xlink:href="#DejaVuSans-6e" x="1509.814453"/>
     <use xlink:href="#DejaVuSans-72" x="1573.193359"/>
     <use xlink:href="#DejaVuSans-65" x="1612.056641"/>
     <use xlink:href="#DejaVuSans-20" x="1673.580078"/>
     <use xlink:href="#DejaVuSans-2d" x="1705.367188"/>
     <use xlink:href="#DejaVuSans-20" x="1741.451172"/>
     <use xlink:href="#DejaVuSans-49" x="1773.238281"/>
     <use xlink:href="#DejaVuSans-6d" x="1802.730469"/>
     <use xlink:href="#DejaVuSans-70" x="1900.142578"/>
     <use xlink:href="#DejaVuSans-6f" x="1963.619141"/>
     <use xlink:href="#DejaVuSans-72" x="2024.800781"/>
     <use xlink:href="#DejaVuSans-74" x="2065.914062"/>
     <use xlink:href="#DejaVuSans-61" x="2105.123047"/>
     <use xlink:href="#DejaVuSans-6e" x="2166.402344"/>
     <use xlink:href="#DejaVuSans-63" x="2229.78125"/>
     <use xlink:href="#DejaVuSans-65" x="2284.761719"/>
     <use xlink:href="#DejaVuSans-20" x="2346.285156"/>
     <use xlink:href="#DejaVuSans-72" x="2378.072266"/>
     <use xlink:href="#DejaVuSans-61" x="2419.185547"/>
     <use xlink:href="#DejaVuSans-6e" x="2480.464844"/>
     <use xlink:href="#DejaVuSans-6b" x="2543.84375"/>
     <use xlink:href="#DejaVuSans-3a" x="2601.753906"/>
     <use xlink:href="#DejaVuSans-20" x="2635.445312"/>
     <use xlink:href="#DejaVuSans-36" x="2667.232422"/>
    </g>
   </g>
  </g>
 </g>
 <defs>
  <clipPath id="p4affeb188d">
   <rect x="7.2" y="22.318125" width="554.4" height="554.4"/>
  </clipPath>
 </defs>
</svg>
