<?xml version="1.0" encoding="utf-8" standalone="no"?>
<!DOCTYPE svg PUBLIC "-//W3C//DTD SVG 1.1//EN"
  "http://www.w3.org/Graphics/SVG/1.1/DTD/svg11.dtd">
<svg xmlns:xlink="http://www.w3.org/1999/xlink" width="576pt" height="576pt" viewBox="0 0 576 576" xmlns="http://www.w3.org/2000/svg" version="1.1">
 <metadata>
  <rdf:RDF xmlns:dc="http://purl.org/dc/elements/1.1/" xmlns:cc="http://creativecommons.org/ns#" xmlns:rdf="http://www.w3.org/1999/02/22-rdf-syntax-ns#">
   <cc:Work>
    <dc:type rdf:resource="http://purl.org/dc/dcmitype/StillImage"/>
    <dc:date>2022-12-22T16:12:12.313202</dc:date>
    <dc:format>image/svg+xml</dc:format>
    <dc:creator>
     <cc:Agent>
      <dc:title>Matplotlib v3.5.2, https://matplotlib.org/</dc:title>
     </cc:Agent>
    </dc:creator>
   </cc:Work>
  </rdf:RDF>
 </metadata>
 <defs>
  <style type="text/css">*{stroke-linejoin: round; stroke-linecap: butt}</style>
 </defs>
 <g id="figure_1">
  <g id="patch_1">
   <path d="M 0 576 
L 576 576 
L 576 0 
L 0 0 
z
" style="fill: #ffffff"/>
  </g>
  <g id="axes_1">
   <g id="LineCollection_1">
    <path d="M 263.109587 495.021302 
L 482.592374 370.831962 
" clip-path="url(#pe632622adc)" style="fill: none; stroke: #000000; stroke-opacity: 0.3; stroke-width: 5"/>
   </g>
   <g id="PathCollection_1">
    <path d="M 501.230769 312.281394 
C 508.493655 312.281394 515.46005 309.395819 520.595686 304.260183 
C 525.731322 299.124547 528.616897 292.158152 528.616897 284.895266 
C 528.616897 277.63238 525.731322 270.665986 520.595686 265.53035 
C 515.46005 260.394714 508.493655 257.509139 501.230769 257.509139 
C 493.967883 257.509139 487.001488 260.394714 481.865852 265.53035 
C 476.730217 270.665986 473.844641 277.63238 473.844641 284.895266 
C 473.844641 292.158152 476.730217 299.124547 481.865852 304.260183 
C 487.001488 309.395819 493.967883 312.281394 501.230769 312.281394 
z
" clip-path="url(#pe632622adc)" style="fill: #d62728; fill-opacity: 0.99; stroke: #d62728; stroke-opacity: 0.99"/>
    <path d="M 482.592348 224.664306 
C 489.409597 224.664306 495.948547 221.955785 500.76907 217.135262 
C 505.589593 212.314739 508.298114 205.775789 508.298114 198.95854 
C 508.298114 192.141291 505.589593 185.602341 500.76907 180.781818 
C 495.948547 175.961295 489.409597 173.252773 482.592348 173.252773 
C 475.775099 173.252773 469.236149 175.961295 464.415626 180.781818 
C 459.595103 185.602341 456.886581 192.141291 456.886581 198.95854 
C 456.886581 205.775789 459.595103 212.314739 464.415626 217.135262 
C 469.236149 221.955785 475.775099 224.664306 482.592348 224.664306 
z
" clip-path="url(#pe632622adc)" style="fill: #d62728; fill-opacity: 0.99; stroke: #d62728; stroke-opacity: 0.99"/>
    <path d="M 429.89985 153.40882 
C 436.669895 153.40882 443.163568 150.719052 447.950713 145.931907 
C 452.737858 141.144762 455.427626 134.651089 455.427626 127.881044 
C 455.427626 121.110999 452.737858 114.617325 447.950713 109.830181 
C 443.163568 105.043036 436.669895 102.353268 429.89985 102.353268 
C 423.129805 102.353268 416.636131 105.043036 411.848987 109.830181 
C 407.061842 114.617325 404.372074 121.110999 404.372074 127.881044 
C 404.372074 134.651089 407.061842 141.144762 411.848987 145.931907 
C 416.636131 150.719052 423.129805 153.40882 429.89985 153.40882 
z
" clip-path="url(#pe632622adc)" style="fill: #d62728; fill-opacity: 0.99; stroke: #d62728; stroke-opacity: 0.99"/>
    <path d="M 352.264291 109.438338 
C 359.023149 109.438338 365.506092 106.753015 370.285326 101.973781 
C 375.064561 97.194547 377.749883 90.711604 377.749883 83.952746 
C 377.749883 77.193888 375.064561 70.710945 370.285326 65.931711 
C 365.506092 61.152477 359.023149 58.467154 352.264291 58.467154 
C 345.505433 58.467154 339.022491 61.152477 334.243256 65.931711 
C 329.464022 70.710945 326.778699 77.193888 326.778699 83.952746 
C 326.778699 90.711604 329.464022 97.194547 334.243256 101.973781 
C 339.022491 106.753015 345.505433 109.438338 352.264291 109.438338 
z
" clip-path="url(#pe632622adc)" style="fill: #d62728; fill-opacity: 0.99; stroke: #d62728; stroke-opacity: 0.99"/>
    <path d="M 263.109549 100.025974 
C 269.807715 100.025974 276.232444 97.364764 280.968763 92.628445 
C 285.705082 87.892126 288.366292 81.467397 288.366292 74.769231 
C 288.366292 68.071064 285.705082 61.646335 280.968763 56.910016 
C 276.232444 52.173697 269.807715 49.512487 263.109549 49.512487 
C 256.411382 49.512487 249.986653 52.173697 245.250334 56.910016 
C 240.514015 61.646335 237.852805 68.071064 237.852805 74.769231 
C 237.852805 81.467397 240.514015 87.892126 245.250334 92.628445 
C 249.986653 97.364764 256.411382 100.025974 263.109549 100.025974 
z
" clip-path="url(#pe632622adc)" style="fill: #d62728; fill-opacity: 0.99; stroke: #d62728; stroke-opacity: 0.99"/>
    <path d="M 177.851298 125.621798 
C 184.137507 125.621798 190.167095 123.12426 194.612115 118.67924 
C 199.057136 114.234219 201.554673 108.204631 201.554673 101.918422 
C 201.554673 95.632214 199.057136 89.602626 194.612115 85.157605 
C 190.167095 80.712584 184.137507 78.215047 177.851298 78.215047 
C 171.565089 78.215047 165.535501 80.712584 161.090481 85.157605 
C 156.64546 89.602626 154.147923 95.632214 154.147923 101.918422 
C 154.147923 108.204631 156.64546 114.234219 161.090481 118.67924 
C 165.535501 123.12426 171.565089 125.621798 177.851298 125.621798 
z
" clip-path="url(#pe632622adc)" style="fill: #d62728; fill-opacity: 0.99; stroke: #d62728; stroke-opacity: 0.99"/>
    <path d="M 111.231477 184.228192 
C 117.469645 184.228192 123.453153 181.749742 127.864204 177.338691 
C 132.275255 172.92764 134.753705 166.944132 134.753705 160.705964 
C 134.753705 154.467796 132.275255 148.484288 127.864204 144.073237 
C 123.453153 139.662186 117.469645 137.183736 111.231477 137.183736 
C 104.993309 137.183736 99.009801 139.662186 94.59875 144.073237 
C 90.187699 148.484288 87.709249 154.467796 87.709249 160.705964 
C 87.709249 166.944132 90.187699 172.92764 94.59875 177.338691 
C 99.009801 181.749742 104.993309 184.228192 111.231477 184.228192 
z
" clip-path="url(#pe632622adc)" style="fill: #d62728; fill-opacity: 0.99; stroke: #d62728; stroke-opacity: 0.99"/>
    <path d="M 74.769231 262.786189 
C 80.555752 262.786189 86.106052 260.487179 90.19774 256.395491 
C 94.289429 252.303802 96.588438 246.753503 96.588438 240.966981 
C 96.588438 235.18046 94.289429 229.63016 90.19774 225.538472 
C 86.106052 221.446783 80.555752 219.147774 74.769231 219.147774 
C 68.982709 219.147774 63.43241 221.446783 59.340721 225.538472 
C 55.249033 229.63016 52.950023 235.18046 52.950023 240.966981 
C 52.950023 246.753503 55.249033 252.303802 59.340721 256.395491 
C 63.43241 260.487179 68.982709 262.786189 74.769231 262.786189 
z
" clip-path="url(#pe632622adc)" style="fill: #d62728; fill-opacity: 0.99; stroke: #d62728; stroke-opacity: 0.99"/>
    <path d="M 74.769244 350.580255 
C 80.539179 350.580255 86.073569 348.287835 90.153529 344.207875 
C 94.233489 340.127915 96.525909 334.593525 96.525909 328.82359 
C 96.525909 323.053655 94.233489 317.519264 90.153529 313.439304 
C 86.073569 309.359344 80.539179 307.066925 74.769244 307.066925 
C 68.999309 307.066925 63.464918 309.359344 59.384958 313.439304 
C 55.304998 317.519264 53.012579 323.053655 53.012579 328.82359 
C 53.012579 334.593525 55.304998 340.127915 59.384958 344.207875 
C 63.464918 348.287835 68.999309 350.580255 74.769244 350.580255 
z
" clip-path="url(#pe632622adc)" style="fill: #d62728; fill-opacity: 0.99; stroke: #d62728; stroke-opacity: 0.99"/>
    <path d="M 111.23149 430.611809 
C 116.940577 430.611809 122.416604 428.343565 126.453538 424.30663 
C 130.490473 420.269696 132.758717 414.793669 132.758717 409.084582 
C 132.758717 403.375494 130.490473 397.899468 126.453538 393.862533 
C 122.416604 389.825599 116.940577 387.557354 111.23149 387.557354 
C 105.522402 387.557354 100.046376 389.825599 96.009441 393.862533 
C 91.972507 397.899468 89.704262 403.375494 89.704262 409.084582 
C 89.704262 414.793669 91.972507 420.269696 96.009441 424.30663 
C 100.046376 428.343565 105.522402 430.611809 111.23149 430.611809 
z
" clip-path="url(#pe632622adc)" style="fill: #d62728; fill-opacity: 0.99; stroke: #d62728; stroke-opacity: 0.99"/>
    <path d="M 177.85133 489.357466 
C 183.54931 489.357466 189.014682 487.093635 193.043762 483.064555 
C 197.072842 479.035475 199.336673 473.570103 199.336673 467.872123 
C 199.336673 462.174144 197.072842 456.708771 193.043762 452.679691 
C 189.014682 448.650611 183.54931 446.38678 177.85133 446.38678 
C 172.153351 446.38678 166.687978 448.650611 162.658898 452.679691 
C 158.629818 456.708771 156.365987 462.174144 156.365987 467.872123 
C 156.365987 473.570103 158.629818 479.035475 162.658898 483.064555 
C 166.687978 487.093635 172.153351 489.357466 177.85133 489.357466 
z
" clip-path="url(#pe632622adc)" style="fill: #d62728; fill-opacity: 0.99; stroke: #d62728; stroke-opacity: 0.99"/>
    <path d="M 263.109587 516.249346 
C 268.73933 516.249346 274.139251 514.012625 278.120081 510.031796 
C 282.10091 506.050966 284.337631 500.651045 284.337631 495.021302 
C 284.337631 489.391559 282.10091 483.991638 278.120081 480.010809 
C 274.139251 476.029979 268.73933 473.793259 263.109587 473.793259 
C 257.479844 473.793259 252.079923 476.029979 248.099094 480.010809 
C 244.118264 483.991638 241.881544 489.391559 241.881544 495.021302 
C 241.881544 500.651045 244.118264 506.050966 248.099094 510.031796 
C 252.079923 514.012625 257.479844 516.249346 263.109587 516.249346 
z
" clip-path="url(#pe632622adc)" style="fill: #d62728; fill-opacity: 0.99; stroke: #d62728; stroke-opacity: 0.99"/>
    <path d="M 352.264323 507.033207 
C 357.885418 507.033207 363.277043 504.799922 367.251757 500.825208 
C 371.226471 496.850494 373.459756 491.458869 373.459756 485.837774 
C 373.459756 480.21668 371.226471 474.825054 367.251757 470.850341 
C 363.277043 466.875627 357.885418 464.642342 352.264323 464.642342 
C 346.643229 464.642342 341.251603 466.875627 337.276889 470.850341 
C 333.302176 474.825054 331.068891 480.21668 331.068891 485.837774 
C 331.068891 491.458869 333.302176 496.850494 337.276889 500.825208 
C 341.251603 504.799922 346.643229 507.033207 352.264323 507.033207 
z
" clip-path="url(#pe632622adc)" style="fill: #d62728; fill-opacity: 0.99; stroke: #d62728; stroke-opacity: 0.99"/>
    <path d="M 429.899888 461.535294 
C 435.104723 461.535294 440.097081 459.467392 443.777455 455.787018 
C 447.457829 452.106644 449.525731 447.114286 449.525731 441.909451 
C 449.525731 436.704617 447.457829 431.712258 443.777455 428.031885 
C 440.097081 424.351511 435.104723 422.283608 429.899888 422.283608 
C 424.695054 422.283608 419.702695 424.351511 416.022322 428.031885 
C 412.341948 431.712258 410.274045 436.704617 410.274045 441.909451 
C 410.274045 447.114286 412.341948 452.106644 416.022322 455.787018 
C 419.702695 459.467392 424.695054 461.535294 429.899888 461.535294 
z
" clip-path="url(#pe632622adc)" style="fill: #d62728; fill-opacity: 0.99; stroke: #d62728; stroke-opacity: 0.99"/>
    <path d="M 482.592374 390.196879 
C 487.728009 390.196879 492.653994 388.156469 496.285437 384.525026 
C 499.91688 380.893583 501.95729 375.967598 501.95729 370.831962 
C 501.95729 365.696326 499.91688 360.770341 496.285437 357.138898 
C 492.653994 353.507455 487.728009 351.467045 482.592374 351.467045 
C 477.456738 351.467045 472.530753 353.507455 468.89931 357.138898 
C 465.267867 360.770341 463.227457 365.696326 463.227457 370.831962 
C 463.227457 375.967598 465.267867 380.893583 468.89931 384.525026 
C 472.530753 388.156469 477.456738 390.196879 482.592374 390.196879 
z
" clip-path="url(#pe632622adc)" style="fill: #d62728; fill-opacity: 0.99; stroke: #d62728; stroke-opacity: 0.99"/>
   </g>
   <g id="text_1">
    <g id="patch_2">
     <path d="M 453.929441 293.210423 
L 548.532097 293.210423 
L 548.532097 276.58011 
L 453.929441 276.58011 
z
" clip-path="url(#pe632622adc)" style="fill: #ffffff; opacity: 0.7; stroke: #000000; stroke-linejoin: miter"/>
    </g>
    <g clip-path="url(#pe632622adc)">
     <!-- Denzel Washington -->
     <g transform="translate(457.889441 287.378704)scale(0.09 -0.09)">
      <defs>
       <path id="DejaVuSans-44" d="M 1259 4147 
L 1259 519 
L 2022 519 
Q 2988 519 3436 956 
Q 3884 1394 3884 2338 
Q 3884 3275 3436 3711 
Q 2988 4147 2022 4147 
L 1259 4147 
z
M 628 4666 
L 1925 4666 
Q 3281 4666 3915 4102 
Q 4550 3538 4550 2338 
Q 4550 1131 3912 565 
Q 3275 0 1925 0 
L 628 0 
L 628 4666 
z
" transform="scale(0.015625)"/>
       <path id="DejaVuSans-65" d="M 3597 1894 
L 3597 1613 
L 953 1613 
Q 991 1019 1311 708 
Q 1631 397 2203 397 
Q 2534 397 2845 478 
Q 3156 559 3463 722 
L 3463 178 
Q 3153 47 2828 -22 
Q 2503 -91 2169 -91 
Q 1331 -91 842 396 
Q 353 884 353 1716 
Q 353 2575 817 3079 
Q 1281 3584 2069 3584 
Q 2775 3584 3186 3129 
Q 3597 2675 3597 1894 
z
M 3022 2063 
Q 3016 2534 2758 2815 
Q 2500 3097 2075 3097 
Q 1594 3097 1305 2825 
Q 1016 2553 972 2059 
L 3022 2063 
z
" transform="scale(0.015625)"/>
       <path id="DejaVuSans-6e" d="M 3513 2113 
L 3513 0 
L 2938 0 
L 2938 2094 
Q 2938 2591 2744 2837 
Q 2550 3084 2163 3084 
Q 1697 3084 1428 2787 
Q 1159 2491 1159 1978 
L 1159 0 
L 581 0 
L 581 3500 
L 1159 3500 
L 1159 2956 
Q 1366 3272 1645 3428 
Q 1925 3584 2291 3584 
Q 2894 3584 3203 3211 
Q 3513 2838 3513 2113 
z
" transform="scale(0.015625)"/>
       <path id="DejaVuSans-7a" d="M 353 3500 
L 3084 3500 
L 3084 2975 
L 922 459 
L 3084 459 
L 3084 0 
L 275 0 
L 275 525 
L 2438 3041 
L 353 3041 
L 353 3500 
z
" transform="scale(0.015625)"/>
       <path id="DejaVuSans-6c" d="M 603 4863 
L 1178 4863 
L 1178 0 
L 603 0 
L 603 4863 
z
" transform="scale(0.015625)"/>
       <path id="DejaVuSans-20" transform="scale(0.015625)"/>
       <path id="DejaVuSans-57" d="M 213 4666 
L 850 4666 
L 1831 722 
L 2809 4666 
L 3519 4666 
L 4500 722 
L 5478 4666 
L 6119 4666 
L 4947 0 
L 4153 0 
L 3169 4050 
L 2175 0 
L 1381 0 
L 213 4666 
z
" transform="scale(0.015625)"/>
       <path id="DejaVuSans-61" d="M 2194 1759 
Q 1497 1759 1228 1600 
Q 959 1441 959 1056 
Q 959 750 1161 570 
Q 1363 391 1709 391 
Q 2188 391 2477 730 
Q 2766 1069 2766 1631 
L 2766 1759 
L 2194 1759 
z
M 3341 1997 
L 3341 0 
L 2766 0 
L 2766 531 
Q 2569 213 2275 61 
Q 1981 -91 1556 -91 
Q 1019 -91 701 211 
Q 384 513 384 1019 
Q 384 1609 779 1909 
Q 1175 2209 1959 2209 
L 2766 2209 
L 2766 2266 
Q 2766 2663 2505 2880 
Q 2244 3097 1772 3097 
Q 1472 3097 1187 3025 
Q 903 2953 641 2809 
L 641 3341 
Q 956 3463 1253 3523 
Q 1550 3584 1831 3584 
Q 2591 3584 2966 3190 
Q 3341 2797 3341 1997 
z
" transform="scale(0.015625)"/>
       <path id="DejaVuSans-73" d="M 2834 3397 
L 2834 2853 
Q 2591 2978 2328 3040 
Q 2066 3103 1784 3103 
Q 1356 3103 1142 2972 
Q 928 2841 928 2578 
Q 928 2378 1081 2264 
Q 1234 2150 1697 2047 
L 1894 2003 
Q 2506 1872 2764 1633 
Q 3022 1394 3022 966 
Q 3022 478 2636 193 
Q 2250 -91 1575 -91 
Q 1294 -91 989 -36 
Q 684 19 347 128 
L 347 722 
Q 666 556 975 473 
Q 1284 391 1588 391 
Q 1994 391 2212 530 
Q 2431 669 2431 922 
Q 2431 1156 2273 1281 
Q 2116 1406 1581 1522 
L 1381 1569 
Q 847 1681 609 1914 
Q 372 2147 372 2553 
Q 372 3047 722 3315 
Q 1072 3584 1716 3584 
Q 2034 3584 2315 3537 
Q 2597 3491 2834 3397 
z
" transform="scale(0.015625)"/>
       <path id="DejaVuSans-68" d="M 3513 2113 
L 3513 0 
L 2938 0 
L 2938 2094 
Q 2938 2591 2744 2837 
Q 2550 3084 2163 3084 
Q 1697 3084 1428 2787 
Q 1159 2491 1159 1978 
L 1159 0 
L 581 0 
L 581 4863 
L 1159 4863 
L 1159 2956 
Q 1366 3272 1645 3428 
Q 1925 3584 2291 3584 
Q 2894 3584 3203 3211 
Q 3513 2838 3513 2113 
z
" transform="scale(0.015625)"/>
       <path id="DejaVuSans-69" d="M 603 3500 
L 1178 3500 
L 1178 0 
L 603 0 
L 603 3500 
z
M 603 4863 
L 1178 4863 
L 1178 4134 
L 603 4134 
L 603 4863 
z
" transform="scale(0.015625)"/>
       <path id="DejaVuSans-67" d="M 2906 1791 
Q 2906 2416 2648 2759 
Q 2391 3103 1925 3103 
Q 1463 3103 1205 2759 
Q 947 2416 947 1791 
Q 947 1169 1205 825 
Q 1463 481 1925 481 
Q 2391 481 2648 825 
Q 2906 1169 2906 1791 
z
M 3481 434 
Q 3481 -459 3084 -895 
Q 2688 -1331 1869 -1331 
Q 1566 -1331 1297 -1286 
Q 1028 -1241 775 -1147 
L 775 -588 
Q 1028 -725 1275 -790 
Q 1522 -856 1778 -856 
Q 2344 -856 2625 -561 
Q 2906 -266 2906 331 
L 2906 616 
Q 2728 306 2450 153 
Q 2172 0 1784 0 
Q 1141 0 747 490 
Q 353 981 353 1791 
Q 353 2603 747 3093 
Q 1141 3584 1784 3584 
Q 2172 3584 2450 3431 
Q 2728 3278 2906 2969 
L 2906 3500 
L 3481 3500 
L 3481 434 
z
" transform="scale(0.015625)"/>
       <path id="DejaVuSans-74" d="M 1172 4494 
L 1172 3500 
L 2356 3500 
L 2356 3053 
L 1172 3053 
L 1172 1153 
Q 1172 725 1289 603 
Q 1406 481 1766 481 
L 2356 481 
L 2356 0 
L 1766 0 
Q 1100 0 847 248 
Q 594 497 594 1153 
L 594 3053 
L 172 3053 
L 172 3500 
L 594 3500 
L 594 4494 
L 1172 4494 
z
" transform="scale(0.015625)"/>
       <path id="DejaVuSans-6f" d="M 1959 3097 
Q 1497 3097 1228 2736 
Q 959 2375 959 1747 
Q 959 1119 1226 758 
Q 1494 397 1959 397 
Q 2419 397 2687 759 
Q 2956 1122 2956 1747 
Q 2956 2369 2687 2733 
Q 2419 3097 1959 3097 
z
M 1959 3584 
Q 2709 3584 3137 3096 
Q 3566 2609 3566 1747 
Q 3566 888 3137 398 
Q 2709 -91 1959 -91 
Q 1206 -91 779 398 
Q 353 888 353 1747 
Q 353 2609 779 3096 
Q 1206 3584 1959 3584 
z
" transform="scale(0.015625)"/>
      </defs>
      <use xlink:href="#DejaVuSans-44"/>
      <use xlink:href="#DejaVuSans-65" x="77.001953"/>
      <use xlink:href="#DejaVuSans-6e" x="138.525391"/>
      <use xlink:href="#DejaVuSans-7a" x="201.904297"/>
      <use xlink:href="#DejaVuSans-65" x="254.394531"/>
      <use xlink:href="#DejaVuSans-6c" x="315.917969"/>
      <use xlink:href="#DejaVuSans-20" x="343.701172"/>
      <use xlink:href="#DejaVuSans-57" x="375.488281"/>
      <use xlink:href="#DejaVuSans-61" x="467.990234"/>
      <use xlink:href="#DejaVuSans-73" x="529.269531"/>
      <use xlink:href="#DejaVuSans-68" x="581.369141"/>
      <use xlink:href="#DejaVuSans-69" x="644.748047"/>
      <use xlink:href="#DejaVuSans-6e" x="672.53125"/>
      <use xlink:href="#DejaVuSans-67" x="735.910156"/>
      <use xlink:href="#DejaVuSans-74" x="799.386719"/>
      <use xlink:href="#DejaVuSans-6f" x="838.595703"/>
      <use xlink:href="#DejaVuSans-6e" x="899.777344"/>
     </g>
    </g>
   </g>
   <g id="text_2">
    <g id="patch_3">
     <path d="M 453.874613 207.273696 
L 511.310082 207.273696 
L 511.310082 190.643383 
L 453.874613 190.643383 
z
" clip-path="url(#pe632622adc)" style="fill: #ffffff; opacity: 0.7; stroke: #000000; stroke-linejoin: miter"/>
    </g>
    <g clip-path="url(#pe632622adc)">
     <!-- Tom Cruise -->
     <g transform="translate(457.834613 201.441977)scale(0.09 -0.09)">
      <defs>
       <path id="DejaVuSans-54" d="M -19 4666 
L 3928 4666 
L 3928 4134 
L 2272 4134 
L 2272 0 
L 1638 0 
L 1638 4134 
L -19 4134 
L -19 4666 
z
" transform="scale(0.015625)"/>
       <path id="DejaVuSans-6d" d="M 3328 2828 
Q 3544 3216 3844 3400 
Q 4144 3584 4550 3584 
Q 5097 3584 5394 3201 
Q 5691 2819 5691 2113 
L 5691 0 
L 5113 0 
L 5113 2094 
Q 5113 2597 4934 2840 
Q 4756 3084 4391 3084 
Q 3944 3084 3684 2787 
Q 3425 2491 3425 1978 
L 3425 0 
L 2847 0 
L 2847 2094 
Q 2847 2600 2669 2842 
Q 2491 3084 2119 3084 
Q 1678 3084 1418 2786 
Q 1159 2488 1159 1978 
L 1159 0 
L 581 0 
L 581 3500 
L 1159 3500 
L 1159 2956 
Q 1356 3278 1631 3431 
Q 1906 3584 2284 3584 
Q 2666 3584 2933 3390 
Q 3200 3197 3328 2828 
z
" transform="scale(0.015625)"/>
       <path id="DejaVuSans-43" d="M 4122 4306 
L 4122 3641 
Q 3803 3938 3442 4084 
Q 3081 4231 2675 4231 
Q 1875 4231 1450 3742 
Q 1025 3253 1025 2328 
Q 1025 1406 1450 917 
Q 1875 428 2675 428 
Q 3081 428 3442 575 
Q 3803 722 4122 1019 
L 4122 359 
Q 3791 134 3420 21 
Q 3050 -91 2638 -91 
Q 1578 -91 968 557 
Q 359 1206 359 2328 
Q 359 3453 968 4101 
Q 1578 4750 2638 4750 
Q 3056 4750 3426 4639 
Q 3797 4528 4122 4306 
z
" transform="scale(0.015625)"/>
       <path id="DejaVuSans-72" d="M 2631 2963 
Q 2534 3019 2420 3045 
Q 2306 3072 2169 3072 
Q 1681 3072 1420 2755 
Q 1159 2438 1159 1844 
L 1159 0 
L 581 0 
L 581 3500 
L 1159 3500 
L 1159 2956 
Q 1341 3275 1631 3429 
Q 1922 3584 2338 3584 
Q 2397 3584 2469 3576 
Q 2541 3569 2628 3553 
L 2631 2963 
z
" transform="scale(0.015625)"/>
       <path id="DejaVuSans-75" d="M 544 1381 
L 544 3500 
L 1119 3500 
L 1119 1403 
Q 1119 906 1312 657 
Q 1506 409 1894 409 
Q 2359 409 2629 706 
Q 2900 1003 2900 1516 
L 2900 3500 
L 3475 3500 
L 3475 0 
L 2900 0 
L 2900 538 
Q 2691 219 2414 64 
Q 2138 -91 1772 -91 
Q 1169 -91 856 284 
Q 544 659 544 1381 
z
M 1991 3584 
L 1991 3584 
z
" transform="scale(0.015625)"/>
      </defs>
      <use xlink:href="#DejaVuSans-54"/>
      <use xlink:href="#DejaVuSans-6f" x="44.083984"/>
      <use xlink:href="#DejaVuSans-6d" x="105.265625"/>
      <use xlink:href="#DejaVuSans-20" x="202.677734"/>
      <use xlink:href="#DejaVuSans-43" x="234.464844"/>
      <use xlink:href="#DejaVuSans-72" x="304.289062"/>
      <use xlink:href="#DejaVuSans-75" x="345.402344"/>
      <use xlink:href="#DejaVuSans-69" x="408.78125"/>
      <use xlink:href="#DejaVuSans-73" x="436.564453"/>
      <use xlink:href="#DejaVuSans-65" x="488.664062"/>
     </g>
    </g>
   </g>
   <g id="text_3">
    <g id="patch_4">
     <path d="M 398.12985 136.1962 
L 461.66985 136.1962 
L 461.66985 119.565888 
L 398.12985 119.565888 
z
" clip-path="url(#pe632622adc)" style="fill: #ffffff; opacity: 0.7; stroke: #000000; stroke-linejoin: miter"/>
    </g>
    <g clip-path="url(#pe632622adc)">
     <!-- Matt Damon -->
     <g transform="translate(402.08985 130.364481)scale(0.09 -0.09)">
      <defs>
       <path id="DejaVuSans-4d" d="M 628 4666 
L 1569 4666 
L 2759 1491 
L 3956 4666 
L 4897 4666 
L 4897 0 
L 4281 0 
L 4281 4097 
L 3078 897 
L 2444 897 
L 1241 4097 
L 1241 0 
L 628 0 
L 628 4666 
z
" transform="scale(0.015625)"/>
      </defs>
      <use xlink:href="#DejaVuSans-4d"/>
      <use xlink:href="#DejaVuSans-61" x="86.279297"/>
      <use xlink:href="#DejaVuSans-74" x="147.558594"/>
      <use xlink:href="#DejaVuSans-74" x="186.767578"/>
      <use xlink:href="#DejaVuSans-20" x="225.976562"/>
      <use xlink:href="#DejaVuSans-44" x="257.763672"/>
      <use xlink:href="#DejaVuSans-61" x="334.765625"/>
      <use xlink:href="#DejaVuSans-6d" x="396.044922"/>
      <use xlink:href="#DejaVuSans-6f" x="493.457031"/>
      <use xlink:href="#DejaVuSans-6e" x="554.638672"/>
     </g>
    </g>
   </g>
   <g id="text_4">
    <g id="patch_5">
     <path d="M 307.523041 92.267902 
L 397.005541 92.267902 
L 397.005541 75.63759 
L 307.523041 75.63759 
z
" clip-path="url(#pe632622adc)" style="fill: #ffffff; opacity: 0.7; stroke: #000000; stroke-linejoin: miter"/>
    </g>
    <g clip-path="url(#pe632622adc)">
     <!-- Samuel L. Jackson -->
     <g transform="translate(311.483041 86.436183)scale(0.09 -0.09)">
      <defs>
       <path id="DejaVuSans-53" d="M 3425 4513 
L 3425 3897 
Q 3066 4069 2747 4153 
Q 2428 4238 2131 4238 
Q 1616 4238 1336 4038 
Q 1056 3838 1056 3469 
Q 1056 3159 1242 3001 
Q 1428 2844 1947 2747 
L 2328 2669 
Q 3034 2534 3370 2195 
Q 3706 1856 3706 1288 
Q 3706 609 3251 259 
Q 2797 -91 1919 -91 
Q 1588 -91 1214 -16 
Q 841 59 441 206 
L 441 856 
Q 825 641 1194 531 
Q 1563 422 1919 422 
Q 2459 422 2753 634 
Q 3047 847 3047 1241 
Q 3047 1584 2836 1778 
Q 2625 1972 2144 2069 
L 1759 2144 
Q 1053 2284 737 2584 
Q 422 2884 422 3419 
Q 422 4038 858 4394 
Q 1294 4750 2059 4750 
Q 2388 4750 2728 4690 
Q 3069 4631 3425 4513 
z
" transform="scale(0.015625)"/>
       <path id="DejaVuSans-4c" d="M 628 4666 
L 1259 4666 
L 1259 531 
L 3531 531 
L 3531 0 
L 628 0 
L 628 4666 
z
" transform="scale(0.015625)"/>
       <path id="DejaVuSans-2e" d="M 684 794 
L 1344 794 
L 1344 0 
L 684 0 
L 684 794 
z
" transform="scale(0.015625)"/>
       <path id="DejaVuSans-4a" d="M 628 4666 
L 1259 4666 
L 1259 325 
Q 1259 -519 939 -900 
Q 619 -1281 -91 -1281 
L -331 -1281 
L -331 -750 
L -134 -750 
Q 284 -750 456 -515 
Q 628 -281 628 325 
L 628 4666 
z
" transform="scale(0.015625)"/>
       <path id="DejaVuSans-63" d="M 3122 3366 
L 3122 2828 
Q 2878 2963 2633 3030 
Q 2388 3097 2138 3097 
Q 1578 3097 1268 2742 
Q 959 2388 959 1747 
Q 959 1106 1268 751 
Q 1578 397 2138 397 
Q 2388 397 2633 464 
Q 2878 531 3122 666 
L 3122 134 
Q 2881 22 2623 -34 
Q 2366 -91 2075 -91 
Q 1284 -91 818 406 
Q 353 903 353 1747 
Q 353 2603 823 3093 
Q 1294 3584 2113 3584 
Q 2378 3584 2631 3529 
Q 2884 3475 3122 3366 
z
" transform="scale(0.015625)"/>
       <path id="DejaVuSans-6b" d="M 581 4863 
L 1159 4863 
L 1159 1991 
L 2875 3500 
L 3609 3500 
L 1753 1863 
L 3688 0 
L 2938 0 
L 1159 1709 
L 1159 0 
L 581 0 
L 581 4863 
z
" transform="scale(0.015625)"/>
      </defs>
      <use xlink:href="#DejaVuSans-53"/>
      <use xlink:href="#DejaVuSans-61" x="63.476562"/>
      <use xlink:href="#DejaVuSans-6d" x="124.755859"/>
      <use xlink:href="#DejaVuSans-75" x="222.167969"/>
      <use xlink:href="#DejaVuSans-65" x="285.546875"/>
      <use xlink:href="#DejaVuSans-6c" x="347.070312"/>
      <use xlink:href="#DejaVuSans-20" x="374.853516"/>
      <use xlink:href="#DejaVuSans-4c" x="406.640625"/>
      <use xlink:href="#DejaVuSans-2e" x="462.353516"/>
      <use xlink:href="#DejaVuSans-20" x="494.140625"/>
      <use xlink:href="#DejaVuSans-4a" x="525.927734"/>
      <use xlink:href="#DejaVuSans-61" x="555.419922"/>
      <use xlink:href="#DejaVuSans-63" x="616.699219"/>
      <use xlink:href="#DejaVuSans-6b" x="671.679688"/>
      <use xlink:href="#DejaVuSans-73" x="729.589844"/>
      <use xlink:href="#DejaVuSans-6f" x="781.689453"/>
      <use xlink:href="#DejaVuSans-6e" x="842.871094"/>
     </g>
    </g>
   </g>
   <g id="text_5">
    <g id="patch_6">
     <path d="M 226.019002 83.084387 
L 300.200095 83.084387 
L 300.200095 66.454075 
L 226.019002 66.454075 
z
" clip-path="url(#pe632622adc)" style="fill: #ffffff; opacity: 0.7; stroke: #000000; stroke-linejoin: miter"/>
    </g>
    <g clip-path="url(#pe632622adc)">
     <!-- Robert De Niro -->
     <g transform="translate(229.979002 77.252668)scale(0.09 -0.09)">
      <defs>
       <path id="DejaVuSans-52" d="M 2841 2188 
Q 3044 2119 3236 1894 
Q 3428 1669 3622 1275 
L 4263 0 
L 3584 0 
L 2988 1197 
Q 2756 1666 2539 1819 
Q 2322 1972 1947 1972 
L 1259 1972 
L 1259 0 
L 628 0 
L 628 4666 
L 2053 4666 
Q 2853 4666 3247 4331 
Q 3641 3997 3641 3322 
Q 3641 2881 3436 2590 
Q 3231 2300 2841 2188 
z
M 1259 4147 
L 1259 2491 
L 2053 2491 
Q 2509 2491 2742 2702 
Q 2975 2913 2975 3322 
Q 2975 3731 2742 3939 
Q 2509 4147 2053 4147 
L 1259 4147 
z
" transform="scale(0.015625)"/>
       <path id="DejaVuSans-62" d="M 3116 1747 
Q 3116 2381 2855 2742 
Q 2594 3103 2138 3103 
Q 1681 3103 1420 2742 
Q 1159 2381 1159 1747 
Q 1159 1113 1420 752 
Q 1681 391 2138 391 
Q 2594 391 2855 752 
Q 3116 1113 3116 1747 
z
M 1159 2969 
Q 1341 3281 1617 3432 
Q 1894 3584 2278 3584 
Q 2916 3584 3314 3078 
Q 3713 2572 3713 1747 
Q 3713 922 3314 415 
Q 2916 -91 2278 -91 
Q 1894 -91 1617 61 
Q 1341 213 1159 525 
L 1159 0 
L 581 0 
L 581 4863 
L 1159 4863 
L 1159 2969 
z
" transform="scale(0.015625)"/>
       <path id="DejaVuSans-4e" d="M 628 4666 
L 1478 4666 
L 3547 763 
L 3547 4666 
L 4159 4666 
L 4159 0 
L 3309 0 
L 1241 3903 
L 1241 0 
L 628 0 
L 628 4666 
z
" transform="scale(0.015625)"/>
      </defs>
      <use xlink:href="#DejaVuSans-52"/>
      <use xlink:href="#DejaVuSans-6f" x="64.982422"/>
      <use xlink:href="#DejaVuSans-62" x="126.164062"/>
      <use xlink:href="#DejaVuSans-65" x="189.640625"/>
      <use xlink:href="#DejaVuSans-72" x="251.164062"/>
      <use xlink:href="#DejaVuSans-74" x="292.277344"/>
      <use xlink:href="#DejaVuSans-20" x="331.486328"/>
      <use xlink:href="#DejaVuSans-44" x="363.273438"/>
      <use xlink:href="#DejaVuSans-65" x="440.275391"/>
      <use xlink:href="#DejaVuSans-20" x="501.798828"/>
      <use xlink:href="#DejaVuSans-4e" x="533.585938"/>
      <use xlink:href="#DejaVuSans-69" x="608.390625"/>
      <use xlink:href="#DejaVuSans-72" x="636.173828"/>
      <use xlink:href="#DejaVuSans-6f" x="675.037109"/>
     </g>
    </g>
   </g>
   <g id="text_6">
    <g id="patch_7">
     <path d="M 149.397236 110.233579 
L 206.305361 110.233579 
L 206.305361 93.603266 
L 149.397236 93.603266 
z
" clip-path="url(#pe632622adc)" style="fill: #ffffff; opacity: 0.7; stroke: #000000; stroke-linejoin: miter"/>
    </g>
    <g clip-path="url(#pe632622adc)">
     <!-- Tom Hanks -->
     <g transform="translate(153.357236 104.40186)scale(0.09 -0.09)">
      <defs>
       <path id="DejaVuSans-48" d="M 628 4666 
L 1259 4666 
L 1259 2753 
L 3553 2753 
L 3553 4666 
L 4184 4666 
L 4184 0 
L 3553 0 
L 3553 2222 
L 1259 2222 
L 1259 0 
L 628 0 
L 628 4666 
z
" transform="scale(0.015625)"/>
      </defs>
      <use xlink:href="#DejaVuSans-54"/>
      <use xlink:href="#DejaVuSans-6f" x="44.083984"/>
      <use xlink:href="#DejaVuSans-6d" x="105.265625"/>
      <use xlink:href="#DejaVuSans-20" x="202.677734"/>
      <use xlink:href="#DejaVuSans-48" x="234.464844"/>
      <use xlink:href="#DejaVuSans-61" x="309.660156"/>
      <use xlink:href="#DejaVuSans-6e" x="370.939453"/>
      <use xlink:href="#DejaVuSans-6b" x="434.318359"/>
      <use xlink:href="#DejaVuSans-73" x="492.228516"/>
     </g>
    </g>
   </g>
   <g id="text_7">
    <g id="patch_8">
     <path d="M 72.015383 169.02112 
L 150.447571 169.02112 
L 150.447571 152.390808 
L 72.015383 152.390808 
z
" clip-path="url(#pe632622adc)" style="fill: #ffffff; opacity: 0.7; stroke: #000000; stroke-linejoin: miter"/>
    </g>
    <g clip-path="url(#pe632622adc)">
     <!-- Dustin Hoffman -->
     <g transform="translate(75.975383 163.189401)scale(0.09 -0.09)">
      <defs>
       <path id="DejaVuSans-66" d="M 2375 4863 
L 2375 4384 
L 1825 4384 
Q 1516 4384 1395 4259 
Q 1275 4134 1275 3809 
L 1275 3500 
L 2222 3500 
L 2222 3053 
L 1275 3053 
L 1275 0 
L 697 0 
L 697 3053 
L 147 3053 
L 147 3500 
L 697 3500 
L 697 3744 
Q 697 4328 969 4595 
Q 1241 4863 1831 4863 
L 2375 4863 
z
" transform="scale(0.015625)"/>
      </defs>
      <use xlink:href="#DejaVuSans-44"/>
      <use xlink:href="#DejaVuSans-75" x="77.001953"/>
      <use xlink:href="#DejaVuSans-73" x="140.380859"/>
      <use xlink:href="#DejaVuSans-74" x="192.480469"/>
      <use xlink:href="#DejaVuSans-69" x="231.689453"/>
      <use xlink:href="#DejaVuSans-6e" x="259.472656"/>
      <use xlink:href="#DejaVuSans-20" x="322.851562"/>
      <use xlink:href="#DejaVuSans-48" x="354.638672"/>
      <use xlink:href="#DejaVuSans-6f" x="429.833984"/>
      <use xlink:href="#DejaVuSans-66" x="491.015625"/>
      <use xlink:href="#DejaVuSans-66" x="526.220703"/>
      <use xlink:href="#DejaVuSans-6d" x="561.425781"/>
      <use xlink:href="#DejaVuSans-61" x="658.837891"/>
      <use xlink:href="#DejaVuSans-6e" x="720.117188"/>
     </g>
    </g>
   </g>
   <g id="text_8">
    <g id="patch_9">
     <path d="M 29.111809 249.282137 
L 120.426653 249.282137 
L 120.426653 232.651825 
L 29.111809 232.651825 
z
" clip-path="url(#pe632622adc)" style="fill: #ffffff; opacity: 0.7; stroke: #000000; stroke-linejoin: miter"/>
    </g>
    <g clip-path="url(#pe632622adc)">
     <!-- Leonardo DiCaprio -->
     <g transform="translate(33.071809 243.450419)scale(0.09 -0.09)">
      <defs>
       <path id="DejaVuSans-64" d="M 2906 2969 
L 2906 4863 
L 3481 4863 
L 3481 0 
L 2906 0 
L 2906 525 
Q 2725 213 2448 61 
Q 2172 -91 1784 -91 
Q 1150 -91 751 415 
Q 353 922 353 1747 
Q 353 2572 751 3078 
Q 1150 3584 1784 3584 
Q 2172 3584 2448 3432 
Q 2725 3281 2906 2969 
z
M 947 1747 
Q 947 1113 1208 752 
Q 1469 391 1925 391 
Q 2381 391 2643 752 
Q 2906 1113 2906 1747 
Q 2906 2381 2643 2742 
Q 2381 3103 1925 3103 
Q 1469 3103 1208 2742 
Q 947 2381 947 1747 
z
" transform="scale(0.015625)"/>
       <path id="DejaVuSans-70" d="M 1159 525 
L 1159 -1331 
L 581 -1331 
L 581 3500 
L 1159 3500 
L 1159 2969 
Q 1341 3281 1617 3432 
Q 1894 3584 2278 3584 
Q 2916 3584 3314 3078 
Q 3713 2572 3713 1747 
Q 3713 922 3314 415 
Q 2916 -91 2278 -91 
Q 1894 -91 1617 61 
Q 1341 213 1159 525 
z
M 3116 1747 
Q 3116 2381 2855 2742 
Q 2594 3103 2138 3103 
Q 1681 3103 1420 2742 
Q 1159 2381 1159 1747 
Q 1159 1113 1420 752 
Q 1681 391 2138 391 
Q 2594 391 2855 752 
Q 3116 1113 3116 1747 
z
" transform="scale(0.015625)"/>
      </defs>
      <use xlink:href="#DejaVuSans-4c"/>
      <use xlink:href="#DejaVuSans-65" x="53.962891"/>
      <use xlink:href="#DejaVuSans-6f" x="115.486328"/>
      <use xlink:href="#DejaVuSans-6e" x="176.667969"/>
      <use xlink:href="#DejaVuSans-61" x="240.046875"/>
      <use xlink:href="#DejaVuSans-72" x="301.326172"/>
      <use xlink:href="#DejaVuSans-64" x="340.689453"/>
      <use xlink:href="#DejaVuSans-6f" x="404.166016"/>
      <use xlink:href="#DejaVuSans-20" x="465.347656"/>
      <use xlink:href="#DejaVuSans-44" x="497.134766"/>
      <use xlink:href="#DejaVuSans-69" x="574.136719"/>
      <use xlink:href="#DejaVuSans-43" x="601.919922"/>
      <use xlink:href="#DejaVuSans-61" x="671.744141"/>
      <use xlink:href="#DejaVuSans-70" x="733.023438"/>
      <use xlink:href="#DejaVuSans-72" x="796.5"/>
      <use xlink:href="#DejaVuSans-69" x="837.613281"/>
      <use xlink:href="#DejaVuSans-6f" x="865.396484"/>
     </g>
    </g>
   </g>
   <g id="text_9">
    <g id="patch_10">
     <path d="M 45.910181 337.138746 
L 103.628306 337.138746 
L 103.628306 320.508433 
L 45.910181 320.508433 
z
" clip-path="url(#pe632622adc)" style="fill: #ffffff; opacity: 0.7; stroke: #000000; stroke-linejoin: miter"/>
    </g>
    <g clip-path="url(#pe632622adc)">
     <!-- Viola Davis -->
     <g transform="translate(49.870181 331.307027)scale(0.09 -0.09)">
      <defs>
       <path id="DejaVuSans-56" d="M 1831 0 
L 50 4666 
L 709 4666 
L 2188 738 
L 3669 4666 
L 4325 4666 
L 2547 0 
L 1831 0 
z
" transform="scale(0.015625)"/>
       <path id="DejaVuSans-76" d="M 191 3500 
L 800 3500 
L 1894 563 
L 2988 3500 
L 3597 3500 
L 2284 0 
L 1503 0 
L 191 3500 
z
" transform="scale(0.015625)"/>
      </defs>
      <use xlink:href="#DejaVuSans-56"/>
      <use xlink:href="#DejaVuSans-69" x="66.158203"/>
      <use xlink:href="#DejaVuSans-6f" x="93.941406"/>
      <use xlink:href="#DejaVuSans-6c" x="155.123047"/>
      <use xlink:href="#DejaVuSans-61" x="182.90625"/>
      <use xlink:href="#DejaVuSans-20" x="244.185547"/>
      <use xlink:href="#DejaVuSans-44" x="275.972656"/>
      <use xlink:href="#DejaVuSans-61" x="352.974609"/>
      <use xlink:href="#DejaVuSans-76" x="414.253906"/>
      <use xlink:href="#DejaVuSans-69" x="473.433594"/>
      <use xlink:href="#DejaVuSans-73" x="501.216797"/>
     </g>
    </g>
   </g>
   <g id="text_10">
    <g id="patch_11">
     <path d="M 52.812349 417.399738 
L 169.65063 417.399738 
L 169.65063 400.769425 
L 52.812349 400.769425 
z
" clip-path="url(#pe632622adc)" style="fill: #ffffff; opacity: 0.7; stroke: #000000; stroke-linejoin: miter"/>
    </g>
    <g clip-path="url(#pe632622adc)">
     <!-- Philip Seymour Hoffman -->
     <g transform="translate(56.772349 411.568019)scale(0.09 -0.09)">
      <defs>
       <path id="DejaVuSans-50" d="M 1259 4147 
L 1259 2394 
L 2053 2394 
Q 2494 2394 2734 2622 
Q 2975 2850 2975 3272 
Q 2975 3691 2734 3919 
Q 2494 4147 2053 4147 
L 1259 4147 
z
M 628 4666 
L 2053 4666 
Q 2838 4666 3239 4311 
Q 3641 3956 3641 3272 
Q 3641 2581 3239 2228 
Q 2838 1875 2053 1875 
L 1259 1875 
L 1259 0 
L 628 0 
L 628 4666 
z
" transform="scale(0.015625)"/>
       <path id="DejaVuSans-79" d="M 2059 -325 
Q 1816 -950 1584 -1140 
Q 1353 -1331 966 -1331 
L 506 -1331 
L 506 -850 
L 844 -850 
Q 1081 -850 1212 -737 
Q 1344 -625 1503 -206 
L 1606 56 
L 191 3500 
L 800 3500 
L 1894 763 
L 2988 3500 
L 3597 3500 
L 2059 -325 
z
" transform="scale(0.015625)"/>
      </defs>
      <use xlink:href="#DejaVuSans-50"/>
      <use xlink:href="#DejaVuSans-68" x="60.302734"/>
      <use xlink:href="#DejaVuSans-69" x="123.681641"/>
      <use xlink:href="#DejaVuSans-6c" x="151.464844"/>
      <use xlink:href="#DejaVuSans-69" x="179.248047"/>
      <use xlink:href="#DejaVuSans-70" x="207.03125"/>
      <use xlink:href="#DejaVuSans-20" x="270.507812"/>
      <use xlink:href="#DejaVuSans-53" x="302.294922"/>
      <use xlink:href="#DejaVuSans-65" x="365.771484"/>
      <use xlink:href="#DejaVuSans-79" x="427.294922"/>
      <use xlink:href="#DejaVuSans-6d" x="486.474609"/>
      <use xlink:href="#DejaVuSans-6f" x="583.886719"/>
      <use xlink:href="#DejaVuSans-75" x="645.068359"/>
      <use xlink:href="#DejaVuSans-72" x="708.447266"/>
      <use xlink:href="#DejaVuSans-20" x="749.560547"/>
      <use xlink:href="#DejaVuSans-48" x="781.347656"/>
      <use xlink:href="#DejaVuSans-6f" x="856.542969"/>
      <use xlink:href="#DejaVuSans-66" x="917.724609"/>
      <use xlink:href="#DejaVuSans-66" x="952.929688"/>
      <use xlink:href="#DejaVuSans-6d" x="988.134766"/>
      <use xlink:href="#DejaVuSans-61" x="1085.546875"/>
      <use xlink:href="#DejaVuSans-6e" x="1146.826172"/>
     </g>
    </g>
   </g>
   <g id="text_11">
    <g id="patch_12">
     <path d="M 140.47883 476.18728 
L 215.22383 476.18728 
L 215.22383 459.556967 
L 140.47883 459.556967 
z
" clip-path="url(#pe632622adc)" style="fill: #ffffff; opacity: 0.7; stroke: #000000; stroke-linejoin: miter"/>
    </g>
    <g clip-path="url(#pe632622adc)">
     <!-- Steve Buscemi -->
     <g transform="translate(144.43883 470.355561)scale(0.09 -0.09)">
      <defs>
       <path id="DejaVuSans-42" d="M 1259 2228 
L 1259 519 
L 2272 519 
Q 2781 519 3026 730 
Q 3272 941 3272 1375 
Q 3272 1813 3026 2020 
Q 2781 2228 2272 2228 
L 1259 2228 
z
M 1259 4147 
L 1259 2741 
L 2194 2741 
Q 2656 2741 2882 2914 
Q 3109 3088 3109 3444 
Q 3109 3797 2882 3972 
Q 2656 4147 2194 4147 
L 1259 4147 
z
M 628 4666 
L 2241 4666 
Q 2963 4666 3353 4366 
Q 3744 4066 3744 3513 
Q 3744 3084 3544 2831 
Q 3344 2578 2956 2516 
Q 3422 2416 3680 2098 
Q 3938 1781 3938 1306 
Q 3938 681 3513 340 
Q 3088 0 2303 0 
L 628 0 
L 628 4666 
z
" transform="scale(0.015625)"/>
      </defs>
      <use xlink:href="#DejaVuSans-53"/>
      <use xlink:href="#DejaVuSans-74" x="63.476562"/>
      <use xlink:href="#DejaVuSans-65" x="102.685547"/>
      <use xlink:href="#DejaVuSans-76" x="164.208984"/>
      <use xlink:href="#DejaVuSans-65" x="223.388672"/>
      <use xlink:href="#DejaVuSans-20" x="284.912109"/>
      <use xlink:href="#DejaVuSans-42" x="316.699219"/>
      <use xlink:href="#DejaVuSans-75" x="385.302734"/>
      <use xlink:href="#DejaVuSans-73" x="448.681641"/>
      <use xlink:href="#DejaVuSans-63" x="500.78125"/>
      <use xlink:href="#DejaVuSans-65" x="555.761719"/>
      <use xlink:href="#DejaVuSans-6d" x="617.285156"/>
      <use xlink:href="#DejaVuSans-69" x="714.697266"/>
     </g>
    </g>
   </g>
   <g id="text_12">
    <g id="patch_13">
     <path d="M 227.793025 503.336458 
L 298.42615 503.336458 
L 298.42615 486.706146 
L 227.793025 486.706146 
z
" clip-path="url(#pe632622adc)" style="fill: #ffffff; opacity: 0.7; stroke: #000000; stroke-linejoin: miter"/>
    </g>
    <g clip-path="url(#pe632622adc)">
     <!-- Christian Bale -->
     <g transform="translate(231.753025 497.50474)scale(0.09 -0.09)">
      <use xlink:href="#DejaVuSans-43"/>
      <use xlink:href="#DejaVuSans-68" x="69.824219"/>
      <use xlink:href="#DejaVuSans-72" x="133.203125"/>
      <use xlink:href="#DejaVuSans-69" x="174.316406"/>
      <use xlink:href="#DejaVuSans-73" x="202.099609"/>
      <use xlink:href="#DejaVuSans-74" x="254.199219"/>
      <use xlink:href="#DejaVuSans-69" x="293.408203"/>
      <use xlink:href="#DejaVuSans-61" x="321.191406"/>
      <use xlink:href="#DejaVuSans-6e" x="382.470703"/>
      <use xlink:href="#DejaVuSans-20" x="445.849609"/>
      <use xlink:href="#DejaVuSans-42" x="477.636719"/>
      <use xlink:href="#DejaVuSans-61" x="546.240234"/>
      <use xlink:href="#DejaVuSans-6c" x="607.519531"/>
      <use xlink:href="#DejaVuSans-65" x="635.302734"/>
     </g>
    </g>
   </g>
   <g id="text_13">
    <g id="patch_14">
     <path d="M 327.947448 494.152931 
L 376.581198 494.152931 
L 376.581198 477.522618 
L 327.947448 477.522618 
z
" clip-path="url(#pe632622adc)" style="fill: #ffffff; opacity: 0.7; stroke: #000000; stroke-linejoin: miter"/>
    </g>
    <g clip-path="url(#pe632622adc)">
     <!-- Al Pacino -->
     <g transform="translate(331.907448 488.321212)scale(0.09 -0.09)">
      <defs>
       <path id="DejaVuSans-41" d="M 2188 4044 
L 1331 1722 
L 3047 1722 
L 2188 4044 
z
M 1831 4666 
L 2547 4666 
L 4325 0 
L 3669 0 
L 3244 1197 
L 1141 1197 
L 716 0 
L 50 0 
L 1831 4666 
z
" transform="scale(0.015625)"/>
      </defs>
      <use xlink:href="#DejaVuSans-41"/>
      <use xlink:href="#DejaVuSans-6c" x="68.408203"/>
      <use xlink:href="#DejaVuSans-20" x="96.191406"/>
      <use xlink:href="#DejaVuSans-50" x="127.978516"/>
      <use xlink:href="#DejaVuSans-61" x="183.78125"/>
      <use xlink:href="#DejaVuSans-63" x="245.060547"/>
      <use xlink:href="#DejaVuSans-69" x="300.041016"/>
      <use xlink:href="#DejaVuSans-6e" x="327.824219"/>
      <use xlink:href="#DejaVuSans-6f" x="391.203125"/>
     </g>
    </g>
   </g>
   <g id="text_14">
    <g id="patch_15">
     <path d="M 382.541607 450.224608 
L 477.25817 450.224608 
L 477.25817 433.594295 
L 382.541607 433.594295 
z
" clip-path="url(#pe632622adc)" style="fill: #ffffff; opacity: 0.7; stroke: #000000; stroke-linejoin: miter"/>
    </g>
    <g clip-path="url(#pe632622adc)">
     <!-- Reese Witherspoon -->
     <g transform="translate(386.501607 444.392889)scale(0.09 -0.09)">
      <use xlink:href="#DejaVuSans-52"/>
      <use xlink:href="#DejaVuSans-65" x="64.982422"/>
      <use xlink:href="#DejaVuSans-65" x="126.505859"/>
      <use xlink:href="#DejaVuSans-73" x="188.029297"/>
      <use xlink:href="#DejaVuSans-65" x="240.128906"/>
      <use xlink:href="#DejaVuSans-20" x="301.652344"/>
      <use xlink:href="#DejaVuSans-57" x="333.439453"/>
      <use xlink:href="#DejaVuSans-69" x="430.066406"/>
      <use xlink:href="#DejaVuSans-74" x="457.849609"/>
      <use xlink:href="#DejaVuSans-68" x="497.058594"/>
      <use xlink:href="#DejaVuSans-65" x="560.4375"/>
      <use xlink:href="#DejaVuSans-72" x="621.960938"/>
      <use xlink:href="#DejaVuSans-73" x="663.074219"/>
      <use xlink:href="#DejaVuSans-70" x="715.173828"/>
      <use xlink:href="#DejaVuSans-6f" x="778.650391"/>
      <use xlink:href="#DejaVuSans-6f" x="839.832031"/>
      <use xlink:href="#DejaVuSans-6e" x="901.013672"/>
     </g>
    </g>
   </g>
   <g id="text_15">
    <g id="patch_16">
     <path d="M 440.787374 379.147118 
L 524.397374 379.147118 
L 524.397374 362.516806 
L 440.787374 362.516806 
z
" clip-path="url(#pe632622adc)" style="fill: #ffffff; opacity: 0.7; stroke: #000000; stroke-linejoin: miter"/>
    </g>
    <g clip-path="url(#pe632622adc)">
     <!-- Morgan Freeman -->
     <g transform="translate(444.747374 373.315399)scale(0.09 -0.09)">
      <defs>
       <path id="DejaVuSans-46" d="M 628 4666 
L 3309 4666 
L 3309 4134 
L 1259 4134 
L 1259 2759 
L 3109 2759 
L 3109 2228 
L 1259 2228 
L 1259 0 
L 628 0 
L 628 4666 
z
" transform="scale(0.015625)"/>
      </defs>
      <use xlink:href="#DejaVuSans-4d"/>
      <use xlink:href="#DejaVuSans-6f" x="86.279297"/>
      <use xlink:href="#DejaVuSans-72" x="147.460938"/>
      <use xlink:href="#DejaVuSans-67" x="186.824219"/>
      <use xlink:href="#DejaVuSans-61" x="250.300781"/>
      <use xlink:href="#DejaVuSans-6e" x="311.580078"/>
      <use xlink:href="#DejaVuSans-20" x="374.958984"/>
      <use xlink:href="#DejaVuSans-46" x="406.746094"/>
      <use xlink:href="#DejaVuSans-72" x="457.015625"/>
      <use xlink:href="#DejaVuSans-65" x="495.878906"/>
      <use xlink:href="#DejaVuSans-65" x="557.402344"/>
      <use xlink:href="#DejaVuSans-6d" x="618.925781"/>
      <use xlink:href="#DejaVuSans-61" x="716.337891"/>
      <use xlink:href="#DejaVuSans-6e" x="777.617188"/>
     </g>
    </g>
   </g>
   <g id="text_16">
    <!-- Impactful actors for Drama genre -->
    <g transform="translate(187.58625 4.8)scale(0.12 -0.12)">
     <defs>
      <path id="DejaVuSans-49" d="M 628 4666 
L 1259 4666 
L 1259 0 
L 628 0 
L 628 4666 
z
" transform="scale(0.015625)"/>
     </defs>
     <use xlink:href="#DejaVuSans-49"/>
     <use xlink:href="#DejaVuSans-6d" x="29.492188"/>
     <use xlink:href="#DejaVuSans-70" x="126.904297"/>
     <use xlink:href="#DejaVuSans-61" x="190.380859"/>
     <use xlink:href="#DejaVuSans-63" x="251.660156"/>
     <use xlink:href="#DejaVuSans-74" x="306.640625"/>
     <use xlink:href="#DejaVuSans-66" x="345.849609"/>
     <use xlink:href="#DejaVuSans-75" x="381.054688"/>
     <use xlink:href="#DejaVuSans-6c" x="444.433594"/>
     <use xlink:href="#DejaVuSans-20" x="472.216797"/>
     <use xlink:href="#DejaVuSans-61" x="504.003906"/>
     <use xlink:href="#DejaVuSans-63" x="565.283203"/>
     <use xlink:href="#DejaVuSans-74" x="620.263672"/>
     <use xlink:href="#DejaVuSans-6f" x="659.472656"/>
     <use xlink:href="#DejaVuSans-72" x="720.654297"/>
     <use xlink:href="#DejaVuSans-73" x="761.767578"/>
     <use xlink:href="#DejaVuSans-20" x="813.867188"/>
     <use xlink:href="#DejaVuSans-66" x="845.654297"/>
     <use xlink:href="#DejaVuSans-6f" x="880.859375"/>
     <use xlink:href="#DejaVuSans-72" x="942.041016"/>
     <use xlink:href="#DejaVuSans-20" x="983.154297"/>
     <use xlink:href="#DejaVuSans-44" x="1014.941406"/>
     <use xlink:href="#DejaVuSans-72" x="1091.943359"/>
     <use xlink:href="#DejaVuSans-61" x="1133.056641"/>
     <use xlink:href="#DejaVuSans-6d" x="1194.335938"/>
     <use xlink:href="#DejaVuSans-61" x="1291.748047"/>
     <use xlink:href="#DejaVuSans-20" x="1353.027344"/>
     <use xlink:href="#DejaVuSans-67" x="1384.814453"/>
     <use xlink:href="#DejaVuSans-65" x="1448.291016"/>
     <use xlink:href="#DejaVuSans-6e" x="1509.814453"/>
     <use xlink:href="#DejaVuSans-72" x="1573.193359"/>
     <use xlink:href="#DejaVuSans-65" x="1612.056641"/>
    </g>
   </g>
  </g>
 </g>
 <defs>
  <clipPath id="pe632622adc">
   <rect x="10.8" y="10.8" width="554.4" height="554.4"/>
  </clipPath>
 </defs>
</svg>
