<?xml version="1.0" encoding="utf-8" standalone="no"?>
<!DOCTYPE svg PUBLIC "-//W3C//DTD SVG 1.1//EN"
  "http://www.w3.org/Graphics/SVG/1.1/DTD/svg11.dtd">
<svg xmlns:xlink="http://www.w3.org/1999/xlink" width="568.8pt" height="583.918125pt" viewBox="0 0 568.8 583.918125" xmlns="http://www.w3.org/2000/svg" version="1.1">
 <metadata>
  <rdf:RDF xmlns:dc="http://purl.org/dc/elements/1.1/" xmlns:cc="http://creativecommons.org/ns#" xmlns:rdf="http://www.w3.org/1999/02/22-rdf-syntax-ns#">
   <cc:Work>
    <dc:type rdf:resource="http://purl.org/dc/dcmitype/StillImage"/>
    <dc:date>2022-12-23T17:30:16.091252</dc:date>
    <dc:format>image/svg+xml</dc:format>
    <dc:creator>
     <cc:Agent>
      <dc:title>Matplotlib v3.5.2, https://matplotlib.org/</dc:title>
     </cc:Agent>
    </dc:creator>
   </cc:Work>
  </rdf:RDF>
 </metadata>
 <defs>
  <style type="text/css">*{stroke-linejoin: round; stroke-linecap: butt}</style>
 </defs>
 <g id="figure_1">
  <g id="patch_1">
   <path d="M 0 583.918125 
L 568.8 583.918125 
L 568.8 0 
L 0 0 
z
" style="fill: #ffffff"/>
  </g>
  <g id="axes_1">
   <g id="LineCollection_1">
    <path d="M 112.288624 173.493854 
L 76.261788 254.940774 
" clip-path="url(#pe8cb262a88)" style="fill: none; stroke: #000000; stroke-opacity: 0.3; stroke-width: 10"/>
    <path d="M 112.288636 425.542409 
L 178.112941 485.198571 
" clip-path="url(#pe8cb262a88)" style="fill: none; stroke: #000000; stroke-opacity: 0.3; stroke-width: 5"/>
   </g>
   <g id="PathCollection_1">
    <path d="M 497.630769 326.904253 
C 504.893655 326.904253 511.86005 324.018678 516.995686 318.883042 
C 522.131322 313.747406 525.016897 306.781011 525.016897 299.518125 
C 525.016897 292.255239 522.131322 285.288844 516.995686 280.153208 
C 511.86005 275.017572 504.893655 272.131997 497.630769 272.131997 
C 490.367883 272.131997 483.401488 275.017572 478.265852 280.153208 
C 473.130217 285.288844 470.244641 292.255239 470.244641 299.518125 
C 470.244641 306.781011 473.130217 313.747406 478.265852 318.883042 
C 483.401488 324.018678 490.367883 326.904253 497.630769 326.904253 
z
" clip-path="url(#pe8cb262a88)" style="fill: #c70039; fill-opacity: 0.99; stroke: #c70039; stroke-opacity: 0.99"/>
    <path d="M 479.214917 238.913797 
C 486.269893 238.913797 493.036866 236.110825 498.025487 231.122204 
C 503.014109 226.133582 505.817081 219.36661 505.817081 212.311633 
C 505.817081 205.256657 503.014109 198.489685 498.025487 193.501063 
C 493.036866 188.512442 486.269893 185.70947 479.214917 185.70947 
C 472.159941 185.70947 465.392968 188.512442 460.404347 193.501063 
C 455.415725 198.489685 452.612754 205.256657 452.612754 212.311633 
C 452.612754 219.36661 455.415725 226.133582 460.404347 231.122204 
C 465.392968 236.110825 472.159941 238.913797 479.214917 238.913797 
z
" clip-path="url(#pe8cb262a88)" style="fill: #c70039; fill-opacity: 0.99; stroke: #c70039; stroke-opacity: 0.99"/>
    <path d="M 427.151643 166.313141 
C 434.081191 166.313141 440.727857 163.560003 445.627788 158.660072 
C 450.527718 153.760141 453.280857 147.113475 453.280857 140.183927 
C 453.280857 133.254378 450.527718 126.607713 445.627788 121.707782 
C 440.727857 116.807851 434.081191 114.054712 427.151643 114.054712 
C 420.222094 114.054712 413.575428 116.807851 408.675498 121.707782 
C 403.775567 126.607713 401.022428 133.254378 401.022428 140.183927 
C 401.022428 147.113475 403.775567 153.760141 408.675498 158.660072 
C 413.575428 163.560003 420.222094 166.313141 427.151643 166.313141 
z
" clip-path="url(#pe8cb262a88)" style="fill: #c70039; fill-opacity: 0.99; stroke: #c70039; stroke-opacity: 0.99"/>
    <path d="M 350.443163 121.256161 
C 357.245516 121.256161 363.770178 118.553558 368.580168 113.743568 
C 373.390158 108.933578 376.092762 102.408916 376.092762 95.606563 
C 376.092762 88.80421 373.390158 82.279548 368.580168 77.469558 
C 363.770178 72.659568 357.245516 69.956964 350.443163 69.956964 
C 343.64081 69.956964 337.116148 72.659568 332.306158 77.469558 
C 327.496168 82.279548 324.793564 88.80421 324.793564 95.606563 
C 324.793564 102.408916 327.496168 108.933578 332.306158 113.743568 
C 337.116148 118.553558 343.64081 121.256161 350.443163 121.256161 
z
" clip-path="url(#pe8cb262a88)" style="fill: #c70039; fill-opacity: 0.99; stroke: #c70039; stroke-opacity: 0.99"/>
    <path d="M 262.353055 111.099789 
C 268.933389 111.099789 275.245096 108.485395 279.898095 103.832396 
C 284.551094 99.179397 287.165488 92.86769 287.165488 86.287356 
C 287.165488 79.707021 284.551094 73.395315 279.898095 68.742316 
C 275.245096 64.089317 268.933389 61.474922 262.353055 61.474922 
C 255.772721 61.474922 249.461014 64.089317 244.808015 68.742316 
C 240.155016 73.395315 237.540621 79.707021 237.540621 86.287356 
C 237.540621 92.86769 240.155016 99.179397 244.808015 103.832396 
C 249.461014 108.485395 255.772721 111.099789 262.353055 111.099789 
z
" clip-path="url(#pe8cb262a88)" style="fill: #c70039; fill-opacity: 0.99; stroke: #c70039; stroke-opacity: 0.99"/>
    <path d="M 178.112909 138.56523 
C 184.670729 138.56523 190.96084 135.95978 195.597918 131.322702 
C 200.234997 126.685623 202.840446 120.395512 202.840446 113.837692 
C 202.840446 107.279873 200.234997 100.989762 195.597918 96.352683 
C 190.96084 91.715604 184.670729 89.110155 178.112909 89.110155 
C 171.55509 89.110155 165.264979 91.715604 160.6279 96.352683 
C 155.990821 100.989762 153.385372 107.279873 153.385372 113.837692 
C 153.385372 120.395512 155.990821 126.685623 160.6279 131.322702 
C 165.264979 135.95978 171.55509 138.56523 178.112909 138.56523 
z
" clip-path="url(#pe8cb262a88)" style="fill: #c70039; fill-opacity: 0.99; stroke: #c70039; stroke-opacity: 0.99"/>
    <path d="M 112.288624 197.730566 
C 118.716275 197.730566 124.881531 195.176833 129.426567 190.631798 
C 133.971603 186.086762 136.525336 179.921505 136.525336 173.493854 
C 136.525336 167.066202 133.971603 160.900946 129.426567 156.35591 
C 124.881531 151.810874 118.716275 149.257141 112.288624 149.257141 
C 105.860972 149.257141 99.695716 151.810874 95.15068 156.35591 
C 90.605644 160.900946 88.051911 167.066202 88.051911 173.493854 
C 88.051911 179.921505 90.605644 186.086762 95.15068 190.631798 
C 99.695716 195.176833 105.860972 197.730566 112.288624 197.730566 
z
" clip-path="url(#pe8cb262a88)" style="fill: #c70039; fill-opacity: 0.99; stroke: #c70039; stroke-opacity: 0.99"/>
    <path d="M 76.261788 278.319927 
C 82.462012 278.319927 88.409126 275.856552 92.793346 271.472332 
C 97.177567 267.088111 99.640942 261.140998 99.640942 254.940774 
C 99.640942 248.74055 97.177567 242.793436 92.793346 238.409216 
C 88.409126 234.024996 82.462012 231.561621 76.261788 231.561621 
C 70.061564 231.561621 64.114451 234.024996 59.730231 238.409216 
C 55.34601 242.793436 52.882635 248.74055 52.882635 254.940774 
C 52.882635 261.140998 55.34601 267.088111 59.730231 271.472332 
C 64.114451 275.856552 70.061564 278.319927 76.261788 278.319927 
z
" clip-path="url(#pe8cb262a88)" style="fill: #c70039; fill-opacity: 0.99; stroke: #c70039; stroke-opacity: 0.99"/>
    <path d="M 76.261801 367.233519 
C 82.398072 367.233519 88.283843 364.795553 92.622841 360.456554 
C 96.96184 356.117556 99.399806 350.231785 99.399806 344.095514 
C 99.399806 337.959244 96.96184 332.073473 92.622841 327.734475 
C 88.283843 323.395476 82.398072 320.95751 76.261801 320.95751 
C 70.125531 320.95751 64.23976 323.395476 59.900761 327.734475 
C 55.561763 332.073473 53.123797 337.959244 53.123797 344.095514 
C 53.123797 350.231785 55.561763 356.117556 59.900761 360.456554 
C 64.23976 364.795553 70.125531 367.233519 76.261801 367.233519 
z
" clip-path="url(#pe8cb262a88)" style="fill: #c70039; fill-opacity: 0.99; stroke: #c70039; stroke-opacity: 0.99"/>
    <path d="M 112.288636 447.975719 
C 118.23802 447.975719 123.944532 445.612004 128.151382 441.405155 
C 132.358231 437.198305 134.721946 431.491792 134.721946 425.542409 
C 134.721946 419.593026 132.358231 413.886513 128.151382 409.679664 
C 123.944532 405.472814 118.23802 403.109099 112.288636 403.109099 
C 106.339253 403.109099 100.63274 405.472814 96.425891 409.679664 
C 92.219041 413.886513 89.855326 419.593026 89.855326 425.542409 
C 89.855326 431.491792 92.219041 437.198305 96.425891 441.405155 
C 100.63274 445.612004 106.339253 447.975719 112.288636 447.975719 
z
" clip-path="url(#pe8cb262a88)" style="fill: #c70039; fill-opacity: 0.99; stroke: #c70039; stroke-opacity: 0.99"/>
    <path d="M 178.112941 506.726719 
C 183.822273 506.726719 189.298533 504.458377 193.335641 500.42127 
C 197.372748 496.384163 199.641089 490.907902 199.641089 485.198571 
C 199.641089 479.489239 197.372748 474.012978 193.335641 469.975871 
C 189.298533 465.938764 183.822273 463.670422 178.112941 463.670422 
C 172.403609 463.670422 166.927348 465.938764 162.890241 469.975871 
C 158.853134 474.012978 156.584792 479.489239 156.584792 485.198571 
C 156.584792 490.907902 158.853134 496.384163 162.890241 500.42127 
C 166.927348 504.458377 172.403609 506.726719 178.112941 506.726719 
z
" clip-path="url(#pe8cb262a88)" style="fill: #c70039; fill-opacity: 0.99; stroke: #c70039; stroke-opacity: 0.99"/>
    <path d="M 262.353093 534.22342 
C 268.048204 534.22342 273.510824 531.960729 277.537876 527.933677 
C 281.564927 523.906626 283.827619 518.444005 283.827619 512.748894 
C 283.827619 507.053783 281.564927 501.591163 277.537876 497.564111 
C 273.510824 493.53706 268.048204 491.274368 262.353093 491.274368 
C 256.657982 491.274368 251.195361 493.53706 247.16831 497.564111 
C 243.141258 501.591163 240.878567 507.053783 240.878567 512.748894 
C 240.878567 518.444005 243.141258 523.906626 247.16831 527.933677 
C 251.195361 531.960729 256.657982 534.22342 262.353093 534.22342 
z
" clip-path="url(#pe8cb262a88)" style="fill: #c70039; fill-opacity: 0.99; stroke: #c70039; stroke-opacity: 0.99"/>
    <path d="M 350.443195 523.658599 
C 355.807968 523.658599 360.953737 521.527152 364.747204 517.733684 
C 368.540672 513.940216 370.672119 508.794448 370.672119 503.429675 
C 370.672119 498.064901 368.540672 492.919133 364.747204 489.125665 
C 360.953737 485.332197 355.807968 483.20075 350.443195 483.20075 
C 345.078421 483.20075 339.932653 485.332197 336.139185 489.125665 
C 332.345718 492.919133 330.21427 498.064901 330.21427 503.429675 
C 330.21427 508.794448 332.345718 513.940216 336.139185 517.733684 
C 339.932653 521.527152 345.078421 523.658599 350.443195 523.658599 
z
" clip-path="url(#pe8cb262a88)" style="fill: #c70039; fill-opacity: 0.99; stroke: #c70039; stroke-opacity: 0.99"/>
    <path d="M 427.151681 479.056184 
C 432.509817 479.056184 437.64922 476.927374 441.437995 473.138599 
C 445.22677 469.349824 447.35558 464.210422 447.35558 458.852285 
C 447.35558 453.494148 445.22677 448.354746 441.437995 444.565971 
C 437.64922 440.777196 432.509817 438.648386 427.151681 438.648386 
C 421.793544 438.648386 416.654141 440.777196 412.865366 444.565971 
C 409.076592 448.354746 406.947781 453.494148 406.947781 458.852285 
C 406.947781 464.210422 409.076592 469.349824 412.865366 473.138599 
C 416.654141 476.927374 421.793544 479.056184 427.151681 479.056184 
z
" clip-path="url(#pe8cb262a88)" style="fill: #c70039; fill-opacity: 0.99; stroke: #c70039; stroke-opacity: 0.99"/>
    <path d="M 479.214942 406.089501 
C 484.350578 406.089501 489.276563 404.049092 492.908006 400.417649 
C 496.539449 396.786206 498.579859 391.860221 498.579859 386.724585 
C 498.579859 381.588949 496.539449 376.662964 492.908006 373.031521 
C 489.276563 369.400078 484.350578 367.359668 479.214942 367.359668 
C 474.079307 367.359668 469.153322 369.400078 465.521879 373.031521 
C 461.890436 376.662964 459.850026 381.588949 459.850026 386.724585 
C 459.850026 391.860221 461.890436 396.786206 465.521879 400.417649 
C 469.153322 404.049092 474.079307 406.089501 479.214942 406.089501 
z
" clip-path="url(#pe8cb262a88)" style="fill: #c70039; fill-opacity: 0.99; stroke: #c70039; stroke-opacity: 0.99"/>
   </g>
   <g id="text_1">
    <g id="patch_2">
     <path d="M 464.209129 307.833281 
L 531.05241 307.833281 
L 531.05241 291.202969 
L 464.209129 291.202969 
z
" clip-path="url(#pe8cb262a88)" style="fill: #ffffff; opacity: 0.7; stroke: #000000; stroke-linejoin: miter"/>
    </g>
    <g clip-path="url(#pe8cb262a88)">
     <!-- Stanley Tucci -->
     <g transform="translate(468.169129 302.001562)scale(0.09 -0.09)">
      <defs>
       <path id="DejaVuSans-53" d="M 3425 4513 
L 3425 3897 
Q 3066 4069 2747 4153 
Q 2428 4238 2131 4238 
Q 1616 4238 1336 4038 
Q 1056 3838 1056 3469 
Q 1056 3159 1242 3001 
Q 1428 2844 1947 2747 
L 2328 2669 
Q 3034 2534 3370 2195 
Q 3706 1856 3706 1288 
Q 3706 609 3251 259 
Q 2797 -91 1919 -91 
Q 1588 -91 1214 -16 
Q 841 59 441 206 
L 441 856 
Q 825 641 1194 531 
Q 1563 422 1919 422 
Q 2459 422 2753 634 
Q 3047 847 3047 1241 
Q 3047 1584 2836 1778 
Q 2625 1972 2144 2069 
L 1759 2144 
Q 1053 2284 737 2584 
Q 422 2884 422 3419 
Q 422 4038 858 4394 
Q 1294 4750 2059 4750 
Q 2388 4750 2728 4690 
Q 3069 4631 3425 4513 
z
" transform="scale(0.015625)"/>
       <path id="DejaVuSans-74" d="M 1172 4494 
L 1172 3500 
L 2356 3500 
L 2356 3053 
L 1172 3053 
L 1172 1153 
Q 1172 725 1289 603 
Q 1406 481 1766 481 
L 2356 481 
L 2356 0 
L 1766 0 
Q 1100 0 847 248 
Q 594 497 594 1153 
L 594 3053 
L 172 3053 
L 172 3500 
L 594 3500 
L 594 4494 
L 1172 4494 
z
" transform="scale(0.015625)"/>
       <path id="DejaVuSans-61" d="M 2194 1759 
Q 1497 1759 1228 1600 
Q 959 1441 959 1056 
Q 959 750 1161 570 
Q 1363 391 1709 391 
Q 2188 391 2477 730 
Q 2766 1069 2766 1631 
L 2766 1759 
L 2194 1759 
z
M 3341 1997 
L 3341 0 
L 2766 0 
L 2766 531 
Q 2569 213 2275 61 
Q 1981 -91 1556 -91 
Q 1019 -91 701 211 
Q 384 513 384 1019 
Q 384 1609 779 1909 
Q 1175 2209 1959 2209 
L 2766 2209 
L 2766 2266 
Q 2766 2663 2505 2880 
Q 2244 3097 1772 3097 
Q 1472 3097 1187 3025 
Q 903 2953 641 2809 
L 641 3341 
Q 956 3463 1253 3523 
Q 1550 3584 1831 3584 
Q 2591 3584 2966 3190 
Q 3341 2797 3341 1997 
z
" transform="scale(0.015625)"/>
       <path id="DejaVuSans-6e" d="M 3513 2113 
L 3513 0 
L 2938 0 
L 2938 2094 
Q 2938 2591 2744 2837 
Q 2550 3084 2163 3084 
Q 1697 3084 1428 2787 
Q 1159 2491 1159 1978 
L 1159 0 
L 581 0 
L 581 3500 
L 1159 3500 
L 1159 2956 
Q 1366 3272 1645 3428 
Q 1925 3584 2291 3584 
Q 2894 3584 3203 3211 
Q 3513 2838 3513 2113 
z
" transform="scale(0.015625)"/>
       <path id="DejaVuSans-6c" d="M 603 4863 
L 1178 4863 
L 1178 0 
L 603 0 
L 603 4863 
z
" transform="scale(0.015625)"/>
       <path id="DejaVuSans-65" d="M 3597 1894 
L 3597 1613 
L 953 1613 
Q 991 1019 1311 708 
Q 1631 397 2203 397 
Q 2534 397 2845 478 
Q 3156 559 3463 722 
L 3463 178 
Q 3153 47 2828 -22 
Q 2503 -91 2169 -91 
Q 1331 -91 842 396 
Q 353 884 353 1716 
Q 353 2575 817 3079 
Q 1281 3584 2069 3584 
Q 2775 3584 3186 3129 
Q 3597 2675 3597 1894 
z
M 3022 2063 
Q 3016 2534 2758 2815 
Q 2500 3097 2075 3097 
Q 1594 3097 1305 2825 
Q 1016 2553 972 2059 
L 3022 2063 
z
" transform="scale(0.015625)"/>
       <path id="DejaVuSans-79" d="M 2059 -325 
Q 1816 -950 1584 -1140 
Q 1353 -1331 966 -1331 
L 506 -1331 
L 506 -850 
L 844 -850 
Q 1081 -850 1212 -737 
Q 1344 -625 1503 -206 
L 1606 56 
L 191 3500 
L 800 3500 
L 1894 763 
L 2988 3500 
L 3597 3500 
L 2059 -325 
z
" transform="scale(0.015625)"/>
       <path id="DejaVuSans-20" transform="scale(0.015625)"/>
       <path id="DejaVuSans-54" d="M -19 4666 
L 3928 4666 
L 3928 4134 
L 2272 4134 
L 2272 0 
L 1638 0 
L 1638 4134 
L -19 4134 
L -19 4666 
z
" transform="scale(0.015625)"/>
       <path id="DejaVuSans-75" d="M 544 1381 
L 544 3500 
L 1119 3500 
L 1119 1403 
Q 1119 906 1312 657 
Q 1506 409 1894 409 
Q 2359 409 2629 706 
Q 2900 1003 2900 1516 
L 2900 3500 
L 3475 3500 
L 3475 0 
L 2900 0 
L 2900 538 
Q 2691 219 2414 64 
Q 2138 -91 1772 -91 
Q 1169 -91 856 284 
Q 544 659 544 1381 
z
M 1991 3584 
L 1991 3584 
z
" transform="scale(0.015625)"/>
       <path id="DejaVuSans-63" d="M 3122 3366 
L 3122 2828 
Q 2878 2963 2633 3030 
Q 2388 3097 2138 3097 
Q 1578 3097 1268 2742 
Q 959 2388 959 1747 
Q 959 1106 1268 751 
Q 1578 397 2138 397 
Q 2388 397 2633 464 
Q 2878 531 3122 666 
L 3122 134 
Q 2881 22 2623 -34 
Q 2366 -91 2075 -91 
Q 1284 -91 818 406 
Q 353 903 353 1747 
Q 353 2603 823 3093 
Q 1294 3584 2113 3584 
Q 2378 3584 2631 3529 
Q 2884 3475 3122 3366 
z
" transform="scale(0.015625)"/>
       <path id="DejaVuSans-69" d="M 603 3500 
L 1178 3500 
L 1178 0 
L 603 0 
L 603 3500 
z
M 603 4863 
L 1178 4863 
L 1178 4134 
L 603 4134 
L 603 4863 
z
" transform="scale(0.015625)"/>
      </defs>
      <use xlink:href="#DejaVuSans-53"/>
      <use xlink:href="#DejaVuSans-74" x="63.476562"/>
      <use xlink:href="#DejaVuSans-61" x="102.685547"/>
      <use xlink:href="#DejaVuSans-6e" x="163.964844"/>
      <use xlink:href="#DejaVuSans-6c" x="227.34375"/>
      <use xlink:href="#DejaVuSans-65" x="255.126953"/>
      <use xlink:href="#DejaVuSans-79" x="316.650391"/>
      <use xlink:href="#DejaVuSans-20" x="375.830078"/>
      <use xlink:href="#DejaVuSans-54" x="407.617188"/>
      <use xlink:href="#DejaVuSans-75" x="453.576172"/>
      <use xlink:href="#DejaVuSans-63" x="516.955078"/>
      <use xlink:href="#DejaVuSans-63" x="571.935547"/>
      <use xlink:href="#DejaVuSans-69" x="626.916016"/>
     </g>
    </g>
   </g>
   <g id="text_2">
    <g id="patch_3">
     <path d="M 444.256245 220.62679 
L 514.173589 220.62679 
L 514.173589 203.996477 
L 444.256245 203.996477 
z
" clip-path="url(#pe8cb262a88)" style="fill: #ffffff; opacity: 0.7; stroke: #000000; stroke-linejoin: miter"/>
    </g>
    <g clip-path="url(#pe8cb262a88)">
     <!-- Danny DeVito -->
     <g transform="translate(448.216245 214.795071)scale(0.09 -0.09)">
      <defs>
       <path id="DejaVuSans-44" d="M 1259 4147 
L 1259 519 
L 2022 519 
Q 2988 519 3436 956 
Q 3884 1394 3884 2338 
Q 3884 3275 3436 3711 
Q 2988 4147 2022 4147 
L 1259 4147 
z
M 628 4666 
L 1925 4666 
Q 3281 4666 3915 4102 
Q 4550 3538 4550 2338 
Q 4550 1131 3912 565 
Q 3275 0 1925 0 
L 628 0 
L 628 4666 
z
" transform="scale(0.015625)"/>
       <path id="DejaVuSans-56" d="M 1831 0 
L 50 4666 
L 709 4666 
L 2188 738 
L 3669 4666 
L 4325 4666 
L 2547 0 
L 1831 0 
z
" transform="scale(0.015625)"/>
       <path id="DejaVuSans-6f" d="M 1959 3097 
Q 1497 3097 1228 2736 
Q 959 2375 959 1747 
Q 959 1119 1226 758 
Q 1494 397 1959 397 
Q 2419 397 2687 759 
Q 2956 1122 2956 1747 
Q 2956 2369 2687 2733 
Q 2419 3097 1959 3097 
z
M 1959 3584 
Q 2709 3584 3137 3096 
Q 3566 2609 3566 1747 
Q 3566 888 3137 398 
Q 2709 -91 1959 -91 
Q 1206 -91 779 398 
Q 353 888 353 1747 
Q 353 2609 779 3096 
Q 1206 3584 1959 3584 
z
" transform="scale(0.015625)"/>
      </defs>
      <use xlink:href="#DejaVuSans-44"/>
      <use xlink:href="#DejaVuSans-61" x="77.001953"/>
      <use xlink:href="#DejaVuSans-6e" x="138.28125"/>
      <use xlink:href="#DejaVuSans-6e" x="201.660156"/>
      <use xlink:href="#DejaVuSans-79" x="265.039062"/>
      <use xlink:href="#DejaVuSans-20" x="324.21875"/>
      <use xlink:href="#DejaVuSans-44" x="356.005859"/>
      <use xlink:href="#DejaVuSans-65" x="433.007812"/>
      <use xlink:href="#DejaVuSans-56" x="494.53125"/>
      <use xlink:href="#DejaVuSans-69" x="560.689453"/>
      <use xlink:href="#DejaVuSans-74" x="588.472656"/>
      <use xlink:href="#DejaVuSans-6f" x="627.681641"/>
     </g>
    </g>
   </g>
   <g id="text_3">
    <g id="patch_4">
     <path d="M 390.291018 148.499083 
L 464.012268 148.499083 
L 464.012268 131.86877 
L 390.291018 131.86877 
z
" clip-path="url(#pe8cb262a88)" style="fill: #ffffff; opacity: 0.7; stroke: #000000; stroke-linejoin: miter"/>
    </g>
    <g clip-path="url(#pe8cb262a88)">
     <!-- Robin Williams -->
     <g transform="translate(394.251018 142.667364)scale(0.09 -0.09)">
      <defs>
       <path id="DejaVuSans-52" d="M 2841 2188 
Q 3044 2119 3236 1894 
Q 3428 1669 3622 1275 
L 4263 0 
L 3584 0 
L 2988 1197 
Q 2756 1666 2539 1819 
Q 2322 1972 1947 1972 
L 1259 1972 
L 1259 0 
L 628 0 
L 628 4666 
L 2053 4666 
Q 2853 4666 3247 4331 
Q 3641 3997 3641 3322 
Q 3641 2881 3436 2590 
Q 3231 2300 2841 2188 
z
M 1259 4147 
L 1259 2491 
L 2053 2491 
Q 2509 2491 2742 2702 
Q 2975 2913 2975 3322 
Q 2975 3731 2742 3939 
Q 2509 4147 2053 4147 
L 1259 4147 
z
" transform="scale(0.015625)"/>
       <path id="DejaVuSans-62" d="M 3116 1747 
Q 3116 2381 2855 2742 
Q 2594 3103 2138 3103 
Q 1681 3103 1420 2742 
Q 1159 2381 1159 1747 
Q 1159 1113 1420 752 
Q 1681 391 2138 391 
Q 2594 391 2855 752 
Q 3116 1113 3116 1747 
z
M 1159 2969 
Q 1341 3281 1617 3432 
Q 1894 3584 2278 3584 
Q 2916 3584 3314 3078 
Q 3713 2572 3713 1747 
Q 3713 922 3314 415 
Q 2916 -91 2278 -91 
Q 1894 -91 1617 61 
Q 1341 213 1159 525 
L 1159 0 
L 581 0 
L 581 4863 
L 1159 4863 
L 1159 2969 
z
" transform="scale(0.015625)"/>
       <path id="DejaVuSans-57" d="M 213 4666 
L 850 4666 
L 1831 722 
L 2809 4666 
L 3519 4666 
L 4500 722 
L 5478 4666 
L 6119 4666 
L 4947 0 
L 4153 0 
L 3169 4050 
L 2175 0 
L 1381 0 
L 213 4666 
z
" transform="scale(0.015625)"/>
       <path id="DejaVuSans-6d" d="M 3328 2828 
Q 3544 3216 3844 3400 
Q 4144 3584 4550 3584 
Q 5097 3584 5394 3201 
Q 5691 2819 5691 2113 
L 5691 0 
L 5113 0 
L 5113 2094 
Q 5113 2597 4934 2840 
Q 4756 3084 4391 3084 
Q 3944 3084 3684 2787 
Q 3425 2491 3425 1978 
L 3425 0 
L 2847 0 
L 2847 2094 
Q 2847 2600 2669 2842 
Q 2491 3084 2119 3084 
Q 1678 3084 1418 2786 
Q 1159 2488 1159 1978 
L 1159 0 
L 581 0 
L 581 3500 
L 1159 3500 
L 1159 2956 
Q 1356 3278 1631 3431 
Q 1906 3584 2284 3584 
Q 2666 3584 2933 3390 
Q 3200 3197 3328 2828 
z
" transform="scale(0.015625)"/>
       <path id="DejaVuSans-73" d="M 2834 3397 
L 2834 2853 
Q 2591 2978 2328 3040 
Q 2066 3103 1784 3103 
Q 1356 3103 1142 2972 
Q 928 2841 928 2578 
Q 928 2378 1081 2264 
Q 1234 2150 1697 2047 
L 1894 2003 
Q 2506 1872 2764 1633 
Q 3022 1394 3022 966 
Q 3022 478 2636 193 
Q 2250 -91 1575 -91 
Q 1294 -91 989 -36 
Q 684 19 347 128 
L 347 722 
Q 666 556 975 473 
Q 1284 391 1588 391 
Q 1994 391 2212 530 
Q 2431 669 2431 922 
Q 2431 1156 2273 1281 
Q 2116 1406 1581 1522 
L 1381 1569 
Q 847 1681 609 1914 
Q 372 2147 372 2553 
Q 372 3047 722 3315 
Q 1072 3584 1716 3584 
Q 2034 3584 2315 3537 
Q 2597 3491 2834 3397 
z
" transform="scale(0.015625)"/>
      </defs>
      <use xlink:href="#DejaVuSans-52"/>
      <use xlink:href="#DejaVuSans-6f" x="64.982422"/>
      <use xlink:href="#DejaVuSans-62" x="126.164062"/>
      <use xlink:href="#DejaVuSans-69" x="189.640625"/>
      <use xlink:href="#DejaVuSans-6e" x="217.423828"/>
      <use xlink:href="#DejaVuSans-20" x="280.802734"/>
      <use xlink:href="#DejaVuSans-57" x="312.589844"/>
      <use xlink:href="#DejaVuSans-69" x="409.216797"/>
      <use xlink:href="#DejaVuSans-6c" x="437"/>
      <use xlink:href="#DejaVuSans-6c" x="464.783203"/>
      <use xlink:href="#DejaVuSans-69" x="492.566406"/>
      <use xlink:href="#DejaVuSans-61" x="520.349609"/>
      <use xlink:href="#DejaVuSans-6d" x="581.628906"/>
      <use xlink:href="#DejaVuSans-73" x="679.041016"/>
     </g>
    </g>
   </g>
   <g id="text_4">
    <g id="patch_5">
     <path d="M 305.701913 103.921719 
L 395.184413 103.921719 
L 395.184413 87.291406 
L 305.701913 87.291406 
z
" clip-path="url(#pe8cb262a88)" style="fill: #ffffff; opacity: 0.7; stroke: #000000; stroke-linejoin: miter"/>
    </g>
    <g clip-path="url(#pe8cb262a88)">
     <!-- Samuel L. Jackson -->
     <g transform="translate(309.661913 98.09)scale(0.09 -0.09)">
      <defs>
       <path id="DejaVuSans-4c" d="M 628 4666 
L 1259 4666 
L 1259 531 
L 3531 531 
L 3531 0 
L 628 0 
L 628 4666 
z
" transform="scale(0.015625)"/>
       <path id="DejaVuSans-2e" d="M 684 794 
L 1344 794 
L 1344 0 
L 684 0 
L 684 794 
z
" transform="scale(0.015625)"/>
       <path id="DejaVuSans-4a" d="M 628 4666 
L 1259 4666 
L 1259 325 
Q 1259 -519 939 -900 
Q 619 -1281 -91 -1281 
L -331 -1281 
L -331 -750 
L -134 -750 
Q 284 -750 456 -515 
Q 628 -281 628 325 
L 628 4666 
z
" transform="scale(0.015625)"/>
       <path id="DejaVuSans-6b" d="M 581 4863 
L 1159 4863 
L 1159 1991 
L 2875 3500 
L 3609 3500 
L 1753 1863 
L 3688 0 
L 2938 0 
L 1159 1709 
L 1159 0 
L 581 0 
L 581 4863 
z
" transform="scale(0.015625)"/>
      </defs>
      <use xlink:href="#DejaVuSans-53"/>
      <use xlink:href="#DejaVuSans-61" x="63.476562"/>
      <use xlink:href="#DejaVuSans-6d" x="124.755859"/>
      <use xlink:href="#DejaVuSans-75" x="222.167969"/>
      <use xlink:href="#DejaVuSans-65" x="285.546875"/>
      <use xlink:href="#DejaVuSans-6c" x="347.070312"/>
      <use xlink:href="#DejaVuSans-20" x="374.853516"/>
      <use xlink:href="#DejaVuSans-4c" x="406.640625"/>
      <use xlink:href="#DejaVuSans-2e" x="462.353516"/>
      <use xlink:href="#DejaVuSans-20" x="494.140625"/>
      <use xlink:href="#DejaVuSans-4a" x="525.927734"/>
      <use xlink:href="#DejaVuSans-61" x="555.419922"/>
      <use xlink:href="#DejaVuSans-63" x="616.699219"/>
      <use xlink:href="#DejaVuSans-6b" x="671.679688"/>
      <use xlink:href="#DejaVuSans-73" x="729.589844"/>
      <use xlink:href="#DejaVuSans-6f" x="781.689453"/>
      <use xlink:href="#DejaVuSans-6e" x="842.871094"/>
     </g>
    </g>
   </g>
   <g id="text_5">
    <g id="patch_6">
     <path d="M 224.980555 94.602512 
L 299.725555 94.602512 
L 299.725555 77.9722 
L 224.980555 77.9722 
z
" clip-path="url(#pe8cb262a88)" style="fill: #ffffff; opacity: 0.7; stroke: #000000; stroke-linejoin: miter"/>
    </g>
    <g clip-path="url(#pe8cb262a88)">
     <!-- Steve Buscemi -->
     <g transform="translate(228.940555 88.770793)scale(0.09 -0.09)">
      <defs>
       <path id="DejaVuSans-76" d="M 191 3500 
L 800 3500 
L 1894 563 
L 2988 3500 
L 3597 3500 
L 2284 0 
L 1503 0 
L 191 3500 
z
" transform="scale(0.015625)"/>
       <path id="DejaVuSans-42" d="M 1259 2228 
L 1259 519 
L 2272 519 
Q 2781 519 3026 730 
Q 3272 941 3272 1375 
Q 3272 1813 3026 2020 
Q 2781 2228 2272 2228 
L 1259 2228 
z
M 1259 4147 
L 1259 2741 
L 2194 2741 
Q 2656 2741 2882 2914 
Q 3109 3088 3109 3444 
Q 3109 3797 2882 3972 
Q 2656 4147 2194 4147 
L 1259 4147 
z
M 628 4666 
L 2241 4666 
Q 2963 4666 3353 4366 
Q 3744 4066 3744 3513 
Q 3744 3084 3544 2831 
Q 3344 2578 2956 2516 
Q 3422 2416 3680 2098 
Q 3938 1781 3938 1306 
Q 3938 681 3513 340 
Q 3088 0 2303 0 
L 628 0 
L 628 4666 
z
" transform="scale(0.015625)"/>
      </defs>
      <use xlink:href="#DejaVuSans-53"/>
      <use xlink:href="#DejaVuSans-74" x="63.476562"/>
      <use xlink:href="#DejaVuSans-65" x="102.685547"/>
      <use xlink:href="#DejaVuSans-76" x="164.208984"/>
      <use xlink:href="#DejaVuSans-65" x="223.388672"/>
      <use xlink:href="#DejaVuSans-20" x="284.912109"/>
      <use xlink:href="#DejaVuSans-42" x="316.699219"/>
      <use xlink:href="#DejaVuSans-75" x="385.302734"/>
      <use xlink:href="#DejaVuSans-73" x="448.681641"/>
      <use xlink:href="#DejaVuSans-63" x="500.78125"/>
      <use xlink:href="#DejaVuSans-65" x="555.761719"/>
      <use xlink:href="#DejaVuSans-6d" x="617.285156"/>
      <use xlink:href="#DejaVuSans-69" x="714.697266"/>
     </g>
    </g>
   </g>
   <g id="text_6">
    <g id="patch_7">
     <path d="M 141.022362 122.152849 
L 215.203456 122.152849 
L 215.203456 105.522536 
L 141.022362 105.522536 
z
" clip-path="url(#pe8cb262a88)" style="fill: #ffffff; opacity: 0.7; stroke: #000000; stroke-linejoin: miter"/>
    </g>
    <g clip-path="url(#pe8cb262a88)">
     <!-- Robert De Niro -->
     <g transform="translate(144.982362 116.32113)scale(0.09 -0.09)">
      <defs>
       <path id="DejaVuSans-72" d="M 2631 2963 
Q 2534 3019 2420 3045 
Q 2306 3072 2169 3072 
Q 1681 3072 1420 2755 
Q 1159 2438 1159 1844 
L 1159 0 
L 581 0 
L 581 3500 
L 1159 3500 
L 1159 2956 
Q 1341 3275 1631 3429 
Q 1922 3584 2338 3584 
Q 2397 3584 2469 3576 
Q 2541 3569 2628 3553 
L 2631 2963 
z
" transform="scale(0.015625)"/>
       <path id="DejaVuSans-4e" d="M 628 4666 
L 1478 4666 
L 3547 763 
L 3547 4666 
L 4159 4666 
L 4159 0 
L 3309 0 
L 1241 3903 
L 1241 0 
L 628 0 
L 628 4666 
z
" transform="scale(0.015625)"/>
      </defs>
      <use xlink:href="#DejaVuSans-52"/>
      <use xlink:href="#DejaVuSans-6f" x="64.982422"/>
      <use xlink:href="#DejaVuSans-62" x="126.164062"/>
      <use xlink:href="#DejaVuSans-65" x="189.640625"/>
      <use xlink:href="#DejaVuSans-72" x="251.164062"/>
      <use xlink:href="#DejaVuSans-74" x="292.277344"/>
      <use xlink:href="#DejaVuSans-20" x="331.486328"/>
      <use xlink:href="#DejaVuSans-44" x="363.273438"/>
      <use xlink:href="#DejaVuSans-65" x="440.275391"/>
      <use xlink:href="#DejaVuSans-20" x="501.798828"/>
      <use xlink:href="#DejaVuSans-4e" x="533.585938"/>
      <use xlink:href="#DejaVuSans-69" x="608.390625"/>
      <use xlink:href="#DejaVuSans-72" x="636.173828"/>
      <use xlink:href="#DejaVuSans-6f" x="675.037109"/>
     </g>
    </g>
   </g>
   <g id="text_7">
    <g id="patch_8">
     <path d="M 75.87378 181.80901 
L 148.703467 181.80901 
L 148.703467 165.178697 
L 75.87378 165.178697 
z
" clip-path="url(#pe8cb262a88)" style="fill: #ffffff; opacity: 0.7; stroke: #000000; stroke-linejoin: miter"/>
    </g>
    <g clip-path="url(#pe8cb262a88)">
     <!-- Jim Cummings -->
     <g transform="translate(79.83378 175.977291)scale(0.09 -0.09)">
      <defs>
       <path id="DejaVuSans-43" d="M 4122 4306 
L 4122 3641 
Q 3803 3938 3442 4084 
Q 3081 4231 2675 4231 
Q 1875 4231 1450 3742 
Q 1025 3253 1025 2328 
Q 1025 1406 1450 917 
Q 1875 428 2675 428 
Q 3081 428 3442 575 
Q 3803 722 4122 1019 
L 4122 359 
Q 3791 134 3420 21 
Q 3050 -91 2638 -91 
Q 1578 -91 968 557 
Q 359 1206 359 2328 
Q 359 3453 968 4101 
Q 1578 4750 2638 4750 
Q 3056 4750 3426 4639 
Q 3797 4528 4122 4306 
z
" transform="scale(0.015625)"/>
       <path id="DejaVuSans-67" d="M 2906 1791 
Q 2906 2416 2648 2759 
Q 2391 3103 1925 3103 
Q 1463 3103 1205 2759 
Q 947 2416 947 1791 
Q 947 1169 1205 825 
Q 1463 481 1925 481 
Q 2391 481 2648 825 
Q 2906 1169 2906 1791 
z
M 3481 434 
Q 3481 -459 3084 -895 
Q 2688 -1331 1869 -1331 
Q 1566 -1331 1297 -1286 
Q 1028 -1241 775 -1147 
L 775 -588 
Q 1028 -725 1275 -790 
Q 1522 -856 1778 -856 
Q 2344 -856 2625 -561 
Q 2906 -266 2906 331 
L 2906 616 
Q 2728 306 2450 153 
Q 2172 0 1784 0 
Q 1141 0 747 490 
Q 353 981 353 1791 
Q 353 2603 747 3093 
Q 1141 3584 1784 3584 
Q 2172 3584 2450 3431 
Q 2728 3278 2906 2969 
L 2906 3500 
L 3481 3500 
L 3481 434 
z
" transform="scale(0.015625)"/>
      </defs>
      <use xlink:href="#DejaVuSans-4a"/>
      <use xlink:href="#DejaVuSans-69" x="29.492188"/>
      <use xlink:href="#DejaVuSans-6d" x="57.275391"/>
      <use xlink:href="#DejaVuSans-20" x="154.6875"/>
      <use xlink:href="#DejaVuSans-43" x="186.474609"/>
      <use xlink:href="#DejaVuSans-75" x="256.298828"/>
      <use xlink:href="#DejaVuSans-6d" x="319.677734"/>
      <use xlink:href="#DejaVuSans-6d" x="417.089844"/>
      <use xlink:href="#DejaVuSans-69" x="514.501953"/>
      <use xlink:href="#DejaVuSans-6e" x="542.285156"/>
      <use xlink:href="#DejaVuSans-67" x="605.664062"/>
      <use xlink:href="#DejaVuSans-73" x="669.140625"/>
     </g>
    </g>
   </g>
   <g id="text_8">
    <g id="patch_9">
     <path d="M 43.278898 263.25593 
L 109.244679 263.25593 
L 109.244679 246.625618 
L 43.278898 246.625618 
z
" clip-path="url(#pe8cb262a88)" style="fill: #ffffff; opacity: 0.7; stroke: #000000; stroke-linejoin: miter"/>
    </g>
    <g clip-path="url(#pe8cb262a88)">
     <!-- Frank Welker -->
     <g transform="translate(47.238898 257.424211)scale(0.09 -0.09)">
      <defs>
       <path id="DejaVuSans-46" d="M 628 4666 
L 3309 4666 
L 3309 4134 
L 1259 4134 
L 1259 2759 
L 3109 2759 
L 3109 2228 
L 1259 2228 
L 1259 0 
L 628 0 
L 628 4666 
z
" transform="scale(0.015625)"/>
      </defs>
      <use xlink:href="#DejaVuSans-46"/>
      <use xlink:href="#DejaVuSans-72" x="50.269531"/>
      <use xlink:href="#DejaVuSans-61" x="91.382812"/>
      <use xlink:href="#DejaVuSans-6e" x="152.662109"/>
      <use xlink:href="#DejaVuSans-6b" x="216.041016"/>
      <use xlink:href="#DejaVuSans-20" x="273.951172"/>
      <use xlink:href="#DejaVuSans-57" x="305.738281"/>
      <use xlink:href="#DejaVuSans-65" x="398.740234"/>
      <use xlink:href="#DejaVuSans-6c" x="460.263672"/>
      <use xlink:href="#DejaVuSans-6b" x="488.046875"/>
      <use xlink:href="#DejaVuSans-65" x="542.332031"/>
      <use xlink:href="#DejaVuSans-72" x="603.855469"/>
     </g>
    </g>
   </g>
   <g id="text_9">
    <g id="patch_10">
     <path d="M 31.688598 352.410671 
L 120.835004 352.410671 
L 120.835004 335.780358 
L 31.688598 335.780358 
z
" clip-path="url(#pe8cb262a88)" style="fill: #ffffff; opacity: 0.7; stroke: #000000; stroke-linejoin: miter"/>
    </g>
    <g clip-path="url(#pe8cb262a88)">
     <!-- Sylvester Stallone -->
     <g transform="translate(35.648598 346.578952)scale(0.09 -0.09)">
      <use xlink:href="#DejaVuSans-53"/>
      <use xlink:href="#DejaVuSans-79" x="63.476562"/>
      <use xlink:href="#DejaVuSans-6c" x="122.65625"/>
      <use xlink:href="#DejaVuSans-76" x="150.439453"/>
      <use xlink:href="#DejaVuSans-65" x="209.619141"/>
      <use xlink:href="#DejaVuSans-73" x="271.142578"/>
      <use xlink:href="#DejaVuSans-74" x="323.242188"/>
      <use xlink:href="#DejaVuSans-65" x="362.451172"/>
      <use xlink:href="#DejaVuSans-72" x="423.974609"/>
      <use xlink:href="#DejaVuSans-20" x="465.087891"/>
      <use xlink:href="#DejaVuSans-53" x="496.875"/>
      <use xlink:href="#DejaVuSans-74" x="560.351562"/>
      <use xlink:href="#DejaVuSans-61" x="599.560547"/>
      <use xlink:href="#DejaVuSans-6c" x="660.839844"/>
      <use xlink:href="#DejaVuSans-6c" x="688.623047"/>
      <use xlink:href="#DejaVuSans-6f" x="716.40625"/>
      <use xlink:href="#DejaVuSans-6e" x="777.587891"/>
      <use xlink:href="#DejaVuSans-65" x="840.966797"/>
     </g>
    </g>
   </g>
   <g id="text_10">
    <g id="patch_11">
     <path d="M 72.34973 433.857565 
L 152.227542 433.857565 
L 152.227542 417.227253 
L 72.34973 417.227253 
z
" clip-path="url(#pe8cb262a88)" style="fill: #ffffff; opacity: 0.7; stroke: #000000; stroke-linejoin: miter"/>
    </g>
    <g clip-path="url(#pe8cb262a88)">
     <!-- Robbie Coltrane -->
     <g transform="translate(76.30973 428.025847)scale(0.09 -0.09)">
      <use xlink:href="#DejaVuSans-52"/>
      <use xlink:href="#DejaVuSans-6f" x="64.982422"/>
      <use xlink:href="#DejaVuSans-62" x="126.164062"/>
      <use xlink:href="#DejaVuSans-62" x="189.640625"/>
      <use xlink:href="#DejaVuSans-69" x="253.117188"/>
      <use xlink:href="#DejaVuSans-65" x="280.900391"/>
      <use xlink:href="#DejaVuSans-20" x="342.423828"/>
      <use xlink:href="#DejaVuSans-43" x="374.210938"/>
      <use xlink:href="#DejaVuSans-6f" x="444.035156"/>
      <use xlink:href="#DejaVuSans-6c" x="505.216797"/>
      <use xlink:href="#DejaVuSans-74" x="533"/>
      <use xlink:href="#DejaVuSans-72" x="572.208984"/>
      <use xlink:href="#DejaVuSans-61" x="613.322266"/>
      <use xlink:href="#DejaVuSans-6e" x="674.601562"/>
      <use xlink:href="#DejaVuSans-65" x="737.980469"/>
     </g>
    </g>
   </g>
   <g id="text_11">
    <g id="patch_12">
     <path d="M 144.322863 493.513727 
L 211.903019 493.513727 
L 211.903019 476.883414 
L 144.322863 476.883414 
z
" clip-path="url(#pe8cb262a88)" style="fill: #ffffff; opacity: 0.7; stroke: #000000; stroke-linejoin: miter"/>
    </g>
    <g clip-path="url(#pe8cb262a88)">
     <!-- Gary Oldman -->
     <g transform="translate(148.282863 487.682008)scale(0.09 -0.09)">
      <defs>
       <path id="DejaVuSans-47" d="M 3809 666 
L 3809 1919 
L 2778 1919 
L 2778 2438 
L 4434 2438 
L 4434 434 
Q 4069 175 3628 42 
Q 3188 -91 2688 -91 
Q 1594 -91 976 548 
Q 359 1188 359 2328 
Q 359 3472 976 4111 
Q 1594 4750 2688 4750 
Q 3144 4750 3555 4637 
Q 3966 4525 4313 4306 
L 4313 3634 
Q 3963 3931 3569 4081 
Q 3175 4231 2741 4231 
Q 1884 4231 1454 3753 
Q 1025 3275 1025 2328 
Q 1025 1384 1454 906 
Q 1884 428 2741 428 
Q 3075 428 3337 486 
Q 3600 544 3809 666 
z
" transform="scale(0.015625)"/>
       <path id="DejaVuSans-4f" d="M 2522 4238 
Q 1834 4238 1429 3725 
Q 1025 3213 1025 2328 
Q 1025 1447 1429 934 
Q 1834 422 2522 422 
Q 3209 422 3611 934 
Q 4013 1447 4013 2328 
Q 4013 3213 3611 3725 
Q 3209 4238 2522 4238 
z
M 2522 4750 
Q 3503 4750 4090 4092 
Q 4678 3434 4678 2328 
Q 4678 1225 4090 567 
Q 3503 -91 2522 -91 
Q 1538 -91 948 565 
Q 359 1222 359 2328 
Q 359 3434 948 4092 
Q 1538 4750 2522 4750 
z
" transform="scale(0.015625)"/>
       <path id="DejaVuSans-64" d="M 2906 2969 
L 2906 4863 
L 3481 4863 
L 3481 0 
L 2906 0 
L 2906 525 
Q 2725 213 2448 61 
Q 2172 -91 1784 -91 
Q 1150 -91 751 415 
Q 353 922 353 1747 
Q 353 2572 751 3078 
Q 1150 3584 1784 3584 
Q 2172 3584 2448 3432 
Q 2725 3281 2906 2969 
z
M 947 1747 
Q 947 1113 1208 752 
Q 1469 391 1925 391 
Q 2381 391 2643 752 
Q 2906 1113 2906 1747 
Q 2906 2381 2643 2742 
Q 2381 3103 1925 3103 
Q 1469 3103 1208 2742 
Q 947 2381 947 1747 
z
" transform="scale(0.015625)"/>
      </defs>
      <use xlink:href="#DejaVuSans-47"/>
      <use xlink:href="#DejaVuSans-61" x="77.490234"/>
      <use xlink:href="#DejaVuSans-72" x="138.769531"/>
      <use xlink:href="#DejaVuSans-79" x="179.882812"/>
      <use xlink:href="#DejaVuSans-20" x="239.0625"/>
      <use xlink:href="#DejaVuSans-4f" x="270.849609"/>
      <use xlink:href="#DejaVuSans-6c" x="349.560547"/>
      <use xlink:href="#DejaVuSans-64" x="377.34375"/>
      <use xlink:href="#DejaVuSans-6d" x="440.820312"/>
      <use xlink:href="#DejaVuSans-61" x="538.232422"/>
      <use xlink:href="#DejaVuSans-6e" x="599.511719"/>
     </g>
    </g>
   </g>
   <g id="text_12">
    <g id="patch_13">
     <path d="M 230.092312 521.06405 
L 294.613874 521.06405 
L 294.613874 504.433738 
L 230.092312 504.433738 
z
" clip-path="url(#pe8cb262a88)" style="fill: #ffffff; opacity: 0.7; stroke: #000000; stroke-linejoin: miter"/>
    </g>
    <g clip-path="url(#pe8cb262a88)">
     <!-- Ray Romano -->
     <g transform="translate(234.052312 515.232332)scale(0.09 -0.09)">
      <use xlink:href="#DejaVuSans-52"/>
      <use xlink:href="#DejaVuSans-61" x="67.232422"/>
      <use xlink:href="#DejaVuSans-79" x="128.511719"/>
      <use xlink:href="#DejaVuSans-20" x="187.691406"/>
      <use xlink:href="#DejaVuSans-52" x="219.478516"/>
      <use xlink:href="#DejaVuSans-6f" x="284.460938"/>
      <use xlink:href="#DejaVuSans-6d" x="345.642578"/>
      <use xlink:href="#DejaVuSans-61" x="443.054688"/>
      <use xlink:href="#DejaVuSans-6e" x="504.333984"/>
      <use xlink:href="#DejaVuSans-6f" x="567.712891"/>
     </g>
    </g>
   </g>
   <g id="text_13">
    <g id="patch_14">
     <path d="M 311.961867 511.744831 
L 388.924523 511.744831 
L 388.924523 495.114518 
L 311.961867 495.114518 
z
" clip-path="url(#pe8cb262a88)" style="fill: #ffffff; opacity: 0.7; stroke: #000000; stroke-linejoin: miter"/>
    </g>
    <g clip-path="url(#pe8cb262a88)">
     <!-- Gene Hackman -->
     <g transform="translate(315.921867 505.913112)scale(0.09 -0.09)">
      <defs>
       <path id="DejaVuSans-48" d="M 628 4666 
L 1259 4666 
L 1259 2753 
L 3553 2753 
L 3553 4666 
L 4184 4666 
L 4184 0 
L 3553 0 
L 3553 2222 
L 1259 2222 
L 1259 0 
L 628 0 
L 628 4666 
z
" transform="scale(0.015625)"/>
      </defs>
      <use xlink:href="#DejaVuSans-47"/>
      <use xlink:href="#DejaVuSans-65" x="77.490234"/>
      <use xlink:href="#DejaVuSans-6e" x="139.013672"/>
      <use xlink:href="#DejaVuSans-65" x="202.392578"/>
      <use xlink:href="#DejaVuSans-20" x="263.916016"/>
      <use xlink:href="#DejaVuSans-48" x="295.703125"/>
      <use xlink:href="#DejaVuSans-61" x="370.898438"/>
      <use xlink:href="#DejaVuSans-63" x="432.177734"/>
      <use xlink:href="#DejaVuSans-6b" x="487.158203"/>
      <use xlink:href="#DejaVuSans-6d" x="545.068359"/>
      <use xlink:href="#DejaVuSans-61" x="642.480469"/>
      <use xlink:href="#DejaVuSans-6e" x="703.759766"/>
     </g>
    </g>
   </g>
   <g id="text_14">
    <g id="patch_15">
     <path d="M 391.410431 467.167441 
L 462.892931 467.167441 
L 462.892931 450.537129 
L 391.410431 450.537129 
z
" clip-path="url(#pe8cb262a88)" style="fill: #ffffff; opacity: 0.7; stroke: #000000; stroke-linejoin: miter"/>
    </g>
    <g clip-path="url(#pe8cb262a88)">
     <!-- Joe Pantoliano -->
     <g transform="translate(395.370431 461.335723)scale(0.09 -0.09)">
      <defs>
       <path id="DejaVuSans-50" d="M 1259 4147 
L 1259 2394 
L 2053 2394 
Q 2494 2394 2734 2622 
Q 2975 2850 2975 3272 
Q 2975 3691 2734 3919 
Q 2494 4147 2053 4147 
L 1259 4147 
z
M 628 4666 
L 2053 4666 
Q 2838 4666 3239 4311 
Q 3641 3956 3641 3272 
Q 3641 2581 3239 2228 
Q 2838 1875 2053 1875 
L 1259 1875 
L 1259 0 
L 628 0 
L 628 4666 
z
" transform="scale(0.015625)"/>
      </defs>
      <use xlink:href="#DejaVuSans-4a"/>
      <use xlink:href="#DejaVuSans-6f" x="29.492188"/>
      <use xlink:href="#DejaVuSans-65" x="90.673828"/>
      <use xlink:href="#DejaVuSans-20" x="152.197266"/>
      <use xlink:href="#DejaVuSans-50" x="183.984375"/>
      <use xlink:href="#DejaVuSans-61" x="239.787109"/>
      <use xlink:href="#DejaVuSans-6e" x="301.066406"/>
      <use xlink:href="#DejaVuSans-74" x="364.445312"/>
      <use xlink:href="#DejaVuSans-6f" x="403.654297"/>
      <use xlink:href="#DejaVuSans-6c" x="464.835938"/>
      <use xlink:href="#DejaVuSans-69" x="492.619141"/>
      <use xlink:href="#DejaVuSans-61" x="520.402344"/>
      <use xlink:href="#DejaVuSans-6e" x="581.681641"/>
      <use xlink:href="#DejaVuSans-6f" x="645.060547"/>
     </g>
    </g>
   </g>
   <g id="text_15">
    <g id="patch_16">
     <path d="M 444.462286 395.039741 
L 513.967599 395.039741 
L 513.967599 378.409428 
L 444.462286 378.409428 
z
" clip-path="url(#pe8cb262a88)" style="fill: #ffffff; opacity: 0.7; stroke: #000000; stroke-linejoin: miter"/>
    </g>
    <g clip-path="url(#pe8cb262a88)">
     <!-- Danny Glover -->
     <g transform="translate(448.422286 389.208022)scale(0.09 -0.09)">
      <use xlink:href="#DejaVuSans-44"/>
      <use xlink:href="#DejaVuSans-61" x="77.001953"/>
      <use xlink:href="#DejaVuSans-6e" x="138.28125"/>
      <use xlink:href="#DejaVuSans-6e" x="201.660156"/>
      <use xlink:href="#DejaVuSans-79" x="265.039062"/>
      <use xlink:href="#DejaVuSans-20" x="324.21875"/>
      <use xlink:href="#DejaVuSans-47" x="356.005859"/>
      <use xlink:href="#DejaVuSans-6c" x="433.496094"/>
      <use xlink:href="#DejaVuSans-6f" x="461.279297"/>
      <use xlink:href="#DejaVuSans-76" x="522.460938"/>
      <use xlink:href="#DejaVuSans-65" x="581.640625"/>
      <use xlink:href="#DejaVuSans-72" x="643.164062"/>
     </g>
    </g>
   </g>
   <g id="text_16">
    <!-- Impactful actors for Family Film genre - Importance rank: 8 -->
    <g transform="translate(107.425312 16.318125)scale(0.12 -0.12)">
     <defs>
      <path id="DejaVuSans-49" d="M 628 4666 
L 1259 4666 
L 1259 0 
L 628 0 
L 628 4666 
z
" transform="scale(0.015625)"/>
      <path id="DejaVuSans-70" d="M 1159 525 
L 1159 -1331 
L 581 -1331 
L 581 3500 
L 1159 3500 
L 1159 2969 
Q 1341 3281 1617 3432 
Q 1894 3584 2278 3584 
Q 2916 3584 3314 3078 
Q 3713 2572 3713 1747 
Q 3713 922 3314 415 
Q 2916 -91 2278 -91 
Q 1894 -91 1617 61 
Q 1341 213 1159 525 
z
M 3116 1747 
Q 3116 2381 2855 2742 
Q 2594 3103 2138 3103 
Q 1681 3103 1420 2742 
Q 1159 2381 1159 1747 
Q 1159 1113 1420 752 
Q 1681 391 2138 391 
Q 2594 391 2855 752 
Q 3116 1113 3116 1747 
z
" transform="scale(0.015625)"/>
      <path id="DejaVuSans-66" d="M 2375 4863 
L 2375 4384 
L 1825 4384 
Q 1516 4384 1395 4259 
Q 1275 4134 1275 3809 
L 1275 3500 
L 2222 3500 
L 2222 3053 
L 1275 3053 
L 1275 0 
L 697 0 
L 697 3053 
L 147 3053 
L 147 3500 
L 697 3500 
L 697 3744 
Q 697 4328 969 4595 
Q 1241 4863 1831 4863 
L 2375 4863 
z
" transform="scale(0.015625)"/>
      <path id="DejaVuSans-2d" d="M 313 2009 
L 1997 2009 
L 1997 1497 
L 313 1497 
L 313 2009 
z
" transform="scale(0.015625)"/>
      <path id="DejaVuSans-3a" d="M 750 794 
L 1409 794 
L 1409 0 
L 750 0 
L 750 794 
z
M 750 3309 
L 1409 3309 
L 1409 2516 
L 750 2516 
L 750 3309 
z
" transform="scale(0.015625)"/>
      <path id="DejaVuSans-38" d="M 2034 2216 
Q 1584 2216 1326 1975 
Q 1069 1734 1069 1313 
Q 1069 891 1326 650 
Q 1584 409 2034 409 
Q 2484 409 2743 651 
Q 3003 894 3003 1313 
Q 3003 1734 2745 1975 
Q 2488 2216 2034 2216 
z
M 1403 2484 
Q 997 2584 770 2862 
Q 544 3141 544 3541 
Q 544 4100 942 4425 
Q 1341 4750 2034 4750 
Q 2731 4750 3128 4425 
Q 3525 4100 3525 3541 
Q 3525 3141 3298 2862 
Q 3072 2584 2669 2484 
Q 3125 2378 3379 2068 
Q 3634 1759 3634 1313 
Q 3634 634 3220 271 
Q 2806 -91 2034 -91 
Q 1263 -91 848 271 
Q 434 634 434 1313 
Q 434 1759 690 2068 
Q 947 2378 1403 2484 
z
M 1172 3481 
Q 1172 3119 1398 2916 
Q 1625 2713 2034 2713 
Q 2441 2713 2670 2916 
Q 2900 3119 2900 3481 
Q 2900 3844 2670 4047 
Q 2441 4250 2034 4250 
Q 1625 4250 1398 4047 
Q 1172 3844 1172 3481 
z
" transform="scale(0.015625)"/>
     </defs>
     <use xlink:href="#DejaVuSans-49"/>
     <use xlink:href="#DejaVuSans-6d" x="29.492188"/>
     <use xlink:href="#DejaVuSans-70" x="126.904297"/>
     <use xlink:href="#DejaVuSans-61" x="190.380859"/>
     <use xlink:href="#DejaVuSans-63" x="251.660156"/>
     <use xlink:href="#DejaVuSans-74" x="306.640625"/>
     <use xlink:href="#DejaVuSans-66" x="345.849609"/>
     <use xlink:href="#DejaVuSans-75" x="381.054688"/>
     <use xlink:href="#DejaVuSans-6c" x="444.433594"/>
     <use xlink:href="#DejaVuSans-20" x="472.216797"/>
     <use xlink:href="#DejaVuSans-61" x="504.003906"/>
     <use xlink:href="#DejaVuSans-63" x="565.283203"/>
     <use xlink:href="#DejaVuSans-74" x="620.263672"/>
     <use xlink:href="#DejaVuSans-6f" x="659.472656"/>
     <use xlink:href="#DejaVuSans-72" x="720.654297"/>
     <use xlink:href="#DejaVuSans-73" x="761.767578"/>
     <use xlink:href="#DejaVuSans-20" x="813.867188"/>
     <use xlink:href="#DejaVuSans-66" x="845.654297"/>
     <use xlink:href="#DejaVuSans-6f" x="880.859375"/>
     <use xlink:href="#DejaVuSans-72" x="942.041016"/>
     <use xlink:href="#DejaVuSans-20" x="983.154297"/>
     <use xlink:href="#DejaVuSans-46" x="1014.941406"/>
     <use xlink:href="#DejaVuSans-61" x="1063.335938"/>
     <use xlink:href="#DejaVuSans-6d" x="1124.615234"/>
     <use xlink:href="#DejaVuSans-69" x="1222.027344"/>
     <use xlink:href="#DejaVuSans-6c" x="1249.810547"/>
     <use xlink:href="#DejaVuSans-79" x="1277.59375"/>
     <use xlink:href="#DejaVuSans-20" x="1336.773438"/>
     <use xlink:href="#DejaVuSans-46" x="1368.560547"/>
     <use xlink:href="#DejaVuSans-69" x="1418.830078"/>
     <use xlink:href="#DejaVuSans-6c" x="1446.613281"/>
     <use xlink:href="#DejaVuSans-6d" x="1474.396484"/>
     <use xlink:href="#DejaVuSans-20" x="1571.808594"/>
     <use xlink:href="#DejaVuSans-67" x="1603.595703"/>
     <use xlink:href="#DejaVuSans-65" x="1667.072266"/>
     <use xlink:href="#DejaVuSans-6e" x="1728.595703"/>
     <use xlink:href="#DejaVuSans-72" x="1791.974609"/>
     <use xlink:href="#DejaVuSans-65" x="1830.837891"/>
     <use xlink:href="#DejaVuSans-20" x="1892.361328"/>
     <use xlink:href="#DejaVuSans-2d" x="1924.148438"/>
     <use xlink:href="#DejaVuSans-20" x="1960.232422"/>
     <use xlink:href="#DejaVuSans-49" x="1992.019531"/>
     <use xlink:href="#DejaVuSans-6d" x="2021.511719"/>
     <use xlink:href="#DejaVuSans-70" x="2118.923828"/>
     <use xlink:href="#DejaVuSans-6f" x="2182.400391"/>
     <use xlink:href="#DejaVuSans-72" x="2243.582031"/>
     <use xlink:href="#DejaVuSans-74" x="2284.695312"/>
     <use xlink:href="#DejaVuSans-61" x="2323.904297"/>
     <use xlink:href="#DejaVuSans-6e" x="2385.183594"/>
     <use xlink:href="#DejaVuSans-63" x="2448.5625"/>
     <use xlink:href="#DejaVuSans-65" x="2503.542969"/>
     <use xlink:href="#DejaVuSans-20" x="2565.066406"/>
     <use xlink:href="#DejaVuSans-72" x="2596.853516"/>
     <use xlink:href="#DejaVuSans-61" x="2637.966797"/>
     <use xlink:href="#DejaVuSans-6e" x="2699.246094"/>
     <use xlink:href="#DejaVuSans-6b" x="2762.625"/>
     <use xlink:href="#DejaVuSans-3a" x="2820.535156"/>
     <use xlink:href="#DejaVuSans-20" x="2854.226562"/>
     <use xlink:href="#DejaVuSans-38" x="2886.013672"/>
    </g>
   </g>
  </g>
 </g>
 <defs>
  <clipPath id="pe8cb262a88">
   <rect x="7.2" y="22.318125" width="554.4" height="554.4"/>
  </clipPath>
 </defs>
</svg>
