<?xml version="1.0" encoding="utf-8" standalone="no"?>
<!DOCTYPE svg PUBLIC "-//W3C//DTD SVG 1.1//EN"
  "http://www.w3.org/Graphics/SVG/1.1/DTD/svg11.dtd">
<svg xmlns:xlink="http://www.w3.org/1999/xlink" width="576pt" height="576pt" viewBox="0 0 576 576" xmlns="http://www.w3.org/2000/svg" version="1.1">
 <metadata>
  <rdf:RDF xmlns:dc="http://purl.org/dc/elements/1.1/" xmlns:cc="http://creativecommons.org/ns#" xmlns:rdf="http://www.w3.org/1999/02/22-rdf-syntax-ns#">
   <cc:Work>
    <dc:type rdf:resource="http://purl.org/dc/dcmitype/StillImage"/>
    <dc:date>2022-12-22T16:13:51.023986</dc:date>
    <dc:format>image/svg+xml</dc:format>
    <dc:creator>
     <cc:Agent>
      <dc:title>Matplotlib v3.5.2, https://matplotlib.org/</dc:title>
     </cc:Agent>
    </dc:creator>
   </cc:Work>
  </rdf:RDF>
 </metadata>
 <defs>
  <style type="text/css">*{stroke-linejoin: round; stroke-linecap: butt}</style>
 </defs>
 <g id="figure_1">
  <g id="patch_1">
   <path d="M 0 576 
L 576 576 
L 576 0 
L 0 0 
z
" style="fill: #ffffff"/>
  </g>
  <g id="axes_1">
   <g id="LineCollection_1">
    <path d="M 481.846129 208.721371 
L 431.754622 143.150729 
" clip-path="url(#pc6ecb935b6)" style="fill: none; stroke: #000000; stroke-opacity: 0.3; stroke-width: 6.387636"/>
    <path d="M 481.846129 208.721371 
L 357.951284 102.625852 
" clip-path="url(#pc6ecb935b6)" style="fill: none; stroke: #000000; stroke-opacity: 0.3; stroke-width: 6.035367"/>
    <path d="M 431.754622 143.150729 
L 273.19737 94.153846 
" clip-path="url(#pc6ecb935b6)" style="fill: none; stroke: #000000; stroke-opacity: 0.3; stroke-width: 7.48163"/>
    <path d="M 357.951284 102.625852 
L 192.14764 456.800405 
" clip-path="url(#pc6ecb935b6)" style="fill: none; stroke: #000000; stroke-opacity: 0.3; stroke-width: 10"/>
    <path d="M 357.951284 102.625852 
L 273.197406 481.846154 
" clip-path="url(#pc6ecb935b6)" style="fill: none; stroke: #000000; stroke-opacity: 0.3; stroke-width: 6.396807"/>
    <path d="M 357.951284 102.625852 
L 357.951315 473.374136 
" clip-path="url(#pc6ecb935b6)" style="fill: none; stroke: #000000; stroke-opacity: 0.3; stroke-width: 9.28631"/>
    <path d="M 357.951284 102.625852 
L 481.846154 367.2786 
" clip-path="url(#pc6ecb935b6)" style="fill: none; stroke: #000000; stroke-opacity: 0.3; stroke-width: 10"/>
    <path d="M 192.14761 119.199607 
L 128.816255 173.432481 
" clip-path="url(#pc6ecb935b6)" style="fill: none; stroke: #000000; stroke-opacity: 0.3; stroke-width: 5"/>
    <path d="M 94.153846 247.475135 
L 94.153858 328.5249 
" clip-path="url(#pc6ecb935b6)" style="fill: none; stroke: #000000; stroke-opacity: 0.3; stroke-width: 7.436022"/>
    <path d="M 192.14764 456.800405 
L 481.846154 367.2786 
" clip-path="url(#pc6ecb935b6)" style="fill: none; stroke: #000000; stroke-opacity: 0.3; stroke-width: 10"/>
    <path d="M 192.14764 456.800405 
L 357.951315 473.374136 
" clip-path="url(#pc6ecb935b6)" style="fill: none; stroke: #000000; stroke-opacity: 0.3; stroke-width: 9.28631"/>
    <path d="M 192.14764 456.800405 
L 273.197406 481.846154 
" clip-path="url(#pc6ecb935b6)" style="fill: none; stroke: #000000; stroke-opacity: 0.3; stroke-width: 6.396807"/>
    <path d="M 273.197406 481.846154 
L 481.846154 367.2786 
" clip-path="url(#pc6ecb935b6)" style="fill: none; stroke: #000000; stroke-opacity: 0.3; stroke-width: 6.396807"/>
    <path d="M 273.197406 481.846154 
L 357.951315 473.374136 
" clip-path="url(#pc6ecb935b6)" style="fill: none; stroke: #000000; stroke-opacity: 0.3; stroke-width: 6.396807"/>
    <path d="M 357.951315 473.374136 
L 481.846154 367.2786 
" clip-path="url(#pc6ecb935b6)" style="fill: none; stroke: #000000; stroke-opacity: 0.3; stroke-width: 9.28631"/>
   </g>
   <g id="PathCollection_1">
    <path d="M 499.564527 315.386128 
C 506.827413 315.386128 513.793808 312.500553 518.929444 307.364917 
C 524.06508 302.229281 526.950655 295.262886 526.950655 288 
C 526.950655 280.737114 524.06508 273.770719 518.929444 268.635083 
C 513.793808 263.499447 506.827413 260.613872 499.564527 260.613872 
C 492.301641 260.613872 485.335246 263.499447 480.19961 268.635083 
C 475.063974 273.770719 472.178399 280.737114 472.178399 288 
C 472.178399 295.262886 475.063974 302.229281 480.19961 307.364917 
C 485.335246 312.500553 492.301641 315.386128 499.564527 315.386128 
z
" clip-path="url(#pc6ecb935b6)" style="fill: #d62728; fill-opacity: 0.99; stroke: #d62728; stroke-opacity: 0.99"/>
    <path d="M 481.846129 233.661602 
C 488.460356 233.661602 494.804571 231.033742 499.481536 226.356777 
C 504.1585 221.679813 506.78636 215.335598 506.78636 208.721371 
C 506.78636 202.107145 504.1585 195.76293 499.481536 191.085965 
C 494.804571 186.409001 488.460356 183.781141 481.846129 183.781141 
C 475.231903 183.781141 468.887688 186.409001 464.210723 191.085965 
C 459.533759 195.76293 456.905899 202.107145 456.905899 208.721371 
C 456.905899 215.335598 459.533759 221.679813 464.210723 226.356777 
C 468.887688 231.033742 475.231903 233.661602 481.846129 233.661602 
z
" clip-path="url(#pc6ecb935b6)" style="fill: #d62728; fill-opacity: 0.99; stroke: #d62728; stroke-opacity: 0.99"/>
    <path d="M 431.754622 166.756678 
C 438.014993 166.756678 444.019798 164.269407 448.446549 159.842656 
C 452.873299 155.415905 455.360571 149.4111 455.360571 143.150729 
C 455.360571 136.890358 452.873299 130.885553 448.446549 126.458802 
C 444.019798 122.032051 438.014993 119.544779 431.754622 119.544779 
C 425.494251 119.544779 419.489445 122.032051 415.062695 126.458802 
C 410.635944 130.885553 408.148672 136.890358 408.148672 143.150729 
C 408.148672 149.4111 410.635944 155.415905 415.062695 159.842656 
C 419.489445 164.269407 425.494251 166.756678 431.754622 166.756678 
z
" clip-path="url(#pc6ecb935b6)" style="fill: #d62728; fill-opacity: 0.99; stroke: #d62728; stroke-opacity: 0.99"/>
    <path d="M 357.951284 126.0783 
C 364.170946 126.0783 370.136704 123.607202 374.534669 119.209237 
C 378.932634 114.811272 381.403732 108.845514 381.403732 102.625852 
C 381.403732 96.406191 378.932634 90.440433 374.534669 86.042468 
C 370.136704 81.644503 364.170946 79.173405 357.951284 79.173405 
C 351.731623 79.173405 345.765865 81.644503 341.3679 86.042468 
C 336.969935 90.440433 334.498837 96.406191 334.498837 102.625852 
C 334.498837 108.845514 336.969935 114.811272 341.3679 119.209237 
C 345.765865 123.607202 351.731623 126.0783 357.951284 126.0783 
z
" clip-path="url(#pc6ecb935b6)" style="fill: #d62728; fill-opacity: 0.99; stroke: #d62728; stroke-opacity: 0.99"/>
    <path d="M 273.19737 115.865667 
C 278.955412 115.865667 284.478395 113.577973 288.549945 109.506422 
C 292.621496 105.434871 294.909191 99.911888 294.909191 94.153846 
C 294.909191 88.395804 292.621496 82.872821 288.549945 78.80127 
C 284.478395 74.72972 278.955412 72.442025 273.19737 72.442025 
C 267.439327 72.442025 261.916345 74.72972 257.844794 78.80127 
C 253.773243 82.872821 251.485549 88.395804 251.485549 94.153846 
C 251.485549 99.911888 253.773243 105.434871 257.844794 109.506422 
C 261.916345 113.577973 267.439327 115.865667 273.19737 115.865667 
z
" clip-path="url(#pc6ecb935b6)" style="fill: #d62728; fill-opacity: 0.99; stroke: #d62728; stroke-opacity: 0.99"/>
    <path d="M 192.14761 140.850593 
C 197.889518 140.850593 203.397026 138.569308 207.457169 134.509166 
C 211.517311 130.449023 213.798595 124.941515 213.798595 119.199607 
C 213.798595 113.457698 211.517311 107.95019 207.457169 103.890048 
C 203.397026 99.829905 197.889518 97.548621 192.14761 97.548621 
C 186.405701 97.548621 180.898193 99.829905 176.838051 103.890048 
C 172.777908 107.95019 170.496624 113.457698 170.496624 119.199607 
C 170.496624 124.941515 172.777908 130.449023 176.838051 134.509166 
C 180.898193 138.569308 186.405701 140.850593 192.14761 140.850593 
z
" clip-path="url(#pc6ecb935b6)" style="fill: #d62728; fill-opacity: 0.99; stroke: #d62728; stroke-opacity: 0.99"/>
    <path d="M 128.816255 195.063289 
C 134.552812 195.063289 140.055187 192.78413 144.111546 188.727772 
C 148.167904 184.671413 150.447063 179.169038 150.447063 173.432481 
C 150.447063 167.695923 148.167904 162.193548 144.111546 158.13719 
C 140.055187 154.080831 134.552812 151.801673 128.816255 151.801673 
C 123.079697 151.801673 117.577322 154.080831 113.520964 158.13719 
C 109.464605 162.193548 107.185447 167.695923 107.185447 173.432481 
C 107.185447 179.169038 109.464605 184.671413 113.520964 188.727772 
C 117.577322 192.78413 123.079697 195.063289 128.816255 195.063289 
z
" clip-path="url(#pc6ecb935b6)" style="fill: #d62728; fill-opacity: 0.99; stroke: #d62728; stroke-opacity: 0.99"/>
    <path d="M 94.153846 268.343348 
C 99.688161 268.343348 104.99655 266.144542 108.909901 262.23119 
C 112.823253 258.317839 115.022059 253.00945 115.022059 247.475135 
C 115.022059 241.940821 112.823253 236.632432 108.909901 232.71908 
C 104.99655 228.805729 99.688161 226.606922 94.153846 226.606922 
C 88.619531 226.606922 83.311143 228.805729 79.397791 232.71908 
C 75.48444 236.632432 73.285633 241.940821 73.285633 247.475135 
C 73.285633 253.00945 75.48444 258.317839 79.397791 262.23119 
C 83.311143 266.144542 88.619531 268.343348 94.153846 268.343348 
z
" clip-path="url(#pc6ecb935b6)" style="fill: #d62728; fill-opacity: 0.99; stroke: #d62728; stroke-opacity: 0.99"/>
    <path d="M 94.153858 349.184855 
C 99.632943 349.184855 104.888355 347.007991 108.762653 343.133694 
C 112.63695 339.259396 114.813813 334.003984 114.813813 328.5249 
C 114.813813 323.045815 112.63695 317.790403 108.762653 313.916105 
C 104.888355 310.041808 99.632943 307.864944 94.153858 307.864944 
C 88.674774 307.864944 83.419362 310.041808 79.545064 313.916105 
C 75.670766 317.790403 73.493903 323.045815 73.493903 328.5249 
C 73.493903 334.003984 75.670766 339.259396 79.545064 343.133694 
C 83.419362 347.007991 88.674774 349.184855 94.153858 349.184855 
z
" clip-path="url(#pc6ecb935b6)" style="fill: #d62728; fill-opacity: 0.99; stroke: #d62728; stroke-opacity: 0.99"/>
    <path d="M 128.816267 422.906154 
C 134.210133 422.906154 139.383806 420.763148 143.197845 416.949109 
C 147.011884 413.13507 149.154889 407.961397 149.154889 402.567531 
C 149.154889 397.173665 147.011884 391.999992 143.197845 388.185953 
C 139.383806 384.371914 134.210133 382.228908 128.816267 382.228908 
C 123.422401 382.228908 118.248728 384.371914 114.434689 388.185953 
C 110.62065 391.999992 108.477644 397.173665 108.477644 402.567531 
C 108.477644 407.961397 110.62065 413.13507 114.434689 416.949109 
C 118.248728 420.763148 123.422401 422.906154 128.816267 422.906154 
z
" clip-path="url(#pc6ecb935b6)" style="fill: #d62728; fill-opacity: 0.99; stroke: #d62728; stroke-opacity: 0.99"/>
    <path d="M 192.14764 477.003459 
C 197.505553 477.003459 202.64474 474.874738 206.433357 471.086122 
C 210.221973 467.297505 212.350694 462.158318 212.350694 456.800405 
C 212.350694 451.442492 210.221973 446.303305 206.433357 442.514688 
C 202.64474 438.726072 197.505553 436.597351 192.14764 436.597351 
C 186.789727 436.597351 181.65054 438.726072 177.861923 442.514688 
C 174.073307 446.303305 171.944586 451.442492 171.944586 456.800405 
C 171.944586 462.158318 174.073307 467.297505 177.861923 471.086122 
C 181.65054 474.874738 186.789727 477.003459 192.14764 477.003459 
z
" clip-path="url(#pc6ecb935b6)" style="fill: #d62728; fill-opacity: 0.99; stroke: #d62728; stroke-opacity: 0.99"/>
    <path d="M 273.197406 501.865513 
C 278.506602 501.865513 283.599062 499.756147 287.353231 496.001978 
C 291.107399 492.24781 293.216765 487.15535 293.216765 481.846154 
C 293.216765 476.536958 291.107399 471.444498 287.353231 467.690329 
C 283.599062 463.936161 278.506602 461.826795 273.197406 461.826795 
C 267.88821 461.826795 262.79575 463.936161 259.041582 467.690329 
C 255.287413 471.444498 253.178047 476.536958 253.178047 481.846154 
C 253.178047 487.15535 255.287413 492.24781 259.041582 496.001978 
C 262.79575 499.756147 267.88821 501.865513 273.197406 501.865513 
z
" clip-path="url(#pc6ecb935b6)" style="fill: #d62728; fill-opacity: 0.99; stroke: #d62728; stroke-opacity: 0.99"/>
    <path d="M 357.951315 493.206516 
C 363.210924 493.206516 368.255821 491.116852 371.974926 487.397747 
C 375.694031 483.678642 377.783696 478.633745 377.783696 473.374136 
C 377.783696 468.114527 375.694031 463.06963 371.974926 459.350525 
C 368.255821 455.63142 363.210924 453.541755 357.951315 453.541755 
C 352.691706 453.541755 347.646809 455.63142 343.927704 459.350525 
C 340.208599 463.06963 338.118935 468.114527 338.118935 473.374136 
C 338.118935 478.633745 340.208599 483.678642 343.927704 487.397747 
C 347.646809 491.116852 352.691706 493.206516 357.951315 493.206516 
z
" clip-path="url(#pc6ecb935b6)" style="fill: #d62728; fill-opacity: 0.99; stroke: #d62728; stroke-opacity: 0.99"/>
    <path d="M 431.754658 452.367524 
C 436.930969 452.367524 441.895968 450.310955 445.556172 446.65075 
C 449.216376 442.990546 451.272946 438.025547 451.272946 432.849236 
C 451.272946 427.672926 449.216376 422.707927 445.556172 419.047723 
C 441.895968 415.387518 436.930969 413.330948 431.754658 413.330948 
C 426.578348 413.330948 421.613349 415.387518 417.953144 419.047723 
C 414.29294 422.707927 412.23637 427.672926 412.23637 432.849236 
C 412.23637 438.025547 414.29294 442.990546 417.953144 446.65075 
C 421.613349 450.310955 426.578348 452.367524 431.754658 452.367524 
z
" clip-path="url(#pc6ecb935b6)" style="fill: #d62728; fill-opacity: 0.99; stroke: #d62728; stroke-opacity: 0.99"/>
    <path d="M 481.846154 386.643516 
C 486.98179 386.643516 491.907775 384.603107 495.539218 380.971664 
C 499.170661 377.340221 501.211071 372.414236 501.211071 367.2786 
C 501.211071 362.142964 499.170661 357.216979 495.539218 353.585536 
C 491.907775 349.954093 486.98179 347.913683 481.846154 347.913683 
C 476.710518 347.913683 471.784533 349.954093 468.15309 353.585536 
C 464.521647 357.216979 462.481237 362.142964 462.481237 367.2786 
C 462.481237 372.414236 464.521647 377.340221 468.15309 380.971664 
C 471.784533 384.603107 476.710518 386.643516 481.846154 386.643516 
z
" clip-path="url(#pc6ecb935b6)" style="fill: #d62728; fill-opacity: 0.99; stroke: #d62728; stroke-opacity: 0.99"/>
   </g>
   <g id="text_1">
    <g id="patch_2">
     <path d="M 462.192027 296.315156 
L 536.937027 296.315156 
L 536.937027 279.684844 
L 462.192027 279.684844 
z
" clip-path="url(#pc6ecb935b6)" style="fill: #ffffff; opacity: 0.7; stroke: #000000; stroke-linejoin: miter"/>
    </g>
    <g clip-path="url(#pc6ecb935b6)">
     <!-- Steve Buscemi -->
     <g transform="translate(466.152027 290.483438)scale(0.09 -0.09)">
      <defs>
       <path id="DejaVuSans-53" d="M 3425 4513 
L 3425 3897 
Q 3066 4069 2747 4153 
Q 2428 4238 2131 4238 
Q 1616 4238 1336 4038 
Q 1056 3838 1056 3469 
Q 1056 3159 1242 3001 
Q 1428 2844 1947 2747 
L 2328 2669 
Q 3034 2534 3370 2195 
Q 3706 1856 3706 1288 
Q 3706 609 3251 259 
Q 2797 -91 1919 -91 
Q 1588 -91 1214 -16 
Q 841 59 441 206 
L 441 856 
Q 825 641 1194 531 
Q 1563 422 1919 422 
Q 2459 422 2753 634 
Q 3047 847 3047 1241 
Q 3047 1584 2836 1778 
Q 2625 1972 2144 2069 
L 1759 2144 
Q 1053 2284 737 2584 
Q 422 2884 422 3419 
Q 422 4038 858 4394 
Q 1294 4750 2059 4750 
Q 2388 4750 2728 4690 
Q 3069 4631 3425 4513 
z
" transform="scale(0.015625)"/>
       <path id="DejaVuSans-74" d="M 1172 4494 
L 1172 3500 
L 2356 3500 
L 2356 3053 
L 1172 3053 
L 1172 1153 
Q 1172 725 1289 603 
Q 1406 481 1766 481 
L 2356 481 
L 2356 0 
L 1766 0 
Q 1100 0 847 248 
Q 594 497 594 1153 
L 594 3053 
L 172 3053 
L 172 3500 
L 594 3500 
L 594 4494 
L 1172 4494 
z
" transform="scale(0.015625)"/>
       <path id="DejaVuSans-65" d="M 3597 1894 
L 3597 1613 
L 953 1613 
Q 991 1019 1311 708 
Q 1631 397 2203 397 
Q 2534 397 2845 478 
Q 3156 559 3463 722 
L 3463 178 
Q 3153 47 2828 -22 
Q 2503 -91 2169 -91 
Q 1331 -91 842 396 
Q 353 884 353 1716 
Q 353 2575 817 3079 
Q 1281 3584 2069 3584 
Q 2775 3584 3186 3129 
Q 3597 2675 3597 1894 
z
M 3022 2063 
Q 3016 2534 2758 2815 
Q 2500 3097 2075 3097 
Q 1594 3097 1305 2825 
Q 1016 2553 972 2059 
L 3022 2063 
z
" transform="scale(0.015625)"/>
       <path id="DejaVuSans-76" d="M 191 3500 
L 800 3500 
L 1894 563 
L 2988 3500 
L 3597 3500 
L 2284 0 
L 1503 0 
L 191 3500 
z
" transform="scale(0.015625)"/>
       <path id="DejaVuSans-20" transform="scale(0.015625)"/>
       <path id="DejaVuSans-42" d="M 1259 2228 
L 1259 519 
L 2272 519 
Q 2781 519 3026 730 
Q 3272 941 3272 1375 
Q 3272 1813 3026 2020 
Q 2781 2228 2272 2228 
L 1259 2228 
z
M 1259 4147 
L 1259 2741 
L 2194 2741 
Q 2656 2741 2882 2914 
Q 3109 3088 3109 3444 
Q 3109 3797 2882 3972 
Q 2656 4147 2194 4147 
L 1259 4147 
z
M 628 4666 
L 2241 4666 
Q 2963 4666 3353 4366 
Q 3744 4066 3744 3513 
Q 3744 3084 3544 2831 
Q 3344 2578 2956 2516 
Q 3422 2416 3680 2098 
Q 3938 1781 3938 1306 
Q 3938 681 3513 340 
Q 3088 0 2303 0 
L 628 0 
L 628 4666 
z
" transform="scale(0.015625)"/>
       <path id="DejaVuSans-75" d="M 544 1381 
L 544 3500 
L 1119 3500 
L 1119 1403 
Q 1119 906 1312 657 
Q 1506 409 1894 409 
Q 2359 409 2629 706 
Q 2900 1003 2900 1516 
L 2900 3500 
L 3475 3500 
L 3475 0 
L 2900 0 
L 2900 538 
Q 2691 219 2414 64 
Q 2138 -91 1772 -91 
Q 1169 -91 856 284 
Q 544 659 544 1381 
z
M 1991 3584 
L 1991 3584 
z
" transform="scale(0.015625)"/>
       <path id="DejaVuSans-73" d="M 2834 3397 
L 2834 2853 
Q 2591 2978 2328 3040 
Q 2066 3103 1784 3103 
Q 1356 3103 1142 2972 
Q 928 2841 928 2578 
Q 928 2378 1081 2264 
Q 1234 2150 1697 2047 
L 1894 2003 
Q 2506 1872 2764 1633 
Q 3022 1394 3022 966 
Q 3022 478 2636 193 
Q 2250 -91 1575 -91 
Q 1294 -91 989 -36 
Q 684 19 347 128 
L 347 722 
Q 666 556 975 473 
Q 1284 391 1588 391 
Q 1994 391 2212 530 
Q 2431 669 2431 922 
Q 2431 1156 2273 1281 
Q 2116 1406 1581 1522 
L 1381 1569 
Q 847 1681 609 1914 
Q 372 2147 372 2553 
Q 372 3047 722 3315 
Q 1072 3584 1716 3584 
Q 2034 3584 2315 3537 
Q 2597 3491 2834 3397 
z
" transform="scale(0.015625)"/>
       <path id="DejaVuSans-63" d="M 3122 3366 
L 3122 2828 
Q 2878 2963 2633 3030 
Q 2388 3097 2138 3097 
Q 1578 3097 1268 2742 
Q 959 2388 959 1747 
Q 959 1106 1268 751 
Q 1578 397 2138 397 
Q 2388 397 2633 464 
Q 2878 531 3122 666 
L 3122 134 
Q 2881 22 2623 -34 
Q 2366 -91 2075 -91 
Q 1284 -91 818 406 
Q 353 903 353 1747 
Q 353 2603 823 3093 
Q 1294 3584 2113 3584 
Q 2378 3584 2631 3529 
Q 2884 3475 3122 3366 
z
" transform="scale(0.015625)"/>
       <path id="DejaVuSans-6d" d="M 3328 2828 
Q 3544 3216 3844 3400 
Q 4144 3584 4550 3584 
Q 5097 3584 5394 3201 
Q 5691 2819 5691 2113 
L 5691 0 
L 5113 0 
L 5113 2094 
Q 5113 2597 4934 2840 
Q 4756 3084 4391 3084 
Q 3944 3084 3684 2787 
Q 3425 2491 3425 1978 
L 3425 0 
L 2847 0 
L 2847 2094 
Q 2847 2600 2669 2842 
Q 2491 3084 2119 3084 
Q 1678 3084 1418 2786 
Q 1159 2488 1159 1978 
L 1159 0 
L 581 0 
L 581 3500 
L 1159 3500 
L 1159 2956 
Q 1356 3278 1631 3431 
Q 1906 3584 2284 3584 
Q 2666 3584 2933 3390 
Q 3200 3197 3328 2828 
z
" transform="scale(0.015625)"/>
       <path id="DejaVuSans-69" d="M 603 3500 
L 1178 3500 
L 1178 0 
L 603 0 
L 603 3500 
z
M 603 4863 
L 1178 4863 
L 1178 4134 
L 603 4134 
L 603 4863 
z
" transform="scale(0.015625)"/>
      </defs>
      <use xlink:href="#DejaVuSans-53"/>
      <use xlink:href="#DejaVuSans-74" x="63.476562"/>
      <use xlink:href="#DejaVuSans-65" x="102.685547"/>
      <use xlink:href="#DejaVuSans-76" x="164.208984"/>
      <use xlink:href="#DejaVuSans-65" x="223.388672"/>
      <use xlink:href="#DejaVuSans-20" x="284.912109"/>
      <use xlink:href="#DejaVuSans-42" x="316.699219"/>
      <use xlink:href="#DejaVuSans-75" x="385.302734"/>
      <use xlink:href="#DejaVuSans-73" x="448.681641"/>
      <use xlink:href="#DejaVuSans-63" x="500.78125"/>
      <use xlink:href="#DejaVuSans-65" x="555.761719"/>
      <use xlink:href="#DejaVuSans-6d" x="617.285156"/>
      <use xlink:href="#DejaVuSans-69" x="714.697266"/>
     </g>
    </g>
   </g>
   <g id="text_2">
    <g id="patch_3">
     <path d="M 451.627926 217.036528 
L 512.064333 217.036528 
L 512.064333 200.406215 
L 451.627926 200.406215 
z
" clip-path="url(#pc6ecb935b6)" style="fill: #ffffff; opacity: 0.7; stroke: #000000; stroke-linejoin: miter"/>
    </g>
    <g clip-path="url(#pc6ecb935b6)">
     <!-- John Cleese -->
     <g transform="translate(455.587926 211.204809)scale(0.09 -0.09)">
      <defs>
       <path id="DejaVuSans-4a" d="M 628 4666 
L 1259 4666 
L 1259 325 
Q 1259 -519 939 -900 
Q 619 -1281 -91 -1281 
L -331 -1281 
L -331 -750 
L -134 -750 
Q 284 -750 456 -515 
Q 628 -281 628 325 
L 628 4666 
z
" transform="scale(0.015625)"/>
       <path id="DejaVuSans-6f" d="M 1959 3097 
Q 1497 3097 1228 2736 
Q 959 2375 959 1747 
Q 959 1119 1226 758 
Q 1494 397 1959 397 
Q 2419 397 2687 759 
Q 2956 1122 2956 1747 
Q 2956 2369 2687 2733 
Q 2419 3097 1959 3097 
z
M 1959 3584 
Q 2709 3584 3137 3096 
Q 3566 2609 3566 1747 
Q 3566 888 3137 398 
Q 2709 -91 1959 -91 
Q 1206 -91 779 398 
Q 353 888 353 1747 
Q 353 2609 779 3096 
Q 1206 3584 1959 3584 
z
" transform="scale(0.015625)"/>
       <path id="DejaVuSans-68" d="M 3513 2113 
L 3513 0 
L 2938 0 
L 2938 2094 
Q 2938 2591 2744 2837 
Q 2550 3084 2163 3084 
Q 1697 3084 1428 2787 
Q 1159 2491 1159 1978 
L 1159 0 
L 581 0 
L 581 4863 
L 1159 4863 
L 1159 2956 
Q 1366 3272 1645 3428 
Q 1925 3584 2291 3584 
Q 2894 3584 3203 3211 
Q 3513 2838 3513 2113 
z
" transform="scale(0.015625)"/>
       <path id="DejaVuSans-6e" d="M 3513 2113 
L 3513 0 
L 2938 0 
L 2938 2094 
Q 2938 2591 2744 2837 
Q 2550 3084 2163 3084 
Q 1697 3084 1428 2787 
Q 1159 2491 1159 1978 
L 1159 0 
L 581 0 
L 581 3500 
L 1159 3500 
L 1159 2956 
Q 1366 3272 1645 3428 
Q 1925 3584 2291 3584 
Q 2894 3584 3203 3211 
Q 3513 2838 3513 2113 
z
" transform="scale(0.015625)"/>
       <path id="DejaVuSans-43" d="M 4122 4306 
L 4122 3641 
Q 3803 3938 3442 4084 
Q 3081 4231 2675 4231 
Q 1875 4231 1450 3742 
Q 1025 3253 1025 2328 
Q 1025 1406 1450 917 
Q 1875 428 2675 428 
Q 3081 428 3442 575 
Q 3803 722 4122 1019 
L 4122 359 
Q 3791 134 3420 21 
Q 3050 -91 2638 -91 
Q 1578 -91 968 557 
Q 359 1206 359 2328 
Q 359 3453 968 4101 
Q 1578 4750 2638 4750 
Q 3056 4750 3426 4639 
Q 3797 4528 4122 4306 
z
" transform="scale(0.015625)"/>
       <path id="DejaVuSans-6c" d="M 603 4863 
L 1178 4863 
L 1178 0 
L 603 0 
L 603 4863 
z
" transform="scale(0.015625)"/>
      </defs>
      <use xlink:href="#DejaVuSans-4a"/>
      <use xlink:href="#DejaVuSans-6f" x="29.492188"/>
      <use xlink:href="#DejaVuSans-68" x="90.673828"/>
      <use xlink:href="#DejaVuSans-6e" x="154.052734"/>
      <use xlink:href="#DejaVuSans-20" x="217.431641"/>
      <use xlink:href="#DejaVuSans-43" x="249.21875"/>
      <use xlink:href="#DejaVuSans-6c" x="319.042969"/>
      <use xlink:href="#DejaVuSans-65" x="346.826172"/>
      <use xlink:href="#DejaVuSans-65" x="408.349609"/>
      <use xlink:href="#DejaVuSans-73" x="469.873047"/>
      <use xlink:href="#DejaVuSans-65" x="521.972656"/>
     </g>
    </g>
   </g>
   <g id="text_3">
    <g id="patch_4">
     <path d="M 383.210872 151.465885 
L 480.298372 151.465885 
L 480.298372 134.835573 
L 383.210872 134.835573 
z
" clip-path="url(#pc6ecb935b6)" style="fill: #ffffff; opacity: 0.7; stroke: #000000; stroke-linejoin: miter"/>
    </g>
    <g clip-path="url(#pc6ecb935b6)">
     <!-- Christopher Knights -->
     <g transform="translate(387.170872 145.634166)scale(0.09 -0.09)">
      <defs>
       <path id="DejaVuSans-72" d="M 2631 2963 
Q 2534 3019 2420 3045 
Q 2306 3072 2169 3072 
Q 1681 3072 1420 2755 
Q 1159 2438 1159 1844 
L 1159 0 
L 581 0 
L 581 3500 
L 1159 3500 
L 1159 2956 
Q 1341 3275 1631 3429 
Q 1922 3584 2338 3584 
Q 2397 3584 2469 3576 
Q 2541 3569 2628 3553 
L 2631 2963 
z
" transform="scale(0.015625)"/>
       <path id="DejaVuSans-70" d="M 1159 525 
L 1159 -1331 
L 581 -1331 
L 581 3500 
L 1159 3500 
L 1159 2969 
Q 1341 3281 1617 3432 
Q 1894 3584 2278 3584 
Q 2916 3584 3314 3078 
Q 3713 2572 3713 1747 
Q 3713 922 3314 415 
Q 2916 -91 2278 -91 
Q 1894 -91 1617 61 
Q 1341 213 1159 525 
z
M 3116 1747 
Q 3116 2381 2855 2742 
Q 2594 3103 2138 3103 
Q 1681 3103 1420 2742 
Q 1159 2381 1159 1747 
Q 1159 1113 1420 752 
Q 1681 391 2138 391 
Q 2594 391 2855 752 
Q 3116 1113 3116 1747 
z
" transform="scale(0.015625)"/>
       <path id="DejaVuSans-4b" d="M 628 4666 
L 1259 4666 
L 1259 2694 
L 3353 4666 
L 4166 4666 
L 1850 2491 
L 4331 0 
L 3500 0 
L 1259 2247 
L 1259 0 
L 628 0 
L 628 4666 
z
" transform="scale(0.015625)"/>
       <path id="DejaVuSans-67" d="M 2906 1791 
Q 2906 2416 2648 2759 
Q 2391 3103 1925 3103 
Q 1463 3103 1205 2759 
Q 947 2416 947 1791 
Q 947 1169 1205 825 
Q 1463 481 1925 481 
Q 2391 481 2648 825 
Q 2906 1169 2906 1791 
z
M 3481 434 
Q 3481 -459 3084 -895 
Q 2688 -1331 1869 -1331 
Q 1566 -1331 1297 -1286 
Q 1028 -1241 775 -1147 
L 775 -588 
Q 1028 -725 1275 -790 
Q 1522 -856 1778 -856 
Q 2344 -856 2625 -561 
Q 2906 -266 2906 331 
L 2906 616 
Q 2728 306 2450 153 
Q 2172 0 1784 0 
Q 1141 0 747 490 
Q 353 981 353 1791 
Q 353 2603 747 3093 
Q 1141 3584 1784 3584 
Q 2172 3584 2450 3431 
Q 2728 3278 2906 2969 
L 2906 3500 
L 3481 3500 
L 3481 434 
z
" transform="scale(0.015625)"/>
      </defs>
      <use xlink:href="#DejaVuSans-43"/>
      <use xlink:href="#DejaVuSans-68" x="69.824219"/>
      <use xlink:href="#DejaVuSans-72" x="133.203125"/>
      <use xlink:href="#DejaVuSans-69" x="174.316406"/>
      <use xlink:href="#DejaVuSans-73" x="202.099609"/>
      <use xlink:href="#DejaVuSans-74" x="254.199219"/>
      <use xlink:href="#DejaVuSans-6f" x="293.408203"/>
      <use xlink:href="#DejaVuSans-70" x="354.589844"/>
      <use xlink:href="#DejaVuSans-68" x="418.066406"/>
      <use xlink:href="#DejaVuSans-65" x="481.445312"/>
      <use xlink:href="#DejaVuSans-72" x="542.96875"/>
      <use xlink:href="#DejaVuSans-20" x="584.082031"/>
      <use xlink:href="#DejaVuSans-4b" x="615.869141"/>
      <use xlink:href="#DejaVuSans-6e" x="681.445312"/>
      <use xlink:href="#DejaVuSans-69" x="744.824219"/>
      <use xlink:href="#DejaVuSans-67" x="772.607422"/>
      <use xlink:href="#DejaVuSans-68" x="836.083984"/>
      <use xlink:href="#DejaVuSans-74" x="899.462891"/>
      <use xlink:href="#DejaVuSans-73" x="938.671875"/>
     </g>
    </g>
   </g>
   <g id="text_4">
    <g id="patch_5">
     <path d="M 321.300191 110.941009 
L 394.602378 110.941009 
L 394.602378 94.310696 
L 321.300191 94.310696 
z
" clip-path="url(#pc6ecb935b6)" style="fill: #ffffff; opacity: 0.7; stroke: #000000; stroke-linejoin: miter"/>
    </g>
    <g clip-path="url(#pc6ecb935b6)">
     <!-- Warwick Davis -->
     <g transform="translate(325.260191 105.10929)scale(0.09 -0.09)">
      <defs>
       <path id="DejaVuSans-57" d="M 213 4666 
L 850 4666 
L 1831 722 
L 2809 4666 
L 3519 4666 
L 4500 722 
L 5478 4666 
L 6119 4666 
L 4947 0 
L 4153 0 
L 3169 4050 
L 2175 0 
L 1381 0 
L 213 4666 
z
" transform="scale(0.015625)"/>
       <path id="DejaVuSans-61" d="M 2194 1759 
Q 1497 1759 1228 1600 
Q 959 1441 959 1056 
Q 959 750 1161 570 
Q 1363 391 1709 391 
Q 2188 391 2477 730 
Q 2766 1069 2766 1631 
L 2766 1759 
L 2194 1759 
z
M 3341 1997 
L 3341 0 
L 2766 0 
L 2766 531 
Q 2569 213 2275 61 
Q 1981 -91 1556 -91 
Q 1019 -91 701 211 
Q 384 513 384 1019 
Q 384 1609 779 1909 
Q 1175 2209 1959 2209 
L 2766 2209 
L 2766 2266 
Q 2766 2663 2505 2880 
Q 2244 3097 1772 3097 
Q 1472 3097 1187 3025 
Q 903 2953 641 2809 
L 641 3341 
Q 956 3463 1253 3523 
Q 1550 3584 1831 3584 
Q 2591 3584 2966 3190 
Q 3341 2797 3341 1997 
z
" transform="scale(0.015625)"/>
       <path id="DejaVuSans-77" d="M 269 3500 
L 844 3500 
L 1563 769 
L 2278 3500 
L 2956 3500 
L 3675 769 
L 4391 3500 
L 4966 3500 
L 4050 0 
L 3372 0 
L 2619 2869 
L 1863 0 
L 1184 0 
L 269 3500 
z
" transform="scale(0.015625)"/>
       <path id="DejaVuSans-6b" d="M 581 4863 
L 1159 4863 
L 1159 1991 
L 2875 3500 
L 3609 3500 
L 1753 1863 
L 3688 0 
L 2938 0 
L 1159 1709 
L 1159 0 
L 581 0 
L 581 4863 
z
" transform="scale(0.015625)"/>
       <path id="DejaVuSans-44" d="M 1259 4147 
L 1259 519 
L 2022 519 
Q 2988 519 3436 956 
Q 3884 1394 3884 2338 
Q 3884 3275 3436 3711 
Q 2988 4147 2022 4147 
L 1259 4147 
z
M 628 4666 
L 1925 4666 
Q 3281 4666 3915 4102 
Q 4550 3538 4550 2338 
Q 4550 1131 3912 565 
Q 3275 0 1925 0 
L 628 0 
L 628 4666 
z
" transform="scale(0.015625)"/>
      </defs>
      <use xlink:href="#DejaVuSans-57"/>
      <use xlink:href="#DejaVuSans-61" x="92.501953"/>
      <use xlink:href="#DejaVuSans-72" x="153.78125"/>
      <use xlink:href="#DejaVuSans-77" x="194.894531"/>
      <use xlink:href="#DejaVuSans-69" x="276.681641"/>
      <use xlink:href="#DejaVuSans-63" x="304.464844"/>
      <use xlink:href="#DejaVuSans-6b" x="359.445312"/>
      <use xlink:href="#DejaVuSans-20" x="417.355469"/>
      <use xlink:href="#DejaVuSans-44" x="449.142578"/>
      <use xlink:href="#DejaVuSans-61" x="526.144531"/>
      <use xlink:href="#DejaVuSans-76" x="587.423828"/>
      <use xlink:href="#DejaVuSans-69" x="646.603516"/>
      <use xlink:href="#DejaVuSans-73" x="674.386719"/>
     </g>
    </g>
   </g>
   <g id="text_5">
    <g id="patch_6">
     <path d="M 235.868463 102.469002 
L 310.526276 102.469002 
L 310.526276 85.83869 
L 235.868463 85.83869 
z
" clip-path="url(#pc6ecb935b6)" style="fill: #ffffff; opacity: 0.7; stroke: #000000; stroke-linejoin: miter"/>
    </g>
    <g clip-path="url(#pc6ecb935b6)">
     <!-- Conrad Vernon -->
     <g transform="translate(239.828463 96.637284)scale(0.09 -0.09)">
      <defs>
       <path id="DejaVuSans-64" d="M 2906 2969 
L 2906 4863 
L 3481 4863 
L 3481 0 
L 2906 0 
L 2906 525 
Q 2725 213 2448 61 
Q 2172 -91 1784 -91 
Q 1150 -91 751 415 
Q 353 922 353 1747 
Q 353 2572 751 3078 
Q 1150 3584 1784 3584 
Q 2172 3584 2448 3432 
Q 2725 3281 2906 2969 
z
M 947 1747 
Q 947 1113 1208 752 
Q 1469 391 1925 391 
Q 2381 391 2643 752 
Q 2906 1113 2906 1747 
Q 2906 2381 2643 2742 
Q 2381 3103 1925 3103 
Q 1469 3103 1208 2742 
Q 947 2381 947 1747 
z
" transform="scale(0.015625)"/>
       <path id="DejaVuSans-56" d="M 1831 0 
L 50 4666 
L 709 4666 
L 2188 738 
L 3669 4666 
L 4325 4666 
L 2547 0 
L 1831 0 
z
" transform="scale(0.015625)"/>
      </defs>
      <use xlink:href="#DejaVuSans-43"/>
      <use xlink:href="#DejaVuSans-6f" x="69.824219"/>
      <use xlink:href="#DejaVuSans-6e" x="131.005859"/>
      <use xlink:href="#DejaVuSans-72" x="194.384766"/>
      <use xlink:href="#DejaVuSans-61" x="235.498047"/>
      <use xlink:href="#DejaVuSans-64" x="296.777344"/>
      <use xlink:href="#DejaVuSans-20" x="360.253906"/>
      <use xlink:href="#DejaVuSans-56" x="392.041016"/>
      <use xlink:href="#DejaVuSans-65" x="452.699219"/>
      <use xlink:href="#DejaVuSans-72" x="514.222656"/>
      <use xlink:href="#DejaVuSans-6e" x="553.585938"/>
      <use xlink:href="#DejaVuSans-6f" x="616.964844"/>
      <use xlink:href="#DejaVuSans-6e" x="678.146484"/>
     </g>
    </g>
   </g>
   <g id="text_6">
    <g id="patch_7">
     <path d="M 158.94886 127.514763 
L 225.34636 127.514763 
L 225.34636 110.88445 
L 158.94886 110.88445 
z
" clip-path="url(#pc6ecb935b6)" style="fill: #ffffff; opacity: 0.7; stroke: #000000; stroke-linejoin: miter"/>
    </g>
    <g clip-path="url(#pc6ecb935b6)">
     <!-- Carla Gugino -->
     <g transform="translate(162.90886 121.683044)scale(0.09 -0.09)">
      <defs>
       <path id="DejaVuSans-47" d="M 3809 666 
L 3809 1919 
L 2778 1919 
L 2778 2438 
L 4434 2438 
L 4434 434 
Q 4069 175 3628 42 
Q 3188 -91 2688 -91 
Q 1594 -91 976 548 
Q 359 1188 359 2328 
Q 359 3472 976 4111 
Q 1594 4750 2688 4750 
Q 3144 4750 3555 4637 
Q 3966 4525 4313 4306 
L 4313 3634 
Q 3963 3931 3569 4081 
Q 3175 4231 2741 4231 
Q 1884 4231 1454 3753 
Q 1025 3275 1025 2328 
Q 1025 1384 1454 906 
Q 1884 428 2741 428 
Q 3075 428 3337 486 
Q 3600 544 3809 666 
z
" transform="scale(0.015625)"/>
      </defs>
      <use xlink:href="#DejaVuSans-43"/>
      <use xlink:href="#DejaVuSans-61" x="69.824219"/>
      <use xlink:href="#DejaVuSans-72" x="131.103516"/>
      <use xlink:href="#DejaVuSans-6c" x="172.216797"/>
      <use xlink:href="#DejaVuSans-61" x="200"/>
      <use xlink:href="#DejaVuSans-20" x="261.279297"/>
      <use xlink:href="#DejaVuSans-47" x="293.066406"/>
      <use xlink:href="#DejaVuSans-75" x="370.556641"/>
      <use xlink:href="#DejaVuSans-67" x="433.935547"/>
      <use xlink:href="#DejaVuSans-69" x="497.412109"/>
      <use xlink:href="#DejaVuSans-6e" x="525.195312"/>
      <use xlink:href="#DejaVuSans-6f" x="588.574219"/>
     </g>
    </g>
   </g>
   <g id="text_7">
    <g id="patch_8">
     <path d="M 93.975708 181.747637 
L 163.656802 181.747637 
L 163.656802 165.117324 
L 93.975708 165.117324 
z
" clip-path="url(#pc6ecb935b6)" style="fill: #ffffff; opacity: 0.7; stroke: #000000; stroke-linejoin: miter"/>
    </g>
    <g clip-path="url(#pc6ecb935b6)">
     <!-- Cheech Marin -->
     <g transform="translate(97.935708 175.915918)scale(0.09 -0.09)">
      <defs>
       <path id="DejaVuSans-4d" d="M 628 4666 
L 1569 4666 
L 2759 1491 
L 3956 4666 
L 4897 4666 
L 4897 0 
L 4281 0 
L 4281 4097 
L 3078 897 
L 2444 897 
L 1241 4097 
L 1241 0 
L 628 0 
L 628 4666 
z
" transform="scale(0.015625)"/>
      </defs>
      <use xlink:href="#DejaVuSans-43"/>
      <use xlink:href="#DejaVuSans-68" x="69.824219"/>
      <use xlink:href="#DejaVuSans-65" x="133.203125"/>
      <use xlink:href="#DejaVuSans-65" x="194.726562"/>
      <use xlink:href="#DejaVuSans-63" x="256.25"/>
      <use xlink:href="#DejaVuSans-68" x="311.230469"/>
      <use xlink:href="#DejaVuSans-20" x="374.609375"/>
      <use xlink:href="#DejaVuSans-4d" x="406.396484"/>
      <use xlink:href="#DejaVuSans-61" x="492.675781"/>
      <use xlink:href="#DejaVuSans-72" x="553.955078"/>
      <use xlink:href="#DejaVuSans-69" x="595.068359"/>
      <use xlink:href="#DejaVuSans-6e" x="622.851562"/>
     </g>
    </g>
   </g>
   <g id="text_8">
    <g id="patch_9">
     <path d="M 65.699784 255.790292 
L 122.607909 255.790292 
L 122.607909 239.159979 
L 65.699784 239.159979 
z
" clip-path="url(#pc6ecb935b6)" style="fill: #ffffff; opacity: 0.7; stroke: #000000; stroke-linejoin: miter"/>
    </g>
    <g clip-path="url(#pc6ecb935b6)">
     <!-- Tom Hanks -->
     <g transform="translate(69.659784 249.958573)scale(0.09 -0.09)">
      <defs>
       <path id="DejaVuSans-54" d="M -19 4666 
L 3928 4666 
L 3928 4134 
L 2272 4134 
L 2272 0 
L 1638 0 
L 1638 4134 
L -19 4134 
L -19 4666 
z
" transform="scale(0.015625)"/>
       <path id="DejaVuSans-48" d="M 628 4666 
L 1259 4666 
L 1259 2753 
L 3553 2753 
L 3553 4666 
L 4184 4666 
L 4184 0 
L 3553 0 
L 3553 2222 
L 1259 2222 
L 1259 0 
L 628 0 
L 628 4666 
z
" transform="scale(0.015625)"/>
      </defs>
      <use xlink:href="#DejaVuSans-54"/>
      <use xlink:href="#DejaVuSans-6f" x="44.083984"/>
      <use xlink:href="#DejaVuSans-6d" x="105.265625"/>
      <use xlink:href="#DejaVuSans-20" x="202.677734"/>
      <use xlink:href="#DejaVuSans-48" x="234.464844"/>
      <use xlink:href="#DejaVuSans-61" x="309.660156"/>
      <use xlink:href="#DejaVuSans-6e" x="370.939453"/>
      <use xlink:href="#DejaVuSans-6b" x="434.318359"/>
      <use xlink:href="#DejaVuSans-73" x="492.228516"/>
     </g>
    </g>
   </g>
   <g id="text_9">
    <g id="patch_10">
     <path d="M 69.322999 336.840056 
L 118.984718 336.840056 
L 118.984718 320.209743 
L 69.322999 320.209743 
z
" clip-path="url(#pc6ecb935b6)" style="fill: #ffffff; opacity: 0.7; stroke: #000000; stroke-linejoin: miter"/>
    </g>
    <g clip-path="url(#pc6ecb935b6)">
     <!-- Tim Allen -->
     <g transform="translate(73.282999 331.008337)scale(0.09 -0.09)">
      <defs>
       <path id="DejaVuSans-41" d="M 2188 4044 
L 1331 1722 
L 3047 1722 
L 2188 4044 
z
M 1831 4666 
L 2547 4666 
L 4325 0 
L 3669 0 
L 3244 1197 
L 1141 1197 
L 716 0 
L 50 0 
L 1831 4666 
z
" transform="scale(0.015625)"/>
      </defs>
      <use xlink:href="#DejaVuSans-54"/>
      <use xlink:href="#DejaVuSans-69" x="57.958984"/>
      <use xlink:href="#DejaVuSans-6d" x="85.742188"/>
      <use xlink:href="#DejaVuSans-20" x="183.154297"/>
      <use xlink:href="#DejaVuSans-41" x="214.941406"/>
      <use xlink:href="#DejaVuSans-6c" x="283.349609"/>
      <use xlink:href="#DejaVuSans-6c" x="311.132812"/>
      <use xlink:href="#DejaVuSans-65" x="338.916016"/>
      <use xlink:href="#DejaVuSans-6e" x="400.439453"/>
     </g>
    </g>
   </g>
   <g id="text_10">
    <g id="patch_11">
     <path d="M 93.893454 410.882687 
L 163.739079 410.882687 
L 163.739079 394.252375 
L 93.893454 394.252375 
z
" clip-path="url(#pc6ecb935b6)" style="fill: #ffffff; opacity: 0.7; stroke: #000000; stroke-linejoin: miter"/>
    </g>
    <g clip-path="url(#pc6ecb935b6)">
     <!-- Eddie Murphy -->
     <g transform="translate(97.853454 405.050968)scale(0.09 -0.09)">
      <defs>
       <path id="DejaVuSans-45" d="M 628 4666 
L 3578 4666 
L 3578 4134 
L 1259 4134 
L 1259 2753 
L 3481 2753 
L 3481 2222 
L 1259 2222 
L 1259 531 
L 3634 531 
L 3634 0 
L 628 0 
L 628 4666 
z
" transform="scale(0.015625)"/>
       <path id="DejaVuSans-79" d="M 2059 -325 
Q 1816 -950 1584 -1140 
Q 1353 -1331 966 -1331 
L 506 -1331 
L 506 -850 
L 844 -850 
Q 1081 -850 1212 -737 
Q 1344 -625 1503 -206 
L 1606 56 
L 191 3500 
L 800 3500 
L 1894 763 
L 2988 3500 
L 3597 3500 
L 2059 -325 
z
" transform="scale(0.015625)"/>
      </defs>
      <use xlink:href="#DejaVuSans-45"/>
      <use xlink:href="#DejaVuSans-64" x="63.183594"/>
      <use xlink:href="#DejaVuSans-64" x="126.660156"/>
      <use xlink:href="#DejaVuSans-69" x="190.136719"/>
      <use xlink:href="#DejaVuSans-65" x="217.919922"/>
      <use xlink:href="#DejaVuSans-20" x="279.443359"/>
      <use xlink:href="#DejaVuSans-4d" x="311.230469"/>
      <use xlink:href="#DejaVuSans-75" x="397.509766"/>
      <use xlink:href="#DejaVuSans-72" x="460.888672"/>
      <use xlink:href="#DejaVuSans-70" x="502.001953"/>
      <use xlink:href="#DejaVuSans-68" x="565.478516"/>
      <use xlink:href="#DejaVuSans-79" x="628.857422"/>
     </g>
    </g>
   </g>
   <g id="text_11">
    <g id="patch_12">
     <path d="M 157.369671 465.115561 
L 226.925609 465.115561 
L 226.925609 448.485249 
L 157.369671 448.485249 
z
" clip-path="url(#pc6ecb935b6)" style="fill: #ffffff; opacity: 0.7; stroke: #000000; stroke-linejoin: miter"/>
    </g>
    <g clip-path="url(#pc6ecb935b6)">
     <!-- Alan Rickman -->
     <g transform="translate(161.329671 459.283843)scale(0.09 -0.09)">
      <defs>
       <path id="DejaVuSans-52" d="M 2841 2188 
Q 3044 2119 3236 1894 
Q 3428 1669 3622 1275 
L 4263 0 
L 3584 0 
L 2988 1197 
Q 2756 1666 2539 1819 
Q 2322 1972 1947 1972 
L 1259 1972 
L 1259 0 
L 628 0 
L 628 4666 
L 2053 4666 
Q 2853 4666 3247 4331 
Q 3641 3997 3641 3322 
Q 3641 2881 3436 2590 
Q 3231 2300 2841 2188 
z
M 1259 4147 
L 1259 2491 
L 2053 2491 
Q 2509 2491 2742 2702 
Q 2975 2913 2975 3322 
Q 2975 3731 2742 3939 
Q 2509 4147 2053 4147 
L 1259 4147 
z
" transform="scale(0.015625)"/>
      </defs>
      <use xlink:href="#DejaVuSans-41"/>
      <use xlink:href="#DejaVuSans-6c" x="68.408203"/>
      <use xlink:href="#DejaVuSans-61" x="96.191406"/>
      <use xlink:href="#DejaVuSans-6e" x="157.470703"/>
      <use xlink:href="#DejaVuSans-20" x="220.849609"/>
      <use xlink:href="#DejaVuSans-52" x="252.636719"/>
      <use xlink:href="#DejaVuSans-69" x="322.119141"/>
      <use xlink:href="#DejaVuSans-63" x="349.902344"/>
      <use xlink:href="#DejaVuSans-6b" x="404.882812"/>
      <use xlink:href="#DejaVuSans-6d" x="462.792969"/>
      <use xlink:href="#DejaVuSans-61" x="560.205078"/>
      <use xlink:href="#DejaVuSans-6e" x="621.484375"/>
     </g>
    </g>
   </g>
   <g id="text_12">
    <g id="patch_13">
     <path d="M 239.407328 490.16131 
L 306.987484 490.16131 
L 306.987484 473.530998 
L 239.407328 473.530998 
z
" clip-path="url(#pc6ecb935b6)" style="fill: #ffffff; opacity: 0.7; stroke: #000000; stroke-linejoin: miter"/>
    </g>
    <g clip-path="url(#pc6ecb935b6)">
     <!-- Gary Oldman -->
     <g transform="translate(243.367328 484.329591)scale(0.09 -0.09)">
      <defs>
       <path id="DejaVuSans-4f" d="M 2522 4238 
Q 1834 4238 1429 3725 
Q 1025 3213 1025 2328 
Q 1025 1447 1429 934 
Q 1834 422 2522 422 
Q 3209 422 3611 934 
Q 4013 1447 4013 2328 
Q 4013 3213 3611 3725 
Q 3209 4238 2522 4238 
z
M 2522 4750 
Q 3503 4750 4090 4092 
Q 4678 3434 4678 2328 
Q 4678 1225 4090 567 
Q 3503 -91 2522 -91 
Q 1538 -91 948 565 
Q 359 1222 359 2328 
Q 359 3434 948 4092 
Q 1538 4750 2522 4750 
z
" transform="scale(0.015625)"/>
      </defs>
      <use xlink:href="#DejaVuSans-47"/>
      <use xlink:href="#DejaVuSans-61" x="77.490234"/>
      <use xlink:href="#DejaVuSans-72" x="138.769531"/>
      <use xlink:href="#DejaVuSans-79" x="179.882812"/>
      <use xlink:href="#DejaVuSans-20" x="239.0625"/>
      <use xlink:href="#DejaVuSans-4f" x="270.849609"/>
      <use xlink:href="#DejaVuSans-6c" x="349.560547"/>
      <use xlink:href="#DejaVuSans-64" x="377.34375"/>
      <use xlink:href="#DejaVuSans-6d" x="440.820312"/>
      <use xlink:href="#DejaVuSans-61" x="538.232422"/>
      <use xlink:href="#DejaVuSans-6e" x="599.511719"/>
     </g>
    </g>
   </g>
   <g id="text_13">
    <g id="patch_14">
     <path d="M 322.631237 481.689292 
L 393.271393 481.689292 
L 393.271393 465.05898 
L 322.631237 465.05898 
z
" clip-path="url(#pc6ecb935b6)" style="fill: #ffffff; opacity: 0.7; stroke: #000000; stroke-linejoin: miter"/>
    </g>
    <g clip-path="url(#pc6ecb935b6)">
     <!-- Mark Williams -->
     <g transform="translate(326.591237 475.857573)scale(0.09 -0.09)">
      <use xlink:href="#DejaVuSans-4d"/>
      <use xlink:href="#DejaVuSans-61" x="86.279297"/>
      <use xlink:href="#DejaVuSans-72" x="147.558594"/>
      <use xlink:href="#DejaVuSans-6b" x="188.671875"/>
      <use xlink:href="#DejaVuSans-20" x="246.582031"/>
      <use xlink:href="#DejaVuSans-57" x="278.369141"/>
      <use xlink:href="#DejaVuSans-69" x="374.996094"/>
      <use xlink:href="#DejaVuSans-6c" x="402.779297"/>
      <use xlink:href="#DejaVuSans-6c" x="430.5625"/>
      <use xlink:href="#DejaVuSans-69" x="458.345703"/>
      <use xlink:href="#DejaVuSans-61" x="486.128906"/>
      <use xlink:href="#DejaVuSans-6d" x="547.408203"/>
      <use xlink:href="#DejaVuSans-73" x="644.820312"/>
     </g>
    </g>
   </g>
   <g id="text_14">
    <g id="patch_15">
     <path d="M 399.493877 441.164393 
L 464.01544 441.164393 
L 464.01544 424.53408 
L 399.493877 424.53408 
z
" clip-path="url(#pc6ecb935b6)" style="fill: #ffffff; opacity: 0.7; stroke: #000000; stroke-linejoin: miter"/>
    </g>
    <g clip-path="url(#pc6ecb935b6)">
     <!-- Ray Romano -->
     <g transform="translate(403.453877 435.332674)scale(0.09 -0.09)">
      <use xlink:href="#DejaVuSans-52"/>
      <use xlink:href="#DejaVuSans-61" x="67.232422"/>
      <use xlink:href="#DejaVuSans-79" x="128.511719"/>
      <use xlink:href="#DejaVuSans-20" x="187.691406"/>
      <use xlink:href="#DejaVuSans-52" x="219.478516"/>
      <use xlink:href="#DejaVuSans-6f" x="284.460938"/>
      <use xlink:href="#DejaVuSans-6d" x="345.642578"/>
      <use xlink:href="#DejaVuSans-61" x="443.054688"/>
      <use xlink:href="#DejaVuSans-6e" x="504.333984"/>
      <use xlink:href="#DejaVuSans-6f" x="567.712891"/>
     </g>
    </g>
   </g>
   <g id="text_15">
    <g id="patch_16">
     <path d="M 446.976779 375.593756 
L 516.715529 375.593756 
L 516.715529 358.963443 
L 446.976779 358.963443 
z
" clip-path="url(#pc6ecb935b6)" style="fill: #ffffff; opacity: 0.7; stroke: #000000; stroke-linejoin: miter"/>
    </g>
    <g clip-path="url(#pc6ecb935b6)">
     <!-- Maggie Smith -->
     <g transform="translate(450.936779 369.762037)scale(0.09 -0.09)">
      <use xlink:href="#DejaVuSans-4d"/>
      <use xlink:href="#DejaVuSans-61" x="86.279297"/>
      <use xlink:href="#DejaVuSans-67" x="147.558594"/>
      <use xlink:href="#DejaVuSans-67" x="211.035156"/>
      <use xlink:href="#DejaVuSans-69" x="274.511719"/>
      <use xlink:href="#DejaVuSans-65" x="302.294922"/>
      <use xlink:href="#DejaVuSans-20" x="363.818359"/>
      <use xlink:href="#DejaVuSans-53" x="395.605469"/>
      <use xlink:href="#DejaVuSans-6d" x="459.082031"/>
      <use xlink:href="#DejaVuSans-69" x="556.494141"/>
      <use xlink:href="#DejaVuSans-74" x="584.277344"/>
      <use xlink:href="#DejaVuSans-68" x="623.486328"/>
     </g>
    </g>
   </g>
   <g id="text_16">
    <!-- Impactful actors for Family Film genre -->
    <g transform="translate(174.460312 4.8)scale(0.12 -0.12)">
     <defs>
      <path id="DejaVuSans-49" d="M 628 4666 
L 1259 4666 
L 1259 0 
L 628 0 
L 628 4666 
z
" transform="scale(0.015625)"/>
      <path id="DejaVuSans-66" d="M 2375 4863 
L 2375 4384 
L 1825 4384 
Q 1516 4384 1395 4259 
Q 1275 4134 1275 3809 
L 1275 3500 
L 2222 3500 
L 2222 3053 
L 1275 3053 
L 1275 0 
L 697 0 
L 697 3053 
L 147 3053 
L 147 3500 
L 697 3500 
L 697 3744 
Q 697 4328 969 4595 
Q 1241 4863 1831 4863 
L 2375 4863 
z
" transform="scale(0.015625)"/>
      <path id="DejaVuSans-46" d="M 628 4666 
L 3309 4666 
L 3309 4134 
L 1259 4134 
L 1259 2759 
L 3109 2759 
L 3109 2228 
L 1259 2228 
L 1259 0 
L 628 0 
L 628 4666 
z
" transform="scale(0.015625)"/>
     </defs>
     <use xlink:href="#DejaVuSans-49"/>
     <use xlink:href="#DejaVuSans-6d" x="29.492188"/>
     <use xlink:href="#DejaVuSans-70" x="126.904297"/>
     <use xlink:href="#DejaVuSans-61" x="190.380859"/>
     <use xlink:href="#DejaVuSans-63" x="251.660156"/>
     <use xlink:href="#DejaVuSans-74" x="306.640625"/>
     <use xlink:href="#DejaVuSans-66" x="345.849609"/>
     <use xlink:href="#DejaVuSans-75" x="381.054688"/>
     <use xlink:href="#DejaVuSans-6c" x="444.433594"/>
     <use xlink:href="#DejaVuSans-20" x="472.216797"/>
     <use xlink:href="#DejaVuSans-61" x="504.003906"/>
     <use xlink:href="#DejaVuSans-63" x="565.283203"/>
     <use xlink:href="#DejaVuSans-74" x="620.263672"/>
     <use xlink:href="#DejaVuSans-6f" x="659.472656"/>
     <use xlink:href="#DejaVuSans-72" x="720.654297"/>
     <use xlink:href="#DejaVuSans-73" x="761.767578"/>
     <use xlink:href="#DejaVuSans-20" x="813.867188"/>
     <use xlink:href="#DejaVuSans-66" x="845.654297"/>
     <use xlink:href="#DejaVuSans-6f" x="880.859375"/>
     <use xlink:href="#DejaVuSans-72" x="942.041016"/>
     <use xlink:href="#DejaVuSans-20" x="983.154297"/>
     <use xlink:href="#DejaVuSans-46" x="1014.941406"/>
     <use xlink:href="#DejaVuSans-61" x="1063.335938"/>
     <use xlink:href="#DejaVuSans-6d" x="1124.615234"/>
     <use xlink:href="#DejaVuSans-69" x="1222.027344"/>
     <use xlink:href="#DejaVuSans-6c" x="1249.810547"/>
     <use xlink:href="#DejaVuSans-79" x="1277.59375"/>
     <use xlink:href="#DejaVuSans-20" x="1336.773438"/>
     <use xlink:href="#DejaVuSans-46" x="1368.560547"/>
     <use xlink:href="#DejaVuSans-69" x="1418.830078"/>
     <use xlink:href="#DejaVuSans-6c" x="1446.613281"/>
     <use xlink:href="#DejaVuSans-6d" x="1474.396484"/>
     <use xlink:href="#DejaVuSans-20" x="1571.808594"/>
     <use xlink:href="#DejaVuSans-67" x="1603.595703"/>
     <use xlink:href="#DejaVuSans-65" x="1667.072266"/>
     <use xlink:href="#DejaVuSans-6e" x="1728.595703"/>
     <use xlink:href="#DejaVuSans-72" x="1791.974609"/>
     <use xlink:href="#DejaVuSans-65" x="1830.837891"/>
    </g>
   </g>
  </g>
 </g>
 <defs>
  <clipPath id="pc6ecb935b6">
   <rect x="10.8" y="10.8" width="554.4" height="554.4"/>
  </clipPath>
 </defs>
</svg>
