<?xml version="1.0" encoding="utf-8" standalone="no"?>
<!DOCTYPE svg PUBLIC "-//W3C//DTD SVG 1.1//EN"
  "http://www.w3.org/Graphics/SVG/1.1/DTD/svg11.dtd">
<svg xmlns:xlink="http://www.w3.org/1999/xlink" width="568.8pt" height="583.918125pt" viewBox="0 0 568.8 583.918125" xmlns="http://www.w3.org/2000/svg" version="1.1">
 <metadata>
  <rdf:RDF xmlns:dc="http://purl.org/dc/elements/1.1/" xmlns:cc="http://creativecommons.org/ns#" xmlns:rdf="http://www.w3.org/1999/02/22-rdf-syntax-ns#">
   <cc:Work>
    <dc:type rdf:resource="http://purl.org/dc/dcmitype/StillImage"/>
    <dc:date>2022-12-23T17:30:01.717199</dc:date>
    <dc:format>image/svg+xml</dc:format>
    <dc:creator>
     <cc:Agent>
      <dc:title>Matplotlib v3.5.2, https://matplotlib.org/</dc:title>
     </cc:Agent>
    </dc:creator>
   </cc:Work>
  </rdf:RDF>
 </metadata>
 <defs>
  <style type="text/css">*{stroke-linejoin: round; stroke-linecap: butt}</style>
 </defs>
 <g id="figure_1">
  <g id="patch_1">
   <path d="M 0 583.918125 
L 568.8 583.918125 
L 568.8 0 
L 0 0 
z
" style="fill: #ffffff"/>
  </g>
  <g id="axes_1">
   <g id="PathCollection_1">
    <path d="M 497.630769 326.904253 
C 504.893655 326.904253 511.86005 324.018678 516.995686 318.883042 
C 522.131322 313.747406 525.016897 306.781011 525.016897 299.518125 
C 525.016897 292.255239 522.131322 285.288844 516.995686 280.153208 
C 511.86005 275.017572 504.893655 272.131997 497.630769 272.131997 
C 490.367883 272.131997 483.401488 275.017572 478.265852 280.153208 
C 473.130217 285.288844 470.244641 292.255239 470.244641 299.518125 
C 470.244641 306.781011 473.130217 313.747406 478.265852 318.883042 
C 483.401488 324.018678 490.367883 326.904253 497.630769 326.904253 
z
" clip-path="url(#pbafbaabe63)" style="fill: #c70039; fill-opacity: 0.99; stroke: #c70039; stroke-opacity: 0.99"/>
    <path d="M 478.992348 236.691917 
C 485.458075 236.691917 491.659853 234.123057 496.231812 229.551098 
C 500.803771 224.979138 503.372632 218.77736 503.372632 212.311633 
C 503.372632 205.845907 500.803771 199.644129 496.231812 195.072169 
C 491.659853 190.50021 485.458075 187.93135 478.992348 187.93135 
C 472.526621 187.93135 466.324843 190.50021 461.752884 195.072169 
C 457.180924 199.644129 454.612064 205.845907 454.612064 212.311633 
C 454.612064 218.77736 457.180924 224.979138 461.752884 229.551098 
C 466.324843 234.123057 472.526621 236.691917 478.992348 236.691917 
z
" clip-path="url(#pbafbaabe63)" style="fill: #c70039; fill-opacity: 0.99; stroke: #c70039; stroke-opacity: 0.99"/>
    <path d="M 426.29985 163.322491 
C 432.436269 163.322491 438.322182 160.884466 442.661286 156.545362 
C 447.000389 152.206259 449.438414 146.320346 449.438414 140.183927 
C 449.438414 134.047508 447.000389 128.161594 442.661286 123.822491 
C 438.322182 119.483387 432.436269 117.045362 426.29985 117.045362 
C 420.163431 117.045362 414.277518 119.483387 409.938414 123.822491 
C 405.599311 128.161594 403.161285 134.047508 403.161285 140.183927 
C 403.161285 146.320346 405.599311 152.206259 409.938414 156.545362 
C 414.277518 160.884466 420.163431 163.322491 426.29985 163.322491 
z
" clip-path="url(#pbafbaabe63)" style="fill: #c70039; fill-opacity: 0.99; stroke: #c70039; stroke-opacity: 0.99"/>
    <path d="M 348.664291 118.659092 
C 354.777893 118.659092 360.641921 116.230132 364.964891 111.907163 
C 369.287861 107.584193 371.716821 101.720165 371.716821 95.606563 
C 371.716821 89.49296 369.287861 83.628932 364.964891 79.305963 
C 360.641921 74.982993 354.777893 72.554033 348.664291 72.554033 
C 342.550689 72.554033 336.686661 74.982993 332.363691 79.305963 
C 328.040722 83.628932 325.611762 89.49296 325.611762 95.606563 
C 325.611762 101.720165 328.040722 107.584193 332.363691 111.907163 
C 336.686661 116.230132 342.550689 118.659092 348.664291 118.659092 
z
" clip-path="url(#pbafbaabe63)" style="fill: #c70039; fill-opacity: 0.99; stroke: #c70039; stroke-opacity: 0.99"/>
    <path d="M 259.509549 108.459637 
C 265.389706 108.459637 271.02982 106.123426 275.187719 101.965526 
C 279.345619 97.807627 281.68183 92.167514 281.68183 86.287356 
C 281.68183 80.407198 279.345619 74.767085 275.187719 70.609185 
C 271.02982 66.451286 265.389706 64.115074 259.509549 64.115074 
C 253.629391 64.115074 247.989277 66.451286 243.831378 70.609185 
C 239.673478 74.767085 237.337267 80.407198 237.337267 86.287356 
C 237.337267 92.167514 239.673478 97.807627 243.831378 101.965526 
C 247.989277 106.123426 253.629391 108.459637 259.509549 108.459637 
z
" clip-path="url(#pbafbaabe63)" style="fill: #c70039; fill-opacity: 0.99; stroke: #c70039; stroke-opacity: 0.99"/>
    <path d="M 174.251298 136.005807 
C 180.130351 136.005807 185.769404 133.670035 189.926522 129.512917 
C 194.083641 125.355799 196.419413 119.716745 196.419413 113.837692 
C 196.419413 107.958639 194.083641 102.319586 189.926522 98.162468 
C 185.769404 94.00535 180.130351 91.669577 174.251298 91.669577 
C 168.372245 91.669577 162.733192 94.00535 158.576074 98.162468 
C 154.418956 102.319586 152.083183 107.958639 152.083183 113.837692 
C 152.083183 119.716745 154.418956 125.355799 158.576074 129.512917 
C 162.733192 133.670035 168.372245 136.005807 174.251298 136.005807 
z
" clip-path="url(#pbafbaabe63)" style="fill: #c70039; fill-opacity: 0.99; stroke: #c70039; stroke-opacity: 0.99"/>
    <path d="M 107.631477 195.423904 
C 113.447394 195.423904 119.02589 193.113215 123.138364 189.000741 
C 127.250839 184.888266 129.561527 179.309771 129.561527 173.493854 
C 129.561527 167.677937 127.250839 162.099441 123.138364 157.986967 
C 119.02589 153.874492 113.447394 151.563804 107.631477 151.563804 
C 101.81556 151.563804 96.237065 153.874492 92.12459 157.986967 
C 88.012115 162.099441 85.701427 167.677937 85.701427 173.493854 
C 85.701427 179.309771 88.012115 184.888266 92.12459 189.000741 
C 96.237065 193.113215 101.81556 195.423904 107.631477 195.423904 
z
" clip-path="url(#pbafbaabe63)" style="fill: #c70039; fill-opacity: 0.99; stroke: #c70039; stroke-opacity: 0.99"/>
    <path d="M 71.169231 276.858263 
C 76.981817 276.858263 82.557117 274.548898 86.667236 270.438779 
C 90.777355 266.32866 93.08672 260.75336 93.08672 254.940774 
C 93.08672 249.128188 90.777355 243.552888 86.667236 239.442768 
C 82.557117 235.332649 76.981817 233.023284 71.169231 233.023284 
C 65.356645 233.023284 59.781344 235.332649 55.671225 239.442768 
C 51.561106 243.552888 49.251741 249.128188 49.251741 254.940774 
C 49.251741 260.75336 51.561106 266.32866 55.671225 270.438779 
C 59.781344 274.548898 65.356645 276.858263 71.169231 276.858263 
z
" clip-path="url(#pbafbaabe63)" style="fill: #c70039; fill-opacity: 0.99; stroke: #c70039; stroke-opacity: 0.99"/>
    <path d="M 71.169244 365.557416 
C 76.861006 365.557416 82.320415 363.296054 86.345099 359.27137 
C 90.369783 355.246686 92.631145 349.787277 92.631145 344.095514 
C 92.631145 338.403752 90.369783 332.944343 86.345099 328.919659 
C 82.320415 324.894975 76.861006 322.633613 71.169244 322.633613 
C 65.477481 322.633613 60.018072 324.894975 55.993388 328.919659 
C 51.968704 332.944343 49.707342 338.403752 49.707342 344.095514 
C 49.707342 349.787277 51.968704 355.246686 55.993388 359.27137 
C 60.018072 363.296054 65.477481 365.557416 71.169244 365.557416 
z
" clip-path="url(#pbafbaabe63)" style="fill: #c70039; fill-opacity: 0.99; stroke: #c70039; stroke-opacity: 0.99"/>
    <path d="M 107.63149 446.462988 
C 113.179692 446.462988 118.501402 444.258664 122.424573 440.335492 
C 126.347745 436.412321 128.552069 431.090611 128.552069 425.542409 
C 128.552069 419.994207 126.347745 414.672497 122.424573 410.749326 
C 118.501402 406.826154 113.179692 404.62183 107.63149 404.62183 
C 102.083287 404.62183 96.761578 406.826154 92.838407 410.749326 
C 88.915235 414.672497 86.710911 419.994207 86.710911 425.542409 
C 86.710911 431.090611 88.915235 436.412321 92.838407 440.335492 
C 96.761578 444.258664 102.083287 446.462988 107.63149 446.462988 
z
" clip-path="url(#pbafbaabe63)" style="fill: #c70039; fill-opacity: 0.99; stroke: #c70039; stroke-opacity: 0.99"/>
    <path d="M 174.25133 505.358543 
C 179.597817 505.358543 184.726046 503.234361 188.506584 499.453824 
C 192.287121 495.673287 194.411303 490.545058 194.411303 485.198571 
C 194.411303 479.852083 192.287121 474.723854 188.506584 470.943317 
C 184.726046 467.16278 179.597817 465.038598 174.25133 465.038598 
C 168.904843 465.038598 163.776614 467.16278 159.996077 470.943317 
C 156.215539 474.723854 154.091357 479.852083 154.091357 485.198571 
C 154.091357 490.545058 156.215539 495.673287 159.996077 499.453824 
C 163.776614 503.234361 168.904843 505.358543 174.25133 505.358543 
z
" clip-path="url(#pbafbaabe63)" style="fill: #c70039; fill-opacity: 0.99; stroke: #c70039; stroke-opacity: 0.99"/>
    <path d="M 259.509587 532.771512 
C 264.819647 532.771512 269.912936 530.661802 273.667716 526.907023 
C 277.422495 523.152243 279.532205 518.058954 279.532205 512.748894 
C 279.532205 507.438834 277.422495 502.345545 273.667716 498.590766 
C 269.912936 494.835986 264.819647 492.726277 259.509587 492.726277 
C 254.199527 492.726277 249.106238 494.835986 245.351459 498.590766 
C 241.596679 502.345545 239.48697 507.438834 239.48697 512.748894 
C 239.48697 518.058954 241.596679 523.152243 245.351459 526.907023 
C 249.106238 530.661802 254.199527 532.771512 259.509587 532.771512 
z
" clip-path="url(#pbafbaabe63)" style="fill: #c70039; fill-opacity: 0.99; stroke: #c70039; stroke-opacity: 0.99"/>
    <path d="M 348.664323 523.314039 
C 353.937719 523.314039 358.995839 521.218897 362.724692 517.490044 
C 366.453546 513.76119 368.548688 508.70307 368.548688 503.429675 
C 368.548688 498.156279 366.453546 493.098159 362.724692 489.369305 
C 358.995839 485.640452 353.937719 483.54531 348.664323 483.54531 
C 343.390928 483.54531 338.332808 485.640452 334.603954 489.369305 
C 330.875101 493.098159 328.779959 498.156279 328.779959 503.429675 
C 328.779959 508.70307 330.875101 513.76119 334.603954 517.490044 
C 338.332808 521.218897 343.390928 523.314039 348.664323 523.314039 
z
" clip-path="url(#pbafbaabe63)" style="fill: #c70039; fill-opacity: 0.99; stroke: #c70039; stroke-opacity: 0.99"/>
    <path d="M 426.299888 478.239298 
C 431.441384 478.239298 436.37299 476.19656 440.008577 472.560974 
C 443.644164 468.925387 445.686902 463.993781 445.686902 458.852285 
C 445.686902 453.710789 443.644164 448.779183 440.008577 445.143596 
C 436.37299 441.50801 431.441384 439.465272 426.299888 439.465272 
C 421.158392 439.465272 416.226786 441.50801 412.5912 445.143596 
C 408.955613 448.779183 406.912875 453.710789 406.912875 458.852285 
C 406.912875 463.993781 408.955613 468.925387 412.5912 472.560974 
C 416.226786 476.19656 421.158392 478.239298 426.299888 478.239298 
z
" clip-path="url(#pbafbaabe63)" style="fill: #c70039; fill-opacity: 0.99; stroke: #c70039; stroke-opacity: 0.99"/>
    <path d="M 478.992374 406.089501 
C 484.128009 406.089501 489.053994 404.049092 492.685437 400.417649 
C 496.31688 396.786206 498.35729 391.860221 498.35729 386.724585 
C 498.35729 381.588949 496.31688 376.662964 492.685437 373.031521 
C 489.053994 369.400078 484.128009 367.359668 478.992374 367.359668 
C 473.856738 367.359668 468.930753 369.400078 465.29931 373.031521 
C 461.667867 376.662964 459.627457 381.588949 459.627457 386.724585 
C 459.627457 391.860221 461.667867 396.786206 465.29931 400.417649 
C 468.930753 404.049092 473.856738 406.089501 478.992374 406.089501 
z
" clip-path="url(#pbafbaabe63)" style="fill: #c70039; fill-opacity: 0.99; stroke: #c70039; stroke-opacity: 0.99"/>
   </g>
   <g id="text_1">
    <g id="patch_2">
     <path d="M 460.540222 307.833281 
L 534.721316 307.833281 
L 534.721316 291.202969 
L 460.540222 291.202969 
z
" clip-path="url(#pbafbaabe63)" style="fill: #ffffff; opacity: 0.7; stroke: #000000; stroke-linejoin: miter"/>
    </g>
    <g clip-path="url(#pbafbaabe63)">
     <!-- Robert De Niro -->
     <g transform="translate(464.500222 302.001562)scale(0.09 -0.09)">
      <defs>
       <path id="DejaVuSans-52" d="M 2841 2188 
Q 3044 2119 3236 1894 
Q 3428 1669 3622 1275 
L 4263 0 
L 3584 0 
L 2988 1197 
Q 2756 1666 2539 1819 
Q 2322 1972 1947 1972 
L 1259 1972 
L 1259 0 
L 628 0 
L 628 4666 
L 2053 4666 
Q 2853 4666 3247 4331 
Q 3641 3997 3641 3322 
Q 3641 2881 3436 2590 
Q 3231 2300 2841 2188 
z
M 1259 4147 
L 1259 2491 
L 2053 2491 
Q 2509 2491 2742 2702 
Q 2975 2913 2975 3322 
Q 2975 3731 2742 3939 
Q 2509 4147 2053 4147 
L 1259 4147 
z
" transform="scale(0.015625)"/>
       <path id="DejaVuSans-6f" d="M 1959 3097 
Q 1497 3097 1228 2736 
Q 959 2375 959 1747 
Q 959 1119 1226 758 
Q 1494 397 1959 397 
Q 2419 397 2687 759 
Q 2956 1122 2956 1747 
Q 2956 2369 2687 2733 
Q 2419 3097 1959 3097 
z
M 1959 3584 
Q 2709 3584 3137 3096 
Q 3566 2609 3566 1747 
Q 3566 888 3137 398 
Q 2709 -91 1959 -91 
Q 1206 -91 779 398 
Q 353 888 353 1747 
Q 353 2609 779 3096 
Q 1206 3584 1959 3584 
z
" transform="scale(0.015625)"/>
       <path id="DejaVuSans-62" d="M 3116 1747 
Q 3116 2381 2855 2742 
Q 2594 3103 2138 3103 
Q 1681 3103 1420 2742 
Q 1159 2381 1159 1747 
Q 1159 1113 1420 752 
Q 1681 391 2138 391 
Q 2594 391 2855 752 
Q 3116 1113 3116 1747 
z
M 1159 2969 
Q 1341 3281 1617 3432 
Q 1894 3584 2278 3584 
Q 2916 3584 3314 3078 
Q 3713 2572 3713 1747 
Q 3713 922 3314 415 
Q 2916 -91 2278 -91 
Q 1894 -91 1617 61 
Q 1341 213 1159 525 
L 1159 0 
L 581 0 
L 581 4863 
L 1159 4863 
L 1159 2969 
z
" transform="scale(0.015625)"/>
       <path id="DejaVuSans-65" d="M 3597 1894 
L 3597 1613 
L 953 1613 
Q 991 1019 1311 708 
Q 1631 397 2203 397 
Q 2534 397 2845 478 
Q 3156 559 3463 722 
L 3463 178 
Q 3153 47 2828 -22 
Q 2503 -91 2169 -91 
Q 1331 -91 842 396 
Q 353 884 353 1716 
Q 353 2575 817 3079 
Q 1281 3584 2069 3584 
Q 2775 3584 3186 3129 
Q 3597 2675 3597 1894 
z
M 3022 2063 
Q 3016 2534 2758 2815 
Q 2500 3097 2075 3097 
Q 1594 3097 1305 2825 
Q 1016 2553 972 2059 
L 3022 2063 
z
" transform="scale(0.015625)"/>
       <path id="DejaVuSans-72" d="M 2631 2963 
Q 2534 3019 2420 3045 
Q 2306 3072 2169 3072 
Q 1681 3072 1420 2755 
Q 1159 2438 1159 1844 
L 1159 0 
L 581 0 
L 581 3500 
L 1159 3500 
L 1159 2956 
Q 1341 3275 1631 3429 
Q 1922 3584 2338 3584 
Q 2397 3584 2469 3576 
Q 2541 3569 2628 3553 
L 2631 2963 
z
" transform="scale(0.015625)"/>
       <path id="DejaVuSans-74" d="M 1172 4494 
L 1172 3500 
L 2356 3500 
L 2356 3053 
L 1172 3053 
L 1172 1153 
Q 1172 725 1289 603 
Q 1406 481 1766 481 
L 2356 481 
L 2356 0 
L 1766 0 
Q 1100 0 847 248 
Q 594 497 594 1153 
L 594 3053 
L 172 3053 
L 172 3500 
L 594 3500 
L 594 4494 
L 1172 4494 
z
" transform="scale(0.015625)"/>
       <path id="DejaVuSans-20" transform="scale(0.015625)"/>
       <path id="DejaVuSans-44" d="M 1259 4147 
L 1259 519 
L 2022 519 
Q 2988 519 3436 956 
Q 3884 1394 3884 2338 
Q 3884 3275 3436 3711 
Q 2988 4147 2022 4147 
L 1259 4147 
z
M 628 4666 
L 1925 4666 
Q 3281 4666 3915 4102 
Q 4550 3538 4550 2338 
Q 4550 1131 3912 565 
Q 3275 0 1925 0 
L 628 0 
L 628 4666 
z
" transform="scale(0.015625)"/>
       <path id="DejaVuSans-4e" d="M 628 4666 
L 1478 4666 
L 3547 763 
L 3547 4666 
L 4159 4666 
L 4159 0 
L 3309 0 
L 1241 3903 
L 1241 0 
L 628 0 
L 628 4666 
z
" transform="scale(0.015625)"/>
       <path id="DejaVuSans-69" d="M 603 3500 
L 1178 3500 
L 1178 0 
L 603 0 
L 603 3500 
z
M 603 4863 
L 1178 4863 
L 1178 4134 
L 603 4134 
L 603 4863 
z
" transform="scale(0.015625)"/>
      </defs>
      <use xlink:href="#DejaVuSans-52"/>
      <use xlink:href="#DejaVuSans-6f" x="64.982422"/>
      <use xlink:href="#DejaVuSans-62" x="126.164062"/>
      <use xlink:href="#DejaVuSans-65" x="189.640625"/>
      <use xlink:href="#DejaVuSans-72" x="251.164062"/>
      <use xlink:href="#DejaVuSans-74" x="292.277344"/>
      <use xlink:href="#DejaVuSans-20" x="331.486328"/>
      <use xlink:href="#DejaVuSans-44" x="363.273438"/>
      <use xlink:href="#DejaVuSans-65" x="440.275391"/>
      <use xlink:href="#DejaVuSans-20" x="501.798828"/>
      <use xlink:href="#DejaVuSans-4e" x="533.585938"/>
      <use xlink:href="#DejaVuSans-69" x="608.390625"/>
      <use xlink:href="#DejaVuSans-72" x="636.173828"/>
      <use xlink:href="#DejaVuSans-6f" x="675.037109"/>
     </g>
    </g>
   </g>
   <g id="text_2">
    <g id="patch_3">
     <path d="M 441.619848 220.62679 
L 516.364848 220.62679 
L 516.364848 203.996477 
L 441.619848 203.996477 
z
" clip-path="url(#pbafbaabe63)" style="fill: #ffffff; opacity: 0.7; stroke: #000000; stroke-linejoin: miter"/>
    </g>
    <g clip-path="url(#pbafbaabe63)">
     <!-- Steve Buscemi -->
     <g transform="translate(445.579848 214.795071)scale(0.09 -0.09)">
      <defs>
       <path id="DejaVuSans-53" d="M 3425 4513 
L 3425 3897 
Q 3066 4069 2747 4153 
Q 2428 4238 2131 4238 
Q 1616 4238 1336 4038 
Q 1056 3838 1056 3469 
Q 1056 3159 1242 3001 
Q 1428 2844 1947 2747 
L 2328 2669 
Q 3034 2534 3370 2195 
Q 3706 1856 3706 1288 
Q 3706 609 3251 259 
Q 2797 -91 1919 -91 
Q 1588 -91 1214 -16 
Q 841 59 441 206 
L 441 856 
Q 825 641 1194 531 
Q 1563 422 1919 422 
Q 2459 422 2753 634 
Q 3047 847 3047 1241 
Q 3047 1584 2836 1778 
Q 2625 1972 2144 2069 
L 1759 2144 
Q 1053 2284 737 2584 
Q 422 2884 422 3419 
Q 422 4038 858 4394 
Q 1294 4750 2059 4750 
Q 2388 4750 2728 4690 
Q 3069 4631 3425 4513 
z
" transform="scale(0.015625)"/>
       <path id="DejaVuSans-76" d="M 191 3500 
L 800 3500 
L 1894 563 
L 2988 3500 
L 3597 3500 
L 2284 0 
L 1503 0 
L 191 3500 
z
" transform="scale(0.015625)"/>
       <path id="DejaVuSans-42" d="M 1259 2228 
L 1259 519 
L 2272 519 
Q 2781 519 3026 730 
Q 3272 941 3272 1375 
Q 3272 1813 3026 2020 
Q 2781 2228 2272 2228 
L 1259 2228 
z
M 1259 4147 
L 1259 2741 
L 2194 2741 
Q 2656 2741 2882 2914 
Q 3109 3088 3109 3444 
Q 3109 3797 2882 3972 
Q 2656 4147 2194 4147 
L 1259 4147 
z
M 628 4666 
L 2241 4666 
Q 2963 4666 3353 4366 
Q 3744 4066 3744 3513 
Q 3744 3084 3544 2831 
Q 3344 2578 2956 2516 
Q 3422 2416 3680 2098 
Q 3938 1781 3938 1306 
Q 3938 681 3513 340 
Q 3088 0 2303 0 
L 628 0 
L 628 4666 
z
" transform="scale(0.015625)"/>
       <path id="DejaVuSans-75" d="M 544 1381 
L 544 3500 
L 1119 3500 
L 1119 1403 
Q 1119 906 1312 657 
Q 1506 409 1894 409 
Q 2359 409 2629 706 
Q 2900 1003 2900 1516 
L 2900 3500 
L 3475 3500 
L 3475 0 
L 2900 0 
L 2900 538 
Q 2691 219 2414 64 
Q 2138 -91 1772 -91 
Q 1169 -91 856 284 
Q 544 659 544 1381 
z
M 1991 3584 
L 1991 3584 
z
" transform="scale(0.015625)"/>
       <path id="DejaVuSans-73" d="M 2834 3397 
L 2834 2853 
Q 2591 2978 2328 3040 
Q 2066 3103 1784 3103 
Q 1356 3103 1142 2972 
Q 928 2841 928 2578 
Q 928 2378 1081 2264 
Q 1234 2150 1697 2047 
L 1894 2003 
Q 2506 1872 2764 1633 
Q 3022 1394 3022 966 
Q 3022 478 2636 193 
Q 2250 -91 1575 -91 
Q 1294 -91 989 -36 
Q 684 19 347 128 
L 347 722 
Q 666 556 975 473 
Q 1284 391 1588 391 
Q 1994 391 2212 530 
Q 2431 669 2431 922 
Q 2431 1156 2273 1281 
Q 2116 1406 1581 1522 
L 1381 1569 
Q 847 1681 609 1914 
Q 372 2147 372 2553 
Q 372 3047 722 3315 
Q 1072 3584 1716 3584 
Q 2034 3584 2315 3537 
Q 2597 3491 2834 3397 
z
" transform="scale(0.015625)"/>
       <path id="DejaVuSans-63" d="M 3122 3366 
L 3122 2828 
Q 2878 2963 2633 3030 
Q 2388 3097 2138 3097 
Q 1578 3097 1268 2742 
Q 959 2388 959 1747 
Q 959 1106 1268 751 
Q 1578 397 2138 397 
Q 2388 397 2633 464 
Q 2878 531 3122 666 
L 3122 134 
Q 2881 22 2623 -34 
Q 2366 -91 2075 -91 
Q 1284 -91 818 406 
Q 353 903 353 1747 
Q 353 2603 823 3093 
Q 1294 3584 2113 3584 
Q 2378 3584 2631 3529 
Q 2884 3475 3122 3366 
z
" transform="scale(0.015625)"/>
       <path id="DejaVuSans-6d" d="M 3328 2828 
Q 3544 3216 3844 3400 
Q 4144 3584 4550 3584 
Q 5097 3584 5394 3201 
Q 5691 2819 5691 2113 
L 5691 0 
L 5113 0 
L 5113 2094 
Q 5113 2597 4934 2840 
Q 4756 3084 4391 3084 
Q 3944 3084 3684 2787 
Q 3425 2491 3425 1978 
L 3425 0 
L 2847 0 
L 2847 2094 
Q 2847 2600 2669 2842 
Q 2491 3084 2119 3084 
Q 1678 3084 1418 2786 
Q 1159 2488 1159 1978 
L 1159 0 
L 581 0 
L 581 3500 
L 1159 3500 
L 1159 2956 
Q 1356 3278 1631 3431 
Q 1906 3584 2284 3584 
Q 2666 3584 2933 3390 
Q 3200 3197 3328 2828 
z
" transform="scale(0.015625)"/>
      </defs>
      <use xlink:href="#DejaVuSans-53"/>
      <use xlink:href="#DejaVuSans-74" x="63.476562"/>
      <use xlink:href="#DejaVuSans-65" x="102.685547"/>
      <use xlink:href="#DejaVuSans-76" x="164.208984"/>
      <use xlink:href="#DejaVuSans-65" x="223.388672"/>
      <use xlink:href="#DejaVuSans-20" x="284.912109"/>
      <use xlink:href="#DejaVuSans-42" x="316.699219"/>
      <use xlink:href="#DejaVuSans-75" x="385.302734"/>
      <use xlink:href="#DejaVuSans-73" x="448.681641"/>
      <use xlink:href="#DejaVuSans-63" x="500.78125"/>
      <use xlink:href="#DejaVuSans-65" x="555.761719"/>
      <use xlink:href="#DejaVuSans-6d" x="617.285156"/>
      <use xlink:href="#DejaVuSans-69" x="714.697266"/>
     </g>
    </g>
   </g>
   <g id="text_3">
    <g id="patch_4">
     <path d="M 401.982975 148.499083 
L 450.616725 148.499083 
L 450.616725 131.86877 
L 401.982975 131.86877 
z
" clip-path="url(#pbafbaabe63)" style="fill: #ffffff; opacity: 0.7; stroke: #000000; stroke-linejoin: miter"/>
    </g>
    <g clip-path="url(#pbafbaabe63)">
     <!-- Al Pacino -->
     <g transform="translate(405.942975 142.667364)scale(0.09 -0.09)">
      <defs>
       <path id="DejaVuSans-41" d="M 2188 4044 
L 1331 1722 
L 3047 1722 
L 2188 4044 
z
M 1831 4666 
L 2547 4666 
L 4325 0 
L 3669 0 
L 3244 1197 
L 1141 1197 
L 716 0 
L 50 0 
L 1831 4666 
z
" transform="scale(0.015625)"/>
       <path id="DejaVuSans-6c" d="M 603 4863 
L 1178 4863 
L 1178 0 
L 603 0 
L 603 4863 
z
" transform="scale(0.015625)"/>
       <path id="DejaVuSans-50" d="M 1259 4147 
L 1259 2394 
L 2053 2394 
Q 2494 2394 2734 2622 
Q 2975 2850 2975 3272 
Q 2975 3691 2734 3919 
Q 2494 4147 2053 4147 
L 1259 4147 
z
M 628 4666 
L 2053 4666 
Q 2838 4666 3239 4311 
Q 3641 3956 3641 3272 
Q 3641 2581 3239 2228 
Q 2838 1875 2053 1875 
L 1259 1875 
L 1259 0 
L 628 0 
L 628 4666 
z
" transform="scale(0.015625)"/>
       <path id="DejaVuSans-61" d="M 2194 1759 
Q 1497 1759 1228 1600 
Q 959 1441 959 1056 
Q 959 750 1161 570 
Q 1363 391 1709 391 
Q 2188 391 2477 730 
Q 2766 1069 2766 1631 
L 2766 1759 
L 2194 1759 
z
M 3341 1997 
L 3341 0 
L 2766 0 
L 2766 531 
Q 2569 213 2275 61 
Q 1981 -91 1556 -91 
Q 1019 -91 701 211 
Q 384 513 384 1019 
Q 384 1609 779 1909 
Q 1175 2209 1959 2209 
L 2766 2209 
L 2766 2266 
Q 2766 2663 2505 2880 
Q 2244 3097 1772 3097 
Q 1472 3097 1187 3025 
Q 903 2953 641 2809 
L 641 3341 
Q 956 3463 1253 3523 
Q 1550 3584 1831 3584 
Q 2591 3584 2966 3190 
Q 3341 2797 3341 1997 
z
" transform="scale(0.015625)"/>
       <path id="DejaVuSans-6e" d="M 3513 2113 
L 3513 0 
L 2938 0 
L 2938 2094 
Q 2938 2591 2744 2837 
Q 2550 3084 2163 3084 
Q 1697 3084 1428 2787 
Q 1159 2491 1159 1978 
L 1159 0 
L 581 0 
L 581 3500 
L 1159 3500 
L 1159 2956 
Q 1366 3272 1645 3428 
Q 1925 3584 2291 3584 
Q 2894 3584 3203 3211 
Q 3513 2838 3513 2113 
z
" transform="scale(0.015625)"/>
      </defs>
      <use xlink:href="#DejaVuSans-41"/>
      <use xlink:href="#DejaVuSans-6c" x="68.408203"/>
      <use xlink:href="#DejaVuSans-20" x="96.191406"/>
      <use xlink:href="#DejaVuSans-50" x="127.978516"/>
      <use xlink:href="#DejaVuSans-61" x="183.78125"/>
      <use xlink:href="#DejaVuSans-63" x="245.060547"/>
      <use xlink:href="#DejaVuSans-69" x="300.041016"/>
      <use xlink:href="#DejaVuSans-6e" x="327.824219"/>
      <use xlink:href="#DejaVuSans-6f" x="391.203125"/>
     </g>
    </g>
   </g>
   <g id="text_4">
    <g id="patch_5">
     <path d="M 315.291869 103.921719 
L 382.036713 103.921719 
L 382.036713 87.291406 
L 315.291869 87.291406 
z
" clip-path="url(#pbafbaabe63)" style="fill: #ffffff; opacity: 0.7; stroke: #000000; stroke-linejoin: miter"/>
    </g>
    <g clip-path="url(#pbafbaabe63)">
     <!-- Denis Lavant -->
     <g transform="translate(319.251869 98.09)scale(0.09 -0.09)">
      <defs>
       <path id="DejaVuSans-4c" d="M 628 4666 
L 1259 4666 
L 1259 531 
L 3531 531 
L 3531 0 
L 628 0 
L 628 4666 
z
" transform="scale(0.015625)"/>
      </defs>
      <use xlink:href="#DejaVuSans-44"/>
      <use xlink:href="#DejaVuSans-65" x="77.001953"/>
      <use xlink:href="#DejaVuSans-6e" x="138.525391"/>
      <use xlink:href="#DejaVuSans-69" x="201.904297"/>
      <use xlink:href="#DejaVuSans-73" x="229.6875"/>
      <use xlink:href="#DejaVuSans-20" x="281.787109"/>
      <use xlink:href="#DejaVuSans-4c" x="313.574219"/>
      <use xlink:href="#DejaVuSans-61" x="369.287109"/>
      <use xlink:href="#DejaVuSans-76" x="430.566406"/>
      <use xlink:href="#DejaVuSans-61" x="489.746094"/>
      <use xlink:href="#DejaVuSans-6e" x="551.025391"/>
      <use xlink:href="#DejaVuSans-74" x="614.404297"/>
     </g>
    </g>
   </g>
   <g id="text_5">
    <g id="patch_6">
     <path d="M 224.777986 94.602512 
L 294.241111 94.602512 
L 294.241111 77.9722 
L 224.777986 77.9722 
z
" clip-path="url(#pbafbaabe63)" style="fill: #ffffff; opacity: 0.7; stroke: #000000; stroke-linejoin: miter"/>
    </g>
    <g clip-path="url(#pbafbaabe63)">
     <!-- Joe Mantegna -->
     <g transform="translate(228.737986 88.770793)scale(0.09 -0.09)">
      <defs>
       <path id="DejaVuSans-4a" d="M 628 4666 
L 1259 4666 
L 1259 325 
Q 1259 -519 939 -900 
Q 619 -1281 -91 -1281 
L -331 -1281 
L -331 -750 
L -134 -750 
Q 284 -750 456 -515 
Q 628 -281 628 325 
L 628 4666 
z
" transform="scale(0.015625)"/>
       <path id="DejaVuSans-4d" d="M 628 4666 
L 1569 4666 
L 2759 1491 
L 3956 4666 
L 4897 4666 
L 4897 0 
L 4281 0 
L 4281 4097 
L 3078 897 
L 2444 897 
L 1241 4097 
L 1241 0 
L 628 0 
L 628 4666 
z
" transform="scale(0.015625)"/>
       <path id="DejaVuSans-67" d="M 2906 1791 
Q 2906 2416 2648 2759 
Q 2391 3103 1925 3103 
Q 1463 3103 1205 2759 
Q 947 2416 947 1791 
Q 947 1169 1205 825 
Q 1463 481 1925 481 
Q 2391 481 2648 825 
Q 2906 1169 2906 1791 
z
M 3481 434 
Q 3481 -459 3084 -895 
Q 2688 -1331 1869 -1331 
Q 1566 -1331 1297 -1286 
Q 1028 -1241 775 -1147 
L 775 -588 
Q 1028 -725 1275 -790 
Q 1522 -856 1778 -856 
Q 2344 -856 2625 -561 
Q 2906 -266 2906 331 
L 2906 616 
Q 2728 306 2450 153 
Q 2172 0 1784 0 
Q 1141 0 747 490 
Q 353 981 353 1791 
Q 353 2603 747 3093 
Q 1141 3584 1784 3584 
Q 2172 3584 2450 3431 
Q 2728 3278 2906 2969 
L 2906 3500 
L 3481 3500 
L 3481 434 
z
" transform="scale(0.015625)"/>
      </defs>
      <use xlink:href="#DejaVuSans-4a"/>
      <use xlink:href="#DejaVuSans-6f" x="29.492188"/>
      <use xlink:href="#DejaVuSans-65" x="90.673828"/>
      <use xlink:href="#DejaVuSans-20" x="152.197266"/>
      <use xlink:href="#DejaVuSans-4d" x="183.984375"/>
      <use xlink:href="#DejaVuSans-61" x="270.263672"/>
      <use xlink:href="#DejaVuSans-6e" x="331.542969"/>
      <use xlink:href="#DejaVuSans-74" x="394.921875"/>
      <use xlink:href="#DejaVuSans-65" x="434.130859"/>
      <use xlink:href="#DejaVuSans-67" x="495.654297"/>
      <use xlink:href="#DejaVuSans-6e" x="559.130859"/>
      <use xlink:href="#DejaVuSans-61" x="622.509766"/>
     </g>
    </g>
   </g>
   <g id="text_6">
    <g id="patch_7">
     <path d="M 141.052548 122.152849 
L 207.450048 122.152849 
L 207.450048 105.522536 
L 141.052548 105.522536 
z
" clip-path="url(#pbafbaabe63)" style="fill: #ffffff; opacity: 0.7; stroke: #000000; stroke-linejoin: miter"/>
    </g>
    <g clip-path="url(#pbafbaabe63)">
     <!-- Carla Gugino -->
     <g transform="translate(145.012548 116.32113)scale(0.09 -0.09)">
      <defs>
       <path id="DejaVuSans-43" d="M 4122 4306 
L 4122 3641 
Q 3803 3938 3442 4084 
Q 3081 4231 2675 4231 
Q 1875 4231 1450 3742 
Q 1025 3253 1025 2328 
Q 1025 1406 1450 917 
Q 1875 428 2675 428 
Q 3081 428 3442 575 
Q 3803 722 4122 1019 
L 4122 359 
Q 3791 134 3420 21 
Q 3050 -91 2638 -91 
Q 1578 -91 968 557 
Q 359 1206 359 2328 
Q 359 3453 968 4101 
Q 1578 4750 2638 4750 
Q 3056 4750 3426 4639 
Q 3797 4528 4122 4306 
z
" transform="scale(0.015625)"/>
       <path id="DejaVuSans-47" d="M 3809 666 
L 3809 1919 
L 2778 1919 
L 2778 2438 
L 4434 2438 
L 4434 434 
Q 4069 175 3628 42 
Q 3188 -91 2688 -91 
Q 1594 -91 976 548 
Q 359 1188 359 2328 
Q 359 3472 976 4111 
Q 1594 4750 2688 4750 
Q 3144 4750 3555 4637 
Q 3966 4525 4313 4306 
L 4313 3634 
Q 3963 3931 3569 4081 
Q 3175 4231 2741 4231 
Q 1884 4231 1454 3753 
Q 1025 3275 1025 2328 
Q 1025 1384 1454 906 
Q 1884 428 2741 428 
Q 3075 428 3337 486 
Q 3600 544 3809 666 
z
" transform="scale(0.015625)"/>
      </defs>
      <use xlink:href="#DejaVuSans-43"/>
      <use xlink:href="#DejaVuSans-61" x="69.824219"/>
      <use xlink:href="#DejaVuSans-72" x="131.103516"/>
      <use xlink:href="#DejaVuSans-6c" x="172.216797"/>
      <use xlink:href="#DejaVuSans-61" x="200"/>
      <use xlink:href="#DejaVuSans-20" x="261.279297"/>
      <use xlink:href="#DejaVuSans-47" x="293.066406"/>
      <use xlink:href="#DejaVuSans-75" x="370.556641"/>
      <use xlink:href="#DejaVuSans-67" x="433.935547"/>
      <use xlink:href="#DejaVuSans-69" x="497.412109"/>
      <use xlink:href="#DejaVuSans-6e" x="525.195312"/>
      <use xlink:href="#DejaVuSans-6f" x="588.574219"/>
     </g>
    </g>
   </g>
   <g id="text_7">
    <g id="patch_8">
     <path d="M 74.575461 181.80901 
L 140.687493 181.80901 
L 140.687493 165.178697 
L 74.575461 165.178697 
z
" clip-path="url(#pbafbaabe63)" style="fill: #ffffff; opacity: 0.7; stroke: #000000; stroke-linejoin: miter"/>
    </g>
    <g clip-path="url(#pbafbaabe63)">
     <!-- John Travolta -->
     <g transform="translate(78.535461 175.977291)scale(0.09 -0.09)">
      <defs>
       <path id="DejaVuSans-68" d="M 3513 2113 
L 3513 0 
L 2938 0 
L 2938 2094 
Q 2938 2591 2744 2837 
Q 2550 3084 2163 3084 
Q 1697 3084 1428 2787 
Q 1159 2491 1159 1978 
L 1159 0 
L 581 0 
L 581 4863 
L 1159 4863 
L 1159 2956 
Q 1366 3272 1645 3428 
Q 1925 3584 2291 3584 
Q 2894 3584 3203 3211 
Q 3513 2838 3513 2113 
z
" transform="scale(0.015625)"/>
       <path id="DejaVuSans-54" d="M -19 4666 
L 3928 4666 
L 3928 4134 
L 2272 4134 
L 2272 0 
L 1638 0 
L 1638 4134 
L -19 4134 
L -19 4666 
z
" transform="scale(0.015625)"/>
      </defs>
      <use xlink:href="#DejaVuSans-4a"/>
      <use xlink:href="#DejaVuSans-6f" x="29.492188"/>
      <use xlink:href="#DejaVuSans-68" x="90.673828"/>
      <use xlink:href="#DejaVuSans-6e" x="154.052734"/>
      <use xlink:href="#DejaVuSans-20" x="217.431641"/>
      <use xlink:href="#DejaVuSans-54" x="249.21875"/>
      <use xlink:href="#DejaVuSans-72" x="295.552734"/>
      <use xlink:href="#DejaVuSans-61" x="336.666016"/>
      <use xlink:href="#DejaVuSans-76" x="397.945312"/>
      <use xlink:href="#DejaVuSans-6f" x="457.125"/>
      <use xlink:href="#DejaVuSans-6c" x="518.306641"/>
      <use xlink:href="#DejaVuSans-74" x="546.089844"/>
      <use xlink:href="#DejaVuSans-61" x="585.298828"/>
     </g>
    </g>
   </g>
   <g id="text_8">
    <g id="patch_9">
     <path d="M 45.45595 263.25593 
L 96.882512 263.25593 
L 96.882512 246.625618 
L 45.45595 246.625618 
z
" clip-path="url(#pbafbaabe63)" style="fill: #ffffff; opacity: 0.7; stroke: #000000; stroke-linejoin: miter"/>
    </g>
    <g clip-path="url(#pbafbaabe63)">
     <!-- Mel Blanc -->
     <g transform="translate(49.41595 257.424211)scale(0.09 -0.09)">
      <use xlink:href="#DejaVuSans-4d"/>
      <use xlink:href="#DejaVuSans-65" x="86.279297"/>
      <use xlink:href="#DejaVuSans-6c" x="147.802734"/>
      <use xlink:href="#DejaVuSans-20" x="175.585938"/>
      <use xlink:href="#DejaVuSans-42" x="207.373047"/>
      <use xlink:href="#DejaVuSans-6c" x="275.976562"/>
      <use xlink:href="#DejaVuSans-61" x="303.759766"/>
      <use xlink:href="#DejaVuSans-6e" x="365.039062"/>
      <use xlink:href="#DejaVuSans-63" x="428.417969"/>
     </g>
    </g>
   </g>
   <g id="text_9">
    <g id="patch_10">
     <path d="M 28.602759 352.410671 
L 113.735728 352.410671 
L 113.735728 335.780358 
L 28.602759 335.780358 
z
" clip-path="url(#pbafbaabe63)" style="fill: #ffffff; opacity: 0.7; stroke: #000000; stroke-linejoin: miter"/>
    </g>
    <g clip-path="url(#pbafbaabe63)">
     <!-- Janeane Garofalo -->
     <g transform="translate(32.562759 346.578952)scale(0.09 -0.09)">
      <defs>
       <path id="DejaVuSans-66" d="M 2375 4863 
L 2375 4384 
L 1825 4384 
Q 1516 4384 1395 4259 
Q 1275 4134 1275 3809 
L 1275 3500 
L 2222 3500 
L 2222 3053 
L 1275 3053 
L 1275 0 
L 697 0 
L 697 3053 
L 147 3053 
L 147 3500 
L 697 3500 
L 697 3744 
Q 697 4328 969 4595 
Q 1241 4863 1831 4863 
L 2375 4863 
z
" transform="scale(0.015625)"/>
      </defs>
      <use xlink:href="#DejaVuSans-4a"/>
      <use xlink:href="#DejaVuSans-61" x="29.492188"/>
      <use xlink:href="#DejaVuSans-6e" x="90.771484"/>
      <use xlink:href="#DejaVuSans-65" x="154.150391"/>
      <use xlink:href="#DejaVuSans-61" x="215.673828"/>
      <use xlink:href="#DejaVuSans-6e" x="276.953125"/>
      <use xlink:href="#DejaVuSans-65" x="340.332031"/>
      <use xlink:href="#DejaVuSans-20" x="401.855469"/>
      <use xlink:href="#DejaVuSans-47" x="433.642578"/>
      <use xlink:href="#DejaVuSans-61" x="511.132812"/>
      <use xlink:href="#DejaVuSans-72" x="572.412109"/>
      <use xlink:href="#DejaVuSans-6f" x="611.275391"/>
      <use xlink:href="#DejaVuSans-66" x="672.457031"/>
      <use xlink:href="#DejaVuSans-61" x="707.662109"/>
      <use xlink:href="#DejaVuSans-6c" x="768.941406"/>
      <use xlink:href="#DejaVuSans-6f" x="796.724609"/>
     </g>
    </g>
   </g>
   <g id="text_10">
    <g id="patch_11">
     <path d="M 74.202818 433.857565 
L 141.060162 433.857565 
L 141.060162 417.227253 
L 74.202818 417.227253 
z
" clip-path="url(#pbafbaabe63)" style="fill: #ffffff; opacity: 0.7; stroke: #000000; stroke-linejoin: miter"/>
    </g>
    <g clip-path="url(#pbafbaabe63)">
     <!-- Rachel Weisz -->
     <g transform="translate(78.162818 428.025847)scale(0.09 -0.09)">
      <defs>
       <path id="DejaVuSans-57" d="M 213 4666 
L 850 4666 
L 1831 722 
L 2809 4666 
L 3519 4666 
L 4500 722 
L 5478 4666 
L 6119 4666 
L 4947 0 
L 4153 0 
L 3169 4050 
L 2175 0 
L 1381 0 
L 213 4666 
z
" transform="scale(0.015625)"/>
       <path id="DejaVuSans-7a" d="M 353 3500 
L 3084 3500 
L 3084 2975 
L 922 459 
L 3084 459 
L 3084 0 
L 275 0 
L 275 525 
L 2438 3041 
L 353 3041 
L 353 3500 
z
" transform="scale(0.015625)"/>
      </defs>
      <use xlink:href="#DejaVuSans-52"/>
      <use xlink:href="#DejaVuSans-61" x="67.232422"/>
      <use xlink:href="#DejaVuSans-63" x="128.511719"/>
      <use xlink:href="#DejaVuSans-68" x="183.492188"/>
      <use xlink:href="#DejaVuSans-65" x="246.871094"/>
      <use xlink:href="#DejaVuSans-6c" x="308.394531"/>
      <use xlink:href="#DejaVuSans-20" x="336.177734"/>
      <use xlink:href="#DejaVuSans-57" x="367.964844"/>
      <use xlink:href="#DejaVuSans-65" x="460.966797"/>
      <use xlink:href="#DejaVuSans-69" x="522.490234"/>
      <use xlink:href="#DejaVuSans-73" x="550.273438"/>
      <use xlink:href="#DejaVuSans-7a" x="602.373047"/>
     </g>
    </g>
   </g>
   <g id="text_11">
    <g id="patch_12">
     <path d="M 129.678127 493.513727 
L 218.824533 493.513727 
L 218.824533 476.883414 
L 129.678127 476.883414 
z
" clip-path="url(#pbafbaabe63)" style="fill: #ffffff; opacity: 0.7; stroke: #000000; stroke-linejoin: miter"/>
    </g>
    <g clip-path="url(#pbafbaabe63)">
     <!-- Sylvester Stallone -->
     <g transform="translate(133.638127 487.682008)scale(0.09 -0.09)">
      <defs>
       <path id="DejaVuSans-79" d="M 2059 -325 
Q 1816 -950 1584 -1140 
Q 1353 -1331 966 -1331 
L 506 -1331 
L 506 -850 
L 844 -850 
Q 1081 -850 1212 -737 
Q 1344 -625 1503 -206 
L 1606 56 
L 191 3500 
L 800 3500 
L 1894 763 
L 2988 3500 
L 3597 3500 
L 2059 -325 
z
" transform="scale(0.015625)"/>
      </defs>
      <use xlink:href="#DejaVuSans-53"/>
      <use xlink:href="#DejaVuSans-79" x="63.476562"/>
      <use xlink:href="#DejaVuSans-6c" x="122.65625"/>
      <use xlink:href="#DejaVuSans-76" x="150.439453"/>
      <use xlink:href="#DejaVuSans-65" x="209.619141"/>
      <use xlink:href="#DejaVuSans-73" x="271.142578"/>
      <use xlink:href="#DejaVuSans-74" x="323.242188"/>
      <use xlink:href="#DejaVuSans-65" x="362.451172"/>
      <use xlink:href="#DejaVuSans-72" x="423.974609"/>
      <use xlink:href="#DejaVuSans-20" x="465.087891"/>
      <use xlink:href="#DejaVuSans-53" x="496.875"/>
      <use xlink:href="#DejaVuSans-74" x="560.351562"/>
      <use xlink:href="#DejaVuSans-61" x="599.560547"/>
      <use xlink:href="#DejaVuSans-6c" x="660.839844"/>
      <use xlink:href="#DejaVuSans-6c" x="688.623047"/>
      <use xlink:href="#DejaVuSans-6f" x="716.40625"/>
      <use xlink:href="#DejaVuSans-6e" x="777.587891"/>
      <use xlink:href="#DejaVuSans-65" x="840.966797"/>
     </g>
    </g>
   </g>
   <g id="text_12">
    <g id="patch_13">
     <path d="M 226.670837 521.06405 
L 292.348337 521.06405 
L 292.348337 504.433738 
L 226.670837 504.433738 
z
" clip-path="url(#pbafbaabe63)" style="fill: #ffffff; opacity: 0.7; stroke: #000000; stroke-linejoin: miter"/>
    </g>
    <g clip-path="url(#pbafbaabe63)">
     <!-- John Lithgow -->
     <g transform="translate(230.630837 515.232332)scale(0.09 -0.09)">
      <defs>
       <path id="DejaVuSans-77" d="M 269 3500 
L 844 3500 
L 1563 769 
L 2278 3500 
L 2956 3500 
L 3675 769 
L 4391 3500 
L 4966 3500 
L 4050 0 
L 3372 0 
L 2619 2869 
L 1863 0 
L 1184 0 
L 269 3500 
z
" transform="scale(0.015625)"/>
      </defs>
      <use xlink:href="#DejaVuSans-4a"/>
      <use xlink:href="#DejaVuSans-6f" x="29.492188"/>
      <use xlink:href="#DejaVuSans-68" x="90.673828"/>
      <use xlink:href="#DejaVuSans-6e" x="154.052734"/>
      <use xlink:href="#DejaVuSans-20" x="217.431641"/>
      <use xlink:href="#DejaVuSans-4c" x="249.21875"/>
      <use xlink:href="#DejaVuSans-69" x="304.931641"/>
      <use xlink:href="#DejaVuSans-74" x="332.714844"/>
      <use xlink:href="#DejaVuSans-68" x="371.923828"/>
      <use xlink:href="#DejaVuSans-67" x="435.302734"/>
      <use xlink:href="#DejaVuSans-6f" x="498.779297"/>
      <use xlink:href="#DejaVuSans-77" x="559.960938"/>
     </g>
    </g>
   </g>
   <g id="text_13">
    <g id="patch_14">
     <path d="M 308.757058 511.744831 
L 388.571589 511.744831 
L 388.571589 495.114518 
L 308.757058 495.114518 
z
" clip-path="url(#pbafbaabe63)" style="fill: #ffffff; opacity: 0.7; stroke: #000000; stroke-linejoin: miter"/>
    </g>
    <g clip-path="url(#pbafbaabe63)">
     <!-- Martin Scorsese -->
     <g transform="translate(312.717058 505.913112)scale(0.09 -0.09)">
      <use xlink:href="#DejaVuSans-4d"/>
      <use xlink:href="#DejaVuSans-61" x="86.279297"/>
      <use xlink:href="#DejaVuSans-72" x="147.558594"/>
      <use xlink:href="#DejaVuSans-74" x="188.671875"/>
      <use xlink:href="#DejaVuSans-69" x="227.880859"/>
      <use xlink:href="#DejaVuSans-6e" x="255.664062"/>
      <use xlink:href="#DejaVuSans-20" x="319.042969"/>
      <use xlink:href="#DejaVuSans-53" x="350.830078"/>
      <use xlink:href="#DejaVuSans-63" x="414.306641"/>
      <use xlink:href="#DejaVuSans-6f" x="469.287109"/>
      <use xlink:href="#DejaVuSans-72" x="530.46875"/>
      <use xlink:href="#DejaVuSans-73" x="571.582031"/>
      <use xlink:href="#DejaVuSans-65" x="623.681641"/>
      <use xlink:href="#DejaVuSans-73" x="685.205078"/>
      <use xlink:href="#DejaVuSans-65" x="737.304688"/>
     </g>
    </g>
   </g>
   <g id="text_14">
    <g id="patch_15">
     <path d="M 387.796763 467.167441 
L 464.803013 467.167441 
L 464.803013 450.537129 
L 387.796763 450.537129 
z
" clip-path="url(#pbafbaabe63)" style="fill: #ffffff; opacity: 0.7; stroke: #000000; stroke-linejoin: miter"/>
    </g>
    <g clip-path="url(#pbafbaabe63)">
     <!-- Matthew Lillard -->
     <g transform="translate(391.756763 461.335723)scale(0.09 -0.09)">
      <defs>
       <path id="DejaVuSans-64" d="M 2906 2969 
L 2906 4863 
L 3481 4863 
L 3481 0 
L 2906 0 
L 2906 525 
Q 2725 213 2448 61 
Q 2172 -91 1784 -91 
Q 1150 -91 751 415 
Q 353 922 353 1747 
Q 353 2572 751 3078 
Q 1150 3584 1784 3584 
Q 2172 3584 2448 3432 
Q 2725 3281 2906 2969 
z
M 947 1747 
Q 947 1113 1208 752 
Q 1469 391 1925 391 
Q 2381 391 2643 752 
Q 2906 1113 2906 1747 
Q 2906 2381 2643 2742 
Q 2381 3103 1925 3103 
Q 1469 3103 1208 2742 
Q 947 2381 947 1747 
z
" transform="scale(0.015625)"/>
      </defs>
      <use xlink:href="#DejaVuSans-4d"/>
      <use xlink:href="#DejaVuSans-61" x="86.279297"/>
      <use xlink:href="#DejaVuSans-74" x="147.558594"/>
      <use xlink:href="#DejaVuSans-74" x="186.767578"/>
      <use xlink:href="#DejaVuSans-68" x="225.976562"/>
      <use xlink:href="#DejaVuSans-65" x="289.355469"/>
      <use xlink:href="#DejaVuSans-77" x="350.878906"/>
      <use xlink:href="#DejaVuSans-20" x="432.666016"/>
      <use xlink:href="#DejaVuSans-4c" x="464.453125"/>
      <use xlink:href="#DejaVuSans-69" x="520.166016"/>
      <use xlink:href="#DejaVuSans-6c" x="547.949219"/>
      <use xlink:href="#DejaVuSans-6c" x="575.732422"/>
      <use xlink:href="#DejaVuSans-61" x="603.515625"/>
      <use xlink:href="#DejaVuSans-72" x="664.794922"/>
      <use xlink:href="#DejaVuSans-64" x="704.158203"/>
     </g>
    </g>
   </g>
   <g id="text_15">
    <g id="patch_16">
     <path d="M 446.800499 395.039741 
L 511.184249 395.039741 
L 511.184249 378.409428 
L 446.800499 378.409428 
z
" clip-path="url(#pbafbaabe63)" style="fill: #ffffff; opacity: 0.7; stroke: #000000; stroke-linejoin: miter"/>
    </g>
    <g clip-path="url(#pbafbaabe63)">
     <!-- Mark Ruffalo -->
     <g transform="translate(450.760499 389.208022)scale(0.09 -0.09)">
      <defs>
       <path id="DejaVuSans-6b" d="M 581 4863 
L 1159 4863 
L 1159 1991 
L 2875 3500 
L 3609 3500 
L 1753 1863 
L 3688 0 
L 2938 0 
L 1159 1709 
L 1159 0 
L 581 0 
L 581 4863 
z
" transform="scale(0.015625)"/>
      </defs>
      <use xlink:href="#DejaVuSans-4d"/>
      <use xlink:href="#DejaVuSans-61" x="86.279297"/>
      <use xlink:href="#DejaVuSans-72" x="147.558594"/>
      <use xlink:href="#DejaVuSans-6b" x="188.671875"/>
      <use xlink:href="#DejaVuSans-20" x="246.582031"/>
      <use xlink:href="#DejaVuSans-52" x="278.369141"/>
      <use xlink:href="#DejaVuSans-75" x="343.351562"/>
      <use xlink:href="#DejaVuSans-66" x="406.730469"/>
      <use xlink:href="#DejaVuSans-66" x="441.935547"/>
      <use xlink:href="#DejaVuSans-61" x="477.140625"/>
      <use xlink:href="#DejaVuSans-6c" x="538.419922"/>
      <use xlink:href="#DejaVuSans-6f" x="566.203125"/>
     </g>
    </g>
   </g>
   <g id="text_16">
    <!-- Impactful actors for Horror genre - Importance rank: 6 -->
    <g transform="translate(121.821562 16.318125)scale(0.12 -0.12)">
     <defs>
      <path id="DejaVuSans-49" d="M 628 4666 
L 1259 4666 
L 1259 0 
L 628 0 
L 628 4666 
z
" transform="scale(0.015625)"/>
      <path id="DejaVuSans-70" d="M 1159 525 
L 1159 -1331 
L 581 -1331 
L 581 3500 
L 1159 3500 
L 1159 2969 
Q 1341 3281 1617 3432 
Q 1894 3584 2278 3584 
Q 2916 3584 3314 3078 
Q 3713 2572 3713 1747 
Q 3713 922 3314 415 
Q 2916 -91 2278 -91 
Q 1894 -91 1617 61 
Q 1341 213 1159 525 
z
M 3116 1747 
Q 3116 2381 2855 2742 
Q 2594 3103 2138 3103 
Q 1681 3103 1420 2742 
Q 1159 2381 1159 1747 
Q 1159 1113 1420 752 
Q 1681 391 2138 391 
Q 2594 391 2855 752 
Q 3116 1113 3116 1747 
z
" transform="scale(0.015625)"/>
      <path id="DejaVuSans-48" d="M 628 4666 
L 1259 4666 
L 1259 2753 
L 3553 2753 
L 3553 4666 
L 4184 4666 
L 4184 0 
L 3553 0 
L 3553 2222 
L 1259 2222 
L 1259 0 
L 628 0 
L 628 4666 
z
" transform="scale(0.015625)"/>
      <path id="DejaVuSans-2d" d="M 313 2009 
L 1997 2009 
L 1997 1497 
L 313 1497 
L 313 2009 
z
" transform="scale(0.015625)"/>
      <path id="DejaVuSans-3a" d="M 750 794 
L 1409 794 
L 1409 0 
L 750 0 
L 750 794 
z
M 750 3309 
L 1409 3309 
L 1409 2516 
L 750 2516 
L 750 3309 
z
" transform="scale(0.015625)"/>
      <path id="DejaVuSans-36" d="M 2113 2584 
Q 1688 2584 1439 2293 
Q 1191 2003 1191 1497 
Q 1191 994 1439 701 
Q 1688 409 2113 409 
Q 2538 409 2786 701 
Q 3034 994 3034 1497 
Q 3034 2003 2786 2293 
Q 2538 2584 2113 2584 
z
M 3366 4563 
L 3366 3988 
Q 3128 4100 2886 4159 
Q 2644 4219 2406 4219 
Q 1781 4219 1451 3797 
Q 1122 3375 1075 2522 
Q 1259 2794 1537 2939 
Q 1816 3084 2150 3084 
Q 2853 3084 3261 2657 
Q 3669 2231 3669 1497 
Q 3669 778 3244 343 
Q 2819 -91 2113 -91 
Q 1303 -91 875 529 
Q 447 1150 447 2328 
Q 447 3434 972 4092 
Q 1497 4750 2381 4750 
Q 2619 4750 2861 4703 
Q 3103 4656 3366 4563 
z
" transform="scale(0.015625)"/>
     </defs>
     <use xlink:href="#DejaVuSans-49"/>
     <use xlink:href="#DejaVuSans-6d" x="29.492188"/>
     <use xlink:href="#DejaVuSans-70" x="126.904297"/>
     <use xlink:href="#DejaVuSans-61" x="190.380859"/>
     <use xlink:href="#DejaVuSans-63" x="251.660156"/>
     <use xlink:href="#DejaVuSans-74" x="306.640625"/>
     <use xlink:href="#DejaVuSans-66" x="345.849609"/>
     <use xlink:href="#DejaVuSans-75" x="381.054688"/>
     <use xlink:href="#DejaVuSans-6c" x="444.433594"/>
     <use xlink:href="#DejaVuSans-20" x="472.216797"/>
     <use xlink:href="#DejaVuSans-61" x="504.003906"/>
     <use xlink:href="#DejaVuSans-63" x="565.283203"/>
     <use xlink:href="#DejaVuSans-74" x="620.263672"/>
     <use xlink:href="#DejaVuSans-6f" x="659.472656"/>
     <use xlink:href="#DejaVuSans-72" x="720.654297"/>
     <use xlink:href="#DejaVuSans-73" x="761.767578"/>
     <use xlink:href="#DejaVuSans-20" x="813.867188"/>
     <use xlink:href="#DejaVuSans-66" x="845.654297"/>
     <use xlink:href="#DejaVuSans-6f" x="880.859375"/>
     <use xlink:href="#DejaVuSans-72" x="942.041016"/>
     <use xlink:href="#DejaVuSans-20" x="983.154297"/>
     <use xlink:href="#DejaVuSans-48" x="1014.941406"/>
     <use xlink:href="#DejaVuSans-6f" x="1090.136719"/>
     <use xlink:href="#DejaVuSans-72" x="1151.318359"/>
     <use xlink:href="#DejaVuSans-72" x="1190.681641"/>
     <use xlink:href="#DejaVuSans-6f" x="1229.544922"/>
     <use xlink:href="#DejaVuSans-72" x="1290.726562"/>
     <use xlink:href="#DejaVuSans-20" x="1331.839844"/>
     <use xlink:href="#DejaVuSans-67" x="1363.626953"/>
     <use xlink:href="#DejaVuSans-65" x="1427.103516"/>
     <use xlink:href="#DejaVuSans-6e" x="1488.626953"/>
     <use xlink:href="#DejaVuSans-72" x="1552.005859"/>
     <use xlink:href="#DejaVuSans-65" x="1590.869141"/>
     <use xlink:href="#DejaVuSans-20" x="1652.392578"/>
     <use xlink:href="#DejaVuSans-2d" x="1684.179688"/>
     <use xlink:href="#DejaVuSans-20" x="1720.263672"/>
     <use xlink:href="#DejaVuSans-49" x="1752.050781"/>
     <use xlink:href="#DejaVuSans-6d" x="1781.542969"/>
     <use xlink:href="#DejaVuSans-70" x="1878.955078"/>
     <use xlink:href="#DejaVuSans-6f" x="1942.431641"/>
     <use xlink:href="#DejaVuSans-72" x="2003.613281"/>
     <use xlink:href="#DejaVuSans-74" x="2044.726562"/>
     <use xlink:href="#DejaVuSans-61" x="2083.935547"/>
     <use xlink:href="#DejaVuSans-6e" x="2145.214844"/>
     <use xlink:href="#DejaVuSans-63" x="2208.59375"/>
     <use xlink:href="#DejaVuSans-65" x="2263.574219"/>
     <use xlink:href="#DejaVuSans-20" x="2325.097656"/>
     <use xlink:href="#DejaVuSans-72" x="2356.884766"/>
     <use xlink:href="#DejaVuSans-61" x="2397.998047"/>
     <use xlink:href="#DejaVuSans-6e" x="2459.277344"/>
     <use xlink:href="#DejaVuSans-6b" x="2522.65625"/>
     <use xlink:href="#DejaVuSans-3a" x="2580.566406"/>
     <use xlink:href="#DejaVuSans-20" x="2614.257812"/>
     <use xlink:href="#DejaVuSans-36" x="2646.044922"/>
    </g>
   </g>
  </g>
 </g>
 <defs>
  <clipPath id="pbafbaabe63">
   <rect x="7.2" y="22.318125" width="554.4" height="554.4"/>
  </clipPath>
 </defs>
</svg>
