<?xml version="1.0" encoding="utf-8" standalone="no"?>
<!DOCTYPE svg PUBLIC "-//W3C//DTD SVG 1.1//EN"
  "http://www.w3.org/Graphics/SVG/1.1/DTD/svg11.dtd">
<svg xmlns:xlink="http://www.w3.org/1999/xlink" width="576pt" height="576pt" viewBox="0 0 576 576" xmlns="http://www.w3.org/2000/svg" version="1.1">
 <metadata>
  <rdf:RDF xmlns:dc="http://purl.org/dc/elements/1.1/" xmlns:cc="http://creativecommons.org/ns#" xmlns:rdf="http://www.w3.org/1999/02/22-rdf-syntax-ns#">
   <cc:Work>
    <dc:type rdf:resource="http://purl.org/dc/dcmitype/StillImage"/>
    <dc:date>2022-12-22T16:13:20.975783</dc:date>
    <dc:format>image/svg+xml</dc:format>
    <dc:creator>
     <cc:Agent>
      <dc:title>Matplotlib v3.5.2, https://matplotlib.org/</dc:title>
     </cc:Agent>
    </dc:creator>
   </cc:Work>
  </rdf:RDF>
 </metadata>
 <defs>
  <style type="text/css">*{stroke-linejoin: round; stroke-linecap: butt}</style>
 </defs>
 <g id="figure_1">
  <g id="patch_1">
   <path d="M 0 576 
L 576 576 
L 576 0 
L 0 0 
z
" style="fill: #ffffff"/>
  </g>
  <g id="axes_1">
   <g id="LineCollection_1">
    <path d="M 356.958143 87.103865 
L 88.206798 245.286285 
" clip-path="url(#p20b5a6068c)" style="fill: none; stroke: #000000; stroke-opacity: 0.3; stroke-width: 10"/>
    <path d="M 88.206798 245.286285 
L 88.20681 333.796546 
" clip-path="url(#p20b5a6068c)" style="fill: none; stroke: #000000; stroke-opacity: 0.3; stroke-width: 5"/>
   </g>
   <g id="PathCollection_1">
    <path d="M 501.230769 316.927525 
C 508.493655 316.927525 515.46005 314.041949 520.595686 308.906314 
C 525.731322 303.770678 528.616897 296.804283 528.616897 289.541397 
C 528.616897 282.278511 525.731322 275.312116 520.595686 270.17648 
C 515.46005 265.040844 508.493655 262.155269 501.230769 262.155269 
C 493.967883 262.155269 487.001488 265.040844 481.865852 270.17648 
C 476.730217 275.312116 473.844641 282.278511 473.844641 289.541397 
C 473.844641 296.804283 476.730217 303.770678 481.865852 308.906314 
C 487.001488 314.041949 493.967883 316.927525 501.230769 316.927525 
z
" clip-path="url(#p20b5a6068c)" style="fill: #d62728; fill-opacity: 0.99; stroke: #d62728; stroke-opacity: 0.99"/>
    <path d="M 483.179634 228.495397 
C 489.950295 228.495397 496.444558 225.805385 501.232138 221.017805 
C 506.019718 216.230225 508.70973 209.735962 508.70973 202.965301 
C 508.70973 196.194641 506.019718 189.700377 501.232138 184.912797 
C 496.444558 180.125217 489.950295 177.435205 483.179634 177.435205 
C 476.408974 177.435205 469.91471 180.125217 465.12713 184.912797 
C 460.33955 189.700377 457.649538 196.194641 457.649538 202.965301 
C 457.649538 209.735962 460.33955 216.230225 465.12713 221.017805 
C 469.91471 225.805385 476.408974 228.495397 483.179634 228.495397 
z
" clip-path="url(#p20b5a6068c)" style="fill: #d62728; fill-opacity: 0.99; stroke: #d62728; stroke-opacity: 0.99"/>
    <path d="M 432.147448 155.550299 
C 438.563058 155.550299 444.716765 153.00135 449.253287 148.464828 
C 453.789808 143.928307 456.338757 137.774599 456.338757 131.358989 
C 456.338757 124.943379 453.789808 118.789672 449.253287 114.25315 
C 444.716765 109.716628 438.563058 107.167679 432.147448 107.167679 
C 425.731837 107.167679 419.57813 109.716628 415.041609 114.25315 
C 410.505087 118.789672 407.956138 124.943379 407.956138 131.358989 
C 407.956138 137.774599 410.505087 143.928307 415.041609 148.464828 
C 419.57813 153.00135 425.731837 155.550299 432.147448 155.550299 
z
" clip-path="url(#p20b5a6068c)" style="fill: #d62728; fill-opacity: 0.99; stroke: #d62728; stroke-opacity: 0.99"/>
    <path d="M 356.958143 110.252206 
C 363.097154 110.252206 368.985555 107.813151 373.326492 103.472214 
C 377.667429 99.131277 380.106484 93.242877 380.106484 87.103865 
C 380.106484 80.964853 377.667429 75.076453 373.326492 70.735516 
C 368.985555 66.394579 363.097154 63.955523 356.958143 63.955523 
C 350.819131 63.955523 344.93073 66.394579 340.589793 70.735516 
C 336.248856 75.076453 333.809801 80.964853 333.809801 87.103865 
C 333.809801 93.242877 336.248856 99.131277 340.589793 103.472214 
C 344.93073 107.813151 350.819131 110.252206 356.958143 110.252206 
z
" clip-path="url(#p20b5a6068c)" style="fill: #d62728; fill-opacity: 0.99; stroke: #d62728; stroke-opacity: 0.99"/>
    <path d="M 270.612617 100.303445 
C 276.566803 100.303445 282.277923 97.937821 286.488168 93.727576 
C 290.698413 89.51733 293.064037 83.806211 293.064037 77.852024 
C 293.064037 71.897838 290.698413 66.186718 286.488168 61.976473 
C 282.277923 57.766227 276.566803 55.400604 270.612617 55.400604 
C 264.65843 55.400604 258.947311 57.766227 254.737065 61.976473 
C 250.52682 66.186718 248.161196 71.897838 248.161196 77.852024 
C 248.161196 83.806211 250.52682 89.51733 254.737065 93.727576 
C 258.947311 97.937821 264.65843 100.303445 270.612617 100.303445 
z
" clip-path="url(#p20b5a6068c)" style="fill: #d62728; fill-opacity: 0.99; stroke: #d62728; stroke-opacity: 0.99"/>
    <path d="M 188.040806 127.615888 
C 193.984719 127.615888 199.685985 125.254346 203.888966 121.051365 
C 208.091947 116.848384 210.453489 111.147119 210.453489 105.203206 
C 210.453489 99.259293 208.091947 93.558027 203.888966 89.355046 
C 199.685985 85.152065 193.984719 82.790523 188.040806 82.790523 
C 182.096894 82.790523 176.395628 85.152065 172.192647 89.355046 
C 167.989666 93.558027 165.628124 99.259293 165.628124 105.203206 
C 165.628124 111.147119 167.989666 116.848384 172.192647 121.051365 
C 176.395628 125.254346 182.096894 127.615888 188.040806 127.615888 
z
" clip-path="url(#p20b5a6068c)" style="fill: #d62728; fill-opacity: 0.99; stroke: #d62728; stroke-opacity: 0.99"/>
    <path d="M 123.520139 186.089373 
C 129.264769 186.089373 134.774887 183.807007 138.836953 179.744941 
C 142.89902 175.682874 145.181386 170.172756 145.181386 164.428126 
C 145.181386 158.683497 142.89902 153.173379 138.836953 149.111312 
C 134.774887 145.049245 129.264769 142.76688 123.520139 142.76688 
C 117.775509 142.76688 112.265391 145.049245 108.203325 149.111312 
C 104.141258 153.173379 101.858892 158.683497 101.858892 164.428126 
C 101.858892 170.172756 104.141258 175.682874 108.203325 179.744941 
C 112.265391 183.807007 117.775509 186.089373 123.520139 186.089373 
z
" clip-path="url(#p20b5a6068c)" style="fill: #d62728; fill-opacity: 0.99; stroke: #d62728; stroke-opacity: 0.99"/>
    <path d="M 88.206798 266.850933 
C 93.925809 266.850933 99.411355 264.578746 103.455307 260.534794 
C 107.499258 256.490842 109.771446 251.005297 109.771446 245.286285 
C 109.771446 239.567274 107.499258 234.081728 103.455307 230.037777 
C 99.411355 225.993825 93.925809 223.721637 88.206798 223.721637 
C 82.487787 223.721637 77.002241 225.993825 72.958289 230.037777 
C 68.914338 234.081728 66.64215 239.567274 66.64215 245.286285 
C 66.64215 251.005297 68.914338 256.490842 72.958289 260.534794 
C 77.002241 264.578746 82.487787 266.850933 88.206798 266.850933 
z
" clip-path="url(#p20b5a6068c)" style="fill: #d62728; fill-opacity: 0.99; stroke: #d62728; stroke-opacity: 0.99"/>
    <path d="M 88.20681 354.470856 
C 93.689702 354.470856 98.948766 352.292481 102.825755 348.415491 
C 106.702745 344.538502 108.88112 339.279438 108.88112 333.796546 
C 108.88112 328.313655 106.702745 323.054591 102.825755 319.177602 
C 98.948766 315.300612 93.689702 313.122237 88.20681 313.122237 
C 82.723919 313.122237 77.464855 315.300612 73.587866 319.177602 
C 69.710876 323.054591 67.532501 328.313655 67.532501 333.796546 
C 67.532501 339.279438 69.710876 344.538502 73.587866 348.415491 
C 77.464855 352.292481 82.723919 354.470856 88.20681 354.470856 
z
" clip-path="url(#p20b5a6068c)" style="fill: #d62728; fill-opacity: 0.99; stroke: #d62728; stroke-opacity: 0.99"/>
    <path d="M 123.520151 435.13297 
C 128.951058 435.13297 134.160259 432.975248 138.000489 429.135018 
C 141.84072 425.294787 143.998442 420.085586 143.998442 414.65468 
C 143.998442 409.223774 141.84072 404.014573 138.000489 400.174342 
C 134.160259 396.334112 128.951058 394.17639 123.520151 394.17639 
C 118.089245 394.17639 112.880044 396.334112 109.039814 400.174342 
C 105.199583 404.014573 103.041861 409.223774 103.041861 414.65468 
C 103.041861 420.085586 105.199583 425.294787 109.039814 429.135018 
C 112.880044 432.975248 118.089245 435.13297 123.520151 435.13297 
z
" clip-path="url(#p20b5a6068c)" style="fill: #d62728; fill-opacity: 0.99; stroke: #d62728; stroke-opacity: 0.99"/>
    <path d="M 188.040837 494.147507 
C 193.415949 494.147507 198.571634 492.011952 202.372412 488.211175 
C 206.173189 484.410397 208.308744 479.254712 208.308744 473.879601 
C 208.308744 468.504489 206.173189 463.348804 202.372412 459.548026 
C 198.571634 455.747249 193.415949 453.611694 188.040837 453.611694 
C 182.665726 453.611694 177.510041 455.747249 173.709263 459.548026 
C 169.908486 463.348804 167.772931 468.504489 167.772931 473.879601 
C 167.772931 479.254712 169.908486 484.410397 173.709263 488.211175 
C 177.510041 492.011952 182.665726 494.147507 188.040837 494.147507 
z
" clip-path="url(#p20b5a6068c)" style="fill: #d62728; fill-opacity: 0.99; stroke: #d62728; stroke-opacity: 0.99"/>
    <path d="M 270.612654 521.149943 
C 275.895281 521.149943 280.962256 519.051133 284.697637 515.315752 
C 288.433018 511.580371 290.531828 506.513396 290.531828 501.230769 
C 290.531828 495.948143 288.433018 490.881167 284.697637 487.145786 
C 280.962256 483.410405 275.895281 481.311595 270.612654 481.311595 
C 265.330027 481.311595 260.263052 483.410405 256.527671 487.145786 
C 252.79229 490.881167 250.69348 495.948143 250.69348 501.230769 
C 250.69348 506.513396 252.79229 511.580371 256.527671 515.315752 
C 260.263052 519.051133 265.330027 521.149943 270.612654 521.149943 
z
" clip-path="url(#p20b5a6068c)" style="fill: #d62728; fill-opacity: 0.99; stroke: #d62728; stroke-opacity: 0.99"/>
    <path d="M 356.958174 511.725494 
C 362.195027 511.725494 367.218098 509.64487 370.921113 505.941855 
C 374.624128 502.238841 376.704752 497.21577 376.704752 491.978916 
C 376.704752 486.742062 374.624128 481.718992 370.921113 478.015977 
C 367.218098 474.312962 362.195027 472.232338 356.958174 472.232338 
C 351.72132 472.232338 346.698249 474.312962 342.995234 478.015977 
C 339.29222 481.718992 337.211595 486.742062 337.211595 491.978916 
C 337.211595 497.21577 339.29222 502.238841 342.995234 505.941855 
C 346.698249 509.64487 351.72132 511.725494 356.958174 511.725494 
z
" clip-path="url(#p20b5a6068c)" style="fill: #d62728; fill-opacity: 0.99; stroke: #d62728; stroke-opacity: 0.99"/>
    <path d="M 432.147485 467.390257 
C 437.363099 467.390257 442.365797 465.318071 446.053794 461.630075 
C 449.74179 457.942079 451.813975 452.939381 451.813975 447.723766 
C 451.813975 442.508152 449.74179 437.505454 446.053794 433.817458 
C 442.365797 430.129462 437.363099 428.057276 432.147485 428.057276 
C 426.931871 428.057276 421.929173 430.129462 418.241176 433.817458 
C 414.55318 437.505454 412.480995 442.508152 412.480995 447.723766 
C 412.480995 452.939381 414.55318 457.942079 418.241176 461.630075 
C 421.929173 465.318071 426.931871 467.390257 432.147485 467.390257 
z
" clip-path="url(#p20b5a6068c)" style="fill: #d62728; fill-opacity: 0.99; stroke: #d62728; stroke-opacity: 0.99"/>
    <path d="M 483.179659 395.482377 
C 488.315295 395.482377 493.24128 393.441968 496.872723 389.810525 
C 500.504166 386.179082 502.544576 381.253097 502.544576 376.117461 
C 502.544576 370.981825 500.504166 366.05584 496.872723 362.424397 
C 493.24128 358.792954 488.315295 356.752544 483.179659 356.752544 
C 478.044023 356.752544 473.118038 358.792954 469.486595 362.424397 
C 465.855152 366.05584 463.814742 370.981825 463.814742 376.117461 
C 463.814742 381.253097 465.855152 386.179082 469.486595 389.810525 
C 473.118038 393.441968 478.044023 395.482377 483.179659 395.482377 
z
" clip-path="url(#p20b5a6068c)" style="fill: #d62728; fill-opacity: 0.99; stroke: #d62728; stroke-opacity: 0.99"/>
   </g>
   <g id="text_1">
    <g id="patch_2">
     <path d="M 468.247879 297.856553 
L 534.21366 297.856553 
L 534.21366 281.226241 
L 468.247879 281.226241 
z
" clip-path="url(#p20b5a6068c)" style="fill: #ffffff; opacity: 0.7; stroke: #000000; stroke-linejoin: miter"/>
    </g>
    <g clip-path="url(#p20b5a6068c)">
     <!-- Frank Welker -->
     <g transform="translate(472.207879 292.024834)scale(0.09 -0.09)">
      <defs>
       <path id="DejaVuSans-46" d="M 628 4666 
L 3309 4666 
L 3309 4134 
L 1259 4134 
L 1259 2759 
L 3109 2759 
L 3109 2228 
L 1259 2228 
L 1259 0 
L 628 0 
L 628 4666 
z
" transform="scale(0.015625)"/>
       <path id="DejaVuSans-72" d="M 2631 2963 
Q 2534 3019 2420 3045 
Q 2306 3072 2169 3072 
Q 1681 3072 1420 2755 
Q 1159 2438 1159 1844 
L 1159 0 
L 581 0 
L 581 3500 
L 1159 3500 
L 1159 2956 
Q 1341 3275 1631 3429 
Q 1922 3584 2338 3584 
Q 2397 3584 2469 3576 
Q 2541 3569 2628 3553 
L 2631 2963 
z
" transform="scale(0.015625)"/>
       <path id="DejaVuSans-61" d="M 2194 1759 
Q 1497 1759 1228 1600 
Q 959 1441 959 1056 
Q 959 750 1161 570 
Q 1363 391 1709 391 
Q 2188 391 2477 730 
Q 2766 1069 2766 1631 
L 2766 1759 
L 2194 1759 
z
M 3341 1997 
L 3341 0 
L 2766 0 
L 2766 531 
Q 2569 213 2275 61 
Q 1981 -91 1556 -91 
Q 1019 -91 701 211 
Q 384 513 384 1019 
Q 384 1609 779 1909 
Q 1175 2209 1959 2209 
L 2766 2209 
L 2766 2266 
Q 2766 2663 2505 2880 
Q 2244 3097 1772 3097 
Q 1472 3097 1187 3025 
Q 903 2953 641 2809 
L 641 3341 
Q 956 3463 1253 3523 
Q 1550 3584 1831 3584 
Q 2591 3584 2966 3190 
Q 3341 2797 3341 1997 
z
" transform="scale(0.015625)"/>
       <path id="DejaVuSans-6e" d="M 3513 2113 
L 3513 0 
L 2938 0 
L 2938 2094 
Q 2938 2591 2744 2837 
Q 2550 3084 2163 3084 
Q 1697 3084 1428 2787 
Q 1159 2491 1159 1978 
L 1159 0 
L 581 0 
L 581 3500 
L 1159 3500 
L 1159 2956 
Q 1366 3272 1645 3428 
Q 1925 3584 2291 3584 
Q 2894 3584 3203 3211 
Q 3513 2838 3513 2113 
z
" transform="scale(0.015625)"/>
       <path id="DejaVuSans-6b" d="M 581 4863 
L 1159 4863 
L 1159 1991 
L 2875 3500 
L 3609 3500 
L 1753 1863 
L 3688 0 
L 2938 0 
L 1159 1709 
L 1159 0 
L 581 0 
L 581 4863 
z
" transform="scale(0.015625)"/>
       <path id="DejaVuSans-20" transform="scale(0.015625)"/>
       <path id="DejaVuSans-57" d="M 213 4666 
L 850 4666 
L 1831 722 
L 2809 4666 
L 3519 4666 
L 4500 722 
L 5478 4666 
L 6119 4666 
L 4947 0 
L 4153 0 
L 3169 4050 
L 2175 0 
L 1381 0 
L 213 4666 
z
" transform="scale(0.015625)"/>
       <path id="DejaVuSans-65" d="M 3597 1894 
L 3597 1613 
L 953 1613 
Q 991 1019 1311 708 
Q 1631 397 2203 397 
Q 2534 397 2845 478 
Q 3156 559 3463 722 
L 3463 178 
Q 3153 47 2828 -22 
Q 2503 -91 2169 -91 
Q 1331 -91 842 396 
Q 353 884 353 1716 
Q 353 2575 817 3079 
Q 1281 3584 2069 3584 
Q 2775 3584 3186 3129 
Q 3597 2675 3597 1894 
z
M 3022 2063 
Q 3016 2534 2758 2815 
Q 2500 3097 2075 3097 
Q 1594 3097 1305 2825 
Q 1016 2553 972 2059 
L 3022 2063 
z
" transform="scale(0.015625)"/>
       <path id="DejaVuSans-6c" d="M 603 4863 
L 1178 4863 
L 1178 0 
L 603 0 
L 603 4863 
z
" transform="scale(0.015625)"/>
      </defs>
      <use xlink:href="#DejaVuSans-46"/>
      <use xlink:href="#DejaVuSans-72" x="50.269531"/>
      <use xlink:href="#DejaVuSans-61" x="91.382812"/>
      <use xlink:href="#DejaVuSans-6e" x="152.662109"/>
      <use xlink:href="#DejaVuSans-6b" x="216.041016"/>
      <use xlink:href="#DejaVuSans-20" x="273.951172"/>
      <use xlink:href="#DejaVuSans-57" x="305.738281"/>
      <use xlink:href="#DejaVuSans-65" x="398.740234"/>
      <use xlink:href="#DejaVuSans-6c" x="460.263672"/>
      <use xlink:href="#DejaVuSans-6b" x="488.046875"/>
      <use xlink:href="#DejaVuSans-65" x="542.332031"/>
      <use xlink:href="#DejaVuSans-72" x="603.855469"/>
     </g>
    </g>
   </g>
   <g id="text_2">
    <g id="patch_3">
     <path d="M 445.807134 211.280457 
L 520.552134 211.280457 
L 520.552134 194.650145 
L 445.807134 194.650145 
z
" clip-path="url(#p20b5a6068c)" style="fill: #ffffff; opacity: 0.7; stroke: #000000; stroke-linejoin: miter"/>
    </g>
    <g clip-path="url(#p20b5a6068c)">
     <!-- Steve Buscemi -->
     <g transform="translate(449.767134 205.448739)scale(0.09 -0.09)">
      <defs>
       <path id="DejaVuSans-53" d="M 3425 4513 
L 3425 3897 
Q 3066 4069 2747 4153 
Q 2428 4238 2131 4238 
Q 1616 4238 1336 4038 
Q 1056 3838 1056 3469 
Q 1056 3159 1242 3001 
Q 1428 2844 1947 2747 
L 2328 2669 
Q 3034 2534 3370 2195 
Q 3706 1856 3706 1288 
Q 3706 609 3251 259 
Q 2797 -91 1919 -91 
Q 1588 -91 1214 -16 
Q 841 59 441 206 
L 441 856 
Q 825 641 1194 531 
Q 1563 422 1919 422 
Q 2459 422 2753 634 
Q 3047 847 3047 1241 
Q 3047 1584 2836 1778 
Q 2625 1972 2144 2069 
L 1759 2144 
Q 1053 2284 737 2584 
Q 422 2884 422 3419 
Q 422 4038 858 4394 
Q 1294 4750 2059 4750 
Q 2388 4750 2728 4690 
Q 3069 4631 3425 4513 
z
" transform="scale(0.015625)"/>
       <path id="DejaVuSans-74" d="M 1172 4494 
L 1172 3500 
L 2356 3500 
L 2356 3053 
L 1172 3053 
L 1172 1153 
Q 1172 725 1289 603 
Q 1406 481 1766 481 
L 2356 481 
L 2356 0 
L 1766 0 
Q 1100 0 847 248 
Q 594 497 594 1153 
L 594 3053 
L 172 3053 
L 172 3500 
L 594 3500 
L 594 4494 
L 1172 4494 
z
" transform="scale(0.015625)"/>
       <path id="DejaVuSans-76" d="M 191 3500 
L 800 3500 
L 1894 563 
L 2988 3500 
L 3597 3500 
L 2284 0 
L 1503 0 
L 191 3500 
z
" transform="scale(0.015625)"/>
       <path id="DejaVuSans-42" d="M 1259 2228 
L 1259 519 
L 2272 519 
Q 2781 519 3026 730 
Q 3272 941 3272 1375 
Q 3272 1813 3026 2020 
Q 2781 2228 2272 2228 
L 1259 2228 
z
M 1259 4147 
L 1259 2741 
L 2194 2741 
Q 2656 2741 2882 2914 
Q 3109 3088 3109 3444 
Q 3109 3797 2882 3972 
Q 2656 4147 2194 4147 
L 1259 4147 
z
M 628 4666 
L 2241 4666 
Q 2963 4666 3353 4366 
Q 3744 4066 3744 3513 
Q 3744 3084 3544 2831 
Q 3344 2578 2956 2516 
Q 3422 2416 3680 2098 
Q 3938 1781 3938 1306 
Q 3938 681 3513 340 
Q 3088 0 2303 0 
L 628 0 
L 628 4666 
z
" transform="scale(0.015625)"/>
       <path id="DejaVuSans-75" d="M 544 1381 
L 544 3500 
L 1119 3500 
L 1119 1403 
Q 1119 906 1312 657 
Q 1506 409 1894 409 
Q 2359 409 2629 706 
Q 2900 1003 2900 1516 
L 2900 3500 
L 3475 3500 
L 3475 0 
L 2900 0 
L 2900 538 
Q 2691 219 2414 64 
Q 2138 -91 1772 -91 
Q 1169 -91 856 284 
Q 544 659 544 1381 
z
M 1991 3584 
L 1991 3584 
z
" transform="scale(0.015625)"/>
       <path id="DejaVuSans-73" d="M 2834 3397 
L 2834 2853 
Q 2591 2978 2328 3040 
Q 2066 3103 1784 3103 
Q 1356 3103 1142 2972 
Q 928 2841 928 2578 
Q 928 2378 1081 2264 
Q 1234 2150 1697 2047 
L 1894 2003 
Q 2506 1872 2764 1633 
Q 3022 1394 3022 966 
Q 3022 478 2636 193 
Q 2250 -91 1575 -91 
Q 1294 -91 989 -36 
Q 684 19 347 128 
L 347 722 
Q 666 556 975 473 
Q 1284 391 1588 391 
Q 1994 391 2212 530 
Q 2431 669 2431 922 
Q 2431 1156 2273 1281 
Q 2116 1406 1581 1522 
L 1381 1569 
Q 847 1681 609 1914 
Q 372 2147 372 2553 
Q 372 3047 722 3315 
Q 1072 3584 1716 3584 
Q 2034 3584 2315 3537 
Q 2597 3491 2834 3397 
z
" transform="scale(0.015625)"/>
       <path id="DejaVuSans-63" d="M 3122 3366 
L 3122 2828 
Q 2878 2963 2633 3030 
Q 2388 3097 2138 3097 
Q 1578 3097 1268 2742 
Q 959 2388 959 1747 
Q 959 1106 1268 751 
Q 1578 397 2138 397 
Q 2388 397 2633 464 
Q 2878 531 3122 666 
L 3122 134 
Q 2881 22 2623 -34 
Q 2366 -91 2075 -91 
Q 1284 -91 818 406 
Q 353 903 353 1747 
Q 353 2603 823 3093 
Q 1294 3584 2113 3584 
Q 2378 3584 2631 3529 
Q 2884 3475 3122 3366 
z
" transform="scale(0.015625)"/>
       <path id="DejaVuSans-6d" d="M 3328 2828 
Q 3544 3216 3844 3400 
Q 4144 3584 4550 3584 
Q 5097 3584 5394 3201 
Q 5691 2819 5691 2113 
L 5691 0 
L 5113 0 
L 5113 2094 
Q 5113 2597 4934 2840 
Q 4756 3084 4391 3084 
Q 3944 3084 3684 2787 
Q 3425 2491 3425 1978 
L 3425 0 
L 2847 0 
L 2847 2094 
Q 2847 2600 2669 2842 
Q 2491 3084 2119 3084 
Q 1678 3084 1418 2786 
Q 1159 2488 1159 1978 
L 1159 0 
L 581 0 
L 581 3500 
L 1159 3500 
L 1159 2956 
Q 1356 3278 1631 3431 
Q 1906 3584 2284 3584 
Q 2666 3584 2933 3390 
Q 3200 3197 3328 2828 
z
" transform="scale(0.015625)"/>
       <path id="DejaVuSans-69" d="M 603 3500 
L 1178 3500 
L 1178 0 
L 603 0 
L 603 3500 
z
M 603 4863 
L 1178 4863 
L 1178 4134 
L 603 4134 
L 603 4863 
z
" transform="scale(0.015625)"/>
      </defs>
      <use xlink:href="#DejaVuSans-53"/>
      <use xlink:href="#DejaVuSans-74" x="63.476562"/>
      <use xlink:href="#DejaVuSans-65" x="102.685547"/>
      <use xlink:href="#DejaVuSans-76" x="164.208984"/>
      <use xlink:href="#DejaVuSans-65" x="223.388672"/>
      <use xlink:href="#DejaVuSans-20" x="284.912109"/>
      <use xlink:href="#DejaVuSans-42" x="316.699219"/>
      <use xlink:href="#DejaVuSans-75" x="385.302734"/>
      <use xlink:href="#DejaVuSans-73" x="448.681641"/>
      <use xlink:href="#DejaVuSans-63" x="500.78125"/>
      <use xlink:href="#DejaVuSans-65" x="555.761719"/>
      <use xlink:href="#DejaVuSans-6d" x="617.285156"/>
      <use xlink:href="#DejaVuSans-69" x="714.697266"/>
     </g>
    </g>
   </g>
   <g id="text_3">
    <g id="patch_4">
     <path d="M 386.415495 139.674145 
L 477.879401 139.674145 
L 477.879401 123.043833 
L 386.415495 123.043833 
z
" clip-path="url(#p20b5a6068c)" style="fill: #ffffff; opacity: 0.7; stroke: #000000; stroke-linejoin: miter"/>
    </g>
    <g clip-path="url(#p20b5a6068c)">
     <!-- Giancarlo Esposito -->
     <g transform="translate(390.375495 133.842427)scale(0.09 -0.09)">
      <defs>
       <path id="DejaVuSans-47" d="M 3809 666 
L 3809 1919 
L 2778 1919 
L 2778 2438 
L 4434 2438 
L 4434 434 
Q 4069 175 3628 42 
Q 3188 -91 2688 -91 
Q 1594 -91 976 548 
Q 359 1188 359 2328 
Q 359 3472 976 4111 
Q 1594 4750 2688 4750 
Q 3144 4750 3555 4637 
Q 3966 4525 4313 4306 
L 4313 3634 
Q 3963 3931 3569 4081 
Q 3175 4231 2741 4231 
Q 1884 4231 1454 3753 
Q 1025 3275 1025 2328 
Q 1025 1384 1454 906 
Q 1884 428 2741 428 
Q 3075 428 3337 486 
Q 3600 544 3809 666 
z
" transform="scale(0.015625)"/>
       <path id="DejaVuSans-6f" d="M 1959 3097 
Q 1497 3097 1228 2736 
Q 959 2375 959 1747 
Q 959 1119 1226 758 
Q 1494 397 1959 397 
Q 2419 397 2687 759 
Q 2956 1122 2956 1747 
Q 2956 2369 2687 2733 
Q 2419 3097 1959 3097 
z
M 1959 3584 
Q 2709 3584 3137 3096 
Q 3566 2609 3566 1747 
Q 3566 888 3137 398 
Q 2709 -91 1959 -91 
Q 1206 -91 779 398 
Q 353 888 353 1747 
Q 353 2609 779 3096 
Q 1206 3584 1959 3584 
z
" transform="scale(0.015625)"/>
       <path id="DejaVuSans-45" d="M 628 4666 
L 3578 4666 
L 3578 4134 
L 1259 4134 
L 1259 2753 
L 3481 2753 
L 3481 2222 
L 1259 2222 
L 1259 531 
L 3634 531 
L 3634 0 
L 628 0 
L 628 4666 
z
" transform="scale(0.015625)"/>
       <path id="DejaVuSans-70" d="M 1159 525 
L 1159 -1331 
L 581 -1331 
L 581 3500 
L 1159 3500 
L 1159 2969 
Q 1341 3281 1617 3432 
Q 1894 3584 2278 3584 
Q 2916 3584 3314 3078 
Q 3713 2572 3713 1747 
Q 3713 922 3314 415 
Q 2916 -91 2278 -91 
Q 1894 -91 1617 61 
Q 1341 213 1159 525 
z
M 3116 1747 
Q 3116 2381 2855 2742 
Q 2594 3103 2138 3103 
Q 1681 3103 1420 2742 
Q 1159 2381 1159 1747 
Q 1159 1113 1420 752 
Q 1681 391 2138 391 
Q 2594 391 2855 752 
Q 3116 1113 3116 1747 
z
" transform="scale(0.015625)"/>
      </defs>
      <use xlink:href="#DejaVuSans-47"/>
      <use xlink:href="#DejaVuSans-69" x="77.490234"/>
      <use xlink:href="#DejaVuSans-61" x="105.273438"/>
      <use xlink:href="#DejaVuSans-6e" x="166.552734"/>
      <use xlink:href="#DejaVuSans-63" x="229.931641"/>
      <use xlink:href="#DejaVuSans-61" x="284.912109"/>
      <use xlink:href="#DejaVuSans-72" x="346.191406"/>
      <use xlink:href="#DejaVuSans-6c" x="387.304688"/>
      <use xlink:href="#DejaVuSans-6f" x="415.087891"/>
      <use xlink:href="#DejaVuSans-20" x="476.269531"/>
      <use xlink:href="#DejaVuSans-45" x="508.056641"/>
      <use xlink:href="#DejaVuSans-73" x="571.240234"/>
      <use xlink:href="#DejaVuSans-70" x="623.339844"/>
      <use xlink:href="#DejaVuSans-6f" x="686.816406"/>
      <use xlink:href="#DejaVuSans-73" x="747.998047"/>
      <use xlink:href="#DejaVuSans-69" x="800.097656"/>
      <use xlink:href="#DejaVuSans-74" x="827.880859"/>
      <use xlink:href="#DejaVuSans-6f" x="867.089844"/>
     </g>
    </g>
   </g>
   <g id="text_4">
    <g id="patch_5">
     <path d="M 325.139627 95.419021 
L 388.776658 95.419021 
L 388.776658 78.788709 
L 325.139627 78.788709 
z
" clip-path="url(#p20b5a6068c)" style="fill: #ffffff; opacity: 0.7; stroke: #000000; stroke-linejoin: miter"/>
    </g>
    <g clip-path="url(#p20b5a6068c)">
     <!-- Tony Darrow -->
     <g transform="translate(329.099627 89.587302)scale(0.09 -0.09)">
      <defs>
       <path id="DejaVuSans-54" d="M -19 4666 
L 3928 4666 
L 3928 4134 
L 2272 4134 
L 2272 0 
L 1638 0 
L 1638 4134 
L -19 4134 
L -19 4666 
z
" transform="scale(0.015625)"/>
       <path id="DejaVuSans-79" d="M 2059 -325 
Q 1816 -950 1584 -1140 
Q 1353 -1331 966 -1331 
L 506 -1331 
L 506 -850 
L 844 -850 
Q 1081 -850 1212 -737 
Q 1344 -625 1503 -206 
L 1606 56 
L 191 3500 
L 800 3500 
L 1894 763 
L 2988 3500 
L 3597 3500 
L 2059 -325 
z
" transform="scale(0.015625)"/>
       <path id="DejaVuSans-44" d="M 1259 4147 
L 1259 519 
L 2022 519 
Q 2988 519 3436 956 
Q 3884 1394 3884 2338 
Q 3884 3275 3436 3711 
Q 2988 4147 2022 4147 
L 1259 4147 
z
M 628 4666 
L 1925 4666 
Q 3281 4666 3915 4102 
Q 4550 3538 4550 2338 
Q 4550 1131 3912 565 
Q 3275 0 1925 0 
L 628 0 
L 628 4666 
z
" transform="scale(0.015625)"/>
       <path id="DejaVuSans-77" d="M 269 3500 
L 844 3500 
L 1563 769 
L 2278 3500 
L 2956 3500 
L 3675 769 
L 4391 3500 
L 4966 3500 
L 4050 0 
L 3372 0 
L 2619 2869 
L 1863 0 
L 1184 0 
L 269 3500 
z
" transform="scale(0.015625)"/>
      </defs>
      <use xlink:href="#DejaVuSans-54"/>
      <use xlink:href="#DejaVuSans-6f" x="44.083984"/>
      <use xlink:href="#DejaVuSans-6e" x="105.265625"/>
      <use xlink:href="#DejaVuSans-79" x="168.644531"/>
      <use xlink:href="#DejaVuSans-20" x="227.824219"/>
      <use xlink:href="#DejaVuSans-44" x="259.611328"/>
      <use xlink:href="#DejaVuSans-61" x="336.613281"/>
      <use xlink:href="#DejaVuSans-72" x="397.892578"/>
      <use xlink:href="#DejaVuSans-72" x="437.255859"/>
      <use xlink:href="#DejaVuSans-6f" x="476.119141"/>
      <use xlink:href="#DejaVuSans-77" x="537.300781"/>
     </g>
    </g>
   </g>
   <g id="text_5">
    <g id="patch_6">
     <path d="M 212.193476 86.167181 
L 329.031757 86.167181 
L 329.031757 69.536868 
L 212.193476 69.536868 
z
" clip-path="url(#p20b5a6068c)" style="fill: #ffffff; opacity: 0.7; stroke: #000000; stroke-linejoin: miter"/>
    </g>
    <g clip-path="url(#p20b5a6068c)">
     <!-- Philip Seymour Hoffman -->
     <g transform="translate(216.153476 80.335462)scale(0.09 -0.09)">
      <defs>
       <path id="DejaVuSans-50" d="M 1259 4147 
L 1259 2394 
L 2053 2394 
Q 2494 2394 2734 2622 
Q 2975 2850 2975 3272 
Q 2975 3691 2734 3919 
Q 2494 4147 2053 4147 
L 1259 4147 
z
M 628 4666 
L 2053 4666 
Q 2838 4666 3239 4311 
Q 3641 3956 3641 3272 
Q 3641 2581 3239 2228 
Q 2838 1875 2053 1875 
L 1259 1875 
L 1259 0 
L 628 0 
L 628 4666 
z
" transform="scale(0.015625)"/>
       <path id="DejaVuSans-68" d="M 3513 2113 
L 3513 0 
L 2938 0 
L 2938 2094 
Q 2938 2591 2744 2837 
Q 2550 3084 2163 3084 
Q 1697 3084 1428 2787 
Q 1159 2491 1159 1978 
L 1159 0 
L 581 0 
L 581 4863 
L 1159 4863 
L 1159 2956 
Q 1366 3272 1645 3428 
Q 1925 3584 2291 3584 
Q 2894 3584 3203 3211 
Q 3513 2838 3513 2113 
z
" transform="scale(0.015625)"/>
       <path id="DejaVuSans-48" d="M 628 4666 
L 1259 4666 
L 1259 2753 
L 3553 2753 
L 3553 4666 
L 4184 4666 
L 4184 0 
L 3553 0 
L 3553 2222 
L 1259 2222 
L 1259 0 
L 628 0 
L 628 4666 
z
" transform="scale(0.015625)"/>
       <path id="DejaVuSans-66" d="M 2375 4863 
L 2375 4384 
L 1825 4384 
Q 1516 4384 1395 4259 
Q 1275 4134 1275 3809 
L 1275 3500 
L 2222 3500 
L 2222 3053 
L 1275 3053 
L 1275 0 
L 697 0 
L 697 3053 
L 147 3053 
L 147 3500 
L 697 3500 
L 697 3744 
Q 697 4328 969 4595 
Q 1241 4863 1831 4863 
L 2375 4863 
z
" transform="scale(0.015625)"/>
      </defs>
      <use xlink:href="#DejaVuSans-50"/>
      <use xlink:href="#DejaVuSans-68" x="60.302734"/>
      <use xlink:href="#DejaVuSans-69" x="123.681641"/>
      <use xlink:href="#DejaVuSans-6c" x="151.464844"/>
      <use xlink:href="#DejaVuSans-69" x="179.248047"/>
      <use xlink:href="#DejaVuSans-70" x="207.03125"/>
      <use xlink:href="#DejaVuSans-20" x="270.507812"/>
      <use xlink:href="#DejaVuSans-53" x="302.294922"/>
      <use xlink:href="#DejaVuSans-65" x="365.771484"/>
      <use xlink:href="#DejaVuSans-79" x="427.294922"/>
      <use xlink:href="#DejaVuSans-6d" x="486.474609"/>
      <use xlink:href="#DejaVuSans-6f" x="583.886719"/>
      <use xlink:href="#DejaVuSans-75" x="645.068359"/>
      <use xlink:href="#DejaVuSans-72" x="708.447266"/>
      <use xlink:href="#DejaVuSans-20" x="749.560547"/>
      <use xlink:href="#DejaVuSans-48" x="781.347656"/>
      <use xlink:href="#DejaVuSans-6f" x="856.542969"/>
      <use xlink:href="#DejaVuSans-66" x="917.724609"/>
      <use xlink:href="#DejaVuSans-66" x="952.929688"/>
      <use xlink:href="#DejaVuSans-6d" x="988.134766"/>
      <use xlink:href="#DejaVuSans-61" x="1085.546875"/>
      <use xlink:href="#DejaVuSans-6e" x="1146.826172"/>
     </g>
    </g>
   </g>
   <g id="text_6">
    <g id="patch_7">
     <path d="M 149.019478 113.518362 
L 227.062135 113.518362 
L 227.062135 96.888049 
L 149.019478 96.888049 
z
" clip-path="url(#p20b5a6068c)" style="fill: #ffffff; opacity: 0.7; stroke: #000000; stroke-linejoin: miter"/>
    </g>
    <g clip-path="url(#p20b5a6068c)">
     <!-- Anjelica Huston -->
     <g transform="translate(152.979478 107.686643)scale(0.09 -0.09)">
      <defs>
       <path id="DejaVuSans-41" d="M 2188 4044 
L 1331 1722 
L 3047 1722 
L 2188 4044 
z
M 1831 4666 
L 2547 4666 
L 4325 0 
L 3669 0 
L 3244 1197 
L 1141 1197 
L 716 0 
L 50 0 
L 1831 4666 
z
" transform="scale(0.015625)"/>
       <path id="DejaVuSans-6a" d="M 603 3500 
L 1178 3500 
L 1178 -63 
Q 1178 -731 923 -1031 
Q 669 -1331 103 -1331 
L -116 -1331 
L -116 -844 
L 38 -844 
Q 366 -844 484 -692 
Q 603 -541 603 -63 
L 603 3500 
z
M 603 4863 
L 1178 4863 
L 1178 4134 
L 603 4134 
L 603 4863 
z
" transform="scale(0.015625)"/>
      </defs>
      <use xlink:href="#DejaVuSans-41"/>
      <use xlink:href="#DejaVuSans-6e" x="68.408203"/>
      <use xlink:href="#DejaVuSans-6a" x="131.787109"/>
      <use xlink:href="#DejaVuSans-65" x="159.570312"/>
      <use xlink:href="#DejaVuSans-6c" x="221.09375"/>
      <use xlink:href="#DejaVuSans-69" x="248.876953"/>
      <use xlink:href="#DejaVuSans-63" x="276.660156"/>
      <use xlink:href="#DejaVuSans-61" x="331.640625"/>
      <use xlink:href="#DejaVuSans-20" x="392.919922"/>
      <use xlink:href="#DejaVuSans-48" x="424.707031"/>
      <use xlink:href="#DejaVuSans-75" x="499.902344"/>
      <use xlink:href="#DejaVuSans-73" x="563.28125"/>
      <use xlink:href="#DejaVuSans-74" x="615.380859"/>
      <use xlink:href="#DejaVuSans-6f" x="654.589844"/>
      <use xlink:href="#DejaVuSans-6e" x="715.771484"/>
     </g>
    </g>
   </g>
   <g id="text_7">
    <g id="patch_8">
     <path d="M 81.655373 172.743283 
L 165.384905 172.743283 
L 165.384905 156.11297 
L 81.655373 156.11297 
z
" clip-path="url(#p20b5a6068c)" style="fill: #ffffff; opacity: 0.7; stroke: #000000; stroke-linejoin: miter"/>
    </g>
    <g clip-path="url(#p20b5a6068c)">
     <!-- James Gandolfini -->
     <g transform="translate(85.615373 166.911564)scale(0.09 -0.09)">
      <defs>
       <path id="DejaVuSans-4a" d="M 628 4666 
L 1259 4666 
L 1259 325 
Q 1259 -519 939 -900 
Q 619 -1281 -91 -1281 
L -331 -1281 
L -331 -750 
L -134 -750 
Q 284 -750 456 -515 
Q 628 -281 628 325 
L 628 4666 
z
" transform="scale(0.015625)"/>
       <path id="DejaVuSans-64" d="M 2906 2969 
L 2906 4863 
L 3481 4863 
L 3481 0 
L 2906 0 
L 2906 525 
Q 2725 213 2448 61 
Q 2172 -91 1784 -91 
Q 1150 -91 751 415 
Q 353 922 353 1747 
Q 353 2572 751 3078 
Q 1150 3584 1784 3584 
Q 2172 3584 2448 3432 
Q 2725 3281 2906 2969 
z
M 947 1747 
Q 947 1113 1208 752 
Q 1469 391 1925 391 
Q 2381 391 2643 752 
Q 2906 1113 2906 1747 
Q 2906 2381 2643 2742 
Q 2381 3103 1925 3103 
Q 1469 3103 1208 2742 
Q 947 2381 947 1747 
z
" transform="scale(0.015625)"/>
      </defs>
      <use xlink:href="#DejaVuSans-4a"/>
      <use xlink:href="#DejaVuSans-61" x="29.492188"/>
      <use xlink:href="#DejaVuSans-6d" x="90.771484"/>
      <use xlink:href="#DejaVuSans-65" x="188.183594"/>
      <use xlink:href="#DejaVuSans-73" x="249.707031"/>
      <use xlink:href="#DejaVuSans-20" x="301.806641"/>
      <use xlink:href="#DejaVuSans-47" x="333.59375"/>
      <use xlink:href="#DejaVuSans-61" x="411.083984"/>
      <use xlink:href="#DejaVuSans-6e" x="472.363281"/>
      <use xlink:href="#DejaVuSans-64" x="535.742188"/>
      <use xlink:href="#DejaVuSans-6f" x="599.21875"/>
      <use xlink:href="#DejaVuSans-6c" x="660.400391"/>
      <use xlink:href="#DejaVuSans-66" x="688.183594"/>
      <use xlink:href="#DejaVuSans-69" x="723.388672"/>
      <use xlink:href="#DejaVuSans-6e" x="751.171875"/>
      <use xlink:href="#DejaVuSans-69" x="814.550781"/>
     </g>
    </g>
   </g>
   <g id="text_8">
    <g id="patch_9">
     <path d="M 56.405157 253.601441 
L 120.008439 253.601441 
L 120.008439 236.971129 
L 56.405157 236.971129 
z
" clip-path="url(#p20b5a6068c)" style="fill: #ffffff; opacity: 0.7; stroke: #000000; stroke-linejoin: miter"/>
    </g>
    <g clip-path="url(#p20b5a6068c)">
     <!-- Woody Allen -->
     <g transform="translate(60.365157 247.769723)scale(0.09 -0.09)">
      <use xlink:href="#DejaVuSans-57"/>
      <use xlink:href="#DejaVuSans-6f" x="93.001953"/>
      <use xlink:href="#DejaVuSans-6f" x="154.183594"/>
      <use xlink:href="#DejaVuSans-64" x="215.365234"/>
      <use xlink:href="#DejaVuSans-79" x="278.841797"/>
      <use xlink:href="#DejaVuSans-20" x="338.021484"/>
      <use xlink:href="#DejaVuSans-41" x="369.808594"/>
      <use xlink:href="#DejaVuSans-6c" x="438.216797"/>
      <use xlink:href="#DejaVuSans-6c" x="466"/>
      <use xlink:href="#DejaVuSans-65" x="493.783203"/>
      <use xlink:href="#DejaVuSans-6e" x="555.306641"/>
     </g>
    </g>
   </g>
   <g id="text_9">
    <g id="patch_10">
     <path d="M 57.603998 342.111703 
L 118.809623 342.111703 
L 118.809623 325.48139 
L 57.603998 325.48139 
z
" clip-path="url(#p20b5a6068c)" style="fill: #ffffff; opacity: 0.7; stroke: #000000; stroke-linejoin: miter"/>
    </g>
    <g clip-path="url(#p20b5a6068c)">
     <!-- Julie Kavner -->
     <g transform="translate(61.563998 336.279984)scale(0.09 -0.09)">
      <defs>
       <path id="DejaVuSans-4b" d="M 628 4666 
L 1259 4666 
L 1259 2694 
L 3353 4666 
L 4166 4666 
L 1850 2491 
L 4331 0 
L 3500 0 
L 1259 2247 
L 1259 0 
L 628 0 
L 628 4666 
z
" transform="scale(0.015625)"/>
      </defs>
      <use xlink:href="#DejaVuSans-4a"/>
      <use xlink:href="#DejaVuSans-75" x="29.492188"/>
      <use xlink:href="#DejaVuSans-6c" x="92.871094"/>
      <use xlink:href="#DejaVuSans-69" x="120.654297"/>
      <use xlink:href="#DejaVuSans-65" x="148.4375"/>
      <use xlink:href="#DejaVuSans-20" x="209.960938"/>
      <use xlink:href="#DejaVuSans-4b" x="241.748047"/>
      <use xlink:href="#DejaVuSans-61" x="305.574219"/>
      <use xlink:href="#DejaVuSans-76" x="366.853516"/>
      <use xlink:href="#DejaVuSans-6e" x="426.033203"/>
      <use xlink:href="#DejaVuSans-65" x="489.412109"/>
      <use xlink:href="#DejaVuSans-72" x="550.935547"/>
     </g>
    </g>
   </g>
   <g id="text_10">
    <g id="patch_11">
     <path d="M 87.068745 422.969836 
L 159.971558 422.969836 
L 159.971558 406.339524 
L 87.068745 406.339524 
z
" clip-path="url(#p20b5a6068c)" style="fill: #ffffff; opacity: 0.7; stroke: #000000; stroke-linejoin: miter"/>
    </g>
    <g clip-path="url(#p20b5a6068c)">
     <!-- Jack Nicholson -->
     <g transform="translate(91.028745 417.138117)scale(0.09 -0.09)">
      <defs>
       <path id="DejaVuSans-4e" d="M 628 4666 
L 1478 4666 
L 3547 763 
L 3547 4666 
L 4159 4666 
L 4159 0 
L 3309 0 
L 1241 3903 
L 1241 0 
L 628 0 
L 628 4666 
z
" transform="scale(0.015625)"/>
      </defs>
      <use xlink:href="#DejaVuSans-4a"/>
      <use xlink:href="#DejaVuSans-61" x="29.492188"/>
      <use xlink:href="#DejaVuSans-63" x="90.771484"/>
      <use xlink:href="#DejaVuSans-6b" x="145.751953"/>
      <use xlink:href="#DejaVuSans-20" x="203.662109"/>
      <use xlink:href="#DejaVuSans-4e" x="235.449219"/>
      <use xlink:href="#DejaVuSans-69" x="310.253906"/>
      <use xlink:href="#DejaVuSans-63" x="338.037109"/>
      <use xlink:href="#DejaVuSans-68" x="393.017578"/>
      <use xlink:href="#DejaVuSans-6f" x="456.396484"/>
      <use xlink:href="#DejaVuSans-6c" x="517.578125"/>
      <use xlink:href="#DejaVuSans-73" x="545.361328"/>
      <use xlink:href="#DejaVuSans-6f" x="597.460938"/>
      <use xlink:href="#DejaVuSans-6e" x="658.642578"/>
     </g>
    </g>
   </g>
   <g id="text_11">
    <g id="patch_12">
     <path d="M 152.533728 482.194757 
L 223.547947 482.194757 
L 223.547947 465.564444 
L 152.533728 465.564444 
z
" clip-path="url(#p20b5a6068c)" style="fill: #ffffff; opacity: 0.7; stroke: #000000; stroke-linejoin: miter"/>
    </g>
    <g clip-path="url(#p20b5a6068c)">
     <!-- Sean Connery -->
     <g transform="translate(156.493728 476.363038)scale(0.09 -0.09)">
      <defs>
       <path id="DejaVuSans-43" d="M 4122 4306 
L 4122 3641 
Q 3803 3938 3442 4084 
Q 3081 4231 2675 4231 
Q 1875 4231 1450 3742 
Q 1025 3253 1025 2328 
Q 1025 1406 1450 917 
Q 1875 428 2675 428 
Q 3081 428 3442 575 
Q 3803 722 4122 1019 
L 4122 359 
Q 3791 134 3420 21 
Q 3050 -91 2638 -91 
Q 1578 -91 968 557 
Q 359 1206 359 2328 
Q 359 3453 968 4101 
Q 1578 4750 2638 4750 
Q 3056 4750 3426 4639 
Q 3797 4528 4122 4306 
z
" transform="scale(0.015625)"/>
      </defs>
      <use xlink:href="#DejaVuSans-53"/>
      <use xlink:href="#DejaVuSans-65" x="63.476562"/>
      <use xlink:href="#DejaVuSans-61" x="125"/>
      <use xlink:href="#DejaVuSans-6e" x="186.279297"/>
      <use xlink:href="#DejaVuSans-20" x="249.658203"/>
      <use xlink:href="#DejaVuSans-43" x="281.445312"/>
      <use xlink:href="#DejaVuSans-6f" x="351.269531"/>
      <use xlink:href="#DejaVuSans-6e" x="412.451172"/>
      <use xlink:href="#DejaVuSans-6e" x="475.830078"/>
      <use xlink:href="#DejaVuSans-65" x="539.208984"/>
      <use xlink:href="#DejaVuSans-72" x="600.732422"/>
      <use xlink:href="#DejaVuSans-79" x="641.845703"/>
     </g>
    </g>
   </g>
   <g id="text_12">
    <g id="patch_13">
     <path d="M 237.974998 509.545925 
L 303.25031 509.545925 
L 303.25031 492.915613 
L 237.974998 492.915613 
z
" clip-path="url(#p20b5a6068c)" style="fill: #ffffff; opacity: 0.7; stroke: #000000; stroke-linejoin: miter"/>
    </g>
    <g clip-path="url(#p20b5a6068c)">
     <!-- Johnny Depp -->
     <g transform="translate(241.934998 503.714207)scale(0.09 -0.09)">
      <use xlink:href="#DejaVuSans-4a"/>
      <use xlink:href="#DejaVuSans-6f" x="29.492188"/>
      <use xlink:href="#DejaVuSans-68" x="90.673828"/>
      <use xlink:href="#DejaVuSans-6e" x="154.052734"/>
      <use xlink:href="#DejaVuSans-6e" x="217.431641"/>
      <use xlink:href="#DejaVuSans-79" x="280.810547"/>
      <use xlink:href="#DejaVuSans-20" x="339.990234"/>
      <use xlink:href="#DejaVuSans-44" x="371.777344"/>
      <use xlink:href="#DejaVuSans-65" x="448.779297"/>
      <use xlink:href="#DejaVuSans-70" x="510.302734"/>
      <use xlink:href="#DejaVuSans-70" x="573.779297"/>
     </g>
    </g>
   </g>
   <g id="text_13">
    <g id="patch_14">
     <path d="M 332.566064 500.294072 
L 381.350283 500.294072 
L 381.350283 483.66376 
L 332.566064 483.66376 
z
" clip-path="url(#p20b5a6068c)" style="fill: #ffffff; opacity: 0.7; stroke: #000000; stroke-linejoin: miter"/>
    </g>
    <g clip-path="url(#p20b5a6068c)">
     <!-- Neil Ross -->
     <g transform="translate(336.526064 494.462354)scale(0.09 -0.09)">
      <defs>
       <path id="DejaVuSans-52" d="M 2841 2188 
Q 3044 2119 3236 1894 
Q 3428 1669 3622 1275 
L 4263 0 
L 3584 0 
L 2988 1197 
Q 2756 1666 2539 1819 
Q 2322 1972 1947 1972 
L 1259 1972 
L 1259 0 
L 628 0 
L 628 4666 
L 2053 4666 
Q 2853 4666 3247 4331 
Q 3641 3997 3641 3322 
Q 3641 2881 3436 2590 
Q 3231 2300 2841 2188 
z
M 1259 4147 
L 1259 2491 
L 2053 2491 
Q 2509 2491 2742 2702 
Q 2975 2913 2975 3322 
Q 2975 3731 2742 3939 
Q 2509 4147 2053 4147 
L 1259 4147 
z
" transform="scale(0.015625)"/>
      </defs>
      <use xlink:href="#DejaVuSans-4e"/>
      <use xlink:href="#DejaVuSans-65" x="74.804688"/>
      <use xlink:href="#DejaVuSans-69" x="136.328125"/>
      <use xlink:href="#DejaVuSans-6c" x="164.111328"/>
      <use xlink:href="#DejaVuSans-20" x="191.894531"/>
      <use xlink:href="#DejaVuSans-52" x="223.681641"/>
      <use xlink:href="#DejaVuSans-6f" x="288.664062"/>
      <use xlink:href="#DejaVuSans-73" x="349.845703"/>
      <use xlink:href="#DejaVuSans-73" x="401.945312"/>
     </g>
    </g>
   </g>
   <g id="text_14">
    <g id="patch_15">
     <path d="M 387.406235 456.038923 
L 476.888735 456.038923 
L 476.888735 439.40861 
L 387.406235 439.40861 
z
" clip-path="url(#p20b5a6068c)" style="fill: #ffffff; opacity: 0.7; stroke: #000000; stroke-linejoin: miter"/>
    </g>
    <g clip-path="url(#p20b5a6068c)">
     <!-- Samuel L. Jackson -->
     <g transform="translate(391.366235 450.207204)scale(0.09 -0.09)">
      <defs>
       <path id="DejaVuSans-4c" d="M 628 4666 
L 1259 4666 
L 1259 531 
L 3531 531 
L 3531 0 
L 628 0 
L 628 4666 
z
" transform="scale(0.015625)"/>
       <path id="DejaVuSans-2e" d="M 684 794 
L 1344 794 
L 1344 0 
L 684 0 
L 684 794 
z
" transform="scale(0.015625)"/>
      </defs>
      <use xlink:href="#DejaVuSans-53"/>
      <use xlink:href="#DejaVuSans-61" x="63.476562"/>
      <use xlink:href="#DejaVuSans-6d" x="124.755859"/>
      <use xlink:href="#DejaVuSans-75" x="222.167969"/>
      <use xlink:href="#DejaVuSans-65" x="285.546875"/>
      <use xlink:href="#DejaVuSans-6c" x="347.070312"/>
      <use xlink:href="#DejaVuSans-20" x="374.853516"/>
      <use xlink:href="#DejaVuSans-4c" x="406.640625"/>
      <use xlink:href="#DejaVuSans-2e" x="462.353516"/>
      <use xlink:href="#DejaVuSans-20" x="494.140625"/>
      <use xlink:href="#DejaVuSans-4a" x="525.927734"/>
      <use xlink:href="#DejaVuSans-61" x="555.419922"/>
      <use xlink:href="#DejaVuSans-63" x="616.699219"/>
      <use xlink:href="#DejaVuSans-6b" x="671.679688"/>
      <use xlink:href="#DejaVuSans-73" x="729.589844"/>
      <use xlink:href="#DejaVuSans-6f" x="781.689453"/>
      <use xlink:href="#DejaVuSans-6e" x="842.871094"/>
     </g>
    </g>
   </g>
   <g id="text_15">
    <g id="patch_16">
     <path d="M 434.756143 384.432617 
L 531.603175 384.432617 
L 531.603175 367.802304 
L 434.756143 367.802304 
z
" clip-path="url(#p20b5a6068c)" style="fill: #ffffff; opacity: 0.7; stroke: #000000; stroke-linejoin: miter"/>
    </g>
    <g clip-path="url(#p20b5a6068c)">
     <!-- Penelope Ann Miller -->
     <g transform="translate(438.716143 378.600898)scale(0.09 -0.09)">
      <defs>
       <path id="DejaVuSans-4d" d="M 628 4666 
L 1569 4666 
L 2759 1491 
L 3956 4666 
L 4897 4666 
L 4897 0 
L 4281 0 
L 4281 4097 
L 3078 897 
L 2444 897 
L 1241 4097 
L 1241 0 
L 628 0 
L 628 4666 
z
" transform="scale(0.015625)"/>
      </defs>
      <use xlink:href="#DejaVuSans-50"/>
      <use xlink:href="#DejaVuSans-65" x="56.677734"/>
      <use xlink:href="#DejaVuSans-6e" x="118.201172"/>
      <use xlink:href="#DejaVuSans-65" x="181.580078"/>
      <use xlink:href="#DejaVuSans-6c" x="243.103516"/>
      <use xlink:href="#DejaVuSans-6f" x="270.886719"/>
      <use xlink:href="#DejaVuSans-70" x="332.068359"/>
      <use xlink:href="#DejaVuSans-65" x="395.544922"/>
      <use xlink:href="#DejaVuSans-20" x="457.068359"/>
      <use xlink:href="#DejaVuSans-41" x="488.855469"/>
      <use xlink:href="#DejaVuSans-6e" x="557.263672"/>
      <use xlink:href="#DejaVuSans-6e" x="620.642578"/>
      <use xlink:href="#DejaVuSans-20" x="684.021484"/>
      <use xlink:href="#DejaVuSans-4d" x="715.808594"/>
      <use xlink:href="#DejaVuSans-69" x="802.087891"/>
      <use xlink:href="#DejaVuSans-6c" x="829.871094"/>
      <use xlink:href="#DejaVuSans-6c" x="857.654297"/>
      <use xlink:href="#DejaVuSans-65" x="885.4375"/>
      <use xlink:href="#DejaVuSans-72" x="946.960938"/>
     </g>
    </g>
   </g>
   <g id="text_16">
    <!-- Impactful actors for Indie genre -->
    <g transform="translate(193.130625 4.8)scale(0.12 -0.12)">
     <defs>
      <path id="DejaVuSans-49" d="M 628 4666 
L 1259 4666 
L 1259 0 
L 628 0 
L 628 4666 
z
" transform="scale(0.015625)"/>
      <path id="DejaVuSans-67" d="M 2906 1791 
Q 2906 2416 2648 2759 
Q 2391 3103 1925 3103 
Q 1463 3103 1205 2759 
Q 947 2416 947 1791 
Q 947 1169 1205 825 
Q 1463 481 1925 481 
Q 2391 481 2648 825 
Q 2906 1169 2906 1791 
z
M 3481 434 
Q 3481 -459 3084 -895 
Q 2688 -1331 1869 -1331 
Q 1566 -1331 1297 -1286 
Q 1028 -1241 775 -1147 
L 775 -588 
Q 1028 -725 1275 -790 
Q 1522 -856 1778 -856 
Q 2344 -856 2625 -561 
Q 2906 -266 2906 331 
L 2906 616 
Q 2728 306 2450 153 
Q 2172 0 1784 0 
Q 1141 0 747 490 
Q 353 981 353 1791 
Q 353 2603 747 3093 
Q 1141 3584 1784 3584 
Q 2172 3584 2450 3431 
Q 2728 3278 2906 2969 
L 2906 3500 
L 3481 3500 
L 3481 434 
z
" transform="scale(0.015625)"/>
     </defs>
     <use xlink:href="#DejaVuSans-49"/>
     <use xlink:href="#DejaVuSans-6d" x="29.492188"/>
     <use xlink:href="#DejaVuSans-70" x="126.904297"/>
     <use xlink:href="#DejaVuSans-61" x="190.380859"/>
     <use xlink:href="#DejaVuSans-63" x="251.660156"/>
     <use xlink:href="#DejaVuSans-74" x="306.640625"/>
     <use xlink:href="#DejaVuSans-66" x="345.849609"/>
     <use xlink:href="#DejaVuSans-75" x="381.054688"/>
     <use xlink:href="#DejaVuSans-6c" x="444.433594"/>
     <use xlink:href="#DejaVuSans-20" x="472.216797"/>
     <use xlink:href="#DejaVuSans-61" x="504.003906"/>
     <use xlink:href="#DejaVuSans-63" x="565.283203"/>
     <use xlink:href="#DejaVuSans-74" x="620.263672"/>
     <use xlink:href="#DejaVuSans-6f" x="659.472656"/>
     <use xlink:href="#DejaVuSans-72" x="720.654297"/>
     <use xlink:href="#DejaVuSans-73" x="761.767578"/>
     <use xlink:href="#DejaVuSans-20" x="813.867188"/>
     <use xlink:href="#DejaVuSans-66" x="845.654297"/>
     <use xlink:href="#DejaVuSans-6f" x="880.859375"/>
     <use xlink:href="#DejaVuSans-72" x="942.041016"/>
     <use xlink:href="#DejaVuSans-20" x="983.154297"/>
     <use xlink:href="#DejaVuSans-49" x="1014.941406"/>
     <use xlink:href="#DejaVuSans-6e" x="1044.433594"/>
     <use xlink:href="#DejaVuSans-64" x="1107.8125"/>
     <use xlink:href="#DejaVuSans-69" x="1171.289062"/>
     <use xlink:href="#DejaVuSans-65" x="1199.072266"/>
     <use xlink:href="#DejaVuSans-20" x="1260.595703"/>
     <use xlink:href="#DejaVuSans-67" x="1292.382812"/>
     <use xlink:href="#DejaVuSans-65" x="1355.859375"/>
     <use xlink:href="#DejaVuSans-6e" x="1417.382812"/>
     <use xlink:href="#DejaVuSans-72" x="1480.761719"/>
     <use xlink:href="#DejaVuSans-65" x="1519.625"/>
    </g>
   </g>
  </g>
 </g>
 <defs>
  <clipPath id="p20b5a6068c">
   <rect x="10.8" y="10.8" width="554.4" height="554.4"/>
  </clipPath>
 </defs>
</svg>
