<?xml version="1.0" encoding="utf-8" standalone="no"?>
<!DOCTYPE svg PUBLIC "-//W3C//DTD SVG 1.1//EN"
  "http://www.w3.org/Graphics/SVG/1.1/DTD/svg11.dtd">
<svg xmlns:xlink="http://www.w3.org/1999/xlink" width="576pt" height="576pt" viewBox="0 0 576 576" xmlns="http://www.w3.org/2000/svg" version="1.1">
 <metadata>
  <rdf:RDF xmlns:dc="http://purl.org/dc/elements/1.1/" xmlns:cc="http://creativecommons.org/ns#" xmlns:rdf="http://www.w3.org/1999/02/22-rdf-syntax-ns#">
   <cc:Work>
    <dc:type rdf:resource="http://purl.org/dc/dcmitype/StillImage"/>
    <dc:date>2022-12-22T16:12:34.710652</dc:date>
    <dc:format>image/svg+xml</dc:format>
    <dc:creator>
     <cc:Agent>
      <dc:title>Matplotlib v3.5.2, https://matplotlib.org/</dc:title>
     </cc:Agent>
    </dc:creator>
   </cc:Work>
  </rdf:RDF>
 </metadata>
 <defs>
  <style type="text/css">*{stroke-linejoin: round; stroke-linecap: butt}</style>
 </defs>
 <g id="figure_1">
  <g id="patch_1">
   <path d="M 0 576 
L 576 576 
L 576 0 
L 0 0 
z
" style="fill: #ffffff"/>
  </g>
  <g id="axes_1">
   <g id="LineCollection_1">
    <path d="M 485.652438 288 
L 174.085816 473.680446 
" clip-path="url(#p1ddff56d52)" style="fill: none; stroke: #000000; stroke-opacity: 0.3; stroke-width: 5"/>
   </g>
   <g id="PathCollection_1">
    <path d="M 485.652438 315.386128 
C 492.915324 315.386128 499.881719 312.500553 505.017355 307.364917 
C 510.152991 302.229281 513.038566 295.262886 513.038566 288 
C 513.038566 280.737114 510.152991 273.770719 505.017355 268.635083 
C 499.881719 263.499447 492.915324 260.613872 485.652438 260.613872 
C 478.389552 260.613872 471.423157 263.499447 466.287521 268.635083 
C 461.151885 273.770719 458.26631 280.737114 458.26631 288 
C 458.26631 295.262886 461.151885 302.229281 466.287521 307.364917 
C 471.423157 312.500553 478.389552 315.386128 485.652438 315.386128 
z
" clip-path="url(#p1ddff56d52)" style="fill: #d62728; fill-opacity: 0.99; stroke: #d62728; stroke-opacity: 0.99"/>
    <path d="M 467.694865 226.542266 
C 474.523515 226.542266 481.073401 223.829215 485.901986 219.00063 
C 490.730571 214.172045 493.443623 207.622159 493.443623 200.793508 
C 493.443623 193.964858 490.730571 187.414972 485.901986 182.586387 
C 481.073401 177.757802 474.523515 175.044751 467.694865 175.044751 
C 460.866214 175.044751 454.316328 177.757802 449.487743 182.586387 
C 444.659158 187.414972 441.946107 193.964858 441.946107 200.793508 
C 441.946107 207.622159 444.659158 214.172045 449.487743 219.00063 
C 454.316328 223.829215 460.866214 226.542266 467.694865 226.542266 
z
" clip-path="url(#p1ddff56d52)" style="fill: #d62728; fill-opacity: 0.99; stroke: #d62728; stroke-opacity: 0.99"/>
    <path d="M 416.927186 152.336412 
C 423.204705 152.336412 429.225958 149.842327 433.664835 145.403451 
C 438.103711 140.964574 440.597796 134.943321 440.597796 128.665802 
C 440.597796 122.388282 438.103711 116.367029 433.664835 111.928152 
C 429.225958 107.489276 423.204705 104.995191 416.927186 104.995191 
C 410.649666 104.995191 404.628413 107.489276 400.189536 111.928152 
C 395.75066 116.367029 393.256575 122.388282 393.256575 128.665802 
C 393.256575 134.943321 395.75066 140.964574 400.189536 145.403451 
C 404.628413 149.842327 410.649666 152.336412 416.927186 152.336412 
z
" clip-path="url(#p1ddff56d52)" style="fill: #d62728; fill-opacity: 0.99; stroke: #d62728; stroke-opacity: 0.99"/>
    <path d="M 342.127598 107.241533 
C 348.26787 107.241533 354.15748 104.801977 358.499308 100.460149 
C 362.841137 96.11832 365.280693 90.22871 365.280693 84.088438 
C 365.280693 77.948165 362.841137 72.058555 358.499308 67.716727 
C 354.15748 63.374898 348.26787 60.935342 342.127598 60.935342 
C 335.987325 60.935342 330.097715 63.374898 325.755887 67.716727 
C 321.414058 72.058555 318.974502 77.948165 318.974502 84.088438 
C 318.974502 90.22871 321.414058 96.11832 325.755887 100.460149 
C 330.097715 104.801977 335.987325 107.241533 342.127598 107.241533 
z
" clip-path="url(#p1ddff56d52)" style="fill: #d62728; fill-opacity: 0.99; stroke: #d62728; stroke-opacity: 0.99"/>
    <path d="M 256.229613 97.06359 
C 262.142146 97.06359 267.813313 94.714516 271.994106 90.533723 
C 276.174898 86.352931 278.523972 80.681764 278.523972 74.769231 
C 278.523972 68.856698 276.174898 63.185531 271.994106 59.004738 
C 267.813313 54.823946 262.142146 52.474872 256.229613 52.474872 
C 250.31708 52.474872 244.645913 54.823946 240.465121 59.004738 
C 236.284328 63.185531 233.935254 68.856698 233.935254 74.769231 
C 233.935254 80.681764 236.284328 86.352931 240.465121 90.533723 
C 244.645913 94.714516 250.31708 97.06359 256.229613 97.06359 
z
" clip-path="url(#p1ddff56d52)" style="fill: #d62728; fill-opacity: 0.99; stroke: #d62728; stroke-opacity: 0.99"/>
    <path d="M 174.085785 123.682214 
C 179.751225 123.682214 185.185386 121.431311 189.191457 117.425239 
C 193.197528 113.419168 195.448431 107.985007 195.448431 102.319567 
C 195.448431 96.654127 193.197528 91.219966 189.191457 87.213895 
C 185.185386 83.207824 179.751225 80.956921 174.085785 80.956921 
C 168.420345 80.956921 162.986184 83.207824 158.980113 87.213895 
C 154.974042 91.219966 152.723138 96.654127 152.723138 102.319567 
C 152.723138 107.985007 154.974042 113.419168 158.980113 117.425239 
C 162.986184 121.431311 168.420345 123.682214 174.085785 123.682214 
z
" clip-path="url(#p1ddff56d52)" style="fill: #d62728; fill-opacity: 0.99; stroke: #d62728; stroke-opacity: 0.99"/>
    <path d="M 109.899538 183.20937 
C 115.530765 183.20937 120.93211 180.97206 124.91399 176.990181 
C 128.895869 173.008301 131.133179 167.606956 131.133179 161.975729 
C 131.133179 156.344501 128.895869 150.943156 124.91399 146.961277 
C 120.93211 142.979398 115.530765 140.742087 109.899538 140.742087 
C 104.26831 140.742087 98.866965 142.979398 94.885086 146.961277 
C 90.903206 150.943156 88.665896 156.344501 88.665896 161.975729 
C 88.665896 167.606956 90.903206 173.008301 94.885086 176.990181 
C 98.866965 180.97206 104.26831 183.20937 109.899538 183.20937 
z
" clip-path="url(#p1ddff56d52)" style="fill: #d62728; fill-opacity: 0.99; stroke: #d62728; stroke-opacity: 0.99"/>
    <path d="M 74.769231 264.402573 
C 80.333172 264.402573 85.669977 262.191995 89.604277 258.257695 
C 93.538577 254.323395 95.749154 248.98659 95.749154 243.422649 
C 95.749154 237.858708 93.538577 232.521903 89.604277 228.587603 
C 85.669977 224.653302 80.333172 222.442725 74.769231 222.442725 
C 69.20529 222.442725 63.868485 224.653302 59.934184 228.587603 
C 55.999884 232.521903 53.789307 237.858708 53.789307 243.422649 
C 53.789307 248.98659 55.999884 254.323395 59.934184 258.257695 
C 63.868485 262.191995 69.20529 264.402573 74.769231 264.402573 
z
" clip-path="url(#p1ddff56d52)" style="fill: #d62728; fill-opacity: 0.99; stroke: #d62728; stroke-opacity: 0.99"/>
    <path d="M 74.769243 353.447969 
C 80.304185 353.447969 85.613176 351.248913 89.526971 347.335118 
C 93.440767 343.421322 95.639822 338.112332 95.639822 332.577389 
C 95.639822 327.042447 93.440767 321.733457 89.526971 317.819661 
C 85.613176 313.905866 80.304185 311.70681 74.769243 311.70681 
C 69.234301 311.70681 63.92531 313.905866 60.011515 317.819661 
C 56.09772 321.733457 53.898664 327.042447 53.898664 332.577389 
C 53.898664 338.112332 56.09772 343.421322 60.011515 347.335118 
C 63.92531 351.248913 69.234301 353.447969 74.769243 353.447969 
z
" clip-path="url(#p1ddff56d52)" style="fill: #d62728; fill-opacity: 0.99; stroke: #d62728; stroke-opacity: 0.99"/>
    <path d="M 109.89955 434.795849 
C 115.408233 434.795849 120.692037 432.607226 124.587265 428.711999 
C 128.482492 424.816771 130.671115 419.532968 130.671115 414.024284 
C 130.671115 408.515601 128.482492 403.231797 124.587265 399.336569 
C 120.692037 395.441342 115.408233 393.252719 109.89955 393.252719 
C 104.390866 393.252719 99.107063 395.441342 95.211835 399.336569 
C 91.316608 403.231797 89.127985 408.515601 89.127985 414.024284 
C 89.127985 419.532968 91.316608 424.816771 95.211835 428.711999 
C 99.107063 432.607226 104.390866 434.795849 109.89955 434.795849 
z
" clip-path="url(#p1ddff56d52)" style="fill: #d62728; fill-opacity: 0.99; stroke: #d62728; stroke-opacity: 0.99"/>
    <path d="M 174.085816 494.448423 
C 179.593548 494.448423 184.876439 492.260178 188.770993 488.365623 
C 192.665548 484.471068 194.853793 479.188177 194.853793 473.680446 
C 194.853793 468.172714 192.665548 462.889823 188.770993 458.995268 
C 184.876439 455.100713 179.593548 452.912468 174.085816 452.912468 
C 168.578084 452.912468 163.295193 455.100713 159.400638 458.995268 
C 155.506084 462.889823 153.317839 468.172714 153.317839 473.680446 
C 153.317839 479.188177 155.506084 484.471068 159.400638 488.365623 
C 163.295193 492.260178 168.578084 494.448423 174.085816 494.448423 
z
" clip-path="url(#p1ddff56d52)" style="fill: #d62728; fill-opacity: 0.99; stroke: #d62728; stroke-opacity: 0.99"/>
    <path d="M 256.22965 521.558 
C 261.620495 521.558 266.79127 519.416195 270.603173 515.604292 
C 274.415076 511.792389 276.556881 506.621614 276.556881 501.230769 
C 276.556881 495.839925 274.415076 490.669149 270.603173 486.857246 
C 266.79127 483.045343 261.620495 480.903538 256.22965 480.903538 
C 250.838806 480.903538 245.66803 483.045343 241.856127 486.857246 
C 238.044225 490.669149 235.902419 495.839925 235.902419 501.230769 
C 235.902419 506.621614 238.044225 511.792389 241.856127 515.604292 
C 245.66803 519.416195 250.838806 521.558 256.22965 521.558 
z
" clip-path="url(#p1ddff56d52)" style="fill: #d62728; fill-opacity: 0.99; stroke: #d62728; stroke-opacity: 0.99"/>
    <path d="M 342.127629 512.006386 
C 347.456841 512.006386 352.568501 509.889067 356.336824 506.120745 
C 360.105146 502.352422 362.222465 497.240762 362.222465 491.91155 
C 362.222465 486.582337 360.105146 481.470677 356.336824 477.702354 
C 352.568501 473.934032 347.456841 471.816713 342.127629 471.816713 
C 336.798416 471.816713 331.686756 473.934032 327.918434 477.702354 
C 324.150111 481.470677 322.032792 486.582337 322.032792 491.91155 
C 322.032792 497.240762 324.150111 502.352422 327.918434 506.120745 
C 331.686756 509.889067 336.798416 512.006386 342.127629 512.006386 
z
" clip-path="url(#p1ddff56d52)" style="fill: #d62728; fill-opacity: 0.99; stroke: #d62728; stroke-opacity: 0.99"/>
    <path d="M 416.927223 466.937553 
C 422.126103 466.937553 427.112751 464.872016 430.788915 461.195852 
C 434.465078 457.519688 436.530615 452.533041 436.530615 447.33416 
C 436.530615 442.13528 434.465078 437.148632 430.788915 433.472468 
C 427.112751 429.796304 422.126103 427.730767 416.927223 427.730767 
C 411.728342 427.730767 406.741694 429.796304 403.065531 433.472468 
C 399.389367 437.148632 397.32383 442.13528 397.32383 447.33416 
C 397.32383 452.533041 399.389367 457.519688 403.065531 461.195852 
C 406.741694 464.872016 411.728342 466.937553 416.927223 466.937553 
z
" clip-path="url(#p1ddff56d52)" style="fill: #d62728; fill-opacity: 0.99; stroke: #d62728; stroke-opacity: 0.99"/>
    <path d="M 467.69489 394.571376 
C 472.830525 394.571376 477.75651 392.530967 481.387953 388.899524 
C 485.019396 385.268081 487.059806 380.342096 487.059806 375.20646 
C 487.059806 370.070824 485.019396 365.144839 481.387953 361.513396 
C 477.75651 357.881953 472.830525 355.841543 467.69489 355.841543 
C 462.559254 355.841543 457.633269 357.881953 454.001826 361.513396 
C 450.370383 365.144839 448.329973 370.070824 448.329973 375.20646 
C 448.329973 380.342096 450.370383 385.268081 454.001826 388.899524 
C 457.633269 392.530967 462.559254 394.571376 467.69489 394.571376 
z
" clip-path="url(#p1ddff56d52)" style="fill: #d62728; fill-opacity: 0.99; stroke: #d62728; stroke-opacity: 0.99"/>
   </g>
   <g id="text_1">
    <g id="patch_2">
     <path d="M 455.832204 296.315156 
L 515.472672 296.315156 
L 515.472672 279.684844 
L 455.832204 279.684844 
z
" clip-path="url(#p1ddff56d52)" style="fill: #ffffff; opacity: 0.7; stroke: #000000; stroke-linejoin: miter"/>
    </g>
    <g clip-path="url(#p1ddff56d52)">
     <!-- Jason Biggs -->
     <g transform="translate(459.792204 290.483437)scale(0.09 -0.09)">
      <defs>
       <path id="DejaVuSans-4a" d="M 628 4666 
L 1259 4666 
L 1259 325 
Q 1259 -519 939 -900 
Q 619 -1281 -91 -1281 
L -331 -1281 
L -331 -750 
L -134 -750 
Q 284 -750 456 -515 
Q 628 -281 628 325 
L 628 4666 
z
" transform="scale(0.015625)"/>
       <path id="DejaVuSans-61" d="M 2194 1759 
Q 1497 1759 1228 1600 
Q 959 1441 959 1056 
Q 959 750 1161 570 
Q 1363 391 1709 391 
Q 2188 391 2477 730 
Q 2766 1069 2766 1631 
L 2766 1759 
L 2194 1759 
z
M 3341 1997 
L 3341 0 
L 2766 0 
L 2766 531 
Q 2569 213 2275 61 
Q 1981 -91 1556 -91 
Q 1019 -91 701 211 
Q 384 513 384 1019 
Q 384 1609 779 1909 
Q 1175 2209 1959 2209 
L 2766 2209 
L 2766 2266 
Q 2766 2663 2505 2880 
Q 2244 3097 1772 3097 
Q 1472 3097 1187 3025 
Q 903 2953 641 2809 
L 641 3341 
Q 956 3463 1253 3523 
Q 1550 3584 1831 3584 
Q 2591 3584 2966 3190 
Q 3341 2797 3341 1997 
z
" transform="scale(0.015625)"/>
       <path id="DejaVuSans-73" d="M 2834 3397 
L 2834 2853 
Q 2591 2978 2328 3040 
Q 2066 3103 1784 3103 
Q 1356 3103 1142 2972 
Q 928 2841 928 2578 
Q 928 2378 1081 2264 
Q 1234 2150 1697 2047 
L 1894 2003 
Q 2506 1872 2764 1633 
Q 3022 1394 3022 966 
Q 3022 478 2636 193 
Q 2250 -91 1575 -91 
Q 1294 -91 989 -36 
Q 684 19 347 128 
L 347 722 
Q 666 556 975 473 
Q 1284 391 1588 391 
Q 1994 391 2212 530 
Q 2431 669 2431 922 
Q 2431 1156 2273 1281 
Q 2116 1406 1581 1522 
L 1381 1569 
Q 847 1681 609 1914 
Q 372 2147 372 2553 
Q 372 3047 722 3315 
Q 1072 3584 1716 3584 
Q 2034 3584 2315 3537 
Q 2597 3491 2834 3397 
z
" transform="scale(0.015625)"/>
       <path id="DejaVuSans-6f" d="M 1959 3097 
Q 1497 3097 1228 2736 
Q 959 2375 959 1747 
Q 959 1119 1226 758 
Q 1494 397 1959 397 
Q 2419 397 2687 759 
Q 2956 1122 2956 1747 
Q 2956 2369 2687 2733 
Q 2419 3097 1959 3097 
z
M 1959 3584 
Q 2709 3584 3137 3096 
Q 3566 2609 3566 1747 
Q 3566 888 3137 398 
Q 2709 -91 1959 -91 
Q 1206 -91 779 398 
Q 353 888 353 1747 
Q 353 2609 779 3096 
Q 1206 3584 1959 3584 
z
" transform="scale(0.015625)"/>
       <path id="DejaVuSans-6e" d="M 3513 2113 
L 3513 0 
L 2938 0 
L 2938 2094 
Q 2938 2591 2744 2837 
Q 2550 3084 2163 3084 
Q 1697 3084 1428 2787 
Q 1159 2491 1159 1978 
L 1159 0 
L 581 0 
L 581 3500 
L 1159 3500 
L 1159 2956 
Q 1366 3272 1645 3428 
Q 1925 3584 2291 3584 
Q 2894 3584 3203 3211 
Q 3513 2838 3513 2113 
z
" transform="scale(0.015625)"/>
       <path id="DejaVuSans-20" transform="scale(0.015625)"/>
       <path id="DejaVuSans-42" d="M 1259 2228 
L 1259 519 
L 2272 519 
Q 2781 519 3026 730 
Q 3272 941 3272 1375 
Q 3272 1813 3026 2020 
Q 2781 2228 2272 2228 
L 1259 2228 
z
M 1259 4147 
L 1259 2741 
L 2194 2741 
Q 2656 2741 2882 2914 
Q 3109 3088 3109 3444 
Q 3109 3797 2882 3972 
Q 2656 4147 2194 4147 
L 1259 4147 
z
M 628 4666 
L 2241 4666 
Q 2963 4666 3353 4366 
Q 3744 4066 3744 3513 
Q 3744 3084 3544 2831 
Q 3344 2578 2956 2516 
Q 3422 2416 3680 2098 
Q 3938 1781 3938 1306 
Q 3938 681 3513 340 
Q 3088 0 2303 0 
L 628 0 
L 628 4666 
z
" transform="scale(0.015625)"/>
       <path id="DejaVuSans-69" d="M 603 3500 
L 1178 3500 
L 1178 0 
L 603 0 
L 603 3500 
z
M 603 4863 
L 1178 4863 
L 1178 4134 
L 603 4134 
L 603 4863 
z
" transform="scale(0.015625)"/>
       <path id="DejaVuSans-67" d="M 2906 1791 
Q 2906 2416 2648 2759 
Q 2391 3103 1925 3103 
Q 1463 3103 1205 2759 
Q 947 2416 947 1791 
Q 947 1169 1205 825 
Q 1463 481 1925 481 
Q 2391 481 2648 825 
Q 2906 1169 2906 1791 
z
M 3481 434 
Q 3481 -459 3084 -895 
Q 2688 -1331 1869 -1331 
Q 1566 -1331 1297 -1286 
Q 1028 -1241 775 -1147 
L 775 -588 
Q 1028 -725 1275 -790 
Q 1522 -856 1778 -856 
Q 2344 -856 2625 -561 
Q 2906 -266 2906 331 
L 2906 616 
Q 2728 306 2450 153 
Q 2172 0 1784 0 
Q 1141 0 747 490 
Q 353 981 353 1791 
Q 353 2603 747 3093 
Q 1141 3584 1784 3584 
Q 2172 3584 2450 3431 
Q 2728 3278 2906 2969 
L 2906 3500 
L 3481 3500 
L 3481 434 
z
" transform="scale(0.015625)"/>
      </defs>
      <use xlink:href="#DejaVuSans-4a"/>
      <use xlink:href="#DejaVuSans-61" x="29.492188"/>
      <use xlink:href="#DejaVuSans-73" x="90.771484"/>
      <use xlink:href="#DejaVuSans-6f" x="142.871094"/>
      <use xlink:href="#DejaVuSans-6e" x="204.052734"/>
      <use xlink:href="#DejaVuSans-20" x="267.431641"/>
      <use xlink:href="#DejaVuSans-42" x="299.21875"/>
      <use xlink:href="#DejaVuSans-69" x="367.822266"/>
      <use xlink:href="#DejaVuSans-67" x="395.605469"/>
      <use xlink:href="#DejaVuSans-67" x="459.082031"/>
      <use xlink:href="#DejaVuSans-73" x="522.558594"/>
     </g>
    </g>
   </g>
   <g id="text_2">
    <g id="patch_3">
     <path d="M 432.772052 209.108665 
L 502.617677 209.108665 
L 502.617677 192.478352 
L 432.772052 192.478352 
z
" clip-path="url(#p1ddff56d52)" style="fill: #ffffff; opacity: 0.7; stroke: #000000; stroke-linejoin: miter"/>
    </g>
    <g clip-path="url(#p1ddff56d52)">
     <!-- Eddie Murphy -->
     <g transform="translate(436.732052 203.276946)scale(0.09 -0.09)">
      <defs>
       <path id="DejaVuSans-45" d="M 628 4666 
L 3578 4666 
L 3578 4134 
L 1259 4134 
L 1259 2753 
L 3481 2753 
L 3481 2222 
L 1259 2222 
L 1259 531 
L 3634 531 
L 3634 0 
L 628 0 
L 628 4666 
z
" transform="scale(0.015625)"/>
       <path id="DejaVuSans-64" d="M 2906 2969 
L 2906 4863 
L 3481 4863 
L 3481 0 
L 2906 0 
L 2906 525 
Q 2725 213 2448 61 
Q 2172 -91 1784 -91 
Q 1150 -91 751 415 
Q 353 922 353 1747 
Q 353 2572 751 3078 
Q 1150 3584 1784 3584 
Q 2172 3584 2448 3432 
Q 2725 3281 2906 2969 
z
M 947 1747 
Q 947 1113 1208 752 
Q 1469 391 1925 391 
Q 2381 391 2643 752 
Q 2906 1113 2906 1747 
Q 2906 2381 2643 2742 
Q 2381 3103 1925 3103 
Q 1469 3103 1208 2742 
Q 947 2381 947 1747 
z
" transform="scale(0.015625)"/>
       <path id="DejaVuSans-65" d="M 3597 1894 
L 3597 1613 
L 953 1613 
Q 991 1019 1311 708 
Q 1631 397 2203 397 
Q 2534 397 2845 478 
Q 3156 559 3463 722 
L 3463 178 
Q 3153 47 2828 -22 
Q 2503 -91 2169 -91 
Q 1331 -91 842 396 
Q 353 884 353 1716 
Q 353 2575 817 3079 
Q 1281 3584 2069 3584 
Q 2775 3584 3186 3129 
Q 3597 2675 3597 1894 
z
M 3022 2063 
Q 3016 2534 2758 2815 
Q 2500 3097 2075 3097 
Q 1594 3097 1305 2825 
Q 1016 2553 972 2059 
L 3022 2063 
z
" transform="scale(0.015625)"/>
       <path id="DejaVuSans-4d" d="M 628 4666 
L 1569 4666 
L 2759 1491 
L 3956 4666 
L 4897 4666 
L 4897 0 
L 4281 0 
L 4281 4097 
L 3078 897 
L 2444 897 
L 1241 4097 
L 1241 0 
L 628 0 
L 628 4666 
z
" transform="scale(0.015625)"/>
       <path id="DejaVuSans-75" d="M 544 1381 
L 544 3500 
L 1119 3500 
L 1119 1403 
Q 1119 906 1312 657 
Q 1506 409 1894 409 
Q 2359 409 2629 706 
Q 2900 1003 2900 1516 
L 2900 3500 
L 3475 3500 
L 3475 0 
L 2900 0 
L 2900 538 
Q 2691 219 2414 64 
Q 2138 -91 1772 -91 
Q 1169 -91 856 284 
Q 544 659 544 1381 
z
M 1991 3584 
L 1991 3584 
z
" transform="scale(0.015625)"/>
       <path id="DejaVuSans-72" d="M 2631 2963 
Q 2534 3019 2420 3045 
Q 2306 3072 2169 3072 
Q 1681 3072 1420 2755 
Q 1159 2438 1159 1844 
L 1159 0 
L 581 0 
L 581 3500 
L 1159 3500 
L 1159 2956 
Q 1341 3275 1631 3429 
Q 1922 3584 2338 3584 
Q 2397 3584 2469 3576 
Q 2541 3569 2628 3553 
L 2631 2963 
z
" transform="scale(0.015625)"/>
       <path id="DejaVuSans-70" d="M 1159 525 
L 1159 -1331 
L 581 -1331 
L 581 3500 
L 1159 3500 
L 1159 2969 
Q 1341 3281 1617 3432 
Q 1894 3584 2278 3584 
Q 2916 3584 3314 3078 
Q 3713 2572 3713 1747 
Q 3713 922 3314 415 
Q 2916 -91 2278 -91 
Q 1894 -91 1617 61 
Q 1341 213 1159 525 
z
M 3116 1747 
Q 3116 2381 2855 2742 
Q 2594 3103 2138 3103 
Q 1681 3103 1420 2742 
Q 1159 2381 1159 1747 
Q 1159 1113 1420 752 
Q 1681 391 2138 391 
Q 2594 391 2855 752 
Q 3116 1113 3116 1747 
z
" transform="scale(0.015625)"/>
       <path id="DejaVuSans-68" d="M 3513 2113 
L 3513 0 
L 2938 0 
L 2938 2094 
Q 2938 2591 2744 2837 
Q 2550 3084 2163 3084 
Q 1697 3084 1428 2787 
Q 1159 2491 1159 1978 
L 1159 0 
L 581 0 
L 581 4863 
L 1159 4863 
L 1159 2956 
Q 1366 3272 1645 3428 
Q 1925 3584 2291 3584 
Q 2894 3584 3203 3211 
Q 3513 2838 3513 2113 
z
" transform="scale(0.015625)"/>
       <path id="DejaVuSans-79" d="M 2059 -325 
Q 1816 -950 1584 -1140 
Q 1353 -1331 966 -1331 
L 506 -1331 
L 506 -850 
L 844 -850 
Q 1081 -850 1212 -737 
Q 1344 -625 1503 -206 
L 1606 56 
L 191 3500 
L 800 3500 
L 1894 763 
L 2988 3500 
L 3597 3500 
L 2059 -325 
z
" transform="scale(0.015625)"/>
      </defs>
      <use xlink:href="#DejaVuSans-45"/>
      <use xlink:href="#DejaVuSans-64" x="63.183594"/>
      <use xlink:href="#DejaVuSans-64" x="126.660156"/>
      <use xlink:href="#DejaVuSans-69" x="190.136719"/>
      <use xlink:href="#DejaVuSans-65" x="217.919922"/>
      <use xlink:href="#DejaVuSans-20" x="279.443359"/>
      <use xlink:href="#DejaVuSans-4d" x="311.230469"/>
      <use xlink:href="#DejaVuSans-75" x="397.509766"/>
      <use xlink:href="#DejaVuSans-72" x="460.888672"/>
      <use xlink:href="#DejaVuSans-70" x="502.001953"/>
      <use xlink:href="#DejaVuSans-68" x="565.478516"/>
      <use xlink:href="#DejaVuSans-79" x="628.857422"/>
     </g>
    </g>
   </g>
   <g id="text_3">
    <g id="patch_4">
     <path d="M 380.512342 136.980958 
L 453.342029 136.980958 
L 453.342029 120.350645 
L 380.512342 120.350645 
z
" clip-path="url(#p1ddff56d52)" style="fill: #ffffff; opacity: 0.7; stroke: #000000; stroke-linejoin: miter"/>
    </g>
    <g clip-path="url(#p1ddff56d52)">
     <!-- Jim Cummings -->
     <g transform="translate(384.472342 131.149239)scale(0.09 -0.09)">
      <defs>
       <path id="DejaVuSans-6d" d="M 3328 2828 
Q 3544 3216 3844 3400 
Q 4144 3584 4550 3584 
Q 5097 3584 5394 3201 
Q 5691 2819 5691 2113 
L 5691 0 
L 5113 0 
L 5113 2094 
Q 5113 2597 4934 2840 
Q 4756 3084 4391 3084 
Q 3944 3084 3684 2787 
Q 3425 2491 3425 1978 
L 3425 0 
L 2847 0 
L 2847 2094 
Q 2847 2600 2669 2842 
Q 2491 3084 2119 3084 
Q 1678 3084 1418 2786 
Q 1159 2488 1159 1978 
L 1159 0 
L 581 0 
L 581 3500 
L 1159 3500 
L 1159 2956 
Q 1356 3278 1631 3431 
Q 1906 3584 2284 3584 
Q 2666 3584 2933 3390 
Q 3200 3197 3328 2828 
z
" transform="scale(0.015625)"/>
       <path id="DejaVuSans-43" d="M 4122 4306 
L 4122 3641 
Q 3803 3938 3442 4084 
Q 3081 4231 2675 4231 
Q 1875 4231 1450 3742 
Q 1025 3253 1025 2328 
Q 1025 1406 1450 917 
Q 1875 428 2675 428 
Q 3081 428 3442 575 
Q 3803 722 4122 1019 
L 4122 359 
Q 3791 134 3420 21 
Q 3050 -91 2638 -91 
Q 1578 -91 968 557 
Q 359 1206 359 2328 
Q 359 3453 968 4101 
Q 1578 4750 2638 4750 
Q 3056 4750 3426 4639 
Q 3797 4528 4122 4306 
z
" transform="scale(0.015625)"/>
      </defs>
      <use xlink:href="#DejaVuSans-4a"/>
      <use xlink:href="#DejaVuSans-69" x="29.492188"/>
      <use xlink:href="#DejaVuSans-6d" x="57.275391"/>
      <use xlink:href="#DejaVuSans-20" x="154.6875"/>
      <use xlink:href="#DejaVuSans-43" x="186.474609"/>
      <use xlink:href="#DejaVuSans-75" x="256.298828"/>
      <use xlink:href="#DejaVuSans-6d" x="319.677734"/>
      <use xlink:href="#DejaVuSans-6d" x="417.089844"/>
      <use xlink:href="#DejaVuSans-69" x="514.501953"/>
      <use xlink:href="#DejaVuSans-6e" x="542.285156"/>
      <use xlink:href="#DejaVuSans-67" x="605.664062"/>
      <use xlink:href="#DejaVuSans-73" x="669.140625"/>
     </g>
    </g>
   </g>
   <g id="text_4">
    <g id="patch_5">
     <path d="M 308.705957 92.403594 
L 375.549238 92.403594 
L 375.549238 75.773281 
L 308.705957 75.773281 
z
" clip-path="url(#p1ddff56d52)" style="fill: #ffffff; opacity: 0.7; stroke: #000000; stroke-linejoin: miter"/>
    </g>
    <g clip-path="url(#p1ddff56d52)">
     <!-- Stanley Tucci -->
     <g transform="translate(312.665957 86.571875)scale(0.09 -0.09)">
      <defs>
       <path id="DejaVuSans-53" d="M 3425 4513 
L 3425 3897 
Q 3066 4069 2747 4153 
Q 2428 4238 2131 4238 
Q 1616 4238 1336 4038 
Q 1056 3838 1056 3469 
Q 1056 3159 1242 3001 
Q 1428 2844 1947 2747 
L 2328 2669 
Q 3034 2534 3370 2195 
Q 3706 1856 3706 1288 
Q 3706 609 3251 259 
Q 2797 -91 1919 -91 
Q 1588 -91 1214 -16 
Q 841 59 441 206 
L 441 856 
Q 825 641 1194 531 
Q 1563 422 1919 422 
Q 2459 422 2753 634 
Q 3047 847 3047 1241 
Q 3047 1584 2836 1778 
Q 2625 1972 2144 2069 
L 1759 2144 
Q 1053 2284 737 2584 
Q 422 2884 422 3419 
Q 422 4038 858 4394 
Q 1294 4750 2059 4750 
Q 2388 4750 2728 4690 
Q 3069 4631 3425 4513 
z
" transform="scale(0.015625)"/>
       <path id="DejaVuSans-74" d="M 1172 4494 
L 1172 3500 
L 2356 3500 
L 2356 3053 
L 1172 3053 
L 1172 1153 
Q 1172 725 1289 603 
Q 1406 481 1766 481 
L 2356 481 
L 2356 0 
L 1766 0 
Q 1100 0 847 248 
Q 594 497 594 1153 
L 594 3053 
L 172 3053 
L 172 3500 
L 594 3500 
L 594 4494 
L 1172 4494 
z
" transform="scale(0.015625)"/>
       <path id="DejaVuSans-6c" d="M 603 4863 
L 1178 4863 
L 1178 0 
L 603 0 
L 603 4863 
z
" transform="scale(0.015625)"/>
       <path id="DejaVuSans-54" d="M -19 4666 
L 3928 4666 
L 3928 4134 
L 2272 4134 
L 2272 0 
L 1638 0 
L 1638 4134 
L -19 4134 
L -19 4666 
z
" transform="scale(0.015625)"/>
       <path id="DejaVuSans-63" d="M 3122 3366 
L 3122 2828 
Q 2878 2963 2633 3030 
Q 2388 3097 2138 3097 
Q 1578 3097 1268 2742 
Q 959 2388 959 1747 
Q 959 1106 1268 751 
Q 1578 397 2138 397 
Q 2388 397 2633 464 
Q 2878 531 3122 666 
L 3122 134 
Q 2881 22 2623 -34 
Q 2366 -91 2075 -91 
Q 1284 -91 818 406 
Q 353 903 353 1747 
Q 353 2603 823 3093 
Q 1294 3584 2113 3584 
Q 2378 3584 2631 3529 
Q 2884 3475 3122 3366 
z
" transform="scale(0.015625)"/>
      </defs>
      <use xlink:href="#DejaVuSans-53"/>
      <use xlink:href="#DejaVuSans-74" x="63.476562"/>
      <use xlink:href="#DejaVuSans-61" x="102.685547"/>
      <use xlink:href="#DejaVuSans-6e" x="163.964844"/>
      <use xlink:href="#DejaVuSans-6c" x="227.34375"/>
      <use xlink:href="#DejaVuSans-65" x="255.126953"/>
      <use xlink:href="#DejaVuSans-79" x="316.650391"/>
      <use xlink:href="#DejaVuSans-20" x="375.830078"/>
      <use xlink:href="#DejaVuSans-54" x="407.617188"/>
      <use xlink:href="#DejaVuSans-75" x="453.576172"/>
      <use xlink:href="#DejaVuSans-63" x="516.955078"/>
      <use xlink:href="#DejaVuSans-63" x="571.935547"/>
      <use xlink:href="#DejaVuSans-69" x="626.916016"/>
     </g>
    </g>
   </g>
   <g id="text_5">
    <g id="patch_6">
     <path d="M 208.871332 83.084387 
L 303.587894 83.084387 
L 303.587894 66.454075 
L 208.871332 66.454075 
z
" clip-path="url(#p1ddff56d52)" style="fill: #ffffff; opacity: 0.7; stroke: #000000; stroke-linejoin: miter"/>
    </g>
    <g clip-path="url(#p1ddff56d52)">
     <!-- Reese Witherspoon -->
     <g transform="translate(212.831332 77.252668)scale(0.09 -0.09)">
      <defs>
       <path id="DejaVuSans-52" d="M 2841 2188 
Q 3044 2119 3236 1894 
Q 3428 1669 3622 1275 
L 4263 0 
L 3584 0 
L 2988 1197 
Q 2756 1666 2539 1819 
Q 2322 1972 1947 1972 
L 1259 1972 
L 1259 0 
L 628 0 
L 628 4666 
L 2053 4666 
Q 2853 4666 3247 4331 
Q 3641 3997 3641 3322 
Q 3641 2881 3436 2590 
Q 3231 2300 2841 2188 
z
M 1259 4147 
L 1259 2491 
L 2053 2491 
Q 2509 2491 2742 2702 
Q 2975 2913 2975 3322 
Q 2975 3731 2742 3939 
Q 2509 4147 2053 4147 
L 1259 4147 
z
" transform="scale(0.015625)"/>
       <path id="DejaVuSans-57" d="M 213 4666 
L 850 4666 
L 1831 722 
L 2809 4666 
L 3519 4666 
L 4500 722 
L 5478 4666 
L 6119 4666 
L 4947 0 
L 4153 0 
L 3169 4050 
L 2175 0 
L 1381 0 
L 213 4666 
z
" transform="scale(0.015625)"/>
      </defs>
      <use xlink:href="#DejaVuSans-52"/>
      <use xlink:href="#DejaVuSans-65" x="64.982422"/>
      <use xlink:href="#DejaVuSans-65" x="126.505859"/>
      <use xlink:href="#DejaVuSans-73" x="188.029297"/>
      <use xlink:href="#DejaVuSans-65" x="240.128906"/>
      <use xlink:href="#DejaVuSans-20" x="301.652344"/>
      <use xlink:href="#DejaVuSans-57" x="333.439453"/>
      <use xlink:href="#DejaVuSans-69" x="430.066406"/>
      <use xlink:href="#DejaVuSans-74" x="457.849609"/>
      <use xlink:href="#DejaVuSans-68" x="497.058594"/>
      <use xlink:href="#DejaVuSans-65" x="560.4375"/>
      <use xlink:href="#DejaVuSans-72" x="621.960938"/>
      <use xlink:href="#DejaVuSans-73" x="663.074219"/>
      <use xlink:href="#DejaVuSans-70" x="715.173828"/>
      <use xlink:href="#DejaVuSans-6f" x="778.650391"/>
      <use xlink:href="#DejaVuSans-6f" x="839.832031"/>
      <use xlink:href="#DejaVuSans-6e" x="901.013672"/>
     </g>
    </g>
   </g>
   <g id="text_6">
    <g id="patch_7">
     <path d="M 138.454925 110.634724 
L 209.716644 110.634724 
L 209.716644 94.004411 
L 138.454925 94.004411 
z
" clip-path="url(#p1ddff56d52)" style="fill: #ffffff; opacity: 0.7; stroke: #000000; stroke-linejoin: miter"/>
    </g>
    <g clip-path="url(#p1ddff56d52)">
     <!-- Cameron Diaz -->
     <g transform="translate(142.414925 104.803005)scale(0.09 -0.09)">
      <defs>
       <path id="DejaVuSans-44" d="M 1259 4147 
L 1259 519 
L 2022 519 
Q 2988 519 3436 956 
Q 3884 1394 3884 2338 
Q 3884 3275 3436 3711 
Q 2988 4147 2022 4147 
L 1259 4147 
z
M 628 4666 
L 1925 4666 
Q 3281 4666 3915 4102 
Q 4550 3538 4550 2338 
Q 4550 1131 3912 565 
Q 3275 0 1925 0 
L 628 0 
L 628 4666 
z
" transform="scale(0.015625)"/>
       <path id="DejaVuSans-7a" d="M 353 3500 
L 3084 3500 
L 3084 2975 
L 922 459 
L 3084 459 
L 3084 0 
L 275 0 
L 275 525 
L 2438 3041 
L 353 3041 
L 353 3500 
z
" transform="scale(0.015625)"/>
      </defs>
      <use xlink:href="#DejaVuSans-43"/>
      <use xlink:href="#DejaVuSans-61" x="69.824219"/>
      <use xlink:href="#DejaVuSans-6d" x="131.103516"/>
      <use xlink:href="#DejaVuSans-65" x="228.515625"/>
      <use xlink:href="#DejaVuSans-72" x="290.039062"/>
      <use xlink:href="#DejaVuSans-6f" x="328.902344"/>
      <use xlink:href="#DejaVuSans-6e" x="390.083984"/>
      <use xlink:href="#DejaVuSans-20" x="453.462891"/>
      <use xlink:href="#DejaVuSans-44" x="485.25"/>
      <use xlink:href="#DejaVuSans-69" x="562.251953"/>
      <use xlink:href="#DejaVuSans-61" x="590.035156"/>
      <use xlink:href="#DejaVuSans-7a" x="651.314453"/>
     </g>
    </g>
   </g>
   <g id="text_7">
    <g id="patch_8">
     <path d="M 71.420319 170.290885 
L 148.378756 170.290885 
L 148.378756 153.660572 
L 71.420319 153.660572 
z
" clip-path="url(#p1ddff56d52)" style="fill: #ffffff; opacity: 0.7; stroke: #000000; stroke-linejoin: miter"/>
    </g>
    <g clip-path="url(#p1ddff56d52)">
     <!-- Richard Jenkins -->
     <g transform="translate(75.380319 164.459166)scale(0.09 -0.09)">
      <defs>
       <path id="DejaVuSans-6b" d="M 581 4863 
L 1159 4863 
L 1159 1991 
L 2875 3500 
L 3609 3500 
L 1753 1863 
L 3688 0 
L 2938 0 
L 1159 1709 
L 1159 0 
L 581 0 
L 581 4863 
z
" transform="scale(0.015625)"/>
      </defs>
      <use xlink:href="#DejaVuSans-52"/>
      <use xlink:href="#DejaVuSans-69" x="69.482422"/>
      <use xlink:href="#DejaVuSans-63" x="97.265625"/>
      <use xlink:href="#DejaVuSans-68" x="152.246094"/>
      <use xlink:href="#DejaVuSans-61" x="215.625"/>
      <use xlink:href="#DejaVuSans-72" x="276.904297"/>
      <use xlink:href="#DejaVuSans-64" x="316.267578"/>
      <use xlink:href="#DejaVuSans-20" x="379.744141"/>
      <use xlink:href="#DejaVuSans-4a" x="411.53125"/>
      <use xlink:href="#DejaVuSans-65" x="441.023438"/>
      <use xlink:href="#DejaVuSans-6e" x="502.546875"/>
      <use xlink:href="#DejaVuSans-6b" x="565.925781"/>
      <use xlink:href="#DejaVuSans-69" x="623.835938"/>
      <use xlink:href="#DejaVuSans-6e" x="651.619141"/>
      <use xlink:href="#DejaVuSans-73" x="714.998047"/>
     </g>
    </g>
   </g>
   <g id="text_8">
    <g id="patch_9">
     <path d="M 35.231809 251.737805 
L 114.306653 251.737805 
L 114.306653 235.107493 
L 35.231809 235.107493 
z
" clip-path="url(#p1ddff56d52)" style="fill: #ffffff; opacity: 0.7; stroke: #000000; stroke-linejoin: miter"/>
    </g>
    <g clip-path="url(#p1ddff56d52)">
     <!-- Jennifer Aniston -->
     <g transform="translate(39.191809 245.906086)scale(0.09 -0.09)">
      <defs>
       <path id="DejaVuSans-66" d="M 2375 4863 
L 2375 4384 
L 1825 4384 
Q 1516 4384 1395 4259 
Q 1275 4134 1275 3809 
L 1275 3500 
L 2222 3500 
L 2222 3053 
L 1275 3053 
L 1275 0 
L 697 0 
L 697 3053 
L 147 3053 
L 147 3500 
L 697 3500 
L 697 3744 
Q 697 4328 969 4595 
Q 1241 4863 1831 4863 
L 2375 4863 
z
" transform="scale(0.015625)"/>
       <path id="DejaVuSans-41" d="M 2188 4044 
L 1331 1722 
L 3047 1722 
L 2188 4044 
z
M 1831 4666 
L 2547 4666 
L 4325 0 
L 3669 0 
L 3244 1197 
L 1141 1197 
L 716 0 
L 50 0 
L 1831 4666 
z
" transform="scale(0.015625)"/>
      </defs>
      <use xlink:href="#DejaVuSans-4a"/>
      <use xlink:href="#DejaVuSans-65" x="29.492188"/>
      <use xlink:href="#DejaVuSans-6e" x="91.015625"/>
      <use xlink:href="#DejaVuSans-6e" x="154.394531"/>
      <use xlink:href="#DejaVuSans-69" x="217.773438"/>
      <use xlink:href="#DejaVuSans-66" x="245.556641"/>
      <use xlink:href="#DejaVuSans-65" x="280.761719"/>
      <use xlink:href="#DejaVuSans-72" x="342.285156"/>
      <use xlink:href="#DejaVuSans-20" x="383.398438"/>
      <use xlink:href="#DejaVuSans-41" x="415.185547"/>
      <use xlink:href="#DejaVuSans-6e" x="483.59375"/>
      <use xlink:href="#DejaVuSans-69" x="546.972656"/>
      <use xlink:href="#DejaVuSans-73" x="574.755859"/>
      <use xlink:href="#DejaVuSans-74" x="626.855469"/>
      <use xlink:href="#DejaVuSans-6f" x="666.064453"/>
      <use xlink:href="#DejaVuSans-6e" x="727.246094"/>
     </g>
    </g>
   </g>
   <g id="text_9">
    <g id="patch_10">
     <path d="M 39.189712 340.892546 
L 110.348774 340.892546 
L 110.348774 324.262233 
L 39.189712 324.262233 
z
" clip-path="url(#p1ddff56d52)" style="fill: #ffffff; opacity: 0.7; stroke: #000000; stroke-linejoin: miter"/>
    </g>
    <g clip-path="url(#p1ddff56d52)">
     <!-- Adam Sandler -->
     <g transform="translate(43.149712 335.060827)scale(0.09 -0.09)">
      <use xlink:href="#DejaVuSans-41"/>
      <use xlink:href="#DejaVuSans-64" x="66.658203"/>
      <use xlink:href="#DejaVuSans-61" x="130.134766"/>
      <use xlink:href="#DejaVuSans-6d" x="191.414062"/>
      <use xlink:href="#DejaVuSans-20" x="288.826172"/>
      <use xlink:href="#DejaVuSans-53" x="320.613281"/>
      <use xlink:href="#DejaVuSans-61" x="384.089844"/>
      <use xlink:href="#DejaVuSans-6e" x="445.369141"/>
      <use xlink:href="#DejaVuSans-64" x="508.748047"/>
      <use xlink:href="#DejaVuSans-6c" x="572.224609"/>
      <use xlink:href="#DejaVuSans-65" x="600.007812"/>
      <use xlink:href="#DejaVuSans-72" x="661.53125"/>
     </g>
    </g>
   </g>
   <g id="text_10">
    <g id="patch_11">
     <path d="M 73.038925 422.33944 
L 146.760175 422.33944 
L 146.760175 405.709128 
L 73.038925 405.709128 
z
" clip-path="url(#p1ddff56d52)" style="fill: #ffffff; opacity: 0.7; stroke: #000000; stroke-linejoin: miter"/>
    </g>
    <g clip-path="url(#p1ddff56d52)">
     <!-- Robin Williams -->
     <g transform="translate(76.998925 416.507722)scale(0.09 -0.09)">
      <defs>
       <path id="DejaVuSans-62" d="M 3116 1747 
Q 3116 2381 2855 2742 
Q 2594 3103 2138 3103 
Q 1681 3103 1420 2742 
Q 1159 2381 1159 1747 
Q 1159 1113 1420 752 
Q 1681 391 2138 391 
Q 2594 391 2855 752 
Q 3116 1113 3116 1747 
z
M 1159 2969 
Q 1341 3281 1617 3432 
Q 1894 3584 2278 3584 
Q 2916 3584 3314 3078 
Q 3713 2572 3713 1747 
Q 3713 922 3314 415 
Q 2916 -91 2278 -91 
Q 1894 -91 1617 61 
Q 1341 213 1159 525 
L 1159 0 
L 581 0 
L 581 4863 
L 1159 4863 
L 1159 2969 
z
" transform="scale(0.015625)"/>
      </defs>
      <use xlink:href="#DejaVuSans-52"/>
      <use xlink:href="#DejaVuSans-6f" x="64.982422"/>
      <use xlink:href="#DejaVuSans-62" x="126.164062"/>
      <use xlink:href="#DejaVuSans-69" x="189.640625"/>
      <use xlink:href="#DejaVuSans-6e" x="217.423828"/>
      <use xlink:href="#DejaVuSans-20" x="280.802734"/>
      <use xlink:href="#DejaVuSans-57" x="312.589844"/>
      <use xlink:href="#DejaVuSans-69" x="409.216797"/>
      <use xlink:href="#DejaVuSans-6c" x="437"/>
      <use xlink:href="#DejaVuSans-6c" x="464.783203"/>
      <use xlink:href="#DejaVuSans-69" x="492.566406"/>
      <use xlink:href="#DejaVuSans-61" x="520.349609"/>
      <use xlink:href="#DejaVuSans-6d" x="581.628906"/>
      <use xlink:href="#DejaVuSans-73" x="679.041016"/>
     </g>
    </g>
   </g>
   <g id="text_11">
    <g id="patch_12">
     <path d="M 150.163394 481.995602 
L 198.008238 481.995602 
L 198.008238 465.365289 
L 150.163394 465.365289 
z
" clip-path="url(#p1ddff56d52)" style="fill: #ffffff; opacity: 0.7; stroke: #000000; stroke-linejoin: miter"/>
    </g>
    <g clip-path="url(#p1ddff56d52)">
     <!-- John Cho -->
     <g transform="translate(154.123394 476.163883)scale(0.09 -0.09)">
      <use xlink:href="#DejaVuSans-4a"/>
      <use xlink:href="#DejaVuSans-6f" x="29.492188"/>
      <use xlink:href="#DejaVuSans-68" x="90.673828"/>
      <use xlink:href="#DejaVuSans-6e" x="154.052734"/>
      <use xlink:href="#DejaVuSans-20" x="217.431641"/>
      <use xlink:href="#DejaVuSans-43" x="249.21875"/>
      <use xlink:href="#DejaVuSans-68" x="319.042969"/>
      <use xlink:href="#DejaVuSans-6f" x="382.421875"/>
     </g>
    </g>
   </g>
   <g id="text_12">
    <g id="patch_13">
     <path d="M 216.671838 509.545925 
L 295.787463 509.545925 
L 295.787463 492.915613 
L 216.671838 492.915613 
z
" clip-path="url(#p1ddff56d52)" style="fill: #ffffff; opacity: 0.7; stroke: #000000; stroke-linejoin: miter"/>
    </g>
    <g clip-path="url(#p1ddff56d52)">
     <!-- Anne Hathaway -->
     <g transform="translate(220.631838 503.714207)scale(0.09 -0.09)">
      <defs>
       <path id="DejaVuSans-48" d="M 628 4666 
L 1259 4666 
L 1259 2753 
L 3553 2753 
L 3553 4666 
L 4184 4666 
L 4184 0 
L 3553 0 
L 3553 2222 
L 1259 2222 
L 1259 0 
L 628 0 
L 628 4666 
z
" transform="scale(0.015625)"/>
       <path id="DejaVuSans-77" d="M 269 3500 
L 844 3500 
L 1563 769 
L 2278 3500 
L 2956 3500 
L 3675 769 
L 4391 3500 
L 4966 3500 
L 4050 0 
L 3372 0 
L 2619 2869 
L 1863 0 
L 1184 0 
L 269 3500 
z
" transform="scale(0.015625)"/>
      </defs>
      <use xlink:href="#DejaVuSans-41"/>
      <use xlink:href="#DejaVuSans-6e" x="68.408203"/>
      <use xlink:href="#DejaVuSans-6e" x="131.787109"/>
      <use xlink:href="#DejaVuSans-65" x="195.166016"/>
      <use xlink:href="#DejaVuSans-20" x="256.689453"/>
      <use xlink:href="#DejaVuSans-48" x="288.476562"/>
      <use xlink:href="#DejaVuSans-61" x="363.671875"/>
      <use xlink:href="#DejaVuSans-74" x="424.951172"/>
      <use xlink:href="#DejaVuSans-68" x="464.160156"/>
      <use xlink:href="#DejaVuSans-61" x="527.539062"/>
      <use xlink:href="#DejaVuSans-77" x="588.818359"/>
      <use xlink:href="#DejaVuSans-61" x="670.605469"/>
      <use xlink:href="#DejaVuSans-79" x="731.884766"/>
     </g>
    </g>
   </g>
   <g id="text_13">
    <g id="patch_14">
     <path d="M 294.113332 500.226706 
L 390.141925 500.226706 
L 390.141925 483.596393 
L 294.113332 483.596393 
z
" clip-path="url(#p1ddff56d52)" style="fill: #ffffff; opacity: 0.7; stroke: #000000; stroke-linejoin: miter"/>
    </g>
    <g clip-path="url(#p1ddff56d52)">
     <!-- Jason Schwartzman -->
     <g transform="translate(298.073332 494.394987)scale(0.09 -0.09)">
      <use xlink:href="#DejaVuSans-4a"/>
      <use xlink:href="#DejaVuSans-61" x="29.492188"/>
      <use xlink:href="#DejaVuSans-73" x="90.771484"/>
      <use xlink:href="#DejaVuSans-6f" x="142.871094"/>
      <use xlink:href="#DejaVuSans-6e" x="204.052734"/>
      <use xlink:href="#DejaVuSans-20" x="267.431641"/>
      <use xlink:href="#DejaVuSans-53" x="299.21875"/>
      <use xlink:href="#DejaVuSans-63" x="362.695312"/>
      <use xlink:href="#DejaVuSans-68" x="417.675781"/>
      <use xlink:href="#DejaVuSans-77" x="481.054688"/>
      <use xlink:href="#DejaVuSans-61" x="562.841797"/>
      <use xlink:href="#DejaVuSans-72" x="624.121094"/>
      <use xlink:href="#DejaVuSans-74" x="665.234375"/>
      <use xlink:href="#DejaVuSans-7a" x="704.443359"/>
      <use xlink:href="#DejaVuSans-6d" x="756.933594"/>
      <use xlink:href="#DejaVuSans-61" x="854.345703"/>
      <use xlink:href="#DejaVuSans-6e" x="915.625"/>
     </g>
    </g>
   </g>
   <g id="text_14">
    <g id="patch_15">
     <path d="M 380.475816 455.649316 
L 453.378629 455.649316 
L 453.378629 439.019004 
L 380.475816 439.019004 
z
" clip-path="url(#p1ddff56d52)" style="fill: #ffffff; opacity: 0.7; stroke: #000000; stroke-linejoin: miter"/>
    </g>
    <g clip-path="url(#p1ddff56d52)">
     <!-- Jack Nicholson -->
     <g transform="translate(384.435816 449.817598)scale(0.09 -0.09)">
      <defs>
       <path id="DejaVuSans-4e" d="M 628 4666 
L 1478 4666 
L 3547 763 
L 3547 4666 
L 4159 4666 
L 4159 0 
L 3309 0 
L 1241 3903 
L 1241 0 
L 628 0 
L 628 4666 
z
" transform="scale(0.015625)"/>
      </defs>
      <use xlink:href="#DejaVuSans-4a"/>
      <use xlink:href="#DejaVuSans-61" x="29.492188"/>
      <use xlink:href="#DejaVuSans-63" x="90.771484"/>
      <use xlink:href="#DejaVuSans-6b" x="145.751953"/>
      <use xlink:href="#DejaVuSans-20" x="203.662109"/>
      <use xlink:href="#DejaVuSans-4e" x="235.449219"/>
      <use xlink:href="#DejaVuSans-69" x="310.253906"/>
      <use xlink:href="#DejaVuSans-63" x="338.037109"/>
      <use xlink:href="#DejaVuSans-68" x="393.017578"/>
      <use xlink:href="#DejaVuSans-6f" x="456.396484"/>
      <use xlink:href="#DejaVuSans-6c" x="517.578125"/>
      <use xlink:href="#DejaVuSans-73" x="545.361328"/>
      <use xlink:href="#DejaVuSans-6f" x="597.460938"/>
      <use xlink:href="#DejaVuSans-6e" x="658.642578"/>
     </g>
    </g>
   </g>
   <g id="text_15">
    <g id="patch_16">
     <path d="M 438.977155 383.521616 
L 496.412624 383.521616 
L 496.412624 366.891303 
L 438.977155 366.891303 
z
" clip-path="url(#p1ddff56d52)" style="fill: #ffffff; opacity: 0.7; stroke: #000000; stroke-linejoin: miter"/>
    </g>
    <g clip-path="url(#p1ddff56d52)">
     <!-- Tom Cruise -->
     <g transform="translate(442.937155 377.689897)scale(0.09 -0.09)">
      <use xlink:href="#DejaVuSans-54"/>
      <use xlink:href="#DejaVuSans-6f" x="44.083984"/>
      <use xlink:href="#DejaVuSans-6d" x="105.265625"/>
      <use xlink:href="#DejaVuSans-20" x="202.677734"/>
      <use xlink:href="#DejaVuSans-43" x="234.464844"/>
      <use xlink:href="#DejaVuSans-72" x="304.289062"/>
      <use xlink:href="#DejaVuSans-75" x="345.402344"/>
      <use xlink:href="#DejaVuSans-69" x="408.78125"/>
      <use xlink:href="#DejaVuSans-73" x="436.564453"/>
      <use xlink:href="#DejaVuSans-65" x="488.664062"/>
     </g>
    </g>
   </g>
   <g id="text_16">
    <!-- Impactful actors for Romance Film genre -->
    <g transform="translate(165.885 4.8)scale(0.12 -0.12)">
     <defs>
      <path id="DejaVuSans-49" d="M 628 4666 
L 1259 4666 
L 1259 0 
L 628 0 
L 628 4666 
z
" transform="scale(0.015625)"/>
      <path id="DejaVuSans-46" d="M 628 4666 
L 3309 4666 
L 3309 4134 
L 1259 4134 
L 1259 2759 
L 3109 2759 
L 3109 2228 
L 1259 2228 
L 1259 0 
L 628 0 
L 628 4666 
z
" transform="scale(0.015625)"/>
     </defs>
     <use xlink:href="#DejaVuSans-49"/>
     <use xlink:href="#DejaVuSans-6d" x="29.492188"/>
     <use xlink:href="#DejaVuSans-70" x="126.904297"/>
     <use xlink:href="#DejaVuSans-61" x="190.380859"/>
     <use xlink:href="#DejaVuSans-63" x="251.660156"/>
     <use xlink:href="#DejaVuSans-74" x="306.640625"/>
     <use xlink:href="#DejaVuSans-66" x="345.849609"/>
     <use xlink:href="#DejaVuSans-75" x="381.054688"/>
     <use xlink:href="#DejaVuSans-6c" x="444.433594"/>
     <use xlink:href="#DejaVuSans-20" x="472.216797"/>
     <use xlink:href="#DejaVuSans-61" x="504.003906"/>
     <use xlink:href="#DejaVuSans-63" x="565.283203"/>
     <use xlink:href="#DejaVuSans-74" x="620.263672"/>
     <use xlink:href="#DejaVuSans-6f" x="659.472656"/>
     <use xlink:href="#DejaVuSans-72" x="720.654297"/>
     <use xlink:href="#DejaVuSans-73" x="761.767578"/>
     <use xlink:href="#DejaVuSans-20" x="813.867188"/>
     <use xlink:href="#DejaVuSans-66" x="845.654297"/>
     <use xlink:href="#DejaVuSans-6f" x="880.859375"/>
     <use xlink:href="#DejaVuSans-72" x="942.041016"/>
     <use xlink:href="#DejaVuSans-20" x="983.154297"/>
     <use xlink:href="#DejaVuSans-52" x="1014.941406"/>
     <use xlink:href="#DejaVuSans-6f" x="1079.923828"/>
     <use xlink:href="#DejaVuSans-6d" x="1141.105469"/>
     <use xlink:href="#DejaVuSans-61" x="1238.517578"/>
     <use xlink:href="#DejaVuSans-6e" x="1299.796875"/>
     <use xlink:href="#DejaVuSans-63" x="1363.175781"/>
     <use xlink:href="#DejaVuSans-65" x="1418.15625"/>
     <use xlink:href="#DejaVuSans-20" x="1479.679688"/>
     <use xlink:href="#DejaVuSans-46" x="1511.466797"/>
     <use xlink:href="#DejaVuSans-69" x="1561.736328"/>
     <use xlink:href="#DejaVuSans-6c" x="1589.519531"/>
     <use xlink:href="#DejaVuSans-6d" x="1617.302734"/>
     <use xlink:href="#DejaVuSans-20" x="1714.714844"/>
     <use xlink:href="#DejaVuSans-67" x="1746.501953"/>
     <use xlink:href="#DejaVuSans-65" x="1809.978516"/>
     <use xlink:href="#DejaVuSans-6e" x="1871.501953"/>
     <use xlink:href="#DejaVuSans-72" x="1934.880859"/>
     <use xlink:href="#DejaVuSans-65" x="1973.744141"/>
    </g>
   </g>
  </g>
 </g>
 <defs>
  <clipPath id="p1ddff56d52">
   <rect x="10.8" y="10.8" width="554.4" height="554.4"/>
  </clipPath>
 </defs>
</svg>
