<?xml version="1.0" encoding="utf-8" standalone="no"?>
<!DOCTYPE svg PUBLIC "-//W3C//DTD SVG 1.1//EN"
  "http://www.w3.org/Graphics/SVG/1.1/DTD/svg11.dtd">
<svg xmlns:xlink="http://www.w3.org/1999/xlink" width="568.8pt" height="583.918125pt" viewBox="0 0 568.8 583.918125" xmlns="http://www.w3.org/2000/svg" version="1.1">
 <metadata>
  <rdf:RDF xmlns:dc="http://purl.org/dc/elements/1.1/" xmlns:cc="http://creativecommons.org/ns#" xmlns:rdf="http://www.w3.org/1999/02/22-rdf-syntax-ns#">
   <cc:Work>
    <dc:type rdf:resource="http://purl.org/dc/dcmitype/StillImage"/>
    <dc:date>2022-12-23T17:29:11.933556</dc:date>
    <dc:format>image/svg+xml</dc:format>
    <dc:creator>
     <cc:Agent>
      <dc:title>Matplotlib v3.5.2, https://matplotlib.org/</dc:title>
     </cc:Agent>
    </dc:creator>
   </cc:Work>
  </rdf:RDF>
 </metadata>
 <defs>
  <style type="text/css">*{stroke-linejoin: round; stroke-linecap: butt}</style>
 </defs>
 <g id="figure_1">
  <g id="patch_1">
   <path d="M 0 583.918125 
L 568.8 583.918125 
L 568.8 0 
L 0 0 
z
" style="fill: #ffffff"/>
  </g>
  <g id="axes_1">
   <g id="PathCollection_1">
    <path d="M 497.630769 326.904253 
C 504.893655 326.904253 511.86005 324.018678 516.995686 318.883042 
C 522.131322 313.747406 525.016897 306.781011 525.016897 299.518125 
C 525.016897 292.255239 522.131322 285.288844 516.995686 280.153208 
C 511.86005 275.017572 504.893655 272.131997 497.630769 272.131997 
C 490.367883 272.131997 483.401488 275.017572 478.265852 280.153208 
C 473.130217 285.288844 470.244641 292.255239 470.244641 299.518125 
C 470.244641 306.781011 473.130217 313.747406 478.265852 318.883042 
C 483.401488 324.018678 490.367883 326.904253 497.630769 326.904253 
z
" clip-path="url(#p4e2af6acfb)" style="fill: #c70039; fill-opacity: 0.99; stroke: #c70039; stroke-opacity: 0.99"/>
    <path d="M 478.992348 238.965025 
C 486.06091 238.965025 492.840914 236.156656 497.839142 231.158427 
C 502.83737 226.160199 505.64574 219.380196 505.64574 212.311633 
C 505.64574 205.243071 502.83737 198.463068 497.839142 193.464839 
C 492.840914 188.466611 486.06091 185.658242 478.992348 185.658242 
C 471.923786 185.658242 465.143782 188.466611 460.145554 193.464839 
C 455.147326 198.463068 452.338956 205.243071 452.338956 212.311633 
C 452.338956 219.380196 455.147326 226.160199 460.145554 231.158427 
C 465.143782 236.156656 471.923786 238.965025 478.992348 238.965025 
z
" clip-path="url(#p4e2af6acfb)" style="fill: #c70039; fill-opacity: 0.99; stroke: #c70039; stroke-opacity: 0.99"/>
    <path d="M 426.29985 164.403989 
C 432.723086 164.403989 438.884107 161.852011 443.42602 157.310097 
C 447.967934 152.768184 450.519913 146.607162 450.519913 140.183927 
C 450.519913 133.760691 447.967934 127.59967 443.42602 123.057756 
C 438.884107 118.515842 432.723086 115.963864 426.29985 115.963864 
C 419.876614 115.963864 413.715593 118.515842 409.173679 123.057756 
C 404.631766 127.59967 402.079787 133.760691 402.079787 140.183927 
C 402.079787 146.607162 404.631766 152.768184 409.173679 157.310097 
C 413.715593 161.852011 419.876614 164.403989 426.29985 164.403989 
z
" clip-path="url(#p4e2af6acfb)" style="fill: #c70039; fill-opacity: 0.99; stroke: #c70039; stroke-opacity: 0.99"/>
    <path d="M 348.664291 119.596981 
C 355.026624 119.596981 361.129229 117.069199 365.628078 112.57035 
C 370.126927 108.071501 372.654709 101.968896 372.654709 95.606563 
C 372.654709 89.24423 370.126927 83.141625 365.628078 78.642776 
C 361.129229 74.143927 355.026624 71.616145 348.664291 71.616145 
C 342.301958 71.616145 336.199353 74.143927 331.700504 78.642776 
C 327.201655 83.141625 324.673873 89.24423 324.673873 95.606563 
C 324.673873 101.968896 327.201655 108.071501 331.700504 112.57035 
C 336.199353 117.069199 342.301958 119.596981 348.664291 119.596981 
z
" clip-path="url(#p4e2af6acfb)" style="fill: #c70039; fill-opacity: 0.99; stroke: #c70039; stroke-opacity: 0.99"/>
    <path d="M 259.509549 109.308514 
C 265.614831 109.308514 271.470879 106.882859 275.787966 102.565773 
C 280.105052 98.248686 282.530707 92.392638 282.530707 86.287356 
C 282.530707 80.182073 280.105052 74.326025 275.787966 70.008939 
C 271.470879 65.691852 265.614831 63.266198 259.509549 63.266198 
C 253.404266 63.266198 247.548218 65.691852 243.231132 70.008939 
C 238.914045 74.326025 236.48839 80.182073 236.48839 86.287356 
C 236.48839 92.392638 238.914045 98.248686 243.231132 102.565773 
C 247.548218 106.882859 253.404266 109.308514 259.509549 109.308514 
z
" clip-path="url(#p4e2af6acfb)" style="fill: #c70039; fill-opacity: 0.99; stroke: #c70039; stroke-opacity: 0.99"/>
    <path d="M 174.251298 136.835383 
C 180.350357 136.835383 186.200435 134.412201 190.513121 130.099515 
C 194.825807 125.786829 197.248988 119.936751 197.248988 113.837692 
C 197.248988 107.738634 194.825807 101.888555 190.513121 97.575869 
C 186.200435 93.263184 180.350357 90.840002 174.251298 90.840002 
C 168.152239 90.840002 162.302161 93.263184 157.989475 97.575869 
C 153.676789 101.888555 151.253608 107.738634 151.253608 113.837692 
C 151.253608 119.936751 153.676789 125.786829 157.989475 130.099515 
C 162.302161 134.412201 168.152239 136.835383 174.251298 136.835383 
z
" clip-path="url(#p4e2af6acfb)" style="fill: #c70039; fill-opacity: 0.99; stroke: #c70039; stroke-opacity: 0.99"/>
    <path d="M 107.631477 195.500923 
C 113.46782 195.500923 119.065907 193.182119 123.192825 189.055202 
C 127.319743 184.928284 129.638546 179.330197 129.638546 173.493854 
C 129.638546 167.657511 127.319743 162.059424 123.192825 157.932506 
C 119.065907 153.805588 113.46782 151.486784 107.631477 151.486784 
C 101.795134 151.486784 96.197047 153.805588 92.070129 157.932506 
C 87.943211 162.059424 85.624408 167.657511 85.624408 173.493854 
C 85.624408 179.330197 87.943211 184.928284 92.070129 189.055202 
C 96.197047 193.182119 101.795134 195.500923 107.631477 195.500923 
z
" clip-path="url(#p4e2af6acfb)" style="fill: #c70039; fill-opacity: 0.99; stroke: #c70039; stroke-opacity: 0.99"/>
    <path d="M 71.169231 276.262575 
C 76.823838 276.262575 82.247609 274.015975 86.246021 270.017564 
C 90.244432 266.019152 92.491032 260.595382 92.491032 254.940774 
C 92.491032 249.286166 90.244432 243.862395 86.246021 239.863984 
C 82.247609 235.865572 76.823838 233.618973 71.169231 233.618973 
C 65.514623 233.618973 60.090852 235.865572 56.092441 239.863984 
C 52.094029 243.862395 49.84743 249.286166 49.84743 254.940774 
C 49.84743 260.595382 52.094029 266.019152 56.092441 270.017564 
C 60.090852 274.015975 65.514623 276.262575 71.169231 276.262575 
z
" clip-path="url(#p4e2af6acfb)" style="fill: #c70039; fill-opacity: 0.99; stroke: #c70039; stroke-opacity: 0.99"/>
    <path d="M 71.169244 364.958719 
C 76.70223 364.958719 82.009345 362.76044 85.921757 358.848028 
C 89.834169 354.935616 92.032448 349.628501 92.032448 344.095514 
C 92.032448 338.562528 89.834169 333.255413 85.921757 329.343001 
C 82.009345 325.430589 76.70223 323.23231 71.169244 323.23231 
C 65.636257 323.23231 60.329142 325.430589 56.41673 329.343001 
C 52.504318 333.255413 50.306039 338.562528 50.306039 344.095514 
C 50.306039 349.628501 52.504318 354.935616 56.41673 358.848028 
C 60.329142 362.76044 65.636257 364.958719 71.169244 364.958719 
z
" clip-path="url(#p4e2af6acfb)" style="fill: #c70039; fill-opacity: 0.99; stroke: #c70039; stroke-opacity: 0.99"/>
    <path d="M 107.63149 446.018936 
C 113.061928 446.018936 118.270681 443.8614 122.110581 440.0215 
C 125.950481 436.1816 128.108017 430.972848 128.108017 425.542409 
C 128.108017 420.111971 125.950481 414.903218 122.110581 411.063318 
C 118.270681 407.223418 113.061928 405.065882 107.63149 405.065882 
C 102.201051 405.065882 96.992299 407.223418 93.152399 411.063318 
C 89.312499 414.903218 87.154963 420.111971 87.154963 425.542409 
C 87.154963 430.972848 89.312499 436.1816 93.152399 440.0215 
C 96.992299 443.8614 102.201051 446.018936 107.63149 446.018936 
z
" clip-path="url(#p4e2af6acfb)" style="fill: #c70039; fill-opacity: 0.99; stroke: #c70039; stroke-opacity: 0.99"/>
    <path d="M 174.25133 505.53674 
C 179.645076 505.53674 184.818634 503.393783 188.632588 499.579828 
C 192.446542 495.765874 194.5895 490.592316 194.5895 485.198571 
C 194.5895 479.804825 192.446542 474.631267 188.632588 470.817313 
C 184.818634 467.003358 179.645076 464.860401 174.25133 464.860401 
C 168.857585 464.860401 163.684027 467.003358 159.870072 470.817313 
C 156.056118 474.631267 153.91316 479.804825 153.91316 485.198571 
C 153.91316 490.592316 156.056118 495.765874 159.870072 499.579828 
C 163.684027 503.393783 168.857585 505.53674 174.25133 505.53674 
z
" clip-path="url(#p4e2af6acfb)" style="fill: #c70039; fill-opacity: 0.99; stroke: #c70039; stroke-opacity: 0.99"/>
    <path d="M 259.509587 533.071306 
C 264.899154 533.071306 270.068703 530.930008 273.879702 527.119009 
C 277.690701 523.30801 279.831999 518.138461 279.831999 512.748894 
C 279.831999 507.359328 277.690701 502.189778 273.879702 498.378779 
C 270.068703 494.56778 264.899154 492.426483 259.509587 492.426483 
C 254.120021 492.426483 248.950471 494.56778 245.139472 498.378779 
C 241.328473 502.189778 239.187176 507.359328 239.187176 512.748894 
C 239.187176 518.138461 241.328473 523.30801 245.139472 527.119009 
C 248.950471 530.930008 254.120021 533.071306 259.509587 533.071306 
z
" clip-path="url(#p4e2af6acfb)" style="fill: #c70039; fill-opacity: 0.99; stroke: #c70039; stroke-opacity: 0.99"/>
    <path d="M 348.664323 523.361849 
C 353.950398 523.361849 359.02068 521.261669 362.758499 517.52385 
C 366.496318 513.786031 368.596497 508.715749 368.596497 503.429675 
C 368.596497 498.1436 366.496318 493.073318 362.758499 489.335499 
C 359.02068 485.59768 353.950398 483.4975 348.664323 483.4975 
C 343.378249 483.4975 338.307967 485.59768 334.570148 489.335499 
C 330.832329 493.073318 328.732149 498.1436 328.732149 503.429675 
C 328.732149 508.715749 330.832329 513.786031 334.570148 517.52385 
C 338.307967 521.261669 343.378249 523.361849 348.664323 523.361849 
z
" clip-path="url(#p4e2af6acfb)" style="fill: #c70039; fill-opacity: 0.99; stroke: #c70039; stroke-opacity: 0.99"/>
    <path d="M 426.299888 478.467625 
C 431.501937 478.467625 436.491624 476.400829 440.170028 472.722425 
C 443.848432 469.044021 445.915228 464.054334 445.915228 458.852285 
C 445.915228 453.650236 443.848432 448.660549 440.170028 444.982145 
C 436.491624 441.303741 431.501937 439.236945 426.299888 439.236945 
C 421.097839 439.236945 416.108153 441.303741 412.429748 444.982145 
C 408.751344 448.660549 406.684548 453.650236 406.684548 458.852285 
C 406.684548 464.054334 408.751344 469.044021 412.429748 472.722425 
C 416.108153 476.400829 421.097839 478.467625 426.299888 478.467625 
z
" clip-path="url(#p4e2af6acfb)" style="fill: #c70039; fill-opacity: 0.99; stroke: #c70039; stroke-opacity: 0.99"/>
    <path d="M 478.992374 406.089501 
C 484.128009 406.089501 489.053994 404.049092 492.685437 400.417649 
C 496.31688 396.786206 498.35729 391.860221 498.35729 386.724585 
C 498.35729 381.588949 496.31688 376.662964 492.685437 373.031521 
C 489.053994 369.400078 484.128009 367.359668 478.992374 367.359668 
C 473.856738 367.359668 468.930753 369.400078 465.29931 373.031521 
C 461.667867 376.662964 459.627457 381.588949 459.627457 386.724585 
C 459.627457 391.860221 461.667867 396.786206 465.29931 400.417649 
C 468.930753 404.049092 473.856738 406.089501 478.992374 406.089501 
z
" clip-path="url(#p4e2af6acfb)" style="fill: #c70039; fill-opacity: 0.99; stroke: #c70039; stroke-opacity: 0.99"/>
   </g>
   <g id="text_1">
    <g id="patch_2">
     <path d="M 460.258269 307.833281 
L 535.003269 307.833281 
L 535.003269 291.202969 
L 460.258269 291.202969 
z
" clip-path="url(#p4e2af6acfb)" style="fill: #ffffff; opacity: 0.7; stroke: #000000; stroke-linejoin: miter"/>
    </g>
    <g clip-path="url(#p4e2af6acfb)">
     <!-- Steve Buscemi -->
     <g transform="translate(464.218269 302.001562)scale(0.09 -0.09)">
      <defs>
       <path id="DejaVuSans-53" d="M 3425 4513 
L 3425 3897 
Q 3066 4069 2747 4153 
Q 2428 4238 2131 4238 
Q 1616 4238 1336 4038 
Q 1056 3838 1056 3469 
Q 1056 3159 1242 3001 
Q 1428 2844 1947 2747 
L 2328 2669 
Q 3034 2534 3370 2195 
Q 3706 1856 3706 1288 
Q 3706 609 3251 259 
Q 2797 -91 1919 -91 
Q 1588 -91 1214 -16 
Q 841 59 441 206 
L 441 856 
Q 825 641 1194 531 
Q 1563 422 1919 422 
Q 2459 422 2753 634 
Q 3047 847 3047 1241 
Q 3047 1584 2836 1778 
Q 2625 1972 2144 2069 
L 1759 2144 
Q 1053 2284 737 2584 
Q 422 2884 422 3419 
Q 422 4038 858 4394 
Q 1294 4750 2059 4750 
Q 2388 4750 2728 4690 
Q 3069 4631 3425 4513 
z
" transform="scale(0.015625)"/>
       <path id="DejaVuSans-74" d="M 1172 4494 
L 1172 3500 
L 2356 3500 
L 2356 3053 
L 1172 3053 
L 1172 1153 
Q 1172 725 1289 603 
Q 1406 481 1766 481 
L 2356 481 
L 2356 0 
L 1766 0 
Q 1100 0 847 248 
Q 594 497 594 1153 
L 594 3053 
L 172 3053 
L 172 3500 
L 594 3500 
L 594 4494 
L 1172 4494 
z
" transform="scale(0.015625)"/>
       <path id="DejaVuSans-65" d="M 3597 1894 
L 3597 1613 
L 953 1613 
Q 991 1019 1311 708 
Q 1631 397 2203 397 
Q 2534 397 2845 478 
Q 3156 559 3463 722 
L 3463 178 
Q 3153 47 2828 -22 
Q 2503 -91 2169 -91 
Q 1331 -91 842 396 
Q 353 884 353 1716 
Q 353 2575 817 3079 
Q 1281 3584 2069 3584 
Q 2775 3584 3186 3129 
Q 3597 2675 3597 1894 
z
M 3022 2063 
Q 3016 2534 2758 2815 
Q 2500 3097 2075 3097 
Q 1594 3097 1305 2825 
Q 1016 2553 972 2059 
L 3022 2063 
z
" transform="scale(0.015625)"/>
       <path id="DejaVuSans-76" d="M 191 3500 
L 800 3500 
L 1894 563 
L 2988 3500 
L 3597 3500 
L 2284 0 
L 1503 0 
L 191 3500 
z
" transform="scale(0.015625)"/>
       <path id="DejaVuSans-20" transform="scale(0.015625)"/>
       <path id="DejaVuSans-42" d="M 1259 2228 
L 1259 519 
L 2272 519 
Q 2781 519 3026 730 
Q 3272 941 3272 1375 
Q 3272 1813 3026 2020 
Q 2781 2228 2272 2228 
L 1259 2228 
z
M 1259 4147 
L 1259 2741 
L 2194 2741 
Q 2656 2741 2882 2914 
Q 3109 3088 3109 3444 
Q 3109 3797 2882 3972 
Q 2656 4147 2194 4147 
L 1259 4147 
z
M 628 4666 
L 2241 4666 
Q 2963 4666 3353 4366 
Q 3744 4066 3744 3513 
Q 3744 3084 3544 2831 
Q 3344 2578 2956 2516 
Q 3422 2416 3680 2098 
Q 3938 1781 3938 1306 
Q 3938 681 3513 340 
Q 3088 0 2303 0 
L 628 0 
L 628 4666 
z
" transform="scale(0.015625)"/>
       <path id="DejaVuSans-75" d="M 544 1381 
L 544 3500 
L 1119 3500 
L 1119 1403 
Q 1119 906 1312 657 
Q 1506 409 1894 409 
Q 2359 409 2629 706 
Q 2900 1003 2900 1516 
L 2900 3500 
L 3475 3500 
L 3475 0 
L 2900 0 
L 2900 538 
Q 2691 219 2414 64 
Q 2138 -91 1772 -91 
Q 1169 -91 856 284 
Q 544 659 544 1381 
z
M 1991 3584 
L 1991 3584 
z
" transform="scale(0.015625)"/>
       <path id="DejaVuSans-73" d="M 2834 3397 
L 2834 2853 
Q 2591 2978 2328 3040 
Q 2066 3103 1784 3103 
Q 1356 3103 1142 2972 
Q 928 2841 928 2578 
Q 928 2378 1081 2264 
Q 1234 2150 1697 2047 
L 1894 2003 
Q 2506 1872 2764 1633 
Q 3022 1394 3022 966 
Q 3022 478 2636 193 
Q 2250 -91 1575 -91 
Q 1294 -91 989 -36 
Q 684 19 347 128 
L 347 722 
Q 666 556 975 473 
Q 1284 391 1588 391 
Q 1994 391 2212 530 
Q 2431 669 2431 922 
Q 2431 1156 2273 1281 
Q 2116 1406 1581 1522 
L 1381 1569 
Q 847 1681 609 1914 
Q 372 2147 372 2553 
Q 372 3047 722 3315 
Q 1072 3584 1716 3584 
Q 2034 3584 2315 3537 
Q 2597 3491 2834 3397 
z
" transform="scale(0.015625)"/>
       <path id="DejaVuSans-63" d="M 3122 3366 
L 3122 2828 
Q 2878 2963 2633 3030 
Q 2388 3097 2138 3097 
Q 1578 3097 1268 2742 
Q 959 2388 959 1747 
Q 959 1106 1268 751 
Q 1578 397 2138 397 
Q 2388 397 2633 464 
Q 2878 531 3122 666 
L 3122 134 
Q 2881 22 2623 -34 
Q 2366 -91 2075 -91 
Q 1284 -91 818 406 
Q 353 903 353 1747 
Q 353 2603 823 3093 
Q 1294 3584 2113 3584 
Q 2378 3584 2631 3529 
Q 2884 3475 3122 3366 
z
" transform="scale(0.015625)"/>
       <path id="DejaVuSans-6d" d="M 3328 2828 
Q 3544 3216 3844 3400 
Q 4144 3584 4550 3584 
Q 5097 3584 5394 3201 
Q 5691 2819 5691 2113 
L 5691 0 
L 5113 0 
L 5113 2094 
Q 5113 2597 4934 2840 
Q 4756 3084 4391 3084 
Q 3944 3084 3684 2787 
Q 3425 2491 3425 1978 
L 3425 0 
L 2847 0 
L 2847 2094 
Q 2847 2600 2669 2842 
Q 2491 3084 2119 3084 
Q 1678 3084 1418 2786 
Q 1159 2488 1159 1978 
L 1159 0 
L 581 0 
L 581 3500 
L 1159 3500 
L 1159 2956 
Q 1356 3278 1631 3431 
Q 1906 3584 2284 3584 
Q 2666 3584 2933 3390 
Q 3200 3197 3328 2828 
z
" transform="scale(0.015625)"/>
       <path id="DejaVuSans-69" d="M 603 3500 
L 1178 3500 
L 1178 0 
L 603 0 
L 603 3500 
z
M 603 4863 
L 1178 4863 
L 1178 4134 
L 603 4134 
L 603 4863 
z
" transform="scale(0.015625)"/>
      </defs>
      <use xlink:href="#DejaVuSans-53"/>
      <use xlink:href="#DejaVuSans-74" x="63.476562"/>
      <use xlink:href="#DejaVuSans-65" x="102.685547"/>
      <use xlink:href="#DejaVuSans-76" x="164.208984"/>
      <use xlink:href="#DejaVuSans-65" x="223.388672"/>
      <use xlink:href="#DejaVuSans-20" x="284.912109"/>
      <use xlink:href="#DejaVuSans-42" x="316.699219"/>
      <use xlink:href="#DejaVuSans-75" x="385.302734"/>
      <use xlink:href="#DejaVuSans-73" x="448.681641"/>
      <use xlink:href="#DejaVuSans-63" x="500.78125"/>
      <use xlink:href="#DejaVuSans-65" x="555.761719"/>
      <use xlink:href="#DejaVuSans-6d" x="617.285156"/>
      <use xlink:href="#DejaVuSans-69" x="714.697266"/>
     </g>
    </g>
   </g>
   <g id="text_2">
    <g id="patch_3">
     <path d="M 453.279067 220.62679 
L 504.705629 220.62679 
L 504.705629 203.996477 
L 453.279067 203.996477 
z
" clip-path="url(#p4e2af6acfb)" style="fill: #ffffff; opacity: 0.7; stroke: #000000; stroke-linejoin: miter"/>
    </g>
    <g clip-path="url(#p4e2af6acfb)">
     <!-- Mel Blanc -->
     <g transform="translate(457.239067 214.795071)scale(0.09 -0.09)">
      <defs>
       <path id="DejaVuSans-4d" d="M 628 4666 
L 1569 4666 
L 2759 1491 
L 3956 4666 
L 4897 4666 
L 4897 0 
L 4281 0 
L 4281 4097 
L 3078 897 
L 2444 897 
L 1241 4097 
L 1241 0 
L 628 0 
L 628 4666 
z
" transform="scale(0.015625)"/>
       <path id="DejaVuSans-6c" d="M 603 4863 
L 1178 4863 
L 1178 0 
L 603 0 
L 603 4863 
z
" transform="scale(0.015625)"/>
       <path id="DejaVuSans-61" d="M 2194 1759 
Q 1497 1759 1228 1600 
Q 959 1441 959 1056 
Q 959 750 1161 570 
Q 1363 391 1709 391 
Q 2188 391 2477 730 
Q 2766 1069 2766 1631 
L 2766 1759 
L 2194 1759 
z
M 3341 1997 
L 3341 0 
L 2766 0 
L 2766 531 
Q 2569 213 2275 61 
Q 1981 -91 1556 -91 
Q 1019 -91 701 211 
Q 384 513 384 1019 
Q 384 1609 779 1909 
Q 1175 2209 1959 2209 
L 2766 2209 
L 2766 2266 
Q 2766 2663 2505 2880 
Q 2244 3097 1772 3097 
Q 1472 3097 1187 3025 
Q 903 2953 641 2809 
L 641 3341 
Q 956 3463 1253 3523 
Q 1550 3584 1831 3584 
Q 2591 3584 2966 3190 
Q 3341 2797 3341 1997 
z
" transform="scale(0.015625)"/>
       <path id="DejaVuSans-6e" d="M 3513 2113 
L 3513 0 
L 2938 0 
L 2938 2094 
Q 2938 2591 2744 2837 
Q 2550 3084 2163 3084 
Q 1697 3084 1428 2787 
Q 1159 2491 1159 1978 
L 1159 0 
L 581 0 
L 581 3500 
L 1159 3500 
L 1159 2956 
Q 1366 3272 1645 3428 
Q 1925 3584 2291 3584 
Q 2894 3584 3203 3211 
Q 3513 2838 3513 2113 
z
" transform="scale(0.015625)"/>
      </defs>
      <use xlink:href="#DejaVuSans-4d"/>
      <use xlink:href="#DejaVuSans-65" x="86.279297"/>
      <use xlink:href="#DejaVuSans-6c" x="147.802734"/>
      <use xlink:href="#DejaVuSans-20" x="175.585938"/>
      <use xlink:href="#DejaVuSans-42" x="207.373047"/>
      <use xlink:href="#DejaVuSans-6c" x="275.976562"/>
      <use xlink:href="#DejaVuSans-61" x="303.759766"/>
      <use xlink:href="#DejaVuSans-6e" x="365.039062"/>
      <use xlink:href="#DejaVuSans-63" x="428.417969"/>
     </g>
    </g>
   </g>
   <g id="text_3">
    <g id="patch_4">
     <path d="M 391.341178 148.499083 
L 461.258522 148.499083 
L 461.258522 131.86877 
L 391.341178 131.86877 
z
" clip-path="url(#p4e2af6acfb)" style="fill: #ffffff; opacity: 0.7; stroke: #000000; stroke-linejoin: miter"/>
    </g>
    <g clip-path="url(#p4e2af6acfb)">
     <!-- Danny DeVito -->
     <g transform="translate(395.301178 142.667364)scale(0.09 -0.09)">
      <defs>
       <path id="DejaVuSans-44" d="M 1259 4147 
L 1259 519 
L 2022 519 
Q 2988 519 3436 956 
Q 3884 1394 3884 2338 
Q 3884 3275 3436 3711 
Q 2988 4147 2022 4147 
L 1259 4147 
z
M 628 4666 
L 1925 4666 
Q 3281 4666 3915 4102 
Q 4550 3538 4550 2338 
Q 4550 1131 3912 565 
Q 3275 0 1925 0 
L 628 0 
L 628 4666 
z
" transform="scale(0.015625)"/>
       <path id="DejaVuSans-79" d="M 2059 -325 
Q 1816 -950 1584 -1140 
Q 1353 -1331 966 -1331 
L 506 -1331 
L 506 -850 
L 844 -850 
Q 1081 -850 1212 -737 
Q 1344 -625 1503 -206 
L 1606 56 
L 191 3500 
L 800 3500 
L 1894 763 
L 2988 3500 
L 3597 3500 
L 2059 -325 
z
" transform="scale(0.015625)"/>
       <path id="DejaVuSans-56" d="M 1831 0 
L 50 4666 
L 709 4666 
L 2188 738 
L 3669 4666 
L 4325 4666 
L 2547 0 
L 1831 0 
z
" transform="scale(0.015625)"/>
       <path id="DejaVuSans-6f" d="M 1959 3097 
Q 1497 3097 1228 2736 
Q 959 2375 959 1747 
Q 959 1119 1226 758 
Q 1494 397 1959 397 
Q 2419 397 2687 759 
Q 2956 1122 2956 1747 
Q 2956 2369 2687 2733 
Q 2419 3097 1959 3097 
z
M 1959 3584 
Q 2709 3584 3137 3096 
Q 3566 2609 3566 1747 
Q 3566 888 3137 398 
Q 2709 -91 1959 -91 
Q 1206 -91 779 398 
Q 353 888 353 1747 
Q 353 2609 779 3096 
Q 1206 3584 1959 3584 
z
" transform="scale(0.015625)"/>
      </defs>
      <use xlink:href="#DejaVuSans-44"/>
      <use xlink:href="#DejaVuSans-61" x="77.001953"/>
      <use xlink:href="#DejaVuSans-6e" x="138.28125"/>
      <use xlink:href="#DejaVuSans-6e" x="201.660156"/>
      <use xlink:href="#DejaVuSans-79" x="265.039062"/>
      <use xlink:href="#DejaVuSans-20" x="324.21875"/>
      <use xlink:href="#DejaVuSans-44" x="356.005859"/>
      <use xlink:href="#DejaVuSans-65" x="433.007812"/>
      <use xlink:href="#DejaVuSans-56" x="494.53125"/>
      <use xlink:href="#DejaVuSans-69" x="560.689453"/>
      <use xlink:href="#DejaVuSans-74" x="588.472656"/>
      <use xlink:href="#DejaVuSans-6f" x="627.681641"/>
     </g>
    </g>
   </g>
   <g id="text_4">
    <g id="patch_5">
     <path d="M 316.472416 103.921719 
L 380.856166 103.921719 
L 380.856166 87.291406 
L 316.472416 87.291406 
z
" clip-path="url(#p4e2af6acfb)" style="fill: #ffffff; opacity: 0.7; stroke: #000000; stroke-linejoin: miter"/>
    </g>
    <g clip-path="url(#p4e2af6acfb)">
     <!-- Mark Ruffalo -->
     <g transform="translate(320.432416 98.09)scale(0.09 -0.09)">
      <defs>
       <path id="DejaVuSans-72" d="M 2631 2963 
Q 2534 3019 2420 3045 
Q 2306 3072 2169 3072 
Q 1681 3072 1420 2755 
Q 1159 2438 1159 1844 
L 1159 0 
L 581 0 
L 581 3500 
L 1159 3500 
L 1159 2956 
Q 1341 3275 1631 3429 
Q 1922 3584 2338 3584 
Q 2397 3584 2469 3576 
Q 2541 3569 2628 3553 
L 2631 2963 
z
" transform="scale(0.015625)"/>
       <path id="DejaVuSans-6b" d="M 581 4863 
L 1159 4863 
L 1159 1991 
L 2875 3500 
L 3609 3500 
L 1753 1863 
L 3688 0 
L 2938 0 
L 1159 1709 
L 1159 0 
L 581 0 
L 581 4863 
z
" transform="scale(0.015625)"/>
       <path id="DejaVuSans-52" d="M 2841 2188 
Q 3044 2119 3236 1894 
Q 3428 1669 3622 1275 
L 4263 0 
L 3584 0 
L 2988 1197 
Q 2756 1666 2539 1819 
Q 2322 1972 1947 1972 
L 1259 1972 
L 1259 0 
L 628 0 
L 628 4666 
L 2053 4666 
Q 2853 4666 3247 4331 
Q 3641 3997 3641 3322 
Q 3641 2881 3436 2590 
Q 3231 2300 2841 2188 
z
M 1259 4147 
L 1259 2491 
L 2053 2491 
Q 2509 2491 2742 2702 
Q 2975 2913 2975 3322 
Q 2975 3731 2742 3939 
Q 2509 4147 2053 4147 
L 1259 4147 
z
" transform="scale(0.015625)"/>
       <path id="DejaVuSans-66" d="M 2375 4863 
L 2375 4384 
L 1825 4384 
Q 1516 4384 1395 4259 
Q 1275 4134 1275 3809 
L 1275 3500 
L 2222 3500 
L 2222 3053 
L 1275 3053 
L 1275 0 
L 697 0 
L 697 3053 
L 147 3053 
L 147 3500 
L 697 3500 
L 697 3744 
Q 697 4328 969 4595 
Q 1241 4863 1831 4863 
L 2375 4863 
z
" transform="scale(0.015625)"/>
      </defs>
      <use xlink:href="#DejaVuSans-4d"/>
      <use xlink:href="#DejaVuSans-61" x="86.279297"/>
      <use xlink:href="#DejaVuSans-72" x="147.558594"/>
      <use xlink:href="#DejaVuSans-6b" x="188.671875"/>
      <use xlink:href="#DejaVuSans-20" x="246.582031"/>
      <use xlink:href="#DejaVuSans-52" x="278.369141"/>
      <use xlink:href="#DejaVuSans-75" x="343.351562"/>
      <use xlink:href="#DejaVuSans-66" x="406.730469"/>
      <use xlink:href="#DejaVuSans-66" x="441.935547"/>
      <use xlink:href="#DejaVuSans-61" x="477.140625"/>
      <use xlink:href="#DejaVuSans-6c" x="538.419922"/>
      <use xlink:href="#DejaVuSans-6f" x="566.203125"/>
     </g>
    </g>
   </g>
   <g id="text_5">
    <g id="patch_6">
     <path d="M 224.777986 94.602512 
L 294.241111 94.602512 
L 294.241111 77.9722 
L 224.777986 77.9722 
z
" clip-path="url(#p4e2af6acfb)" style="fill: #ffffff; opacity: 0.7; stroke: #000000; stroke-linejoin: miter"/>
    </g>
    <g clip-path="url(#p4e2af6acfb)">
     <!-- Joe Mantegna -->
     <g transform="translate(228.737986 88.770793)scale(0.09 -0.09)">
      <defs>
       <path id="DejaVuSans-4a" d="M 628 4666 
L 1259 4666 
L 1259 325 
Q 1259 -519 939 -900 
Q 619 -1281 -91 -1281 
L -331 -1281 
L -331 -750 
L -134 -750 
Q 284 -750 456 -515 
Q 628 -281 628 325 
L 628 4666 
z
" transform="scale(0.015625)"/>
       <path id="DejaVuSans-67" d="M 2906 1791 
Q 2906 2416 2648 2759 
Q 2391 3103 1925 3103 
Q 1463 3103 1205 2759 
Q 947 2416 947 1791 
Q 947 1169 1205 825 
Q 1463 481 1925 481 
Q 2391 481 2648 825 
Q 2906 1169 2906 1791 
z
M 3481 434 
Q 3481 -459 3084 -895 
Q 2688 -1331 1869 -1331 
Q 1566 -1331 1297 -1286 
Q 1028 -1241 775 -1147 
L 775 -588 
Q 1028 -725 1275 -790 
Q 1522 -856 1778 -856 
Q 2344 -856 2625 -561 
Q 2906 -266 2906 331 
L 2906 616 
Q 2728 306 2450 153 
Q 2172 0 1784 0 
Q 1141 0 747 490 
Q 353 981 353 1791 
Q 353 2603 747 3093 
Q 1141 3584 1784 3584 
Q 2172 3584 2450 3431 
Q 2728 3278 2906 2969 
L 2906 3500 
L 3481 3500 
L 3481 434 
z
" transform="scale(0.015625)"/>
      </defs>
      <use xlink:href="#DejaVuSans-4a"/>
      <use xlink:href="#DejaVuSans-6f" x="29.492188"/>
      <use xlink:href="#DejaVuSans-65" x="90.673828"/>
      <use xlink:href="#DejaVuSans-20" x="152.197266"/>
      <use xlink:href="#DejaVuSans-4d" x="183.984375"/>
      <use xlink:href="#DejaVuSans-61" x="270.263672"/>
      <use xlink:href="#DejaVuSans-6e" x="331.542969"/>
      <use xlink:href="#DejaVuSans-74" x="394.921875"/>
      <use xlink:href="#DejaVuSans-65" x="434.130859"/>
      <use xlink:href="#DejaVuSans-67" x="495.654297"/>
      <use xlink:href="#DejaVuSans-6e" x="559.130859"/>
      <use xlink:href="#DejaVuSans-61" x="622.509766"/>
     </g>
    </g>
   </g>
   <g id="text_6">
    <g id="patch_7">
     <path d="M 137.390673 122.152849 
L 211.111923 122.152849 
L 211.111923 105.522536 
L 137.390673 105.522536 
z
" clip-path="url(#p4e2af6acfb)" style="fill: #ffffff; opacity: 0.7; stroke: #000000; stroke-linejoin: miter"/>
    </g>
    <g clip-path="url(#p4e2af6acfb)">
     <!-- Robin Williams -->
     <g transform="translate(141.350673 116.32113)scale(0.09 -0.09)">
      <defs>
       <path id="DejaVuSans-62" d="M 3116 1747 
Q 3116 2381 2855 2742 
Q 2594 3103 2138 3103 
Q 1681 3103 1420 2742 
Q 1159 2381 1159 1747 
Q 1159 1113 1420 752 
Q 1681 391 2138 391 
Q 2594 391 2855 752 
Q 3116 1113 3116 1747 
z
M 1159 2969 
Q 1341 3281 1617 3432 
Q 1894 3584 2278 3584 
Q 2916 3584 3314 3078 
Q 3713 2572 3713 1747 
Q 3713 922 3314 415 
Q 2916 -91 2278 -91 
Q 1894 -91 1617 61 
Q 1341 213 1159 525 
L 1159 0 
L 581 0 
L 581 4863 
L 1159 4863 
L 1159 2969 
z
" transform="scale(0.015625)"/>
       <path id="DejaVuSans-57" d="M 213 4666 
L 850 4666 
L 1831 722 
L 2809 4666 
L 3519 4666 
L 4500 722 
L 5478 4666 
L 6119 4666 
L 4947 0 
L 4153 0 
L 3169 4050 
L 2175 0 
L 1381 0 
L 213 4666 
z
" transform="scale(0.015625)"/>
      </defs>
      <use xlink:href="#DejaVuSans-52"/>
      <use xlink:href="#DejaVuSans-6f" x="64.982422"/>
      <use xlink:href="#DejaVuSans-62" x="126.164062"/>
      <use xlink:href="#DejaVuSans-69" x="189.640625"/>
      <use xlink:href="#DejaVuSans-6e" x="217.423828"/>
      <use xlink:href="#DejaVuSans-20" x="280.802734"/>
      <use xlink:href="#DejaVuSans-57" x="312.589844"/>
      <use xlink:href="#DejaVuSans-69" x="409.216797"/>
      <use xlink:href="#DejaVuSans-6c" x="437"/>
      <use xlink:href="#DejaVuSans-6c" x="464.783203"/>
      <use xlink:href="#DejaVuSans-69" x="492.566406"/>
      <use xlink:href="#DejaVuSans-61" x="520.349609"/>
      <use xlink:href="#DejaVuSans-6d" x="581.628906"/>
      <use xlink:href="#DejaVuSans-73" x="679.041016"/>
     </g>
    </g>
   </g>
   <g id="text_7">
    <g id="patch_8">
     <path d="M 73.82593 181.80901 
L 141.437024 181.80901 
L 141.437024 165.178697 
L 73.82593 165.178697 
z
" clip-path="url(#p4e2af6acfb)" style="fill: #ffffff; opacity: 0.7; stroke: #000000; stroke-linejoin: miter"/>
    </g>
    <g clip-path="url(#p4e2af6acfb)">
     <!-- Frank Sinatra -->
     <g transform="translate(77.78593 175.977291)scale(0.09 -0.09)">
      <defs>
       <path id="DejaVuSans-46" d="M 628 4666 
L 3309 4666 
L 3309 4134 
L 1259 4134 
L 1259 2759 
L 3109 2759 
L 3109 2228 
L 1259 2228 
L 1259 0 
L 628 0 
L 628 4666 
z
" transform="scale(0.015625)"/>
      </defs>
      <use xlink:href="#DejaVuSans-46"/>
      <use xlink:href="#DejaVuSans-72" x="50.269531"/>
      <use xlink:href="#DejaVuSans-61" x="91.382812"/>
      <use xlink:href="#DejaVuSans-6e" x="152.662109"/>
      <use xlink:href="#DejaVuSans-6b" x="216.041016"/>
      <use xlink:href="#DejaVuSans-20" x="273.951172"/>
      <use xlink:href="#DejaVuSans-53" x="305.738281"/>
      <use xlink:href="#DejaVuSans-69" x="369.214844"/>
      <use xlink:href="#DejaVuSans-6e" x="396.998047"/>
      <use xlink:href="#DejaVuSans-61" x="460.376953"/>
      <use xlink:href="#DejaVuSans-74" x="521.65625"/>
      <use xlink:href="#DejaVuSans-72" x="560.865234"/>
      <use xlink:href="#DejaVuSans-61" x="601.978516"/>
     </g>
    </g>
   </g>
   <g id="text_8">
    <g id="patch_9">
     <path d="M 38.18634 263.25593 
L 104.152121 263.25593 
L 104.152121 246.625618 
L 38.18634 246.625618 
z
" clip-path="url(#p4e2af6acfb)" style="fill: #ffffff; opacity: 0.7; stroke: #000000; stroke-linejoin: miter"/>
    </g>
    <g clip-path="url(#p4e2af6acfb)">
     <!-- Frank Welker -->
     <g transform="translate(42.14634 257.424211)scale(0.09 -0.09)">
      <use xlink:href="#DejaVuSans-46"/>
      <use xlink:href="#DejaVuSans-72" x="50.269531"/>
      <use xlink:href="#DejaVuSans-61" x="91.382812"/>
      <use xlink:href="#DejaVuSans-6e" x="152.662109"/>
      <use xlink:href="#DejaVuSans-6b" x="216.041016"/>
      <use xlink:href="#DejaVuSans-20" x="273.951172"/>
      <use xlink:href="#DejaVuSans-57" x="305.738281"/>
      <use xlink:href="#DejaVuSans-65" x="398.740234"/>
      <use xlink:href="#DejaVuSans-6c" x="460.263672"/>
      <use xlink:href="#DejaVuSans-6b" x="488.046875"/>
      <use xlink:href="#DejaVuSans-65" x="542.332031"/>
      <use xlink:href="#DejaVuSans-72" x="603.855469"/>
     </g>
    </g>
   </g>
   <g id="text_9">
    <g id="patch_10">
     <path d="M 34.078697 352.410671 
L 108.25979 352.410671 
L 108.25979 335.780358 
L 34.078697 335.780358 
z
" clip-path="url(#p4e2af6acfb)" style="fill: #ffffff; opacity: 0.7; stroke: #000000; stroke-linejoin: miter"/>
    </g>
    <g clip-path="url(#p4e2af6acfb)">
     <!-- Robert De Niro -->
     <g transform="translate(38.038697 346.578952)scale(0.09 -0.09)">
      <defs>
       <path id="DejaVuSans-4e" d="M 628 4666 
L 1478 4666 
L 3547 763 
L 3547 4666 
L 4159 4666 
L 4159 0 
L 3309 0 
L 1241 3903 
L 1241 0 
L 628 0 
L 628 4666 
z
" transform="scale(0.015625)"/>
      </defs>
      <use xlink:href="#DejaVuSans-52"/>
      <use xlink:href="#DejaVuSans-6f" x="64.982422"/>
      <use xlink:href="#DejaVuSans-62" x="126.164062"/>
      <use xlink:href="#DejaVuSans-65" x="189.640625"/>
      <use xlink:href="#DejaVuSans-72" x="251.164062"/>
      <use xlink:href="#DejaVuSans-74" x="292.277344"/>
      <use xlink:href="#DejaVuSans-20" x="331.486328"/>
      <use xlink:href="#DejaVuSans-44" x="363.273438"/>
      <use xlink:href="#DejaVuSans-65" x="440.275391"/>
      <use xlink:href="#DejaVuSans-20" x="501.798828"/>
      <use xlink:href="#DejaVuSans-4e" x="533.585938"/>
      <use xlink:href="#DejaVuSans-69" x="608.390625"/>
      <use xlink:href="#DejaVuSans-72" x="636.173828"/>
      <use xlink:href="#DejaVuSans-6f" x="675.037109"/>
     </g>
    </g>
   </g>
   <g id="text_10">
    <g id="patch_11">
     <path d="M 80.997818 433.857565 
L 134.265162 433.857565 
L 134.265162 417.227253 
L 80.997818 417.227253 
z
" clip-path="url(#p4e2af6acfb)" style="fill: #ffffff; opacity: 0.7; stroke: #000000; stroke-linejoin: miter"/>
    </g>
    <g clip-path="url(#p4e2af6acfb)">
     <!-- Ray Liotta -->
     <g transform="translate(84.957818 428.025847)scale(0.09 -0.09)">
      <defs>
       <path id="DejaVuSans-4c" d="M 628 4666 
L 1259 4666 
L 1259 531 
L 3531 531 
L 3531 0 
L 628 0 
L 628 4666 
z
" transform="scale(0.015625)"/>
      </defs>
      <use xlink:href="#DejaVuSans-52"/>
      <use xlink:href="#DejaVuSans-61" x="67.232422"/>
      <use xlink:href="#DejaVuSans-79" x="128.511719"/>
      <use xlink:href="#DejaVuSans-20" x="187.691406"/>
      <use xlink:href="#DejaVuSans-4c" x="219.478516"/>
      <use xlink:href="#DejaVuSans-69" x="275.191406"/>
      <use xlink:href="#DejaVuSans-6f" x="302.974609"/>
      <use xlink:href="#DejaVuSans-74" x="364.15625"/>
      <use xlink:href="#DejaVuSans-74" x="403.365234"/>
      <use xlink:href="#DejaVuSans-61" x="442.574219"/>
     </g>
    </g>
   </g>
   <g id="text_11">
    <g id="patch_12">
     <path d="M 134.713908 493.513727 
L 213.788752 493.513727 
L 213.788752 476.883414 
L 134.713908 476.883414 
z
" clip-path="url(#p4e2af6acfb)" style="fill: #ffffff; opacity: 0.7; stroke: #000000; stroke-linejoin: miter"/>
    </g>
    <g clip-path="url(#p4e2af6acfb)">
     <!-- Jennifer Aniston -->
     <g transform="translate(138.673908 487.682008)scale(0.09 -0.09)">
      <defs>
       <path id="DejaVuSans-41" d="M 2188 4044 
L 1331 1722 
L 3047 1722 
L 2188 4044 
z
M 1831 4666 
L 2547 4666 
L 4325 0 
L 3669 0 
L 3244 1197 
L 1141 1197 
L 716 0 
L 50 0 
L 1831 4666 
z
" transform="scale(0.015625)"/>
      </defs>
      <use xlink:href="#DejaVuSans-4a"/>
      <use xlink:href="#DejaVuSans-65" x="29.492188"/>
      <use xlink:href="#DejaVuSans-6e" x="91.015625"/>
      <use xlink:href="#DejaVuSans-6e" x="154.394531"/>
      <use xlink:href="#DejaVuSans-69" x="217.773438"/>
      <use xlink:href="#DejaVuSans-66" x="245.556641"/>
      <use xlink:href="#DejaVuSans-65" x="280.761719"/>
      <use xlink:href="#DejaVuSans-72" x="342.285156"/>
      <use xlink:href="#DejaVuSans-20" x="383.398438"/>
      <use xlink:href="#DejaVuSans-41" x="415.185547"/>
      <use xlink:href="#DejaVuSans-6e" x="483.59375"/>
      <use xlink:href="#DejaVuSans-69" x="546.972656"/>
      <use xlink:href="#DejaVuSans-73" x="574.755859"/>
      <use xlink:href="#DejaVuSans-74" x="626.855469"/>
      <use xlink:href="#DejaVuSans-6f" x="666.064453"/>
      <use xlink:href="#DejaVuSans-6e" x="727.246094"/>
     </g>
    </g>
   </g>
   <g id="text_12">
    <g id="patch_13">
     <path d="M 227.769822 521.06405 
L 291.249353 521.06405 
L 291.249353 504.433738 
L 227.769822 504.433738 
z
" clip-path="url(#p4e2af6acfb)" style="fill: #ffffff; opacity: 0.7; stroke: #000000; stroke-linejoin: miter"/>
    </g>
    <g clip-path="url(#p4e2af6acfb)">
     <!-- Paul Sorvino -->
     <g transform="translate(231.729822 515.232332)scale(0.09 -0.09)">
      <defs>
       <path id="DejaVuSans-50" d="M 1259 4147 
L 1259 2394 
L 2053 2394 
Q 2494 2394 2734 2622 
Q 2975 2850 2975 3272 
Q 2975 3691 2734 3919 
Q 2494 4147 2053 4147 
L 1259 4147 
z
M 628 4666 
L 2053 4666 
Q 2838 4666 3239 4311 
Q 3641 3956 3641 3272 
Q 3641 2581 3239 2228 
Q 2838 1875 2053 1875 
L 1259 1875 
L 1259 0 
L 628 0 
L 628 4666 
z
" transform="scale(0.015625)"/>
      </defs>
      <use xlink:href="#DejaVuSans-50"/>
      <use xlink:href="#DejaVuSans-61" x="55.802734"/>
      <use xlink:href="#DejaVuSans-75" x="117.082031"/>
      <use xlink:href="#DejaVuSans-6c" x="180.460938"/>
      <use xlink:href="#DejaVuSans-20" x="208.244141"/>
      <use xlink:href="#DejaVuSans-53" x="240.03125"/>
      <use xlink:href="#DejaVuSans-6f" x="303.507812"/>
      <use xlink:href="#DejaVuSans-72" x="364.689453"/>
      <use xlink:href="#DejaVuSans-76" x="405.802734"/>
      <use xlink:href="#DejaVuSans-69" x="464.982422"/>
      <use xlink:href="#DejaVuSans-6e" x="492.765625"/>
      <use xlink:href="#DejaVuSans-6f" x="556.144531"/>
     </g>
    </g>
   </g>
   <g id="text_13">
    <g id="patch_14">
     <path d="M 315.242683 511.744831 
L 382.085964 511.744831 
L 382.085964 495.114518 
L 315.242683 495.114518 
z
" clip-path="url(#p4e2af6acfb)" style="fill: #ffffff; opacity: 0.7; stroke: #000000; stroke-linejoin: miter"/>
    </g>
    <g clip-path="url(#p4e2af6acfb)">
     <!-- Stanley Tucci -->
     <g transform="translate(319.202683 505.913112)scale(0.09 -0.09)">
      <defs>
       <path id="DejaVuSans-54" d="M -19 4666 
L 3928 4666 
L 3928 4134 
L 2272 4134 
L 2272 0 
L 1638 0 
L 1638 4134 
L -19 4134 
L -19 4666 
z
" transform="scale(0.015625)"/>
      </defs>
      <use xlink:href="#DejaVuSans-53"/>
      <use xlink:href="#DejaVuSans-74" x="63.476562"/>
      <use xlink:href="#DejaVuSans-61" x="102.685547"/>
      <use xlink:href="#DejaVuSans-6e" x="163.964844"/>
      <use xlink:href="#DejaVuSans-6c" x="227.34375"/>
      <use xlink:href="#DejaVuSans-65" x="255.126953"/>
      <use xlink:href="#DejaVuSans-79" x="316.650391"/>
      <use xlink:href="#DejaVuSans-20" x="375.830078"/>
      <use xlink:href="#DejaVuSans-54" x="407.617188"/>
      <use xlink:href="#DejaVuSans-75" x="453.576172"/>
      <use xlink:href="#DejaVuSans-63" x="516.955078"/>
      <use xlink:href="#DejaVuSans-63" x="571.935547"/>
      <use xlink:href="#DejaVuSans-69" x="626.916016"/>
     </g>
    </g>
   </g>
   <g id="text_14">
    <g id="patch_15">
     <path d="M 401.983013 467.167441 
L 450.616763 467.167441 
L 450.616763 450.537129 
L 401.983013 450.537129 
z
" clip-path="url(#p4e2af6acfb)" style="fill: #ffffff; opacity: 0.7; stroke: #000000; stroke-linejoin: miter"/>
    </g>
    <g clip-path="url(#p4e2af6acfb)">
     <!-- Al Pacino -->
     <g transform="translate(405.943013 461.335723)scale(0.09 -0.09)">
      <use xlink:href="#DejaVuSans-41"/>
      <use xlink:href="#DejaVuSans-6c" x="68.408203"/>
      <use xlink:href="#DejaVuSans-20" x="96.191406"/>
      <use xlink:href="#DejaVuSans-50" x="127.978516"/>
      <use xlink:href="#DejaVuSans-61" x="183.78125"/>
      <use xlink:href="#DejaVuSans-63" x="245.060547"/>
      <use xlink:href="#DejaVuSans-69" x="300.041016"/>
      <use xlink:href="#DejaVuSans-6e" x="327.824219"/>
      <use xlink:href="#DejaVuSans-6f" x="391.203125"/>
     </g>
    </g>
   </g>
   <g id="text_15">
    <g id="patch_16">
     <path d="M 444.963936 395.039741 
L 513.020811 395.039741 
L 513.020811 378.409428 
L 444.963936 378.409428 
z
" clip-path="url(#p4e2af6acfb)" style="fill: #ffffff; opacity: 0.7; stroke: #000000; stroke-linejoin: miter"/>
    </g>
    <g clip-path="url(#p4e2af6acfb)">
     <!-- Kevin Spacey -->
     <g transform="translate(448.923936 389.208022)scale(0.09 -0.09)">
      <defs>
       <path id="DejaVuSans-4b" d="M 628 4666 
L 1259 4666 
L 1259 2694 
L 3353 4666 
L 4166 4666 
L 1850 2491 
L 4331 0 
L 3500 0 
L 1259 2247 
L 1259 0 
L 628 0 
L 628 4666 
z
" transform="scale(0.015625)"/>
       <path id="DejaVuSans-70" d="M 1159 525 
L 1159 -1331 
L 581 -1331 
L 581 3500 
L 1159 3500 
L 1159 2969 
Q 1341 3281 1617 3432 
Q 1894 3584 2278 3584 
Q 2916 3584 3314 3078 
Q 3713 2572 3713 1747 
Q 3713 922 3314 415 
Q 2916 -91 2278 -91 
Q 1894 -91 1617 61 
Q 1341 213 1159 525 
z
M 3116 1747 
Q 3116 2381 2855 2742 
Q 2594 3103 2138 3103 
Q 1681 3103 1420 2742 
Q 1159 2381 1159 1747 
Q 1159 1113 1420 752 
Q 1681 391 2138 391 
Q 2594 391 2855 752 
Q 3116 1113 3116 1747 
z
" transform="scale(0.015625)"/>
      </defs>
      <use xlink:href="#DejaVuSans-4b"/>
      <use xlink:href="#DejaVuSans-65" x="60.576172"/>
      <use xlink:href="#DejaVuSans-76" x="122.099609"/>
      <use xlink:href="#DejaVuSans-69" x="181.279297"/>
      <use xlink:href="#DejaVuSans-6e" x="209.0625"/>
      <use xlink:href="#DejaVuSans-20" x="272.441406"/>
      <use xlink:href="#DejaVuSans-53" x="304.228516"/>
      <use xlink:href="#DejaVuSans-70" x="367.705078"/>
      <use xlink:href="#DejaVuSans-61" x="431.181641"/>
      <use xlink:href="#DejaVuSans-63" x="492.460938"/>
      <use xlink:href="#DejaVuSans-65" x="547.441406"/>
      <use xlink:href="#DejaVuSans-79" x="608.964844"/>
     </g>
    </g>
   </g>
   <g id="text_16">
    <!-- Impactful actors for Romance Film genre - Importance rank: 7 -->
    <g transform="translate(98.85 16.318125)scale(0.12 -0.12)">
     <defs>
      <path id="DejaVuSans-49" d="M 628 4666 
L 1259 4666 
L 1259 0 
L 628 0 
L 628 4666 
z
" transform="scale(0.015625)"/>
      <path id="DejaVuSans-2d" d="M 313 2009 
L 1997 2009 
L 1997 1497 
L 313 1497 
L 313 2009 
z
" transform="scale(0.015625)"/>
      <path id="DejaVuSans-3a" d="M 750 794 
L 1409 794 
L 1409 0 
L 750 0 
L 750 794 
z
M 750 3309 
L 1409 3309 
L 1409 2516 
L 750 2516 
L 750 3309 
z
" transform="scale(0.015625)"/>
      <path id="DejaVuSans-37" d="M 525 4666 
L 3525 4666 
L 3525 4397 
L 1831 0 
L 1172 0 
L 2766 4134 
L 525 4134 
L 525 4666 
z
" transform="scale(0.015625)"/>
     </defs>
     <use xlink:href="#DejaVuSans-49"/>
     <use xlink:href="#DejaVuSans-6d" x="29.492188"/>
     <use xlink:href="#DejaVuSans-70" x="126.904297"/>
     <use xlink:href="#DejaVuSans-61" x="190.380859"/>
     <use xlink:href="#DejaVuSans-63" x="251.660156"/>
     <use xlink:href="#DejaVuSans-74" x="306.640625"/>
     <use xlink:href="#DejaVuSans-66" x="345.849609"/>
     <use xlink:href="#DejaVuSans-75" x="381.054688"/>
     <use xlink:href="#DejaVuSans-6c" x="444.433594"/>
     <use xlink:href="#DejaVuSans-20" x="472.216797"/>
     <use xlink:href="#DejaVuSans-61" x="504.003906"/>
     <use xlink:href="#DejaVuSans-63" x="565.283203"/>
     <use xlink:href="#DejaVuSans-74" x="620.263672"/>
     <use xlink:href="#DejaVuSans-6f" x="659.472656"/>
     <use xlink:href="#DejaVuSans-72" x="720.654297"/>
     <use xlink:href="#DejaVuSans-73" x="761.767578"/>
     <use xlink:href="#DejaVuSans-20" x="813.867188"/>
     <use xlink:href="#DejaVuSans-66" x="845.654297"/>
     <use xlink:href="#DejaVuSans-6f" x="880.859375"/>
     <use xlink:href="#DejaVuSans-72" x="942.041016"/>
     <use xlink:href="#DejaVuSans-20" x="983.154297"/>
     <use xlink:href="#DejaVuSans-52" x="1014.941406"/>
     <use xlink:href="#DejaVuSans-6f" x="1079.923828"/>
     <use xlink:href="#DejaVuSans-6d" x="1141.105469"/>
     <use xlink:href="#DejaVuSans-61" x="1238.517578"/>
     <use xlink:href="#DejaVuSans-6e" x="1299.796875"/>
     <use xlink:href="#DejaVuSans-63" x="1363.175781"/>
     <use xlink:href="#DejaVuSans-65" x="1418.15625"/>
     <use xlink:href="#DejaVuSans-20" x="1479.679688"/>
     <use xlink:href="#DejaVuSans-46" x="1511.466797"/>
     <use xlink:href="#DejaVuSans-69" x="1561.736328"/>
     <use xlink:href="#DejaVuSans-6c" x="1589.519531"/>
     <use xlink:href="#DejaVuSans-6d" x="1617.302734"/>
     <use xlink:href="#DejaVuSans-20" x="1714.714844"/>
     <use xlink:href="#DejaVuSans-67" x="1746.501953"/>
     <use xlink:href="#DejaVuSans-65" x="1809.978516"/>
     <use xlink:href="#DejaVuSans-6e" x="1871.501953"/>
     <use xlink:href="#DejaVuSans-72" x="1934.880859"/>
     <use xlink:href="#DejaVuSans-65" x="1973.744141"/>
     <use xlink:href="#DejaVuSans-20" x="2035.267578"/>
     <use xlink:href="#DejaVuSans-2d" x="2067.054688"/>
     <use xlink:href="#DejaVuSans-20" x="2103.138672"/>
     <use xlink:href="#DejaVuSans-49" x="2134.925781"/>
     <use xlink:href="#DejaVuSans-6d" x="2164.417969"/>
     <use xlink:href="#DejaVuSans-70" x="2261.830078"/>
     <use xlink:href="#DejaVuSans-6f" x="2325.306641"/>
     <use xlink:href="#DejaVuSans-72" x="2386.488281"/>
     <use xlink:href="#DejaVuSans-74" x="2427.601562"/>
     <use xlink:href="#DejaVuSans-61" x="2466.810547"/>
     <use xlink:href="#DejaVuSans-6e" x="2528.089844"/>
     <use xlink:href="#DejaVuSans-63" x="2591.46875"/>
     <use xlink:href="#DejaVuSans-65" x="2646.449219"/>
     <use xlink:href="#DejaVuSans-20" x="2707.972656"/>
     <use xlink:href="#DejaVuSans-72" x="2739.759766"/>
     <use xlink:href="#DejaVuSans-61" x="2780.873047"/>
     <use xlink:href="#DejaVuSans-6e" x="2842.152344"/>
     <use xlink:href="#DejaVuSans-6b" x="2905.53125"/>
     <use xlink:href="#DejaVuSans-3a" x="2963.441406"/>
     <use xlink:href="#DejaVuSans-20" x="2997.132812"/>
     <use xlink:href="#DejaVuSans-37" x="3028.919922"/>
    </g>
   </g>
  </g>
 </g>
 <defs>
  <clipPath id="p4e2af6acfb">
   <rect x="7.2" y="22.318125" width="554.4" height="554.4"/>
  </clipPath>
 </defs>
</svg>
