<?xml version="1.0" encoding="utf-8" standalone="no"?>
<!DOCTYPE svg PUBLIC "-//W3C//DTD SVG 1.1//EN"
  "http://www.w3.org/Graphics/SVG/1.1/DTD/svg11.dtd">
<svg xmlns:xlink="http://www.w3.org/1999/xlink" width="568.8pt" height="583.918125pt" viewBox="0 0 568.8 583.918125" xmlns="http://www.w3.org/2000/svg" version="1.1">
 <metadata>
  <rdf:RDF xmlns:dc="http://purl.org/dc/elements/1.1/" xmlns:cc="http://creativecommons.org/ns#" xmlns:rdf="http://www.w3.org/1999/02/22-rdf-syntax-ns#">
   <cc:Work>
    <dc:type rdf:resource="http://purl.org/dc/dcmitype/StillImage"/>
    <dc:date>2022-12-23T17:29:34.474835</dc:date>
    <dc:format>image/svg+xml</dc:format>
    <dc:creator>
     <cc:Agent>
      <dc:title>Matplotlib v3.5.2, https://matplotlib.org/</dc:title>
     </cc:Agent>
    </dc:creator>
   </cc:Work>
  </rdf:RDF>
 </metadata>
 <defs>
  <style type="text/css">*{stroke-linejoin: round; stroke-linecap: butt}</style>
 </defs>
 <g id="figure_1">
  <g id="patch_1">
   <path d="M 0 583.918125 
L 568.8 583.918125 
L 568.8 0 
L 0 0 
z
" style="fill: #ffffff"/>
  </g>
  <g id="axes_1">
   <g id="LineCollection_1">
    <path d="M 71.169231 254.940774 
L 71.169244 344.095514 
" clip-path="url(#p21644ddcae)" style="fill: none; stroke: #000000; stroke-opacity: 0.3; stroke-width: 5"/>
   </g>
   <g id="PathCollection_1">
    <path d="M 497.630769 326.904253 
C 504.893655 326.904253 511.86005 324.018678 516.995686 318.883042 
C 522.131322 313.747406 525.016897 306.781011 525.016897 299.518125 
C 525.016897 292.255239 522.131322 285.288844 516.995686 280.153208 
C 511.86005 275.017572 504.893655 272.131997 497.630769 272.131997 
C 490.367883 272.131997 483.401488 275.017572 478.265852 280.153208 
C 473.130217 285.288844 470.244641 292.255239 470.244641 299.518125 
C 470.244641 306.781011 473.130217 313.747406 478.265852 318.883042 
C 483.401488 324.018678 490.367883 326.904253 497.630769 326.904253 
z
" clip-path="url(#p21644ddcae)" style="fill: #c70039; fill-opacity: 0.99; stroke: #c70039; stroke-opacity: 0.99"/>
    <path d="M 478.992348 239.405071 
C 486.177612 239.405071 493.069553 236.550336 498.150301 231.469587 
C 503.23105 226.388838 506.085786 219.496897 506.085786 212.311633 
C 506.085786 205.12637 503.23105 198.234428 498.150301 193.15368 
C 493.069553 188.072931 486.177612 185.218196 478.992348 185.218196 
C 471.807084 185.218196 464.915143 188.072931 459.834394 193.15368 
C 454.753646 198.234428 451.89891 205.12637 451.89891 212.311633 
C 451.89891 219.496897 454.753646 226.388838 459.834394 231.469587 
C 464.915143 236.550336 471.807084 239.405071 478.992348 239.405071 
z
" clip-path="url(#p21644ddcae)" style="fill: #c70039; fill-opacity: 0.99; stroke: #c70039; stroke-opacity: 0.99"/>
    <path d="M 426.29985 167.257002 
C 433.479713 167.257002 440.366475 164.404412 445.443405 159.327482 
C 450.520335 154.250552 453.372925 147.36379 453.372925 140.183927 
C 453.372925 133.004063 450.520335 126.117302 445.443405 121.040372 
C 440.366475 115.963441 433.479713 113.110851 426.29985 113.110851 
C 419.119986 113.110851 412.233225 115.963441 407.156295 121.040372 
C 402.079365 126.117302 399.226775 133.004063 399.226775 140.183927 
C 399.226775 147.36379 402.079365 154.250552 407.156295 159.327482 
C 412.233225 164.404412 419.119986 167.257002 426.29985 167.257002 
z
" clip-path="url(#p21644ddcae)" style="fill: #c70039; fill-opacity: 0.99; stroke: #c70039; stroke-opacity: 0.99"/>
    <path d="M 348.664291 122.599667 
C 355.822946 122.599667 362.689365 119.755503 367.751298 114.69357 
C 372.813232 109.631636 375.657396 102.765218 375.657396 95.606563 
C 375.657396 88.447908 372.813232 81.581489 367.751298 76.519556 
C 362.689365 71.457622 355.822946 68.613459 348.664291 68.613459 
C 341.505637 68.613459 334.639218 71.457622 329.577284 76.519556 
C 324.515351 81.581489 321.671187 88.447908 321.671187 95.606563 
C 321.671187 102.765218 324.515351 109.631636 329.577284 114.69357 
C 334.639218 119.755503 341.505637 122.599667 348.664291 122.599667 
z
" clip-path="url(#p21644ddcae)" style="fill: #c70039; fill-opacity: 0.99; stroke: #c70039; stroke-opacity: 0.99"/>
    <path d="M 259.509549 110.248992 
C 265.864249 110.248992 271.959533 107.724243 276.452984 103.230791 
C 280.946436 98.73734 283.471185 92.642056 283.471185 86.287356 
C 283.471185 79.932656 280.946436 73.837372 276.452984 69.34392 
C 271.959533 64.850469 265.864249 62.32572 259.509549 62.32572 
C 253.154849 62.32572 247.059565 64.850469 242.566113 69.34392 
C 238.072662 73.837372 235.547913 79.932656 235.547913 86.287356 
C 235.547913 92.642056 238.072662 98.73734 242.566113 103.230791 
C 247.059565 107.724243 253.154849 110.248992 259.509549 110.248992 
z
" clip-path="url(#p21644ddcae)" style="fill: #c70039; fill-opacity: 0.99; stroke: #c70039; stroke-opacity: 0.99"/>
    <path d="M 174.251299 135.54456 
C 180.008027 135.54456 185.52975 133.257388 189.600372 129.186766 
C 193.670994 125.116144 195.958167 119.594421 195.958167 113.837692 
C 195.958167 108.080964 193.670994 102.559241 189.600372 98.488619 
C 185.52975 94.417997 180.008027 92.130824 174.251299 92.130824 
C 168.49457 92.130824 162.972847 94.417997 158.902225 98.488619 
C 154.831603 102.559241 152.54443 108.080964 152.54443 113.837692 
C 152.54443 119.594421 154.831603 125.116144 158.902225 129.186766 
C 162.972847 133.257388 168.49457 135.54456 174.251299 135.54456 
z
" clip-path="url(#p21644ddcae)" style="fill: #c70039; fill-opacity: 0.99; stroke: #c70039; stroke-opacity: 0.99"/>
    <path d="M 107.631478 195.106194 
C 113.363137 195.106194 118.860815 192.828982 122.91371 188.776086 
C 126.966606 184.723191 129.243818 179.225513 129.243818 173.493854 
C 129.243818 167.762194 126.966606 162.264517 122.91371 158.211621 
C 118.860815 154.158726 113.363137 151.881513 107.631478 151.881513 
C 101.899818 151.881513 96.40214 154.158726 92.349245 158.211621 
C 88.29635 162.264517 86.019137 167.762194 86.019137 173.493854 
C 86.019137 179.225513 88.29635 184.723191 92.349245 188.776086 
C 96.40214 192.828982 101.899818 195.106194 107.631478 195.106194 
z
" clip-path="url(#p21644ddcae)" style="fill: #c70039; fill-opacity: 0.99; stroke: #c70039; stroke-opacity: 0.99"/>
    <path d="M 71.169231 275.739798 
C 76.685197 275.739798 81.975985 273.548281 85.876362 269.647905 
C 89.776739 265.747528 91.968255 260.456739 91.968255 254.940774 
C 91.968255 249.424808 89.776739 244.13402 85.876362 240.233643 
C 81.975985 236.333266 76.685197 234.14175 71.169231 234.14175 
C 65.653266 234.14175 60.362477 236.333266 56.462101 240.233643 
C 52.561724 244.13402 50.370208 249.424808 50.370208 254.940774 
C 50.370208 260.456739 52.561724 265.747528 56.462101 269.647905 
C 60.362477 273.548281 65.653266 275.739798 71.169231 275.739798 
z
" clip-path="url(#p21644ddcae)" style="fill: #c70039; fill-opacity: 0.99; stroke: #c70039; stroke-opacity: 0.99"/>
    <path d="M 71.169244 364.88999 
C 76.684004 364.88999 81.973635 362.698953 85.873159 358.799429 
C 89.772683 354.899906 91.96372 349.610274 91.96372 344.095514 
C 91.96372 338.580755 89.772683 333.291123 85.873159 329.3916 
C 81.973635 325.492076 76.684004 323.301039 71.169244 323.301039 
C 65.654485 323.301039 60.364853 325.492076 56.465329 329.3916 
C 52.565806 333.291123 50.374768 338.580755 50.374768 344.095514 
C 50.374768 349.610274 52.565806 354.899906 56.465329 358.799429 
C 60.364853 362.698953 65.654485 364.88999 71.169244 364.88999 
z
" clip-path="url(#p21644ddcae)" style="fill: #c70039; fill-opacity: 0.99; stroke: #c70039; stroke-opacity: 0.99"/>
    <path d="M 107.63149 446.199476 
C 113.109809 446.199476 118.364486 444.022917 122.238242 440.149161 
C 126.111998 436.275405 128.288557 431.020727 128.288557 425.542409 
C 128.288557 420.064091 126.111998 414.809413 122.238242 410.935657 
C 118.364486 407.061901 113.109809 404.885343 107.63149 404.885343 
C 102.153172 404.885343 96.898494 407.061901 93.024739 410.935657 
C 89.150983 414.809413 86.974424 420.064091 86.974424 425.542409 
C 86.974424 431.020727 89.150983 436.275405 93.024739 440.149161 
C 96.898494 444.022917 102.153172 446.199476 107.63149 446.199476 
z
" clip-path="url(#p21644ddcae)" style="fill: #c70039; fill-opacity: 0.99; stroke: #c70039; stroke-opacity: 0.99"/>
    <path d="M 174.251331 505.164501 
C 179.546357 505.164501 184.625226 503.060765 188.369376 499.316615 
C 192.113525 495.572466 194.217261 490.493597 194.217261 485.198571 
C 194.217261 479.903544 192.113525 474.824675 188.369376 471.080526 
C 184.625226 467.336376 179.546357 465.23264 174.251331 465.23264 
C 168.956304 465.23264 163.877435 467.336376 160.133286 471.080526 
C 156.389137 474.824675 154.2854 479.903544 154.2854 485.198571 
C 154.2854 490.493597 156.389137 495.572466 160.133286 499.316615 
C 163.877435 503.060765 168.956304 505.164501 174.251331 505.164501 
z
" clip-path="url(#p21644ddcae)" style="fill: #c70039; fill-opacity: 0.99; stroke: #c70039; stroke-opacity: 0.99"/>
    <path d="M 259.509588 532.480208 
C 264.742393 532.480208 269.761581 530.401192 273.461733 526.70104 
C 277.161886 523.000888 279.240901 517.9817 279.240901 512.748894 
C 279.240901 507.516089 277.161886 502.496901 273.461733 498.796749 
C 269.761581 495.096596 264.742393 493.017581 259.509588 493.017581 
C 254.276782 493.017581 249.257594 495.096596 245.557442 498.796749 
C 241.85729 502.496901 239.778274 507.516089 239.778274 512.748894 
C 239.778274 517.9817 241.85729 523.000888 245.557442 526.70104 
C 249.257594 530.401192 254.276782 532.480208 259.509588 532.480208 
z
" clip-path="url(#p21644ddcae)" style="fill: #c70039; fill-opacity: 0.99; stroke: #c70039; stroke-opacity: 0.99"/>
    <path d="M 348.664324 523.160311 
C 353.896949 523.160311 358.915965 521.081366 362.61599 517.381341 
C 366.316016 513.681316 368.39496 508.6623 368.39496 503.429675 
C 368.39496 498.197049 366.316016 493.178033 362.61599 489.478008 
C 358.915965 485.777983 353.896949 483.699038 348.664324 483.699038 
C 343.431698 483.699038 338.412682 485.777983 334.712657 489.478008 
C 331.012632 493.178033 328.933687 498.197049 328.933687 503.429675 
C 328.933687 508.6623 331.012632 513.681316 334.712657 517.381341 
C 338.412682 521.081366 343.431698 523.160311 348.664324 523.160311 
z
" clip-path="url(#p21644ddcae)" style="fill: #c70039; fill-opacity: 0.99; stroke: #c70039; stroke-opacity: 0.99"/>
    <path d="M 426.299889 478.226732 
C 431.438052 478.226732 436.366461 476.185318 439.999691 472.552088 
C 443.632921 468.918858 445.674335 463.990448 445.674335 458.852285 
C 445.674335 453.714122 443.632921 448.785712 439.999691 445.152482 
C 436.366461 441.519252 431.438052 439.477838 426.299889 439.477838 
C 421.161725 439.477838 416.233316 441.519252 412.600086 445.152482 
C 408.966856 448.785712 406.925442 453.714122 406.925442 458.852285 
C 406.925442 463.990448 408.966856 468.918858 412.600086 472.552088 
C 416.233316 476.185318 421.161725 478.226732 426.299889 478.226732 
z
" clip-path="url(#p21644ddcae)" style="fill: #c70039; fill-opacity: 0.99; stroke: #c70039; stroke-opacity: 0.99"/>
    <path d="M 478.992374 406.089501 
C 484.12801 406.089501 489.053994 404.049092 492.685437 400.417649 
C 496.31688 396.786206 498.35729 391.860221 498.35729 386.724585 
C 498.35729 381.588949 496.31688 376.662964 492.685437 373.031521 
C 489.053994 369.400078 484.12801 367.359668 478.992374 367.359668 
C 473.856738 367.359668 468.930753 369.400078 465.29931 373.031521 
C 461.667867 376.662964 459.627457 381.588949 459.627457 386.724585 
C 459.627457 391.860221 461.667867 396.786206 465.29931 400.417649 
C 468.930753 404.049092 473.856738 406.089501 478.992374 406.089501 
z
" clip-path="url(#p21644ddcae)" style="fill: #c70039; fill-opacity: 0.99; stroke: #c70039; stroke-opacity: 0.99"/>
   </g>
   <g id="text_1">
    <g id="patch_2">
     <path d="M 455.064285 307.833281 
L 540.197254 307.833281 
L 540.197254 291.202969 
L 455.064285 291.202969 
z
" clip-path="url(#p21644ddcae)" style="fill: #ffffff; opacity: 0.7; stroke: #000000; stroke-linejoin: miter"/>
    </g>
    <g clip-path="url(#p21644ddcae)">
     <!-- Janeane Garofalo -->
     <g transform="translate(459.024285 302.001562)scale(0.09 -0.09)">
      <defs>
       <path id="DejaVuSans-4a" d="M 628 4666 
L 1259 4666 
L 1259 325 
Q 1259 -519 939 -900 
Q 619 -1281 -91 -1281 
L -331 -1281 
L -331 -750 
L -134 -750 
Q 284 -750 456 -515 
Q 628 -281 628 325 
L 628 4666 
z
" transform="scale(0.015625)"/>
       <path id="DejaVuSans-61" d="M 2194 1759 
Q 1497 1759 1228 1600 
Q 959 1441 959 1056 
Q 959 750 1161 570 
Q 1363 391 1709 391 
Q 2188 391 2477 730 
Q 2766 1069 2766 1631 
L 2766 1759 
L 2194 1759 
z
M 3341 1997 
L 3341 0 
L 2766 0 
L 2766 531 
Q 2569 213 2275 61 
Q 1981 -91 1556 -91 
Q 1019 -91 701 211 
Q 384 513 384 1019 
Q 384 1609 779 1909 
Q 1175 2209 1959 2209 
L 2766 2209 
L 2766 2266 
Q 2766 2663 2505 2880 
Q 2244 3097 1772 3097 
Q 1472 3097 1187 3025 
Q 903 2953 641 2809 
L 641 3341 
Q 956 3463 1253 3523 
Q 1550 3584 1831 3584 
Q 2591 3584 2966 3190 
Q 3341 2797 3341 1997 
z
" transform="scale(0.015625)"/>
       <path id="DejaVuSans-6e" d="M 3513 2113 
L 3513 0 
L 2938 0 
L 2938 2094 
Q 2938 2591 2744 2837 
Q 2550 3084 2163 3084 
Q 1697 3084 1428 2787 
Q 1159 2491 1159 1978 
L 1159 0 
L 581 0 
L 581 3500 
L 1159 3500 
L 1159 2956 
Q 1366 3272 1645 3428 
Q 1925 3584 2291 3584 
Q 2894 3584 3203 3211 
Q 3513 2838 3513 2113 
z
" transform="scale(0.015625)"/>
       <path id="DejaVuSans-65" d="M 3597 1894 
L 3597 1613 
L 953 1613 
Q 991 1019 1311 708 
Q 1631 397 2203 397 
Q 2534 397 2845 478 
Q 3156 559 3463 722 
L 3463 178 
Q 3153 47 2828 -22 
Q 2503 -91 2169 -91 
Q 1331 -91 842 396 
Q 353 884 353 1716 
Q 353 2575 817 3079 
Q 1281 3584 2069 3584 
Q 2775 3584 3186 3129 
Q 3597 2675 3597 1894 
z
M 3022 2063 
Q 3016 2534 2758 2815 
Q 2500 3097 2075 3097 
Q 1594 3097 1305 2825 
Q 1016 2553 972 2059 
L 3022 2063 
z
" transform="scale(0.015625)"/>
       <path id="DejaVuSans-20" transform="scale(0.015625)"/>
       <path id="DejaVuSans-47" d="M 3809 666 
L 3809 1919 
L 2778 1919 
L 2778 2438 
L 4434 2438 
L 4434 434 
Q 4069 175 3628 42 
Q 3188 -91 2688 -91 
Q 1594 -91 976 548 
Q 359 1188 359 2328 
Q 359 3472 976 4111 
Q 1594 4750 2688 4750 
Q 3144 4750 3555 4637 
Q 3966 4525 4313 4306 
L 4313 3634 
Q 3963 3931 3569 4081 
Q 3175 4231 2741 4231 
Q 1884 4231 1454 3753 
Q 1025 3275 1025 2328 
Q 1025 1384 1454 906 
Q 1884 428 2741 428 
Q 3075 428 3337 486 
Q 3600 544 3809 666 
z
" transform="scale(0.015625)"/>
       <path id="DejaVuSans-72" d="M 2631 2963 
Q 2534 3019 2420 3045 
Q 2306 3072 2169 3072 
Q 1681 3072 1420 2755 
Q 1159 2438 1159 1844 
L 1159 0 
L 581 0 
L 581 3500 
L 1159 3500 
L 1159 2956 
Q 1341 3275 1631 3429 
Q 1922 3584 2338 3584 
Q 2397 3584 2469 3576 
Q 2541 3569 2628 3553 
L 2631 2963 
z
" transform="scale(0.015625)"/>
       <path id="DejaVuSans-6f" d="M 1959 3097 
Q 1497 3097 1228 2736 
Q 959 2375 959 1747 
Q 959 1119 1226 758 
Q 1494 397 1959 397 
Q 2419 397 2687 759 
Q 2956 1122 2956 1747 
Q 2956 2369 2687 2733 
Q 2419 3097 1959 3097 
z
M 1959 3584 
Q 2709 3584 3137 3096 
Q 3566 2609 3566 1747 
Q 3566 888 3137 398 
Q 2709 -91 1959 -91 
Q 1206 -91 779 398 
Q 353 888 353 1747 
Q 353 2609 779 3096 
Q 1206 3584 1959 3584 
z
" transform="scale(0.015625)"/>
       <path id="DejaVuSans-66" d="M 2375 4863 
L 2375 4384 
L 1825 4384 
Q 1516 4384 1395 4259 
Q 1275 4134 1275 3809 
L 1275 3500 
L 2222 3500 
L 2222 3053 
L 1275 3053 
L 1275 0 
L 697 0 
L 697 3053 
L 147 3053 
L 147 3500 
L 697 3500 
L 697 3744 
Q 697 4328 969 4595 
Q 1241 4863 1831 4863 
L 2375 4863 
z
" transform="scale(0.015625)"/>
       <path id="DejaVuSans-6c" d="M 603 4863 
L 1178 4863 
L 1178 0 
L 603 0 
L 603 4863 
z
" transform="scale(0.015625)"/>
      </defs>
      <use xlink:href="#DejaVuSans-4a"/>
      <use xlink:href="#DejaVuSans-61" x="29.492188"/>
      <use xlink:href="#DejaVuSans-6e" x="90.771484"/>
      <use xlink:href="#DejaVuSans-65" x="154.150391"/>
      <use xlink:href="#DejaVuSans-61" x="215.673828"/>
      <use xlink:href="#DejaVuSans-6e" x="276.953125"/>
      <use xlink:href="#DejaVuSans-65" x="340.332031"/>
      <use xlink:href="#DejaVuSans-20" x="401.855469"/>
      <use xlink:href="#DejaVuSans-47" x="433.642578"/>
      <use xlink:href="#DejaVuSans-61" x="511.132812"/>
      <use xlink:href="#DejaVuSans-72" x="572.412109"/>
      <use xlink:href="#DejaVuSans-6f" x="611.275391"/>
      <use xlink:href="#DejaVuSans-66" x="672.457031"/>
      <use xlink:href="#DejaVuSans-61" x="707.662109"/>
      <use xlink:href="#DejaVuSans-6c" x="768.941406"/>
      <use xlink:href="#DejaVuSans-6f" x="796.724609"/>
     </g>
    </g>
   </g>
   <g id="text_2">
    <g id="patch_3">
     <path d="M 444.033676 220.62679 
L 513.95102 220.62679 
L 513.95102 203.996477 
L 444.033676 203.996477 
z
" clip-path="url(#p21644ddcae)" style="fill: #ffffff; opacity: 0.7; stroke: #000000; stroke-linejoin: miter"/>
    </g>
    <g clip-path="url(#p21644ddcae)">
     <!-- Danny DeVito -->
     <g transform="translate(447.993676 214.795071)scale(0.09 -0.09)">
      <defs>
       <path id="DejaVuSans-44" d="M 1259 4147 
L 1259 519 
L 2022 519 
Q 2988 519 3436 956 
Q 3884 1394 3884 2338 
Q 3884 3275 3436 3711 
Q 2988 4147 2022 4147 
L 1259 4147 
z
M 628 4666 
L 1925 4666 
Q 3281 4666 3915 4102 
Q 4550 3538 4550 2338 
Q 4550 1131 3912 565 
Q 3275 0 1925 0 
L 628 0 
L 628 4666 
z
" transform="scale(0.015625)"/>
       <path id="DejaVuSans-79" d="M 2059 -325 
Q 1816 -950 1584 -1140 
Q 1353 -1331 966 -1331 
L 506 -1331 
L 506 -850 
L 844 -850 
Q 1081 -850 1212 -737 
Q 1344 -625 1503 -206 
L 1606 56 
L 191 3500 
L 800 3500 
L 1894 763 
L 2988 3500 
L 3597 3500 
L 2059 -325 
z
" transform="scale(0.015625)"/>
       <path id="DejaVuSans-56" d="M 1831 0 
L 50 4666 
L 709 4666 
L 2188 738 
L 3669 4666 
L 4325 4666 
L 2547 0 
L 1831 0 
z
" transform="scale(0.015625)"/>
       <path id="DejaVuSans-69" d="M 603 3500 
L 1178 3500 
L 1178 0 
L 603 0 
L 603 3500 
z
M 603 4863 
L 1178 4863 
L 1178 4134 
L 603 4134 
L 603 4863 
z
" transform="scale(0.015625)"/>
       <path id="DejaVuSans-74" d="M 1172 4494 
L 1172 3500 
L 2356 3500 
L 2356 3053 
L 1172 3053 
L 1172 1153 
Q 1172 725 1289 603 
Q 1406 481 1766 481 
L 2356 481 
L 2356 0 
L 1766 0 
Q 1100 0 847 248 
Q 594 497 594 1153 
L 594 3053 
L 172 3053 
L 172 3500 
L 594 3500 
L 594 4494 
L 1172 4494 
z
" transform="scale(0.015625)"/>
      </defs>
      <use xlink:href="#DejaVuSans-44"/>
      <use xlink:href="#DejaVuSans-61" x="77.001953"/>
      <use xlink:href="#DejaVuSans-6e" x="138.28125"/>
      <use xlink:href="#DejaVuSans-6e" x="201.660156"/>
      <use xlink:href="#DejaVuSans-79" x="265.039062"/>
      <use xlink:href="#DejaVuSans-20" x="324.21875"/>
      <use xlink:href="#DejaVuSans-44" x="356.005859"/>
      <use xlink:href="#DejaVuSans-65" x="433.007812"/>
      <use xlink:href="#DejaVuSans-56" x="494.53125"/>
      <use xlink:href="#DejaVuSans-69" x="560.689453"/>
      <use xlink:href="#DejaVuSans-74" x="588.472656"/>
      <use xlink:href="#DejaVuSans-6f" x="627.681641"/>
     </g>
    </g>
   </g>
   <g id="text_3">
    <g id="patch_4">
     <path d="M 389.848444 148.499083 
L 462.751256 148.499083 
L 462.751256 131.86877 
L 389.848444 131.86877 
z
" clip-path="url(#p21644ddcae)" style="fill: #ffffff; opacity: 0.7; stroke: #000000; stroke-linejoin: miter"/>
    </g>
    <g clip-path="url(#p21644ddcae)">
     <!-- Jack Nicholson -->
     <g transform="translate(393.808444 142.667364)scale(0.09 -0.09)">
      <defs>
       <path id="DejaVuSans-63" d="M 3122 3366 
L 3122 2828 
Q 2878 2963 2633 3030 
Q 2388 3097 2138 3097 
Q 1578 3097 1268 2742 
Q 959 2388 959 1747 
Q 959 1106 1268 751 
Q 1578 397 2138 397 
Q 2388 397 2633 464 
Q 2878 531 3122 666 
L 3122 134 
Q 2881 22 2623 -34 
Q 2366 -91 2075 -91 
Q 1284 -91 818 406 
Q 353 903 353 1747 
Q 353 2603 823 3093 
Q 1294 3584 2113 3584 
Q 2378 3584 2631 3529 
Q 2884 3475 3122 3366 
z
" transform="scale(0.015625)"/>
       <path id="DejaVuSans-6b" d="M 581 4863 
L 1159 4863 
L 1159 1991 
L 2875 3500 
L 3609 3500 
L 1753 1863 
L 3688 0 
L 2938 0 
L 1159 1709 
L 1159 0 
L 581 0 
L 581 4863 
z
" transform="scale(0.015625)"/>
       <path id="DejaVuSans-4e" d="M 628 4666 
L 1478 4666 
L 3547 763 
L 3547 4666 
L 4159 4666 
L 4159 0 
L 3309 0 
L 1241 3903 
L 1241 0 
L 628 0 
L 628 4666 
z
" transform="scale(0.015625)"/>
       <path id="DejaVuSans-68" d="M 3513 2113 
L 3513 0 
L 2938 0 
L 2938 2094 
Q 2938 2591 2744 2837 
Q 2550 3084 2163 3084 
Q 1697 3084 1428 2787 
Q 1159 2491 1159 1978 
L 1159 0 
L 581 0 
L 581 4863 
L 1159 4863 
L 1159 2956 
Q 1366 3272 1645 3428 
Q 1925 3584 2291 3584 
Q 2894 3584 3203 3211 
Q 3513 2838 3513 2113 
z
" transform="scale(0.015625)"/>
       <path id="DejaVuSans-73" d="M 2834 3397 
L 2834 2853 
Q 2591 2978 2328 3040 
Q 2066 3103 1784 3103 
Q 1356 3103 1142 2972 
Q 928 2841 928 2578 
Q 928 2378 1081 2264 
Q 1234 2150 1697 2047 
L 1894 2003 
Q 2506 1872 2764 1633 
Q 3022 1394 3022 966 
Q 3022 478 2636 193 
Q 2250 -91 1575 -91 
Q 1294 -91 989 -36 
Q 684 19 347 128 
L 347 722 
Q 666 556 975 473 
Q 1284 391 1588 391 
Q 1994 391 2212 530 
Q 2431 669 2431 922 
Q 2431 1156 2273 1281 
Q 2116 1406 1581 1522 
L 1381 1569 
Q 847 1681 609 1914 
Q 372 2147 372 2553 
Q 372 3047 722 3315 
Q 1072 3584 1716 3584 
Q 2034 3584 2315 3537 
Q 2597 3491 2834 3397 
z
" transform="scale(0.015625)"/>
      </defs>
      <use xlink:href="#DejaVuSans-4a"/>
      <use xlink:href="#DejaVuSans-61" x="29.492188"/>
      <use xlink:href="#DejaVuSans-63" x="90.771484"/>
      <use xlink:href="#DejaVuSans-6b" x="145.751953"/>
      <use xlink:href="#DejaVuSans-20" x="203.662109"/>
      <use xlink:href="#DejaVuSans-4e" x="235.449219"/>
      <use xlink:href="#DejaVuSans-69" x="310.253906"/>
      <use xlink:href="#DejaVuSans-63" x="338.037109"/>
      <use xlink:href="#DejaVuSans-68" x="393.017578"/>
      <use xlink:href="#DejaVuSans-6f" x="456.396484"/>
      <use xlink:href="#DejaVuSans-6c" x="517.578125"/>
      <use xlink:href="#DejaVuSans-73" x="545.361328"/>
      <use xlink:href="#DejaVuSans-6f" x="597.460938"/>
      <use xlink:href="#DejaVuSans-6e" x="658.642578"/>
     </g>
    </g>
   </g>
   <g id="text_4">
    <g id="patch_5">
     <path d="M 315.681401 103.921719 
L 381.647182 103.921719 
L 381.647182 87.291406 
L 315.681401 87.291406 
z
" clip-path="url(#p21644ddcae)" style="fill: #ffffff; opacity: 0.7; stroke: #000000; stroke-linejoin: miter"/>
    </g>
    <g clip-path="url(#p21644ddcae)">
     <!-- Frank Welker -->
     <g transform="translate(319.641401 98.09)scale(0.09 -0.09)">
      <defs>
       <path id="DejaVuSans-46" d="M 628 4666 
L 3309 4666 
L 3309 4134 
L 1259 4134 
L 1259 2759 
L 3109 2759 
L 3109 2228 
L 1259 2228 
L 1259 0 
L 628 0 
L 628 4666 
z
" transform="scale(0.015625)"/>
       <path id="DejaVuSans-57" d="M 213 4666 
L 850 4666 
L 1831 722 
L 2809 4666 
L 3519 4666 
L 4500 722 
L 5478 4666 
L 6119 4666 
L 4947 0 
L 4153 0 
L 3169 4050 
L 2175 0 
L 1381 0 
L 213 4666 
z
" transform="scale(0.015625)"/>
      </defs>
      <use xlink:href="#DejaVuSans-46"/>
      <use xlink:href="#DejaVuSans-72" x="50.269531"/>
      <use xlink:href="#DejaVuSans-61" x="91.382812"/>
      <use xlink:href="#DejaVuSans-6e" x="152.662109"/>
      <use xlink:href="#DejaVuSans-6b" x="216.041016"/>
      <use xlink:href="#DejaVuSans-20" x="273.951172"/>
      <use xlink:href="#DejaVuSans-57" x="305.738281"/>
      <use xlink:href="#DejaVuSans-65" x="398.740234"/>
      <use xlink:href="#DejaVuSans-6c" x="460.263672"/>
      <use xlink:href="#DejaVuSans-6b" x="488.046875"/>
      <use xlink:href="#DejaVuSans-65" x="542.332031"/>
      <use xlink:href="#DejaVuSans-72" x="603.855469"/>
     </g>
    </g>
   </g>
   <g id="text_5">
    <g id="patch_6">
     <path d="M 225.640018 94.602512 
L 293.37908 94.602512 
L 293.37908 77.9722 
L 225.640018 77.9722 
z
" clip-path="url(#p21644ddcae)" style="fill: #ffffff; opacity: 0.7; stroke: #000000; stroke-linejoin: miter"/>
    </g>
    <g clip-path="url(#p21644ddcae)">
     <!-- Dom DeLuise -->
     <g transform="translate(229.600018 88.770793)scale(0.09 -0.09)">
      <defs>
       <path id="DejaVuSans-6d" d="M 3328 2828 
Q 3544 3216 3844 3400 
Q 4144 3584 4550 3584 
Q 5097 3584 5394 3201 
Q 5691 2819 5691 2113 
L 5691 0 
L 5113 0 
L 5113 2094 
Q 5113 2597 4934 2840 
Q 4756 3084 4391 3084 
Q 3944 3084 3684 2787 
Q 3425 2491 3425 1978 
L 3425 0 
L 2847 0 
L 2847 2094 
Q 2847 2600 2669 2842 
Q 2491 3084 2119 3084 
Q 1678 3084 1418 2786 
Q 1159 2488 1159 1978 
L 1159 0 
L 581 0 
L 581 3500 
L 1159 3500 
L 1159 2956 
Q 1356 3278 1631 3431 
Q 1906 3584 2284 3584 
Q 2666 3584 2933 3390 
Q 3200 3197 3328 2828 
z
" transform="scale(0.015625)"/>
       <path id="DejaVuSans-4c" d="M 628 4666 
L 1259 4666 
L 1259 531 
L 3531 531 
L 3531 0 
L 628 0 
L 628 4666 
z
" transform="scale(0.015625)"/>
       <path id="DejaVuSans-75" d="M 544 1381 
L 544 3500 
L 1119 3500 
L 1119 1403 
Q 1119 906 1312 657 
Q 1506 409 1894 409 
Q 2359 409 2629 706 
Q 2900 1003 2900 1516 
L 2900 3500 
L 3475 3500 
L 3475 0 
L 2900 0 
L 2900 538 
Q 2691 219 2414 64 
Q 2138 -91 1772 -91 
Q 1169 -91 856 284 
Q 544 659 544 1381 
z
M 1991 3584 
L 1991 3584 
z
" transform="scale(0.015625)"/>
      </defs>
      <use xlink:href="#DejaVuSans-44"/>
      <use xlink:href="#DejaVuSans-6f" x="77.001953"/>
      <use xlink:href="#DejaVuSans-6d" x="138.183594"/>
      <use xlink:href="#DejaVuSans-20" x="235.595703"/>
      <use xlink:href="#DejaVuSans-44" x="267.382812"/>
      <use xlink:href="#DejaVuSans-65" x="344.384766"/>
      <use xlink:href="#DejaVuSans-4c" x="405.908203"/>
      <use xlink:href="#DejaVuSans-75" x="459.871094"/>
      <use xlink:href="#DejaVuSans-69" x="523.25"/>
      <use xlink:href="#DejaVuSans-73" x="551.033203"/>
      <use xlink:href="#DejaVuSans-65" x="603.132812"/>
     </g>
    </g>
   </g>
   <g id="text_6">
    <g id="patch_7">
     <path d="M 136.878799 122.152849 
L 211.623799 122.152849 
L 211.623799 105.522536 
L 136.878799 105.522536 
z
" clip-path="url(#p21644ddcae)" style="fill: #ffffff; opacity: 0.7; stroke: #000000; stroke-linejoin: miter"/>
    </g>
    <g clip-path="url(#p21644ddcae)">
     <!-- Steve Buscemi -->
     <g transform="translate(140.838799 116.32113)scale(0.09 -0.09)">
      <defs>
       <path id="DejaVuSans-53" d="M 3425 4513 
L 3425 3897 
Q 3066 4069 2747 4153 
Q 2428 4238 2131 4238 
Q 1616 4238 1336 4038 
Q 1056 3838 1056 3469 
Q 1056 3159 1242 3001 
Q 1428 2844 1947 2747 
L 2328 2669 
Q 3034 2534 3370 2195 
Q 3706 1856 3706 1288 
Q 3706 609 3251 259 
Q 2797 -91 1919 -91 
Q 1588 -91 1214 -16 
Q 841 59 441 206 
L 441 856 
Q 825 641 1194 531 
Q 1563 422 1919 422 
Q 2459 422 2753 634 
Q 3047 847 3047 1241 
Q 3047 1584 2836 1778 
Q 2625 1972 2144 2069 
L 1759 2144 
Q 1053 2284 737 2584 
Q 422 2884 422 3419 
Q 422 4038 858 4394 
Q 1294 4750 2059 4750 
Q 2388 4750 2728 4690 
Q 3069 4631 3425 4513 
z
" transform="scale(0.015625)"/>
       <path id="DejaVuSans-76" d="M 191 3500 
L 800 3500 
L 1894 563 
L 2988 3500 
L 3597 3500 
L 2284 0 
L 1503 0 
L 191 3500 
z
" transform="scale(0.015625)"/>
       <path id="DejaVuSans-42" d="M 1259 2228 
L 1259 519 
L 2272 519 
Q 2781 519 3026 730 
Q 3272 941 3272 1375 
Q 3272 1813 3026 2020 
Q 2781 2228 2272 2228 
L 1259 2228 
z
M 1259 4147 
L 1259 2741 
L 2194 2741 
Q 2656 2741 2882 2914 
Q 3109 3088 3109 3444 
Q 3109 3797 2882 3972 
Q 2656 4147 2194 4147 
L 1259 4147 
z
M 628 4666 
L 2241 4666 
Q 2963 4666 3353 4366 
Q 3744 4066 3744 3513 
Q 3744 3084 3544 2831 
Q 3344 2578 2956 2516 
Q 3422 2416 3680 2098 
Q 3938 1781 3938 1306 
Q 3938 681 3513 340 
Q 3088 0 2303 0 
L 628 0 
L 628 4666 
z
" transform="scale(0.015625)"/>
      </defs>
      <use xlink:href="#DejaVuSans-53"/>
      <use xlink:href="#DejaVuSans-74" x="63.476562"/>
      <use xlink:href="#DejaVuSans-65" x="102.685547"/>
      <use xlink:href="#DejaVuSans-76" x="164.208984"/>
      <use xlink:href="#DejaVuSans-65" x="223.388672"/>
      <use xlink:href="#DejaVuSans-20" x="284.912109"/>
      <use xlink:href="#DejaVuSans-42" x="316.699219"/>
      <use xlink:href="#DejaVuSans-75" x="385.302734"/>
      <use xlink:href="#DejaVuSans-73" x="448.681641"/>
      <use xlink:href="#DejaVuSans-63" x="500.78125"/>
      <use xlink:href="#DejaVuSans-65" x="555.761719"/>
      <use xlink:href="#DejaVuSans-6d" x="617.285156"/>
      <use xlink:href="#DejaVuSans-69" x="714.697266"/>
     </g>
    </g>
   </g>
   <g id="text_7">
    <g id="patch_8">
     <path d="M 63.058274 181.80901 
L 152.204681 181.80901 
L 152.204681 165.178697 
L 63.058274 165.178697 
z
" clip-path="url(#p21644ddcae)" style="fill: #ffffff; opacity: 0.7; stroke: #000000; stroke-linejoin: miter"/>
    </g>
    <g clip-path="url(#p21644ddcae)">
     <!-- Sylvester Stallone -->
     <g transform="translate(67.018274 175.977291)scale(0.09 -0.09)">
      <use xlink:href="#DejaVuSans-53"/>
      <use xlink:href="#DejaVuSans-79" x="63.476562"/>
      <use xlink:href="#DejaVuSans-6c" x="122.65625"/>
      <use xlink:href="#DejaVuSans-76" x="150.439453"/>
      <use xlink:href="#DejaVuSans-65" x="209.619141"/>
      <use xlink:href="#DejaVuSans-73" x="271.142578"/>
      <use xlink:href="#DejaVuSans-74" x="323.242188"/>
      <use xlink:href="#DejaVuSans-65" x="362.451172"/>
      <use xlink:href="#DejaVuSans-72" x="423.974609"/>
      <use xlink:href="#DejaVuSans-20" x="465.087891"/>
      <use xlink:href="#DejaVuSans-53" x="496.875"/>
      <use xlink:href="#DejaVuSans-74" x="560.351562"/>
      <use xlink:href="#DejaVuSans-61" x="599.560547"/>
      <use xlink:href="#DejaVuSans-6c" x="660.839844"/>
      <use xlink:href="#DejaVuSans-6c" x="688.623047"/>
      <use xlink:href="#DejaVuSans-6f" x="716.40625"/>
      <use xlink:href="#DejaVuSans-6e" x="777.587891"/>
      <use xlink:href="#DejaVuSans-65" x="840.966797"/>
     </g>
    </g>
   </g>
   <g id="text_8">
    <g id="patch_9">
     <path d="M 47.523138 263.25593 
L 94.815325 263.25593 
L 94.815325 246.625618 
L 47.523138 246.625618 
z
" clip-path="url(#p21644ddcae)" style="fill: #ffffff; opacity: 0.7; stroke: #000000; stroke-linejoin: miter"/>
    </g>
    <g clip-path="url(#p21644ddcae)">
     <!-- Shobana -->
     <g transform="translate(51.483138 257.424211)scale(0.09 -0.09)">
      <defs>
       <path id="DejaVuSans-62" d="M 3116 1747 
Q 3116 2381 2855 2742 
Q 2594 3103 2138 3103 
Q 1681 3103 1420 2742 
Q 1159 2381 1159 1747 
Q 1159 1113 1420 752 
Q 1681 391 2138 391 
Q 2594 391 2855 752 
Q 3116 1113 3116 1747 
z
M 1159 2969 
Q 1341 3281 1617 3432 
Q 1894 3584 2278 3584 
Q 2916 3584 3314 3078 
Q 3713 2572 3713 1747 
Q 3713 922 3314 415 
Q 2916 -91 2278 -91 
Q 1894 -91 1617 61 
Q 1341 213 1159 525 
L 1159 0 
L 581 0 
L 581 4863 
L 1159 4863 
L 1159 2969 
z
" transform="scale(0.015625)"/>
      </defs>
      <use xlink:href="#DejaVuSans-53"/>
      <use xlink:href="#DejaVuSans-68" x="63.476562"/>
      <use xlink:href="#DejaVuSans-6f" x="126.855469"/>
      <use xlink:href="#DejaVuSans-62" x="188.037109"/>
      <use xlink:href="#DejaVuSans-61" x="251.513672"/>
      <use xlink:href="#DejaVuSans-6e" x="312.792969"/>
      <use xlink:href="#DejaVuSans-61" x="376.171875"/>
     </g>
    </g>
   </g>
   <g id="text_9">
    <g id="patch_10">
     <path d="M 46.853776 352.410671 
L 95.484713 352.410671 
L 95.484713 335.780358 
L 46.853776 335.780358 
z
" clip-path="url(#p21644ddcae)" style="fill: #ffffff; opacity: 0.7; stroke: #000000; stroke-linejoin: miter"/>
    </g>
    <g clip-path="url(#p21644ddcae)">
     <!-- Mohanlal -->
     <g transform="translate(50.813776 346.578952)scale(0.09 -0.09)">
      <defs>
       <path id="DejaVuSans-4d" d="M 628 4666 
L 1569 4666 
L 2759 1491 
L 3956 4666 
L 4897 4666 
L 4897 0 
L 4281 0 
L 4281 4097 
L 3078 897 
L 2444 897 
L 1241 4097 
L 1241 0 
L 628 0 
L 628 4666 
z
" transform="scale(0.015625)"/>
      </defs>
      <use xlink:href="#DejaVuSans-4d"/>
      <use xlink:href="#DejaVuSans-6f" x="86.279297"/>
      <use xlink:href="#DejaVuSans-68" x="147.460938"/>
      <use xlink:href="#DejaVuSans-61" x="210.839844"/>
      <use xlink:href="#DejaVuSans-6e" x="272.119141"/>
      <use xlink:href="#DejaVuSans-6c" x="335.498047"/>
      <use xlink:href="#DejaVuSans-61" x="363.28125"/>
      <use xlink:href="#DejaVuSans-6c" x="424.560547"/>
     </g>
    </g>
   </g>
   <g id="text_10">
    <g id="patch_11">
     <path d="M 76.304459 433.857565 
L 138.958522 433.857565 
L 138.958522 417.227253 
L 76.304459 417.227253 
z
" clip-path="url(#p21644ddcae)" style="fill: #ffffff; opacity: 0.7; stroke: #000000; stroke-linejoin: miter"/>
    </g>
    <g clip-path="url(#p21644ddcae)">
     <!-- Boris Karloff -->
     <g transform="translate(80.264459 428.025847)scale(0.09 -0.09)">
      <defs>
       <path id="DejaVuSans-4b" d="M 628 4666 
L 1259 4666 
L 1259 2694 
L 3353 4666 
L 4166 4666 
L 1850 2491 
L 4331 0 
L 3500 0 
L 1259 2247 
L 1259 0 
L 628 0 
L 628 4666 
z
" transform="scale(0.015625)"/>
      </defs>
      <use xlink:href="#DejaVuSans-42"/>
      <use xlink:href="#DejaVuSans-6f" x="68.603516"/>
      <use xlink:href="#DejaVuSans-72" x="129.785156"/>
      <use xlink:href="#DejaVuSans-69" x="170.898438"/>
      <use xlink:href="#DejaVuSans-73" x="198.681641"/>
      <use xlink:href="#DejaVuSans-20" x="250.78125"/>
      <use xlink:href="#DejaVuSans-4b" x="282.568359"/>
      <use xlink:href="#DejaVuSans-61" x="346.394531"/>
      <use xlink:href="#DejaVuSans-72" x="407.673828"/>
      <use xlink:href="#DejaVuSans-6c" x="448.787109"/>
      <use xlink:href="#DejaVuSans-6f" x="476.570312"/>
      <use xlink:href="#DejaVuSans-66" x="537.751953"/>
      <use xlink:href="#DejaVuSans-66" x="572.957031"/>
     </g>
    </g>
   </g>
   <g id="text_11">
    <g id="patch_12">
     <path d="M 139.706799 493.513727 
L 208.795862 493.513727 
L 208.795862 476.883414 
L 139.706799 476.883414 
z
" clip-path="url(#p21644ddcae)" style="fill: #ffffff; opacity: 0.7; stroke: #000000; stroke-linejoin: miter"/>
    </g>
    <g clip-path="url(#p21644ddcae)">
     <!-- Walter Slezak -->
     <g transform="translate(143.666799 487.682008)scale(0.09 -0.09)">
      <defs>
       <path id="DejaVuSans-7a" d="M 353 3500 
L 3084 3500 
L 3084 2975 
L 922 459 
L 3084 459 
L 3084 0 
L 275 0 
L 275 525 
L 2438 3041 
L 353 3041 
L 353 3500 
z
" transform="scale(0.015625)"/>
      </defs>
      <use xlink:href="#DejaVuSans-57"/>
      <use xlink:href="#DejaVuSans-61" x="92.501953"/>
      <use xlink:href="#DejaVuSans-6c" x="153.78125"/>
      <use xlink:href="#DejaVuSans-74" x="181.564453"/>
      <use xlink:href="#DejaVuSans-65" x="220.773438"/>
      <use xlink:href="#DejaVuSans-72" x="282.296875"/>
      <use xlink:href="#DejaVuSans-20" x="323.410156"/>
      <use xlink:href="#DejaVuSans-53" x="355.197266"/>
      <use xlink:href="#DejaVuSans-6c" x="418.673828"/>
      <use xlink:href="#DejaVuSans-65" x="446.457031"/>
      <use xlink:href="#DejaVuSans-7a" x="507.980469"/>
      <use xlink:href="#DejaVuSans-61" x="560.470703"/>
      <use xlink:href="#DejaVuSans-6b" x="621.75"/>
     </g>
    </g>
   </g>
   <g id="text_12">
    <g id="patch_13">
     <path d="M 230.511306 521.06405 
L 288.507869 521.06405 
L 288.507869 504.433738 
L 230.511306 504.433738 
z
" clip-path="url(#p21644ddcae)" style="fill: #ffffff; opacity: 0.7; stroke: #000000; stroke-linejoin: miter"/>
    </g>
    <g clip-path="url(#p21644ddcae)">
     <!-- Maria Bello -->
     <g transform="translate(234.471306 515.232332)scale(0.09 -0.09)">
      <use xlink:href="#DejaVuSans-4d"/>
      <use xlink:href="#DejaVuSans-61" x="86.279297"/>
      <use xlink:href="#DejaVuSans-72" x="147.558594"/>
      <use xlink:href="#DejaVuSans-69" x="188.671875"/>
      <use xlink:href="#DejaVuSans-61" x="216.455078"/>
      <use xlink:href="#DejaVuSans-20" x="277.734375"/>
      <use xlink:href="#DejaVuSans-42" x="309.521484"/>
      <use xlink:href="#DejaVuSans-65" x="378.125"/>
      <use xlink:href="#DejaVuSans-6c" x="439.648438"/>
      <use xlink:href="#DejaVuSans-6c" x="467.431641"/>
      <use xlink:href="#DejaVuSans-6f" x="495.214844"/>
     </g>
    </g>
   </g>
   <g id="text_13">
    <g id="patch_14">
     <path d="M 314.008699 511.744831 
L 383.319949 511.744831 
L 383.319949 495.114518 
L 314.008699 495.114518 
z
" clip-path="url(#p21644ddcae)" style="fill: #ffffff; opacity: 0.7; stroke: #000000; stroke-linejoin: miter"/>
    </g>
    <g clip-path="url(#p21644ddcae)">
     <!-- Frank Vincent -->
     <g transform="translate(317.968699 505.913112)scale(0.09 -0.09)">
      <use xlink:href="#DejaVuSans-46"/>
      <use xlink:href="#DejaVuSans-72" x="50.269531"/>
      <use xlink:href="#DejaVuSans-61" x="91.382812"/>
      <use xlink:href="#DejaVuSans-6e" x="152.662109"/>
      <use xlink:href="#DejaVuSans-6b" x="216.041016"/>
      <use xlink:href="#DejaVuSans-20" x="273.951172"/>
      <use xlink:href="#DejaVuSans-56" x="305.738281"/>
      <use xlink:href="#DejaVuSans-69" x="371.896484"/>
      <use xlink:href="#DejaVuSans-6e" x="399.679688"/>
      <use xlink:href="#DejaVuSans-63" x="463.058594"/>
      <use xlink:href="#DejaVuSans-65" x="518.039062"/>
      <use xlink:href="#DejaVuSans-6e" x="579.5625"/>
      <use xlink:href="#DejaVuSans-74" x="642.941406"/>
     </g>
    </g>
   </g>
   <g id="text_14">
    <g id="patch_15">
     <path d="M 393.80356 467.167441 
L 458.796217 467.167441 
L 458.796217 450.537129 
L 393.80356 450.537129 
z
" clip-path="url(#p21644ddcae)" style="fill: #ffffff; opacity: 0.7; stroke: #000000; stroke-linejoin: miter"/>
    </g>
    <g clip-path="url(#p21644ddcae)">
     <!-- John Gielgud -->
     <g transform="translate(397.76356 461.335723)scale(0.09 -0.09)">
      <defs>
       <path id="DejaVuSans-67" d="M 2906 1791 
Q 2906 2416 2648 2759 
Q 2391 3103 1925 3103 
Q 1463 3103 1205 2759 
Q 947 2416 947 1791 
Q 947 1169 1205 825 
Q 1463 481 1925 481 
Q 2391 481 2648 825 
Q 2906 1169 2906 1791 
z
M 3481 434 
Q 3481 -459 3084 -895 
Q 2688 -1331 1869 -1331 
Q 1566 -1331 1297 -1286 
Q 1028 -1241 775 -1147 
L 775 -588 
Q 1028 -725 1275 -790 
Q 1522 -856 1778 -856 
Q 2344 -856 2625 -561 
Q 2906 -266 2906 331 
L 2906 616 
Q 2728 306 2450 153 
Q 2172 0 1784 0 
Q 1141 0 747 490 
Q 353 981 353 1791 
Q 353 2603 747 3093 
Q 1141 3584 1784 3584 
Q 2172 3584 2450 3431 
Q 2728 3278 2906 2969 
L 2906 3500 
L 3481 3500 
L 3481 434 
z
" transform="scale(0.015625)"/>
       <path id="DejaVuSans-64" d="M 2906 2969 
L 2906 4863 
L 3481 4863 
L 3481 0 
L 2906 0 
L 2906 525 
Q 2725 213 2448 61 
Q 2172 -91 1784 -91 
Q 1150 -91 751 415 
Q 353 922 353 1747 
Q 353 2572 751 3078 
Q 1150 3584 1784 3584 
Q 2172 3584 2448 3432 
Q 2725 3281 2906 2969 
z
M 947 1747 
Q 947 1113 1208 752 
Q 1469 391 1925 391 
Q 2381 391 2643 752 
Q 2906 1113 2906 1747 
Q 2906 2381 2643 2742 
Q 2381 3103 1925 3103 
Q 1469 3103 1208 2742 
Q 947 2381 947 1747 
z
" transform="scale(0.015625)"/>
      </defs>
      <use xlink:href="#DejaVuSans-4a"/>
      <use xlink:href="#DejaVuSans-6f" x="29.492188"/>
      <use xlink:href="#DejaVuSans-68" x="90.673828"/>
      <use xlink:href="#DejaVuSans-6e" x="154.052734"/>
      <use xlink:href="#DejaVuSans-20" x="217.431641"/>
      <use xlink:href="#DejaVuSans-47" x="249.21875"/>
      <use xlink:href="#DejaVuSans-69" x="326.708984"/>
      <use xlink:href="#DejaVuSans-65" x="354.492188"/>
      <use xlink:href="#DejaVuSans-6c" x="416.015625"/>
      <use xlink:href="#DejaVuSans-67" x="443.798828"/>
      <use xlink:href="#DejaVuSans-75" x="507.275391"/>
      <use xlink:href="#DejaVuSans-64" x="570.654297"/>
     </g>
    </g>
   </g>
   <g id="text_15">
    <g id="patch_16">
     <path d="M 455.067139 395.039741 
L 502.917608 395.039741 
L 502.917608 378.409428 
L 455.067139 378.409428 
z
" clip-path="url(#p21644ddcae)" style="fill: #ffffff; opacity: 0.7; stroke: #000000; stroke-linejoin: miter"/>
    </g>
    <g clip-path="url(#p21644ddcae)">
     <!-- Tim Roth -->
     <g transform="translate(459.027139 389.208022)scale(0.09 -0.09)">
      <defs>
       <path id="DejaVuSans-54" d="M -19 4666 
L 3928 4666 
L 3928 4134 
L 2272 4134 
L 2272 0 
L 1638 0 
L 1638 4134 
L -19 4134 
L -19 4666 
z
" transform="scale(0.015625)"/>
       <path id="DejaVuSans-52" d="M 2841 2188 
Q 3044 2119 3236 1894 
Q 3428 1669 3622 1275 
L 4263 0 
L 3584 0 
L 2988 1197 
Q 2756 1666 2539 1819 
Q 2322 1972 1947 1972 
L 1259 1972 
L 1259 0 
L 628 0 
L 628 4666 
L 2053 4666 
Q 2853 4666 3247 4331 
Q 3641 3997 3641 3322 
Q 3641 2881 3436 2590 
Q 3231 2300 2841 2188 
z
M 1259 4147 
L 1259 2491 
L 2053 2491 
Q 2509 2491 2742 2702 
Q 2975 2913 2975 3322 
Q 2975 3731 2742 3939 
Q 2509 4147 2053 4147 
L 1259 4147 
z
" transform="scale(0.015625)"/>
      </defs>
      <use xlink:href="#DejaVuSans-54"/>
      <use xlink:href="#DejaVuSans-69" x="57.958984"/>
      <use xlink:href="#DejaVuSans-6d" x="85.742188"/>
      <use xlink:href="#DejaVuSans-20" x="183.154297"/>
      <use xlink:href="#DejaVuSans-52" x="214.941406"/>
      <use xlink:href="#DejaVuSans-6f" x="279.923828"/>
      <use xlink:href="#DejaVuSans-74" x="341.105469"/>
      <use xlink:href="#DejaVuSans-68" x="380.314453"/>
     </g>
    </g>
   </g>
   <g id="text_16">
    <!-- Impactful actors for Short Film genre - Importance rank: 6 -->
    <g transform="translate(110.633437 16.318125)scale(0.12 -0.12)">
     <defs>
      <path id="DejaVuSans-49" d="M 628 4666 
L 1259 4666 
L 1259 0 
L 628 0 
L 628 4666 
z
" transform="scale(0.015625)"/>
      <path id="DejaVuSans-70" d="M 1159 525 
L 1159 -1331 
L 581 -1331 
L 581 3500 
L 1159 3500 
L 1159 2969 
Q 1341 3281 1617 3432 
Q 1894 3584 2278 3584 
Q 2916 3584 3314 3078 
Q 3713 2572 3713 1747 
Q 3713 922 3314 415 
Q 2916 -91 2278 -91 
Q 1894 -91 1617 61 
Q 1341 213 1159 525 
z
M 3116 1747 
Q 3116 2381 2855 2742 
Q 2594 3103 2138 3103 
Q 1681 3103 1420 2742 
Q 1159 2381 1159 1747 
Q 1159 1113 1420 752 
Q 1681 391 2138 391 
Q 2594 391 2855 752 
Q 3116 1113 3116 1747 
z
" transform="scale(0.015625)"/>
      <path id="DejaVuSans-2d" d="M 313 2009 
L 1997 2009 
L 1997 1497 
L 313 1497 
L 313 2009 
z
" transform="scale(0.015625)"/>
      <path id="DejaVuSans-3a" d="M 750 794 
L 1409 794 
L 1409 0 
L 750 0 
L 750 794 
z
M 750 3309 
L 1409 3309 
L 1409 2516 
L 750 2516 
L 750 3309 
z
" transform="scale(0.015625)"/>
      <path id="DejaVuSans-36" d="M 2113 2584 
Q 1688 2584 1439 2293 
Q 1191 2003 1191 1497 
Q 1191 994 1439 701 
Q 1688 409 2113 409 
Q 2538 409 2786 701 
Q 3034 994 3034 1497 
Q 3034 2003 2786 2293 
Q 2538 2584 2113 2584 
z
M 3366 4563 
L 3366 3988 
Q 3128 4100 2886 4159 
Q 2644 4219 2406 4219 
Q 1781 4219 1451 3797 
Q 1122 3375 1075 2522 
Q 1259 2794 1537 2939 
Q 1816 3084 2150 3084 
Q 2853 3084 3261 2657 
Q 3669 2231 3669 1497 
Q 3669 778 3244 343 
Q 2819 -91 2113 -91 
Q 1303 -91 875 529 
Q 447 1150 447 2328 
Q 447 3434 972 4092 
Q 1497 4750 2381 4750 
Q 2619 4750 2861 4703 
Q 3103 4656 3366 4563 
z
" transform="scale(0.015625)"/>
     </defs>
     <use xlink:href="#DejaVuSans-49"/>
     <use xlink:href="#DejaVuSans-6d" x="29.492188"/>
     <use xlink:href="#DejaVuSans-70" x="126.904297"/>
     <use xlink:href="#DejaVuSans-61" x="190.380859"/>
     <use xlink:href="#DejaVuSans-63" x="251.660156"/>
     <use xlink:href="#DejaVuSans-74" x="306.640625"/>
     <use xlink:href="#DejaVuSans-66" x="345.849609"/>
     <use xlink:href="#DejaVuSans-75" x="381.054688"/>
     <use xlink:href="#DejaVuSans-6c" x="444.433594"/>
     <use xlink:href="#DejaVuSans-20" x="472.216797"/>
     <use xlink:href="#DejaVuSans-61" x="504.003906"/>
     <use xlink:href="#DejaVuSans-63" x="565.283203"/>
     <use xlink:href="#DejaVuSans-74" x="620.263672"/>
     <use xlink:href="#DejaVuSans-6f" x="659.472656"/>
     <use xlink:href="#DejaVuSans-72" x="720.654297"/>
     <use xlink:href="#DejaVuSans-73" x="761.767578"/>
     <use xlink:href="#DejaVuSans-20" x="813.867188"/>
     <use xlink:href="#DejaVuSans-66" x="845.654297"/>
     <use xlink:href="#DejaVuSans-6f" x="880.859375"/>
     <use xlink:href="#DejaVuSans-72" x="942.041016"/>
     <use xlink:href="#DejaVuSans-20" x="983.154297"/>
     <use xlink:href="#DejaVuSans-53" x="1014.941406"/>
     <use xlink:href="#DejaVuSans-68" x="1078.417969"/>
     <use xlink:href="#DejaVuSans-6f" x="1141.796875"/>
     <use xlink:href="#DejaVuSans-72" x="1202.978516"/>
     <use xlink:href="#DejaVuSans-74" x="1244.091797"/>
     <use xlink:href="#DejaVuSans-20" x="1283.300781"/>
     <use xlink:href="#DejaVuSans-46" x="1315.087891"/>
     <use xlink:href="#DejaVuSans-69" x="1365.357422"/>
     <use xlink:href="#DejaVuSans-6c" x="1393.140625"/>
     <use xlink:href="#DejaVuSans-6d" x="1420.923828"/>
     <use xlink:href="#DejaVuSans-20" x="1518.335938"/>
     <use xlink:href="#DejaVuSans-67" x="1550.123047"/>
     <use xlink:href="#DejaVuSans-65" x="1613.599609"/>
     <use xlink:href="#DejaVuSans-6e" x="1675.123047"/>
     <use xlink:href="#DejaVuSans-72" x="1738.501953"/>
     <use xlink:href="#DejaVuSans-65" x="1777.365234"/>
     <use xlink:href="#DejaVuSans-20" x="1838.888672"/>
     <use xlink:href="#DejaVuSans-2d" x="1870.675781"/>
     <use xlink:href="#DejaVuSans-20" x="1906.759766"/>
     <use xlink:href="#DejaVuSans-49" x="1938.546875"/>
     <use xlink:href="#DejaVuSans-6d" x="1968.039062"/>
     <use xlink:href="#DejaVuSans-70" x="2065.451172"/>
     <use xlink:href="#DejaVuSans-6f" x="2128.927734"/>
     <use xlink:href="#DejaVuSans-72" x="2190.109375"/>
     <use xlink:href="#DejaVuSans-74" x="2231.222656"/>
     <use xlink:href="#DejaVuSans-61" x="2270.431641"/>
     <use xlink:href="#DejaVuSans-6e" x="2331.710938"/>
     <use xlink:href="#DejaVuSans-63" x="2395.089844"/>
     <use xlink:href="#DejaVuSans-65" x="2450.070312"/>
     <use xlink:href="#DejaVuSans-20" x="2511.59375"/>
     <use xlink:href="#DejaVuSans-72" x="2543.380859"/>
     <use xlink:href="#DejaVuSans-61" x="2584.494141"/>
     <use xlink:href="#DejaVuSans-6e" x="2645.773438"/>
     <use xlink:href="#DejaVuSans-6b" x="2709.152344"/>
     <use xlink:href="#DejaVuSans-3a" x="2767.0625"/>
     <use xlink:href="#DejaVuSans-20" x="2800.753906"/>
     <use xlink:href="#DejaVuSans-36" x="2832.541016"/>
    </g>
   </g>
  </g>
 </g>
 <defs>
  <clipPath id="p21644ddcae">
   <rect x="7.2" y="22.318125" width="554.4" height="554.4"/>
  </clipPath>
 </defs>
</svg>
