<?xml version="1.0" encoding="utf-8" standalone="no"?>
<!DOCTYPE svg PUBLIC "-//W3C//DTD SVG 1.1//EN"
  "http://www.w3.org/Graphics/SVG/1.1/DTD/svg11.dtd">
<svg xmlns:xlink="http://www.w3.org/1999/xlink" width="576pt" height="576pt" viewBox="0 0 576 576" xmlns="http://www.w3.org/2000/svg" version="1.1">
 <metadata>
  <rdf:RDF xmlns:dc="http://purl.org/dc/elements/1.1/" xmlns:cc="http://creativecommons.org/ns#" xmlns:rdf="http://www.w3.org/1999/02/22-rdf-syntax-ns#">
   <cc:Work>
    <dc:type rdf:resource="http://purl.org/dc/dcmitype/StillImage"/>
    <dc:date>2022-12-22T16:13:04.100684</dc:date>
    <dc:format>image/svg+xml</dc:format>
    <dc:creator>
     <cc:Agent>
      <dc:title>Matplotlib v3.5.2, https://matplotlib.org/</dc:title>
     </cc:Agent>
    </dc:creator>
   </cc:Work>
  </rdf:RDF>
 </metadata>
 <defs>
  <style type="text/css">*{stroke-linejoin: round; stroke-linecap: butt}</style>
 </defs>
 <g id="figure_1">
  <g id="patch_1">
   <path d="M 0 576 
L 576 576 
L 576 0 
L 0 0 
z
" style="fill: #ffffff"/>
  </g>
  <g id="axes_1">
   <g id="PathCollection_1">
    <path d="M 501.230769 315.386128 
C 508.493655 315.386128 515.46005 312.500553 520.595686 307.364917 
C 525.731322 302.229281 528.616897 295.262886 528.616897 288 
C 528.616897 280.737114 525.731322 273.770719 520.595686 268.635083 
C 515.46005 263.499447 508.493655 260.613872 501.230769 260.613872 
C 493.967883 260.613872 487.001488 263.499447 481.865852 268.635083 
C 476.730217 273.770719 473.844641 280.737114 473.844641 288 
C 473.844641 295.262886 476.730217 302.229281 481.865852 307.364917 
C 487.001488 312.500553 493.967883 315.386128 501.230769 315.386128 
z
" clip-path="url(#p50708036cb)" style="fill: #d62728; fill-opacity: 0.99; stroke: #d62728; stroke-opacity: 0.99"/>
    <path d="M 482.592348 228.049327 
C 489.820675 228.049327 496.753922 225.177482 501.865122 220.066282 
C 506.976321 214.955083 509.848166 208.021836 509.848166 200.793508 
C 509.848166 193.565181 506.976321 186.631934 501.865122 181.520734 
C 496.753922 176.409535 489.820675 173.53769 482.592348 173.53769 
C 475.36402 173.53769 468.430773 176.409535 463.319574 181.520734 
C 458.208374 186.631934 455.33653 193.565181 455.33653 200.793508 
C 455.33653 208.021836 458.208374 214.955083 463.319574 220.066282 
C 468.430773 225.177482 475.36402 228.049327 482.592348 228.049327 
z
" clip-path="url(#p50708036cb)" style="fill: #d62728; fill-opacity: 0.99; stroke: #d62728; stroke-opacity: 0.99"/>
    <path d="M 429.89985 154.413207 
C 436.728142 154.413207 443.277684 151.700298 448.106015 146.871967 
C 452.934346 142.043635 455.647256 135.494093 455.647256 128.665802 
C 455.647256 121.83751 452.934346 115.287968 448.106015 110.459636 
C 443.277684 105.631305 436.728142 102.918396 429.89985 102.918396 
C 423.071558 102.918396 416.522016 105.631305 411.693685 110.459636 
C 406.865353 115.287968 404.152444 121.83751 404.152444 128.665802 
C 404.152444 135.494093 406.865353 142.043635 411.693685 146.871967 
C 416.522016 151.700298 423.071558 154.413207 429.89985 154.413207 
z
" clip-path="url(#p50708036cb)" style="fill: #d62728; fill-opacity: 0.99; stroke: #d62728; stroke-opacity: 0.99"/>
    <path d="M 352.264291 108.468609 
C 358.729988 108.468609 364.931737 105.89976 369.503675 101.327822 
C 374.075613 96.755884 376.644462 90.554135 376.644462 84.088438 
C 376.644462 77.622741 374.075613 71.420992 369.503675 66.849054 
C 364.931737 62.277115 358.729988 59.708267 352.264291 59.708267 
C 345.798594 59.708267 339.596845 62.277115 335.024907 66.849054 
C 330.452969 71.420992 327.88412 77.622741 327.88412 84.088438 
C 327.88412 90.554135 330.452969 96.755884 335.024907 101.327822 
C 339.596845 105.89976 345.798594 108.468609 352.264291 108.468609 
z
" clip-path="url(#p50708036cb)" style="fill: #d62728; fill-opacity: 0.99; stroke: #d62728; stroke-opacity: 0.99"/>
    <path d="M 263.109549 98.867074 
C 269.500371 98.867074 275.630303 96.327973 280.149297 91.808979 
C 284.668291 87.289985 287.207392 81.160053 287.207392 74.769231 
C 287.207392 68.378408 284.668291 62.248477 280.149297 57.729483 
C 275.630303 53.210489 269.500371 50.671388 263.109549 50.671388 
C 256.718726 50.671388 250.588795 53.210489 246.0698 57.729483 
C 241.550806 62.248477 239.011706 68.378408 239.011706 74.769231 
C 239.011706 81.160053 241.550806 87.289985 246.0698 91.808979 
C 250.588795 96.327973 256.718726 98.867074 263.109549 98.867074 
z
" clip-path="url(#p50708036cb)" style="fill: #d62728; fill-opacity: 0.99; stroke: #d62728; stroke-opacity: 0.99"/>
    <path d="M 177.851298 125.511577 
C 184.001891 125.511577 189.901399 123.06792 194.250525 118.718794 
C 198.599651 114.369669 201.043308 108.47016 201.043308 102.319567 
C 201.043308 96.168974 198.599651 90.269466 194.250525 85.92034 
C 189.901399 81.571214 184.001891 79.127558 177.851298 79.127558 
C 171.700705 79.127558 165.801197 81.571214 161.452071 85.92034 
C 157.102945 90.269466 154.659289 96.168974 154.659289 102.319567 
C 154.659289 108.47016 157.102945 114.369669 161.452071 118.718794 
C 165.801197 123.06792 171.700705 125.511577 177.851298 125.511577 
z
" clip-path="url(#p50708036cb)" style="fill: #d62728; fill-opacity: 0.99; stroke: #d62728; stroke-opacity: 0.99"/>
    <path d="M 111.231477 185.167738 
C 117.38207 185.167738 123.281578 182.724082 127.630704 178.374956 
C 131.97983 174.02583 134.423487 168.126322 134.423487 161.975729 
C 134.423487 155.825136 131.97983 149.925627 127.630704 145.576502 
C 123.281578 141.227376 117.38207 138.783719 111.231477 138.783719 
C 105.080884 138.783719 99.181376 141.227376 94.83225 145.576502 
C 90.483124 149.925627 88.039468 155.825136 88.039468 161.975729 
C 88.039468 168.126322 90.483124 174.02583 94.83225 178.374956 
C 99.181376 182.724082 105.080884 185.167738 111.231477 185.167738 
z
" clip-path="url(#p50708036cb)" style="fill: #d62728; fill-opacity: 0.99; stroke: #d62728; stroke-opacity: 0.99"/>
    <path d="M 74.769231 264.321651 
C 80.311711 264.321651 85.627932 262.119601 89.547057 258.200475 
C 93.466182 254.28135 95.668233 248.965129 95.668233 243.422649 
C 95.668233 237.880169 93.466182 232.563948 89.547057 228.644823 
C 85.627932 224.725697 80.311711 222.523646 74.769231 222.523646 
C 69.226751 222.523646 63.91053 224.725697 59.991404 228.644823 
C 56.072279 232.563948 53.870228 237.880169 53.870228 243.422649 
C 53.870228 248.965129 56.072279 254.28135 59.991404 258.200475 
C 63.91053 262.119601 69.226751 264.321651 74.769231 264.321651 
z
" clip-path="url(#p50708036cb)" style="fill: #d62728; fill-opacity: 0.99; stroke: #d62728; stroke-opacity: 0.99"/>
    <path d="M 74.769244 352.776273 
C 80.12605 352.776273 85.264177 350.647991 89.052011 346.860157 
C 92.839845 343.072323 94.968127 337.934196 94.968127 332.577389 
C 94.968127 327.220583 92.839845 322.082456 89.052011 318.294622 
C 85.264177 314.506788 80.12605 312.378506 74.769244 312.378506 
C 69.412437 312.378506 64.274311 314.506788 60.486476 318.294622 
C 56.698642 322.082456 54.570361 327.220583 54.570361 332.577389 
C 54.570361 337.934196 56.698642 343.072323 60.486476 346.860157 
C 64.274311 350.647991 69.412437 352.776273 74.769244 352.776273 
z
" clip-path="url(#p50708036cb)" style="fill: #d62728; fill-opacity: 0.99; stroke: #d62728; stroke-opacity: 0.99"/>
    <path d="M 111.23149 434.223167 
C 116.588296 434.223167 121.726423 432.094885 125.514257 428.307051 
C 129.302091 424.519217 131.430373 419.38109 131.430373 414.024284 
C 131.430373 408.667478 129.302091 403.529351 125.514257 399.741517 
C 121.726423 395.953683 116.588296 393.825401 111.23149 393.825401 
C 105.874683 393.825401 100.736557 395.953683 96.948723 399.741517 
C 93.160889 403.529351 91.032607 408.667478 91.032607 414.024284 
C 91.032607 419.38109 93.160889 424.519217 96.948723 428.307051 
C 100.736557 432.094885 105.874683 434.223167 111.23149 434.223167 
z
" clip-path="url(#p50708036cb)" style="fill: #d62728; fill-opacity: 0.99; stroke: #d62728; stroke-opacity: 0.99"/>
    <path d="M 177.85133 493.673141 
C 183.153455 493.673141 188.239133 491.566585 191.988301 487.817416 
C 195.73747 484.068248 197.844026 478.98257 197.844026 473.680446 
C 197.844026 468.378321 195.73747 463.292643 191.988301 459.543475 
C 188.239133 455.794306 183.153455 453.68775 177.85133 453.68775 
C 172.549205 453.68775 167.463528 455.794306 163.714359 459.543475 
C 159.965191 463.292643 157.858634 468.378321 157.858634 473.680446 
C 157.858634 478.98257 159.965191 484.068248 163.714359 487.817416 
C 167.463528 491.566585 172.549205 493.673141 177.85133 493.673141 
z
" clip-path="url(#p50708036cb)" style="fill: #d62728; fill-opacity: 0.99; stroke: #d62728; stroke-opacity: 0.99"/>
    <path d="M 263.109587 521.168754 
C 268.397203 521.168754 273.468963 519.067962 277.207872 515.329054 
C 280.94678 511.590145 283.047572 506.518385 283.047572 501.230769 
C 283.047572 495.943154 280.94678 490.871393 277.207872 487.132485 
C 273.468963 483.393576 268.397203 481.292784 263.109587 481.292784 
C 257.821972 481.292784 252.750211 483.393576 249.011303 487.132485 
C 245.272394 490.871393 243.171602 495.943154 243.171602 501.230769 
C 243.171602 506.518385 245.272394 511.590145 249.011303 515.329054 
C 252.750211 519.067962 257.821972 521.168754 263.109587 521.168754 
z
" clip-path="url(#p50708036cb)" style="fill: #d62728; fill-opacity: 0.99; stroke: #d62728; stroke-opacity: 0.99"/>
    <path d="M 352.264323 511.465746 
C 357.450157 511.465746 362.42429 509.405393 366.091228 505.738454 
C 369.758166 502.071516 371.81852 497.097383 371.81852 491.91155 
C 371.81852 486.725716 369.758166 481.751583 366.091228 478.084645 
C 362.42429 474.417707 357.450157 472.357353 352.264323 472.357353 
C 347.07849 472.357353 342.104356 474.417707 338.437418 478.084645 
C 334.77048 481.751583 332.710127 486.725716 332.710127 491.91155 
C 332.710127 497.097383 334.77048 502.071516 338.437418 505.738454 
C 342.104356 509.405393 347.07849 511.465746 352.264323 511.465746 
z
" clip-path="url(#p50708036cb)" style="fill: #d62728; fill-opacity: 0.99; stroke: #d62728; stroke-opacity: 0.99"/>
    <path d="M 429.899888 466.709504 
C 435.03829 466.709504 439.966927 464.667996 443.600326 461.034597 
C 447.233724 457.401199 449.275233 452.472561 449.275233 447.33416 
C 449.275233 442.195759 447.233724 437.267121 443.600326 433.633723 
C 439.966927 430.000324 435.03829 427.958816 429.899888 427.958816 
C 424.761487 427.958816 419.83285 430.000324 416.199451 433.633723 
C 412.566053 437.267121 410.524544 442.195759 410.524544 447.33416 
C 410.524544 452.472561 412.566053 457.401199 416.199451 461.034597 
C 419.83285 464.667996 424.761487 466.709504 429.899888 466.709504 
z
" clip-path="url(#p50708036cb)" style="fill: #d62728; fill-opacity: 0.99; stroke: #d62728; stroke-opacity: 0.99"/>
    <path d="M 482.592374 394.571376 
C 487.728009 394.571376 492.653994 392.530967 496.285437 388.899524 
C 499.91688 385.268081 501.95729 380.342096 501.95729 375.20646 
C 501.95729 370.070824 499.91688 365.144839 496.285437 361.513396 
C 492.653994 357.881953 487.728009 355.841543 482.592374 355.841543 
C 477.456738 355.841543 472.530753 357.881953 468.89931 361.513396 
C 465.267867 365.144839 463.227457 370.070824 463.227457 375.20646 
C 463.227457 380.342096 465.267867 385.268081 468.89931 388.899524 
C 472.530753 392.530967 477.456738 394.571376 482.592374 394.571376 
z
" clip-path="url(#p50708036cb)" style="fill: #d62728; fill-opacity: 0.99; stroke: #d62728; stroke-opacity: 0.99"/>
   </g>
   <g id="text_1">
    <g id="patch_2">
     <path d="M 469.408035 296.315156 
L 533.053504 296.315156 
L 533.053504 279.684844 
L 469.408035 279.684844 
z
" clip-path="url(#p50708036cb)" style="fill: #ffffff; opacity: 0.7; stroke: #000000; stroke-linejoin: miter"/>
    </g>
    <g clip-path="url(#p50708036cb)">
     <!-- Martin Short -->
     <g transform="translate(473.368035 290.483437)scale(0.09 -0.09)">
      <defs>
       <path id="DejaVuSans-4d" d="M 628 4666 
L 1569 4666 
L 2759 1491 
L 3956 4666 
L 4897 4666 
L 4897 0 
L 4281 0 
L 4281 4097 
L 3078 897 
L 2444 897 
L 1241 4097 
L 1241 0 
L 628 0 
L 628 4666 
z
" transform="scale(0.015625)"/>
       <path id="DejaVuSans-61" d="M 2194 1759 
Q 1497 1759 1228 1600 
Q 959 1441 959 1056 
Q 959 750 1161 570 
Q 1363 391 1709 391 
Q 2188 391 2477 730 
Q 2766 1069 2766 1631 
L 2766 1759 
L 2194 1759 
z
M 3341 1997 
L 3341 0 
L 2766 0 
L 2766 531 
Q 2569 213 2275 61 
Q 1981 -91 1556 -91 
Q 1019 -91 701 211 
Q 384 513 384 1019 
Q 384 1609 779 1909 
Q 1175 2209 1959 2209 
L 2766 2209 
L 2766 2266 
Q 2766 2663 2505 2880 
Q 2244 3097 1772 3097 
Q 1472 3097 1187 3025 
Q 903 2953 641 2809 
L 641 3341 
Q 956 3463 1253 3523 
Q 1550 3584 1831 3584 
Q 2591 3584 2966 3190 
Q 3341 2797 3341 1997 
z
" transform="scale(0.015625)"/>
       <path id="DejaVuSans-72" d="M 2631 2963 
Q 2534 3019 2420 3045 
Q 2306 3072 2169 3072 
Q 1681 3072 1420 2755 
Q 1159 2438 1159 1844 
L 1159 0 
L 581 0 
L 581 3500 
L 1159 3500 
L 1159 2956 
Q 1341 3275 1631 3429 
Q 1922 3584 2338 3584 
Q 2397 3584 2469 3576 
Q 2541 3569 2628 3553 
L 2631 2963 
z
" transform="scale(0.015625)"/>
       <path id="DejaVuSans-74" d="M 1172 4494 
L 1172 3500 
L 2356 3500 
L 2356 3053 
L 1172 3053 
L 1172 1153 
Q 1172 725 1289 603 
Q 1406 481 1766 481 
L 2356 481 
L 2356 0 
L 1766 0 
Q 1100 0 847 248 
Q 594 497 594 1153 
L 594 3053 
L 172 3053 
L 172 3500 
L 594 3500 
L 594 4494 
L 1172 4494 
z
" transform="scale(0.015625)"/>
       <path id="DejaVuSans-69" d="M 603 3500 
L 1178 3500 
L 1178 0 
L 603 0 
L 603 3500 
z
M 603 4863 
L 1178 4863 
L 1178 4134 
L 603 4134 
L 603 4863 
z
" transform="scale(0.015625)"/>
       <path id="DejaVuSans-6e" d="M 3513 2113 
L 3513 0 
L 2938 0 
L 2938 2094 
Q 2938 2591 2744 2837 
Q 2550 3084 2163 3084 
Q 1697 3084 1428 2787 
Q 1159 2491 1159 1978 
L 1159 0 
L 581 0 
L 581 3500 
L 1159 3500 
L 1159 2956 
Q 1366 3272 1645 3428 
Q 1925 3584 2291 3584 
Q 2894 3584 3203 3211 
Q 3513 2838 3513 2113 
z
" transform="scale(0.015625)"/>
       <path id="DejaVuSans-20" transform="scale(0.015625)"/>
       <path id="DejaVuSans-53" d="M 3425 4513 
L 3425 3897 
Q 3066 4069 2747 4153 
Q 2428 4238 2131 4238 
Q 1616 4238 1336 4038 
Q 1056 3838 1056 3469 
Q 1056 3159 1242 3001 
Q 1428 2844 1947 2747 
L 2328 2669 
Q 3034 2534 3370 2195 
Q 3706 1856 3706 1288 
Q 3706 609 3251 259 
Q 2797 -91 1919 -91 
Q 1588 -91 1214 -16 
Q 841 59 441 206 
L 441 856 
Q 825 641 1194 531 
Q 1563 422 1919 422 
Q 2459 422 2753 634 
Q 3047 847 3047 1241 
Q 3047 1584 2836 1778 
Q 2625 1972 2144 2069 
L 1759 2144 
Q 1053 2284 737 2584 
Q 422 2884 422 3419 
Q 422 4038 858 4394 
Q 1294 4750 2059 4750 
Q 2388 4750 2728 4690 
Q 3069 4631 3425 4513 
z
" transform="scale(0.015625)"/>
       <path id="DejaVuSans-68" d="M 3513 2113 
L 3513 0 
L 2938 0 
L 2938 2094 
Q 2938 2591 2744 2837 
Q 2550 3084 2163 3084 
Q 1697 3084 1428 2787 
Q 1159 2491 1159 1978 
L 1159 0 
L 581 0 
L 581 4863 
L 1159 4863 
L 1159 2956 
Q 1366 3272 1645 3428 
Q 1925 3584 2291 3584 
Q 2894 3584 3203 3211 
Q 3513 2838 3513 2113 
z
" transform="scale(0.015625)"/>
       <path id="DejaVuSans-6f" d="M 1959 3097 
Q 1497 3097 1228 2736 
Q 959 2375 959 1747 
Q 959 1119 1226 758 
Q 1494 397 1959 397 
Q 2419 397 2687 759 
Q 2956 1122 2956 1747 
Q 2956 2369 2687 2733 
Q 2419 3097 1959 3097 
z
M 1959 3584 
Q 2709 3584 3137 3096 
Q 3566 2609 3566 1747 
Q 3566 888 3137 398 
Q 2709 -91 1959 -91 
Q 1206 -91 779 398 
Q 353 888 353 1747 
Q 353 2609 779 3096 
Q 1206 3584 1959 3584 
z
" transform="scale(0.015625)"/>
      </defs>
      <use xlink:href="#DejaVuSans-4d"/>
      <use xlink:href="#DejaVuSans-61" x="86.279297"/>
      <use xlink:href="#DejaVuSans-72" x="147.558594"/>
      <use xlink:href="#DejaVuSans-74" x="188.671875"/>
      <use xlink:href="#DejaVuSans-69" x="227.880859"/>
      <use xlink:href="#DejaVuSans-6e" x="255.664062"/>
      <use xlink:href="#DejaVuSans-20" x="319.042969"/>
      <use xlink:href="#DejaVuSans-53" x="350.830078"/>
      <use xlink:href="#DejaVuSans-68" x="414.306641"/>
      <use xlink:href="#DejaVuSans-6f" x="477.685547"/>
      <use xlink:href="#DejaVuSans-72" x="538.867188"/>
      <use xlink:href="#DejaVuSans-74" x="579.980469"/>
     </g>
    </g>
   </g>
   <g id="text_2">
    <g id="patch_3">
     <path d="M 436.49477 209.108665 
L 528.689926 209.108665 
L 528.689926 192.478352 
L 436.49477 192.478352 
z
" clip-path="url(#p50708036cb)" style="fill: #ffffff; opacity: 0.7; stroke: #000000; stroke-linejoin: miter"/>
    </g>
    <g clip-path="url(#p50708036cb)">
     <!-- Stephen McCollum -->
     <g transform="translate(440.45477 203.276946)scale(0.09 -0.09)">
      <defs>
       <path id="DejaVuSans-65" d="M 3597 1894 
L 3597 1613 
L 953 1613 
Q 991 1019 1311 708 
Q 1631 397 2203 397 
Q 2534 397 2845 478 
Q 3156 559 3463 722 
L 3463 178 
Q 3153 47 2828 -22 
Q 2503 -91 2169 -91 
Q 1331 -91 842 396 
Q 353 884 353 1716 
Q 353 2575 817 3079 
Q 1281 3584 2069 3584 
Q 2775 3584 3186 3129 
Q 3597 2675 3597 1894 
z
M 3022 2063 
Q 3016 2534 2758 2815 
Q 2500 3097 2075 3097 
Q 1594 3097 1305 2825 
Q 1016 2553 972 2059 
L 3022 2063 
z
" transform="scale(0.015625)"/>
       <path id="DejaVuSans-70" d="M 1159 525 
L 1159 -1331 
L 581 -1331 
L 581 3500 
L 1159 3500 
L 1159 2969 
Q 1341 3281 1617 3432 
Q 1894 3584 2278 3584 
Q 2916 3584 3314 3078 
Q 3713 2572 3713 1747 
Q 3713 922 3314 415 
Q 2916 -91 2278 -91 
Q 1894 -91 1617 61 
Q 1341 213 1159 525 
z
M 3116 1747 
Q 3116 2381 2855 2742 
Q 2594 3103 2138 3103 
Q 1681 3103 1420 2742 
Q 1159 2381 1159 1747 
Q 1159 1113 1420 752 
Q 1681 391 2138 391 
Q 2594 391 2855 752 
Q 3116 1113 3116 1747 
z
" transform="scale(0.015625)"/>
       <path id="DejaVuSans-63" d="M 3122 3366 
L 3122 2828 
Q 2878 2963 2633 3030 
Q 2388 3097 2138 3097 
Q 1578 3097 1268 2742 
Q 959 2388 959 1747 
Q 959 1106 1268 751 
Q 1578 397 2138 397 
Q 2388 397 2633 464 
Q 2878 531 3122 666 
L 3122 134 
Q 2881 22 2623 -34 
Q 2366 -91 2075 -91 
Q 1284 -91 818 406 
Q 353 903 353 1747 
Q 353 2603 823 3093 
Q 1294 3584 2113 3584 
Q 2378 3584 2631 3529 
Q 2884 3475 3122 3366 
z
" transform="scale(0.015625)"/>
       <path id="DejaVuSans-43" d="M 4122 4306 
L 4122 3641 
Q 3803 3938 3442 4084 
Q 3081 4231 2675 4231 
Q 1875 4231 1450 3742 
Q 1025 3253 1025 2328 
Q 1025 1406 1450 917 
Q 1875 428 2675 428 
Q 3081 428 3442 575 
Q 3803 722 4122 1019 
L 4122 359 
Q 3791 134 3420 21 
Q 3050 -91 2638 -91 
Q 1578 -91 968 557 
Q 359 1206 359 2328 
Q 359 3453 968 4101 
Q 1578 4750 2638 4750 
Q 3056 4750 3426 4639 
Q 3797 4528 4122 4306 
z
" transform="scale(0.015625)"/>
       <path id="DejaVuSans-6c" d="M 603 4863 
L 1178 4863 
L 1178 0 
L 603 0 
L 603 4863 
z
" transform="scale(0.015625)"/>
       <path id="DejaVuSans-75" d="M 544 1381 
L 544 3500 
L 1119 3500 
L 1119 1403 
Q 1119 906 1312 657 
Q 1506 409 1894 409 
Q 2359 409 2629 706 
Q 2900 1003 2900 1516 
L 2900 3500 
L 3475 3500 
L 3475 0 
L 2900 0 
L 2900 538 
Q 2691 219 2414 64 
Q 2138 -91 1772 -91 
Q 1169 -91 856 284 
Q 544 659 544 1381 
z
M 1991 3584 
L 1991 3584 
z
" transform="scale(0.015625)"/>
       <path id="DejaVuSans-6d" d="M 3328 2828 
Q 3544 3216 3844 3400 
Q 4144 3584 4550 3584 
Q 5097 3584 5394 3201 
Q 5691 2819 5691 2113 
L 5691 0 
L 5113 0 
L 5113 2094 
Q 5113 2597 4934 2840 
Q 4756 3084 4391 3084 
Q 3944 3084 3684 2787 
Q 3425 2491 3425 1978 
L 3425 0 
L 2847 0 
L 2847 2094 
Q 2847 2600 2669 2842 
Q 2491 3084 2119 3084 
Q 1678 3084 1418 2786 
Q 1159 2488 1159 1978 
L 1159 0 
L 581 0 
L 581 3500 
L 1159 3500 
L 1159 2956 
Q 1356 3278 1631 3431 
Q 1906 3584 2284 3584 
Q 2666 3584 2933 3390 
Q 3200 3197 3328 2828 
z
" transform="scale(0.015625)"/>
      </defs>
      <use xlink:href="#DejaVuSans-53"/>
      <use xlink:href="#DejaVuSans-74" x="63.476562"/>
      <use xlink:href="#DejaVuSans-65" x="102.685547"/>
      <use xlink:href="#DejaVuSans-70" x="164.208984"/>
      <use xlink:href="#DejaVuSans-68" x="227.685547"/>
      <use xlink:href="#DejaVuSans-65" x="291.064453"/>
      <use xlink:href="#DejaVuSans-6e" x="352.587891"/>
      <use xlink:href="#DejaVuSans-20" x="415.966797"/>
      <use xlink:href="#DejaVuSans-4d" x="447.753906"/>
      <use xlink:href="#DejaVuSans-63" x="534.033203"/>
      <use xlink:href="#DejaVuSans-43" x="589.013672"/>
      <use xlink:href="#DejaVuSans-6f" x="658.837891"/>
      <use xlink:href="#DejaVuSans-6c" x="720.019531"/>
      <use xlink:href="#DejaVuSans-6c" x="747.802734"/>
      <use xlink:href="#DejaVuSans-75" x="775.585938"/>
      <use xlink:href="#DejaVuSans-6d" x="838.964844"/>
     </g>
    </g>
   </g>
   <g id="text_3">
    <g id="patch_4">
     <path d="M 390.112115 136.980958 
L 469.687584 136.980958 
L 469.687584 120.350645 
L 390.112115 120.350645 
z
" clip-path="url(#p50708036cb)" style="fill: #ffffff; opacity: 0.7; stroke: #000000; stroke-linejoin: miter"/>
    </g>
    <g clip-path="url(#p50708036cb)">
     <!-- Paul McDermott -->
     <g transform="translate(394.072115 131.149239)scale(0.09 -0.09)">
      <defs>
       <path id="DejaVuSans-50" d="M 1259 4147 
L 1259 2394 
L 2053 2394 
Q 2494 2394 2734 2622 
Q 2975 2850 2975 3272 
Q 2975 3691 2734 3919 
Q 2494 4147 2053 4147 
L 1259 4147 
z
M 628 4666 
L 2053 4666 
Q 2838 4666 3239 4311 
Q 3641 3956 3641 3272 
Q 3641 2581 3239 2228 
Q 2838 1875 2053 1875 
L 1259 1875 
L 1259 0 
L 628 0 
L 628 4666 
z
" transform="scale(0.015625)"/>
       <path id="DejaVuSans-44" d="M 1259 4147 
L 1259 519 
L 2022 519 
Q 2988 519 3436 956 
Q 3884 1394 3884 2338 
Q 3884 3275 3436 3711 
Q 2988 4147 2022 4147 
L 1259 4147 
z
M 628 4666 
L 1925 4666 
Q 3281 4666 3915 4102 
Q 4550 3538 4550 2338 
Q 4550 1131 3912 565 
Q 3275 0 1925 0 
L 628 0 
L 628 4666 
z
" transform="scale(0.015625)"/>
      </defs>
      <use xlink:href="#DejaVuSans-50"/>
      <use xlink:href="#DejaVuSans-61" x="55.802734"/>
      <use xlink:href="#DejaVuSans-75" x="117.082031"/>
      <use xlink:href="#DejaVuSans-6c" x="180.460938"/>
      <use xlink:href="#DejaVuSans-20" x="208.244141"/>
      <use xlink:href="#DejaVuSans-4d" x="240.03125"/>
      <use xlink:href="#DejaVuSans-63" x="326.310547"/>
      <use xlink:href="#DejaVuSans-44" x="381.291016"/>
      <use xlink:href="#DejaVuSans-65" x="458.292969"/>
      <use xlink:href="#DejaVuSans-72" x="519.816406"/>
      <use xlink:href="#DejaVuSans-6d" x="559.179688"/>
      <use xlink:href="#DejaVuSans-6f" x="656.591797"/>
      <use xlink:href="#DejaVuSans-74" x="717.773438"/>
      <use xlink:href="#DejaVuSans-74" x="756.982422"/>
     </g>
    </g>
   </g>
   <g id="text_4">
    <g id="patch_5">
     <path d="M 323.462885 92.403594 
L 381.065697 92.403594 
L 381.065697 75.773281 
L 323.462885 75.773281 
z
" clip-path="url(#p50708036cb)" style="fill: #ffffff; opacity: 0.7; stroke: #000000; stroke-linejoin: miter"/>
    </g>
    <g clip-path="url(#p50708036cb)">
     <!-- Peter Sallis -->
     <g transform="translate(327.422885 86.571875)scale(0.09 -0.09)">
      <defs>
       <path id="DejaVuSans-73" d="M 2834 3397 
L 2834 2853 
Q 2591 2978 2328 3040 
Q 2066 3103 1784 3103 
Q 1356 3103 1142 2972 
Q 928 2841 928 2578 
Q 928 2378 1081 2264 
Q 1234 2150 1697 2047 
L 1894 2003 
Q 2506 1872 2764 1633 
Q 3022 1394 3022 966 
Q 3022 478 2636 193 
Q 2250 -91 1575 -91 
Q 1294 -91 989 -36 
Q 684 19 347 128 
L 347 722 
Q 666 556 975 473 
Q 1284 391 1588 391 
Q 1994 391 2212 530 
Q 2431 669 2431 922 
Q 2431 1156 2273 1281 
Q 2116 1406 1581 1522 
L 1381 1569 
Q 847 1681 609 1914 
Q 372 2147 372 2553 
Q 372 3047 722 3315 
Q 1072 3584 1716 3584 
Q 2034 3584 2315 3537 
Q 2597 3491 2834 3397 
z
" transform="scale(0.015625)"/>
      </defs>
      <use xlink:href="#DejaVuSans-50"/>
      <use xlink:href="#DejaVuSans-65" x="56.677734"/>
      <use xlink:href="#DejaVuSans-74" x="118.201172"/>
      <use xlink:href="#DejaVuSans-65" x="157.410156"/>
      <use xlink:href="#DejaVuSans-72" x="218.933594"/>
      <use xlink:href="#DejaVuSans-20" x="260.046875"/>
      <use xlink:href="#DejaVuSans-53" x="291.833984"/>
      <use xlink:href="#DejaVuSans-61" x="355.310547"/>
      <use xlink:href="#DejaVuSans-6c" x="416.589844"/>
      <use xlink:href="#DejaVuSans-6c" x="444.373047"/>
      <use xlink:href="#DejaVuSans-69" x="472.15625"/>
      <use xlink:href="#DejaVuSans-73" x="499.939453"/>
     </g>
    </g>
   </g>
   <g id="text_5">
    <g id="patch_6">
     <path d="M 224.21197 83.084387 
L 302.007127 83.084387 
L 302.007127 66.454075 
L 224.21197 66.454075 
z
" clip-path="url(#p50708036cb)" style="fill: #ffffff; opacity: 0.7; stroke: #000000; stroke-linejoin: miter"/>
    </g>
    <g clip-path="url(#p50708036cb)">
     <!-- Theodore Lorch -->
     <g transform="translate(228.17197 77.252668)scale(0.09 -0.09)">
      <defs>
       <path id="DejaVuSans-54" d="M -19 4666 
L 3928 4666 
L 3928 4134 
L 2272 4134 
L 2272 0 
L 1638 0 
L 1638 4134 
L -19 4134 
L -19 4666 
z
" transform="scale(0.015625)"/>
       <path id="DejaVuSans-64" d="M 2906 2969 
L 2906 4863 
L 3481 4863 
L 3481 0 
L 2906 0 
L 2906 525 
Q 2725 213 2448 61 
Q 2172 -91 1784 -91 
Q 1150 -91 751 415 
Q 353 922 353 1747 
Q 353 2572 751 3078 
Q 1150 3584 1784 3584 
Q 2172 3584 2448 3432 
Q 2725 3281 2906 2969 
z
M 947 1747 
Q 947 1113 1208 752 
Q 1469 391 1925 391 
Q 2381 391 2643 752 
Q 2906 1113 2906 1747 
Q 2906 2381 2643 2742 
Q 2381 3103 1925 3103 
Q 1469 3103 1208 2742 
Q 947 2381 947 1747 
z
" transform="scale(0.015625)"/>
       <path id="DejaVuSans-4c" d="M 628 4666 
L 1259 4666 
L 1259 531 
L 3531 531 
L 3531 0 
L 628 0 
L 628 4666 
z
" transform="scale(0.015625)"/>
      </defs>
      <use xlink:href="#DejaVuSans-54"/>
      <use xlink:href="#DejaVuSans-68" x="61.083984"/>
      <use xlink:href="#DejaVuSans-65" x="124.462891"/>
      <use xlink:href="#DejaVuSans-6f" x="185.986328"/>
      <use xlink:href="#DejaVuSans-64" x="247.167969"/>
      <use xlink:href="#DejaVuSans-6f" x="310.644531"/>
      <use xlink:href="#DejaVuSans-72" x="371.826172"/>
      <use xlink:href="#DejaVuSans-65" x="410.689453"/>
      <use xlink:href="#DejaVuSans-20" x="472.212891"/>
      <use xlink:href="#DejaVuSans-4c" x="504"/>
      <use xlink:href="#DejaVuSans-6f" x="557.962891"/>
      <use xlink:href="#DejaVuSans-72" x="619.144531"/>
      <use xlink:href="#DejaVuSans-63" x="658.007812"/>
      <use xlink:href="#DejaVuSans-68" x="712.988281"/>
     </g>
    </g>
   </g>
   <g id="text_6">
    <g id="patch_7">
     <path d="M 150.544032 110.634724 
L 205.158564 110.634724 
L 205.158564 94.004411 
L 150.544032 94.004411 
z
" clip-path="url(#p50708036cb)" style="fill: #ffffff; opacity: 0.7; stroke: #000000; stroke-linejoin: miter"/>
    </g>
    <g clip-path="url(#p50708036cb)">
     <!-- Phil Morris -->
     <g transform="translate(154.504032 104.803005)scale(0.09 -0.09)">
      <use xlink:href="#DejaVuSans-50"/>
      <use xlink:href="#DejaVuSans-68" x="60.302734"/>
      <use xlink:href="#DejaVuSans-69" x="123.681641"/>
      <use xlink:href="#DejaVuSans-6c" x="151.464844"/>
      <use xlink:href="#DejaVuSans-20" x="179.248047"/>
      <use xlink:href="#DejaVuSans-4d" x="211.035156"/>
      <use xlink:href="#DejaVuSans-6f" x="297.314453"/>
      <use xlink:href="#DejaVuSans-72" x="358.496094"/>
      <use xlink:href="#DejaVuSans-72" x="397.859375"/>
      <use xlink:href="#DejaVuSans-69" x="438.972656"/>
      <use xlink:href="#DejaVuSans-73" x="466.755859"/>
     </g>
    </g>
   </g>
   <g id="text_7">
    <g id="patch_8">
     <path d="M 72.789524 170.290885 
L 149.67343 170.290885 
L 149.67343 153.660572 
L 72.789524 153.660572 
z
" clip-path="url(#p50708036cb)" style="fill: #ffffff; opacity: 0.7; stroke: #000000; stroke-linejoin: miter"/>
    </g>
    <g clip-path="url(#p50708036cb)">
     <!-- David Kaufman -->
     <g transform="translate(76.749524 164.459166)scale(0.09 -0.09)">
      <defs>
       <path id="DejaVuSans-76" d="M 191 3500 
L 800 3500 
L 1894 563 
L 2988 3500 
L 3597 3500 
L 2284 0 
L 1503 0 
L 191 3500 
z
" transform="scale(0.015625)"/>
       <path id="DejaVuSans-4b" d="M 628 4666 
L 1259 4666 
L 1259 2694 
L 3353 4666 
L 4166 4666 
L 1850 2491 
L 4331 0 
L 3500 0 
L 1259 2247 
L 1259 0 
L 628 0 
L 628 4666 
z
" transform="scale(0.015625)"/>
       <path id="DejaVuSans-66" d="M 2375 4863 
L 2375 4384 
L 1825 4384 
Q 1516 4384 1395 4259 
Q 1275 4134 1275 3809 
L 1275 3500 
L 2222 3500 
L 2222 3053 
L 1275 3053 
L 1275 0 
L 697 0 
L 697 3053 
L 147 3053 
L 147 3500 
L 697 3500 
L 697 3744 
Q 697 4328 969 4595 
Q 1241 4863 1831 4863 
L 2375 4863 
z
" transform="scale(0.015625)"/>
      </defs>
      <use xlink:href="#DejaVuSans-44"/>
      <use xlink:href="#DejaVuSans-61" x="77.001953"/>
      <use xlink:href="#DejaVuSans-76" x="138.28125"/>
      <use xlink:href="#DejaVuSans-69" x="197.460938"/>
      <use xlink:href="#DejaVuSans-64" x="225.244141"/>
      <use xlink:href="#DejaVuSans-20" x="288.720703"/>
      <use xlink:href="#DejaVuSans-4b" x="320.507812"/>
      <use xlink:href="#DejaVuSans-61" x="384.333984"/>
      <use xlink:href="#DejaVuSans-75" x="445.613281"/>
      <use xlink:href="#DejaVuSans-66" x="508.992188"/>
      <use xlink:href="#DejaVuSans-6d" x="544.197266"/>
      <use xlink:href="#DejaVuSans-61" x="641.609375"/>
      <use xlink:href="#DejaVuSans-6e" x="702.888672"/>
     </g>
    </g>
   </g>
   <g id="text_8">
    <g id="patch_9">
     <path d="M 33.516887 251.737805 
L 116.021575 251.737805 
L 116.021575 235.107493 
L 33.516887 235.107493 
z
" clip-path="url(#p50708036cb)" style="fill: #ffffff; opacity: 0.7; stroke: #000000; stroke-linejoin: miter"/>
    </g>
    <g clip-path="url(#p50708036cb)">
     <!-- Maurice Costello -->
     <g transform="translate(37.476887 245.906086)scale(0.09 -0.09)">
      <use xlink:href="#DejaVuSans-4d"/>
      <use xlink:href="#DejaVuSans-61" x="86.279297"/>
      <use xlink:href="#DejaVuSans-75" x="147.558594"/>
      <use xlink:href="#DejaVuSans-72" x="210.9375"/>
      <use xlink:href="#DejaVuSans-69" x="252.050781"/>
      <use xlink:href="#DejaVuSans-63" x="279.833984"/>
      <use xlink:href="#DejaVuSans-65" x="334.814453"/>
      <use xlink:href="#DejaVuSans-20" x="396.337891"/>
      <use xlink:href="#DejaVuSans-43" x="428.125"/>
      <use xlink:href="#DejaVuSans-6f" x="497.949219"/>
      <use xlink:href="#DejaVuSans-73" x="559.130859"/>
      <use xlink:href="#DejaVuSans-74" x="611.230469"/>
      <use xlink:href="#DejaVuSans-65" x="650.439453"/>
      <use xlink:href="#DejaVuSans-6c" x="711.962891"/>
      <use xlink:href="#DejaVuSans-6c" x="739.746094"/>
      <use xlink:href="#DejaVuSans-6f" x="767.529297"/>
     </g>
    </g>
   </g>
   <g id="text_9">
    <g id="patch_10">
     <path d="M 33.442369 340.892546 
L 116.096119 340.892546 
L 116.096119 324.262233 
L 33.442369 324.262233 
z
" clip-path="url(#p50708036cb)" style="fill: #ffffff; opacity: 0.7; stroke: #000000; stroke-linejoin: miter"/>
    </g>
    <g clip-path="url(#p50708036cb)">
     <!-- John P. Baniqued -->
     <g transform="translate(37.402369 335.060827)scale(0.09 -0.09)">
      <defs>
       <path id="DejaVuSans-4a" d="M 628 4666 
L 1259 4666 
L 1259 325 
Q 1259 -519 939 -900 
Q 619 -1281 -91 -1281 
L -331 -1281 
L -331 -750 
L -134 -750 
Q 284 -750 456 -515 
Q 628 -281 628 325 
L 628 4666 
z
" transform="scale(0.015625)"/>
       <path id="DejaVuSans-2e" d="M 684 794 
L 1344 794 
L 1344 0 
L 684 0 
L 684 794 
z
" transform="scale(0.015625)"/>
       <path id="DejaVuSans-42" d="M 1259 2228 
L 1259 519 
L 2272 519 
Q 2781 519 3026 730 
Q 3272 941 3272 1375 
Q 3272 1813 3026 2020 
Q 2781 2228 2272 2228 
L 1259 2228 
z
M 1259 4147 
L 1259 2741 
L 2194 2741 
Q 2656 2741 2882 2914 
Q 3109 3088 3109 3444 
Q 3109 3797 2882 3972 
Q 2656 4147 2194 4147 
L 1259 4147 
z
M 628 4666 
L 2241 4666 
Q 2963 4666 3353 4366 
Q 3744 4066 3744 3513 
Q 3744 3084 3544 2831 
Q 3344 2578 2956 2516 
Q 3422 2416 3680 2098 
Q 3938 1781 3938 1306 
Q 3938 681 3513 340 
Q 3088 0 2303 0 
L 628 0 
L 628 4666 
z
" transform="scale(0.015625)"/>
       <path id="DejaVuSans-71" d="M 947 1747 
Q 947 1113 1208 752 
Q 1469 391 1925 391 
Q 2381 391 2643 752 
Q 2906 1113 2906 1747 
Q 2906 2381 2643 2742 
Q 2381 3103 1925 3103 
Q 1469 3103 1208 2742 
Q 947 2381 947 1747 
z
M 2906 525 
Q 2725 213 2448 61 
Q 2172 -91 1784 -91 
Q 1150 -91 751 415 
Q 353 922 353 1747 
Q 353 2572 751 3078 
Q 1150 3584 1784 3584 
Q 2172 3584 2448 3432 
Q 2725 3281 2906 2969 
L 2906 3500 
L 3481 3500 
L 3481 -1331 
L 2906 -1331 
L 2906 525 
z
" transform="scale(0.015625)"/>
      </defs>
      <use xlink:href="#DejaVuSans-4a"/>
      <use xlink:href="#DejaVuSans-6f" x="29.492188"/>
      <use xlink:href="#DejaVuSans-68" x="90.673828"/>
      <use xlink:href="#DejaVuSans-6e" x="154.052734"/>
      <use xlink:href="#DejaVuSans-20" x="217.431641"/>
      <use xlink:href="#DejaVuSans-50" x="249.21875"/>
      <use xlink:href="#DejaVuSans-2e" x="293.896484"/>
      <use xlink:href="#DejaVuSans-20" x="325.683594"/>
      <use xlink:href="#DejaVuSans-42" x="357.470703"/>
      <use xlink:href="#DejaVuSans-61" x="426.074219"/>
      <use xlink:href="#DejaVuSans-6e" x="487.353516"/>
      <use xlink:href="#DejaVuSans-69" x="550.732422"/>
      <use xlink:href="#DejaVuSans-71" x="578.515625"/>
      <use xlink:href="#DejaVuSans-75" x="641.992188"/>
      <use xlink:href="#DejaVuSans-65" x="705.371094"/>
      <use xlink:href="#DejaVuSans-64" x="766.894531"/>
     </g>
    </g>
   </g>
   <g id="text_10">
    <g id="patch_11">
     <path d="M 71.486646 422.33944 
L 150.976334 422.33944 
L 150.976334 405.709128 
L 71.486646 405.709128 
z
" clip-path="url(#p50708036cb)" style="fill: #ffffff; opacity: 0.7; stroke: #000000; stroke-linejoin: miter"/>
    </g>
    <g clip-path="url(#p50708036cb)">
     <!-- James Germano -->
     <g transform="translate(75.446646 416.507722)scale(0.09 -0.09)">
      <defs>
       <path id="DejaVuSans-47" d="M 3809 666 
L 3809 1919 
L 2778 1919 
L 2778 2438 
L 4434 2438 
L 4434 434 
Q 4069 175 3628 42 
Q 3188 -91 2688 -91 
Q 1594 -91 976 548 
Q 359 1188 359 2328 
Q 359 3472 976 4111 
Q 1594 4750 2688 4750 
Q 3144 4750 3555 4637 
Q 3966 4525 4313 4306 
L 4313 3634 
Q 3963 3931 3569 4081 
Q 3175 4231 2741 4231 
Q 1884 4231 1454 3753 
Q 1025 3275 1025 2328 
Q 1025 1384 1454 906 
Q 1884 428 2741 428 
Q 3075 428 3337 486 
Q 3600 544 3809 666 
z
" transform="scale(0.015625)"/>
      </defs>
      <use xlink:href="#DejaVuSans-4a"/>
      <use xlink:href="#DejaVuSans-61" x="29.492188"/>
      <use xlink:href="#DejaVuSans-6d" x="90.771484"/>
      <use xlink:href="#DejaVuSans-65" x="188.183594"/>
      <use xlink:href="#DejaVuSans-73" x="249.707031"/>
      <use xlink:href="#DejaVuSans-20" x="301.806641"/>
      <use xlink:href="#DejaVuSans-47" x="333.59375"/>
      <use xlink:href="#DejaVuSans-65" x="411.083984"/>
      <use xlink:href="#DejaVuSans-72" x="472.607422"/>
      <use xlink:href="#DejaVuSans-6d" x="511.970703"/>
      <use xlink:href="#DejaVuSans-61" x="609.382812"/>
      <use xlink:href="#DejaVuSans-6e" x="670.662109"/>
      <use xlink:href="#DejaVuSans-6f" x="734.041016"/>
     </g>
    </g>
   </g>
   <g id="text_11">
    <g id="patch_12">
     <path d="M 138.054455 481.995602 
L 217.648205 481.995602 
L 217.648205 465.365289 
L 138.054455 465.365289 
z
" clip-path="url(#p50708036cb)" style="fill: #ffffff; opacity: 0.7; stroke: #000000; stroke-linejoin: miter"/>
    </g>
    <g clip-path="url(#p50708036cb)">
     <!-- Noni Hazelhurst -->
     <g transform="translate(142.014455 476.163883)scale(0.09 -0.09)">
      <defs>
       <path id="DejaVuSans-4e" d="M 628 4666 
L 1478 4666 
L 3547 763 
L 3547 4666 
L 4159 4666 
L 4159 0 
L 3309 0 
L 1241 3903 
L 1241 0 
L 628 0 
L 628 4666 
z
" transform="scale(0.015625)"/>
       <path id="DejaVuSans-48" d="M 628 4666 
L 1259 4666 
L 1259 2753 
L 3553 2753 
L 3553 4666 
L 4184 4666 
L 4184 0 
L 3553 0 
L 3553 2222 
L 1259 2222 
L 1259 0 
L 628 0 
L 628 4666 
z
" transform="scale(0.015625)"/>
       <path id="DejaVuSans-7a" d="M 353 3500 
L 3084 3500 
L 3084 2975 
L 922 459 
L 3084 459 
L 3084 0 
L 275 0 
L 275 525 
L 2438 3041 
L 353 3041 
L 353 3500 
z
" transform="scale(0.015625)"/>
      </defs>
      <use xlink:href="#DejaVuSans-4e"/>
      <use xlink:href="#DejaVuSans-6f" x="74.804688"/>
      <use xlink:href="#DejaVuSans-6e" x="135.986328"/>
      <use xlink:href="#DejaVuSans-69" x="199.365234"/>
      <use xlink:href="#DejaVuSans-20" x="227.148438"/>
      <use xlink:href="#DejaVuSans-48" x="258.935547"/>
      <use xlink:href="#DejaVuSans-61" x="334.130859"/>
      <use xlink:href="#DejaVuSans-7a" x="395.410156"/>
      <use xlink:href="#DejaVuSans-65" x="447.900391"/>
      <use xlink:href="#DejaVuSans-6c" x="509.423828"/>
      <use xlink:href="#DejaVuSans-68" x="537.207031"/>
      <use xlink:href="#DejaVuSans-75" x="600.585938"/>
      <use xlink:href="#DejaVuSans-72" x="663.964844"/>
      <use xlink:href="#DejaVuSans-73" x="705.078125"/>
      <use xlink:href="#DejaVuSans-74" x="757.177734"/>
     </g>
    </g>
   </g>
   <g id="text_12">
    <g id="patch_13">
     <path d="M 236.880915 509.545925 
L 289.338259 509.545925 
L 289.338259 492.915613 
L 236.880915 492.915613 
z
" clip-path="url(#p50708036cb)" style="fill: #ffffff; opacity: 0.7; stroke: #000000; stroke-linejoin: miter"/>
    </g>
    <g clip-path="url(#p50708036cb)">
     <!-- Todd Field -->
     <g transform="translate(240.840915 503.714207)scale(0.09 -0.09)">
      <defs>
       <path id="DejaVuSans-46" d="M 628 4666 
L 3309 4666 
L 3309 4134 
L 1259 4134 
L 1259 2759 
L 3109 2759 
L 3109 2228 
L 1259 2228 
L 1259 0 
L 628 0 
L 628 4666 
z
" transform="scale(0.015625)"/>
      </defs>
      <use xlink:href="#DejaVuSans-54"/>
      <use xlink:href="#DejaVuSans-6f" x="44.083984"/>
      <use xlink:href="#DejaVuSans-64" x="105.265625"/>
      <use xlink:href="#DejaVuSans-64" x="168.742188"/>
      <use xlink:href="#DejaVuSans-20" x="232.21875"/>
      <use xlink:href="#DejaVuSans-46" x="264.005859"/>
      <use xlink:href="#DejaVuSans-69" x="314.275391"/>
      <use xlink:href="#DejaVuSans-65" x="342.058594"/>
      <use xlink:href="#DejaVuSans-6c" x="403.582031"/>
      <use xlink:href="#DejaVuSans-64" x="431.365234"/>
     </g>
    </g>
   </g>
   <g id="text_13">
    <g id="patch_14">
     <path d="M 321.004089 500.226706 
L 383.524558 500.226706 
L 383.524558 483.596393 
L 321.004089 483.596393 
z
" clip-path="url(#p50708036cb)" style="fill: #ffffff; opacity: 0.7; stroke: #000000; stroke-linejoin: miter"/>
    </g>
    <g clip-path="url(#p50708036cb)">
     <!-- Rob Paulsen -->
     <g transform="translate(324.964089 494.394987)scale(0.09 -0.09)">
      <defs>
       <path id="DejaVuSans-52" d="M 2841 2188 
Q 3044 2119 3236 1894 
Q 3428 1669 3622 1275 
L 4263 0 
L 3584 0 
L 2988 1197 
Q 2756 1666 2539 1819 
Q 2322 1972 1947 1972 
L 1259 1972 
L 1259 0 
L 628 0 
L 628 4666 
L 2053 4666 
Q 2853 4666 3247 4331 
Q 3641 3997 3641 3322 
Q 3641 2881 3436 2590 
Q 3231 2300 2841 2188 
z
M 1259 4147 
L 1259 2491 
L 2053 2491 
Q 2509 2491 2742 2702 
Q 2975 2913 2975 3322 
Q 2975 3731 2742 3939 
Q 2509 4147 2053 4147 
L 1259 4147 
z
" transform="scale(0.015625)"/>
       <path id="DejaVuSans-62" d="M 3116 1747 
Q 3116 2381 2855 2742 
Q 2594 3103 2138 3103 
Q 1681 3103 1420 2742 
Q 1159 2381 1159 1747 
Q 1159 1113 1420 752 
Q 1681 391 2138 391 
Q 2594 391 2855 752 
Q 3116 1113 3116 1747 
z
M 1159 2969 
Q 1341 3281 1617 3432 
Q 1894 3584 2278 3584 
Q 2916 3584 3314 3078 
Q 3713 2572 3713 1747 
Q 3713 922 3314 415 
Q 2916 -91 2278 -91 
Q 1894 -91 1617 61 
Q 1341 213 1159 525 
L 1159 0 
L 581 0 
L 581 4863 
L 1159 4863 
L 1159 2969 
z
" transform="scale(0.015625)"/>
      </defs>
      <use xlink:href="#DejaVuSans-52"/>
      <use xlink:href="#DejaVuSans-6f" x="64.982422"/>
      <use xlink:href="#DejaVuSans-62" x="126.164062"/>
      <use xlink:href="#DejaVuSans-20" x="189.640625"/>
      <use xlink:href="#DejaVuSans-50" x="221.427734"/>
      <use xlink:href="#DejaVuSans-61" x="277.230469"/>
      <use xlink:href="#DejaVuSans-75" x="338.509766"/>
      <use xlink:href="#DejaVuSans-6c" x="401.888672"/>
      <use xlink:href="#DejaVuSans-73" x="429.671875"/>
      <use xlink:href="#DejaVuSans-65" x="481.771484"/>
      <use xlink:href="#DejaVuSans-6e" x="543.294922"/>
     </g>
    </g>
   </g>
   <g id="text_14">
    <g id="patch_15">
     <path d="M 391.129576 455.649316 
L 468.670201 455.649316 
L 468.670201 439.019004 
L 391.129576 439.019004 
z
" clip-path="url(#p50708036cb)" style="fill: #ffffff; opacity: 0.7; stroke: #000000; stroke-linejoin: miter"/>
    </g>
    <g clip-path="url(#p50708036cb)">
     <!-- Vince Lombardi -->
     <g transform="translate(395.089576 449.817598)scale(0.09 -0.09)">
      <defs>
       <path id="DejaVuSans-56" d="M 1831 0 
L 50 4666 
L 709 4666 
L 2188 738 
L 3669 4666 
L 4325 4666 
L 2547 0 
L 1831 0 
z
" transform="scale(0.015625)"/>
      </defs>
      <use xlink:href="#DejaVuSans-56"/>
      <use xlink:href="#DejaVuSans-69" x="66.158203"/>
      <use xlink:href="#DejaVuSans-6e" x="93.941406"/>
      <use xlink:href="#DejaVuSans-63" x="157.320312"/>
      <use xlink:href="#DejaVuSans-65" x="212.300781"/>
      <use xlink:href="#DejaVuSans-20" x="273.824219"/>
      <use xlink:href="#DejaVuSans-4c" x="305.611328"/>
      <use xlink:href="#DejaVuSans-6f" x="359.574219"/>
      <use xlink:href="#DejaVuSans-6d" x="420.755859"/>
      <use xlink:href="#DejaVuSans-62" x="518.167969"/>
      <use xlink:href="#DejaVuSans-61" x="581.644531"/>
      <use xlink:href="#DejaVuSans-72" x="642.923828"/>
      <use xlink:href="#DejaVuSans-64" x="682.287109"/>
      <use xlink:href="#DejaVuSans-69" x="745.763672"/>
     </g>
    </g>
   </g>
   <g id="text_15">
    <g id="patch_16">
     <path d="M 445.501827 383.521616 
L 519.68292 383.521616 
L 519.68292 366.891303 
L 445.501827 366.891303 
z
" clip-path="url(#p50708036cb)" style="fill: #ffffff; opacity: 0.7; stroke: #000000; stroke-linejoin: miter"/>
    </g>
    <g clip-path="url(#p50708036cb)">
     <!-- Robert De Niro -->
     <g transform="translate(449.461827 377.689897)scale(0.09 -0.09)">
      <use xlink:href="#DejaVuSans-52"/>
      <use xlink:href="#DejaVuSans-6f" x="64.982422"/>
      <use xlink:href="#DejaVuSans-62" x="126.164062"/>
      <use xlink:href="#DejaVuSans-65" x="189.640625"/>
      <use xlink:href="#DejaVuSans-72" x="251.164062"/>
      <use xlink:href="#DejaVuSans-74" x="292.277344"/>
      <use xlink:href="#DejaVuSans-20" x="331.486328"/>
      <use xlink:href="#DejaVuSans-44" x="363.273438"/>
      <use xlink:href="#DejaVuSans-65" x="440.275391"/>
      <use xlink:href="#DejaVuSans-20" x="501.798828"/>
      <use xlink:href="#DejaVuSans-4e" x="533.585938"/>
      <use xlink:href="#DejaVuSans-69" x="608.390625"/>
      <use xlink:href="#DejaVuSans-72" x="636.173828"/>
      <use xlink:href="#DejaVuSans-6f" x="675.037109"/>
     </g>
    </g>
   </g>
   <g id="text_16">
    <!-- Impactful actors for Short Film genre -->
    <g transform="translate(177.668438 4.8)scale(0.12 -0.12)">
     <defs>
      <path id="DejaVuSans-49" d="M 628 4666 
L 1259 4666 
L 1259 0 
L 628 0 
L 628 4666 
z
" transform="scale(0.015625)"/>
      <path id="DejaVuSans-67" d="M 2906 1791 
Q 2906 2416 2648 2759 
Q 2391 3103 1925 3103 
Q 1463 3103 1205 2759 
Q 947 2416 947 1791 
Q 947 1169 1205 825 
Q 1463 481 1925 481 
Q 2391 481 2648 825 
Q 2906 1169 2906 1791 
z
M 3481 434 
Q 3481 -459 3084 -895 
Q 2688 -1331 1869 -1331 
Q 1566 -1331 1297 -1286 
Q 1028 -1241 775 -1147 
L 775 -588 
Q 1028 -725 1275 -790 
Q 1522 -856 1778 -856 
Q 2344 -856 2625 -561 
Q 2906 -266 2906 331 
L 2906 616 
Q 2728 306 2450 153 
Q 2172 0 1784 0 
Q 1141 0 747 490 
Q 353 981 353 1791 
Q 353 2603 747 3093 
Q 1141 3584 1784 3584 
Q 2172 3584 2450 3431 
Q 2728 3278 2906 2969 
L 2906 3500 
L 3481 3500 
L 3481 434 
z
" transform="scale(0.015625)"/>
     </defs>
     <use xlink:href="#DejaVuSans-49"/>
     <use xlink:href="#DejaVuSans-6d" x="29.492188"/>
     <use xlink:href="#DejaVuSans-70" x="126.904297"/>
     <use xlink:href="#DejaVuSans-61" x="190.380859"/>
     <use xlink:href="#DejaVuSans-63" x="251.660156"/>
     <use xlink:href="#DejaVuSans-74" x="306.640625"/>
     <use xlink:href="#DejaVuSans-66" x="345.849609"/>
     <use xlink:href="#DejaVuSans-75" x="381.054688"/>
     <use xlink:href="#DejaVuSans-6c" x="444.433594"/>
     <use xlink:href="#DejaVuSans-20" x="472.216797"/>
     <use xlink:href="#DejaVuSans-61" x="504.003906"/>
     <use xlink:href="#DejaVuSans-63" x="565.283203"/>
     <use xlink:href="#DejaVuSans-74" x="620.263672"/>
     <use xlink:href="#DejaVuSans-6f" x="659.472656"/>
     <use xlink:href="#DejaVuSans-72" x="720.654297"/>
     <use xlink:href="#DejaVuSans-73" x="761.767578"/>
     <use xlink:href="#DejaVuSans-20" x="813.867188"/>
     <use xlink:href="#DejaVuSans-66" x="845.654297"/>
     <use xlink:href="#DejaVuSans-6f" x="880.859375"/>
     <use xlink:href="#DejaVuSans-72" x="942.041016"/>
     <use xlink:href="#DejaVuSans-20" x="983.154297"/>
     <use xlink:href="#DejaVuSans-53" x="1014.941406"/>
     <use xlink:href="#DejaVuSans-68" x="1078.417969"/>
     <use xlink:href="#DejaVuSans-6f" x="1141.796875"/>
     <use xlink:href="#DejaVuSans-72" x="1202.978516"/>
     <use xlink:href="#DejaVuSans-74" x="1244.091797"/>
     <use xlink:href="#DejaVuSans-20" x="1283.300781"/>
     <use xlink:href="#DejaVuSans-46" x="1315.087891"/>
     <use xlink:href="#DejaVuSans-69" x="1365.357422"/>
     <use xlink:href="#DejaVuSans-6c" x="1393.140625"/>
     <use xlink:href="#DejaVuSans-6d" x="1420.923828"/>
     <use xlink:href="#DejaVuSans-20" x="1518.335938"/>
     <use xlink:href="#DejaVuSans-67" x="1550.123047"/>
     <use xlink:href="#DejaVuSans-65" x="1613.599609"/>
     <use xlink:href="#DejaVuSans-6e" x="1675.123047"/>
     <use xlink:href="#DejaVuSans-72" x="1738.501953"/>
     <use xlink:href="#DejaVuSans-65" x="1777.365234"/>
    </g>
   </g>
  </g>
 </g>
 <defs>
  <clipPath id="p50708036cb">
   <rect x="10.8" y="10.8" width="554.4" height="554.4"/>
  </clipPath>
 </defs>
</svg>
