<?xml version="1.0" encoding="utf-8" standalone="no"?>
<!DOCTYPE svg PUBLIC "-//W3C//DTD SVG 1.1//EN"
  "http://www.w3.org/Graphics/SVG/1.1/DTD/svg11.dtd">
<svg xmlns:xlink="http://www.w3.org/1999/xlink" width="568.8pt" height="583.918125pt" viewBox="0 0 568.8 583.918125" xmlns="http://www.w3.org/2000/svg" version="1.1">
 <metadata>
  <rdf:RDF xmlns:dc="http://purl.org/dc/elements/1.1/" xmlns:cc="http://creativecommons.org/ns#" xmlns:rdf="http://www.w3.org/1999/02/22-rdf-syntax-ns#">
   <cc:Work>
    <dc:type rdf:resource="http://purl.org/dc/dcmitype/StillImage"/>
    <dc:date>2022-12-23T17:30:06.345879</dc:date>
    <dc:format>image/svg+xml</dc:format>
    <dc:creator>
     <cc:Agent>
      <dc:title>Matplotlib v3.5.2, https://matplotlib.org/</dc:title>
     </cc:Agent>
    </dc:creator>
   </cc:Work>
  </rdf:RDF>
 </metadata>
 <defs>
  <style type="text/css">*{stroke-linejoin: round; stroke-linecap: butt}</style>
 </defs>
 <g id="figure_1">
  <g id="patch_1">
   <path d="M 0 583.918125 
L 568.8 583.918125 
L 568.8 0 
L 0 0 
z
" style="fill: #ffffff"/>
  </g>
  <g id="axes_1">
   <g id="PathCollection_1">
    <path d="M 497.630769 326.904253 
C 504.893655 326.904253 511.86005 324.018678 516.995686 318.883042 
C 522.131322 313.747406 525.016897 306.781011 525.016897 299.518125 
C 525.016897 292.255239 522.131322 285.288844 516.995686 280.153208 
C 511.86005 275.017572 504.893655 272.131997 497.630769 272.131997 
C 490.367883 272.131997 483.401488 275.017572 478.265852 280.153208 
C 473.130217 285.288844 470.244641 292.255239 470.244641 299.518125 
C 470.244641 306.781011 473.130217 313.747406 478.265852 318.883042 
C 483.401488 324.018678 490.367883 326.904253 497.630769 326.904253 
z
" clip-path="url(#pb4e5e0628e)" style="fill: #c70039; fill-opacity: 0.99; stroke: #c70039; stroke-opacity: 0.99"/>
    <path d="M 478.992348 239.239416 
C 486.133679 239.239416 492.983482 236.402135 498.033166 231.352451 
C 503.08285 226.302767 505.920131 219.452965 505.920131 212.311633 
C 505.920131 205.170302 503.08285 198.320499 498.033166 193.270816 
C 492.983482 188.221132 486.133679 185.383851 478.992348 185.383851 
C 471.851016 185.383851 465.001214 188.221132 459.95153 193.270816 
C 454.901846 198.320499 452.064565 205.170302 452.064565 212.311633 
C 452.064565 219.452965 454.901846 226.302767 459.95153 231.352451 
C 465.001214 236.402135 471.851016 239.239416 478.992348 239.239416 
z
" clip-path="url(#pb4e5e0628e)" style="fill: #c70039; fill-opacity: 0.99; stroke: #c70039; stroke-opacity: 0.99"/>
    <path d="M 426.29985 165.80355 
C 433.094253 165.80355 439.611291 163.104105 444.415659 158.299736 
C 449.220028 153.495367 451.919473 146.97833 451.919473 140.183927 
C 451.919473 133.389523 449.220028 126.872486 444.415659 122.068117 
C 439.611291 117.263748 433.094253 114.564303 426.29985 114.564303 
C 419.505446 114.564303 412.988409 117.263748 408.18404 122.068117 
C 403.379671 126.872486 400.680226 133.389523 400.680226 140.183927 
C 400.680226 146.97833 403.379671 153.495367 408.18404 158.299736 
C 412.988409 163.104105 419.505446 165.80355 426.29985 165.80355 
z
" clip-path="url(#pb4e5e0628e)" style="fill: #c70039; fill-opacity: 0.99; stroke: #c70039; stroke-opacity: 0.99"/>
    <path d="M 348.664291 120.911864 
C 355.375336 120.911864 361.812417 118.245538 366.557842 113.500113 
C 371.303267 108.754688 373.969593 102.317607 373.969593 95.606563 
C 373.969593 88.895518 371.303267 82.458437 366.557842 77.713012 
C 361.812417 72.967587 355.375336 70.301261 348.664291 70.301261 
C 341.953247 70.301261 335.516166 72.967587 330.770741 77.713012 
C 326.025316 82.458437 323.35899 88.895518 323.35899 95.606563 
C 323.35899 102.317607 326.025316 108.754688 330.770741 113.500113 
C 335.516166 118.245538 341.953247 120.911864 348.664291 120.911864 
z
" clip-path="url(#pb4e5e0628e)" style="fill: #c70039; fill-opacity: 0.99; stroke: #c70039; stroke-opacity: 0.99"/>
    <path d="M 259.509549 110.604645 
C 265.958569 110.604645 272.144322 108.042422 276.704468 103.482276 
C 281.264615 98.92213 283.826838 92.736376 283.826838 86.287356 
C 283.826838 79.838335 281.264615 73.652582 276.704468 69.092436 
C 272.144322 64.53229 265.958569 61.970067 259.509549 61.970067 
C 253.060528 61.970067 246.874775 64.53229 242.314629 69.092436 
C 237.754483 73.652582 235.19226 79.838335 235.19226 86.287356 
C 235.19226 92.736376 237.754483 98.92213 242.314629 103.482276 
C 246.874775 108.042422 253.060528 110.604645 259.509549 110.604645 
z
" clip-path="url(#pb4e5e0628e)" style="fill: #c70039; fill-opacity: 0.99; stroke: #c70039; stroke-opacity: 0.99"/>
    <path d="M 174.251298 137.676588 
C 180.573447 137.676588 186.637509 135.164772 191.107943 130.694337 
C 195.578378 126.223903 198.090194 120.159841 198.090194 113.837692 
C 198.090194 107.515543 195.578378 101.451482 191.107943 96.981047 
C 186.637509 92.510613 180.573447 89.998796 174.251298 89.998796 
C 167.929149 89.998796 161.865088 92.510613 157.394653 96.981047 
C 152.924219 101.451482 150.412402 107.515543 150.412402 113.837692 
C 150.412402 120.159841 152.924219 126.223903 157.394653 130.694337 
C 161.865088 135.164772 167.929149 137.676588 174.251298 137.676588 
z
" clip-path="url(#pb4e5e0628e)" style="fill: #c70039; fill-opacity: 0.99; stroke: #c70039; stroke-opacity: 0.99"/>
    <path d="M 107.631477 196.446937 
C 113.718706 196.446937 119.557437 194.028456 123.861758 189.724135 
C 128.166079 185.419814 130.584561 179.581083 130.584561 173.493854 
C 130.584561 167.406625 128.166079 161.567894 123.861758 157.263573 
C 119.557437 152.959252 113.718706 150.54077 107.631477 150.54077 
C 101.544248 150.54077 95.705517 152.959252 91.401196 157.263573 
C 87.096875 161.567894 84.678393 167.406625 84.678393 173.493854 
C 84.678393 179.581083 87.096875 185.419814 91.401196 189.724135 
C 95.705517 194.028456 101.544248 196.446937 107.631477 196.446937 
z
" clip-path="url(#pb4e5e0628e)" style="fill: #c70039; fill-opacity: 0.99; stroke: #c70039; stroke-opacity: 0.99"/>
    <path d="M 71.169231 276.27873 
C 76.828123 276.27873 82.256003 274.030428 86.257444 270.028987 
C 90.258885 266.027546 92.507187 260.599666 92.507187 254.940774 
C 92.507187 249.281882 90.258885 243.854001 86.257444 239.85256 
C 82.256003 235.851119 76.828123 233.602818 71.169231 233.602818 
C 65.510339 233.602818 60.082458 235.851119 56.081017 239.85256 
C 52.079576 243.854001 49.831275 249.281882 49.831275 254.940774 
C 49.831275 260.599666 52.079576 266.027546 56.081017 270.028987 
C 60.082458 274.030428 65.510339 276.27873 71.169231 276.27873 
z
" clip-path="url(#pb4e5e0628e)" style="fill: #c70039; fill-opacity: 0.99; stroke: #c70039; stroke-opacity: 0.99"/>
    <path d="M 71.169244 364.95748 
C 76.701902 364.95748 82.008701 362.759332 85.920881 358.847152 
C 89.833061 354.934972 92.031209 349.628172 92.031209 344.095514 
C 92.031209 338.562857 89.833061 333.256057 85.920881 329.343877 
C 82.008701 325.431697 76.701902 323.233549 71.169244 323.233549 
C 65.636586 323.233549 60.329786 325.431697 56.417606 329.343877 
C 52.505426 333.256057 50.307278 338.562857 50.307278 344.095514 
C 50.307278 349.628172 52.505426 354.934972 56.417606 358.847152 
C 60.329786 362.759332 65.636586 364.95748 71.169244 364.95748 
z
" clip-path="url(#pb4e5e0628e)" style="fill: #c70039; fill-opacity: 0.99; stroke: #c70039; stroke-opacity: 0.99"/>
    <path d="M 107.63149 446.284888 
C 113.132459 446.284888 118.408864 444.099329 122.298637 440.209556 
C 126.18841 436.319783 128.373968 431.043379 128.373968 425.542409 
C 128.373968 420.041439 126.18841 414.765035 122.298637 410.875262 
C 118.408864 406.985489 113.132459 404.79993 107.63149 404.79993 
C 102.13052 404.79993 96.854116 406.985489 92.964343 410.875262 
C 89.07457 414.765035 86.889011 420.041439 86.889011 425.542409 
C 86.889011 431.043379 89.07457 436.319783 92.964343 440.209556 
C 96.854116 444.099329 102.13052 446.284888 107.63149 446.284888 
z
" clip-path="url(#pb4e5e0628e)" style="fill: #c70039; fill-opacity: 0.99; stroke: #c70039; stroke-opacity: 0.99"/>
    <path d="M 174.25133 505.200628 
C 179.555938 505.200628 184.643997 503.093085 188.394921 499.342161 
C 192.145845 495.591237 194.253388 490.503178 194.253388 485.198571 
C 194.253388 479.893963 192.145845 474.805904 188.394921 471.05498 
C 184.643997 467.304056 179.555938 465.196513 174.25133 465.196513 
C 168.946722 465.196513 163.858664 467.304056 160.107739 471.05498 
C 156.356815 474.805904 154.249272 479.893963 154.249272 485.198571 
C 154.249272 490.503178 156.356815 495.591237 160.107739 499.342161 
C 163.858664 503.093085 168.946722 505.200628 174.25133 505.200628 
z
" clip-path="url(#pb4e5e0628e)" style="fill: #c70039; fill-opacity: 0.99; stroke: #c70039; stroke-opacity: 0.99"/>
    <path d="M 259.509587 532.540393 
C 264.758354 532.540393 269.792852 530.455036 273.50429 526.743598 
C 277.215729 523.032159 279.301086 517.997661 279.301086 512.748894 
C 279.301086 507.500127 277.215729 502.46563 273.50429 498.754191 
C 269.792852 495.042752 264.758354 492.957395 259.509587 492.957395 
C 254.26082 492.957395 249.226323 495.042752 245.514884 498.754191 
C 241.803445 502.46563 239.718088 507.500127 239.718088 512.748894 
C 239.718088 517.997661 241.803445 523.032159 245.514884 526.743598 
C 249.226323 530.455036 254.26082 532.540393 259.509587 532.540393 
z
" clip-path="url(#pb4e5e0628e)" style="fill: #c70039; fill-opacity: 0.99; stroke: #c70039; stroke-opacity: 0.99"/>
    <path d="M 348.664323 523.178891 
C 353.901877 523.178891 358.925619 521.097989 362.629128 517.39448 
C 366.332638 513.69097 368.41354 508.667228 368.41354 503.429675 
C 368.41354 498.192121 366.332638 493.168379 362.629128 489.464869 
C 358.925619 485.76136 353.901877 483.680458 348.664323 483.680458 
C 343.42677 483.680458 338.403028 485.76136 334.699518 489.464869 
C 330.996009 493.168379 328.915107 498.192121 328.915107 503.429675 
C 328.915107 508.667228 330.996009 513.69097 334.699518 517.39448 
C 338.403028 521.097989 343.42677 523.178891 348.664323 523.178891 
z
" clip-path="url(#pb4e5e0628e)" style="fill: #c70039; fill-opacity: 0.99; stroke: #c70039; stroke-opacity: 0.99"/>
    <path d="M 426.299888 478.579354 
C 431.531568 478.579354 436.549676 476.500786 440.249033 472.801429 
C 443.948389 469.102073 446.026957 464.083965 446.026957 458.852285 
C 446.026957 453.620605 443.948389 448.602497 440.249033 444.903141 
C 436.549676 441.203785 431.531568 439.125216 426.299888 439.125216 
C 421.068209 439.125216 416.0501 441.203785 412.350744 444.903141 
C 408.651388 448.602497 406.572819 453.620605 406.572819 458.852285 
C 406.572819 464.083965 408.651388 469.102073 412.350744 472.801429 
C 416.0501 476.500786 421.068209 478.579354 426.299888 478.579354 
z
" clip-path="url(#pb4e5e0628e)" style="fill: #c70039; fill-opacity: 0.99; stroke: #c70039; stroke-opacity: 0.99"/>
    <path d="M 478.992374 406.089501 
C 484.128009 406.089501 489.053994 404.049092 492.685437 400.417649 
C 496.31688 396.786206 498.35729 391.860221 498.35729 386.724585 
C 498.35729 381.588949 496.31688 376.662964 492.685437 373.031521 
C 489.053994 369.400078 484.128009 367.359668 478.992374 367.359668 
C 473.856738 367.359668 468.930753 369.400078 465.29931 373.031521 
C 461.667867 376.662964 459.627457 381.588949 459.627457 386.724585 
C 459.627457 391.860221 461.667867 396.786206 465.29931 400.417649 
C 468.930753 404.049092 473.856738 406.089501 478.992374 406.089501 
z
" clip-path="url(#pb4e5e0628e)" style="fill: #c70039; fill-opacity: 0.99; stroke: #c70039; stroke-opacity: 0.99"/>
   </g>
   <g id="text_1">
    <g id="patch_2">
     <path d="M 464.784285 307.833281 
L 530.477254 307.833281 
L 530.477254 291.202969 
L 464.784285 291.202969 
z
" clip-path="url(#pb4e5e0628e)" style="fill: #ffffff; opacity: 0.7; stroke: #000000; stroke-linejoin: miter"/>
    </g>
    <g clip-path="url(#pb4e5e0628e)">
     <!-- Robin Wright -->
     <g transform="translate(468.744285 302.001562)scale(0.09 -0.09)">
      <defs>
       <path id="DejaVuSans-52" d="M 2841 2188 
Q 3044 2119 3236 1894 
Q 3428 1669 3622 1275 
L 4263 0 
L 3584 0 
L 2988 1197 
Q 2756 1666 2539 1819 
Q 2322 1972 1947 1972 
L 1259 1972 
L 1259 0 
L 628 0 
L 628 4666 
L 2053 4666 
Q 2853 4666 3247 4331 
Q 3641 3997 3641 3322 
Q 3641 2881 3436 2590 
Q 3231 2300 2841 2188 
z
M 1259 4147 
L 1259 2491 
L 2053 2491 
Q 2509 2491 2742 2702 
Q 2975 2913 2975 3322 
Q 2975 3731 2742 3939 
Q 2509 4147 2053 4147 
L 1259 4147 
z
" transform="scale(0.015625)"/>
       <path id="DejaVuSans-6f" d="M 1959 3097 
Q 1497 3097 1228 2736 
Q 959 2375 959 1747 
Q 959 1119 1226 758 
Q 1494 397 1959 397 
Q 2419 397 2687 759 
Q 2956 1122 2956 1747 
Q 2956 2369 2687 2733 
Q 2419 3097 1959 3097 
z
M 1959 3584 
Q 2709 3584 3137 3096 
Q 3566 2609 3566 1747 
Q 3566 888 3137 398 
Q 2709 -91 1959 -91 
Q 1206 -91 779 398 
Q 353 888 353 1747 
Q 353 2609 779 3096 
Q 1206 3584 1959 3584 
z
" transform="scale(0.015625)"/>
       <path id="DejaVuSans-62" d="M 3116 1747 
Q 3116 2381 2855 2742 
Q 2594 3103 2138 3103 
Q 1681 3103 1420 2742 
Q 1159 2381 1159 1747 
Q 1159 1113 1420 752 
Q 1681 391 2138 391 
Q 2594 391 2855 752 
Q 3116 1113 3116 1747 
z
M 1159 2969 
Q 1341 3281 1617 3432 
Q 1894 3584 2278 3584 
Q 2916 3584 3314 3078 
Q 3713 2572 3713 1747 
Q 3713 922 3314 415 
Q 2916 -91 2278 -91 
Q 1894 -91 1617 61 
Q 1341 213 1159 525 
L 1159 0 
L 581 0 
L 581 4863 
L 1159 4863 
L 1159 2969 
z
" transform="scale(0.015625)"/>
       <path id="DejaVuSans-69" d="M 603 3500 
L 1178 3500 
L 1178 0 
L 603 0 
L 603 3500 
z
M 603 4863 
L 1178 4863 
L 1178 4134 
L 603 4134 
L 603 4863 
z
" transform="scale(0.015625)"/>
       <path id="DejaVuSans-6e" d="M 3513 2113 
L 3513 0 
L 2938 0 
L 2938 2094 
Q 2938 2591 2744 2837 
Q 2550 3084 2163 3084 
Q 1697 3084 1428 2787 
Q 1159 2491 1159 1978 
L 1159 0 
L 581 0 
L 581 3500 
L 1159 3500 
L 1159 2956 
Q 1366 3272 1645 3428 
Q 1925 3584 2291 3584 
Q 2894 3584 3203 3211 
Q 3513 2838 3513 2113 
z
" transform="scale(0.015625)"/>
       <path id="DejaVuSans-20" transform="scale(0.015625)"/>
       <path id="DejaVuSans-57" d="M 213 4666 
L 850 4666 
L 1831 722 
L 2809 4666 
L 3519 4666 
L 4500 722 
L 5478 4666 
L 6119 4666 
L 4947 0 
L 4153 0 
L 3169 4050 
L 2175 0 
L 1381 0 
L 213 4666 
z
" transform="scale(0.015625)"/>
       <path id="DejaVuSans-72" d="M 2631 2963 
Q 2534 3019 2420 3045 
Q 2306 3072 2169 3072 
Q 1681 3072 1420 2755 
Q 1159 2438 1159 1844 
L 1159 0 
L 581 0 
L 581 3500 
L 1159 3500 
L 1159 2956 
Q 1341 3275 1631 3429 
Q 1922 3584 2338 3584 
Q 2397 3584 2469 3576 
Q 2541 3569 2628 3553 
L 2631 2963 
z
" transform="scale(0.015625)"/>
       <path id="DejaVuSans-67" d="M 2906 1791 
Q 2906 2416 2648 2759 
Q 2391 3103 1925 3103 
Q 1463 3103 1205 2759 
Q 947 2416 947 1791 
Q 947 1169 1205 825 
Q 1463 481 1925 481 
Q 2391 481 2648 825 
Q 2906 1169 2906 1791 
z
M 3481 434 
Q 3481 -459 3084 -895 
Q 2688 -1331 1869 -1331 
Q 1566 -1331 1297 -1286 
Q 1028 -1241 775 -1147 
L 775 -588 
Q 1028 -725 1275 -790 
Q 1522 -856 1778 -856 
Q 2344 -856 2625 -561 
Q 2906 -266 2906 331 
L 2906 616 
Q 2728 306 2450 153 
Q 2172 0 1784 0 
Q 1141 0 747 490 
Q 353 981 353 1791 
Q 353 2603 747 3093 
Q 1141 3584 1784 3584 
Q 2172 3584 2450 3431 
Q 2728 3278 2906 2969 
L 2906 3500 
L 3481 3500 
L 3481 434 
z
" transform="scale(0.015625)"/>
       <path id="DejaVuSans-68" d="M 3513 2113 
L 3513 0 
L 2938 0 
L 2938 2094 
Q 2938 2591 2744 2837 
Q 2550 3084 2163 3084 
Q 1697 3084 1428 2787 
Q 1159 2491 1159 1978 
L 1159 0 
L 581 0 
L 581 4863 
L 1159 4863 
L 1159 2956 
Q 1366 3272 1645 3428 
Q 1925 3584 2291 3584 
Q 2894 3584 3203 3211 
Q 3513 2838 3513 2113 
z
" transform="scale(0.015625)"/>
       <path id="DejaVuSans-74" d="M 1172 4494 
L 1172 3500 
L 2356 3500 
L 2356 3053 
L 1172 3053 
L 1172 1153 
Q 1172 725 1289 603 
Q 1406 481 1766 481 
L 2356 481 
L 2356 0 
L 1766 0 
Q 1100 0 847 248 
Q 594 497 594 1153 
L 594 3053 
L 172 3053 
L 172 3500 
L 594 3500 
L 594 4494 
L 1172 4494 
z
" transform="scale(0.015625)"/>
      </defs>
      <use xlink:href="#DejaVuSans-52"/>
      <use xlink:href="#DejaVuSans-6f" x="64.982422"/>
      <use xlink:href="#DejaVuSans-62" x="126.164062"/>
      <use xlink:href="#DejaVuSans-69" x="189.640625"/>
      <use xlink:href="#DejaVuSans-6e" x="217.423828"/>
      <use xlink:href="#DejaVuSans-20" x="280.802734"/>
      <use xlink:href="#DejaVuSans-57" x="312.589844"/>
      <use xlink:href="#DejaVuSans-72" x="406.966797"/>
      <use xlink:href="#DejaVuSans-69" x="448.080078"/>
      <use xlink:href="#DejaVuSans-67" x="475.863281"/>
      <use xlink:href="#DejaVuSans-68" x="539.339844"/>
      <use xlink:href="#DejaVuSans-74" x="602.71875"/>
     </g>
    </g>
   </g>
   <g id="text_2">
    <g id="patch_3">
     <path d="M 445.793598 220.62679 
L 512.191098 220.62679 
L 512.191098 203.996477 
L 445.793598 203.996477 
z
" clip-path="url(#pb4e5e0628e)" style="fill: #ffffff; opacity: 0.7; stroke: #000000; stroke-linejoin: miter"/>
    </g>
    <g clip-path="url(#pb4e5e0628e)">
     <!-- Carla Gugino -->
     <g transform="translate(449.753598 214.795071)scale(0.09 -0.09)">
      <defs>
       <path id="DejaVuSans-43" d="M 4122 4306 
L 4122 3641 
Q 3803 3938 3442 4084 
Q 3081 4231 2675 4231 
Q 1875 4231 1450 3742 
Q 1025 3253 1025 2328 
Q 1025 1406 1450 917 
Q 1875 428 2675 428 
Q 3081 428 3442 575 
Q 3803 722 4122 1019 
L 4122 359 
Q 3791 134 3420 21 
Q 3050 -91 2638 -91 
Q 1578 -91 968 557 
Q 359 1206 359 2328 
Q 359 3453 968 4101 
Q 1578 4750 2638 4750 
Q 3056 4750 3426 4639 
Q 3797 4528 4122 4306 
z
" transform="scale(0.015625)"/>
       <path id="DejaVuSans-61" d="M 2194 1759 
Q 1497 1759 1228 1600 
Q 959 1441 959 1056 
Q 959 750 1161 570 
Q 1363 391 1709 391 
Q 2188 391 2477 730 
Q 2766 1069 2766 1631 
L 2766 1759 
L 2194 1759 
z
M 3341 1997 
L 3341 0 
L 2766 0 
L 2766 531 
Q 2569 213 2275 61 
Q 1981 -91 1556 -91 
Q 1019 -91 701 211 
Q 384 513 384 1019 
Q 384 1609 779 1909 
Q 1175 2209 1959 2209 
L 2766 2209 
L 2766 2266 
Q 2766 2663 2505 2880 
Q 2244 3097 1772 3097 
Q 1472 3097 1187 3025 
Q 903 2953 641 2809 
L 641 3341 
Q 956 3463 1253 3523 
Q 1550 3584 1831 3584 
Q 2591 3584 2966 3190 
Q 3341 2797 3341 1997 
z
" transform="scale(0.015625)"/>
       <path id="DejaVuSans-6c" d="M 603 4863 
L 1178 4863 
L 1178 0 
L 603 0 
L 603 4863 
z
" transform="scale(0.015625)"/>
       <path id="DejaVuSans-47" d="M 3809 666 
L 3809 1919 
L 2778 1919 
L 2778 2438 
L 4434 2438 
L 4434 434 
Q 4069 175 3628 42 
Q 3188 -91 2688 -91 
Q 1594 -91 976 548 
Q 359 1188 359 2328 
Q 359 3472 976 4111 
Q 1594 4750 2688 4750 
Q 3144 4750 3555 4637 
Q 3966 4525 4313 4306 
L 4313 3634 
Q 3963 3931 3569 4081 
Q 3175 4231 2741 4231 
Q 1884 4231 1454 3753 
Q 1025 3275 1025 2328 
Q 1025 1384 1454 906 
Q 1884 428 2741 428 
Q 3075 428 3337 486 
Q 3600 544 3809 666 
z
" transform="scale(0.015625)"/>
       <path id="DejaVuSans-75" d="M 544 1381 
L 544 3500 
L 1119 3500 
L 1119 1403 
Q 1119 906 1312 657 
Q 1506 409 1894 409 
Q 2359 409 2629 706 
Q 2900 1003 2900 1516 
L 2900 3500 
L 3475 3500 
L 3475 0 
L 2900 0 
L 2900 538 
Q 2691 219 2414 64 
Q 2138 -91 1772 -91 
Q 1169 -91 856 284 
Q 544 659 544 1381 
z
M 1991 3584 
L 1991 3584 
z
" transform="scale(0.015625)"/>
      </defs>
      <use xlink:href="#DejaVuSans-43"/>
      <use xlink:href="#DejaVuSans-61" x="69.824219"/>
      <use xlink:href="#DejaVuSans-72" x="131.103516"/>
      <use xlink:href="#DejaVuSans-6c" x="172.216797"/>
      <use xlink:href="#DejaVuSans-61" x="200"/>
      <use xlink:href="#DejaVuSans-20" x="261.279297"/>
      <use xlink:href="#DejaVuSans-47" x="293.066406"/>
      <use xlink:href="#DejaVuSans-75" x="370.556641"/>
      <use xlink:href="#DejaVuSans-67" x="433.935547"/>
      <use xlink:href="#DejaVuSans-69" x="497.412109"/>
      <use xlink:href="#DejaVuSans-6e" x="525.195312"/>
      <use xlink:href="#DejaVuSans-6f" x="588.574219"/>
     </g>
    </g>
   </g>
   <g id="text_3">
    <g id="patch_4">
     <path d="M 388.92735 148.499083 
L 463.67235 148.499083 
L 463.67235 131.86877 
L 388.92735 131.86877 
z
" clip-path="url(#pb4e5e0628e)" style="fill: #ffffff; opacity: 0.7; stroke: #000000; stroke-linejoin: miter"/>
    </g>
    <g clip-path="url(#pb4e5e0628e)">
     <!-- Steve Buscemi -->
     <g transform="translate(392.88735 142.667364)scale(0.09 -0.09)">
      <defs>
       <path id="DejaVuSans-53" d="M 3425 4513 
L 3425 3897 
Q 3066 4069 2747 4153 
Q 2428 4238 2131 4238 
Q 1616 4238 1336 4038 
Q 1056 3838 1056 3469 
Q 1056 3159 1242 3001 
Q 1428 2844 1947 2747 
L 2328 2669 
Q 3034 2534 3370 2195 
Q 3706 1856 3706 1288 
Q 3706 609 3251 259 
Q 2797 -91 1919 -91 
Q 1588 -91 1214 -16 
Q 841 59 441 206 
L 441 856 
Q 825 641 1194 531 
Q 1563 422 1919 422 
Q 2459 422 2753 634 
Q 3047 847 3047 1241 
Q 3047 1584 2836 1778 
Q 2625 1972 2144 2069 
L 1759 2144 
Q 1053 2284 737 2584 
Q 422 2884 422 3419 
Q 422 4038 858 4394 
Q 1294 4750 2059 4750 
Q 2388 4750 2728 4690 
Q 3069 4631 3425 4513 
z
" transform="scale(0.015625)"/>
       <path id="DejaVuSans-65" d="M 3597 1894 
L 3597 1613 
L 953 1613 
Q 991 1019 1311 708 
Q 1631 397 2203 397 
Q 2534 397 2845 478 
Q 3156 559 3463 722 
L 3463 178 
Q 3153 47 2828 -22 
Q 2503 -91 2169 -91 
Q 1331 -91 842 396 
Q 353 884 353 1716 
Q 353 2575 817 3079 
Q 1281 3584 2069 3584 
Q 2775 3584 3186 3129 
Q 3597 2675 3597 1894 
z
M 3022 2063 
Q 3016 2534 2758 2815 
Q 2500 3097 2075 3097 
Q 1594 3097 1305 2825 
Q 1016 2553 972 2059 
L 3022 2063 
z
" transform="scale(0.015625)"/>
       <path id="DejaVuSans-76" d="M 191 3500 
L 800 3500 
L 1894 563 
L 2988 3500 
L 3597 3500 
L 2284 0 
L 1503 0 
L 191 3500 
z
" transform="scale(0.015625)"/>
       <path id="DejaVuSans-42" d="M 1259 2228 
L 1259 519 
L 2272 519 
Q 2781 519 3026 730 
Q 3272 941 3272 1375 
Q 3272 1813 3026 2020 
Q 2781 2228 2272 2228 
L 1259 2228 
z
M 1259 4147 
L 1259 2741 
L 2194 2741 
Q 2656 2741 2882 2914 
Q 3109 3088 3109 3444 
Q 3109 3797 2882 3972 
Q 2656 4147 2194 4147 
L 1259 4147 
z
M 628 4666 
L 2241 4666 
Q 2963 4666 3353 4366 
Q 3744 4066 3744 3513 
Q 3744 3084 3544 2831 
Q 3344 2578 2956 2516 
Q 3422 2416 3680 2098 
Q 3938 1781 3938 1306 
Q 3938 681 3513 340 
Q 3088 0 2303 0 
L 628 0 
L 628 4666 
z
" transform="scale(0.015625)"/>
       <path id="DejaVuSans-73" d="M 2834 3397 
L 2834 2853 
Q 2591 2978 2328 3040 
Q 2066 3103 1784 3103 
Q 1356 3103 1142 2972 
Q 928 2841 928 2578 
Q 928 2378 1081 2264 
Q 1234 2150 1697 2047 
L 1894 2003 
Q 2506 1872 2764 1633 
Q 3022 1394 3022 966 
Q 3022 478 2636 193 
Q 2250 -91 1575 -91 
Q 1294 -91 989 -36 
Q 684 19 347 128 
L 347 722 
Q 666 556 975 473 
Q 1284 391 1588 391 
Q 1994 391 2212 530 
Q 2431 669 2431 922 
Q 2431 1156 2273 1281 
Q 2116 1406 1581 1522 
L 1381 1569 
Q 847 1681 609 1914 
Q 372 2147 372 2553 
Q 372 3047 722 3315 
Q 1072 3584 1716 3584 
Q 2034 3584 2315 3537 
Q 2597 3491 2834 3397 
z
" transform="scale(0.015625)"/>
       <path id="DejaVuSans-63" d="M 3122 3366 
L 3122 2828 
Q 2878 2963 2633 3030 
Q 2388 3097 2138 3097 
Q 1578 3097 1268 2742 
Q 959 2388 959 1747 
Q 959 1106 1268 751 
Q 1578 397 2138 397 
Q 2388 397 2633 464 
Q 2878 531 3122 666 
L 3122 134 
Q 2881 22 2623 -34 
Q 2366 -91 2075 -91 
Q 1284 -91 818 406 
Q 353 903 353 1747 
Q 353 2603 823 3093 
Q 1294 3584 2113 3584 
Q 2378 3584 2631 3529 
Q 2884 3475 3122 3366 
z
" transform="scale(0.015625)"/>
       <path id="DejaVuSans-6d" d="M 3328 2828 
Q 3544 3216 3844 3400 
Q 4144 3584 4550 3584 
Q 5097 3584 5394 3201 
Q 5691 2819 5691 2113 
L 5691 0 
L 5113 0 
L 5113 2094 
Q 5113 2597 4934 2840 
Q 4756 3084 4391 3084 
Q 3944 3084 3684 2787 
Q 3425 2491 3425 1978 
L 3425 0 
L 2847 0 
L 2847 2094 
Q 2847 2600 2669 2842 
Q 2491 3084 2119 3084 
Q 1678 3084 1418 2786 
Q 1159 2488 1159 1978 
L 1159 0 
L 581 0 
L 581 3500 
L 1159 3500 
L 1159 2956 
Q 1356 3278 1631 3431 
Q 1906 3584 2284 3584 
Q 2666 3584 2933 3390 
Q 3200 3197 3328 2828 
z
" transform="scale(0.015625)"/>
      </defs>
      <use xlink:href="#DejaVuSans-53"/>
      <use xlink:href="#DejaVuSans-74" x="63.476562"/>
      <use xlink:href="#DejaVuSans-65" x="102.685547"/>
      <use xlink:href="#DejaVuSans-76" x="164.208984"/>
      <use xlink:href="#DejaVuSans-65" x="223.388672"/>
      <use xlink:href="#DejaVuSans-20" x="284.912109"/>
      <use xlink:href="#DejaVuSans-42" x="316.699219"/>
      <use xlink:href="#DejaVuSans-75" x="385.302734"/>
      <use xlink:href="#DejaVuSans-73" x="448.681641"/>
      <use xlink:href="#DejaVuSans-63" x="500.78125"/>
      <use xlink:href="#DejaVuSans-65" x="555.761719"/>
      <use xlink:href="#DejaVuSans-6d" x="617.285156"/>
      <use xlink:href="#DejaVuSans-69" x="714.697266"/>
     </g>
    </g>
   </g>
   <g id="text_4">
    <g id="patch_5">
     <path d="M 312.909682 103.921719 
L 384.418901 103.921719 
L 384.418901 87.291406 
L 312.909682 87.291406 
z
" clip-path="url(#pb4e5e0628e)" style="fill: #ffffff; opacity: 0.7; stroke: #000000; stroke-linejoin: miter"/>
    </g>
    <g clip-path="url(#pb4e5e0628e)">
     <!-- Alfre Woodard -->
     <g transform="translate(316.869682 98.09)scale(0.09 -0.09)">
      <defs>
       <path id="DejaVuSans-41" d="M 2188 4044 
L 1331 1722 
L 3047 1722 
L 2188 4044 
z
M 1831 4666 
L 2547 4666 
L 4325 0 
L 3669 0 
L 3244 1197 
L 1141 1197 
L 716 0 
L 50 0 
L 1831 4666 
z
" transform="scale(0.015625)"/>
       <path id="DejaVuSans-66" d="M 2375 4863 
L 2375 4384 
L 1825 4384 
Q 1516 4384 1395 4259 
Q 1275 4134 1275 3809 
L 1275 3500 
L 2222 3500 
L 2222 3053 
L 1275 3053 
L 1275 0 
L 697 0 
L 697 3053 
L 147 3053 
L 147 3500 
L 697 3500 
L 697 3744 
Q 697 4328 969 4595 
Q 1241 4863 1831 4863 
L 2375 4863 
z
" transform="scale(0.015625)"/>
       <path id="DejaVuSans-64" d="M 2906 2969 
L 2906 4863 
L 3481 4863 
L 3481 0 
L 2906 0 
L 2906 525 
Q 2725 213 2448 61 
Q 2172 -91 1784 -91 
Q 1150 -91 751 415 
Q 353 922 353 1747 
Q 353 2572 751 3078 
Q 1150 3584 1784 3584 
Q 2172 3584 2448 3432 
Q 2725 3281 2906 2969 
z
M 947 1747 
Q 947 1113 1208 752 
Q 1469 391 1925 391 
Q 2381 391 2643 752 
Q 2906 1113 2906 1747 
Q 2906 2381 2643 2742 
Q 2381 3103 1925 3103 
Q 1469 3103 1208 2742 
Q 947 2381 947 1747 
z
" transform="scale(0.015625)"/>
      </defs>
      <use xlink:href="#DejaVuSans-41"/>
      <use xlink:href="#DejaVuSans-6c" x="68.408203"/>
      <use xlink:href="#DejaVuSans-66" x="96.191406"/>
      <use xlink:href="#DejaVuSans-72" x="131.396484"/>
      <use xlink:href="#DejaVuSans-65" x="170.259766"/>
      <use xlink:href="#DejaVuSans-20" x="231.783203"/>
      <use xlink:href="#DejaVuSans-57" x="263.570312"/>
      <use xlink:href="#DejaVuSans-6f" x="356.572266"/>
      <use xlink:href="#DejaVuSans-6f" x="417.753906"/>
      <use xlink:href="#DejaVuSans-64" x="478.935547"/>
      <use xlink:href="#DejaVuSans-61" x="542.412109"/>
      <use xlink:href="#DejaVuSans-72" x="603.691406"/>
      <use xlink:href="#DejaVuSans-64" x="643.054688"/>
     </g>
    </g>
   </g>
   <g id="text_5">
    <g id="patch_6">
     <path d="M 223.06658 94.602512 
L 295.952517 94.602512 
L 295.952517 77.9722 
L 223.06658 77.9722 
z
" clip-path="url(#pb4e5e0628e)" style="fill: #ffffff; opacity: 0.7; stroke: #000000; stroke-linejoin: miter"/>
    </g>
    <g clip-path="url(#pb4e5e0628e)">
     <!-- Jeffrey Tambor -->
     <g transform="translate(227.02658 88.770793)scale(0.09 -0.09)">
      <defs>
       <path id="DejaVuSans-4a" d="M 628 4666 
L 1259 4666 
L 1259 325 
Q 1259 -519 939 -900 
Q 619 -1281 -91 -1281 
L -331 -1281 
L -331 -750 
L -134 -750 
Q 284 -750 456 -515 
Q 628 -281 628 325 
L 628 4666 
z
" transform="scale(0.015625)"/>
       <path id="DejaVuSans-79" d="M 2059 -325 
Q 1816 -950 1584 -1140 
Q 1353 -1331 966 -1331 
L 506 -1331 
L 506 -850 
L 844 -850 
Q 1081 -850 1212 -737 
Q 1344 -625 1503 -206 
L 1606 56 
L 191 3500 
L 800 3500 
L 1894 763 
L 2988 3500 
L 3597 3500 
L 2059 -325 
z
" transform="scale(0.015625)"/>
       <path id="DejaVuSans-54" d="M -19 4666 
L 3928 4666 
L 3928 4134 
L 2272 4134 
L 2272 0 
L 1638 0 
L 1638 4134 
L -19 4134 
L -19 4666 
z
" transform="scale(0.015625)"/>
      </defs>
      <use xlink:href="#DejaVuSans-4a"/>
      <use xlink:href="#DejaVuSans-65" x="29.492188"/>
      <use xlink:href="#DejaVuSans-66" x="91.015625"/>
      <use xlink:href="#DejaVuSans-66" x="126.220703"/>
      <use xlink:href="#DejaVuSans-72" x="161.425781"/>
      <use xlink:href="#DejaVuSans-65" x="200.289062"/>
      <use xlink:href="#DejaVuSans-79" x="261.8125"/>
      <use xlink:href="#DejaVuSans-20" x="320.992188"/>
      <use xlink:href="#DejaVuSans-54" x="352.779297"/>
      <use xlink:href="#DejaVuSans-61" x="397.363281"/>
      <use xlink:href="#DejaVuSans-6d" x="458.642578"/>
      <use xlink:href="#DejaVuSans-62" x="556.054688"/>
      <use xlink:href="#DejaVuSans-6f" x="619.53125"/>
      <use xlink:href="#DejaVuSans-72" x="680.712891"/>
     </g>
    </g>
   </g>
   <g id="text_6">
    <g id="patch_7">
     <path d="M 134.375673 122.152849 
L 214.126923 122.152849 
L 214.126923 105.522536 
L 134.375673 105.522536 
z
" clip-path="url(#pb4e5e0628e)" style="fill: #ffffff; opacity: 0.7; stroke: #000000; stroke-linejoin: miter"/>
    </g>
    <g clip-path="url(#pb4e5e0628e)">
     <!-- Rosario Dawson -->
     <g transform="translate(138.335673 116.32113)scale(0.09 -0.09)">
      <defs>
       <path id="DejaVuSans-44" d="M 1259 4147 
L 1259 519 
L 2022 519 
Q 2988 519 3436 956 
Q 3884 1394 3884 2338 
Q 3884 3275 3436 3711 
Q 2988 4147 2022 4147 
L 1259 4147 
z
M 628 4666 
L 1925 4666 
Q 3281 4666 3915 4102 
Q 4550 3538 4550 2338 
Q 4550 1131 3912 565 
Q 3275 0 1925 0 
L 628 0 
L 628 4666 
z
" transform="scale(0.015625)"/>
       <path id="DejaVuSans-77" d="M 269 3500 
L 844 3500 
L 1563 769 
L 2278 3500 
L 2956 3500 
L 3675 769 
L 4391 3500 
L 4966 3500 
L 4050 0 
L 3372 0 
L 2619 2869 
L 1863 0 
L 1184 0 
L 269 3500 
z
" transform="scale(0.015625)"/>
      </defs>
      <use xlink:href="#DejaVuSans-52"/>
      <use xlink:href="#DejaVuSans-6f" x="64.982422"/>
      <use xlink:href="#DejaVuSans-73" x="126.164062"/>
      <use xlink:href="#DejaVuSans-61" x="178.263672"/>
      <use xlink:href="#DejaVuSans-72" x="239.542969"/>
      <use xlink:href="#DejaVuSans-69" x="280.65625"/>
      <use xlink:href="#DejaVuSans-6f" x="308.439453"/>
      <use xlink:href="#DejaVuSans-20" x="369.621094"/>
      <use xlink:href="#DejaVuSans-44" x="401.408203"/>
      <use xlink:href="#DejaVuSans-61" x="478.410156"/>
      <use xlink:href="#DejaVuSans-77" x="539.689453"/>
      <use xlink:href="#DejaVuSans-73" x="621.476562"/>
      <use xlink:href="#DejaVuSans-6f" x="673.576172"/>
      <use xlink:href="#DejaVuSans-6e" x="734.757812"/>
     </g>
    </g>
   </g>
   <g id="text_7">
    <g id="patch_8">
     <path d="M 76.371243 181.80901 
L 138.891711 181.80901 
L 138.891711 165.178697 
L 76.371243 165.178697 
z
" clip-path="url(#pb4e5e0628e)" style="fill: #ffffff; opacity: 0.7; stroke: #000000; stroke-linejoin: miter"/>
    </g>
    <g clip-path="url(#pb4e5e0628e)">
     <!-- Dolly Parton -->
     <g transform="translate(80.331243 175.977291)scale(0.09 -0.09)">
      <defs>
       <path id="DejaVuSans-50" d="M 1259 4147 
L 1259 2394 
L 2053 2394 
Q 2494 2394 2734 2622 
Q 2975 2850 2975 3272 
Q 2975 3691 2734 3919 
Q 2494 4147 2053 4147 
L 1259 4147 
z
M 628 4666 
L 2053 4666 
Q 2838 4666 3239 4311 
Q 3641 3956 3641 3272 
Q 3641 2581 3239 2228 
Q 2838 1875 2053 1875 
L 1259 1875 
L 1259 0 
L 628 0 
L 628 4666 
z
" transform="scale(0.015625)"/>
      </defs>
      <use xlink:href="#DejaVuSans-44"/>
      <use xlink:href="#DejaVuSans-6f" x="77.001953"/>
      <use xlink:href="#DejaVuSans-6c" x="138.183594"/>
      <use xlink:href="#DejaVuSans-6c" x="165.966797"/>
      <use xlink:href="#DejaVuSans-79" x="193.75"/>
      <use xlink:href="#DejaVuSans-20" x="252.929688"/>
      <use xlink:href="#DejaVuSans-50" x="284.716797"/>
      <use xlink:href="#DejaVuSans-61" x="340.519531"/>
      <use xlink:href="#DejaVuSans-72" x="401.798828"/>
      <use xlink:href="#DejaVuSans-74" x="442.912109"/>
      <use xlink:href="#DejaVuSans-6f" x="482.121094"/>
      <use xlink:href="#DejaVuSans-6e" x="543.302734"/>
     </g>
    </g>
   </g>
   <g id="text_8">
    <g id="patch_9">
     <path d="M 36.763215 263.25593 
L 105.575246 263.25593 
L 105.575246 246.625618 
L 36.763215 246.625618 
z
" clip-path="url(#pb4e5e0628e)" style="fill: #ffffff; opacity: 0.7; stroke: #000000; stroke-linejoin: miter"/>
    </g>
    <g clip-path="url(#pb4e5e0628e)">
     <!-- Angelina Jolie -->
     <g transform="translate(40.723215 257.424211)scale(0.09 -0.09)">
      <use xlink:href="#DejaVuSans-41"/>
      <use xlink:href="#DejaVuSans-6e" x="68.408203"/>
      <use xlink:href="#DejaVuSans-67" x="131.787109"/>
      <use xlink:href="#DejaVuSans-65" x="195.263672"/>
      <use xlink:href="#DejaVuSans-6c" x="256.787109"/>
      <use xlink:href="#DejaVuSans-69" x="284.570312"/>
      <use xlink:href="#DejaVuSans-6e" x="312.353516"/>
      <use xlink:href="#DejaVuSans-61" x="375.732422"/>
      <use xlink:href="#DejaVuSans-20" x="437.011719"/>
      <use xlink:href="#DejaVuSans-4a" x="468.798828"/>
      <use xlink:href="#DejaVuSans-6f" x="498.291016"/>
      <use xlink:href="#DejaVuSans-6c" x="559.472656"/>
      <use xlink:href="#DejaVuSans-69" x="587.255859"/>
      <use xlink:href="#DejaVuSans-65" x="615.039062"/>
     </g>
    </g>
   </g>
   <g id="text_9">
    <g id="patch_10">
     <path d="M 35.812603 352.410671 
L 106.525884 352.410671 
L 106.525884 335.780358 
L 35.812603 335.780358 
z
" clip-path="url(#pb4e5e0628e)" style="fill: #ffffff; opacity: 0.7; stroke: #000000; stroke-linejoin: miter"/>
    </g>
    <g clip-path="url(#pb4e5e0628e)">
     <!-- Burt Reynolds -->
     <g transform="translate(39.772603 346.578952)scale(0.09 -0.09)">
      <use xlink:href="#DejaVuSans-42"/>
      <use xlink:href="#DejaVuSans-75" x="68.603516"/>
      <use xlink:href="#DejaVuSans-72" x="131.982422"/>
      <use xlink:href="#DejaVuSans-74" x="173.095703"/>
      <use xlink:href="#DejaVuSans-20" x="212.304688"/>
      <use xlink:href="#DejaVuSans-52" x="244.091797"/>
      <use xlink:href="#DejaVuSans-65" x="309.074219"/>
      <use xlink:href="#DejaVuSans-79" x="370.597656"/>
      <use xlink:href="#DejaVuSans-6e" x="429.777344"/>
      <use xlink:href="#DejaVuSans-6f" x="493.15625"/>
      <use xlink:href="#DejaVuSans-6c" x="554.337891"/>
      <use xlink:href="#DejaVuSans-64" x="582.121094"/>
      <use xlink:href="#DejaVuSans-73" x="645.597656"/>
     </g>
    </g>
   </g>
   <g id="text_10">
    <g id="patch_11">
     <path d="M 72.878834 433.857565 
L 142.384146 433.857565 
L 142.384146 417.227253 
L 72.878834 417.227253 
z
" clip-path="url(#pb4e5e0628e)" style="fill: #ffffff; opacity: 0.7; stroke: #000000; stroke-linejoin: miter"/>
    </g>
    <g clip-path="url(#pb4e5e0628e)">
     <!-- Danny Glover -->
     <g transform="translate(76.838834 428.025847)scale(0.09 -0.09)">
      <use xlink:href="#DejaVuSans-44"/>
      <use xlink:href="#DejaVuSans-61" x="77.001953"/>
      <use xlink:href="#DejaVuSans-6e" x="138.28125"/>
      <use xlink:href="#DejaVuSans-6e" x="201.660156"/>
      <use xlink:href="#DejaVuSans-79" x="265.039062"/>
      <use xlink:href="#DejaVuSans-20" x="324.21875"/>
      <use xlink:href="#DejaVuSans-47" x="356.005859"/>
      <use xlink:href="#DejaVuSans-6c" x="433.496094"/>
      <use xlink:href="#DejaVuSans-6f" x="461.279297"/>
      <use xlink:href="#DejaVuSans-76" x="522.460938"/>
      <use xlink:href="#DejaVuSans-65" x="581.640625"/>
      <use xlink:href="#DejaVuSans-72" x="643.164062"/>
     </g>
    </g>
   </g>
   <g id="text_11">
    <g id="patch_12">
     <path d="M 144.970393 493.513727 
L 203.532268 493.513727 
L 203.532268 476.883414 
L 144.970393 476.883414 
z
" clip-path="url(#pb4e5e0628e)" style="fill: #ffffff; opacity: 0.7; stroke: #000000; stroke-linejoin: miter"/>
    </g>
    <g clip-path="url(#pb4e5e0628e)">
     <!-- Ben Affleck -->
     <g transform="translate(148.930393 487.682008)scale(0.09 -0.09)">
      <defs>
       <path id="DejaVuSans-6b" d="M 581 4863 
L 1159 4863 
L 1159 1991 
L 2875 3500 
L 3609 3500 
L 1753 1863 
L 3688 0 
L 2938 0 
L 1159 1709 
L 1159 0 
L 581 0 
L 581 4863 
z
" transform="scale(0.015625)"/>
      </defs>
      <use xlink:href="#DejaVuSans-42"/>
      <use xlink:href="#DejaVuSans-65" x="68.603516"/>
      <use xlink:href="#DejaVuSans-6e" x="130.126953"/>
      <use xlink:href="#DejaVuSans-20" x="193.505859"/>
      <use xlink:href="#DejaVuSans-41" x="225.292969"/>
      <use xlink:href="#DejaVuSans-66" x="290.076172"/>
      <use xlink:href="#DejaVuSans-66" x="325.28125"/>
      <use xlink:href="#DejaVuSans-6c" x="360.486328"/>
      <use xlink:href="#DejaVuSans-65" x="388.269531"/>
      <use xlink:href="#DejaVuSans-63" x="449.792969"/>
      <use xlink:href="#DejaVuSans-6b" x="504.773438"/>
     </g>
    </g>
   </g>
   <g id="text_12">
    <g id="patch_13">
     <path d="M 219.759822 521.06405 
L 299.259353 521.06405 
L 299.259353 504.433738 
L 219.759822 504.433738 
z
" clip-path="url(#pb4e5e0628e)" style="fill: #ffffff; opacity: 0.7; stroke: #000000; stroke-linejoin: miter"/>
    </g>
    <g clip-path="url(#pb4e5e0628e)">
     <!-- Melvyn Douglas -->
     <g transform="translate(223.719822 515.232332)scale(0.09 -0.09)">
      <defs>
       <path id="DejaVuSans-4d" d="M 628 4666 
L 1569 4666 
L 2759 1491 
L 3956 4666 
L 4897 4666 
L 4897 0 
L 4281 0 
L 4281 4097 
L 3078 897 
L 2444 897 
L 1241 4097 
L 1241 0 
L 628 0 
L 628 4666 
z
" transform="scale(0.015625)"/>
      </defs>
      <use xlink:href="#DejaVuSans-4d"/>
      <use xlink:href="#DejaVuSans-65" x="86.279297"/>
      <use xlink:href="#DejaVuSans-6c" x="147.802734"/>
      <use xlink:href="#DejaVuSans-76" x="175.585938"/>
      <use xlink:href="#DejaVuSans-79" x="234.765625"/>
      <use xlink:href="#DejaVuSans-6e" x="293.945312"/>
      <use xlink:href="#DejaVuSans-20" x="357.324219"/>
      <use xlink:href="#DejaVuSans-44" x="389.111328"/>
      <use xlink:href="#DejaVuSans-6f" x="466.113281"/>
      <use xlink:href="#DejaVuSans-75" x="527.294922"/>
      <use xlink:href="#DejaVuSans-67" x="590.673828"/>
      <use xlink:href="#DejaVuSans-6c" x="654.150391"/>
      <use xlink:href="#DejaVuSans-61" x="681.933594"/>
      <use xlink:href="#DejaVuSans-73" x="743.212891"/>
     </g>
    </g>
   </g>
   <g id="text_13">
    <g id="patch_14">
     <path d="M 321.077917 511.744831 
L 376.25073 511.744831 
L 376.25073 495.114518 
L 321.077917 495.114518 
z
" clip-path="url(#pb4e5e0628e)" style="fill: #ffffff; opacity: 0.7; stroke: #000000; stroke-linejoin: miter"/>
    </g>
    <g clip-path="url(#pb4e5e0628e)">
     <!-- Chris Rock -->
     <g transform="translate(325.037917 505.913112)scale(0.09 -0.09)">
      <use xlink:href="#DejaVuSans-43"/>
      <use xlink:href="#DejaVuSans-68" x="69.824219"/>
      <use xlink:href="#DejaVuSans-72" x="133.203125"/>
      <use xlink:href="#DejaVuSans-69" x="174.316406"/>
      <use xlink:href="#DejaVuSans-73" x="202.099609"/>
      <use xlink:href="#DejaVuSans-20" x="254.199219"/>
      <use xlink:href="#DejaVuSans-52" x="285.986328"/>
      <use xlink:href="#DejaVuSans-6f" x="350.96875"/>
      <use xlink:href="#DejaVuSans-63" x="412.150391"/>
      <use xlink:href="#DejaVuSans-6b" x="467.130859"/>
     </g>
    </g>
   </g>
   <g id="text_14">
    <g id="patch_15">
     <path d="M 401.233482 467.167441 
L 451.366295 467.167441 
L 451.366295 450.537129 
L 401.233482 450.537129 
z
" clip-path="url(#pb4e5e0628e)" style="fill: #ffffff; opacity: 0.7; stroke: #000000; stroke-linejoin: miter"/>
    </g>
    <g clip-path="url(#pb4e5e0628e)">
     <!-- Josh Peck -->
     <g transform="translate(405.193482 461.335723)scale(0.09 -0.09)">
      <use xlink:href="#DejaVuSans-4a"/>
      <use xlink:href="#DejaVuSans-6f" x="29.492188"/>
      <use xlink:href="#DejaVuSans-73" x="90.673828"/>
      <use xlink:href="#DejaVuSans-68" x="142.773438"/>
      <use xlink:href="#DejaVuSans-20" x="206.152344"/>
      <use xlink:href="#DejaVuSans-50" x="237.939453"/>
      <use xlink:href="#DejaVuSans-65" x="294.617188"/>
      <use xlink:href="#DejaVuSans-63" x="356.140625"/>
      <use xlink:href="#DejaVuSans-6b" x="411.121094"/>
     </g>
    </g>
   </g>
   <g id="text_15">
    <g id="patch_16">
     <path d="M 443.073233 395.039741 
L 514.911514 395.039741 
L 514.911514 378.409428 
L 443.073233 378.409428 
z
" clip-path="url(#pb4e5e0628e)" style="fill: #ffffff; opacity: 0.7; stroke: #000000; stroke-linejoin: miter"/>
    </g>
    <g clip-path="url(#pb4e5e0628e)">
     <!-- Jean Simmons -->
     <g transform="translate(447.033233 389.208022)scale(0.09 -0.09)">
      <use xlink:href="#DejaVuSans-4a"/>
      <use xlink:href="#DejaVuSans-65" x="29.492188"/>
      <use xlink:href="#DejaVuSans-61" x="91.015625"/>
      <use xlink:href="#DejaVuSans-6e" x="152.294922"/>
      <use xlink:href="#DejaVuSans-20" x="215.673828"/>
      <use xlink:href="#DejaVuSans-53" x="247.460938"/>
      <use xlink:href="#DejaVuSans-69" x="310.9375"/>
      <use xlink:href="#DejaVuSans-6d" x="338.720703"/>
      <use xlink:href="#DejaVuSans-6d" x="436.132812"/>
      <use xlink:href="#DejaVuSans-6f" x="533.544922"/>
      <use xlink:href="#DejaVuSans-6e" x="594.726562"/>
      <use xlink:href="#DejaVuSans-73" x="658.105469"/>
     </g>
    </g>
   </g>
   <g id="text_16">
    <!-- Impactful actors for Silent film genre - Importance rank: 6 -->
    <g transform="translate(110.649375 16.318125)scale(0.12 -0.12)">
     <defs>
      <path id="DejaVuSans-49" d="M 628 4666 
L 1259 4666 
L 1259 0 
L 628 0 
L 628 4666 
z
" transform="scale(0.015625)"/>
      <path id="DejaVuSans-70" d="M 1159 525 
L 1159 -1331 
L 581 -1331 
L 581 3500 
L 1159 3500 
L 1159 2969 
Q 1341 3281 1617 3432 
Q 1894 3584 2278 3584 
Q 2916 3584 3314 3078 
Q 3713 2572 3713 1747 
Q 3713 922 3314 415 
Q 2916 -91 2278 -91 
Q 1894 -91 1617 61 
Q 1341 213 1159 525 
z
M 3116 1747 
Q 3116 2381 2855 2742 
Q 2594 3103 2138 3103 
Q 1681 3103 1420 2742 
Q 1159 2381 1159 1747 
Q 1159 1113 1420 752 
Q 1681 391 2138 391 
Q 2594 391 2855 752 
Q 3116 1113 3116 1747 
z
" transform="scale(0.015625)"/>
      <path id="DejaVuSans-2d" d="M 313 2009 
L 1997 2009 
L 1997 1497 
L 313 1497 
L 313 2009 
z
" transform="scale(0.015625)"/>
      <path id="DejaVuSans-3a" d="M 750 794 
L 1409 794 
L 1409 0 
L 750 0 
L 750 794 
z
M 750 3309 
L 1409 3309 
L 1409 2516 
L 750 2516 
L 750 3309 
z
" transform="scale(0.015625)"/>
      <path id="DejaVuSans-36" d="M 2113 2584 
Q 1688 2584 1439 2293 
Q 1191 2003 1191 1497 
Q 1191 994 1439 701 
Q 1688 409 2113 409 
Q 2538 409 2786 701 
Q 3034 994 3034 1497 
Q 3034 2003 2786 2293 
Q 2538 2584 2113 2584 
z
M 3366 4563 
L 3366 3988 
Q 3128 4100 2886 4159 
Q 2644 4219 2406 4219 
Q 1781 4219 1451 3797 
Q 1122 3375 1075 2522 
Q 1259 2794 1537 2939 
Q 1816 3084 2150 3084 
Q 2853 3084 3261 2657 
Q 3669 2231 3669 1497 
Q 3669 778 3244 343 
Q 2819 -91 2113 -91 
Q 1303 -91 875 529 
Q 447 1150 447 2328 
Q 447 3434 972 4092 
Q 1497 4750 2381 4750 
Q 2619 4750 2861 4703 
Q 3103 4656 3366 4563 
z
" transform="scale(0.015625)"/>
     </defs>
     <use xlink:href="#DejaVuSans-49"/>
     <use xlink:href="#DejaVuSans-6d" x="29.492188"/>
     <use xlink:href="#DejaVuSans-70" x="126.904297"/>
     <use xlink:href="#DejaVuSans-61" x="190.380859"/>
     <use xlink:href="#DejaVuSans-63" x="251.660156"/>
     <use xlink:href="#DejaVuSans-74" x="306.640625"/>
     <use xlink:href="#DejaVuSans-66" x="345.849609"/>
     <use xlink:href="#DejaVuSans-75" x="381.054688"/>
     <use xlink:href="#DejaVuSans-6c" x="444.433594"/>
     <use xlink:href="#DejaVuSans-20" x="472.216797"/>
     <use xlink:href="#DejaVuSans-61" x="504.003906"/>
     <use xlink:href="#DejaVuSans-63" x="565.283203"/>
     <use xlink:href="#DejaVuSans-74" x="620.263672"/>
     <use xlink:href="#DejaVuSans-6f" x="659.472656"/>
     <use xlink:href="#DejaVuSans-72" x="720.654297"/>
     <use xlink:href="#DejaVuSans-73" x="761.767578"/>
     <use xlink:href="#DejaVuSans-20" x="813.867188"/>
     <use xlink:href="#DejaVuSans-66" x="845.654297"/>
     <use xlink:href="#DejaVuSans-6f" x="880.859375"/>
     <use xlink:href="#DejaVuSans-72" x="942.041016"/>
     <use xlink:href="#DejaVuSans-20" x="983.154297"/>
     <use xlink:href="#DejaVuSans-53" x="1014.941406"/>
     <use xlink:href="#DejaVuSans-69" x="1078.417969"/>
     <use xlink:href="#DejaVuSans-6c" x="1106.201172"/>
     <use xlink:href="#DejaVuSans-65" x="1133.984375"/>
     <use xlink:href="#DejaVuSans-6e" x="1195.507812"/>
     <use xlink:href="#DejaVuSans-74" x="1258.886719"/>
     <use xlink:href="#DejaVuSans-20" x="1298.095703"/>
     <use xlink:href="#DejaVuSans-66" x="1329.882812"/>
     <use xlink:href="#DejaVuSans-69" x="1365.087891"/>
     <use xlink:href="#DejaVuSans-6c" x="1392.871094"/>
     <use xlink:href="#DejaVuSans-6d" x="1420.654297"/>
     <use xlink:href="#DejaVuSans-20" x="1518.066406"/>
     <use xlink:href="#DejaVuSans-67" x="1549.853516"/>
     <use xlink:href="#DejaVuSans-65" x="1613.330078"/>
     <use xlink:href="#DejaVuSans-6e" x="1674.853516"/>
     <use xlink:href="#DejaVuSans-72" x="1738.232422"/>
     <use xlink:href="#DejaVuSans-65" x="1777.095703"/>
     <use xlink:href="#DejaVuSans-20" x="1838.619141"/>
     <use xlink:href="#DejaVuSans-2d" x="1870.40625"/>
     <use xlink:href="#DejaVuSans-20" x="1906.490234"/>
     <use xlink:href="#DejaVuSans-49" x="1938.277344"/>
     <use xlink:href="#DejaVuSans-6d" x="1967.769531"/>
     <use xlink:href="#DejaVuSans-70" x="2065.181641"/>
     <use xlink:href="#DejaVuSans-6f" x="2128.658203"/>
     <use xlink:href="#DejaVuSans-72" x="2189.839844"/>
     <use xlink:href="#DejaVuSans-74" x="2230.953125"/>
     <use xlink:href="#DejaVuSans-61" x="2270.162109"/>
     <use xlink:href="#DejaVuSans-6e" x="2331.441406"/>
     <use xlink:href="#DejaVuSans-63" x="2394.820312"/>
     <use xlink:href="#DejaVuSans-65" x="2449.800781"/>
     <use xlink:href="#DejaVuSans-20" x="2511.324219"/>
     <use xlink:href="#DejaVuSans-72" x="2543.111328"/>
     <use xlink:href="#DejaVuSans-61" x="2584.224609"/>
     <use xlink:href="#DejaVuSans-6e" x="2645.503906"/>
     <use xlink:href="#DejaVuSans-6b" x="2708.882812"/>
     <use xlink:href="#DejaVuSans-3a" x="2766.792969"/>
     <use xlink:href="#DejaVuSans-20" x="2800.484375"/>
     <use xlink:href="#DejaVuSans-36" x="2832.271484"/>
    </g>
   </g>
  </g>
 </g>
 <defs>
  <clipPath id="pb4e5e0628e">
   <rect x="7.2" y="22.318125" width="554.4" height="554.4"/>
  </clipPath>
 </defs>
</svg>
