<?xml version="1.0" encoding="utf-8" standalone="no"?>
<!DOCTYPE svg PUBLIC "-//W3C//DTD SVG 1.1//EN"
  "http://www.w3.org/Graphics/SVG/1.1/DTD/svg11.dtd">
<svg xmlns:xlink="http://www.w3.org/1999/xlink" width="576pt" height="576pt" viewBox="0 0 576 576" xmlns="http://www.w3.org/2000/svg" version="1.1">
 <metadata>
  <rdf:RDF xmlns:dc="http://purl.org/dc/elements/1.1/" xmlns:cc="http://creativecommons.org/ns#" xmlns:rdf="http://www.w3.org/1999/02/22-rdf-syntax-ns#">
   <cc:Work>
    <dc:type rdf:resource="http://purl.org/dc/dcmitype/StillImage"/>
    <dc:date>2022-12-22T16:13:00.203275</dc:date>
    <dc:format>image/svg+xml</dc:format>
    <dc:creator>
     <cc:Agent>
      <dc:title>Matplotlib v3.5.2, https://matplotlib.org/</dc:title>
     </cc:Agent>
    </dc:creator>
   </cc:Work>
  </rdf:RDF>
 </metadata>
 <defs>
  <style type="text/css">*{stroke-linejoin: round; stroke-linecap: butt}</style>
 </defs>
 <g id="figure_1">
  <g id="patch_1">
   <path d="M 0 576 
L 576 576 
L 576 0 
L 0 0 
z
" style="fill: #ffffff"/>
  </g>
  <g id="axes_1">
   <g id="LineCollection_1">
    <path d="M 482.592348 200.793508 
L 429.89985 128.665802 
" clip-path="url(#p6f52dbf307)" style="fill: none; stroke: #000000; stroke-opacity: 0.3; stroke-width: 5"/>
   </g>
   <g id="PathCollection_1">
    <path d="M 501.230769 315.386128 
C 508.493655 315.386128 515.46005 312.500553 520.595686 307.364917 
C 525.731322 302.229281 528.616897 295.262886 528.616897 288 
C 528.616897 280.737114 525.731322 273.770719 520.595686 268.635083 
C 515.46005 263.499447 508.493655 260.613872 501.230769 260.613872 
C 493.967883 260.613872 487.001488 263.499447 481.865852 268.635083 
C 476.730217 273.770719 473.844641 280.737114 473.844641 288 
C 473.844641 295.262886 476.730217 302.229281 481.865852 307.364917 
C 487.001488 312.500553 493.967883 315.386128 501.230769 315.386128 
z
" clip-path="url(#p6f52dbf307)" style="fill: #d62728; fill-opacity: 0.99; stroke: #d62728; stroke-opacity: 0.99"/>
    <path d="M 482.592348 225.620773 
C 489.176615 225.620773 495.492095 223.004816 500.147875 218.349036 
C 504.803655 213.693255 507.419612 207.377776 507.419612 200.793508 
C 507.419612 194.209241 504.803655 187.893762 500.147875 183.237981 
C 495.492095 178.582201 489.176615 175.966244 482.592348 175.966244 
C 476.00808 175.966244 469.692601 178.582201 465.036821 183.237981 
C 460.381041 187.893762 457.765083 194.209241 457.765083 200.793508 
C 457.765083 207.377776 460.381041 213.693255 465.036821 218.349036 
C 469.692601 223.004816 476.00808 225.620773 482.592348 225.620773 
z
" clip-path="url(#p6f52dbf307)" style="fill: #d62728; fill-opacity: 0.99; stroke: #d62728; stroke-opacity: 0.99"/>
    <path d="M 429.89985 153.033287 
C 436.362182 153.033287 442.560705 150.465775 447.130264 145.896216 
C 451.699823 141.326656 454.267335 135.128134 454.267335 128.665802 
C 454.267335 122.203469 451.699823 116.004947 447.130264 111.435388 
C 442.560705 106.865828 436.362182 104.298316 429.89985 104.298316 
C 423.437517 104.298316 417.238995 106.865828 412.669436 111.435388 
C 408.099877 116.004947 405.532365 122.203469 405.532365 128.665802 
C 405.532365 135.128134 408.099877 141.326656 412.669436 145.896216 
C 417.238995 150.465775 423.437517 153.033287 429.89985 153.033287 
z
" clip-path="url(#p6f52dbf307)" style="fill: #d62728; fill-opacity: 0.99; stroke: #d62728; stroke-opacity: 0.99"/>
    <path d="M 352.264291 108.43104 
C 358.720025 108.43104 364.912217 105.866149 369.47711 101.301257 
C 374.042003 96.736364 376.606893 90.544171 376.606893 84.088438 
C 376.606893 77.632704 374.042003 71.440512 369.47711 66.875619 
C 364.912217 62.310726 358.720025 59.745836 352.264291 59.745836 
C 345.808558 59.745836 339.616365 62.310726 335.051472 66.875619 
C 330.486579 71.440512 327.921689 77.632704 327.921689 84.088438 
C 327.921689 90.544171 330.486579 96.736364 335.051472 101.301257 
C 339.616365 105.866149 345.808558 108.43104 352.264291 108.43104 
z
" clip-path="url(#p6f52dbf307)" style="fill: #d62728; fill-opacity: 0.99; stroke: #d62728; stroke-opacity: 0.99"/>
    <path d="M 263.109549 98.623737 
C 269.435838 98.623737 275.50387 96.110276 279.977232 91.636914 
C 284.450594 87.163552 286.964055 81.09552 286.964055 74.769231 
C 286.964055 68.442942 284.450594 62.374909 279.977232 57.901548 
C 275.50387 53.428186 269.435838 50.914724 263.109549 50.914724 
C 256.78326 50.914724 250.715227 53.428186 246.241865 57.901548 
C 241.768504 62.374909 239.255042 68.442942 239.255042 74.769231 
C 239.255042 81.09552 241.768504 87.163552 246.241865 91.636914 
C 250.715227 96.110276 256.78326 98.623737 263.109549 98.623737 
z
" clip-path="url(#p6f52dbf307)" style="fill: #d62728; fill-opacity: 0.99; stroke: #d62728; stroke-opacity: 0.99"/>
    <path d="M 177.851298 125.206578 
C 183.921004 125.206578 189.742928 122.795058 194.034859 118.503128 
C 198.326789 114.211197 200.738309 108.389274 200.738309 102.319567 
C 200.738309 96.249861 198.326789 90.427937 194.034859 86.136007 
C 189.742928 81.844076 183.921004 79.432556 177.851298 79.432556 
C 171.781592 79.432556 165.959668 81.844076 161.667737 86.136007 
C 157.375807 90.427937 154.964287 96.249861 154.964287 102.319567 
C 154.964287 108.389274 157.375807 114.211197 161.667737 118.503128 
C 165.959668 122.795058 171.781592 125.206578 177.851298 125.206578 
z
" clip-path="url(#p6f52dbf307)" style="fill: #d62728; fill-opacity: 0.99; stroke: #d62728; stroke-opacity: 0.99"/>
    <path d="M 111.231477 184.079647 
C 117.093505 184.079647 122.716228 181.750639 126.861308 177.60556 
C 131.006387 173.46048 133.335396 167.837757 133.335396 161.975729 
C 133.335396 156.113701 131.006387 150.490977 126.861308 146.345898 
C 122.716228 142.200818 117.093505 139.87181 111.231477 139.87181 
C 105.369449 139.87181 99.746726 142.200818 95.601646 146.345898 
C 91.456567 150.490977 89.127558 156.113701 89.127558 161.975729 
C 89.127558 167.837757 91.456567 173.46048 95.601646 177.60556 
C 99.746726 181.750639 105.369449 184.079647 111.231477 184.079647 
z
" clip-path="url(#p6f52dbf307)" style="fill: #d62728; fill-opacity: 0.99; stroke: #d62728; stroke-opacity: 0.99"/>
    <path d="M 74.769231 264.796195 
C 80.437562 264.796195 85.874495 262.544144 89.88261 258.536029 
C 93.890726 254.527913 96.142777 249.09098 96.142777 243.422649 
C 96.142777 237.754318 93.890726 232.317384 89.88261 228.309269 
C 85.874495 224.301154 80.437562 222.049102 74.769231 222.049102 
C 69.1009 222.049102 63.663966 224.301154 59.655851 228.309269 
C 55.647736 232.317384 53.395684 237.754318 53.395684 243.422649 
C 53.395684 249.09098 55.647736 254.527913 59.655851 258.536029 
C 63.663966 262.544144 69.1009 264.796195 74.769231 264.796195 
z
" clip-path="url(#p6f52dbf307)" style="fill: #d62728; fill-opacity: 0.99; stroke: #d62728; stroke-opacity: 0.99"/>
    <path d="M 74.769244 353.046638 
C 80.197752 353.046638 85.404653 350.889869 89.243188 347.051334 
C 93.081723 343.212799 95.238492 338.005898 95.238492 332.577389 
C 95.238492 327.148881 93.081723 321.94198 89.243188 318.103445 
C 85.404653 314.26491 80.197752 312.108141 74.769244 312.108141 
C 69.340736 312.108141 64.133834 314.26491 60.295299 318.103445 
C 56.456765 321.94198 54.299995 327.148881 54.299995 332.577389 
C 54.299995 338.005898 56.456765 343.212799 60.295299 347.051334 
C 64.133834 350.889869 69.340736 353.046638 74.769244 353.046638 
z
" clip-path="url(#p6f52dbf307)" style="fill: #d62728; fill-opacity: 0.99; stroke: #d62728; stroke-opacity: 0.99"/>
    <path d="M 111.23149 434.394223 
C 116.633661 434.394223 121.8153 432.247918 125.635212 428.428006 
C 129.455124 424.608094 131.601429 419.426455 131.601429 414.024284 
C 131.601429 408.622113 129.455124 403.440474 125.635212 399.620562 
C 121.8153 395.80065 116.633661 393.654345 111.23149 393.654345 
C 105.829319 393.654345 100.64768 395.80065 96.827768 399.620562 
C 93.007856 403.440474 90.861551 408.622113 90.861551 414.024284 
C 90.861551 419.426455 93.007856 424.608094 96.827768 428.428006 
C 100.64768 432.247918 105.829319 434.394223 111.23149 434.394223 
z
" clip-path="url(#p6f52dbf307)" style="fill: #d62728; fill-opacity: 0.99; stroke: #d62728; stroke-opacity: 0.99"/>
    <path d="M 177.85133 493.809466 
C 183.189609 493.809466 188.309964 491.688545 192.084697 487.913812 
C 195.85943 484.139079 197.98035 479.018724 197.98035 473.680446 
C 197.98035 468.342167 195.85943 463.221812 192.084697 459.447079 
C 188.309964 455.672346 183.189609 453.551425 177.85133 453.551425 
C 172.513052 453.551425 167.392696 455.672346 163.617963 459.447079 
C 159.843231 463.221812 157.72231 468.342167 157.72231 473.680446 
C 157.72231 479.018724 159.843231 484.139079 163.617963 487.913812 
C 167.392696 491.688545 172.513052 493.809466 177.85133 493.809466 
z
" clip-path="url(#p6f52dbf307)" style="fill: #d62728; fill-opacity: 0.99; stroke: #d62728; stroke-opacity: 0.99"/>
    <path d="M 263.109587 520.92597 
C 268.332816 520.92597 273.342817 518.85076 277.036198 515.15738 
C 280.729578 511.463999 282.804788 506.453998 282.804788 501.230769 
C 282.804788 496.007541 280.729578 490.997539 277.036198 487.304159 
C 273.342817 483.610779 268.332816 481.535568 263.109587 481.535568 
C 257.886359 481.535568 252.876357 483.610779 249.182977 487.304159 
C 245.489597 490.997539 243.414386 496.007541 243.414386 501.230769 
C 243.414386 506.453998 245.489597 511.463999 249.182977 515.15738 
C 252.876357 518.85076 257.886359 520.92597 263.109587 520.92597 
z
" clip-path="url(#p6f52dbf307)" style="fill: #d62728; fill-opacity: 0.99; stroke: #d62728; stroke-opacity: 0.99"/>
    <path d="M 352.264323 511.571453 
C 357.478191 511.571453 362.479214 509.499962 366.165975 505.813201 
C 369.852736 502.12644 371.924227 497.125417 371.924227 491.91155 
C 371.924227 486.697682 369.852736 481.696659 366.165975 478.009898 
C 362.479214 474.323137 357.478191 472.251646 352.264323 472.251646 
C 347.050456 472.251646 342.049433 474.323137 338.362672 478.009898 
C 334.675911 481.696659 332.604419 486.697682 332.604419 491.91155 
C 332.604419 497.125417 334.675911 502.12644 338.362672 505.813201 
C 342.049433 509.499962 347.050456 511.571453 352.264323 511.571453 
z
" clip-path="url(#p6f52dbf307)" style="fill: #d62728; fill-opacity: 0.99; stroke: #d62728; stroke-opacity: 0.99"/>
    <path d="M 429.899888 466.948822 
C 435.101758 466.948822 440.091272 464.882098 443.769549 461.203821 
C 447.447826 457.525544 449.514551 452.536029 449.514551 447.33416 
C 449.514551 442.132291 447.447826 437.142776 443.769549 433.464499 
C 440.091272 429.786222 435.101758 427.719498 429.899888 427.719498 
C 424.698019 427.719498 419.708505 429.786222 416.030228 433.464499 
C 412.351951 437.142776 410.285226 442.132291 410.285226 447.33416 
C 410.285226 452.536029 412.351951 457.525544 416.030228 461.203821 
C 419.708505 464.882098 424.698019 466.948822 429.899888 466.948822 
z
" clip-path="url(#p6f52dbf307)" style="fill: #d62728; fill-opacity: 0.99; stroke: #d62728; stroke-opacity: 0.99"/>
    <path d="M 482.592374 394.571376 
C 487.728009 394.571376 492.653994 392.530967 496.285437 388.899524 
C 499.91688 385.268081 501.95729 380.342096 501.95729 375.20646 
C 501.95729 370.070824 499.91688 365.144839 496.285437 361.513396 
C 492.653994 357.881953 487.728009 355.841543 482.592374 355.841543 
C 477.456738 355.841543 472.530753 357.881953 468.89931 361.513396 
C 465.267867 365.144839 463.227457 370.070824 463.227457 375.20646 
C 463.227457 380.342096 465.267867 385.268081 468.89931 388.899524 
C 472.530753 392.530967 477.456738 394.571376 482.592374 394.571376 
z
" clip-path="url(#p6f52dbf307)" style="fill: #d62728; fill-opacity: 0.99; stroke: #d62728; stroke-opacity: 0.99"/>
   </g>
   <g id="text_1">
    <g id="patch_2">
     <path d="M 476.913894 296.315156 
L 525.547644 296.315156 
L 525.547644 279.684844 
L 476.913894 279.684844 
z
" clip-path="url(#p6f52dbf307)" style="fill: #ffffff; opacity: 0.7; stroke: #000000; stroke-linejoin: miter"/>
    </g>
    <g clip-path="url(#p6f52dbf307)">
     <!-- Al Pacino -->
     <g transform="translate(480.873894 290.483437)scale(0.09 -0.09)">
      <defs>
       <path id="DejaVuSans-41" d="M 2188 4044 
L 1331 1722 
L 3047 1722 
L 2188 4044 
z
M 1831 4666 
L 2547 4666 
L 4325 0 
L 3669 0 
L 3244 1197 
L 1141 1197 
L 716 0 
L 50 0 
L 1831 4666 
z
" transform="scale(0.015625)"/>
       <path id="DejaVuSans-6c" d="M 603 4863 
L 1178 4863 
L 1178 0 
L 603 0 
L 603 4863 
z
" transform="scale(0.015625)"/>
       <path id="DejaVuSans-20" transform="scale(0.015625)"/>
       <path id="DejaVuSans-50" d="M 1259 4147 
L 1259 2394 
L 2053 2394 
Q 2494 2394 2734 2622 
Q 2975 2850 2975 3272 
Q 2975 3691 2734 3919 
Q 2494 4147 2053 4147 
L 1259 4147 
z
M 628 4666 
L 2053 4666 
Q 2838 4666 3239 4311 
Q 3641 3956 3641 3272 
Q 3641 2581 3239 2228 
Q 2838 1875 2053 1875 
L 1259 1875 
L 1259 0 
L 628 0 
L 628 4666 
z
" transform="scale(0.015625)"/>
       <path id="DejaVuSans-61" d="M 2194 1759 
Q 1497 1759 1228 1600 
Q 959 1441 959 1056 
Q 959 750 1161 570 
Q 1363 391 1709 391 
Q 2188 391 2477 730 
Q 2766 1069 2766 1631 
L 2766 1759 
L 2194 1759 
z
M 3341 1997 
L 3341 0 
L 2766 0 
L 2766 531 
Q 2569 213 2275 61 
Q 1981 -91 1556 -91 
Q 1019 -91 701 211 
Q 384 513 384 1019 
Q 384 1609 779 1909 
Q 1175 2209 1959 2209 
L 2766 2209 
L 2766 2266 
Q 2766 2663 2505 2880 
Q 2244 3097 1772 3097 
Q 1472 3097 1187 3025 
Q 903 2953 641 2809 
L 641 3341 
Q 956 3463 1253 3523 
Q 1550 3584 1831 3584 
Q 2591 3584 2966 3190 
Q 3341 2797 3341 1997 
z
" transform="scale(0.015625)"/>
       <path id="DejaVuSans-63" d="M 3122 3366 
L 3122 2828 
Q 2878 2963 2633 3030 
Q 2388 3097 2138 3097 
Q 1578 3097 1268 2742 
Q 959 2388 959 1747 
Q 959 1106 1268 751 
Q 1578 397 2138 397 
Q 2388 397 2633 464 
Q 2878 531 3122 666 
L 3122 134 
Q 2881 22 2623 -34 
Q 2366 -91 2075 -91 
Q 1284 -91 818 406 
Q 353 903 353 1747 
Q 353 2603 823 3093 
Q 1294 3584 2113 3584 
Q 2378 3584 2631 3529 
Q 2884 3475 3122 3366 
z
" transform="scale(0.015625)"/>
       <path id="DejaVuSans-69" d="M 603 3500 
L 1178 3500 
L 1178 0 
L 603 0 
L 603 3500 
z
M 603 4863 
L 1178 4863 
L 1178 4134 
L 603 4134 
L 603 4863 
z
" transform="scale(0.015625)"/>
       <path id="DejaVuSans-6e" d="M 3513 2113 
L 3513 0 
L 2938 0 
L 2938 2094 
Q 2938 2591 2744 2837 
Q 2550 3084 2163 3084 
Q 1697 3084 1428 2787 
Q 1159 2491 1159 1978 
L 1159 0 
L 581 0 
L 581 3500 
L 1159 3500 
L 1159 2956 
Q 1366 3272 1645 3428 
Q 1925 3584 2291 3584 
Q 2894 3584 3203 3211 
Q 3513 2838 3513 2113 
z
" transform="scale(0.015625)"/>
       <path id="DejaVuSans-6f" d="M 1959 3097 
Q 1497 3097 1228 2736 
Q 959 2375 959 1747 
Q 959 1119 1226 758 
Q 1494 397 1959 397 
Q 2419 397 2687 759 
Q 2956 1122 2956 1747 
Q 2956 2369 2687 2733 
Q 2419 3097 1959 3097 
z
M 1959 3584 
Q 2709 3584 3137 3096 
Q 3566 2609 3566 1747 
Q 3566 888 3137 398 
Q 2709 -91 1959 -91 
Q 1206 -91 779 398 
Q 353 888 353 1747 
Q 353 2609 779 3096 
Q 1206 3584 1959 3584 
z
" transform="scale(0.015625)"/>
      </defs>
      <use xlink:href="#DejaVuSans-41"/>
      <use xlink:href="#DejaVuSans-6c" x="68.408203"/>
      <use xlink:href="#DejaVuSans-20" x="96.191406"/>
      <use xlink:href="#DejaVuSans-50" x="127.978516"/>
      <use xlink:href="#DejaVuSans-61" x="183.78125"/>
      <use xlink:href="#DejaVuSans-63" x="245.060547"/>
      <use xlink:href="#DejaVuSans-69" x="300.041016"/>
      <use xlink:href="#DejaVuSans-6e" x="327.824219"/>
      <use xlink:href="#DejaVuSans-6f" x="391.203125"/>
     </g>
    </g>
   </g>
   <g id="text_2">
    <g id="patch_3">
     <path d="M 450.822348 209.108665 
L 514.362348 209.108665 
L 514.362348 192.478352 
L 450.822348 192.478352 
z
" clip-path="url(#p6f52dbf307)" style="fill: #ffffff; opacity: 0.7; stroke: #000000; stroke-linejoin: miter"/>
    </g>
    <g clip-path="url(#p6f52dbf307)">
     <!-- Matt Damon -->
     <g transform="translate(454.782348 203.276946)scale(0.09 -0.09)">
      <defs>
       <path id="DejaVuSans-4d" d="M 628 4666 
L 1569 4666 
L 2759 1491 
L 3956 4666 
L 4897 4666 
L 4897 0 
L 4281 0 
L 4281 4097 
L 3078 897 
L 2444 897 
L 1241 4097 
L 1241 0 
L 628 0 
L 628 4666 
z
" transform="scale(0.015625)"/>
       <path id="DejaVuSans-74" d="M 1172 4494 
L 1172 3500 
L 2356 3500 
L 2356 3053 
L 1172 3053 
L 1172 1153 
Q 1172 725 1289 603 
Q 1406 481 1766 481 
L 2356 481 
L 2356 0 
L 1766 0 
Q 1100 0 847 248 
Q 594 497 594 1153 
L 594 3053 
L 172 3053 
L 172 3500 
L 594 3500 
L 594 4494 
L 1172 4494 
z
" transform="scale(0.015625)"/>
       <path id="DejaVuSans-44" d="M 1259 4147 
L 1259 519 
L 2022 519 
Q 2988 519 3436 956 
Q 3884 1394 3884 2338 
Q 3884 3275 3436 3711 
Q 2988 4147 2022 4147 
L 1259 4147 
z
M 628 4666 
L 1925 4666 
Q 3281 4666 3915 4102 
Q 4550 3538 4550 2338 
Q 4550 1131 3912 565 
Q 3275 0 1925 0 
L 628 0 
L 628 4666 
z
" transform="scale(0.015625)"/>
       <path id="DejaVuSans-6d" d="M 3328 2828 
Q 3544 3216 3844 3400 
Q 4144 3584 4550 3584 
Q 5097 3584 5394 3201 
Q 5691 2819 5691 2113 
L 5691 0 
L 5113 0 
L 5113 2094 
Q 5113 2597 4934 2840 
Q 4756 3084 4391 3084 
Q 3944 3084 3684 2787 
Q 3425 2491 3425 1978 
L 3425 0 
L 2847 0 
L 2847 2094 
Q 2847 2600 2669 2842 
Q 2491 3084 2119 3084 
Q 1678 3084 1418 2786 
Q 1159 2488 1159 1978 
L 1159 0 
L 581 0 
L 581 3500 
L 1159 3500 
L 1159 2956 
Q 1356 3278 1631 3431 
Q 1906 3584 2284 3584 
Q 2666 3584 2933 3390 
Q 3200 3197 3328 2828 
z
" transform="scale(0.015625)"/>
      </defs>
      <use xlink:href="#DejaVuSans-4d"/>
      <use xlink:href="#DejaVuSans-61" x="86.279297"/>
      <use xlink:href="#DejaVuSans-74" x="147.558594"/>
      <use xlink:href="#DejaVuSans-74" x="186.767578"/>
      <use xlink:href="#DejaVuSans-20" x="225.976562"/>
      <use xlink:href="#DejaVuSans-44" x="257.763672"/>
      <use xlink:href="#DejaVuSans-61" x="334.765625"/>
      <use xlink:href="#DejaVuSans-6d" x="396.044922"/>
      <use xlink:href="#DejaVuSans-6f" x="493.457031"/>
      <use xlink:href="#DejaVuSans-6e" x="554.638672"/>
     </g>
    </g>
   </g>
   <g id="text_3">
    <g id="patch_4">
     <path d="M 397.042819 136.980958 
L 462.756881 136.980958 
L 462.756881 120.350645 
L 397.042819 120.350645 
z
" clip-path="url(#p6f52dbf307)" style="fill: #ffffff; opacity: 0.7; stroke: #000000; stroke-linejoin: miter"/>
    </g>
    <g clip-path="url(#p6f52dbf307)">
     <!-- Don Cheadle -->
     <g transform="translate(401.002819 131.149239)scale(0.09 -0.09)">
      <defs>
       <path id="DejaVuSans-43" d="M 4122 4306 
L 4122 3641 
Q 3803 3938 3442 4084 
Q 3081 4231 2675 4231 
Q 1875 4231 1450 3742 
Q 1025 3253 1025 2328 
Q 1025 1406 1450 917 
Q 1875 428 2675 428 
Q 3081 428 3442 575 
Q 3803 722 4122 1019 
L 4122 359 
Q 3791 134 3420 21 
Q 3050 -91 2638 -91 
Q 1578 -91 968 557 
Q 359 1206 359 2328 
Q 359 3453 968 4101 
Q 1578 4750 2638 4750 
Q 3056 4750 3426 4639 
Q 3797 4528 4122 4306 
z
" transform="scale(0.015625)"/>
       <path id="DejaVuSans-68" d="M 3513 2113 
L 3513 0 
L 2938 0 
L 2938 2094 
Q 2938 2591 2744 2837 
Q 2550 3084 2163 3084 
Q 1697 3084 1428 2787 
Q 1159 2491 1159 1978 
L 1159 0 
L 581 0 
L 581 4863 
L 1159 4863 
L 1159 2956 
Q 1366 3272 1645 3428 
Q 1925 3584 2291 3584 
Q 2894 3584 3203 3211 
Q 3513 2838 3513 2113 
z
" transform="scale(0.015625)"/>
       <path id="DejaVuSans-65" d="M 3597 1894 
L 3597 1613 
L 953 1613 
Q 991 1019 1311 708 
Q 1631 397 2203 397 
Q 2534 397 2845 478 
Q 3156 559 3463 722 
L 3463 178 
Q 3153 47 2828 -22 
Q 2503 -91 2169 -91 
Q 1331 -91 842 396 
Q 353 884 353 1716 
Q 353 2575 817 3079 
Q 1281 3584 2069 3584 
Q 2775 3584 3186 3129 
Q 3597 2675 3597 1894 
z
M 3022 2063 
Q 3016 2534 2758 2815 
Q 2500 3097 2075 3097 
Q 1594 3097 1305 2825 
Q 1016 2553 972 2059 
L 3022 2063 
z
" transform="scale(0.015625)"/>
       <path id="DejaVuSans-64" d="M 2906 2969 
L 2906 4863 
L 3481 4863 
L 3481 0 
L 2906 0 
L 2906 525 
Q 2725 213 2448 61 
Q 2172 -91 1784 -91 
Q 1150 -91 751 415 
Q 353 922 353 1747 
Q 353 2572 751 3078 
Q 1150 3584 1784 3584 
Q 2172 3584 2448 3432 
Q 2725 3281 2906 2969 
z
M 947 1747 
Q 947 1113 1208 752 
Q 1469 391 1925 391 
Q 2381 391 2643 752 
Q 2906 1113 2906 1747 
Q 2906 2381 2643 2742 
Q 2381 3103 1925 3103 
Q 1469 3103 1208 2742 
Q 947 2381 947 1747 
z
" transform="scale(0.015625)"/>
      </defs>
      <use xlink:href="#DejaVuSans-44"/>
      <use xlink:href="#DejaVuSans-6f" x="77.001953"/>
      <use xlink:href="#DejaVuSans-6e" x="138.183594"/>
      <use xlink:href="#DejaVuSans-20" x="201.5625"/>
      <use xlink:href="#DejaVuSans-43" x="233.349609"/>
      <use xlink:href="#DejaVuSans-68" x="303.173828"/>
      <use xlink:href="#DejaVuSans-65" x="366.552734"/>
      <use xlink:href="#DejaVuSans-61" x="428.076172"/>
      <use xlink:href="#DejaVuSans-64" x="489.355469"/>
      <use xlink:href="#DejaVuSans-6c" x="552.832031"/>
      <use xlink:href="#DejaVuSans-65" x="580.615234"/>
     </g>
    </g>
   </g>
   <g id="text_4">
    <g id="patch_5">
     <path d="M 323.546557 92.403594 
L 380.982026 92.403594 
L 380.982026 75.773281 
L 323.546557 75.773281 
z
" clip-path="url(#p6f52dbf307)" style="fill: #ffffff; opacity: 0.7; stroke: #000000; stroke-linejoin: miter"/>
    </g>
    <g clip-path="url(#p6f52dbf307)">
     <!-- Tom Cruise -->
     <g transform="translate(327.506557 86.571875)scale(0.09 -0.09)">
      <defs>
       <path id="DejaVuSans-54" d="M -19 4666 
L 3928 4666 
L 3928 4134 
L 2272 4134 
L 2272 0 
L 1638 0 
L 1638 4134 
L -19 4134 
L -19 4666 
z
" transform="scale(0.015625)"/>
       <path id="DejaVuSans-72" d="M 2631 2963 
Q 2534 3019 2420 3045 
Q 2306 3072 2169 3072 
Q 1681 3072 1420 2755 
Q 1159 2438 1159 1844 
L 1159 0 
L 581 0 
L 581 3500 
L 1159 3500 
L 1159 2956 
Q 1341 3275 1631 3429 
Q 1922 3584 2338 3584 
Q 2397 3584 2469 3576 
Q 2541 3569 2628 3553 
L 2631 2963 
z
" transform="scale(0.015625)"/>
       <path id="DejaVuSans-75" d="M 544 1381 
L 544 3500 
L 1119 3500 
L 1119 1403 
Q 1119 906 1312 657 
Q 1506 409 1894 409 
Q 2359 409 2629 706 
Q 2900 1003 2900 1516 
L 2900 3500 
L 3475 3500 
L 3475 0 
L 2900 0 
L 2900 538 
Q 2691 219 2414 64 
Q 2138 -91 1772 -91 
Q 1169 -91 856 284 
Q 544 659 544 1381 
z
M 1991 3584 
L 1991 3584 
z
" transform="scale(0.015625)"/>
       <path id="DejaVuSans-73" d="M 2834 3397 
L 2834 2853 
Q 2591 2978 2328 3040 
Q 2066 3103 1784 3103 
Q 1356 3103 1142 2972 
Q 928 2841 928 2578 
Q 928 2378 1081 2264 
Q 1234 2150 1697 2047 
L 1894 2003 
Q 2506 1872 2764 1633 
Q 3022 1394 3022 966 
Q 3022 478 2636 193 
Q 2250 -91 1575 -91 
Q 1294 -91 989 -36 
Q 684 19 347 128 
L 347 722 
Q 666 556 975 473 
Q 1284 391 1588 391 
Q 1994 391 2212 530 
Q 2431 669 2431 922 
Q 2431 1156 2273 1281 
Q 2116 1406 1581 1522 
L 1381 1569 
Q 847 1681 609 1914 
Q 372 2147 372 2553 
Q 372 3047 722 3315 
Q 1072 3584 1716 3584 
Q 2034 3584 2315 3537 
Q 2597 3491 2834 3397 
z
" transform="scale(0.015625)"/>
      </defs>
      <use xlink:href="#DejaVuSans-54"/>
      <use xlink:href="#DejaVuSans-6f" x="44.083984"/>
      <use xlink:href="#DejaVuSans-6d" x="105.265625"/>
      <use xlink:href="#DejaVuSans-20" x="202.677734"/>
      <use xlink:href="#DejaVuSans-43" x="234.464844"/>
      <use xlink:href="#DejaVuSans-72" x="304.289062"/>
      <use xlink:href="#DejaVuSans-75" x="345.402344"/>
      <use xlink:href="#DejaVuSans-69" x="408.78125"/>
      <use xlink:href="#DejaVuSans-73" x="436.564453"/>
      <use xlink:href="#DejaVuSans-65" x="488.664062"/>
     </g>
    </g>
   </g>
   <g id="text_5">
    <g id="patch_6">
     <path d="M 229.997283 83.084387 
L 296.221814 83.084387 
L 296.221814 66.454075 
L 229.997283 66.454075 
z
" clip-path="url(#p6f52dbf307)" style="fill: #ffffff; opacity: 0.7; stroke: #000000; stroke-linejoin: miter"/>
    </g>
    <g clip-path="url(#p6f52dbf307)">
     <!-- Nicolas Cage -->
     <g transform="translate(233.957283 77.252668)scale(0.09 -0.09)">
      <defs>
       <path id="DejaVuSans-4e" d="M 628 4666 
L 1478 4666 
L 3547 763 
L 3547 4666 
L 4159 4666 
L 4159 0 
L 3309 0 
L 1241 3903 
L 1241 0 
L 628 0 
L 628 4666 
z
" transform="scale(0.015625)"/>
       <path id="DejaVuSans-67" d="M 2906 1791 
Q 2906 2416 2648 2759 
Q 2391 3103 1925 3103 
Q 1463 3103 1205 2759 
Q 947 2416 947 1791 
Q 947 1169 1205 825 
Q 1463 481 1925 481 
Q 2391 481 2648 825 
Q 2906 1169 2906 1791 
z
M 3481 434 
Q 3481 -459 3084 -895 
Q 2688 -1331 1869 -1331 
Q 1566 -1331 1297 -1286 
Q 1028 -1241 775 -1147 
L 775 -588 
Q 1028 -725 1275 -790 
Q 1522 -856 1778 -856 
Q 2344 -856 2625 -561 
Q 2906 -266 2906 331 
L 2906 616 
Q 2728 306 2450 153 
Q 2172 0 1784 0 
Q 1141 0 747 490 
Q 353 981 353 1791 
Q 353 2603 747 3093 
Q 1141 3584 1784 3584 
Q 2172 3584 2450 3431 
Q 2728 3278 2906 2969 
L 2906 3500 
L 3481 3500 
L 3481 434 
z
" transform="scale(0.015625)"/>
      </defs>
      <use xlink:href="#DejaVuSans-4e"/>
      <use xlink:href="#DejaVuSans-69" x="74.804688"/>
      <use xlink:href="#DejaVuSans-63" x="102.587891"/>
      <use xlink:href="#DejaVuSans-6f" x="157.568359"/>
      <use xlink:href="#DejaVuSans-6c" x="218.75"/>
      <use xlink:href="#DejaVuSans-61" x="246.533203"/>
      <use xlink:href="#DejaVuSans-73" x="307.8125"/>
      <use xlink:href="#DejaVuSans-20" x="359.912109"/>
      <use xlink:href="#DejaVuSans-43" x="391.699219"/>
      <use xlink:href="#DejaVuSans-61" x="461.523438"/>
      <use xlink:href="#DejaVuSans-67" x="522.802734"/>
      <use xlink:href="#DejaVuSans-65" x="586.279297"/>
     </g>
    </g>
   </g>
   <g id="text_6">
    <g id="patch_7">
     <path d="M 140.760751 110.634724 
L 214.941845 110.634724 
L 214.941845 94.004411 
L 140.760751 94.004411 
z
" clip-path="url(#p6f52dbf307)" style="fill: #ffffff; opacity: 0.7; stroke: #000000; stroke-linejoin: miter"/>
    </g>
    <g clip-path="url(#p6f52dbf307)">
     <!-- Robert De Niro -->
     <g transform="translate(144.720751 104.803005)scale(0.09 -0.09)">
      <defs>
       <path id="DejaVuSans-52" d="M 2841 2188 
Q 3044 2119 3236 1894 
Q 3428 1669 3622 1275 
L 4263 0 
L 3584 0 
L 2988 1197 
Q 2756 1666 2539 1819 
Q 2322 1972 1947 1972 
L 1259 1972 
L 1259 0 
L 628 0 
L 628 4666 
L 2053 4666 
Q 2853 4666 3247 4331 
Q 3641 3997 3641 3322 
Q 3641 2881 3436 2590 
Q 3231 2300 2841 2188 
z
M 1259 4147 
L 1259 2491 
L 2053 2491 
Q 2509 2491 2742 2702 
Q 2975 2913 2975 3322 
Q 2975 3731 2742 3939 
Q 2509 4147 2053 4147 
L 1259 4147 
z
" transform="scale(0.015625)"/>
       <path id="DejaVuSans-62" d="M 3116 1747 
Q 3116 2381 2855 2742 
Q 2594 3103 2138 3103 
Q 1681 3103 1420 2742 
Q 1159 2381 1159 1747 
Q 1159 1113 1420 752 
Q 1681 391 2138 391 
Q 2594 391 2855 752 
Q 3116 1113 3116 1747 
z
M 1159 2969 
Q 1341 3281 1617 3432 
Q 1894 3584 2278 3584 
Q 2916 3584 3314 3078 
Q 3713 2572 3713 1747 
Q 3713 922 3314 415 
Q 2916 -91 2278 -91 
Q 1894 -91 1617 61 
Q 1341 213 1159 525 
L 1159 0 
L 581 0 
L 581 4863 
L 1159 4863 
L 1159 2969 
z
" transform="scale(0.015625)"/>
      </defs>
      <use xlink:href="#DejaVuSans-52"/>
      <use xlink:href="#DejaVuSans-6f" x="64.982422"/>
      <use xlink:href="#DejaVuSans-62" x="126.164062"/>
      <use xlink:href="#DejaVuSans-65" x="189.640625"/>
      <use xlink:href="#DejaVuSans-72" x="251.164062"/>
      <use xlink:href="#DejaVuSans-74" x="292.277344"/>
      <use xlink:href="#DejaVuSans-20" x="331.486328"/>
      <use xlink:href="#DejaVuSans-44" x="363.273438"/>
      <use xlink:href="#DejaVuSans-65" x="440.275391"/>
      <use xlink:href="#DejaVuSans-20" x="501.798828"/>
      <use xlink:href="#DejaVuSans-4e" x="533.585938"/>
      <use xlink:href="#DejaVuSans-69" x="608.390625"/>
      <use xlink:href="#DejaVuSans-72" x="636.173828"/>
      <use xlink:href="#DejaVuSans-6f" x="675.037109"/>
     </g>
    </g>
   </g>
   <g id="text_7">
    <g id="patch_8">
     <path d="M 81.11593 170.290885 
L 141.347024 170.290885 
L 141.347024 153.660572 
L 81.11593 153.660572 
z
" clip-path="url(#p6f52dbf307)" style="fill: #ffffff; opacity: 0.7; stroke: #000000; stroke-linejoin: miter"/>
    </g>
    <g clip-path="url(#p6f52dbf307)">
     <!-- Bruce Willis -->
     <g transform="translate(85.07593 164.459166)scale(0.09 -0.09)">
      <defs>
       <path id="DejaVuSans-42" d="M 1259 2228 
L 1259 519 
L 2272 519 
Q 2781 519 3026 730 
Q 3272 941 3272 1375 
Q 3272 1813 3026 2020 
Q 2781 2228 2272 2228 
L 1259 2228 
z
M 1259 4147 
L 1259 2741 
L 2194 2741 
Q 2656 2741 2882 2914 
Q 3109 3088 3109 3444 
Q 3109 3797 2882 3972 
Q 2656 4147 2194 4147 
L 1259 4147 
z
M 628 4666 
L 2241 4666 
Q 2963 4666 3353 4366 
Q 3744 4066 3744 3513 
Q 3744 3084 3544 2831 
Q 3344 2578 2956 2516 
Q 3422 2416 3680 2098 
Q 3938 1781 3938 1306 
Q 3938 681 3513 340 
Q 3088 0 2303 0 
L 628 0 
L 628 4666 
z
" transform="scale(0.015625)"/>
       <path id="DejaVuSans-57" d="M 213 4666 
L 850 4666 
L 1831 722 
L 2809 4666 
L 3519 4666 
L 4500 722 
L 5478 4666 
L 6119 4666 
L 4947 0 
L 4153 0 
L 3169 4050 
L 2175 0 
L 1381 0 
L 213 4666 
z
" transform="scale(0.015625)"/>
      </defs>
      <use xlink:href="#DejaVuSans-42"/>
      <use xlink:href="#DejaVuSans-72" x="68.603516"/>
      <use xlink:href="#DejaVuSans-75" x="109.716797"/>
      <use xlink:href="#DejaVuSans-63" x="173.095703"/>
      <use xlink:href="#DejaVuSans-65" x="228.076172"/>
      <use xlink:href="#DejaVuSans-20" x="289.599609"/>
      <use xlink:href="#DejaVuSans-57" x="321.386719"/>
      <use xlink:href="#DejaVuSans-69" x="418.013672"/>
      <use xlink:href="#DejaVuSans-6c" x="445.796875"/>
      <use xlink:href="#DejaVuSans-6c" x="473.580078"/>
      <use xlink:href="#DejaVuSans-69" x="501.363281"/>
      <use xlink:href="#DejaVuSans-73" x="529.146484"/>
     </g>
    </g>
   </g>
   <g id="text_8">
    <g id="patch_9">
     <path d="M 30.027981 251.737805 
L 119.510481 251.737805 
L 119.510481 235.107493 
L 30.027981 235.107493 
z
" clip-path="url(#p6f52dbf307)" style="fill: #ffffff; opacity: 0.7; stroke: #000000; stroke-linejoin: miter"/>
    </g>
    <g clip-path="url(#p6f52dbf307)">
     <!-- Samuel L. Jackson -->
     <g transform="translate(33.987981 245.906086)scale(0.09 -0.09)">
      <defs>
       <path id="DejaVuSans-53" d="M 3425 4513 
L 3425 3897 
Q 3066 4069 2747 4153 
Q 2428 4238 2131 4238 
Q 1616 4238 1336 4038 
Q 1056 3838 1056 3469 
Q 1056 3159 1242 3001 
Q 1428 2844 1947 2747 
L 2328 2669 
Q 3034 2534 3370 2195 
Q 3706 1856 3706 1288 
Q 3706 609 3251 259 
Q 2797 -91 1919 -91 
Q 1588 -91 1214 -16 
Q 841 59 441 206 
L 441 856 
Q 825 641 1194 531 
Q 1563 422 1919 422 
Q 2459 422 2753 634 
Q 3047 847 3047 1241 
Q 3047 1584 2836 1778 
Q 2625 1972 2144 2069 
L 1759 2144 
Q 1053 2284 737 2584 
Q 422 2884 422 3419 
Q 422 4038 858 4394 
Q 1294 4750 2059 4750 
Q 2388 4750 2728 4690 
Q 3069 4631 3425 4513 
z
" transform="scale(0.015625)"/>
       <path id="DejaVuSans-4c" d="M 628 4666 
L 1259 4666 
L 1259 531 
L 3531 531 
L 3531 0 
L 628 0 
L 628 4666 
z
" transform="scale(0.015625)"/>
       <path id="DejaVuSans-2e" d="M 684 794 
L 1344 794 
L 1344 0 
L 684 0 
L 684 794 
z
" transform="scale(0.015625)"/>
       <path id="DejaVuSans-4a" d="M 628 4666 
L 1259 4666 
L 1259 325 
Q 1259 -519 939 -900 
Q 619 -1281 -91 -1281 
L -331 -1281 
L -331 -750 
L -134 -750 
Q 284 -750 456 -515 
Q 628 -281 628 325 
L 628 4666 
z
" transform="scale(0.015625)"/>
       <path id="DejaVuSans-6b" d="M 581 4863 
L 1159 4863 
L 1159 1991 
L 2875 3500 
L 3609 3500 
L 1753 1863 
L 3688 0 
L 2938 0 
L 1159 1709 
L 1159 0 
L 581 0 
L 581 4863 
z
" transform="scale(0.015625)"/>
      </defs>
      <use xlink:href="#DejaVuSans-53"/>
      <use xlink:href="#DejaVuSans-61" x="63.476562"/>
      <use xlink:href="#DejaVuSans-6d" x="124.755859"/>
      <use xlink:href="#DejaVuSans-75" x="222.167969"/>
      <use xlink:href="#DejaVuSans-65" x="285.546875"/>
      <use xlink:href="#DejaVuSans-6c" x="347.070312"/>
      <use xlink:href="#DejaVuSans-20" x="374.853516"/>
      <use xlink:href="#DejaVuSans-4c" x="406.640625"/>
      <use xlink:href="#DejaVuSans-2e" x="462.353516"/>
      <use xlink:href="#DejaVuSans-20" x="494.140625"/>
      <use xlink:href="#DejaVuSans-4a" x="525.927734"/>
      <use xlink:href="#DejaVuSans-61" x="555.419922"/>
      <use xlink:href="#DejaVuSans-63" x="616.699219"/>
      <use xlink:href="#DejaVuSans-6b" x="671.679688"/>
      <use xlink:href="#DejaVuSans-73" x="729.589844"/>
      <use xlink:href="#DejaVuSans-6f" x="781.689453"/>
      <use xlink:href="#DejaVuSans-6e" x="842.871094"/>
     </g>
    </g>
   </g>
   <g id="text_9">
    <g id="patch_10">
     <path d="M 27.467915 340.892546 
L 122.070572 340.892546 
L 122.070572 324.262233 
L 27.467915 324.262233 
z
" clip-path="url(#p6f52dbf307)" style="fill: #ffffff; opacity: 0.7; stroke: #000000; stroke-linejoin: miter"/>
    </g>
    <g clip-path="url(#p6f52dbf307)">
     <!-- Denzel Washington -->
     <g transform="translate(31.427915 335.060827)scale(0.09 -0.09)">
      <defs>
       <path id="DejaVuSans-7a" d="M 353 3500 
L 3084 3500 
L 3084 2975 
L 922 459 
L 3084 459 
L 3084 0 
L 275 0 
L 275 525 
L 2438 3041 
L 353 3041 
L 353 3500 
z
" transform="scale(0.015625)"/>
      </defs>
      <use xlink:href="#DejaVuSans-44"/>
      <use xlink:href="#DejaVuSans-65" x="77.001953"/>
      <use xlink:href="#DejaVuSans-6e" x="138.525391"/>
      <use xlink:href="#DejaVuSans-7a" x="201.904297"/>
      <use xlink:href="#DejaVuSans-65" x="254.394531"/>
      <use xlink:href="#DejaVuSans-6c" x="315.917969"/>
      <use xlink:href="#DejaVuSans-20" x="343.701172"/>
      <use xlink:href="#DejaVuSans-57" x="375.488281"/>
      <use xlink:href="#DejaVuSans-61" x="467.990234"/>
      <use xlink:href="#DejaVuSans-73" x="529.269531"/>
      <use xlink:href="#DejaVuSans-68" x="581.369141"/>
      <use xlink:href="#DejaVuSans-69" x="644.748047"/>
      <use xlink:href="#DejaVuSans-6e" x="672.53125"/>
      <use xlink:href="#DejaVuSans-67" x="735.910156"/>
      <use xlink:href="#DejaVuSans-74" x="799.386719"/>
      <use xlink:href="#DejaVuSans-6f" x="838.595703"/>
      <use xlink:href="#DejaVuSans-6e" x="899.777344"/>
     </g>
    </g>
   </g>
   <g id="text_10">
    <g id="patch_11">
     <path d="M 64.67688 422.33944 
L 157.786099 422.33944 
L 157.786099 405.709128 
L 64.67688 405.709128 
z
" clip-path="url(#p6f52dbf307)" style="fill: #ffffff; opacity: 0.7; stroke: #000000; stroke-linejoin: miter"/>
    </g>
    <g clip-path="url(#p6f52dbf307)">
     <!-- Desmond Llewelyn -->
     <g transform="translate(68.63688 416.507722)scale(0.09 -0.09)">
      <defs>
       <path id="DejaVuSans-77" d="M 269 3500 
L 844 3500 
L 1563 769 
L 2278 3500 
L 2956 3500 
L 3675 769 
L 4391 3500 
L 4966 3500 
L 4050 0 
L 3372 0 
L 2619 2869 
L 1863 0 
L 1184 0 
L 269 3500 
z
" transform="scale(0.015625)"/>
       <path id="DejaVuSans-79" d="M 2059 -325 
Q 1816 -950 1584 -1140 
Q 1353 -1331 966 -1331 
L 506 -1331 
L 506 -850 
L 844 -850 
Q 1081 -850 1212 -737 
Q 1344 -625 1503 -206 
L 1606 56 
L 191 3500 
L 800 3500 
L 1894 763 
L 2988 3500 
L 3597 3500 
L 2059 -325 
z
" transform="scale(0.015625)"/>
      </defs>
      <use xlink:href="#DejaVuSans-44"/>
      <use xlink:href="#DejaVuSans-65" x="77.001953"/>
      <use xlink:href="#DejaVuSans-73" x="138.525391"/>
      <use xlink:href="#DejaVuSans-6d" x="190.625"/>
      <use xlink:href="#DejaVuSans-6f" x="288.037109"/>
      <use xlink:href="#DejaVuSans-6e" x="349.21875"/>
      <use xlink:href="#DejaVuSans-64" x="412.597656"/>
      <use xlink:href="#DejaVuSans-20" x="476.074219"/>
      <use xlink:href="#DejaVuSans-4c" x="507.861328"/>
      <use xlink:href="#DejaVuSans-6c" x="563.574219"/>
      <use xlink:href="#DejaVuSans-65" x="591.357422"/>
      <use xlink:href="#DejaVuSans-77" x="652.880859"/>
      <use xlink:href="#DejaVuSans-65" x="734.667969"/>
      <use xlink:href="#DejaVuSans-6c" x="796.191406"/>
      <use xlink:href="#DejaVuSans-79" x="823.974609"/>
      <use xlink:href="#DejaVuSans-6e" x="883.154297"/>
     </g>
    </g>
   </g>
   <g id="text_11">
    <g id="patch_12">
     <path d="M 144.795315 481.995602 
L 210.907346 481.995602 
L 210.907346 465.365289 
L 144.795315 465.365289 
z
" clip-path="url(#p6f52dbf307)" style="fill: #ffffff; opacity: 0.7; stroke: #000000; stroke-linejoin: miter"/>
    </g>
    <g clip-path="url(#p6f52dbf307)">
     <!-- John Travolta -->
     <g transform="translate(148.755315 476.163883)scale(0.09 -0.09)">
      <defs>
       <path id="DejaVuSans-76" d="M 191 3500 
L 800 3500 
L 1894 563 
L 2988 3500 
L 3597 3500 
L 2284 0 
L 1503 0 
L 191 3500 
z
" transform="scale(0.015625)"/>
      </defs>
      <use xlink:href="#DejaVuSans-4a"/>
      <use xlink:href="#DejaVuSans-6f" x="29.492188"/>
      <use xlink:href="#DejaVuSans-68" x="90.673828"/>
      <use xlink:href="#DejaVuSans-6e" x="154.052734"/>
      <use xlink:href="#DejaVuSans-20" x="217.431641"/>
      <use xlink:href="#DejaVuSans-54" x="249.21875"/>
      <use xlink:href="#DejaVuSans-72" x="295.552734"/>
      <use xlink:href="#DejaVuSans-61" x="336.666016"/>
      <use xlink:href="#DejaVuSans-76" x="397.945312"/>
      <use xlink:href="#DejaVuSans-6f" x="457.125"/>
      <use xlink:href="#DejaVuSans-6c" x="518.306641"/>
      <use xlink:href="#DejaVuSans-74" x="546.089844"/>
      <use xlink:href="#DejaVuSans-61" x="585.298828"/>
     </g>
    </g>
   </g>
   <g id="text_12">
    <g id="patch_13">
     <path d="M 233.1874 509.545925 
L 293.031775 509.545925 
L 293.031775 492.915613 
L 233.1874 492.915613 
z
" clip-path="url(#p6f52dbf307)" style="fill: #ffffff; opacity: 0.7; stroke: #000000; stroke-linejoin: miter"/>
    </g>
    <g clip-path="url(#p6f52dbf307)">
     <!-- Rene Russo -->
     <g transform="translate(237.1474 503.714207)scale(0.09 -0.09)">
      <use xlink:href="#DejaVuSans-52"/>
      <use xlink:href="#DejaVuSans-65" x="64.982422"/>
      <use xlink:href="#DejaVuSans-6e" x="126.505859"/>
      <use xlink:href="#DejaVuSans-65" x="189.884766"/>
      <use xlink:href="#DejaVuSans-20" x="251.408203"/>
      <use xlink:href="#DejaVuSans-52" x="283.195312"/>
      <use xlink:href="#DejaVuSans-75" x="348.177734"/>
      <use xlink:href="#DejaVuSans-73" x="411.556641"/>
      <use xlink:href="#DejaVuSans-73" x="463.65625"/>
      <use xlink:href="#DejaVuSans-6f" x="515.755859"/>
     </g>
    </g>
   </g>
   <g id="text_13">
    <g id="patch_14">
     <path d="M 320.072448 500.226706 
L 384.456198 500.226706 
L 384.456198 483.596393 
L 320.072448 483.596393 
z
" clip-path="url(#p6f52dbf307)" style="fill: #ffffff; opacity: 0.7; stroke: #000000; stroke-linejoin: miter"/>
    </g>
    <g clip-path="url(#p6f52dbf307)">
     <!-- Mark Ruffalo -->
     <g transform="translate(324.032448 494.394987)scale(0.09 -0.09)">
      <defs>
       <path id="DejaVuSans-66" d="M 2375 4863 
L 2375 4384 
L 1825 4384 
Q 1516 4384 1395 4259 
Q 1275 4134 1275 3809 
L 1275 3500 
L 2222 3500 
L 2222 3053 
L 1275 3053 
L 1275 0 
L 697 0 
L 697 3053 
L 147 3053 
L 147 3500 
L 697 3500 
L 697 3744 
Q 697 4328 969 4595 
Q 1241 4863 1831 4863 
L 2375 4863 
z
" transform="scale(0.015625)"/>
      </defs>
      <use xlink:href="#DejaVuSans-4d"/>
      <use xlink:href="#DejaVuSans-61" x="86.279297"/>
      <use xlink:href="#DejaVuSans-72" x="147.558594"/>
      <use xlink:href="#DejaVuSans-6b" x="188.671875"/>
      <use xlink:href="#DejaVuSans-20" x="246.582031"/>
      <use xlink:href="#DejaVuSans-52" x="278.369141"/>
      <use xlink:href="#DejaVuSans-75" x="343.351562"/>
      <use xlink:href="#DejaVuSans-66" x="406.730469"/>
      <use xlink:href="#DejaVuSans-66" x="441.935547"/>
      <use xlink:href="#DejaVuSans-61" x="477.140625"/>
      <use xlink:href="#DejaVuSans-6c" x="538.419922"/>
      <use xlink:href="#DejaVuSans-6f" x="566.203125"/>
     </g>
    </g>
   </g>
   <g id="text_14">
    <g id="patch_15">
     <path d="M 392.527388 455.649316 
L 467.272388 455.649316 
L 467.272388 439.019004 
L 392.527388 439.019004 
z
" clip-path="url(#p6f52dbf307)" style="fill: #ffffff; opacity: 0.7; stroke: #000000; stroke-linejoin: miter"/>
    </g>
    <g clip-path="url(#p6f52dbf307)">
     <!-- Steve Buscemi -->
     <g transform="translate(396.487388 449.817598)scale(0.09 -0.09)">
      <use xlink:href="#DejaVuSans-53"/>
      <use xlink:href="#DejaVuSans-74" x="63.476562"/>
      <use xlink:href="#DejaVuSans-65" x="102.685547"/>
      <use xlink:href="#DejaVuSans-76" x="164.208984"/>
      <use xlink:href="#DejaVuSans-65" x="223.388672"/>
      <use xlink:href="#DejaVuSans-20" x="284.912109"/>
      <use xlink:href="#DejaVuSans-42" x="316.699219"/>
      <use xlink:href="#DejaVuSans-75" x="385.302734"/>
      <use xlink:href="#DejaVuSans-73" x="448.681641"/>
      <use xlink:href="#DejaVuSans-63" x="500.78125"/>
      <use xlink:href="#DejaVuSans-65" x="555.761719"/>
      <use xlink:href="#DejaVuSans-6d" x="617.285156"/>
      <use xlink:href="#DejaVuSans-69" x="714.697266"/>
     </g>
    </g>
   </g>
   <g id="text_15">
    <g id="patch_16">
     <path d="M 446.586045 383.521616 
L 518.598702 383.521616 
L 518.598702 366.891303 
L 446.586045 366.891303 
z
" clip-path="url(#p6f52dbf307)" style="fill: #ffffff; opacity: 0.7; stroke: #000000; stroke-linejoin: miter"/>
    </g>
    <g clip-path="url(#p6f52dbf307)">
     <!-- Liev Schreiber -->
     <g transform="translate(450.546045 377.689897)scale(0.09 -0.09)">
      <use xlink:href="#DejaVuSans-4c"/>
      <use xlink:href="#DejaVuSans-69" x="55.712891"/>
      <use xlink:href="#DejaVuSans-65" x="83.496094"/>
      <use xlink:href="#DejaVuSans-76" x="145.019531"/>
      <use xlink:href="#DejaVuSans-20" x="204.199219"/>
      <use xlink:href="#DejaVuSans-53" x="235.986328"/>
      <use xlink:href="#DejaVuSans-63" x="299.462891"/>
      <use xlink:href="#DejaVuSans-68" x="354.443359"/>
      <use xlink:href="#DejaVuSans-72" x="417.822266"/>
      <use xlink:href="#DejaVuSans-65" x="456.685547"/>
      <use xlink:href="#DejaVuSans-69" x="518.208984"/>
      <use xlink:href="#DejaVuSans-62" x="545.992188"/>
      <use xlink:href="#DejaVuSans-65" x="609.46875"/>
      <use xlink:href="#DejaVuSans-72" x="670.992188"/>
     </g>
    </g>
   </g>
   <g id="text_16">
    <!-- Impactful actors for Thriller genre -->
    <g transform="translate(186.778125 4.8)scale(0.12 -0.12)">
     <defs>
      <path id="DejaVuSans-49" d="M 628 4666 
L 1259 4666 
L 1259 0 
L 628 0 
L 628 4666 
z
" transform="scale(0.015625)"/>
      <path id="DejaVuSans-70" d="M 1159 525 
L 1159 -1331 
L 581 -1331 
L 581 3500 
L 1159 3500 
L 1159 2969 
Q 1341 3281 1617 3432 
Q 1894 3584 2278 3584 
Q 2916 3584 3314 3078 
Q 3713 2572 3713 1747 
Q 3713 922 3314 415 
Q 2916 -91 2278 -91 
Q 1894 -91 1617 61 
Q 1341 213 1159 525 
z
M 3116 1747 
Q 3116 2381 2855 2742 
Q 2594 3103 2138 3103 
Q 1681 3103 1420 2742 
Q 1159 2381 1159 1747 
Q 1159 1113 1420 752 
Q 1681 391 2138 391 
Q 2594 391 2855 752 
Q 3116 1113 3116 1747 
z
" transform="scale(0.015625)"/>
     </defs>
     <use xlink:href="#DejaVuSans-49"/>
     <use xlink:href="#DejaVuSans-6d" x="29.492188"/>
     <use xlink:href="#DejaVuSans-70" x="126.904297"/>
     <use xlink:href="#DejaVuSans-61" x="190.380859"/>
     <use xlink:href="#DejaVuSans-63" x="251.660156"/>
     <use xlink:href="#DejaVuSans-74" x="306.640625"/>
     <use xlink:href="#DejaVuSans-66" x="345.849609"/>
     <use xlink:href="#DejaVuSans-75" x="381.054688"/>
     <use xlink:href="#DejaVuSans-6c" x="444.433594"/>
     <use xlink:href="#DejaVuSans-20" x="472.216797"/>
     <use xlink:href="#DejaVuSans-61" x="504.003906"/>
     <use xlink:href="#DejaVuSans-63" x="565.283203"/>
     <use xlink:href="#DejaVuSans-74" x="620.263672"/>
     <use xlink:href="#DejaVuSans-6f" x="659.472656"/>
     <use xlink:href="#DejaVuSans-72" x="720.654297"/>
     <use xlink:href="#DejaVuSans-73" x="761.767578"/>
     <use xlink:href="#DejaVuSans-20" x="813.867188"/>
     <use xlink:href="#DejaVuSans-66" x="845.654297"/>
     <use xlink:href="#DejaVuSans-6f" x="880.859375"/>
     <use xlink:href="#DejaVuSans-72" x="942.041016"/>
     <use xlink:href="#DejaVuSans-20" x="983.154297"/>
     <use xlink:href="#DejaVuSans-54" x="1014.941406"/>
     <use xlink:href="#DejaVuSans-68" x="1076.025391"/>
     <use xlink:href="#DejaVuSans-72" x="1139.404297"/>
     <use xlink:href="#DejaVuSans-69" x="1180.517578"/>
     <use xlink:href="#DejaVuSans-6c" x="1208.300781"/>
     <use xlink:href="#DejaVuSans-6c" x="1236.083984"/>
     <use xlink:href="#DejaVuSans-65" x="1263.867188"/>
     <use xlink:href="#DejaVuSans-72" x="1325.390625"/>
     <use xlink:href="#DejaVuSans-20" x="1366.503906"/>
     <use xlink:href="#DejaVuSans-67" x="1398.291016"/>
     <use xlink:href="#DejaVuSans-65" x="1461.767578"/>
     <use xlink:href="#DejaVuSans-6e" x="1523.291016"/>
     <use xlink:href="#DejaVuSans-72" x="1586.669922"/>
     <use xlink:href="#DejaVuSans-65" x="1625.533203"/>
    </g>
   </g>
  </g>
 </g>
 <defs>
  <clipPath id="p6f52dbf307">
   <rect x="10.8" y="10.8" width="554.4" height="554.4"/>
  </clipPath>
 </defs>
</svg>
