<?xml version="1.0" encoding="utf-8" standalone="no"?>
<!DOCTYPE svg PUBLIC "-//W3C//DTD SVG 1.1//EN"
  "http://www.w3.org/Graphics/SVG/1.1/DTD/svg11.dtd">
<svg xmlns:xlink="http://www.w3.org/1999/xlink" width="568.8pt" height="583.918125pt" viewBox="0 0 568.8 583.918125" xmlns="http://www.w3.org/2000/svg" version="1.1">
 <metadata>
  <rdf:RDF xmlns:dc="http://purl.org/dc/elements/1.1/" xmlns:cc="http://creativecommons.org/ns#" xmlns:rdf="http://www.w3.org/1999/02/22-rdf-syntax-ns#">
   <cc:Work>
    <dc:type rdf:resource="http://purl.org/dc/dcmitype/StillImage"/>
    <dc:date>2022-12-23T17:29:29.122554</dc:date>
    <dc:format>image/svg+xml</dc:format>
    <dc:creator>
     <cc:Agent>
      <dc:title>Matplotlib v3.5.2, https://matplotlib.org/</dc:title>
     </cc:Agent>
    </dc:creator>
   </cc:Work>
  </rdf:RDF>
 </metadata>
 <defs>
  <style type="text/css">*{stroke-linejoin: round; stroke-linecap: butt}</style>
 </defs>
 <g id="figure_1">
  <g id="patch_1">
   <path d="M 0 583.918125 
L 568.8 583.918125 
L 568.8 0 
L 0 0 
z
" style="fill: #ffffff"/>
  </g>
  <g id="axes_1">
   <g id="PathCollection_1">
    <path d="M 497.630769 326.904253 
C 504.893655 326.904253 511.86005 324.018678 516.995686 318.883042 
C 522.131322 313.747406 525.016897 306.781011 525.016897 299.518125 
C 525.016897 292.255239 522.131322 285.288844 516.995686 280.153208 
C 511.86005 275.017572 504.893655 272.131997 497.630769 272.131997 
C 490.367883 272.131997 483.401488 275.017572 478.265852 280.153208 
C 473.130217 285.288844 470.244641 292.255239 470.244641 299.518125 
C 470.244641 306.781011 473.130217 313.747406 478.265852 318.883042 
C 483.401488 324.018678 490.367883 326.904253 497.630769 326.904253 
z
" clip-path="url(#pc757cfab06)" style="fill: #c70039; fill-opacity: 0.99; stroke: #c70039; stroke-opacity: 0.99"/>
    <path d="M 478.992348 238.778411 
C 486.011419 238.778411 492.743953 235.989704 497.707186 231.026471 
C 502.670419 226.063238 505.459125 219.330705 505.459125 212.311633 
C 505.459125 205.292562 502.670419 198.560029 497.707186 193.596796 
C 492.743953 188.633563 486.011419 185.844856 478.992348 185.844856 
C 471.973276 185.844856 465.240743 188.633563 460.27751 193.596796 
C 455.314277 198.560029 452.52557 205.292562 452.52557 212.311633 
C 452.52557 219.330705 455.314277 226.063238 460.27751 231.026471 
C 465.240743 235.989704 471.973276 238.778411 478.992348 238.778411 
z
" clip-path="url(#pc757cfab06)" style="fill: #c70039; fill-opacity: 0.99; stroke: #c70039; stroke-opacity: 0.99"/>
    <path d="M 426.29985 165.780013 
C 433.088011 165.780013 439.599061 163.083048 444.399016 158.283093 
C 449.198971 153.483138 451.895936 146.972088 451.895936 140.183927 
C 451.895936 133.395765 449.198971 126.884715 444.399016 122.08476 
C 439.599061 117.284805 433.088011 114.58784 426.29985 114.58784 
C 419.511688 114.58784 413.000638 117.284805 408.200683 122.08476 
C 403.400728 126.884715 400.703763 133.395765 400.703763 140.183927 
C 400.703763 146.972088 403.400728 153.483138 408.200683 158.283093 
C 413.000638 163.083048 419.511688 165.780013 426.29985 165.780013 
z
" clip-path="url(#pc757cfab06)" style="fill: #c70039; fill-opacity: 0.99; stroke: #c70039; stroke-opacity: 0.99"/>
    <path d="M 348.664291 119.440989 
C 354.985255 119.440989 361.048179 116.929644 365.517776 112.460047 
C 369.987372 107.990451 372.498718 101.927526 372.498718 95.606563 
C 372.498718 89.285599 369.987372 83.222674 365.517776 78.753078 
C 361.048179 74.283482 354.985255 71.772136 348.664291 71.772136 
C 342.343327 71.772136 336.280403 74.283482 331.810807 78.753078 
C 327.34121 83.222674 324.829865 89.285599 324.829865 95.606563 
C 324.829865 101.927526 327.34121 107.990451 331.810807 112.460047 
C 336.280403 116.929644 342.343327 119.440989 348.664291 119.440989 
z
" clip-path="url(#pc757cfab06)" style="fill: #c70039; fill-opacity: 0.99; stroke: #c70039; stroke-opacity: 0.99"/>
    <path d="M 259.509549 109.621821 
C 265.697921 109.621821 271.633667 107.163154 276.009507 102.787314 
C 280.385347 98.411474 282.844014 92.475728 282.844014 86.287356 
C 282.844014 80.098983 280.385347 74.163237 276.009507 69.787397 
C 271.633667 65.411557 265.697921 62.952891 259.509549 62.952891 
C 253.321176 62.952891 247.38543 65.411557 243.00959 69.787397 
C 238.63375 74.163237 236.175083 80.098983 236.175083 86.287356 
C 236.175083 92.475728 238.63375 98.411474 243.00959 102.787314 
C 247.38543 107.163154 253.321176 109.621821 259.509549 109.621821 
z
" clip-path="url(#pc757cfab06)" style="fill: #c70039; fill-opacity: 0.99; stroke: #c70039; stroke-opacity: 0.99"/>
    <path d="M 174.251298 136.111691 
C 180.158432 136.111691 185.824419 133.764762 190.001393 129.587788 
C 194.178368 125.410814 196.525297 119.744826 196.525297 113.837692 
C 196.525297 107.930559 194.178368 102.264571 190.001393 98.087597 
C 185.824419 93.910623 180.158432 91.563694 174.251298 91.563694 
C 168.344165 91.563694 162.678177 93.910623 158.501203 98.087597 
C 154.324229 102.264571 151.9773 107.930559 151.9773 113.837692 
C 151.9773 119.744826 154.324229 125.410814 158.501203 129.587788 
C 162.678177 133.764762 168.344165 136.111691 174.251298 136.111691 
z
" clip-path="url(#pc757cfab06)" style="fill: #c70039; fill-opacity: 0.99; stroke: #c70039; stroke-opacity: 0.99"/>
    <path d="M 107.631477 195.282188 
C 113.409811 195.282188 118.952257 192.986432 123.038156 188.900533 
C 127.124055 184.814634 129.419812 179.272188 129.419812 173.493854 
C 129.419812 167.71552 127.124055 162.173074 123.038156 158.087175 
C 118.952257 154.001275 113.409811 151.705519 107.631477 151.705519 
C 101.853143 151.705519 96.310697 154.001275 92.224798 158.087175 
C 88.138899 162.173074 85.843142 167.71552 85.843142 173.493854 
C 85.843142 179.272188 88.138899 184.814634 92.224798 188.900533 
C 96.310697 192.986432 101.853143 195.282188 107.631477 195.282188 
z
" clip-path="url(#pc757cfab06)" style="fill: #c70039; fill-opacity: 0.99; stroke: #c70039; stroke-opacity: 0.99"/>
    <path d="M 71.169231 276.612643 
C 76.916678 276.612643 82.429498 274.329159 86.493557 270.2651 
C 90.557615 266.201041 92.8411 260.688221 92.8411 254.940774 
C 92.8411 249.193327 90.557615 243.680507 86.493557 239.616448 
C 82.429498 235.552389 76.916678 233.268904 71.169231 233.268904 
C 65.421784 233.268904 59.908964 235.552389 55.844905 239.616448 
C 51.780846 243.680507 49.497361 249.193327 49.497361 254.940774 
C 49.497361 260.688221 51.780846 266.201041 55.844905 270.2651 
C 59.908964 274.329159 65.421784 276.612643 71.169231 276.612643 
z
" clip-path="url(#pc757cfab06)" style="fill: #c70039; fill-opacity: 0.99; stroke: #c70039; stroke-opacity: 0.99"/>
    <path d="M 71.169244 365.533254 
C 76.854598 365.533254 82.307861 363.274438 86.328014 359.254285 
C 90.348167 355.234132 92.606983 349.780869 92.606983 344.095514 
C 92.606983 338.41016 90.348167 332.956897 86.328014 328.936744 
C 82.307861 324.916591 76.854598 322.657775 71.169244 322.657775 
C 65.483889 322.657775 60.030626 324.916591 56.010473 328.936744 
C 51.99032 332.956897 49.731505 338.41016 49.731505 344.095514 
C 49.731505 349.780869 51.99032 355.234132 56.010473 359.254285 
C 60.030626 363.274438 65.483889 365.533254 71.169244 365.533254 
z
" clip-path="url(#pc757cfab06)" style="fill: #c70039; fill-opacity: 0.99; stroke: #c70039; stroke-opacity: 0.99"/>
    <path d="M 107.63149 445.821105 
C 113.009463 445.821105 118.167892 443.684413 121.970693 439.881612 
C 125.773494 436.078811 127.910185 430.920382 127.910185 425.542409 
C 127.910185 420.164436 125.773494 415.006007 121.970693 411.203206 
C 118.167892 407.400405 113.009463 405.263714 107.63149 405.263714 
C 102.253517 405.263714 97.095088 407.400405 93.292287 411.203206 
C 89.489486 415.006007 87.352794 420.164436 87.352794 425.542409 
C 87.352794 430.920382 89.489486 436.078811 93.292287 439.881612 
C 97.095088 443.684413 102.253517 445.821105 107.63149 445.821105 
z
" clip-path="url(#pc757cfab06)" style="fill: #c70039; fill-opacity: 0.99; stroke: #c70039; stroke-opacity: 0.99"/>
    <path d="M 174.25133 505.01313 
C 179.506213 505.01313 184.546576 502.925343 188.262339 499.20958 
C 191.978103 495.493817 194.06589 490.453453 194.06589 485.198571 
C 194.06589 479.943688 191.978103 474.903324 188.262339 471.187561 
C 184.546576 467.471798 179.506213 465.384011 174.25133 465.384011 
C 168.996448 465.384011 163.956084 467.471798 160.240321 471.187561 
C 156.524558 474.903324 154.436771 479.943688 154.436771 485.198571 
C 154.436771 490.453453 156.524558 495.493817 160.240321 499.20958 
C 163.956084 502.925343 168.996448 505.01313 174.25133 505.01313 
z
" clip-path="url(#pc757cfab06)" style="fill: #c70039; fill-opacity: 0.99; stroke: #c70039; stroke-opacity: 0.99"/>
    <path d="M 259.509587 532.444393 
C 264.732895 532.444393 269.742972 530.369151 273.436408 526.675715 
C 277.129844 522.982279 279.205086 517.972202 279.205086 512.748894 
C 279.205086 507.525587 277.129844 502.515509 273.436408 498.822073 
C 269.742972 495.128637 264.732895 493.053395 259.509587 493.053395 
C 254.28628 493.053395 249.276202 495.128637 245.582766 498.822073 
C 241.88933 502.515509 239.814088 507.525587 239.814088 512.748894 
C 239.814088 517.972202 241.88933 522.982279 245.582766 526.675715 
C 249.276202 530.369151 254.28628 532.444393 259.509587 532.444393 
z
" clip-path="url(#pc757cfab06)" style="fill: #c70039; fill-opacity: 0.99; stroke: #c70039; stroke-opacity: 0.99"/>
    <path d="M 348.664323 523.063522 
C 353.871281 523.063522 358.865675 520.994776 362.54755 517.312901 
C 366.229425 513.631026 368.298171 508.636632 368.298171 503.429675 
C 368.298171 498.222717 366.229425 493.228323 362.54755 489.546448 
C 358.865675 485.864573 353.871281 483.795827 348.664323 483.795827 
C 343.457366 483.795827 338.462971 485.864573 334.781097 489.546448 
C 331.099222 493.228323 329.030476 498.222717 329.030476 503.429675 
C 329.030476 508.636632 331.099222 513.631026 334.781097 517.312901 
C 338.462971 520.994776 343.457366 523.063522 348.664323 523.063522 
z
" clip-path="url(#pc757cfab06)" style="fill: #c70039; fill-opacity: 0.99; stroke: #c70039; stroke-opacity: 0.99"/>
    <path d="M 426.299888 478.481861 
C 431.505713 478.481861 436.499021 476.413565 440.180095 472.732491 
C 443.861168 469.051418 445.929464 464.058109 445.929464 458.852285 
C 445.929464 453.646461 443.861168 448.653152 440.180095 444.972079 
C 436.499021 441.291005 431.505713 439.222709 426.299888 439.222709 
C 421.094064 439.222709 416.100756 441.291005 412.419682 444.972079 
C 408.738608 448.653152 406.670312 453.646461 406.670312 458.852285 
C 406.670312 464.058109 408.738608 469.051418 412.419682 472.732491 
C 416.100756 476.413565 421.094064 478.481861 426.299888 478.481861 
z
" clip-path="url(#pc757cfab06)" style="fill: #c70039; fill-opacity: 0.99; stroke: #c70039; stroke-opacity: 0.99"/>
    <path d="M 478.992374 406.089501 
C 484.128009 406.089501 489.053994 404.049092 492.685437 400.417649 
C 496.31688 396.786206 498.35729 391.860221 498.35729 386.724585 
C 498.35729 381.588949 496.31688 376.662964 492.685437 373.031521 
C 489.053994 369.400078 484.128009 367.359668 478.992374 367.359668 
C 473.856738 367.359668 468.930753 369.400078 465.29931 373.031521 
C 461.667867 376.662964 459.627457 381.588949 459.627457 386.724585 
C 459.627457 391.860221 461.667867 396.786206 465.29931 400.417649 
C 468.930753 404.049092 473.856738 406.089501 478.992374 406.089501 
z
" clip-path="url(#pc757cfab06)" style="fill: #c70039; fill-opacity: 0.99; stroke: #c70039; stroke-opacity: 0.99"/>
   </g>
   <g id="text_1">
    <g id="patch_2">
     <path d="M 460.540222 307.833281 
L 534.721316 307.833281 
L 534.721316 291.202969 
L 460.540222 291.202969 
z
" clip-path="url(#pc757cfab06)" style="fill: #ffffff; opacity: 0.7; stroke: #000000; stroke-linejoin: miter"/>
    </g>
    <g clip-path="url(#pc757cfab06)">
     <!-- Robert De Niro -->
     <g transform="translate(464.500222 302.001562)scale(0.09 -0.09)">
      <defs>
       <path id="DejaVuSans-52" d="M 2841 2188 
Q 3044 2119 3236 1894 
Q 3428 1669 3622 1275 
L 4263 0 
L 3584 0 
L 2988 1197 
Q 2756 1666 2539 1819 
Q 2322 1972 1947 1972 
L 1259 1972 
L 1259 0 
L 628 0 
L 628 4666 
L 2053 4666 
Q 2853 4666 3247 4331 
Q 3641 3997 3641 3322 
Q 3641 2881 3436 2590 
Q 3231 2300 2841 2188 
z
M 1259 4147 
L 1259 2491 
L 2053 2491 
Q 2509 2491 2742 2702 
Q 2975 2913 2975 3322 
Q 2975 3731 2742 3939 
Q 2509 4147 2053 4147 
L 1259 4147 
z
" transform="scale(0.015625)"/>
       <path id="DejaVuSans-6f" d="M 1959 3097 
Q 1497 3097 1228 2736 
Q 959 2375 959 1747 
Q 959 1119 1226 758 
Q 1494 397 1959 397 
Q 2419 397 2687 759 
Q 2956 1122 2956 1747 
Q 2956 2369 2687 2733 
Q 2419 3097 1959 3097 
z
M 1959 3584 
Q 2709 3584 3137 3096 
Q 3566 2609 3566 1747 
Q 3566 888 3137 398 
Q 2709 -91 1959 -91 
Q 1206 -91 779 398 
Q 353 888 353 1747 
Q 353 2609 779 3096 
Q 1206 3584 1959 3584 
z
" transform="scale(0.015625)"/>
       <path id="DejaVuSans-62" d="M 3116 1747 
Q 3116 2381 2855 2742 
Q 2594 3103 2138 3103 
Q 1681 3103 1420 2742 
Q 1159 2381 1159 1747 
Q 1159 1113 1420 752 
Q 1681 391 2138 391 
Q 2594 391 2855 752 
Q 3116 1113 3116 1747 
z
M 1159 2969 
Q 1341 3281 1617 3432 
Q 1894 3584 2278 3584 
Q 2916 3584 3314 3078 
Q 3713 2572 3713 1747 
Q 3713 922 3314 415 
Q 2916 -91 2278 -91 
Q 1894 -91 1617 61 
Q 1341 213 1159 525 
L 1159 0 
L 581 0 
L 581 4863 
L 1159 4863 
L 1159 2969 
z
" transform="scale(0.015625)"/>
       <path id="DejaVuSans-65" d="M 3597 1894 
L 3597 1613 
L 953 1613 
Q 991 1019 1311 708 
Q 1631 397 2203 397 
Q 2534 397 2845 478 
Q 3156 559 3463 722 
L 3463 178 
Q 3153 47 2828 -22 
Q 2503 -91 2169 -91 
Q 1331 -91 842 396 
Q 353 884 353 1716 
Q 353 2575 817 3079 
Q 1281 3584 2069 3584 
Q 2775 3584 3186 3129 
Q 3597 2675 3597 1894 
z
M 3022 2063 
Q 3016 2534 2758 2815 
Q 2500 3097 2075 3097 
Q 1594 3097 1305 2825 
Q 1016 2553 972 2059 
L 3022 2063 
z
" transform="scale(0.015625)"/>
       <path id="DejaVuSans-72" d="M 2631 2963 
Q 2534 3019 2420 3045 
Q 2306 3072 2169 3072 
Q 1681 3072 1420 2755 
Q 1159 2438 1159 1844 
L 1159 0 
L 581 0 
L 581 3500 
L 1159 3500 
L 1159 2956 
Q 1341 3275 1631 3429 
Q 1922 3584 2338 3584 
Q 2397 3584 2469 3576 
Q 2541 3569 2628 3553 
L 2631 2963 
z
" transform="scale(0.015625)"/>
       <path id="DejaVuSans-74" d="M 1172 4494 
L 1172 3500 
L 2356 3500 
L 2356 3053 
L 1172 3053 
L 1172 1153 
Q 1172 725 1289 603 
Q 1406 481 1766 481 
L 2356 481 
L 2356 0 
L 1766 0 
Q 1100 0 847 248 
Q 594 497 594 1153 
L 594 3053 
L 172 3053 
L 172 3500 
L 594 3500 
L 594 4494 
L 1172 4494 
z
" transform="scale(0.015625)"/>
       <path id="DejaVuSans-20" transform="scale(0.015625)"/>
       <path id="DejaVuSans-44" d="M 1259 4147 
L 1259 519 
L 2022 519 
Q 2988 519 3436 956 
Q 3884 1394 3884 2338 
Q 3884 3275 3436 3711 
Q 2988 4147 2022 4147 
L 1259 4147 
z
M 628 4666 
L 1925 4666 
Q 3281 4666 3915 4102 
Q 4550 3538 4550 2338 
Q 4550 1131 3912 565 
Q 3275 0 1925 0 
L 628 0 
L 628 4666 
z
" transform="scale(0.015625)"/>
       <path id="DejaVuSans-4e" d="M 628 4666 
L 1478 4666 
L 3547 763 
L 3547 4666 
L 4159 4666 
L 4159 0 
L 3309 0 
L 1241 3903 
L 1241 0 
L 628 0 
L 628 4666 
z
" transform="scale(0.015625)"/>
       <path id="DejaVuSans-69" d="M 603 3500 
L 1178 3500 
L 1178 0 
L 603 0 
L 603 3500 
z
M 603 4863 
L 1178 4863 
L 1178 4134 
L 603 4134 
L 603 4863 
z
" transform="scale(0.015625)"/>
      </defs>
      <use xlink:href="#DejaVuSans-52"/>
      <use xlink:href="#DejaVuSans-6f" x="64.982422"/>
      <use xlink:href="#DejaVuSans-62" x="126.164062"/>
      <use xlink:href="#DejaVuSans-65" x="189.640625"/>
      <use xlink:href="#DejaVuSans-72" x="251.164062"/>
      <use xlink:href="#DejaVuSans-74" x="292.277344"/>
      <use xlink:href="#DejaVuSans-20" x="331.486328"/>
      <use xlink:href="#DejaVuSans-44" x="363.273438"/>
      <use xlink:href="#DejaVuSans-65" x="440.275391"/>
      <use xlink:href="#DejaVuSans-20" x="501.798828"/>
      <use xlink:href="#DejaVuSans-4e" x="533.585938"/>
      <use xlink:href="#DejaVuSans-69" x="608.390625"/>
      <use xlink:href="#DejaVuSans-72" x="636.173828"/>
      <use xlink:href="#DejaVuSans-6f" x="675.037109"/>
     </g>
    </g>
   </g>
   <g id="text_2">
    <g id="patch_3">
     <path d="M 441.619848 220.62679 
L 516.364848 220.62679 
L 516.364848 203.996477 
L 441.619848 203.996477 
z
" clip-path="url(#pc757cfab06)" style="fill: #ffffff; opacity: 0.7; stroke: #000000; stroke-linejoin: miter"/>
    </g>
    <g clip-path="url(#pc757cfab06)">
     <!-- Steve Buscemi -->
     <g transform="translate(445.579848 214.795071)scale(0.09 -0.09)">
      <defs>
       <path id="DejaVuSans-53" d="M 3425 4513 
L 3425 3897 
Q 3066 4069 2747 4153 
Q 2428 4238 2131 4238 
Q 1616 4238 1336 4038 
Q 1056 3838 1056 3469 
Q 1056 3159 1242 3001 
Q 1428 2844 1947 2747 
L 2328 2669 
Q 3034 2534 3370 2195 
Q 3706 1856 3706 1288 
Q 3706 609 3251 259 
Q 2797 -91 1919 -91 
Q 1588 -91 1214 -16 
Q 841 59 441 206 
L 441 856 
Q 825 641 1194 531 
Q 1563 422 1919 422 
Q 2459 422 2753 634 
Q 3047 847 3047 1241 
Q 3047 1584 2836 1778 
Q 2625 1972 2144 2069 
L 1759 2144 
Q 1053 2284 737 2584 
Q 422 2884 422 3419 
Q 422 4038 858 4394 
Q 1294 4750 2059 4750 
Q 2388 4750 2728 4690 
Q 3069 4631 3425 4513 
z
" transform="scale(0.015625)"/>
       <path id="DejaVuSans-76" d="M 191 3500 
L 800 3500 
L 1894 563 
L 2988 3500 
L 3597 3500 
L 2284 0 
L 1503 0 
L 191 3500 
z
" transform="scale(0.015625)"/>
       <path id="DejaVuSans-42" d="M 1259 2228 
L 1259 519 
L 2272 519 
Q 2781 519 3026 730 
Q 3272 941 3272 1375 
Q 3272 1813 3026 2020 
Q 2781 2228 2272 2228 
L 1259 2228 
z
M 1259 4147 
L 1259 2741 
L 2194 2741 
Q 2656 2741 2882 2914 
Q 3109 3088 3109 3444 
Q 3109 3797 2882 3972 
Q 2656 4147 2194 4147 
L 1259 4147 
z
M 628 4666 
L 2241 4666 
Q 2963 4666 3353 4366 
Q 3744 4066 3744 3513 
Q 3744 3084 3544 2831 
Q 3344 2578 2956 2516 
Q 3422 2416 3680 2098 
Q 3938 1781 3938 1306 
Q 3938 681 3513 340 
Q 3088 0 2303 0 
L 628 0 
L 628 4666 
z
" transform="scale(0.015625)"/>
       <path id="DejaVuSans-75" d="M 544 1381 
L 544 3500 
L 1119 3500 
L 1119 1403 
Q 1119 906 1312 657 
Q 1506 409 1894 409 
Q 2359 409 2629 706 
Q 2900 1003 2900 1516 
L 2900 3500 
L 3475 3500 
L 3475 0 
L 2900 0 
L 2900 538 
Q 2691 219 2414 64 
Q 2138 -91 1772 -91 
Q 1169 -91 856 284 
Q 544 659 544 1381 
z
M 1991 3584 
L 1991 3584 
z
" transform="scale(0.015625)"/>
       <path id="DejaVuSans-73" d="M 2834 3397 
L 2834 2853 
Q 2591 2978 2328 3040 
Q 2066 3103 1784 3103 
Q 1356 3103 1142 2972 
Q 928 2841 928 2578 
Q 928 2378 1081 2264 
Q 1234 2150 1697 2047 
L 1894 2003 
Q 2506 1872 2764 1633 
Q 3022 1394 3022 966 
Q 3022 478 2636 193 
Q 2250 -91 1575 -91 
Q 1294 -91 989 -36 
Q 684 19 347 128 
L 347 722 
Q 666 556 975 473 
Q 1284 391 1588 391 
Q 1994 391 2212 530 
Q 2431 669 2431 922 
Q 2431 1156 2273 1281 
Q 2116 1406 1581 1522 
L 1381 1569 
Q 847 1681 609 1914 
Q 372 2147 372 2553 
Q 372 3047 722 3315 
Q 1072 3584 1716 3584 
Q 2034 3584 2315 3537 
Q 2597 3491 2834 3397 
z
" transform="scale(0.015625)"/>
       <path id="DejaVuSans-63" d="M 3122 3366 
L 3122 2828 
Q 2878 2963 2633 3030 
Q 2388 3097 2138 3097 
Q 1578 3097 1268 2742 
Q 959 2388 959 1747 
Q 959 1106 1268 751 
Q 1578 397 2138 397 
Q 2388 397 2633 464 
Q 2878 531 3122 666 
L 3122 134 
Q 2881 22 2623 -34 
Q 2366 -91 2075 -91 
Q 1284 -91 818 406 
Q 353 903 353 1747 
Q 353 2603 823 3093 
Q 1294 3584 2113 3584 
Q 2378 3584 2631 3529 
Q 2884 3475 3122 3366 
z
" transform="scale(0.015625)"/>
       <path id="DejaVuSans-6d" d="M 3328 2828 
Q 3544 3216 3844 3400 
Q 4144 3584 4550 3584 
Q 5097 3584 5394 3201 
Q 5691 2819 5691 2113 
L 5691 0 
L 5113 0 
L 5113 2094 
Q 5113 2597 4934 2840 
Q 4756 3084 4391 3084 
Q 3944 3084 3684 2787 
Q 3425 2491 3425 1978 
L 3425 0 
L 2847 0 
L 2847 2094 
Q 2847 2600 2669 2842 
Q 2491 3084 2119 3084 
Q 1678 3084 1418 2786 
Q 1159 2488 1159 1978 
L 1159 0 
L 581 0 
L 581 3500 
L 1159 3500 
L 1159 2956 
Q 1356 3278 1631 3431 
Q 1906 3584 2284 3584 
Q 2666 3584 2933 3390 
Q 3200 3197 3328 2828 
z
" transform="scale(0.015625)"/>
      </defs>
      <use xlink:href="#DejaVuSans-53"/>
      <use xlink:href="#DejaVuSans-74" x="63.476562"/>
      <use xlink:href="#DejaVuSans-65" x="102.685547"/>
      <use xlink:href="#DejaVuSans-76" x="164.208984"/>
      <use xlink:href="#DejaVuSans-65" x="223.388672"/>
      <use xlink:href="#DejaVuSans-20" x="284.912109"/>
      <use xlink:href="#DejaVuSans-42" x="316.699219"/>
      <use xlink:href="#DejaVuSans-75" x="385.302734"/>
      <use xlink:href="#DejaVuSans-73" x="448.681641"/>
      <use xlink:href="#DejaVuSans-63" x="500.78125"/>
      <use xlink:href="#DejaVuSans-65" x="555.761719"/>
      <use xlink:href="#DejaVuSans-6d" x="617.285156"/>
      <use xlink:href="#DejaVuSans-69" x="714.697266"/>
     </g>
    </g>
   </g>
   <g id="text_3">
    <g id="patch_4">
     <path d="M 396.184303 148.499083 
L 456.415397 148.499083 
L 456.415397 131.86877 
L 396.184303 131.86877 
z
" clip-path="url(#pc757cfab06)" style="fill: #ffffff; opacity: 0.7; stroke: #000000; stroke-linejoin: miter"/>
    </g>
    <g clip-path="url(#pc757cfab06)">
     <!-- Bruce Willis -->
     <g transform="translate(400.144303 142.667364)scale(0.09 -0.09)">
      <defs>
       <path id="DejaVuSans-57" d="M 213 4666 
L 850 4666 
L 1831 722 
L 2809 4666 
L 3519 4666 
L 4500 722 
L 5478 4666 
L 6119 4666 
L 4947 0 
L 4153 0 
L 3169 4050 
L 2175 0 
L 1381 0 
L 213 4666 
z
" transform="scale(0.015625)"/>
       <path id="DejaVuSans-6c" d="M 603 4863 
L 1178 4863 
L 1178 0 
L 603 0 
L 603 4863 
z
" transform="scale(0.015625)"/>
      </defs>
      <use xlink:href="#DejaVuSans-42"/>
      <use xlink:href="#DejaVuSans-72" x="68.603516"/>
      <use xlink:href="#DejaVuSans-75" x="109.716797"/>
      <use xlink:href="#DejaVuSans-63" x="173.095703"/>
      <use xlink:href="#DejaVuSans-65" x="228.076172"/>
      <use xlink:href="#DejaVuSans-20" x="289.599609"/>
      <use xlink:href="#DejaVuSans-57" x="321.386719"/>
      <use xlink:href="#DejaVuSans-69" x="418.013672"/>
      <use xlink:href="#DejaVuSans-6c" x="445.796875"/>
      <use xlink:href="#DejaVuSans-6c" x="473.580078"/>
      <use xlink:href="#DejaVuSans-69" x="501.363281"/>
      <use xlink:href="#DejaVuSans-73" x="529.146484"/>
     </g>
    </g>
   </g>
   <g id="text_4">
    <g id="patch_5">
     <path d="M 315.608276 103.921719 
L 381.720307 103.921719 
L 381.720307 87.291406 
L 315.608276 87.291406 
z
" clip-path="url(#pc757cfab06)" style="fill: #ffffff; opacity: 0.7; stroke: #000000; stroke-linejoin: miter"/>
    </g>
    <g clip-path="url(#pc757cfab06)">
     <!-- John Travolta -->
     <g transform="translate(319.568276 98.09)scale(0.09 -0.09)">
      <defs>
       <path id="DejaVuSans-4a" d="M 628 4666 
L 1259 4666 
L 1259 325 
Q 1259 -519 939 -900 
Q 619 -1281 -91 -1281 
L -331 -1281 
L -331 -750 
L -134 -750 
Q 284 -750 456 -515 
Q 628 -281 628 325 
L 628 4666 
z
" transform="scale(0.015625)"/>
       <path id="DejaVuSans-68" d="M 3513 2113 
L 3513 0 
L 2938 0 
L 2938 2094 
Q 2938 2591 2744 2837 
Q 2550 3084 2163 3084 
Q 1697 3084 1428 2787 
Q 1159 2491 1159 1978 
L 1159 0 
L 581 0 
L 581 4863 
L 1159 4863 
L 1159 2956 
Q 1366 3272 1645 3428 
Q 1925 3584 2291 3584 
Q 2894 3584 3203 3211 
Q 3513 2838 3513 2113 
z
" transform="scale(0.015625)"/>
       <path id="DejaVuSans-6e" d="M 3513 2113 
L 3513 0 
L 2938 0 
L 2938 2094 
Q 2938 2591 2744 2837 
Q 2550 3084 2163 3084 
Q 1697 3084 1428 2787 
Q 1159 2491 1159 1978 
L 1159 0 
L 581 0 
L 581 3500 
L 1159 3500 
L 1159 2956 
Q 1366 3272 1645 3428 
Q 1925 3584 2291 3584 
Q 2894 3584 3203 3211 
Q 3513 2838 3513 2113 
z
" transform="scale(0.015625)"/>
       <path id="DejaVuSans-54" d="M -19 4666 
L 3928 4666 
L 3928 4134 
L 2272 4134 
L 2272 0 
L 1638 0 
L 1638 4134 
L -19 4134 
L -19 4666 
z
" transform="scale(0.015625)"/>
       <path id="DejaVuSans-61" d="M 2194 1759 
Q 1497 1759 1228 1600 
Q 959 1441 959 1056 
Q 959 750 1161 570 
Q 1363 391 1709 391 
Q 2188 391 2477 730 
Q 2766 1069 2766 1631 
L 2766 1759 
L 2194 1759 
z
M 3341 1997 
L 3341 0 
L 2766 0 
L 2766 531 
Q 2569 213 2275 61 
Q 1981 -91 1556 -91 
Q 1019 -91 701 211 
Q 384 513 384 1019 
Q 384 1609 779 1909 
Q 1175 2209 1959 2209 
L 2766 2209 
L 2766 2266 
Q 2766 2663 2505 2880 
Q 2244 3097 1772 3097 
Q 1472 3097 1187 3025 
Q 903 2953 641 2809 
L 641 3341 
Q 956 3463 1253 3523 
Q 1550 3584 1831 3584 
Q 2591 3584 2966 3190 
Q 3341 2797 3341 1997 
z
" transform="scale(0.015625)"/>
      </defs>
      <use xlink:href="#DejaVuSans-4a"/>
      <use xlink:href="#DejaVuSans-6f" x="29.492188"/>
      <use xlink:href="#DejaVuSans-68" x="90.673828"/>
      <use xlink:href="#DejaVuSans-6e" x="154.052734"/>
      <use xlink:href="#DejaVuSans-20" x="217.431641"/>
      <use xlink:href="#DejaVuSans-54" x="249.21875"/>
      <use xlink:href="#DejaVuSans-72" x="295.552734"/>
      <use xlink:href="#DejaVuSans-61" x="336.666016"/>
      <use xlink:href="#DejaVuSans-76" x="397.945312"/>
      <use xlink:href="#DejaVuSans-6f" x="457.125"/>
      <use xlink:href="#DejaVuSans-6c" x="518.306641"/>
      <use xlink:href="#DejaVuSans-74" x="546.089844"/>
      <use xlink:href="#DejaVuSans-61" x="585.298828"/>
     </g>
    </g>
   </g>
   <g id="text_5">
    <g id="patch_6">
     <path d="M 214.768299 94.602512 
L 304.250799 94.602512 
L 304.250799 77.9722 
L 214.768299 77.9722 
z
" clip-path="url(#pc757cfab06)" style="fill: #ffffff; opacity: 0.7; stroke: #000000; stroke-linejoin: miter"/>
    </g>
    <g clip-path="url(#pc757cfab06)">
     <!-- Samuel L. Jackson -->
     <g transform="translate(218.728299 88.770793)scale(0.09 -0.09)">
      <defs>
       <path id="DejaVuSans-4c" d="M 628 4666 
L 1259 4666 
L 1259 531 
L 3531 531 
L 3531 0 
L 628 0 
L 628 4666 
z
" transform="scale(0.015625)"/>
       <path id="DejaVuSans-2e" d="M 684 794 
L 1344 794 
L 1344 0 
L 684 0 
L 684 794 
z
" transform="scale(0.015625)"/>
       <path id="DejaVuSans-6b" d="M 581 4863 
L 1159 4863 
L 1159 1991 
L 2875 3500 
L 3609 3500 
L 1753 1863 
L 3688 0 
L 2938 0 
L 1159 1709 
L 1159 0 
L 581 0 
L 581 4863 
z
" transform="scale(0.015625)"/>
      </defs>
      <use xlink:href="#DejaVuSans-53"/>
      <use xlink:href="#DejaVuSans-61" x="63.476562"/>
      <use xlink:href="#DejaVuSans-6d" x="124.755859"/>
      <use xlink:href="#DejaVuSans-75" x="222.167969"/>
      <use xlink:href="#DejaVuSans-65" x="285.546875"/>
      <use xlink:href="#DejaVuSans-6c" x="347.070312"/>
      <use xlink:href="#DejaVuSans-20" x="374.853516"/>
      <use xlink:href="#DejaVuSans-4c" x="406.640625"/>
      <use xlink:href="#DejaVuSans-2e" x="462.353516"/>
      <use xlink:href="#DejaVuSans-20" x="494.140625"/>
      <use xlink:href="#DejaVuSans-4a" x="525.927734"/>
      <use xlink:href="#DejaVuSans-61" x="555.419922"/>
      <use xlink:href="#DejaVuSans-63" x="616.699219"/>
      <use xlink:href="#DejaVuSans-6b" x="671.679688"/>
      <use xlink:href="#DejaVuSans-73" x="729.589844"/>
      <use xlink:href="#DejaVuSans-6f" x="781.689453"/>
      <use xlink:href="#DejaVuSans-6e" x="842.871094"/>
     </g>
    </g>
   </g>
   <g id="text_6">
    <g id="patch_7">
     <path d="M 149.934423 122.152849 
L 198.568173 122.152849 
L 198.568173 105.522536 
L 149.934423 105.522536 
z
" clip-path="url(#pc757cfab06)" style="fill: #ffffff; opacity: 0.7; stroke: #000000; stroke-linejoin: miter"/>
    </g>
    <g clip-path="url(#pc757cfab06)">
     <!-- Al Pacino -->
     <g transform="translate(153.894423 116.32113)scale(0.09 -0.09)">
      <defs>
       <path id="DejaVuSans-41" d="M 2188 4044 
L 1331 1722 
L 3047 1722 
L 2188 4044 
z
M 1831 4666 
L 2547 4666 
L 4325 0 
L 3669 0 
L 3244 1197 
L 1141 1197 
L 716 0 
L 50 0 
L 1831 4666 
z
" transform="scale(0.015625)"/>
       <path id="DejaVuSans-50" d="M 1259 4147 
L 1259 2394 
L 2053 2394 
Q 2494 2394 2734 2622 
Q 2975 2850 2975 3272 
Q 2975 3691 2734 3919 
Q 2494 4147 2053 4147 
L 1259 4147 
z
M 628 4666 
L 2053 4666 
Q 2838 4666 3239 4311 
Q 3641 3956 3641 3272 
Q 3641 2581 3239 2228 
Q 2838 1875 2053 1875 
L 1259 1875 
L 1259 0 
L 628 0 
L 628 4666 
z
" transform="scale(0.015625)"/>
      </defs>
      <use xlink:href="#DejaVuSans-41"/>
      <use xlink:href="#DejaVuSans-6c" x="68.408203"/>
      <use xlink:href="#DejaVuSans-20" x="96.191406"/>
      <use xlink:href="#DejaVuSans-50" x="127.978516"/>
      <use xlink:href="#DejaVuSans-61" x="183.78125"/>
      <use xlink:href="#DejaVuSans-63" x="245.060547"/>
      <use xlink:href="#DejaVuSans-69" x="300.041016"/>
      <use xlink:href="#DejaVuSans-6e" x="327.824219"/>
      <use xlink:href="#DejaVuSans-6f" x="391.203125"/>
     </g>
    </g>
   </g>
   <g id="text_7">
    <g id="patch_8">
     <path d="M 74.432727 181.80901 
L 140.830227 181.80901 
L 140.830227 165.178697 
L 74.432727 165.178697 
z
" clip-path="url(#pc757cfab06)" style="fill: #ffffff; opacity: 0.7; stroke: #000000; stroke-linejoin: miter"/>
    </g>
    <g clip-path="url(#pc757cfab06)">
     <!-- Carla Gugino -->
     <g transform="translate(78.392727 175.977291)scale(0.09 -0.09)">
      <defs>
       <path id="DejaVuSans-43" d="M 4122 4306 
L 4122 3641 
Q 3803 3938 3442 4084 
Q 3081 4231 2675 4231 
Q 1875 4231 1450 3742 
Q 1025 3253 1025 2328 
Q 1025 1406 1450 917 
Q 1875 428 2675 428 
Q 3081 428 3442 575 
Q 3803 722 4122 1019 
L 4122 359 
Q 3791 134 3420 21 
Q 3050 -91 2638 -91 
Q 1578 -91 968 557 
Q 359 1206 359 2328 
Q 359 3453 968 4101 
Q 1578 4750 2638 4750 
Q 3056 4750 3426 4639 
Q 3797 4528 4122 4306 
z
" transform="scale(0.015625)"/>
       <path id="DejaVuSans-47" d="M 3809 666 
L 3809 1919 
L 2778 1919 
L 2778 2438 
L 4434 2438 
L 4434 434 
Q 4069 175 3628 42 
Q 3188 -91 2688 -91 
Q 1594 -91 976 548 
Q 359 1188 359 2328 
Q 359 3472 976 4111 
Q 1594 4750 2688 4750 
Q 3144 4750 3555 4637 
Q 3966 4525 4313 4306 
L 4313 3634 
Q 3963 3931 3569 4081 
Q 3175 4231 2741 4231 
Q 1884 4231 1454 3753 
Q 1025 3275 1025 2328 
Q 1025 1384 1454 906 
Q 1884 428 2741 428 
Q 3075 428 3337 486 
Q 3600 544 3809 666 
z
" transform="scale(0.015625)"/>
       <path id="DejaVuSans-67" d="M 2906 1791 
Q 2906 2416 2648 2759 
Q 2391 3103 1925 3103 
Q 1463 3103 1205 2759 
Q 947 2416 947 1791 
Q 947 1169 1205 825 
Q 1463 481 1925 481 
Q 2391 481 2648 825 
Q 2906 1169 2906 1791 
z
M 3481 434 
Q 3481 -459 3084 -895 
Q 2688 -1331 1869 -1331 
Q 1566 -1331 1297 -1286 
Q 1028 -1241 775 -1147 
L 775 -588 
Q 1028 -725 1275 -790 
Q 1522 -856 1778 -856 
Q 2344 -856 2625 -561 
Q 2906 -266 2906 331 
L 2906 616 
Q 2728 306 2450 153 
Q 2172 0 1784 0 
Q 1141 0 747 490 
Q 353 981 353 1791 
Q 353 2603 747 3093 
Q 1141 3584 1784 3584 
Q 2172 3584 2450 3431 
Q 2728 3278 2906 2969 
L 2906 3500 
L 3481 3500 
L 3481 434 
z
" transform="scale(0.015625)"/>
      </defs>
      <use xlink:href="#DejaVuSans-43"/>
      <use xlink:href="#DejaVuSans-61" x="69.824219"/>
      <use xlink:href="#DejaVuSans-72" x="131.103516"/>
      <use xlink:href="#DejaVuSans-6c" x="172.216797"/>
      <use xlink:href="#DejaVuSans-61" x="200"/>
      <use xlink:href="#DejaVuSans-20" x="261.279297"/>
      <use xlink:href="#DejaVuSans-47" x="293.066406"/>
      <use xlink:href="#DejaVuSans-75" x="370.556641"/>
      <use xlink:href="#DejaVuSans-67" x="433.935547"/>
      <use xlink:href="#DejaVuSans-69" x="497.412109"/>
      <use xlink:href="#DejaVuSans-6e" x="525.195312"/>
      <use xlink:href="#DejaVuSans-6f" x="588.574219"/>
     </g>
    </g>
   </g>
   <g id="text_8">
    <g id="patch_9">
     <path d="M 45.45595 263.25593 
L 96.882512 263.25593 
L 96.882512 246.625618 
L 45.45595 246.625618 
z
" clip-path="url(#pc757cfab06)" style="fill: #ffffff; opacity: 0.7; stroke: #000000; stroke-linejoin: miter"/>
    </g>
    <g clip-path="url(#pc757cfab06)">
     <!-- Mel Blanc -->
     <g transform="translate(49.41595 257.424211)scale(0.09 -0.09)">
      <defs>
       <path id="DejaVuSans-4d" d="M 628 4666 
L 1569 4666 
L 2759 1491 
L 3956 4666 
L 4897 4666 
L 4897 0 
L 4281 0 
L 4281 4097 
L 3078 897 
L 2444 897 
L 1241 4097 
L 1241 0 
L 628 0 
L 628 4666 
z
" transform="scale(0.015625)"/>
      </defs>
      <use xlink:href="#DejaVuSans-4d"/>
      <use xlink:href="#DejaVuSans-65" x="86.279297"/>
      <use xlink:href="#DejaVuSans-6c" x="147.802734"/>
      <use xlink:href="#DejaVuSans-20" x="175.585938"/>
      <use xlink:href="#DejaVuSans-42" x="207.373047"/>
      <use xlink:href="#DejaVuSans-6c" x="275.976562"/>
      <use xlink:href="#DejaVuSans-61" x="303.759766"/>
      <use xlink:href="#DejaVuSans-6e" x="365.039062"/>
      <use xlink:href="#DejaVuSans-63" x="428.417969"/>
     </g>
    </g>
   </g>
   <g id="text_9">
    <g id="patch_10">
     <path d="M 35.427994 352.410671 
L 106.910494 352.410671 
L 106.910494 335.780358 
L 35.427994 335.780358 
z
" clip-path="url(#pc757cfab06)" style="fill: #ffffff; opacity: 0.7; stroke: #000000; stroke-linejoin: miter"/>
    </g>
    <g clip-path="url(#pc757cfab06)">
     <!-- Joe Pantoliano -->
     <g transform="translate(39.387994 346.578952)scale(0.09 -0.09)">
      <use xlink:href="#DejaVuSans-4a"/>
      <use xlink:href="#DejaVuSans-6f" x="29.492188"/>
      <use xlink:href="#DejaVuSans-65" x="90.673828"/>
      <use xlink:href="#DejaVuSans-20" x="152.197266"/>
      <use xlink:href="#DejaVuSans-50" x="183.984375"/>
      <use xlink:href="#DejaVuSans-61" x="239.787109"/>
      <use xlink:href="#DejaVuSans-6e" x="301.066406"/>
      <use xlink:href="#DejaVuSans-74" x="364.445312"/>
      <use xlink:href="#DejaVuSans-6f" x="403.654297"/>
      <use xlink:href="#DejaVuSans-6c" x="464.835938"/>
      <use xlink:href="#DejaVuSans-69" x="492.619141"/>
      <use xlink:href="#DejaVuSans-61" x="520.402344"/>
      <use xlink:href="#DejaVuSans-6e" x="581.681641"/>
      <use xlink:href="#DejaVuSans-6f" x="645.060547"/>
     </g>
    </g>
   </g>
   <g id="text_10">
    <g id="patch_11">
     <path d="M 71.180084 433.857565 
L 144.082896 433.857565 
L 144.082896 417.227253 
L 71.180084 417.227253 
z
" clip-path="url(#pc757cfab06)" style="fill: #ffffff; opacity: 0.7; stroke: #000000; stroke-linejoin: miter"/>
    </g>
    <g clip-path="url(#pc757cfab06)">
     <!-- Jack Nicholson -->
     <g transform="translate(75.140084 428.025847)scale(0.09 -0.09)">
      <use xlink:href="#DejaVuSans-4a"/>
      <use xlink:href="#DejaVuSans-61" x="29.492188"/>
      <use xlink:href="#DejaVuSans-63" x="90.771484"/>
      <use xlink:href="#DejaVuSans-6b" x="145.751953"/>
      <use xlink:href="#DejaVuSans-20" x="203.662109"/>
      <use xlink:href="#DejaVuSans-4e" x="235.449219"/>
      <use xlink:href="#DejaVuSans-69" x="310.253906"/>
      <use xlink:href="#DejaVuSans-63" x="338.037109"/>
      <use xlink:href="#DejaVuSans-68" x="393.017578"/>
      <use xlink:href="#DejaVuSans-6f" x="456.396484"/>
      <use xlink:href="#DejaVuSans-6c" x="517.578125"/>
      <use xlink:href="#DejaVuSans-73" x="545.361328"/>
      <use xlink:href="#DejaVuSans-6f" x="597.460938"/>
      <use xlink:href="#DejaVuSans-6e" x="658.642578"/>
     </g>
    </g>
   </g>
   <g id="text_11">
    <g id="patch_12">
     <path d="M 129.678127 493.513727 
L 218.824533 493.513727 
L 218.824533 476.883414 
L 129.678127 476.883414 
z
" clip-path="url(#pc757cfab06)" style="fill: #ffffff; opacity: 0.7; stroke: #000000; stroke-linejoin: miter"/>
    </g>
    <g clip-path="url(#pc757cfab06)">
     <!-- Sylvester Stallone -->
     <g transform="translate(133.638127 487.682008)scale(0.09 -0.09)">
      <defs>
       <path id="DejaVuSans-79" d="M 2059 -325 
Q 1816 -950 1584 -1140 
Q 1353 -1331 966 -1331 
L 506 -1331 
L 506 -850 
L 844 -850 
Q 1081 -850 1212 -737 
Q 1344 -625 1503 -206 
L 1606 56 
L 191 3500 
L 800 3500 
L 1894 763 
L 2988 3500 
L 3597 3500 
L 2059 -325 
z
" transform="scale(0.015625)"/>
      </defs>
      <use xlink:href="#DejaVuSans-53"/>
      <use xlink:href="#DejaVuSans-79" x="63.476562"/>
      <use xlink:href="#DejaVuSans-6c" x="122.65625"/>
      <use xlink:href="#DejaVuSans-76" x="150.439453"/>
      <use xlink:href="#DejaVuSans-65" x="209.619141"/>
      <use xlink:href="#DejaVuSans-73" x="271.142578"/>
      <use xlink:href="#DejaVuSans-74" x="323.242188"/>
      <use xlink:href="#DejaVuSans-65" x="362.451172"/>
      <use xlink:href="#DejaVuSans-72" x="423.974609"/>
      <use xlink:href="#DejaVuSans-20" x="465.087891"/>
      <use xlink:href="#DejaVuSans-53" x="496.875"/>
      <use xlink:href="#DejaVuSans-74" x="560.351562"/>
      <use xlink:href="#DejaVuSans-61" x="599.560547"/>
      <use xlink:href="#DejaVuSans-6c" x="660.839844"/>
      <use xlink:href="#DejaVuSans-6c" x="688.623047"/>
      <use xlink:href="#DejaVuSans-6f" x="716.40625"/>
      <use xlink:href="#DejaVuSans-6e" x="777.587891"/>
      <use xlink:href="#DejaVuSans-65" x="840.966797"/>
     </g>
    </g>
   </g>
   <g id="text_12">
    <g id="patch_13">
     <path d="M 226.397322 521.06405 
L 292.621853 521.06405 
L 292.621853 504.433738 
L 226.397322 504.433738 
z
" clip-path="url(#pc757cfab06)" style="fill: #ffffff; opacity: 0.7; stroke: #000000; stroke-linejoin: miter"/>
    </g>
    <g clip-path="url(#pc757cfab06)">
     <!-- Nicolas Cage -->
     <g transform="translate(230.357322 515.232332)scale(0.09 -0.09)">
      <use xlink:href="#DejaVuSans-4e"/>
      <use xlink:href="#DejaVuSans-69" x="74.804688"/>
      <use xlink:href="#DejaVuSans-63" x="102.587891"/>
      <use xlink:href="#DejaVuSans-6f" x="157.568359"/>
      <use xlink:href="#DejaVuSans-6c" x="218.75"/>
      <use xlink:href="#DejaVuSans-61" x="246.533203"/>
      <use xlink:href="#DejaVuSans-73" x="307.8125"/>
      <use xlink:href="#DejaVuSans-20" x="359.912109"/>
      <use xlink:href="#DejaVuSans-43" x="391.699219"/>
      <use xlink:href="#DejaVuSans-61" x="461.523438"/>
      <use xlink:href="#DejaVuSans-67" x="522.802734"/>
      <use xlink:href="#DejaVuSans-65" x="586.279297"/>
     </g>
    </g>
   </g>
   <g id="text_13">
    <g id="patch_14">
     <path d="M 315.521823 511.744831 
L 381.806823 511.744831 
L 381.806823 495.114518 
L 315.521823 495.114518 
z
" clip-path="url(#pc757cfab06)" style="fill: #ffffff; opacity: 0.7; stroke: #000000; stroke-linejoin: miter"/>
    </g>
    <g clip-path="url(#pc757cfab06)">
     <!-- Liam Neeson -->
     <g transform="translate(319.481823 505.913112)scale(0.09 -0.09)">
      <use xlink:href="#DejaVuSans-4c"/>
      <use xlink:href="#DejaVuSans-69" x="55.712891"/>
      <use xlink:href="#DejaVuSans-61" x="83.496094"/>
      <use xlink:href="#DejaVuSans-6d" x="144.775391"/>
      <use xlink:href="#DejaVuSans-20" x="242.1875"/>
      <use xlink:href="#DejaVuSans-4e" x="273.974609"/>
      <use xlink:href="#DejaVuSans-65" x="348.779297"/>
      <use xlink:href="#DejaVuSans-65" x="410.302734"/>
      <use xlink:href="#DejaVuSans-73" x="471.826172"/>
      <use xlink:href="#DejaVuSans-6f" x="523.925781"/>
      <use xlink:href="#DejaVuSans-6e" x="585.107422"/>
     </g>
    </g>
   </g>
   <g id="text_14">
    <g id="patch_15">
     <path d="M 391.732857 467.167441 
L 460.86692 467.167441 
L 460.86692 450.537129 
L 391.732857 450.537129 
z
" clip-path="url(#pc757cfab06)" style="fill: #ffffff; opacity: 0.7; stroke: #000000; stroke-linejoin: miter"/>
    </g>
    <g clip-path="url(#pc757cfab06)">
     <!-- Dennis Farina -->
     <g transform="translate(395.692857 461.335723)scale(0.09 -0.09)">
      <defs>
       <path id="DejaVuSans-46" d="M 628 4666 
L 3309 4666 
L 3309 4134 
L 1259 4134 
L 1259 2759 
L 3109 2759 
L 3109 2228 
L 1259 2228 
L 1259 0 
L 628 0 
L 628 4666 
z
" transform="scale(0.015625)"/>
      </defs>
      <use xlink:href="#DejaVuSans-44"/>
      <use xlink:href="#DejaVuSans-65" x="77.001953"/>
      <use xlink:href="#DejaVuSans-6e" x="138.525391"/>
      <use xlink:href="#DejaVuSans-6e" x="201.904297"/>
      <use xlink:href="#DejaVuSans-69" x="265.283203"/>
      <use xlink:href="#DejaVuSans-73" x="293.066406"/>
      <use xlink:href="#DejaVuSans-20" x="345.166016"/>
      <use xlink:href="#DejaVuSans-46" x="376.953125"/>
      <use xlink:href="#DejaVuSans-61" x="425.347656"/>
      <use xlink:href="#DejaVuSans-72" x="486.626953"/>
      <use xlink:href="#DejaVuSans-69" x="527.740234"/>
      <use xlink:href="#DejaVuSans-6e" x="555.523438"/>
      <use xlink:href="#DejaVuSans-61" x="618.902344"/>
     </g>
    </g>
   </g>
   <g id="text_15">
    <g id="patch_16">
     <path d="M 444.069561 395.039741 
L 513.915186 395.039741 
L 513.915186 378.409428 
L 444.069561 378.409428 
z
" clip-path="url(#pc757cfab06)" style="fill: #ffffff; opacity: 0.7; stroke: #000000; stroke-linejoin: miter"/>
    </g>
    <g clip-path="url(#pc757cfab06)">
     <!-- Eddie Murphy -->
     <g transform="translate(448.029561 389.208022)scale(0.09 -0.09)">
      <defs>
       <path id="DejaVuSans-45" d="M 628 4666 
L 3578 4666 
L 3578 4134 
L 1259 4134 
L 1259 2753 
L 3481 2753 
L 3481 2222 
L 1259 2222 
L 1259 531 
L 3634 531 
L 3634 0 
L 628 0 
L 628 4666 
z
" transform="scale(0.015625)"/>
       <path id="DejaVuSans-64" d="M 2906 2969 
L 2906 4863 
L 3481 4863 
L 3481 0 
L 2906 0 
L 2906 525 
Q 2725 213 2448 61 
Q 2172 -91 1784 -91 
Q 1150 -91 751 415 
Q 353 922 353 1747 
Q 353 2572 751 3078 
Q 1150 3584 1784 3584 
Q 2172 3584 2448 3432 
Q 2725 3281 2906 2969 
z
M 947 1747 
Q 947 1113 1208 752 
Q 1469 391 1925 391 
Q 2381 391 2643 752 
Q 2906 1113 2906 1747 
Q 2906 2381 2643 2742 
Q 2381 3103 1925 3103 
Q 1469 3103 1208 2742 
Q 947 2381 947 1747 
z
" transform="scale(0.015625)"/>
       <path id="DejaVuSans-70" d="M 1159 525 
L 1159 -1331 
L 581 -1331 
L 581 3500 
L 1159 3500 
L 1159 2969 
Q 1341 3281 1617 3432 
Q 1894 3584 2278 3584 
Q 2916 3584 3314 3078 
Q 3713 2572 3713 1747 
Q 3713 922 3314 415 
Q 2916 -91 2278 -91 
Q 1894 -91 1617 61 
Q 1341 213 1159 525 
z
M 3116 1747 
Q 3116 2381 2855 2742 
Q 2594 3103 2138 3103 
Q 1681 3103 1420 2742 
Q 1159 2381 1159 1747 
Q 1159 1113 1420 752 
Q 1681 391 2138 391 
Q 2594 391 2855 752 
Q 3116 1113 3116 1747 
z
" transform="scale(0.015625)"/>
      </defs>
      <use xlink:href="#DejaVuSans-45"/>
      <use xlink:href="#DejaVuSans-64" x="63.183594"/>
      <use xlink:href="#DejaVuSans-64" x="126.660156"/>
      <use xlink:href="#DejaVuSans-69" x="190.136719"/>
      <use xlink:href="#DejaVuSans-65" x="217.919922"/>
      <use xlink:href="#DejaVuSans-20" x="279.443359"/>
      <use xlink:href="#DejaVuSans-4d" x="311.230469"/>
      <use xlink:href="#DejaVuSans-75" x="397.509766"/>
      <use xlink:href="#DejaVuSans-72" x="460.888672"/>
      <use xlink:href="#DejaVuSans-70" x="502.001953"/>
      <use xlink:href="#DejaVuSans-68" x="565.478516"/>
      <use xlink:href="#DejaVuSans-79" x="628.857422"/>
     </g>
    </g>
   </g>
   <g id="text_16">
    <!-- Impactful actors for Thriller genre - Importance rank: 4 -->
    <g transform="translate(119.743125 16.318125)scale(0.12 -0.12)">
     <defs>
      <path id="DejaVuSans-49" d="M 628 4666 
L 1259 4666 
L 1259 0 
L 628 0 
L 628 4666 
z
" transform="scale(0.015625)"/>
      <path id="DejaVuSans-66" d="M 2375 4863 
L 2375 4384 
L 1825 4384 
Q 1516 4384 1395 4259 
Q 1275 4134 1275 3809 
L 1275 3500 
L 2222 3500 
L 2222 3053 
L 1275 3053 
L 1275 0 
L 697 0 
L 697 3053 
L 147 3053 
L 147 3500 
L 697 3500 
L 697 3744 
Q 697 4328 969 4595 
Q 1241 4863 1831 4863 
L 2375 4863 
z
" transform="scale(0.015625)"/>
      <path id="DejaVuSans-2d" d="M 313 2009 
L 1997 2009 
L 1997 1497 
L 313 1497 
L 313 2009 
z
" transform="scale(0.015625)"/>
      <path id="DejaVuSans-3a" d="M 750 794 
L 1409 794 
L 1409 0 
L 750 0 
L 750 794 
z
M 750 3309 
L 1409 3309 
L 1409 2516 
L 750 2516 
L 750 3309 
z
" transform="scale(0.015625)"/>
      <path id="DejaVuSans-34" d="M 2419 4116 
L 825 1625 
L 2419 1625 
L 2419 4116 
z
M 2253 4666 
L 3047 4666 
L 3047 1625 
L 3713 1625 
L 3713 1100 
L 3047 1100 
L 3047 0 
L 2419 0 
L 2419 1100 
L 313 1100 
L 313 1709 
L 2253 4666 
z
" transform="scale(0.015625)"/>
     </defs>
     <use xlink:href="#DejaVuSans-49"/>
     <use xlink:href="#DejaVuSans-6d" x="29.492188"/>
     <use xlink:href="#DejaVuSans-70" x="126.904297"/>
     <use xlink:href="#DejaVuSans-61" x="190.380859"/>
     <use xlink:href="#DejaVuSans-63" x="251.660156"/>
     <use xlink:href="#DejaVuSans-74" x="306.640625"/>
     <use xlink:href="#DejaVuSans-66" x="345.849609"/>
     <use xlink:href="#DejaVuSans-75" x="381.054688"/>
     <use xlink:href="#DejaVuSans-6c" x="444.433594"/>
     <use xlink:href="#DejaVuSans-20" x="472.216797"/>
     <use xlink:href="#DejaVuSans-61" x="504.003906"/>
     <use xlink:href="#DejaVuSans-63" x="565.283203"/>
     <use xlink:href="#DejaVuSans-74" x="620.263672"/>
     <use xlink:href="#DejaVuSans-6f" x="659.472656"/>
     <use xlink:href="#DejaVuSans-72" x="720.654297"/>
     <use xlink:href="#DejaVuSans-73" x="761.767578"/>
     <use xlink:href="#DejaVuSans-20" x="813.867188"/>
     <use xlink:href="#DejaVuSans-66" x="845.654297"/>
     <use xlink:href="#DejaVuSans-6f" x="880.859375"/>
     <use xlink:href="#DejaVuSans-72" x="942.041016"/>
     <use xlink:href="#DejaVuSans-20" x="983.154297"/>
     <use xlink:href="#DejaVuSans-54" x="1014.941406"/>
     <use xlink:href="#DejaVuSans-68" x="1076.025391"/>
     <use xlink:href="#DejaVuSans-72" x="1139.404297"/>
     <use xlink:href="#DejaVuSans-69" x="1180.517578"/>
     <use xlink:href="#DejaVuSans-6c" x="1208.300781"/>
     <use xlink:href="#DejaVuSans-6c" x="1236.083984"/>
     <use xlink:href="#DejaVuSans-65" x="1263.867188"/>
     <use xlink:href="#DejaVuSans-72" x="1325.390625"/>
     <use xlink:href="#DejaVuSans-20" x="1366.503906"/>
     <use xlink:href="#DejaVuSans-67" x="1398.291016"/>
     <use xlink:href="#DejaVuSans-65" x="1461.767578"/>
     <use xlink:href="#DejaVuSans-6e" x="1523.291016"/>
     <use xlink:href="#DejaVuSans-72" x="1586.669922"/>
     <use xlink:href="#DejaVuSans-65" x="1625.533203"/>
     <use xlink:href="#DejaVuSans-20" x="1687.056641"/>
     <use xlink:href="#DejaVuSans-2d" x="1718.84375"/>
     <use xlink:href="#DejaVuSans-20" x="1754.927734"/>
     <use xlink:href="#DejaVuSans-49" x="1786.714844"/>
     <use xlink:href="#DejaVuSans-6d" x="1816.207031"/>
     <use xlink:href="#DejaVuSans-70" x="1913.619141"/>
     <use xlink:href="#DejaVuSans-6f" x="1977.095703"/>
     <use xlink:href="#DejaVuSans-72" x="2038.277344"/>
     <use xlink:href="#DejaVuSans-74" x="2079.390625"/>
     <use xlink:href="#DejaVuSans-61" x="2118.599609"/>
     <use xlink:href="#DejaVuSans-6e" x="2179.878906"/>
     <use xlink:href="#DejaVuSans-63" x="2243.257812"/>
     <use xlink:href="#DejaVuSans-65" x="2298.238281"/>
     <use xlink:href="#DejaVuSans-20" x="2359.761719"/>
     <use xlink:href="#DejaVuSans-72" x="2391.548828"/>
     <use xlink:href="#DejaVuSans-61" x="2432.662109"/>
     <use xlink:href="#DejaVuSans-6e" x="2493.941406"/>
     <use xlink:href="#DejaVuSans-6b" x="2557.320312"/>
     <use xlink:href="#DejaVuSans-3a" x="2615.230469"/>
     <use xlink:href="#DejaVuSans-20" x="2648.921875"/>
     <use xlink:href="#DejaVuSans-34" x="2680.708984"/>
    </g>
   </g>
  </g>
 </g>
 <defs>
  <clipPath id="pc757cfab06">
   <rect x="7.2" y="22.318125" width="554.4" height="554.4"/>
  </clipPath>
 </defs>
</svg>
