<?xml version="1.0" encoding="utf-8" standalone="no"?>
<!DOCTYPE svg PUBLIC "-//W3C//DTD SVG 1.1//EN"
  "http://www.w3.org/Graphics/SVG/1.1/DTD/svg11.dtd">
<svg xmlns:xlink="http://www.w3.org/1999/xlink" width="576pt" height="576pt" viewBox="0 0 576 576" xmlns="http://www.w3.org/2000/svg" version="1.1">
 <metadata>
  <rdf:RDF xmlns:dc="http://purl.org/dc/elements/1.1/" xmlns:cc="http://creativecommons.org/ns#" xmlns:rdf="http://www.w3.org/1999/02/22-rdf-syntax-ns#">
   <cc:Work>
    <dc:type rdf:resource="http://purl.org/dc/dcmitype/StillImage"/>
    <dc:date>2022-12-22T16:13:09.452388</dc:date>
    <dc:format>image/svg+xml</dc:format>
    <dc:creator>
     <cc:Agent>
      <dc:title>Matplotlib v3.5.2, https://matplotlib.org/</dc:title>
     </cc:Agent>
    </dc:creator>
   </cc:Work>
  </rdf:RDF>
 </metadata>
 <defs>
  <style type="text/css">*{stroke-linejoin: round; stroke-linecap: butt}</style>
 </defs>
 <g id="figure_1">
  <g id="patch_1">
   <path d="M 0 576 
L 576 576 
L 576 0 
L 0 0 
z
" style="fill: #ffffff"/>
  </g>
  <g id="axes_1">
   <g id="LineCollection_1">
    <path d="M 500.30088 288 
L 481.703099 200.793508 
" clip-path="url(#p7c3a829926)" style="fill: none; stroke: #000000; stroke-opacity: 0.3; stroke-width: 5"/>
   </g>
   <g id="PathCollection_1">
    <path d="M 500.30088 315.386128 
C 507.563766 315.386128 514.530161 312.500553 519.665797 307.364917 
C 524.801433 302.229281 527.687008 295.262886 527.687008 288 
C 527.687008 280.737114 524.801433 273.770719 519.665797 268.635083 
C 514.530161 263.499447 507.563766 260.613872 500.30088 260.613872 
C 493.037994 260.613872 486.071599 263.499447 480.935963 268.635083 
C 475.800328 273.770719 472.914752 280.737114 472.914752 288 
C 472.914752 295.262886 475.800328 302.229281 480.935963 307.364917 
C 486.071599 312.500553 493.037994 315.386128 500.30088 315.386128 
z
" clip-path="url(#p7c3a829926)" style="fill: #d62728; fill-opacity: 0.99; stroke: #d62728; stroke-opacity: 0.99"/>
    <path d="M 481.703099 225.852021 
C 488.348695 225.852021 494.722998 223.211698 499.422144 218.512553 
C 504.121289 213.813407 506.761612 207.439104 506.761612 200.793508 
C 506.761612 194.147913 504.121289 187.77361 499.422144 183.074464 
C 494.722998 178.375319 488.348695 175.734996 481.703099 175.734996 
C 475.057504 175.734996 468.683201 178.375319 463.984055 183.074464 
C 459.28491 187.77361 456.644587 194.147913 456.644587 200.793508 
C 456.644587 207.439104 459.28491 213.813407 463.984055 218.512553 
C 468.683201 223.211698 475.057504 225.852021 481.703099 225.852021 
z
" clip-path="url(#p7c3a829926)" style="fill: #d62728; fill-opacity: 0.99; stroke: #d62728; stroke-opacity: 0.99"/>
    <path d="M 429.125496 153.120965 
C 435.611081 153.120965 441.831907 150.544214 446.417908 145.958213 
C 451.003909 141.372212 453.580659 135.151387 453.580659 128.665802 
C 453.580659 122.180217 451.003909 115.959391 446.417908 111.37339 
C 441.831907 106.787389 435.611081 104.210639 429.125496 104.210639 
C 422.639911 104.210639 416.419086 106.787389 411.833085 111.37339 
C 407.247083 115.959391 404.670333 122.180217 404.670333 128.665802 
C 404.670333 135.151387 407.247083 141.372212 411.833085 145.958213 
C 416.419086 150.544214 422.639911 153.120965 429.125496 153.120965 
z
" clip-path="url(#p7c3a829926)" style="fill: #d62728; fill-opacity: 0.99; stroke: #d62728; stroke-opacity: 0.99"/>
    <path d="M 351.65922 107.896648 
C 357.973231 107.896648 364.029487 105.388065 368.494167 100.923385 
C 372.958847 96.458705 375.46743 90.402449 375.46743 84.088438 
C 375.46743 77.774426 372.958847 71.718171 368.494167 67.253491 
C 364.029487 62.78881 357.973231 60.280227 351.65922 60.280227 
C 345.345209 60.280227 339.288953 62.78881 334.824273 67.253491 
C 330.359593 71.718171 327.851009 77.774426 327.851009 84.088438 
C 327.851009 90.402449 330.359593 96.458705 334.824273 100.923385 
C 339.288953 105.388065 345.345209 107.896648 351.65922 107.896648 
z
" clip-path="url(#p7c3a829926)" style="fill: #d62728; fill-opacity: 0.99; stroke: #d62728; stroke-opacity: 0.99"/>
    <path d="M 262.698877 97.459032 
C 268.716283 97.459032 274.488041 95.068292 278.74299 90.813343 
C 282.997938 86.558395 285.388678 80.786636 285.388678 74.769231 
C 285.388678 68.751825 282.997938 62.980067 278.74299 58.725118 
C 274.488041 54.47017 268.716283 52.079429 262.698877 52.079429 
C 256.681471 52.079429 250.909713 54.47017 246.654765 58.725118 
C 242.399816 62.980067 240.009076 68.751825 240.009076 74.769231 
C 240.009076 80.786636 242.399816 86.558395 246.654765 90.813343 
C 250.909713 95.068292 256.681471 97.459032 262.698877 97.459032 
z
" clip-path="url(#p7c3a829926)" style="fill: #d62728; fill-opacity: 0.99; stroke: #d62728; stroke-opacity: 0.99"/>
    <path d="M 177.62653 124.66656 
C 183.553022 124.66656 189.237578 122.31194 193.42824 118.121278 
C 197.618903 113.930615 199.973523 108.246059 199.973523 102.319567 
C 199.973523 96.393075 197.618903 90.70852 193.42824 86.517857 
C 189.237578 82.327194 183.553022 79.972574 177.62653 79.972574 
C 171.700038 79.972574 166.015482 82.327194 161.82482 86.517857 
C 157.634157 90.70852 155.279537 96.393075 155.279537 102.319567 
C 155.279537 108.246059 157.634157 113.930615 161.82482 118.121278 
C 166.015482 122.31194 171.700038 124.66656 177.62653 124.66656 
z
" clip-path="url(#p7c3a829926)" style="fill: #d62728; fill-opacity: 0.99; stroke: #d62728; stroke-opacity: 0.99"/>
    <path d="M 111.151972 184.208412 
C 117.048149 184.208412 122.703627 181.865836 126.872853 177.69661 
C 131.04208 173.527384 133.384655 167.871905 133.384655 161.975729 
C 133.384655 156.079552 131.04208 150.424074 126.872853 146.254847 
C 122.703627 142.085621 117.048149 139.743045 111.151972 139.743045 
C 105.255795 139.743045 99.600317 142.085621 95.431091 146.254847 
C 91.261864 150.424074 88.919288 156.079552 88.919288 161.975729 
C 88.919288 167.871905 91.261864 173.527384 95.431091 177.69661 
C 99.600317 181.865836 105.255795 184.208412 111.151972 184.208412 
z
" clip-path="url(#p7c3a829926)" style="fill: #d62728; fill-opacity: 0.99; stroke: #d62728; stroke-opacity: 0.99"/>
    <path d="M 74.769231 264.453855 
C 80.346772 264.453855 85.696622 262.237875 89.64054 258.293958 
C 93.584457 254.35004 95.800437 249.00019 95.800437 243.422649 
C 95.800437 237.845108 93.584457 232.495257 89.64054 228.55134 
C 85.696622 224.607423 80.346772 222.391442 74.769231 222.391442 
C 69.19169 222.391442 63.841839 224.607423 59.897922 228.55134 
C 55.954005 232.495257 53.738024 237.845108 53.738024 243.422649 
C 53.738024 249.00019 55.954005 254.35004 59.897922 258.293958 
C 63.841839 262.237875 69.19169 264.453855 74.769231 264.453855 
z
" clip-path="url(#p7c3a829926)" style="fill: #d62728; fill-opacity: 0.99; stroke: #d62728; stroke-opacity: 0.99"/>
    <path d="M 74.769244 353.608596 
C 80.346785 353.608596 85.696635 351.392615 89.640552 347.448698 
C 93.58447 343.504781 95.80045 338.154931 95.80045 332.577389 
C 95.80045 326.999848 93.58447 321.649998 89.640552 317.706081 
C 85.696635 313.762163 80.346785 311.546183 74.769244 311.546183 
C 69.191702 311.546183 63.841852 313.762163 59.897935 317.706081 
C 55.954018 321.649998 53.738037 326.999848 53.738037 332.577389 
C 53.738037 338.154931 55.954018 343.504781 59.897935 347.448698 
C 63.841852 351.392615 69.191702 353.608596 74.769244 353.608596 
z
" clip-path="url(#p7c3a829926)" style="fill: #d62728; fill-opacity: 0.99; stroke: #d62728; stroke-opacity: 0.99"/>
    <path d="M 111.151985 434.423045 
C 116.5618 434.423045 121.750771 432.273703 125.576087 428.448387 
C 129.401404 424.62307 131.550746 419.434099 131.550746 414.024284 
C 131.550746 408.614469 129.401404 403.425498 125.576087 399.600182 
C 121.750771 395.774865 116.5618 393.625523 111.151985 393.625523 
C 105.74217 393.625523 100.553199 395.774865 96.727882 399.600182 
C 92.902566 403.425498 90.753223 408.614469 90.753223 414.024284 
C 90.753223 419.434099 92.902566 424.62307 96.727882 428.448387 
C 100.553199 432.273703 105.74217 434.423045 111.151985 434.423045 
z
" clip-path="url(#p7c3a829926)" style="fill: #d62728; fill-opacity: 0.99; stroke: #d62728; stroke-opacity: 0.99"/>
    <path d="M 177.626562 493.497209 
C 182.882029 493.497209 187.922953 491.409189 191.63913 487.693013 
C 195.355306 483.976837 197.443325 478.935913 197.443325 473.680446 
C 197.443325 468.424978 195.355306 463.384054 191.63913 459.667878 
C 187.922953 455.951702 182.882029 453.863682 177.626562 453.863682 
C 172.371095 453.863682 167.330171 455.951702 163.613995 459.667878 
C 159.897818 463.384054 157.809799 468.424978 157.809799 473.680446 
C 157.809799 478.935913 159.897818 483.976837 163.613995 487.693013 
C 167.330171 491.409189 172.371095 493.497209 177.626562 493.497209 
z
" clip-path="url(#p7c3a829926)" style="fill: #d62728; fill-opacity: 0.99; stroke: #d62728; stroke-opacity: 0.99"/>
    <path d="M 262.698916 520.997525 
C 267.94112 520.997525 272.969324 518.914775 276.676122 515.207976 
C 280.382921 511.501178 282.465671 506.472974 282.465671 501.230769 
C 282.465671 495.988564 280.382921 490.960361 276.676122 487.253562 
C 272.969324 483.546764 267.94112 481.464014 262.698916 481.464014 
C 257.456711 481.464014 252.428507 483.546764 248.721709 487.253562 
C 245.01491 490.960361 242.93216 495.988564 242.93216 501.230769 
C 242.93216 506.472974 245.01491 511.501178 248.721709 515.207976 
C 252.428507 518.914775 257.456711 520.997525 262.698916 520.997525 
z
" clip-path="url(#p7c3a829926)" style="fill: #d62728; fill-opacity: 0.99; stroke: #d62728; stroke-opacity: 0.99"/>
    <path d="M 351.659252 511.53382 
C 356.863139 511.53382 361.854589 509.466293 365.534292 505.78659 
C 369.213996 502.106886 371.281522 497.115436 371.281522 491.91155 
C 371.281522 486.707663 369.213996 481.716213 365.534292 478.036509 
C 361.854589 474.356806 356.863139 472.289279 351.659252 472.289279 
C 346.455365 472.289279 341.463915 474.356806 337.784212 478.036509 
C 334.104508 481.716213 332.036982 486.707663 332.036982 491.91155 
C 332.036982 497.115436 334.104508 502.106886 337.784212 505.78659 
C 341.463915 509.466293 346.455365 511.53382 351.659252 511.53382 
z
" clip-path="url(#p7c3a829926)" style="fill: #d62728; fill-opacity: 0.99; stroke: #d62728; stroke-opacity: 0.99"/>
    <path d="M 429.125535 466.916088 
C 434.318723 466.916088 439.29991 464.852812 442.972049 461.180674 
C 446.644187 457.508536 448.707462 452.527348 448.707462 447.33416 
C 448.707462 442.140972 446.644187 437.159785 442.972049 433.487646 
C 439.29991 429.815508 434.318723 427.752232 429.125535 427.752232 
C 423.932347 427.752232 418.951159 429.815508 415.279021 433.487646 
C 411.606882 437.159785 409.543607 442.140972 409.543607 447.33416 
C 409.543607 452.527348 411.606882 457.508536 415.279021 461.180674 
C 418.951159 464.852812 423.932347 466.916088 429.125535 466.916088 
z
" clip-path="url(#p7c3a829926)" style="fill: #d62728; fill-opacity: 0.99; stroke: #d62728; stroke-opacity: 0.99"/>
    <path d="M 481.703125 394.571376 
C 486.838761 394.571376 491.764746 392.530967 495.396189 388.899524 
C 499.027632 385.268081 501.068042 380.342096 501.068042 375.20646 
C 501.068042 370.070824 499.027632 365.144839 495.396189 361.513396 
C 491.764746 357.881953 486.838761 355.841543 481.703125 355.841543 
C 476.567489 355.841543 471.641504 357.881953 468.010061 361.513396 
C 464.378618 365.144839 462.338208 370.070824 462.338208 375.20646 
C 462.338208 380.342096 464.378618 385.268081 468.010061 388.899524 
C 471.641504 392.530967 476.567489 394.571376 481.703125 394.571376 
z
" clip-path="url(#p7c3a829926)" style="fill: #d62728; fill-opacity: 0.99; stroke: #d62728; stroke-opacity: 0.99"/>
   </g>
   <g id="text_1">
    <g id="patch_2">
     <path d="M 462.42424 296.315156 
L 538.177521 296.315156 
L 538.177521 279.684844 
L 462.42424 279.684844 
z
" clip-path="url(#p7c3a829926)" style="fill: #ffffff; opacity: 0.7; stroke: #000000; stroke-linejoin: miter"/>
    </g>
    <g clip-path="url(#p7c3a829926)">
     <!-- Sanjeev Kumar -->
     <g transform="translate(466.38424 290.483437)scale(0.09 -0.09)">
      <defs>
       <path id="DejaVuSans-53" d="M 3425 4513 
L 3425 3897 
Q 3066 4069 2747 4153 
Q 2428 4238 2131 4238 
Q 1616 4238 1336 4038 
Q 1056 3838 1056 3469 
Q 1056 3159 1242 3001 
Q 1428 2844 1947 2747 
L 2328 2669 
Q 3034 2534 3370 2195 
Q 3706 1856 3706 1288 
Q 3706 609 3251 259 
Q 2797 -91 1919 -91 
Q 1588 -91 1214 -16 
Q 841 59 441 206 
L 441 856 
Q 825 641 1194 531 
Q 1563 422 1919 422 
Q 2459 422 2753 634 
Q 3047 847 3047 1241 
Q 3047 1584 2836 1778 
Q 2625 1972 2144 2069 
L 1759 2144 
Q 1053 2284 737 2584 
Q 422 2884 422 3419 
Q 422 4038 858 4394 
Q 1294 4750 2059 4750 
Q 2388 4750 2728 4690 
Q 3069 4631 3425 4513 
z
" transform="scale(0.015625)"/>
       <path id="DejaVuSans-61" d="M 2194 1759 
Q 1497 1759 1228 1600 
Q 959 1441 959 1056 
Q 959 750 1161 570 
Q 1363 391 1709 391 
Q 2188 391 2477 730 
Q 2766 1069 2766 1631 
L 2766 1759 
L 2194 1759 
z
M 3341 1997 
L 3341 0 
L 2766 0 
L 2766 531 
Q 2569 213 2275 61 
Q 1981 -91 1556 -91 
Q 1019 -91 701 211 
Q 384 513 384 1019 
Q 384 1609 779 1909 
Q 1175 2209 1959 2209 
L 2766 2209 
L 2766 2266 
Q 2766 2663 2505 2880 
Q 2244 3097 1772 3097 
Q 1472 3097 1187 3025 
Q 903 2953 641 2809 
L 641 3341 
Q 956 3463 1253 3523 
Q 1550 3584 1831 3584 
Q 2591 3584 2966 3190 
Q 3341 2797 3341 1997 
z
" transform="scale(0.015625)"/>
       <path id="DejaVuSans-6e" d="M 3513 2113 
L 3513 0 
L 2938 0 
L 2938 2094 
Q 2938 2591 2744 2837 
Q 2550 3084 2163 3084 
Q 1697 3084 1428 2787 
Q 1159 2491 1159 1978 
L 1159 0 
L 581 0 
L 581 3500 
L 1159 3500 
L 1159 2956 
Q 1366 3272 1645 3428 
Q 1925 3584 2291 3584 
Q 2894 3584 3203 3211 
Q 3513 2838 3513 2113 
z
" transform="scale(0.015625)"/>
       <path id="DejaVuSans-6a" d="M 603 3500 
L 1178 3500 
L 1178 -63 
Q 1178 -731 923 -1031 
Q 669 -1331 103 -1331 
L -116 -1331 
L -116 -844 
L 38 -844 
Q 366 -844 484 -692 
Q 603 -541 603 -63 
L 603 3500 
z
M 603 4863 
L 1178 4863 
L 1178 4134 
L 603 4134 
L 603 4863 
z
" transform="scale(0.015625)"/>
       <path id="DejaVuSans-65" d="M 3597 1894 
L 3597 1613 
L 953 1613 
Q 991 1019 1311 708 
Q 1631 397 2203 397 
Q 2534 397 2845 478 
Q 3156 559 3463 722 
L 3463 178 
Q 3153 47 2828 -22 
Q 2503 -91 2169 -91 
Q 1331 -91 842 396 
Q 353 884 353 1716 
Q 353 2575 817 3079 
Q 1281 3584 2069 3584 
Q 2775 3584 3186 3129 
Q 3597 2675 3597 1894 
z
M 3022 2063 
Q 3016 2534 2758 2815 
Q 2500 3097 2075 3097 
Q 1594 3097 1305 2825 
Q 1016 2553 972 2059 
L 3022 2063 
z
" transform="scale(0.015625)"/>
       <path id="DejaVuSans-76" d="M 191 3500 
L 800 3500 
L 1894 563 
L 2988 3500 
L 3597 3500 
L 2284 0 
L 1503 0 
L 191 3500 
z
" transform="scale(0.015625)"/>
       <path id="DejaVuSans-20" transform="scale(0.015625)"/>
       <path id="DejaVuSans-4b" d="M 628 4666 
L 1259 4666 
L 1259 2694 
L 3353 4666 
L 4166 4666 
L 1850 2491 
L 4331 0 
L 3500 0 
L 1259 2247 
L 1259 0 
L 628 0 
L 628 4666 
z
" transform="scale(0.015625)"/>
       <path id="DejaVuSans-75" d="M 544 1381 
L 544 3500 
L 1119 3500 
L 1119 1403 
Q 1119 906 1312 657 
Q 1506 409 1894 409 
Q 2359 409 2629 706 
Q 2900 1003 2900 1516 
L 2900 3500 
L 3475 3500 
L 3475 0 
L 2900 0 
L 2900 538 
Q 2691 219 2414 64 
Q 2138 -91 1772 -91 
Q 1169 -91 856 284 
Q 544 659 544 1381 
z
M 1991 3584 
L 1991 3584 
z
" transform="scale(0.015625)"/>
       <path id="DejaVuSans-6d" d="M 3328 2828 
Q 3544 3216 3844 3400 
Q 4144 3584 4550 3584 
Q 5097 3584 5394 3201 
Q 5691 2819 5691 2113 
L 5691 0 
L 5113 0 
L 5113 2094 
Q 5113 2597 4934 2840 
Q 4756 3084 4391 3084 
Q 3944 3084 3684 2787 
Q 3425 2491 3425 1978 
L 3425 0 
L 2847 0 
L 2847 2094 
Q 2847 2600 2669 2842 
Q 2491 3084 2119 3084 
Q 1678 3084 1418 2786 
Q 1159 2488 1159 1978 
L 1159 0 
L 581 0 
L 581 3500 
L 1159 3500 
L 1159 2956 
Q 1356 3278 1631 3431 
Q 1906 3584 2284 3584 
Q 2666 3584 2933 3390 
Q 3200 3197 3328 2828 
z
" transform="scale(0.015625)"/>
       <path id="DejaVuSans-72" d="M 2631 2963 
Q 2534 3019 2420 3045 
Q 2306 3072 2169 3072 
Q 1681 3072 1420 2755 
Q 1159 2438 1159 1844 
L 1159 0 
L 581 0 
L 581 3500 
L 1159 3500 
L 1159 2956 
Q 1341 3275 1631 3429 
Q 1922 3584 2338 3584 
Q 2397 3584 2469 3576 
Q 2541 3569 2628 3553 
L 2631 2963 
z
" transform="scale(0.015625)"/>
      </defs>
      <use xlink:href="#DejaVuSans-53"/>
      <use xlink:href="#DejaVuSans-61" x="63.476562"/>
      <use xlink:href="#DejaVuSans-6e" x="124.755859"/>
      <use xlink:href="#DejaVuSans-6a" x="188.134766"/>
      <use xlink:href="#DejaVuSans-65" x="215.917969"/>
      <use xlink:href="#DejaVuSans-65" x="277.441406"/>
      <use xlink:href="#DejaVuSans-76" x="338.964844"/>
      <use xlink:href="#DejaVuSans-20" x="398.144531"/>
      <use xlink:href="#DejaVuSans-4b" x="429.931641"/>
      <use xlink:href="#DejaVuSans-75" x="490.507812"/>
      <use xlink:href="#DejaVuSans-6d" x="553.886719"/>
      <use xlink:href="#DejaVuSans-61" x="651.298828"/>
      <use xlink:href="#DejaVuSans-72" x="712.578125"/>
     </g>
    </g>
   </g>
   <g id="text_2">
    <g id="patch_3">
     <path d="M 452.408803 209.108665 
L 510.997396 209.108665 
L 510.997396 192.478352 
L 452.408803 192.478352 
z
" clip-path="url(#p7c3a829926)" style="fill: #ffffff; opacity: 0.7; stroke: #000000; stroke-linejoin: miter"/>
    </g>
    <g clip-path="url(#p7c3a829926)">
     <!-- Dev Kishan -->
     <g transform="translate(456.368803 203.276946)scale(0.09 -0.09)">
      <defs>
       <path id="DejaVuSans-44" d="M 1259 4147 
L 1259 519 
L 2022 519 
Q 2988 519 3436 956 
Q 3884 1394 3884 2338 
Q 3884 3275 3436 3711 
Q 2988 4147 2022 4147 
L 1259 4147 
z
M 628 4666 
L 1925 4666 
Q 3281 4666 3915 4102 
Q 4550 3538 4550 2338 
Q 4550 1131 3912 565 
Q 3275 0 1925 0 
L 628 0 
L 628 4666 
z
" transform="scale(0.015625)"/>
       <path id="DejaVuSans-69" d="M 603 3500 
L 1178 3500 
L 1178 0 
L 603 0 
L 603 3500 
z
M 603 4863 
L 1178 4863 
L 1178 4134 
L 603 4134 
L 603 4863 
z
" transform="scale(0.015625)"/>
       <path id="DejaVuSans-73" d="M 2834 3397 
L 2834 2853 
Q 2591 2978 2328 3040 
Q 2066 3103 1784 3103 
Q 1356 3103 1142 2972 
Q 928 2841 928 2578 
Q 928 2378 1081 2264 
Q 1234 2150 1697 2047 
L 1894 2003 
Q 2506 1872 2764 1633 
Q 3022 1394 3022 966 
Q 3022 478 2636 193 
Q 2250 -91 1575 -91 
Q 1294 -91 989 -36 
Q 684 19 347 128 
L 347 722 
Q 666 556 975 473 
Q 1284 391 1588 391 
Q 1994 391 2212 530 
Q 2431 669 2431 922 
Q 2431 1156 2273 1281 
Q 2116 1406 1581 1522 
L 1381 1569 
Q 847 1681 609 1914 
Q 372 2147 372 2553 
Q 372 3047 722 3315 
Q 1072 3584 1716 3584 
Q 2034 3584 2315 3537 
Q 2597 3491 2834 3397 
z
" transform="scale(0.015625)"/>
       <path id="DejaVuSans-68" d="M 3513 2113 
L 3513 0 
L 2938 0 
L 2938 2094 
Q 2938 2591 2744 2837 
Q 2550 3084 2163 3084 
Q 1697 3084 1428 2787 
Q 1159 2491 1159 1978 
L 1159 0 
L 581 0 
L 581 4863 
L 1159 4863 
L 1159 2956 
Q 1366 3272 1645 3428 
Q 1925 3584 2291 3584 
Q 2894 3584 3203 3211 
Q 3513 2838 3513 2113 
z
" transform="scale(0.015625)"/>
      </defs>
      <use xlink:href="#DejaVuSans-44"/>
      <use xlink:href="#DejaVuSans-65" x="77.001953"/>
      <use xlink:href="#DejaVuSans-76" x="138.525391"/>
      <use xlink:href="#DejaVuSans-20" x="197.705078"/>
      <use xlink:href="#DejaVuSans-4b" x="229.492188"/>
      <use xlink:href="#DejaVuSans-69" x="295.068359"/>
      <use xlink:href="#DejaVuSans-73" x="322.851562"/>
      <use xlink:href="#DejaVuSans-68" x="374.951172"/>
      <use xlink:href="#DejaVuSans-61" x="438.330078"/>
      <use xlink:href="#DejaVuSans-6e" x="499.609375"/>
     </g>
    </g>
   </g>
   <g id="text_3">
    <g id="patch_4">
     <path d="M 380.697059 136.980958 
L 477.553934 136.980958 
L 477.553934 120.350645 
L 380.697059 120.350645 
z
" clip-path="url(#p7c3a829926)" style="fill: #ffffff; opacity: 0.7; stroke: #000000; stroke-linejoin: miter"/>
    </g>
    <g clip-path="url(#p7c3a829926)">
     <!-- Subrata Sensharma -->
     <g transform="translate(384.657059 131.149239)scale(0.09 -0.09)">
      <defs>
       <path id="DejaVuSans-62" d="M 3116 1747 
Q 3116 2381 2855 2742 
Q 2594 3103 2138 3103 
Q 1681 3103 1420 2742 
Q 1159 2381 1159 1747 
Q 1159 1113 1420 752 
Q 1681 391 2138 391 
Q 2594 391 2855 752 
Q 3116 1113 3116 1747 
z
M 1159 2969 
Q 1341 3281 1617 3432 
Q 1894 3584 2278 3584 
Q 2916 3584 3314 3078 
Q 3713 2572 3713 1747 
Q 3713 922 3314 415 
Q 2916 -91 2278 -91 
Q 1894 -91 1617 61 
Q 1341 213 1159 525 
L 1159 0 
L 581 0 
L 581 4863 
L 1159 4863 
L 1159 2969 
z
" transform="scale(0.015625)"/>
       <path id="DejaVuSans-74" d="M 1172 4494 
L 1172 3500 
L 2356 3500 
L 2356 3053 
L 1172 3053 
L 1172 1153 
Q 1172 725 1289 603 
Q 1406 481 1766 481 
L 2356 481 
L 2356 0 
L 1766 0 
Q 1100 0 847 248 
Q 594 497 594 1153 
L 594 3053 
L 172 3053 
L 172 3500 
L 594 3500 
L 594 4494 
L 1172 4494 
z
" transform="scale(0.015625)"/>
      </defs>
      <use xlink:href="#DejaVuSans-53"/>
      <use xlink:href="#DejaVuSans-75" x="63.476562"/>
      <use xlink:href="#DejaVuSans-62" x="126.855469"/>
      <use xlink:href="#DejaVuSans-72" x="190.332031"/>
      <use xlink:href="#DejaVuSans-61" x="231.445312"/>
      <use xlink:href="#DejaVuSans-74" x="292.724609"/>
      <use xlink:href="#DejaVuSans-61" x="331.933594"/>
      <use xlink:href="#DejaVuSans-20" x="393.212891"/>
      <use xlink:href="#DejaVuSans-53" x="425"/>
      <use xlink:href="#DejaVuSans-65" x="488.476562"/>
      <use xlink:href="#DejaVuSans-6e" x="550"/>
      <use xlink:href="#DejaVuSans-73" x="613.378906"/>
      <use xlink:href="#DejaVuSans-68" x="665.478516"/>
      <use xlink:href="#DejaVuSans-61" x="728.857422"/>
      <use xlink:href="#DejaVuSans-72" x="790.136719"/>
      <use xlink:href="#DejaVuSans-6d" x="829.5"/>
      <use xlink:href="#DejaVuSans-61" x="926.912109"/>
     </g>
    </g>
   </g>
   <g id="text_4">
    <g id="patch_5">
     <path d="M 317.452189 92.403594 
L 385.866251 92.403594 
L 385.866251 75.773281 
L 317.452189 75.773281 
z
" clip-path="url(#p7c3a829926)" style="fill: #ffffff; opacity: 0.7; stroke: #000000; stroke-linejoin: miter"/>
    </g>
    <g clip-path="url(#p7c3a829926)">
     <!-- Peter Jackson -->
     <g transform="translate(321.412189 86.571875)scale(0.09 -0.09)">
      <defs>
       <path id="DejaVuSans-50" d="M 1259 4147 
L 1259 2394 
L 2053 2394 
Q 2494 2394 2734 2622 
Q 2975 2850 2975 3272 
Q 2975 3691 2734 3919 
Q 2494 4147 2053 4147 
L 1259 4147 
z
M 628 4666 
L 2053 4666 
Q 2838 4666 3239 4311 
Q 3641 3956 3641 3272 
Q 3641 2581 3239 2228 
Q 2838 1875 2053 1875 
L 1259 1875 
L 1259 0 
L 628 0 
L 628 4666 
z
" transform="scale(0.015625)"/>
       <path id="DejaVuSans-4a" d="M 628 4666 
L 1259 4666 
L 1259 325 
Q 1259 -519 939 -900 
Q 619 -1281 -91 -1281 
L -331 -1281 
L -331 -750 
L -134 -750 
Q 284 -750 456 -515 
Q 628 -281 628 325 
L 628 4666 
z
" transform="scale(0.015625)"/>
       <path id="DejaVuSans-63" d="M 3122 3366 
L 3122 2828 
Q 2878 2963 2633 3030 
Q 2388 3097 2138 3097 
Q 1578 3097 1268 2742 
Q 959 2388 959 1747 
Q 959 1106 1268 751 
Q 1578 397 2138 397 
Q 2388 397 2633 464 
Q 2878 531 3122 666 
L 3122 134 
Q 2881 22 2623 -34 
Q 2366 -91 2075 -91 
Q 1284 -91 818 406 
Q 353 903 353 1747 
Q 353 2603 823 3093 
Q 1294 3584 2113 3584 
Q 2378 3584 2631 3529 
Q 2884 3475 3122 3366 
z
" transform="scale(0.015625)"/>
       <path id="DejaVuSans-6b" d="M 581 4863 
L 1159 4863 
L 1159 1991 
L 2875 3500 
L 3609 3500 
L 1753 1863 
L 3688 0 
L 2938 0 
L 1159 1709 
L 1159 0 
L 581 0 
L 581 4863 
z
" transform="scale(0.015625)"/>
       <path id="DejaVuSans-6f" d="M 1959 3097 
Q 1497 3097 1228 2736 
Q 959 2375 959 1747 
Q 959 1119 1226 758 
Q 1494 397 1959 397 
Q 2419 397 2687 759 
Q 2956 1122 2956 1747 
Q 2956 2369 2687 2733 
Q 2419 3097 1959 3097 
z
M 1959 3584 
Q 2709 3584 3137 3096 
Q 3566 2609 3566 1747 
Q 3566 888 3137 398 
Q 2709 -91 1959 -91 
Q 1206 -91 779 398 
Q 353 888 353 1747 
Q 353 2609 779 3096 
Q 1206 3584 1959 3584 
z
" transform="scale(0.015625)"/>
      </defs>
      <use xlink:href="#DejaVuSans-50"/>
      <use xlink:href="#DejaVuSans-65" x="56.677734"/>
      <use xlink:href="#DejaVuSans-74" x="118.201172"/>
      <use xlink:href="#DejaVuSans-65" x="157.410156"/>
      <use xlink:href="#DejaVuSans-72" x="218.933594"/>
      <use xlink:href="#DejaVuSans-20" x="260.046875"/>
      <use xlink:href="#DejaVuSans-4a" x="291.833984"/>
      <use xlink:href="#DejaVuSans-61" x="321.326172"/>
      <use xlink:href="#DejaVuSans-63" x="382.605469"/>
      <use xlink:href="#DejaVuSans-6b" x="437.585938"/>
      <use xlink:href="#DejaVuSans-73" x="495.496094"/>
      <use xlink:href="#DejaVuSans-6f" x="547.595703"/>
      <use xlink:href="#DejaVuSans-6e" x="608.777344"/>
     </g>
    </g>
   </g>
   <g id="text_5">
    <g id="patch_6">
     <path d="M 225.296846 83.084387 
L 300.100908 83.084387 
L 300.100908 66.454075 
L 225.296846 66.454075 
z
" clip-path="url(#p7c3a829926)" style="fill: #ffffff; opacity: 0.7; stroke: #000000; stroke-linejoin: miter"/>
    </g>
    <g clip-path="url(#p7c3a829926)">
     <!-- Clint Eastwood -->
     <g transform="translate(229.256846 77.252668)scale(0.09 -0.09)">
      <defs>
       <path id="DejaVuSans-43" d="M 4122 4306 
L 4122 3641 
Q 3803 3938 3442 4084 
Q 3081 4231 2675 4231 
Q 1875 4231 1450 3742 
Q 1025 3253 1025 2328 
Q 1025 1406 1450 917 
Q 1875 428 2675 428 
Q 3081 428 3442 575 
Q 3803 722 4122 1019 
L 4122 359 
Q 3791 134 3420 21 
Q 3050 -91 2638 -91 
Q 1578 -91 968 557 
Q 359 1206 359 2328 
Q 359 3453 968 4101 
Q 1578 4750 2638 4750 
Q 3056 4750 3426 4639 
Q 3797 4528 4122 4306 
z
" transform="scale(0.015625)"/>
       <path id="DejaVuSans-6c" d="M 603 4863 
L 1178 4863 
L 1178 0 
L 603 0 
L 603 4863 
z
" transform="scale(0.015625)"/>
       <path id="DejaVuSans-45" d="M 628 4666 
L 3578 4666 
L 3578 4134 
L 1259 4134 
L 1259 2753 
L 3481 2753 
L 3481 2222 
L 1259 2222 
L 1259 531 
L 3634 531 
L 3634 0 
L 628 0 
L 628 4666 
z
" transform="scale(0.015625)"/>
       <path id="DejaVuSans-77" d="M 269 3500 
L 844 3500 
L 1563 769 
L 2278 3500 
L 2956 3500 
L 3675 769 
L 4391 3500 
L 4966 3500 
L 4050 0 
L 3372 0 
L 2619 2869 
L 1863 0 
L 1184 0 
L 269 3500 
z
" transform="scale(0.015625)"/>
       <path id="DejaVuSans-64" d="M 2906 2969 
L 2906 4863 
L 3481 4863 
L 3481 0 
L 2906 0 
L 2906 525 
Q 2725 213 2448 61 
Q 2172 -91 1784 -91 
Q 1150 -91 751 415 
Q 353 922 353 1747 
Q 353 2572 751 3078 
Q 1150 3584 1784 3584 
Q 2172 3584 2448 3432 
Q 2725 3281 2906 2969 
z
M 947 1747 
Q 947 1113 1208 752 
Q 1469 391 1925 391 
Q 2381 391 2643 752 
Q 2906 1113 2906 1747 
Q 2906 2381 2643 2742 
Q 2381 3103 1925 3103 
Q 1469 3103 1208 2742 
Q 947 2381 947 1747 
z
" transform="scale(0.015625)"/>
      </defs>
      <use xlink:href="#DejaVuSans-43"/>
      <use xlink:href="#DejaVuSans-6c" x="69.824219"/>
      <use xlink:href="#DejaVuSans-69" x="97.607422"/>
      <use xlink:href="#DejaVuSans-6e" x="125.390625"/>
      <use xlink:href="#DejaVuSans-74" x="188.769531"/>
      <use xlink:href="#DejaVuSans-20" x="227.978516"/>
      <use xlink:href="#DejaVuSans-45" x="259.765625"/>
      <use xlink:href="#DejaVuSans-61" x="322.949219"/>
      <use xlink:href="#DejaVuSans-73" x="384.228516"/>
      <use xlink:href="#DejaVuSans-74" x="436.328125"/>
      <use xlink:href="#DejaVuSans-77" x="475.537109"/>
      <use xlink:href="#DejaVuSans-6f" x="557.324219"/>
      <use xlink:href="#DejaVuSans-6f" x="618.505859"/>
      <use xlink:href="#DejaVuSans-64" x="679.6875"/>
     </g>
    </g>
   </g>
   <g id="text_6">
    <g id="patch_7">
     <path d="M 147.110202 110.634724 
L 208.142858 110.634724 
L 208.142858 94.004411 
L 147.110202 94.004411 
z
" clip-path="url(#p7c3a829926)" style="fill: #ffffff; opacity: 0.7; stroke: #000000; stroke-linejoin: miter"/>
    </g>
    <g clip-path="url(#p7c3a829926)">
     <!-- Andy Serkis -->
     <g transform="translate(151.070202 104.803005)scale(0.09 -0.09)">
      <defs>
       <path id="DejaVuSans-41" d="M 2188 4044 
L 1331 1722 
L 3047 1722 
L 2188 4044 
z
M 1831 4666 
L 2547 4666 
L 4325 0 
L 3669 0 
L 3244 1197 
L 1141 1197 
L 716 0 
L 50 0 
L 1831 4666 
z
" transform="scale(0.015625)"/>
       <path id="DejaVuSans-79" d="M 2059 -325 
Q 1816 -950 1584 -1140 
Q 1353 -1331 966 -1331 
L 506 -1331 
L 506 -850 
L 844 -850 
Q 1081 -850 1212 -737 
Q 1344 -625 1503 -206 
L 1606 56 
L 191 3500 
L 800 3500 
L 1894 763 
L 2988 3500 
L 3597 3500 
L 2059 -325 
z
" transform="scale(0.015625)"/>
      </defs>
      <use xlink:href="#DejaVuSans-41"/>
      <use xlink:href="#DejaVuSans-6e" x="68.408203"/>
      <use xlink:href="#DejaVuSans-64" x="131.787109"/>
      <use xlink:href="#DejaVuSans-79" x="195.263672"/>
      <use xlink:href="#DejaVuSans-20" x="254.443359"/>
      <use xlink:href="#DejaVuSans-53" x="286.230469"/>
      <use xlink:href="#DejaVuSans-65" x="349.707031"/>
      <use xlink:href="#DejaVuSans-72" x="411.230469"/>
      <use xlink:href="#DejaVuSans-6b" x="452.34375"/>
      <use xlink:href="#DejaVuSans-69" x="510.253906"/>
      <use xlink:href="#DejaVuSans-73" x="538.037109"/>
     </g>
    </g>
   </g>
   <g id="text_7">
    <g id="patch_8">
     <path d="M 78.332909 170.290885 
L 143.971034 170.290885 
L 143.971034 153.660572 
L 78.332909 153.660572 
z
" clip-path="url(#p7c3a829926)" style="fill: #ffffff; opacity: 0.7; stroke: #000000; stroke-linejoin: miter"/>
    </g>
    <g clip-path="url(#p7c3a829926)">
     <!-- Leela Chitnis -->
     <g transform="translate(82.292909 164.459166)scale(0.09 -0.09)">
      <defs>
       <path id="DejaVuSans-4c" d="M 628 4666 
L 1259 4666 
L 1259 531 
L 3531 531 
L 3531 0 
L 628 0 
L 628 4666 
z
" transform="scale(0.015625)"/>
      </defs>
      <use xlink:href="#DejaVuSans-4c"/>
      <use xlink:href="#DejaVuSans-65" x="53.962891"/>
      <use xlink:href="#DejaVuSans-65" x="115.486328"/>
      <use xlink:href="#DejaVuSans-6c" x="177.009766"/>
      <use xlink:href="#DejaVuSans-61" x="204.792969"/>
      <use xlink:href="#DejaVuSans-20" x="266.072266"/>
      <use xlink:href="#DejaVuSans-43" x="297.859375"/>
      <use xlink:href="#DejaVuSans-68" x="367.683594"/>
      <use xlink:href="#DejaVuSans-69" x="431.0625"/>
      <use xlink:href="#DejaVuSans-74" x="458.845703"/>
      <use xlink:href="#DejaVuSans-6e" x="498.054688"/>
      <use xlink:href="#DejaVuSans-69" x="561.433594"/>
      <use xlink:href="#DejaVuSans-73" x="589.216797"/>
     </g>
    </g>
   </g>
   <g id="text_8">
    <g id="patch_9">
     <path d="M 33.334075 251.737805 
L 116.204387 251.737805 
L 116.204387 235.107493 
L 33.334075 235.107493 
z
" clip-path="url(#p7c3a829926)" style="fill: #ffffff; opacity: 0.7; stroke: #000000; stroke-linejoin: miter"/>
    </g>
    <g clip-path="url(#p7c3a829926)">
     <!-- Karuna Banerjee -->
     <g transform="translate(37.294075 245.906086)scale(0.09 -0.09)">
      <defs>
       <path id="DejaVuSans-42" d="M 1259 2228 
L 1259 519 
L 2272 519 
Q 2781 519 3026 730 
Q 3272 941 3272 1375 
Q 3272 1813 3026 2020 
Q 2781 2228 2272 2228 
L 1259 2228 
z
M 1259 4147 
L 1259 2741 
L 2194 2741 
Q 2656 2741 2882 2914 
Q 3109 3088 3109 3444 
Q 3109 3797 2882 3972 
Q 2656 4147 2194 4147 
L 1259 4147 
z
M 628 4666 
L 2241 4666 
Q 2963 4666 3353 4366 
Q 3744 4066 3744 3513 
Q 3744 3084 3544 2831 
Q 3344 2578 2956 2516 
Q 3422 2416 3680 2098 
Q 3938 1781 3938 1306 
Q 3938 681 3513 340 
Q 3088 0 2303 0 
L 628 0 
L 628 4666 
z
" transform="scale(0.015625)"/>
      </defs>
      <use xlink:href="#DejaVuSans-4b"/>
      <use xlink:href="#DejaVuSans-61" x="63.826172"/>
      <use xlink:href="#DejaVuSans-72" x="125.105469"/>
      <use xlink:href="#DejaVuSans-75" x="166.21875"/>
      <use xlink:href="#DejaVuSans-6e" x="229.597656"/>
      <use xlink:href="#DejaVuSans-61" x="292.976562"/>
      <use xlink:href="#DejaVuSans-20" x="354.255859"/>
      <use xlink:href="#DejaVuSans-42" x="386.042969"/>
      <use xlink:href="#DejaVuSans-61" x="454.646484"/>
      <use xlink:href="#DejaVuSans-6e" x="515.925781"/>
      <use xlink:href="#DejaVuSans-65" x="579.304688"/>
      <use xlink:href="#DejaVuSans-72" x="640.828125"/>
      <use xlink:href="#DejaVuSans-6a" x="681.941406"/>
      <use xlink:href="#DejaVuSans-65" x="709.724609"/>
      <use xlink:href="#DejaVuSans-65" x="771.248047"/>
     </g>
    </g>
   </g>
   <g id="text_9">
    <g id="patch_10">
     <path d="M 28.87979 340.892546 
L 120.658697 340.892546 
L 120.658697 324.262233 
L 28.87979 324.262233 
z
" clip-path="url(#p7c3a829926)" style="fill: #ffffff; opacity: 0.7; stroke: #000000; stroke-linejoin: miter"/>
    </g>
    <g clip-path="url(#p7c3a829926)">
     <!-- Michael Badalucco -->
     <g transform="translate(32.83979 335.060827)scale(0.09 -0.09)">
      <defs>
       <path id="DejaVuSans-4d" d="M 628 4666 
L 1569 4666 
L 2759 1491 
L 3956 4666 
L 4897 4666 
L 4897 0 
L 4281 0 
L 4281 4097 
L 3078 897 
L 2444 897 
L 1241 4097 
L 1241 0 
L 628 0 
L 628 4666 
z
" transform="scale(0.015625)"/>
      </defs>
      <use xlink:href="#DejaVuSans-4d"/>
      <use xlink:href="#DejaVuSans-69" x="86.279297"/>
      <use xlink:href="#DejaVuSans-63" x="114.0625"/>
      <use xlink:href="#DejaVuSans-68" x="169.042969"/>
      <use xlink:href="#DejaVuSans-61" x="232.421875"/>
      <use xlink:href="#DejaVuSans-65" x="293.701172"/>
      <use xlink:href="#DejaVuSans-6c" x="355.224609"/>
      <use xlink:href="#DejaVuSans-20" x="383.007812"/>
      <use xlink:href="#DejaVuSans-42" x="414.794922"/>
      <use xlink:href="#DejaVuSans-61" x="483.398438"/>
      <use xlink:href="#DejaVuSans-64" x="544.677734"/>
      <use xlink:href="#DejaVuSans-61" x="608.154297"/>
      <use xlink:href="#DejaVuSans-6c" x="669.433594"/>
      <use xlink:href="#DejaVuSans-75" x="697.216797"/>
      <use xlink:href="#DejaVuSans-63" x="760.595703"/>
      <use xlink:href="#DejaVuSans-63" x="815.576172"/>
      <use xlink:href="#DejaVuSans-6f" x="870.556641"/>
     </g>
    </g>
   </g>
   <g id="text_10">
    <g id="patch_11">
     <path d="M 78.820891 422.33944 
L 143.483079 422.33944 
L 143.483079 405.709128 
L 78.820891 405.709128 
z
" clip-path="url(#p7c3a829926)" style="fill: #ffffff; opacity: 0.7; stroke: #000000; stroke-linejoin: miter"/>
    </g>
    <g clip-path="url(#p7c3a829926)">
     <!-- Danny Aiello -->
     <g transform="translate(82.780891 416.507722)scale(0.09 -0.09)">
      <use xlink:href="#DejaVuSans-44"/>
      <use xlink:href="#DejaVuSans-61" x="77.001953"/>
      <use xlink:href="#DejaVuSans-6e" x="138.28125"/>
      <use xlink:href="#DejaVuSans-6e" x="201.660156"/>
      <use xlink:href="#DejaVuSans-79" x="265.039062"/>
      <use xlink:href="#DejaVuSans-20" x="324.21875"/>
      <use xlink:href="#DejaVuSans-41" x="356.005859"/>
      <use xlink:href="#DejaVuSans-69" x="424.414062"/>
      <use xlink:href="#DejaVuSans-65" x="452.197266"/>
      <use xlink:href="#DejaVuSans-6c" x="513.720703"/>
      <use xlink:href="#DejaVuSans-6c" x="541.503906"/>
      <use xlink:href="#DejaVuSans-6f" x="569.287109"/>
     </g>
    </g>
   </g>
   <g id="text_11">
    <g id="patch_12">
     <path d="M 139.543203 481.995602 
L 215.709922 481.995602 
L 215.709922 465.365289 
L 139.543203 465.365289 
z
" clip-path="url(#p7c3a829926)" style="fill: #ffffff; opacity: 0.7; stroke: #000000; stroke-linejoin: miter"/>
    </g>
    <g clip-path="url(#p7c3a829926)">
     <!-- Sienna Guillory -->
     <g transform="translate(143.503203 476.163883)scale(0.09 -0.09)">
      <defs>
       <path id="DejaVuSans-47" d="M 3809 666 
L 3809 1919 
L 2778 1919 
L 2778 2438 
L 4434 2438 
L 4434 434 
Q 4069 175 3628 42 
Q 3188 -91 2688 -91 
Q 1594 -91 976 548 
Q 359 1188 359 2328 
Q 359 3472 976 4111 
Q 1594 4750 2688 4750 
Q 3144 4750 3555 4637 
Q 3966 4525 4313 4306 
L 4313 3634 
Q 3963 3931 3569 4081 
Q 3175 4231 2741 4231 
Q 1884 4231 1454 3753 
Q 1025 3275 1025 2328 
Q 1025 1384 1454 906 
Q 1884 428 2741 428 
Q 3075 428 3337 486 
Q 3600 544 3809 666 
z
" transform="scale(0.015625)"/>
      </defs>
      <use xlink:href="#DejaVuSans-53"/>
      <use xlink:href="#DejaVuSans-69" x="63.476562"/>
      <use xlink:href="#DejaVuSans-65" x="91.259766"/>
      <use xlink:href="#DejaVuSans-6e" x="152.783203"/>
      <use xlink:href="#DejaVuSans-6e" x="216.162109"/>
      <use xlink:href="#DejaVuSans-61" x="279.541016"/>
      <use xlink:href="#DejaVuSans-20" x="340.820312"/>
      <use xlink:href="#DejaVuSans-47" x="372.607422"/>
      <use xlink:href="#DejaVuSans-75" x="450.097656"/>
      <use xlink:href="#DejaVuSans-69" x="513.476562"/>
      <use xlink:href="#DejaVuSans-6c" x="541.259766"/>
      <use xlink:href="#DejaVuSans-6c" x="569.042969"/>
      <use xlink:href="#DejaVuSans-6f" x="596.826172"/>
      <use xlink:href="#DejaVuSans-72" x="658.007812"/>
      <use xlink:href="#DejaVuSans-79" x="699.121094"/>
     </g>
    </g>
   </g>
   <g id="text_12">
    <g id="patch_13">
     <path d="M 224.621884 509.545925 
L 300.775947 509.545925 
L 300.775947 492.915613 
L 224.621884 492.915613 
z
" clip-path="url(#p7c3a829926)" style="fill: #ffffff; opacity: 0.7; stroke: #000000; stroke-linejoin: miter"/>
    </g>
    <g clip-path="url(#p7c3a829926)">
     <!-- Greta Schröder -->
     <g transform="translate(228.581884 503.714207)scale(0.09 -0.09)">
      <defs>
       <path id="DejaVuSans-f6" d="M 1959 3097 
Q 1497 3097 1228 2736 
Q 959 2375 959 1747 
Q 959 1119 1226 758 
Q 1494 397 1959 397 
Q 2419 397 2687 759 
Q 2956 1122 2956 1747 
Q 2956 2369 2687 2733 
Q 2419 3097 1959 3097 
z
M 1959 3584 
Q 2709 3584 3137 3096 
Q 3566 2609 3566 1747 
Q 3566 888 3137 398 
Q 2709 -91 1959 -91 
Q 1206 -91 779 398 
Q 353 888 353 1747 
Q 353 2609 779 3096 
Q 1206 3584 1959 3584 
z
M 2253 4850 
L 2888 4850 
L 2888 4219 
L 2253 4219 
L 2253 4850 
z
M 1031 4850 
L 1666 4850 
L 1666 4219 
L 1031 4219 
L 1031 4850 
z
" transform="scale(0.015625)"/>
      </defs>
      <use xlink:href="#DejaVuSans-47"/>
      <use xlink:href="#DejaVuSans-72" x="77.490234"/>
      <use xlink:href="#DejaVuSans-65" x="116.353516"/>
      <use xlink:href="#DejaVuSans-74" x="177.876953"/>
      <use xlink:href="#DejaVuSans-61" x="217.085938"/>
      <use xlink:href="#DejaVuSans-20" x="278.365234"/>
      <use xlink:href="#DejaVuSans-53" x="310.152344"/>
      <use xlink:href="#DejaVuSans-63" x="373.628906"/>
      <use xlink:href="#DejaVuSans-68" x="428.609375"/>
      <use xlink:href="#DejaVuSans-72" x="491.988281"/>
      <use xlink:href="#DejaVuSans-f6" x="530.851562"/>
      <use xlink:href="#DejaVuSans-64" x="592.033203"/>
      <use xlink:href="#DejaVuSans-65" x="655.509766"/>
      <use xlink:href="#DejaVuSans-72" x="717.033203"/>
     </g>
    </g>
   </g>
   <g id="text_13">
    <g id="patch_14">
     <path d="M 330.718783 500.226706 
L 372.599721 500.226706 
L 372.599721 483.596393 
L 330.718783 483.596393 
z
" clip-path="url(#p7c3a829926)" style="fill: #ffffff; opacity: 0.7; stroke: #000000; stroke-linejoin: miter"/>
    </g>
    <g clip-path="url(#p7c3a829926)">
     <!-- Revathi -->
     <g transform="translate(334.678783 494.394987)scale(0.09 -0.09)">
      <defs>
       <path id="DejaVuSans-52" d="M 2841 2188 
Q 3044 2119 3236 1894 
Q 3428 1669 3622 1275 
L 4263 0 
L 3584 0 
L 2988 1197 
Q 2756 1666 2539 1819 
Q 2322 1972 1947 1972 
L 1259 1972 
L 1259 0 
L 628 0 
L 628 4666 
L 2053 4666 
Q 2853 4666 3247 4331 
Q 3641 3997 3641 3322 
Q 3641 2881 3436 2590 
Q 3231 2300 2841 2188 
z
M 1259 4147 
L 1259 2491 
L 2053 2491 
Q 2509 2491 2742 2702 
Q 2975 2913 2975 3322 
Q 2975 3731 2742 3939 
Q 2509 4147 2053 4147 
L 1259 4147 
z
" transform="scale(0.015625)"/>
      </defs>
      <use xlink:href="#DejaVuSans-52"/>
      <use xlink:href="#DejaVuSans-65" x="64.982422"/>
      <use xlink:href="#DejaVuSans-76" x="126.505859"/>
      <use xlink:href="#DejaVuSans-61" x="185.685547"/>
      <use xlink:href="#DejaVuSans-74" x="246.964844"/>
      <use xlink:href="#DejaVuSans-68" x="286.173828"/>
      <use xlink:href="#DejaVuSans-69" x="349.552734"/>
     </g>
    </g>
   </g>
   <g id="text_14">
    <g id="patch_15">
     <path d="M 394.512097 455.649316 
L 463.738972 455.649316 
L 463.738972 439.019004 
L 394.512097 439.019004 
z
" clip-path="url(#p7c3a829926)" style="fill: #ffffff; opacity: 0.7; stroke: #000000; stroke-linejoin: miter"/>
    </g>
    <g clip-path="url(#p7c3a829926)">
     <!-- Pooja Ruparel -->
     <g transform="translate(398.472097 449.817598)scale(0.09 -0.09)">
      <defs>
       <path id="DejaVuSans-70" d="M 1159 525 
L 1159 -1331 
L 581 -1331 
L 581 3500 
L 1159 3500 
L 1159 2969 
Q 1341 3281 1617 3432 
Q 1894 3584 2278 3584 
Q 2916 3584 3314 3078 
Q 3713 2572 3713 1747 
Q 3713 922 3314 415 
Q 2916 -91 2278 -91 
Q 1894 -91 1617 61 
Q 1341 213 1159 525 
z
M 3116 1747 
Q 3116 2381 2855 2742 
Q 2594 3103 2138 3103 
Q 1681 3103 1420 2742 
Q 1159 2381 1159 1747 
Q 1159 1113 1420 752 
Q 1681 391 2138 391 
Q 2594 391 2855 752 
Q 3116 1113 3116 1747 
z
" transform="scale(0.015625)"/>
      </defs>
      <use xlink:href="#DejaVuSans-50"/>
      <use xlink:href="#DejaVuSans-6f" x="56.677734"/>
      <use xlink:href="#DejaVuSans-6f" x="117.859375"/>
      <use xlink:href="#DejaVuSans-6a" x="179.041016"/>
      <use xlink:href="#DejaVuSans-61" x="206.824219"/>
      <use xlink:href="#DejaVuSans-20" x="268.103516"/>
      <use xlink:href="#DejaVuSans-52" x="299.890625"/>
      <use xlink:href="#DejaVuSans-75" x="364.873047"/>
      <use xlink:href="#DejaVuSans-70" x="428.251953"/>
      <use xlink:href="#DejaVuSans-61" x="491.728516"/>
      <use xlink:href="#DejaVuSans-72" x="553.007812"/>
      <use xlink:href="#DejaVuSans-65" x="591.871094"/>
      <use xlink:href="#DejaVuSans-6c" x="653.394531"/>
     </g>
    </g>
   </g>
   <g id="text_15">
    <g id="patch_16">
     <path d="M 445.503438 383.521616 
L 517.902813 383.521616 
L 517.902813 366.891303 
L 445.503438 366.891303 
z
" clip-path="url(#p7c3a829926)" style="fill: #ffffff; opacity: 0.7; stroke: #000000; stroke-linejoin: miter"/>
    </g>
    <g clip-path="url(#p7c3a829926)">
     <!-- Vishal Sharma -->
     <g transform="translate(449.463438 377.689897)scale(0.09 -0.09)">
      <defs>
       <path id="DejaVuSans-56" d="M 1831 0 
L 50 4666 
L 709 4666 
L 2188 738 
L 3669 4666 
L 4325 4666 
L 2547 0 
L 1831 0 
z
" transform="scale(0.015625)"/>
      </defs>
      <use xlink:href="#DejaVuSans-56"/>
      <use xlink:href="#DejaVuSans-69" x="66.158203"/>
      <use xlink:href="#DejaVuSans-73" x="93.941406"/>
      <use xlink:href="#DejaVuSans-68" x="146.041016"/>
      <use xlink:href="#DejaVuSans-61" x="209.419922"/>
      <use xlink:href="#DejaVuSans-6c" x="270.699219"/>
      <use xlink:href="#DejaVuSans-20" x="298.482422"/>
      <use xlink:href="#DejaVuSans-53" x="330.269531"/>
      <use xlink:href="#DejaVuSans-68" x="393.746094"/>
      <use xlink:href="#DejaVuSans-61" x="457.125"/>
      <use xlink:href="#DejaVuSans-72" x="518.404297"/>
      <use xlink:href="#DejaVuSans-6d" x="557.767578"/>
      <use xlink:href="#DejaVuSans-61" x="655.179688"/>
     </g>
    </g>
   </g>
   <g id="text_16">
    <!-- Impactful actors for World cinema genre -->
    <g transform="translate(166.78875 4.8)scale(0.12 -0.12)">
     <defs>
      <path id="DejaVuSans-49" d="M 628 4666 
L 1259 4666 
L 1259 0 
L 628 0 
L 628 4666 
z
" transform="scale(0.015625)"/>
      <path id="DejaVuSans-66" d="M 2375 4863 
L 2375 4384 
L 1825 4384 
Q 1516 4384 1395 4259 
Q 1275 4134 1275 3809 
L 1275 3500 
L 2222 3500 
L 2222 3053 
L 1275 3053 
L 1275 0 
L 697 0 
L 697 3053 
L 147 3053 
L 147 3500 
L 697 3500 
L 697 3744 
Q 697 4328 969 4595 
Q 1241 4863 1831 4863 
L 2375 4863 
z
" transform="scale(0.015625)"/>
      <path id="DejaVuSans-57" d="M 213 4666 
L 850 4666 
L 1831 722 
L 2809 4666 
L 3519 4666 
L 4500 722 
L 5478 4666 
L 6119 4666 
L 4947 0 
L 4153 0 
L 3169 4050 
L 2175 0 
L 1381 0 
L 213 4666 
z
" transform="scale(0.015625)"/>
      <path id="DejaVuSans-67" d="M 2906 1791 
Q 2906 2416 2648 2759 
Q 2391 3103 1925 3103 
Q 1463 3103 1205 2759 
Q 947 2416 947 1791 
Q 947 1169 1205 825 
Q 1463 481 1925 481 
Q 2391 481 2648 825 
Q 2906 1169 2906 1791 
z
M 3481 434 
Q 3481 -459 3084 -895 
Q 2688 -1331 1869 -1331 
Q 1566 -1331 1297 -1286 
Q 1028 -1241 775 -1147 
L 775 -588 
Q 1028 -725 1275 -790 
Q 1522 -856 1778 -856 
Q 2344 -856 2625 -561 
Q 2906 -266 2906 331 
L 2906 616 
Q 2728 306 2450 153 
Q 2172 0 1784 0 
Q 1141 0 747 490 
Q 353 981 353 1791 
Q 353 2603 747 3093 
Q 1141 3584 1784 3584 
Q 2172 3584 2450 3431 
Q 2728 3278 2906 2969 
L 2906 3500 
L 3481 3500 
L 3481 434 
z
" transform="scale(0.015625)"/>
     </defs>
     <use xlink:href="#DejaVuSans-49"/>
     <use xlink:href="#DejaVuSans-6d" x="29.492188"/>
     <use xlink:href="#DejaVuSans-70" x="126.904297"/>
     <use xlink:href="#DejaVuSans-61" x="190.380859"/>
     <use xlink:href="#DejaVuSans-63" x="251.660156"/>
     <use xlink:href="#DejaVuSans-74" x="306.640625"/>
     <use xlink:href="#DejaVuSans-66" x="345.849609"/>
     <use xlink:href="#DejaVuSans-75" x="381.054688"/>
     <use xlink:href="#DejaVuSans-6c" x="444.433594"/>
     <use xlink:href="#DejaVuSans-20" x="472.216797"/>
     <use xlink:href="#DejaVuSans-61" x="504.003906"/>
     <use xlink:href="#DejaVuSans-63" x="565.283203"/>
     <use xlink:href="#DejaVuSans-74" x="620.263672"/>
     <use xlink:href="#DejaVuSans-6f" x="659.472656"/>
     <use xlink:href="#DejaVuSans-72" x="720.654297"/>
     <use xlink:href="#DejaVuSans-73" x="761.767578"/>
     <use xlink:href="#DejaVuSans-20" x="813.867188"/>
     <use xlink:href="#DejaVuSans-66" x="845.654297"/>
     <use xlink:href="#DejaVuSans-6f" x="880.859375"/>
     <use xlink:href="#DejaVuSans-72" x="942.041016"/>
     <use xlink:href="#DejaVuSans-20" x="983.154297"/>
     <use xlink:href="#DejaVuSans-57" x="1014.941406"/>
     <use xlink:href="#DejaVuSans-6f" x="1107.943359"/>
     <use xlink:href="#DejaVuSans-72" x="1169.125"/>
     <use xlink:href="#DejaVuSans-6c" x="1210.238281"/>
     <use xlink:href="#DejaVuSans-64" x="1238.021484"/>
     <use xlink:href="#DejaVuSans-20" x="1301.498047"/>
     <use xlink:href="#DejaVuSans-63" x="1333.285156"/>
     <use xlink:href="#DejaVuSans-69" x="1388.265625"/>
     <use xlink:href="#DejaVuSans-6e" x="1416.048828"/>
     <use xlink:href="#DejaVuSans-65" x="1479.427734"/>
     <use xlink:href="#DejaVuSans-6d" x="1540.951172"/>
     <use xlink:href="#DejaVuSans-61" x="1638.363281"/>
     <use xlink:href="#DejaVuSans-20" x="1699.642578"/>
     <use xlink:href="#DejaVuSans-67" x="1731.429688"/>
     <use xlink:href="#DejaVuSans-65" x="1794.90625"/>
     <use xlink:href="#DejaVuSans-6e" x="1856.429688"/>
     <use xlink:href="#DejaVuSans-72" x="1919.808594"/>
     <use xlink:href="#DejaVuSans-65" x="1958.671875"/>
    </g>
   </g>
  </g>
 </g>
 <defs>
  <clipPath id="p7c3a829926">
   <rect x="10.8" y="10.8" width="554.4" height="554.4"/>
  </clipPath>
 </defs>
</svg>
