<?xml version="1.0" encoding="utf-8" standalone="no"?>
<!DOCTYPE svg PUBLIC "-//W3C//DTD SVG 1.1//EN"
  "http://www.w3.org/Graphics/SVG/1.1/DTD/svg11.dtd">
<svg xmlns:xlink="http://www.w3.org/1999/xlink" width="568.8pt" height="583.918125pt" viewBox="0 0 568.8 583.918125" xmlns="http://www.w3.org/2000/svg" version="1.1">
 <metadata>
  <rdf:RDF xmlns:dc="http://purl.org/dc/elements/1.1/" xmlns:cc="http://creativecommons.org/ns#" xmlns:rdf="http://www.w3.org/1999/02/22-rdf-syntax-ns#">
   <cc:Work>
    <dc:type rdf:resource="http://purl.org/dc/dcmitype/StillImage"/>
    <dc:date>2022-12-23T17:29:40.376369</dc:date>
    <dc:format>image/svg+xml</dc:format>
    <dc:creator>
     <cc:Agent>
      <dc:title>Matplotlib v3.5.2, https://matplotlib.org/</dc:title>
     </cc:Agent>
    </dc:creator>
   </cc:Work>
  </rdf:RDF>
 </metadata>
 <defs>
  <style type="text/css">*{stroke-linejoin: round; stroke-linecap: butt}</style>
 </defs>
 <g id="figure_1">
  <g id="patch_1">
   <path d="M 0 583.918125 
L 568.8 583.918125 
L 568.8 0 
L 0 0 
z
" style="fill: #ffffff"/>
  </g>
  <g id="axes_1">
   <g id="PathCollection_1">
    <path d="M 497.630769 326.904253 
C 504.893655 326.904253 511.86005 324.018678 516.995686 318.883042 
C 522.131322 313.747406 525.016897 306.781011 525.016897 299.518125 
C 525.016897 292.255239 522.131322 285.288844 516.995686 280.153208 
C 511.86005 275.017572 504.893655 272.131997 497.630769 272.131997 
C 490.367883 272.131997 483.401488 275.017572 478.265852 280.153208 
C 473.130217 285.288844 470.244641 292.255239 470.244641 299.518125 
C 470.244641 306.781011 473.130217 313.747406 478.265852 318.883042 
C 483.401488 324.018678 490.367883 326.904253 497.630769 326.904253 
z
" clip-path="url(#p5c8df36b40)" style="fill: #c70039; fill-opacity: 0.99; stroke: #c70039; stroke-opacity: 0.99"/>
    <path d="M 478.992348 235.363724 
C 485.105834 235.363724 490.96975 232.934811 495.292638 228.611923 
C 499.615525 224.289036 502.044439 218.425119 502.044439 212.311633 
C 502.044439 206.198147 499.615525 200.334231 495.292638 196.011344 
C 490.96975 191.688456 485.105834 189.259543 478.992348 189.259543 
C 472.878862 189.259543 467.014945 191.688456 462.692058 196.011344 
C 458.369171 200.334231 455.940257 206.198147 455.940257 212.311633 
C 455.940257 218.425119 458.369171 224.289036 462.692058 228.611923 
C 467.014945 232.934811 472.878862 235.363724 478.992348 235.363724 
z
" clip-path="url(#p5c8df36b40)" style="fill: #c70039; fill-opacity: 0.99; stroke: #c70039; stroke-opacity: 0.99"/>
    <path d="M 426.29985 161.987936 
C 432.082341 161.987936 437.628774 159.690528 441.717613 155.60169 
C 445.806452 151.512851 448.10386 145.966418 448.10386 140.183927 
C 448.10386 134.401436 445.806452 128.855002 441.717613 124.766163 
C 437.628774 120.677325 432.082341 118.379917 426.29985 118.379917 
C 420.517359 118.379917 414.970925 120.677325 410.882087 124.766163 
C 406.793248 128.855002 404.49584 134.401436 404.49584 140.183927 
C 404.49584 145.966418 406.793248 151.512851 410.882087 155.60169 
C 414.970925 159.690528 420.517359 161.987936 426.29985 161.987936 
z
" clip-path="url(#p5c8df36b40)" style="fill: #c70039; fill-opacity: 0.99; stroke: #c70039; stroke-opacity: 0.99"/>
    <path d="M 348.664291 117.279818 
C 354.412106 117.279818 359.925278 114.996187 363.989597 110.931868 
C 368.053915 106.86755 370.337546 101.354377 370.337546 95.606563 
C 370.337546 89.858748 368.053915 84.345576 363.989597 80.281257 
C 359.925278 76.216939 354.412106 73.933308 348.664291 73.933308 
C 342.916477 73.933308 337.403304 76.216939 333.338986 80.281257 
C 329.274667 84.345576 326.991036 89.858748 326.991036 95.606563 
C 326.991036 101.354377 329.274667 106.86755 333.338986 110.931868 
C 337.403304 114.996187 342.916477 117.279818 348.664291 117.279818 
z
" clip-path="url(#p5c8df36b40)" style="fill: #c70039; fill-opacity: 0.99; stroke: #c70039; stroke-opacity: 0.99"/>
    <path d="M 259.509549 107.908162 
C 265.243453 107.908162 270.743284 105.630058 274.797767 101.575575 
C 278.85225 97.521092 281.130355 92.021261 281.130355 86.287356 
C 281.130355 80.553451 278.85225 75.05362 274.797767 70.999137 
C 270.743284 66.944654 265.243453 64.666549 259.509549 64.666549 
C 253.775644 64.666549 248.275813 66.944654 244.22133 70.999137 
C 240.166847 75.05362 237.888742 80.553451 237.888742 86.287356 
C 237.888742 92.021261 240.166847 97.521092 244.22133 101.575575 
C 248.275813 105.630058 253.775644 107.908162 259.509549 107.908162 
z
" clip-path="url(#p5c8df36b40)" style="fill: #c70039; fill-opacity: 0.99; stroke: #c70039; stroke-opacity: 0.99"/>
    <path d="M 174.251298 135.285606 
C 179.939351 135.285606 185.395202 133.025718 189.417263 129.003657 
C 193.439324 124.981596 195.699211 119.525745 195.699211 113.837692 
C 195.699211 108.149639 193.439324 102.693788 189.417263 98.671727 
C 185.395202 94.649666 179.939351 92.389779 174.251298 92.389779 
C 168.563245 92.389779 163.107394 94.649666 159.085333 98.671727 
C 155.063272 102.693788 152.803385 108.149639 152.803385 113.837692 
C 152.803385 119.525745 155.063272 124.981596 159.085333 129.003657 
C 163.107394 133.025718 168.563245 135.285606 174.251298 135.285606 
z
" clip-path="url(#p5c8df36b40)" style="fill: #c70039; fill-opacity: 0.99; stroke: #c70039; stroke-opacity: 0.99"/>
    <path d="M 107.631477 194.50832 
C 113.204578 194.50832 118.55017 192.294103 122.490948 188.353325 
C 126.431726 184.412547 128.645943 179.066955 128.645943 173.493854 
C 128.645943 167.920752 126.431726 162.57516 122.490948 158.634382 
C 118.55017 154.693605 113.204578 152.479388 107.631477 152.479388 
C 102.058376 152.479388 96.712784 154.693605 92.772006 158.634382 
C 88.831228 162.57516 86.617011 167.920752 86.617011 173.493854 
C 86.617011 179.066955 88.831228 184.412547 92.772006 188.353325 
C 96.712784 192.294103 102.058376 194.50832 107.631477 194.50832 
z
" clip-path="url(#p5c8df36b40)" style="fill: #c70039; fill-opacity: 0.99; stroke: #c70039; stroke-opacity: 0.99"/>
    <path d="M 71.169231 275.825218 
C 76.70785 275.825218 82.020368 273.624701 85.936763 269.708306 
C 89.853158 265.791911 92.053675 260.479393 92.053675 254.940774 
C 92.053675 249.402154 89.853158 244.089637 85.936763 240.173242 
C 82.020368 236.256846 76.70785 234.056329 71.169231 234.056329 
C 65.630611 234.056329 60.318094 236.256846 56.401699 240.173242 
C 52.485303 244.089637 50.284786 249.402154 50.284786 254.940774 
C 50.284786 260.479393 52.485303 265.791911 56.401699 269.708306 
C 60.318094 273.624701 65.630611 275.825218 71.169231 275.825218 
z
" clip-path="url(#p5c8df36b40)" style="fill: #c70039; fill-opacity: 0.99; stroke: #c70039; stroke-opacity: 0.99"/>
    <path d="M 71.169244 364.611568 
C 76.610165 364.611568 81.828972 362.449867 85.676284 358.602555 
C 89.523596 354.755243 91.685297 349.536435 91.685297 344.095514 
C 91.685297 338.654594 89.523596 333.435786 85.676284 329.588474 
C 81.828972 325.741162 76.610165 323.579461 71.169244 323.579461 
C 65.728323 323.579461 60.509515 325.741162 56.662203 329.588474 
C 52.814891 333.435786 50.65319 338.654594 50.65319 344.095514 
C 50.65319 349.536435 52.814891 354.755243 56.662203 358.602555 
C 60.509515 362.449867 65.728323 364.611568 71.169244 364.611568 
z
" clip-path="url(#p5c8df36b40)" style="fill: #c70039; fill-opacity: 0.99; stroke: #c70039; stroke-opacity: 0.99"/>
    <path d="M 107.63149 445.875142 
C 113.023794 445.875142 118.195968 443.732757 122.008903 439.919822 
C 125.821837 436.106888 127.964222 430.934713 127.964222 425.542409 
C 127.964222 420.150105 125.821837 414.977931 122.008903 411.164996 
C 118.195968 407.352062 113.023794 405.209677 107.63149 405.209677 
C 102.239186 405.209677 97.067011 407.352062 93.254077 411.164996 
C 89.441142 414.977931 87.298757 420.150105 87.298757 425.542409 
C 87.298757 430.934713 89.441142 436.106888 93.254077 439.919822 
C 97.067011 443.732757 102.239186 445.875142 107.63149 445.875142 
z
" clip-path="url(#p5c8df36b40)" style="fill: #c70039; fill-opacity: 0.99; stroke: #c70039; stroke-opacity: 0.99"/>
    <path d="M 174.25133 505.063888 
C 179.519674 505.063888 184.57295 502.970753 188.298231 499.245472 
C 192.023513 495.52019 194.116648 490.466914 194.116648 485.198571 
C 194.116648 479.930227 192.023513 474.876951 188.298231 471.15167 
C 184.57295 467.426388 179.519674 465.333253 174.25133 465.333253 
C 168.982986 465.333253 163.929711 467.426388 160.204429 471.15167 
C 156.479148 474.876951 154.386012 479.930227 154.386012 485.198571 
C 154.386012 490.466914 156.479148 495.52019 160.204429 499.245472 
C 163.929711 502.970753 168.982986 505.063888 174.25133 505.063888 
z
" clip-path="url(#p5c8df36b40)" style="fill: #c70039; fill-opacity: 0.99; stroke: #c70039; stroke-opacity: 0.99"/>
    <path d="M 259.509587 532.567793 
C 264.76562 532.567793 269.807088 530.479548 273.523665 526.762972 
C 277.240241 523.046395 279.328486 518.004928 279.328486 512.748894 
C 279.328486 507.492861 277.240241 502.451394 273.523665 498.734817 
C 269.807088 495.01824 264.76562 492.929996 259.509587 492.929996 
C 254.253554 492.929996 249.212087 495.01824 245.49551 498.734817 
C 241.778933 502.451394 239.690689 507.492861 239.690689 512.748894 
C 239.690689 518.004928 241.778933 523.046395 245.49551 526.762972 
C 249.212087 530.479548 254.253554 532.567793 259.509587 532.567793 
z
" clip-path="url(#p5c8df36b40)" style="fill: #c70039; fill-opacity: 0.99; stroke: #c70039; stroke-opacity: 0.99"/>
    <path d="M 348.664323 522.942253 
C 353.83912 522.942253 358.802666 520.886284 362.4618 517.227151 
C 366.120933 513.568017 368.176901 508.604471 368.176901 503.429675 
C 368.176901 498.254878 366.120933 493.291332 362.4618 489.632198 
C 358.802666 485.973065 353.83912 483.917096 348.664323 483.917096 
C 343.489527 483.917096 338.525981 485.973065 334.866847 489.632198 
C 331.207714 493.291332 329.151745 498.254878 329.151745 503.429675 
C 329.151745 508.604471 331.207714 513.568017 334.866847 517.227151 
C 338.525981 520.886284 343.489527 522.942253 348.664323 522.942253 
z
" clip-path="url(#p5c8df36b40)" style="fill: #c70039; fill-opacity: 0.99; stroke: #c70039; stroke-opacity: 0.99"/>
    <path d="M 426.299888 478.315466 
C 431.461584 478.315466 436.412566 476.264703 440.062436 472.614832 
C 443.712306 468.964962 445.76307 464.013981 445.76307 458.852285 
C 445.76307 453.690589 443.712306 448.739608 440.062436 445.089738 
C 436.412566 441.439867 431.461584 439.389104 426.299888 439.389104 
C 421.138192 439.389104 416.187211 441.439867 412.537341 445.089738 
C 408.887471 448.739608 406.836707 453.690589 406.836707 458.852285 
C 406.836707 464.013981 408.887471 468.964962 412.537341 472.614832 
C 416.187211 476.264703 421.138192 478.315466 426.299888 478.315466 
z
" clip-path="url(#p5c8df36b40)" style="fill: #c70039; fill-opacity: 0.99; stroke: #c70039; stroke-opacity: 0.99"/>
    <path d="M 478.992374 406.089501 
C 484.128009 406.089501 489.053994 404.049092 492.685437 400.417649 
C 496.31688 396.786206 498.35729 391.860221 498.35729 386.724585 
C 498.35729 381.588949 496.31688 376.662964 492.685437 373.031521 
C 489.053994 369.400078 484.128009 367.359668 478.992374 367.359668 
C 473.856738 367.359668 468.930753 369.400078 465.29931 373.031521 
C 461.667867 376.662964 459.627457 381.588949 459.627457 386.724585 
C 459.627457 391.860221 461.667867 396.786206 465.29931 400.417649 
C 468.930753 404.049092 473.856738 406.089501 478.992374 406.089501 
z
" clip-path="url(#p5c8df36b40)" style="fill: #c70039; fill-opacity: 0.99; stroke: #c70039; stroke-opacity: 0.99"/>
   </g>
   <g id="text_1">
    <g id="patch_2">
     <path d="M 471.917488 307.833281 
L 523.34405 307.833281 
L 523.34405 291.202969 
L 471.917488 291.202969 
z
" clip-path="url(#p5c8df36b40)" style="fill: #ffffff; opacity: 0.7; stroke: #000000; stroke-linejoin: miter"/>
    </g>
    <g clip-path="url(#p5c8df36b40)">
     <!-- Mel Blanc -->
     <g transform="translate(475.877488 302.001562)scale(0.09 -0.09)">
      <defs>
       <path id="DejaVuSans-4d" d="M 628 4666 
L 1569 4666 
L 2759 1491 
L 3956 4666 
L 4897 4666 
L 4897 0 
L 4281 0 
L 4281 4097 
L 3078 897 
L 2444 897 
L 1241 4097 
L 1241 0 
L 628 0 
L 628 4666 
z
" transform="scale(0.015625)"/>
       <path id="DejaVuSans-65" d="M 3597 1894 
L 3597 1613 
L 953 1613 
Q 991 1019 1311 708 
Q 1631 397 2203 397 
Q 2534 397 2845 478 
Q 3156 559 3463 722 
L 3463 178 
Q 3153 47 2828 -22 
Q 2503 -91 2169 -91 
Q 1331 -91 842 396 
Q 353 884 353 1716 
Q 353 2575 817 3079 
Q 1281 3584 2069 3584 
Q 2775 3584 3186 3129 
Q 3597 2675 3597 1894 
z
M 3022 2063 
Q 3016 2534 2758 2815 
Q 2500 3097 2075 3097 
Q 1594 3097 1305 2825 
Q 1016 2553 972 2059 
L 3022 2063 
z
" transform="scale(0.015625)"/>
       <path id="DejaVuSans-6c" d="M 603 4863 
L 1178 4863 
L 1178 0 
L 603 0 
L 603 4863 
z
" transform="scale(0.015625)"/>
       <path id="DejaVuSans-20" transform="scale(0.015625)"/>
       <path id="DejaVuSans-42" d="M 1259 2228 
L 1259 519 
L 2272 519 
Q 2781 519 3026 730 
Q 3272 941 3272 1375 
Q 3272 1813 3026 2020 
Q 2781 2228 2272 2228 
L 1259 2228 
z
M 1259 4147 
L 1259 2741 
L 2194 2741 
Q 2656 2741 2882 2914 
Q 3109 3088 3109 3444 
Q 3109 3797 2882 3972 
Q 2656 4147 2194 4147 
L 1259 4147 
z
M 628 4666 
L 2241 4666 
Q 2963 4666 3353 4366 
Q 3744 4066 3744 3513 
Q 3744 3084 3544 2831 
Q 3344 2578 2956 2516 
Q 3422 2416 3680 2098 
Q 3938 1781 3938 1306 
Q 3938 681 3513 340 
Q 3088 0 2303 0 
L 628 0 
L 628 4666 
z
" transform="scale(0.015625)"/>
       <path id="DejaVuSans-61" d="M 2194 1759 
Q 1497 1759 1228 1600 
Q 959 1441 959 1056 
Q 959 750 1161 570 
Q 1363 391 1709 391 
Q 2188 391 2477 730 
Q 2766 1069 2766 1631 
L 2766 1759 
L 2194 1759 
z
M 3341 1997 
L 3341 0 
L 2766 0 
L 2766 531 
Q 2569 213 2275 61 
Q 1981 -91 1556 -91 
Q 1019 -91 701 211 
Q 384 513 384 1019 
Q 384 1609 779 1909 
Q 1175 2209 1959 2209 
L 2766 2209 
L 2766 2266 
Q 2766 2663 2505 2880 
Q 2244 3097 1772 3097 
Q 1472 3097 1187 3025 
Q 903 2953 641 2809 
L 641 3341 
Q 956 3463 1253 3523 
Q 1550 3584 1831 3584 
Q 2591 3584 2966 3190 
Q 3341 2797 3341 1997 
z
" transform="scale(0.015625)"/>
       <path id="DejaVuSans-6e" d="M 3513 2113 
L 3513 0 
L 2938 0 
L 2938 2094 
Q 2938 2591 2744 2837 
Q 2550 3084 2163 3084 
Q 1697 3084 1428 2787 
Q 1159 2491 1159 1978 
L 1159 0 
L 581 0 
L 581 3500 
L 1159 3500 
L 1159 2956 
Q 1366 3272 1645 3428 
Q 1925 3584 2291 3584 
Q 2894 3584 3203 3211 
Q 3513 2838 3513 2113 
z
" transform="scale(0.015625)"/>
       <path id="DejaVuSans-63" d="M 3122 3366 
L 3122 2828 
Q 2878 2963 2633 3030 
Q 2388 3097 2138 3097 
Q 1578 3097 1268 2742 
Q 959 2388 959 1747 
Q 959 1106 1268 751 
Q 1578 397 2138 397 
Q 2388 397 2633 464 
Q 2878 531 3122 666 
L 3122 134 
Q 2881 22 2623 -34 
Q 2366 -91 2075 -91 
Q 1284 -91 818 406 
Q 353 903 353 1747 
Q 353 2603 823 3093 
Q 1294 3584 2113 3584 
Q 2378 3584 2631 3529 
Q 2884 3475 3122 3366 
z
" transform="scale(0.015625)"/>
      </defs>
      <use xlink:href="#DejaVuSans-4d"/>
      <use xlink:href="#DejaVuSans-65" x="86.279297"/>
      <use xlink:href="#DejaVuSans-6c" x="147.802734"/>
      <use xlink:href="#DejaVuSans-20" x="175.585938"/>
      <use xlink:href="#DejaVuSans-42" x="207.373047"/>
      <use xlink:href="#DejaVuSans-6c" x="275.976562"/>
      <use xlink:href="#DejaVuSans-61" x="303.759766"/>
      <use xlink:href="#DejaVuSans-6e" x="365.039062"/>
      <use xlink:href="#DejaVuSans-63" x="428.417969"/>
     </g>
    </g>
   </g>
   <g id="text_2">
    <g id="patch_3">
     <path d="M 442.540942 220.62679 
L 515.443754 220.62679 
L 515.443754 203.996477 
L 442.540942 203.996477 
z
" clip-path="url(#p5c8df36b40)" style="fill: #ffffff; opacity: 0.7; stroke: #000000; stroke-linejoin: miter"/>
    </g>
    <g clip-path="url(#p5c8df36b40)">
     <!-- Jack Nicholson -->
     <g transform="translate(446.500942 214.795071)scale(0.09 -0.09)">
      <defs>
       <path id="DejaVuSans-4a" d="M 628 4666 
L 1259 4666 
L 1259 325 
Q 1259 -519 939 -900 
Q 619 -1281 -91 -1281 
L -331 -1281 
L -331 -750 
L -134 -750 
Q 284 -750 456 -515 
Q 628 -281 628 325 
L 628 4666 
z
" transform="scale(0.015625)"/>
       <path id="DejaVuSans-6b" d="M 581 4863 
L 1159 4863 
L 1159 1991 
L 2875 3500 
L 3609 3500 
L 1753 1863 
L 3688 0 
L 2938 0 
L 1159 1709 
L 1159 0 
L 581 0 
L 581 4863 
z
" transform="scale(0.015625)"/>
       <path id="DejaVuSans-4e" d="M 628 4666 
L 1478 4666 
L 3547 763 
L 3547 4666 
L 4159 4666 
L 4159 0 
L 3309 0 
L 1241 3903 
L 1241 0 
L 628 0 
L 628 4666 
z
" transform="scale(0.015625)"/>
       <path id="DejaVuSans-69" d="M 603 3500 
L 1178 3500 
L 1178 0 
L 603 0 
L 603 3500 
z
M 603 4863 
L 1178 4863 
L 1178 4134 
L 603 4134 
L 603 4863 
z
" transform="scale(0.015625)"/>
       <path id="DejaVuSans-68" d="M 3513 2113 
L 3513 0 
L 2938 0 
L 2938 2094 
Q 2938 2591 2744 2837 
Q 2550 3084 2163 3084 
Q 1697 3084 1428 2787 
Q 1159 2491 1159 1978 
L 1159 0 
L 581 0 
L 581 4863 
L 1159 4863 
L 1159 2956 
Q 1366 3272 1645 3428 
Q 1925 3584 2291 3584 
Q 2894 3584 3203 3211 
Q 3513 2838 3513 2113 
z
" transform="scale(0.015625)"/>
       <path id="DejaVuSans-6f" d="M 1959 3097 
Q 1497 3097 1228 2736 
Q 959 2375 959 1747 
Q 959 1119 1226 758 
Q 1494 397 1959 397 
Q 2419 397 2687 759 
Q 2956 1122 2956 1747 
Q 2956 2369 2687 2733 
Q 2419 3097 1959 3097 
z
M 1959 3584 
Q 2709 3584 3137 3096 
Q 3566 2609 3566 1747 
Q 3566 888 3137 398 
Q 2709 -91 1959 -91 
Q 1206 -91 779 398 
Q 353 888 353 1747 
Q 353 2609 779 3096 
Q 1206 3584 1959 3584 
z
" transform="scale(0.015625)"/>
       <path id="DejaVuSans-73" d="M 2834 3397 
L 2834 2853 
Q 2591 2978 2328 3040 
Q 2066 3103 1784 3103 
Q 1356 3103 1142 2972 
Q 928 2841 928 2578 
Q 928 2378 1081 2264 
Q 1234 2150 1697 2047 
L 1894 2003 
Q 2506 1872 2764 1633 
Q 3022 1394 3022 966 
Q 3022 478 2636 193 
Q 2250 -91 1575 -91 
Q 1294 -91 989 -36 
Q 684 19 347 128 
L 347 722 
Q 666 556 975 473 
Q 1284 391 1588 391 
Q 1994 391 2212 530 
Q 2431 669 2431 922 
Q 2431 1156 2273 1281 
Q 2116 1406 1581 1522 
L 1381 1569 
Q 847 1681 609 1914 
Q 372 2147 372 2553 
Q 372 3047 722 3315 
Q 1072 3584 1716 3584 
Q 2034 3584 2315 3537 
Q 2597 3491 2834 3397 
z
" transform="scale(0.015625)"/>
      </defs>
      <use xlink:href="#DejaVuSans-4a"/>
      <use xlink:href="#DejaVuSans-61" x="29.492188"/>
      <use xlink:href="#DejaVuSans-63" x="90.771484"/>
      <use xlink:href="#DejaVuSans-6b" x="145.751953"/>
      <use xlink:href="#DejaVuSans-20" x="203.662109"/>
      <use xlink:href="#DejaVuSans-4e" x="235.449219"/>
      <use xlink:href="#DejaVuSans-69" x="310.253906"/>
      <use xlink:href="#DejaVuSans-63" x="338.037109"/>
      <use xlink:href="#DejaVuSans-68" x="393.017578"/>
      <use xlink:href="#DejaVuSans-6f" x="456.396484"/>
      <use xlink:href="#DejaVuSans-6c" x="517.578125"/>
      <use xlink:href="#DejaVuSans-73" x="545.361328"/>
      <use xlink:href="#DejaVuSans-6f" x="597.460938"/>
      <use xlink:href="#DejaVuSans-6e" x="658.642578"/>
     </g>
    </g>
   </g>
   <g id="text_3">
    <g id="patch_4">
     <path d="M 393.243834 148.499083 
L 459.355865 148.499083 
L 459.355865 131.86877 
L 393.243834 131.86877 
z
" clip-path="url(#p5c8df36b40)" style="fill: #ffffff; opacity: 0.7; stroke: #000000; stroke-linejoin: miter"/>
    </g>
    <g clip-path="url(#p5c8df36b40)">
     <!-- John Travolta -->
     <g transform="translate(397.203834 142.667364)scale(0.09 -0.09)">
      <defs>
       <path id="DejaVuSans-54" d="M -19 4666 
L 3928 4666 
L 3928 4134 
L 2272 4134 
L 2272 0 
L 1638 0 
L 1638 4134 
L -19 4134 
L -19 4666 
z
" transform="scale(0.015625)"/>
       <path id="DejaVuSans-72" d="M 2631 2963 
Q 2534 3019 2420 3045 
Q 2306 3072 2169 3072 
Q 1681 3072 1420 2755 
Q 1159 2438 1159 1844 
L 1159 0 
L 581 0 
L 581 3500 
L 1159 3500 
L 1159 2956 
Q 1341 3275 1631 3429 
Q 1922 3584 2338 3584 
Q 2397 3584 2469 3576 
Q 2541 3569 2628 3553 
L 2631 2963 
z
" transform="scale(0.015625)"/>
       <path id="DejaVuSans-76" d="M 191 3500 
L 800 3500 
L 1894 563 
L 2988 3500 
L 3597 3500 
L 2284 0 
L 1503 0 
L 191 3500 
z
" transform="scale(0.015625)"/>
       <path id="DejaVuSans-74" d="M 1172 4494 
L 1172 3500 
L 2356 3500 
L 2356 3053 
L 1172 3053 
L 1172 1153 
Q 1172 725 1289 603 
Q 1406 481 1766 481 
L 2356 481 
L 2356 0 
L 1766 0 
Q 1100 0 847 248 
Q 594 497 594 1153 
L 594 3053 
L 172 3053 
L 172 3500 
L 594 3500 
L 594 4494 
L 1172 4494 
z
" transform="scale(0.015625)"/>
      </defs>
      <use xlink:href="#DejaVuSans-4a"/>
      <use xlink:href="#DejaVuSans-6f" x="29.492188"/>
      <use xlink:href="#DejaVuSans-68" x="90.673828"/>
      <use xlink:href="#DejaVuSans-6e" x="154.052734"/>
      <use xlink:href="#DejaVuSans-20" x="217.431641"/>
      <use xlink:href="#DejaVuSans-54" x="249.21875"/>
      <use xlink:href="#DejaVuSans-72" x="295.552734"/>
      <use xlink:href="#DejaVuSans-61" x="336.666016"/>
      <use xlink:href="#DejaVuSans-76" x="397.945312"/>
      <use xlink:href="#DejaVuSans-6f" x="457.125"/>
      <use xlink:href="#DejaVuSans-6c" x="518.306641"/>
      <use xlink:href="#DejaVuSans-74" x="546.089844"/>
      <use xlink:href="#DejaVuSans-61" x="585.298828"/>
     </g>
    </g>
   </g>
   <g id="text_4">
    <g id="patch_5">
     <path d="M 315.242651 103.921719 
L 382.085932 103.921719 
L 382.085932 87.291406 
L 315.242651 87.291406 
z
" clip-path="url(#p5c8df36b40)" style="fill: #ffffff; opacity: 0.7; stroke: #000000; stroke-linejoin: miter"/>
    </g>
    <g clip-path="url(#p5c8df36b40)">
     <!-- Stanley Tucci -->
     <g transform="translate(319.202651 98.09)scale(0.09 -0.09)">
      <defs>
       <path id="DejaVuSans-53" d="M 3425 4513 
L 3425 3897 
Q 3066 4069 2747 4153 
Q 2428 4238 2131 4238 
Q 1616 4238 1336 4038 
Q 1056 3838 1056 3469 
Q 1056 3159 1242 3001 
Q 1428 2844 1947 2747 
L 2328 2669 
Q 3034 2534 3370 2195 
Q 3706 1856 3706 1288 
Q 3706 609 3251 259 
Q 2797 -91 1919 -91 
Q 1588 -91 1214 -16 
Q 841 59 441 206 
L 441 856 
Q 825 641 1194 531 
Q 1563 422 1919 422 
Q 2459 422 2753 634 
Q 3047 847 3047 1241 
Q 3047 1584 2836 1778 
Q 2625 1972 2144 2069 
L 1759 2144 
Q 1053 2284 737 2584 
Q 422 2884 422 3419 
Q 422 4038 858 4394 
Q 1294 4750 2059 4750 
Q 2388 4750 2728 4690 
Q 3069 4631 3425 4513 
z
" transform="scale(0.015625)"/>
       <path id="DejaVuSans-79" d="M 2059 -325 
Q 1816 -950 1584 -1140 
Q 1353 -1331 966 -1331 
L 506 -1331 
L 506 -850 
L 844 -850 
Q 1081 -850 1212 -737 
Q 1344 -625 1503 -206 
L 1606 56 
L 191 3500 
L 800 3500 
L 1894 763 
L 2988 3500 
L 3597 3500 
L 2059 -325 
z
" transform="scale(0.015625)"/>
       <path id="DejaVuSans-75" d="M 544 1381 
L 544 3500 
L 1119 3500 
L 1119 1403 
Q 1119 906 1312 657 
Q 1506 409 1894 409 
Q 2359 409 2629 706 
Q 2900 1003 2900 1516 
L 2900 3500 
L 3475 3500 
L 3475 0 
L 2900 0 
L 2900 538 
Q 2691 219 2414 64 
Q 2138 -91 1772 -91 
Q 1169 -91 856 284 
Q 544 659 544 1381 
z
M 1991 3584 
L 1991 3584 
z
" transform="scale(0.015625)"/>
      </defs>
      <use xlink:href="#DejaVuSans-53"/>
      <use xlink:href="#DejaVuSans-74" x="63.476562"/>
      <use xlink:href="#DejaVuSans-61" x="102.685547"/>
      <use xlink:href="#DejaVuSans-6e" x="163.964844"/>
      <use xlink:href="#DejaVuSans-6c" x="227.34375"/>
      <use xlink:href="#DejaVuSans-65" x="255.126953"/>
      <use xlink:href="#DejaVuSans-79" x="316.650391"/>
      <use xlink:href="#DejaVuSans-20" x="375.830078"/>
      <use xlink:href="#DejaVuSans-54" x="407.617188"/>
      <use xlink:href="#DejaVuSans-75" x="453.576172"/>
      <use xlink:href="#DejaVuSans-63" x="516.955078"/>
      <use xlink:href="#DejaVuSans-63" x="571.935547"/>
      <use xlink:href="#DejaVuSans-69" x="626.916016"/>
     </g>
    </g>
   </g>
   <g id="text_5">
    <g id="patch_6">
     <path d="M 223.625564 94.602512 
L 295.393533 94.602512 
L 295.393533 77.9722 
L 223.625564 77.9722 
z
" clip-path="url(#p5c8df36b40)" style="fill: #ffffff; opacity: 0.7; stroke: #000000; stroke-linejoin: miter"/>
    </g>
    <g clip-path="url(#p5c8df36b40)">
     <!-- Anne Bancroft -->
     <g transform="translate(227.585564 88.770793)scale(0.09 -0.09)">
      <defs>
       <path id="DejaVuSans-41" d="M 2188 4044 
L 1331 1722 
L 3047 1722 
L 2188 4044 
z
M 1831 4666 
L 2547 4666 
L 4325 0 
L 3669 0 
L 3244 1197 
L 1141 1197 
L 716 0 
L 50 0 
L 1831 4666 
z
" transform="scale(0.015625)"/>
       <path id="DejaVuSans-66" d="M 2375 4863 
L 2375 4384 
L 1825 4384 
Q 1516 4384 1395 4259 
Q 1275 4134 1275 3809 
L 1275 3500 
L 2222 3500 
L 2222 3053 
L 1275 3053 
L 1275 0 
L 697 0 
L 697 3053 
L 147 3053 
L 147 3500 
L 697 3500 
L 697 3744 
Q 697 4328 969 4595 
Q 1241 4863 1831 4863 
L 2375 4863 
z
" transform="scale(0.015625)"/>
      </defs>
      <use xlink:href="#DejaVuSans-41"/>
      <use xlink:href="#DejaVuSans-6e" x="68.408203"/>
      <use xlink:href="#DejaVuSans-6e" x="131.787109"/>
      <use xlink:href="#DejaVuSans-65" x="195.166016"/>
      <use xlink:href="#DejaVuSans-20" x="256.689453"/>
      <use xlink:href="#DejaVuSans-42" x="288.476562"/>
      <use xlink:href="#DejaVuSans-61" x="357.080078"/>
      <use xlink:href="#DejaVuSans-6e" x="418.359375"/>
      <use xlink:href="#DejaVuSans-63" x="481.738281"/>
      <use xlink:href="#DejaVuSans-72" x="536.71875"/>
      <use xlink:href="#DejaVuSans-6f" x="575.582031"/>
      <use xlink:href="#DejaVuSans-66" x="636.763672"/>
      <use xlink:href="#DejaVuSans-74" x="670.21875"/>
     </g>
    </g>
   </g>
   <g id="text_6">
    <g id="patch_7">
     <path d="M 139.040204 122.152849 
L 209.462392 122.152849 
L 209.462392 105.522536 
L 139.040204 105.522536 
z
" clip-path="url(#p5c8df36b40)" style="fill: #ffffff; opacity: 0.7; stroke: #000000; stroke-linejoin: miter"/>
    </g>
    <g clip-path="url(#p5c8df36b40)">
     <!-- Robert Loggia -->
     <g transform="translate(143.000204 116.32113)scale(0.09 -0.09)">
      <defs>
       <path id="DejaVuSans-52" d="M 2841 2188 
Q 3044 2119 3236 1894 
Q 3428 1669 3622 1275 
L 4263 0 
L 3584 0 
L 2988 1197 
Q 2756 1666 2539 1819 
Q 2322 1972 1947 1972 
L 1259 1972 
L 1259 0 
L 628 0 
L 628 4666 
L 2053 4666 
Q 2853 4666 3247 4331 
Q 3641 3997 3641 3322 
Q 3641 2881 3436 2590 
Q 3231 2300 2841 2188 
z
M 1259 4147 
L 1259 2491 
L 2053 2491 
Q 2509 2491 2742 2702 
Q 2975 2913 2975 3322 
Q 2975 3731 2742 3939 
Q 2509 4147 2053 4147 
L 1259 4147 
z
" transform="scale(0.015625)"/>
       <path id="DejaVuSans-62" d="M 3116 1747 
Q 3116 2381 2855 2742 
Q 2594 3103 2138 3103 
Q 1681 3103 1420 2742 
Q 1159 2381 1159 1747 
Q 1159 1113 1420 752 
Q 1681 391 2138 391 
Q 2594 391 2855 752 
Q 3116 1113 3116 1747 
z
M 1159 2969 
Q 1341 3281 1617 3432 
Q 1894 3584 2278 3584 
Q 2916 3584 3314 3078 
Q 3713 2572 3713 1747 
Q 3713 922 3314 415 
Q 2916 -91 2278 -91 
Q 1894 -91 1617 61 
Q 1341 213 1159 525 
L 1159 0 
L 581 0 
L 581 4863 
L 1159 4863 
L 1159 2969 
z
" transform="scale(0.015625)"/>
       <path id="DejaVuSans-4c" d="M 628 4666 
L 1259 4666 
L 1259 531 
L 3531 531 
L 3531 0 
L 628 0 
L 628 4666 
z
" transform="scale(0.015625)"/>
       <path id="DejaVuSans-67" d="M 2906 1791 
Q 2906 2416 2648 2759 
Q 2391 3103 1925 3103 
Q 1463 3103 1205 2759 
Q 947 2416 947 1791 
Q 947 1169 1205 825 
Q 1463 481 1925 481 
Q 2391 481 2648 825 
Q 2906 1169 2906 1791 
z
M 3481 434 
Q 3481 -459 3084 -895 
Q 2688 -1331 1869 -1331 
Q 1566 -1331 1297 -1286 
Q 1028 -1241 775 -1147 
L 775 -588 
Q 1028 -725 1275 -790 
Q 1522 -856 1778 -856 
Q 2344 -856 2625 -561 
Q 2906 -266 2906 331 
L 2906 616 
Q 2728 306 2450 153 
Q 2172 0 1784 0 
Q 1141 0 747 490 
Q 353 981 353 1791 
Q 353 2603 747 3093 
Q 1141 3584 1784 3584 
Q 2172 3584 2450 3431 
Q 2728 3278 2906 2969 
L 2906 3500 
L 3481 3500 
L 3481 434 
z
" transform="scale(0.015625)"/>
      </defs>
      <use xlink:href="#DejaVuSans-52"/>
      <use xlink:href="#DejaVuSans-6f" x="64.982422"/>
      <use xlink:href="#DejaVuSans-62" x="126.164062"/>
      <use xlink:href="#DejaVuSans-65" x="189.640625"/>
      <use xlink:href="#DejaVuSans-72" x="251.164062"/>
      <use xlink:href="#DejaVuSans-74" x="292.277344"/>
      <use xlink:href="#DejaVuSans-20" x="331.486328"/>
      <use xlink:href="#DejaVuSans-4c" x="363.273438"/>
      <use xlink:href="#DejaVuSans-6f" x="417.236328"/>
      <use xlink:href="#DejaVuSans-67" x="478.417969"/>
      <use xlink:href="#DejaVuSans-67" x="541.894531"/>
      <use xlink:href="#DejaVuSans-69" x="605.371094"/>
      <use xlink:href="#DejaVuSans-61" x="633.154297"/>
     </g>
    </g>
   </g>
   <g id="text_7">
    <g id="patch_8">
     <path d="M 70.258977 181.80901 
L 145.003977 181.80901 
L 145.003977 165.178697 
L 70.258977 165.178697 
z
" clip-path="url(#p5c8df36b40)" style="fill: #ffffff; opacity: 0.7; stroke: #000000; stroke-linejoin: miter"/>
    </g>
    <g clip-path="url(#p5c8df36b40)">
     <!-- Steve Buscemi -->
     <g transform="translate(74.218977 175.977291)scale(0.09 -0.09)">
      <defs>
       <path id="DejaVuSans-6d" d="M 3328 2828 
Q 3544 3216 3844 3400 
Q 4144 3584 4550 3584 
Q 5097 3584 5394 3201 
Q 5691 2819 5691 2113 
L 5691 0 
L 5113 0 
L 5113 2094 
Q 5113 2597 4934 2840 
Q 4756 3084 4391 3084 
Q 3944 3084 3684 2787 
Q 3425 2491 3425 1978 
L 3425 0 
L 2847 0 
L 2847 2094 
Q 2847 2600 2669 2842 
Q 2491 3084 2119 3084 
Q 1678 3084 1418 2786 
Q 1159 2488 1159 1978 
L 1159 0 
L 581 0 
L 581 3500 
L 1159 3500 
L 1159 2956 
Q 1356 3278 1631 3431 
Q 1906 3584 2284 3584 
Q 2666 3584 2933 3390 
Q 3200 3197 3328 2828 
z
" transform="scale(0.015625)"/>
      </defs>
      <use xlink:href="#DejaVuSans-53"/>
      <use xlink:href="#DejaVuSans-74" x="63.476562"/>
      <use xlink:href="#DejaVuSans-65" x="102.685547"/>
      <use xlink:href="#DejaVuSans-76" x="164.208984"/>
      <use xlink:href="#DejaVuSans-65" x="223.388672"/>
      <use xlink:href="#DejaVuSans-20" x="284.912109"/>
      <use xlink:href="#DejaVuSans-42" x="316.699219"/>
      <use xlink:href="#DejaVuSans-75" x="385.302734"/>
      <use xlink:href="#DejaVuSans-73" x="448.681641"/>
      <use xlink:href="#DejaVuSans-63" x="500.78125"/>
      <use xlink:href="#DejaVuSans-65" x="555.761719"/>
      <use xlink:href="#DejaVuSans-6d" x="617.285156"/>
      <use xlink:href="#DejaVuSans-69" x="714.697266"/>
     </g>
    </g>
   </g>
   <g id="text_8">
    <g id="patch_9">
     <path d="M 34.078684 263.25593 
L 108.259778 263.25593 
L 108.259778 246.625618 
L 34.078684 246.625618 
z
" clip-path="url(#p5c8df36b40)" style="fill: #ffffff; opacity: 0.7; stroke: #000000; stroke-linejoin: miter"/>
    </g>
    <g clip-path="url(#p5c8df36b40)">
     <!-- Robert De Niro -->
     <g transform="translate(38.038684 257.424211)scale(0.09 -0.09)">
      <defs>
       <path id="DejaVuSans-44" d="M 1259 4147 
L 1259 519 
L 2022 519 
Q 2988 519 3436 956 
Q 3884 1394 3884 2338 
Q 3884 3275 3436 3711 
Q 2988 4147 2022 4147 
L 1259 4147 
z
M 628 4666 
L 1925 4666 
Q 3281 4666 3915 4102 
Q 4550 3538 4550 2338 
Q 4550 1131 3912 565 
Q 3275 0 1925 0 
L 628 0 
L 628 4666 
z
" transform="scale(0.015625)"/>
      </defs>
      <use xlink:href="#DejaVuSans-52"/>
      <use xlink:href="#DejaVuSans-6f" x="64.982422"/>
      <use xlink:href="#DejaVuSans-62" x="126.164062"/>
      <use xlink:href="#DejaVuSans-65" x="189.640625"/>
      <use xlink:href="#DejaVuSans-72" x="251.164062"/>
      <use xlink:href="#DejaVuSans-74" x="292.277344"/>
      <use xlink:href="#DejaVuSans-20" x="331.486328"/>
      <use xlink:href="#DejaVuSans-44" x="363.273438"/>
      <use xlink:href="#DejaVuSans-65" x="440.275391"/>
      <use xlink:href="#DejaVuSans-20" x="501.798828"/>
      <use xlink:href="#DejaVuSans-4e" x="533.585938"/>
      <use xlink:href="#DejaVuSans-69" x="608.390625"/>
      <use xlink:href="#DejaVuSans-72" x="636.173828"/>
      <use xlink:href="#DejaVuSans-6f" x="675.037109"/>
     </g>
    </g>
   </g>
   <g id="text_9">
    <g id="patch_10">
     <path d="M 34.755806 352.410671 
L 107.582681 352.410671 
L 107.582681 335.780358 
L 34.755806 335.780358 
z
" clip-path="url(#p5c8df36b40)" style="fill: #ffffff; opacity: 0.7; stroke: #000000; stroke-linejoin: miter"/>
    </g>
    <g clip-path="url(#p5c8df36b40)">
     <!-- James Stewart -->
     <g transform="translate(38.715806 346.578952)scale(0.09 -0.09)">
      <defs>
       <path id="DejaVuSans-77" d="M 269 3500 
L 844 3500 
L 1563 769 
L 2278 3500 
L 2956 3500 
L 3675 769 
L 4391 3500 
L 4966 3500 
L 4050 0 
L 3372 0 
L 2619 2869 
L 1863 0 
L 1184 0 
L 269 3500 
z
" transform="scale(0.015625)"/>
      </defs>
      <use xlink:href="#DejaVuSans-4a"/>
      <use xlink:href="#DejaVuSans-61" x="29.492188"/>
      <use xlink:href="#DejaVuSans-6d" x="90.771484"/>
      <use xlink:href="#DejaVuSans-65" x="188.183594"/>
      <use xlink:href="#DejaVuSans-73" x="249.707031"/>
      <use xlink:href="#DejaVuSans-20" x="301.806641"/>
      <use xlink:href="#DejaVuSans-53" x="333.59375"/>
      <use xlink:href="#DejaVuSans-74" x="397.070312"/>
      <use xlink:href="#DejaVuSans-65" x="436.279297"/>
      <use xlink:href="#DejaVuSans-77" x="497.802734"/>
      <use xlink:href="#DejaVuSans-61" x="579.589844"/>
      <use xlink:href="#DejaVuSans-72" x="640.869141"/>
      <use xlink:href="#DejaVuSans-74" x="681.982422"/>
     </g>
    </g>
   </g>
   <g id="text_10">
    <g id="patch_11">
     <path d="M 75.439615 433.857565 
L 139.823365 433.857565 
L 139.823365 417.227253 
L 75.439615 417.227253 
z
" clip-path="url(#p5c8df36b40)" style="fill: #ffffff; opacity: 0.7; stroke: #000000; stroke-linejoin: miter"/>
    </g>
    <g clip-path="url(#p5c8df36b40)">
     <!-- Mark Ruffalo -->
     <g transform="translate(79.399615 428.025847)scale(0.09 -0.09)">
      <use xlink:href="#DejaVuSans-4d"/>
      <use xlink:href="#DejaVuSans-61" x="86.279297"/>
      <use xlink:href="#DejaVuSans-72" x="147.558594"/>
      <use xlink:href="#DejaVuSans-6b" x="188.671875"/>
      <use xlink:href="#DejaVuSans-20" x="246.582031"/>
      <use xlink:href="#DejaVuSans-52" x="278.369141"/>
      <use xlink:href="#DejaVuSans-75" x="343.351562"/>
      <use xlink:href="#DejaVuSans-66" x="406.730469"/>
      <use xlink:href="#DejaVuSans-66" x="441.935547"/>
      <use xlink:href="#DejaVuSans-61" x="477.140625"/>
      <use xlink:href="#DejaVuSans-6c" x="538.419922"/>
      <use xlink:href="#DejaVuSans-6f" x="566.203125"/>
     </g>
    </g>
   </g>
   <g id="text_11">
    <g id="patch_12">
     <path d="M 137.231799 493.513727 
L 211.270861 493.513727 
L 211.270861 476.883414 
L 137.231799 476.883414 
z
" clip-path="url(#p5c8df36b40)" style="fill: #ffffff; opacity: 0.7; stroke: #000000; stroke-linejoin: miter"/>
    </g>
    <g clip-path="url(#p5c8df36b40)">
     <!-- Burt Lancaster -->
     <g transform="translate(141.191799 487.682008)scale(0.09 -0.09)">
      <use xlink:href="#DejaVuSans-42"/>
      <use xlink:href="#DejaVuSans-75" x="68.603516"/>
      <use xlink:href="#DejaVuSans-72" x="131.982422"/>
      <use xlink:href="#DejaVuSans-74" x="173.095703"/>
      <use xlink:href="#DejaVuSans-20" x="212.304688"/>
      <use xlink:href="#DejaVuSans-4c" x="244.091797"/>
      <use xlink:href="#DejaVuSans-61" x="299.804688"/>
      <use xlink:href="#DejaVuSans-6e" x="361.083984"/>
      <use xlink:href="#DejaVuSans-63" x="424.462891"/>
      <use xlink:href="#DejaVuSans-61" x="479.443359"/>
      <use xlink:href="#DejaVuSans-73" x="540.722656"/>
      <use xlink:href="#DejaVuSans-74" x="592.822266"/>
      <use xlink:href="#DejaVuSans-65" x="632.03125"/>
      <use xlink:href="#DejaVuSans-72" x="693.554688"/>
     </g>
    </g>
   </g>
   <g id="text_12">
    <g id="patch_13">
     <path d="M 218.360603 521.06405 
L 300.658572 521.06405 
L 300.658572 504.433738 
L 218.360603 504.433738 
z
" clip-path="url(#p5c8df36b40)" style="fill: #ffffff; opacity: 0.7; stroke: #000000; stroke-linejoin: miter"/>
    </g>
    <g clip-path="url(#p5c8df36b40)">
     <!-- James Earl Jones -->
     <g transform="translate(222.320603 515.232332)scale(0.09 -0.09)">
      <defs>
       <path id="DejaVuSans-45" d="M 628 4666 
L 3578 4666 
L 3578 4134 
L 1259 4134 
L 1259 2753 
L 3481 2753 
L 3481 2222 
L 1259 2222 
L 1259 531 
L 3634 531 
L 3634 0 
L 628 0 
L 628 4666 
z
" transform="scale(0.015625)"/>
      </defs>
      <use xlink:href="#DejaVuSans-4a"/>
      <use xlink:href="#DejaVuSans-61" x="29.492188"/>
      <use xlink:href="#DejaVuSans-6d" x="90.771484"/>
      <use xlink:href="#DejaVuSans-65" x="188.183594"/>
      <use xlink:href="#DejaVuSans-73" x="249.707031"/>
      <use xlink:href="#DejaVuSans-20" x="301.806641"/>
      <use xlink:href="#DejaVuSans-45" x="333.59375"/>
      <use xlink:href="#DejaVuSans-61" x="396.777344"/>
      <use xlink:href="#DejaVuSans-72" x="458.056641"/>
      <use xlink:href="#DejaVuSans-6c" x="499.169922"/>
      <use xlink:href="#DejaVuSans-20" x="526.953125"/>
      <use xlink:href="#DejaVuSans-4a" x="558.740234"/>
      <use xlink:href="#DejaVuSans-6f" x="588.232422"/>
      <use xlink:href="#DejaVuSans-6e" x="649.414062"/>
      <use xlink:href="#DejaVuSans-65" x="712.792969"/>
      <use xlink:href="#DejaVuSans-73" x="774.316406"/>
     </g>
    </g>
   </g>
   <g id="text_13">
    <g id="patch_14">
     <path d="M 309.44823 511.744831 
L 387.880417 511.744831 
L 387.880417 495.114518 
L 309.44823 495.114518 
z
" clip-path="url(#p5c8df36b40)" style="fill: #ffffff; opacity: 0.7; stroke: #000000; stroke-linejoin: miter"/>
    </g>
    <g clip-path="url(#p5c8df36b40)">
     <!-- Dustin Hoffman -->
     <g transform="translate(313.40823 505.913112)scale(0.09 -0.09)">
      <defs>
       <path id="DejaVuSans-48" d="M 628 4666 
L 1259 4666 
L 1259 2753 
L 3553 2753 
L 3553 4666 
L 4184 4666 
L 4184 0 
L 3553 0 
L 3553 2222 
L 1259 2222 
L 1259 0 
L 628 0 
L 628 4666 
z
" transform="scale(0.015625)"/>
      </defs>
      <use xlink:href="#DejaVuSans-44"/>
      <use xlink:href="#DejaVuSans-75" x="77.001953"/>
      <use xlink:href="#DejaVuSans-73" x="140.380859"/>
      <use xlink:href="#DejaVuSans-74" x="192.480469"/>
      <use xlink:href="#DejaVuSans-69" x="231.689453"/>
      <use xlink:href="#DejaVuSans-6e" x="259.472656"/>
      <use xlink:href="#DejaVuSans-20" x="322.851562"/>
      <use xlink:href="#DejaVuSans-48" x="354.638672"/>
      <use xlink:href="#DejaVuSans-6f" x="429.833984"/>
      <use xlink:href="#DejaVuSans-66" x="491.015625"/>
      <use xlink:href="#DejaVuSans-66" x="526.220703"/>
      <use xlink:href="#DejaVuSans-6d" x="561.425781"/>
      <use xlink:href="#DejaVuSans-61" x="658.837891"/>
      <use xlink:href="#DejaVuSans-6e" x="720.117188"/>
     </g>
    </g>
   </g>
   <g id="text_14">
    <g id="patch_15">
     <path d="M 394.830826 467.167441 
L 457.768951 467.167441 
L 457.768951 450.537129 
L 394.830826 450.537129 
z
" clip-path="url(#p5c8df36b40)" style="fill: #ffffff; opacity: 0.7; stroke: #000000; stroke-linejoin: miter"/>
    </g>
    <g clip-path="url(#p5c8df36b40)">
     <!-- Tim Robbins -->
     <g transform="translate(398.790826 461.335723)scale(0.09 -0.09)">
      <use xlink:href="#DejaVuSans-54"/>
      <use xlink:href="#DejaVuSans-69" x="57.958984"/>
      <use xlink:href="#DejaVuSans-6d" x="85.742188"/>
      <use xlink:href="#DejaVuSans-20" x="183.154297"/>
      <use xlink:href="#DejaVuSans-52" x="214.941406"/>
      <use xlink:href="#DejaVuSans-6f" x="279.923828"/>
      <use xlink:href="#DejaVuSans-62" x="341.105469"/>
      <use xlink:href="#DejaVuSans-62" x="404.582031"/>
      <use xlink:href="#DejaVuSans-69" x="468.058594"/>
      <use xlink:href="#DejaVuSans-6e" x="495.841797"/>
      <use xlink:href="#DejaVuSans-73" x="559.220703"/>
     </g>
    </g>
   </g>
   <g id="text_15">
    <g id="patch_16">
     <path d="M 447.402374 395.039741 
L 510.582374 395.039741 
L 510.582374 378.409428 
L 447.402374 378.409428 
z
" clip-path="url(#p5c8df36b40)" style="fill: #ffffff; opacity: 0.7; stroke: #000000; stroke-linejoin: miter"/>
    </g>
    <g clip-path="url(#p5c8df36b40)">
     <!-- Dean Martin -->
     <g transform="translate(451.362374 389.208022)scale(0.09 -0.09)">
      <use xlink:href="#DejaVuSans-44"/>
      <use xlink:href="#DejaVuSans-65" x="77.001953"/>
      <use xlink:href="#DejaVuSans-61" x="138.525391"/>
      <use xlink:href="#DejaVuSans-6e" x="199.804688"/>
      <use xlink:href="#DejaVuSans-20" x="263.183594"/>
      <use xlink:href="#DejaVuSans-4d" x="294.970703"/>
      <use xlink:href="#DejaVuSans-61" x="381.25"/>
      <use xlink:href="#DejaVuSans-72" x="442.529297"/>
      <use xlink:href="#DejaVuSans-74" x="483.642578"/>
      <use xlink:href="#DejaVuSans-69" x="522.851562"/>
      <use xlink:href="#DejaVuSans-6e" x="550.634766"/>
     </g>
    </g>
   </g>
   <g id="text_16">
    <!-- Impactful actors for World cinema genre - Importance rank: 4 -->
    <g transform="translate(99.75375 16.318125)scale(0.12 -0.12)">
     <defs>
      <path id="DejaVuSans-49" d="M 628 4666 
L 1259 4666 
L 1259 0 
L 628 0 
L 628 4666 
z
" transform="scale(0.015625)"/>
      <path id="DejaVuSans-70" d="M 1159 525 
L 1159 -1331 
L 581 -1331 
L 581 3500 
L 1159 3500 
L 1159 2969 
Q 1341 3281 1617 3432 
Q 1894 3584 2278 3584 
Q 2916 3584 3314 3078 
Q 3713 2572 3713 1747 
Q 3713 922 3314 415 
Q 2916 -91 2278 -91 
Q 1894 -91 1617 61 
Q 1341 213 1159 525 
z
M 3116 1747 
Q 3116 2381 2855 2742 
Q 2594 3103 2138 3103 
Q 1681 3103 1420 2742 
Q 1159 2381 1159 1747 
Q 1159 1113 1420 752 
Q 1681 391 2138 391 
Q 2594 391 2855 752 
Q 3116 1113 3116 1747 
z
" transform="scale(0.015625)"/>
      <path id="DejaVuSans-57" d="M 213 4666 
L 850 4666 
L 1831 722 
L 2809 4666 
L 3519 4666 
L 4500 722 
L 5478 4666 
L 6119 4666 
L 4947 0 
L 4153 0 
L 3169 4050 
L 2175 0 
L 1381 0 
L 213 4666 
z
" transform="scale(0.015625)"/>
      <path id="DejaVuSans-64" d="M 2906 2969 
L 2906 4863 
L 3481 4863 
L 3481 0 
L 2906 0 
L 2906 525 
Q 2725 213 2448 61 
Q 2172 -91 1784 -91 
Q 1150 -91 751 415 
Q 353 922 353 1747 
Q 353 2572 751 3078 
Q 1150 3584 1784 3584 
Q 2172 3584 2448 3432 
Q 2725 3281 2906 2969 
z
M 947 1747 
Q 947 1113 1208 752 
Q 1469 391 1925 391 
Q 2381 391 2643 752 
Q 2906 1113 2906 1747 
Q 2906 2381 2643 2742 
Q 2381 3103 1925 3103 
Q 1469 3103 1208 2742 
Q 947 2381 947 1747 
z
" transform="scale(0.015625)"/>
      <path id="DejaVuSans-2d" d="M 313 2009 
L 1997 2009 
L 1997 1497 
L 313 1497 
L 313 2009 
z
" transform="scale(0.015625)"/>
      <path id="DejaVuSans-3a" d="M 750 794 
L 1409 794 
L 1409 0 
L 750 0 
L 750 794 
z
M 750 3309 
L 1409 3309 
L 1409 2516 
L 750 2516 
L 750 3309 
z
" transform="scale(0.015625)"/>
      <path id="DejaVuSans-34" d="M 2419 4116 
L 825 1625 
L 2419 1625 
L 2419 4116 
z
M 2253 4666 
L 3047 4666 
L 3047 1625 
L 3713 1625 
L 3713 1100 
L 3047 1100 
L 3047 0 
L 2419 0 
L 2419 1100 
L 313 1100 
L 313 1709 
L 2253 4666 
z
" transform="scale(0.015625)"/>
     </defs>
     <use xlink:href="#DejaVuSans-49"/>
     <use xlink:href="#DejaVuSans-6d" x="29.492188"/>
     <use xlink:href="#DejaVuSans-70" x="126.904297"/>
     <use xlink:href="#DejaVuSans-61" x="190.380859"/>
     <use xlink:href="#DejaVuSans-63" x="251.660156"/>
     <use xlink:href="#DejaVuSans-74" x="306.640625"/>
     <use xlink:href="#DejaVuSans-66" x="345.849609"/>
     <use xlink:href="#DejaVuSans-75" x="381.054688"/>
     <use xlink:href="#DejaVuSans-6c" x="444.433594"/>
     <use xlink:href="#DejaVuSans-20" x="472.216797"/>
     <use xlink:href="#DejaVuSans-61" x="504.003906"/>
     <use xlink:href="#DejaVuSans-63" x="565.283203"/>
     <use xlink:href="#DejaVuSans-74" x="620.263672"/>
     <use xlink:href="#DejaVuSans-6f" x="659.472656"/>
     <use xlink:href="#DejaVuSans-72" x="720.654297"/>
     <use xlink:href="#DejaVuSans-73" x="761.767578"/>
     <use xlink:href="#DejaVuSans-20" x="813.867188"/>
     <use xlink:href="#DejaVuSans-66" x="845.654297"/>
     <use xlink:href="#DejaVuSans-6f" x="880.859375"/>
     <use xlink:href="#DejaVuSans-72" x="942.041016"/>
     <use xlink:href="#DejaVuSans-20" x="983.154297"/>
     <use xlink:href="#DejaVuSans-57" x="1014.941406"/>
     <use xlink:href="#DejaVuSans-6f" x="1107.943359"/>
     <use xlink:href="#DejaVuSans-72" x="1169.125"/>
     <use xlink:href="#DejaVuSans-6c" x="1210.238281"/>
     <use xlink:href="#DejaVuSans-64" x="1238.021484"/>
     <use xlink:href="#DejaVuSans-20" x="1301.498047"/>
     <use xlink:href="#DejaVuSans-63" x="1333.285156"/>
     <use xlink:href="#DejaVuSans-69" x="1388.265625"/>
     <use xlink:href="#DejaVuSans-6e" x="1416.048828"/>
     <use xlink:href="#DejaVuSans-65" x="1479.427734"/>
     <use xlink:href="#DejaVuSans-6d" x="1540.951172"/>
     <use xlink:href="#DejaVuSans-61" x="1638.363281"/>
     <use xlink:href="#DejaVuSans-20" x="1699.642578"/>
     <use xlink:href="#DejaVuSans-67" x="1731.429688"/>
     <use xlink:href="#DejaVuSans-65" x="1794.90625"/>
     <use xlink:href="#DejaVuSans-6e" x="1856.429688"/>
     <use xlink:href="#DejaVuSans-72" x="1919.808594"/>
     <use xlink:href="#DejaVuSans-65" x="1958.671875"/>
     <use xlink:href="#DejaVuSans-20" x="2020.195312"/>
     <use xlink:href="#DejaVuSans-2d" x="2051.982422"/>
     <use xlink:href="#DejaVuSans-20" x="2088.066406"/>
     <use xlink:href="#DejaVuSans-49" x="2119.853516"/>
     <use xlink:href="#DejaVuSans-6d" x="2149.345703"/>
     <use xlink:href="#DejaVuSans-70" x="2246.757812"/>
     <use xlink:href="#DejaVuSans-6f" x="2310.234375"/>
     <use xlink:href="#DejaVuSans-72" x="2371.416016"/>
     <use xlink:href="#DejaVuSans-74" x="2412.529297"/>
     <use xlink:href="#DejaVuSans-61" x="2451.738281"/>
     <use xlink:href="#DejaVuSans-6e" x="2513.017578"/>
     <use xlink:href="#DejaVuSans-63" x="2576.396484"/>
     <use xlink:href="#DejaVuSans-65" x="2631.376953"/>
     <use xlink:href="#DejaVuSans-20" x="2692.900391"/>
     <use xlink:href="#DejaVuSans-72" x="2724.6875"/>
     <use xlink:href="#DejaVuSans-61" x="2765.800781"/>
     <use xlink:href="#DejaVuSans-6e" x="2827.080078"/>
     <use xlink:href="#DejaVuSans-6b" x="2890.458984"/>
     <use xlink:href="#DejaVuSans-3a" x="2948.369141"/>
     <use xlink:href="#DejaVuSans-20" x="2982.060547"/>
     <use xlink:href="#DejaVuSans-34" x="3013.847656"/>
    </g>
   </g>
  </g>
 </g>
 <defs>
  <clipPath id="p5c8df36b40">
   <rect x="7.2" y="22.318125" width="554.4" height="554.4"/>
  </clipPath>
 </defs>
</svg>
